<?xml version="1.0" standalone="no"?>
<!DOCTYPE svg PUBLIC "-//W3C//DTD SVG 1.1//EN" "http://www.w3.org/Graphics/SVG/1.1/DTD/svg11.dtd">
<svg xmlns="http://www.w3.org/2000/svg" xmlns:xlink="http://www.w3.org/1999/xlink" version="1.1"
   viewBox="94 -151 2414 2169">
   <path fill="currentColor"
      d="M170 1978v-240h2260v240h-2260zM299 1835v-1937h140v1937h-140zM605 1587q-23 0 -40.5 -17t-17.5 -40v-19h-178v-80h178v-24q0 -23 17.5 -40.5t40.5 -17.5t40 17.5t17 40.5v24h21v-24q0 -23 17 -40.5t40 -17.5q24 0 41.5 17.5t17.5 40.5v24h21v-24q0 -23 17 -40.5
t40 -17.5t40 17.5t17 40.5v24h107v-24q0 -23 16.5 -40.5t39.5 -17.5q24 0 41 17.5t17 40.5v24h22v-24q0 -23 16.5 -40.5t39.5 -17.5q24 0 41 17.5t17 40.5v24h22v-24q0 -23 16.5 -40.5t39.5 -17.5q24 0 41 17.5t17 40.5v24h106v-24q0 -23 16.5 -40.5t40.5 -17.5t41 17.5
t17 40.5v24h22v-24q0 -23 17 -40.5t40 -17.5t40 17.5t17 40.5v24h21v-24q0 -23 17.5 -40.5t41.5 -17.5q23 0 40 17.5t17 40.5v24h21v-24q0 -23 17.5 -40.5t39.5 -17.5q23 0 40.5 17.5t17.5 40.5v24h175v80h-175v19q0 23 -17 40t-41 17q-23 0 -40 -17t-17 -40v-19h-21v19
q0 23 -17 40t-40 17q-25 0 -42 -17t-17 -40v-19h-21v19q0 23 -17 40t-40 17q-24 0 -40.5 -17t-16.5 -40v-19h-22v19q0 23 -17 40t-41 17t-40.5 -17t-16.5 -40v-19h-106v19q0 23 -17 40t-41 17q-23 0 -39.5 -17t-16.5 -40v-19h-22v19q0 23 -17 40t-41 17q-23 0 -39.5 -17
t-16.5 -40v-19h-22v19q0 23 -17 40t-41 17q-23 0 -39.5 -17t-16.5 -40v-19h-107v19q0 23 -16.5 40t-40.5 17q-23 0 -40 -17t-17 -40v-19h-21v19q0 23 -17 40t-42 17q-23 0 -40 -17t-17 -40v-19h-21v19q0 23 -17 40t-40 17zM605 1273q-23 0 -40.5 -17t-17.5 -40v-19h-178v-80
h178v-24q0 -23 17.5 -40.5t40.5 -17.5t40 17.5t17 40.5v24h21v-24q0 -23 17 -40.5t40 -17.5q24 0 41.5 17.5t17.5 40.5v24h21v-24q0 -23 17 -40.5t40 -17.5t40 17.5t17 40.5v24h22v-24q0 -23 17 -40.5t41 -17.5t40.5 17.5t16.5 40.5v24h189v-24q0 -23 17 -40.5t41 -17.5
q23 0 39.5 17.5t16.5 40.5v24h23v-24q0 -23 17 -40.5t41 -17.5q23 0 39.5 17.5t16.5 40.5v24h22v-24q0 -23 16.5 -40.5t40.5 -17.5t41 17.5t17 40.5v24h22v-24q0 -23 17 -40.5t40 -17.5t40 17.5t17 40.5v24h21v-24q0 -23 17.5 -40.5t41.5 -17.5q23 0 40 17.5t17 40.5v24h21
v-24q0 -23 17.5 -40.5t39.5 -17.5q23 0 40.5 17.5t17.5 40.5v24h175v80h-175v19q0 23 -17.5 40t-40.5 17t-40 -17t-17 -40v-19h-21v19q0 23 -17 40t-40 17q-25 0 -42 -17t-17 -40v-19h-21v19q0 23 -17 40t-40 17q-24 0 -40.5 -17t-16.5 -40v-19h-22v19q0 23 -17 40t-41 17
t-40.5 -17t-16.5 -40v-19h-22v19q0 23 -16.5 40t-39.5 17q-24 0 -41 -17t-17 -40v-19h-23v19q0 23 -16.5 40t-39.5 17q-24 0 -41 -17t-17 -40v-19h-189v19q0 23 -16.5 40t-40.5 17t-41 -17t-17 -40v-19h-22v19q0 23 -16.5 40t-40.5 17q-23 0 -40 -17t-17 -40v-19h-21v19
q0 23 -17 40t-42 17q-23 0 -40 -17t-17 -40v-19h-21v19q0 23 -17 40t-40 17zM605 959q-23 0 -40.5 -17t-17.5 -40v-19h-178v-80h178v-24q0 -23 17.5 -40.5t40.5 -17.5t40 17.5t17 40.5v24h21v-24q0 -23 17 -40.5t40 -17.5q24 0 41.5 17.5t17.5 40.5v24h21v-24
q0 -23 17 -40.5t40 -17.5t40 17.5t17 40.5v24h22v-24q0 -23 17 -40.5t41 -17.5t40.5 17.5t16.5 40.5v24h22v-24q0 -23 16.5 -40.5t39.5 -17.5q24 0 41 17.5t17 40.5v24h22v-24q0 -23 16.5 -40.5t39.5 -17.5q24 0 41 17.5t17 40.5v24h22v-24q0 -23 16.5 -40.5t39.5 -17.5
q24 0 41 17.5t17 40.5v24h22v-24q0 -23 17.5 -40.5t41.5 -17.5q23 0 40 17.5t17 40.5v24h22v-24q0 -23 17.5 -40.5t41.5 -17.5q23 0 40 17.5t17 40.5v24h187v-24q0 -23 17.5 -40.5t39.5 -17.5q23 0 40.5 17.5t17.5 40.5v24h175v80h-175v19q0 23 -17.5 40t-40.5 17t-40 -17
t-17 -40v-19h-187v19q0 23 -17 40t-40 17q-25 0 -42 -17t-17 -40v-19h-22v19q0 23 -17 40t-40 17q-25 0 -42 -17t-17 -40v-19h-22v19q0 23 -17 40t-41 17q-23 0 -39.5 -17t-16.5 -40v-19h-22v19q0 23 -17 40t-41 17q-23 0 -39.5 -17t-16.5 -40v-19h-22v19q0 23 -17 40
t-41 17q-23 0 -39.5 -17t-16.5 -40v-19h-22v19q0 23 -16.5 40t-40.5 17t-41 -17t-17 -40v-19h-22v19q0 23 -16.5 40t-40.5 17q-23 0 -40 -17t-17 -40v-19h-21v19q0 23 -17 40t-42 17q-23 0 -40 -17t-17 -40v-19h-21v19q0 23 -17 40t-40 17zM605 645q-23 0 -40.5 -17
t-17.5 -40v-19h-178v-80h178v-24q0 -23 17.5 -40.5t40.5 -17.5t40 17.5t17 40.5v24h21v-24q0 -23 17 -40.5t40 -17.5q24 0 41.5 17.5t17.5 40.5v24h75v-24q0 -23 17 -40.5t40 -17.5q24 0 41.5 17.5t17.5 40.5v24h135v-24q0 -23 17 -40.5t41 -17.5q23 0 39.5 17.5t16.5 40.5
v24h22v-24q0 -23 17 -40.5t41 -17.5q23 0 39.5 17.5t16.5 40.5v24h22v-24q0 -23 17 -40.5t41 -17.5q23 0 39.5 17.5t16.5 40.5v24h22v-24q0 -23 16.5 -40.5t40.5 -17.5t41 17.5t17 40.5v24h22v-24q0 -23 17 -40.5t40 -17.5t40 17.5t17 40.5v24h21v-24q0 -23 17.5 -40.5
t41.5 -17.5q23 0 40 17.5t17 40.5v24h21v-24q0 -23 17.5 -40.5t39.5 -17.5q23 0 40.5 17.5t17.5 40.5v24h175v80h-175v19q0 23 -17.5 40t-40.5 17t-40 -17t-17 -40v-19h-21v19q0 23 -17 40t-40 17q-25 0 -42 -17t-17 -40v-19h-21v19q0 23 -17 40t-40 17q-24 0 -40.5 -17
t-16.5 -40v-19h-22v19q0 23 -17 40t-41 17t-40.5 -17t-16.5 -40v-19h-22v19q0 23 -16.5 40t-39.5 17q-24 0 -41 -17t-17 -40v-19h-22v19q0 23 -16.5 40t-39.5 17q-24 0 -41 -17t-17 -40v-19h-22v19q0 23 -16.5 40t-39.5 17q-24 0 -41 -17t-17 -40v-19h-135v19q0 23 -17 40
t-42 17q-23 0 -40 -17t-17 -40v-19h-75v19q0 23 -17 40t-42 17q-23 0 -40 -17t-17 -40v-19h-21v19q0 23 -17 40t-40 17zM605 331q-23 0 -40.5 -17t-17.5 -40v-19h-178v-80h178v-24q0 -23 17.5 -40.5t40.5 -17.5t40 17.5t17 40.5v24h21v-24q0 -23 17 -40.5t40 -17.5
q24 0 41.5 17.5t17.5 40.5v24h21v-24q0 -23 17 -40.5t40 -17.5t40 17.5t17 40.5v24h22v-24q0 -23 17 -40.5t41 -17.5t40.5 17.5t16.5 40.5v24h22v-24q0 -23 16.5 -40.5t39.5 -17.5q24 0 41 17.5t17 40.5v24h101v-24q0 -23 17 -40.5t41 -17.5t40.5 17.5t16.5 40.5v24h22v-24
q0 -23 16.5 -40.5t40.5 -17.5q23 0 40 17.5t17 40.5v24h107v-24q0 -23 16.5 -40.5t40.5 -17.5q23 0 40 17.5t17 40.5v24h21v-24q0 -23 17 -40.5t42 -17.5q23 0 40 17.5t17 40.5v24h21v-24q0 -23 16.5 -40.5t40.5 -17.5q23 0 40.5 17.5t17.5 40.5v24h179v80h-179v19
q0 23 -17.5 40t-40.5 17q-24 0 -40.5 -17t-16.5 -40v-19h-21v19q0 23 -17 40t-40 17q-25 0 -42 -17t-17 -40v-19h-21v19q0 23 -17 40t-40 17q-24 0 -40.5 -17t-16.5 -40v-19h-107v19q0 23 -17 40t-40 17q-24 0 -40.5 -17t-16.5 -40v-19h-22v19q0 23 -16.5 40t-40.5 17
t-41 -17t-17 -40v-19h-101v19q0 23 -17 40t-41 17q-23 0 -39.5 -17t-16.5 -40v-19h-22v19q0 23 -16.5 40t-40.5 17t-41 -17t-17 -40v-19h-22v19q0 23 -16.5 40t-40.5 17q-23 0 -40 -17t-17 -40v-19h-21v19q0 23 -17 40t-42 17q-23 0 -40 -17t-17 -40v-19h-21v19q0 23 -17 40
t-40 17zM2161 1835v-1937h140v1937h-140z" />
</svg>