<?xml version="1.0" standalone="no"?>
<!DOCTYPE svg PUBLIC "-//W3C//DTD SVG 1.1//EN" "http://www.w3.org/Graphics/SVG/1.1/DTD/svg11.dtd">
<svg xmlns="http://www.w3.org/2000/svg" xmlns:xlink="http://www.w3.org/1999/xlink" version="1.1"
   viewBox="94 -151 2414 2169">
   <path fill="currentColor"
      d="M426 1978q-68 0 -117 -48.5t-49 -115.5v-1751q0 -68 49 -116.5t116 -48.5h1750q68 0 116.5 48.5t48.5 116.5v1750q0 67 -48.5 116t-116.5 49h-1749zM435 1424h123l114 -298h381l116 298h125l-374 -966h-109zM712 1018l109 -290q11 -30 21.5 -66.5t20.5 -78.5
q11 42 22.5 77.5t23.5 67.5l107 290h-304zM1547 1321v-348h185q133 0 185 46t52 122q0 81 -50 130.5t-178 49.5h-194zM1426 1424h337q155 0 245 -71.5t90 -201.5q0 -113 -62.5 -164.5t-153.5 -65.5v-7q89 -17 136 -72.5t47 -140.5q0 -131 -92.5 -184.5t-272.5 -53.5h-274
v961zM1547 872v-306h158q123 0 179 35t56 114q0 77 -46 117t-169 40h-178z" />
</svg>