<?xml version="1.0" standalone="no"?>
<!DOCTYPE svg PUBLIC "-//W3C//DTD SVG 1.1//EN" "http://www.w3.org/Graphics/SVG/1.1/DTD/svg11.dtd">
<svg xmlns="http://www.w3.org/2000/svg" xmlns:xlink="http://www.w3.org/1999/xlink" version="1.1"
   viewBox="94 -151 2414 2169">
   <path fill="currentColor"
      d="M1132 1828q-52 0 -107 -53l-711 -698q-44 -42 -44 -90q0 -50 46 -98l210 -217q42 -43 91 -43q29 0 59 17l-37 -6q101 -43 148.5 -99.5t59.5 -146.5l44 -27q88 -2 148.5 -45t84.5 -121l34 -14q23 4 45 7t42 3q60 0 119.5 -27.5t100.5 -76.5l35 -6q29 13 73 19t81 6
q50 0 104.5 -8.5t108.5 -34.5l-47 52q2 -35 21 -55t65 -18l250 11q80 4 128 52t46 123l-25 926q-2 75 -55 126t-127 48l-252 -9q-64 -2 -77 -61l57 20q-118 16 -209.5 63t-178.5 133l16 -56q0 46 -9.5 80.5t-33.5 60.5l-194 206q-54 57 -110 57zM1083 1671q19 19 48.5 19.5
t48.5 -20.5l93 -99l-31 -30l-95 95l-35 -34l94 -95l-23 -23l-96 94l-36 -36l96 -93l-23 -22l-96 93l-35 -35l94 -93l-64 -63l-93 95l-36 -36l92 -95l-21 -21l-95 93l-35 -35l92 -93l-64 -62l-93 92l-35 -35l92 -91l-24 -24l-91 93l-35 -35l89 -92l-21 -21l-91 91l-36 -35
l90 -91l-64 -62l-89 91l-37 -36l89 -91l-22 -20l-89 89l-36 -35l88 -89l-27 -27l-106 104q-17 16 -17 37.5t16 36.5q26 25 65 14q-6 19 0 36.5t19 29.5q27 23 64 14q-3 27 1.5 42t17.5 26t31 15t31 0q-3 18 0.5 35t18.5 30t30.5 15t34.5 -2q-6 46 15 67q12 12 30 14.5
t40 1.5q-1 19 2.5 35t16.5 30q10 10 27 14t39 2q-2 26 1.5 40t13.5 25q14 13 31.5 16.5t34.5 0.5q-9 35 21 62q14 13 30 19t38 0q-15 31 16 64zM1511 1398l-697 -1039l62 -42l697 1040zM1467 1413l-44 -5q95 -90 195 -139.5t211 -62.5l-37 38l28 -1112l30 18q-97 41 -193 41
q-46 0 -85 -7t-71 -20q-34 51 -104.5 81.5t-145.5 30.5q-16 0 -34 -2.5t-35 -7.5q-33 86 -111 130t-161 46q-9 85 -58.5 146t-153.5 117l9 -35l733 708q8 8 14.5 17t12.5 18zM1592 1332l-493 -1145l70 -31l493 1145zM1947 1091q17 0 28 -10.5t11 -26.5q0 -17 -11 -28
t-28 -11q-16 0 -26.5 11t-10.5 28q0 16 10.5 26.5t26.5 10.5zM1685 1286l-240 -1211l75 -16l240 1211zM1956 904q16 0 27 -11.5t11 -27.5t-11 -27t-27 -11t-27 11t-11 27t11 27.5t27 11.5zM2053 997q16 0 27.5 -11.5t11.5 -27.5t-11.5 -27.5t-27.5 -11.5t-27.5 11.5
t-11.5 27.5t11.5 27.5t27.5 11.5zM1961 717q17 0 28 -11.5t11 -27.5t-11 -27.5t-28 -11.5q-16 0 -27 11.5t-11 27.5t11 27.5t27 11.5zM2061 809q17 0 28 -11t11 -27q0 -17 -11 -28t-28 -11q-16 0 -27 11t-11 28q0 16 11 27t27 11zM2158 902q16 0 27.5 -11t11.5 -27
t-11.5 -27.5t-27.5 -11.5t-27 11.5t-11 27.5t11 27t27 11zM1967 530q15 0 26.5 -11.5t11.5 -26.5q0 -16 -11.5 -27.5t-26.5 -11.5q-16 0 -27.5 11.5t-11.5 27.5t11.5 27t27.5 11zM2067 622q15 0 26.5 -11.5t11.5 -26.5q0 -16 -11.5 -27.5t-26.5 -11.5q-16 0 -27.5 11.5
t-11.5 27.5t11.5 27t27.5 11zM2167 714q15 0 26.5 -11t11.5 -27t-11.5 -27t-26.5 -11q-16 0 -27.5 11t-11.5 27t11.5 27t27.5 11zM2072 436q16 0 27.5 -11.5t11.5 -27.5q0 -15 -11.5 -26.5t-27.5 -11.5t-27.5 11.5t-11.5 26.5q0 16 11.5 27.5t27.5 11.5zM2172 528
q16 0 27.5 -11.5t11.5 -27.5q0 -17 -11.5 -28t-27.5 -11t-27.5 11t-11.5 28q0 16 11.5 27.5t27.5 11.5zM2177 341q16 0 27 -11t11 -27q0 -17 -11 -28t-27 -11t-27 11t-11 28q0 16 11 27t27 11z" />
</svg>