<?xml version="1.0" standalone="no"?>
<!DOCTYPE svg PUBLIC "-//W3C//DTD SVG 1.1//EN" "http://www.w3.org/Graphics/SVG/1.1/DTD/svg11.dtd">
<svg xmlns="http://www.w3.org/2000/svg" xmlns:xlink="http://www.w3.org/1999/xlink" version="1.1"
   viewBox="94 -151 2414 2169">
   <path fill="currentColor"
      d="M728 1978q-95 0 -179.5 -38t-149.5 -103.5t-102 -149.5t-37 -177q0 -84 33 -164t98 -145l1172 -1173q65 -65 145 -97.5t165 -32.5q95 0 179.5 37.5t149 103t101.5 150t37 177.5q0 84 -32.5 164t-97.5 145l-1172 1173q-64 65 -144.5 97.5t-165.5 32.5zM542 1608
q-20 0 -35 -15t-15 -35t15 -35t35 -15t35 15t15 35t-15 35t-35 15zM681 1746q-20 0 -35 -15t-15 -35t15 -35t35 -15t35 15t15 35t-15 35t-35 15zM568 1428q-20 0 -35 -15t-15 -35t15 -35t35 -15t35 15t15 35t-15 35t-35 15zM861 1720q-20 0 -35 -15t-15 -35t15 -35t35 -15
t35 15t15 35t-15 35t-35 15zM716 1574q-20 0 -35 -15t-15 -35t15 -35t35 -15t35 15t15 35t-15 35t-35 15zM749 1402q-20 0 -35 -15t-15 -35t15 -35t35 -15t35 15t15 35t-15 35t-35 15zM888 1540q-20 0 -35 -15t-15 -35t15 -35t35 -15t35 15t15 35t-15 35t-35 15zM777 1223
q-20 0 -35 -15t-15 -35t15 -35t35 -15t35 15t15 35t-15 35t-35 15zM922 1368q-20 0 -35 -15t-15 -35t15 -35t35 -15t35 15t15 35t-15 35t-35 15zM1067 1513q-20 0 -35 -15t-15 -35t15 -35t35 -15t35 15t15 35t-15 35t-35 15zM729 1898q68 0 133.5 -27t118.5 -80l1173 -1172
q53 -53 79.5 -118.5t26.5 -134.5q0 -105 -55 -193t-143.5 -141.5t-189.5 -53.5q-68 0 -133.5 27t-118.5 80l-1173 1172q-53 53 -80 118.5t-27 134.5q0 104 55 192.5t144 142t190 53.5zM1267 1355l-390 -383l457 -451l390 383zM1267 1242l344 -338l-277 -270l-344 338z
M1534 463q-20 0 -35 -15t-15 -35t15 -35t35 -15t35 15t15 35t-15 35t-35 15zM1679 608q-20 0 -35 -15t-15 -35t15 -35t35 -15t35 15t15 35t-15 35t-35 15zM1824 753q-20 0 -35 -15t-15 -35t15 -35t35 -15t35 15t15 35t-15 35t-35 15zM1713 436q-20 0 -35 -15t-15 -35t15 -35
t35 -15t35 15t15 35t-15 35t-35 15zM1852 574q-20 0 -35 -15t-15 -35t15 -35t35 -15t35 15t15 35t-15 35t-35 15zM1885 402q-20 0 -35 -15t-15 -35t15 -35t35 -15t35 15t15 35t-15 35t-35 15zM1740 256q-20 0 -35 -15t-15 -35t15 -35t35 -15t35 15t15 35t-15 35t-35 15z
M2033 548q-20 0 -35 -15t-15 -35t15 -35t35 -15t35 15t15 35t-15 35t-35 15zM1920 230q-20 0 -35 -15t-15 -35t15 -35t35 -15t35 15t15 35t-15 35t-35 15zM2059 368q-20 0 -35 -15t-15 -35t15 -35t35 -15t35 15t15 35t-15 35t-35 15z" />
</svg>