<?xml version="1.0" standalone="no"?>
<!DOCTYPE svg PUBLIC "-//W3C//DTD SVG 1.1//EN" "http://www.w3.org/Graphics/SVG/1.1/DTD/svg11.dtd">
<svg xmlns="http://www.w3.org/2000/svg" xmlns:xlink="http://www.w3.org/1999/xlink" version="1.1"
   viewBox="94 -151 2414 2169">
   <path fill="currentColor"
      d="M2180 914q-162 0 -346.5 -28t-370 -76.5t-353.5 -110.5t-300 -131t-208 -138t-76 -130q0 -32 23.5 -58.5t91.5 -26.5q109 0 254.5 15t307.5 40.5t321 58.5t298 69.5t238.5 73.5t139.5 70q25 20 45 47.5t25 48.5l9 13q64 54 87.5 87.5t23.5 69.5q0 49 -56 77.5t-154 28.5z
M945 1744l510 -185l-324 -72l-95 26l186 50l-93 30l-195 -51l-117 31l198 57l-104 31l-198 -58l-128 35zM1552 1978l-1160 -339l735 -203l1153 248zM1349 1715l120 -41l-115 -24l-114 38zM1541 1765l130 -46l-120 -27l-123 44zM1760 1820l143 -50l-139 -31l-136 48zM239 441
q-29 0 -29 -22q0 -20 28 -24l336 -59l94 97q-62 3 -118.5 5t-128.5 2.5t-182 0.5zM1135 1070q-32 0 -63 -17l-200 -108q-27 -15 -35.5 -40t-8.5 -65l144 -111l187 59q43 13 63 50t20 95q0 65 -27.5 101t-79.5 36zM342 896q-54 0 -72 -39t-18 -125h42l44 72q85 -5 199 -22
t233.5 -40.5t222.5 -47.5t165 -42q15 -4 26 -17l8 -9q8 -9 16.5 -14.5t23.5 -5.5q47 0 104 9.5t109 24t85.5 30.5t33.5 29q0 11 -10.5 18.5t-19.5 10.5q-113 38 -263.5 69t-315.5 53t-324 34t-289 12zM1143 1020q23 0 36 -24t13 -63t-13 -62.5t-36 -23.5t-36 23.5t-13 62.5
t13 63t36 24zM1532 1030q-23 0 -39.5 -16.5t-16.5 -39.5t16.5 -39.5t39.5 -16.5t39.5 16.5t16.5 39.5t-16.5 39.5t-39.5 16.5zM1045 406q-95 -6 -194 -24.5t-184 -63.5l-127 -420h77l273 419q35 8 71 24.5t60 34t24 30.5zM910 298l-67 -66l57 -54h54q26 0 12 24zM1492 927
v-145h80v145h-80zM1185 528q-25 0 -25 -33t25 -33t25 33t-25 33zM1305 558q-25 0 -25 -33t25 -33t25 33t-25 33zM1430 590q-25 0 -25 -33t25 -33t25 33t-25 33zM1799 954q-23 0 -40 -17t-17 -40q0 -24 16.5 -40t40.5 -16q23 0 39.5 16t16.5 40q0 23 -16 40t-40 17zM2180 834
q59 0 93.5 -10t34.5 -27q0 -11 -18 -29.5t-74 -61.5l-10 -31q-4 -12 -19 -32t-30 -33q-36 -31 -121.5 -63t-204 -64t-255.5 -61t-277.5 -54t-270.5 -43.5t-235 -29t-168 -10.5q-11 0 -16.5 5.5t-5.5 13.5q0 13 21 37q50 56 165 122.5t275.5 132t348 119.5t384 86.5
t383.5 32.5zM1560 625q-25 0 -25 -33t25 -33t25 33t-25 33zM2072 1100q-23 0 -39.5 -16.5t-16.5 -39.5t16.5 -39.5t39.5 -16.5t39.5 16.5t16.5 39.5t-16.5 39.5t-39.5 16.5zM1685 657q-25 0 -25 -33t25 -33t25 33t-25 33zM2032 997v-115h80v115h-80zM1771 436l-182 -48
l153 -143l-5 -77l52 5q23 22 36 46t8 38zM2114 743q-13 0 -20 -6.5t-7 -18.5q0 -25 26 -25q30 0 78 -5.5t81 -17.5l20 45q-37 13 -91 20.5t-87 7.5z" />
</svg>