<?xml version="1.0" standalone="no"?>
<!DOCTYPE svg PUBLIC "-//W3C//DTD SVG 1.1//EN" "http://www.w3.org/Graphics/SVG/1.1/DTD/svg11.dtd">
<svg xmlns="http://www.w3.org/2000/svg" xmlns:xlink="http://www.w3.org/1999/xlink" version="1.1"
   viewBox="94 -151 2414 2169">
   <path fill="currentColor"
      d="M1725 1978q-55 0 -169.5 -28t-239.5 -88q-289 -138 -440 -330.5t-151 -423.5q0 -31 4.5 -62t11.5 -60l78 22q-14 50 -14 100q0 206 138.5 380.5t406.5 301.5q65 30 135.5 54.5t134 39t105.5 14.5q21 0 38.5 -15t42.5 -63.5t66 -147.5l33 -79q61 -145 95.5 -269t34.5 -195
q0 -88 -26.5 -160t-71 -114.5t-97.5 -42.5q-58 0 -124 43l-44 -66q84 -57 168 -57q78 0 140 53.5t98.5 143.5t36.5 200q0 79 -36.5 211t-99.5 283l-33 79q-47 113 -80 172.5t-64.5 81.5t-76.5 22zM1353 1680q-76 0 -139.5 -64.5t-130.5 -215.5l68 -2q53 119 101 170.5
t109 51.5q40 0 40 30t-48 30zM1050 1476q-12 0 -22 -8.5t-10 -21.5q0 -6 6.5 -28t6.5 -49q0 -66 -32 -161l58 -18q34 103 34 179q0 23 -3.5 45.5t-11.5 43.5q-7 18 -26 18zM1220 1464q-45 0 -102 -33.5t-86 -72.5l48 -34q49 67 146 79q28 3 28 30q0 16 -8.5 23.5t-25.5 7.5z
M729 708q-61 0 -106 -9.5t-88 -30.5q-50 -25 -50 -82q0 -59 27.5 -93t73.5 -34q12 0 24 2.5t22 5.5q18 5 41 9t61 4t66.5 -13t59.5 -35l15 76q-32 18 -66 30t-75 12q-82 0 -108.5 -10.5t-49.5 -10.5q-12 0 -20.5 14.5t-8.5 35.5q0 28 47 43.5t135 15.5q35 0 61.5 -5.5
t57.5 -19.5l-16 81q-22 7 -47.5 10.5t-55.5 3.5zM1790 1574q-18 0 -27 -17q-22 -45 -39 -93.5t-28 -112.5l54 -30q9 65 26.5 111.5t40.5 96.5q9 19 -1.5 32t-25.5 13zM998 1253q-118 0 -189.5 -81t-71.5 -225q0 -79 14.5 -136.5t33.5 -104t33.5 -89.5t14.5 -92
q0 -63 -16.5 -102t-38 -65t-38 -51.5t-16.5 -61.5q0 -43 30 -81.5t77.5 -62.5t99.5 -24q59 0 100 53t62 149.5t21 227.5q0 78 20 140t47 116.5t47 108t20 115.5q0 73 -32.5 133.5t-89 96.5t-128.5 36zM998 1173q74 0 122 -54.5t48 -131.5q0 -44 -16 -91t-37 -99
q-39 -97 -55 -163t-16 -127q0 -102 -16 -182.5t-42 -126.5t-55 -46q-58 0 -92.5 32t-34.5 61q0 9 6 23.5t24 37.5q41 53 60 106.5t19 112.5q0 42 -9.5 85t-35.5 111q-28 75 -39.5 124t-11.5 102q0 112 49 169t132 57zM1642 1566q-19 0 -27 -18t4 -32q34 -40 52 -91t25 -136
t7 -227l60 -14q0 149 -9 243t-30 154t-59 108q-10 13 -23 13zM1610 1251q-15 0 -24.5 -11.5t-9.5 -25.5q0 -15 10 -25q64 -64 94.5 -118.5t30.5 -97.5q0 -63 -43 -115t-115 -83t-160 -31q-81 0 -129 30.5t-48 81.5l-80 -7q0 -87 72.5 -136t184.5 -49q110 0 200 41.5
t144 111.5t54 156q0 61 -38 126t-106 133q-19 19 -37 19zM879 261q-22 0 -22 -16q0 -19 22 -32.5t42 -13.5q22 0 22 16q0 19 -22 32.5t-42 13.5zM1857 1259q-13 0 -21 -10t-8 -24q0 -11 1 -20.5t1 -19.5q0 -119 -92 -187l36 -48q116 84 116 235q0 12 -0.5 23.5t-2.5 23.5
q-3 27 -30 27zM1079 660q0 -75 5 -130t20 -104t44 -104l-123 -193q-9 -15 -9 -31q0 -25 18.5 -48t46.5 -38t55 -15q36 0 54 27l116 168l-17 10l-37 -206q-7 -39 20.5 -68.5t89.5 -29.5q35 0 57 19t25 41l29 197h-11l25 -184q4 -26 25 -42t55 -16q47 0 78 23t27 59l-24 214
q26 15 51 40l-42 42q-30 -30 -73 -48l25 -237q2 -14 -6.5 -23.5t-25.5 -9.5q-29 0 -32 25l-32 227q-13 -5 -36 -7.5t-56 -2.5l-33 -225q-3 -29 -36 -29q-22 0 -32 10t-7 25l44 238q-19 7 -36 15.5t-33 22.5l-142 -204q-4 -7 -15 -7q-18 0 -37.5 18t-12.5 29l137 212
q-32 56 -49.5 101t-23.5 99.5t-6 139.5h-60zM2027 867l-80 -8q2 -8 2 -14v-12q0 -64 -33.5 -118.5t-88.5 -88t-120 -33.5q-38 0 -86 14v-83q47 -11 86 -11q87 0 160.5 44t117.5 117t44 159q0 9 -0.5 17.5t-1.5 16.5zM1662 817q-39 -32 -66.5 -86t-27.5 -112
q0 -128 112.5 -199.5t288.5 -71.5q19 0 29 -16t10 -40q0 -41 -24 -65t-54 -24q-15 0 -26 6.5t-37 28.5q-12 10 -29.5 20.5t-36.5 17.5l-216 78q-16 6 -33 9t-30 3q-24 0 -52 -8q-40 4 -71.5 58.5t-31.5 132.5q0 62 26 143l-76 24q-30 -95 -30 -167q0 -116 56 -193.5
t138 -77.5q27 8 41 8q15 0 37 -8l214 -78q17 -6 39.5 -25t52 -35.5t65.5 -16.5q65 0 111.5 48.5t46.5 120.5q0 56 -36.5 96t-82.5 40q-144 0 -232.5 50.5t-88.5 140.5q0 42 20 86t44 64zM1750 576l-48 -36q27 -34 27 -117h60q0 102 -39 153z" />
</svg>