<?xml version="1.0" standalone="no"?>
<!DOCTYPE svg PUBLIC "-//W3C//DTD SVG 1.1//EN" "http://www.w3.org/Graphics/SVG/1.1/DTD/svg11.dtd">
<svg xmlns="http://www.w3.org/2000/svg" xmlns:xlink="http://www.w3.org/1999/xlink" version="1.1"
   viewBox="94 -151 2414 2169">
   <path fill="currentColor"
      d="M984 1978q-292 0 -463 -90t-187 -247q-11 -118 -19.5 -242.5t-12.5 -283t-4 -376.5l80 -9q0 220 4 379.5t12.5 284.5t19.5 240q12 118 158 191t412 73q170 0 300 -25.5t212 -68.5l24 77q-94 46 -229.5 71.5t-306.5 25.5zM960 1300q-85 0 -154.5 -33t-124.5 -100l51 -44
q47 57 102 82t126 25q72 0 127.5 -25t101.5 -82l51 44q-55 67 -125 100t-155 33zM692 983q-38 0 -63 -28t-25 -68t25 -68.5t63 -28.5t63.5 28.5t25.5 68.5t-25.5 68t-63.5 28zM1590 1446q-25 0 -44.5 -26t-19.5 -54q0 -23 15 -46.5t52 -38.5q42 -17 67 -17q31 0 50 19.5
t19 48.5q0 19 -10 36.5t-27 22.5q-25 7 -40 27q-10 14 -26 21t-36 7zM1227 983q-38 0 -63 -28t-25 -68t25 -68.5t63 -28.5t63.5 28.5t25.5 68.5t-25.5 68t-63.5 28zM299 783q-55 0 -85 -29t-30 -69q0 -19 10.5 -41.5t39.5 -35.5q170 -74 325.5 -112.5t296 -52t265.5 -13.5
q286 0 569 79q32 9 51 33.5t19 56.5q0 48 -38 76.5t-81 15.5q-127 -38 -257 -56.5t-263 -18.5q-179 0 -363 29.5t-390 100.5zM307 703q126 -56 269 -89.5t284 -48.5t261 -15q137 0 272.5 17.5t265.5 56.5q15 4 25 -3.5t10 -20.5q0 -21 -22 -27q-136 -39 -273.5 -58
t-277.5 -19q-121 0 -263.5 16.5t-288 51.5t-277.5 89q-13 5 -19 16t-2 20q4 10 13.5 15t22.5 -1zM1720 1978q-111 0 -189.5 -43.5t-78.5 -112.5q0 -45 25.5 -75t58.5 -50t58.5 -34.5t25.5 -29.5q0 -8 -6.5 -14t-18.5 -6q-29 0 -57.5 18t-63 36.5t-83.5 18.5
q-88 0 -142 -51.5t-54 -143.5q0 -89 47.5 -184t128.5 -183.5t183 -159.5t213.5 -112.5t217.5 -41.5q155 0 264 57.5t166.5 157t57.5 225.5q0 137 -64 267t-172.5 234t-242.5 165.5t-274 61.5zM1720 1898q123 0 242.5 -55.5t217 -148.5t155.5 -208t58 -235q0 -157 -107 -259
t-301 -102q-93 0 -192 37.5t-191.5 100t-166 141t-117 161.5t-43.5 159q0 66 30 91.5t86 25.5q42 0 74.5 -18.5t63 -36.5t66.5 -18q43 0 74 28t31 70q0 41 -25.5 67t-58.5 45t-58.5 37t-25.5 42q0 35 54.5 55.5t133.5 20.5zM1957 1593q-31 0 -48 -19.5t-17 -51.5
q0 -46 33 -74.5t79 -28.5q35 0 55 14t20 47q0 45 -40 79t-82 34zM2024 1520q19 0 19 -27q0 -40 -41 -40q-18 0 -18 9q0 10 13.5 18t14.5 25q1 15 12 15zM609 73q-34 0 -57.5 -16.5t-23.5 -42.5q0 -41 46.5 -71t94.5 -30q35 0 57.5 16.5t22.5 42.5q0 41 -46 71t-94 30z
M278 726q-88 -25 -132 -78.5t-44 -122.5q0 -89 65 -178.5t177 -170t256 -143.5t304 -99t318 -36q194 0 343.5 55.5t234.5 154t85 226.5q0 58 -18.5 108.5t-55.5 91t-91 71.5l-9 -29l-21 -49q51 -30 76 -84t25 -109q0 -100 -75.5 -178.5t-204.5 -124.5t-289 -46
q-136 0 -280 33.5t-277 90t-239 127t-168 145.5t-62 144q0 37 17 60t39 34zM1837 1193q-31 0 -48 -19.5t-17 -51.5q0 -46 33 -74.5t79 -28.5q34 0 54.5 18.5t20.5 52.5q0 45 -39.5 74t-82.5 29zM1561 1012v-382l80 18v305zM1904 1120q19 0 19 -27q0 -40 -41 -40q-18 0 -18 9
q0 10 13.5 18t14.5 25q1 15 12 15zM2138 1302q-33 0 -56.5 -18t-23.5 -49q0 -42 38.5 -76.5t85.5 -34.5q37 0 59 20t22 52q0 43 -38 74.5t-87 31.5zM2199 1232q23 0 23 -35q0 -49 -51 -49q-22 0 -22 13q0 11 14 19q17 10 20 32q3 20 16 20zM2184 614l35 -106
q-14 -20 -39.5 -31t-55.5 -11l-61 96q26 4 62 19.5t59 32.5zM2167 874l-69 -17l34 -72q-11 -16 -40 -31.5t-63 -27.5t-62 -14l-64 144l-83 15l89 -198q6 -29 25.5 -60.5t42.5 -51.5l92 -146q-5 -32 -5 -55q0 -131 72.5 -206t197.5 -75q93 0 164 46q-28 26 -42 59.5t-14 89.5
q0 108 -34 163t-114 82l-57 169q0 68 -39 120zM2263 466q45 -15 64 -38.5t19 -60.5q0 -15 -2 -29t-2 -27q0 -9 1 -19t6 -20q-22 3 -40 27.5t-21 58.5q-6 -20 -6 -39q0 -23 7.5 -43t18.5 -33q-27 10 -47.5 31t-33.5 45q0 -29 13.5 -60t29.5 -44q-66 0 -103.5 52.5
t-37.5 138.5q40 0 78 16.5t56 43.5zM1666 1370q24 0 24 -31q0 -22 -13.5 -35.5t-36.5 -13.5q-21 0 -21 13q0 11 13 18q16 9 19 30q3 19 15 19z" />
</svg>