<?xml version="1.0" standalone="no"?>
<!DOCTYPE svg PUBLIC "-//W3C//DTD SVG 1.1//EN" "http://www.w3.org/Graphics/SVG/1.1/DTD/svg11.dtd">
<svg xmlns="http://www.w3.org/2000/svg" xmlns:xlink="http://www.w3.org/1999/xlink" version="1.1"
   viewBox="94 -151 2414 2169">
   <path fill="currentColor"
      d="M780 1638q-131 -87 -227.5 -210t-148.5 -271t-52 -310q0 -196 73.5 -367.5t204.5 -302t303 -204.5t368 -74t367.5 74t302 204.5t204 302t73.5 367.5q0 162 -52 310t-148 271t-228 210l-165 13q158 -69 275.5 -191t183 -279.5t65.5 -333.5q0 -183 -68 -342.5t-189 -281
t-280 -190t-341 -68.5q-183 0 -342.5 68.5t-280.5 190t-189 281t-68 342.5q0 176 65.5 333.5t183.5 279.5t275 191zM326 1189q-61 0 -98.5 -39t-37.5 -112v-362q0 -74 37.5 -112.5t98.5 -38.5h110v68h-99q-34 0 -53 19.5t-19 53.5v382q0 34 19 53.5t53 19.5h95l40 68h-146z
M1300 1978q-185 0 -372.5 -33.5t-369.5 -101.5q-54 -20 -79 -59t-25 -86q0 -58 41 -103t102 -45q18 0 35.5 4t34.5 10q144 51 307 91t326 40t326 -40t307 -91q17 -6 34.5 -10t35.5 -4q61 0 102 45t41 103q0 47 -25 86t-79 59q-181 68 -369 101.5t-373 33.5zM1300 1898
q115 0 242.5 -16.5t250 -45.5t220.5 -68q53 -21 53 -65q0 -33 -26 -55t-69 -8q-169 54 -336 94.5t-335 40.5t-335 -40.5t-336 -94.5q-43 -14 -69 8t-26 55q0 44 53 65q99 39 221 68t250 45.5t242 16.5zM1300 1400q-84 0 -154.5 -32.5t-125.5 -99.5l53 -46q47 56 102 81.5
t125 25.5t125.5 -25.5t101.5 -81.5l53 46q-55 67 -125.5 99.5t-154.5 32.5zM1034 1095q-39 0 -64.5 -29t-25.5 -69q0 -41 25.5 -69.5t64.5 -28.5q38 0 63.5 28.5t25.5 69.5q0 40 -25.5 69t-63.5 29zM721 1313l-134 -239l-44 -307q386 -171 757 -171q373 0 757 171l-44 307
l-134 239v-532q-292 -105 -579 -105q-285 0 -579 105v532zM1301 1619q-162 0 -304 -61t-249.5 -168.5t-168.5 -249t-61 -303.5t61 -303.5t168.5 -249t249.5 -168.5t304 -61q161 0 302.5 61t249 168.5t168.5 249t61 303.5t-61 303.5t-168.5 249t-249 168.5t-302.5 61z
M1301 1551q147 0 276 -55.5t227 -153.5t153.5 -227.5t55.5 -277.5q0 -147 -55.5 -276.5t-153.5 -228t-227 -154t-276 -55.5q-148 0 -277.5 55.5t-227.5 154t-153.5 228t-55.5 276.5q0 148 55.5 277.5t153.5 227.5t227.5 153.5t277.5 55.5zM1566 1095q-38 0 -63.5 -29
t-25.5 -69q0 -41 25.5 -69.5t63.5 -28.5q39 0 64.5 28.5t25.5 69.5q0 40 -25.5 69t-64.5 29zM858 513q-12 18 -29.5 14.5t-25.5 -19.5t7 -36q61 -80 134 -136.5t156 -87.5q23 -9 34 4.5t9 31.5t-21 25q-79 31 -145 80.5t-119 123.5zM2128 1189l40 -68h95q34 0 53 -19.5
t19 -53.5v-382q0 -34 -19 -53.5t-53 -19.5h-99v-68h110q62 0 99 38.5t37 112.5v362q0 73 -37 112t-99 39h-146zM2162 487l-89 -124v-310h89v434zM2118 91q-51 0 -86.5 -35.5t-35.5 -86.5q0 -50 35.5 -85.5t86.5 -35.5q50 0 85.5 35.5t35.5 85.5q0 51 -35.5 86.5t-85.5 35.5z
M2118 29q24 0 41 -17.5t17 -42.5t-17 -42t-41 -17q-25 0 -42 17t-17 42t17 42.5t42 17.5z" />
</svg>