<?xml version="1.0" standalone="no"?>
<!DOCTYPE svg PUBLIC "-//W3C//DTD SVG 1.1//EN" "http://www.w3.org/Graphics/SVG/1.1/DTD/svg11.dtd">
<svg xmlns="http://www.w3.org/2000/svg" xmlns:xlink="http://www.w3.org/1999/xlink" version="1.1"
   viewBox="94 -151 2414 2169">
   <path fill="currentColor"
      d="M426 1978q-68 0 -117 -48.5t-49 -115.5v-1751q0 -68 49 -116.5t116 -48.5h1750q68 0 116.5 48.5t48.5 116.5v1750q0 67 -48.5 116t-116.5 49h-1749zM401 1252h75l80 -213h245l79 213h75l-239 -641h-68zM580 975l101 -278l97 278h-198zM1125 1252h71v-574h196v-65h-463v65
h196v574zM1518 1252h67v-520l202 520h55l203 -519v519h69v-639h-88l-211 537l-208 -537h-89v639z" />
</svg>