<?xml version="1.0" standalone="no"?>
<!DOCTYPE svg PUBLIC "-//W3C//DTD SVG 1.1//EN" "http://www.w3.org/Graphics/SVG/1.1/DTD/svg11.dtd">
<svg xmlns="http://www.w3.org/2000/svg" xmlns:xlink="http://www.w3.org/1999/xlink" version="1.1"
   viewBox="94 -151 2414 2169">
   <path fill="currentColor"
      d="M1656 1645q2 -27 5.5 -54t9.5 -54l-1051 -5l-184 -107q-91 0 -168.5 18.5t-157.5 51.5q0 -70 22.5 -140t92.5 -112q-25 -13 -44.5 -47t-19.5 -89q0 -63 30 -99.5t77 -36.5q48 0 90.5 25.5t69 58.5t26.5 57q0 21 -17.5 44t-41.5 41.5t-42 26.5q45 0 93 10.5t89 32.5
l49 -45q-49 -72 -77.5 -171.5t-28.5 -199.5q0 -162 34 -305.5t110 -312.5l-181 -168q-35 -32 -53 -57t-18 -47q0 -32 25.5 -47.5t71.5 -15.5h483q42 0 83 81h1062q89 0 159 40.5t114 108.5t53 151l67 575q7 59 -17 101v690h-159l-174 -185h-176l-182 185h-124zM477 1978
q-80 0 -146 -39t-105.5 -104.5t-39.5 -145.5q0 -81 39.5 -147t105.5 -105t146 -39t145.5 39t104.5 105t39 147q0 80 -39 145.5t-104.5 104.5t-145.5 39zM477 1888q83 0 141 -58.5t58 -140.5q0 -84 -58 -142.5t-141 -58.5t-142 59t-59 142q0 82 59 140.5t142 58.5zM265 1190
q20 0 34.5 -23.5t14.5 -57.5q0 -33 -14.5 -56.5t-34.5 -23.5t-34.5 23.5t-14.5 56.5q0 34 14.5 57.5t34.5 23.5zM504 765v-70h269q28 0 28 -28v-390h70v394q0 52 -20.5 73t-52.5 21h-294zM1064 1457h172v-283q0 -26 4.5 -42.5t14.5 -35.5h-77q-15 -32 -15 -62q0 -31 15 -61
h309v-90h80v574h191v-375q0 -40 20.5 -81t59.5 -69t92 -28h447q21 0 27.5 -12t2.5 -43l-65 -556q-8 -70 -46.5 -123t-92 -83t-108.5 -30h-1102q-12 -43 -31.5 -62t-37.5 -19h-360l20 -24l287 262v63h-187q-47 119 -74 208t-37.5 171t-10.5 182q0 32 3 68h499v551zM1487 1000
v-665h-423v647h-80v-725h967q26 0 43.5 17.5t17.5 43.5v658h-80v-610q0 -31 -31 -31h-334v665h-80zM2057 1978q-80 0 -146 -39t-105.5 -104.5t-39.5 -145.5q0 -81 39.5 -147t105.5 -105t146 -39t145.5 39t104.5 105t39 147q0 80 -39 145.5t-104.5 104.5t-145.5 39z
M2057 1888q83 0 141 -58.5t58 -140.5q0 -84 -58 -142.5t-141 -58.5t-142 59t-59 142q0 82 59 140.5t142 58.5zM1973 1136h287v-110h-287v110z" />
</svg>