<?xml version="1.0" standalone="no"?>
<!DOCTYPE svg PUBLIC "-//W3C//DTD SVG 1.1//EN" "http://www.w3.org/Graphics/SVG/1.1/DTD/svg11.dtd">
<svg xmlns="http://www.w3.org/2000/svg" xmlns:xlink="http://www.w3.org/1999/xlink" version="1.1"
   viewBox="94 -151 2414 2169">
   <path fill="currentColor"
      d="M2136 1978q-128 0 -210 -47.5t-104 -153.5q-33 -163 -79.5 -263t-105.5 -168t-129 -134q-32 -31 -65.5 -65t-68.5 -74q-67 -79 -109 -137t-75.5 -118t-75.5 -144l-43 -86l70 -38l45 87q43 83 75 141t71 113t102 130q67 79 134 142.5t129 137t114 182t89 278.5
q17 79 76 108t160 29q61 0 94.5 -25t33.5 -68q0 -10 -4 -25q-57 -209 -136 -362t-162.5 -260.5t-157 -178.5t-120.5 -116q-55 -53 -109.5 -132.5t-103 -166t-86.5 -160.5l71 -40q78 154 151 268.5t133 174.5q34 34 107 106t163 187.5t177 278.5t149 379q3 10 5.5 24t2.5 23
q0 77 -57 125t-151 48zM756 965l85 -145q-159 -83 -244.5 -214t-114.5 -336q-34 12 -70.5 24.5t-74.5 23.5q0 233 103 388t316 259zM789 1068q-185 -79 -303 -189t-174 -263.5t-56 -364.5q101 -22 174 -43.5t137.5 -47.5t137.5 -62t172 -87q56 -29 106 -52t102 -42
q54 -19 101 -19q34 0 62.5 16t41.5 44l157 323q18 38 18 64q0 46 -35 91.5t-89.5 83t-116.5 59.5t-116 22q-18 0 -41 21.5t-56.5 71.5t-83.5 136zM913 151q29 0 79.5 -16.5t103 -41t88.5 -51t36 -45.5q0 -11 -10 -16.5t-25 -5.5q-30 0 -80.5 16t-102.5 40.5t-87.5 51
t-35.5 46.5q0 11 9.5 16.5t24.5 5.5z" />
</svg>