<?xml version="1.0" standalone="no"?>
<!DOCTYPE svg PUBLIC "-//W3C//DTD SVG 1.1//EN" "http://www.w3.org/Graphics/SVG/1.1/DTD/svg11.dtd">
<svg xmlns="http://www.w3.org/2000/svg" xmlns:xlink="http://www.w3.org/1999/xlink" version="1.1"
   viewBox="94 -151 2414 2169">
   <path fill="currentColor"
      d="M1446 1367v-714h193q126 0 191 39.5t65 137.5q0 63 -32 104.5t-94 53.5v5q62 11 105 49.5t43 121.5q0 97 -62.5 150t-171.5 53h-237zM1535 1291h132q87 0 121.5 -37t34.5 -97q0 -56 -35.5 -90.5t-126.5 -34.5h-126v259zM1535 957h121q84 0 115.5 -29.5t31.5 -87.5
q0 -59 -38.5 -84.5t-121.5 -25.5h-108v227z" />
</svg>