<?xml version="1.0" standalone="no"?>
<!DOCTYPE svg PUBLIC "-//W3C//DTD SVG 1.1//EN" "http://www.w3.org/Graphics/SVG/1.1/DTD/svg11.dtd">
<svg xmlns="http://www.w3.org/2000/svg" xmlns:xlink="http://www.w3.org/1999/xlink" version="1.1"
   viewBox="94 -151 2414 2169">
   <path fill="currentColor"
      d="M1468 1878q-292 0 -459.5 -64t-167.5 -182q0 -69 35 -117q-56 -26 -90.5 -73t-34.5 -108q0 -83 53 -139q-63 -25 -98.5 -71.5t-35.5 -106.5q0 -66 40 -118h-398q-91 0 -154.5 -59.5t-63.5 -145.5t63.5 -145.5t154.5 -59.5l1085 -2l-113 -49q-130 -56 -192.5 -117
t-62.5 -139q0 -80 53 -132t134 -52q52 0 106 23.5t107.5 55.5t105.5 58q35 17 70.5 32.5t77.5 32.5q96 38 175 77t141.5 81.5t107.5 92.5q54 60 104.5 97t119 59t175.5 37v937q-226 154 -474 225.5t-564 71.5zM1468 1798q196 0 361 -27t311.5 -84.5t285.5 -147.5v-826
q-94 -17 -158.5 -42t-115.5 -65.5t-105 -100.5q-61 -69 -158.5 -122.5t-235.5 -108.5q-43 -17 -80 -33t-74 -34q-42 -21 -93.5 -51.5t-101.5 -54t-88 -23.5q-47 0 -77 28.5t-30 75.5q0 52 51.5 94t155.5 88l239 105l-26 98l-1217 2q-58 0 -98 36t-40 89q0 52 40 88.5
t98 36.5h794v80h-206q-48 0 -81.5 13.5t-51 40t-17.5 64.5q0 55 49 88.5t118 33.5h199v80h-159q-61 0 -93.5 32.5t-32.5 82.5q0 54 46.5 89.5t116.5 35.5h132v80h-132q-34 0 -53.5 24t-19.5 69q0 71 148.5 118.5t398.5 47.5z" />
</svg>