<?xml version="1.0" standalone="no"?>
<!DOCTYPE svg PUBLIC "-//W3C//DTD SVG 1.1//EN" "http://www.w3.org/Graphics/SVG/1.1/DTD/svg11.dtd">
<svg xmlns="http://www.w3.org/2000/svg" xmlns:xlink="http://www.w3.org/1999/xlink" version="1.1"
   viewBox="94 -151 2414 2169">
   <path fill="currentColor"
      d="M1514 1976q-76 0 -128.5 -56t-52.5 -137v-331q-42 26 -90 26q-52 0 -92 -30t-63 -81q-47 41 -116 41q-52 0 -93 -28.5t-64 -75.5q-41 27 -98 27q-104 0 -160.5 -144.5t-56.5 -397.5q0 -270 62 -484t195 -407h800q12 89 32 152t54 111.5t87 96.5q36 32 63.5 65.5t55 83
t62.5 128.5t86 204l9 22q29 70 61.5 140.5t32.5 133.5q0 64 -43.5 106t-110.5 42q-45 0 -83 -22t-76 -78t-87 -156v856q0 81 -55 137t-131 56zM1514 1896q43 0 74.5 -32t31.5 -81v-1012l82 -35q62 147 103.5 226.5t73.5 110t67 30.5q34 0 54 -18.5t20 -49.5q0 -35 -16 -78.5
t-37 -87.5t-35 -78l-9 -22q-49 -120 -81.5 -195t-58 -120.5t-50 -75.5t-57.5 -60q-82 -74 -125 -151.5t-63 -188.5h-688q-115 177 -167.5 370t-52.5 441q0 140 18 244t49.5 161t69.5 57q74 0 74 -56v-122h80v122q0 58 29 95.5t72 37.5q41 0 66.5 -24t25.5 -61v-161h80v161
q0 70 28 112.5t71 42.5q39 0 64.5 -29.5t25.5 -70.5v-208h80v693q0 49 29 81t72 32z" />
</svg>