<?xml version="1.0" standalone="no"?>
<!DOCTYPE svg PUBLIC "-//W3C//DTD SVG 1.1//EN" "http://www.w3.org/Graphics/SVG/1.1/DTD/svg11.dtd">
<svg xmlns="http://www.w3.org/2000/svg" xmlns:xlink="http://www.w3.org/1999/xlink" version="1.1"
   viewBox="94 -151 2414 2169">
   <path fill="currentColor"
      d="M1043 1976q-12 -89 -32 -152t-54 -112t-87 -96q-36 -32 -63.5 -65.5t-55 -83t-62.5 -129t-86 -203.5l-9 -22q-28 -70 -61 -140.5t-33 -133.5q0 -65 43.5 -106.5t110.5 -41.5q46 0 83 22t76 77.5t87 156.5v-856q0 -81 55 -137t131 -56t128.5 56t52.5 137v331
q42 -26 90 -26q53 0 93 30t62 81q47 -41 116 -41q52 0 93.5 28.5t63.5 75.5q41 -27 98 -27q104 0 160.5 144.5t56.5 397.5q0 270 -61.5 483.5t-195.5 407.5h-800zM1112 1896h688q116 -177 168 -370.5t52 -440.5q0 -140 -18 -244t-49 -161t-70 -57q-74 0 -74 56v122h-80v-122
q0 -58 -28.5 -95.5t-72.5 -37.5q-40 0 -66 23.5t-26 61.5v161h-80v-161q0 -71 -27.5 -113t-71.5 -42q-39 0 -64.5 29.5t-25.5 70.5v208h-80v-693q0 -49 -29 -81t-72 -32t-74.5 32t-31.5 81v1012l-82 35q-62 -147 -103.5 -226.5t-73.5 -110t-67 -30.5q-34 0 -54 18t-20 50
q0 34 16 78t37 87.5t35 78.5l9 22q49 120 81.5 195t58 120.5t50 75.5t57.5 60q82 74 125 151.5t63 188.5z" />
</svg>