<?xml version="1.0" standalone="no"?>
<!DOCTYPE svg PUBLIC "-//W3C//DTD SVG 1.1//EN" "http://www.w3.org/Graphics/SVG/1.1/DTD/svg11.dtd">
<svg xmlns="http://www.w3.org/2000/svg" xmlns:xlink="http://www.w3.org/1999/xlink" version="1.1"
   viewBox="94 -151 2414 2169">
   <path fill="currentColor"
      d="M426 1978q-68 0 -117 -48.5t-49 -115.5v-1751q0 -68 49 -116.5t116 -48.5h1750q68 0 116.5 48.5t48.5 116.5v1750q0 67 -48.5 116t-116.5 49h-1749zM564 1699v-122h63q47 0 65 16t18 42q0 30 -17.5 47t-61.5 17h-67zM465 1781h176q80 0 126 -36t46 -100q0 -55 -24.5 -79
t-59.5 -31v-3q35 -6 54 -33.5t19 -67.5q0 -66 -48 -92.5t-142 -26.5h-147v469zM564 1497v-104h54q82 0 82 51q0 27 -17 40t-60 13h-59zM850 1781h108l34 -111h171l34 111h107l-166 -471h-123zM1016 1586l35 -109q5 -16 12.5 -42t13.5 -53q7 26 14.5 52.5t12.5 42.5l35 109
h-123zM1537 1788q38 0 68 -5.5t61 -18.5v-84q-34 12 -62.5 19t-57.5 7q-61 0 -89.5 -42t-28.5 -117q0 -73 30.5 -116.5t87.5 -43.5q26 0 53 9.5t52 21.5l33 -80q-32 -16 -67.5 -24.5t-70.5 -8.5q-106 0 -163 67.5t-57 174.5q0 109 51 175t160 66zM1757 1781h99v-168l43 -29
l123 197h113l-165 -262l164 -207h-111l-127 160q-20 25 -40 55v-215h-99v469zM1059 1022v-314h952v-238h-952v-314l-462 433z" />
</svg>