<?xml version="1.0" standalone="no"?>
<!DOCTYPE svg PUBLIC "-//W3C//DTD SVG 1.1//EN" "http://www.w3.org/Graphics/SVG/1.1/DTD/svg11.dtd">
<svg xmlns="http://www.w3.org/2000/svg" xmlns:xlink="http://www.w3.org/1999/xlink" version="1.1"
   viewBox="94 -151 2414 2169">
   <path fill="currentColor"
      d="M1300 1536q-253 0 -472.5 -59t-385.5 -165t-259 -249t-93 -311q0 -173 90.5 -320t254.5 -255.5t384.5 -168.5t480.5 -60t481 60t384.5 168.5t254 255.5t90.5 320q0 168 -93 311t-259 249t-385.5 165t-472.5 59zM401 878q-52 0 -52 -60q0 -27 14.5 -59t37.5 -57
q52 55 52 116q0 28 -14.5 44t-37.5 16zM720 1128q-20 0 -35 -15.5t-15 -35.5q0 -33 43 -61t95 -30q0 59 -26.5 100.5t-61.5 41.5zM618 938q-35 0 -61.5 -41.5t-26.5 -100.5q53 2 95.5 30t42.5 61q0 20 -15 35.5t-35 15.5zM1300 1744q-98 0 -168.5 -25t-126.5 -53
q-50 -25 -94 -40.5t-90 -15.5q-151 0 -274.5 -36t-213.5 -99.5t-140 -146.5t-53 -176l74 52q11 65 60 124t129.5 104.5t186.5 71.5t231 26q63 0 117 18.5t102 42.5q56 28 117 50.5t143 22.5q83 0 143 -22.5t117 -50.5q56 -24 116.5 -42.5t132.5 -18.5q119 0 217 -26
t172.5 -71.5t122 -104.5t65.5 -124l74 -52q-4 93 -52 176t-134 146.5t-203.5 99.5t-261.5 36q-53 0 -105 15t-109 41q-55 28 -126 53t-169 25zM1300 1928q-263 0 -478 -60.5t-370 -170t-238.5 -256t-83.5 -317.5q0 -49 15 -96.5t33 -92.5l51 91q-10 37 -14.5 58.5t-4.5 39.5
q0 158 80 290.5t225.5 229.5t345 150.5t439.5 53.5t439.5 -53.5t345 -150.5t225.5 -229.5t80 -290.5q0 -18 -4 -39.5t-15 -58.5l51 -91q18 45 33 92.5t15 96.5q0 171 -83.5 317.5t-238.5 256t-370 170t-478 60.5zM433 616q-28 0 -44 -14.5t-16 -38.5q0 -23 16.5 -37
t43.5 -14q59 0 116 54q-24 22 -56 36t-60 14zM970 1068q-20 0 -35 -15.5t-15 -35.5q0 -33 43 -61t95 -30q0 59 -26.5 100.5t-61.5 41.5zM1222 1176q-28 0 -60 -14t-56 -36q57 -54 116 -54q27 0 43.5 14t16.5 37q0 24 -16 38.5t-44 14.5zM853 856q-28 0 -44 -14.5t-16 -38.5
q0 -23 16.5 -37t43.5 -14q59 0 116 54q-24 22 -56 36t-60 14zM639 698q0 -59 26.5 -100.5t61.5 -41.5q20 0 35 15.5t15 35.5q0 33 -42.5 61t-95.5 30zM569 438q0 -59 26.5 -100.5t61.5 -41.5q20 0 35 15.5t15 35.5q0 33 -42.5 61t-95.5 30zM1498 1208q-35 0 -61.5 -41.5
t-26.5 -100.5q53 2 95.5 30t42.5 61q0 20 -15 35.5t-35 15.5zM860 488q-20 0 -35 -15.5t-15 -35.5q0 -33 43 -61t95 -30q0 59 -26.5 100.5t-61.5 41.5zM1548 998q-52 -2 -95 -30t-43 -61q0 -20 15 -35.5t35 -15.5q35 0 61.5 41.5t26.5 100.5zM1300 1456q240 0 445.5 -54
t359 -150t239.5 -224t86 -276q0 -155 -84.5 -287t-237 -230t-358.5 -152.5t-450 -54.5t-450 54.5t-358.5 153t-237 230t-84.5 286.5q0 148 86 276t239.5 224t359 150t445.5 54zM1300 804q-103 -37 -173 -59.5t-122 -37t-101 -26.5q5 -95 107 -145.5t289 -50.5
q188 0 290 50.5t106 145.5q-49 12 -101 26.5t-122 37t-173 59.5zM1300 717q100 -33 180.5 -56.5t132.5 -33.5l-18 15q0 -32 -79 -54.5t-216 -22.5q-136 0 -215.5 22.5t-79.5 54.5l-18 -15q53 10 133 33.5t180 56.5zM1780 1188q-20 0 -35 -15.5t-15 -35.5q0 -33 43 -61
t95 -30q0 59 -26.5 100.5t-61.5 41.5zM1062 280q-46 -2 -85 -27.5t-39 -54.5q0 -18 13.5 -32t31.5 -14q32 0 55.5 37.5t23.5 90.5zM1680 938q0 -59 26.5 -100.5t61.5 -41.5q20 0 35 15.5t15 35.5q0 33 -42.5 61t-95.5 30zM1231 379q-47 0 -47 -54q0 -24 13 -53t34 -51
q47 47 47 104q0 54 -47 54zM2088 1018q-35 0 -61.5 -41.5t-26.5 -100.5q53 2 95.5 30t42.5 61q0 20 -15 35.5t-35 15.5zM1521 371q-46 -2 -85 -27.5t-39 -54.5q0 -18 13.5 -32t31.5 -14q32 0 55.5 37.5t23.5 90.5zM1968 738q-52 -2 -95 -30t-43 -61q0 -20 15 -35.5t35 -15.5
q35 0 61.5 41.5t26.5 100.5zM1802 451q-18 0 -31.5 -14t-13.5 -32q0 -29 39 -54.5t85 -27.5q0 53 -23.5 90.5t-55.5 37.5zM1627 301q0 -53 24 -90.5t55 -37.5q18 0 31.5 14t13.5 32q0 29 -38.5 54.5t-85.5 27.5zM2153 766q-28 0 -44 -14.5t-16 -38.5q0 -23 16.5 -37
t43.5 -14q59 0 116 54q-24 22 -56 36t-60 14zM2038 575q-22 -24 -35.5 -55.5t-13.5 -59.5q0 -29 14 -45t38 -16q23 0 37 16.5t14 43.5q0 28 -14 59t-40 57z" />
</svg>