<?xml version="1.0" standalone="no"?>
<!DOCTYPE svg PUBLIC "-//W3C//DTD SVG 1.1//EN" "http://www.w3.org/Graphics/SVG/1.1/DTD/svg11.dtd">
<svg xmlns="http://www.w3.org/2000/svg" xmlns:xlink="http://www.w3.org/1999/xlink" version="1.1"
   viewBox="94 -151 2414 2169">
   <path fill="currentColor"
      d="M2039 1646q-106 0 -190 -29.5t-132.5 -85t-48.5 -131.5q0 -21 6 -48t13 -53l253 -881l73 23l-254 886q50 -23 122.5 -29.5t157.5 -6.5q86 0 158.5 6.5t121.5 29.5l-254 -886l73 -23l253 881q8 26 13.5 53t5.5 48q0 76 -48.5 131.5t-132.5 85t-190 29.5zM561 1566
q122 0 188.5 -35t75.5 -98h-528q9 63 76 98t188 35zM561 1646q-106 0 -190 -29.5t-132.5 -85t-48.5 -131.5q0 -21 6 -48t13 -53l253 -881l73 23l-254 886q50 -23 122.5 -29.5t157.5 -6.5q86 0 158.5 6.5t121.5 29.5l-254 -886l73 -23l253 881q8 26 13.5 53t5.5 48
q0 76 -48.5 131.5t-132.5 85t-190 29.5zM1300 1978q-185 0 -292 -11.5t-152 -41.5t-45 -84q0 -61 42 -97t136 -70q69 -25 92.5 -43.5t21.5 -55.5l-3 -52q-4 -71 22.5 -121t81.5 -79l45 69q-75 36 -69 132l3 54q3 44 -18.5 74t-59.5 50.5t-86 36.5q-54 18 -91 39.5t-37 52.5
q0 15 15 27.5t57.5 21.5t123.5 13.5t213 4.5t213 -4.5t123.5 -13.5t57.5 -21.5t15 -27.5q0 -31 -37 -52t-91 -40q-47 -17 -85 -37t-59.5 -50t-19.5 -74l3 -54q6 -96 -69 -132l45 -69q111 60 104 200l-3 52q-2 37 21.5 55.5t92.5 43.5q94 34 136 70t42 97q0 54 -45 84
t-152 41.5t-292 11.5zM521 1341v-911h80v911h-80zM561 465q-69 0 -118 -49t-49 -117q0 -70 48.5 -118.5t118.5 -48.5q69 0 118 49t49 118q0 68 -49 117t-118 49zM561 385q35 0 61 -26t26 -60q0 -35 -26 -61t-61 -26q-36 0 -61.5 26t-25.5 61q0 34 25.5 60t61.5 26z
M1300 1446q-65 0 -121 -38v-935l80 38v837q26 8 41 8t41 -8v-837l80 -38v935q-56 38 -121 38zM796 518q-133 0 -228 -84l97 -28q28 15 61 23.5t70 8.5q44 0 94.5 -12t113.5 -36l16 -6q29 -11 62.5 -19.5t68.5 -15.5l-13 84q-26 5 -48 11t-42 14l-14 6q-46 19 -109 36.5
t-129 17.5zM2039 1566q122 0 188.5 -35t75.5 -98h-528q9 63 76 98t188 35zM799 360q-65 0 -122 -33l31 -76q38 29 91 29q59 0 163 -41l15 -6q43 -17 93 -29t107 -18l-16 82q-84 12 -154 39l-15 6q-51 20 -100 33.5t-93 13.5zM1300 546q-88 0 -145.5 -51.5t-57.5 -129.5
q0 -68 34.5 -150t84.5 -133l60 48q-20 21 -43 65t-39.5 91t-16.5 79q0 44 34 72.5t89 28.5t89 -28.5t34 -72.5q0 -32 -16.5 -79t-39.5 -91t-43 -65l60 -48q50 51 84.5 133t34.5 150q0 78 -57.5 129.5t-145.5 51.5zM1999 1341v-911h80v911h-80zM1300 165q-55 0 -94.5 -39
t-39.5 -94q0 -56 39.5 -95t94.5 -39q56 0 95 39t39 95q0 55 -39 94t-95 39zM1300 85q23 0 38.5 -15.5t15.5 -37.5q0 -23 -15.5 -38.5t-38.5 -15.5q-22 0 -38 15.5t-16 38.5q0 22 16 37.5t38 15.5zM1804 518q-66 0 -128.5 -17.5t-109.5 -36.5l-14 -6q-20 -8 -42 -14t-48 -11
l-13 -84q35 7 68.5 15.5t62.5 19.5l16 6q63 24 113.5 36t94.5 12q37 0 70 -8.5t61 -23.5l97 28q-94 84 -228 84zM1801 360q-44 0 -93 -13.5t-100 -33.5l-15 -6q-70 -27 -154 -39l-16 -82q113 12 200 47l15 6q104 41 163 41q53 0 91 -29l31 76q-57 33 -122 33zM2039 465
q-69 0 -118 -49t-49 -117q0 -69 49 -118t118 -49q70 0 118.5 48.5t48.5 118.5q0 68 -49 117t-118 49zM2039 385q36 0 61.5 -26t25.5 -60q0 -35 -25.5 -61t-61.5 -26q-35 0 -61 26t-26 61q0 34 26.5 60t60.5 26z" />
</svg>