<?xml version="1.0" standalone="no"?>
<!DOCTYPE svg PUBLIC "-//W3C//DTD SVG 1.1//EN" "http://www.w3.org/Graphics/SVG/1.1/DTD/svg11.dtd">
<svg xmlns="http://www.w3.org/2000/svg" xmlns:xlink="http://www.w3.org/1999/xlink" version="1.1"
   viewBox="94 -151 2414 2169">
   <path fill="currentColor"
      d="M735 1978q-90 0 -138.5 -29t-92.5 -105q-41 -71 -58.5 -157t-17.5 -199q0 -29 3.5 -80t15.5 -115l77 2q-12 72 -15.5 116.5t-3.5 76.5q0 100 16.5 177.5t52.5 139.5q34 58 65 75.5t96 17.5q68 0 116.5 -17t68.5 -49t34.5 -121.5t14.5 -184.5q0 -30 -2 -59t-4 -55
q-3 -31 -4 -57t-1 -51q0 -145 29.5 -250.5t105.5 -220.5q65 -28 102.5 -86.5t37.5 -137.5q0 -104 -50 -171.5t-170 -124.5l19 -73q147 63 212.5 149t65.5 217q0 97 -40 170t-117 112q-64 87 -89.5 189t-25.5 227q0 26 1 53.5t5 59.5q3 28 4 55t1 54q0 60 -8.5 129.5
t-21.5 128t-28 85.5q-31 55 -94 82t-162 27zM547 1490q-10 -21 -22.5 -47.5t-23.5 -54.5t-19 -51q-40 18 -87 32.5t-93 25.5l-12 -76q40 -9 91 -25.5t102 -36.5l61 28q17 55 38 100.5t33 67.5zM569 1340q-55 0 -95.5 -36t-40.5 -86q0 -54 37 -107q8 -12 17 -25t20 -32
q41 -69 69.5 -128t48 -118.5t34 -127.5t26.5 -154l70 37q-12 84 -23.5 150t-28.5 124.5t-47 119.5t-80 137l-22 34t-22 32q-18 26 -18 55q0 21 15.5 35t40.5 14q34 0 80.5 -35t93.5 -94q51 -64 92.5 -151t73.5 -178t53 -165q14 -50 24.5 -102.5t10.5 -104.5q0 -35 -5 -63.5
t-20 -77.5l72 -49q20 67 26.5 109t6.5 80q0 52 -9 110.5t-29 120.5q-46 143 -100 281t-134 241q-58 73 -120 113.5t-117 40.5zM1358 1379v-80q43 0 75 -12t72 -40l37 73q-47 30 -89 44.5t-95 14.5zM1516 1276q-65 -17 -106.5 -38.5t-73.5 -55.5l56 -56q29 28 61 44t85 30z
M640 856q-64 -50 -99.5 -110.5t-35.5 -124.5q0 -53 29 -97.5t81 -73.5l380 -213l57 -230l50 38q-27 14 -63.5 20.5t-89.5 6.5q-79 0 -170 -19.5t-152 -49.5l74 -44q-9 23 -22.5 64.5t-26.5 88t-22 87t-9 61.5q0 43 35 109t90.5 141t117.5 145t116 120l-41 66
q-78 -73 -149.5 -153.5t-127.5 -159.5t-88.5 -148.5t-32.5 -120.5q0 -18 7.5 -56t19 -83t23.5 -85.5t20 -64.5q13 -38 60 -55t132 -17q56 0 115 11.5t109 30t79 40t24 42.5l-65 268l-410 229q-38 22 -54 47.5t-16 58.5q0 44 28.5 87.5t87.5 93.5zM930 211q-50 0 -114 -8.5
t-122 -23.5t-91 -32l20 -66q60 28 149.5 44t160.5 16q46 0 79.5 -4.5t55.5 -15.5l-9 74q-27 10 -58.5 13t-70.5 3zM1898 1977q-77 0 -139.5 -34.5t-113 -108t-91 -190t-75.5 -279.5q-6 -29 -9 -45.5t-3 -29.5q0 -30 6.5 -61.5t27.5 -86.5l176 -470q32 -84 76 -158.5
t94.5 -131.5t104 -89t102.5 -32q68 0 126 48t94 125.5t36 167.5q0 52 -23 112.5t-61 108.5q-85 108 -138 260q-9 26 -13.5 58t-4.5 70q0 66 12 137.5t28 143.5q19 84 27 140t8 100q0 70 -32 125.5t-88 87.5t-127 32zM1892 1897q37 0 82.5 -23t140.5 -99l-96 139
q-55 -20 -95 -76t-61.5 -131.5t-21.5 -152.5q0 -89 9 -170.5t30 -169.5q48 -199 109 -325t135 -186t159 -60l-142 145q41 -68 59.5 -103t24 -52.5t5.5 -30.5q0 -67 -25.5 -126t-65 -96.5t-83.5 -37.5q-48 0 -108 50.5t-115 133t-89 177.5l-165 463q-15 42 -22.5 69t-7.5 52
q0 13 1 25t5 29q44 200 92.5 322.5t108 178t136.5 55.5zM1679 802q-65 -33 -113 -72.5t-74 -82t-26 -82.5q0 -54 52.5 -104.5t155.5 -98.5l22 63q-111 -29 -173 -57.5t-84 -63t-13 -81.5l54 -278q56 -23 125.5 -35t147.5 -12q70 0 146 11t144 29q0 109 0.5 177.5t3.5 115
t9 89.5q-104 24 -196 55.5t-163 65.5t-111 66t-40 58q0 22 20 50t59 59.5t96 64.5zM1497 283l-48 -71q62 -29 147 -44.5t181 -15.5q42 0 88.5 5t86.5 17t61 33l-43 29q-4 -59 -6 -114.5t-2 -120.5q-34 -8 -95 -15.5t-114 -7.5q-61 0 -111.5 7t-93.5 22z" />
</svg>