<?xml version="1.0" standalone="no"?>
<!DOCTYPE svg PUBLIC "-//W3C//DTD SVG 1.1//EN" "http://www.w3.org/Graphics/SVG/1.1/DTD/svg11.dtd">
<svg xmlns="http://www.w3.org/2000/svg" xmlns:xlink="http://www.w3.org/1999/xlink" version="1.1"
   viewBox="94 -151 2414 2169">
   <path fill="currentColor"
      d="M1168 1209l-32 -74l799 -792q14 -14 36.5 -22.5t57.5 -15.5q25 -5 37 -9t16 -8q26 -23 26 -90q14 1 25 1.5t34 0.5q41 0 69 -14t28 -33q0 -17 -16.5 -43t-44.5 -51q-20 -19 -45.5 -30.5t-46.5 -11.5q-28 0 -44 31t-16 90q-59 4 -90 19t-39 42q-7 23 -23.5 42t-31.5 33
l-840 757l-53 -50l848 -760q10 -8 18.5 -21.5t12.5 -29.5q7 -23 13.5 -36t13.5 -20q17 -17 45.5 -26t65.5 -9q2 -35 10.5 -59.5t21.5 -40.5q17 -19 38 -27.5t51 -8.5q73 0 143 62q85 76 85 142q0 45 -34 78q-20 19 -49 27t-80 8q-4 23 -13.5 43t-23.5 36q-10 10 -33 19
t-50 14q-28 5 -45 12.5t-29 18.5zM470 1905l-126 -126l36 -210l178 -176l137 142l-186 183zM763 1948l-67 -2l8 -185l65 2zM282 1508q-32 0 -47 -38.5t-15 -95.5q0 -38 5.5 -80t16.5 -84q23 -88 66 -154t92 -66q16 0 37 13l16 10q-24 18 -58.5 68.5t-61 122.5t-26.5 155
q0 37 2.5 71.5t10.5 70.5l-12 3q-15 4 -26 4zM1043 1913l-97 -177l59 -31l96 176zM792 1471l-162 -167l75 -74l162 167zM779 1810q-126 0 -230.5 -62.5t-167 -167.5t-62.5 -232q0 -125 62 -226.5t166.5 -162t231.5 -60.5q74 0 144.5 21.5t114.5 58.5l12 -3
q88 67 138.5 166.5t50.5 205.5q0 128 -62 233t-166.5 167t-231.5 62zM779 1740q108 0 196.5 -53t141 -142t52.5 -197q0 -107 -52.5 -194t-141 -139t-196.5 -52q-107 0 -195.5 52t-141.5 139.5t-53 193.5q0 108 53 197t141.5 142t195.5 53zM853 1978q-118 0 -221 -44.5
t-181.5 -123.5t-122.5 -182.5t-44 -221.5q0 -123 43 -229t119.5 -185.5t178.5 -124t220 -44.5q77 0 155.5 20t131.5 55l-57 40q-57 -26 -113 -38t-118 -12q-106 0 -195.5 43.5t-155 117t-102 164.5t-36.5 185q0 151 62 265t174 177t262 63q134 0 245 -69t177.5 -184.5
t66.5 -253.5q0 -80 -28.5 -155.5t-87.5 -147.5l57 -50q70 87 103.5 176t33.5 187q0 118 -44 221.5t-122 182.5t-181 123.5t-220 44.5zM1299 1681l-177 -92l29 -61l177 94zM1199 1369l-3 -67l177 -5l3 66zM1373 1238l-119 -165l183 -172l21 21q-17 16 -22 35t-5 33
q0 13 3.5 26t8.5 27q5 13 8 27t3 30q0 27 -18.5 63.5t-62.5 74.5zM1871 163l-62 -47q-16 -12 -16 -28q0 -15 12 -27l25 -25q10 -10 22 -10q19 0 34 23l43 64zM2162 436q-19 0 -34 -23l-43 -64l58 -50l62 47q16 12 16 28q0 15 -12 27l-25 25q-10 10 -22 10zM2013 35l-62 -47
q-16 -12 -16 -28q0 -15 12 -27l25 -25q10 -10 22 -10q19 0 34 23l43 64zM2321 311q-19 0 -34 -23l-43 -64l58 -50l62 47q16 12 16 28q0 15 -12 27l-25 25q-10 10 -22 10z" />
</svg>