<?xml version="1.0" standalone="no"?>
<!DOCTYPE svg PUBLIC "-//W3C//DTD SVG 1.1//EN" "http://www.w3.org/Graphics/SVG/1.1/DTD/svg11.dtd">
<svg xmlns="http://www.w3.org/2000/svg" xmlns:xlink="http://www.w3.org/1999/xlink" version="1.1"
   viewBox="94 -151 2414 2169">
   <path fill="currentColor"
      d="M1052 971q-22 -41 -86 -75t-142 -34q-64 0 -115 22t-68 45q-20 -38 -74.5 -75t-128.5 -37q-24 0 -51.5 2.5t-66.5 15.5q33 -191 129 -341t237.5 -254t312.5 -158.5t355 -54.5q206 0 389.5 67t323.5 190.5t213 293.5q-10 -2 -19.5 -2.5t-20.5 -0.5q-57 0 -119 21
t-107.5 62t-55.5 102q-55 -32 -122 -32q-85 0 -157.5 48.5t-119.5 137.5q-37 -24 -99.5 -40t-136.5 -16q-91 0 -165 33.5t-106 79.5zM594 1820l-70 -10q10 -68 51.5 -108t142 -63.5t286.5 -41.5q114 -11 169 -53.5t80 -130.5q20 -70 43.5 -117t58.5 -75l43 54
q-25 22 -46 57.5t-36 94.5q-19 75 -56.5 124t-101 76t-159.5 37q-166 17 -251.5 34.5t-117 45t-36.5 76.5zM1300 1978q-207 0 -385 -31.5t-311 -88t-207.5 -132t-74.5 -164.5q0 -86 74.5 -160t208 -130t311.5 -87t384 -31q164 0 311.5 20.5t270 57.5t211.5 87.5t138 112
t49 130.5q0 89 -75 164.5t-209 132t-312 88t-384 31.5zM1300 1898q182 0 344.5 -26.5t287.5 -72.5t196.5 -107t71.5 -130q0 -58 -51 -108t-135.5 -90t-185 -67.5t-201 -42.5t-182.5 -15q-11 8 -22 16.5t-22 19.5l-67 -49q-69 26 -104.5 58t-56 63t-41.5 56t-60 37
q-25 7 -64.5 10t-131.5 3q-132 0 -200.5 10t-93 30t-24.5 50q0 39 22 63q-48 11 -73 33.5t-25 48.5q0 35 73.5 74t196 71t268.5 49q66 7 136.5 11.5t143.5 4.5zM1399 1590q-18 0 -25.5 -6t-9.5 -19l-93 -745h81l91 740q2 11 -9.5 20.5t-34.5 9.5zM1888 1674q-33 0 -110 -66
q-97 35 -135 35q-23 0 -23 -14q0 -22 55 -76q-78 -32 -78 -52q0 -30 159 -30q53 -59 83 -59q31 0 37 67q139 16 139 43q0 25 -109 56q8 37 8 57q0 39 -26 39zM1060 883q53 -45 119.5 -70t143.5 -25q54 0 107 12.5t99 35.5q43 -80 124.5 -129t179.5 -49q22 0 43.5 3t41.5 8
q37 -66 102.5 -104t145.5 -53q-77 -130 -202 -222.5t-281.5 -142t-328.5 -49.5q-166 0 -320.5 45.5t-283.5 130.5t-221 205t-133 270q10 -1 20.5 -1.5t21.5 -0.5q65 0 118.5 26.5t87.5 71.5q38 -26 84.5 -39.5t95.5 -13.5q67 0 131.5 24t104.5 67zM611 860
q9 -150 81.5 -297.5t196.5 -276.5t289 -222l70 -3q597 183 719 623l-264 18l-144 176l-61 -27q-13 -128 -52.5 -259.5t-97.5 -249.5t-127 -204q-74 163 -109.5 348.5t-35.5 412.5l-235 -76zM1176 74l-20 -163l79 -13l20 162z" />
</svg>