<?xml version="1.0" standalone="no"?>
<!DOCTYPE svg PUBLIC "-//W3C//DTD SVG 1.1//EN" "http://www.w3.org/Graphics/SVG/1.1/DTD/svg11.dtd">
<svg xmlns="http://www.w3.org/2000/svg" xmlns:xlink="http://www.w3.org/1999/xlink" version="1.1"
   viewBox="94 -151 2414 2169">
   <path fill="currentColor"
      d="M604 936q-123 0 -215 -44.5t-143 -124.5t-51 -187q0 -94 43.5 -164t140.5 -126.5t257 -108.5q39 -13 79.5 -41.5t113.5 -95.5q84 -77 151 -111.5t138 -34.5q88 0 158.5 45t112 122t41.5 173q0 103 -46.5 204t-127.5 190t-186.5 157.5t-225 107.5t-240.5 39zM1084 1978
q-203 0 -364.5 -66t-254.5 -180t-93 -258q0 -93 39 -165.5t106.5 -114t153.5 -41.5q54 0 111.5 16t137.5 51l23 10q50 22 82.5 30.5t81.5 8.5t104.5 -2.5t109.5 -2.5q98 0 176 41.5t123 113t45 162.5q0 117 -74 206.5t-204.5 140t-302.5 50.5zM1084 1898q149 0 261.5 -40.5
t176 -112t63.5 -164.5q0 -103 -75 -170.5t-189 -67.5q-41 0 -72.5 1t-64 2.5t-77.5 1.5q-59 0 -99.5 -11t-95.5 -35l-23 -10q-77 -34 -126 -47t-92 -13q-95 0 -157 68t-62 174q0 121 82.5 217t225.5 151.5t324 55.5zM1084 1521q-37 0 -70 -5t-65 -14q-51 -14 -51 -44
q0 -17 11 -28t29 -11q13 0 38 9q27 10 53 14t56 4q11 0 22 -0.5t21 -2.5q14 -3 23 -3q17 0 28 10t11 27q0 31 -31 37q-16 3 -34 5t-41 2zM604 856q135 0 267.5 -53.5t241 -143t173 -199.5t64.5 -222t-66 -186t-166 -74q-56 0 -109.5 27.5t-127.5 95.5q-80 73 -127 106
t-94 48q-143 45 -227.5 91.5t-121 102.5t-36.5 131q0 128 88 202t241 74zM686 442q-19 0 -30 -9.5t-11 -27.5q0 -36 39 -38q59 -2 109.5 -35t90.5 -90q11 -18 32 -18q16 0 27 10t11 25q0 14 -8 25q-33 46 -76 81.5t-90 56t-94 20.5zM2074 1508q-116 0 -225.5 -68.5
t-196.5 -185t-138.5 -262.5t-51.5 -300q0 -173 84 -276t226 -103q104 0 177 62t129 197q35 83 58 122.5t51 66.5q107 102 162.5 203.5t55.5 201.5q0 95 -44.5 172.5t-119.5 123.5t-167 46zM2074 1428q70 0 127 -35t90.5 -94.5t33.5 -132.5q0 -166 -193 -347
q-33 -31 -58.5 -75.5t-67.5 -141.5q-49 -113 -102.5 -161t-131.5 -48q-107 0 -168.5 79.5t-61.5 219.5q0 137 45.5 268.5t121.5 237t171 168t194 62.5zM2020 957q-13 0 -24 -9q-64 -54 -109.5 -127t-66.5 -164q-4 -20 7 -34t30 -14q14 0 25 8.5t15 22.5q26 82 61 142.5
t87 104.5q14 11 14 30q0 16 -11.5 28t-27.5 12z" />
</svg>