<?xml version="1.0" standalone="no"?>
<!DOCTYPE svg PUBLIC "-//W3C//DTD SVG 1.1//EN" "http://www.w3.org/Graphics/SVG/1.1/DTD/svg11.dtd">
<svg xmlns="http://www.w3.org/2000/svg" xmlns:xlink="http://www.w3.org/1999/xlink" version="1.1"
   viewBox="94 -151 2414 2169">
   <path fill="currentColor"
      d="M1121 1822q-168 0 -317.5 -60.5t-264.5 -168t-181 -248.5t-66 -303v-122q-62 -65 -62 -157q0 -94 66 -178q-37 -74 -37 -161q0 -101 42.5 -195.5t115 -169t164.5 -118t190 -43.5q103 0 196.5 46.5t164.5 127t103 183.5q302 259 448 484t146 437q0 136 -54 253.5
t-150.5 206t-225.5 137.5t-278 49zM515 1832q-27 0 -32 -16t-10.5 -31.5t-32.5 -15.5q-19 0 -37 7t-36 7q-24 0 -24 -15t-0.5 -30t-26.5 -15q-9 0 -15 1.5t-13 1.5q-19 0 -19 -10q0 -11 47 -41t121 -65t154 -62l168 129l-171 128q-36 27 -73 27zM972 1978q-19 0 -24 -15.5
t-10 -30.5t-26 -15q-17 0 -36.5 9.5t-37.5 9.5q-16 0 -19.5 -13t-6 -26t-16.5 -13q-13 0 -33.5 11.5t-38.5 11.5q-13 0 -13 -10q0 -12 25 -40.5t61 -62.5t70 -62l359 43q-85 91 -154.5 147t-99.5 56zM1260 1289q-112 0 -207 -77.5t-174 -212.5q-22 9 -45 9q-19 0 -37 -6.5
t-35 -17.5q-12 -8 -23 -19.5t-25 -18.5q-16 -8 -39.5 -25.5t-23.5 -29.5q0 -13 51 -27q-16 -32 -39 -36t-23 -11q0 -5 6.5 -13t25.5 -8q8 0 18.5 1t23.5 4q0 -16 -13 -25t-26 -15t-13 -13q0 -13 22 -13q23 0 62 15t85 57q53 47 94.5 115t86.5 134t106 110.5t152 44.5
q45 0 78 -11l18 69q-50 20 -106 20zM1121 1744q187 0 328 -74.5t220.5 -203.5t79.5 -290q0 -185 -137.5 -405t-442.5 -467q-23 -96 -82 -170t-141.5 -116t-174.5 -42q-81 0 -158.5 37t-139 100.5t-98 144t-36.5 166.5q0 56 15.5 94.5t47.5 68.5q-45 38 -68.5 81t-23.5 86
q0 55 33 92t90 54q0 -87 43.5 -129.5t110.5 -42.5q21 0 21 13q0 7 -21 15q-43 15 -50 54q10 -4 19 -4q15 0 30 3.5t15 10.5q0 5 -9 8q-33 11 -43 63q18 -4 33 -4q10 0 22 5.5t12 12.5q0 8 -15 13t-25 21q-16 25 -42 36.5t-63 11.5q-27 0 -51 -4.5t-46 -11.5q-1 25 -1.5 41
t-0.5 30q0 148 58.5 275.5t161.5 223.5t238.5 149.5t290.5 53.5zM621 469q30 0 41.5 -17.5t12.5 -47.5q-35 0 -62 -30q-10 14 -22 22t-20 8q0 65 50 65zM599 539q-42 0 -67 -48.5t-25 -133.5q32 -3 56 -19.5t24 -41.5l52 3q0 50 102 53q0 77 -24.5 132t-61.5 55h-56z
M461 209q-22 -8 -30 -32t2 -51q9 -26 31 -38.5t43 -4.5t29 31.5t-2 49.5t-31.5 39t-41.5 6zM603 333l-40 -36q-14 -12 -14 -28q0 -10 14.5 -28.5t32 -34.5t25.5 -16t22 15.5t25 34.5t11 31q0 22 -16 31zM896 704l-29 -74q77 -30 123 -83t77 -119l73 34q-43 91 -103 150.5
t-141 91.5zM428 129q-33 -9 -33 -97q0 -110 51 -110q22 0 54.5 11.5t79.5 11.5zM868 239q-23 4 -42.5 -13t-23.5 -45q-4 -27 8.5 -49t34.5 -26q23 -4 42 12.5t23 44.5q5 28 -7 50t-35 26zM1857 1315q-46 0 -93 -15l-20 -372q16 15 37.5 23t35.5 8q30 0 69.5 -30.5t92 -71
t121 -71t156.5 -30.5q63 0 88.5 25t25.5 88q0 87 -44.5 167.5t-118.5 143t-165.5 99t-184.5 36.5zM1138 188q-23 0 -50 -35.5t-46.5 -85t-19.5 -89.5q14 4 25.5 5.5t32.5 1.5q32 0 51.5 -3t39.5 -3q58 0 58 56q0 30 -15 66t-36.5 61.5t-39.5 25.5z" />
</svg>