<?xml version="1.0" standalone="no"?>
<!DOCTYPE svg PUBLIC "-//W3C//DTD SVG 1.1//EN" "http://www.w3.org/Graphics/SVG/1.1/DTD/svg11.dtd">
<svg xmlns="http://www.w3.org/2000/svg" xmlns:xlink="http://www.w3.org/1999/xlink" version="1.1"
   viewBox="94 -151 2414 2169">
   <path fill="currentColor"
      d="M1528 1564q-110 0 -225 -39t-220.5 -107.5t-189.5 -158t-133 -191.5t-49 -208v-7.5v-7.5l76 6q6 104 55.5 198.5t126.5 173.5t168 137.5t182.5 91t168.5 32.5q89 0 153 -42.5t64 -133.5q0 -36 -33.5 -99t-90.5 -140t-129.5 -157t-152 -151.5t-156.5 -121.5l41 -59
q204 141 319 269.5t178 221.5l34 50q59 86 85 110.5t45 24.5q50 0 74 -48t24 -132q0 -121 -48.5 -237t-132 -211.5t-189.5 -156.5t-222 -73l12 -74q126 7 243.5 71.5t210.5 170t147.5 237.5t54.5 273q0 143 -64 253t-175 172.5t-252 62.5zM776 1656l-77 -20l40 -165
l-52 -332l89 -85l53 52l-56 61l49 314zM1267 1978l-113 -258l11 -117l-168 -283l116 33l127 224l-7 123l106 243zM552 961l-122 -240l-177 -35l15 -78l217 46l104 206l141 -62l34 71zM360 459l-46 -36q33 -45 84 -77l26 55q-40 25 -64 58zM1190 1228q-45 -40 -77.5 -72
t-61.5 -66t-64 -79l61 -48q40 52 86.5 102t112.5 111zM477 464q-73 -91 -162 -133l33 -63q41 17 77 46t64 70q43 -28 79 -28q17 0 30 6l-12 68q-12 -6 -18 -6q-19 0 -42 10t-49 30zM1238 1033q-20 -22 -45 -51t-48 -60l59 -49q21 26 44.5 53.5t48.5 53.5zM675 399
q21 0 36 -15.5t15 -36.5t-15 -36.5t-36 -15.5q-22 0 -37 15.5t-15 36.5t15 36.5t37 15.5zM668 567l-49 -68q-22 -31 -34 -68.5t-12 -80.5q0 -21 1.5 -39.5t2.5 -35.5q-20 -19 -35.5 -41.5t-15.5 -41.5q0 -21 14.5 -37.5t35.5 -16.5q0 -19 17 -37.5t34 -18.5q13 0 36 11
t42 34q17 -4 36.5 -5.5t38.5 -1.5q57 0 115.5 14.5t98 38t39.5 49.5l-268 250zM764 863q-59 0 -107.5 -53t-48.5 -134q0 -62 35 -130.5t93.5 -133.5t131 -117.5t149 -83.5t145.5 -31q55 0 101.5 26t75 65t28.5 79q0 53 -41 120.5t-108.5 136.5t-148 127t-160.5 93.5
t-145 35.5zM764 785q50 0 117.5 -31.5t138 -82.5t131.5 -110t98.5 -115t37.5 -96q0 -29 -36.5 -59.5t-88.5 -30.5q-70 0 -152 41.5t-155 106t-120 136t-47 132.5q0 43 24 76t52 33zM823 271q21 0 36 -15.5t15 -36.5t-15 -36.5t-36 -15.5q-22 0 -37 15.5t-15 36.5t15 36.5
t37 15.5zM900 142l-73 -8q-2 -14 -4 -29.5t-4 -32.5q-37 -19 -73.5 -44.5t-77.5 -61.5l43 -52q43 36 84.5 64t83.5 52q5 34 9.5 61.5t11.5 50.5zM788 34l-46 -43q13 -14 25 -35t25 -58l65 22q-10 31 -28 61t-41 53zM1603 744q-32 -38 -66 -68t-81 -61l47 -61q97 66 152 133z
M2310 1337l-336 -178l-26 -49l55 -76l28 72l316 162zM1368 364l-67 -67l6 -46l-179 -143l66 -190l75 30l-52 135l212 150zM2121 605l-267 -28l-324 -175l42 -75l318 175l243 25z" />
</svg>