<?xml version="1.0" standalone="no"?>
<!DOCTYPE svg PUBLIC "-//W3C//DTD SVG 1.1//EN" "http://www.w3.org/Graphics/SVG/1.1/DTD/svg11.dtd">
<svg xmlns="http://www.w3.org/2000/svg" xmlns:xlink="http://www.w3.org/1999/xlink" version="1.1"
   viewBox="94 -151 2414 2169">
   <path fill="currentColor"
      d="M1300 1452q58 0 97.5 -42.5t39.5 -114.5q0 -7 -44 -13.5t-93 -6.5t-93.5 6.5t-44.5 13.5q0 72 40 114.5t98 42.5zM712 1284l-4 -3q58 -24 137 -40.5t164 -27t161.5 -15.5t129.5 -5t129.5 5t161.5 15.5t164 27t137 40.5l-4 3q-7 -14 -23 -34t-46 -51q-64 -68 -93.5 -125
t-39.5 -109.5t-14.5 -105t-18.5 -111t-53 -127.5q-46 -83 -122 -128.5t-178 -45.5t-177.5 45.5t-122.5 128.5q-39 69 -53 127.5t-18.5 111t-14.5 105t-39 109.5t-94 125q-30 31 -46 51t-23 34zM1300 1509q-313 0 -487.5 -55t-174.5 -140q0 -29 22.5 -66.5t77.5 -95.5
q56 -59 81 -113t34.5 -106t15 -105.5t20.5 -112.5t52 -127q49 -89 122 -138t158 -63v31q-35 -19 -57 -53.5t-22 -79.5q0 -68 46 -110.5t112 -42.5t112 42.5t46 110.5q0 45 -22 79.5t-57 53.5v-31q86 14 158.5 63t121.5 138q38 68 52.5 127t20 112.5t15 105.5t35 106
t80.5 113q55 58 77.5 95.5t22.5 66.5q0 85 -174.5 140t-487.5 55zM1300 369q38 0 62.5 -23.5t24.5 -62.5t-24.5 -63t-62.5 -24q-37 0 -62 24t-25 63t25 62.5t62 23.5zM1300 1978q-212 0 -398.5 -81t-328.5 -224.5t-222.5 -332t-80.5 -402.5t80.5 -402.5t222.5 -332
t328.5 -224.5t398.5 -81t398.5 81t328.5 224.5t222.5 332t80.5 402.5t-80.5 402.5t-222.5 332t-328.5 224.5t-398.5 81zM1300 1898q196 0 368 -75t303 -207.5t205 -306t74 -371.5t-74 -371.5t-205 -306t-303 -207.5t-368 -75t-368 75t-303 207.5t-205 306t-74 371.5
t74 371.5t205 306t303 207.5t368 75zM1984 1665l-1417 -1405l49 -49l1417 1405z" />
</svg>