<?xml version="1.0" standalone="no"?>
<!DOCTYPE svg PUBLIC "-//W3C//DTD SVG 1.1//EN" "http://www.w3.org/Graphics/SVG/1.1/DTD/svg11.dtd">
<svg xmlns="http://www.w3.org/2000/svg" xmlns:xlink="http://www.w3.org/1999/xlink" version="1.1"
   viewBox="94 -151 2414 2169">
   <path fill="currentColor"
      d="M1555 1978q-79 0 -148 -27t-108 -69q-53 37 -113 57t-115 20q-144 0 -221.5 -84t-110.5 -274q-23 -133 -55 -238.5t-74 -211.5q-36 -90 -59 -186.5t-23 -185.5q0 -106 48 -174.5t125.5 -107t167.5 -55.5q42 -33 95 -47.5t106 -14.5q44 0 90.5 12t77.5 26l155 26
q41 -33 102 -52.5t116 -19.5q60 0 122.5 18t109.5 48q122 34 175.5 122t53.5 207q0 115 -23 214.5t-54 194.5t-55 199q-22 94 -40.5 203.5t-39.5 185.5q-27 96 -110 155t-195 59zM1335 1840l-77 -24q12 -76 15 -134.5t3 -101.5q0 -94 -22 -165t-44 -143t-22 -169
q0 -46 7 -82l76 18q-5 32 -5 67q0 83 22.5 156t45 149.5t22.5 168.5q0 49 -3.5 114t-17.5 146zM1555 1898q84 0 146.5 -43t81.5 -113q17 -60 29.5 -125t24 -131.5t25.5 -128.5q14 -61 35.5 -132.5t43 -149t36.5 -156t15 -152.5q0 -116 -67.5 -184.5t-154.5 -68.5
q-22 0 -38.5 8t-16.5 22q0 13 19 27.5t44 30.5t44 35.5t19 44.5q-52 -24 -112 -35.5t-124 -11.5q-104 0 -207 34t-186 107q-51 -80 -125 -117t-164 -37q-49 0 -96 10q0 -15 18.5 -26t42.5 -20.5t42.5 -19.5t18.5 -22q0 -29 -36 -29q-89 0 -158 36t-108 95.5t-39 132.5
q0 152 76 342q43 108 76.5 218.5t57.5 247.5q29 164 85.5 228t167.5 64q58 0 121.5 -27.5t118.5 -74.5q14 33 50.5 60.5t87.5 44t106 16.5zM986 851q-58 -24 -122 -24q-17 0 -27 -9t-10 -25t10 -26t25 -10q38 0 78.5 8.5t74.5 22.5q21 9 21 29t-15.5 31t-34.5 3zM1465 904
q-19 13 -37.5 3t-18.5 -32q0 -19 15 -28q116 -76 249 -76q38 0 77 6q18 3 28.5 12.5t10.5 23.5q0 16 -13.5 25.5t-33.5 7.5q-19 -2 -36 -3.5t-33 -1.5q-119 0 -208 63zM1228 433q6 -29 9.5 -58t3.5 -59q0 -102 -49 -161.5t-134 -59.5q-28 0 -51 12t-50 12q-39 0 -62 -29
t-23 -78q0 -114 105 -114q143 0 239 61t145 157.5t49 204.5q0 36 -2 68t-7 64z" />
</svg>