<?xml version="1.0" standalone="no"?>
<!DOCTYPE svg PUBLIC "-//W3C//DTD SVG 1.1//EN" "http://www.w3.org/Graphics/SVG/1.1/DTD/svg11.dtd">
<svg xmlns="http://www.w3.org/2000/svg" xmlns:xlink="http://www.w3.org/1999/xlink" version="1.1"
   viewBox="94 -151 2414 2169">
   <path fill="currentColor"
      d="M1336 1978q-70 0 -110.5 -23.5t-42.5 -76.5l-21 -457q-3 -70 -20 -98.5t-45 -28.5q-29 0 -51 24t-22 69q0 27 5.5 84t11 118t5.5 99q0 47 -8.5 106t-19.5 99q-9 32 -60 55.5t-106 23.5q-51 0 -91.5 -23.5t-40.5 -66.5q0 -34 17.5 -61t17.5 -81q0 -17 -6 -38t-16 -49
l-135 -390q-79 -16 -126.5 -73t-47.5 -136q0 -34 4.5 -63t4.5 -52q0 -68 -23.5 -141.5t-23.5 -171.5h80q0 69 12 119.5t23.5 95.5t11.5 98q0 25 -4.5 57t-4.5 58q0 58 41.5 96.5t111.5 37.5l151 439q11 30 19 59t8 54q0 33 -16 63.5t-16 56.5q0 21 15 27.5t34 6.5
q29 0 57.5 -6.5t31.5 -16.5q11 -38 18 -92t7 -91q0 -20 -3.5 -62.5t-7.5 -91t-7.5 -89t-3.5 -58.5q0 -72 42.5 -122.5t110.5 -50.5q72 0 106.5 56t38.5 147l21 457q0 10 13 17t60 7q44 0 56.5 -7t13.5 -17l24 -297q12 -149 53 -229.5t125 -110.5l287 -102q20 75 53.5 132.5
t60.5 103t27 85.5q0 24 -8 67.5t-16 81.5q-13 61 -17 86.5t-4 33.5q0 12 13.5 22t35.5 10q36 0 52 -10t20 -32l37 -174q9 -44 13 -89.5t4 -118.5q0 -90 17.5 -163.5t35 -157t17.5 -200.5q0 -153 -52.5 -233.5t-168.5 -111.5q-69 -19 -130 -40.5t-126.5 -55t-149.5 -85.5
q-42 -26 -83.5 -43t-83.5 -30l-12 -92q46 11 106.5 37.5t114.5 61.5q86 55 149.5 86.5t118.5 50t116 34.5q142 36 211.5 137.5t69.5 283.5q0 105 -10.5 179.5t-24.5 131t-24.5 106t-10.5 104.5q0 76 -4 126.5t-15 98.5l-37 174q-22 105 -150 105q-52 0 -90.5 -31.5
t-38.5 -80.5q0 -17 7 -54.5t15.5 -82t15.5 -82.5t7 -55q0 -25 -20 -57t-45.5 -71t-42.5 -86l-214 75q-55 19 -84 80t-40 191l-24 298q-4 52 -44 74.5t-106 22.5zM617 1092q-46 0 -83 -38.5t-37 -86.5q0 -13 28 -13q7 0 24.5 6t40 12t41.5 6t39 -5t36.5 -9.5t24.5 -4.5
t11.5 6t3.5 12q0 17 -15.5 44.5t-44 49t-69.5 21.5zM543 788q-25 0 -43 -23t-18 -55t18 -55t43 -23q24 0 42 23t18 55t-18 55t-42 23zM407 538q-59 0 -111 -34.5t-84 -92t-32 -126.5q0 -63 28.5 -127t75 -107t98.5 -43q32 0 52 24t20 60q0 29 -18 74t-18 71q0 22 21 22
l-8 46q-40 0 -54 -20.5t-14 -49.5q0 -34 18 -75t18 -69q0 -23 -17 -23q-29 0 -61.5 33.5t-55 83.5t-22.5 100q0 79 51.5 135t122.5 56zM882 792q-25 0 -43 -23t-18 -55t18 -55t43 -23q24 0 42 23t18 55t-18 55t-42 23zM1680 1782q-43 0 -68.5 -16t-25.5 -37
q0 -30 17.5 -70.5t34.5 -82t17 -76.5q0 -45 -14.5 -108t-35.5 -96l271 -69q0 139 -26.5 261t-68.5 237q-10 28 -38 42.5t-63 14.5zM818 1420q-36 0 -65.5 -28t-51 -68t-33.5 -78t-12 -58q129 0 218.5 -41t150 -110t99.5 -153t67 -169q38 19 91 19q44 0 79.5 -18t35.5 -58
q0 -27 -38.5 -60t-145.5 -97q-14 19 -28.5 31.5t-36.5 17.5q-7 59 -50.5 104t-102.5 45q-35 0 -65.5 -12.5t-53.5 -28.5q-28 30 -67 50.5t-87 20.5q-49 0 -92 -18.5t-72 -43.5q-13 18 -36 33.5t-52 15.5q-45 0 -77 -30t-32 -73q0 -42 29 -73q-20 -57 -20 -125
q0 -110 52.5 -200.5t142 -144.5t199.5 -54h17.5t17.5 1q11 -44 42.5 -70t77.5 -26q49 0 84 29q24 -22 53.5 -37t67.5 -15t61 12.5t37.5 25t26.5 12.5q11 0 27.5 -3t35.5 -3q29 0 58 15t49 63q4 9 23 11.5t43.5 9.5t46 30t29.5 74q44 13 70.5 47.5t26.5 81.5q0 19 -9.5 36
t-9.5 35q0 12 20.5 43t20.5 59q0 19 -13 38.5t-26.5 37t-13.5 30.5q0 19 21.5 51t21.5 61q0 22 -17 46t-35 46.5t-21 40.5q-6 36 -10 74t-19 57q-22 28 -50.5 44t-38.5 27q-17 18 -18.5 42t-2.5 48t-19 44t-44 27.5t-47.5 9.5t-28.5 8q-14 13 -22.5 45t-29.5 51
q-10 8 -26.5 14.5t-42.5 6.5q-19 0 -42.5 -5t-52.5 -15l-110 53q-36 0 -67.5 -18t-51.5 -49q-33 37 -44.5 75.5t-11.5 82.5zM1105 461q54 0 94 -56t40 -131q0 -63 -26.5 -130t-64.5 -113.5t-75 -46.5q-30 0 -30 22q0 44 25.5 90t25.5 99q0 27 -17.5 49t-35 48t-17.5 66
q0 61 29.5 82t51.5 21zM2402 1172q-45 0 -90.5 -51.5t-75.5 -136.5l79 -191q0 49 16 107t36.5 112t36.5 93t16 51q0 16 -18 16z" />
</svg>