<?xml version="1.0" standalone="no"?>
<!DOCTYPE svg PUBLIC "-//W3C//DTD SVG 1.1//EN" "http://www.w3.org/Graphics/SVG/1.1/DTD/svg11.dtd">
<svg xmlns="http://www.w3.org/2000/svg" xmlns:xlink="http://www.w3.org/1999/xlink" version="1.1"
   viewBox="94 -151 2414 2169">
   <path fill="currentColor"
      d="M1646 1628q-101 0 -206 -21t-239.5 -71t-326.5 -135q-105 -47 -177.5 -77t-125.5 -48.5t-101 -30.5q-71 -18 -122 -27t-94 -22t-91 -42q-30 -19 -47.5 -49t-17.5 -61q0 -32 25 -79t92 -145q121 -176 261.5 -304t284 -198t273.5 -70q64 0 134.5 20.5t131.5 57.5
q61 -37 131.5 -57.5t134.5 -20.5q130 0 273.5 70t284.5 198t261 304q68 98 92.5 145t24.5 79q0 31 -18 60.5t-48 49.5q-19 13 -41 39.5t-48 61.5q-279 373 -701 373zM1279 1342q-35 -82 -97 -141t-130 -75l27 -76q85 23 159 94t115 168zM1824 1253q-77 0 -158.5 -28
t-172 -55.5t-193.5 -27.5q-94 0 -202 -10t-215 -29t-199.5 -44t-154.5 -55l-121 12l-7 -61q45 -11 94 -25t93 -39q75 -44 166.5 -81t188 -64.5t188.5 -43t169 -15.5q109 0 232 25.5t244 71.5t225.5 108.5t176.5 137.5q-101 125 -187 174t-167 49zM1646 1548q196 0 349 -81
t289 -262q28 -37 54.5 -70t54.5 -49q29 -17 29 -42q0 -17 -23.5 -57.5t-79.5 -122.5q-112 -164 -243 -284t-262.5 -186t-247.5 -66q-66 0 -137.5 25t-128.5 69q-57 -44 -128.5 -69t-137.5 -25q-116 0 -247.5 66t-262 186t-243.5 284q-56 82 -79.5 122.5t-23.5 57.5
q0 23 29 42q53 34 135.5 50t147.5 33q78 19 171.5 55.5t253.5 107.5q182 81 309.5 128t227 67.5t194.5 20.5zM1300 1062q83 0 179 -8.5t189.5 -23t167.5 -33t112 -38.5q-64 -40 -147 -74.5t-172.5 -61t-174.5 -41.5t-154 -15q-70 0 -156.5 15t-177 42t-173.5 62t-146 75
q35 19 110.5 37t172 32.5t194.5 23t176 8.5z" />
</svg>