<?xml version="1.0" standalone="no"?>
<!DOCTYPE svg PUBLIC "-//W3C//DTD SVG 1.1//EN" "http://www.w3.org/Graphics/SVG/1.1/DTD/svg11.dtd">
<svg xmlns="http://www.w3.org/2000/svg" xmlns:xlink="http://www.w3.org/1999/xlink" version="1.1"
   viewBox="94 -151 2414 2169">
   <path fill="currentColor"
      d="M624 1728h1353q53 0 90.5 -37.5t37.5 -89.5v-1326q0 -52 -37.5 -89.5t-90.5 -37.5h-1353q-53 0 -91 37t-38 90v1326q0 52 38.5 89.5t90.5 37.5zM756 1688h70v-1500h-70v1500zM535 1482h1533v-70h-1533v70zM1011 1688h70v-1500h-70v1500zM535 1227h1533v-70h-1533v70z
M624 1648q-19 0 -34 -14.5t-15 -32.5v-1326q0 -19 15 -33t34 -14h1353q20 0 34 14t14 33v1326q0 19 -14 33t-34 14h-1353zM535 973h1533v-70h-1533v70zM1265 1688h70v-1500h-70v1500zM1520 1688h70v-1500h-70v1500zM535 718h1533v-70h-1533v70zM1775 1688h70v-1500h-70v1500
zM535 463h1533v-70h-1533v70z" />
</svg>