<?xml version="1.0" standalone="no"?>
<!DOCTYPE svg PUBLIC "-//W3C//DTD SVG 1.1//EN" "http://www.w3.org/Graphics/SVG/1.1/DTD/svg11.dtd">
<svg xmlns="http://www.w3.org/2000/svg" xmlns:xlink="http://www.w3.org/1999/xlink" version="1.1"
   viewBox="94 -151 2414 2169">
   <path fill="currentColor"
      d="M1300 1978q395 -303 644.5 -558t367.5 -480t118 -438q0 -126 -42.5 -235.5t-119 -192.5t-179 -129.5t-221.5 -46.5q-121 0 -234 46.5t-200.5 127t-133.5 183.5q-45 -103 -133 -183.5t-201 -127t-234 -46.5q-119 0 -221.5 46.5t-179 129.5t-119 192.5t-42.5 235.5
q0 213 118 438t367.5 480t644.5 558zM1015 1726h559v-60h-559v60zM740 1466h1120v-60h-1120v60zM490 1115v-1094h-60v1094h60zM710 1461h60v-1516h-60v1516zM496 1206h1608v-60h-1608v60zM995 1705h60v-1697h-60v1697zM1270 1929h60v-1666h-60v1666zM1300 1883
q-365 -283 -597 -524.5t-342.5 -453t-110.5 -403.5q0 -147 63.5 -265.5t172.5 -188.5t246 -70q128 0 237 53t193.5 151t137.5 232q53 -134 137.5 -232t194 -151t236.5 -53q137 0 246 70t172.5 188.5t63.5 265.5q0 192 -110.5 403.5t-342.5 453t-597 524.5zM322 946h1956v-60
h-1956v60zM321 145h851l-51 -60h-755zM231 686h2138v-60h-2138v60zM1545 1705h60v-1697h-60v1697zM220 426h2160v-60h-2160v60zM1830 1461h60v-1516h-60v1516zM2110 1115h60v-1094h-60v1094zM1429 145h851l-45 -60h-756z" />
</svg>