<?xml version="1.0" standalone="no"?>
<!DOCTYPE svg PUBLIC "-//W3C//DTD SVG 1.1//EN" "http://www.w3.org/Graphics/SVG/1.1/DTD/svg11.dtd">
<svg xmlns="http://www.w3.org/2000/svg" xmlns:xlink="http://www.w3.org/1999/xlink" version="1.1"
   viewBox="94 -151 2414 2169">
   <path fill="currentColor"
      d="M1100 1978q-52 0 -52 -37q0 -22 31.5 -46t72 -53.5t72 -67.5t31.5 -86q0 -18 -4 -54.5t-9 -75t-10 -62.5q-55 13 -87 17t-80 7q5 10 12.5 56.5t7.5 81.5q0 85 -57 130t-167 45q-43 0 -62 -9t-19 -31q0 -40 64 -47q80 -9 115 -37t35 -74q0 -22 -6 -52t-17 -65
q-134 -4 -247.5 -48t-198.5 -123t-134 -188q-39 -88 -49 -176.5t-29 -167.5l-29 -120q-77 0 -136.5 -34t-59.5 -84q0 -42 43 -100t103 -91q0 -142 68 -252t181.5 -173t251.5 -63q106 0 200.5 45.5t170.5 131.5t126 208l27 65q39 93 91.5 146.5t110.5 53.5q61 0 125 -70.5
t146 -239.5q197 0 344 35t254 110.5t182 196.5l-618 433q47 23 66.5 48.5t19.5 63.5q0 43 -22.5 70.5t-67.5 43.5q-26 49 -67 73.5t-96 30.5q-50 50 -102 71.5t-119 21.5q-173 0 -317 -126.5t-281 -393.5l-69 39q103 205 218.5 335.5t265.5 195.5l30 256q3 23 -23 62t-67 79
t-85 67.5t-78 27.5zM295 616q45 0 70.5 -14t25.5 -38q0 -27 -14.5 -54t-35.5 -45t-42 -18q-18 0 -49 24t-56.5 52.5t-25.5 44.5q0 19 40 33.5t87 14.5zM700 504q34 0 58 -26.5t24 -65.5q0 -38 -24 -65t-58 -27t-58 27t-24 65q0 39 24 65.5t58 26.5z" />
</svg>