<?xml version="1.0" standalone="no"?>
<!DOCTYPE svg PUBLIC "-//W3C//DTD SVG 1.1//EN" "http://www.w3.org/Graphics/SVG/1.1/DTD/svg11.dtd">
<svg xmlns="http://www.w3.org/2000/svg" xmlns:xlink="http://www.w3.org/1999/xlink" version="1.1"
   viewBox="94 -151 2414 2169">
   <path fill="currentColor"
      d="M1092 1978q-64 0 -86.5 -14t-22.5 -39q0 -16 11.5 -38.5t21.5 -36.5q22 -29 42.5 -85t29.5 -97l46 -209q-28 -3 -52 -10t-49 -20q-16 29 -31.5 60.5t-15.5 42.5q0 22 8 60.5t8 59.5q0 61 -22.5 100t-48.5 39q-32 0 -61 -41t-47 -99.5t-18 -111.5q0 -91 75 -233
q-15 -24 -29.5 -76t-23.5 -113.5t-9 -112.5q-10 -29 -49.5 -68t-149.5 -113q-54 -37 -85 -97t-31 -128q0 -145 116 -145q20 0 32 -6t25 -28q54 -90 108 -143t131 -76.5t198 -23.5q61 -128 128 -203t105 -75q28 0 55 47t48.5 124t34.5 169t13 181q26 31 36.5 66t10.5 72
q0 67 -27.5 128t-55 107t-27.5 68q0 15 22 15q14 0 52 -13.5t106 -27t171 -13.5q42 0 85.5 3t89.5 10q174 -80 174 -196q0 -59 -57 -102.5t-158 -62.5q-76 -15 -109.5 -35t-33.5 -56q0 -35 26 -53t87 -18q105 0 197 47.5t148.5 125.5t56.5 171q0 78 -43 141.5t-99.5 109.5
t-99.5 72q38 77 65 185t37 201q5 39 29 61t47.5 38.5t24.5 41.5q2 63 27.5 136.5t25.5 161.5q0 76 -30 105.5t-97 29.5q-72 0 -72 -41q0 -29 22 -75t22 -113q0 -58 -42 -99.5t-151 -79.5q0 21 -13 71.5t-32 108.5t-38.5 104.5t-33.5 60.5q-10 10 -46 18.5t-66 8.5
q-52 0 -72 -9t-20 -26q0 -14 14 -31.5t48 -48.5q34 -32 54 -94t20 -102q0 -26 -30 -53.5t-90 -60.5q-7 -4 -31 -5.5t-55 -1.5q-46 0 -103 3.5t-103 10.5l-106 322q-25 76 -45.5 113t-47 48t-69.5 11zM317 704l-22 -67q54 -18 112 -31.5t122 -23.5l8 70q-60 8 -115 21.5
t-105 30.5zM522 559q-37 -5 -73 -7.5t-71 -2.5h-31.5t-32.5 1v-69q17 -2 32.5 -2h31.5q37 0 85.5 5.5t84.5 17.5zM567 646q35 0 71.5 -15.5t61.5 -38.5t25 -44q0 -35 -105 -35q-32 0 -44.5 17t-12.5 62q0 32 4 54zM1018 947l56 -44q-80 -99 -180 -168l-40 57q91 63 164 155z
M1117 795l44 -55q-77 -61 -190 -109l-28 64q103 43 174 100zM878 582q36 0 64 -32.5t28 -73.5q0 -29 -15.5 -47.5t-40.5 -18.5q-34 0 -63 33t-29 73q0 28 15.5 47t40.5 19zM775 331q-9 -14 -13.5 -42t-4.5 -62q0 -63 12 -133t33 -119.5t48 -49.5q31 0 85.5 74.5t111.5 219.5
zM1378 395q30 0 30 -107q0 -42 -7.5 -90.5t-19.5 -92.5t-25.5 -71.5t-25.5 -27.5q-11 0 -34 29.5t-48 70t-42.5 77.5t-17.5 52q0 13 28 33t58 46q32 28 60 54.5t44 26.5z" />
</svg>