<?xml version="1.0" standalone="no"?>
<!DOCTYPE svg PUBLIC "-//W3C//DTD SVG 1.1//EN" "http://www.w3.org/Graphics/SVG/1.1/DTD/svg11.dtd">
<svg xmlns="http://www.w3.org/2000/svg" xmlns:xlink="http://www.w3.org/1999/xlink" version="1.1"
   viewBox="94 -151 2414 2169">
   <path fill="currentColor"
      d="M1300 1978q-121 0 -222.5 -12t-181 -35t-134.5 -55t-83.5 -72.5t-28.5 -87.5q0 -39 21 -78t56 -65q-9 -27 -9 -67q0 -62 44.5 -134.5t105.5 -111.5q5 -52 36 -90t77 -49q67 -84 86 -173t23 -192q-76 -23 -117 -65.5t-41 -99.5q0 -50 29 -85.5t81 -50.5q-73 -88 -73 -215
q0 -99 42 -176t116.5 -121.5t172.5 -44.5t172.5 44.5t116.5 121.5t42 176q0 127 -73 215q52 15 81 50.5t29 85.5q0 57 -40.5 99.5t-117.5 65.5q5 103 23.5 192t85.5 173q47 11 78 49t35 90q62 39 106 111.5t44 134.5q0 40 -9 67q35 26 56 65t21 78q0 47 -28.5 87.5
t-83.5 72.5t-134.5 55t-181 35t-222.5 12zM1231 1848q20 1 33.5 -8.5t13.5 -26.5q0 -16 -12.5 -26t-32.5 -11q-96 -6 -179 -24t-150 -46q-18 -8 -33 -4t-22 18q-7 15 -0.5 29t22.5 22q71 32 162 51.5t198 25.5zM1300 1629q155 0 273 -26.5t188 -75.5q13 -9 16 -23.5
t-6 -27.5q-10 -15 -25 -16.5t-32 9.5q-65 43 -167.5 64t-246.5 21t-246.5 -21t-167.5 -64q-17 -11 -31.5 -9.5t-25.5 16.5q-9 13 -6 27.5t16 23.5q70 49 188.5 75.5t272.5 26.5zM1300 1319q94 0 166.5 -8t133.5 -27q17 -5 25 -18t2 -30q-5 -15 -19 -21.5t-33 -1.5
q-58 14 -124.5 22.5t-150.5 8.5t-150 -8.5t-125 -22.5q-19 -5 -33 1.5t-19 21.5q-6 17 2 30t25 18q61 18 133.5 26.5t166.5 8.5zM1300 669q54 0 109.5 -11t122.5 -33q16 -5 22 -19t1 -30q-5 -15 -19.5 -20.5t-31.5 1.5q-50 19 -100.5 28t-103.5 9q-105 0 -204 -37
q-17 -7 -31.5 -1.5t-19.5 20.5q-5 16 1 30t22 19q67 23 122.5 33.5t109.5 10.5zM1168 261q33 5 44 -38q8 -29 27 -46t50 -27q33 -12 29 -42q-2 -18 -17 -26.5t-32 -3.5q-50 13 -84.5 47.5t-46.5 87.5q-4 16 4 31t26 17z" />
</svg>