<?xml version="1.0" standalone="no"?>
<!DOCTYPE svg PUBLIC "-//W3C//DTD SVG 1.1//EN" "http://www.w3.org/Graphics/SVG/1.1/DTD/svg11.dtd">
<svg xmlns="http://www.w3.org/2000/svg" xmlns:xlink="http://www.w3.org/1999/xlink" version="1.1"
   viewBox="94 -151 2414 2169">
   <path fill="currentColor"
      d="M868 1978q-135 0 -251 -47.5t-203 -132.5t-135.5 -199t-48.5 -246t48.5 -246t135.5 -199t203 -133t251 -48t250.5 48t202.5 133t135.5 199t48.5 246t-48.5 245.5t-135.5 199t-202.5 133t-250.5 47.5zM868 1900q158 0 284 -72.5t199.5 -196.5t73.5 -278t-74 -278
t-200 -197t-283 -73t-283.5 73t-200.5 197t-74 278t73.5 278t200 196.5t284.5 72.5zM745 1247q44 0 75.5 -30t31.5 -70t-29.5 -67.5t-72.5 -27.5q-44 0 -75.5 29.5t-31.5 70.5q0 38 30.5 66.5t71.5 28.5zM680 1373q-33 0 -52 -17.5t-19 -48.5q0 -11 2 -23t6 -25
q-52 -6 -83 -27.5t-31 -49.5q0 -29 32.5 -51t86.5 -28q-26 -47 -26 -90q0 -28 15.5 -46t39.5 -18q23 0 51.5 21t41.5 50q11 -50 38.5 -85.5t52.5 -35.5q30 0 51.5 44t21.5 108q0 18 -0.5 27.5t-2.5 17.5q40 0 62 15.5t22 45.5q0 43 -43 86.5t-114 43.5q-24 37 -67.5 61.5
t-84.5 24.5zM357 218q0 -34 21 -53t48.5 -31t48.5 -23.5t21 -30.5q0 -8 -3.5 -20.5t-3.5 -26.5q0 -31 22.5 -51t53.5 -20q24 0 42.5 12.5t29.5 12.5q23 0 36 -22.5t31 -44.5t54 -22q18 0 31 6q-37 43 -37 120v37l-222 159q-9 -7 -37.5 -11.5t-54.5 -4.5q-42 0 -81 14z
M539 891q-70 -76 -107.5 -173t-37.5 -202q0 -116 45 -217t123.5 -178t181.5 -120t219 -43q132 0 247.5 57t197 156t108.5 225l-78 17q-23 -108 -93 -192.5t-169.5 -133.5t-212.5 -49q-134 0 -245 65t-177.5 173.5t-66.5 239.5q0 188 124 320zM1757 1471q-85 0 -166.5 -23
t-152.5 -66l41 -67q128 78 278 78q149 0 269.5 -70.5t192 -190t71.5 -264.5q0 -147 -71.5 -266.5t-193 -190.5t-270.5 -71q-109 0 -205.5 41.5t-169.5 114.5t-114.5 168.5t-41.5 203.5h-80q0 -125 47.5 -234.5t131.5 -193t195 -131t237 -47.5q128 0 239.5 46.5t196 129.5
t132 193t47.5 237q0 126 -47.5 235.5t-131.5 192t-195 129t-239 46.5zM1882 764q45 0 74.5 -27.5t29.5 -69.5q0 -48 -38.5 -84t-89.5 -36q-44 0 -74.5 28.5t-30.5 70.5q0 47 38.5 82.5t90.5 35.5zM1928 910q-48 0 -92.5 -39t-56.5 -89q-73 0 -128.5 -40.5t-55.5 -94.5
q0 -64 91 -64q-8 -29 -11.5 -53t-3.5 -44q0 -79 63 -79q35 0 70 23t60 64q34 -26 56 -36t40 -10q39 0 62 40.5t27 114.5q41 6 78 37.5t37 60.5q0 31 -48.5 53.5t-113.5 22.5q0 70 -17 101.5t-57 31.5z" />
</svg>