<?xml version="1.0" standalone="no"?>
<!DOCTYPE svg PUBLIC "-//W3C//DTD SVG 1.1//EN" "http://www.w3.org/Graphics/SVG/1.1/DTD/svg11.dtd">
<svg xmlns="http://www.w3.org/2000/svg" xmlns:xlink="http://www.w3.org/1999/xlink" version="1.1"
   viewBox="94 -151 2414 2169">
   <path fill="currentColor"
      d="M1706 1978q-124 0 -193.5 -71t-69.5 -198v-58q0 -74 -13 -119.5t-45 -76.5l-608 -608q-23 -23 -47.5 -35.5t-59 -17.5t-89.5 -5h-58q-124 0 -196 -71t-72 -198q0 -124 70.5 -195t197.5 -71h55q19 0 30.5 -7.5t11.5 -28.5v-52q0 -123 74 -195.5t200 -72.5q125 0 194 71
t69 198v58q0 74 13.5 119t44.5 77l608 608q23 23 47.5 35.5t59.5 17.5t89 5h58q124 0 196 71t72 198q0 124 -70 195t-198 71h-55q-19 0 -30.5 7.5t-11.5 28.5v52q0 123 -74 195.5t-200 72.5zM1706 1898q93 0 143.5 -48.5t50.5 -139.5v-54q0 -59 30 -86.5t83 -27.5h64
q96 0 142 -49t46 -138q0 -92 -48 -140t-140 -48h-58q-65 0 -110 -7.5t-78 -25.5t-64 -48l-610 -610q-42 -42 -61 -101t-19 -150v-58q0 -95 -45.5 -142t-137.5 -47q-93 0 -143.5 48.5t-50.5 139.5v54q0 58 -30 86t-83 28h-64q-96 0 -142 49t-46 138q0 92 48.5 140t139.5 48
h58q66 0 110.5 7.5t78 25t63.5 48.5l610 610q42 42 61 101t19 150v58q0 94 46 141.5t137 47.5z" />
</svg>