<?xml version="1.0" standalone="no"?>
<!DOCTYPE svg PUBLIC "-//W3C//DTD SVG 1.1//EN" "http://www.w3.org/Graphics/SVG/1.1/DTD/svg11.dtd">
<svg xmlns="http://www.w3.org/2000/svg" xmlns:xlink="http://www.w3.org/1999/xlink" version="1.1"
   viewBox="94 -151 2414 2169">
   <path fill="currentColor"
      d="M2193 1978q-128 0 -163 -118l-252 -838q-81 -269 -363 -294l-875 -80q-76 -7 -115.5 -50t-39.5 -116q0 -81 56.5 -128.5t149.5 -45.5l1098 18q362 6 433 331l244 1116q12 53 -8.5 100t-64 76t-100.5 29zM614 1900q-117 0 -203 -51t-133.5 -141t-47.5 -205
q0 -126 43.5 -269t126 -298t200.5 -315l90 6q-148 192 -237.5 368.5t-89.5 319.5q0 94 57.5 146.5t178.5 52.5q99 0 220 -64t247.5 -176.5t244.5 -259.5t211 -313l65 36q-100 179 -226 334.5t-261.5 272.5t-265.5 182.5t-238 65.5q-110 0 -179 -38t-106 -118q0 63 7 118
q17 126 92 197.5t204 71.5q182 0 381.5 -110t396.5 -313.5t370 -481.5l65 41q-133 215 -284.5 388.5t-310.5 297t-316 189.5t-302 66zM716 610l-82 -14q19 -29 29.5 -74.5t10.5 -84.5q0 -45 -13 -62l72 -37q11 19 16 45.5t5 57.5q0 43 -10 88t-28 81zM2193 1898
q47 0 75 -32.5t19 -75.5l-244 -1116q-30 -137 -115 -201.5t-240 -66.5l-1100 -18q-58 -1 -90.5 24t-32.5 70q0 79 83 86l874 80q122 11 206.5 53t139 116t86.5 181l252 838q18 62 87 62zM2014 1589l-64 -31q7 -44 47 -79t97.5 -55.5t115.5 -20.5q36 0 63 8l-16 76
q-23 -5 -44 -5q-60 0 -122 29.5t-77 77.5zM808 351q139 -131 296.5 -233t312 -161t284.5 -59q127 0 195 47t68 127q0 60 -36.5 101.5t-92.5 52.5q21 -29 34 -59t13 -64q0 -59 -47.5 -93.5t-136.5 -34.5q-109 0 -243 49t-272 134t-260 193h-115z" />
</svg>