<?xml version="1.0" standalone="no"?>
<!DOCTYPE svg PUBLIC "-//W3C//DTD SVG 1.1//EN" "http://www.w3.org/Graphics/SVG/1.1/DTD/svg11.dtd">
<svg xmlns="http://www.w3.org/2000/svg" xmlns:xlink="http://www.w3.org/1999/xlink" version="1.1"
   viewBox="94 -151 2414 2169">
   <path fill="currentColor"
      d="M1851 1978q-55 0 -90 -39l-414 -471q-37 -43 -60 -80t-41 -88.5t-39 -135.5q-51 -205 -219 -408q-12 2 -19 2q-22 0 -36.5 -12.5t-14.5 -35.5q0 -19 7 -36q-37 -8 -57 -25t-20 -42t8.5 -33.5t36.5 -8.5l65 -82q0 -21 16.5 -27.5t33.5 -6.5q32 0 50.5 24t22.5 65
q17 -5 30 -5q50 0 50 44q0 11 -3 23q86 90 186 156.5t214 96.5q82 22 150 61.5t132 107.5l381 405q38 40 64 74.5t26 66.5q0 38 -23 102.5t-108 150.5q-54 55 -114 89.5t-133 54.5q-49 13 -82 13zM340 460q-28 -11 -42 -28.5t-7 -33.5q6 -15 28.5 -20.5t48.5 4.5
q27 10 41 27.5t7 34.5q-6 15 -28 20.5t-48 -4.5zM857 598q-16 0 -74 -2t-119 -12q-68 -11 -102.5 -29t-34.5 -40q0 -9 11 -19.5t28 -18.5q24 -12 39.5 -29.5t24.5 -43.5q19 -54 61.5 -85.5t97.5 -31.5q1 -27 14.5 -68t43 -72.5t77.5 -31.5q35 0 50.5 48.5t15.5 153.5
q0 34 -1.5 74.5t-3.5 87.5q-2 37 -9 63.5t-33 41t-86 14.5zM857 539q35 0 51.5 -10t20.5 -50q2 -20 3 -51t1 -71q0 -83 -5.5 -126t-18.5 -43q-12 0 -27.5 26.5t-26.5 63.5t-11 71q-6 -1 -12 -1h-11q-49 0 -80 20.5t-45 62.5q-7 20 -17.5 32t-30.5 21q-16 7 -23 12t-7 9
q0 8 23 14.5t59.5 11t78 6.5t78.5 2zM1963 1828q55 -17 112.5 -66.5t96.5 -111.5t39 -114q0 -20 -6 -36l-343 -363q-34 85 -96.5 156t-161.5 138zM1276 1154q80 -36 167 -55.5t182 -22.5q-11 -38 -31 -77.5t-47 -78.5q-114 -38 -197.5 -91.5t-164.5 -129.5q-29 60 -101 84
q66 90 113.5 183t78.5 188zM522 227l-77 -63q-18 10 -32 7.5t-30 -18.5l-22 -21q-25 -23 -13.5 -64t64.5 -93q55 -53 95 -65.5t64 12.5l22 23q15 16 15.5 31.5t-5.5 28.5l62 78q11 14 -2 46t-39 58q-25 25 -57.5 37.5t-44.5 2.5zM867 46q-19 0 -32.5 -21.5t-13.5 -52.5
t13.5 -52.5t32.5 -21.5t32.5 21.5t13.5 52.5t-13.5 52.5t-32.5 21.5zM1058 51q-15 -5 -19.5 -23t4.5 -41q8 -22 24.5 -33.5t30.5 -6.5q15 4 19.5 22.5t-4.5 41.5q-8 21 -24.5 32.5t-30.5 7.5z" />
</svg>