<?xml version="1.0" standalone="no"?>
<!DOCTYPE svg PUBLIC "-//W3C//DTD SVG 1.1//EN" "http://www.w3.org/Graphics/SVG/1.1/DTD/svg11.dtd">
<svg xmlns="http://www.w3.org/2000/svg" xmlns:xlink="http://www.w3.org/1999/xlink" version="1.1"
   viewBox="94 -151 2414 2169">
   <path fill="currentColor"
      d="M1206 176q274 0 414.5 81t140.5 281q0 86 -32 153t-94 110.5t-152 60.5v10q92 15 166.5 54t118 110.5t43.5 185.5q0 133 -62 226t-175.5 141.5t-270.5 48.5h-514v-1462h417zM1243 798q188 0 258 -60.5t70 -178.5q0 -120 -85.5 -173t-270.5 -53h-242v465h270zM973 952v530
h295q194 0 270 -75.5t76 -198.5q0 -77 -34 -134.5t-112.5 -89.5t-213.5 -32h-281z" />
</svg>