<?xml version="1.0" standalone="no"?>
<!DOCTYPE svg PUBLIC "-//W3C//DTD SVG 1.1//EN" "http://www.w3.org/Graphics/SVG/1.1/DTD/svg11.dtd">
<svg xmlns="http://www.w3.org/2000/svg" xmlns:xlink="http://www.w3.org/1999/xlink" version="1.1"
   viewBox="94 -151 2414 2169">
   <path fill="currentColor"
      d="M376 1978q-72 0 -99 -31.5t-27 -102.5v-1811q0 -72 26.5 -103.5t98.5 -31.5h1850q72 0 98.5 31.5t26.5 103.5v1810q0 72 -26.5 103.5t-98.5 31.5h-1849zM362 1898h470q32 0 32 -31v-198q0 -31 -32 -31h-502v229q0 31 32 31zM330 1558h188q32 0 32 -32v-186q0 -32 -32 -32
h-188v250zM330 1228h502q32 0 32 -31v-188q0 -31 -32 -31h-502v250zM662 1558h566q32 0 32 -32v-186q0 -32 -32 -32h-566q-32 0 -32 32v186q0 32 32 32zM976 1898h648q32 0 32 -31v-198q0 -31 -32 -31h-648q-13 0 -22.5 9t-9.5 22v198q0 13 9.5 22t22.5 9zM330 898h188
q32 0 32 -32v-186q0 -32 -32 -32h-188v250zM330 568h502q32 0 32 -31v-188q0 -31 -32 -31h-502v250zM662 898h566q32 0 32 -32v-186q0 -32 -32 -32h-566q-32 0 -32 32v186q0 32 32 32zM976 1228h648q32 0 32 -31v-188q0 -31 -32 -31h-648q-13 0 -22.5 9t-9.5 22v188
q0 13 9.5 22t22.5 9zM1372 1558h567q31 0 31 -32v-186q0 -32 -31 -32h-567q-32 0 -32 32v186q0 32 32 32zM1768 1898h470q32 0 32 -31v-229h-502q-32 0 -32 31v198q0 31 32 31zM330 238h188q32 0 32 -32v-196q0 -32 -32 -32h-156q-32 0 -32 32v228zM2082 1558h188v-250h-188
q-32 0 -32 32v186q0 32 32 32zM662 238h566q32 0 32 -32v-196q0 -32 -32 -32h-566q-32 0 -32 32v196q0 32 32 32zM976 568h648q32 0 32 -31v-188q0 -31 -32 -31h-648q-13 0 -22.5 9t-9.5 22v188q0 13 9.5 22t22.5 9zM1372 898h567q31 0 31 -32v-186q0 -32 -31 -32h-567
q-32 0 -32 32v186q0 32 32 32zM1768 1228h502v-250h-502q-32 0 -32 31v188q0 31 32 31zM2082 898h188v-250h-188q-32 0 -32 32v186q0 32 32 32zM1372 238h567q31 0 31 -32v-196q0 -32 -31 -32h-567q-32 0 -32 32v196q0 32 32 32zM1768 568h502v-250h-502q-32 0 -32 31v188
q0 31 32 31zM2082 238h188v-228q0 -32 -32 -32h-156q-32 0 -32 32v196q0 32 32 32z" />
</svg>