<?xml version="1.0" standalone="no"?>
<!DOCTYPE svg PUBLIC "-//W3C//DTD SVG 1.1//EN" "http://www.w3.org/Graphics/SVG/1.1/DTD/svg11.dtd">
<svg xmlns="http://www.w3.org/2000/svg" xmlns:xlink="http://www.w3.org/1999/xlink" version="1.1"
   viewBox="94 -151 2414 2169">
   <path fill="currentColor"
      d="M1300 1678q-32 0 -79.5 -1.5t-96 -4.5t-84.5 -7q-58 -7 -136 -46t-164.5 -99.5t-170 -134t-154.5 -151.5t-117.5 -151.5t-57.5 -132.5l61 -541q6 -53 40 -82t86 -29h1746q53 0 86.5 29t39.5 82l61 541q-11 59 -57.5 132.5t-117.5 151.5t-154.5 151.5t-170 134
t-164.5 99.5t-136 46q-36 4 -84.5 7t-96 4.5t-79.5 1.5zM541 1116l103 -456q-83 -4 -156.5 -8.5t-132.5 -9.5l-37 314q51 31 107.5 72t115.5 88zM1300 1598q32 0 79 -1.5t99 -5.5t99 -10q66 -80 159 -173.5t195 -183.5l-128 -558q-118 4 -246 6.5t-257 2.5t-256.5 -2.5
t-246.5 -6.5l-128 558q102 90 195 183.5t159 173.5q47 6 99 10t99 5.5t79 1.5zM1300 538q126 0 262.5 -2.5t265 -6t233 -7.5t168.5 -8l-8 -72q-4 -31 -20.5 -47.5t-45.5 -16.5h-1710q-28 0 -45 16.5t-21 47.5l-8 72q64 4 168.5 8t233 7.5t265 6t262.5 2.5zM2059 1116
q59 -47 115.5 -88t107.5 -72l-37 -314q-59 5 -132.5 9.5t-156.5 8.5z" />
</svg>