<?xml version="1.0" standalone="no"?>
<!DOCTYPE svg PUBLIC "-//W3C//DTD SVG 1.1//EN" "http://www.w3.org/Graphics/SVG/1.1/DTD/svg11.dtd">
<svg xmlns="http://www.w3.org/2000/svg" xmlns:xlink="http://www.w3.org/1999/xlink" version="1.1"
   viewBox="94 -151 2414 2169">
   <path fill="currentColor"
      d="M1300 1398q-127 0 -231.5 -62t-166.5 -166.5t-62 -231.5t62 -231.5t166.5 -166.5t231.5 -62q128 0 232 62t166 166t62 232q0 127 -62 231.5t-166.5 166.5t-231.5 62zM575 1665q-31 -34 -32 -72.5t31 -70.5l161 -161q32 -32 71.5 -32.5t72.5 31.5q32 31 31.5 71t-32.5 72
l-161 161q-33 32 -72 32.5t-70 -31.5zM1300 1978q-45 0 -73 -27.5t-28 -72.5v-228q0 -45 28 -73t73 -28t72.5 28t27.5 73v228q0 44 -28 72t-72 28zM360 1039q-44 0 -72 -28t-28 -72q0 -45 28 -73t71 -28h229q45 0 73 28t28 73t-28 72.5t-73 27.5h-228zM1300 1228
q82 0 145 -37.5t99 -103t36 -149.5q0 -85 -36 -150t-99 -102.5t-145 -37.5q-81 0 -144.5 37.5t-99.5 102.5t-36 150t36 150.5t99 102.5t145 37zM737 517l-161 -162q-32 -33 -31.5 -72t31.5 -70q33 -32 71.5 -32.5t69.5 31.5l162 162q33 33 32.5 72t-32.5 71t-71 31.5
t-71 -31.5zM1884 1664l-161 -162q-32 -33 -32 -72t31 -70q33 -33 72 -32.5t71 32.5l161 162q32 32 31.5 71t-32.5 71q-32 31 -71 31t-70 -31zM1300 327q-45 0 -73 -28t-28 -73v-228q0 -45 28 -72.5t73 -27.5q44 0 72 28t28 72v228q0 45 -28 73t-72 28zM2013 1039
q-45 0 -73.5 -28t-28.5 -72q0 -45 28 -73t74 -28h228q44 0 71.5 27.5t27.5 73.5q0 45 -27.5 72.5t-72.5 27.5h-227zM1722 517q-32 -31 -32.5 -71t32.5 -73l162 -161q32 -31 71 -31t71 32q32 31 31.5 70.5t-32.5 71.5l-160 161q-31 32 -70.5 32t-72.5 -31z" />
</svg>