<?xml version="1.0" standalone="no"?>
<!DOCTYPE svg PUBLIC "-//W3C//DTD SVG 1.1//EN" "http://www.w3.org/Graphics/SVG/1.1/DTD/svg11.dtd">
<svg xmlns="http://www.w3.org/2000/svg" xmlns:xlink="http://www.w3.org/1999/xlink" version="1.1"
   viewBox="94 -151 2414 2169">
   <path fill="currentColor"
      d="M1574 1624l-78 14l-58 -321l78 -14zM935 722l-14 78l-321 -58l14 -78zM1930 1510l-55 55l-305 -299l56 -56zM1030 610l-56 56l-302 -301l56 -54zM1162 558l-77 15l-58 -321l77 -15zM2001 1133l-14 78l-321 -58l14 -78zM1366 770l59 143l242 -242q29 -29 28.5 -59
t-20.5 -50t-50 -20.5t-59 28.5zM1723 727l-328 328l-122 -304l237 -237q44 -43 91.5 -48t88 18t63.5 63.5t18.5 88t-48.5 91.5zM1505 888l59 -59q109 57 224 41.5t199 -100.5l170 -172q71 -72 93.5 -164t-2.5 -184.5t-97 -165.5q-73 -73 -165.5 -97.5t-184 -1t-162.5 94.5
l-171 171q-84 84 -100 199t40 223l-59 59q-53 -89 -61 -187.5t24.5 -190.5t99.5 -159l170 -170q86 -86 199 -114t226.5 1t200.5 115q85 86 115 200.5t3.5 228.5t-111.5 199l-172 171q-67 67 -159 99t-191 24t-188 -61zM1676 718l49 -68q32 4 57.5 -4t48.5 -32l170 -171
q44 -44 43.5 -100.5t-46.5 -105.5q-48 -45 -105 -45.5t-101 43.5l-170 170q-24 24 -32 49t-5 56l-67 50q-28 -59 -8.5 -117.5t55.5 -94.5l172 -171q64 -64 156.5 -63.5t160.5 67.5q67 69 68 161t-64 157l-170 172q-36 36 -94.5 55.5t-117.5 -8.5zM1033 1305l200 -200
l-60 -142l-241 241q-30 30 -29.5 60t20.5 50t50 20.5t60 -29.5zM1326 1124l-237 237q-44 44 -92 49t-88.5 -18t-63.5 -63.5t-18 -88.5t49 -92l328 -328zM1033 1529l-170 171q-43 43 -100 56.5t-115 -2t-104 -59.5q-44 -45 -59 -103t-1 -115.5t57 -100.5l170 -170
q36 -36 94.5 -56t116.5 9l-48 68q-31 -4 -57 4t-49 31l-171 171q-43 43 -42.5 100.5t46.5 104.5q47 46 104.5 47.5t102.5 -43.5l169 -169q24 -24 31.5 -49.5t5.5 -56.5l67 -49q29 58 9 116t-57 95zM1187 1683l-169 169q-85 85 -198.5 113t-227.5 -1.5t-201 -115.5
q-85 -86 -115 -199.5t-2.5 -227.5t111.5 -199l170 -171q68 -68 160 -100.5t191.5 -24.5t187.5 61l-60 60q-108 -56 -223 -40t-199 100l-170 170q-72 72 -94.5 164.5t2.5 185t97 165.5q74 73 166 97.5t183.5 1t163.5 -95.5l170 -170q84 -84 100 -198.5t-40 -223.5l60 -58
q53 87 61 186.5t-24 191.5t-100 160z" />
</svg>