<?xml version="1.0" standalone="no"?>
<!DOCTYPE svg PUBLIC "-//W3C//DTD SVG 1.1//EN" "http://www.w3.org/Graphics/SVG/1.1/DTD/svg11.dtd">
<svg xmlns="http://www.w3.org/2000/svg" xmlns:xlink="http://www.w3.org/1999/xlink" version="1.1"
   viewBox="94 -151 2414 2169">
   <path fill="currentColor"
      d="M1488 1978q-328 -1 -567.5 -47.5t-407 -143t-281.5 -247.5v-59q126 -2 226.5 -20t187.5 -58.5t170.5 -109t176.5 -170.5q146 -160 251.5 -235t199.5 -75q59 0 117.5 26t106.5 70t77 99.5t29 114.5q0 80 -38.5 185.5t-114.5 248.5q-29 100 -63.5 208.5t-69.5 212.5z
M672 1811l-50 -50l348 -327l50 49zM941 1898l-57 -41l206 -265l56 40zM1215 1922l-64 -30l144 -320l63 29zM1421 1898q20 -49 41.5 -108.5t43.5 -127.5t43 -140q72 -137 108.5 -231.5t36.5 -162.5q0 -62 -39 -115.5t-97.5 -86.5t-117.5 -33q-76 0 -164.5 66.5t-216.5 210.5
q-122 138 -229 220.5t-228.5 121t-287.5 43.5l7 -30q98 113 247.5 197t360.5 130t492 46zM1550 1563q-104 -122 -243.5 -219.5t-291.5 -156.5l28 -74q102 37 206.5 99t198 139.5t162.5 160.5zM1646 1391q-86 -89 -157.5 -150t-150.5 -109t-190 -97l37 -71q106 47 194 99.5
t167.5 117t160.5 150.5zM1718 1057l-22 -68q34 -24 53.5 -60.5t19.5 -69.5q0 -31 -21 -58t-50.5 -44t-57.5 -17q-29 0 -58 19.5t-50.5 48t-30.5 55.5h-65q0 -51 30.5 -97.5t76.5 -76t94 -29.5q51 0 99.5 28t80 72.5t31.5 96.5q0 37 -18.5 83t-48.5 80t-63 37zM1839 855
l-66 -44l505 -734q9 -14 9 -28q0 -32 -28.5 -52t-54.5 -20q-24 0 -35 15l-508 739l-66 -44l508 -736q36 -53 104 -53q62 0 111.5 45.5t49.5 106.5q0 37 -21 69z" />
</svg>