<?xml version="1.0" standalone="no"?>
<!DOCTYPE svg PUBLIC "-//W3C//DTD SVG 1.1//EN" "http://www.w3.org/Graphics/SVG/1.1/DTD/svg11.dtd">
<svg xmlns="http://www.w3.org/2000/svg" xmlns:xlink="http://www.w3.org/1999/xlink" version="1.1"
   viewBox="94 -151 2414 2169">
   <path fill="currentColor"
      d="M1280 1246q-131 0 -266.5 -8.5t-258.5 -36t-220 -84.5t-153.5 -152.5t-56.5 -241.5q0 -179 75.5 -330t208 -262t305 -172t366.5 -61t372.5 61t318.5 172t222 262t82 330q0 146 -57.5 241.5t-157 152.5t-227.5 84.5t-270 36t-283 8.5zM1280 1978q-243 0 -371.5 -75.5
t-128.5 -217.5q0 -39 10.5 -100.5t37.5 -162.5q14 -51 18 -118.5t4 -176.5l80 16q0 112 -5 180t-19 119q-26 97 -36 153t-10 90q0 103 109 158t311 55q203 0 311.5 -55t108.5 -158q0 -34 -10 -90t-36 -153q-14 -51 -19 -120t-5 -181l80 -16q0 117 4.5 180.5t17.5 116.5
q27 101 37.5 162.5t10.5 100.5q0 142 -128.5 217.5t-371.5 75.5zM703 478q44 -61 84 -101t100 -74q22 -14 20 -35.5t-19.5 -34t-41.5 0.5q-64 34 -117.5 86.5t-91.5 110.5q-15 23 -4 42t32.5 23t37.5 -18zM1061 209q17 0 35.5 -9.5t46.5 -15.5q25 -5 29.5 -26t-8 -38.5
t-38.5 -13.5q-20 3 -47 12t-44 26q-18 18 -9.5 41.5t35.5 23.5z" />
</svg>