<?xml version="1.0" standalone="no"?>
<!DOCTYPE svg PUBLIC "-//W3C//DTD SVG 1.1//EN" "http://www.w3.org/Graphics/SVG/1.1/DTD/svg11.dtd">
<svg xmlns="http://www.w3.org/2000/svg" xmlns:xlink="http://www.w3.org/1999/xlink" version="1.1"
   viewBox="94 -151 2414 2169">
   <path fill="currentColor"
      d="M1300 1978q395 -303 644.5 -558t367.5 -480t118 -438q0 -126 -42.5 -235.5t-119 -192.5t-179 -129.5t-221.5 -46.5q-121 0 -234 46.5t-200.5 127t-133.5 183.5q-45 -103 -133 -183.5t-201 -127t-234 -46.5q-119 0 -221.5 46.5t-179 129.5t-119 192.5t-42.5 235.5
q0 213 118 438t367.5 480t644.5 558zM1396 1879l41 -45l-1184 -1090l7 90zM1050 1754h501l30 -60h-561zM755 1494h1088l45 -60h-1163zM1579 1720l41 -45l-1384 -1272l-41 45zM521 1234h1562l15 -60h-1607zM1757 1562l41 -45l-1482 -1369l-41 45zM335 974h1944v-60h-1959z
M1300 1883q-365 -283 -597 -524.5t-342.5 -453t-110.5 -403.5q0 -147 63.5 -265.5t172.5 -188.5t246 -70q128 0 237 53t193.5 151t137.5 232q53 -134 137.5 -232t194 -151t236.5 -53q137 0 246 70t172.5 188.5t63.5 265.5q0 192 -110.5 403.5t-342.5 453t-597 524.5z
M1932 1393l41 -45l-1482 -1367l-41 45zM295 193h932l-30 -60h-886zM222 719h2160v-60h-2160v60zM2094 1215l41 -45l-1344 -1241l-76 14zM211 454h2181v-60h-2181v60zM2233 1023l41 -45l-888 -821l-41 45zM2343 776l37 -49l-792 -721l-56 31zM1389 193h913v-60h-898z
M2386 496l16 -67l-544 -496l-77 14z" />
</svg>