<?xml version="1.0" standalone="no"?>
<!DOCTYPE svg PUBLIC "-//W3C//DTD SVG 1.1//EN" "http://www.w3.org/Graphics/SVG/1.1/DTD/svg11.dtd">
<svg xmlns="http://www.w3.org/2000/svg" xmlns:xlink="http://www.w3.org/1999/xlink" version="1.1"
   viewBox="94 -151 2414 2169">
   <path fill="currentColor"
      d="M426 1978h1749q68 0 116.5 -49t48.5 -116v-1750q0 -68 -48.5 -116.5t-116.5 -48.5h-1750q-67 0 -116 48.5t-49 116.5v1751q0 67 49 115.5t117 48.5zM898 1965l54 -58l-635 -586l-54 58zM1383 1962l54 -58l-1120 -1033l-54 58zM290 1634h2021v-80h-2021v80zM1872 1964
l54 -58l-1608 -1485l-54 58zM290 1304h2021v-80h-2021v80zM2270 1887l54 -58l-1996 -1840l-54 58zM426 1898q-35 0 -60.5 -25t-25.5 -59v-1751q0 -35 25.5 -60t59.5 -25h1750q35 0 60 25t25 60v1750q0 34 -25 59.5t-60 25.5h-1749zM290 974h2021v-80h-2021v80zM290 644h2021
v-80h-2021v80zM2283 1455l54 -58l-1612 -1486l-54 58zM290 314h2021v-80h-2021v80zM2283 1005l54 -58l-1124 -1036l-54 58zM2284 557l54 -58l-637 -588l-54 58z" />
</svg>