<?xml version="1.0" standalone="no"?>
<!DOCTYPE svg PUBLIC "-//W3C//DTD SVG 1.1//EN" "http://www.w3.org/Graphics/SVG/1.1/DTD/svg11.dtd">
<svg xmlns="http://www.w3.org/2000/svg" xmlns:xlink="http://www.w3.org/1999/xlink" version="1.1"
   viewBox="94 -151 2414 2169">
   <path fill="currentColor"
      d="M1300 1978q-119 0 -216 -30t-156.5 -78t-66.5 -100l-147 -1137l79 -10l147 1137q4 31 57 63.5t134 54.5t169 22t169 -22t134 -54.5t57 -63.5l147 -1137l79 10l-147 1137q-7 52 -66.5 100t-156 78t-216.5 30zM1203 1815q-30 0 -51 -21t-21 -51t21 -51t51 -21t51 21t21 51
t-21 51t-51 21zM1083 1605q-30 0 -51 -21t-21 -51t21 -51t51 -21t51 21t21 51t-21 51t-51 21zM1423 1815q-30 0 -51 -21t-21 -51t21 -51t51 -21t51 21t21 51t-21 51t-51 21zM1303 1615q-30 0 -51 -21t-21 -51t21 -51t51 -21t51 21t21 51t-21 51t-51 21zM1053 1357
q-30 0 -51 -21t-21 -51t21 -51t51 -21t51 21t21 51t-21 51t-51 21zM1513 1560q-30 0 -51 -21t-21 -51t21 -51t51 -21t51 21t21 51t-21 51t-51 21zM1515 1285q-93 0 -176.5 -29.5t-157.5 -67.5t-139.5 -67.5t-121.5 -29.5q-17 0 -36 2.5t-45 10.5l-16 -120q81 -50 192.5 -80
t256.5 -42l-28 73q-82 7 -164 27t-184 64l14 -12q16 -2 24 -2q55 0 121 29t140.5 67.5t155 67.5t164.5 29q94 0 163.5 -39t69.5 -92q0 -58 -89.5 -97.5t-250.5 -53.5l25 -67q185 13 289 70.5t104 147.5q0 58 -41.5 106t-112 76.5t-157.5 28.5zM1340 1073q-34 0 -68 -10.5
t-54.5 -26t-16.5 -29.5l82 -264l216 -11l-98 320q-7 21 -61 21zM1300 714q45 0 72 -13.5t52.5 -26.5t63.5 -13q35 0 56.5 12.5t57.5 12.5q15 0 40 -12t59 -39q24 -19 63 -24.5t100 -5.5q29 0 44 -10l-49 -122q-67 40 -209.5 66.5t-349.5 26.5t-349 -26.5t-210 -66.5l-49 122
q15 10 44 10q62 0 100.5 5.5t62.5 24.5q35 27 59.5 39t39.5 12q36 0 58 -12.5t56 -12.5q38 0 63.5 13t53 26.5t71.5 13.5zM1822 398q0 -18 -61.5 -41.5t-178.5 -41t-282 -17.5t-281.5 17.5t-178.5 41t-62 41.5q0 16 66.5 37t184 37t271.5 16t271.5 -16t184 -37t66.5 -37z
M1499 408q-49 0 -78.5 -8t-24.5 -24l132 -438q6 -19 25 -29.5t47 -10.5q49 0 91 32t30 72l-117 385q-2 8 -31.5 14.5t-73.5 6.5zM1300 220q291 0 453 52t162 126l70 211q-9 39 -43 57.5t-78 18.5q-58 0 -84.5 4.5t-41.5 15.5q-49 34 -75 47.5t-61 13.5q-43 0 -67.5 -12.5
t-46.5 -12.5q-20 0 -41.5 13t-55 26.5t-91.5 13.5t-91.5 -13.5t-54.5 -26.5t-42 -13q-22 0 -46 12.5t-68 12.5q-34 0 -60.5 -13.5t-75.5 -47.5q-15 -11 -41.5 -15.5t-84.5 -4.5q-44 0 -78 -18.5t-43 -57.5l70 -211q0 -74 162 -126t453 -52z" />
</svg>