<?xml version="1.0" standalone="no"?>
<!DOCTYPE svg PUBLIC "-//W3C//DTD SVG 1.1//EN" "http://www.w3.org/Graphics/SVG/1.1/DTD/svg11.dtd">
<svg xmlns="http://www.w3.org/2000/svg" xmlns:xlink="http://www.w3.org/1999/xlink" version="1.1"
   viewBox="94 -151 2414 2169">
   <path fill="currentColor"
      d="M904 1284q-144 0 -269.5 -54t-221 -149t-149 -221t-53.5 -270q0 -143 54 -268.5t149 -220.5t220.5 -149t269.5 -54t269.5 54t220.5 149t148.5 220.5t53.5 268.5q0 144 -54 269.5t-149 221t-220.5 149.5t-268.5 54zM1703 1827q-16 0 -26.5 -9.5t-10.5 -24.5q0 -33 36 -41
q38 -8 68 -32.5t49 -55.5q15 -25 39 -25q14 0 24.5 9.5t10.5 26.5q0 28 -34 63.5t-78.5 62t-77.5 26.5zM1655 1978q-114 0 -207.5 -56t-149.5 -150t-56 -208t56 -207.5t149.5 -149.5t207.5 -56t207.5 56t149.5 149.5t56 207.5t-56 208t-149.5 150t-207.5 56zM1655 1898
q92 0 167.5 -45t120.5 -121t45 -168t-45 -167.5t-120.5 -120.5t-167.5 -45q-91 0 -167 45t-121 120.5t-45 167.5t45 168t120.5 121t167.5 45zM1467 1488q-14 0 -26 -11t-12 -26q0 -22 30.5 -52.5t72 -53.5t73.5 -23q16 0 26.5 9.5t10.5 23.5q0 33 -36 42q-33 8 -58 25
t-45 43q-18 23 -36 23zM472 571q-19 0 -31 -13t-10 -32q17 -145 112.5 -253.5t234.5 -149.5q23 -7 38 5.5t15 30.5q0 32 -36 43q-112 34 -189.5 123.5t-92.5 206.5q-5 39 -41 39zM904 1204q126 0 237 -48t195.5 -132.5t132 -195.5t47.5 -238q0 -126 -47.5 -237t-132 -195.5
t-195.5 -132t-237 -47.5t-237 47.5t-195.5 132t-132.5 195.5t-48 237q0 127 47.5 238.5t132 196t195.5 132t238 47.5zM956 1070q-17 0 -28.5 -11t-11.5 -27q0 -39 40 -44q89 -11 160.5 -58.5t118.5 -121.5t62 -163q7 -39 41 -39q17 0 29 11.5t12 28.5q0 74 -37 149
t-99 137.5t-137 100t-150 37.5zM1744 1390q-15 0 -26 -10.5t-11 -25.5t11 -26t26 -11q14 0 24.5 11t10.5 26t-10.5 25.5t-24.5 10.5zM1095 233q-13 0 -32.5 -10t-58.5 -21q-34 -10 -34 -41q0 -41 38 -41q22 0 52 10t52.5 27t22.5 38q0 14 -10.5 26t-29.5 12zM2064 1153
q-89 0 -163.5 -44t-118.5 -118.5t-44 -163.5q0 -90 44 -163.5t118 -117.5t164 -44q89 0 163 44t118 118t44 163q0 90 -44 164t-117.5 118t-163.5 44zM2064 1073q68 0 123.5 -33t88.5 -89t33 -124q0 -67 -33.5 -122.5t-89 -89t-122.5 -33.5q-68 0 -124 33t-89 88.5t-33 123.5
q0 67 33.5 123t89.5 89.5t123 33.5zM1974 813q-13 0 -23.5 -10.5t-10.5 -24.5q0 -23 26.5 -49t49.5 -26q13 0 23.5 8.5t10.5 23.5q0 17 -23 31q-16 9 -25 25q-13 22 -28 22z" />
</svg>