<?xml version="1.0" standalone="no"?>
<!DOCTYPE svg PUBLIC "-//W3C//DTD SVG 1.1//EN" "http://www.w3.org/Graphics/SVG/1.1/DTD/svg11.dtd">
<svg xmlns="http://www.w3.org/2000/svg" xmlns:xlink="http://www.w3.org/1999/xlink" version="1.1"
   viewBox="94 -151 2414 2169">
   <path fill="currentColor"
      d="M1340 1978q-142 0 -269 -28.5t-227 -79t-160 -117.5t-69 -144l-18 -163l83 18l15 135q7 60 61 114t143.5 95.5t203 65.5t237.5 24q125 0 238 -24t202.5 -65.5t143.5 -95.5t61 -114l121 -1095l81 10l-122 1095q-9 77 -69 144t-160 117.5t-227 79t-269 28.5zM574 1253
l-81 -740l81 -10l82 750h-82zM722 1426q99 0 229 -43.5t266 -117t258 -165.5t204 -188q17 -20 17 -47q0 -29 -18.5 -53.5t-43.5 -24.5q-17 0 -31 13q-169 152 -340.5 262t-330 168.5t-289.5 58.5q-159 0 -250 -67q31 100 114.5 152t214.5 52zM722 1506q-102 0 -192 -34.5
t-150.5 -107t-75.5 -184.5l-16 -120q-16 -117 46 -227t194 -230l14 97q-79 81 -128.5 166t-49.5 156q0 73 52 117q14 -53 44 -113.5t100 -157.5l37 88q-99 137 -109 229q63 24 155 24q120 0 270 -55.5t314 -160.5t324 -253q37 -34 82 -34q56 0 99.5 49t43.5 111q0 54 -37 98
q-87 104 -215 201t-272 174t-283 122t-247 45zM1340 670q-283 0 -489.5 -31t-322 -90.5t-127.5 -144.5l-35 -250q-7 -54 62 -100.5t200.5 -81.5t313 -54.5t398.5 -19.5t398.5 19.5t313 54.5t201 81.5t61.5 100.5l-35 250q-12 85 -127.5 144.5t-321.5 90.5t-490 31zM1340 590
q248 0 439 -26t301.5 -70.5t118.5 -101.5l30 -214q7 -48 -60 -86t-190.5 -65t-287.5 -41.5t-351 -14.5t-350.5 14.5t-287 41.5t-190 65.5t-60.5 86.5l29 213q8 57 119 101.5t301.5 70.5t438.5 26zM1340 254q-143 0 -280 -5t-247.5 -14.5t-176 -24t-65.5 -33.5
q0 -27 68.5 -48.5t181 -36.5t248.5 -22.5t271 -7.5t271 7.5t248.5 22.5t181 36.5t68.5 48.5q0 17 -67.5 31t-179.5 24.5t-248 16t-274 5.5z" />
</svg>