<?xml version="1.0" standalone="no"?>
<!DOCTYPE svg PUBLIC "-//W3C//DTD SVG 1.1//EN" "http://www.w3.org/Graphics/SVG/1.1/DTD/svg11.dtd">
<svg xmlns="http://www.w3.org/2000/svg" xmlns:xlink="http://www.w3.org/1999/xlink" version="1.1"
   viewBox="94 -151 2414 2169">
   <path fill="currentColor"
      d="M717 1454q-123 0 -225.5 -50t-164 -138t-61.5 -203q0 -159 127.5 -296t366 -243t572.5 -170l258 -258q74 -74 151.5 -117t176 -62t233.5 -19h183v1556h-1617zM477 1380v-666h70v666h-70zM385 1858q-34 0 -52 -25t-3 -56l184 -384l1820 -8v431h-549v-71h-434l-83 99
q-12 14 -27 14h-856zM735 1140q-37 0 -63.5 -31t-26.5 -74t26.5 -74t63.5 -31q38 0 64 31t26 74t-26 74t-64 31zM418 1778h801l137 -162h908v-135l-1707 8zM1587 1978q-68 0 -124 -33t-89 -89t-33 -123q0 -9 0.5 -18t1.5 -17h82q-4 15 -4 35q0 68 48.5 116.5t117.5 48.5
q68 0 116.5 -48.5t48.5 -116.5q0 -20 -4 -35h82q1 8 1.5 17t0.5 18q0 67 -33 123t-88.5 89t-123.5 33zM1587 1800q-19 0 -32.5 -13.5t-13.5 -32.5t13.5 -32.5t32.5 -13.5t32.5 13.5t13.5 32.5t-13.5 32.5t-32.5 13.5zM724 1374h1530v-1396h-103q-119 0 -202 13.5
t-150.5 48.5t-140.5 99h370q26 0 43.5 14t17.5 37v198q0 21 -16 33.5t-45 12.5h-689q-303 57 -526 153t-345 218t-122 258q0 83 46 154t130.5 114t201.5 43zM1978 1051q-67 0 -101 -26.5t-34 -71.5q0 -51 39 -108.5t104 -112.5t145.5 -98t162.5 -65v482h-316zM1435 364h326
q17 0 22.5 -5t9.5 -21l22 -105q5 -24 -18 -24h-207zM1886 364h114q19 0 19 -17v-121q0 -17 -18 -17h-85q-25 0 -29 19l-23 113q-4 23 22 23z" />
</svg>