<?xml version="1.0" standalone="no"?>
<!DOCTYPE svg PUBLIC "-//W3C//DTD SVG 1.1//EN" "http://www.w3.org/Graphics/SVG/1.1/DTD/svg11.dtd">
<svg xmlns="http://www.w3.org/2000/svg" xmlns:xlink="http://www.w3.org/1999/xlink" version="1.1"
   viewBox="94 -151 2414 2169">
   <path fill="currentColor"
      d="M1738 1978q-54 0 -103 -16t-90 -53l-1100 -977q-82 -74 -124.5 -184.5t-42.5 -224.5q0 -181 87.5 -322t242 -222t355.5 -81q108 0 200 20.5t128 67.5l982 1271q22 28 35.5 74.5t13.5 103.5q0 105 -43 202.5t-121.5 174.5t-185.5 121.5t-234 44.5zM1634 1942l-589 -563
l167 -82q41 120 105 153q29 15 51 32.5t32 50.5q23 77 43.5 110t55.5 43q32 9 58.5 25t42.5 47q78 146 172 146zM754 715q26 11 49 -1t23 -36q0 -32 -46 -52l-52 -22q-34 -14 -57 -4t-23 38q0 33 36 48zM2052 1848q-55 0 -93.5 -27.5t-70.5 -90.5q-13 -26 -33.5 -39
t-46.5 -21q-45 -14 -74 -58.5t-61 -129.5q-8 -23 -23.5 -37.5t-35.5 -26.5q-45 -26 -77.5 -79t-61.5 -135l70 -24q23 67 52 110.5t63 63.5q26 14 47 30.5t30 46.5q23 75 45 111t56 48q32 11 57.5 29t39.5 51q31 71 62 96t67 25zM1101 888q-4 -18 -5.5 -37t-1.5 -29
q0 -36 7 -54.5t34 -18.5q26 0 43 35t19 91zM975 751q26 0 43.5 -34.5t17.5 -85.5q0 -28 -12.5 -45t-32.5 -17q-19 0 -32.5 15.5t-15.5 40.5q-1 13 -3.5 26.5t-5.5 26.5q-8 34 2.5 53.5t38.5 19.5zM848 539q25 -20 10 -69l-16 -54q-10 -35 -32.5 -45.5t-44.5 7.5
q-12 10 -15.5 25.5t1.5 32.5l23 72q8 27 32 36.5t42 -5.5zM1059 1391l-79 -80q225 -26 391.5 -106.5t262 -214t107.5 -317.5l72 77q-41 184 -127.5 305t-238 199.5t-388.5 136.5zM1738 1900q104 0 195.5 -36.5t161 -101t108.5 -148.5t39 -179q0 -89 -32 -129l-862 -1115
q1 22 1.5 46.5t0.5 50.5q0 45 -3.5 104t-7 110t-3.5 72t12.5 79t31 131.5t35.5 139.5q50 20 106.5 48t121.5 64l-38 70q-125 -69 -214 -106.5t-159.5 -52t-140.5 -14.5q-48 0 -113 12t-140 25t-155 18q-13 1 -26.5 1.5t-27.5 0.5l969 859q57 51 140 51zM644 910
q85 0 162 -14t148.5 -28.5t136.5 -14.5q59 0 115.5 8.5t118.5 28.5l-60 -250q-11 -48 -3 -144t8 -208q0 -73 -2 -119t-9.5 -75.5t-23.5 -50.5q-16 -22 -57 -36t-97 -21.5t-118 -7.5q-178 0 -314.5 69.5t-213.5 192.5t-77 283q0 105 36.5 198t103.5 151q22 19 57 28.5t89 9.5
zM567 945q0 -71 -13 -151.5t-26 -154t-13 -123.5q0 -79 44.5 -127t138.5 -76q32 -98 114 -149t195 -51q64 0 143.5 14t149.5 37l14 119v401l52 245l-412 -18zM981 469q30 0 51 -37q10 -17 16 -34t11 -35q8 -29 -3.5 -50t-36.5 -21q-35 0 -49 45q-4 12 -9 24.5t-12 25.5
q-16 29 -5.5 55.5t37.5 26.5zM1181 641q28 0 38.5 -19.5t2.5 -53.5q-3 -13 -5.5 -26.5t-3.5 -26.5q-1 -25 -14.5 -40.5t-33.5 -15.5q-19 0 -32 17t-13 45q0 51 17.5 85.5t43.5 34.5z" />
</svg>