<?xml version="1.0" standalone="no"?>
<!DOCTYPE svg PUBLIC "-//W3C//DTD SVG 1.1//EN" "http://www.w3.org/Graphics/SVG/1.1/DTD/svg11.dtd">
<svg xmlns="http://www.w3.org/2000/svg" xmlns:xlink="http://www.w3.org/1999/xlink" version="1.1"
   viewBox="94 -151 2414 2169">
   <path fill="currentColor"
      d="M844 1778q-88 0 -201 -60.5t-297 -200.5q-90 -69 -143.5 -113.5t-80.5 -76.5t-36 -62.5t-9 -70.5q0 -57 34 -90.5t136 -70.5l838 -309l6 169l445 308l667 -338l89 42q29 13 26.5 32.5t-34.5 34.5l-1180 551q-105 49 -161.5 63t-98.5 14q-56 0 -121.5 -27.5t-154.5 -89.5
q-94 -66 -181.5 -135t-171.5 -153q-14 -14 -28 -29t-26 -31q-11 14 -16.5 28t-5.5 32q0 28 9 46t36 44q55 53 146.5 128t194.5 145q75 50 125.5 81.5t94.5 46t99 14.5q35 0 73.5 -6.5t92 -25t133.5 -53.5q305 -134 609 -275t608 -290q47 -23 67 -47.5t20 -60.5
q0 -26 -16 -43t-35 -25l-192 -83v-78l224 102q42 19 68.5 51t26.5 83q0 49 -28.5 89t-99.5 75q-246 120 -473 229.5t-414.5 196.5t-317.5 141q-142 59 -219 78.5t-127 19.5zM817 1509v-160h56v160h-56zM874 1495l351 -138q23 -9 38 -31.5t15 -45.5v-50q0 -44 -34 -69
l-320 -235q-16 -12 -38.5 -14.5t-41.5 3.5l-340 109q-70 23 -70 75v60q0 42 26 63l349 268q12 10 31.5 10.5t33.5 -5.5zM839 1384l-417 -305l36 -43l389 285l426 -152l19 51zM1560 1179v-579l80 4v575h-80zM1601 1233q-41 0 -109.5 -28.5t-144.5 -72.5t-144.5 -91
t-111.5 -85.5t-43 -54.5v-535q0 -13 6 -25.5t26 -19.5q228 -85 362.5 -133.5t198.5 -69t82 -20.5q30 0 92.5 18t137.5 46t143.5 60.5t113 61.5t44.5 48q0 192 -2.5 311.5t-9.5 185.5t-22 95t-39 40zM1610 1143l537 -252q8 -4 13 -30.5t8 -86t4.5 -162t1.5 -257.5
q0 -7 -39 -27.5t-98.5 -46t-122.5 -49.5t-112.5 -40t-67.5 -16q-10 0 -46 11t-106.5 36t-181.5 65.5t-272 100.5v489q0 18 36 50t94 69t124 70t126.5 54.5t101.5 21.5zM1595 626q-117 -65 -205 -109.5t-157 -74.5t-130 -51l29 -73q55 17 118 44.5t147.5 69.5t202.5 105
q159 -67 304 -117t303 -90l21 73q-162 44 -312 96.5t-321 126.5z" />
</svg>