<?xml version="1.0" standalone="no"?>
<!DOCTYPE svg PUBLIC "-//W3C//DTD SVG 1.1//EN" "http://www.w3.org/Graphics/SVG/1.1/DTD/svg11.dtd">
<svg xmlns="http://www.w3.org/2000/svg" xmlns:xlink="http://www.w3.org/1999/xlink" version="1.1"
   viewBox="94 -151 2414 2169">
   <path fill="currentColor"
      d="M319 1978q-65 0 -112 -47.5t-47 -113.5v-1411q0 -66 47 -113.5t112 -47.5h781l33 80h-814q-33 0 -56 24t-23 57v352h1014v80h-1014v833h854v80h-854v66q0 34 23 57.5t56 23.5h1962q33 0 56 -23.5t23 -57.5v-66h-499v-80h499v-833h-497v-80h497v-352q0 -33 -23 -57
t-56 -24h-178l92 -80h86q65 0 112 47.5t47 113.5v1411q0 66 -47 113.5t-112 47.5h-1962zM1483 1923q-126 0 -237 -47.5t-194.5 -131.5t-131 -195t-47.5 -237q0 -133 52 -248t143 -200t209 -127l25 122q-90 36 -160 103.5t-109.5 157t-39.5 192.5q0 134 66.5 245t178 177
t245.5 66q135 0 246.5 -66t177.5 -177t66 -245q0 -128 -60 -234t-161 -174t-226 -78l59 -54l216 61q62 33 115.5 82.5t93 112.5t61.5 135t22 149q0 126 -47 237t-131 195t-194.5 131.5t-237.5 47.5zM1483 1653q-93 0 -170 -46t-123 -123.5t-46 -171.5q0 -97 50 -177
t129 -123l36 80l60 -107q12 -5 29.5 -9.5t33.5 -4.5q97 0 174 43.5t122 120.5t45 177q0 94 -45.5 171.5t-122.5 123.5t-172 46zM395 290v-107q0 -80 80 -80h297q80 0 80 80v107h-457zM1323 1266l-78 -479h-692l593 -296l-200 -587l485 377l272 -383l14 414l644 -166
l-543 483l166 310l-404 -123zM1367 1030l174 -308l281 84l-104 -197l329 -290l-406 95l-10 -276l-182 255l-333 -248l131 386l-354 176h420zM1927 655q-24 0 -41 -17t-17 -40v-60l130 -117h150q24 0 41 17t17 40v120q0 23 -17 40t-41 17h-222zM1671 325v-80h436l-121 80
h-315z" />
</svg>