<?xml version="1.0" standalone="no"?>
<!DOCTYPE svg PUBLIC "-//W3C//DTD SVG 1.1//EN" "http://www.w3.org/Graphics/SVG/1.1/DTD/svg11.dtd">
<svg xmlns="http://www.w3.org/2000/svg" xmlns:xlink="http://www.w3.org/1999/xlink" version="1.1"
   viewBox="94 -151 2414 2169">
   <path fill="currentColor"
      d="M2040 1858q-34 20 -73 20q-36 0 -68.5 -21t-55.5 -59l-128 -214q-61 -101 -100.5 -236.5t-52.5 -269.5l-447 -767q-53 0 -88.5 -33t-35.5 -85q0 -72 60 -106l125 -71q31 -18 65 -18q49 0 83.5 37t34.5 87q0 32 -16 61l447 763q119 83 209.5 181t154.5 205l129 215
q33 55 17 112.5t-71 89.5zM709 995l-295 -108l159 -140l375 57zM1300 1464q-613 0 -911.5 -119t-298.5 -357q0 -80 30 -184t88 -225q92 51 256 88.5t378.5 57.5t457.5 20h104v78h-104q-221 0 -420 -16.5t-360.5 -47.5t-272.5 -74q-38 91 -57.5 167t-19.5 136
q0 195 278.5 296.5t851.5 101.5q101 0 195 -3.5t182 -10.5l6 78q-86 7 -182 10.5t-201 3.5zM1300 1089q-310 0 -526.5 -34.5t-352.5 -109t-205 -193.5l28 -106q64 132 190 211.5t337 115.5t529 36q72 0 143 -2t140 -6l5 80q-66 4 -138.5 6t-149.5 2zM922 1046l229 -247h314
l109 216zM2003 1794l189 -109q29 -17 37 -44.5t-9 -55.5l-129 -215q-65 -109 -154.5 -202t-202.5 -171l-475 -811q-8 -13 6 -25q13 -11 16.5 -19.5t3.5 -19.5q0 -20 -13.5 -35t-30.5 -15q-15 0 -28 8l-125 71q-23 13 -23 42q0 25 23 38t51 3q13 -4 21 9l474 812
q11 137 49.5 267t94.5 224l128 214q27 44 62 44q18 0 35 -10zM2126 1375l-24 -76q170 -52 249 -128.5t79 -182.5q0 -60 -18 -136t-54 -165q-138 53 -296.5 82.5t-385.5 49.5l-51 -82q260 -17 463.5 -58t310.5 -99q55 121 83 224.5t28 183.5q0 269 -384 387zM1983 962
l-152 -177l226 -53l197 116zM1866 1055l-53 -79q209 -32 336.5 -108t194.5 -212l66 46q-72 143 -204 226t-340 127z" />
</svg>