<?xml version="1.0" standalone="no"?>
<!DOCTYPE svg PUBLIC "-//W3C//DTD SVG 1.1//EN" "http://www.w3.org/Graphics/SVG/1.1/DTD/svg11.dtd">
<svg xmlns="http://www.w3.org/2000/svg" xmlns:xlink="http://www.w3.org/1999/xlink" version="1.1"
   viewBox="94 -151 2414 2169">
   <path fill="currentColor"
      d="M1312 1679v-167l-141 63l17 -158l-152 54l28 -157l-156 42l35 -153l-148 30l50 -153l-162 22l60 -146l-157 6l70 -140l-158 3l79 -139l-149 -12l82 -132l-153 -24l87 -125l-142 -37l99 -126l-170 -56l535 -276q124 214 279 405t337 351t386 283v78h-80v-33
q-293 -185 -530.5 -433t-420.5 -546l-325 168l107 29l-91 116l137 35l-81 114l146 23l-76 122l144 11l-73 127l149 -3l-68 137l147 -7l-56 135l153 -20l-47 143l134 -28l-33 145l149 -41l-27 147l142 -51l-14 146l126 -57v145l103 -65l48 66zM1859 1703q-52 0 -85.5 -37
t-33.5 -84q0 -35 20 -68l127 -202q37 -58 106 -58q49 0 84 35.5t35 85.5q0 35 -20 68l-127 201q-38 59 -106 59zM1856 1630q26 0 40 -22l133 -212q8 -13 8 -25q0 -22 -12.5 -33t-29.5 -11q-25 0 -40 23l-132 211q-4 7 -6.5 13t-2.5 12q0 18 12 31t30 13zM1872 1978
q-68 0 -135 -49l-168 -124q-53 -39 -76 -88t-23 -123v-175q0 -58 14.5 -105t45.5 -96l119 -185q32 -50 78 -75t98 -25q32 0 64 10t61 30l351 232q68 46 68 127q0 44 -24 82l-299 461q-30 46 -77.5 74.5t-96.5 28.5zM1872 1898q29 0 58 -18.5t48 -48.5l299 -461
q12 -17 12 -38q0 -38 -32 -59l-352 -232q-44 -30 -85 -30q-60 0 -103 66l-119 185q-27 41 -37.5 75t-10.5 82v175q0 55 14.5 86.5t52.5 60.5l166 124q44 33 89 33zM687 241q22 0 37.5 -15.5t15.5 -39.5q0 -23 -15.5 -38t-38.5 -15q-22 0 -38 15t-16 38t15.5 39t39.5 16z" />
</svg>