<?xml version="1.0" standalone="no"?>
<!DOCTYPE svg PUBLIC "-//W3C//DTD SVG 1.1//EN" "http://www.w3.org/Graphics/SVG/1.1/DTD/svg11.dtd">
<svg xmlns="http://www.w3.org/2000/svg" xmlns:xlink="http://www.w3.org/1999/xlink" version="1.1"
   viewBox="94 -151 2414 2169">
   <path fill="currentColor"
      d="M1255 410h100v320l-100 25v-345zM833 825v-330h100v319zM1971 1095q0 43 -27.5 75.5t-71.5 40.5l-607 107q-55 10 -99.5 4t-92.5 -30l-318 -158q-74 -37 -74 -120v-85q0 -44 28 -76.5t71 -39.5l639 -112q41 -8 69.5 -4t65.5 23l355 176q62 31 62 101v98zM1891 1095v-98
q0 -20 -20 -30l-353 -175q-26 -13 -41.5 -15t-45.5 3l-638 112q-32 5 -32 37v85q0 33 30 48l318 158q37 18 68.5 22t74.5 -3l607 -107q32 -5 32 -37zM1216 1282v696h-100v-734zM1916 940l14 79l-667 117q-55 10 -99.5 3.5t-91.5 -29.5l-354 -179l35 -73l354 180
q37 19 68.5 22.5t74.5 -3.5zM1885 1158v699h-100v-667zM1506 1259v426h-100v-426h100zM860 1105v689h-100v-689h100zM629 436v-342q0 -32 18.5 -56t52.5 -29l688 -109q45 -8 76.5 18t31.5 70v361q0 37 -18.5 60t-54.5 29l-552 95q-35 6 -68 7t-68 1q-56 0 -81 -26t-25 -79z
M804 461l-1 34q-20 -6 -27.5 -20t-7.5 -26v-359q0 -14 5 -26.5t15 -19.5l17 31l-75 10q-21 3 -21 24v326q0 11 8.5 18.5t20.5 7.5h66zM847 424q0 12 9.5 20t21.5 6l518 -89q20 -4 20 -24v-329q0 -12 -9.5 -20t-21.5 -6l-517 80q-21 3 -21 24v338z" />
</svg>