<?xml version="1.0" standalone="no"?>
<!DOCTYPE svg PUBLIC "-//W3C//DTD SVG 1.1//EN" "http://www.w3.org/Graphics/SVG/1.1/DTD/svg11.dtd">
<svg xmlns="http://www.w3.org/2000/svg" xmlns:xlink="http://www.w3.org/1999/xlink" version="1.1"
   viewBox="94 -151 2414 2169">
   <path fill="currentColor"
      d="M260 1978v-2080h2080v2080h-2080zM282 1640v-53h2036v53h-2036zM598 1955v-2036h53v2036h-53zM282 1302v-53h2036v53h-2036zM936 1956v-2036h53v2036h-53zM2274 1954l-1114 -1517l-441 426l-453 -864l62 -70l413 790l430 -413l1160 1579zM313 1926h1975v-1975h-1975v1975
zM1274 1956v-2036h53v2036h-53zM282 964v-52h2036v52h-2036zM282 627v-53h2036v53h-2036zM1612 1956v-2036h53v2036h-53zM1950 1956v-2036h53v2036h-53zM283 289v-53h2036v53h-2036z" />
</svg>