<?xml version="1.0" standalone="no"?>
<!DOCTYPE svg PUBLIC "-//W3C//DTD SVG 1.1//EN" "http://www.w3.org/Graphics/SVG/1.1/DTD/svg11.dtd">
<svg xmlns="http://www.w3.org/2000/svg" xmlns:xlink="http://www.w3.org/1999/xlink" version="1.1"
   viewBox="94 -151 2414 2169">
   <path fill="currentColor"
      d="M951 1669q-43 0 -77 -24t-47 -64l-249 -753q-6 -18 -6 -36q0 -50 37 -90t92 -40q42 0 75.5 23.5t46.5 63.5l177 520l798 -1012q19 -23 45.5 -36t56.5 -13q56 0 93.5 37t37.5 93q0 47 -28 81l-950 1200q-41 50 -102 50zM426 1978q-68 0 -117 -48.5t-49 -115.5v-1751
q0 -68 49 -116.5t116 -48.5h1750q68 0 116.5 48.5t48.5 116.5v1750q0 67 -48.5 116t-116.5 49h-1749zM426 1898h1749q35 0 60 -25.5t25 -59.5v-1750q0 -35 -25 -60t-60 -25h-1750q-34 0 -59.5 25t-25.5 60v1751q0 34 25.5 59t60.5 25z" />
</svg>