<?xml version="1.0" standalone="no"?>
<!DOCTYPE svg PUBLIC "-//W3C//DTD SVG 1.1//EN" "http://www.w3.org/Graphics/SVG/1.1/DTD/svg11.dtd">
<svg xmlns="http://www.w3.org/2000/svg" xmlns:xlink="http://www.w3.org/1999/xlink" version="1.1"
   viewBox="94 -151 2414 2169">
   <path fill="currentColor"
      d="M426 1978q-68 0 -117 -48.5t-49 -115.5v-1751q0 -68 49 -116.5t116 -48.5h1750q68 0 116.5 48.5t48.5 116.5v1750q0 67 -48.5 116t-116.5 49h-1749zM951 1679q68 0 110 -54l950 -1200q30 -39 30 -87q0 -59 -40.5 -99.5t-100.5 -40.5q-32 0 -61 13.5t-49 39.5l-786 998
l-171 -504q-14 -43 -50 -68t-82 -25q-56 0 -97.5 42t-41.5 98q0 20 6 40l249 753q14 42 51 68t83 26z" />
</svg>