<?xml version="1.0" standalone="no"?>
<!DOCTYPE svg PUBLIC "-//W3C//DTD SVG 1.1//EN" "http://www.w3.org/Graphics/SVG/1.1/DTD/svg11.dtd">
<svg xmlns="http://www.w3.org/2000/svg" xmlns:xlink="http://www.w3.org/1999/xlink" version="1.1"
   viewBox="94 -151 2414 2169">
   <path fill="currentColor"
      d="M402 1456q4 -114 48.5 -191.5t146 -132.5t274.5 -99q125 -32 170.5 -57.5t45.5 -56.5q0 -19 -21.5 -39t-71.5 -35.5t-135 -21.5q-116 -8 -226 -38.5t-197.5 -91t-139 -159.5t-51.5 -245q0 -114 47 -212t163 -179q2 145 61 229t202.5 120t398.5 36q387 0 586.5 105
t199.5 318q0 126 -53 215.5t-143.5 150.5t-204 101t-236.5 65.5t-240 45.5q-209 35 -371 72.5t-253 99.5zM416 1832l27 -36l-12 -41l-52 6l-6 41zM389 1690l53 -9l10 -40l-45 -27l-28 31zM521 1728l30 -34l-39 -34l-38 15l5 50zM551 1978v-80h1659q65 -59 65 -155t-65 -155
h-1659v-80h1689q115 91 115 235t-115 235h-1689zM1831 1933q53 -56 72 -98.5t19 -91.5q0 -50 -19 -92t-72 -98h416q64 79 64 190t-64 190h-416zM474 1356q42 -24 126 -48.5t191.5 -48t220.5 -42.5q119 -20 237.5 -44t224 -59.5t187.5 -88.5t129 -131t47 -188
q0 -356 -720 -356q-114 0 -231 -6.5t-217.5 -34.5t-167 -92t-81.5 -178h-28q-40 41 -60.5 107t-20.5 143q0 132 48 217.5t127.5 135.5t176.5 74.5t195 34.5q257 25 394 82t137 163q0 95 -114 162.5t-380 133.5l-15 -49q228 -56 335.5 -119.5t107.5 -127.5q0 -54 -62.5 -90
t-171.5 -57l3 -18q34 18 47.5 40t13.5 48q0 46 -34.5 79t-96 57.5t-143.5 46.5q-139 37 -217 71.5t-119 77t-69 105.5zM1524 1131l-17 -29q74 -41 118 -107t44 -124q0 -115 -147.5 -188t-453.5 -112q-262 -34 -413 -98.5t-214 -176t-63 -285.5h66q0 155 55 252.5t193 153.5
t384 87q336 42 497.5 131t161.5 236q0 73 -57 140t-154 120zM551 1978q-28 0 -39 -6.5t-57 -21.5q-22 -8 -44 -11t-45 -7q-40 -6 -40 -51q0 -8 -3.5 -22.5t-18.5 -34.5q-11 -15 -18 -31.5t-7 -46.5q0 -17 9.5 -32.5t9.5 -28.5q0 -8 -2 -18.5t-2 -25.5q0 -31 34 -50
q20 -11 32 -21.5t22 -25.5q8 -11 25 -16.5t34 -5.5q9 0 16.5 1t22.5 1q25 0 30.5 -8t40.5 -8q48 0 88.5 13t40.5 46q0 7 -1.5 13t-1.5 11q0 25 43 47q17 8 31 30t14 49q0 10 -3 21t-13 24q-13 17 -29.5 25t-16.5 33q0 28 -3.5 43.5t-17.5 33.5q-25 32 -47 56.5t-84 24.5z
" />
</svg>