<?xml version="1.0" standalone="no"?>
<!DOCTYPE svg PUBLIC "-//W3C//DTD SVG 1.1//EN" "http://www.w3.org/Graphics/SVG/1.1/DTD/svg11.dtd">
<svg xmlns="http://www.w3.org/2000/svg" xmlns:xlink="http://www.w3.org/1999/xlink" version="1.1"
   viewBox="94 -151 2414 2169">
   <path fill="currentColor"
      d="M1301 1978q-214 0 -402.5 -81.5t-332 -225t-225 -332t-81.5 -401.5t81.5 -401.5t225 -332t332 -225t402.5 -81.5q213 0 401 81.5t331.5 225t225 332t81.5 401.5t-81.5 401.5t-225 332t-331.5 225t-401 81.5zM554 900q-17 -1 -27.5 -14t-8.5 -31q24 -179 119.5 -328
t243.5 -247t327 -123q20 -3 33.5 8t13.5 29q0 37 -35 42q-161 21 -294.5 109t-220 222.5t-107.5 296.5q-2 17 -14 27t-30 9zM1301 1898q197 0 370.5 -75.5t305.5 -208t207.5 -306t75.5 -370.5t-75.5 -370.5t-207.5 -306t-305.5 -208t-370.5 -75.5t-371 75.5t-306.5 208
t-208 306t-75.5 370.5t75.5 370.5t208 306t306.5 208t371 75.5z" />
</svg>