<?xml version="1.0" standalone="no"?>
<!DOCTYPE svg PUBLIC "-//W3C//DTD SVG 1.1//EN" "http://www.w3.org/Graphics/SVG/1.1/DTD/svg11.dtd">
<svg xmlns="http://www.w3.org/2000/svg" xmlns:xlink="http://www.w3.org/1999/xlink" version="1.1"
   viewBox="94 -151 2414 2169">
   <path fill="currentColor"
      d="M914 1385q-120 0 -211 -51t-142 -142t-51 -211v-677q0 -114 49.5 -206t134.5 -146t192 -54h515q96 0 160 39t101 95.5t53 112.5t16 91q0 34 -31.5 53t-90.5 26.5t-142 7.5q-86 0 -145 -8t-89 -26.5t-30 -51.5v-8t1 -8h-196q-63 0 -63 56v722q0 36 37 36h272v80h-272
q-52 0 -84.5 -32t-32.5 -84v-722q0 -71 36.5 -103.5t108.5 -32.5h291q-7 24 -11.5 46t-5.5 45q45 10 91 11.5t92 1.5t92 -1.5t93 -11.5q2 -21 -8.5 -62t-38 -85.5t-77 -75.5t-127.5 -31h-506q-86 0 -155 43t-109.5 117t-40.5 166v677q0 147 88.5 235.5t235.5 88.5h348v80
h-348zM1015 1958q-72 0 -122 -50.5t-50 -121.5t50 -121.5t122 -50.5q71 0 121.5 50.5t50.5 121.5t-50.5 121.5t-121.5 50.5zM1015 1884q41 0 69.5 -28.5t28.5 -69.5t-28.5 -69.5t-69.5 -28.5t-69.5 28.5t-28.5 69.5t28.5 69.5t69.5 28.5zM1120 1829v-86h265q19 0 25 21.5
t0 43t-25 21.5h-265zM1476 1978q-83 0 -139.5 -29t-56.5 -75v-162q0 -53 19 -82.5t59 -44.5l11 -4l22 76q-31 9 -31 28v166q0 17 24 32t92 15t92 -15t24 -32v-166q0 -19 -31 -28l22 -76l11 4q41 15 59.5 44.5t18.5 82.5v162q0 46 -56.5 75t-139.5 29zM1563 1616l-195 -60
v-41l195 60v41zM1477 1704q-51 0 -88.5 -15.5t-37.5 -46.5v-233h73v207q0 21 53 21q26 0 39 -4t13 -17v-204h73v230q0 34 -36 48t-89 14zM1616 1829v-86h232q19 0 25.5 21.5t0 43t-25.5 21.5h-232zM1563 1516l-195 -60v-41l195 60v41zM1918 1958q-71 0 -121.5 -50.5
t-50.5 -121.5t50.5 -121.5t121.5 -50.5q72 0 122 50.5t50 121.5t-50 121.5t-122 50.5zM1918 1884q41 0 69.5 -28.5t28.5 -69.5t-28.5 -69.5t-69.5 -28.5q-40 0 -69 28.5t-29 69.5t29 69.5t69 28.5zM1477 1451q-72 0 -132 -10.5t-95.5 -33t-35.5 -58.5v-338l80 10v326
q36 13 83 18.5t100 5.5t100 -5.5t83 -18.5v-326l80 -10v338q0 36 -35.5 58.5t-95 33t-132.5 10.5zM1477 1117q-74 0 -133.5 -11.5t-94.5 -35t-35 -59.5q0 -43 47.5 -67t120.5 -33l8 97l87 26l86 -27l8 -96q74 8 121.5 32.5t47.5 67.5q0 36 -35 59.5t-94.5 35t-133.5 11.5z
M1563 1003l-195 -60v-42l195 60v42zM1477 1081q-51 0 -88.5 -15.5t-37.5 -46.5v-269h73v243q0 21 53 21q26 0 39 -4t13 -17v-243h73v269q0 34 -36 48t-89 14zM1563 903l-195 -60v-42l195 60v42zM1477 786q-46 0 -77 -7t-47 -12q-10 -11 -28.5 -52t-34 -88.5t-18.5 -77.5h83
q0 18 7.5 49.5t19 62.5t23.5 51q18 5 36.5 6t35.5 1t35.5 -1t36.5 -6q12 -20 23.5 -51.5t19 -62.5t7.5 -49h83q-2 22 -12 55.5t-23 67.5t-25.5 60.5t-20.5 34.5q-16 5 -47 12t-77 7zM1477 606q-87 0 -146 -11.5t-59 -45.5q0 -36 60.5 -52t144.5 -16t144.5 16t60.5 52
q0 34 -59 45.5t-146 11.5z" />
</svg>