<?xml version="1.0" standalone="no"?>
<!DOCTYPE svg PUBLIC "-//W3C//DTD SVG 1.1//EN" "http://www.w3.org/Graphics/SVG/1.1/DTD/svg11.dtd">
<svg xmlns="http://www.w3.org/2000/svg" xmlns:xlink="http://www.w3.org/1999/xlink" version="1.1"
   viewBox="94 -151 2414 2169">
   <path fill="currentColor"
      d="M1404 1978q-79 0 -156 -35.5t-151 -106.5l-712 -688q-25 -23 -37.5 -54.5t-12.5 -63.5q0 -69 49 -118.5t118 -49.5q70 0 119 49l-56 56q-27 -25 -63 -25t-61.5 26t-25.5 62q0 17 6 32t19 28l712 688q123 120 255 120q72 0 150 -37t150.5 -99.5t130.5 -140t92.5 -159
t34.5 -156.5q0 -102 -55 -227l-28 -64q-73 -168 -108.5 -288t-35.5 -202q0 -32 6 -59.5t6 -44.5q0 -19 -16 -34t-36 -15q-52 0 -88 47.5t-36 106.5q0 33 6 67t13 68q6 27 10.5 53t4.5 48q0 34 -16 58.5t-46 24.5q-26 0 -50 -24l-528 -528q-26 -26 -62 -26t-62 25.5t-26 61.5
t27 63l-58 56q-49 -52 -49 -119q0 -69 49.5 -118t118.5 -49t119 50l501 502q-10 -39 -21 -96t-11 -117q0 -63 27.5 -116t74 -85.5t102.5 -32.5q53 0 92.5 38.5t39.5 90.5q0 28 -6 51.5t-6 52.5q0 74 34 185.5t104 272.5l28 64q61 140 61 259q0 89 -39 183t-105 181.5
t-149.5 157t-173 110t-174.5 40.5zM850 1253l-425 -425q-50 -50 -50 -118q0 -69 49 -118t118 -49t118 49l-56 56q-25 -25 -62 -25q-35 0 -61 26t-26 61q0 36 26 62l426 425zM1030 1073l-555 -554q-50 -48 -50 -119q0 -68 50 -118t118 -50q70 0 118 50l555 556l-57 56
l-555 -556q-25 -26 -61 -26q-35 0 -61.5 26.5t-26.5 61.5q0 36 27 63l555 554zM1402 1975l8 -74q143 0 269 -44t222 -121.5t150 -179.5t54 -219q0 -52 -4 -101t-7.5 -103.5t-3.5 -120.5q0 -143 17 -226.5t51 -136.5q14 -22 20.5 -37t6.5 -25q0 -22 -21.5 -34t-54.5 -12
q-67 0 -107.5 56t-63.5 211l-17 119l-77 -40q29 -232 89 -329t176 -97q67 0 111.5 37t44.5 89q0 25 -10.5 51t-29.5 55q-28 42 -41.5 114.5t-13.5 204.5q0 33 2.5 81t5 98t5 90t2.5 56q0 134 -59.5 250t-166 203t-249 136t-308.5 49zM1380 707l-242 -505q-24 -50 -78 -50
q-36 0 -62 25.5t-26 61.5h-80q0 -69 49.5 -118t118.5 -49q49 0 89 26t61 70l242 505zM1532 448l-84 -180q-25 -52 -79 -52q-37 0 -62.5 25.5t-25.5 62.5q0 20 9 38l-74 32q-15 -33 -15 -70q0 -70 49 -119t119 -49q48 0 89 26.5t62 71.5l84 180zM1617 144l-20 -241l80 -5
l20 240zM2018 346l-28 -75l227 -82l27 75zM1924 158l-71 -37l114 -215l71 37z" />
</svg>