<?xml version="1.0" standalone="no"?>
<!DOCTYPE svg PUBLIC "-//W3C//DTD SVG 1.1//EN" "http://www.w3.org/Graphics/SVG/1.1/DTD/svg11.dtd">
<svg xmlns="http://www.w3.org/2000/svg" xmlns:xlink="http://www.w3.org/1999/xlink" version="1.1"
   viewBox="94 -151 2414 2169">
   <path fill="currentColor"
      d="M1032 1428q78 0 134.5 -9.5t108.5 -29.5v-103q-53 16 -108.5 27t-116.5 11q-164 0 -245.5 -103t-81.5 -279q0 -119 39.5 -204t113 -131t175.5 -46q63 0 117 15.5t97 35.5l47 -100q-52 -28 -119.5 -43t-140.5 -15q-147 0 -248.5 62t-154 171.5t-52.5 252.5
q0 224 108.5 356t326.5 132zM1482 1418h533v-107h-413v-843h-120v950zM426 1978q-68 0 -117 -48.5t-49 -115.5v-1751q0 -68 49 -116.5t116 -48.5h1750q68 0 116.5 48.5t48.5 116.5v1750q0 67 -48.5 116t-116.5 49h-1749z" />
</svg>