<?xml version="1.0" standalone="no"?>
<!DOCTYPE svg PUBLIC "-//W3C//DTD SVG 1.1//EN" "http://www.w3.org/Graphics/SVG/1.1/DTD/svg11.dtd">
<svg xmlns="http://www.w3.org/2000/svg" xmlns:xlink="http://www.w3.org/1999/xlink" version="1.1"
   viewBox="94 -151 2414 2169">
   <path fill="currentColor"
      d="M1580 799q0 -47 -28 -79.5t-68 -32.5t-68 32.5t-28 79.5q0 46 28 79.5t68 33.5t68 -33.5t28 -79.5zM1660 799q0 80 -51.5 136.5t-124.5 56.5t-124.5 -56.5t-51.5 -136.5t51.5 -136t124.5 -56t124.5 56t51.5 136zM1611 680h-80v-547h294v-155h-388v702h-80v-782h548v315
h-294v467zM780 751v-100h-170v100h170zM860 831h-330v-260h330v260zM263 1551v-764q0 -230 117 -359.5t325 -129.5h679v80h-409q83 61 128 165t45 244v684h1109v-681q0 -197 -95 -304.5t-269 -107.5h-333v-80h333q208 0 326 131t118 361v761h-708v427h-385v-427h-981z
M343 1471h725v-684q0 -197 -94.5 -303t-268.5 -106t-268 106t-94 303v684zM1324 1898h225v-347h-225v347z" />
</svg>