<?xml version="1.0" standalone="no"?>
<!DOCTYPE svg PUBLIC "-//W3C//DTD SVG 1.1//EN" "http://www.w3.org/Graphics/SVG/1.1/DTD/svg11.dtd">
<svg xmlns="http://www.w3.org/2000/svg" xmlns:xlink="http://www.w3.org/1999/xlink" version="1.1"
   viewBox="94 -151 2414 2169">
   <path fill="currentColor"
      d="M741 751v-100h-170v100h170zM821 831h-330v-260h330v260zM1541 799q0 -47 -28 -79.5t-68 -32.5t-68 32.5t-28 79.5q0 46 28 79.5t68 33.5t68 -33.5t28 -79.5zM1621 799q0 80 -51.5 136.5t-124.5 56.5t-124.5 -56.5t-51.5 -136.5t51.5 -136t124.5 -56t124.5 56t51.5 136z
M1551 921v-80h587v295h158v-389h-745v-80h825v549h-318v-295h-507zM224 1551v-764q0 -230 117 -359.5t325 -129.5h1188q190 0 305 108.5t134 302.5h-80q-18 -161 -110.5 -246t-248.5 -85h-918q83 61 128 165t45 244v684h1109v-292h80v372h-708v427h-385v-427h-981zM304 1471
h725v-684q0 -197 -94.5 -303t-268.5 -106t-268 106t-94 303v684zM1285 1898h225v-347h-225v347z" />
</svg>