<?xml version="1.0" standalone="no"?>
<!DOCTYPE svg PUBLIC "-//W3C//DTD SVG 1.1//EN" "http://www.w3.org/Graphics/SVG/1.1/DTD/svg11.dtd">
<svg xmlns="http://www.w3.org/2000/svg" xmlns:xlink="http://www.w3.org/1999/xlink" version="1.1"
   viewBox="94 -151 2414 2169">
   <path fill="currentColor"
      d="M540 1159q-142 0 -228 -69.5t-86 -184.5q0 -119 90 -195t242 -87q7 -95 58 -172.5t133.5 -123.5t180.5 -46q15 0 30 1t29 3q40 -115 121 -202t190.5 -136t232.5 -49q119 0 223.5 44.5t183.5 123t124 182t45 222.5q0 64 -13 122q126 19 202 97t76 194q0 127 -93 201.5
t-252 74.5h-1489zM908 1978q-45 0 -76 -27t-31 -65q0 -29 20.5 -68t51 -76t62.5 -61.5t56 -24.5q17 0 25 22t8 84q0 216 -116 216zM576 1598q-45 0 -76 -27t-31 -65q0 -29 20.5 -68t51 -76t62.5 -61.5t56 -24.5q17 0 25 22t8 84q0 216 -116 216zM1558 1978q-45 0 -76 -27
t-31 -65q0 -29 20.5 -68t51 -76t62.5 -61.5t56 -24.5q17 0 25 22t8 84q0 216 -116 216zM1278 1598q-45 0 -76 -27t-31 -65q0 -29 20.5 -68t51 -76t62.5 -61.5t56 -24.5q17 0 25 22t8 84q0 216 -116 216zM1978 1598q-45 0 -76 -27t-31 -65q0 -29 20.5 -68t51 -76t62.5 -61.5
t56 -24.5q17 0 25 22t8 84q0 216 -116 216zM560 1079h1469q126 0 195.5 -51.5t69.5 -144.5q0 -103 -76.5 -159.5t-218.5 -63.5q14 -46 22 -93.5t8 -96.5q0 -136 -67 -247.5t-179.5 -178t-249.5 -66.5q-106 0 -199.5 41.5t-163 115t-103.5 169.5q106 39 173.5 127.5
t67.5 195.5h-80q0 -70 -40 -130.5t-107.5 -98t-150.5 -37.5q-80 0 -146.5 39t-105.5 104t-39 144v49q-166 13 -249.5 65t-83.5 143q0 82 67 128t187 46z" />
</svg>