<?xml version="1.0" standalone="no"?>
<!DOCTYPE svg PUBLIC "-//W3C//DTD SVG 1.1//EN" "http://www.w3.org/Graphics/SVG/1.1/DTD/svg11.dtd">
<svg xmlns="http://www.w3.org/2000/svg" xmlns:xlink="http://www.w3.org/1999/xlink" version="1.1"
   viewBox="94 -151 2414 2169">
   <path fill="currentColor"
      d="M1278 1928q-31 0 -49 -25t-11 -58l50 -247h-230q-33 0 -53.5 -20t-20.5 -51q0 -20 9 -43l108 -275h-530q-151 0 -233 -66.5t-82 -187.5q0 -120 87 -194.5t244 -87.5q7 -95 57 -172.5t130.5 -123.5t177.5 -46h32.5t27.5 2q40 -114 121 -200.5t190 -135.5t232 -49
q118 0 221.5 44.5t182 123t123 182t44.5 222.5q0 64 -13 122q124 18 197.5 96.5t73.5 194.5q0 127 -89 201.5t-244 74.5h-503l-50 104h151q33 0 55 18.5t22 50.5t-22 60l-350 457q-23 29 -56 29zM1308 1802l313 -409h-269l87 -183h-273l-120 308h320zM562 1129h1469
q122 0 187.5 -51.5t65.5 -144.5q0 -106 -78 -165t-207 -59q11 -41 19 -89t8 -100q0 -136 -66.5 -247.5t-177.5 -178t-247 -66.5q-104 0 -196.5 40.5t-162 113.5t-105.5 169q107 37 173.5 131t66.5 208h-80q0 -81 -38.5 -144t-106 -99t-154.5 -36q-79 0 -144 39t-103.5 104
t-38.5 144v49q-169 13 -249.5 64t-80.5 144q0 87 61.5 130.5t184.5 43.5z" />
</svg>