<?xml version="1.0" standalone="no"?>
<!DOCTYPE svg PUBLIC "-//W3C//DTD SVG 1.1//EN" "http://www.w3.org/Graphics/SVG/1.1/DTD/svg11.dtd">
<svg xmlns="http://www.w3.org/2000/svg" xmlns:xlink="http://www.w3.org/1999/xlink" version="1.1"
   viewBox="94 -151 2414 2169">
   <path fill="currentColor"
      d="M762 1978q-40 0 -64 -25.5t-24 -65.5q0 -52 27 -86t71.5 -58t97.5 -46q56 -24 112 -54.5t99 -78t59 -123.5q-46 62 -131 96.5t-195 34.5q-148 0 -264.5 -60t-183 -164.5t-66.5 -237.5q0 -137 63.5 -245.5t173 -171.5t247.5 -63q30 0 54 4t52 14q-44 -71 -64.5 -131
t-20.5 -119q0 -143 65 -256t177 -178.5t253 -65.5t253 65.5t177 178.5t65 256q0 59 -20.5 119t-64.5 131q29 -10 52.5 -14t53.5 -4q139 0 248 63t172.5 171.5t63.5 245.5q0 133 -66.5 237.5t-182.5 164.5t-265 60q-109 0 -194 -34.5t-132 -96.5q16 76 59 123.5t99 78
t112 54.5q53 22 97.5 46t71.5 58t27 86q0 40 -24 65.5t-64 25.5h-1076z" />
</svg>