<?xml version="1.0" standalone="no"?>
<!DOCTYPE svg PUBLIC "-//W3C//DTD SVG 1.1//EN" "http://www.w3.org/Graphics/SVG/1.1/DTD/svg11.dtd">
<svg xmlns="http://www.w3.org/2000/svg" xmlns:xlink="http://www.w3.org/1999/xlink" version="1.1"
   viewBox="94 -151 2414 2169">
   <path fill="currentColor"
      d="M1997 1838q-102 0 -270 -100.5t-391 -298.5q-128 -114 -190.5 -187.5t-73.5 -137.5q-10 -10 -19.5 -21t-14.5 -28q-96 -39 -156.5 -119.5t-60.5 -172.5q0 -76 40 -140.5t105 -104.5t140 -40q58 0 116 27.5t106 73.5t72 104q29 14 45 45q59 19 135.5 79t158.5 145
t159.5 183.5t140 195.5t99.5 181t37 139q0 76 -50.5 126.5t-127.5 50.5zM345 1565l-64 -42q43 -64 43 -184q0 -96 -22 -200t-44 -204t-22 -183q0 -139 78 -221t212 -82q58 0 114.5 17.5t120.5 56.5v86q-73 -44 -126 -63t-109 -19q-97 0 -153.5 58t-56.5 167q0 81 22 180.5
t44 204t22 202.5q0 72 -14.5 126t-44.5 100zM999 1811l-80 -12l37 -328l-122 -299l233 -157l44 69l-181 119l105 258zM1495 1978l-159 -321l-205 -187l82 -213l74 33l-63 156l175 160l167 334zM745 1049l-186 -213l-103 12l-12 -78l138 -18l184 202l140 -62l38 72z
M2033 1937l-46 -128l38 -13l45 128zM828 627q19 0 32 -16t13 -38t-13 -37.5t-32 -15.5t-32.5 15.5t-13.5 37.5t13.5 38t32.5 16zM1993 1760q47 0 74.5 -30.5t27.5 -68.5q0 -50 -30.5 -121.5t-84 -155t-124 -171.5t-152 -171.5t-166.5 -154.5l7 -5q94 155 149 278.5t84 236.5
q5 17 13.5 58t14.5 77l-69 12q-5 -35 -12 -70.5t-18 -71.5q-27 -93 -76.5 -200.5t-106.5 -204t-108 -160.5t-82 -71q-4 -47 -42 -93.5t-89.5 -77t-97.5 -30.5q-53 0 -100 29.5t-75.5 77t-28.5 101.5q0 50 26.5 98.5t74.5 85t112 50.5q0 28 53.5 75.5t140 100.5t189 99.5
t199.5 72.5q57 15 87 22.5t50 11.5t45 8l-12 69q-22 -3 -43 -6.5t-46.5 -9.5t-62.5 -16q-123 -34 -254.5 -94t-283.5 -162v-6q23 26 52.5 56t69 66.5t88.5 82.5q202 186 363.5 284.5t243.5 98.5zM1132 1078l-45 -63q83 -63 152 -135.5t123 -153.5l66 42q-57 86 -132.5 165
t-163.5 145zM869 783q-22 -17 -51.5 -47.5t-52 -73t-22.5 -93.5q0 -77 53.5 -131t130.5 -54q75 0 134.5 52t96.5 121l-222 3zM948 508q22 0 37.5 -13.5t15.5 -32.5t-15.5 -32t-37.5 -13t-38 13t-16 32t16 32.5t38 13.5zM2249 1747l-128 -46l13 -38l127 46zM1291 607l-75 -28
l55 -148l-205 -199l23 -168l79 11l-17 128l213 207zM2327 1270l-376 -191l-145 -198l-170 76l-36 -71l231 -102l171 232l362 183zM1418 780l-61 -52l177 -208l273 99l306 -33l9 80l-325 35l-238 -87zM856 415q-67 -118 -67 -229q0 -134 81.5 -211t218.5 -77q88 0 187.5 22
t202 44.5t197.5 22.5q119 0 184 -44l45 64q-85 58 -229 58q-55 0 -133 -13.5t-162 -31t-161 -31t-131 -13.5q-105 0 -162.5 55.5t-57.5 154.5q0 47 15 94.5t55 118.5z" />
</svg>