<?xml version="1.0" standalone="no"?>
<!DOCTYPE svg PUBLIC "-//W3C//DTD SVG 1.1//EN" "http://www.w3.org/Graphics/SVG/1.1/DTD/svg11.dtd">
<svg xmlns="http://www.w3.org/2000/svg" xmlns:xlink="http://www.w3.org/1999/xlink" version="1.1"
   viewBox="94 -151 2414 2169">
   <path fill="currentColor"
      d="M1300 1978q-187 0 -360.5 -70t-311 -207t-218 -338.5t-80.5 -463.5q0 -219 74.5 -402t207 -317.5t309 -208t379.5 -73.5t379.5 73.5t309 208t207 317.5t74.5 402q0 262 -80.5 463.5t-218 338.5t-311 207t-360.5 70zM698 1731l-47 -38v-154l47 39v153zM541 1564l-38 -63
v-166l38 50v179zM879 1850l-47 -24v-153l47 25v152zM1086 1926l-47 -11v-155l47 11v155zM1276 1941v-143h48v143h-48zM1514 1926v-155l47 -11v155zM1300 1911q178 0 343 -64t295 -188.5t206 -305.5t76 -416h-2q0 185 -72 346.5t-199 283.5t-293 191t-354 69
q-186 0 -352 -68.5t-293.5 -190.5t-200 -283.5t-72.5 -347.5h-2q0 234 76 415t206 306t295 189t343 64zM881 1105l11 -43h225l9 43h-245zM1721 1850v-152l47 -25v153zM880 1163h246q0 -54 -21 -71v-296q21 -14 21 -72h-247q0 56 22 72v296q-21 17 -21 71zM888 829l-8 -44
h251l-8 44h-235zM1173 1105l11 -43h231l10 43h-252zM1902 1731v-153l47 -39v154zM1173 1163h255q0 -52 -21 -71v-296q20 -15 20 -72h-253q0 57 19 72v296q-20 19 -20 71zM1301 1759q185 0 346 -69t282.5 -191.5t190.5 -283.5t69 -345q0 -183 -69 -344t-190.5 -283
t-282.5 -191t-346 -69t-346.5 69t-283.5 191t-190.5 282.5t-68.5 344.5t69 345t191 283.5t283 191.5t346 69zM1301 1668q-166 0 -311 -62t-255 -171.5t-172 -254.5t-62 -310t62 -309.5t172 -254t255 -171.5t311 -62q165 0 310 62t255 172t172 254t62 309t-62 310t-172 254.5
t-255 171.5t-310 62zM1301 1616q155 0 290.5 -58t238 -161t160.5 -238t58 -289q0 -155 -58 -290t-161 -237t-238 -160t-290 -58q-156 0 -291.5 58t-238 160t-160.5 237t-58 290t58 290t161 237.5t238.5 160.5t290.5 58zM1181 829l-8 -44h256l-9 44h-239zM712 1271v-56
l103 -51q0 -50 19 -85v-268q-12 -18 -16 -37t-4 -50h-91v-80l577 -317l577 317l-14 80h-77q0 31 -4 50t-16 37v268q19 35 19 85l103 51v56h-1176zM1473 1105l10 -43h225l11 43h-246zM2059 1564v-179l38 -50v166zM1474 1163h246q0 -54 -21 -71v-296q22 -16 22 -72h-247
q0 59 21 72v296q-21 17 -21 71zM1031 603l269 -143l269 143h-538zM794 664h1012l-506 -279zM1477 829l-8 -44h251l-8 44h-235z" />
</svg>