<?xml version="1.0" standalone="no"?>
<!DOCTYPE svg PUBLIC "-//W3C//DTD SVG 1.1//EN" "http://www.w3.org/Graphics/SVG/1.1/DTD/svg11.dtd">
<svg xmlns="http://www.w3.org/2000/svg" xmlns:xlink="http://www.w3.org/1999/xlink" version="1.1"
   viewBox="94 -151 2414 2169">
   <path fill="currentColor"
      d="M1516 1978l-211 -381l-492 261l75 -329l-590 49l433 -385l-511 -394l549 -7l-475 -831l892 535l108 -598l307 545l614 -496l-234 729l379 -100l-367 513l387 123l-400 173l248 462l-566 -228zM1507 1840l121 -299l475 193l-205 -377l324 -137l-322 -104l317 -440l-321 79
l205 -644l-517 419l-263 -472l-94 532l-773 -464l415 723l-492 7l443 336l-352 313l494 -40l-65 283l433 -229zM1475 1444l-98 -175l-222 145l69 -178l-309 76l194 -179l-264 -136l286 -8l-245 -429l439 273l67 -337l151 272l256 -234l-142 389l192 -18l-223 268l146 54
l-145 39l87 123l-189 -106z" />
</svg>