<?xml version="1.0" standalone="no"?>
<!DOCTYPE svg PUBLIC "-//W3C//DTD SVG 1.1//EN" "http://www.w3.org/Graphics/SVG/1.1/DTD/svg11.dtd">
<svg xmlns="http://www.w3.org/2000/svg" xmlns:xlink="http://www.w3.org/1999/xlink" version="1.1"
   viewBox="94 -151 2414 2169">
   <path fill="currentColor"
      d="M1300 1978q-143 0 -268.5 -53.5t-220.5 -148.5t-148.5 -220t-53.5 -268v-788q0 -179 87.5 -314.5t243 -211.5t360.5 -76t360.5 76t243 211.5t87.5 314.5v788q0 143 -53.5 268t-148.5 220t-220.5 148.5t-268.5 53.5zM1300 1898q126 0 237 -47.5t195 -131t131.5 -194.5
t47.5 -237v-345q0 -101 -66 -169t-168.5 -109t-214.5 -59v156q0 71 -47 121.5t-115 50.5q-67 0 -114.5 -50.5t-47.5 -121.5v-156q-112 18 -215 59.5t-168.5 109.5t-65.5 168v345q0 126 47.5 237t131.5 194.5t195 131t237 47.5zM689 741q37 -55 112.5 -99.5t166 -75
t170.5 -42.5v-81q0 -60 34.5 -106t87.5 -59v-299q-172 7 -300.5 74t-199.5 181.5t-71 265.5v241zM1300 854q35 0 58.5 -27t23.5 -65v-319q0 -38 -23.5 -64.5t-58.5 -26.5q-34 0 -58 26.5t-24 64.5v319q0 38 24 65t58 27zM1911 741v-241q0 -151 -71 -265.5t-199.5 -181.5
t-300.5 -74v299q53 13 87.5 59t34.5 106v81q81 12 171.5 42.5t166 75t111.5 99.5z" />
</svg>