<?xml version="1.0" standalone="no"?>
<!DOCTYPE svg PUBLIC "-//W3C//DTD SVG 1.1//EN" "http://www.w3.org/Graphics/SVG/1.1/DTD/svg11.dtd">
<svg xmlns="http://www.w3.org/2000/svg" xmlns:xlink="http://www.w3.org/1999/xlink" version="1.1"
   viewBox="94 -151 2414 2169">
   <path fill="currentColor"
      d="M426 1978q-67 0 -116.5 -48.5t-49.5 -115.5v-1751q0 -68 49 -116.5t116 -48.5h1750q68 0 116.5 48.5t48.5 116.5v1750q0 67 -48.5 116t-116.5 49h-1749zM1300 1355q-115 0 -209.5 -56.5t-151 -151.5t-56.5 -209q0 -115 56.5 -209.5t151.5 -151t209 -56.5
q115 0 209.5 56.5t151 151t56.5 209.5t-56.5 209.5t-151 151t-209.5 56.5zM1300 1288q97 0 176 -47.5t126.5 -127t47.5 -175.5q0 -97 -47.5 -176t-127 -126.5t-175.5 -47.5t-175.5 47.5t-127 127t-47.5 175.5t47.5 175.5t127 127t175.5 47.5zM1300 1165q-62 0 -113.5 -31
t-82.5 -82.5t-31 -113.5t31 -113.5t82.5 -82.5t113.5 -31t113.5 31t82.5 82.5t31 113.5t-31 113.5t-82.5 82.5t-113.5 31zM1797 1108v-340h499v340h-499zM1300 1898q199 0 373 -74.5t306 -206.5t206.5 -306t74.5 -373t-74.5 -373t-206.5 -306t-306 -206.5t-373 -74.5
t-373 74.5t-306 206.5t-206.5 306t-74.5 373t74.5 373t206.5 306t306 206.5t373 74.5z" />
</svg>