<?xml version="1.0" standalone="no"?>
<!DOCTYPE svg PUBLIC "-//W3C//DTD SVG 1.1//EN" "http://www.w3.org/Graphics/SVG/1.1/DTD/svg11.dtd">
<svg xmlns="http://www.w3.org/2000/svg" xmlns:xlink="http://www.w3.org/1999/xlink" version="1.1"
   viewBox="94 -151 2414 2169">
   <path fill="currentColor"
      d="M291 1219q-20 0 -34 -14.5t-14 -34.5v-634q0 -20 14 -34.5t34 -14.5h2018q20 0 34 14.5t14 34.5v634q0 20 -14 34.5t-34 14.5h-2018zM549 1978q-71 0 -111.5 -18t-40.5 -52v-749h304v749q0 35 -40.5 52.5t-111.5 17.5zM549 1900q34 0 53 -8t19 -27v-666h-144v666
q0 19 19 27t53 8zM323 1040l474 -473h-391l-83 83v390zM375 539l38 -185h274l38 185h-350zM500 1139h391l572 -572h-390zM547 303l-13 -63q-2 -12 -13 -17t-21 0l-59 30l-3 -5l42 -50q8 -9 5 -21t-13 -16l-61 -28l1 -6l67 2q11 0 18 -9.5t4 -20.5l-15 -64l4 -2l41 52
q7 9 19 9t19 -9l41 -52l4 2l-15 64q-3 11 4.5 20.5t17.5 9.5l67 -2l1 6l-61 28q-10 4 -12.5 16t4.5 21l42 50l-3 5l-59 -30q-10 -5 -21 0t-13 17l-13 63h-6zM550 428q-72 0 -132.5 -36t-96.5 -96.5t-36 -132.5q0 -73 36 -133t96.5 -96t132.5 -36q73 0 133 36t96 96t36 133
q0 72 -36 132.5t-96 96.5t-133 36zM550 348q75 0 130 -55t55 -130t-55 -130t-130 -55t-130 55t-55 130t55 130t130 55zM2051 1978q-70 0 -111 -17.5t-41 -52.5v-749h304v749q0 34 -40.5 52t-111.5 18zM2051 1900q34 0 53 -8t19 -27v-666h-144v666q0 19 19 27t53 8z
M1167 1139h391l571 -572h-390zM1835 1139h390l52 -52v-391zM1875 539l38 -185h274l38 185h-350zM2047 303l-13 -63q-2 -12 -13 -17t-21 0l-59 30l-3 -5l42 -50q8 -9 5 -21t-13 -16l-61 -28l1 -6l67 2q11 0 18 -9.5t4 -20.5l-15 -64l4 -2l41 52q7 9 19 9t19 -9l41 -52l4 2
l-15 64q-3 11 4.5 20.5t17.5 9.5l67 -2l1 6l-61 28q-10 4 -12.5 16t4.5 21l42 50l-3 5l-59 -30q-10 -5 -21 0t-13 17l-13 63h-6zM2050 428q-72 0 -132.5 -36t-96.5 -96.5t-36 -132.5q0 -73 36 -133t96.5 -96t132.5 -36q73 0 133 36t96 96t36 133q0 72 -36 132.5t-96 96.5
t-133 36zM2050 348q75 0 130 -55t55 -130t-55 -130t-130 -55t-130 55t-55 130t55 130t130 55z" />
</svg>