<?xml version="1.0" standalone="no"?>
<!DOCTYPE svg PUBLIC "-//W3C//DTD SVG 1.1//EN" "http://www.w3.org/Graphics/SVG/1.1/DTD/svg11.dtd">
<svg xmlns="http://www.w3.org/2000/svg" xmlns:xlink="http://www.w3.org/1999/xlink" version="1.1"
   viewBox="94 -151 2414 2169">
   <path fill="currentColor"
      d="M962 1978q-292 0 -463.5 -90t-186.5 -247q-11 -119 -19.5 -244.5t-12.5 -285.5t-4 -381h80q0 220 4 379.5t12.5 284.5t19.5 240q12 118 158 191t412 73q200 0 344.5 -34.5t222 -94t77.5 -132.5q0 -20 -6 -39.5t-19 -45.5q-19 -40 -30.5 -79.5t-11.5 -82.5v-672h80v672
q0 42 10 77t28 71q14 27 21.5 49.5t7.5 49.5q0 102 -87.5 178.5t-249.5 119.5t-387 43zM952 1341q-85 0 -155 -33.5t-125 -100.5l51 -44q47 57 102.5 82.5t126.5 25.5q72 0 128 -25.5t102 -82.5l51 44q-55 67 -125.5 100.5t-155.5 33.5zM684 1033q-38 0 -63 -28t-25 -68
t25 -68.5t63 -28.5t63.5 28.5t25.5 68.5t-25.5 68t-63.5 28zM1851 1938q17 0 28 -11t11 -27q0 -17 -11 -28t-28 -11q-16 0 -27 11t-11 28q0 16 11 27t27 11zM480 472q-69 0 -110.5 -39.5t-41.5 -98.5q0 -35 16 -72.5t49 -73.5q8 71 23.5 118.5t46.5 83.5t84 73q-18 5 -35 7
t-32 2zM1851 1976q-31 0 -53.5 -22t-22.5 -54q0 -9 3.5 -20.5t9.5 -26.5l173 -452l145 46l-181 475q-21 54 -74 54zM1221 1033q-38 0 -63.5 -28t-25.5 -68t25.5 -68.5t63.5 -28.5t63 28.5t25 68.5t-25 68t-63 28zM779 408q-80 -5 -130 -61t-50 -129q0 -30 9.5 -59.5
t29.5 -55.5q17 76 54.5 156t86.5 149zM278 780l-22 -174q-88 -72 -127 -131.5t-39 -125.5q0 -95 66 -177t183.5 -143.5t273.5 -96t337 -34.5q182 0 337.5 34.5t272.5 96t182 143.5t65 177q0 66 -39 125.5t-127 131.5l-22 174q-154 -42 -328 -64t-341 -22q-166 0 -341.5 22
t-330.5 64zM347 684q136 -32 296 -51t307 -19t305.5 19t294.5 51l16 -122q85 -68 123 -114.5t38 -98.5q0 -73 -61.5 -140t-169.5 -119t-248.5 -82t-297.5 -30q-156 0 -297 30t-249.5 82t-171 119t-62.5 140q0 52 38 98.5t123 114.5zM979 388q-54 -66 -54 -169
q0 -102 54 -169q26 31 39.5 75.5t13.5 93.5t-13.5 93t-39.5 76zM1178 408q50 -69 87 -149t54 -156q20 26 29.5 55.5t9.5 59.5q0 73 -50 129t-130 61zM2109 1483q-110 0 -202 -54.5t-146.5 -146.5t-54.5 -202t54.5 -201t146.5 -145.5t202 -54.5t201 54.5t145.5 145.5
t54.5 201t-54.5 201.5t-145.5 146.5t-201 55zM2099 1193q-51 0 -86.5 -36t-35.5 -86t36 -86t86 -36q51 0 86.5 35.5t35.5 86.5q0 50 -35.5 86t-86.5 36zM2064 1346q27 0 54 -12t52 -12q23 0 39 5t35 5q60 0 98 -42t38 -100q0 -69 -32.5 -111.5t-63.5 -85.5
q-19 -27 -34.5 -63t-35 -69.5t-50 -55.5t-81.5 -22q-63 0 -114.5 46.5t-82 115t-30.5 134.5q0 55 20 117.5t66 106t122 43.5zM2158 1101q19 0 19 -29q0 -32 -17.5 -55.5t-39.5 -23.5q-18 0 -18 15q0 14 14 22q23 13 23 42t19 29zM1477 472q-16 0 -32.5 -2t-34.5 -7
q53 -37 83.5 -73t46.5 -83.5t24 -118.5q33 36 49 73.5t16 72.5q0 59 -41.5 98.5t-110.5 39.5z" />
</svg>