<?xml version="1.0" standalone="no"?>
<!DOCTYPE svg PUBLIC "-//W3C//DTD SVG 1.1//EN" "http://www.w3.org/Graphics/SVG/1.1/DTD/svg11.dtd">
<svg xmlns="http://www.w3.org/2000/svg" xmlns:xlink="http://www.w3.org/1999/xlink" version="1.1"
   viewBox="94 -151 2414 2169">
   <path fill="currentColor"
      d="M596 1211q44 0 75.5 -5.5t60.5 -16.5v-57q-30 10 -61 15.5t-65 5.5q-89 0 -134 -56.5t-45 -153.5q0 -98 48.5 -154.5t131.5 -56.5q35 0 64.5 9t53.5 20l27 -55q-29 -15 -66.5 -22.5t-78.5 -7.5q-121 0 -185.5 74t-64.5 193q0 122 60 195t179 73zM1040 1211q118 0 179 -74
t61 -194q0 -122 -61 -195t-178 -73q-123 0 -182 73.5t-59 193.5q0 121 59 195t181 74zM1040 1154q-88 0 -130 -56.5t-42 -154.5q0 -100 42 -156t131 -56q88 0 129 56t41 156q0 98 -41 154.5t-130 56.5zM1600 1211q118 0 179 -74t61 -194q0 -122 -61 -195t-178 -73
q-122 0 -182 73.5t-60 193.5q0 121 60 195t181 74zM1600 1154q-88 0 -129.5 -56.5t-41.5 -154.5q0 -100 41.5 -156t130.5 -56q88 0 128.5 56t40.5 156q0 98 -40.5 154.5t-129.5 56.5zM1951 1203h293v-58h-227v-463h-66v521zM426 1978q-68 0 -117 -48.5t-49 -115.5v-1751
q0 -68 49 -116.5t116 -48.5h1750q68 0 116.5 48.5t48.5 116.5v1750q0 67 -48.5 116t-116.5 49h-1749z" />
</svg>