<?xml version="1.0" standalone="no"?>
<!DOCTYPE svg PUBLIC "-//W3C//DTD SVG 1.1//EN" "http://www.w3.org/Graphics/SVG/1.1/DTD/svg11.dtd">
<svg xmlns="http://www.w3.org/2000/svg" xmlns:xlink="http://www.w3.org/1999/xlink" version="1.1"
   viewBox="94 -151 2414 2169">
   <path fill="currentColor"
      d="M1300 1978q-227 0 -417 -77t-330 -217t-216.5 -330t-76.5 -416q0 -227 76.5 -417t216.5 -330t330 -216.5t417 -76.5q215 0 403.5 76.5t331.5 216.5t224 330t81 417q0 226 -77 416t-217 330t-330 217t-416 77zM1343 1574q-188 0 -312.5 -79t-186 -222.5t-61.5 -334.5
q0 -185 66 -327.5t193 -223.5t311 -81q87 0 178 21.5t170 62.5l-81 174q-71 -37 -138 -55.5t-126 -18.5q-112 0 -190.5 54t-119.5 154.5t-41 239.5q0 144 35 244.5t111.5 153t201.5 52.5q65 0 146.5 -18.5t149.5 -45.5v181q-67 30 -136.5 49.5t-169.5 19.5zM1300 1827
q182 0 341 -65.5t280 -185t189.5 -282t68.5 -356.5q0 -184 -65 -345.5t-182.5 -284t-278.5 -192t-353 -69.5q-193 0 -354 65.5t-279.5 185t-183.5 282.5t-65 358q0 184 65 345t183.5 283.5t279.5 191.5t354 69z" />
</svg>