<?xml version="1.0" standalone="no"?>
<!DOCTYPE svg PUBLIC "-//W3C//DTD SVG 1.1//EN" "http://www.w3.org/Graphics/SVG/1.1/DTD/svg11.dtd">
<svg xmlns="http://www.w3.org/2000/svg" xmlns:xlink="http://www.w3.org/1999/xlink" version="1.1"
   viewBox="94 -151 2414 2169">
   <path fill="currentColor"
      d="M1049 1978q-101 0 -160.5 -41.5t-59.5 -114.5q0 -50 27 -89t75 -54l10 25q-39 -17 -63.5 -28t-42.5 -19t-38 -16q-64 -30 -91 -59.5t-27 -69.5q0 -58 39 -94t94 -34q34 0 83.5 22t89.5 49q11 8 17 14.5t6 10.5q0 12 -24.5 1t-58.5 -33t-64 -39q-46 -29 -86.5 -52
t-79.5 -44l-101 -56q-200 -111 -302 -277t-102 -377q0 -59 42.5 -101.5t101.5 -42.5t101.5 42.5t42.5 101.5q0 89 21 150t46 92t35 31t10 -18q0 -52 -16 -117t-16 -132q0 -56 40 -96t96 -40t96 40t40 96q0 57 6 98.5t11.5 81t5.5 91.5q0 31 -3 61t-11 56q7 12 17.5 21
t26.5 21q26 -96 59.5 -198.5t65.5 -178.5l-4 50q-19 -143 -62.5 -265.5t-119.5 -237.5q-22 -35 -22 -76q0 -59 42.5 -101.5t101.5 -42.5q86 0 126 76q42 77 79 149.5t58 117.5q17 35 24 45.5t17 10.5q14 0 19.5 -22.5t5.5 -55.5t-10 -84l-20 -102t-10 -82q0 -59 42.5 -101.5
t101.5 -42.5q75 0 117 71t42 196q0 10 -1 29t-6 66q59 -1 101 38t42 95q0 54 -30 86t-79.5 64.5t-110.5 89.5l-17 16q-114 107 -179.5 224t-65.5 212q0 25 5.5 47t15.5 45l-26 -2q42 -66 119 -66q59 0 101.5 41t42.5 94q0 29 -13.5 60t-21 51.5t8.5 20.5q29 0 62 -42.5
t56 -101.5t23 -108q0 -99 -12 -161t-24.5 -109t-12.5 -101q0 -59 42.5 -101.5t101.5 -42.5q58 0 101 41t43 100q0 31 -2.5 69.5t-2.5 70.5q0 52 42 52q59 0 105 -58t73 -159.5t27 -231.5q0 -59 42.5 -101.5t101.5 -42.5t101.5 42.5t42.5 101.5v160q35 8 56.5 35.5t21.5 64.5
q0 72 -42 150t-116 152t-170 133t-203 94l39 -33q-50 112 -119 211t-149 180q1 2 4 4q17 -14 38 -19.5t38 -5.5q53 0 92 39t39 92q0 104 -92 166t-246 62h-474zM712 1253q-29 0 -27 -40q-18 0 -30.5 -8t-12.5 -18q0 -17 21 -23q-19 -18 -19 -35q0 -16 15 -16q19 0 36 20
q1 -20 7.5 -34.5t16.5 -14.5t17 15t7 35q0 14 -5 29h7.5h7.5q16 0 27 8t11 19q0 30 -38 30q-9 0 -13 -2q0 14 -8.5 24.5t-19.5 10.5zM294 812q-28 0 -47 -12t-19 -28q0 -20 29 -32.5t65 -3.5l-38 39q-8 -38 4.5 -66.5t32.5 -28.5q16 0 27.5 19t11.5 47q0 66 -66 66z
M1204 1602q-28 0 -47 -12t-19 -28q0 -20 29 -32.5t65 -3.5l-38 39q-8 -38 4.5 -66.5t32.5 -28.5q16 0 27.5 19t11.5 47q0 66 -66 66zM1004 1307q-16 0 -27.5 -17t-11.5 -42q0 -24 11.5 -41t27.5 -17q17 0 28 17t11 41q0 25 -11 42t-28 17zM1621 1413q-11 0 -19.5 -10.5
t-8.5 -24.5q-4 2 -13 2q-38 0 -38 -30q0 -11 11 -19t27 -8h7.5h7.5q-5 -15 -5 -29q0 -20 7 -35t17 -15t16.5 14.5t7.5 34.5q17 -20 36 -20q15 0 15 16q0 17 -19 35q21 6 21 23q0 10 -12.5 18t-30.5 8q2 40 -27 40zM1049 1898h474q119 0 188.5 -40.5t69.5 -107.5
q0 -20 -15.5 -35.5t-35.5 -15.5q-32 0 -79 50q-31 -20 -57 -47t-53 -73q207 -189 308 -421q94 -30 180.5 -82t154 -115t107 -127.5t39.5 -119.5q0 -17 -10.5 -26.5t-28.5 -9.5q-21 0 -55 23q7 -53 11.5 -117t4.5 -141q0 -27 -19 -45.5t-45 -18.5q-27 0 -45.5 19t-18.5 45
q0 155 -36 274.5t-100 187t-149 67.5q-122 0 -122 -132q0 -36 3 -67q2 -20 2 -37v-30q0 -29 -19 -48t-45 -19q-27 0 -45.5 19t-18.5 45q0 25 4.5 48.5t11.5 52.5q11 43 22 106t11 164q0 78 -35.5 155t-89 128.5t-108.5 51.5q-34 0 -56 -20t-22 -53q0 -15 4.5 -33.5
t14.5 -41.5q5 -10 11 -27t6 -31q0 -27 -19 -45.5t-45 -18.5q-32 0 -54.5 30.5t-25.5 86.5q-51 -29 -82.5 -89.5t-31.5 -131.5q0 -112 72.5 -243.5t198.5 -250.5l17 -16q29 -27 56.5 -48.5t51.5 -38.5q52 -38 69 -56t17 -39q0 -23 -15.5 -38.5t-36.5 -15.5q-17 0 -38.5 8.5
t-70.5 36.5q12 -65 18.5 -119t6.5 -100q0 -87 -20 -137t-59 -50q-25 0 -44.5 19t-19.5 45q0 13 3.5 37.5t13.5 74.5q8 40 15.5 82.5t7.5 73.5q0 71 -27.5 114.5t-77.5 43.5q-66 0 -95 -61q-34 -74 -72.5 -151t-80.5 -153q-19 -34 -56 -34q-27 0 -45.5 19t-18.5 45q0 17 9 34
q76 127 124.5 255.5t69.5 271.5q-26 62 -53.5 140.5t-51 159t-38.5 149.5q-128 -46 -187 -136q20 -57 20 -127q0 -32 -2.5 -58t-7.5 -55q-6 -34 -9.5 -71.5t-3.5 -86.5q0 -23 -16.5 -39.5t-39.5 -16.5q-22 0 -39 16.5t-17 39.5q0 27 4.5 57t11.5 65q8 33 12 65t4 62
q0 46 -20.5 75.5t-57.5 29.5q-43 0 -77 -37q-68 -74 -92.5 -148.5t-24.5 -174.5q0 -27 -19 -45.5t-45 -18.5q-27 0 -45.5 19t-18.5 45q0 375 364 584l101 58q120 69 189 110t101.5 64.5t41 40t8.5 35.5q0 26 -17.5 43.5t-45.5 17.5q-26 0 -57.5 -15t-67.5 -40
q-31 -22 -47.5 -30.5t-29.5 -8.5q-21 0 -36 15t-15 35q0 17 14.5 28.5t51.5 24.5q48 17 88 32t71 29q37 16 52.5 31.5t15.5 33.5q0 54 -70 54q-31 0 -52 22t-21 55q0 36 36.5 56t103.5 20zM1185 628q-31 0 -31 -31q0 -25 22 -46.5t47 -21.5q31 0 31 30q0 23 -22 46t-47 23z
M1004 453q-10 0 -17 -15t-7 -35q0 -14 5 -29h-7.5h-7.5q-16 0 -27 -8t-11 -19q0 -30 38 -30q9 0 13 2q0 -14 8.5 -24.5t19.5 -10.5q29 0 27 40q18 0 30.5 7.5t12.5 18.5q0 17 -21 23q19 18 19 35q0 16 -15 16q-19 0 -36 -20q-1 20 -7.5 34.5t-16.5 14.5zM1414 582
q-28 0 -47 -12t-19 -28q0 -20 29 -32.5t65 -3.5l-38 39q-8 -38 4.5 -66.5t32.5 -28.5q16 0 27.5 19t11.5 47q0 66 -66 66zM2119 923q-10 0 -16.5 -14.5t-7.5 -34.5q-17 20 -36 20q-15 0 -15 -16q0 -17 19 -35q-21 -6 -21 -23q0 -11 12.5 -18.5t30.5 -7.5q-2 -40 27 -40
q11 0 19.5 10.5t8.5 24.5q4 -2 13 -2q38 0 38 30q0 11 -11 19t-27 8h-7.5h-7.5q5 15 5 29q0 20 -7 35t-17 15zM1886 1097q-31 0 -31 -31q0 -25 22 -46.5t47 -21.5q31 0 31 30q0 23 -22 46t-47 23zM1375 1738q-31 0 -31 -31q0 -25 22 -46.5t47 -21.5q31 0 31 30q0 23 -22 46
t-47 23z" />
</svg>