<?xml version="1.0" standalone="no"?>
<!DOCTYPE svg PUBLIC "-//W3C//DTD SVG 1.1//EN" "http://www.w3.org/Graphics/SVG/1.1/DTD/svg11.dtd">
<svg xmlns="http://www.w3.org/2000/svg" xmlns:xlink="http://www.w3.org/1999/xlink" version="1.1"
   viewBox="94 -151 2414 2169">
   <path fill="currentColor"
      d="M1300 1087q-340 -266 -493 -467.5t-153 -376.5q0 -98 44 -176t120.5 -123.5t173.5 -45.5q95 0 176.5 46.5t131.5 128.5q50 -82 132 -128.5t176 -46.5q97 0 173.5 45.5t120.5 123.5t44 176q0 175 -153 376.5t-493 467.5zM695 1697q-91 0 -164 -41.5t-103 -110.5l59 -26
q23 51 79 81.5t129 30.5q125 0 181 -81l54 36q-35 52 -97.5 81.5t-137.5 29.5zM494 1437q-31 0 -49.5 -26.5t-18.5 -59.5q0 -38 20.5 -65.5t51.5 -27.5t49.5 26.5t18.5 59.5q0 37 -20.5 65t-51.5 28zM664 1978q-289 0 -441.5 -84t-152.5 -240q0 -227 76 -402t209.5 -275
t308.5 -100t309 99.5t209.5 274.5t75.5 403q0 156 -152 240t-442 84zM664 1898q254 0 384 -62t130 -182q0 -204 -65.5 -361.5t-181.5 -246.5t-267 -89q-150 0 -266 89.5t-182 246.5t-66 361q0 120 130.5 182t383.5 62zM904 1467q-31 0 -49.5 -26.5t-18.5 -59.5
q0 -38 20.5 -65.5t51.5 -27.5t49.5 26.5t18.5 59.5q0 37 -20.5 65t-51.5 28zM1701 1467q-31 0 -51.5 -28t-20.5 -65q0 -33 18.5 -59.5t49.5 -26.5t51.5 27.5t20.5 65.5q0 33 -18.5 59.5t-49.5 26.5zM1909 1697q-75 0 -137.5 -29.5t-97.5 -81.5l54 -36q56 81 181 81
q73 0 129.5 -30.5t78.5 -81.5l59 26q-30 69 -102.5 110.5t-164.5 41.5zM1937 1978q-289 0 -442 -84t-153 -240q0 -228 75.5 -403t210 -274.5t309.5 -99.5q174 0 308 100t209.5 275t75.5 402q0 156 -152 240t-441 84zM1936 1898q254 0 384 -62t130 -182q0 -204 -66 -361
t-181.5 -246.5t-266.5 -89.5t-267 89t-181.5 246.5t-65.5 361.5q0 120 130.5 182t383.5 62zM2111 1437q-31 0 -51.5 -28t-20.5 -65q0 -33 18.5 -59.5t49.5 -26.5t51.5 27.5t20.5 65.5q0 33 -18.5 59.5t-49.5 26.5zM1300 987q292 -236 429 -415.5t137 -328.5
q0 -116 -73 -190.5t-185 -74.5q-88 0 -170 61.5t-138 163.5q-55 -102 -137.5 -163.5t-170.5 -61.5q-112 0 -185 74.5t-73 190.5q0 149 137 328.5t429 415.5z" />
</svg>