<?xml version="1.0" standalone="no"?>
<!DOCTYPE svg PUBLIC "-//W3C//DTD SVG 1.1//EN" "http://www.w3.org/Graphics/SVG/1.1/DTD/svg11.dtd">
<svg xmlns="http://www.w3.org/2000/svg" xmlns:xlink="http://www.w3.org/1999/xlink" version="1.1"
   viewBox="94 -151 2414 2169">
   <path fill="currentColor"
      d="M500 1944q-26 16 -51.5 25t-49.5 9t-47.5 -10.5t-47.5 -34.5t-34 -47.5t-10 -47.5q0 -25 9 -50.5t25 -51.5l217 -367q-13 -38 -3 -87.5t59 -98.5l1241 -1239q25 -25 54 -35.5t60 -10.5q70 0 144.5 43.5t130.5 99.5t99.5 130.5t43.5 145.5q0 31 -11 60t-35 53l-1245 1243
q-46 46 -95 55.5t-87 -3.5zM401 1895q22 0 58 -21l336 -199l-234 -233l-198 334q-22 36 -22 59q0 22 19 41t41 19zM861 1627q30 31 66 24.5t67 -37.5l58 -57q-40 -32 -92.5 -75t-108.5 -98q-52 -53 -96 -103t-78 -95l-55 55q-34 34 -38 69t26 65zM1108 1502l834 -834
q-39 -52 -84.5 -100t-92.5 -94q-47 -47 -95 -93.5t-101 -85.5l-834 833q39 52 83 102t90 97q47 47 97.5 91.5t102.5 83.5zM2000 611l108 -109q-43 -57 -85 -107t-86 -94q-43 -44 -94 -86.5t-107 -84.5l-109 108q47 36 98.5 80t100.5 94q53 53 96.5 103.5t77.5 95.5z
M2167 445l66 -68q36 -37 29 -84.5t-40.5 -98.5t-80.5 -97q-46 -46 -97 -80t-98.5 -41t-84.5 29l-68 66q50 38 101 81t100 93q48 49 91.5 99.5t81.5 100.5z" />
</svg>