<?xml version="1.0" standalone="no"?>
<!DOCTYPE svg PUBLIC "-//W3C//DTD SVG 1.1//EN" "http://www.w3.org/Graphics/SVG/1.1/DTD/svg11.dtd">
<svg xmlns="http://www.w3.org/2000/svg" xmlns:xlink="http://www.w3.org/1999/xlink" version="1.1"
   viewBox="94 -151 2414 2169">
   <path fill="currentColor"
      d="M1447 317q-156 0 -269.5 71t-175 203t-61.5 316q0 181 56 313.5t168 204.5t280 72q95 0 181.5 -16.5t169.5 -41.5v160q-82 31 -169 45t-208 14q-224 0 -373.5 -92t-224 -261.5t-74.5 -399.5q0 -222 81.5 -391t238 -264t382.5 -95q113 0 217 22.5t187 63.5l-74 156
q-67 -31 -150.5 -55.5t-181.5 -24.5z" />
</svg>