<?xml version="1.0" standalone="no"?>
<!DOCTYPE svg PUBLIC "-//W3C//DTD SVG 1.1//EN" "http://www.w3.org/Graphics/SVG/1.1/DTD/svg11.dtd">
<svg xmlns="http://www.w3.org/2000/svg" xmlns:xlink="http://www.w3.org/1999/xlink" version="1.1"
   viewBox="94 -151 2414 2169">
   <path fill="currentColor"
      d="M724 1978l1142 -1146q-18 -38 -27.5 -67.5t-9.5 -55.5q0 -43 29.5 -86t94.5 -109l274 -279q58 -59 91.5 -81.5t61.5 -24.5q0 -91 -61 -159.5t-169 -71.5q-10 45 -34.5 85.5t-62.5 79.5l-269 271q-71 72 -126 105t-110 33q-25 0 -52 -6.5t-56 -19.5l-1091 1118l-12 165
l234 237zM514 873q-80 0 -147 -41.5t-107 -111t-40 -151.5t38.5 -148t104.5 -105t146 -39q137 0 218.5 83.5t81.5 224.5q0 80 -39.5 145.5t-106.5 104t-149 38.5zM514 793q90 0 152.5 -60t62.5 -148q0 -108 -58 -168t-162 -60q-88 0 -148.5 61.5t-60.5 150.5q0 61 29.5 112
t78 81.5t106.5 30.5zM296 732l-3 -80q59 -2 117.5 -24t110 -59t90 -84.5t55.5 -99.5l76 24q-28 86 -98 158.5t-161.5 117t-186.5 47.5zM692 1897l-92 -8l-181 -188l8 -102l1034 -1060q47 14 87 14q71 0 141.5 -40t152.5 -123l268 -271q31 -31 55 -64t40 -67q29 9 54.5 33
t35.5 53q-25 14 -55.5 40t-69.5 65l-274 279q-66 67 -106 125t-40 129q0 45 21 101zM1245 1068l633 -539l-112 -114l-544 624q-31 37 -31 51q0 7 6 7q15 0 48 -29zM1985 416l57 -56l-119 -123l-57 56zM2150 258l57 -56l-119 -122l-57 55z" />
</svg>