<?xml version="1.0" standalone="no"?>
<!DOCTYPE svg PUBLIC "-//W3C//DTD SVG 1.1//EN" "http://www.w3.org/Graphics/SVG/1.1/DTD/svg11.dtd">
<svg xmlns="http://www.w3.org/2000/svg" xmlns:xlink="http://www.w3.org/1999/xlink" version="1.1"
   viewBox="94 -151 2414 2169">
   <path fill="currentColor"
      d="M1307 1978q-347 0 -510.5 -199.5t-163.5 -623.5l82 44q0 361 143 530t449 169q293 0 455 -142t162 -385q0 -161 -86 -243.5t-255 -82.5q-183 0 -292 15.5t-157.5 49.5t-48.5 92q0 60 53 87t172 29q109 1 175.5 15.5t114.5 52.5t103 111l-65 47q-45 -62 -82.5 -92.5
t-93 -41t-154.5 -12.5q-154 -3 -228.5 -51t-74.5 -145q0 -65 31.5 -110t100.5 -73t180 -41t271 -13q131 0 224 47t142.5 137.5t49.5 222.5q0 185 -83.5 321t-239.5 210.5t-374 74.5zM809 1298q-62 0 -106.5 -24.5t-69.5 -70.5t-29 -112l-8 -159q-5 -99 52 -162.5t154 -63.5
q74 0 124.5 37.5t62.5 102.5l-65 18q-6 -35 -40 -56.5t-84 -21.5q-63 0 -95.5 38t-28.5 109l8 156q3 64 34.5 96.5t90.5 32.5t97 -29.5t48 -82.5l73 19q-19 82 -75.5 127.5t-142.5 45.5zM1444 1665l-74 -10q11 -89 58 -162t125 -111l39 63q-64 30 -100.5 90.5t-47.5 129.5z
M1065 1234q-61 -16 -87.5 -52t-34.5 -115l-22 -234q-11 -117 42.5 -183t157.5 -66q92 0 146 53t62 153l19 230h-80l-18 -216q-6 -72 -37.5 -106t-91.5 -34q-67 0 -97 42.5t-22 127.5l21 215q5 51 17.5 75.5t40.5 35.5zM1266 1014l134 -431l48 116l-94 304zM1959 1180
l-103 -62l-298 -961q-29 -95 -60.5 -132t-85.5 -37q-52 0 -83 35.5t-31 94.5q0 21 11 60.5t33 104.5l241 725l-76 26l-241 -725q-28 -85 -38 -126.5t-10 -64.5q0 -92 54.5 -151t137.5 -59t135 51.5t87 165.5zM1773 714l-45 -118l107 -323q22 -65 33 -104.5t11 -60.5
q0 -59 -31 -94.5t-83 -35.5q-46 0 -76 27.5t-54 95.5l-16 46l-41 -119q33 -68 78.5 -99t110.5 -31q83 0 137.5 59t54.5 151q0 23 -9.5 64.5t-38.5 126.5z" />
</svg>