<?xml version="1.0" standalone="no"?>
<!DOCTYPE svg PUBLIC "-//W3C//DTD SVG 1.1//EN" "http://www.w3.org/Graphics/SVG/1.1/DTD/svg11.dtd">
<svg xmlns="http://www.w3.org/2000/svg" xmlns:xlink="http://www.w3.org/1999/xlink" version="1.1"
   viewBox="94 -151 2414 2169">
   <path fill="currentColor"
      d="M782 1655q-41 0 -88 -33t-80.5 -79t-33.5 -86q0 -28 22 -52l292 -299q28 -29 38 -63t17 -78l7 -46q10 -63 38.5 -118t76.5 -102l697 -688l50 50l-698 687q-39 39 -62 84t-31 101l-7 46q-7 49 -22 92t-55 84l-284 292q-5 5 -5 13q0 21 22.5 49.5t52.5 50t51 21.5
q6 0 13 -5l263 -269q50 -50 96.5 -67.5t103.5 -26.5l38 -6q57 -9 102.5 -31t85.5 -62l712 -700l50 49l-712 699q-49 49 -103.5 76.5t-119.5 38.5l-37 6q-51 8 -91.5 22t-75.5 51l-270 277q-20 22 -53 22zM390 1978q-20 0 -37 -17l-71 -71q-17 -17 -17 -37t17 -37l27 -27
q20 -20 48 -21.5t54 -26.5l23 -22l90 90l-22 22q-25 25 -27.5 55t-20.5 48l-27 27q-17 17 -37 17zM521 1831q-22 0 -48.5 -20t-45.5 -46.5t-19 -43.5q0 -8 4 -12l49 -54q16 -19 32 -19q7 0 12 4l125 -127l97 96l-122 122q2 8 2 13q0 13 -11 25l-52 53q-9 9 -23 9zM1549 977
q-12 0 -16 -10q-6 -14 -14 -26.5t-19 -24.5q-21 -22 -55 -41t-55 -41q-17 -18 -32 -43.5t-33 -44.5q-7 -8 -13.5 -13t-14.5 -9l76 -77q7 17 15 25q26 25 52 37t51 37q21 21 38 51t38 53q9 10 22 19.5t25 14.5q11 5 11 16q0 5 -6 13l-54 57q-7 7 -16 7zM1028 1254l-53 -56
q46 -35 69 -78.5t33 -107.5l7 -46q8 -51 24.5 -87.5t46.5 -65.5l695 -681l47 48l-695 681q-20 20 -33.5 48.5t-18.5 67.5l-6 46q-7 58 -32 104.5t-66 85.5l-18 -36q89 -65 182 -81l37 -6q35 -6 66 -21t59 -43l702 -686l47 47l-701 686q-37 36 -75.5 55.5t-84.5 27.5l-38 6
q-56 9 -103 31t-91 61zM2254 492q-33 0 -96 -42t-136 -107t-140 -136.5t-110 -133t-43 -93.5q0 -33 24 -57.5t56 -24.5q33 0 57 24t24 58q0 18 31 59t78.5 90.5t98.5 95t94 75.5t62 30q33 0 57 24t24 58q0 33 -24 56.5t-57 23.5z" />
</svg>