<?xml version="1.0" standalone="no"?>
<!DOCTYPE svg PUBLIC "-//W3C//DTD SVG 1.1//EN" "http://www.w3.org/Graphics/SVG/1.1/DTD/svg11.dtd">
<svg xmlns="http://www.w3.org/2000/svg" xmlns:xlink="http://www.w3.org/1999/xlink" version="1.1"
   viewBox="94 -151 2414 2169">
   <path fill="currentColor"
      d="M1300 1978q-109 0 -215.5 -19.5t-195.5 -53t-147 -76t-70 -87.5l-161 -619q-18 -33 -29.5 -75t-11.5 -79q0 -65 36.5 -123t100.5 -101l42 68q-99 69 -99 156q0 28 9.5 61.5t22.5 58.5q47 9 100 32.5t99.5 55.5t75.5 67q44 -37 98 -54.5t114 -17.5q71 0 133.5 33.5
t97.5 62.5q35 -29 97.5 -62.5t133.5 -33.5q60 0 114.5 17.5t97.5 54.5q29 -35 76 -67t99.5 -55.5t99.5 -32.5q14 -25 23 -58.5t9 -61.5q0 -87 -99 -156l42 -68q65 43 101 101t36 123q0 37 -11.5 79t-29.5 75l-161 619q-12 45 -70 87.5t-147 76t-195.5 53t-215.5 19.5z
M1300 1898q20 0 40 -1l40 -2l17 -333q1 -19 12 -28.5t27 -9.5t28.5 11t10.5 34l-17 316q86 -13 169 -37l50 -347q3 -19 14 -26.5t24 -7.5q16 0 29 11.5t9 38.5l-43 303q59 -23 97 -49t44 -49l144 -547q-64 18 -132 60.5t-124 96.5q-36 -36 -88 -58t-120 -22
q-36 0 -77.5 13.5t-81.5 37.5t-72 56q-32 -32 -72 -56t-81.5 -37.5t-77.5 -13.5q-68 0 -120 22t-88 58q-56 -54 -124 -96.5t-132 -60.5l144 547q6 23 45 49t98 49l-44 -303q-4 -27 9 -38.5t29 -11.5q14 0 24.5 7.5t13.5 26.5l50 347q40 12 82.5 21.5t86.5 15.5l-17 -316
q-1 -23 11 -34t28 -11t27 9.5t12 28.5l17 333l40 2t39 1zM891 771q-25 0 -42 -17t-17 -42q0 -24 17 -41t42 -17q24 0 41 17t17 41q0 25 -17 42t-41 17zM1145 786l-66 -56q-9 -8 -11 -20.5t7 -22.5q20 -24 44 -4l66 56q10 8 11.5 20.5t-7.5 22.5q-21 23 -44 4zM1063 481
q-26 14 -42 -12l-43 -75q-6 -11 -4 -23t14 -18q29 -14 43 11l43 75q15 28 -11 42zM1298 618q-26 14 -42 -12l-43 -75q-6 -11 -4 -22.5t14 -18.5q26 -15 43 11l43 75q6 11 3.5 23t-14.5 19zM1415 807q-11 -7 -14 -19.5t3 -22.5l44 -76q5 -10 17.5 -13.5t23.5 2.5
q12 7 14.5 19.5t-3.5 23.5l-44 75q-15 27 -41 11zM1300 946q341 0 500.5 -61.5t159.5 -180.5q0 -74 -53.5 -142.5t-139.5 -103.5q0 -99 -58.5 -188.5t-169 -162t-266.5 -120.5q-10 64 -58 104.5t-135 69.5q-117 38 -182.5 114.5t-65.5 174.5q0 13 2 35.5t8 52.5
q-108 53 -159.5 104t-51.5 103q0 60 77 105.5t226.5 70.5t365.5 25zM1300 1024q-364 0 -556.5 -71.5t-192.5 -207.5q0 -61 33 -108.5t80.5 -83t90.5 -59.5q-3 -23 -3 -44q0 -125 81 -222t223 -143q83 -26 117 -58.5t34 -87.5q0 -17 -4 -41q131 22 244.5 72t200 120t137 152
t53.5 168q92 42 147 123.5t55 170.5q0 162 -182 241t-558 79zM1289 323q-25 0 -42 -17t-17 -42q0 -24 17 -41t42 -17q24 0 41 17t17 41q0 25 -17 42t-41 17zM1679 695q-25 0 -42 -17t-17 -42q0 -24 17 -41t42 -17q24 0 41 17t17 41q0 25 -17 42t-41 17zM1492 432
q-11 -7 -14.5 -19.5t3.5 -23.5l44 -74q15 -27 42 -11q11 7 13.5 19t-3.5 23l-43 74q-16 27 -42 12z" />
</svg>