<?xml version="1.0" standalone="no"?>
<!DOCTYPE svg PUBLIC "-//W3C//DTD SVG 1.1//EN" "http://www.w3.org/Graphics/SVG/1.1/DTD/svg11.dtd">
<svg xmlns="http://www.w3.org/2000/svg" xmlns:xlink="http://www.w3.org/1999/xlink" version="1.1"
   viewBox="94 -151 2414 2169">
   <path fill="currentColor"
      d="M256 1978q44 -187 92.5 -296.5t123.5 -189.5l942 -1009l48 46l-942 1009q-56 61 -95 138t-73 197l-21 -9l1186 -1185l36 44l-1186 1183l-6 -24q82 -23 139.5 -45t104 -51t93.5 -73l1014 -939l46 48l-1015 940q-43 40 -84 68.5t-92.5 51t-125.5 45t-185 51.5zM2032 1075
q-32 0 -58 -24l-283 -253q-22 -19 -51 -19q-77 0 -130 -53q-55 -55 -55 -132q0 -29 -19 -51l-253 -283q-24 -26 -24 -58q0 -34 29 -61t63 -27q31 0 57 23l283 253q23 20 52 20q76 0 129 53q55 55 55 131q0 29 20 52l253 283q23 26 23 57q0 34 -28.5 61.5t-62.5 27.5z
M2016 1002q12 10 24 7t16 -14.5t-8 -24.5l-251 -280q-37 -41 -37 -96q0 -47 -36 -83q-34 -34 -81 -34q-55 0 -96 -37l-281 -254q-11 -10 -23 -6.5t-16 15t8 24.5l251 280q36 40 36 95q0 49 36 84q35 34 82 34q55 0 95 36zM1643 654q-26 0 -44 -18t-18 -44q0 -24 18.5 -41.5
t43.5 -17.5q24 0 41.5 17.5t17.5 41.5q0 25 -17.5 43.5t-41.5 18.5zM1854 697l-51 -43l350 -410q14 -17 -4 -51t-41 -59q-22 -24 -56.5 -39t-49.5 -2l-413 350l-43 -51l424 -357q10 -8 25 -12t30 -4q64 0 131 67q71 71 71 136q0 14 -4 29t-12 25zM2210 295l-32 -3l6 -67
l32 3q25 2 43 -17.5t18 -50.5q0 -42 -30.5 -87.5t-75 -76.5t-85.5 -31q-31 0 -50.5 19.5t-17.5 46.5l3 32l-67 7l-3 -33q-5 -56 35.5 -97.5t99.5 -41.5q60 0 119.5 40.5t99 100.5t39.5 121q0 60 -39.5 100t-94.5 35zM2095 259q-14 -27 -48 -61q-35 -35 -59 -50
q20 -11 46 -5.5t45 23.5t23 45t-7 48zM2025 329q-10 -14 -22.5 -30.5t-29.5 -32.5q-19 -18 -33 -30t-28 -22q22 -11 48.5 -5.5t46.5 24.5q20 18 24.5 46t-6.5 50zM1958 416q-10 -17 -25.5 -35.5t-34.5 -37.5q-21 -21 -37 -34t-33 -23q24 -14 55.5 -8t54.5 28q23 21 28.5 53
t-8.5 57zM1875 505q-11 -18 -27 -37.5t-36 -39.5q-22 -22 -39.5 -36t-34.5 -24q26 -14 58.5 -8t57.5 29q24 22 29.5 56t-8.5 60z" />
</svg>