<?xml version="1.0" standalone="no"?>
<!DOCTYPE svg PUBLIC "-//W3C//DTD SVG 1.1//EN" "http://www.w3.org/Graphics/SVG/1.1/DTD/svg11.dtd">
<svg xmlns="http://www.w3.org/2000/svg" xmlns:xlink="http://www.w3.org/1999/xlink" version="1.1"
   viewBox="94 -151 2414 2169">
   <path fill="currentColor"
      d="M1924 849l-39 -70q95 -59 147.5 -155.5t52.5 -209.5q0 -120 -58.5 -219t-157 -158t-218.5 -59q-98 0 -185 40.5t-146 108t-74 149.5l-79 -14q20 -102 90 -184.5t173.5 -131t220.5 -48.5q142 0 258.5 70t186 187t69.5 259q0 133 -64 248.5t-177 186.5zM457 1833
q-72 0 -121.5 -51t-49.5 -125q0 -22 2 -43t8 -44q5 -17 6.5 -32t1.5 -27q0 -46 -29.5 -85t-97.5 -81q47 -19 115 -19q104 0 180 48t117.5 122.5t41.5 153.5t-49 131t-125 52zM457 1758q44 0 71.5 -30t27.5 -78q0 -62 -29.5 -116t-79.5 -91t-112 -46q22 25 33.5 54t11.5 62
q0 35 -9 76q-4 19 -7 35t-3 33q0 43 27.5 72t68.5 29zM1152 1852q-110 0 -197.5 -47.5t-138 -130t-50.5 -186.5q0 -65 20.5 -129.5t60.5 -129.5l-712 -28v-80l859 33q-76 94 -112 177t-36 157q0 82 39.5 146t109 101t157.5 37q76 0 140 -32l41 69q-83 43 -181 43zM276 979
v-80h860v80h-860zM1651 1978q-118 0 -222 -49.5t-174.5 -133.5t-88.5 -188l80 -13q14 83 72.5 152.5t146 110.5t186.5 41q122 0 220.5 -60.5t156 -162.5t57.5 -224h80q0 144 -68.5 264t-185 191.5t-260.5 71.5zM292 550q-68 0 -115 -19q68 -42 97.5 -81t29.5 -85
q0 -12 -1.5 -27t-6.5 -32q-6 -23 -8 -44t-2 -43q0 -74 49.5 -125t121.5 -51q76 0 125 51.5t49 131.5q0 79 -41.5 153.5t-117.5 122.5t-180 48zM335 479q62 -10 112 -46.5t79.5 -90.5t29.5 -116q0 -48 -27.5 -78t-71.5 -30q-41 0 -68.5 28.5t-27.5 72.5q0 16 3 32.5t7 35.5
q9 40 9 76q0 33 -11.5 62t-33.5 54zM135 760v-80l712 -28q-40 -65 -60.5 -129.5t-20.5 -129.5q0 -104 50.5 -186.5t138 -130t197.5 -47.5q96 0 180 43l-41 69q-66 -32 -139 -32q-88 0 -157.5 37t-109 101t-39.5 146q0 74 36 156.5t112 177.5zM1494 1352q-111 -6 -202 -62.5
t-145 -148.5t-54 -204q0 -113 54 -204.5t145 -147.5t202 -62v80q-89 6 -162 51.5t-116 118.5t-43 164q0 90 43 164t116 119.5t162 51.5v80zM1823 1586v-80q117 -3 219 -47.5t179 -122t120.5 -179.5t43.5 -220q0 -157 -79.5 -290.5t-217.5 -208.5l40 -70q156 85 246.5 238.5
t90.5 330.5q0 134 -49.5 250.5t-138 205t-204.5 139.5t-250 54z" />
</svg>