<?xml version="1.0" standalone="no"?>
<!DOCTYPE svg PUBLIC "-//W3C//DTD SVG 1.1//EN" "http://www.w3.org/Graphics/SVG/1.1/DTD/svg11.dtd">
<svg xmlns="http://www.w3.org/2000/svg" xmlns:xlink="http://www.w3.org/1999/xlink" version="1.1"
   viewBox="94 -151 2414 2169">
   <path fill="currentColor"
      d="M1539 1655q-242 0 -429.5 -37t-345.5 -118l9 -87q146 86 331.5 124t434.5 38q446 0 668.5 -110t222.5 -327q0 -341 -108.5 -590t-308 -384.5t-474.5 -135.5q-274 0 -474 135.5t-308.5 384.5t-108.5 590q0 39 6 68l-75 31q-6 -22 -8.5 -46.5t-2.5 -52.5
q0 -367 120.5 -633.5t339 -411.5t511.5 -145q294 0 512 145t338.5 411.5t120.5 633.5q0 517 -971 517zM375 1722q-47 0 -76.5 -29.5t-29.5 -74.5q0 -28 13 -51l54 25q-7 14 -7 26q0 44 46 44q32 0 50.5 -26.5t18.5 -72.5q0 -41 -12.5 -70t-38.5 -62l54 -28q32 37 44.5 75
t12.5 85q0 70 -35 114.5t-94 44.5zM539 1670q-28 0 -54 -11.5t-40 -33.5l49 -34q14 19 45 19q18 0 37 -11l35 48q-32 23 -72 23zM709 1751q-64 0 -105 -37t-41 -96q0 -60 41 -97t105 -37q65 0 104.5 37t39.5 97q0 59 -39.5 96t-104.5 37zM709 1691q40 0 62 -19.5t22 -53.5
q0 -74 -84 -74q-40 0 -63 19.5t-23 54.5q0 34 23 53.5t63 19.5zM449 1928q-158 0 -258.5 -80.5t-100.5 -219.5q0 -134 91 -225t284 -155q80 -26 135 -59.5t109 -77.5l44 -36q56 -45 93.5 -62t71.5 -17q54 0 86 35.5t32 89.5q0 57 -33.5 117.5t-90 112t-125.5 81.5l-32 -62
q57 -24 105 -67.5t77 -92.5t29 -89q0 -26 -15 -40.5t-37 -14.5q-21 0 -45.5 13t-70.5 51l-44 36q-59 48 -120.5 84t-146.5 64q-172 56 -249.5 130.5t-77.5 183.5t79.5 169.5t209.5 60.5q86 0 158.5 -38.5t97.5 -103.5l72 7q-18 63 -67.5 109t-117.5 71t-143 25zM599 1537
q0 -58 -13 -95.5t-41 -75.5l55 -26q32 43 45.5 87.5t13.5 109.5h-60zM382 1182l-173 -86l205 -103zM798 1532l-57 -17q4 -13 5.5 -26t1.5 -29q0 -45 -11 -78t-38 -73l55 -25q30 43 42.5 83t12.5 90q0 39 -11 75zM288 1067q-37 -64 -57.5 -133.5t-20.5 -137.5q0 -32 2.5 -66
t8.5 -64h71q-7 29 -9.5 63.5t-2.5 66.5q0 61 18 122.5t50 117.5zM1539 1251q-277 0 -423 -205l55 -43q122 177 368 177t369 -177l56 43q-146 205 -425 205zM1178 825q-49 0 -79.5 -38.5t-30.5 -92.5q0 -53 31 -92.5t79 -39.5t79.5 39.5t31.5 92.5q0 54 -31.5 92.5
t-79.5 38.5zM1902 825q-48 0 -79.5 -38.5t-31.5 -92.5q0 -53 31.5 -92.5t79.5 -39.5t79.5 39.5t31.5 92.5q0 54 -31.5 92.5t-79.5 38.5z" />
</svg>