<?xml version="1.0" standalone="no"?>
<!DOCTYPE svg PUBLIC "-//W3C//DTD SVG 1.1//EN" "http://www.w3.org/Graphics/SVG/1.1/DTD/svg11.dtd">
<svg xmlns="http://www.w3.org/2000/svg" xmlns:xlink="http://www.w3.org/1999/xlink" version="1.1"
   viewBox="94 -151 2414 2169">
   <path fill="currentColor"
      d="M329 972q-34 0 -59.5 -14t-25.5 -48t31 -63l517 -510l110 -37l45 -117l206 -205q43 -42 75.5 -61t71.5 -19t71.5 19t75.5 61l878 869q31 29 31 63t-25.5 48t-59.5 14h-208l-763 -760l-191 191l49 174l-162 -63l-459 458h-208zM500 1822q-73 -42 -113 -69t-40 -40
q0 -15 51 -15q35 0 93.5 8.5t137.5 22.5q-48 -79 -48 -102q0 -19 27 -19q25 0 71.5 16t119.5 47q-18 -56 -18 -78q0 -27 17 -27q28 0 79.5 51t103.5 131v74h-481zM468 1729l-79 -16l132 -337l-69 -434l79 -13l72 456zM753 1516q-35 0 -63 -4q-5 -13 -5 -28q0 -17 5 -29
q16 -2 31.5 -3t31.5 -1t31.5 1t31.5 3q5 12 5 29q0 15 -5 28q-29 4 -63 4zM928 1978l32 -148l-5 -100v-84h692v92l-5 81v159h-235l-110 -52l-146 52h-223zM1044 1900h154l175 -73l49 73h134v-77l-15 -37v-62h-470l-50 39l23 60v77zM728 1342l95 -3l11 -236l-94 -3l-12 170
v72zM725 1397q-16 0 -27.5 -12t-11.5 -28v-253q0 -17 11.5 -28.5t27.5 -11.5h253q16 0 26.5 11.5t10.5 28.5v253q0 16 -10.5 28t-26.5 12h-253zM871 1354l97 -3l-6 -73l7 -165l-92 3l4 95zM1042 1617l-15 -48l-12 -57l116 -23l389 -63l9 95l-126 9l-151 41zM784 975
q-52 0 -97 -7q-7 -18 -7 -43q0 -23 7 -43q51 -8 97 -8q45 0 96 8q8 22 8 43q0 22 -8 43q-45 7 -96 7zM1112 1657v-527q0 -70 57 -122t131 -52t131 52t57 122v527h-70v-279h-236v279h-70zM1426 1355q11 0 19.5 -8.5t8.5 -20.5q0 -11 -8.5 -19.5t-19.5 -8.5t-19.5 8.5
t-8.5 19.5q0 12 8.5 20.5t19.5 8.5zM496 680v-336l211 -91v227zM1182 1273h236v-143q0 -40 -36 -73t-82 -33t-82 33t-36 73v143zM1522 1318l-303 -149l-153 -83l16 -61l24 -37l108 55l182 105l153 83zM1609 1822v-84q42 -24 100 -49.5t116 -47t104 -34.5t64 -13q10 0 10 8
q0 19 -19.5 59.5t-50.5 90.5q83 -34 152.5 -60t117 -41t62.5 -15q12 0 12 11q0 26 -27.5 75t-70.5 100h-570zM1628 1430l-72 -34l333 -356l64 58l-177 159zM1653 1399l-48 -39l-9 -256l25 -42l268 12q16 1 27.5 12t11.5 27v286h-275zM1659 1335h207v-210h-207v210z
M2055 1756v-314l-76 24l7 60l-180 10l-75 35l51 -67l159 -15l-7 -40l121 -124v-435l80 37v357l-39 80l39 43v330zM1574 810q-52 0 -98 -7q-7 -20 -7 -42q0 -23 7 -43q25 -3 49.5 -5t48.5 -2q23 0 47.5 2t49.5 5q8 22 8 43q0 20 -8 42q-46 7 -97 7zM1744 962q-24 0 -48 -1
t-47 -4q-7 -20 -7 -42t7 -42q50 -8 95 -8q43 0 93 8q8 22 8 42t-8 42q-23 3 -46.5 4t-46.5 1zM372 894h132l414 -415l125 -34l23 -112l234 -234l796 795h132q8 0 11 -8t-3 -14l-845 -837q-36 -35 -54.5 -46t-36.5 -11t-36.5 10.5t-54.5 46.5l-204 204l-44 121l-114 35
l-483 477q-6 6 -3 14t11 8z" />
</svg>