<?xml version="1.0" standalone="no"?>
<!DOCTYPE svg PUBLIC "-//W3C//DTD SVG 1.1//EN" "http://www.w3.org/Graphics/SVG/1.1/DTD/svg11.dtd">
<svg xmlns="http://www.w3.org/2000/svg" xmlns:xlink="http://www.w3.org/1999/xlink" version="1.1"
   viewBox="94 -151 2414 2169">
   <path fill="currentColor"
      d="M1030 701q-233 0 -415 -30t-286 -83.5t-104 -123.5q0 -56 62 -98.5t165 -71.5q131 -396 383 -396q55 0 105 12t90 12q41 0 90.5 -12t104.5 -12q252 0 383 396q104 29 165.5 71.5t61.5 98.5q0 70 -104 123.5t-286 83.5t-415 30zM1055 1978q-292 0 -463.5 -90t-186.5 -247
q-11 -119 -19.5 -244.5t-12.5 -285.5t-4 -381q0 -41 3 -80.5t7 -77.5l78 24q-4 32 -6 65.5t-2 68.5q0 220 4 379.5t12.5 284.5t19.5 240q12 118 158 191t412 73q25 0 49 -0.5t47 -1.5l62 76q-37 3 -77 4.5t-81 1.5zM1224 1975q-48 0 -89 -41.5t-41 -89.5q0 -45 34 -79
l277 -279q34 -34 79 -34q48 0 89.5 41.5t41.5 88.5q0 46 -34 81l-276 277q-34 35 -81 35zM1232 1906q20 0 37 -19l258 -259q18 -20 18 -38q0 -22 -22.5 -44.5t-45.5 -22.5q-21 0 -36 17l-259 260q-19 19 -19 37q0 22 23.5 45.5t45.5 23.5zM1036 1291q-85 0 -155 -33.5
t-125 -100.5l51 -44q47 57 102.5 82.5t126.5 25.5q72 0 128 -25.5t102 -82.5l51 44q-55 67 -125.5 100.5t-155.5 33.5zM1261 1967l47 -86q186 -29 288.5 -94t102.5 -150q0 -20 -6 -39.5t-19 -45.5q-19 -40 -30.5 -79.5t-11.5 -82.5v-44l83 88q5 28 13.5 53t21.5 51
q14 27 21.5 49.5t7.5 49.5q0 128 -136.5 215.5t-381.5 114.5zM768 983q-38 0 -63 -28t-25 -68t25 -68.5t63 -28.5t63.5 28.5t25.5 68.5t-25.5 68t-63.5 28zM1591 1556l-79 -80l98 -96l78 81zM1305 983q-38 0 -63.5 -28t-25.5 -68t25.5 -68.5t63.5 -28.5t63 28.5t25 68.5
t-25 68t-63 28zM1030 621q129 0 257.5 -13t234.5 -35.5t169.5 -50.5t63.5 -58q0 -20 -48 -46t-115 -45q-107 27 -248.5 41t-313.5 14t-313.5 -14t-248.5 -41q-67 19 -115 45t-48 46q0 30 63.5 58t169.5 50.5t234.5 35.5t257.5 13zM1944 1578q-119 0 -217 -58t-156 -156.5
t-58 -217.5t58 -217t156 -156t217 -58t217 58t156 156t58 217t-58 217.5t-155.5 156.5t-217.5 58zM1944 1496q97 0 176 -47.5t126.5 -127t47.5 -175.5t-47.5 -175.5t-126.5 -126.5t-176 -47q-96 0 -175.5 47t-127 126.5t-47.5 175.5t47.5 175.5t127 127t175.5 47.5z
M1030 348q152 0 275.5 -11t222.5 -32q-56 -161 -132 -244t-171 -83q-52 0 -98.5 12t-96.5 12t-96 -12t-99 -12q-94 0 -170.5 83t-132.5 244q99 21 223 32t275 11zM1632 889v-211q0 -17 -0.5 -35t-2.5 -35l77 -39q3 27 4.5 54t1.5 55v141zM2143 1329q-11 0 -20.5 -7.5
t-9.5 -19.5q0 -11 5 -18q37 -56 37 -128q0 -53 -20.5 -102.5t-64.5 -81.5q-11 -8 -11 -23q0 -11 8.5 -20t18.5 -9q9 0 18 7q52 41 79 101t27 128q0 90 -45 161q-7 12 -22 12zM2010 919q-11 0 -19 -5q-6 -4 -11.5 -7t-10.5 -5q-20 -9 -20 -26q0 -27 27 -27q20 0 40 14.5
t20 28.5q0 10 -7 18.5t-19 8.5z" />
</svg>