<?xml version="1.0" standalone="no"?>
<!DOCTYPE svg PUBLIC "-//W3C//DTD SVG 1.1//EN" "http://www.w3.org/Graphics/SVG/1.1/DTD/svg11.dtd">
<svg xmlns="http://www.w3.org/2000/svg" xmlns:xlink="http://www.w3.org/1999/xlink" version="1.1"
   viewBox="94 -151 2414 2169">
   <path fill="currentColor"
      d="M1834 1307q-79 0 -145.5 -51t-107 -135t-40.5 -183q0 -100 40.5 -183.5t107 -134.5t145.5 -51q112 0 193 62.5t157 142.5l156 164l-156 164q-76 79 -157 142t-193 63zM887 1484l-126 -114q45 -50 101 -82.5t90 -32.5q33 0 33 35q0 34 -27 89.5t-71 104.5zM1300 1978
l-164 -156q-79 -76 -142 -154.5t-63 -175.5q0 -79 51 -145.5t135 -107t183 -40.5q100 0 183.5 40.5t134.5 107t51 145.5q0 97 -62.5 175.5t-142.5 154.5zM1300 1868l110 -104q79 -75 129 -137t50 -135q0 -56 -40 -104.5t-105.5 -78.5t-143.5 -30q-77 0 -143 30t-106 78.5
t-40 104.5q0 73 50 135t129 137zM766 1307q-112 0 -193 -63t-157 -142l-156 -164l156 -164q76 -80 157 -142.5t193 -62.5q79 0 145.5 51t107 134.5t40.5 183.5q0 99 -40.5 183t-107 135t-145.5 51zM766 1227q56 0 104.5 -40t78.5 -106t30 -143q0 -78 -30 -143.5
t-78.5 -105.5t-104.5 -40q-88 0 -152.5 50t-139.5 129l-104 110l104 110q75 79 139.5 129t152.5 50zM1713 1484q-43 -49 -70.5 -104.5t-27.5 -89.5q0 -35 33 -35q35 0 90.5 32.5t100.5 82.5zM1110 1143l-16 -16q18 -20 44.5 -70t26.5 -119t-26.5 -119t-44.5 -70l16 -16
q23 18 71.5 42.5t118.5 24.5t119 -24.5t71 -42.5l16 16q-18 20 -44.5 70t-26.5 119t26.5 119t44.5 70l-16 16q-22 -18 -71 -42.5t-119 -24.5t-118.5 24.5t-71.5 42.5zM951 621q-34 0 -90 -33t-101 -82l126 -114q44 49 71 104t27 90t-33 35zM1834 1227q88 0 152.5 -50
t139.5 -129l104 -110l-104 -110q-75 -79 -139.5 -129t-152.5 -50q-56 0 -104.5 40t-78.5 105.5t-30 143.5q0 77 30 143t78.5 106t104.5 40zM1300 597q78 0 143.5 -30t105.5 -78.5t40 -104.5q0 -73 -50 -135t-129 -137l-110 -104l-110 104q-79 75 -129 137t-50 135
q0 56 40 104.5t106 78.5t143 30zM1300 677q-99 0 -183 -40.5t-135 -107t-51 -145.5q0 -97 63 -175.5t142 -154.5l164 -156l164 156q80 76 142.5 154.5t62.5 175.5q0 79 -51 145.5t-134.5 107t-183.5 40.5zM1649 621q-33 0 -33 -35t27.5 -90t70.5 -104l126 114
q-45 49 -100.5 82t-90.5 33z" />
</svg>