<?xml version="1.0" standalone="no"?>
<!DOCTYPE svg PUBLIC "-//W3C//DTD SVG 1.1//EN" "http://www.w3.org/Graphics/SVG/1.1/DTD/svg11.dtd">
<svg xmlns="http://www.w3.org/2000/svg" xmlns:xlink="http://www.w3.org/1999/xlink" version="1.1"
   viewBox="94 -151 2414 2169">
   <path fill="currentColor"
      d="M1300 1477q-111 0 -208.5 -42t-171.5 -116t-116 -171.5t-42 -208.5q0 -149 72.5 -271t194.5 -194.5t271 -72.5t271 72.5t194.5 194.5t72.5 271q0 111 -42 208.5t-116 171.5t-171.5 116t-208.5 42zM568 1671q-31 -32 -31 -71.5t31 -70.5l79 -78q32 -32 71.5 -33t70.5 32
q32 32 32 71.5t-32 71.5l-79 79q-31 31 -70.5 31t-71.5 -32zM360 1039q-44 0 -72 -28t-28 -72q0 -45 28 -73t71 -28h112q45 0 73 28t28 73t-28 72.5t-73 27.5h-111zM1300 1978q-44 0 -72 -28t-28 -72v-111q0 -45 27.5 -73t72.5 -28t72.5 28t27.5 73v111q0 44 -28 72t-72 28z
M1300 1307q103 0 184 -48t127.5 -131.5t46.5 -188.5q0 -106 -46.5 -189t-127 -131t-184.5 -48q-103 0 -184 48t-127.5 131t-46.5 189q0 105 46.5 188.5t127.5 131.5t184 48zM789 428q-32 31 -71 30.5t-71 -31.5l-79 -78q-31 -32 -31 -71.5t31 -70.5q32 -32 71.5 -32t70.5 31
l79 79q32 31 32 71t-32 72zM1890 1672l-79 -79q-31 -32 -31 -71.5t31 -71.5q32 -33 71.5 -32t70.5 33l79 78q32 31 32 70.5t-32 71.5t-71.5 32t-70.5 -31zM2129 1039q-45 0 -73 -27.5t-28 -72.5t28 -73t73 -28h112q44 0 71.5 28t27.5 73q0 44 -28 72t-72 28h-111zM1300 210
q-45 0 -72.5 -28t-27.5 -73v-111q0 -44 28 -72t72 -28t72 28t28 72v111q0 45 -27.5 73t-72.5 28zM1811 428q-32 -32 -31.5 -72t31.5 -71l79 -79q31 -31 70.5 -31t71.5 32q32 31 32 70.5t-32 71.5l-79 78q-31 31 -70.5 31.5t-71.5 -30.5z" />
</svg>