<?xml version="1.0" standalone="no"?>
<!DOCTYPE svg PUBLIC "-//W3C//DTD SVG 1.1//EN" "http://www.w3.org/Graphics/SVG/1.1/DTD/svg11.dtd">
<svg xmlns="http://www.w3.org/2000/svg" xmlns:xlink="http://www.w3.org/1999/xlink" version="1.1"
   viewBox="94 -151 2414 2169">
   <path fill="currentColor"
      d="M1300 1978q-216 0 -404.5 -80.5t-331.5 -223.5t-223.5 -331.5t-80.5 -404.5t80.5 -404.5t223.5 -331.5t331.5 -223.5t404.5 -80.5q215 0 403.5 80.5t331.5 223.5t224 331.5t81 404.5t-81 404.5t-224 331.5t-331.5 223.5t-403.5 80.5zM1104 1615q-51 0 -111 -23l35 -64
q-46 19 -74 26.5t-52 7.5q-92 0 -152 -77q51 -10 79 -40q-94 -49 -94 -131q0 -47 30 -93q13 61 41 90t79 29q30 0 61 -19.5t62 -44.5l109 54l183 130l185 -126l105 -60q32 25 63.5 45.5t61.5 20.5q52 0 80 -29t41 -90q29 47 29 93q0 82 -93 131q28 30 78 40q-59 77 -152 77
q-23 0 -51.5 -7.5t-74.5 -26.5l36 64q-60 23 -112 23q-103 0 -196 -84q-93 84 -196 84zM1097 1295q-4 -16 -6 -30.5t-2 -30.5q0 -51 11 -111t24 -121l23 -102q-30 56 -58.5 114t-47.5 109.5t-19 90.5q0 64 75 81zM573 795q-17 0 -25 -16t-8 -46q0 -62 30.5 -113t81.5 -81
t112 -30q34 0 61 8q19 6 19 27q0 13 -7.5 22t-21.5 9q-8 0 -22.5 -3t-28.5 -3q-67 0 -115.5 48t-48.5 116q0 14 3 31q3 13 -5.5 22t-24.5 9zM774 1061q92 0 167.5 -44.5t120.5 -119.5t45 -165q0 -91 -45 -165.5t-120.5 -119t-167.5 -44.5q-91 0 -167 44.5t-121 119
t-45 165.5q0 90 45 165t121 119.5t167 44.5zM1300 1478q-56 0 -105.5 -36t-79.5 -92q-67 -8 -105 -44.5t-38 -91.5q0 -58 27 -123t64 -136.5t69 -148.5t42 -159l38 -2q11 33 11 82q0 77 -21 166.5t-42 177.5t-21 163q0 76 48 132.5t113 56.5t113 -56.5t48 -132.5t-21 -164
t-42 -177t-21 -166q0 -46 12 -82l37 2q11 81 43 158t68.5 149.5t63.5 137.5t27 122q0 55 -37.5 91.5t-104.5 44.5q-31 56 -80 92t-106 36zM1300 1898q199 0 373 -74.5t306 -206.5t206.5 -306t74.5 -373t-74.5 -373t-206.5 -306t-306 -206.5t-373 -74.5t-373 74.5t-306 206.5
t-206.5 306t-74.5 373t74.5 373t206.5 306t306 206.5t373 74.5zM1503 1295q75 -17 75 -81q0 -39 -18.5 -90.5t-47 -109.5t-59.5 -114l23 102q14 61 24.5 121t10.5 111q0 16 -2 30.5t-6 30.5zM1013 436l-239 -54l-189 27q-70 -3 -117 -23t-110 -72q27 -6 51 -26.5t48 -44
t53 -41t66 -17.5t87 28q-23 -69 -93 -124q56 -13 106 -13q76 0 137.5 29t89.5 85q25 -19 47.5 -40.5t44.5 -48.5q57 89 57 192q0 39 -9.5 75t-29.5 68zM774 1131q-97 0 -180 -42t-139.5 -115t-75.5 -164q-28 -18 -61.5 -31.5t-67.5 -20.5v-144q78 0 151 -38
q45 -107 146.5 -175t226.5 -68q127 0 232 72.5t149 197.5q15 5 30 5q25 0 56 -13t59 -13q29 0 60 13t55 13q16 0 31 -6q44 -125 148.5 -197t231.5 -72q126 0 227.5 68t145.5 175q74 38 151 38v144q-33 7 -67 20.5t-61 31.5q-19 91 -76 164t-139.5 115t-180.5 42
q-104 0 -192 -49t-144.5 -137t-65.5 -206q-23 -29 -56.5 -43.5t-67.5 -14.5t-67 14.5t-57 43.5q-9 118 -65 206t-144 137t-193 49zM1826 1061q92 0 167.5 -44.5t120.5 -119.5t45 -165q0 -91 -45 -165.5t-120.5 -119t-167.5 -44.5q-91 0 -167 44.5t-121 119t-45 165.5
q0 90 45 165t121 119.5t167 44.5zM1643 795q-17 0 -25 -16t-8 -46q0 -62 30.5 -113t81.5 -81t112 -30q34 0 61 8q19 6 19 27q0 13 -7.5 22t-21.5 9q-8 0 -22.5 -3t-28.5 -3q-67 0 -115.5 48t-48.5 116q0 14 3 31q3 13 -5.5 22t-24.5 9zM1588 436q-20 -32 -30 -68t-10 -75
q0 -103 57 -192q23 27 45.5 48.5t47.5 40.5q28 -56 89.5 -85t136.5 -29q51 0 106 13q-71 57 -93 124q52 -28 87 -28q38 0 67 17.5t53 41t48 44t51 26.5q-64 52 -110 72t-117 23l-189 -27z" />
</svg>