<?xml version="1.0" standalone="no"?>
<!DOCTYPE svg PUBLIC "-//W3C//DTD SVG 1.1//EN" "http://www.w3.org/Graphics/SVG/1.1/DTD/svg11.dtd">
<svg xmlns="http://www.w3.org/2000/svg" xmlns:xlink="http://www.w3.org/1999/xlink" version="1.1"
   viewBox="94 -151 2414 2169">
   <path fill="currentColor"
      d="M677 1373q-115 0 -206 -55.5t-143.5 -152.5t-52.5 -221q0 -152 65.5 -262.5t184.5 -171t281 -60.5h690q163 0 281.5 60.5t183 171t64.5 262.5q0 124 -52 221t-142 152.5t-206 55.5q-115 0 -181 -29.5t-102.5 -72.5t-62.5 -85q-37 -61 -63.5 -82t-64.5 -21q-39 0 -65 21
t-62 81q-26 43 -63 86.5t-103 72.5t-181 29zM1069 1978q-69 0 -69 -74v-182h70v169q0 10 2.5 13.5t10.5 3.5h138q8 0 10.5 -3.5t2.5 -13.5v-169h70v182q0 74 -69 74h-166zM1151 1767q-130 0 -205.5 -66.5t-80.5 -190.5h574q-4 124 -80.5 190.5t-207.5 66.5zM1151 1715
q90 0 149.5 -38.5t75.5 -114.5h-448q15 77 73.5 115t149.5 38zM1151 1424q-104 0 -194 -25t-146 -70l51 -55q46 35 122.5 55t166.5 20t167 -20t122 -55l52 55q-56 45 -146.5 70t-194.5 25zM677 1298q92 0 144 -21.5t82 -56.5t55 -76q47 -77 89.5 -106.5t103.5 -29.5
q60 0 102.5 29.5t89.5 105.5q26 41 56 76.5t82.5 57t143.5 21.5q95 0 168 -45.5t115 -125.5t42 -183q0 -197 -120.5 -308t-333.5 -111h-690q-212 0 -334 111t-122 308q0 103 42.5 183t116.5 125.5t168 45.5zM687 1201q-98 0 -162.5 -73t-64.5 -185q0 -154 92 -237t263 -83
h672q171 0 263 83t92 237q0 112 -64.5 185t-162.5 73q-87 0 -140.5 -49.5t-103.5 -113.5q-40 -53 -71 -80t-64.5 -37t-84.5 -10q-57 0 -92 12.5t-62.5 40.5t-64.5 74q-50 64 -104 113.5t-141 49.5zM687 1131q60 0 98.5 -35.5t87.5 -98.5q37 -48 72.5 -83t83.5 -54t122 -19
q67 0 113 15t84.5 49t81.5 92q48 64 86.5 99t98.5 35q69 0 113 -52.5t44 -135.5q0 -250 -285 -250h-672q-285 0 -285 250q0 83 44 135.5t113 52.5zM1269 1933v-75h378q164 0 288.5 -70t194.5 -195t70 -290v-245h75v245q0 186 -80 328t-221.5 222t-326.5 80h-378zM1273 1753
l20 -75h352q171 0 271 -101t100 -274v-245h75v245q0 136 -55 237t-155.5 157t-235.5 56h-372zM2078 1106q-110 0 -110 -110v-106q0 -111 110 -111h136q111 0 111 111v106q0 110 -111 110h-136zM2081 1031h130q25 0 32 -7t7 -32v-98q0 -26 -7 -33t-32 -7h-130q-24 0 -31 7
t-7 33v98q0 25 7 32t31 7zM2016 826v-562h75v562h-75zM2200 826v-562h75v562h-75zM2078 317q-110 0 -110 -110v-198q0 -111 110 -111h136q111 0 111 111v198q0 110 -111 110h-136zM2081 242h130q25 0 32 -7t7 -32v-190q0 -26 -7 -33t-32 -7h-130q-24 0 -31 7t-7 33v190
q0 25 7 32t31 7z" />
</svg>