<?xml version="1.0" standalone="no"?>
<!DOCTYPE svg PUBLIC "-//W3C//DTD SVG 1.1//EN" "http://www.w3.org/Graphics/SVG/1.1/DTD/svg11.dtd">
<svg xmlns="http://www.w3.org/2000/svg" xmlns:xlink="http://www.w3.org/1999/xlink" version="1.1"
   viewBox="94 -151 2414 2169">
   <path fill="currentColor"
      d="M1191 1978q-180 0 -340.5 -60.5t-284.5 -167t-195 -247.5t-71 -301q0 -152 108 -267t294.5 -180t421.5 -65q149 0 305.5 31t343.5 99l-19 82q-178 -71 -325 -102.5t-302 -31.5q-157 0 -293 31t-238 87.5t-159.5 133t-57.5 166.5q0 94 53 167.5t140.5 127.5t193 89.5
t213.5 52.5t199 17q191 0 382 -68.5t358 -203.5t284 -333q17 34 24.5 61.5t7.5 56.5q0 43 -26.5 93.5t-71.5 93.5q-62 58 -102 104.5t-75 93.5q-123 162 -238.5 258.5t-243 139t-286.5 42.5zM592 1406q-51 0 -51 -38q0 -16 13.5 -27.5t32.5 -11.5q51 0 51 38
q0 16 -13.5 27.5t-32.5 11.5zM758 1515q-24 0 -37.5 -12t-13.5 -34q0 -18 13.5 -28t36.5 -10q24 0 37 11t13 31q0 42 -49 42zM504 1218q-52 0 -52 -36q0 -38 53 -38q47 0 47 36q0 38 -48 38zM992 1576q-24 0 -39 -11t-15 -29q0 -44 54 -44q26 0 41.5 11t15.5 29
q0 21 -14.5 32.5t-42.5 11.5zM577 1041q-34 0 -34 -33q0 -19 15.5 -31t39.5 -12q17 0 27.5 9.5t10.5 25.5q0 17 -17.5 29t-41.5 12zM1237 1587q-25 0 -40 -11t-15 -28q0 -20 15 -32t40 -12t39.5 12t14.5 32q0 16 -15.5 27.5t-38.5 11.5zM741 940q-16 0 -27 -9t-11 -23
q0 -17 15 -27.5t37 -10.5q18 0 29 9.5t11 26.5q0 14 -16 24t-38 10zM1502 1533q-17 0 -27.5 -10t-10.5 -26q0 -19 21 -33.5t47 -14.5q41 0 41 33q0 21 -21 36t-50 15zM1199 1378q142 0 267.5 -32.5t224.5 -81.5t161 -97q-111 -49 -235 -82.5t-252 -51.5t-253 -18
q-188 0 -298 45.5t-110 122.5q0 60 60 104t171 67.5t264 23.5zM941 896q-19 0 -30 -9t-11 -23q0 -16 14 -26t36 -10q20 0 31.5 9.5t11.5 25.5q0 19 -17.5 26t-34.5 7zM1198 1456q-177 0 -305.5 -33t-198.5 -94t-70 -145q0 -115 131.5 -181t356.5 -66q204 0 412.5 49.5
t451.5 155.5v26q-188 146 -380 217t-398 71zM1154 888q-23 0 -36.5 -9t-13.5 -25t13.5 -26t35.5 -10q50 0 50 35t-49 35zM1721 1438q-33 0 -33 -30q0 -18 18.5 -32.5t40.5 -14.5q14 0 23 9t9 22q0 16 -19 31t-39 15zM1363 909q-57 0 -57 -35q0 -16 12 -24.5t32 -8.5
q27 0 42 9t15 25q0 17 -10.5 25.5t-33.5 8.5zM1558 961q-24 0 -40.5 -10.5t-16.5 -26.5q0 -32 37 -32q25 0 40 10t15 27q0 32 -35 32zM1900 1316q-11 0 -20 -8.5t-9 -18.5q0 -17 18.5 -33t37.5 -16q28 0 28 28q0 17 -18 32.5t-37 15.5zM1950 1094q-8 -28 -12.5 -55.5
t-4.5 -53.5q0 -61 17 -119.5t57 -134.5q42 79 57 131t15 122q0 25 -4.5 53t-12.5 58q48 -11 83 -43.5t54 -82.5t19 -112q0 -42 -8 -89t-23 -95l-182 -585l-180 583q-14 45 -21.5 92t-7.5 91q0 65 17.5 114t51.5 80.5t85 45.5zM2004 1179q-134 0 -212.5 -87t-78.5 -235
q0 -53 9.5 -108.5t27.5 -110.5l237 -740h36l239 740q38 120 38 219q0 148 -79.5 235t-216.5 87z" />
</svg>