<?xml version="1.0" standalone="no"?>
<!DOCTYPE svg PUBLIC "-//W3C//DTD SVG 1.1//EN" "http://www.w3.org/Graphics/SVG/1.1/DTD/svg11.dtd">
<svg xmlns="http://www.w3.org/2000/svg" xmlns:xlink="http://www.w3.org/1999/xlink" version="1.1"
   viewBox="94 -151 2414 2169">
   <path fill="currentColor"
      d="M1863 1978q-130 0 -278.5 -58t-288 -158.5t-242.5 -227.5l62 -50q92 114 220.5 208t267 150t259.5 56q103 0 171.5 -27.5t109 -77.5t58 -119t17.5 -152q-20 49 -64 80.5t-106 46t-137 14.5q-136 0 -294 -78t-361 -249l82 -36q169 142 310.5 212.5t262.5 70.5
q86 0 143 -19t85 -61.5t28 -111.5q0 -106 -49 -233.5t-135.5 -263t-199.5 -267.5t-242 -249t-263 -207t-262 -141.5t-239 -51.5q-85 0 -137 37t-52 115q0 31 16 70.5t43 68.5q-74 -17 -106.5 -69.5t-32.5 -102.5q0 -93 75.5 -146t192.5 -53q128 0 271.5 57t290.5 157.5
t287.5 232.5t262 282.5t214 307.5t145 308t52.5 282q0 147 -48.5 248t-145.5 153t-243 52zM1000 1796q-21 0 -41.5 -11.5t-36.5 -34.5l-175 -261q-7 -10 -15 -14t-20 -3l-307 24q-48 4 -76.5 -21t-28.5 -61q0 -32 24 -63l199 -255q9 -12 9 -23q0 -8 -4 -16l-126 -280
q-9 -20 -9 -40q0 -35 25 -60t61 -25q18 0 35 7l292 112q9 3 15 3q11 0 21 -8l244 -208q30 -26 65 -26q34 0 58.5 25.5t22.5 69.5l-11 318q-1 22 18 34l267 161q24 14 35.5 35t11.5 44q0 26 -17 49t-49 31l-303 78q-18 5 -23 22l-80 327q-8 34 -31 52t-50 18zM994 1702
q11 0 14 -14l76 -308q16 -64 80 -80l284 -73q12 -3 12 -13q0 -8 -8 -13l-258 -155q-55 -33 -53 -99l11 -308q0 -17 -11 -17q-5 0 -13 6l-236 200q-31 26 -71 26q-21 0 -38 -7l-282 -107q-6 -2 -9 -2q-13 0 -13 12q0 4 3 10l120 268q10 21 10 47q0 37 -22 66l-195 249
q-6 7 -6 14q0 12 18 11l293 -24q40 -3 65 7t48 45l168 250q6 9 13 9z" />
</svg>