<?xml version="1.0" standalone="no"?>
<!DOCTYPE svg PUBLIC "-//W3C//DTD SVG 1.1//EN" "http://www.w3.org/Graphics/SVG/1.1/DTD/svg11.dtd">
<svg xmlns="http://www.w3.org/2000/svg" xmlns:xlink="http://www.w3.org/1999/xlink" version="1.1"
   viewBox="94 -151 2414 2169">
   <path fill="currentColor"
      d="M1056 1433q-182 -116 -264.5 -233t-82.5 -262q0 -182 115.5 -317.5t380.5 -262.5q162 -78 251 -137.5t123.5 -121.5t34.5 -147v-26.5t-2 -27.5h279q2 16 2.5 32t0.5 31q0 121 -44 213.5t-117 163.5t-160 125t-174 97q-162 81 -251 140t-124 113.5t-35 124.5
q0 76 74 155.5t256 198.5l-85 37q-178 -118 -251.5 -206.5t-73.5 -184.5q0 -88 40 -157t138.5 -137.5t274.5 -153.5q235 -114 341.5 -234.5t110.5 -278.5h-120q-4 93 -46.5 164t-139.5 138t-267 149q-244 118 -348 236t-104 274q0 129 80.5 235t264.5 215zM712 1978
q-1 -16 -2 -31.5t-1 -30.5q0 -122 44 -215.5t116.5 -164.5t160 -125.5t174.5 -96.5q168 -82 256.5 -139t121 -111t32.5 -126q0 -82 -76.5 -165t-246.5 -185l81 -41q168 103 245 196.5t77 194.5q0 68 -20.5 122.5t-70.5 104t-138 102.5t-224 119q-234 113 -340.5 234
t-111.5 279h120q4 -91 47 -162.5t141 -140.5t265 -149q244 -117 348 -235t104 -274q0 -129 -78.5 -233t-260.5 -213l67 -50q186 115 269 232.5t83 263.5q0 181 -116.5 316t-379.5 263q-157 77 -246.5 138t-126 122.5t-36.5 142.5q0 13 1 28l2 30h-280zM942 1886l17 -77h692
v77h-709zM1031 1695l114 -78h352l81 78h-547zM1610 1978q2 -14 2.5 -28t0.5 -27q0 -67 -27 -123t-98.5 -118.5t-206.5 -145.5l90 -35q115 73 184 135t101 125t36 138h122q-4 -143 -80.5 -250t-244.5 -202l72 -47q173 103 253 226.5t80 286.5q0 16 -0.5 32t-2.5 33h-281z
M1108 1188l-101 -78h587l-50 78h-436zM953 980v-86h719v86h-719zM1007 764l101 -78h436l50 78h-587zM1039 479q-175 -111 -254 -234t-79 -289q0 -14 1 -28.5t2 -29.5h282l-2 28t-1 27q0 63 26 119.5t95 119.5t197 147l-85 39q-110 -76 -178 -140t-99.5 -127t-35.5 -134h-121
q4 139 77.5 243t238.5 205zM1167 258l-113 -77h489l-24 77h-352zM976 67l-17 -77h677v77h-660z" />
</svg>