<?xml version="1.0" standalone="no"?>
<!DOCTYPE svg PUBLIC "-//W3C//DTD SVG 1.1//EN" "http://www.w3.org/Graphics/SVG/1.1/DTD/svg11.dtd">
<svg xmlns="http://www.w3.org/2000/svg" xmlns:xlink="http://www.w3.org/1999/xlink" version="1.1"
   viewBox="94 -151 2414 2169">
   <path fill="currentColor"
      d="M120 1828v-1780h2360v1780h-2360zM165 1621v-70h901v70h-901zM527 1218q-3 -80 -59.5 -130.5t-137.5 -53.5v-596q81 -3 137.5 -54t59.5 -130h547v59h-500q-7 62 -61.5 112t-124.5 58v506q70 7 124.5 57.5t61.5 112.5h500v59h-547zM748 1103v-85q-40 -4 -79.5 -22.5
t-66.5 -43.5l35 -53q29 24 61 40t70 16q47 0 70 -22.5t23 -61.5q0 -43 -28 -67.5t-77 -49.5q-60 -30 -96.5 -63.5t-36.5 -91.5q0 -59 34.5 -97.5t90.5 -46.5v-85h56v84q41 4 70 22t52 42l-41 46q-23 -23 -46 -35.5t-57 -12.5q-39 0 -61 21.5t-22 57.5t25 57.5t72 43.5
q63 29 101.5 65.5t38.5 104.5q0 61 -35 101.5t-97 49.5v86h-56zM1031 1782v-1697h70v1697h-70zM200 1748h2200v-324h-861v-80h861v-1216h-2200v1216h863v80h-863v324zM1539 1621v-70h896v70h-896zM1499 1782v-1697h70v1697h-70zM1526 1218v-59h500q8 -62 62.5 -112.5
t123.5 -57.5v-506q-69 -8 -123.5 -58t-62.5 -112h-500v-59h548q3 79 59.5 130t137.5 54v596q-81 3 -137.5 53.5t-59.5 130.5h-548z" />
</svg>