<?xml version="1.0" standalone="no"?>
<!DOCTYPE svg PUBLIC "-//W3C//DTD SVG 1.1//EN" "http://www.w3.org/Graphics/SVG/1.1/DTD/svg11.dtd">
<svg xmlns="http://www.w3.org/2000/svg" xmlns:xlink="http://www.w3.org/1999/xlink" version="1.1"
   viewBox="94 -151 2414 2169">
   <path fill="currentColor"
      d="M1108 1978q-49 0 -87.5 -8.5t-54.5 -19.5q27 -72 48.5 -150.5t37 -157t24 -151t8.5 -133.5l-40 11l-20 92q5 25 8.5 52.5t3.5 55.5q0 91 -44.5 141.5t-135.5 50.5q-59 0 -96.5 -18t-65.5 -67t-59 -142q-42 -26 -85 -58.5t-75 -72.5q-35 -5 -53.5 -15.5t-33.5 -32.5
q-70 -8 -129 -37t-109 -76q39 -35 72.5 -57.5t72 -37t93.5 -24.5q18 -77 89.5 -131t168.5 -62q20 -56 74.5 -89t116.5 -33q15 0 29.5 2t28.5 6q41 -57 93 -119.5t112 -123.5q92 -94 162.5 -147t136 -75.5t141.5 -22.5q65 0 103 14.5t67 29t65 14.5q16 0 36.5 -12t33.5 -25
q26 -28 49 -47.5t50 -31.5t64 -15q49 -4 78.5 -15t51 -35.5t45.5 -68.5q53 0 109 20.5t99.5 53t58.5 68.5q-61 64 -152.5 124t-225.5 119q-30 13 -48 30t-30 32q-52 68 -92 110.5t-77 68.5t-81 44q-14 47 -52 110t-90.5 129t-109.5 123.5t-109 93.5q-7 93 -19 190.5
t-28.5 190.5t-35 172.5t-38.5 136.5q-33 13 -71.5 19.5t-82.5 6.5zM367 1475q-39 0 -82 -14.5t-121 -56.5l163 -121l48 58l-66 51q17 4 32 6.5t29 2.5q38 0 67 -14t45 -26l45 61q-33 25 -73.5 39t-86.5 14zM812 1930q-39 0 -74.5 -6.5t-53.5 -17.5l63 -204l218 6l-53 210
q-54 12 -100 12zM881 1648l-47 -53l30 -27l47 54zM769 1401q-28 -17 -47 -49t-21 -68l58 -9q6 25 18.5 46t29.5 35zM1139 1826q22 0 42 -1.5t36 -3.5q18 -64 34 -157t30.5 -207.5t25.5 -241.5q52 -30 108.5 -83.5t110 -120t95.5 -136t64 -131.5q53 -19 90 -41.5t72 -61.5
t83 -106q14 -19 40 -45t68 -41q69 -24 125 -52.5t104 -63.5q-7 -20 -32.5 -40.5t-48.5 -20.5q-34 35 -66.5 47t-105.5 16q-26 1 -58.5 25t-55.5 47q-23 24 -55.5 41.5t-63.5 17.5q-55 0 -86.5 -14.5t-64 -29t-90.5 -14.5q-66 0 -119.5 18t-114.5 66t-150 137
q-73 73 -134.5 153t-98.5 133q-68 19 -135.5 55t-138.5 89.5t-148 127.5q-49 1 -113 17.5t-104 37.5q44 19 81.5 28.5t79.5 9.5q20 0 35 -1.5l25 -2.5q10 35 36 70.5t66.5 69.5t93.5 65q32 124 64.5 166t93.5 42q54 0 75.5 -35.5t21.5 -84.5q0 -38 -8 -78t-19 -75
q12 -38 12 -68q0 -66 -57 -112l50 -62q60 49 78 118l147 -31q2 17 3.5 38t1.5 45q0 68 -7.5 141t-23.5 156t-42 183q14 1 26 1.5t22 0.5zM2251 1202q-29 0 -82 -3t-105 -9t-79 -14q-32 -11 -68.5 -40.5t-57.5 -62.5q-8 -14 -19.5 -36.5t-27.5 -56.5q-32 17 -68 28t-73 11
q-24 0 -44.5 -4.5t-36.5 -10.5l28 -74q11 4 24 6.5t28 2.5q44 0 94.5 -25t85.5 -51q20 49 42 98t35 70q17 26 37 43.5t45 25.5q15 5 42 9t67 6q2 -14 3 -28t1 -28q0 -11 -1.5 -20t-3.5 -18q-13 -1 -24 -2t-19 -2q-31 -6 -51 -30.5t-28 -55.5q-6 -24 -16 -67t-18 -78
q-7 -35 -24 -54.5t-51 -30.5l26 -75q50 14 82 50.5t45 93.5q7 30 16 73t13 64q3 15 11.5 23t18.5 10q12 1 40.5 2.5t56.5 2.5t36 1q8 7 23.5 43.5t15.5 79.5q0 37 -7 76.5t-12 56.5zM1387 440l-37 -69q134 -69 218 -153t84 -151q0 -38 -27 -63.5t-74 -25.5q-43 0 -90 20
t-79 49t-32 57q0 13 6.5 19.5t16.5 6.5q20 0 40 -15t30 -35q11 -21 27 -21q19 0 19 26q0 83 -44.5 138t-112.5 55q-52 0 -83 -34t-31 -90q0 -50 34 -97.5t90 -79.5q52 -41 102.5 -60t107.5 -19q79 0 129.5 48.5t50.5 119.5q0 91 -90 188t-255 186z" />
</svg>