<?xml version="1.0" standalone="no"?>
<!DOCTYPE svg PUBLIC "-//W3C//DTD SVG 1.1//EN" "http://www.w3.org/Graphics/SVG/1.1/DTD/svg11.dtd">
<svg xmlns="http://www.w3.org/2000/svg" xmlns:xlink="http://www.w3.org/1999/xlink" version="1.1"
   viewBox="94 -151 2414 2169">
   <path fill="currentColor"
      d="M1622 951q-52 0 -90 -45t-38 -108t38 -108t90 -45t90 45t38 108t-37.5 108t-90.5 45zM647 1764q-47 -37 -81 -68t-64 -67.5t-67 -88.5l74 -43q38 55 83 104.5t97 90.5zM1171 1978q-59 -7 -107 -17.5t-94.5 -27t-99.5 -38.5l41 -71q61 25 125.5 44.5t134.5 27.5v82z
M317 1312q-25 -67 -40.5 -141t-21.5 -150h86q5 64 18.5 126.5t33.5 121.5zM1429 1978v-81q70 -8 134.5 -27.5t125.5 -44.5l41 70q-53 23 -99 39.5t-94.5 27t-107.5 16.5zM266 763q11 -71 32 -139.5t50 -132.5l75 43q-49 109 -70 229h-87zM1001 1313v-80h598v80h-598z
M978 951q-52 0 -90 -45t-38 -108t38 -108t90 -45t90 45t38 108t-37.5 108t-90.5 45zM954 33l-41 -70q61 -23 125.5 -40.5t132.5 -24.5v81q-58 6 -112.5 20.5t-104.5 33.5zM2283 1312l-76 -42q20 -59 33.5 -122t18.5 -127h86q-6 76 -21.5 150t-40.5 141zM1646 34
q-50 -19 -104.5 -33.5t-112.5 -21.5v-81q68 7 132.5 24.5t125.5 40.5zM2247 763q-21 -121 -70 -228l75 -43q29 63 50 131.5t32 139.5h-87zM2042 316q-37 -45 -79 -84t-89 -73l42 -74q114 82 201 187zM1953 1765l-42 -73q52 -41 97 -90t83 -104l74 42q-37 52 -67 88.5
t-63.5 68t-81.5 68.5zM558 315l-75 -43q87 -105 201 -187l42 74q-47 33 -89 72.5t-79 83.5z" />
</svg>