<?xml version="1.0" standalone="no"?>
<!DOCTYPE svg PUBLIC "-//W3C//DTD SVG 1.1//EN" "http://www.w3.org/Graphics/SVG/1.1/DTD/svg11.dtd">
<svg xmlns="http://www.w3.org/2000/svg" xmlns:xlink="http://www.w3.org/1999/xlink" version="1.1"
   viewBox="94 -151 2414 2169">
   <path fill="currentColor"
      d="M1532 1283l-33 -1385h347l-33 1385h-281zM928 1978q-62 0 -114 -31t-83 -83t-31 -114t31 -113.5t83 -82.5t114 -31t113.5 31t82.5 82.5t31 113.5t-31 114t-82.5 83t-113.5 31zM1672 1978q-62 0 -113.5 -31t-82.5 -83t-31 -114t31 -113.5t82.5 -82.5t113.5 -31
q63 0 114.5 31t82.5 82.5t31 113.5t-31 114t-82.5 83t-114.5 31zM787 1283l-33 -1385h347l-33 1385h-281z" />
</svg>