<?xml version="1.0" standalone="no"?>
<!DOCTYPE svg PUBLIC "-//W3C//DTD SVG 1.1//EN" "http://www.w3.org/Graphics/SVG/1.1/DTD/svg11.dtd">
<svg xmlns="http://www.w3.org/2000/svg" xmlns:xlink="http://www.w3.org/1999/xlink" version="1.1"
   viewBox="94 -151 2414 2169">
   <path fill="currentColor"
      d="M1641 1978q-31 0 -73 -60t-89 -142q-34 4 -61.5 5t-60.5 1q-249 0 -436.5 -85.5t-292 -241t-104.5 -365.5q0 -40 3 -74l-85 -122l-11 -179q55 -78 134.5 -119.5t173.5 -41.5q73 0 143 32t132.5 85t109.5 117l74 41q35 -48 92.5 -122.5t128 -161t146 -169.5t147.5 -147
q118 -106 230.5 -179.5t214 -112.5t185.5 -39q61 0 97.5 32.5t36.5 82.5q0 22 -6 43.5t-22 44.5q23 41 23 85q0 49 -22 103t-55 90q0 101 -73.5 209t-207.5 194q-6 60 -34.5 114t-86.5 104q0 56 -23 115.5t-76 112.5q26 1 45 2t38 1q86 0 150 16.5t64 66.5q0 16 -11 45.5
t-30 65.5q-11 21 -22 69t-36 110.5t-78 128.5q-73 91 -145.5 124.5t-113.5 54.5q-34 17 -56.5 41.5t-56.5 24.5zM489 916q-40 -5 -88.5 -17.5t-93.5 -28.5t-74 -30.5t-29 -23.5q0 -13 69 -43.5t199 -76.5q22 81 22 148q0 17 -1 34.5t-4 37.5zM684 867q-22 0 -37.5 -15.5
t-15.5 -37.5q0 -21 15.5 -36.5t37.5 -15.5q21 0 36.5 15.5t15.5 36.5q0 22 -15.5 37.5t-36.5 15.5zM1648 1890q46 -37 83 -54.5t71 -32t70 -40.5t79 -80q46 -57 67.5 -111.5t33 -101.5t26.5 -81l27 -61q-8 -3 -39.5 -10t-89.5 -7q-50 0 -88.5 -5t-70.5 -15q-63 40 -124 60
t-129 25l-4 -80q80 -4 153.5 -38t125 -87t66.5 -114q-39 22 -83 35.5t-90 18.5l-5 -80q61 -6 124.5 -37t111 -76.5t61.5 -92.5q-91 39 -206 52l-8 -80q103 -11 198.5 -53t171 -112t116.5 -165q-77 57 -164.5 98.5t-183.5 63.5l-18 -78q92 -21 175 -61t147.5 -90.5
t101.5 -104t37 -101.5q0 -19 -4 -31q-42 34 -110.5 77t-173.5 99l-39 -70l90 -49q79 -43 133 -81t81.5 -69t27.5 -53q0 -18 -15.5 -28.5t-47.5 -10.5q-104 0 -255.5 84t-312.5 227q-76 67 -158 157t-158.5 184t-137.5 174.5t-95 128.5l-128 -71q-13 -7 -29.5 -22t-35.5 -40
q-27 -36 -70.5 -74.5t-98 -65t-115.5 -26.5q-69 0 -126 26.5t-100 79.5q12 37 12 75q0 13 -1 25.5t-4 25.5l89 129q-2 22 -3.5 45.5t-1.5 49.5q0 187 93.5 324.5t263 212.5t396.5 75q25 0 53 -1t57 -3t55 -5q50 85 79.5 131t46.5 66zM1208 869l-130 -67q-14 -27 -24 -64
t-10 -72q0 -94 30.5 -197.5t82.5 -201t117 -176.5t133.5 -125.5t132.5 -46.5q82 0 82 82q0 34 -18.5 74.5t-46.5 77.5q37 7 58 39.5t21 85.5q0 30 -6 71zM782 324q74 0 128 29.5t54 65.5q0 21 -21.5 32t-57.5 11q-43 0 -100.5 -8t-112 -15.5t-90.5 -7.5q-31 0 -56.5 1.5
t-46.5 4.5q-24 28 -43.5 55.5t-33.5 55.5q31 -5 63 -8t60 -3q38 0 72 6t72 20l-105 60q-22 -6 -44.5 -10t-39.5 -4q-25 0 -50 3t-59 13q-12 39 -17 79.5t-5 82.5q0 122 67 266l-72 34q-75 -155 -75 -300q0 -46 15 -97t41 -103l-11 -32q-14 -41 -45 -94t-64.5 -107.5
t-57 -102t-23.5 -77.5q0 -28 24 -28q47 0 94.5 55t82.5 138.5t44 169.5q17 -28 35.5 -55t39.5 -54q3 -25 5 -55t2 -49q0 -60 -13 -128t-13 -121q0 -41 11.5 -69t45.5 -28q33 0 47 41.5t14 100.5q0 48 -10.5 112.5t-30.5 123.5q21 -26 43 -50t44 -46q80 -81 154.5 -139.5
t125.5 -58.5q26 0 37.5 13t11.5 33q0 35 -43 74t-106 78t-124 74t-96 63q59 -20 123.5 -32.5t109.5 -12.5z" />
</svg>