<?xml version="1.0" standalone="no"?>
<!DOCTYPE svg PUBLIC "-//W3C//DTD SVG 1.1//EN" "http://www.w3.org/Graphics/SVG/1.1/DTD/svg11.dtd">
<svg xmlns="http://www.w3.org/2000/svg" xmlns:xlink="http://www.w3.org/1999/xlink" version="1.1"
   viewBox="94 -151 2414 2169">
   <path fill="currentColor"
      d="M1300 1978q-210 0 -362.5 -83t-235 -233.5t-82.5 -352.5q0 -170 67 -357.5t206 -408.5l407 -645l407 645q140 221 206.5 408.5t66.5 357.5q0 202 -82.5 352.5t-234.5 233.5t-363 83zM1311 1728q22 0 35.5 -12t13.5 -33q0 -20 -12 -32t-32 -13q-163 -11 -260.5 -108.5
t-113.5 -258.5q-5 -44 -45 -44q-21 0 -33 13.5t-12 35.5q0 130 59.5 232.5t163.5 161t236 58.5z" />
</svg>