<?xml version="1.0" standalone="no"?>
<!DOCTYPE svg PUBLIC "-//W3C//DTD SVG 1.1//EN" "http://www.w3.org/Graphics/SVG/1.1/DTD/svg11.dtd">
<svg xmlns="http://www.w3.org/2000/svg" xmlns:xlink="http://www.w3.org/1999/xlink" version="1.1"
   viewBox="94 -151 2414 2169">
   <path fill="currentColor"
      d="M1005 1978q-113 0 -190.5 -61.5t-129.5 -192.5l76 -27q42 107 100 154t144 47q50 0 93.5 -19.5t94 -64t117 -121t160.5 -190.5q108 -131 179.5 -229.5t112 -178.5t57.5 -154.5t17 -156.5q0 -131 -45.5 -243t-127.5 -195.5t-191 -130.5t-236 -47q-135 0 -250 51
t-194 142.5t-109 213.5l-25 -123q95 -174 246 -269t332 -95q144 0 267.5 53t216 148t144.5 221.5t52 273.5q0 88 -17.5 168t-60 165.5t-117 191t-189.5 244.5q-100 121 -172.5 202.5t-130 130.5t-110.5 70.5t-114 21.5zM1070 1257q-38 0 -68 -26t-56 -66l-67 -107l82 -121
l108 52q120 58 120 149q0 52 -33.5 85.5t-85.5 33.5zM1003 1561q-69 0 -109.5 -37t-40.5 -101q0 -38 18 -69t53 -66q24 -24 32 -38t8 -27q0 -11 -14 -23.5t-51 -34.5q-39 -23 -60.5 -51t-21.5 -57h85l134 162q0 34 -14 66t-41 59q-26 26 -37 41t-11 38q0 58 70 58
q35 0 77 -40.5t128 -150.5q83 -105 114.5 -177t31.5 -154q0 -71 -33 -128.5t-89 -91.5t-125 -34v-80q92 0 166 44.5t117.5 120t43.5 169.5q0 95 -37 181t-127 200q-64 81 -109 129.5t-81.5 70t-76.5 21.5zM888 1112q-134 -79 -234 -180.5t-154.5 -214.5t-54.5 -224
q0 -114 43 -212.5t123.5 -170.5t192.5 -105l14 48q-152 45 -237.5 165.5t-85.5 274.5q0 102 51.5 206.5t146 199.5t221.5 169zM929 1065q-190 -149 -283 -285.5t-93 -286.5q0 -134 77 -247t253 -186l20 41q-165 67 -235 170t-70 222q0 139 88 266t270 270zM949 1003
q-104 -103 -171 -191t-98.5 -166.5t-31.5 -152.5q0 -95 51 -172t151 -135l26 44q-89 51 -133.5 116t-44.5 147q0 67 30 139t93.5 154t163.5 181zM1616 1105l-72 -34q38 -78 54 -142.5t16 -134.5q0 -119 -49.5 -212t-135.5 -146.5t-197 -53.5q-150 0 -243.5 85.5t-93.5 222.5
q0 105 42.5 178.5t131.5 126.5l-1 16q-125 -37 -189 -118t-64 -203q0 -114 53.5 -201.5t147.5 -137t216 -49.5q133 0 237 64t164.5 175.5t60.5 252.5q0 78 -18.5 152t-59.5 159zM1845 1094l15 -104q105 -41 160 -123t55 -197q0 -131 -69 -254.5t-186.5 -222.5t-265 -157
t-305.5 -58q-88 0 -169.5 12t-158.5 43l54 146l-151 95l-69 -264l120 -44q96 -35 187.5 -51.5t186.5 -16.5q174 0 336.5 64.5t291 174t203.5 247.5t75 286q0 145 -76 249t-234 175zM2048 400q-62 -140 -182 -238q13 -5 28 -8.5t29 -3.5q65 0 110.5 46t45.5 111q0 25 -8.5 49
t-22.5 44zM1718 44l-99 -50l40 -74l95 48z" />
</svg>