<?xml version="1.0" standalone="no"?>
<!DOCTYPE svg PUBLIC "-//W3C//DTD SVG 1.1//EN" "http://www.w3.org/Graphics/SVG/1.1/DTD/svg11.dtd">
<svg xmlns="http://www.w3.org/2000/svg" xmlns:xlink="http://www.w3.org/1999/xlink" version="1.1"
   viewBox="94 -151 2414 2169">
   <path fill="currentColor"
      d="M1300 1978l-233 -806l-797 -234l797 -234l233 -806l233 806l797 234l-797 234zM389 1812l472 -760l68 44l-315 504l533 -288l36 71zM861 824l-472 -760l794 429l-36 71l-533 -288l315 504zM1300 1727l169 -619l595 -170l-595 -170l-169 -619l-169 619l-595 170l595 170z
M2211 1811l-794 -428l36 -71l533 288l-314 -504l68 -44zM1740 824l-68 -44l314 -504l-533 288l-36 -71l794 -428z" />
</svg>