<?xml version="1.0" standalone="no"?>
<!DOCTYPE svg PUBLIC "-//W3C//DTD SVG 1.1//EN" "http://www.w3.org/Graphics/SVG/1.1/DTD/svg11.dtd">
<svg xmlns="http://www.w3.org/2000/svg" xmlns:xlink="http://www.w3.org/1999/xlink" version="1.1"
   viewBox="94 -151 2414 2169">
   <path fill="currentColor"
      d="M1300 1347q-123 0 -182 -55.5t-59 -138.5q0 -58 24.5 -102.5t73 -80.5t118.5 -66l25 9q110 40 175 96.5t65 139.5q0 87 -62 142.5t-178 55.5zM1303 1459q114 0 198.5 -38t130.5 -108t46 -166q0 -78 -34.5 -134t-92 -98.5t-128.5 -76.5q89 -46 153.5 -111.5t64.5 -168.5
q0 -89 -44 -149.5t-121 -92t-177 -31.5q-97 0 -174.5 31.5t-122 92t-44.5 148.5q0 70 26.5 123t72 93.5t101.5 72.5q-94 43 -165.5 116.5t-71.5 189.5q0 145 99 226t283 81zM1305 784q-88 -38 -148.5 -85.5t-60.5 -135.5q0 -80 56.5 -122.5t144.5 -42.5q92 0 148.5 42.5
t56.5 122.5q0 86 -57 136t-140 85z" />
</svg>