<?xml version="1.0" standalone="no"?>
<!DOCTYPE svg PUBLIC "-//W3C//DTD SVG 1.1//EN" "http://www.w3.org/Graphics/SVG/1.1/DTD/svg11.dtd">
<svg xmlns="http://www.w3.org/2000/svg" xmlns:xlink="http://www.w3.org/1999/xlink" version="1.1"
   viewBox="94 -151 2414 2169">
   <path fill="currentColor"
      d="M1903 1603q-28 0 -53.5 -10.5t-39.5 -29.5v-541q0 -87 -43.5 -148.5t-101.5 -61.5q-7 0 -19.5 1.5t-48.5 7.5q-12 -87 -33.5 -116t-92.5 -29q-64 0 -142.5 35.5t-173.5 109.5q-121 94 -215 139.5t-185 53.5l26 575q-60 0 -108 -8t-80.5 -33.5t-47.5 -78.5q35 0 53.5 -15
t18.5 -47q0 -42 -60 -122q-51 -68 -68.5 -116t-17.5 -118q0 -48 4 -82.5t20 -70.5q-20 -46 -20 -92q0 -85 73 -149q-3 -18 -5 -36t-2 -34q0 -76 44 -128t128 -81q-1 -8 -1 -23q0 -115 142 -184q22 67 40 91t49 24q35 0 68.5 -11t96.5 -45q68 -36 141 -53.5t154 -17.5
q156 0 261.5 56.5t135.5 156.5q86 10 156.5 66t113 141.5t42.5 185.5q0 66 -24 128q33 71 33 155q0 63 -14.5 115t-46.5 101q-33 50 -43.5 79.5t-10.5 47.5q0 20 14.5 41t57.5 21q-23 81 -70 115.5t-105 34.5zM425 1975q-67 0 -116 -49t-49 -116v-34h80v34q0 34 25.5 59.5
t59.5 25.5h30v80h-30zM535 1975v-80h120v80h-120zM260 1696v-120h80v120h-80zM735 1973v-78h120v80zM260 1496v-120h80v120h-80zM935 1975v-80h120v80h-120zM260 1296v-120h80v120h-80zM1135 1975v-80h120v80h-120zM260 1096v-120h80v120h-80zM1335 1975v-80h120v80h-120z
M260 896v-120h80v120h-80zM711 1515l-23 -581q58 0 116.5 -11.5t122.5 -43.5q-120 -17 -197.5 -60.5t-127.5 -105.5q-47 41 -47 93q0 42 29 91q-22 43 -27.5 72.5t-5.5 81.5q0 38 2.5 65t15.5 54t42 67q37 49 54 92.5t17 77.5q0 54 -34 93q9 7 28 11t35 4zM1535 1975v-80
h120v80h-120zM260 696v-120h80v120h-80zM1735 1975v-80h120v80h-120zM260 496v-120h80v120h-80zM1935 1975v-80h120v80h-120zM260 296v-120h80v120h-80zM260 96v-33q0 -68 49 -116.5t116 -48.5h30v80h-30q-34 0 -59.5 25t-25.5 60v33h-80zM2135 1975v-80h40q35 0 60 -25.5
t25 -59.5v-34h80v34q0 67 -48.5 116t-116.5 49h-40zM1921 1522q24 0 45 -23q-17 -16 -26 -38t-9 -53q0 -43 16.5 -92t44.5 -92q26 -40 37.5 -81.5t11.5 -94.5q0 -45 -8.5 -76.5t-33.5 -77.5q17 -33 25 -63t8 -66q0 -86 -33.5 -158t-94 -115.5t-140.5 -43.5q-7 0 -14 0.5
t-15 1.5q-9 -107 -101 -159t-231 -52q-73 0 -135.5 14.5t-121.5 46.5q-53 28 -100.5 47t-102.5 19q-40 0 -70 -19t-55 -55q-13 14 -18.5 28.5t-5.5 31.5q0 62 38 122.5t109 105.5t170 61l-8 50q-139 -23 -227 -85t-120 -158q-70 21 -102.5 53.5t-32.5 85.5q0 63 49.5 118
t135.5 90t194 41q31 -22 53 -38t54 -41q105 -80 195.5 -120.5t168.5 -40.5q77 0 125.5 35t64.5 104q8 -3 24 -3q52 0 99 39t76.5 105t29.5 146v108q27 -33 40 -62t14 -59l50 4q-3 46 -27.5 92.5t-76.5 99.5v306q8 7 17.5 9t13.5 2zM535 -22v-80h120v80h-120zM2260 1696v-120
h80v120h-80zM735 -22v-80h120v80h-120zM2260 1496v-120h80v120h-80zM1896 693q-21 -47 -69 -81.5t-92 -34.5q-7 0 -22 1.5t-29 5.5q-59 -117 -137.5 -171.5t-175.5 -54.5q-61 0 -118 23t-79 56l-42 -28q29 -44 97 -72.5t142 -28.5q107 0 193 57.5t141 164.5q14 -3 30 -3
q60 0 120 42.5t87 103.5zM935 -22v-80h120v80h-120zM2260 1296v-120h80v120h-80zM1135 -22v-80h120v80h-120zM2260 1096v-120h80v120h-80zM1335 -22v-80h120v80h-120zM2260 896v-120h80v120h-80zM1535 -22v-80h120v80h-120zM2260 696v-120h80v120h-80zM1735 -22v-80l130 2
v78h-130zM2260 496v-120h80v120h-80zM1935 -22v-80h120v80h-120zM2260 296v-120h80v120h-80zM2260 96v-33q0 -35 -25 -60t-60 -25h-40v-80h40q68 0 116.5 48.5t48.5 116.5v33h-80z" />
</svg>