<?xml version="1.0" standalone="no"?>
<!DOCTYPE svg PUBLIC "-//W3C//DTD SVG 1.1//EN" "http://www.w3.org/Graphics/SVG/1.1/DTD/svg11.dtd">
<svg xmlns="http://www.w3.org/2000/svg" xmlns:xlink="http://www.w3.org/1999/xlink" version="1.1"
   viewBox="94 -151 2414 2169">
   <path fill="currentColor"
      d="M595 1616v-178.5v-207.5q0 -183 50 -335.5t141 -264t214.5 -172t270.5 -60.5q144 0 265.5 60t211.5 167t140 248.5t50 304.5v438h-80v-438q0 -147 -44 -274t-123 -223t-186 -149.5t-234 -53.5q-173 0 -307.5 95.5t-211.5 264.5t-77 392v207.5v178.5h-80zM425 1975
q-67 0 -116 -49t-49 -116v-34h80v34q0 34 25.5 59.5t59.5 25.5h30v80h-30zM535 1975v-80h120v80h-120zM260 1696v-120h80v120h-80zM735 1973v-78h120v80zM260 1496v-120h80v120h-80zM935 1975v-80h120v80h-120zM260 1296v-120h80v120h-80zM1135 1975v-80h120v80h-120z
M260 1096v-120h80v120h-80zM1335 1975v-80h120v80h-120zM260 896v-120h80v120h-80zM1535 1975v-80h120v80h-120zM260 696v-120h80v120h-80zM1735 1975v-80h120v80h-120zM260 496v-120h80v120h-80zM1935 1975v-80h120v80h-120zM260 296v-120h80v120h-80zM915 948
q-16 0 -28 -14t-3 -34q29 -65 70.5 -116t96.5 -90q23 -17 52 -32t42 -15q14 0 24 10.5t10 25.5q0 23 -22 32q-34 14 -69 38q-46 31 -80.5 73.5t-58.5 97.5q-10 24 -34 24zM2135 1975v-80h40q35 0 60 -25.5t25 -59.5v-34h80v34q0 67 -48.5 116t-116.5 49h-40zM260 96v-33
q0 -68 49 -116.5t116 -48.5h30v80h-30q-34 0 -59.5 25t-25.5 60v33h-80zM2260 1696v-120h80v120h-80zM1275 688q-34 0 -34 -35q0 -29 30 -34q23 -3 46 -3q11 0 22 0.5t22 2.5q14 2 22.5 11.5t8.5 22.5q0 35 -38 35q-7 0 -18 -1t-22 -1q-12 0 -22 1t-17 1zM535 -22v-80h120
v80h-120zM2260 1496v-120h80v120h-80zM735 -22v-80h120v80h-120zM2260 1296v-120h80v120h-80zM935 -22v-80h120v80h-120zM1135 -22v-80h120v80h-120zM2260 1096v-120h80v120h-80zM1335 -22v-80h120v80h-120zM2260 896v-120h80v120h-80zM1535 -22v-80h120v80h-120zM2260 696
v-120h80v120h-80zM1735 -22v-80l130 2v78h-130zM2260 496v-120h80v120h-80zM1935 -22v-80h120v80h-120zM2260 296v-120h80v120h-80zM2260 96v-33q0 -35 -25 -60t-60 -25h-40v-80h40q68 0 116.5 48.5t48.5 116.5v33h-80z" />
</svg>