<?xml version="1.0" standalone="no"?>
<!DOCTYPE svg PUBLIC "-//W3C//DTD SVG 1.1//EN" "http://www.w3.org/Graphics/SVG/1.1/DTD/svg11.dtd">
<svg xmlns="http://www.w3.org/2000/svg" xmlns:xlink="http://www.w3.org/1999/xlink" version="1.1"
   viewBox="94 -151 2414 2169">
   <path fill="currentColor"
      d="M1921 1584q-16 0 -33.5 -5t-27.5 -12v-541q0 -87 -35 -139t-82.5 -75t-86.5 -23q-20 0 -39 4q-7 -67 -34 -105.5t-107 -38.5q-90 0 -171 44.5t-158 103.5q-96 74 -163.5 113.5t-124.5 54t-124 14.5l27 602q-82 0 -130 -26t-71 -57q64 -17 64 -89q0 -60 -57 -136
q-33 -45 -49 -77t-21.5 -64t-5.5 -76q0 -49 4 -82.5t24 -75.5q-25 -49 -25 -94q0 -81 80 -137q-6 -23 -9 -46.5t-3 -42.5q0 -73 45 -117.5t137 -69.5q-10 -27 -10 -52q0 -41 26 -73.5t75 -63.5q15 98 123 98q41 0 75 -13.5t88 -40.5q74 -37 139.5 -52.5t144.5 -15.5
q106 0 186.5 26.5t130 75.5t59.5 116q85 0 156 51.5t114 134.5t43 180q0 38 -7 70t-21 62q20 42 29 77t9 82q0 67 -15.5 113t-41.5 87q-29 46 -45.5 77.5t-16.5 61.5t16.5 59.5t46.5 37.5q-22 40 -54.5 67.5t-73.5 27.5zM425 1975q-67 0 -116 -49t-49 -116v-34h80v34
q0 34 25.5 59.5t59.5 25.5h30v80h-30zM535 1975v-80h120v80h-120zM260 1696v-120h80v120h-80zM855 1975l-120 -2v-78h120v80zM260 1496v-120h80v120h-80zM935 1975v-80h120v80h-120zM260 1296v-120h80v120h-80zM1135 1975v-80h120v80h-120zM260 1096v-120h80v120h-80z
M1335 1975v-80h120v80h-120zM260 896v-120h80v120h-80zM1535 1975v-80h120v80h-120zM260 696v-120h80v120h-80zM1735 1975v-80h120v80h-120zM260 496v-120h80v120h-80zM1935 1975v-80h120v80h-120zM260 296v-120h80v120h-80zM260 96v-33q0 -68 49 -116.5t116 -48.5h30v80
h-30q-34 0 -59.5 25t-25.5 60v33h-80zM2135 1975v-80h40q35 0 60 -25.5t25 -59.5v-34h80v34q0 67 -48.5 116t-116.5 49h-40zM535 -22v-80h120v80h-120zM2260 1696v-120h80v120h-80zM735 -22v-80h120v80h-120zM2260 1496v-120h80v120h-80zM935 -22v-80h120v80h-120z
M2260 1296v-120h80v120h-80zM1135 -22v-80h120v80h-120zM2260 1096v-120h80v120h-80zM1335 -22v-80h120v80h-120zM2260 896v-120h80v120h-80zM1535 -22v-80h120v80h-120zM2260 696v-120h80v120h-80zM1735 -22v-80l130 2v78h-130zM2260 496v-120h80v120h-80zM1935 -22v-80
h120v80h-120zM2260 296v-120h80v120h-80zM2260 96v-33q0 -35 -25 -60t-60 -25h-40v-80h40q68 0 116.5 48.5t48.5 116.5v33h-80z" />
</svg>