<?xml version="1.0" standalone="no"?>
<!DOCTYPE svg PUBLIC "-//W3C//DTD SVG 1.1//EN" "http://www.w3.org/Graphics/SVG/1.1/DTD/svg11.dtd">
<svg xmlns="http://www.w3.org/2000/svg" xmlns:xlink="http://www.w3.org/1999/xlink" version="1.1"
   viewBox="94 -151 2414 2169">
   <path fill="currentColor"
      d="M691 1576q-51 0 -85.5 -34.5t-34.5 -83.5q0 -24 8 -44q-45 -5 -75 -38t-30 -77q0 -42 19 -68q-29 -15 -47.5 -43t-18.5 -62q0 -54 37 -88q-40 -32 -40 -87q0 -35 17.5 -63t45.5 -44q-21 -31 -21 -68q0 -42 25.5 -73.5t64.5 -40.5q-5 -20 -5 -35q0 -48 35 -82.5t87 -34.5
h4q-1 -5 -1 -15q0 -47 35 -82t84 -35q14 0 29 3q5 -41 37.5 -69.5t76.5 -28.5q41 0 67 22q9 -37 40 -62t72 -25q50 0 83 36q14 -26 40.5 -41.5t59.5 -15.5t59.5 15.5t40.5 41.5q33 -36 83 -36q41 0 72 25t40 62q26 -22 67 -22q44 0 76.5 28.5t37.5 69.5q15 -3 29 -3
q50 0 84.5 35t34.5 82q0 10 -1 15h4q52 0 87 34.5t35 82.5q0 15 -5 35q39 9 64.5 40.5t25.5 73.5q0 37 -21 68q29 16 46 44t17 63q0 55 -40 87q37 34 37 88q0 34 -18.5 62t-47.5 43q19 26 19 68q0 44 -30 77t-75 38q8 20 8 44q0 49 -34.5 83.5t-85.5 34.5q-21 0 -33 -12
v-225q-53 -14 -74.5 -47t-21.5 -73q0 -23 6.5 -41.5t13.5 -27.5q-34 -24 -49 -51.5t-15 -61.5q-49 -18 -69 -61q-17 5 -31 5q-31 0 -57.5 -15.5t-42.5 -40.5q-31 22 -71 22q-55 0 -88 -41q-33 27 -77 27t-77 -27q-33 41 -88 41q-40 0 -71 -22q-16 25 -42 40.5t-58 15.5
q-14 0 -31 -5q-20 43 -69 61q0 34 -14.5 61.5t-49.5 51.5q8 9 14 27.5t6 41.5q0 40 -21.5 73t-74.5 47v225q-12 12 -33 12zM425 1975q-67 0 -116 -49t-49 -116v-34h80v34q0 34 25.5 59.5t59.5 25.5h30v80h-30zM535 1975v-80h120v80h-120zM260 1696v-120h80v120h-80z
M735 1973v-78h120v80zM260 1496v-120h80v120h-80zM935 1975v-80h120v80h-120zM260 1296v-120h80v120h-80zM1135 1975v-80h120v80h-120zM260 1096v-120h80v120h-80zM1335 1975v-80h120v80h-120zM260 896v-120h80v120h-80zM1535 1975v-80h120v80h-120zM260 696v-120h80v120
h-80zM1735 1975v-80h120v80h-120zM260 496v-120h80v120h-80zM1935 1975v-80h120v80h-120zM260 296v-120h80v120h-80zM2135 1975v-80h40q35 0 60 -25.5t25 -59.5v-34h80v34q0 67 -48.5 116t-116.5 49h-40zM260 96v-33q0 -68 49 -116.5t116 -48.5h30v80h-30q-34 0 -59.5 25
t-25.5 60v33h-80zM2260 1696v-120h80v120h-80zM535 -22v-80h120v80h-120zM2260 1496v-120h80v120h-80zM735 -22v-80h120v80h-120zM2260 1296v-120h80v120h-80zM935 -22v-80h120v80h-120zM2260 1096v-120h80v120h-80zM1135 -22v-80h120v80h-120zM2260 896v-120h80v120h-80z
M1335 -22v-80h120v80h-120zM2260 696v-120h80v120h-80zM1535 -22v-80h120v80h-120zM2260 496v-120h80v120h-80zM1735 -22v-80l130 2v78h-130zM2260 296v-120h80v120h-80zM1935 -22v-80h120v80h-120zM2260 96v-33q0 -35 -25 -60t-60 -25h-40v-80h40q68 0 116.5 48.5
t48.5 116.5v33h-80z" />
</svg>