<?xml version="1.0" standalone="no"?>
<!DOCTYPE svg PUBLIC "-//W3C//DTD SVG 1.1//EN" "http://www.w3.org/Graphics/SVG/1.1/DTD/svg11.dtd">
<svg xmlns="http://www.w3.org/2000/svg" xmlns:xlink="http://www.w3.org/1999/xlink" version="1.1"
   viewBox="94 -151 2414 2169">
   <path fill="currentColor"
      d="M120 1828h2360v-1780h-2360v1780zM165 1621h901v-70h-901v70zM527 1218h547v-59h-500q-7 -62 -61.5 -112.5t-124.5 -57.5v-506q70 -8 124.5 -58t61.5 -112h500v-59h-547q-3 79 -59.5 130t-137.5 54v596q81 3 137.5 53.5t59.5 130.5zM804 1020q-78 0 -131.5 -54.5
t-69.5 -154.5h-55v-40l50 -4q-1 -8 -1 -15v-14v-14t1 -13h-50v-40l55 -4q16 -101 72.5 -157.5t139.5 -56.5q39 0 73 19t57 48l-45 44q-18 -23 -39 -35.5t-48 -12.5q-53 0 -86.5 39.5t-44.5 110.5h215v45h-219q-1 6 -1 12v12v15.5t1 15.5h183v45h-178q11 69 43.5 108t82.5 39
q56 0 99 -58l45 41q-28 37 -65 58t-84 21zM1031 1782h70v-1697h-70v1697zM200 1748v-324h863v-80h-863v-1216h2200v1216h-861v80h861v324h-2200zM1539 1621h896v-70h-896v70zM1499 1782h70v-1697h-70v1697zM1526 1218h548q3 -80 59.5 -130.5t137.5 -53.5v-596
q-81 -3 -137.5 -54t-59.5 -130h-548v59h500q8 62 62.5 112t123.5 58v506q-69 7 -123.5 57.5t-62.5 112.5h-500v59z" />
</svg>