<?xml version="1.0" standalone="no"?>
<!DOCTYPE svg PUBLIC "-//W3C//DTD SVG 1.1//EN" "http://www.w3.org/Graphics/SVG/1.1/DTD/svg11.dtd">
<svg xmlns="http://www.w3.org/2000/svg" xmlns:xlink="http://www.w3.org/1999/xlink" version="1.1"
   viewBox="94 -151 2414 2169">
   <path fill="currentColor"
      d="M2145 1728q-159 0 -296.5 -58t-214.5 -164q-76 21 -162.5 32.5t-167.5 11.5q-199 0 -365.5 -61t-295.5 -161.5t-215.5 -221.5t-127.5 -241q13 -32 44 -97t84.5 -146t132 -164t185.5 -153.5t245.5 -113.5t312.5 -43q192 0 351 60.5t284.5 162.5t216 229t144.5 260
q-55 146 -133.5 263t-184.5 202q2 34 18 88t40.5 115t52.5 114.5t52 85.5zM2012 1644q-29 -48 -55 -107t-42 -122.5t-16 -125.5q103 -77 183 -188.5t132 -240.5q-18 -42 -59.5 -118t-111 -164t-172.5 -168t-243.5 -131t-323.5 -51q-185 0 -326.5 51.5t-245.5 132t-174.5 169
t-112 165.5t-59.5 119q14 37 52.5 109t107.5 157t173 162t248.5 127t336.5 50q91 0 186.5 -15.5t176.5 -40.5q57 88 148 149t197 81zM1304 1348q-137 0 -250.5 -68t-181.5 -181.5t-68 -250.5t68 -250.5t181.5 -181.5t250.5 -68t250.5 68t181.5 181.5t68 250.5t-68 250.5
t-181.5 181.5t-250.5 68zM1304 1270q117 0 212.5 -57t152.5 -153t57 -212q0 -117 -57 -212.5t-152.5 -152.5t-212.5 -57q-116 0 -212 57t-153 152.5t-57 212.5q0 116 57 212t153 153t212 57zM1304 1094q-69 0 -125 -33t-89.5 -89t-33.5 -124q0 -69 33.5 -124.5t89.5 -88.5
t125 -33t125 33t89.5 88.5t33.5 124.5q0 68 -33.5 124t-89.5 89t-125 33z" />
</svg>