<?xml version="1.0" standalone="no"?>
<!DOCTYPE svg PUBLIC "-//W3C//DTD SVG 1.1//EN" "http://www.w3.org/Graphics/SVG/1.1/DTD/svg11.dtd">
<svg xmlns="http://www.w3.org/2000/svg" xmlns:xlink="http://www.w3.org/1999/xlink" version="1.1"
   viewBox="94 -151 2414 2169">
   <path fill="currentColor"
      d="M1300 1978q-216 0 -404.5 -80.5t-331.5 -223.5t-223.5 -331.5t-80.5 -404.5t80.5 -404.5t223.5 -331.5t331.5 -223.5t404.5 -80.5q215 0 403.5 80.5t331.5 223.5t224 331.5t81 404.5t-81 404.5t-224 331.5t-331.5 223.5t-403.5 80.5zM1051 1575v-80h498v80h-498z
M901 1116q-82 0 -150.5 -40.5t-109 -109t-40.5 -150.5q0 -83 40.5 -150.5t108.5 -108t151 -40.5t150.5 40.5t108 108t40.5 150.5t-40.5 151t-108 108.5t-150.5 40.5zM901 1036q61 0 110.5 -29.5t79 -79.5t29.5 -111q0 -60 -29.5 -110t-79.5 -79.5t-110 -29.5
q-61 0 -111 29.5t-79.5 79t-29.5 110.5q0 60 30 110t80 80t110 30zM901 793q-53 0 -91 -38t-38 -91t38 -91.5t91 -38.5t91.5 38.5t38.5 91.5t-38.5 91t-91.5 38zM1300 1898q199 0 373 -74.5t306 -206.5t206.5 -306t74.5 -373t-74.5 -373t-206.5 -306t-306 -206.5t-373 -74.5
t-373 74.5t-306 206.5t-206.5 306t-74.5 373t74.5 373t206.5 306t306 206.5t373 74.5zM1699 1116q-82 0 -150 -40.5t-108.5 -108.5t-40.5 -151q0 -82 40.5 -150t108.5 -108.5t150 -40.5q83 0 151 40.5t108.5 108t40.5 150.5q0 82 -40.5 150.5t-108.5 109t-151 40.5z
M1699 1036q61 0 110.5 -30t79.5 -80t30 -110q0 -61 -29.5 -110.5t-79.5 -79t-111 -29.5q-60 0 -109.5 29.5t-79.5 79.5t-30 110q0 61 29.5 111t79.5 79.5t110 29.5zM1699 793q-53 0 -91 -38t-38 -91t38 -91.5t91 -38.5t91.5 38.5t38.5 91.5t-38.5 91t-91.5 38z" />
</svg>