<?xml version="1.0" standalone="no"?>
<!DOCTYPE svg PUBLIC "-//W3C//DTD SVG 1.1//EN" "http://www.w3.org/Graphics/SVG/1.1/DTD/svg11.dtd">
<svg xmlns="http://www.w3.org/2000/svg" xmlns:xlink="http://www.w3.org/1999/xlink" version="1.1"
   viewBox="94 -151 2414 2169">
   <path fill="currentColor"
      d="M1794 1978q-22 -86 -93 -141.5t-161 -55.5q-23 0 -46.5 4.5t-56.5 20.5q-1 -13 -2.5 -25.5t-3.5 -25.5q-19 -119 -88 -211t-172 -145t-223 -53q-142 0 -261.5 74t-180.5 201l-72 -34q71 -148 209.5 -234.5t304.5 -86.5q133 0 248 56t195.5 154.5t110.5 226.5q10 -2 19 -2
h19q118 0 210.5 72.5t121.5 184.5zM669 1375q-17 -92 -72.5 -163t-136 -111.5t-174.5 -40.5v-80q113 0 210 49t163.5 134.5t87.5 195.5zM427 1052q-16 -74 -23 -128t-7 -107q0 -46 5.5 -89.5t17.5 -96.5l78 18q-21 92 -21 168q0 49 7 100t24 131zM383 679q-57 0 -108 -14
l18 -78q42 12 90 12q119 0 216.5 -71t134.5 -185l76 24q-30 93 -94 163t-150 109.5t-183 39.5zM1009 1044q-44 0 -76.5 -51t-32.5 -122t32.5 -122t76.5 -51t76.5 51t32.5 122t-32.5 122t-76.5 51zM2047 1511q-55 -92 -149 -145t-202 -53q-101 0 -190 45.5t-139 123.5
l-68 -44q62 -95 169 -150t228 -55q129 0 241 63t178 173zM812 402q-92 0 -170 -52t-113 -137l74 -30q26 63 83.5 101t125.5 38q94 0 160.5 -56.5t66.5 -150.5q0 -33 -8.5 -70.5t-26.5 -65.5l68 -42q23 35 35 85t12 93q0 84 -41.5 149t-111 101.5t-154.5 36.5zM1665 1044
q-44 0 -76.5 -51t-32.5 -122t32.5 -122t76.5 -51t76.5 51t32.5 122t-32.5 122t-76.5 51zM1868 1304l-78 -20q31 -125 110.5 -220.5t190 -149.5t234.5 -54v80q-105 0 -199.5 46.5t-162.5 128.5t-95 189zM1197 239q-81 0 -150 -40l40 -70q53 30 110 30q65 0 117.5 -32.5
t79.5 -87.5l72 34q-37 76 -109.5 121t-159.5 45zM2239 915l-78 -16q7 -31 9 -48t2 -34q0 -114 -28 -217l78 -20q30 114 30 237q0 16 -2 36.5t-11 61.5zM1774 326q-114 0 -207.5 -53.5t-149.5 -145t-56 -205.5v-9.5t1 -14.5l80 8q-1 7 -1 16q0 92 45 165.5t120.5 116
t167.5 42.5q89 0 166.5 -44.5t121.5 -121.5l70 40q-55 95 -151.5 150.5t-206.5 55.5zM2187 629q-83 0 -151 -40.5t-108.5 -108.5t-40.5 -151q0 -29 5 -57t11 -42l81 14q-17 40 -17 85q0 61 29.5 111t79.5 79.5t111 29.5q52 0 97 -21l34 72q-60 29 -131 29z" />
</svg>