<?xml version="1.0" standalone="no"?>
<!DOCTYPE svg PUBLIC "-//W3C//DTD SVG 1.1//EN" "http://www.w3.org/Graphics/SVG/1.1/DTD/svg11.dtd">
<svg xmlns="http://www.w3.org/2000/svg" xmlns:xlink="http://www.w3.org/1999/xlink" version="1.1"
   viewBox="94 -151 2414 2169">
   <path fill="currentColor"
      d="M1345 1977l166 -102q161 -36 297.5 -122t238 -211t157.5 -278.5t56 -325.5q0 -199 -74.5 -373t-206.5 -306t-306 -206.5t-373 -74.5t-373 74.5t-306 206.5t-206.5 306t-74.5 373q0 229 99 425.5t265 327.5l33 122q-143 -93 -250.5 -227t-167 -299t-59.5 -349
q0 -216 80.5 -404.5t223.5 -331.5t331.5 -223.5t404.5 -80.5q215 0 403.5 80.5t331.5 223.5t224 331.5t81 404.5q0 210 -77 394.5t-213.5 326t-317 225.5t-387.5 93zM1156 2028q-153 0 -268 -53.5t-179.5 -148.5t-64.5 -222q0 -134 72.5 -281.5t205.5 -280.5l26 -26
q35 -35 61.5 -83.5t63 -85.5t99.5 -37q61 0 97 38.5t36 104.5q0 34 -7.5 65.5t-27.5 76.5l-13 -24l117 -77q86 -56 144.5 -81t101.5 -25q52 0 81.5 32.5t29.5 83.5q0 10 -2 18.5t-5 16.5l-20 -25q24 -19 50.5 -28t48.5 -9q56 0 91 35.5t35 91.5q0 36 -14.5 64.5t-54.5 72.5
l-34 -31q59 0 93 34t34 83q0 47 -28 88t-81 74l-35 -28q41 1 69.5 32.5t28.5 85.5q0 57 -49.5 119t-132 121t-182 106t-200.5 75t-187 28zM1156 1948q64 0 150.5 -25.5t177 -67t168.5 -90t126.5 -95.5t48.5 -82q0 -23 -13 -36.5t-34 -13.5q-18 0 -41 13l-195 117l-40 -69
l315 -191q54 -33 54 -73q0 -20 -14 -32.5t-32 -12.5q-27 0 -70 27l-278 177l-44 -66l256 -165q85 -55 121.5 -91.5t36.5 -69.5q0 -19 -11.5 -31t-31.5 -12q-17 0 -38 11t-50 31l-358 243l-47 -65l238 -159q56 -38 79.5 -63t23.5 -48q0 -18 -13.5 -29.5t-32.5 -11.5
q-26 0 -77.5 24t-113.5 66l-30 20q-76 51 -130.5 79t-104.5 48l-11 -19q42 -74 62.5 -131.5t20.5 -98.5q0 -66 -51 -66q-34 0 -58 31t-51 75.5t-70 87.5l-24 24q-118 118 -182 249t-64 247q0 157 118 250.5t314 93.5zM948 828q-51 0 -88 -44.5t-37 -105.5q0 -62 37 -106
t88 -44t88 44t37 106q0 61 -37 105.5t-88 44.5zM1652 828q-51 0 -88 -44.5t-37 -105.5q0 -62 37 -106t88 -44t88 44t37 106q0 61 -37 105.5t-88 44.5z" />
</svg>