<?xml version="1.0" standalone="no"?>
<!DOCTYPE svg PUBLIC "-//W3C//DTD SVG 1.1//EN" "http://www.w3.org/Graphics/SVG/1.1/DTD/svg11.dtd">
<svg xmlns="http://www.w3.org/2000/svg" xmlns:xlink="http://www.w3.org/1999/xlink" version="1.1"
   viewBox="94 -151 2414 2169">
   <path fill="currentColor"
      d="M1300 1978q-216 0 -404.5 -80.5t-331.5 -223.5t-223.5 -331.5t-80.5 -404.5t80.5 -404.5t223.5 -331.5t331.5 -223.5t404.5 -80.5q215 0 403.5 80.5t331.5 223.5t224 331.5t81 404.5t-81 404.5t-224 331.5t-331.5 223.5t-403.5 80.5zM1115 1616l-34 -71q112 -52 219 -52
t219 52l-34 71q-90 -43 -185 -43t-185 43zM900 1258q-81 0 -147 -39.5t-105.5 -105.5t-39.5 -147t39.5 -147.5t105.5 -106t147 -39.5t147.5 39.5t106 106t39.5 147.5t-39.5 147t-106 105.5t-147.5 39.5zM996 1078q18 0 30 -12.5t12 -29.5q0 -18 -12 -30t-30 -12
q-17 0 -29.5 12t-12.5 30q0 17 12.5 29.5t29.5 12.5zM797 998q40 0 82 -26t70.5 -65t28.5 -79q0 -41 -29 -73t-73 -32q-41 0 -83 26t-70 65.5t-28 81.5t30 72t72 30zM634 574l-13 -79q115 -20 187.5 -55.5t118.5 -95.5l63 48q-55 72 -141.5 115.5t-214.5 66.5zM1300 1898
q199 0 373 -74.5t306 -206.5t206.5 -306t74.5 -373t-74.5 -373t-206.5 -306t-306 -206.5t-373 -74.5t-373 74.5t-306 206.5t-206.5 306t-74.5 373t74.5 373t206.5 306t306 206.5t373 74.5zM1700 1258q-81 0 -147 -39.5t-105.5 -105.5t-39.5 -147t39.5 -147.5t105.5 -106
t147 -39.5t147.5 39.5t106 106t39.5 147.5t-39.5 147t-106 105.5t-147.5 39.5zM1796 1078q18 0 30 -12.5t12 -29.5q0 -18 -12 -30t-30 -12q-17 0 -29.5 12t-12.5 30q0 17 12.5 29.5t29.5 12.5zM1597 998q40 0 82 -26t70.5 -65t28.5 -79q0 -41 -29 -73t-73 -32q-41 0 -83 26
t-70 65.5t-28 81.5t30 72t72 30zM1966 574q-128 -23 -214 -66.5t-142 -115.5l63 -48q47 60 119 95.5t187 55.5z" />
</svg>