<?xml version="1.0" standalone="no"?>
<!DOCTYPE svg PUBLIC "-//W3C//DTD SVG 1.1//EN" "http://www.w3.org/Graphics/SVG/1.1/DTD/svg11.dtd">
<svg xmlns="http://www.w3.org/2000/svg" xmlns:xlink="http://www.w3.org/1999/xlink" version="1.1"
   viewBox="94 -151 2414 2169">
   <path fill="currentColor"
      d="M1883 1796q-89 0 -165 -41t-132 -120l-200 -285l-126 -119l29 -73l156 148l202 289q91 131 240 131q126 0 222 -60.5t150.5 -168.5t54.5 -250v-97q0 -98 5.5 -177t24.5 -143q8 -29 11 -53t3 -41t-10 -29.5t-32 -12.5q-56 0 -92 68t-54 186q-3 22 -17 31q-16 11 -35 5
t-25 -29l-150 -567q-6 -24 -21.5 -37t-35.5 -13q-29 0 -44 23t-8 55l121 498l-72 19l-133 -542q-6 -26 -22.5 -37.5t-33.5 -11.5q-25 0 -39.5 22.5t-7.5 55.5l109 548q12 56 -18 78q-15 11 -36 7t-47 -20l-293 -194l-4 -88l299 201l21 -14l-96 -478q-16 -80 14.5 -134.5
t99.5 -54.5q27 0 56.5 13t47.5 51l-20 2q11 -32 43.5 -50t63.5 -18q41 0 75.5 26t46.5 73l119 455q23 -87 75 -143t119 -56q49 0 78.5 30.5t29.5 79.5q0 22 -3 49t-13 61q-14 50 -19.5 118.5t-5.5 183.5v97q0 161 -65 286t-179.5 196t-261.5 71zM1300 1978
q-189 0 -355.5 -61.5t-299.5 -166.5l109 -16q116 78 254 121t292 43q146 0 278 -39t244 -110l110 18q-130 97 -291 154t-341 57zM692 1782q-131 0 -239 -67.5t-171.5 -182.5t-63.5 -259v-56q0 -121 -2.5 -195.5t-8.5 -118t-19 -72.5q-10 -23 -14 -45t-4 -41q0 -47 27 -73.5
t76 -26.5q59 0 109 50t69 123l17 63q50 -96 86 -190t60 -185q21 -80 60 -123.5t93 -43.5q53 0 87 44t34 111q0 16 -3 33l-71 1q2 -11 3.5 -19.5t1.5 -16.5q0 -35 -14.5 -59t-37.5 -24q-27 0 -49.5 30.5t-36.5 84.5q-23 87 -55 171.5t-67 155.5t-67.5 117t-55.5 56l-52 -188
q-13 -50 -43 -85.5t-65 -35.5q-33 0 -33 35q0 8 2 22t9 31q16 38 24.5 87.5t11.5 126t3 198.5v56q0 125 53.5 225t144 158t201.5 58q145 0 271 -99t206 -276q77 -169 120 -301t43 -198q0 -34 -11.5 -54.5t-31.5 -20.5q-13 0 -24 8.5t-20 29.5l-66 -24q37 -84 110 -84
q51 0 82 40.5t31 104.5q0 76 -43 216t-121 313q-88 194 -233.5 304.5t-312.5 110.5zM1300 1572q-91 0 -189 -41l30 -67q52 19 88.5 26t70.5 7q35 0 80 -11t107 -37l43 61q-73 34 -126 48t-104 14zM960 982l-61 -33q26 -50 52 -122t48 -148.5t35.5 -143.5t13.5 -107
q0 -42 -14 -65t-40 -23q-36 0 -64 52.5t-47 149.5q-19 95 -51 192t-79 187l-61 -32q40 -79 70 -168.5t52 -192.5q29 -132 72 -195t108 -63q57 0 90.5 43.5t33.5 114.5q0 44 -14 115t-37 152t-51 157t-56 130zM1126 1089l-59 -36q26 -44 51 -103.5t45.5 -122t33 -117.5
t12.5 -90q0 -56 -10.5 -77.5t-37.5 -21.5q-25 0 -43 22.5t-29 67.5l-69 -12q17 -71 52.5 -109.5t88.5 -38.5q59 0 88.5 42t29.5 127q0 40 -13 99.5t-35 127t-49.5 131t-55.5 111.5zM1542 1202l-220 -167l27 -75l238 183zM1663 983q-54 0 -93 -39t-39 -93q0 -55 39 -93.5
t93 -38.5q21 0 35 5l49 233q-34 26 -84 26zM1400 816l-59 -44q23 -103 98 -169t180 -66h12t13 1l15 63q-10 -2 -20 -3t-20 -1q-60 0 -110 29.5t-79.5 79t-29.5 110.5zM362 725l-71 -45q42 -170 134.5 -313t225.5 -248t298 -163t351 -58q183 0 345.5 56t294.5 158.5
t225.5 241.5t137.5 305l-70 45q-38 -159 -123.5 -291.5t-208.5 -230t-275.5 -151t-325.5 -53.5q-175 0 -329.5 55t-279 155.5t-209 237t-120.5 299.5z" />
</svg>