<?xml version="1.0" standalone="no"?>
<!DOCTYPE svg PUBLIC "-//W3C//DTD SVG 1.1//EN" "http://www.w3.org/Graphics/SVG/1.1/DTD/svg11.dtd">
<svg xmlns="http://www.w3.org/2000/svg" xmlns:xlink="http://www.w3.org/1999/xlink" version="1.1"
   viewBox="94 -151 2414 2169">
   <path fill="currentColor"
      d="M1300 1978q-220 0 -409 -79.5t-330.5 -221.5t-221 -331t-79.5 -408t79.5 -408t221 -331t330.5 -221.5t409 -79.5t409 79.5t330.5 221.5t221 331t79.5 408q0 218 -79.5 407t-221 331t-330.5 222t-409 80zM880 1247q92 0 163 -50t109 -147q-28 28 -57.5 42t-64.5 14
q-28 0 -48.5 13t-49.5 13q-25 0 -35 -4t-17 -9.5t-23 -9.5t-53 -4q-29 0 -43.5 -11t-25 -26t-28 -26t-53.5 -11q-18 0 -45 12q26 91 101 147.5t170 56.5zM1300 1616q-163 0 -322 -110l43 -66q139 96 279 96q142 0 279 -96l44 66q-161 110 -323 110zM880 1307
q-94 0 -171 -45.5t-122.5 -121t-45.5 -165.5q0 -94 45.5 -171t122.5 -123t171 -46t171 46t123 123t46 171q0 92 -46 167.5t-123 120t-171 44.5zM769 1008q46 0 92.5 -29t78 -73t31.5 -88q0 -49 -34 -84.5t-83 -35.5q-47 0 -93.5 29t-77 73t-30.5 91q0 48 34 82.5t82 34.5z
M983 1063q22 0 37.5 -15t15.5 -37t-15.5 -37.5t-37.5 -15.5t-37 15.5t-15 37.5t15 37t37 15zM654 586l-20 -78q106 -29 172 -68t106 -98l66 45q-48 70 -125.5 118t-198.5 81zM1300 1898q203 0 377.5 -73t305.5 -204t204 -305.5t73 -377.5t-73 -377.5t-204 -305.5
t-305.5 -204t-377.5 -73q-202 0 -377 73t-305.5 204t-204 305.5t-73.5 377.5t73 377.5t204 305.5t305.5 204t377.5 73zM1720 1247q98 0 174.5 -58t110.5 -171q-35 0 -57 19t-43.5 38.5t-56.5 19.5q-30 0 -46.5 14.5t-45.5 14.5q-27 0 -33.5 -4.5t-9 -10t-15.5 -10t-54 -4.5
q-30 0 -44.5 -9.5t-25 -22.5t-27.5 -22.5t-53 -9.5q-18 0 -45 12q26 91 101 147.5t170 56.5zM1720 1307q-94 0 -171 -45.5t-122.5 -121t-45.5 -165.5q0 -94 45.5 -171t122.5 -123t171 -46t171 46t123 123t46 171q0 92 -46 167.5t-123 120t-171 44.5zM1609 1008
q46 0 92.5 -29t78 -73t31.5 -88q0 -49 -34 -84.5t-83 -35.5q-47 0 -93.5 29t-77 73t-30.5 91q0 48 34 82.5t82 34.5zM1823 1063q22 0 37.5 -15t15.5 -37t-15.5 -37.5t-37.5 -15.5t-37 15.5t-15 37.5t15 37t37 15zM1946 586q-121 -33 -198.5 -81t-125.5 -118l66 -45
q41 59 106.5 98t171.5 68z" />
</svg>