<?xml version="1.0" standalone="no"?>
<!DOCTYPE svg PUBLIC "-//W3C//DTD SVG 1.1//EN" "http://www.w3.org/Graphics/SVG/1.1/DTD/svg11.dtd">
<svg xmlns="http://www.w3.org/2000/svg" xmlns:xlink="http://www.w3.org/1999/xlink" version="1.1"
   viewBox="94 -151 2414 2169">
   <path fill="currentColor"
      d="M1300 1978q-176 0 -330 -65.5t-270.5 -181.5t-182 -269.5t-65.5 -328.5q0 -176 66 -330t182.5 -270.5t270 -182.5t329.5 -66q137 0 269 44l-69 64q-50 -14 -100 -21t-100 -7q-158 0 -296 60t-243 165.5t-164.5 245t-59.5 298.5q0 158 59.5 296.5t164.5 244t243 165
t296 59.5q160 0 302 -62.5t249.5 -175.5t162.5 -263l92 -7q-55 175 -175 307.5t-283 206.5t-348 74zM589 1884q-20 0 -44.5 -23t-41.5 -54t-17 -54q0 -24 19 -24q21 0 45 23t41 54t17 54q0 24 -19 24zM351 1564q-37 0 -64 -11t-27 -27q0 -15 27 -26.5t64 -11.5
q38 0 64.5 11.5t26.5 26.5q0 16 -26.5 27t-64.5 11zM865 1583q-19 0 -19 -23q0 -24 17.5 -55t42 -54t43.5 -23q12 0 15.5 8.5t3.5 16.5q0 24 -17.5 54.5t-41.5 53t-44 22.5zM699 1303q-20 0 -44.5 -23t-41.5 -53.5t-17 -53.5q0 -25 19 -25q21 0 45 23.5t41 54.5t17 54
t-19 23zM1280 1641v-70q41 0 66 -20.5t25 -48.5q0 -22 -9.5 -41.5t-36.5 -45.5q21 -23 30 -43t9 -40q0 -26 -22.5 -44.5t-61.5 -18.5v-70q68 0 110.5 34.5t42.5 87.5q0 22 -7 42.5t-24 45.5q20 25 29.5 48t9.5 49q0 55 -46 95t-115 40zM875 999l-76 -21q20 -79 72.5 -126.5
t120.5 -47.5t120.5 47.5t72.5 126.5l-76 21q-13 -54 -44.5 -84.5t-72.5 -30.5q-40 0 -71.5 30.5t-45.5 84.5zM2045 1883q-22 0 -37.5 -26.5t-15.5 -63.5q0 -38 15.5 -64t37.5 -26q21 0 36.5 26t15.5 64q0 37 -15.5 63.5t-36.5 26.5zM629 270q-44 0 -75.5 -24t-31.5 -57
t31.5 -56.5t75.5 -23.5t75.5 23.5t31.5 56.5t-31.5 57t-75.5 24zM1160 629q-33 0 -61.5 -29.5t-28.5 -64.5q0 -24 15 -41t39 -17q35 0 62.5 29.5t27.5 64.5q0 25 -15 41.5t-39 16.5zM1380 1446v-65h621q104 0 168.5 -51.5t64.5 -133.5q0 -68 -44 -114.5t-109 -46.5
q-54 0 -87 32t-33 82q0 46 27 75t68 29q26 0 43 -16t17 -40q0 -23 -16 -39.5t-39 -16.5v-58q47 0 80.5 33t33.5 81q0 49 -34.5 82.5t-84.5 33.5q-66 0 -112 -47t-46 -117q0 -75 52.5 -127t130.5 -52q60 0 109.5 30.5t79 82t29.5 113.5q0 110 -83.5 180t-214.5 70h-621z
M1723 999q-13 -54 -44.5 -84.5t-72.5 -30.5q-40 0 -71.5 30.5t-45.5 84.5l-76 -21q20 -79 72.5 -126.5t120.5 -47.5t120.5 47.5t72.5 126.5zM2132 1001l-77 -2q-18 -105 -63 -200l49 -67q68 125 91 269zM2059 637l-472 -61l-21 -63l507 65zM1363 237q-32 0 -32 -27
q0 -20 19.5 -50t51.5 -55q63 -51 109 -51q29 0 29 27q0 46 -69 105q-61 51 -108 51zM2182 898q-24 0 -24 -19q0 -22 24 -46.5t55.5 -41.5t54.5 -17q24 0 24 20t-23.5 44.5t-55 42t-55.5 17.5zM2039 846q-422 -76 -603 -481l787 -404l42 45zM2111 443l-557 -72l57 -54l513 67
zM1989 764l205 -741l14 17l-680 356q155 290 461 368zM2162 248l-320 -41l57 -54l277 36zM2234 110q-44 0 -75 -31t-31 -75q0 -45 31 -75.5t75 -30.5q45 0 75.5 30.5t30.5 75.5q0 44 -30.5 75t-75.5 31z" />
</svg>