<?xml version="1.0" standalone="no"?>
<!DOCTYPE svg PUBLIC "-//W3C//DTD SVG 1.1//EN" "http://www.w3.org/Graphics/SVG/1.1/DTD/svg11.dtd">
<svg xmlns="http://www.w3.org/2000/svg" xmlns:xlink="http://www.w3.org/1999/xlink" version="1.1"
   viewBox="94 -151 2414 2169">
   <path fill="currentColor"
      d="M1300 1978q-216 0 -404.5 -80.5t-331.5 -223.5t-223.5 -331.5t-80.5 -404.5t80.5 -404.5t223.5 -331.5t331.5 -223.5t404.5 -80.5q215 0 403.5 80.5t331.5 223.5t224 331.5t81 404.5t-81 404.5t-224 331.5t-331.5 223.5t-403.5 80.5zM602 1342l-30 -73q105 -49 214 -49
q28 0 56 3l-8 80q-25 -3 -51 -3q-91 0 -181 42zM1579 1581q-57 0 -118 -22t-122 -50.5t-115.5 -50t-98.5 -21.5q-36 0 -62.5 15.5t-52 36t-57.5 36t-80 15.5q-91 0 -140 -67t-54 -191h81q3 92 29.5 135t83.5 43q38 0 64 -15.5t50.5 -36t56.5 -36t81 -15.5q56 0 115 21.5
t118.5 50t115.5 50.5t105 22q55 0 113 -31t99.5 -76.5t45.5 -89.5h81q-3 49 -34 98t-80.5 89.5t-108 65t-116.5 24.5zM935 956q-54 0 -92 -44t-38 -107q0 -13 21.5 -29t70.5 -38l20 -9q58 -26 71.5 -30.5t29.5 -4.5q55 0 55 97q0 67 -41 116t-97 49zM683 716l-18 -68
q115 -30 185 -72.5t112 -106.5l58 38q-49 75 -130 125t-207 84zM1300 1898q199 0 373 -74.5t306 -206.5t206.5 -306t74.5 -373t-74.5 -373t-206.5 -306t-306 -206.5t-373 -74.5t-373 74.5t-306 206.5t-206.5 306t-74.5 373t74.5 373t206.5 306t306 206.5t373 74.5z
M1935 1419q-39 -97 -171 -106l6 -80q179 10 238 154zM1582 958q-52 0 -89 -44t-37 -106t37 -106.5t89 -44.5t89 44.5t37 106.5q0 61 -36.5 105.5t-89.5 44.5zM1877 689q-36 -67 -101.5 -115t-177.5 -89l24 -66q122 45 198.5 102t117.5 136z" />
</svg>