<?xml version="1.0" standalone="no"?>
<!DOCTYPE svg PUBLIC "-//W3C//DTD SVG 1.1//EN" "http://www.w3.org/Graphics/SVG/1.1/DTD/svg11.dtd">
<svg xmlns="http://www.w3.org/2000/svg" xmlns:xlink="http://www.w3.org/1999/xlink" version="1.1"
   viewBox="94 -151 2414 2169">
   <path fill="currentColor"
      d="M1300 1978q-136 0 -261.5 -33t-236.5 -93l8 -88q107 64 231.5 99t258.5 35q199 0 373 -74.5t306 -206.5t206.5 -306t74.5 -373t-74.5 -373t-206.5 -306t-306 -206.5t-373 -74.5t-373 74.5t-306 206.5t-206.5 306t-74.5 373q0 160 49 305t137 264l-98 -2
q-79 -122 -123.5 -266t-44.5 -301q0 -216 80.5 -404.5t223.5 -331.5t331.5 -223.5t404.5 -80.5q215 0 403.5 80.5t331.5 223.5t224 331.5t81 404.5t-81 404.5t-224 331.5t-331.5 223.5t-403.5 80.5zM480 1948q63 0 106 -63q21 15 35 21t36 6q41 0 70.5 -29.5t29.5 -70.5
q0 -77 19 -129.5t65 -105.5q-43 6 -82 9.5t-61 3.5q-43 0 -83.5 -11.5t-76.5 -24.5q-34 -13 -64.5 -22t-59.5 -9q-54 0 -91.5 37.5t-37.5 91.5q0 40 24 74t67 52q-7 20 -9.5 31.5t-2.5 23.5q0 47 34 81t82 34zM480 2028q-81 0 -138.5 -57.5t-57.5 -137.5v-9.5t1 -8.5
q-80 -62 -80 -163q0 -86 61.5 -147.5t147.5 -61.5q42 0 81 10.5t75 24.5q33 13 65 22.5t63 9.5q21 0 64.5 -3.5t101.5 -11t123.5 -19.5t129.5 -28q-81 57 -135 99.5t-86 81t-45.5 82t-13.5 101.5q0 75 -52.5 127.5t-127.5 52.5q-27 0 -54 -8q-55 44 -123 44zM1038 1756
l-12 -65q88 -17 168 -17q85 0 167 17l-12 65q-37 -8 -76 -12.5t-79 -4.5q-38 0 -76.5 4.5t-79.5 12.5zM901 1584v-46h-108q-3 -11 -3 -25q0 -38 54.5 -73t141 -57.5t181.5 -22.5q104 0 194.5 26.5t146.5 67.5t56 86q0 44 -63 44h-600zM788 1052q-46 0 -81.5 -42.5
t-35.5 -115.5q0 -8 0.5 -16.5t1.5 -15.5h230q1 7 1.5 15.5t0.5 16.5q0 73 -35.5 115.5t-81.5 42.5zM541 897v-80h472v80h-472zM638 603v-80q234 0 350 -125l60 54q-68 73 -173 112t-237 39zM1582 1052q-46 0 -81.5 -42.5t-35.5 -115.5q0 -8 0.5 -16.5t1.5 -15.5h230
q1 7 1.5 15.5t0.5 16.5q0 73 -35.5 115.5t-81.5 42.5zM1335 897v-80h472v80h-472zM1718 593q-130 0 -235 -39t-175 -112l59 -54q120 125 351 125v80z" />
</svg>