<?xml version="1.0" standalone="no"?>
<!DOCTYPE svg PUBLIC "-//W3C//DTD SVG 1.1//EN" "http://www.w3.org/Graphics/SVG/1.1/DTD/svg11.dtd">
<svg xmlns="http://www.w3.org/2000/svg" xmlns:xlink="http://www.w3.org/1999/xlink" version="1.1"
   viewBox="94 -151 2414 2169">
   <path fill="currentColor"
      d="M1300 1978q-216 0 -404.5 -80.5t-331.5 -223.5t-223.5 -331.5t-80.5 -404.5t80.5 -404.5t223.5 -331.5t331.5 -223.5t404.5 -80.5q215 0 403.5 80.5t331.5 223.5t224 331.5t81 404.5t-81 404.5t-224 331.5t-331.5 223.5t-403.5 80.5zM1018 1487q-49 0 -92.5 -21.5
t-82 -43t-73.5 -21.5q-20 0 -37 8t-34 25l-56 -58q29 -27 60.5 -41t66.5 -14q47 0 91.5 21.5t84.5 43t72 21.5q42 0 86.5 -30t93 -60t102.5 -30t102.5 30t93.5 60t86 30q33 0 72.5 -21.5t84.5 -43t91 -21.5q35 0 67 14t60 41l-56 58q-17 -17 -34 -25t-37 -8
q-35 0 -73.5 21.5t-81.5 43t-93 21.5q-58 0 -107.5 -30t-92.5 -60t-82 -30t-82 30t-92 60t-108 30zM890 1031q-107 0 -175 -59t-68 -153q0 -84 56 -144t140 -60q62 0 102.5 36t40.5 92q0 52 -34.5 85.5t-86.5 33.5q-15 0 -30.5 -3.5t-40.5 -13.5l18 -52q33 11 52 11
q26 0 44 -17.5t18 -43.5q0 -29 -22.5 -47.5t-60.5 -18.5q-55 0 -93 42.5t-38 99.5q0 64 48.5 104.5t129.5 40.5q98 0 151 -61t53 -151q0 -118 -72.5 -184t-178.5 -66q-94 0 -174.5 58t-103.5 164l-30 -7q5 -82 48.5 -147t112.5 -102.5t150 -37.5q91 0 162.5 41t113 113
t41.5 165q0 126 -75.5 204t-197.5 78zM1300 1898q199 0 373 -74.5t306 -206.5t206.5 -306t74.5 -373t-74.5 -373t-206.5 -306t-306 -206.5t-373 -74.5t-373 74.5t-306 206.5t-206.5 306t-74.5 373t74.5 373t206.5 306t306 206.5t373 74.5zM1736 1031q-90 0 -162 -41
t-113.5 -113t-41.5 -165q0 -126 75.5 -204t197.5 -78q107 0 175 59t68 153q0 84 -56 144t-140 60q-62 0 -102.5 -36t-40.5 -92q0 -52 34.5 -85.5t86.5 -33.5q15 0 30.5 3.5t40.5 13.5l-18 52q-33 -11 -52 -11q-26 0 -44 17.5t-18 43.5q0 29 23 47.5t60 18.5q56 0 93.5 -42.5
t37.5 -99.5q0 -65 -48.5 -105t-129.5 -40q-97 0 -150.5 61t-53.5 151q0 118 72.5 184t178.5 66q95 0 175.5 -58t102.5 -164l30 7q-5 82 -48.5 147t-112 102.5t-150.5 37.5z" />
</svg>