<?xml version="1.0" standalone="no"?>
<!DOCTYPE svg PUBLIC "-//W3C//DTD SVG 1.1//EN" "http://www.w3.org/Graphics/SVG/1.1/DTD/svg11.dtd">
<svg xmlns="http://www.w3.org/2000/svg" xmlns:xlink="http://www.w3.org/1999/xlink" version="1.1"
   viewBox="94 -151 2414 2169">
   <path fill="currentColor"
      d="M942 1978q-292 0 -463.5 -90t-186.5 -247q-11 -119 -19.5 -244.5t-12.5 -285.5t-4 -381h80q0 220 4 379.5t12.5 284.5t19.5 240q12 118 158 191t412 73q200 0 344.5 -34.5t222 -94t77.5 -132.5q0 -20 -6 -39.5t-19 -45.5q-19 -40 -30.5 -79.5t-11.5 -82.5v-712h80v712
q0 42 10 77t28 71q14 27 21.5 49.5t7.5 49.5q0 102 -87.5 178.5t-249.5 119.5t-387 43zM937 1310q-85 0 -155 -33.5t-125 -100.5l51 -44q47 57 102.5 82.5t126.5 25.5q72 0 128 -25.5t102 -82.5l51 44q-55 67 -125.5 100.5t-155.5 33.5zM169 574q-17 0 -28 -11t-11 -28v-165
q0 -17 11 -28t28 -11h101l-26 243h-75zM659 993q-38 0 -63 -28t-25 -68t25 -68.5t63 -28.5t63.5 28.5t25.5 68.5t-25.5 68t-63.5 28zM1189 993q-38 0 -63 -28t-25 -68t25 -68.5t63 -28.5t63.5 28.5t25.5 68.5t-25.5 68t-63.5 28zM611 341q-27 0 -27 -28v-52q0 -28 27 -28
t27 28v52q0 28 -27 28zM771 371q-27 0 -27 -28v-112q0 -28 27 -28t27 28v112q0 28 -27 28zM246 829l-77 -103l63 -382q47 -131 79 -211t57.5 -123t51.5 -60t62 -22q110 -17 212.5 -23.5t243.5 -6.5q142 0 244.5 6.5t212.5 23.5q36 5 62 22t51.5 60t57.5 123t79 211l63 382
l-77 103q-147 -113 -324.5 -169t-368.5 -56q-190 0 -367.5 56t-324.5 169zM265 671q112 -76 232 -131.5t234 -86t207 -30.5q94 0 208 30.5t234 86t232 131.5l-51 -305q-37 -101 -61 -163.5t-40.5 -98t-29.5 -53t-28 -27.5v101q0 17 -11 28t-28 11h-849q-17 0 -28 -11
t-11 -28v-101q-15 10 -28 27.5t-29.5 53t-40.5 98t-61 163.5zM931 341q-27 0 -27 -28v-52q0 -28 27 -28t27 28v52q0 28 -27 28zM584 74q45 -11 88.5 -18t86.5 -7q27 0 55 3q15 1 24.5 -9t9.5 -23q0 -24 -26 -27q-16 -2 -32.5 -2.5t-33.5 -0.5q-48 0 -95.5 6t-94.5 20
q-22 7 -22 27q0 14 11 24.5t29 6.5zM1091 371q-27 0 -27 -28v-112q0 -28 27 -28t27 28v112q0 28 -27 28zM1251 341q-27 0 -27 -28v-52q0 -28 27 -28t27 28v52q0 28 -27 28zM1633 574l-26 -243h101q17 0 28 11t11 28v165q0 17 -11 28t-28 11h-75zM2037 918q-16 0 -27 -11
t-11 -27v-138q0 -17 11 -27.5t27 -10.5h82q16 0 26.5 10.5t11.5 26.5l-38 66l38 74q-1 16 -11.5 26.5t-26.5 10.5h-82zM2250 832q-28 19 -49 11t-21 -36t21 -36t49 11l38 25zM2300 865l74 -58l-74 -58q-56 -44 -103.5 -24t-47.5 82q0 61 47.5 81.5t103.5 -23.5zM2330 909
q-54 40 -108.5 37t-90.5 -40t-36 -99q0 -63 36 -99.5t90.5 -39.5t108.5 37l140 102zM1756 1934v-500q0 -30 30 -37v-12q0 -33 30 -45v-384q0 -107 48.5 -165.5t138.5 -58.5q27 0 57 6v162q-43 0 -56.5 10.5t-13.5 45.5v384q30 12 30 45v12q30 7 30 37v500h-294zM1870 1337
h66v-381q0 -56 21 -80.5t49 -22.5v-67q-136 -3 -136 170v381z" />
</svg>