<?xml version="1.0" standalone="no"?>
<!DOCTYPE svg PUBLIC "-//W3C//DTD SVG 1.1//EN" "http://www.w3.org/Graphics/SVG/1.1/DTD/svg11.dtd">
<svg xmlns="http://www.w3.org/2000/svg" xmlns:xlink="http://www.w3.org/1999/xlink" version="1.1"
   viewBox="94 -151 2414 2169">
   <path fill="currentColor"
      d="M1304 1838q-304 0 -529 -64.5t-373.5 -174.5t-222 -250t-73.5 -291q0 -156 77.5 -300.5t233.5 -257.5t392 -173l28 76q-204 51 -350 146t-223.5 224.5t-77.5 284.5t79.5 283.5t227 222t353.5 144t458 50.5q250 0 454 -50.5t351 -144t226 -222t79 -283.5q0 -168 -92 -306
t-259 -234t-391 -137l8 -77q271 45 451.5 159t271.5 269.5t91 325.5q0 151 -73 291t-221 250t-371.5 174.5t-524.5 64.5zM600 1181q9 -20 12 -37t3 -31q0 -22 -7.5 -40t-22.5 -35q-29 28 -29 63q0 45 44 80zM1304 1928q-262 0 -448.5 -50t-297.5 -134t-149 -184l394 173
l501 57l501 -57l394 -173q-37 100 -148.5 184t-297.5 134t-449 50zM762 1236q51 0 81.5 -33t30.5 -76q-16 -9 -38 -9q-31 0 -66 14.5t-61.5 36t-34.5 43.5q23 13 46 18.5t42 5.5zM689 1083q44 -5 73 -26t35 -68q-6 -1 -18 -1q-42 0 -66 30t-24 65zM622 999q21 -72 21 -137
q0 -21 -2 -42t-7 -40q-34 12 -47 39.5t-13 57.5q0 42 16 78.5t32 43.5zM791 1330q-36 0 -65 -16t-63 -56q-91 -16 -118.5 -68t-27.5 -146q-40 -70 -40 -138q0 -66 30.5 -128.5t82 -103t113.5 -40.5q26 0 52.5 11t59.5 40q15 -3 33 -3q81 0 138 63t57 153q0 32 -6.5 68.5
t-16.5 64.5q2 12 3.5 23.5t1.5 22.5q0 114 -109 159q-30 94 -125 94zM793 1496q-84 0 -133 -24.5t-91 -66.5q-118 -27 -161.5 -105.5t-43.5 -195.5q-23 -48 -34.5 -98t-11.5 -103q0 -107 40.5 -201.5t114 -156t173.5 -67.5q39 -72 122 -72q63 0 101 49q33 -17 78 -17
q68 0 123 46t80 122q85 36 140 115.5t55 177.5q0 86 -42 156q14 34 14 69q0 56 -31.5 100.5t-79.5 59.5q0 66 -48.5 112.5t-121.5 46.5q-20 0 -32 -3q-43 25 -101.5 40.5t-109.5 15.5zM793 1416q51 0 108 -17t87 -41q11 2 25.5 3.5t22.5 1.5q51 0 81 -37t30 -86v-3.5v-2.5
q31 -5 60.5 -36t29.5 -74q0 -17 -5.5 -38t-17.5 -38q26 -35 38.5 -70.5t12.5 -78.5q0 -54 -22 -102t-62.5 -83t-96.5 -46q-4 -69 -47 -109.5t-90 -40.5q-24 0 -44.5 4t-51.5 18q-22 -30 -42.5 -42t-40.5 -12q-27 0 -48 14.5t-35 38.5q-72 3 -138 49.5t-107.5 127.5
t-41.5 187q0 45 7.5 83.5t33.5 77.5q0 127 38 188t132 79q46 49 83 67t101 18zM713 919q58 0 97.5 -21.5t39.5 -62.5q-56 0 -96.5 22t-40.5 62zM949 1095q9 -12 17 -32.5t8 -42.5t-10 -44t-37 -40q-19 34 -19 71q0 50 41 88zM739 767q37 0 69 -31q-29 -35 -72 -35
q-44 0 -71 38q40 28 74 28zM976 888q6 -23 6 -44q0 -42 -23 -70.5t-54 -41.5q-2 10 -3 20t-1 19q0 46 25.5 76.5t49.5 40.5zM1467 971q0 -26 2.5 -47t6.5 -40l63 18q-4 16 -5 33.5t-1 33.5zM981 353l-32 -52q41 -25 76 -34l15 60q-16 4 -30.5 11t-28.5 15zM1686 964l-56 -33
q21 -41 50 -69l44 47q-12 12 -21 26t-17 29zM1576 789l-57 -31q22 -43 52 -71l46 47q-13 12 -23 26t-18 29zM1778 1457q-63 0 -114.5 -21t-79.5 -55q-70 -2 -128 -37t-92 -93t-34 -127q0 -14 2 -22q-38 -32 -57 -74l61 -71q5 37 27 67t48 48q-3 25 -3 52q0 48 25 89.5
t66.5 66.5t90.5 25q8 0 15.5 -1t14.5 -2q13 25 52.5 50t105.5 25q100 0 154 -52q26 6 44 6q52 0 81 -41.5t29 -85.5q32 -6 61 -35.5t29 -75.5q0 -20 -7 -41t-18 -34q26 -32 39 -68t13 -79q0 -80 -49 -145.5t-126 -84.5q-12 -53 -51.5 -85.5t-89.5 -32.5q-19 0 -40.5 4
t-43.5 12q-18 -31 -42.5 -38.5t-51.5 -7.5q-25 0 -44.5 16t-26.5 47q-9 -1 -18.5 -1.5t-19.5 -0.5q-79 0 -136.5 59t-57.5 139q0 14 1.5 29t2.5 28q-27 15 -46.5 41t-25.5 61l-57 -71q18 -34 48 -57q-1 -10 -1 -31q0 -75 36 -136.5t97.5 -98t135.5 -36.5q14 -37 46 -52.5
t68 -15.5q65 0 102 49q31 -17 74 -17q69 0 123 38.5t80 100.5q85 34 138.5 112.5t53.5 174.5q0 89 -42 154q8 16 11 33t3 35q0 58 -30.5 101t-76.5 58q0 66 -50 110.5t-118 44.5q-15 0 -30 -3q-33 24 -76.5 38.5t-94.5 14.5zM1166 375l-40 -46q35 -32 69 -45l26 55
q-15 7 -28 16t-27 20zM1734 487l-62 -8q0 -37 -6.5 -71.5t-22.5 -53.5q5 -8 9 -19t4 -19q0 -34 -18 -52t-55 -19q-6 -63 -41 -112t-87 -77t-113 -28q-34 0 -54 6.5t-44 22.5q-24 -18 -49.5 -23.5t-49.5 -5.5q-36 0 -67.5 18t-53 46.5t-27.5 60.5q-43 5 -78.5 33.5t-57 74
t-21.5 103.5q0 25 9 58.5t21 64.5l-87 -38q-10 -35 -14.5 -64.5t-4.5 -52.5q0 -98 56 -156.5t127 -81.5q22 -47 55 -79.5t71 -49.5t72 -17q48 0 94 23q24 -14 48 -18.5t55 -4.5q107 0 193.5 65.5t117.5 169.5q81 31 81 115q0 28 -10 49q22 38 22 87q0 30 -12 53zM1730 737
l-34 -56q39 -26 80 -36l17 63q-18 4 -33.5 11.5t-29.5 17.5zM1383 351q-13 -7 -28 -11t-31 -6l10 -61q23 4 42 10t34 14zM1262 207q-16 -8 -30.5 -11.5t-29.5 -6.5l9 -57q23 3 42 9t34 13zM1915 798q-16 -10 -32 -15.5t-33 -9.5l16 -63q48 9 82 31z" />
</svg>