<?xml version="1.0" standalone="no"?>
<!DOCTYPE svg PUBLIC "-//W3C//DTD SVG 1.1//EN" "http://www.w3.org/Graphics/SVG/1.1/DTD/svg11.dtd">
<svg xmlns="http://www.w3.org/2000/svg" xmlns:xlink="http://www.w3.org/1999/xlink" version="1.1"
   viewBox="94 -151 2414 2169">
   <path fill="currentColor"
      d="M1212 1628q-21 0 -36 -6.5t-15 -17.5q0 -10 8 -24t30 -36v-131q0 -28 -14.5 -63t-14.5 -76q0 -18 2 -44t4 -53t2 -48q0 -25 -20 -25q-9 0 -27 14q-55 44 -111 44q-32 0 -53 -24l53 -58q29 -2 51 -11.5t44 -30.5q38 -35 86.5 -49.5t98.5 -14.5t98.5 15t86.5 49
q23 20 44.5 30t50.5 12l53 58q-19 24 -53 24q-57 0 -110 -44q-17 -14 -28 -14q-19 0 -19 25q0 21 2 48t4 53t2 44q0 41 -14.5 76t-14.5 63v131q21 22 29.5 36t8.5 24q0 11 -15.5 17.5t-36.5 6.5q-30 0 -46 -9t-16 -30v-176q0 -30 -26 -30q-25 0 -25 30v176q0 21 -16.5 30
t-46.5 9zM1300 987q-70 0 -119.5 -49.5t-49.5 -119.5q0 -71 49.5 -120.5t119.5 -49.5q71 0 121.5 49.5t50.5 120.5q0 69 -50.5 119t-121.5 50z" />
</svg>