<?xml version="1.0" standalone="no"?>
<!DOCTYPE svg PUBLIC "-//W3C//DTD SVG 1.1//EN" "http://www.w3.org/Graphics/SVG/1.1/DTD/svg11.dtd">
<svg xmlns="http://www.w3.org/2000/svg" xmlns:xlink="http://www.w3.org/1999/xlink" version="1.1"
   viewBox="94 -151 2414 2169">
   <path fill="currentColor"
      d="M1298 1419q-80 0 -140.5 -24t-60.5 -50q0 -11 11 -23q34 -38 51 -94.5t17 -99.5q0 -21 -12 -21q-9 0 -15.5 13t-13.5 35q-15 49 -26.5 76t-31.5 55q-21 29 -46 29q-16 0 -28.5 -10.5t-12.5 -27.5q0 -12 6 -23t16 -23q11 -13 24.5 -34.5t25.5 -57.5q33 -99 94 -132.5
t142 -33.5q57 0 103.5 16t77.5 45q29 26 49 35.5t44 9.5l54 58q-22 24 -50 24q-53 0 -108 -44q-17 -14 -28 -14q-19 0 -19 25q0 43 17 101t52 93q12 12 12 23q0 26 -60.5 50t-143.5 24zM1210 1628q-21 0 -36 -6.5t-15 -17.5q0 -10 8 -24t30 -36v-144h202v144q22 22 30 36
t8 24q0 11 -15 17.5t-36 6.5q-30 0 -46.5 -9t-16.5 -30v-129q0 -29 -25 -29t-25 29v129q0 21 -16.5 30t-46.5 9zM1300 987q-70 0 -119.5 -49.5t-49.5 -119.5q0 -71 49.5 -120.5t119.5 -49.5t119.5 49.5t49.5 120.5q0 70 -49.5 119.5t-119.5 49.5z" />
</svg>