<?xml version="1.0" standalone="no"?>
<!DOCTYPE svg PUBLIC "-//W3C//DTD SVG 1.1//EN" "http://www.w3.org/Graphics/SVG/1.1/DTD/svg11.dtd">
<svg xmlns="http://www.w3.org/2000/svg" xmlns:xlink="http://www.w3.org/1999/xlink" version="1.1"
   viewBox="94 -151 2414 2169">
   <path fill="currentColor"
      d="M1179 1628q-30 0 -51.5 -9t-21.5 -22q0 -15 11.5 -36.5t41.5 -61.5v-213q0 -46 -20 -95t-20 -116q0 -41 8 -83t8 -75q0 -17 -5.5 -27.5t-18.5 -10.5q-15 0 -26 17t-25 61q-18 55 -38.5 99.5t-40.5 69.5q-12 14 -27 20t-29 6q-25 0 -42 -15t-17 -34q0 -24 25 -49
q15 -15 32.5 -48t33.5 -82q50 -148 142 -216t201 -68q105 0 193.5 63t142.5 166.5t54 223.5q0 59 -52 59q-30 0 -45.5 -22t-15.5 -71q0 -38 -13 -79.5t-32.5 -71t-39.5 -29.5q-27 0 -27 45q0 28 8 69t8 82q0 67 -20 116t-20 95v213q30 40 41.5 61.5t11.5 36.5q0 13 -21.5 22
t-51.5 9q-40 0 -63.5 -13.5t-23.5 -46.5v-281q0 -43 -34 -43t-34 43v281q0 33 -23 46.5t-64 13.5zM1300 645q-82 0 -140.5 -58t-58.5 -141q0 -82 58.5 -140t140.5 -58t140.5 58t58.5 140q0 83 -58.5 141t-140.5 58z" />
</svg>