<?xml version="1.0" standalone="no"?>
<!DOCTYPE svg PUBLIC "-//W3C//DTD SVG 1.1//EN" "http://www.w3.org/Graphics/SVG/1.1/DTD/svg11.dtd">
<svg xmlns="http://www.w3.org/2000/svg" xmlns:xlink="http://www.w3.org/1999/xlink" version="1.1"
   viewBox="94 -151 2414 2169">
   <path fill="currentColor"
      d="M1300 1419q-80 0 -140.5 -24t-60.5 -50q0 -11 11 -23q35 -37 51.5 -94t16.5 -100q0 -25 -20 -25q-9 0 -27 15q-53 44 -111 44q-32 0 -53 -24l53 -58q29 -2 50.5 -12t44.5 -30q35 -32 81.5 -48.5t103.5 -16.5t103 17t82 48q23 20 44.5 30t50.5 12l53 58q-21 24 -53 24
q-56 0 -111 -44q-18 -15 -27 -15q-20 0 -20 25q0 43 18 100t52 94q12 12 12 23q0 26 -60.5 50t-143.5 24zM1212 1628q-21 0 -36 -6.5t-15 -17.5q0 -10 8 -24t30 -36v-144h202v144q22 22 30 36t8 24q0 11 -15 17.5t-36 6.5q-30 0 -46.5 -9t-16.5 -30v-129q0 -29 -25 -29
t-25 29v129q0 21 -16.5 30t-46.5 9zM1300 987q-70 0 -119.5 -49.5t-49.5 -119.5q0 -71 49.5 -120.5t119.5 -49.5t119.5 49.5t49.5 120.5q0 70 -49.5 119.5t-119.5 49.5z" />
</svg>