<?xml version="1.0" standalone="no"?>
<!DOCTYPE svg PUBLIC "-//W3C//DTD SVG 1.1//EN" "http://www.w3.org/Graphics/SVG/1.1/DTD/svg11.dtd">
<svg xmlns="http://www.w3.org/2000/svg" xmlns:xlink="http://www.w3.org/1999/xlink" version="1.1"
   viewBox="94 -151 2414 2169">
   <path fill="currentColor"
      d="M1302 1419q-82 0 -143 -24t-61 -50q0 -11 12 -23q35 -35 52 -93t17 -101q0 -25 -19 -25q-11 0 -28 14q-55 44 -108 44q-27 0 -50 -24l54 -58q24 0 44 -9.5t49 -35.5q32 -29 78 -45t103 -16q81 0 142 33.5t94 132.5q12 36 25.5 57.5t24.5 34.5q11 12 16.5 23t5.5 23
q0 17 -12.5 27.5t-28.5 10.5q-25 0 -46 -29q-20 -28 -31.5 -55t-26.5 -76q-7 -22 -13.5 -35t-15.5 -13q-12 0 -12 21q0 43 17 99.5t51 94.5q11 12 11 23q0 26 -60.5 50t-140.5 24zM1214 1628q-21 0 -36 -6.5t-15 -17.5q0 -10 8 -24t30 -36v-144h202v144q22 22 30 36t8 24
q0 11 -15 17.5t-36 6.5q-30 0 -46.5 -9t-16.5 -30v-129q0 -29 -25 -29t-25 29v129q0 21 -16.5 30t-46.5 9zM1300 987q-70 0 -119.5 -49.5t-49.5 -119.5q0 -71 49.5 -120.5t119.5 -49.5t119.5 49.5t49.5 120.5q0 70 -49.5 119.5t-119.5 49.5z" />
</svg>