<?xml version="1.0" standalone="no"?>
<!DOCTYPE svg PUBLIC "-//W3C//DTD SVG 1.1//EN" "http://www.w3.org/Graphics/SVG/1.1/DTD/svg11.dtd">
<svg xmlns="http://www.w3.org/2000/svg" xmlns:xlink="http://www.w3.org/1999/xlink" version="1.1"
   viewBox="94 -151 2414 2169">
   <path fill="currentColor"
      d="M1215 1628q-21 0 -36.5 -6.5t-15.5 -17.5q0 -10 8.5 -24t29.5 -36v-132q0 -28 -14.5 -63t-14.5 -76q0 -18 2 -44t4 -52.5t2 -47.5q0 -25 -19 -25q-11 0 -28 14q-26 22 -54.5 33t-55.5 11q-33 0 -53 -24l53 -58q29 -2 51 -12t44 -30q38 -34 86.5 -49t98.5 -15
q132 0 198 78.5t66 216.5q0 24 -10 35.5t-27 11.5q-21 0 -32 -14.5t-11 -48.5q0 -29 -5.5 -64t-16 -60.5t-25.5 -25.5t-15 25q0 32 4 75t4 70q0 41 -14.5 76t-14.5 63v132q22 22 30 36t8 24q0 11 -15 17.5t-36 6.5q-30 0 -46.5 -9t-16.5 -30v-177q0 -30 -25 -30
q-26 0 -26 30v177q0 21 -16 30t-46 9zM1303 987q-70 0 -121 -50t-51 -119q0 -71 50.5 -120.5t121.5 -49.5q70 0 119.5 49.5t49.5 120.5q0 70 -49.5 119.5t-119.5 49.5z" />
</svg>