<?xml version="1.0" standalone="no"?>
<!DOCTYPE svg PUBLIC "-//W3C//DTD SVG 1.1//EN" "http://www.w3.org/Graphics/SVG/1.1/DTD/svg11.dtd">
<svg xmlns="http://www.w3.org/2000/svg" xmlns:xlink="http://www.w3.org/1999/xlink" version="1.1"
   viewBox="94 -151 2414 2169">
   <path fill="currentColor"
      d="M578 1065q-107 -74 -195.5 -179.5t-140.5 -216.5t-52 -201q0 -79 37 -125t115 -46q37 0 97.5 8t129.5 18.5t129 16.5q59 -201 155.5 -321.5t213.5 -120.5h320q118 0 214.5 120t154.5 321q62 -6 129 -16t127 -18t100 -8q71 0 114.5 46.5t43.5 139.5q0 10 -0.5 19.5
t-2.5 20.5l-322 -11q38 -33 74 -69t71 -74q-70 15 -194.5 32.5t-293.5 29.5t-375 12t-375 -12t-293 -29.5t-195 -32.5q136 142 268.5 231t277.5 131t318 42q106 0 191.5 -13t166 -43t170.5 -80v87q-85 47 -164.5 74t-167 38t-197.5 11q-119 0 -220.5 -15t-204 -59
t-224.5 -129v421zM1216 1422q-85 0 -155 -33.5t-125 -100.5l51 -44q47 57 102.5 82.5t126.5 25.5q72 0 128 -25.5t102 -82.5l51 44q-55 67 -125.5 100.5t-155.5 33.5zM1232 1978q-292 0 -463.5 -90t-186.5 -247q-9 -89 -15.5 -183t-11 -209.5t-7 -268t-2.5 -358.5h80
q0 205 2.5 357.5t7 267.5t11 208t15.5 179q12 118 158 191t412 73q277 0 416 -65t164 -163l80 11q-28 134 -188 215.5t-472 81.5zM948 1114q-38 0 -63 -28t-25 -68t25 -68.5t63 -28.5t63.5 28.5t25.5 68.5t-25.5 68t-63.5 28zM2022 1975v-278h70v278h-70zM1989 1801v-137
h136v137h-136zM1485 1114q-38 0 -63.5 -28t-25.5 -68t25.5 -68.5t63.5 -28.5t63 28.5t25 68.5t-25 68t-63 28zM1212 363q79 0 149 -1.5t135 -4t128 -5.5q-92 -38 -193 -55t-203 -17q-103 0 -204 17t-194 55q61 3 122 5.5t125.5 4t134.5 1.5zM1919 1708q-85 0 -135 -43.5
t-52 -121.5l-17 -890l47 -163h605l43 169l-36 890q-3 78 -52 118.5t-135 40.5h-268zM1919 1646h268q67 0 95 -26.5t30 -73.5l36 -883l-22 -111h-30l-26 107l-31 816q0 21 -36 21q-34 0 -34 -21l16 -814l-20 -109h-34l-24 108l-16 815q0 8 -10.5 14.5t-27.5 6.5
q-37 0 -37 -21l1 -814l-22 -109h-34l-22 109l2 812q0 10 -7 15t-28 5q-20 0 -27.5 -5.5t-7.5 -15.5l-16 -817l-24 -105h-30l-24 107l17 885q1 47 30 75.5t95 28.5zM807 271q89 -36 194 -53.5t226 -17.5t226 17.5t194 53.5q-50 -133 -118.5 -213t-141.5 -80h-320
q-73 0 -141.5 80t-118.5 213z" />
</svg>