<?xml version="1.0" standalone="no"?>
<!DOCTYPE svg PUBLIC "-//W3C//DTD SVG 1.1//EN" "http://www.w3.org/Graphics/SVG/1.1/DTD/svg11.dtd">
<svg xmlns="http://www.w3.org/2000/svg" xmlns:xlink="http://www.w3.org/1999/xlink" version="1.1"
   viewBox="94 -151 2414 2169">
   <path fill="currentColor"
      d="M2183 1978q-218 -671 -671.5 -1158t-1127.5 -755l24 -55q710 283 1174.5 768.5t681.5 1157.5zM1955 1686q-111 0 -166 -19.5t-69 -58.5q-160 -2 -236 -21t-76 -63q0 -14 8 -35q-89 -36 -163 -107.5t-154 -174t-187 -228.5q-35 -42 -63 -70t-68 -58t-111 -79q9 -17 9 -32
q0 -31 -16.5 -40t-44.5 -9l-211 -199q33 0 55 -9t22 -28q0 -18 -24.5 -38.5t-56.5 -53t-56.5 -84t-24.5 -131.5q0 -129 68.5 -189.5t208.5 -60.5q128 0 274.5 41t297.5 114t294.5 170t267 211t214 237t133.5 246q13 -20 26 -30t26 -10q31 0 54 31.5t36 81.5t13 106
q0 29 -4 52q23 13 35 53t12 94q0 57 -19 127t-53 134t-80 104q-16 7 -62 16.5t-109 9.5zM1955 1606q35 0 72 -4.5t56 -10.5q31 -31 57 -81.5t42 -107.5t16 -107q0 -21 -7 -46.5t-24 -25.5q-8 0 -21 11q6 -61 7.5 -85.5t1.5 -52.5q0 -22 -4.5 -53t-13 -55.5t-20.5 -24.5
q-10 0 -31.5 28.5t-35.5 57.5q-32 -124 -110 -246t-189 -236.5t-242 -214.5q-142 -109 -299.5 -193t-314 -132.5t-296.5 -48.5q-109 0 -153 39t-44 131q0 65 30 114.5t74.5 87t89 66t74.5 51.5t30 43q0 10 -6 16.5t-27 6.5h-101l118 113q39 0 71 -10t55.5 -19.5t35.5 -9.5
q14 0 14 19q0 22 -21.5 52t-75.5 65q45 31 81.5 59t69.5 59.5t68 71.5t75 94q73 98 140.5 178.5t140 139.5t160.5 95q-9 12 -9 34q0 17 18 29.5t77.5 19t183.5 6.5q2 40 47.5 58.5t139.5 18.5zM665 268q-15 0 -29.5 -1.5t-28.5 -4.5q28 -52 52 -68.5t64 -16.5
q-20 -28 -20 -58q0 -32 22 -65q37 22 56.5 60.5t30.5 112.5q-73 41 -147 41zM966 508q-22 0 -44 -3t-43 -9q34 -57 75 -90.5t73 -33.5q15 0 26 7q-16 -19 -16 -54q0 -31 11.5 -65.5t33.5 -62.5q39 26 62 79.5t23 111.5q0 16 -2 32t-6 31q-94 57 -193 57zM1728 1108
q-67 0 -139 -27t-135 -76q97 -72 171 -72q39 0 57 24l-2 -10t-1 -11q0 -38 31 -82t77 -71q20 30 29.5 70.5t9.5 83.5q0 47 -12 91.5t-35 75.5q-21 4 -51 4zM1299 739q-66 0 -133 -25q42 -56 88 -88t82 -32q21 0 36 12q-13 -19 -13 -48q0 -35 17.5 -76.5t47.5 -72.5
q35 29 53.5 79t18.5 106q0 54 -18 102q-89 43 -179 43z" />
</svg>