<?xml version="1.0" standalone="no"?>
<!DOCTYPE svg PUBLIC "-//W3C//DTD SVG 1.1//EN" "http://www.w3.org/Graphics/SVG/1.1/DTD/svg11.dtd">
<svg xmlns="http://www.w3.org/2000/svg" xmlns:xlink="http://www.w3.org/1999/xlink" version="1.1"
   viewBox="94 -151 2414 2169">
   <path fill="currentColor"
      d="M659 1976q86 0 153.5 -25.5t133 -86.5t144.5 -168l1102 -1489q14 3 25 3q25 0 51 -23t44 -55.5t18 -61.5q0 -64 -82 -124q-67 -48 -118 -48q-34 0 -64.5 20.5t-49.5 52t-19 64.5q0 10 1 19.5t6 18.5l-1250 1436q-17 20 -30.5 32.5t-25.5 12.5q-18 0 -18 -29
q0 -21 3 -45.5t3 -48.5q0 -71 -52.5 -113.5t-125.5 -42.5q-100 0 -169 77.5t-69 201.5q0 119 52.5 215t141 151.5t195.5 55.5zM1118 1622l51 -62l-248 -210l-51 61zM1817 1978q-97 0 -176.5 -47t-127 -126.5t-47.5 -176.5t47.5 -176.5t127 -126.5t176.5 -47t176.5 47
t127 126.5t47.5 176.5t-47.5 176.5t-127 126.5t-176.5 47zM1817 1898q75 0 136.5 -36.5t98 -97.5t36.5 -136t-36.5 -136.5t-98 -97.5t-136.5 -36t-136.5 36t-98 97.5t-36.5 136.5t36.5 136t98 97.5t136.5 36.5zM1234 1419l411 -542l-176 -149l-436 520zM660 1896
q-90 0 -160 -46.5t-110 -124.5t-40 -170q0 -99 41 -149.5t115 -50.5q48 0 74 28t26 74q0 24 -3.5 39.5t-3.5 45.5q0 52 27 74.5t64 22.5q28 0 59 -19t62 -55l1279 -1479q-7 -11 -12 -21.5t-5 -17.5q0 -22 18 -46t45 -24q25 0 66 29q48 34 48 63q0 18 -14.5 40.5t-38.5 22.5
q-8 0 -16.5 -2.5t-19.5 -8.5l-1140 1534q-69 93 -123.5 145.5t-109.5 74t-128 21.5zM1746 763l51 -61l-185 -157l-51 61z" />
</svg>