<?xml version="1.0" standalone="no"?>
<!DOCTYPE svg PUBLIC "-//W3C//DTD SVG 1.1//EN" "http://www.w3.org/Graphics/SVG/1.1/DTD/svg11.dtd">
<svg xmlns="http://www.w3.org/2000/svg" xmlns:xlink="http://www.w3.org/1999/xlink" version="1.1"
   viewBox="94 -151 2414 2169">
   <path fill="currentColor"
      d="M658 1496q-115 -67 -173 -166.5t-41 -215.5l29 -197q20 -132 107 -207.5t262 -107.5t458 -32q284 0 459 32t262 107.5t106 207.5l29 197q17 114 -38 211.5t-166 165.5l-43 -76q86 -52 126 -113.5t40 -137.5q0 -104 -63.5 -167t-172.5 -96t-248 -44t-291 -11
q-151 0 -290.5 11t-248.5 44t-172.5 96t-63.5 167q0 76 43.5 140t122.5 111zM1305 1978q-292 0 -463.5 -90t-186.5 -247q-9 -100 -17 -203.5t-13 -228t-5 -285.5l80 -45q0 175 4.5 307t12.5 239t18 209q11 118 157.5 191t412.5 73q200 0 344.5 -34.5t222 -94t77.5 -132.5
q0 -20 -6 -39.5t-19 -45.5q-19 -40 -30.5 -79.5t-11.5 -82.5v-508l80 36v472q0 42 10 77t28 71q14 27 21.5 49.5t7.5 49.5q0 102 -87.5 178.5t-249.5 119.5t-387 43zM1300 1470q-85 0 -155 -33.5t-125 -100.5l51 -44q47 57 102.5 82.5t126.5 25.5q72 0 128 -25.5t102 -82.5
l51 44q-55 67 -125.5 100.5t-155.5 33.5zM1022 1153q-38 0 -63 -28t-25 -68t25 -68.5t63 -28.5t63.5 28.5t25.5 68.5t-25.5 68t-63.5 28zM1552 1153q-38 0 -63 -28t-25 -68t25 -68.5t63 -28.5t63.5 28.5t25.5 68.5t-25.5 68t-63.5 28zM554 916q96 -81 277 -118.5t469 -37.5
q287 0 468.5 37t276.5 118q-15 -74 -62 -124t-134 -79.5t-222 -42.5t-327 -13t-327.5 13t-222.5 42.5t-134 79.5t-62 125zM517 792q0 -254 97 -444.5t273.5 -296.5t412.5 -106q237 0 413 106t273 296.5t97 444.5l-87 -12q0 -227 -86 -395t-242.5 -261t-367.5 -93t-367.5 93
t-242.5 261t-86 395zM1257 438q7 0 10 -4l33 -41l33 41q4 4 9 4q6 0 10 -4l15 -13q6 -4 6 -10q0 -5 -4 -9l-42 -43l48 -59l23 20q5 4 9 1q0 8 4 12l8 7q7 6 19.5 -3.5t21 -23t3.5 -18.5l-11 -10q-4 -3 -9 -3h-2.5t-2.5 1q-3 -13 -13 -20l-40 -33q-19 -15 -49 -15
q-10 0 -10 7t14 11q11 3 17 13q-5 0 -8 4l-4 5q-4 4 -4 10q0 5 10 15l-51 52l-51 -52q10 -10 10 -15q0 -6 -4 -10l-4 -5q-3 -4 -8 -4q6 -10 17 -13q14 -4 14 -11t-10 -7q-30 0 -49 15l-40 33q-10 7 -13 20q-1 -1 -5 -1t-9 3l-11 10q-5 5 3.5 18.5t21 23t19.5 3.5l8 -7
q4 -4 4 -12q4 3 9 -1l23 -20l48 59l-42 43q-4 4 -4 9q0 6 6 10l15 13q4 4 9 4zM1200 616q-130 -24 -190 -82.5t-60 -135.5q0 -44 13 -72t26 -51t13 -52q0 -24 -13.5 -51t-39.5 -37l97 -118l254 -38l268 38l83 118q-26 10 -39.5 37t-13.5 51q0 29 13 52t26 51t13 72
q0 77 -59.5 135.5t-190.5 82.5h-200zM1300 562q11 -5 26.5 -8t37.5 -7q110 -18 158 -54t48 -95q0 -36 -13 -61.5t-26 -51.5t-13 -63q0 -53 35 -86l-50 -63q-36 7 -70 7q-43 0 -75 -12t-58 -34q-25 22 -57.5 34t-75.5 12q-34 0 -70 -7l-50 63q35 33 35 86q0 37 -13 63
t-26 51.5t-13 61.5q0 59 48.5 94.5t157.5 54.5q23 4 38 7t26 8zM1300 485q-79 0 -135 -56t-56 -135q0 -78 56 -134t135 -56t135 56t56 134q0 79 -56 135t-135 56zM1300 203q32 0 32 -27q0 -11 -6 -15q0 4 -5 4q-6 0 -6 -7q0 -2 0.5 -5.5t0.5 -7.5q0 -24 -20 -24h-1h-1
q3 6 3 11q0 10 -6.5 15t-6.5 17q-6 -5 -6 -11q0 -5 1 -7q-11 7 -11 24q0 33 32 33zM1137 -13v-45q0 -19 12.5 -31.5t31.5 -12.5h238q19 0 31.5 12.5t12.5 31.5v45h-326z" />
</svg>