<?xml version="1.0" standalone="no"?>
<!DOCTYPE svg PUBLIC "-//W3C//DTD SVG 1.1//EN" "http://www.w3.org/Graphics/SVG/1.1/DTD/svg11.dtd">
<svg xmlns="http://www.w3.org/2000/svg" xmlns:xlink="http://www.w3.org/1999/xlink" version="1.1"
   viewBox="94 -151 2414 2169">
   <path fill="currentColor"
      d="M1234 1459q202 0 315 -101.5t113 -279.5q0 -160 -104.5 -248t-279.5 -88q-57 0 -103 6.5t-73 11.5l27 -330h453v-128h-573l-43 538l70 45q35 -9 92 -16.5t103 -7.5q149 0 218 60t69 172q0 126 -78 186t-204 60q-76 0 -158 -20.5t-140 -54.5v133q53 31 130.5 46.5
t165.5 15.5z" />
</svg>