<?xml version="1.0" standalone="no"?>
<!DOCTYPE svg PUBLIC "-//W3C//DTD SVG 1.1//EN" "http://www.w3.org/Graphics/SVG/1.1/DTD/svg11.dtd">
<svg xmlns="http://www.w3.org/2000/svg" xmlns:xlink="http://www.w3.org/1999/xlink" version="1.1"
   viewBox="94 -151 2414 2169">
   <path fill="currentColor"
      d="M1996 1254q-81 -41 -130.5 -60.5t-92.5 -26t-106 -6.5q-118 0 -219 -4.5t-157 -11.5q-45 9 -97.5 17t-97.5 8q-126 0 -224.5 -50t-155 -137.5t-56.5 -198.5q0 -75 25.5 -163.5t66.5 -161.5l29 -52q37 -65 55.5 -99.5t25 -50.5t6.5 -26q0 -35 -31 -57t-93 -22
q-63 0 -111 17t-84.5 39.5t-64.5 39.5t-51 17q-33 0 -33 -51q0 -38 20.5 -85.5t53 -91.5t70 -72.5t71.5 -27.5l176 6q48 -38 118 -66.5t122 -28.5q113 0 184 72t71 188q0 44 -15 92t-51 113.5t-99 162.5l-34 53q-16 26 -24.5 47t-8.5 39q0 38 40 38q22 0 43.5 -18.5
t54.5 -55.5l38 -43q64 -72 141 -111t177 -39q126 0 236.5 58.5t197.5 159.5t143.5 230t74.5 270q-29 -21 -48 -32t-57 -26q5 24 9.5 66t4.5 83q-25 -16 -59.5 -28.5t-59.5 -17.5q4 26 5 52.5t1 52.5zM1219 2028q-34 0 -68 -34.5t-34 -68.5q0 -25 29.5 -39.5t78.5 -14.5
q65 0 88 -3.5t23 -14.5v-744h78v718q0 26 -2.5 49.5t-7.5 36.5q-9 24 -43 50.5t-73.5 45.5t-68.5 19zM1138 1738q-36 0 -72.5 -25.5t-36.5 -64.5q0 -19 18 -51t44 -61.5t48 -41.5q27 -14 86 -30.5t106 -27.5l377 -88l-2 13l-346 -220l156 4l233 148q28 18 46.5 36.5
t18.5 35.5q0 23 -19 35.5t-54 20.5l-506 120q-28 7 -33 19t-5 20q0 18 3 42.5t3 46.5q0 24 -16.5 46.5t-48.5 22.5zM1369 940q-40 0 -84.5 -18.5t-72.5 -46.5l36 -32q22 21 56 35t65 14l-23 11q-9 -27 -13 -59t-4 -68v-22.5t1 -22.5q47 47 99 80t103 49q-16 -44 -29 -87.5
t-13 -79.5q65 58 144.5 90.5t164.5 39.5q-16 -30 -40.5 -65t-58.5 -68q57 0 112.5 -3t106.5 -10l7 48q-32 4 -63.5 7.5t-65.5 3.5q55 68 73 137q-94 0 -162.5 -17t-143.5 -57q6 24 19 63.5t24 59.5q-52 -2 -113.5 -25.5t-114.5 -63.5q2 28 6.5 55t12.5 50q-7 1 -14 1.5
t-15 0.5zM1921 1130q0 -20 -2.5 -44.5t-8.5 -53.5q24 5 50 14t64 28q-6 -42 -16.5 -73.5t-30.5 -68.5q22 5 52 15t63 24q-44 -147 -127 -261.5t-191 -180t-226 -65.5q-77 0 -139 30.5t-119 94.5l-38 43q-41 47 -77.5 74t-87.5 27q-43 0 -78 -33.5t-35 -84.5q0 -58 45 -129
l34 -53q65 -101 97.5 -161t44 -96.5t11.5 -67.5q0 -84 -47.5 -133t-127.5 -49q-28 0 -69.5 13t-79.5 33l109 76v9l-109 70q31 14 47 41t16 63q0 34 -22 80t-72 135l-29 52q-37 67 -59.5 144t-22.5 142q0 89 45.5 159t125.5 109.5t185 39.5q33 0 80.5 -6.5t111.5 -19.5
q55 7 160 12t219 5q49 0 87.5 3.5t77.5 13.5t89 30zM1025 87q-18 0 -30.5 -12.5t-12.5 -30.5q0 -17 12.5 -29.5t30.5 -12.5q17 0 29.5 12.5t12.5 29.5q0 18 -12.5 30.5t-29.5 12.5z" />
</svg>