<?xml version="1.0" standalone="no"?>
<!DOCTYPE svg PUBLIC "-//W3C//DTD SVG 1.1//EN" "http://www.w3.org/Graphics/SVG/1.1/DTD/svg11.dtd">
<svg xmlns="http://www.w3.org/2000/svg" xmlns:xlink="http://www.w3.org/1999/xlink" version="1.1"
   viewBox="94 -151 2414 2169">
   <path fill="currentColor"
      d="M1392 1928q-163 0 -329.5 -26t-294.5 -95q-61 -33 -120 -89.5t-110 -121.5t-90 -125q-60 -139 -96 -257t-36 -255q0 -75 16 -168t44.5 -182.5t65.5 -155.5q60 -107 154 -203t191 -158q70 -45 173 -77t213 -49.5t199 -17.5q65 0 130.5 14.5t122.5 36.5q113 43 234.5 119.5
t211.5 171.5q101 106 157 256t56 312q0 159 -43 303q-36 120 -88.5 235.5t-136.5 200.5q-79 80 -175.5 156.5t-208.5 125.5t-240 49zM1392 1848q137 0 274 -74.5t293 -232.5q64 -65 113.5 -162.5t91.5 -240.5q20 -67 30 -138.5t10 -141.5q0 -148 -50.5 -283.5t-140.5 -229.5
q-77 -82 -188 -153.5t-229 -117.5q-117 -46 -224 -46q-93 0 -197.5 17.5t-196 47t-148.5 66.5q-96 62 -180.5 151t-137.5 182q-34 61 -60.5 144t-41 168t-14.5 152q0 115 29.5 221.5t93.5 255.5q47 72 96 132t98 104t93 68q102 54 250 82.5t336 28.5zM938 1279l-57 -56
l727 -730l57 57zM1257 1492l-58 -55l619 -645l59 54zM731 935l-56 -57l635 -632l56 57z" />
</svg>