<?xml version="1.0" standalone="no"?>
<!DOCTYPE svg PUBLIC "-//W3C//DTD SVG 1.1//EN" "http://www.w3.org/Graphics/SVG/1.1/DTD/svg11.dtd">
<svg xmlns="http://www.w3.org/2000/svg" xmlns:xlink="http://www.w3.org/1999/xlink" version="1.1"
   viewBox="94 -151 2414 2169">
   <path fill="currentColor"
      d="M1946 1528q-129 0 -286.5 -26.5t-334.5 -72.5t-365 -105v88q-106 -18 -220 -46t-227.5 -64t-220.5 -79l-23 -206q-23 -41 -36 -105t-13 -138q0 -92 18.5 -182t55.5 -152q13 -22 38 -32t67 -10q69 0 157 26.5t187 71.5t201 102q178 98 367.5 173.5t412.5 117.5
q30 -16 63 -36t60 -39q98 33 192.5 93.5t171.5 133.5t123 147t46 135q0 64 -52 110t-149.5 70.5t-232.5 24.5zM1946 1448q105 0 184.5 -16.5t124.5 -44.5t45 -64q0 -45 -39 -104t-104 -120t-143.5 -112.5t-157.5 -82.5q-76 58 -190 100.5t-249 42.5q-91 0 -203 -35.5
t-236 -95.5t-253 -135t-255 -154q-44 -28 -76 -50t-53 -41q-19 51 -30 113.5t-11 126.5q0 68 12.5 125t34.5 89l9 81l252 72q324 92 578 161t442.5 106.5t317.5 37.5z" />
</svg>