<?xml version="1.0" standalone="no"?>
<!DOCTYPE svg PUBLIC "-//W3C//DTD SVG 1.1//EN" "http://www.w3.org/Graphics/SVG/1.1/DTD/svg11.dtd">
<svg xmlns="http://www.w3.org/2000/svg" xmlns:xlink="http://www.w3.org/1999/xlink" version="1.1"
   viewBox="94 -151 2414 2169">
   <path fill="currentColor"
      d="M529 1978q-70 0 -125 -31.5t-86.5 -85.5t-31.5 -123q0 -47 18 -91t50 -77l1574 -1621q50 -51 124 -51q69 0 128.5 35t96.5 91t37 121q0 31 -9.5 56.5t-27.5 44.5l-1586 1667q-32 34 -75 49.5t-87 15.5zM509 1847q-39 0 -68.5 -29t-29.5 -69q0 -34 23 -57t57 -23
q39 0 68.5 29t29.5 69q0 34 -22.5 57t-57.5 23zM524 1898q56 0 92.5 -36.5t36.5 -92.5q0 -70 -45 -115t-113 -45q-55 0 -92 36.5t-37 92.5q0 70 45.5 115t112.5 45zM827 1463q-31 0 -53.5 -22.5t-22.5 -53.5t22.5 -53.5t53.5 -22.5t53.5 22.5t22.5 53.5t-22.5 53.5
t-53.5 22.5zM1028 1256q-29 0 -50.5 -21.5t-21.5 -50.5t21.5 -50.5t50.5 -21.5t50.5 21.5t21.5 50.5t-21.5 50.5t-50.5 21.5zM795 1688l1076 -1132q-21 -84 -79.5 -139.5t-138.5 -69.5l-1089 1122h6h6q57 0 107 31t81 81t31 107zM1229 1050q-28 0 -48 -20t-20 -48t20 -48
t48 -20t48 20t20 48t-20 48t-48 20zM1431 843q-27 0 -46 -19t-19 -46t19 -46t46 -19t46 19t19 46t-19 46t-46 19zM1993 428l223 -234q11 -11 14.5 -23t3.5 -25q0 -43 -26.5 -81.5t-68.5 -62.5t-89 -24q-38 0 -67 29l-204 210q74 16 132.5 72.5t81.5 138.5zM2026 219
q-25 0 -43.5 -18.5t-18.5 -43.5q0 -26 18.5 -44t43.5 -18q26 0 44 18t18 44q0 25 -18 43.5t-44 18.5z" />
</svg>