<?xml version="1.0" standalone="no"?>
<!DOCTYPE svg PUBLIC "-//W3C//DTD SVG 1.1//EN" "http://www.w3.org/Graphics/SVG/1.1/DTD/svg11.dtd">
<svg xmlns="http://www.w3.org/2000/svg" xmlns:xlink="http://www.w3.org/1999/xlink" version="1.1"
   viewBox="94 -151 2414 2169">
   <path fill="currentColor"
      d="M929 1525q-159 0 -278 -56t-185 -155t-66 -229q0 -114 50.5 -203t138 -142t197.5 -59q42 -36 89.5 -57.5t95.5 -30.5l193 -318q135 -114 352 -114q180 0 295 81h28q109 0 190 21.5t126 60t45 90.5q0 70 -61 169.5t-168.5 212.5t-247.5 225.5t-299 208.5
q-46 142 -179.5 218.5t-315.5 76.5zM520 1893l-66 -45l60 -87v-259l101 -96l55 58l-76 72v250zM765 1978l-69 -40l61 -107l49 -141l213 -134q8 -19 10 -37t2 -49h80q0 46 -6 75t-23 66l-210 132l-42 121zM583 1115q-114 -40 -58 -192q55 -151 168 -110q111 41 57 192
q-54 149 -167 110zM929 1447q112 0 198.5 -34t136 -97.5t49.5 -151.5q0 -77 -39 -149.5t-106 -129.5t-152 -90.5t-177 -33.5q-97 0 -179 39.5t-131 112t-49 172.5q0 110 59 191.5t160.5 126t229.5 44.5zM933 1245q-114 -39 -58 -192q54 -149 168 -110q113 39 57 192
q-54 149 -167 110zM1638 1938l-127 -169l-23 -307q-37 -49 -82 -85.5t-101 -61.5l34 -73q73 34 129.5 83t97.5 108l23 307l113 150zM1865 1731l-170 -86v-349q-46 -11 -90.5 -16t-87.5 -5q-72 0 -137 13l-15 -79q75 -14 152 -14q61 0 126 9.5t132 29.5v362l126 64zM821 760
q-63 -158 -63 -336q0 -110 25 -220t74 -207l72 36q-45 89 -68 188t-23 203q0 163 57 306zM664 743q-60 -83 -96 -198.5t-36 -250.5q0 -178 61 -287t161 -109q53 0 110.5 38.5t156.5 133.5q98 94 140.5 150.5t42.5 110.5l-131 110q37 -53 44 -76.5t7 -33.5q0 -28 -31.5 -70
t-126.5 -133q-92 -89 -137.5 -120.5t-74.5 -31.5q-59 0 -100.5 87.5t-41.5 230.5q0 116 32.5 223.5t102.5 203.5zM829 424l-55 -58q68 -65 145.5 -122.5t140.5 -90.5l37 71q-60 31 -132 85t-136 115zM1940 1014l-134 -84l27 -42l135 85zM1448 1123q129 -83 250 -182
t217.5 -197.5t153 -180t56.5 -129.5q0 -31 -40.5 -57t-106 -42t-139.5 -16q-202 0 -310.5 94t-108.5 274q58 113 58 252q0 45 -7 91t-23 93zM1470 912l-69 -41q37 -62 99 -118.5t125 -106.5q68 -55 128 -107.5t99.5 -109.5t47.5 -123l79 10q-10 82 -57 150.5t-113 127.5
t-134 114q-63 50 -118 100.5t-87 103.5zM2021 878l-149 -47l15 -48l149 47zM1322 214l-55 -132l47 -18l55 134zM1719 653l-80 -4v-324l80 -4v332zM1448 188l-7 -148l50 -3l6 148zM1599 212l-45 -18l55 -136l46 19z" />
</svg>