<?xml version="1.0" standalone="no"?>
<!DOCTYPE svg PUBLIC "-//W3C//DTD SVG 1.1//EN" "http://www.w3.org/Graphics/SVG/1.1/DTD/svg11.dtd">
<svg xmlns="http://www.w3.org/2000/svg" xmlns:xlink="http://www.w3.org/1999/xlink" version="1.1"
   viewBox="94 -151 2414 2169">
   <path fill="currentColor"
      d="M1649 1678q-107 0 -231 -26.5t-275 -81.5q-180 -65 -316.5 -139.5t-238.5 -172t-178 -232.5t-135 -322q-9 -29 6 -52t43 -27l515 -75q41 -6 85.5 -10.5t84.5 -6.5q58 -164 175 -249.5t280 -85.5q135 0 242.5 64t170 171.5t62.5 238.5q0 42 -14 98t-26 84q31 28 60.5 59
t58.5 67l293 363q20 24 16.5 50.5t-28.5 43.5q-184 123 -347.5 182t-302.5 59zM858 1227q-28 0 -49 -21t-21 -49q0 -29 21 -49.5t49 -20.5q29 0 49.5 20.5t20.5 49.5q0 28 -20.5 49t-49.5 21zM1198 1377q-28 0 -49 -21t-21 -49q0 -29 21 -49.5t49 -20.5q29 0 49.5 20.5
t20.5 49.5q0 28 -20.5 49t-49.5 21zM1578 1498q-28 0 -49 -21t-21 -49q0 -29 20.5 -49.5t49.5 -20.5t49.5 20.5t20.5 49.5q0 28 -20.5 49t-49.5 21zM2274 1407q-175 0 -430.5 -58.5t-563.5 -167.5q-228 -81 -416.5 -164t-328 -164t-222.5 -155l53 -60q91 81 241 164t332 160
t368 144q278 99 531 160t436 61v80zM1649 1598q125 0 270.5 -54.5t314.5 -165.5l-278 -348q-34 -42 -70 -78t-79 -69l17 -45q16 -42 25 -82.5t9 -80.5q0 -110 -53 -200.5t-142.5 -144.5t-199.5 -54q-139 0 -246.5 79t-138.5 211l-11 47q-60 0 -110.5 4t-105.5 12l-488 72
q53 163 119.5 284t159 211.5t221.5 162t307 136.5q147 53 263 78t216 25zM1853 882q-26 9 -59.5 13.5t-72.5 4.5q-85 0 -182.5 -22.5t-193 -62.5t-174 -94t-124.5 -117l15 -57q10 -2 32.5 -5t32.5 -3q96 0 209.5 28.5t221 74.5t188.5 97.5t111 98.5zM1494 691l-66 -24
l44 -124q7 -18 -2 -33t-17 -34t2 -48q11 -32 44.5 -44.5t68.5 0.5q36 13 53.5 44t5.5 63q-11 29 -29.5 38.5t-35.5 15t-24 24.5z" />
</svg>