<?xml version="1.0" standalone="no"?>
<!DOCTYPE svg PUBLIC "-//W3C//DTD SVG 1.1//EN" "http://www.w3.org/Graphics/SVG/1.1/DTD/svg11.dtd">
<svg xmlns="http://www.w3.org/2000/svg" xmlns:xlink="http://www.w3.org/1999/xlink" version="1.1"
   viewBox="94 -151 2414 2169">
   <path fill="currentColor"
      d="M967 1571q-181 0 -309 -54t-195.5 -156.5t-67.5 -248.5q0 -137 73 -265t196.5 -237t277 -190t317 -126.5t313.5 -45.5q198 0 340 51t217.5 146.5t75.5 229.5q0 146 -72 279.5t-197 246t-284 195.5t-335.5 129t-349.5 46zM812 1791q-27 0 -55.5 -1.5t-55.5 -2.5l3 -50
q28 1 56 2.5t53 1.5q182 0 347 -27.5t319 -90.5l20 45q-153 62 -322 92.5t-365 30.5zM1144 1978l-11 -50q80 -17 136.5 -30.5t104 -29t98.5 -38t120 -56.5l21 45q-71 35 -124 58t-101.5 39t-105.5 30t-138 32zM967 1471q154 0 317 -41.5t313.5 -116.5t270 -175t189.5 -218
t70 -245q0 -168 -145.5 -260t-409.5 -92q-142 0 -295 41.5t-296 115.5t-258 172.5t-182.5 214.5t-67.5 240q0 174 129.5 269t364.5 95zM988 1153q-145 0 -231.5 -55.5t-86.5 -149.5q0 -75 47 -150t128.5 -142t186 -119.5t220.5 -82.5t231 -30q152 0 232 55t80 160
q0 79 -51.5 154t-138 140.5t-192.5 114.5t-216.5 77t-208.5 28zM988 1082q91 0 192 -25t197.5 -68.5t174 -100t124 -120.5t46.5 -129q0 -74 -58.5 -110t-180.5 -36q-129 0 -259.5 41t-240 108t-175.5 147.5t-66 158.5q0 60 67 97t179 37zM913 291l-24 -43q147 -87 320 -134
t346 -47q62 0 124 6.5t122 20.5l-10 48q-112 -25 -237 -25q-166 0 -332 45t-309 129zM1162 5l-23 -46q63 -29 158 -45t188 -16q50 0 93 4.5t78 12.5l-12 49q-70 -16 -158 -16q-92 0 -180 15.5t-144 41.5z" />
</svg>