<?xml version="1.0" standalone="no"?>
<!DOCTYPE svg PUBLIC "-//W3C//DTD SVG 1.1//EN" "http://www.w3.org/Graphics/SVG/1.1/DTD/svg11.dtd">
<svg xmlns="http://www.w3.org/2000/svg" xmlns:xlink="http://www.w3.org/1999/xlink" version="1.1"
   viewBox="94 -151 2414 2169">
   <path fill="currentColor"
      d="M1498 1690l-91 -136q-6 -9 -22 -18.5t-44 -19.5q-31 -11 -56 -45.5t-25 -76.5v-1385q0 -47 37 -79t88 -32q50 0 87 30t43 75l94 683q32 97 57 201.5t47 226.5q31 22 60.5 41t57.5 36l-38 71q-40 -23 -77.5 -48.5t-76.5 -53.5q-22 -133 -48 -243t-60 -213l-96 -689
q-2 -16 -16 -26.5t-34 -10.5q-19 0 -32 9.5t-13 21.5v1385q0 23 9 32.5t41 22.5q27 10 48 24t34 34l83 125zM950 1978l-48 -64l202 -147q-102 -95 -172 -179t-115.5 -171t-76.5 -189l-396 180l-34 -72l496 -225l61 55l-53 31q26 85 60.5 157t85.5 140t124 142l42 -62
q40 50 67 94t49 97zM1102 1690l-57 -58l83 -125q14 -20 34.5 -34t47.5 -24q32 -13 41 -22.5t9 -32.5v-1385q0 -12 -13 -21.5t-32 -9.5t-33.5 10.5t-16.5 26.5l-96 689q-34 103 -60 213t-48 243q-39 28 -76.5 53.5t-77.5 48.5l-38 -71q29 -17 58 -36t60 -41
q22 -122 47.5 -226.5t56.5 -201.5l94 -683q6 -45 43.5 -75t86.5 -30q51 0 88 32t37 79v1385q0 42 -25 76.5t-56 45.5q-28 10 -44 19.5t-22 18.5zM1650 1978l-292 -213q23 -53 49.5 -97t66.5 -94l42 62q74 -74 124.5 -142t85.5 -140t60 -157l-53 -31l61 -55l496 225l-34 72
l-396 -180q-30 102 -76 189t-115.5 171t-172.5 179l202 147zM1260 419q0 -27 -23 -49.5t-52 -22.5q-27 0 -50 20t-26 47l-80 -10q8 -57 53.5 -97t102.5 -40q33 0 63 14.5t52 38.5q22 -24 52 -38.5t63 -14.5q57 0 103 40t53 97l-80 10q-3 -27 -26 -47t-50 -20q-29 0 -52 22.5
t-23 49.5h-80zM1260 193q0 -21 -18.5 -38.5t-41.5 -17.5q-21 0 -39 15t-20 35l-80 -8q5 -51 46 -86.5t93 -35.5q57 0 100 43q43 -43 100 -43q52 0 93 35.5t46 86.5l-80 8q-2 -20 -20 -35t-39 -15q-22 0 -41 17.5t-19 38.5h-80z" />
</svg>