<?xml version="1.0" standalone="no"?>
<!DOCTYPE svg PUBLIC "-//W3C//DTD SVG 1.1//EN" "http://www.w3.org/Graphics/SVG/1.1/DTD/svg11.dtd">
<svg xmlns="http://www.w3.org/2000/svg" xmlns:xlink="http://www.w3.org/1999/xlink" version="1.1"
   viewBox="94 -151 2414 2169">
   <path fill="currentColor"
      d="M1300 1718q-76 0 -129.5 -29.5t-53.5 -62.5q0 -20 18 -30l94 -54l-1099 -614q89 -236 262 -409t406 -267t502 -94q270 0 502.5 94t405.5 267t262 409l-1099 614l94 54q18 10 18 30q0 34 -54.5 63t-128.5 29zM1144 1414l-263 -305q-23 26 -42 56t-36 63zM1300 1573
q31 0 31 -31q0 -14 -8.5 -22.5t-22.5 -8.5q-31 0 -31 31t31 31zM804 1040q23 -19 0 -49l-252 -317q-19 -24 -46 -21.5t-57 31.5q-29 28 -32 55.5t21 46.5l318 253q12 10 25.5 9.5t22.5 -8.5zM1205 1379l-151 -403q-68 31 -126 86zM1265 1339l2 -420q-79 5 -152 31z
M1335 1339l150 -389q-73 -26 -152 -31zM1038 863q29 -13 17 -46l-128 -384q-10 -29 -36.5 -36t-64.5 10q-37 16 -49 41.5t4 51.5l212 346q18 30 45 17zM1395 1379l277 -317q-58 -55 -126 -86zM1456 1414l341 -186q-16 -33 -35.5 -63t-42.5 -56zM1300 815q31 0 34 -34
l46 -403q4 -31 -17.5 -48.5t-62.5 -17.5t-62.5 17.5t-17.5 48.5l46 403q3 34 34 34zM1562 863q27 13 45 -17l212 -346q16 -26 4 -51.5t-49 -41.5q-37 -17 -64 -10t-37 36l-128 384q-12 33 17 46zM1796 1040q9 8 22.5 8.5t25.5 -9.5l318 -253q24 -19 21 -46.5t-32 -55.5
q-30 -29 -56.5 -31.5t-46.5 21.5l-252 317q-23 30 0 49z" />
</svg>