<?xml version="1.0" standalone="no"?>
<!DOCTYPE svg PUBLIC "-//W3C//DTD SVG 1.1//EN" "http://www.w3.org/Graphics/SVG/1.1/DTD/svg11.dtd">
<svg xmlns="http://www.w3.org/2000/svg" xmlns:xlink="http://www.w3.org/1999/xlink" version="1.1"
   viewBox="94 -151 2414 2169">
   <path fill="currentColor"
      d="M1451 1116q-236 0 -379 -30.5t-209 -81t-73 -111.5l-8 -77q-2 -22 -30.5 -35.5t-89 -19.5t-160.5 -6q-124 0 -197.5 -18.5t-105.5 -61.5t-32 -115q0 -89 58 -131t182 -42q77 0 157 15t151 42q24 -82 219 -116.5t517 -34.5q225 0 392.5 17.5t257.5 55.5t81 100l-57 427
q-8 61 -76.5 111.5t-214 81t-383.5 30.5zM986 1978q-29 0 -64 -19t-44 -34q-14 -23 -18 -63t-4 -92q0 -155 55.5 -291.5t159.5 -267.5l121 32q-69 87 -117.5 173t-73.5 181t-25 211v21t1 22l-10 6q74 -101 180 -170.5t218 -69.5v107q-91 0 -164.5 53t-134.5 138
q-20 28 -37 45.5t-43 17.5zM1451 1738q-98 0 -153 -14t-55 -54v-134q0 -27 33.5 -39.5t89.5 -16.5l21 53l64 58l64 -58l21 -53q56 4 89.5 16.5t33.5 39.5v134q0 40 -55 54t-153 14zM1451 1542q27 0 39.5 -14t12.5 -36q0 -32 -11.5 -70t-40.5 -87q-29 49 -40.5 87t-11.5 70
q0 22 12.5 36t39.5 14zM1451 1602q-58 0 -90 -29t-32 -71q0 -68 37.5 -138t84.5 -132q47 62 84.5 132t37.5 138q0 42 -31.5 71t-90.5 29zM1916 1978q-25 0 -42.5 -17.5t-37.5 -45.5q-61 -85 -134.5 -138t-164.5 -53v-107q113 0 219 69.5t179 170.5l-10 -6q1 -11 1 -22v-21
q0 -116 -25 -211t-73 -181t-118 -173l121 -32q104 131 159.5 267.5t55.5 291.5q0 52 -4 92t-18 63q-9 15 -44 34t-64 19zM1451 1293q-255 0 -360.5 -36.5t-108.5 -91.5l-6 -122l80 -3l4 123q53 23 140.5 37.5t250.5 14.5t251 -14.5t140 -37.5l4 -123l80 3l-6 122
q-3 55 -108.5 91.5t-360.5 36.5zM1451 1038q183 0 314 -21t203 -56.5t78 -78.5l43 -314q-88 37 -252 53.5t-386 16.5q-246 0 -419 -20t-255 -64q-55 -28 -115 -47t-124 -29.5t-131 -10.5q-88 0 -124 21t-36 72q0 46 21 71t76 34.5t158 9.5q197 0 274.5 28.5t85.5 104.5l8 77
q5 41 74 76t197.5 56t309.5 21zM627 173l-190 -158q-29 -24 -4 -56l21 -28q11 -14 28.5 -15t30.5 10l190 157q14 12 14.5 27.5t-10.5 29.5l-21 28q-10 13 -27.5 15t-31.5 -10zM1195 620l-696 -576l51 -63l732 608zM1451 560q303 0 466 -32.5t163 -61.5t-162.5 -62
t-466.5 -33t-466.5 33t-162.5 62t163 61.5t466 32.5zM1368 627l-58 -56l501 -531l52 61zM1585 626l-48 -63l759 -546l48 64zM1764 180l-28 -29q-12 -13 -11 -29t13 -29l176 -182q12 -12 29 -13t30 12l27 27q11 11 12.5 27t-10.5 28l-179 187q-13 13 -30 13.5t-29 -12.5z
M2204 211q-15 11 -32 8t-27 -16l-26 -37q-24 -33 8 -56l213 -154q14 -11 31.5 -9t27.5 18l25 36q23 34 -8 56z" />
</svg>