<?xml version="1.0" standalone="no"?>
<!DOCTYPE svg PUBLIC "-//W3C//DTD SVG 1.1//EN" "http://www.w3.org/Graphics/SVG/1.1/DTD/svg11.dtd">
<svg xmlns="http://www.w3.org/2000/svg" xmlns:xlink="http://www.w3.org/1999/xlink" version="1.1"
   viewBox="94 -151 2414 2169">
   <path fill="currentColor"
      d="M1909 1978q-35 0 -61 -11.5t-47 -11.5t-65.5 11t-112.5 11q-83 0 -161.5 -29.5t-153 -73t-147.5 -87t-145.5 -73t-145.5 -29.5h-212q-188 0 -288 -82.5t-100 -240.5q0 -99 21 -169t48.5 -135.5t48.5 -148t21 -206.5q0 -139 -2 -278t-8 -273t-19 -254h752v482
q0 199 21.5 327.5t64.5 205.5q18 32 59.5 73t96 84t111.5 81q22 14 43.5 32.5t73.5 67.5l41 39q38 35 74.5 58t91.5 43l20 7q46 16 90 21.5t119 5.5q33 0 60.5 12t59.5 24t77 12q41 0 68 42.5t27 93.5q0 22 -6 45.5t-17 43.5q-6 98 -87 142q-13 17 -35 30t-63 22
q-13 8 -38 17t-57 13q-32 28 -59 42t-59 14zM638 1374q-85 -103 -85 -207q0 -106 86 -205l60 52q-66 78 -66 152q0 76 67 156zM1960 1887q0 -26 -17 -45t-47 -26q-16 -66 -128 -66v-50q126 0 166 76q76 34 76 111h-50zM2075 1842q0 -53 -58 -69q-27 -33 -68.5 -58.5
t-91.5 -39.5l14 -48q109 32 174 103q37 14 58.5 44t21.5 68h-50zM1892 1898q8 0 19.5 -6.5t24.5 -15.5q17 -12 38.5 -22t42.5 -12q32 -4 50.5 -17t42.5 -13q23 0 49 -18t26 -34q20 0 31.5 -18.5t16.5 -44t5 -47.5q10 -14 10 -41q0 -17 -3 -31.5t-8 -21.5q-25 0 -46.5 -5.5
t-50.5 -21.5q-25 -14 -47.5 -19t-54.5 -5q-83 0 -133 -6.5t-102 -24.5l-20 -7q-63 -22 -108 -50t-88 -69l-39 -38q-49 -48 -69 -64.5t-38 -28.5q-46 -31 -104.5 -75t-110.5 -93t-79 -94q-52 -87 -73.5 -227t-21.5 -348v-402h-577q4 41 6.5 119t4 179t2.5 211.5t1 215.5
q0 115 -21 204.5t-48.5 164.5t-48.5 145t-21 145q0 123 76 183t232 60h212q83 0 160.5 29.5t151.5 73t147 87t146 73t148 29.5q53 0 105 -11t71 -11q20 0 47 11.5t46 11.5zM2167 1791q-5 -20 -19.5 -35t-43.5 -28q-31 -60 -128 -87l12 -48q108 28 152 97q62 35 75 89z
M2259 1692q-13 -20 -54 -20q-6 0 -12 0.5t-13 2.5q-10 -23 -27.5 -37.5t-47.5 -24.5l16 -48q57 20 86 58q63 0 92 39z" />
</svg>