<?xml version="1.0" standalone="no"?>
<!DOCTYPE svg PUBLIC "-//W3C//DTD SVG 1.1//EN" "http://www.w3.org/Graphics/SVG/1.1/DTD/svg11.dtd">
<svg xmlns="http://www.w3.org/2000/svg" xmlns:xlink="http://www.w3.org/1999/xlink" version="1.1"
   viewBox="94 -151 2414 2169">
   <path fill="currentColor"
      d="M2209 374l-65 -46l106 -131q8 -10 -14 -42t-68 -78q-44 -44 -76 -67t-43 -14l-131 106l-46 -65l121 -99q48 -40 97 -19.5t133 104.5q83 83 104 132t-19 98zM533 1627q18 -18 42.5 -18t41.5 18q17 17 17 41.5t-18 41.5q-22 20 -52 16l-232 232l-47 -46l233 -233
q-5 -32 15 -52zM399 1523q4 -26 24 -41.5t45 -15.5q20 0 75.5 -39.5t125.5 -100.5l57 55q-38 34 -84.5 71.5t-90.5 63.5t-75 29q-4 24 -17 75t-43 125t-86 169q89 -54 163 -84t127.5 -44t79.5 -19q2 -31 28 -75t63 -90.5t71 -83.5l56 57q-61 68 -100.5 124t-39.5 76
q0 26 -16 45t-42 25t-77.5 18t-116.5 35t-134 63q-29 17 -52 17q-28 0 -51 -23t-23 -53q0 -25 16 -51q63 -101 87 -194t30 -134zM1077 433l501 -491q20 -20 43.5 -32t47.5 -12q29 0 54.5 8t43.5 26l112 109q27 19 63.5 49.5t114.5 107.5q60 59 89.5 90.5t52.5 54.5
q30 30 23 76t-33 74q-18 19 -45 30.5t-45 3.5q-12 -21 -23.5 -38.5t-41.5 -51.5t-99 -102q-59 -59 -92 -89.5t-52 -44.5t-36 -24l-151 -146l61 3l-382 363q0 34 -20 67t-51 56q-37 28 -74.5 30.5t-63 -14t-28 -44t30.5 -59.5zM572 1323q31 -44 73.5 -95t108.5 -123t166 -176
t247 -253q1 -34 25 -60q98 -110 172.5 -185.5t139.5 -132t131.5 -108t148.5 -112.5l48 64q-77 58 -139.5 105.5t-122.5 98.5t-126.5 116.5t-151.5 160.5q28 18 67 52t109 104q68 68 102.5 107.5t52.5 66.5q95 -84 160.5 -150.5t116.5 -126.5t98.5 -122.5t105.5 -139.5l64 48
q-61 82 -112 148.5t-107.5 131.5t-132.5 139.5t-186 172.5q-13 11 -27 17.5t-34 8.5q-148 145 -252.5 245t-176.5 166t-123.5 108.5t-94.5 73.5zM679 1316l250 250q46 -38 92.5 -77.5t108 -96t152 -144t225.5 -220.5q-15 -23 -44.5 -57t-91.5 -96q-61 -62 -95 -91.5
t-57 -45.5q-133 135 -221 225.5t-145 152t-96.5 108t-77.5 92.5z" />
</svg>