<?xml version="1.0" standalone="no"?>
<!DOCTYPE svg PUBLIC "-//W3C//DTD SVG 1.1//EN" "http://www.w3.org/Graphics/SVG/1.1/DTD/svg11.dtd">
<svg xmlns="http://www.w3.org/2000/svg" xmlns:xlink="http://www.w3.org/1999/xlink" version="1.1"
   viewBox="94 -151 2414 2169">
   <path fill="currentColor"
      d="M250 1978v-2080h2100v2080h-2100zM834 1122q-36 0 -55 -34t-19 -71t16 -56q-8 -20 -8 -46q0 -24 8 -47.5t27 -30.5q-9 -18 -9 -44q0 -41 12 -77t25 -36t25 35.5t12 77.5q0 26 -9 44q20 7 27.5 30t7.5 46q0 15 -2.5 27.5t-5.5 20.5q17 20 17 61q0 35 -17 67.5t-52 32.5z
M1095 1187q-30 0 -67 -9.5t-64 -28.5t-27 -48q0 -27 13 -45.5t32 -21.5q-7 -13 -7 -27q0 -21 15 -36.5t37 -19.5q-2 -6 -2 -12q0 -22 11.5 -37t27.5 -15q15 0 25 14t10 34q0 9 -3 20q26 24 26 56q0 18 -10 31q22 18 33.5 40t11.5 45q0 32 -14 46t-48 14zM1627 1382
q-163 0 -302.5 -46t-291.5 -114q-108 -49 -198 -76.5t-177 -39.5l12 -80q92 13 187.5 43t207.5 81q149 68 279.5 110t280.5 42q68 0 141.5 -10t158.5 -31l20 78q-89 22 -168 32.5t-150 10.5zM330 1898h1940v-1920h-1940v1920zM624 1607v-1338h1352v1338h-1352zM704 1527
h1192v-1178h-1192v1178zM1085 1238v-80q80 0 147 -4t128 -14q49 -8 95.5 -22.5t95.5 -31.5q80 -29 172 -53t211 -29l4 80q-112 4 -197.5 27t-164.5 50q-49 17 -98.5 32t-103.5 25q-64 12 -134.5 16t-154.5 4zM1253 852q-59 0 -92 -48q-35 3 -60 -18.5t-25 -53.5
q0 -31 21 -52.5t52 -24.5q-5 -23 -5 -43q0 -56 41 -96t97 -40q47 0 86 29t49 73q55 -3 83.5 19.5t25.5 69.5q35 -3 60.5 19t25.5 50t-27.5 48.5t-66.5 20.5q-23 0 -47 -8q-26 34 -78 34q-32 0 -57 -16q-35 37 -83 37zM1511 1112q0 -34 21 -61t50 -40t53 -6q5 -32 34 -49
t57 -17q35 0 45 21q10 -33 49.5 -60t88.5 -27v149q-101 0 -209.5 29.5t-188.5 60.5z" />
</svg>