<?xml version="1.0" standalone="no"?>
<!DOCTYPE svg PUBLIC "-//W3C//DTD SVG 1.1//EN" "http://www.w3.org/Graphics/SVG/1.1/DTD/svg11.dtd">
<svg xmlns="http://www.w3.org/2000/svg" xmlns:xlink="http://www.w3.org/1999/xlink" version="1.1"
   viewBox="94 -151 2414 2169">
   <path fill="currentColor"
      d="M1306 1978q-147 0 -283.5 -39t-252.5 -110l5 -90q112 76 245 117.5t281 41.5q197 0 367 -73.5t298 -203.5t200 -302t72 -369q0 -41 -3.5 -81.5t-9.5 -79.5l76 -23q17 91 17 184q0 212 -77.5 398.5t-216 328t-322.5 221.5t-396 80zM561 2028l-72 -72l-95 -25l8 -36
l-36 -11l26 -98l-26 -96l36 -11l-8 -37l96 -26l71 -72l27 25l27 -25l72 72l96 26l-8 37l35 11l-25 96l25 98l-35 11l8 36l-96 25l-72 72l-27 -25zM563 1959l25 -23l25 23l29 -29l-33 -32v-76l65 37l12 46l39 -11l-7 -34l32 -9l-10 -39l-46 12l-65 -38l65 -38l46 12l10 -39
l-32 -10l7 -33l-39 -11l-12 46l-65 37v-76l33 -32l-29 -29l-25 23l-25 -23l-29 29l33 32v76l-65 -37l-12 -46l-39 11l7 33l-32 10l10 39l46 -12l65 38l-65 38l-46 -12l-10 39l32 9l-7 34l39 11l12 -46l65 -37v76l-33 32zM521 1610q-76 -92 -130.5 -202t-81.5 -233l88 21
q56 215 199 380zM830 1495v-132h-130q8 53 43 88.5t87 43.5zM355 1250l-97 -97l-129 -34l11 -52l-50 -15l34 -131l-34 -131l50 -15l-12 -52l130 -34l97 -98l38 36l38 -36l98 98l129 34l-11 52l49 15l-34 131l35 131l-50 15l11 52l-129 34l-98 97l-38 -36zM357 1172l36 -34
l36 34l42 -42l-48 -47v-110l95 54l17 66l57 -15l-11 -49l47 -14l-15 -57l-66 18l-95 -55l95 -55l66 18l15 -57l-47 -15l11 -48l-57 -15l-17 66l-95 54v-110l48 -47l-42 -42l-36 34l-36 -34l-42 42l48 47v110l-95 -54l-17 -66l-57 15l11 48l-47 15l15 57l66 -18l95 55l-95 55
l-66 -18l-15 57l47 14l-11 49l57 15l17 -66l95 -54v110l-48 47zM700 1303h130v-132q-52 8 -87 43.5t-43 88.5zM890 1498h160v-135h-160v135zM890 1303h160v-135h-160v135zM1110 1498h160v-135h-160v135zM1110 1303h160v-135h-160v135zM862 1568q-102 0 -168.5 -66.5
t-66.5 -168.5t66.5 -168.5t168.5 -66.5h876q102 0 168.5 66.5t66.5 168.5t-66.5 168.5t-168.5 66.5h-876zM337 654q29 -94 74.5 -179t106.5 -160l51 63q-46 61 -83 127.5t-62 140.5zM1330 1498h160v-135h-160v135zM948 948q-52 0 -89 -42.5t-37 -107.5t37 -108t89 -43t89 43
t37 108q0 64 -36.5 107t-89.5 43zM1330 1303h160v-135h-160v135zM1550 1498h160v-135h-160v135zM1550 1303h160v-135h-160v135zM1770 1495q53 -8 88 -43.5t43 -88.5h-131v132zM1770 1303h131q-8 -53 -43 -88.5t-88 -43.5v132zM1652 948q-52 0 -89 -42.5t-37 -107.5t37 -108
t89 -43t89 43t37 108q0 64 -36.5 107t-89.5 43zM714 451q-105 0 -173 -50.5t-68 -129.5q0 -81 45.5 -157t123.5 -136t176.5 -95t203.5 -35q76 0 143 6t130 14t126 14t131 6q142 0 212.5 41.5t70.5 124.5q0 85 -67 135.5t-177 50.5q-38 0 -76.5 -6.5t-83.5 -19.5
q-64 61 -153.5 96t-180.5 35q-12 0 -23.5 -1t-24.5 -2q-74 50 -164.5 79.5t-170.5 29.5zM714 371q75 0 160 -30t161 -82q27 6 63 6q77 0 158 -35t161 -101q65 17 102 24t72 7q76 0 117.5 -28t41.5 -78q0 -47 -47.5 -66.5t-160.5 -19.5q-78 0 -136.5 -6t-113.5 -14
t-118.5 -14t-151.5 -6t-171 29t-149 78.5t-105 111t-39 127.5q0 43 43 70t113 27zM2012 826l-16 -55l-55 13l-38 -142l-103 -103l39 -42l-39 -42l103 -103l38 -142l55 13l16 -54l142 38l141 -38l17 54l57 -14l36 144l104 101l-39 43l40 42l-104 103l-38 142l-56 -13l-17 54
l-140 -38zM2050 757l64 -17l-21 -72l61 -105l60 104l-19 73l63 17l17 -52l53 12l16 -62l-72 -20l-62 -106h122l53 54l47 -46l-38 -39l38 -41l-47 -45l-53 54h-121l62 -106l71 -19l-16 -64l-53 13l-17 -52l-63 17l19 71l-60 105l-61 -104l21 -72l-64 -17l-15 52l-54 -13
l-17 64l73 19l61 106h-122l-53 -54l-46 45l37 41l-37 39l46 46l53 -54h121l-61 106l-72 20l17 62l54 -12zM1950 291q-40 -40 -89.5 -78.5t-98.5 -68.5l39 -63q50 29 100 68.5t93 80.5z" />
</svg>