<?xml version="1.0" standalone="no"?>
<!DOCTYPE svg PUBLIC "-//W3C//DTD SVG 1.1//EN" "http://www.w3.org/Graphics/SVG/1.1/DTD/svg11.dtd">
<svg xmlns="http://www.w3.org/2000/svg" xmlns:xlink="http://www.w3.org/1999/xlink" version="1.1"
   viewBox="94 -151 2414 2169">
   <path fill="currentColor"
      d="M697 1495q-103 -32 -167.5 -124t-64.5 -211q0 -117 56 -209.5t138 -168.5q47 -44 97.5 -85.5t101.5 -77.5q53 -38 99.5 -75.5t84.5 -75.5q65 -65 84.5 -129.5t19.5 -149.5q0 -44 -1.5 -88.5t-6.5 -88.5q32 -31 76 -56.5t93.5 -41.5t95.5 -16q0 126 13.5 244.5t36.5 196.5
q15 50 54.5 100t100.5 96q62 47 130.5 104t136.5 116q107 91 183.5 196t76.5 233q0 104 -55.5 185.5t-145.5 110.5l10 -89q51 -26 81 -82t30 -125q0 -88 -55 -176.5t-177 -191.5q-68 -59 -135 -115t-128 -102q-70 -53 -117.5 -114t-66.5 -123q-19 -66 -33 -164t-18 -209
q-25 6 -53 22.5t-50 32.5q2 37 3 74t1 71q0 116 -29.5 192t-97.5 144q-39 39 -87.5 78.5t-107.5 80.5q-48 34 -96 73.5t-94 82.5q-88 82 -128.5 159.5t-40.5 160.5q0 86 43.5 156t113.5 99zM1295 1978l-58 -6q-3 -36 -10 -73.5t-22 -74.5q-30 42 -47 105l-52 -6
q0 -43 -13 -88.5t-40.5 -78.5t-73.5 -38q-163 -18 -233 -78t-70 -178q0 -50 14 -96t50.5 -106t103.5 -153l65 46q-64 92 -97 149t-44.5 93.5t-11.5 66.5q0 80 59 121.5t172 57.5q65 9 92 22.5t49 45.5l177 30l179 -30l107 -126q33 13 77 13q101 0 155 -52t54 -151
q0 -79 -40 -147.5t-140 -156.5l52 -61q116 102 162 184t46 181q0 136 -74 208.5t-211 72.5q-33 0 -60 -7q-16 11 -34 29.5t-30 35.5q-44 61 -74.5 119t-41.5 108l-34 8q-13 -37 -29 -69.5t-38 -63.5q-14 37 -23 72.5t-13 71.5zM1314 1782q-156 0 -254.5 -82t-98.5 -240
q0 -51 11 -109t31.5 -120t49.5 -125q58 -127 93 -211.5t54.5 -150t30.5 -134.5l79 12q-12 75 -33.5 147.5t-58 160.5t-93.5 210q-26 55 -45 111.5t-29 109.5t-10 99q0 129 75 186.5t198 57.5q124 0 193.5 -60.5t69.5 -163.5q0 -65 -30 -155.5t-89 -205.5
q-26 -51 -47.5 -104.5t-34.5 -108.5l78 -17q11 50 30 97t44 94q63 121 96 221.5t33 178.5q0 134 -93 218t-250 84z" />
</svg>