<?xml version="1.0" standalone="no"?>
<!DOCTYPE svg PUBLIC "-//W3C//DTD SVG 1.1//EN" "http://www.w3.org/Graphics/SVG/1.1/DTD/svg11.dtd">
<svg xmlns="http://www.w3.org/2000/svg" xmlns:xlink="http://www.w3.org/1999/xlink" version="1.1"
   viewBox="94 -151 2414 2169">
   <path fill="currentColor"
      d="M706 1978q-75 0 -147 -40t-130 -106t-92.5 -147t-34.5 -162q0 -51 21.5 -91.5t51.5 -61.5q56 -40 123.5 -96t137 -118.5t131 -123.5t105.5 -110.5t60 -77.5q36 -63 57.5 -118.5t31.5 -106.5t10 -100q0 -62 -7.5 -104.5t-15 -85.5t-7.5 -105q0 -177 119.5 -251.5
t402.5 -74.5q214 0 339 25.5t179 84.5t54 160q0 43 -3.5 106.5t-9.5 133.5q41 8 80.5 21.5t64.5 28.5q24 14 34.5 45.5t10.5 75.5q0 72 -26 134t-65 84q-34 19 -98.5 37t-126.5 32q-73 133 -175.5 256.5t-232.5 235.5q20 6 31 7.5t27 1.5q94 0 149.5 -48t98.5 -130
q25 -48 68.5 -77t91.5 -29q55 0 110.5 26t102 69t75 94t28.5 101q0 42 -26.5 88.5t-87.5 108.5q-78 80 -162 133t-176.5 79t-195.5 26q-107 0 -214 -32.5t-213 -96.5q-46 43 -104 87t-117.5 83t-111 68t-85.5 41q-22 8 -53 14t-78 6zM722 1898q116 0 116 -104
q0 -65 -28 -131t-76 -121t-109 -89t-127 -34q-116 0 -116 104q0 64 28 130.5t76 121.5t109 89t127 34zM1203 1665q-70 -38 -93.5 -114t-23.5 -168q0 -151 -47.5 -237t-140.5 -86q-28 0 -46 9.5t-32 22.5l-51 -60q27 -26 56.5 -39t72.5 -13q125 0 196.5 105.5t71.5 290.5
q0 91 17.5 144t57.5 75zM565 1066l-68 -42q63 -98 145.5 -159t173.5 -76l14 78q-154 25 -265 199zM1206 1637q-3 -16 -6 -36t-3 -38q0 -101 68.5 -170t169.5 -69q12 0 23.5 1t21.5 3l-12 80q-15 -4 -33 -4q-68 0 -113 45.5t-45 113.5q0 13 2 28.5t5 31.5zM604 736
q-61 0 -146 -21.5t-168 -85.5l50 -64q68 53 137.5 72t130.5 19q48 0 99.5 -11.5t82.5 -19.5l22 76q-32 10 -91 22.5t-117 12.5zM634 1218q-184 -149 -274 -339t-90 -419q0 -50 12 -118t31 -134q17 -55 84.5 -87.5t166.5 -32.5q103 0 186.5 27t133 73t49.5 102q0 50 -17 112
t-36 111q-21 54 -31 102t-10 94q0 57 22 106t69 98l-56 56q-115 -115 -115 -260q0 -52 12 -109t35 -117q8 -20 14.5 -38.5t10.5 -34.5q-31 12 -69.5 18.5t-82.5 6.5q-102 0 -185.5 -27t-131.5 -71q-5 27 -8.5 58.5t-3.5 64.5q0 191 75 368.5t259 327.5zM1489 1754
q-4 -20 -7.5 -58t-3.5 -57q0 -60 7 -100t26 -75.5t55 -80.5l62 50q-30 38 -45 66t-20 59t-5 81q0 16 3.5 50.5t5.5 52.5zM1954 1739q-51 -14 -97 -53.5t-81 -92t-55.5 -108t-20.5 -103.5l80 4q0 48 27.5 107t72.5 106.5t96 61.5zM679 355q85 0 129.5 -18.5t44.5 -46.5
q0 -31 -41.5 -59t-107.5 -45.5t-140 -17.5q-85 0 -129.5 18t-44.5 47q0 31 41.5 59t108 45.5t139.5 17.5zM917 1829q57 -34 122 -80t121 -92t84 -79q119 78 224 114t214 36q142 0 272 -61.5t221 -170.5q-5 0 -15 -2q-55 -11 -108 -43.5t-94 -79t-61 -96.5q-49 81 -117 126.5
t-174 45.5q-37 0 -73.5 -10.5t-69.5 -27.5t-63 -34q81 -62 154 -130t137 -141.5t117.5 -151t94.5 -156.5q65 -14 136.5 -33t103.5 -36q20 -11 34.5 -54t14.5 -94q0 -27 -2 -38.5t-7 -15.5q-24 -16 -81 -30.5t-106 -21.5q6 -65 10 -123t6.5 -105t2.5 -77q0 -73 -45 -114
t-152 -58.5t-295 -17.5q-166 0 -263 23t-138 76.5t-41 146.5q0 53 7.5 101.5t15 95.5t7.5 98q0 83 -25 173.5t-84 191.5q-19 32 -65 84.5t-110 116t-138.5 131t-150.5 129.5q77 13 146 57t121.5 108.5t82.5 140t30 150.5v15.5t-1 12.5zM1809 1055q-65 -7 -130.5 -39.5
t-164.5 -109.5q-67 -53 -114.5 -81.5t-87.5 -40t-86 -11.5q-28 0 -67.5 5.5t-76 19.5t-56.5 41l-64 -50q30 -37 75.5 -58t94.5 -29.5t89 -8.5q59 0 108.5 13t105.5 46.5t135 95.5q87 68 141 95t106 32zM2199 1416q26 0 38.5 -10t12.5 -33q0 -45 -38 -93.5t-92.5 -82.5
t-105.5 -34t-51 43q0 44 38 93t93 83t105 34zM1105 581l-70 -38q39 -71 101 -115t160 -66t243 -27q140 -5 229.5 -23t148.5 -57t105 -105l65 46q-55 78 -122.5 124t-167.5 67.5t-255 27.5q-197 7 -293.5 44t-143.5 122zM1895 851q-72 -98 -72 -222q0 -107 48 -107
q20 0 31 14.5t7 34.5q-6 28 -6 58q0 98 56 176z" />
</svg>