<?xml version="1.0" standalone="no"?>
<!DOCTYPE svg PUBLIC "-//W3C//DTD SVG 1.1//EN" "http://www.w3.org/Graphics/SVG/1.1/DTD/svg11.dtd">
<svg xmlns="http://www.w3.org/2000/svg" xmlns:xlink="http://www.w3.org/1999/xlink" version="1.1"
   viewBox="94 -151 2414 2169">
   <path fill="currentColor"
      d="M1300 1978q-215 0 -403 -80.5t-330 -223.5t-222 -331.5t-80 -404.5t80 -404.5t222 -331.5t330 -223.5t403 -80.5t403 80.5t330 223.5t222 331.5t80 404.5t-80 404.5t-222 331.5t-330 223.5t-403 80.5zM1104 1878q-256 -159 -383 -400h-212q103 151 256.5 256t338.5 144z
M461 1398h223q-39 -94 -61.5 -199t-22.5 -221h-254q5 114 34.5 220t80.5 200zM1260 1873v-395h-448q73 123 185 222t263 173zM771 1398h489v-420h-580q0 118 24 223t67 197zM346 898h254q0 -116 22.5 -221t60.5 -199h-222q-51 94 -80.5 200t-34.5 220zM1340 1875
q152 -76 264 -175t184 -222h-448v397zM1500 1877q184 -39 336.5 -143.5t254.5 -255.5h-212q-125 239 -379 399zM680 898h580v-420h-490q-42 92 -66 197t-24 223zM1340 1398h490q42 -92 66 -197t24 -223h-580v420zM509 398h212q124 -239 379 -399q-184 39 -336.5 143.5
t-254.5 255.5zM812 398h448v-397q-152 75 -264 174t-184 223zM1917 1398h222q51 -94 81 -200t34 -220h-254q0 116 -22.5 221t-60.5 199zM1340 898h580q0 -117 -24.5 -222t-68.5 -198h-487v420zM1340 398h445q-73 -122 -184 -221t-261 -174v395zM2000 898h254
q-4 -114 -34 -220t-81 -200h-224q39 94 62 199t23 221zM1877 398h214q-103 -152 -257.5 -257.5t-340.5 -142.5q256 159 384 400z" />
</svg>