<?xml version="1.0" standalone="no"?>
<!DOCTYPE svg PUBLIC "-//W3C//DTD SVG 1.1//EN" "http://www.w3.org/Graphics/SVG/1.1/DTD/svg11.dtd">
<svg xmlns="http://www.w3.org/2000/svg" xmlns:xlink="http://www.w3.org/1999/xlink" version="1.1"
   viewBox="94 -151 2414 2169">
   <path fill="currentColor"
      d="M1301 1978q-214 0 -402.5 -80t-332 -222t-225 -331t-81.5 -407q0 -214 80.5 -402.5t224 -332t332 -224.5t404.5 -81q214 0 402 81t331.5 224.5t224.5 332t81 402.5q0 218 -81 407t-224.5 331t-331.5 222t-402 80zM1582 1815q14 0 28 -15.5t14 -27.5q0 -18 -31 -18
q-37 0 -37 26q0 14 8 24.5t18 10.5zM1065 1318q74 0 111 -16t67 -16q14 0 21.5 -10t17.5 -10q11 0 28.5 -16t17.5 -26q0 -9 -7 -9q-8 0 -22 7t-21 18q-7 12 -18 12q-14 0 -39.5 4t-50.5 9q-22 4 -48.5 8t-58.5 4q-11 0 -22.5 -1t-25.5 -1q-4 0 -8.5 8t-4.5 14q0 5 4.5 12.5
t10.5 7.5q14 0 25 0.5t23 0.5zM1100 1244q8 0 18.5 -23.5t20 -48.5t12.5 -28q5 -5 9.5 -11.5t4.5 -11.5q0 -14 1.5 -26.5t2.5 -25.5q2 -13 7 -30t5 -30t-9 -13q-40 0 -58 12q-12 8 -15 28t-14 29q-17 14 -35.5 31t-27.5 33h-29q-10 0 -21 10t-11 21q0 13 13.5 31.5
t29.5 32.5t23 14q10 0 17 -3t17 -3t19.5 6t19.5 6zM1583 1728q48 0 72 -19t40.5 -44t40.5 -43q70 -54 70 -116q0 -23 -14 -29.5t-14 -15.5q0 -7 1 -13.5t1 -13.5q0 -20 -20.5 -38t-20.5 -36v-19v-19t-8 -22.5t-14 -24.5q-7 -14 -14.5 -26t-19.5 -12q-10 0 -19 19t-18 57
q-5 22 -12.5 34.5t-24.5 12.5q-18 0 -41.5 -17.5t-23.5 -30.5q0 -11 7 -17t7 -21q0 -17 -22.5 -26t-63.5 -9q-37 0 -55 8.5t-23 25.5q-7 23 -25 23q-13 0 -19 -9t-14 -9t-28 16.5t-58 47.5q-4 4 -6 11t-4 12q-1 6 -5.5 13t-21.5 14t-26 11.5t-20 4.5q-17 0 -24.5 18.5
t-7.5 35.5q0 22 23.5 65.5t45.5 98.5q-7 7 -9 12.5t-2 9.5q0 24 45 24q19 0 32.5 -2.5t29.5 -2.5q17 0 24.5 -7t28.5 -14t78 -7q46 0 46 28q0 3 -1 6.5t-1 6.5q0 7 7 13t16 6q13 0 26 14.5t59 14.5zM1197 1240q33 0 33 -15q0 -11 -7 -16t-7 -12v-9v-13t13 -13.5t26 -9.5
t13 -16v-6.5v-8.5q0 -11 -7 -11q-10 0 -10 13q0 14 -8 14q-6 0 -10.5 -5.5t-17.5 -5.5q-20 0 -37.5 21.5t-17.5 57.5q0 35 37 35zM1689 1782q15 0 43 -12t58 -29.5t50.5 -34.5t20.5 -28q0 -5 -5 -15.5t-10 -21.5q-6 -14 -5 -24t-11 -10q-7 0 -11 7.5t-4 33.5q0 15 -14 23
q-15 7 -15 25q0 15 -5 15q-4 0 -7.5 -10.5t-11.5 -10.5q-6 0 -21 10.5t-32 21.5q-25 16 -31.5 25.5t-6.5 17.5q0 17 18 17zM1341 1178q17 0 17 -16q0 -12 -8.5 -18.5t-8.5 -21.5q0 -10 3.5 -14.5t3.5 -9.5q0 -9 -16 -9q-15 0 -23.5 16t-8.5 42q-23 6 -23 17t38 11
q5 0 12.5 1.5t13.5 1.5zM1279 1098q24 0 24 -9q0 -4 -11 -25q8 -5 8 -15q0 -9 -13 -28.5t-28.5 -35.5t-23.5 -16q-10 0 -14 -11.5t-4 -27.5q0 -17 -8.5 -24.5t-16.5 -7.5q-7 0 -9.5 9t-2.5 35q0 36 24 63v9.5v8.5q0 36 5.5 46t24.5 10q8 0 21 9.5t24 9.5zM968 1305
q8 0 16.5 -9t8.5 -22q0 -16 -23.5 -39t-45.5 -51q-13 -17 -21 -34.5t-16 -27.5q-5 -7 -27.5 -18t-25.5 -22q-8 -31 -7 -46t10 -15q15 0 28 17t24 34.5t18 17.5q8 0 19.5 -8t23.5 -13q17 -8 33 -18.5t16 -21.5q0 -30 -13 -48t-26.5 -30t-13.5 -23q0 -12 11.5 -22t21.5 -10
t10 5q0 4 -6.5 10.5t-6.5 18.5q0 7 7 12.5t14 5.5q16 0 23 -16t19 -32t43 -16q34 0 64 -18t73 -70q29 -35 34.5 -44.5t5.5 -21.5q0 -28 -13 -41t-26 -20.5t-13 -15.5q0 -7 10.5 -19.5t10.5 -28.5q0 -9 -17.5 -11.5t-17.5 -21.5q0 -9 14 -21.5t24 -12.5q6 0 6 5q0 4 -2 8.5
t-2 10.5q0 13 32 13q21 0 21 9t26 14v22.5v22.5q0 22 4 22q26 0 42 -14t16 -45t-28 -59q24 -7 29.5 -22t15.5 -26q8 -9 26.5 -5.5t28.5 -5.5q9 -8 16.5 -24.5t13.5 -27.5q12 -23 18.5 -42t6.5 -47q0 -10 -7 -23t-11 -26q-5 -17 -11 -30t-16 -13q-8 0 -12.5 4t-12.5 4
q-10 0 -18 -5.5t-8 -18.5q0 -15 19 -38.5t47 -23.5q9 0 18 7t22 7t23 -15t20 -29.5t22 -14.5q10 0 13.5 7.5t3.5 30.5q0 8 -1.5 18.5t-1.5 19.5q0 10 6 16t10 16q8 22 23 43t25 21q8 0 14.5 -20t6.5 -68q0 -24 -3.5 -44.5t-3.5 -54.5q0 -17 3 -24t3 -23q0 -5 -0.5 -11.5
t-1.5 -13.5q-70 -27 -159 -46t-148 -17q-22 32 -37 47t-19 15q-18 0 -50.5 -5t-52.5 -12q-6 -2 -5 -18.5t1 -25.5q-178 15 -319.5 87.5t-245 176.5t-168.5 216t-90 207q12 7 26 19t14 24q0 19 -1 34.5t-1 31.5q0 10 9 10.5t9 12.5q0 40 7.5 90t18.5 88q5 18 8 38.5t13 20.5
q19 0 26.5 -28t12.5 -56t16 -28q12 0 35 -22t46 -43.5t32 -21.5q24 0 33.5 5t19.5 24q16 29 16 43q0 36 5.5 48.5t21.5 12.5q20 0 28 27.5t8 65.5q0 8 1.5 18.5t5.5 18.5q5 10 11.5 20t13.5 20q-19 -11 -33.5 -23.5t-28.5 -12.5q-16 0 -5.5 16t35 41t52.5 53t47 51
q7 8 15.5 11t17.5 8q13 7 26 12.5t28 5.5zM1653 1228q7 0 25.5 -8t18.5 -15q0 -3 -2.5 -6.5t-2.5 -7.5q0 -7 11 -7t25 15t40 15q21 0 21 -12q0 -15 -34 -20l-31 -35l-1 -24l-25 -7q-14 -10 -29 -20t-29 -19q-36 -2 -65.5 -1t-61.5 4q-13 12 -22 28t-21 16q-8 0 -9 -9.5
t-6 -19t-26 -9.5q-10 0 -29 5t-28 13v10q0 10 11 17.5t16 12.5q8 8 13 17.5t30 9.5q13 0 39 -2t51 -2q21 0 29 3.5t8 13.5t-6 14t-6 12q0 13 51 13q12 0 24 2.5t21 2.5zM1068 331q-16 0 -26 -12.5t-10 -23.5q0 -12 11.5 -16.5t25.5 -14.5q10 -7 18 -17t19 -10q10 0 15 10
t5 23q0 25 -19 43t-39 18zM1410 721q2 0 47 -15q50 -17 56 -26q11 -15 22 -26.5t27 -27.5q5 -5 9.5 -14t5.5 -32q1 -13 2.5 -28.5t1.5 -37.5q0 -12 14 -15.5t14 -25.5q0 -18 -9 -18q-25 0 -32 -13t-13 -13q-7 0 -14 11.5t-7 42.5q0 44 -2 67t-7 38q-4 4 -20.5 19.5
t-24.5 23.5q-3 3 -9 3.5t-29 0.5q-13 0 -25.5 13.5t-19.5 25.5q-4 7 -6.5 14t-2.5 12q0 9 6 15t16 6z" />
</svg>