<?xml version="1.0" standalone="no"?>
<!DOCTYPE svg PUBLIC "-//W3C//DTD SVG 1.1//EN" "http://www.w3.org/Graphics/SVG/1.1/DTD/svg11.dtd">
<svg xmlns="http://www.w3.org/2000/svg" xmlns:xlink="http://www.w3.org/1999/xlink" version="1.1"
   viewBox="94 -151 2414 2169">
   <path fill="currentColor"
      d="M1301 1978q-214 0 -402.5 -80t-332 -222t-225 -331t-81.5 -407q0 -214 81.5 -402.5t225 -332t332 -224.5t402.5 -81t402 81t331.5 224.5t224.5 332t81 402.5q0 218 -81 407t-224.5 331t-331.5 222t-402 80zM1412 1309q-16 0 -16 -21q0 -45 37 -47q25 -1 25 19
q0 19 -13 34t-33 15zM1635 1653q15 0 30 -23.5t28.5 -54t23.5 -49.5q19 -37 28 -65.5t9 -45.5q0 -14 -9 -14q-10 0 -24.5 19.5t-32.5 40.5q-19 22 -42 37t-23 26q0 28 -1 58.5t-1 47.5q0 23 14 23zM1300 1795q35 0 51 -6.5t35 -20.5q23 -17 31.5 -31t17.5 -21
q35 -29 49.5 -49t14.5 -59q0 -15 22.5 -35l45 -40t22.5 -36q0 -6 -1 -33t-2 -60.5t-1 -59.5q0 -47 27.5 -83.5t63.5 -72.5t63.5 -79t27.5 -103q0 -15 -4.5 -28t-12.5 -13q-16 0 -43 21t-74 21q-18 0 -21 -13.5t-15 -29.5q-10 -13 -29.5 -23t-30.5 -21q-4 -4 -6 -14t-10 -20
q-4 -6 -13 -10.5t-14 -11.5q-8 -14 -10.5 -32t-16.5 -40q-4 -7 -14.5 -8t-13.5 -7t-2.5 -16.5t-1.5 -15.5q-12 -29 -21.5 -42t-9.5 -18q0 -9 7 -9q5 0 9 7t12 15l10.5 10.5t9.5 12.5q5 7 7 14.5t8 15.5q5 6 14 11.5t13 12.5q9 13 10.5 22t20.5 35q20 27 32 31.5t31 33.5
q12 18 20.5 46t25.5 28q10 0 21 -5.5t32 -17.5q14 -8 33.5 -16.5t33.5 -21.5q7 -6 14 -16.5t17 -18.5q9 -7 21 -11t16 -10q18 -24 26 -48t8 -54q0 -18 -12.5 -26.5t-26.5 -18.5q-10 -7 -19 -16.5t-17 -9.5q-14 0 -22.5 19.5t-23.5 19.5q-12 0 -40 -23q-5 -5 -9.5 -15
t-9.5 -15q-14 -14 -27 -21.5t-13 -20.5q0 -11 13 -11q17 0 35 25.5t47 25.5q14 0 22.5 -9t24.5 -9q14 0 21.5 16.5t35.5 16.5q37 0 50.5 -8t33.5 -8q15 0 31.5 21.5t36.5 43.5t42 22q5 20 22 49t36 67q12 23 22 44t23 21q14 0 19.5 -25.5t5.5 -100.5q0 -65 2 -130t7 -147
q-42 -99 -121.5 -194t-182.5 -172.5t-217.5 -124.5t-226.5 -51q-17 14 -23 29t-6 23q0 11 11 11t22 -1t11 7q0 16 -26.5 22t-40.5 6q-15 0 -34.5 -25t-51.5 -25q-37 0 -79 23.5t-74 55.5q-13 13 -33.5 21t-36 19t-15.5 35q0 13 7 19t14 6q8 0 15.5 -6.5t10.5 -6.5q5 0 6 18
t20 18q11 0 19.5 -8t15.5 -15q9 -9 17 -16.5t8 -11.5q0 -6 -1 -11t-1 -12t15 -24t25 -17q6 0 6 5q0 7 -11 21.5t-11 21.5q0 6 9 6q8 0 23 -5.5t26 -5.5q13 0 13 8q0 7 -18 13.5t-40 6.5q-4 0 -21 19q-6 7 -18.5 13.5t-20.5 14.5q-9 9 -19.5 16.5t-21.5 7.5q-13 0 -18 -7.5
t-12 -14.5t-25 -7q-10 0 -13.5 7.5t-14.5 14.5q-8 5 -20.5 7.5t-20.5 9.5q-19 16 -32 28.5t-26 12.5q-7 0 -13 -2t-9 -2q-8 0 -18 7.5l-18 13.5q-4 4 -8 8.5t-4 11.5t4 12t19 19q-6 2 -13 18q-5 1 -13 1h-14q-19 0 -29 -3t-12 -3q-16 0 -36 57q-4 10 -10.5 19.5t-6.5 17.5
q0 19 12.5 35.5t22.5 16.5q33 0 61 -19q11 -8 18.5 -23t18.5 -22q24 -16 38.5 -26.5t14.5 -19.5q29 0 44 -15.5t22 -15.5q5 0 7.5 9t12.5 23q7 10 16.5 17.5t17.5 15.5q12 12 23.5 24t18.5 12q11 0 14 -10t3 -20q0 -11 -23.5 -33.5t-23.5 -40.5q0 -10 4 -18q2 2 8.5 9.5
t18.5 15.5q10 7 20.5 13t13.5 17q7 24 19 42.5t15 35.5q2 11 10.5 20t12.5 9q12 0 19 -10t7 -20q0 -11 -4.5 -15t-4.5 -23q0 -9 8 -12.5t30 -3.5q14 0 25.5 -7t11.5 -17q0 -24 15.5 -45t35.5 -21q9 0 16.5 6t17.5 6q7 0 21.5 -7.5t24.5 -7.5q13 0 24 12t24 20q11 7 20 8t9 3
q0 14 -22.5 22t-52.5 8q-11 0 -19 -6.5t-19 -6.5q-12 0 -22 4.5t-23 7.5q-27 6 -51 18.5t-24 28.5q0 13 14 33.5t42 20.5q6 0 11 -2t12 -4q5 -2 12 -1.5t12 0.5q14 0 23.5 -8t19.5 -8q5 0 7 6.5t2 20.5q0 47 -3 60.5t-20 13.5q-16 0 -18 11t-16 11q-42 0 -88 -16t-93 -16
q-22 0 -27.5 8.5t-8 17t-14.5 8.5q-21 0 -37 -14t-39 -27q-10 -5 -25.5 -8.5t-15.5 -11.5t5.5 -14.5t5.5 -13.5q0 -11 -19.5 -19.5t-34.5 -8.5q-13 0 -43 4t-44 4q-20 0 -33 15t-28 15q-13 0 -31.5 -2t-34.5 -2q-22 0 -43.5 22.5t-26.5 46.5q-5 23 -18.5 34.5t-36.5 20.5
q-7 3 -16.5 22t-19.5 34t-20 23.5t-10 24.5q0 64 -18 109.5t-18 95.5q0 48 32 60q9 3 28 32.5t42 58t43 28.5q10 0 19 -6t16 -6q12 0 21 12t30 12q23 0 45 -15.5t38 -15.5q12 0 18 9.5t16.5 19t33.5 9.5q45 0 45 35q0 13 -1.5 25t-1.5 29q0 34 25.5 59t52.5 57.5t32 89.5
q-11 10 -18.5 26t-7.5 42q0 11 18 41t47 61q13 13 24 27.5t24 30.5q8 10 20 16.5t20 16.5q26 30 50.5 41t69.5 11zM985 497q8 0 15 -14t7 -33t-11 -19q-24 0 -24 40q0 26 13 26zM928 293q14 0 23.5 -16.5t9.5 -61.5q0 -12 -3 -22t-15 -10q-25 0 -25 43q0 7 -6.5 10t-23.5 3
q-12 0 -28 12t-16 26q0 9 15.5 12.5t68.5 3.5zM1368 568q18 0 18 -15q0 -14 -18 -14t-18 14q0 15 18 15zM839 161q11 0 27.5 -7.5t35.5 -14.5q29 -11 63.5 -25t68.5 -28q51 -21 97 -34t46 -26q0 -11 -20 -15t-46 -6t-44 -5l-165 55q-36 27 -59.5 54t-23.5 41q0 11 20 11z
M1661 506q-35 0 -49 -15t-20.5 -36.5t-20.5 -39.5q-14 -20 -29.5 -25.5t-15.5 -32.5q0 -20 11.5 -31.5t25.5 -11.5q12 0 21.5 8.5t9.5 19.5q0 7 -1.5 12t-1.5 8q0 10 26 27.5t52 40.5t26 51q0 10 -7 17.5t-27 7.5z" />
</svg>