<?xml version="1.0" standalone="no"?>
<!DOCTYPE svg PUBLIC "-//W3C//DTD SVG 1.1//EN" "http://www.w3.org/Graphics/SVG/1.1/DTD/svg11.dtd">
<svg xmlns="http://www.w3.org/2000/svg" xmlns:xlink="http://www.w3.org/1999/xlink" version="1.1"
   viewBox="94 -151 2414 2169">
   <path fill="currentColor"
      d="M1301 1978q-214 0 -402.5 -80t-332 -222t-225 -331t-81.5 -407q0 -214 81.5 -402.5t225 -332t332 -224.5t402.5 -81t402 81t331.5 224.5t224.5 332t81 402.5q0 218 -81 407t-224.5 331t-331.5 222t-402 80zM1372 1886q47 0 98 -8t87 -23t36 -35q0 -8 -5 -15t-5 -15
q0 -5 4.5 -8.5t17.5 -3.5q22 0 51 4q25 -17 43 -32.5t34 -35.5q6 -7 6 -30q0 -26 21.5 -57t52.5 -31q17 0 46 -19.5t51 -53.5q18 -28 26 -62.5t27 -60.5q23 -32 38.5 -55t18.5 -36q2 -11 3 -22t1 -41q0 -29 -32 -47t-95 -18q-36 -32 -88 -32l-9 -33q-15 -54 -44.5 -70
t-89.5 -16q-34 0 -50.5 -20.5t-38 -41t-71.5 -20.5q-65 0 -90.5 -11t-41.5 -11q-13 0 -18 8.5t-19 8.5q-11 0 -17.5 -5t-14.5 -5q-22 0 -46.5 17.5t-58.5 58.5q-9 -11 -22 -22t-23 -11h-58q-14 0 -31.5 -19.5t-17.5 -30.5q11 -14 17 -32t6 -35q0 -6 -1.5 -15t-4.5 -13
q-11 -17 -39 -17h-45q-6 0 -11.5 3.5t-10.5 3.5q-6 0 -6 -9q0 -6 5 -11.5t12 -18.5q4 -7 7 -16.5t7 -16.5q8 -14 15.5 -24t7.5 -15q0 -7 -6 -13t-16 -6q-5 0 -17.5 1t-17.5 1q-14 0 -25.5 5t-21.5 28q-9 20 -30 27.5t-41 7.5q-12 0 -25.5 -16.5t-13.5 -34.5q0 -42 14 -61
t14 -55q0 -20 18.5 -39.5t49.5 -19.5q23 0 45 0.5t47 0.5q21 0 41.5 -4.5t34.5 -4.5q12 0 20.5 25.5t18.5 51.5t26 26q11 0 14.5 -8.5t3.5 -16.5q0 -24 -7.5 -59t2.5 -56q14 -29 40.5 -39t48.5 -18t22 -31q0 -8 -1.5 -10.5t-1.5 -9.5q0 -9 14 -23.5t29.5 -26.5t20.5 -12
q34 0 40 -10.5t6 -38.5q12 -9 33 -20q-1 6 -1 13q0 18 18 18q7 0 16 -8t24 -16q17 -9 33 -19.5t16 -17.5q0 -10 -27.5 -13.5t-42.5 -3.5q-3 0 -5 -6.5t-2 -18.5q0 -5 -1 -9t-5 -4q-7 0 -19.5 5.5t-20.5 5.5t-8 -6q0 -11 32 -20.5t70 -9.5q22 0 30 4.5t8 19.5q-13 4 -13 12
q0 13 15.5 26.5t58.5 13.5q31 0 31 -17q0 -5 -9 -13t-36 -25q-6 -4 -18 -23.5t-53 -46.5q-23 -15 -37 -40.5t-9 -54.5q-37 -11 -63.5 -15t-64.5 -4q-130 0 -256 36t-234 99.5t-184 144.5t-105 171q4 73 13 103t9 44q0 28 8 53.5t24 25.5q21 0 21 -19q0 -9 -7 -17.5t-7 -24.5
q0 -26 -4 -48t-4 -34q0 -21 10 -21q9 0 15 29t10 69.5t6 77.5t2 53q0 10 13.5 26.5t49.5 42.5t57 39.5t36 13.5q14 0 26 -5.5t19 -5.5q5 0 13 6t22 25q9 12 18.5 22.5t18.5 15.5q13 6 28.5 6t31.5 14q17 15 26.5 35t46.5 49q21 16 40.5 29t34.5 13q21 0 33 -8t21 -8
q21 0 28.5 23t7.5 54q0 12 -52 47q-13 9 -23 23.5t-10 33.5q0 9 7 14.5t7 11.5t-9 10.5t-9 28.5q0 23 20.5 47t28.5 44q14 34 29.5 54t37.5 35q53 37 69.5 51.5t16.5 25.5q0 17 -3 52.5t-3 90.5v33.5v33.5q0 97 -28 128q13 4 43.5 9.5t58.5 5.5zM1322 811q7 0 15.5 -8
t16.5 -8q21 0 40 -5.5t19 -12.5q0 -13 -16 -32.5t-38 -19.5q-10 0 -17.5 7t-16.5 7q-7 0 -17 -6t-17 -6q-10 0 -17 5t-12 5q-61 -41 -91.5 -56t-45.5 -15q-50 0 -69.5 4.5t-19.5 10.5q0 14 16.5 29.5t38.5 15.5q52 0 85.5 17.5t53.5 35t32 17.5q7 0 14 -1.5t14 -1.5
q6 0 12.5 9t19.5 9z" />
</svg>