<?xml version="1.0" standalone="no"?>
<!DOCTYPE svg PUBLIC "-//W3C//DTD SVG 1.1//EN" "http://www.w3.org/Graphics/SVG/1.1/DTD/svg11.dtd">
<svg xmlns="http://www.w3.org/2000/svg" xmlns:xlink="http://www.w3.org/1999/xlink" version="1.1"
   viewBox="94 -151 2414 2169">
   <path fill="currentColor"
      d="M797 1778q-135 0 -233.5 -65.5t-152 -185.5t-53.5 -282l41 56q-38 -19 -65.5 -56t-43 -88.5t-17.5 -112.5h-53l-55 -72v-104l55 -73h77q26 -71 82.5 -125t132.5 -84.5t161 -30.5q65 0 142 6.5t156 16.5q82 10 164 17t165 7t165 -7t163 -17q80 -10 155.5 -16.5t136.5 -6.5
q88 0 165.5 30.5t134.5 84.5t83 125h77l55 72v105l-55 71h-53q-2 61 -17.5 113t-43 89.5t-65.5 55.5l50 -115q0 191 -56 323t-157 200.5t-237 68.5q-85 0 -156.5 -29.5t-132 -89t-113.5 -149.5l-21 -36q-24 -42 -39.5 -56.5t-39.5 -14.5t-39.5 14.5t-39.5 56.5l-21 36
q-52 90 -113 149.5t-132.5 89t-156.5 29.5zM822 1448q16 -5 22.5 -20.5t-2.5 -37.5l-95 -237q-11 -28 -27.5 -33.5t-29.5 -0.5q-16 5 -22.5 20.5t2.5 37.5l95 237q11 28 27.5 33t29.5 1zM968 1263q16 -5 22.5 -20.5t-2.5 -37.5l-38 -92q-12 -29 -28 -34t-29 0
q-16 5 -22.5 20.5t2.5 37.5l38 92q11 28 27.5 33t29.5 1zM660 784q16 -5 22.5 -20.5t-2.5 -37.5l-15 -36q-12 -29 -28 -34t-29 0q-16 5 -22.5 20.5t2.5 37.5l15 36q11 28 27.5 33t29.5 1zM799 1698q70 0 128.5 -24t109 -74.5t95.5 -129.5l22 -38q37 -63 67 -86t78 -23t78 23
t67 86l22 38q46 79 96.5 129.5t109.5 74.5t129 24q176 0 271 -123.5t95 -347.5q0 -179 -98 -274t-283 -95h-972q-184 0 -282.5 95t-98.5 274q0 224 95.5 347.5t270.5 123.5zM799 1615q-87 0 -150 -46.5t-96.5 -133t-33.5 -207.5q0 -139 78 -212t217 -73h971
q140 0 217.5 72.5t77.5 212.5q0 121 -33.5 208t-96 133t-149.5 46q-96 0 -159 -49.5t-124 -164.5l-12 -23q-37 -74 -83.5 -103.5t-123.5 -29.5q-76 0 -122.5 29.5t-84.5 103.5l-12 23q-60 115 -123 164.5t-158 49.5zM408 697q0 -190 104 -294t291 -104q77 0 140 9t120 20
q53 10 105 17.5t107 7.5q91 0 165.5 -14t142.5 -30q65 -16 129 -27t139 -11q167 0 254 87t87 254q0 23 -1 42t-3 40h-83q5 -26 6 -46t1 -44q0 -128 -64 -190.5t-197 -62.5q-73 0 -135.5 12t-124.5 27q-68 16 -143 29.5t-173 13.5q-58 0 -110.5 -7t-111.5 -19
q-51 -11 -112.5 -19.5t-137.5 -8.5q-314 0 -314 318h-81zM2326 872l-72 -30q26 -66 34 -108.5t8 -91.5q0 -224 -117 -344t-338 -120q-79 0 -141.5 13.5t-121.5 31.5q-65 19 -131.5 33.5t-146.5 14.5q-67 0 -132 -9t-127 -22q-58 -12 -115 -21t-116 -9q-130 0 -223.5 36
t-153 112t-87.5 197.5t-28 292.5h-80q0 -371 138.5 -544.5t433.5 -173.5q62 0 122 9.5t120 22.5q62 13 123.5 21t124.5 8q73 0 133.5 -13.5t120.5 -30.5q63 -18 132.5 -33.5t154.5 -15.5q164 0 284 67t185.5 189t65.5 288q0 55 -12 109t-38 121z" />
</svg>