<?xml version="1.0" standalone="no"?>
<!DOCTYPE svg PUBLIC "-//W3C//DTD SVG 1.1//EN" "http://www.w3.org/Graphics/SVG/1.1/DTD/svg11.dtd">
<svg xmlns="http://www.w3.org/2000/svg" xmlns:xlink="http://www.w3.org/1999/xlink" version="1.1"
   viewBox="94 -151 2414 2169">
   <path fill="currentColor"
      d="M426 1978h1749q68 0 116.5 -49t48.5 -116v-1750q0 -68 -48.5 -116.5t-116.5 -48.5h-1750q-67 0 -116 48.5t-49 116.5v1751q0 67 49 115.5t117 48.5zM541 1965l54 -58l-276 -258v109zM894 1966l54 -58l-628 -586v108zM1246 1965l54 -58l-980 -914v109zM1596 1963l54 -58
l-1330 -1240v109zM1948 1965l54 -58l-1682 -1571v109zM426 1898q-35 0 -60.5 -25t-25.5 -59v-1751q0 -35 25.5 -60t59.5 -25h1750q35 0 60 25t25 60v1750q0 34 -25 59.5t-60 25.5h-1749zM2267 1890l54 -58l-1990 -1857l-54 58zM2286 1542v-108l-1627 -1518l-54 58z
M2286 1213v-108l-1281 -1193l-54 58zM2286 886v-108l-929 -866l-54 58zM2286 557v-108l-579 -538l-54 58zM2286 228v-108l-224 -208l-54 58z" />
</svg>