<?xml version="1.0" standalone="no"?>
<!DOCTYPE svg PUBLIC "-//W3C//DTD SVG 1.1//EN" "http://www.w3.org/Graphics/SVG/1.1/DTD/svg11.dtd">
<svg xmlns="http://www.w3.org/2000/svg" xmlns:xlink="http://www.w3.org/1999/xlink" version="1.1"
   viewBox="94 -151 2414 2169">
   <path fill="currentColor"
      d="M1299 1978q214 0 402.5 -81.5t332 -225t225 -332t81.5 -401.5t-81.5 -401.5t-225 -332t-332 -225t-402.5 -81.5q-213 0 -401 81.5t-331.5 225t-225 332t-81.5 401.5t81.5 401.5t225 332t331.5 225t401 81.5zM1252 1971l54 -58l-974 -908l-54 58zM1550 1921l54 -58
l-1246 -1161l-54 58zM1784 1812l54 -58l-1390 -1297l-54 58zM1299 1898q-196 0 -370 -75.5t-306 -208t-207.5 -306t-75.5 -370.5t75.5 -370.5t207.5 -306t306 -208t370 -75.5q197 0 371 75.5t306.5 208t208 306t75.5 370.5t-75.5 370.5t-208 306t-306.5 208t-371 75.5z
M2000 1640l54 -58l-1447 -1348l-54 58zM2152 1419l54 -58l-1390 -1297l-54 58zM2242 1174l54 -58l-1254 -1169l-54 58zM2293 893l17 -92l-964 -898l-54 58z" />
</svg>