<?xml version="1.0" standalone="no"?>
<!DOCTYPE svg PUBLIC "-//W3C//DTD SVG 1.1//EN" "http://www.w3.org/Graphics/SVG/1.1/DTD/svg11.dtd">
<svg xmlns="http://www.w3.org/2000/svg" xmlns:xlink="http://www.w3.org/1999/xlink" version="1.1"
   viewBox="94 -151 2414 2169">
   <path fill="currentColor"
      d="M1402 866h505v717q-118 38 -239 56.5t-275 18.5q-227 0 -383 -91.5t-236.5 -259.5t-80.5 -400q0 -229 89.5 -397.5t259 -261.5t409.5 -93q123 0 232.5 23t203.5 63l-70 160q-78 -34 -175 -59t-202 -25q-175 0 -299 71.5t-190 203.5t-66 315q0 175 56 308.5t177.5 208.5
t317.5 75q97 0 164.5 -11t122.5 -24v-434h-321v-164z" />
</svg>