<?xml version="1.0" standalone="no"?>
<!DOCTYPE svg PUBLIC "-//W3C//DTD SVG 1.1//EN" "http://www.w3.org/Graphics/SVG/1.1/DTD/svg11.dtd">
<svg xmlns="http://www.w3.org/2000/svg" xmlns:xlink="http://www.w3.org/1999/xlink" version="1.1"
   viewBox="94 -151 2414 2169">
   <path fill="currentColor"
      d="M691 -65h80v140h-80v-140zM691 284h80v269h-80v-269zM691 762h80v269h-80v-269zM691 1240h80v204h-80v-204zM406 45h80v269h-80v-269zM406 523h80v269h-80v-269zM406 1001h80v119h-80v-119zM975 45h80v269h-80v-269zM975 523h80v269h-80v-269zM975 1001h80v269h-80v-269z
M975 1479h80v228h-80v-228zM1259 284h80v269h-80v-269zM1259 762h80v269h-80v-269zM1259 1240h80v269h-80v-269zM1259 1718h80v207h-80v-207zM1544 45h80v269h-80v-269zM1544 523h80v269h-80v-269zM1544 1001h80v269h-80v-269zM1544 1479h80v228h-80v-228zM1828 -65h80v140
h-80v-140zM1828 284h80v269h-80v-269zM1828 762h80v269h-80v-269zM1828 1240h80v204h-80v-204zM2112 45h80v269h-80v-269zM2112 523h80v269h-80v-269zM2112 1001h80v119h-80v-119zM865 140v80h-269v-80h269zM865 617v80h-269v-80h269zM865 1096v80h-269v-80h269zM581 378v80
h-269v-80h269zM581 857v80h-269v-80h269zM1149 378v80h-269v-80h269zM1149 857v80h-269v-80h269zM1149 1335v80h-269v-80h269zM1433 617v80h-268v-80h268zM1433 1096v80h-268v-80h268zM1433 1573v80h-268v-80h268zM1718 378v80h-269v-80h269zM1718 857v80h-269v-80h269z
M1718 1335v80h-269v-80h269zM2002 140v80h-269v-80h269zM2002 617v80h-269v-80h269zM2002 1096v80h-269v-80h269zM2285 378v80h-269v-80h269zM2285 857v80h-269v-80h269zM2400 617v80h-109v-80h109zM1300 1978q-395 -303 -644.5 -558t-367.5 -480t-118 -438
q0 -126 42.5 -235.5t119 -192.5t179 -129.5t221.5 -46.5q121 0 234 46.5t201 127t133 183.5q46 -103 133.5 -183.5t200.5 -127t234 -46.5q119 0 221.5 46.5t179 129.5t119 192.5t42.5 235.5q0 213 -118 438t-367.5 480t-644.5 558zM1300 1883q365 -283 597 -524.5
t342.5 -453t110.5 -403.5q0 -147 -63.5 -265.5t-172.5 -188.5t-246 -70q-127 0 -236.5 53t-194 151t-137.5 232q-53 -134 -137.5 -232t-193.5 -151t-237 -53q-137 0 -246 70t-172.5 188.5t-63.5 265.5q0 192 110.5 403.5t342.5 453t597 524.5z" />
</svg>