<?xml version="1.0" standalone="no"?>
<!DOCTYPE svg PUBLIC "-//W3C//DTD SVG 1.1//EN" "http://www.w3.org/Graphics/SVG/1.1/DTD/svg11.dtd">
<svg xmlns="http://www.w3.org/2000/svg" xmlns:xlink="http://www.w3.org/1999/xlink" version="1.1"
   viewBox="94 -151 2414 2169">
   <path fill="currentColor"
      d="M1047 1947q-170 -42 -313.5 -136t-250 -228t-165 -298t-58.5 -347q0 -216 80.5 -404.5t223.5 -331.5t331.5 -223.5t404.5 -80.5q215 0 403.5 80.5t331.5 223.5t224 331.5t81 404.5q0 183 -58.5 347t-165 298t-250 228t-313.5 136l38 -94q146 -46 268 -134t212 -208.5
t139.5 -266t49.5 -306.5q0 -199 -74.5 -373t-206.5 -306t-306 -206.5t-373 -74.5t-373 74.5t-306 206.5t-206.5 306t-74.5 373q0 161 49.5 306.5t139.5 266t212.5 208.5t267.5 134zM1297 2028q-179 0 -278.5 -91.5t-99.5 -256.5v-301l80 -20v321q0 130 76.5 199t221.5 69h17
q146 0 221.5 -68.5t75.5 -199.5v-525l80 -41v566q0 165 -99 256.5t-278 91.5h-17zM1280 1708v-400l60 -19v419h-60zM794 1070q-67 0 -122.5 -33t-88.5 -88.5t-33 -122.5q0 -68 33 -123.5t88.5 -88t122.5 -32.5q68 0 123.5 32.5t88 88t32.5 123.5q0 67 -32.5 122.5t-88 88.5
t-123.5 33zM794 1010q77 0 130.5 -54t53.5 -130q0 -77 -53.5 -130.5t-130.5 -53.5q-76 0 -130 53.5t-54 130.5q0 76 54 130t130 54zM794 902q-31 0 -53.5 -22.5t-22.5 -53.5q0 -32 22.5 -54.5t53.5 -22.5q32 0 54.5 22.5t22.5 54.5q0 31 -22.5 53.5t-54.5 22.5zM953 1662
q-109 -48 -171.5 -113.5t-62.5 -121.5q0 -24 14.5 -40t39.5 -25q37 -14 128 -28t214 -39.5t256 -72.5q129 -46 223 -95.5t161.5 -92.5t115.5 -69.5t84 -26.5q39 0 59 40.5t20 100.5q0 90 -47.5 191.5t-134 195.5t-202.5 161v-443q-101 52 -219 95.5t-240 74.5t-238 47v261z
M1606 871q-89 0 -164.5 -45.5t-121 -121t-45.5 -164.5q0 -90 45.5 -165t121 -120.5t164.5 -45.5q90 0 165 45.5t120.5 120.5t45.5 165q0 89 -45.5 164.5t-120.5 121t-165 45.5zM1606 811q73 0 134.5 -37.5t99 -99.5t37.5 -134q0 -73 -37.5 -134.5t-99 -99t-134.5 -37.5
q-72 0 -134 37.5t-99.5 99t-37.5 134.5q0 72 37.5 134t99.5 99.5t134 37.5zM1606 641q-41 0 -71 -30t-30 -71q0 -42 30 -71.5t71 -29.5q42 0 71.5 29.5t29.5 71.5q0 41 -29.5 71t-71.5 30z" />
</svg>