<?xml version="1.0" standalone="no"?>
<!DOCTYPE svg PUBLIC "-//W3C//DTD SVG 1.1//EN" "http://www.w3.org/Graphics/SVG/1.1/DTD/svg11.dtd">
<svg xmlns="http://www.w3.org/2000/svg" xmlns:xlink="http://www.w3.org/1999/xlink" version="1.1"
   viewBox="94 -151 2414 2169">
   <path fill="currentColor"
      d="M1300 1973q-220 0 -409 -79t-330.5 -220t-221 -329t-79.5 -407t79.5 -407t221 -329t330.5 -220t409 -79t409 79t330.5 220t221 329t79.5 407q0 218 -79.5 406.5t-221 329.5t-330.5 220t-409 79zM1300 1581q136 0 256 -46q-130 -71 -256 -71t-256 71q120 46 256 46z
M1300 1636q-125 0 -246.5 -40t-220 -107t-157.5 -149.5t-59 -166.5q0 -41 18 -58.5t49 -17.5q23 0 51 4.5t64 12.5q96 22 229.5 38t271.5 16t271.5 -16t230.5 -38q36 -8 64 -12.5t50 -4.5q32 0 50 17.5t18 58.5q0 84 -59 166.5t-158 149.5t-220.5 107t-246.5 40zM1300 1303
q94 0 201 -7.5t214 -24t200 -41.5v-55q0 -14 -9.5 -17.5t-22.5 -0.5q-80 19 -182 34t-206.5 23.5t-194.5 8.5q-89 0 -194 -8.5t-206.5 -23.5t-182.5 -34q-13 -3 -22.5 0.5t-9.5 17.5v55q93 25 200 41.5t214.5 24t200.5 7.5zM968 945q-53 0 -89 -71t-36 -176t36 -176t89 -71
t89.5 71t36.5 176t-36.5 176t-89.5 71zM1300 1898q203 0 377.5 -73t305.5 -204t204 -305.5t73 -377.5t-73 -377.5t-204 -305.5t-305.5 -204t-377.5 -73q-202 0 -377 73t-305.5 204t-204 305.5t-73.5 377.5t73 377.5t204 305.5t305.5 204t377.5 73zM1632 945q-53 0 -89 -71
t-36 -176t36.5 -176t88.5 -71q53 0 89.5 71t36.5 176t-36.5 176t-89.5 71z" />
</svg>