<?xml version="1.0" standalone="no"?>
<!DOCTYPE svg PUBLIC "-//W3C//DTD SVG 1.1//EN" "http://www.w3.org/Graphics/SVG/1.1/DTD/svg11.dtd">
<svg xmlns="http://www.w3.org/2000/svg" xmlns:xlink="http://www.w3.org/1999/xlink" version="1.1"
   viewBox="94 -151 2414 2169">
   <path fill="currentColor"
      d="M598 1096v-433q0 -214 34 -361t110.5 -236t205 -128.5t317.5 -39.5q253 0 399 72.5t208.5 239.5t62.5 453v433q-120 -1 -235.5 -17t-224.5 -32t-210 -16q-100 0 -209 16t-223.5 32t-234.5 17zM1278 1978q-300 0 -473 -90t-187 -247q-8 -91 -12.5 -186t-6 -187t-1.5 -172
l78 -185q0 244 5 415t17 308q7 78 79 137.5t199.5 93t301.5 33.5q200 0 344.5 -34.5t222 -94t77.5 -132.5q0 -20 -6 -39.5t-19 -45.5q-19 -40 -30.5 -79.5t-11.5 -82.5v-509l80 60v449q0 42 10.5 77t27.5 71q13 27 21 49.5t8 49.5q0 102 -87.5 178.5t-249.5 119.5t-387 43z
M1265 1519q-84 0 -155 -32.5t-125 -98.5l51 -45q46 56 102.5 82.5t126.5 26.5q71 0 127.5 -26.5t102.5 -82.5l51 45q-55 66 -126 98.5t-155 32.5zM1265 1770q-153 0 -281.5 -84.5t-221.5 -239.5t-141 -366l59 -12q45 198 130 342t201.5 222t253.5 78q138 0 253.5 -78
t200 -222t128.5 -342l59 12q-48 211 -140.5 366t-220 239.5t-280.5 84.5zM987 1213q-38 0 -63 -28t-25 -68t25 -68.5t63 -28.5t63.5 28.5t25.5 68.5t-25.5 68t-63.5 28zM1543 1213q-38 0 -63 -28t-25 -68t25 -68.5t63 -28.5t63.5 28.5t25.5 68.5t-25.5 68t-63.5 28z" />
</svg>