<?xml version="1.0" standalone="no"?>
<!DOCTYPE svg PUBLIC "-//W3C//DTD SVG 1.1//EN" "http://www.w3.org/Graphics/SVG/1.1/DTD/svg11.dtd">
<svg xmlns="http://www.w3.org/2000/svg" xmlns:xlink="http://www.w3.org/1999/xlink" version="1.1"
   viewBox="94 -151 2414 2169">
   <path fill="currentColor"
      d="M1151 1978q-52 0 -85.5 -21.5t-33.5 -59.5q0 -22 11 -56t22 -96t11 -167q0 -40 -3.5 -99t-10.5 -108q-162 -12 -272 -109.5t-164 -257.5l-154 -457q-163 -8 -230 -72.5t-67 -195.5q0 -39 26.5 -60t62.5 -34t67.5 -25.5t40.5 -34.5q35 -81 113 -129t182 -48q74 0 128 24.5
t92 71.5q25 0 54.5 37.5t56 93t43.5 112t17 94.5q0 10 -3.5 20.5t-9.5 21.5l46 42q145 -6 238.5 -7.5t141.5 -1.5q242 0 388 57.5t212 183t66 329.5q0 121 27.5 215.5t55 156.5t27.5 88q0 137 -1.5 207t-5 98.5t-10.5 42.5q-21 40 -58.5 64.5t-81.5 24.5q-57 0 -100.5 -22
t-43.5 -66q0 -34 20.5 -53.5t20.5 -38.5v-184q0 -26 -28.5 -62t-75.5 -87q-50 -54 -101.5 -131.5t-86.5 -171.5q-53 19 -111.5 56t-116 76t-107.5 64q2 28 2.5 58.5t0.5 62.5q0 100 -6 200t-16 172t-23 91q-28 42 -72.5 66.5t-94.5 24.5zM807 1882q-38 0 -60 -14.5
t-22 -36.5q0 -26 19.5 -56t38.5 -58.5t19 -49.5v-420l183 83v136q0 64 -5 137.5t-10.5 130t-9.5 70.5q-7 28 -56 53t-97 25zM273 353q-18 0 -33 -20t-15 -42q0 -17 16 -28.5t38 -11.5q26 0 42.5 10t16.5 24q0 16 -24 42t-41 26zM653 959l-26 -82q121 0 229 -9.5t195.5 -26
t145.5 -38.5l34 79q-32 8 -115 27t-202 34.5t-261 15.5zM1151 1898q29 0 56.5 -13t43.5 -38q3 -5 8.5 -45t11 -105t9.5 -144.5t4 -161.5q0 -35 -1 -70t-3 -69q57 -20 118 -57.5t122 -78t119.5 -70.5t110.5 -33q22 109 79 195t113 148q56 60 89 109.5t33 93.5v165
q0 28 -18 46t-18 38q0 18 16 26.5t38 8.5q27 0 49.5 -12t34.5 -33q2 -4 3.5 -31.5t2 -88.5t0.5 -165q0 -31 -17.5 -74t-40 -101t-40 -135t-17.5 -177q0 -181 -55.5 -288.5t-183.5 -154.5t-347 -47q-50 0 -149 2t-254 8l-75 -67q-46 32 -100 51t-109 19q-67 0 -96 -31
t-29 -97q0 -70 21.5 -138t55.5 -120l63 38q-31 47 -46 111t-15 107q0 52 46 52q32 0 79.5 -15.5t84.5 -36.5t37 -37t-14 -57t-34.5 -87t-42 -79t-36.5 -33h-8q-29 -50 -73 -74t-110 -24q-79 0 -142 36t-93 116q-7 19 -35 30.5t-61 20.5t-57 20t-24 28q0 76 24.5 119t85.5 61
t168 19l169 500q56 164 163 241t264 77q6 17 11 66.5t8.5 109t3.5 106.5q0 90 -9 147t-18.5 90.5t-9.5 55.5q0 13 8 20t28 7zM1624 1789q-68 0 -68 -48q0 -31 18.5 -63t37 -70t18.5 -86q0 -49 -18 -101t-36.5 -120t-18.5 -164l154 -87l142 286l-106 389q-7 28 -41.5 46
t-81.5 18zM1284 1355q-5 -92 -16 -169.5t-35 -177.5l-41 -171l-20 -87.5t-21.5 -111.5t-12.5 -111l82 -7q0 81 20 174t45 191q27 106 47 214.5t20 205.5zM572 253q-14 0 -24.5 -14.5t-10.5 -34.5t10.5 -34.5t24.5 -14.5t24.5 14.5t10.5 34.5t-10.5 34.5t-24.5 14.5z
M1255 886l-46 -66l462 -321l223 -401q28 -50 4.5 -87t-73.5 -37q-28 0 -48.5 13t-41.5 38l-227 268l-335 232l-74 -46l355 -246l221 -259q36 -43 73 -59.5t77 -16.5q69 0 111 36t50.5 90.5t-22.5 111.5l-232 418zM2108 881l-20 -77q48 -13 78.5 -39.5t53 -86t44.5 -168.5
q12 -59 30 -96.5t36 -80.5q2 -5 -0.5 -9t-7.5 -4q-95 0 -145 49t-83 140q-17 47 -36.5 78.5t-42.5 51.5l-53 -60q29 -26 51.5 -84t56.5 -116q33 -55 90 -95t156 -40q44 0 76.5 12.5t32.5 46.5q0 21 -31.5 74.5t-51.5 149.5q-25 120 -53.5 191t-71 108t-109.5 55z" />
</svg>