<?xml version="1.0" standalone="no"?>
<!DOCTYPE svg PUBLIC "-//W3C//DTD SVG 1.1//EN" "http://www.w3.org/Graphics/SVG/1.1/DTD/svg11.dtd">
<svg xmlns="http://www.w3.org/2000/svg" xmlns:xlink="http://www.w3.org/1999/xlink" version="1.1"
   viewBox="94 -151 2414 2169">
   <path fill="currentColor"
      d="M503 1968q-71 0 -123.5 -33t-81 -86.5t-28.5 -113.5q0 -95 50 -155t187 -118q122 -51 177.5 -109t55.5 -146q0 -24 -2.5 -48t-12.5 -64q-11 -45 -19 -92.5t-8 -83.5q0 -73 23.5 -121.5t62.5 -85.5l829 -805q9 -9 20 -9q9 0 15.5 6.5t6.5 15.5q0 10 -9 19l-718 752
q-12 13 -12 27q0 16 10.5 26.5t26.5 10.5q15 0 27 -12l745 -722q9 -9 20 -9q9 0 15.5 6.5t6.5 15.5q0 10 -9 19l-717 751q-10 11 -10 23q0 16 11 28t27 12q12 0 24 -11l746 -723q9 -9 20 -9q9 0 15.5 6.5t6.5 15.5q0 10 -9 19l-719 751q-9 9 -9 22q0 16 10.5 28t26.5 12
q13 0 24 -10l746 -722q9 -9 20 -9q9 0 15.5 6.5t6.5 15.5q0 10 -9 19l-718 751q-12 13 -12 27q0 16 10 26.5t26 10.5t28 -12l746 -724q9 -9 20 -9q9 0 15.5 6.5t6.5 15.5q0 10 -9 19l-718 753q-11 12 -11 25q0 16 11 26.5t27 10.5q13 0 25 -11l746 -723q9 -9 20 -9
q9 0 15.5 6.5t6.5 15.5q0 10 -9 19l-719 752q-10 11 -10 24q0 16 11 27t27 11q13 0 24 -10l745 -722q9 -9 20 -9q9 0 15.5 6.5t6.5 15.5q0 10 -9 19l-789 836q-46 48 -97.5 66.5t-104.5 18.5q-34 0 -73 -5.5t-88 -15.5q-49 -11 -84 -15.5t-64 -4.5q-88 0 -145 51t-94 162
q-86 259 -279 259zM503 1815q33 0 56.5 -23.5t23.5 -56.5q0 -34 -23.5 -57t-56.5 -23q-34 0 -57 23t-23 57q0 33 23 56.5t57 23.5zM844 1313q20 0 29 -23q12 -29 17.5 -56.5t5.5 -51.5q0 -23 -6 -52.5t-21 -76.5q-12 -38 -17 -68.5t-5 -58.5q0 -14 2 -26.5t6 -23.5l353 359
q12 12 27 12q11 0 19.5 -8t8.5 -19q0 -15 -12 -27l-407 -413q-27 16 -42 56t-15 94q0 32 6.5 69t18.5 72q24 69 24 111q0 21 -3.5 39t-13.5 44q-4 9 -4 19q0 16 10.5 22.5t18.5 6.5z" />
</svg>