<?xml version="1.0" standalone="no"?>
<!DOCTYPE svg PUBLIC "-//W3C//DTD SVG 1.1//EN" "http://www.w3.org/Graphics/SVG/1.1/DTD/svg11.dtd">
<svg xmlns="http://www.w3.org/2000/svg" xmlns:xlink="http://www.w3.org/1999/xlink" version="1.1"
   viewBox="94 -151 2414 2169">
   <path fill="currentColor"
      d="M1300 1978q-259 0 -410 -129t-233 -418l-24 -85q-28 -101 -66 -162.5t-74.5 -100.5t-60 -70.5t-23.5 -70.5q0 -78 62.5 -129.5t155.5 -51.5t179.5 54t129.5 137q65 -52 163 -84t201 -32t201 32t163 84q44 -83 130 -137t179 -54t155.5 51.5t62.5 129.5q0 39 -23.5 70.5
t-60 70.5t-74 100.5t-66.5 162.5l-24 85q-82 289 -233 418t-410 129zM1300 1898q152 0 259.5 -48t180.5 -155t123 -284l24 -85q28 -98 65 -163t72 -106t58 -67.5t23 -47.5q0 -47 -35 -74t-97 -27q-91 0 -164.5 57t-120.5 164q-105 -80 -193 -113t-195 -33t-195 33t-193 113
q-46 -107 -120 -164t-165 -57q-62 0 -97 27t-35 74q0 21 23 47.5t58 67.5t72 106t65 163l24 85q50 177 123.5 284t180.5 155t259 48zM1300 1651q-139 0 -253 -81t-168 -217q54 -137 168 -217.5t253 -80.5t253 80.5t168 217.5q-54 136 -168 217t-253 81zM1300 1577
q115 0 209.5 -66.5t141.5 -181.5v48q-47 -115 -141.5 -181.5t-209.5 -66.5t-209.5 66.5t-141.5 181.5v-48q47 115 141.5 181.5t209.5 66.5zM1300 1564q-87 0 -149 -62t-62 -149t62 -149t149 -62t149 62t62 149t-62 149t-149 62zM1300 1492q57 0 98 -41t41 -98t-41 -98
t-98 -41t-98 41t-41 98t41 98t98 41zM1300 1416q-26 0 -44.5 -18.5t-18.5 -44.5t18.5 -44.5t44.5 -18.5t44.5 18.5t18.5 44.5t-18.5 44.5t-44.5 18.5zM760 866v-552q0 -84 60 -141t145 -57q84 0 142 57t58 141v575h-80v-778q0 -91 62 -152t153 -61t153 61t62 152v778h-80
v-575q0 -84 58 -141t142 -57q85 0 145 57t60 141v552h-80v-542q0 -56 -35.5 -92t-89.5 -36t-87 36t-33 92v578h-80v-781q0 -63 -36.5 -103t-98.5 -40q-61 0 -98 40t-37 103v781h-80v-578q0 -56 -33 -92t-87 -36t-89.5 36t-35.5 92v542h-80z" />
</svg>