<?xml version="1.0" standalone="no"?>
<!DOCTYPE svg PUBLIC "-//W3C//DTD SVG 1.1//EN" "http://www.w3.org/Graphics/SVG/1.1/DTD/svg11.dtd">
<svg xmlns="http://www.w3.org/2000/svg" xmlns:xlink="http://www.w3.org/1999/xlink" version="1.1"
   viewBox="94 -151 2414 2169">
   <path fill="currentColor"
      d="M1120 1978q-277 0 -423.5 -111.5t-173.5 -341.5l-121 -1046q-9 -77 31 -128t106 -51q56 0 90 36.5t45 106.5l55 342q1 7 9 11t15 4q8 0 15 -6.5t6 -14.5l-35 -584q-4 -80 34 -126.5t106 -46.5q65 0 100 43t39 122l31 587q1 11 7.5 18t15.5 7t16 -6t7 -11l14 -735
q2 -64 41.5 -106.5t99.5 -42.5q65 0 102 40t37 111v733q0 5 3.5 8t7.5 3q11 0 12 -12l69 -617q8 -65 47.5 -106.5t96.5 -41.5q69 0 111.5 54t35.5 132l-73 855l54 -70q63 -82 122 -117.5t130 -35.5q79 0 137 45.5t58 112.5q0 42 -22 74t-60 57q-49 31 -98.5 76.5t-94.5 98
t-79.5 106t-52.5 101.5l-26 68q-80 210 -236 307.5t-411 97.5zM1120 1898q231 0 366.5 -83.5t206.5 -269.5l26 -68q27 -71 83.5 -151.5t128 -153t143.5 -117.5q23 -14 34.5 -27.5t11.5 -35.5q0 -33 -34.5 -55.5t-80.5 -22.5q-51 0 -96.5 33t-110.5 110l-88 105
q-126 35 -214.5 104t-135 163.5t-46.5 208.5h-80q0 -122 45 -225t130.5 -181.5t204.5 -124.5l78 -911q4 -44 -15 -72t-50 -28q-26 0 -44 20.5t-22 57.5l-70 627q-4 31 -31 51.5t-60 20.5q-36 0 -63.5 -26.5t-27.5 -63.5v-734q0 -38 -14 -54.5t-45 -16.5q-26 0 -43 19.5
t-18 51.5l-14 735q-1 39 -31 67t-70 28q-42 0 -72.5 -29t-32.5 -72l-31 -587q-2 -48 -16 -68.5t-43 -20.5q-31 0 -47 21t-13 68l35 584q2 41 -29 73t-72 32q-37 0 -66.5 -23.5t-35.5 -59.5l-55 -340q-7 -43 -19.5 -60t-35.5 -17q-29 0 -46.5 23.5t-12.5 67.5l121 1046
q23 198 146.5 289.5t370.5 91.5z" />
</svg>