<?xml version="1.0" standalone="no"?>
<!DOCTYPE svg PUBLIC "-//W3C//DTD SVG 1.1//EN" "http://www.w3.org/Graphics/SVG/1.1/DTD/svg11.dtd">
<svg xmlns="http://www.w3.org/2000/svg" xmlns:xlink="http://www.w3.org/1999/xlink" version="1.1"
   viewBox="94 -151 2414 2169">
   <path fill="currentColor"
      d="M1587 1978q-146 0 -298 -44.5t-291 -120.5t-249.5 -171t-174.5 -197.5t-64 -198.5q0 -90 41.5 -210t116.5 -257t173 -278l45 -64q123 -175 205 -282t138 -162.5t98.5 -75t87.5 -19.5q87 0 141.5 54.5t54.5 132.5q0 62 -33 122.5t-80 125.5t-90 142l-368 661l-73 -40
l368 -659q44 -79 88 -141.5t73 -114t29 -96.5q0 -46 -31 -76.5t-79 -30.5q-36 0 -72.5 21.5t-86 77t-123 155.5t-181.5 256l-45 65q-92 133 -162.5 262t-109.5 239.5t-39 191.5q0 83 60 173.5t162.5 175.5t231.5 153.5t267.5 109t269.5 40.5q134 0 211.5 -54t105.5 -157
l78 -292q24 -92 24 -155q0 -80 -36 -121.5t-106 -41.5h-19l-4 -80h21q108 0 168 64t60 176q0 41 -6.5 82.5t-19.5 88.5l-87 321q-33 122 -131 185.5t-259 63.5zM1418 1312l-74 -31l73 -166q48 -110 69 -183t21 -133q0 -63 -45 -107t-109 -44q-20 0 -52 11l-21 -77
q22 -8 39 -11t34 -3q65 0 119.5 31t87.5 83.5t33 116.5t-25 144.5t-78 203.5zM1758 1462l-76 -28l51 -136q42 -112 59 -174.5t17 -110.5q0 -69 -49.5 -117.5t-120.5 -48.5q-40 0 -73 15l-38 -69q54 -26 111 -26q69 0 127.5 33t93.5 89t35 124q0 55 -21 125.5t-65 187.5z
M783 612q-13 -116 -34 -196t-42.5 -136t-36 -99.5t-14.5 -88.5q0 -74 56.5 -123.5t134.5 -49.5q83 0 161 63.5t130 173.5l-60 61q-42 -98 -104 -158t-127 -60q-46 0 -75.5 26t-29.5 67q0 36 20.5 87.5t47 137.5t44.5 226z" />
</svg>