<?xml version="1.0" standalone="no"?>
<!DOCTYPE svg PUBLIC "-//W3C//DTD SVG 1.1//EN" "http://www.w3.org/Graphics/SVG/1.1/DTD/svg11.dtd">
<svg xmlns="http://www.w3.org/2000/svg" xmlns:xlink="http://www.w3.org/1999/xlink" version="1.1"
   viewBox="94 -151 2414 2169">
   <path fill="currentColor"
      d="M1300 1980q-175 0 -329 -66t-270.5 -182.5t-182.5 -270.5t-66 -329q0 -176 66 -329.5t182.5 -270t270.5 -182.5t329 -66q176 0 329.5 66t270 182.5t182.5 270t66 329.5q0 175 -66 329t-182.5 270.5t-270 182.5t-329.5 66zM1300 1696q-58 0 -113 -14t-109 -41l36 -72
q47 24 91.5 35.5t94.5 11.5t94.5 -11.5t91.5 -35.5l36 72q-54 27 -108.5 41t-113.5 14zM992 1385q-75 0 -126 -51t-69 -120l78 -20q13 51 42.5 81t74.5 30t74.5 -30t42.5 -81l78 20q-18 69 -69 120t-126 51zM1300 1900q161 0 300.5 -59t244.5 -164t164 -244.5t59 -300.5
t-59 -300.5t-164 -244.5t-244.5 -164t-300.5 -59t-300.5 59t-244.5 164t-164 244.5t-59 300.5t59 300.5t164 244.5t244.5 164t300.5 59zM677 402l-56 51l-188 -209l55 -49zM1608 1385q-75 0 -126 -51t-69 -120l78 -20q13 51 42.5 81t74.5 30t74.5 -30t42.5 -81l78 20
q-18 69 -69 120t-126 51zM1100 193l-73 16l-63 -299l73 -15zM1636 -90l-63 299l-73 -16l63 -298zM2167 244l-188 209l-56 -51l189 -207z" />
</svg>