<?xml version="1.0" standalone="no"?>
<!DOCTYPE svg PUBLIC "-//W3C//DTD SVG 1.1//EN" "http://www.w3.org/Graphics/SVG/1.1/DTD/svg11.dtd">
<svg xmlns="http://www.w3.org/2000/svg" xmlns:xlink="http://www.w3.org/1999/xlink" version="1.1"
   viewBox="94 -151 2414 2169">
   <path fill="currentColor"
      d="M1091 1786q-175 0 -329 -66t-270.5 -182.5t-182.5 -270.5t-66 -329q0 -176 66 -329.5t182.5 -270t270.5 -182.5t329 -66q176 0 329.5 66t270 182.5t182.5 270t66 329.5q0 175 -66 329t-182.5 270.5t-270 182.5t-329.5 66zM525 956q-46 0 -94.5 -30t-73.5 -75l70 -38
q16 28 43.5 45.5t54.5 17.5q44 0 75.5 -17.5t55.5 -50.5l64 48q-32 43 -82.5 71.5t-112.5 28.5zM1091 1706q161 0 300.5 -59t244.5 -164t164 -244.5t59 -300.5t-59 -300.5t-164 -244.5t-244.5 -164t-300.5 -59t-300.5 59t-244.5 164t-164 244.5t-59 300.5t59 300.5
t164 244.5t244.5 164t300.5 59zM1159 956q-69 0 -116.5 -32t-74.5 -68l64 -48q21 28 51 48t76 20q49 0 85 -18t63 -51l62 50q-36 43 -90 71t-120 28zM1601 1282l32 -68q68 9 168 3.5t207.5 -25.5t194.5 -53l4 69q-69 26 -151 44t-166 27.5t-159 10t-130 -7.5zM1611 1081
l24 -70q48 3 128.5 0.5t170.5 -12t170.5 -27.5t131.5 -45.5t51 -65.5q0 -35 -65.5 -69t-187.5 -57l14 -68q89 17 158.5 44.5t110 65t40.5 84.5q0 51 -40.5 88t-108.5 62.5t-150 40.5t-166.5 22.5t-158 8.5t-122.5 -2zM828 1292q-40 0 -92.5 -13.5t-98.5 -41.5l36 -72
q39 25 81.5 36t73.5 11q96 0 186 -47l36 72q-107 55 -222 55z" />
</svg>