<?xml version="1.0" standalone="no"?>
<!DOCTYPE svg PUBLIC "-//W3C//DTD SVG 1.1//EN" "http://www.w3.org/Graphics/SVG/1.1/DTD/svg11.dtd">
<svg xmlns="http://www.w3.org/2000/svg" xmlns:xlink="http://www.w3.org/1999/xlink" version="1.1"
   viewBox="94 -151 2414 2169">
   <path fill="currentColor"
      d="M422 1978v-368h100v-1323h79q76 0 106.5 -23t51.5 -81q50 -139 153 -212t248 -73h280q144 0 248 71.5t150 205.5q22 62 56.5 87t100.5 25h83v1323h100v368h-1756zM502 1898h200v-208h-200v208zM782 1898h1316v-208h-1316v208zM602 1610h200v-1243h-200v1243zM1327 1001
l-93 -22l-74 18l-34 -16v-63l37 9l71 -16l84 20l42 -13v67zM882 1610h1116v-1244h-19q-78 0 -132 -38.5t-85 -124.5q-80 -225 -322 -225q-240 0 -325 233q-28 78 -77.5 116.5t-135.5 38.5h-20v1244zM1608 815l-69 -15l-109 6l-57 -13l-126 11l-47 -7v-66l41 7l138 -13l61 15
l103 -7l63 14l70 -19v68zM1714 1001l-45 -10l-53 -4l-85 8v-67l85 -7l63 4l40 10l55 -4v66zM792 287h93q71 0 101.5 -23t52.5 -81q23 -61 57.5 -113t90.5 -92h-37q-104 0 -186 57t-129 176q-8 21 -18.5 40.5t-24.5 35.5zM1126 629v-70l89 -21l126 11l67 -16l66 26l87 -23
l83 20l130 -14v67l-136 15l-77 -20l-93 25l-64 -26l-57 12l-128 -11z" />
</svg>