<?xml version="1.0" standalone="no"?>
<!DOCTYPE svg PUBLIC "-//W3C//DTD SVG 1.1//EN" "http://www.w3.org/Graphics/SVG/1.1/DTD/svg11.dtd">
<svg xmlns="http://www.w3.org/2000/svg" xmlns:xlink="http://www.w3.org/1999/xlink" version="1.1"
   viewBox="94 -151 2414 2169">
   <path fill="currentColor"
      d="M1929 1297q-20 -37 -23.5 -76t-3.5 -91v-452q0 -147 -44 -274t-123 -223t-186 -149.5t-234 -53.5q-173 0 -307.5 95.5t-211.5 264.5t-77 392q0 105 0.5 195t3.5 169l-81 -50q-2 -69 -2.5 -147.5t-0.5 -166.5q0 -183 50 -335.5t141 -264t214.5 -172t270.5 -60.5
q144 0 265.5 60t211.5 167t140 248.5t50 304.5v452q0 37 3.5 71t23.5 56zM658 2028q-41 0 -71 -30t-30 -70q0 -41 30 -70.5t71 -29.5t70 29.5t29 70.5q0 40 -29.5 70t-69.5 30zM658 1971q17 0 29.5 -13t12.5 -30t-12.5 -30t-29.5 -13q-18 0 -31 12.5t-13 30.5q0 17 13 30
t31 13zM550 2006q-62 0 -97 -24t-49.5 -67t-14.5 -100q0 -55 4 -88.5t4 -76.5q0 -55 -4.5 -94t-9.5 -73h64q5 34 9.5 73.5t4.5 92.5q0 41 -4.5 76.5t-4.5 91.5q0 66 19.5 96t74.5 30q26 0 59 -15l21 58q-37 20 -76 20zM929 1977q-41 0 -70.5 -30t-29.5 -70q0 -41 30 -70.5
t70 -29.5t69.5 29t29.5 71q0 41 -29 70.5t-70 29.5zM929 1917q17 0 29.5 -12.5t12.5 -30.5q0 -17 -12.5 -30t-29.5 -13t-30 13t-13 30t12.5 30t30.5 13zM481 1432l-16 -72q34 -49 82.5 -79t102.5 -30q52 0 86 21l31 70q-25 -17 -54.5 -28t-57.5 -11q-55 0 -103.5 37.5
t-70.5 91.5zM404 1454h46q-13 -96 -17 -133.5t-4 -61.5q0 -65 38.5 -108t99.5 -43q50 0 94.5 40t105.5 139l30 49l38 -30l-26 -44q-66 -112 -119 -155.5t-119 -43.5q-82 0 -134.5 54.5t-52.5 140.5q0 15 2.5 49.5t7.5 74.5t10 72zM978 1911v-67q43 -6 61.5 -27.5t18.5 -61.5
q0 -39 -19.5 -74t-81.5 -106q-24 -28 -51.5 -66.5t-51 -77.5t-37.5 -68l52 -42q21 50 52 97.5t86 118.5q66 84 90 129t24 89q0 67 -37.5 107.5t-105.5 48.5zM361 1509q-11 -77 -19.5 -143.5t-8.5 -107.5q0 -69 32 -124.5t85.5 -88.5t120.5 -33q74 0 142.5 49t126.5 152
l61 107l-124 88q-68 -112 -104 -164.5t-57.5 -68.5t-48.5 -16q-40 0 -63.5 26.5t-23.5 73.5q0 41 7.5 102.5t21.5 147.5h-148zM446 1093q-34 -54 -47.5 -89t-13.5 -69q0 -92 75.5 -147t204.5 -55l4 79q-97 3 -148 31.5t-51 91.5q0 24 11 51t31 59zM1325 1751q-67 0 -129 -5
t-117 -15v-81q53 10 114.5 15.5t131.5 5.5q85 0 160.5 -6.5t140.5 -19.5v81q-67 12 -142 18.5t-159 6.5zM1786 1913q-84 0 -143 -59t-59 -142t59 -142t143 -59t142.5 58.5t58.5 142.5q0 83 -59 142t-142 59zM1785 1826q47 0 80 -33.5t33 -80.5q0 -48 -33 -81t-80 -33
t-80.5 33.5t-33.5 80.5t33.5 80.5t80.5 33.5zM1785 1769q-24 0 -41 -17t-17 -40q0 -24 17 -41t41 -17q23 0 40 17t17 41q0 23 -17 40t-40 17zM1310 1142q-85 0 -155 -33.5t-125 -100.5l51 -44q47 57 102.5 82.5t126.5 25.5q72 0 128 -25.5t102 -82.5l51 44
q-55 67 -125.5 100.5t-155.5 33.5zM1042 834q-38 0 -63 -28t-25 -68t25 -68.5t63 -28.5t63.5 28.5t25.5 68.5t-25.5 68t-63.5 28zM1579 834q-38 0 -63.5 -28t-25.5 -68t25.5 -68.5t63.5 -28.5t63 28.5t25 68.5t-25 68t-63 28zM1746 1544q5 -74 59 -147.5t178 -171.5
q115 -91 159.5 -152.5t44.5 -119.5q0 -86 -68.5 -127.5t-177.5 -41.5v-80q98 0 171 29t114 84.5t41 135.5q0 79 -55 161.5t-187 185.5q-106 82 -150 136t-49 108h-80z" />
</svg>