<?xml version="1.0" standalone="no"?>
<!DOCTYPE svg PUBLIC "-//W3C//DTD SVG 1.1//EN" "http://www.w3.org/Graphics/SVG/1.1/DTD/svg11.dtd">
<svg xmlns="http://www.w3.org/2000/svg" xmlns:xlink="http://www.w3.org/1999/xlink" version="1.1"
   viewBox="94 -151 2414 2169">
   <path fill="currentColor"
      d="M2391 1778q-76 -88 -143.5 -143.5t-150.5 -98.5l35 -72q71 36 135.5 81t122.5 106v-1014l-46 -62q-34 -47 -63.5 -75.5t-64.5 -52.5q-108 -74 -212.5 -135t-185.5 -97.5t-118 -36.5q-22 0 -70 22.5t-98 57.5q-55 39 -88.5 74t-41.5 59q-29 85 -45.5 173t-16.5 142
q0 61 7 82.5t33 21.5q35 0 60.5 -36.5t66.5 -136.5q78 -56 187 -56q77 0 140.5 45t101.5 120.5t38 169.5q0 127 -77 221.5t-250 186.5l-30 16q-104 55 -163 99.5t-83 86.5t-24 93q0 29 16 48.5t39 19.5q28 0 68.5 -30.5t100.5 -71t144 -71t199 -30.5q97 0 150.5 -9.5t84 -37
t57.5 -81.5l72 34q-35 72 -77 109.5t-109.5 51t-177.5 13.5q-115 0 -190 30.5t-127.5 71t-96.5 71t-98 30.5q-56 0 -92.5 -39t-36.5 -109q0 -73 29.5 -131t98 -111t184.5 -111l30 -15q149 -75 214 -153.5t65 -181.5q0 -71 -27 -128.5t-72 -92t-101 -34.5q-39 0 -67.5 7.5
t-54.5 21.5q-47 111 -89 155.5t-103 44.5q-64 0 -92 -46t-28 -138q0 -62 20 -157t46 -180t163 -176q68 -45 122.5 -70t88.5 -25q32 0 93 23t140 62.5t164 90.5t164 107q35 24 62 50t60.5 68.5t86.5 119.5v1159h-79zM130 1778v-1159q54 -77 87 -119.5t60.5 -68.5t61.5 -50
q79 -56 164 -107t164 -90.5t140.5 -62.5t92.5 -23q34 0 89 25t122 70q137 91 163 176t46 180t20 157q0 92 -28 138t-92 46q-61 0 -103 -44.5t-89 -155.5q-26 -14 -54.5 -21.5t-67.5 -7.5q-55 0 -100.5 34.5t-72.5 92t-27 128.5q0 103 65 181.5t214 153.5l30 15
q116 58 184.5 111t98 111t29.5 131q0 70 -36.5 109t-92.5 39q-54 0 -98 -30.5t-96.5 -71t-127.5 -71t-190 -30.5q-110 0 -177 -13.5t-109.5 -51t-77.5 -109.5l72 -34q27 54 57.5 81.5t84.5 37t150 9.5q115 0 199 30.5t144 71t100.5 71t68.5 30.5q23 0 39 -19.5t16 -48.5
q0 -51 -24 -93t-83 -86.5t-163 -99.5l-30 -16q-173 -92 -250 -186.5t-77 -221.5q0 -94 38 -169.5t101.5 -120.5t140.5 -45q109 0 187 56q41 100 67 136.5t60 36.5q26 0 33 -21.5t7 -82.5q0 -54 -16.5 -142t-45.5 -173q-8 -24 -41 -59t-89 -74q-50 -35 -97.5 -57.5
t-70.5 -22.5q-37 0 -118 36.5t-185.5 97.5t-212.5 135q-35 24 -64 52.5t-64 75.5l-46 62v1014q59 -61 123.5 -106t134.5 -81l35 72q-82 43 -149.5 98.5t-144.5 143.5h-79zM1262 580l-200 -147q-89 -65 -162 -65q-34 0 -73.5 13t-77.5 36l-196 116l-38 -64l195 -116
q99 -59 190 -59q48 0 99.5 19t106.5 60l193 143zM1338 580l-37 -64l193 -143q55 -41 106.5 -60t99.5 -19q91 0 190 59l195 116l-38 64l-196 -116q-38 -23 -77.5 -36t-73.5 -13q-73 0 -162 65z" />
</svg>