<?xml version="1.0" standalone="no"?>
<!DOCTYPE svg PUBLIC "-//W3C//DTD SVG 1.1//EN" "http://www.w3.org/Graphics/SVG/1.1/DTD/svg11.dtd">
<svg xmlns="http://www.w3.org/2000/svg" xmlns:xlink="http://www.w3.org/1999/xlink" version="1.1"
   viewBox="94 -151 2414 2169">
   <path fill="currentColor"
      d="M1288 1978q-198 -146 -303.5 -264t-145 -218.5t-39.5 -193.5q0 -123 69.5 -199t179.5 -76q141 0 253 142q109 -142 249 -142q110 0 179.5 76t69.5 199q0 75 -26.5 150.5t-86 157t-158 172.5t-241.5 196zM1369 1885l-5 -74q147 -12 273 -69t221 -147.5t148 -204t53 -239.5
q0 -114 -25 -198t-84 -148l69 -25q-19 69 -77 110t-135 41q-98 0 -153.5 -56t-55.5 -158q0 -64 10 -120t20 -118t10 -143q0 -104 -50.5 -186t-138.5 -129.5t-201 -47.5q-26 0 -56.5 3.5t-66.5 10.5l30 -62q57 64 85.5 135t28.5 147q0 85 -29.5 153t-73.5 124t-90 106
q-58 63 -88 111.5t-41.5 103t-15.5 137.5q-127 -73 -184.5 -170t-57.5 -225q0 -57 11 -106l46 29q-95 87 -150.5 236.5t-55.5 316.5q0 221 81 388.5t235 269.5t371 128l-7 74q-239 -31 -409 -143t-260.5 -294t-90.5 -423q0 -149 43 -284.5t117.5 -237.5t170.5 -149
q-11 44 -17 90.5t-6 92.5q0 109 38.5 183.5t119.5 121.5l-67 25q5 -90 40 -162t117 -163q65 -71 119 -150t54 -182q0 -136 -128 -276q36 -16 87.5 -25t100.5 -9q133 0 239 57.5t168 156.5t62 224q0 81 -10 146.5t-20 122t-10 112.5q0 71 31 105t98 34q56 0 96.5 -31.5
t71.5 -105.5q90 96 127.5 192.5t37.5 239.5q0 139 -60 265t-166 227t-245.5 164.5t-299.5 77.5z" />
</svg>