<?xml version="1.0" standalone="no"?>
<!DOCTYPE svg PUBLIC "-//W3C//DTD SVG 1.1//EN" "http://www.w3.org/Graphics/SVG/1.1/DTD/svg11.dtd">
<svg xmlns="http://www.w3.org/2000/svg" xmlns:xlink="http://www.w3.org/1999/xlink" version="1.1"
   viewBox="94 -151 2414 2169">
   <path fill="currentColor"
      d="M359 804q-21 0 -35 -14.5t-14 -34.5v-408q0 -21 14 -35t35 -14h1882q20 0 34.5 14t14.5 35v408q0 20 -14.5 34.5t-34.5 14.5h-1882zM359 1578q-21 0 -35 -14.5t-14 -34.5v-408q0 -21 14 -35t35 -14h1882q20 0 34.5 14t14.5 35v408q0 20 -14.5 34.5t-34.5 14.5h-1882z" />
</svg>