<?xml version="1.0" standalone="no"?>
<!DOCTYPE svg PUBLIC "-//W3C//DTD SVG 1.1//EN" "http://www.w3.org/Graphics/SVG/1.1/DTD/svg11.dtd">
<svg xmlns="http://www.w3.org/2000/svg" xmlns:xlink="http://www.w3.org/1999/xlink" version="1.1"
   viewBox="94 -151 2414 2169">
   <path fill="currentColor"
      d="M766 1978q-28 0 -48 -19.5t-20 -48.5q0 -16 9 -37.5t37 -67.5l403 -659h-601q-31 0 -53.5 -20.5t-22.5 -51.5q0 -40 31 -64l1339 -1082q17 -14 31.5 -22t28.5 -8q41 0 62.5 34t-3.5 75l-440 718h535q32 0 54 20t22 52q0 39 -30 64l-1247 1069q-31 27 -50.5 37.5
t-36.5 10.5zM800 1877l1242 -1065q3 -2 2.5 -4.5t-4.5 -2.5h-657l486 -795q2 -4 0 -5.5t-6 1.5l-1305 1054q-3 2 -2.5 4t3.5 2h724l-491 804q-4 7 -1 9.5t9 -2.5z" />
</svg>