<?xml version="1.0" standalone="no"?>
<!DOCTYPE svg PUBLIC "-//W3C//DTD SVG 1.1//EN" "http://www.w3.org/Graphics/SVG/1.1/DTD/svg11.dtd">
<svg xmlns="http://www.w3.org/2000/svg" xmlns:xlink="http://www.w3.org/1999/xlink" version="1.1"
   viewBox="94 -151 2414 2169">
   <path fill="currentColor"
      d="M1580 1977h-83q-31 0 -32 -33l-2 -39q-1 -29 -32 -33l-36 -4q-31 -3 -35 42l-1 10q-2 25 -12.5 30t-27.5 1l-52 -13q-26 -7 -23 -31l2 -24q2 -26 -5.5 -39t-27.5 -19l-23 -7q-39 -12 -49 18l-6 19q-8 25 -40 12l-31 -13q-16 -7 -22 -15.5t-8 -26.5l-3 -41q-3 -34 -29 -48
l-251 -142q-24 -14 -42 -7.5t-23 29.5l-4 18q-6 28 -36 18l-37 -13q-20 -7 -17 -32l3 -28q5 -38 -24 -48l-20 -7q-19 -7 -31 0t-17 25l-6 23q-3 12 -11.5 13.5t-20.5 -2.5l-39 -16q-20 -9 -20 -36v-35q0 -32 -19 -41l-29 -15q-29 -15 -39 20l-5 17q-6 21 -37 7l-84 -38
q-33 -15 -33 -56v-113q0 -19 18.5 -37.5t58.5 -41.5l-15 42q0 -89 13.5 -164t29.5 -125q14 -42 20.5 -76t6.5 -63q0 -48 -4 -102.5t-11 -116.5q-36 -41 -50 -74.5t-14 -76.5q0 -36 13.5 -75.5t34.5 -58.5q-19 -30 -27.5 -59t-8.5 -51q0 -87 59.5 -151.5t167 -100
t250.5 -35.5q128 0 230.5 38t148.5 106q15 -2 30 -2.5t32 -0.5q134 0 205 51.5t71 146.5q0 45 -9 84.5t-20 76.5t-20 73t-9 74q0 31 21 64.5t57 79.5l201 255q52 65 86 96.5t74.5 43.5t110.5 17l83 6q124 9 193.5 48t106 113t60.5 190l-41 -59q53 0 79 8t34 27q14 33 14 73
q0 19 -9 39q-32 69 -99 134t-156.5 118.5t-189.5 90t-198 49.5q-22 3 -30 -4.5t-10 -30.5q-1 -24 -13 -33.5t-40 -4.5l-51 8q-26 4 -31.5 23.5t-5.5 47.5q0 20 -5.5 26.5t-21.5 6.5zM1707 1609q-15 1 -24.5 -7t-9.5 -21t7.5 -20.5t19.5 -8.5q64 -6 134.5 -26t128.5 -47
q12 -5 23.5 -2.5t16.5 13.5t1.5 23t-14.5 17q-63 30 -138 52.5t-145 26.5zM1611 1763q92 0 198 -28.5t204.5 -75t170 -100.5t93.5 -104q-30 -109 -61.5 -163t-84 -75t-146.5 -28l-81 -6q-86 -6 -139.5 -29.5t-93.5 -64.5t-86 -99l-214 -271q-41 -52 -60 -91.5t-19 -85.5
q0 -40 7 -77t16.5 -73.5t16.5 -75t7 -80.5q0 -62 -41.5 -89t-136.5 -27q-115 0 -218.5 42.5t-163.5 113.5q-45 -22 -99 -34.5t-114 -22.5q-73 -12 -153 -31t-161 -59l68 -11q-6 17 -10.5 35t-4.5 32q0 39 20 85t64 94l-80 -78q75 30 149 50t150 34l-14 74q-53 -11 -115 -25
t-117.5 -31.5t-92.5 -36.5l66 -23q-28 24 -35 49t-7 47q0 53 18 80.5t64 46.5q67 28 117.5 42.5t120.5 28.5l-14 74q-62 -13 -142.5 -36.5t-166.5 -60.5l70 -11q7 58 9.5 121t2.5 90q0 37 -6.5 71.5t-20.5 79.5q-15 49 -29.5 120.5t-14.5 152.5q57 43 129 77.5t192 72.5
q87 27 146.5 53t117 59.5t138.5 84.5q86 54 168.5 97.5t182 69.5t236.5 26zM1258 1289l-56 -60q35 -20 91 -47t121 -56.5t129.5 -56t118.5 -44.5l43 42q-69 0 -156.5 2.5t-177.5 7t-169 10.5t-132 14l-58 -66q63 -51 151 -98t181.5 -83.5t171.5 -55.5l24 43q-39 -3 -86.5 -4
t-125.5 -1q-58 0 -128.5 4.5t-137.5 12t-115 17.5l-34 -79q63 -47 133 -82t155 -62t194 -50l20 43q-71 -8 -150.5 -13.5t-159.5 -5.5q-69 0 -135 5.5t-125 19.5l-39 -73q86 -95 218 -145t282 -50q76 0 155 13l-11 77q-36 -6 -68 -8.5t-66 -2.5q-133 0 -244.5 39t-181.5 105
l-16 -41q52 -10 108.5 -14.5t116.5 -4.5q97 0 196 9t188 22l31 75q-123 26 -217 53.5t-164 57t-121 63.5l-27 -37q63 -12 155.5 -18t187.5 -6q64 0 128 2t124 7l56 75q-62 11 -136 35t-148 55t-136 64.5t-100 64.5l-22 -40q44 -9 120.5 -16t168.5 -11t184 -6t166 -2l52 72
q-147 53 -278 110t-249 119z" />
</svg>