<?xml version="1.0" standalone="no"?>
<!DOCTYPE svg PUBLIC "-//W3C//DTD SVG 1.1//EN" "http://www.w3.org/Graphics/SVG/1.1/DTD/svg11.dtd">
<svg xmlns="http://www.w3.org/2000/svg" xmlns:xlink="http://www.w3.org/1999/xlink" version="1.1"
   viewBox="94 -151 2414 2169">
   <path fill="currentColor"
      d="M806 1761v-911q0 -116 58 -222t165 -188v-39h-12q-16 0 -26.5 -12.5t-10.5 -30.5t10.5 -30.5t26.5 -12.5h14q21 -75 93 -116.5t176 -41.5t176 41.5t93 116.5h14q16 0 26.5 12.5t10.5 30.5t-10.5 30.5t-26.5 12.5h-12v39q107 82 165 188t58 222v911h-78v-911
q0 -107 -57 -204t-164 -170h-390q-107 73 -164 170t-57 204v911h-78zM563 1900h419v-84h-419v84zM582 1485q-13 0 -23 -10t-10 -23q0 -35 33 -35h239v68h-239zM579 1751v-332h30v-171h30v-161h30v-150h30v-127h60v187h-30v150h-30v161h-30v171h-30v272h-60zM1050 1933h500
v-50h-500v50zM626 1310q-15 0 -25 -10t-10 -25q0 -33 35 -33h195v68h-195zM483 1978v-240h1634v240h-1634zM987 1754v-419h80v419h-80zM1065 1833h470v-50h-470v50zM660 1151q-15 0 -25 -10t-10 -25q0 -35 35 -35h161v70h-161zM1156 1754v-325h288v325h-288zM680 1001
q-15 0 -25 -10t-10 -25q0 -35 35 -35h151v70h-151zM1618 1900h419v-84h-419v84zM711 856q-27 -13 -27 -47q0 -38 32.5 -66.5t60.5 -28.5t61 28.5t33 66.5q0 33 -27 47h-133zM949 1343l82 -138h538l82 138h-702zM1533 1754v-419h80v419h-80zM777 720q-15 0 -26 -11.5
t-11 -27.5t11 -27t26 -11t26 11t11 27t-11 27.5t-26 11.5zM1124 1234l-53 -29l233 -431l50 34zM1069 1143l76 -127h310l76 127h-462zM1175 964l55 -93h140l55 93h-250zM1476 1234l-230 -426l50 -34l233 431zM1779 1485v-68h239q33 0 33 35q0 13 -9.5 23t-23.5 10h-239z
M1228 841q-20 0 -20 -11q0 -19 30 -30l-8 12q0 -23 20.5 -38.5t49.5 -15.5t49.5 15.5t20.5 38.5l-8 -12q30 11 30 30q0 11 -20 11h-144zM1299 760q-31 0 -31 -34q0 -13 9 -22.5t22 -9.5q14 0 23.5 9.5t9.5 22.5q0 34 -33 34zM1779 1310v-68h195q35 0 35 33q0 15 -10 25
t-25 10h-195zM1961 1751v-272h-30v-171h-30v-161h-30v-150h-30v-187h60v127h30v150h30v161h30v171h30v332h-60zM1779 1151v-70h161q35 0 35 35q0 15 -10 25t-25 10h-161zM1769 1001v-70h151q35 0 35 35q0 15 -10 25t-25 10h-151zM1109 319h382q-14 -44 -63.5 -69t-127.5 -25
t-127.5 25t-63.5 69zM1756 856q-27 -14 -27 -47q0 -38 33 -66.5t61 -28.5t60.5 28.5t32.5 66.5q0 34 -27 47h-133zM1823 720q-15 0 -26 -11.5t-11 -27.5t11 -27t26 -11t26 11t11 27t-11 27.5t-26 11.5zM1216 215q-11 -22 -11 -44q0 -42 32 -69q-22 -12 -22 -33
q0 -14 10.5 -24.5t26.5 -11.5q-9 -11 -14.5 -22.5t-5.5 -24.5q0 -27 20 -51t48 -37q29 13 48.5 37t19.5 51q0 13 -5.5 24.5t-14.5 22.5q16 1 26.5 11.5t10.5 24.5q0 21 -22 33q32 27 32 69q0 22 -11 44h-168z" />
</svg>