<?xml version="1.0" standalone="no"?>
<!DOCTYPE svg PUBLIC "-//W3C//DTD SVG 1.1//EN" "http://www.w3.org/Graphics/SVG/1.1/DTD/svg11.dtd">
<svg xmlns="http://www.w3.org/2000/svg" xmlns:xlink="http://www.w3.org/1999/xlink" version="1.1"
   viewBox="94 -151 2414 2169">
   <path fill="currentColor"
      d="M1291 1878q-73 0 -123.5 -27.5t-50.5 -84.5q0 -29 21 -57.5t42 -56t21 -53.5v-199q-68 0 -140 -17.5t-169 -64.5l48 -59q59 28 123 45.5t125 17.5q26 0 49 -3t44 -7v283q0 43 -20 69t-40 45.5t-20 44.5q0 17 23.5 31.5t66.5 14.5q91 0 140 -50t49 -142q0 -128 8.5 -194.5
t22.5 -113.5q25 4 54.5 8t68.5 4q69 0 155.5 -23t172 -62.5t151.5 -90.5q7 88 10 140.5t3 109.5q0 22 -16 44t-32 41.5t-16 34.5t17.5 24.5t66.5 9.5q92 0 123 -37t35 -137l11 -323q16 -60 19 -127.5t3 -129.5q53 0 98.5 -38t45.5 -91q0 -29 -9.5 -53.5t-26.5 -24.5
t-28 10.5t-43 10.5q-38 0 -69.5 -40t-70 -99t-97.5 -117.5t-151.5 -98.5t-233.5 -40q-103 0 -199 33t-204 101l4 -90q204 -122 407 -122q146 0 247 40t168 98.5t109 117.5t69.5 99t49.5 40q26 0 41.5 -13.5t46.5 -13.5q30 0 49.5 44t19.5 105q0 77 -38.5 127t-103.5 78
q0 43 -6 100.5t-18 117.5l-10 299q-4 129 -64.5 190.5t-173.5 61.5q-67 0 -115.5 -21.5t-48.5 -73.5q0 -23 18 -53.5t53 -82.5l-9 -115q-106 58 -211.5 88t-254.5 30q-7 13 -12.5 65.5t-5.5 152.5q0 125 -74.5 197.5t-194.5 72.5zM303 1104q-30 0 -60 -33t-30 -66t30 -33
q31 0 60.5 32.5t29.5 66.5q0 33 -30 33zM843 1749q-39 0 -82.5 -13t-43.5 -46q0 -19 17.5 -52t34.5 -69t17 -63q0 -57 -0.5 -114t-1.5 -69l118 -24l148 29q-1 12 -2.5 40t-3 57.5t-1.5 48.5v24v52v47q0 51 -30 85t-75.5 50.5t-94.5 16.5zM514 1159q-21 0 -32.5 -8.5
t-11.5 -21.5q0 -26 32.5 -49t69.5 -23q20 0 31.5 7.5t11.5 21.5q0 26 -32 49.5t-69 23.5zM419 709q-32 0 -55.5 -27t-23.5 -64q0 -38 23 -64.5t56 -26.5q32 0 55.5 26.5t23.5 64.5q0 37 -23.5 64t-55.5 27zM519 1466q-137 0 -245.5 -57t-171 -154t-62.5 -218q0 -102 56 -153
t128 -72q38 -11 49.5 -59.5t11.5 -94.5q0 -26 -1.5 -47t-1.5 -31q0 -206 188 -256q44 -84 122 -127q21 -84 67.5 -141.5t130.5 -57.5q57 0 96 43t39 114q0 14 -1 22q20 1 45 5t41 9q43 -74 90.5 -111t105.5 -37q76 0 118 67.5t42 177.5q0 46 -13.5 86t-34.5 78
q54 125 54 258q0 85 -24.5 166t-80.5 146l-63 -48q46 -53 67 -120.5t21 -140.5q0 -144 -70 -254q69 -85 69 -176q0 -73 -20.5 -117.5t-64.5 -44.5q-41 0 -89 46.5t-68 121.5q-38 -19 -99.5 -28.5t-103.5 -9.5q2 -15 3.5 -30t1.5 -28q0 -67 -17.5 -92t-47.5 -25
q-59 0 -86 53.5t-35 115.5q-24 7 -55.5 34t-57.5 59t-33 56q-84 7 -118 60.5t-34 149.5q0 75 -8.5 132t-28.5 80q31 3 67.5 23.5t50.5 34.5q20 -3 40 -5t39 -2q149 0 238 122l-63 48q-32 -46 -73 -69t-99 -23q-24 0 -51 3t-57 11q-36 -41 -71.5 -60.5t-74.5 -19.5
q-67 0 -111.5 35.5t-44.5 122.5q0 96 49.5 175.5t139 127.5t210.5 48q123 0 222.5 -46.5t157.5 -125t58 -175.5q0 -20 -1.5 -34t-3.5 -28q-1 -11 -2 -19t-1 -13q0 -30 22 -51.5t53 -21.5q30 0 50 21.5t20 51.5q0 24 -11.5 42t-31.5 26q-6 2 -14 4v12v12q0 98 -43.5 176
t-118 133.5t-166.5 84.5t-190 29zM820 776q-32 0 -55.5 -27t-23.5 -64q0 -38 23.5 -64.5t55.5 -26.5t55.5 26.5t23.5 64.5q0 37 -23.5 64t-55.5 27zM1743 1528q-57 0 -82 -15t-25 -40q0 -26 20.5 -54.5t25.5 -68.5l252 -82q0 41 -1.5 83t-3.5 71.5t-5 35.5
q-13 31 -64.5 50.5t-116.5 19.5z" />
</svg>