<?xml version="1.0" standalone="no"?>
<!DOCTYPE svg PUBLIC "-//W3C//DTD SVG 1.1//EN" "http://www.w3.org/Graphics/SVG/1.1/DTD/svg11.dtd">
<svg xmlns="http://www.w3.org/2000/svg" xmlns:xlink="http://www.w3.org/1999/xlink" version="1.1"
   viewBox="94 -151 2414 2169">
   <path fill="currentColor"
      d="M606 1898q-174 0 -282.5 -76t-108.5 -211q0 -62 33.5 -102t91.5 -40q53 0 107 6t126 12.5t177 6.5q92 0 159.5 -9t118 -31t92.5 -59.5t82 -94.5l877 -1239q-11 -12 -11 -27q0 -18 13 -39t29 -42q17 -23 39.5 -39t44.5 -16t45.5 9.5t61.5 35.5t61 49.5t23 52.5q0 16 -7 33
t-21 39q-28 46 -46.5 61t-35.5 15q-3 0 -7 -0.5t-6 -1.5l-864 1317q-92 140 -205 226t-257.5 125t-329.5 39zM1412 1398l-148 -102l48 -65l147 103zM1895 1898q82 0 153 -17.5t118 -50.5v-156l5 5q-58 38 -125 57.5t-151 19.5q-82 0 -151 -18t-127 -60l7 -5v157
q47 33 118 50.5t153 17.5zM1895 1978q-107 0 -200.5 -28.5t-150.5 -80.5v-200q0 -39 10 -63t38 -49q53 -47 132 -72t171 -25t170 26t133 71q29 24 38.5 48.5t9.5 63.5v200q-57 52 -150.5 80.5t-200.5 28.5zM607 1818q177 0 309.5 -36.5t233 -115t182.5 -203.5l800 -1223
l-54 -37l-811 1143q-60 85 -130 132.5t-162.5 66.5t-223.5 19q-136 0 -234.5 -7.5t-172.5 -7.5q-26 0 -37.5 16.5t-11.5 47.5q0 91 82 148t230 57zM1599 1116l-134 -95l46 -65l135 94z" />
</svg>