<?xml version="1.0" standalone="no"?>
<!DOCTYPE svg PUBLIC "-//W3C//DTD SVG 1.1//EN" "http://www.w3.org/Graphics/SVG/1.1/DTD/svg11.dtd">
<svg xmlns="http://www.w3.org/2000/svg" xmlns:xlink="http://www.w3.org/1999/xlink" version="1.1"
   viewBox="94 -151 2414 2169">
   <path fill="currentColor"
      d="M1300 1978q-213 0 -401 -81.5t-332 -225t-225.5 -332t-81.5 -402.5q0 -213 81.5 -401t225.5 -331.5t332 -225t401 -81.5t401.5 81.5t332 225t225 331.5t81.5 401q0 214 -81.5 402.5t-225 332t-332 225t-401.5 81.5zM1300 1549q127 0 237.5 -47.5t194.5 -131.5t131.5 -195
t47.5 -238q0 -126 -47.5 -237t-131.5 -194.5t-195 -131t-237 -47.5t-237 47.5t-195 131t-131.5 194.5t-47.5 237q0 127 47.5 238t131.5 195t194.5 131.5t237.5 47.5z" />
</svg>