<?xml version="1.0" standalone="no"?>
<!DOCTYPE svg PUBLIC "-//W3C//DTD SVG 1.1//EN" "http://www.w3.org/Graphics/SVG/1.1/DTD/svg11.dtd">
<svg xmlns="http://www.w3.org/2000/svg" xmlns:xlink="http://www.w3.org/1999/xlink" version="1.1"
   viewBox="94 -151 2414 2169">
   <path fill="currentColor"
      d="M1273 1978q-146 0 -273.5 -49t-224 -136.5t-151 -203.5t-54.5 -249q0 -161 45.5 -281t129 -223t196.5 -212q62 -60 81 -81.5t19 -36.5q0 -13 -8 -25t-22 -30q-31 -41 -51.5 -90.5t-20.5 -110.5q0 -101 46 -180.5t126.5 -125.5t181.5 -46q168 0 265 94t97 257
q0 82 -39 156t-131 171q-108 114 -181.5 198.5t-110.5 160t-37 161.5q0 100 68.5 166.5t172.5 66.5q139 0 196.5 -67t57.5 -233v-47q0 -117 68.5 -191t175.5 -74q57 0 96 31t39 84q0 43 -20.5 70.5t-41.5 53t-21 63.5q0 51 11.5 97t23 96t11.5 115q0 197 -88.5 343.5
t-250.5 227t-381 80.5zM1273 1898q197 0 340.5 -69.5t221.5 -198t78 -303.5q0 -63 -11.5 -109.5t-22.5 -92t-11 -106.5q0 -49 12.5 -75.5t28.5 -41.5t28.5 -28.5t12.5 -36.5q0 -20 -15.5 -30t-39.5 -10q-74 0 -119 50t-45 135v47q0 197 -80 288.5t-254 91.5
q-92 0 -164.5 -41t-114.5 -112t-42 -160q0 -101 41.5 -189.5t120.5 -180.5t189 -206q83 -85 115.5 -145t32.5 -126q0 -130 -74 -200.5t-208 -70.5q-120 0 -197 76.5t-77 195.5q0 52 18.5 99t54.5 87q14 15 22 34t8 39q0 23 -10.5 44.5t-37.5 51t-77 77.5
q-111 108 -188.5 202.5t-118 201.5t-40.5 254q0 117 48 218t133.5 177.5t198.5 119.5t243 43zM1285 407q-56 0 -98 -45.5t-42 -112.5t43 -112t104 -45q62 0 105 45t43 112t-44.5 112.5t-110.5 45.5zM1289 333q35 0 56.5 -23.5t21.5 -60.5t-21 -60t-54 -23q-32 0 -53 23
t-21 60q0 36 20 60t51 24zM1598 1575q25 -22 46 -1q11 11 12 25t-11 25q-62 55 -149.5 80.5t-200.5 25.5q-131 0 -237 -56.5t-171.5 -155t-77.5 -223.5q-1 -17 8 -27t24 -10h2q31 0 34 34q11 107 67.5 190.5t147 131.5t203.5 48q201 0 303 -87z" />
</svg>