<?xml version="1.0" standalone="no"?>
<!DOCTYPE svg PUBLIC "-//W3C//DTD SVG 1.1//EN" "http://www.w3.org/Graphics/SVG/1.1/DTD/svg11.dtd">
<svg xmlns="http://www.w3.org/2000/svg" xmlns:xlink="http://www.w3.org/1999/xlink" version="1.1"
   viewBox="94 -151 2414 2169">
   <path fill="currentColor"
      d="M2119 1664q-59 0 -135 -17q-14 -57 -68 -109.5t-133 -95.5q-83 -45 -184 -86.5t-206.5 -85t-202 -95.5t-171.5 -118q-72 -63 -135 -149.5t-124 -178t-123.5 -172.5t-132.5 -135t-153 -64q-39 -95 -39 -166q0 -46 24.5 -103t79 -99t142.5 -42q82 0 150.5 56.5t133 149.5
t135 203.5t158 220t201.5 198.5q149 115 288.5 184.5t262.5 109.5t225 68t176 59t114 82t40 139q0 105 -74.5 175.5t-248.5 70.5zM1565 1928q-207 0 -410.5 -70.5t-383 -193.5t-317.5 -283t-217 -341.5t-79 -365.5q0 -161 69.5 -259.5t180.5 -98.5q77 0 134 41t107 111
t104.5 157.5t124 181.5t166.5 182q99 89 209 150t219 105t206.5 81.5t173.5 79t120 97.5t44 138q0 84 -58 149t-159.5 102t-233.5 37zM1565 1850q110 0 193.5 -28t130.5 -75.5t47 -106.5q0 -56 -32 -97.5t-110 -81.5t-215 -89q-90 -33 -191 -76t-202.5 -103.5t-195.5 -144.5
q-119 -107 -186.5 -204t-129.5 -194q-65 -103 -108.5 -158.5t-79.5 -76.5t-78 -21q-74 0 -122 76t-48 204q0 171 75 340.5t206 320t300.5 266.5t360.5 182.5t385 66.5zM2055 1413q14 -11 14.5 -29.5t-13.5 -37.5l-69 -98q-41 -59 -106.5 -89.5t-132.5 -22.5l-110 14
q-70 9 -108 -12t-72 -87l-64 -125q-25 -48 -66 -83t-86 -46l-165 -41q-82 -20 -119.5 -53t-43.5 -89l-20 -184q-10 -86 -43 -130t-106 -68l-45 -15q-32 -11 -56 -26t-41 -33q-24 -26 -51 -26q-17 0 -28 10t-11 24q0 18 21 41.5t53 44t66 30.5l45 13q60 17 86.5 51t33.5 105
l20 184q16 146 202 192l165 41q82 21 124 103l64 125q76 150 224 133l110 -13q62 -8 114.5 14t84.5 68l65 92q14 19 32.5 26t31.5 -3zM2292 1293q0 -102 -45.5 -180.5t-134.5 -133.5q-82 -51 -198 -101.5t-240.5 -113.5t-230.5 -151q-80 -67 -147 -147t-128.5 -152
t-124 -118t-133.5 -46q-56 0 -96 32l-50 -62q62 -50 146 -50q89 0 156.5 44t129.5 115.5t133 156.5t166 167q98 84 218 144t237 109.5t204 104.5q116 72 167 174t51 216z" />
</svg>