<?xml version="1.0" standalone="no"?>
<!DOCTYPE svg PUBLIC "-//W3C//DTD SVG 1.1//EN" "http://www.w3.org/Graphics/SVG/1.1/DTD/svg11.dtd">
<svg xmlns="http://www.w3.org/2000/svg" xmlns:xlink="http://www.w3.org/1999/xlink" version="1.1"
   viewBox="94 -151 2414 2169">
   <path fill="currentColor"
      d="M1263 1978q-220 0 -408 -45.5t-328.5 -127.5t-218.5 -192t-78 -238q0 -116 62 -225t169 -179h85q-31 65 -40.5 101.5t-9.5 78.5q0 155 97 267t277.5 172.5t429.5 60.5q250 0 430 -60.5t277 -172.5t97 -267q0 -42 -9 -78.5t-41 -101.5h85q107 70 169 179t62 225
q0 128 -78 238t-218.5 192t-328.5 127.5t-408 45.5h-74zM631 1275q18 -77 27 -145.5t9 -128.5q0 -89 -25.5 -177t-51.5 -179t-26 -186q0 -222 266 -409h97q-18 76 -27 145t-9 129q0 88 26 176.5t51.5 179t25.5 186.5q0 222 -266 409h-97zM1103 1269q16 -77 24.5 -164
t8.5 -141q0 -113 -29.5 -215t-58.5 -199.5t-29 -194.5q0 -128 69.5 -237.5t222.5 -219.5h102q-16 76 -24.5 163.5t-8.5 141.5q0 113 29 215.5t58.5 199.5t29.5 194q0 129 -69.5 238t-222.5 219h-102zM1631 1275q18 -77 27 -145.5t9 -128.5q0 -89 -25.5 -177t-51.5 -179
t-26 -186q0 -222 266 -409h97q-18 76 -27 145t-9 129q0 88 25.5 176.5t51.5 179t26 186.5q0 222 -266 409h-97z" />
</svg>