<?xml version="1.0" standalone="no"?>
<!DOCTYPE svg PUBLIC "-//W3C//DTD SVG 1.1//EN" "http://www.w3.org/Graphics/SVG/1.1/DTD/svg11.dtd">
<svg xmlns="http://www.w3.org/2000/svg" xmlns:xlink="http://www.w3.org/1999/xlink" version="1.1"
   viewBox="94 -151 2414 2169">
   <path fill="currentColor"
      d="M919 1648q91 -72 175 -168t137.5 -231.5t53.5 -324.5q0 -36 -11 -57.5t-58 -47.5q-58 -34 -116.5 -82t-104 -105t-65.5 -118q84 0 191 -10.5t217.5 -28t208 -41t162.5 -48.5q-10 139 -85.5 240t-228.5 183q-45 24 -57.5 47t-12.5 61q0 186 38 318.5t126.5 228.5
t238.5 173zM1300 1978q-149 0 -275 -10.5t-216.5 -29.5t-133.5 -44q-20 -12 -27.5 -24.5t-7.5 -35.5v-181h78v249l-51 -102q86 52 243 75t390 23t390 -23t243 -75l-51 102v-249h78v181q0 23 -7.5 35.5t-27.5 24.5q-43 25 -133.5 44t-216.5 29.5t-275 10.5zM1300 1769
q-130 0 -248.5 -8t-211.5 -22.5t-146.5 -34t-53.5 -41.5q0 -23 53.5 -42t146 -34t211.5 -23t249 -8q131 0 249.5 8t211 23t146 34t53.5 42q0 22 -53.5 41.5t-146.5 34t-211.5 22.5t-248.5 8zM698 1650q0 -275 119 -455.5t374 -283.5l-3 57q-252 -103 -371 -290t-119 -477h81
q0 268 108.5 438t343.5 268v66q-237 97 -344.5 260t-107.5 417h-81zM1821 1650q0 -254 -107.5 -417t-344.5 -260v-66q236 -98 344 -268t108 -438h81q0 290 -119 477t-371 290l-3 -57q255 103 374 283.5t119 455.5h-81zM1300 310q-138 0 -264 -11.5t-219.5 -31.5t-136.5 -44
q-23 -14 -31.5 -29.5t-8.5 -43.5v-145h78v222l-58 -116q41 56 212 87.5t428 31.5t428.5 -31.5t211.5 -87.5l-58 116v-222h78v145q0 28 -8.5 43.5t-31.5 29.5q-42 24 -136 44t-219.5 31.5t-264.5 11.5zM1300 111q-130 0 -248.5 -8t-211.5 -22.5t-146.5 -34t-53.5 -41.5
q0 -23 53.5 -42t146 -34t211.5 -23t249 -8q131 0 249.5 8t211 23t146 34t53.5 42q0 22 -53.5 41.5t-146.5 34t-211.5 22.5t-248.5 8z" />
</svg>