<?xml version="1.0" standalone="no"?>
<!DOCTYPE svg PUBLIC "-//W3C//DTD SVG 1.1//EN" "http://www.w3.org/Graphics/SVG/1.1/DTD/svg11.dtd">
<svg xmlns="http://www.w3.org/2000/svg" xmlns:xlink="http://www.w3.org/1999/xlink" version="1.1"
   viewBox="94 -151 2414 2169">
   <path fill="currentColor"
      d="M330 971q-34 0 -60 -14t-26 -48t31 -63l878 -868q43 -43 75.5 -61.5t71.5 -18.5t71.5 18.5t75.5 61.5l878 868q31 29 31 63t-25.5 48t-60.5 14h-199l-771 -760l-771 760h-199zM716 1823q-29 0 -56 -1.5t-51 -1.5q-106 0 -140.5 -16t-34.5 -61q0 -92 46.5 -147t116.5 -55
q38 0 63 11.5t56 11.5t55 -11t63 -11q44 0 91 19t80 46t33 50v166h-322zM694 1415q-16 0 -27.5 -11.5t-11.5 -27.5v-111h150v150h-111zM1038 1900h524v-57h-524v57zM1053 1785h494v-55h-494v55zM873 1415v-150h150v111q0 16 -11.5 27.5t-27.5 11.5h-111zM655 1195v-111
q0 -16 11.5 -27.5t27.5 -11.5h111v150h-150zM873 1195v-150h111q16 0 27.5 11.5t11.5 27.5v111h-150zM958 1978v-158h15v-90h-515v-804l80 -61v787h1524v-787l80 61v804h-515v90h15v158h-684zM1113 1672v-543q0 -71 57 -121.5t130 -50.5q74 0 130.5 50.5t56.5 121.5v543
h-374zM1406 1362q15 0 25.5 -10.5t10.5 -25.5t-10.5 -25.5t-25.5 -10.5t-25.5 10.5t-10.5 25.5t10.5 25.5t25.5 10.5zM1562 1823v-166q0 -23 33 -50t80.5 -46t90.5 -19q39 0 63 11t55 11q32 0 56.5 -11.5t62.5 -11.5q71 0 117 55t46 147q0 45 -34 61t-141 16q-24 0 -51 1.5
t-56 1.5h-322zM1616 1415q-16 0 -27.5 -11.5t-11.5 -27.5v-111h150v150h-111zM571 615v-408h-30v-199l250 -2v201h-30v210zM1795 1415v-150h150v111q0 16 -11.5 27.5t-27.5 11.5h-111zM1577 1195v-111q0 -16 11.5 -27.5t27.5 -11.5h111v150h-150zM1795 1195v-150h111
q16 0 27.5 11.5t11.5 27.5v111h-150zM365 893h131l804 -795l804 795h131q8 0 9 -7t-6 -14l-847 -837q-35 -35 -53.5 -47t-37.5 -12t-37.5 12t-53.5 47l-847 837q-7 7 -6 14t9 7z" />
</svg>