<?xml version="1.0" standalone="no"?>
<!DOCTYPE svg PUBLIC "-//W3C//DTD SVG 1.1//EN" "http://www.w3.org/Graphics/SVG/1.1/DTD/svg11.dtd">
<svg xmlns="http://www.w3.org/2000/svg" xmlns:xlink="http://www.w3.org/1999/xlink" version="1.1"
   viewBox="94 -151 2414 2169">
   <path fill="currentColor"
      d="M568 1108q-31 0 -55 -15t-24 -45q0 -17 8.5 -30.5t21.5 -26.5l720 -716q38 -37 66.5 -52.5t62.5 -15.5q32 0 61 15.5t66 52.5l722 716q13 13 21 26.5t8 30.5q0 30 -23.5 45t-55.5 15h-171l-628 -622l-628 622h-172zM761 1763q14 0 24 -10t10 -24t-10 -24t-24 -10t-24 10
t-10 24t10 24t24 10zM445 1613q-42 0 -69 -26.5t-27 -67.5q0 -85 146 -133q26 -54 72.5 -78.5t141.5 -24.5v330h-264zM453 1535h177v-177q-25 0 -52 21.5t-44 62.5q-46 15 -78.5 38.5t-32.5 39.5q0 15 30 15zM853 1675q13 0 22 -9t9 -21q0 -13 -9 -22t-22 -9t-22 9t-9 22
q0 12 9 21t22 9zM953 1752q14 0 23.5 -10t9.5 -23q0 -14 -9.5 -24t-23.5 -10q-13 0 -23 10t-10 24q0 13 10 23t23 10zM1032 1699q11 0 19 -8.5t8 -19.5t-8 -19.5t-19 -8.5q-28 0 -28 28t28 28zM1164 1900h406v-67h-406v67zM886 1446q-10 0 -17.5 -7.5t-7.5 -17.5v-75h100
v100h-75zM1176 1763h382v-70h-382v70zM1021 1446v-100h100v75q0 9 -8 17t-17 8h-75zM861 1286v-75q0 -10 7.5 -17.5t17.5 -7.5h75v100h-100zM1021 1286v-100h75q10 0 17.5 7.5t7.5 17.5v75h-100zM1084 1978v-148h-289q-72 0 -108 -23t-36 -79q0 -28 8 -65t21 -57v-559h80
v527h28q32 0 52 9.5t46 9.5t46.5 -9t51.5 -9q27 0 50.5 10t45.5 30h574q22 -20 45.5 -30t51.5 -10q32 0 52.5 9t44.5 9q26 0 46.5 -9.5t51.5 -9.5h28v-527h80v559q13 20 21 57t8 65q0 56 -35.5 79t-108.5 23h-289v148h-566zM1704 1768q14 0 23.5 -10.5t9.5 -23.5
q0 -14 -9.5 -24t-23.5 -10t-24 10t-10 24t10 24t24 10zM1213 1647v-414q0 -58 46.5 -100.5t108.5 -42.5t108.5 42.5t46.5 100.5v414h-310zM652 1345q-87 0 -161.5 -56t-130.5 -155.5t-87 -230.5t-31 -282t31 -282t87 -230t130.5 -155t161.5 -56q103 0 188.5 86.5t141.5 237
t67 343.5l-80 5q-10 -170 -56.5 -303.5t-115 -211t-145.5 -77.5q-88 0 -163.5 86.5t-121 232t-45.5 324.5t45.5 325t120.5 232.5t164 86.5q15 0 40 -5l20 77q-30 8 -60 8zM1471 1425q13 0 22 -9t9 -22q0 -12 -9 -21t-22 -9q-30 0 -30 30q0 13 9 22t21 9zM1814 1683
q14 0 24 -10t10 -24t-10 -24t-24 -10t-24 10t-10 24t10 24t24 10zM1964 1742q14 0 24.5 -10.5t10.5 -24.5t-10.5 -25t-24.5 -11q-15 0 -25.5 10.5t-10.5 25.5q0 14 11 24.5t25 10.5zM1640 1446q-9 0 -17 -8t-8 -17v-75h100v100h-75zM1775 1446v-100h100v75q0 10 -7.5 17.5
t-17.5 7.5h-75zM1615 1286v-75q0 -10 7.5 -17.5t17.5 -7.5h75v100h-100zM1775 1286v-100h75q10 0 17.5 7.5t7.5 17.5v75h-100zM589 1038h122l657 -651l657 651h121q6 0 8.5 -5.5t-2.5 -9.5l-706 -698q-29 -29 -45.5 -38.5t-32.5 -9.5q-17 0 -33.5 9.5t-46.5 38.5l-705 698
q-4 4 -2 9.5t8 5.5zM2009 1613v-78h240q17 0 27 -9t10 -23q0 -19 -17 -33t-49 -20q0 -61 -31 -84t-72 -23q-10 -17 -27 -30.5t-37 -13.5q-14 0 -27 7l-40 -60q38 -26 66 -26q26 0 46 15.5t31 38.5q58 4 96.5 36.5t49.5 94.5q44 13 63.5 38.5t19.5 59.5q0 42 -29 76t-80 34
h-240z" />
</svg>