<?xml version="1.0" standalone="no"?>
<!DOCTYPE svg PUBLIC "-//W3C//DTD SVG 1.1//EN" "http://www.w3.org/Graphics/SVG/1.1/DTD/svg11.dtd">
<svg xmlns="http://www.w3.org/2000/svg" xmlns:xlink="http://www.w3.org/1999/xlink" version="1.1"
   viewBox="94 -151 2414 2169">
   <path fill="currentColor"
      d="M719 588q-21 0 -38.5 -12.5t-17.5 -34.5t19 -41l523 -550q26 -27 49 -39.5t49 -12.5q47 0 98 52l523 550q9 9 14 20t5 21q0 22 -17.5 34.5t-38.5 12.5h-131l-453 -475l-453 475h-131zM185 1978v-530h72v458h893v-443h72v515h-1037zM575 1921v-367q0 -48 38 -84t89 -36
q52 0 90.5 36t38.5 84v367h-256zM757 1719q15 0 26 -11.5t11 -26.5t-11 -26t-26 -11t-26.5 11t-11.5 26q0 16 11 27t27 11zM301 1195v-250h-19v-119h152v119h-19v131zM633 1321v-77q0 -40 19.5 -63.5t51.5 -23.5t51.5 23.5t19.5 63.5v77h-142zM126 1487q-21 0 -38.5 -12.5
t-17.5 -34.5t19 -41l523 -550q26 -27 48 -39t48 -12t46.5 12t46.5 39l525 550q8 8 16 19t8 22q0 22 -17.5 34.5t-39.5 12.5h-131l-452 -475l-453 475h-131zM1283 1441l-525 -550q-20 -22 -29.5 -27.5t-20.5 -5.5q-12 0 -23 6.5t-30 26.5l-490 515q-7 7 -4 14t13 7h57
l479 -502l478 502h105zM856 958l-80 -91v-318h80v409zM1369 1978v-530h72v458h893v-443h72v515h-1037zM1764 1921v-367q0 -48 38 -84t89 -36q52 0 90.5 36t38.5 84v367h-256zM1944 1719q15 0 26 -11.5t11 -26.5t-11 -26t-26 -11t-26.5 11t-11.5 26q0 16 11 27t27 11z
M984 1070l-86 -72h810l-81 72h-643zM1177 1014v-367q0 -48 38 -84t89 -36q52 0 90.5 36t38.5 84v367h-256zM1357 811q15 0 26 -11.5t11 -26.5t-11 -26t-26 -11t-26.5 11t-11.5 26q0 16 11 27t27 11zM1822 1321v-77q0 -40 19.5 -63.5t51.5 -23.5t51.5 23.5t19.5 63.5v77h-142
zM1310 1487q-21 0 -38.5 -12.5t-17.5 -34.5t19 -41l521 -550q26 -27 49 -39.5t49 -12.5t47.5 12.5t47.5 39.5l523 550q8 8 14 19t6 22q0 22 -17.5 34.5t-39.5 12.5h-131l-450 -475l-451 475h-131zM1358 1427h57l477 -502l476 502h53q10 0 13.5 -8.5t-3.5 -15.5l-487 -512
q-21 -22 -31 -28t-21 -6q-12 0 -23.5 7t-31.5 27l-488 515q-7 7 -4 14t13 7zM901 296v-260h-19v-119h152v119h-19v141zM1235 414v-77q0 -40 19.5 -63.5t51.5 -23.5t51.5 23.5t19.5 63.5v77h-142zM1751 954v-390h80v291zM767 528h57l479 -502l479 502h57q10 0 13 -7t-4 -14
l-490 -515q-19 -20 -31 -27t-24 -7t-23.5 7t-31.5 27l-490 515q-7 7 -4 14t13 7zM2299 1195l-114 -119v-131h-19v-119h152v119h-19v250z" />
</svg>