<?xml version="1.0" standalone="no"?>
<!DOCTYPE svg PUBLIC "-//W3C//DTD SVG 1.1//EN" "http://www.w3.org/Graphics/SVG/1.1/DTD/svg11.dtd">
<svg xmlns="http://www.w3.org/2000/svg" xmlns:xlink="http://www.w3.org/1999/xlink" version="1.1"
   viewBox="94 -151 2414 2169">
   <path fill="currentColor"
      d="M298 1978q-31 0 -49.5 -17.5t-18.5 -45.5q0 -37 35.5 -58.5t151.5 -51.5q148 -38 325 -81.5t365.5 -87t373 -83t351 -70.5t298.5 -49t213 -18q12 0 19.5 7.5t7.5 18.5q0 20 -27 24q-174 29 -317 57.5t-271.5 58t-258.5 64t-275.5 76t-323.5 93.5l-497 145
q-34 10 -58.5 14t-43.5 4zM680 1542q-28 0 -48.5 -20t-20.5 -47q0 -57 89 -81q88 -23 218 -46t279.5 -43.5t297.5 -36.5t273.5 -25t205.5 -9q20 0 28.5 6t8.5 20q0 20 -20 23l-135 22q-109 18 -246 42t-283 53t-285 59.5t-252 61.5q-47 13 -70 17t-40 4zM385 1307
q-13 0 -23 -13t-10 -33q0 -39 13 -109.5t36 -157t51 -172.5q56 -168 117.5 -332t140.5 -354l-342 141q-30 13 -56 13q-25 0 -39 -11.5t-14 -29.5q0 -23 17 -43.5t52 -37.5l508 -247q26 -12 43.5 -17.5t30.5 -5.5q14 0 22.5 10t8.5 27q0 10 -2.5 20.5t-10.5 28.5
q-172 416 -298 730.5t-214 564.5q-9 28 -31 28zM1049 1124q-112 0 -176.5 -94t-64.5 -259q0 -137 39 -273.5t108 -249t159.5 -181t192.5 -68.5q35 0 35 17q0 10 -10.5 20t-41.5 30q-97 61 -163 149t-105 187t-56.5 196t-17.5 176q0 102 32.5 162t88.5 60q65 0 120 -54
t96 -150.5t64 -223.5t23 -274q0 -28 -1.5 -55t-3.5 -53l139 -35q4 31 6 67.5t2 77.5q0 162 -29 310.5t-87 265.5t-145.5 184.5t-203.5 67.5zM1832 1133q-110 0 -177 -97t-67 -259q0 -160 37.5 -303.5t109 -254t174.5 -171.5l-20 26q-162 25 -259 58t-162 59q-42 17 -74 17
q-27 0 -42.5 -11.5t-15.5 -29.5q0 -25 22.5 -49.5t60.5 -41.5q63 -29 154 -57t191.5 -46.5t191.5 -18.5q175 0 257.5 91t82.5 284q0 144 -31 286t-90.5 259.5t-145.5 188t-197 70.5zM1850 1005q60 0 114.5 -56t97.5 -152.5t67.5 -219.5t24.5 -258q0 -99 -31 -155t-89 -56
q-60 0 -114.5 56t-97.5 153t-67.5 220t-24.5 258q0 99 31 154.5t89 55.5z" />
</svg>