<?xml version="1.0" standalone="no"?>
<!DOCTYPE svg PUBLIC "-//W3C//DTD SVG 1.1//EN" "http://www.w3.org/Graphics/SVG/1.1/DTD/svg11.dtd">
<svg xmlns="http://www.w3.org/2000/svg" xmlns:xlink="http://www.w3.org/1999/xlink" version="1.1"
   viewBox="94 -151 2414 2169">
   <path fill="currentColor"
      d="M344 1337q-79 0 -118.5 -64t-39.5 -148q0 -105 55 -236t148 -269t209.5 -266.5t242 -231.5t244.5 -163.5t215 -60.5t215 60.5t244.5 163.5t242 231.5t209.5 266.5t148 269t55 236q0 84 -39.5 148t-118.5 64q-37 0 -67 -13t-57 -39l26 -8q-17 27 -39.5 43.5t-54.5 16.5
q-29 0 -60 -14t-62 -45l18 1q-22 29 -48.5 43.5t-63.5 14.5q-29 0 -53 -12.5t-69 -49.5h16q-29 34 -53.5 48t-55.5 14t-52.5 -13t-67.5 -52h29q-35 37 -59.5 51t-62.5 14q-35 0 -58.5 -12t-61.5 -43q-37 31 -61 43t-59 12q-37 0 -62 -14t-60 -51h29q-46 39 -67 52t-53 13
q-31 0 -55.5 -14t-53.5 -48h16q-45 37 -69 49.5t-53 12.5q-37 0 -63 -14.5t-49 -43.5l18 -1q-31 31 -62 45t-60 14q-31 0 -54 -16.5t-40 -43.5l26 8q-27 26 -57 39t-67 13zM369 1696v-412l80 -35v447h-80zM281 1978v-292h2038v292h-2038zM361 1900h1878v-136h-1878v136z
M1102 1932v-487h396v487h-396zM634 732l-55 -25q22 -46 39.5 -74t50.5 -65l45 39q-30 34 -45 59t-35 66zM894 552l-55 -25q22 -46 39.5 -74t50.5 -65l45 39q-30 34 -45 59t-35 66zM344 1257q18 0 31 -5.5t28 -18.5l55 -49q8 -7 16 4l30 44q9 13 16 19t16 6q13 0 49 -23
l84 -53q9 -5 14 4l33 47q18 25 36 25q9 0 17.5 -5t26.5 -18l70 -53q7 -5 13 1l49 51q24 24 39 24q10 0 17 -4t24 -19l61 -51q7 -7 13 0l49 50q24 24 49 24q26 0 53 -23l61 -52q6 -6 12 0l61 52q27 23 53 23q25 0 49 -24l49 -50q7 -7 13 0l61 51q17 15 24 19t17 4
q15 0 39 -24l49 -51q6 -6 13 -1l70 53q18 13 26.5 18t17.5 5q18 0 36 -25l33 -47q5 -9 14 -4l84 53q36 23 49 23q9 0 16 -6t16 -19l30 -44q8 -11 16 -4l55 49q15 13 28 18.5t31 5.5q36 0 57 -38.5t21 -93.5q0 -94 -52 -214.5t-140.5 -249.5t-198 -250.5t-226 -219
t-224.5 -155.5t-193 -58q-84 0 -192.5 58t-225 155.5t-226 219t-198 250.5t-140.5 249.5t-52 214.5q0 55 21 93.5t57 38.5zM2151 1696v-447l80 35v412h-80zM1579 802q-25 -99 -114 -210l46 -38q98 123 125 233zM1850 981q-17 -47 -31 -73t-40 -60l49 -36q29 40 44.5 69
t34.5 79zM1630 445q-44 -92 -149 -187l39 -45q117 104 164 208zM1960 745q-40 -90 -149 -187l39 -45q121 108 164 209z" />
</svg>