<?xml version="1.0" standalone="no"?>
<!DOCTYPE svg PUBLIC "-//W3C//DTD SVG 1.1//EN" "http://www.w3.org/Graphics/SVG/1.1/DTD/svg11.dtd">
<svg xmlns="http://www.w3.org/2000/svg" xmlns:xlink="http://www.w3.org/1999/xlink" version="1.1"
   viewBox="94 -151 2414 2169">
   <path fill="currentColor"
      d="M1261 1978q-55 0 -90 -24.5t-35 -64.5q0 -33 32.5 -86.5t87 -116t120 -124.5t133 -113.5t127 -82.5t99.5 -31q75 0 75 84q0 68 -33 145t-89.5 150t-127.5 133t-148 95.5t-151 35.5zM1171 1891q-77 -29 -159 -85t-151.5 -123.5t-112.5 -133.5t-43 -115q0 -39 23.5 -65
t72.5 -26q48 0 116.5 27.5t144.5 72.5t146.5 98t121.5 104l-50 60q-36 -36 -98.5 -84t-134.5 -94t-137.5 -76.5t-107.5 -30.5q-17 0 -17 16q0 32 40.5 85.5t103.5 112t133.5 107.5t130.5 72zM1342 1689l-70 -6q2 -21 2.5 -52t0.5 -53q0 -38 -6 -94.5t-15 -102.5
q-3 -16 7.5 -29t26.5 -13q29 0 34 28q11 50 17 104.5t6 110.5q0 36 -0.5 60.5t-2.5 46.5zM1260 1898q57 0 121.5 -31.5t126 -83.5t112 -114t80.5 -125t30 -115q0 -14 -10 -14q-23 0 -68.5 28.5t-102.5 74t-115 99.5t-107.5 106.5t-80 93t-30.5 59.5q0 10 12.5 16t31.5 6z
M897 1045q-13 0 -19.5 -10.5t-6.5 -25.5q0 -22 4 -41t4 -34q0 -9 -20 -12t-46.5 -5t-46.5 -8t-20 -22q0 -22 27.5 -36.5t55 -24.5t27.5 -16q0 -7 -14.5 -24t-29.5 -38.5t-15 -41.5q0 -18 17 -18q57 0 105 23t77 61.5t29 83.5q0 36 -22.5 80t-52.5 76.5t-53 32.5zM1102 1383
q-12 0 -19 -7t-7 -17q0 -17 6 -49.5t6 -48.5q0 -30 -27 -42t-62 -16.5t-62 -11.5t-27 -28q0 -20 26 -32t60.5 -22.5t60.5 -24.5t26 -38q0 -26 -1.5 -48t-1.5 -41q0 -44 8 -72.5t30 -28.5t39.5 25t34.5 58.5t35.5 58.5t40.5 25q17 0 43 -13t54.5 -26t53.5 -13q27 0 27 26
q0 30 -23 59.5t-46 53t-23 37.5q0 13 27 38t54 52t27 47q0 25 -43 25q-38 0 -73 -13.5t-62 -26.5t-40 -13q-15 0 -30.5 19t-32 44.5t-36 44.5t-43.5 19zM1580 1284q-11 0 -18 -19.5t-12 -44t-11 -39.5q-7 -20 -12 -38.5t-5 -37.5q0 -67 81 -86q47 -11 82 -26t47 -15
q16 0 16 22q0 29 -15 47.5t-30 29.5t-15 18t16 21.5t32 32.5t16 36q0 15 -19 15q-10 0 -31 -5t-39.5 -9.5t-22.5 -4.5q-9 0 -9 9q0 39 -16 66.5t-35 27.5zM1147 755q-19 0 -33.5 -25.5t-26 -58.5t-21.5 -58.5t-20 -25.5t-32.5 17.5t-51.5 35.5t-60 18q-21 0 -21 -18
q0 -29 17.5 -58.5t34.5 -53.5t17 -35t-18 -32t-36 -49.5t-18 -61.5q0 -24 17 -24q12 0 36.5 14l49 28t32.5 14q10 0 20 -21t23 -49t29.5 -49t40.5 -21q29 0 29 40q0 34 -3.5 60t-3.5 44q0 31 26 31q29 0 60.5 -9.5t57.5 -9.5q29 0 29 24q0 25 -22 43.5t-50.5 33.5
t-50.5 27.5t-22 26.5q0 16 2.5 42.5t2.5 55.5q0 104 -34 104zM1517 1019q-25 0 -33.5 -24.5t-11 -56.5t-9.5 -56.5t-28 -24.5q-30 0 -73.5 8.5t-76.5 8.5q-27 0 -45 -8.5t-18 -21.5q0 -16 20.5 -32.5t48 -33.5t48 -33t20.5 -29q0 -11 -13.5 -39.5t-27.5 -60t-14 -51.5
q0 -24 24 -24q22 0 50 20.5t53.5 41.5t40.5 21q19 0 42 -29t48.5 -58.5t49.5 -29.5q25 0 25 37q0 26 -8 57.5t-16 56.5t-8 33q0 13 23.5 25t54 24.5t54 28t23.5 35.5q0 17 -25 24.5t-91 7.5h-42q-16 0 -23.5 27.5t-13.5 64t-16.5 64t-31.5 27.5zM1217 211q-65 0 -110 -16.5
t-45 -39.5q0 -17 25.5 -25.5t51 -15.5t25.5 -16q0 -12 -20 -44t-20 -57q0 -30 29 -30t56.5 23t40.5 23q12 0 19 -29t16 -57.5t27 -28.5q21 0 36 46.5t15 119.5q0 78 -34.5 112.5t-111.5 34.5zM1824 711q-51 0 -91.5 -25t-40.5 -61q0 -27 21.5 -60.5t50 -58t50.5 -24.5
q14 0 21.5 10.5t7.5 27.5q0 33 -19 77q28 13 49.5 37t21.5 41q0 16 -19.5 26t-51.5 10zM1431 490q-20 0 -20 -21q0 -25 11.5 -65.5t11.5 -56.5q0 -8 -10 -13.5t-46 -13.5q-43 -10 -61 -20t-18 -23q0 -19 21 -29t48.5 -17.5t48.5 -17.5t21 -29q0 -15 -2 -37.5t-2 -37.5
q0 -26 5 -45t18 -19q23 0 42.5 27t32.5 57q14 30 22 39t22 9q32 0 53 -10t47 -10t26 18q0 20 -21.5 43.5t-43 44t-21.5 33.5q0 12 22 52t22 81q0 27 -16 27q-17 0 -37.5 -18.5t-38.5 -37t-30 -18.5q-7 0 -22.5 27t-37 54t-47.5 27z" />
</svg>