<?xml version="1.0" standalone="no"?>
<!DOCTYPE svg PUBLIC "-//W3C//DTD SVG 1.1//EN" "http://www.w3.org/Graphics/SVG/1.1/DTD/svg11.dtd">
<svg xmlns="http://www.w3.org/2000/svg" xmlns:xlink="http://www.w3.org/1999/xlink" version="1.1"
   viewBox="94 -151 2414 2169">
   <path fill="currentColor"
      d="M1407 1860q-39 0 -80 -9t-85 -27q-71 -29 -156 -67.5t-172.5 -80.5t-166.5 -81t-137 -68l16 -83q116 59 209.5 105.5t170.5 83.5t142 66t124 53q74 30 135 30t129 -32l573 -271q74 -35 107.5 -89t33.5 -137q0 -24 -1.5 -75.5t-3 -115t-3 -126t-1.5 -107.5q0 -48 1.5 -102
t4 -108.5t4 -104.5t1.5 -89q0 -89 -36.5 -141.5t-116.5 -78.5l-620 -207q-65 -22 -124 -22q-65 0 -136 26l-604 224q-78 29 -112.5 84t-28.5 141q12 183 29.5 382.5t42.5 420.5q7 58 -22 97.5t-70 70t-73.5 61t-32.5 70.5q0 59 51 98t136 39q77 0 132 -47.5t55 -108.5h80
q0 60 -35 113.5t-95 87t-137 33.5q-133 0 -200 -66.5t-67 -148.5q0 -61 31.5 -99t72 -65.5t70 -55.5t24.5 -70q-21 -193 -39.5 -397t-32.5 -410q-15 -228 193 -305l604 -222q84 -31 164 -31q72 0 149 26l620 205q108 36 158 111t50 185q0 107 -5.5 217t-5.5 223
q0 95 4.5 192t4.5 196q0 102 -44.5 176.5t-142.5 121.5l-573 269q-86 40 -163 40zM852 1978q-75 0 -121.5 -32t-46.5 -79q0 -52 47.5 -87t120.5 -35t120.5 35t47.5 87q0 47 -47 79t-121 32zM852 1918q47 0 76.5 -17.5t29.5 -33.5q0 -22 -29.5 -42t-76.5 -20q-46 0 -76 20
t-30 42q0 16 29 33.5t77 17.5zM921 1316q-13 -12 -14 -28.5t11 -29.5l184 -200q13 -14 28.5 -14.5t28.5 11.5t14 28.5t-10 28.5l-184 200q-30 30 -58 4zM695 1118q-13 -11 -14.5 -27.5t10.5 -29.5l271 -294q28 -29 57 -3q13 11 14.5 27.5t-10.5 29.5l-271 294q-27 28 -57 3z
M1358 1810l-24 -1116l80 -4l24 1116zM1799 1321q-13 -11 -15 -27t9 -30l173 -221q11 -14 27.5 -16.5t29.5 8.5q14 10 15.5 26.5t-9.5 30.5l-173 221q-11 14 -27 16.5t-30 -8.5zM1381 721q-80 0 -172 -36q-188 -74 -376 -164.5t-376 -195.5l39 -70q192 107 376.5 198
t365.5 160q41 16 75 23t68 7q32 0 63 -7.5t65 -25.5q68 -36 164 -86t200 -103t199 -100.5t161 -79.5l35 72q-157 76 -339.5 168t-383.5 198q-43 22 -83.5 32t-80.5 10zM1644 1105q-13 -11 -15 -27t9 -30l253 -322q11 -14 27.5 -16t29.5 9q14 11 15.5 27t-9.5 30l-253 322
q-11 14 -27 16t-30 -9z" />
</svg>