<?xml version="1.0" standalone="no"?>
<!DOCTYPE svg PUBLIC "-//W3C//DTD SVG 1.1//EN" "http://www.w3.org/Graphics/SVG/1.1/DTD/svg11.dtd">
<svg xmlns="http://www.w3.org/2000/svg" xmlns:xlink="http://www.w3.org/1999/xlink" version="1.1"
   viewBox="94 -151 2414 2169">
   <path fill="currentColor"
      d="M757 1424h121v-960h-121v960zM1171 1424h267q238 0 370 -123t132 -366q0 -232 -128 -351.5t-345 -119.5h-296v960zM1292 1321v-754h158q173 0 268 90t95 282q0 382 -391 382h-130zM425 1978q-67 0 -116 -49t-49 -116v-1750q0 -68 49 -116.5t116 -48.5h1750
q68 0 116.5 48.5t48.5 116.5v1751q0 67 -49 115.5t-117 48.5h-1749z" />
</svg>