<?xml version="1.0" standalone="no"?>
<!DOCTYPE svg PUBLIC "-//W3C//DTD SVG 1.1//EN" "http://www.w3.org/Graphics/SVG/1.1/DTD/svg11.dtd">
<svg xmlns="http://www.w3.org/2000/svg" xmlns:xlink="http://www.w3.org/1999/xlink" version="1.1"
   viewBox="94 -151 2414 2169">
   <path fill="currentColor"
      d="M393 1728q-71 0 -128.5 -34.5t-91 -93.5t-33.5 -130v-1064q0 -72 33.5 -130.5t91 -93t128.5 -34.5h1814q72 0 129 34.5t90.5 93t33.5 130.5v1064q0 71 -33 130t-90.5 93.5t-129.5 34.5h-1814zM427 1379q-6 -15 -6 -37q0 -44 53.5 -75.5t144.5 -40.5q-62 -16 -97.5 -68.5
t-35.5 -132.5q0 -92 45.5 -145.5t121.5 -53.5q77 0 122.5 53.5t45.5 145.5q0 81 -35 133t-99 68q92 9 145.5 40.5t53.5 75.5q0 24 -5 37h-454zM433 1430q-37 0 -58.5 -21.5t-21.5 -58.5v-604q0 -38 21.5 -59.5t58.5 -21.5h441q38 0 59.5 21.5t21.5 59.5v604q0 37 -21.5 58.5
t-59.5 21.5h-441zM455 1365h397q38 0 38 -37v-560q0 -38 -38 -38h-397q-37 0 -37 38v560q0 37 37 37zM1082 1428v-70h363v70h-363zM1082 1198v-70h474v70h-474zM393 1653h1814q74 0 123.5 -54t49.5 -129v-1027h-2160v1027q0 75 50 129t123 54zM1082 968v-70h727v70h-727z
M1082 738v-70h550v70h-550z" />
</svg>