<?xml version="1.0" standalone="no"?>
<!DOCTYPE svg PUBLIC "-//W3C//DTD SVG 1.1//EN" "http://www.w3.org/Graphics/SVG/1.1/DTD/svg11.dtd">
<svg xmlns="http://www.w3.org/2000/svg" xmlns:xlink="http://www.w3.org/1999/xlink" version="1.1"
   viewBox="94 -151 2414 2169">
   <path fill="currentColor"
      d="M1091 1978q-107 0 -224 -43.5t-228 -117.5t-201 -165.5t-143 -188.5t-53 -185q0 -64 14 -103t35 -65t41.5 -49.5t34.5 -56t14 -86.5q0 -80 22 -127t55 -73.5t65.5 -44t54.5 -37.5t22 -54q0 -101 48.5 -182t128.5 -128t174 -47q35 0 35 -40q0 -71 44.5 -137t121 -108
t171.5 -42q155 0 248 104.5t93 283.5q0 162 -77.5 254t-209.5 92q-10 0 -19.5 -0.5t-20.5 -1.5l32 -25q110 91 203 186.5t161 186t105.5 167.5t37.5 132q0 72 -32.5 128.5t-91 90.5t-136.5 37q2 77 -36.5 138t-102.5 95t-140 30q0 47 -34 88.5t-89.5 67.5t-122.5 26z
M1567 1538q-330 -225 -577 -537l58 -46q236 300 561 523zM1091 1898q71 0 118 -33t52 -86q-112 -37 -256.5 -158t-300.5 -309l58 -48q83 100 164.5 182.5t157.5 142.5t142 92.5t117 32.5q82 0 140 -54t53 -154l25 -49q119 1 174 -48.5t55 -131.5q0 -48 -41.5 -125.5
t-115.5 -171t-172 -190.5t-210 -185q-114 -56 -149 -210l79 -15q20 86 68.5 129t127.5 43q98 0 149.5 -68t51.5 -198q0 -148 -66.5 -228t-188.5 -80q-72 0 -130 30t-92.5 81.5t-34.5 117.5q0 46 -26.5 72t-82.5 26q-76 0 -139 37t-100.5 99t-37.5 138q0 57 -22 88t-54.5 50
t-65.5 40t-55 57.5t-22 103.5q0 73 -20 120.5t-46.5 83t-46.5 71t-20 85.5q0 75 48.5 159.5t130.5 166t182 148.5t204.5 106.5t197.5 39.5zM1826 1190l-53 -52q71 -73 173 -73q65 0 119 33l-40 62q-37 -21 -79 -21q-69 0 -120 51zM1770 1103l-48 -54q57 -54 57 -127
q0 -31 -12 -61l67 -32q19 46 19 93q0 111 -83 181zM1733 1816q-70 0 -125 -41.5t-78 -108.5l67 -86q7 76 44.5 116t92.5 40q47 0 84 -37.5t71 -86t73 -80.5l44 -36q43 -35 89.5 -54t86.5 -41.5t65 -65.5t25 -127q0 -108 -48.5 -195.5t-119 -157.5t-140.5 -125.5t-112 -98.5
l-22 -22q-28 -29 -59 -80t-62 -108t-58.5 -107t-50.5 -76l2 -147q59 79 107 167t92 166.5t91 129.5l22 22q19 20 69.5 60t114 97t123 129.5t98.5 159.5t39 186q0 104 -34.5 163.5t-85.5 91t-101 51t-82 45.5l-44 36q-28 24 -54 60.5t-56.5 73.5t-70.5 62t-97 25zM1209 287
l-63 -39q52 -77 119 -114.5t164 -44.5l4 74q-79 6 -130.5 34.5t-93.5 89.5z" />
</svg>