<?xml version="1.0" standalone="no"?>
<!DOCTYPE svg PUBLIC "-//W3C//DTD SVG 1.1//EN" "http://www.w3.org/Graphics/SVG/1.1/DTD/svg11.dtd">
<svg xmlns="http://www.w3.org/2000/svg" xmlns:xlink="http://www.w3.org/1999/xlink" version="1.1"
   viewBox="94 -151 2414 2169">
   <path fill="currentColor"
      d="M1307 1978q-347 0 -510.5 -199.5t-163.5 -623.5l82 44q0 361 143 530t449 169q293 0 455 -142t162 -385q0 -161 -86 -243.5t-255 -82.5q-183 0 -292 15.5t-157.5 49.5t-48.5 92q0 60 53 87t172 29q109 1 175.5 15.5t114.5 52.5t103 111l-65 47q-45 -62 -82.5 -92.5
t-93 -41t-154.5 -12.5q-154 -3 -228.5 -51t-74.5 -145q0 -65 31.5 -110t100.5 -73t180 -41t271 -13q131 0 224 47t142.5 137.5t49.5 222.5q0 185 -83.5 321t-239.5 210.5t-374 74.5zM809 1218q59 0 94.5 -28.5t45.5 -68.5l-25 -257q-3 -33 -38.5 -55.5t-85.5 -22.5
q-63 0 -95.5 38t-28.5 109l8 156q3 64 34.5 96.5t90.5 32.5zM1444 1665l-74 -10q11 -89 58 -162t125 -111l39 63q-64 30 -100.5 90.5t-47.5 129.5zM809 1298q-62 0 -106.5 -24.5t-69.5 -70.5t-29 -112l-8 -159q-5 -99 52 -162.5t154 -63.5q32 0 65 9t57 28q12 -73 63.5 -116
t133.5 -43q50 0 85.5 14t61.5 39q24 -57 70 -89t114 -32q109 0 156.5 60.5t52.5 163.5l13 259l-75 6l-12 -251q-4 -78 -33.5 -120.5t-102.5 -42.5q-66 0 -98 53t-25 136l20 240h-80l-18 -216q-6 -72 -37.5 -106t-91.5 -34q-67 0 -97.5 42.5t-22.5 127.5l21 215q5 51 18 75.5
t41 35.5l-16 74q-41 -11 -68 -33q-26 42 -71.5 69.5t-116.5 27.5zM1982 1279l-80 -70v-1103q0 -61 -32.5 -94.5t-88.5 -33.5q-57 0 -88 34t-31 95v679l-80 -197v-488q0 -90 55.5 -146.5t143.5 -56.5t144.5 56.5t56.5 145.5v1179z" />
</svg>