<?xml version="1.0" standalone="no"?>
<!DOCTYPE svg PUBLIC "-//W3C//DTD SVG 1.1//EN" "http://www.w3.org/Graphics/SVG/1.1/DTD/svg11.dtd">
<svg xmlns="http://www.w3.org/2000/svg" xmlns:xlink="http://www.w3.org/1999/xlink" version="1.1"
   viewBox="94 -151 2414 2169">
   <path fill="currentColor"
      d="M954 1586q46 0 78.5 -5.5t63.5 -16.5v-60q-31 9 -63.5 15t-68.5 6q-95 0 -142 -60t-47 -162q0 -103 51 -162.5t139 -59.5q37 0 68.5 9.5t56.5 20.5l27 -58q-31 -16 -70 -24.5t-81 -8.5q-128 0 -196 78.5t-68 203.5q0 130 62.5 207t189.5 77zM1432 1578h154
q137 0 212.5 -70.5t75.5 -209.5q0 -133 -73.5 -201.5t-198.5 -68.5h-170v550zM1503 1519v-432h89q99 0 154 51.5t55 161.5q0 219 -224 219h-74zM685 782h70l66 -170h217l67 170h72l-215 -552h-62zM844 550l86 -249l88 249h-174zM1509 724v-200h106q76 0 105.5 26t29.5 70
q0 47 -28.5 75.5t-101.5 28.5h-111zM1440 782h193q89 0 140 -40.5t51 -116.5q0 -64 -35.5 -93t-87.5 -38v-4q50 -9 77 -41t27 -80q0 -76 -52.5 -106.5t-155.5 -30.5h-157v550zM1509 467v-176h91q70 0 102 20t32 66q0 44 -26 67t-97 23h-102zM426 1978q-68 0 -117 -48.5
t-49 -115.5v-1751q0 -68 49 -116.5t116 -48.5h1750q68 0 116.5 48.5t48.5 116.5v1750q0 67 -48.5 116t-116.5 49h-1749z" />
</svg>