<?xml version="1.0" standalone="no"?>
<!DOCTYPE svg PUBLIC "-//W3C//DTD SVG 1.1//EN" "http://www.w3.org/Graphics/SVG/1.1/DTD/svg11.dtd">
<svg xmlns="http://www.w3.org/2000/svg" xmlns:xlink="http://www.w3.org/1999/xlink" version="1.1"
   viewBox="94 -151 2414 2169">
   <path fill="currentColor"
      d="M890 1663q44 0 74 -7.5t55 -20.5v-72q-26 12 -57.5 20t-72.5 8q-70 0 -106 -47.5t-36 -138.5q0 -95 36 -142t111 -47q26 0 56 7.5t53 15.5l24 -66q-22 -12 -57.5 -20.5t-73.5 -8.5q-100 0 -167 62t-67 200q0 133 64 195t164 62zM830 701q-41 0 -66 -19t-25 -61
q0 -48 35.5 -75t130.5 -30l72 -2v45q0 72 -41.5 107t-105.5 35zM1693 1595q-67 0 -100 -49.5t-33 -138.5t33 -141.5t99 -52.5q83 0 114 50t31 143v15q0 87 -32.5 130.5t-111.5 43.5zM812 768q62 0 98.5 -20t68.5 -60h5l16 70h60v-339q0 -89 -44.5 -129t-136.5 -40
q-49 0 -92.5 13t-77.5 30l26 62q29 -16 64.5 -27t74.5 -11q50 0 77 24t27 87v29l-85 2q-238 6 -238 161q0 76 44.5 112t112.5 36zM1680 1663q59 0 96.5 -22.5t59.5 -53.5h3l13 67h66v-709h-82v200q0 13 2 37.5t3 35.5h-5q-23 -31 -60 -52t-95 -21q-93 0 -149.5 65.5
t-56.5 194.5q0 128 56 193t149 65zM1701 699q-84 0 -114 -48t-30 -142v-4q0 -95 30.5 -140.5t110.5 -45.5q135 0 135 188q0 94 -33 143t-99 49zM1713 768q92 0 148.5 -65t56.5 -195q0 -129 -56.5 -193.5t-148.5 -64.5q-61 0 -98.5 21.5t-57.5 53.5h-5q2 -16 3.5 -43.5
t1.5 -57.5v-174h-82v708h58l17 -64h7q20 30 57.5 52t98.5 22zM426 1978q-68 0 -117 -48.5t-49 -115.5v-1751q0 -68 49 -116.5t116 -48.5h1750q68 0 116.5 48.5t48.5 116.5v1750q0 67 -48.5 116t-116.5 49h-1749z" />
</svg>