<?xml version="1.0" standalone="no"?>
<!DOCTYPE svg PUBLIC "-//W3C//DTD SVG 1.1//EN" "http://www.w3.org/Graphics/SVG/1.1/DTD/svg11.dtd">
<svg xmlns="http://www.w3.org/2000/svg" xmlns:xlink="http://www.w3.org/1999/xlink" version="1.1"
   viewBox="94 -151 2414 2169">
   <path fill="currentColor"
      d="M681 1615q83 -52 170.5 -129.5t147.5 -161.5l-110 -35q-52 73 -133 139.5t-167 112.5q20 14 48.5 36.5t43.5 37.5zM1027 1637q92 0 153.5 -2t99.5 -15t51.5 -36.5t13.5 -71.5v-282h616v-101h-1355v101h623v279q0 15 -6 20.5t-26 7.5q-19 1 -77.5 0.5t-132.5 -3.5
q11 23 23.5 51.5t16.5 51.5zM1850 1612l94 -61q-35 -38 -90 -85t-116 -94.5t-117 -85.5l-91 56q58 39 119 88t114.5 97t86.5 85zM783 1004h1018v-97h-1018v97zM880 852h108v-281q32 26 67 54.5t65 54t48 42.5l63 -77q-15 -12 -46 -34.5t-68.5 -49.5t-72 -51t-56.5 -37v-14
h218v-98h-218v-158h-108v158h-262v98h226q-53 90 -129 172t-153 128q17 14 37.5 37.5t34.5 42.5q65 -44 129 -116t117 -153v282zM1555 852h110v-290q56 79 124 151t131 117q11 -19 34 -42.5t40 -37.5q-77 -44 -158.5 -125t-137.5 -166h241v-98h-274v-158h-110v158h-277v98
h237q-57 87 -140 167.5t-164 125.5q17 13 37 36t33 42q72 -45 144.5 -119t129.5 -157v298zM426 1978q-68 0 -117 -48.5t-49 -115.5v-1751q0 -68 49 -116.5t116 -48.5h1750q68 0 116.5 48.5t48.5 116.5v1750q0 67 -48.5 116t-116.5 49h-1749z" />
</svg>