<?xml version="1.0" standalone="no"?>
<!DOCTYPE svg PUBLIC "-//W3C//DTD SVG 1.1//EN" "http://www.w3.org/Graphics/SVG/1.1/DTD/svg11.dtd">
<svg xmlns="http://www.w3.org/2000/svg" xmlns:xlink="http://www.w3.org/1999/xlink" version="1.1"
   viewBox="94 -151 2414 2169">
   <path fill="currentColor"
      d="M1041 1159v-165h654v165h-654zM927 1568h114v-309h654v163q0 34 -36 34q-22 0 -85.5 -0.5t-140.5 -3.5q12 25 23 56.5t15 57.5q100 0 167 -3t105 -17t52 -42.5t14 -81.5v-791h-755q26 -44 49.5 -90t45.5 -92h843v-110h-797q17 -42 32 -86t29 -87l-116 -29
q-14 51 -31.5 101.5t-37.5 100.5h-442v110h393q-75 155 -182 291t-248 231q17 16 40 43t35 46q74 -52 139 -114t121 -132v754zM1041 894v-158h654v158h-654zM426 1978q-68 0 -117 -48.5t-49 -115.5v-1751q0 -68 49 -116.5t116 -48.5h1750q68 0 116.5 48.5t48.5 116.5v1750
q0 67 -48.5 116t-116.5 49h-1749z" />
</svg>