<?xml version="1.0" standalone="no"?>
<!DOCTYPE svg PUBLIC "-//W3C//DTD SVG 1.1//EN" "http://www.w3.org/Graphics/SVG/1.1/DTD/svg11.dtd">
<svg xmlns="http://www.w3.org/2000/svg" xmlns:xlink="http://www.w3.org/1999/xlink" version="1.1"
   viewBox="94 -151 2414 2169">
   <path fill="currentColor"
      d="M1300 1978q-171 0 -326 -53.5t-285.5 -150.5t-226.5 -227.5t-149 -285.5t-53 -323t53 -323t149 -285.5t226.5 -227.5t285.5 -150.5t326 -53.5t326 53.5t285.5 150.5t226.5 227.5t149 285.5t53 323t-53 323t-149 285.5t-226.5 227.5t-285.5 150.5t-326 53.5zM779 1646h115
v-849q35 -47 68 -96t60 -97l-102 -41q-69 121 -174 233.5t-211 189.5q15 21 34.5 57.5t26.5 53.5q46 -35 92.5 -78t90.5 -91v718zM1334 1525l89 -62q-30 -47 -87.5 -108.5t-111.5 -109.5l-83 53q54 52 109.5 116t83.5 111zM1453 1649q89 0 146 -3t92 -16t47.5 -38.5
t12.5 -72.5v-301h233v-100h-233v-133h205v-101h-914v101h593v133h-629v100h629v298q0 15 -6 20.5t-26 7.5q-16 1 -69 1t-119 -3q12 24 23 53t15 54zM621 635q104 -69 208.5 -170t173.5 -201l-111 -43q-52 82 -145.5 171t-186.5 149q15 18 33 46t28 48zM1251 690v-127h515
v127h-515zM1138 779h744v-514h-744v514zM1251 478v-125h515v125h-515z" />
</svg>