<?xml version="1.0" standalone="no"?>
<!DOCTYPE svg PUBLIC "-//W3C//DTD SVG 1.1//EN" "http://www.w3.org/Graphics/SVG/1.1/DTD/svg11.dtd">
<svg xmlns="http://www.w3.org/2000/svg" xmlns:xlink="http://www.w3.org/1999/xlink" version="1.1"
   viewBox="94 -151 2414 2169">
   <path fill="currentColor"
      d="M1300 1978q-171 0 -326 -53.5t-285.5 -150.5t-226.5 -227.5t-149 -285.5t-53 -323t53 -323t149 -285.5t226.5 -227.5t285.5 -150.5t326 -53.5t326 53.5t285.5 150.5t226.5 227.5t149 285.5t53 323t-53 323t-149 285.5t-226.5 227.5t-285.5 150.5t-326 53.5zM851 1651h111
v-702q35 48 71 100.5t52 82.5l70 -84q-10 -14 -35 -42t-55.5 -61t-58 -63t-44.5 -47v-65h193v-108h-193v-266q53 -13 102 -28.5t90 -32.5l-82 -85q-54 24 -133.5 46.5t-168.5 41.5t-173 33q11 19 21.5 44t14.5 45q53 -8 108 -17.5t110 -21.5v241h-249v108h223
q-27 89 -67 182.5t-86 175.5t-92 138q14 19 33 50t28 56q56 -75 111.5 -190.5t98.5 -238.5v708zM1185 1280q39 -61 63 -144.5t38.5 -176t22.5 -176.5l-94 -19q-7 83 -21 170t-38.5 165.5t-61.5 136.5zM1545 1642h213q62 0 95 -27t47.5 -92.5t20.5 -178.5q-23 -8 -52.5 -20.5
t-50.5 -28.5q-3 98 -8.5 150.5t-19 72t-41.5 19.5h-188q-43 0 -55 -14.5t-12 -61.5v-170q98 -111 175 -234.5t138 -259.5q34 70 62.5 149.5t48.5 154.5t27 135l105 -32q-8 -63 -31 -142.5t-56 -162.5t-71 -155l-71 20q44 -102 79 -211.5t62 -224.5l-108 -25
q-50 228 -138.5 433t-221.5 379v-577h-113v710q-73 78 -157.5 148t-181.5 131q22 13 47 37t36 43q71 -46 134.5 -96t121.5 -104v54q0 107 34 144t130 37zM1649 540l77 -81q-49 -56 -139 -119.5t-175 -109.5l-70 73q56 31 115 73t110 85t82 79z" />
</svg>