<?xml version="1.0" standalone="no"?>
<!DOCTYPE svg PUBLIC "-//W3C//DTD SVG 1.1//EN" "http://www.w3.org/Graphics/SVG/1.1/DTD/svg11.dtd">
<svg xmlns="http://www.w3.org/2000/svg" xmlns:xlink="http://www.w3.org/1999/xlink" version="1.1"
   viewBox="94 -151 2414 2169">
   <path fill="currentColor"
      d="M703 1624q40 -73 82.5 -158.5t83.5 -174t75 -170.5l-88 -69q-38 88 -83.5 181t-90 176t-81.5 143zM844 900l65 -100q-48 -37 -130.5 -77t-155.5 -66l-65 90q77 28 158.5 71.5t127.5 81.5zM902 488l72 -89q-43 -43 -121.5 -90t-149.5 -78l-68 83q73 34 150 83.5t117 90.5z
M1005 1643h105v-649h307v318h-125v-233h-79v417h79v-94h348v72h76v-395h-76v233h-132v-318h321v525q0 24 -28 27q-16 1 -66 0t-109 -3q11 22 19 49.5t12 48.5q83 0 138.5 -2t88.5 -13q32 -11 42.5 -37.5t10.5 -69.5v-628h-418v-132h469v-105h-275v-175h232v-102h-232v-162
h-111v162h-277v-162h-108v162h-224v102h224v175h-278v105h467v132h-401v752zM1325 654v-175h277v175h-277zM426 1978q-68 0 -117 -48.5t-49 -115.5v-1751q0 -68 49 -116.5t116 -48.5h1750q68 0 116.5 48.5t48.5 116.5v1750q0 67 -48.5 116t-116.5 49h-1749z" />
</svg>