<?xml version="1.0" standalone="no"?>
<!DOCTYPE svg PUBLIC "-//W3C//DTD SVG 1.1//EN" "http://www.w3.org/Graphics/SVG/1.1/DTD/svg11.dtd">
<svg xmlns="http://www.w3.org/2000/svg" xmlns:xlink="http://www.w3.org/1999/xlink" version="1.1"
   viewBox="94 -151 2414 2169">
   <path fill="currentColor"
      d="M1206 1609q180 -80 277 -184.5t134 -251.5t37 -355v-57h172q52 0 91.5 1.5t52.5 3.5v-132q-16 2 -54 5t-90 3h-172v-196q0 -46 3.5 -81.5t4.5 -46.5h-141q2 11 4.5 46.5t2.5 81.5v196h-446v-200q0 -41 3.5 -72t4.5 -43h-140q4 27 5.5 58.5t1.5 56.5v200h-170
q-49 0 -97 -4.5t-59 -6.5v137q14 -2 60 -4.5t96 -2.5h170v254q0 45 -2 84t-5 59h138q-2 -20 -4 -60t-2 -83v-254h446v66q0 165 -26.5 277.5t-80 187.5t-133.5 126t-187 92zM426 1978q-68 0 -117 -48.5t-49 -115.5v-1751q0 -68 49 -116.5t116 -48.5h1750q68 0 116.5 48.5
t48.5 116.5v1750q0 67 -48.5 116t-116.5 49h-1749z" />
</svg>