<?xml version="1.0" standalone="no"?>
<!DOCTYPE svg PUBLIC "-//W3C//DTD SVG 1.1//EN" "http://www.w3.org/Graphics/SVG/1.1/DTD/svg11.dtd">
<svg xmlns="http://www.w3.org/2000/svg" xmlns:xlink="http://www.w3.org/1999/xlink" version="1.1"
   viewBox="94 -151 2414 2169">
   <path fill="currentColor"
      d="M1231 1633h119v-426h439v81h118v-877h-557v-207h-119v207h-539v885h115v-89h424v426zM807 1094v-237h424v237h-424zM807 749v-227h424v227h-424zM1350 1094v-237h439v237h-439zM1350 749v-227h439v227h-439zM426 1978q-68 0 -117 -48.5t-49 -115.5v-1751q0 -68 49 -116.5
t116 -48.5h1750q68 0 116.5 48.5t48.5 116.5v1750q0 67 -48.5 116t-116.5 49h-1749z" />
</svg>