<?xml version="1.0" standalone="no"?>
<!DOCTYPE svg PUBLIC "-//W3C//DTD SVG 1.1//EN" "http://www.w3.org/Graphics/SVG/1.1/DTD/svg11.dtd">
<svg xmlns="http://www.w3.org/2000/svg" xmlns:xlink="http://www.w3.org/1999/xlink" version="1.1"
   viewBox="94 -151 2414 2169">
   <path fill="currentColor"
      d="M1300 1978q-171 0 -326 -53.5t-285.5 -150.5t-226.5 -227.5t-149 -285.5t-53 -323t53 -323t149 -285.5t226.5 -227.5t285.5 -150.5t326 -53.5t326 53.5t285.5 150.5t226.5 227.5t149 285.5t53 323t-53 323t-149 285.5t-226.5 227.5t-285.5 150.5t-326 53.5zM761 1401h113
v-126h523v-581h-636v707zM874 1164v-357h409v357h-409zM1391 1667q115 0 196.5 -3t127.5 -19q44 -16 62 -48t18 -95v-1037h193v-116h-1387v116h1075v1036q0 47 -45 47q-27 0 -111.5 -1t-178.5 -4q14 25 29 62t21 62z" />
</svg>