<?xml version="1.0" standalone="no"?>
<!DOCTYPE svg PUBLIC "-//W3C//DTD SVG 1.1//EN" "http://www.w3.org/Graphics/SVG/1.1/DTD/svg11.dtd">
<svg xmlns="http://www.w3.org/2000/svg" xmlns:xlink="http://www.w3.org/1999/xlink" version="1.1"
   viewBox="94 -151 2414 2169">
   <path fill="currentColor"
      d="M674 1658q79 1 128 -3t79 -17q30 -14 43 -40.5t13 -75.5v-452l207 -64l-14 -108l-193 56v-302h183v-108h-183v-315h-114v315h-218v108h218v337l-237 64l33 113l204 -61v417q0 17 -6.5 22t-23.5 7q-14 1 -58 1t-97 -1q11 22 21.5 53t14.5 54zM1333 1490v-164h508v164h-508
zM1222 1658h111v-72h508v66h115v-677h-734v683zM1333 1230v-155h508v155h-508zM1449 845h366q78 0 119.5 -22t61 -78t27.5 -157q-23 -6 -55 -18t-52 -28q-4 84 -13 126t-31 56t-65 14h-351q-76 0 -97.5 -11.5t-21.5 -51.5v-112q102 -20 208 -44t204.5 -52.5t177.5 -59.5
l-89 -86q-58 26 -140 52t-175 50t-186 44v-234h-115v442q0 67 19.5 104t69 51.5t138.5 14.5zM426 1978q-68 0 -117 -48.5t-49 -115.5v-1751q0 -68 49 -116.5t116 -48.5h1750q68 0 116.5 48.5t48.5 116.5v1750q0 67 -48.5 116t-116.5 49h-1749z" />
</svg>