<?xml version="1.0" standalone="no"?>
<!DOCTYPE svg PUBLIC "-//W3C//DTD SVG 1.1//EN" "http://www.w3.org/Graphics/SVG/1.1/DTD/svg11.dtd">
<svg xmlns="http://www.w3.org/2000/svg" xmlns:xlink="http://www.w3.org/1999/xlink" version="1.1"
   viewBox="94 -151 2414 2169">
   <path fill="currentColor"
      d="M1300 1978q-171 0 -326 -53.5t-285.5 -150.5t-226.5 -227.5t-149 -285.5t-53 -323t53 -323t149 -285.5t226.5 -227.5t285.5 -150.5t326 -53.5t326 53.5t285.5 150.5t226.5 227.5t149 285.5t53 323t-53 323t-149 285.5t-226.5 227.5t-285.5 150.5t-326 53.5zM767 1641h114
v-664q34 33 70.5 71.5t67.5 74t49 59.5l72 -94q-16 -18 -58.5 -58.5t-90.5 -84.5t-83 -73q56 -77 104 -160.5t82 -170.5l-64 -42l-20 5h-129v-292h-114v292h-227v106h409q-52 103 -127.5 200t-162.5 178t-176 136q13 16 32.5 49t27.5 56q56 -38 112.5 -86.5t111.5 -104.5
v603zM1080 1646q135 -69 205 -172t98.5 -240.5t36.5 -311.5h154v558q0 87 25.5 118.5t107.5 31.5h136q49 0 75.5 -24t39 -84t17.5 -169q-21 -6 -50.5 -18t-46.5 -26q-2 96 -6.5 144.5t-13.5 65t-27 16.5h-105q-26 0 -34.5 -10t-8.5 -45v-558h203v-606h-734v606h154
q-7 154 -30 275t-85 210t-186 147q21 16 42 43.5t33 48.5zM1263 815v-394h508v394h-508z" />
</svg>