<?xml version="1.0" standalone="no"?>
<!DOCTYPE svg PUBLIC "-//W3C//DTD SVG 1.1//EN" "http://www.w3.org/Graphics/SVG/1.1/DTD/svg11.dtd">
<svg xmlns="http://www.w3.org/2000/svg" xmlns:xlink="http://www.w3.org/1999/xlink" version="1.1"
   viewBox="94 -151 2414 2169">
   <path fill="currentColor"
      d="M683 1623q64 -55 114.5 -141t78.5 -174l-108 -26q-29 85 -81 166.5t-113 129.5zM1072 1608l111 -16q-1 -53 -12 -133t-25 -149l-107 11q14 70 23 151.5t10 135.5zM1451 1609l113 -23q-12 -56 -40 -136.5t-60 -147.5l-109 21q30 69 57 150t39 136zM907 1111v-268h174v268
h-174zM1180 1111v-268h182v268h-182zM1877 1625l116 -42q-31 -64 -92.5 -150.5t-120.5 -156.5l-106 36q57 73 116 162t87 151zM907 740v-265h174v265h-174zM610 1216h1343v-105h-198v-268h219v-103h-219v-265h161v-104h-988q23 -35 44 -72.5t39 -74.5l-111 -33
q-55 118 -144 226.5t-190 182.5q21 12 50 36t45 41q35 -29 71 -65t70 -74v202h-217v103h217v268h-192v105zM1462 1111v-268h183v268h-183zM1180 740v-265h182v265h-182zM1462 740v-265h183v265h-183zM426 1978q-68 0 -117 -48.5t-49 -115.5v-1751q0 -68 49 -116.5t116 -48.5
h1750q68 0 116.5 48.5t48.5 116.5v1750q0 67 -48.5 116t-116.5 49h-1749z" />
</svg>