<?xml version="1.0" standalone="no"?>
<!DOCTYPE svg PUBLIC "-//W3C//DTD SVG 1.1//EN" "http://www.w3.org/Graphics/SVG/1.1/DTD/svg11.dtd">
<svg xmlns="http://www.w3.org/2000/svg" xmlns:xlink="http://www.w3.org/1999/xlink" version="1.1"
   viewBox="94 -151 2414 2169">
   <path fill="currentColor"
      d="M426 1978q-68 0 -117 -48.5t-49 -115.5v-1751q0 -68 49 -116.5t116 -48.5h1750q68 0 116.5 48.5t48.5 116.5v1750q0 67 -48.5 116t-116.5 49h-1749zM1051 1495h113q-2 -35 -3.5 -79t-1.5 -71v-776q0 -27 1.5 -61t3.5 -60q-13 1 -30 1.5t-31 0.5h-400q-43 0 -86 -8v138
q14 -2 39 -3.5t47 -1.5h351v707h-355q-25 0 -49 -3t-39 -7v143q17 -4 41.5 -5t47.5 -1h354zM1872 1495h113q-2 -35 -3.5 -79t-1.5 -71v-776q0 -27 1.5 -61t3.5 -60q-13 1 -30 1.5t-31 0.5h-400q-43 0 -86 -8v138q14 -2 39 -3.5t47 -1.5h351v707h-355q-25 0 -49 -3t-39 -7
v143q17 -4 41.5 -5t47.5 -1h354z" />
</svg>