<?xml version="1.0" standalone="no"?>
<!DOCTYPE svg PUBLIC "-//W3C//DTD SVG 1.1//EN" "http://www.w3.org/Graphics/SVG/1.1/DTD/svg11.dtd">
<svg xmlns="http://www.w3.org/2000/svg" xmlns:xlink="http://www.w3.org/1999/xlink" version="1.1"
   viewBox="94 -151 2414 2169">
   <path fill="currentColor"
      d="M1300 1978q-222 0 -388.5 -34t-259 -94.5t-92.5 -141.5v-1028q0 -112 46.5 -213.5t133.5 -176.5l67 42q-83 71 -125 159t-42 189v1028q0 51 88.5 95t238.5 70.5t333 26.5q184 0 333.5 -26.5t238 -70.5t88.5 -95v-1028q0 -101 -42 -189t-125 -159l67 -42
q87 75 133.5 176.5t46.5 213.5v1028q0 81 -92.5 141.5t-259 94.5t-388.5 34zM1300 1770q-128 0 -238 -16t-177 -42t-67 -57t67 -57t177 -42t238 -16q129 0 239 16t177 42t67 57t-67 57t-177 42t-239 16zM868 1253q-16 0 -27 -10.5t-11 -26.5v-411q0 -65 13.5 -121.5
t39.5 -103.5q13 -23 35 -23q16 0 27 10.5t11 25.5q0 11 -6 23q-22 40 -33.5 86.5t-11.5 102.5v411q0 16 -10.5 26.5t-26.5 10.5zM1300 351q109 0 210 -9.5t180.5 -24.5t126 -34.5t46.5 -38.5v-159q-67 22 -156.5 39t-193 26t-213.5 9t-213.5 -9t-192.5 -26t-156 -39v159
q0 19 46 38.5t125.5 34.5t180.5 24.5t210 9.5zM1300 431q-196 0 -340 -22.5t-223 -62.5t-79 -94v-177q0 -55 79 -94.5t223.5 -61t339.5 -21.5q196 0 340.5 21.5t223.5 61t79 94.5v177q0 54 -79 94t-223.5 62.5t-340.5 22.5zM1300 79q93 0 181 -6t164.5 -17.5t135.5 -27.5
q-70 -20 -198.5 -35t-282.5 -15t-282.5 15t-198.5 35q59 16 135.5 27.5t164.5 17.5t181 6z" />
</svg>