<?xml version="1.0" standalone="no"?>
<!DOCTYPE svg PUBLIC "-//W3C//DTD SVG 1.1//EN" "http://www.w3.org/Graphics/SVG/1.1/DTD/svg11.dtd">
<svg xmlns="http://www.w3.org/2000/svg" xmlns:xlink="http://www.w3.org/1999/xlink" version="1.1"
   viewBox="94 -151 2414 2169">
   <path fill="currentColor"
      d="M1123 893q-97 0 -158 -61q-24 14 -54 22t-61 8q-93 0 -153 -45t-88.5 -118t-28.5 -156q0 -137 54.5 -254.5t152 -205t228.5 -136.5t285 -49q153 0 284 46t229 128t152.5 191.5t54.5 237.5q0 101 -35.5 180.5t-98 124.5t-143.5 45q-37 0 -69.5 -5.5t-59.5 -21.5
q-29 24 -74 41t-106 17q-90 0 -158 -45q-73 56 -153 56zM914 1827q-16 -29 -26 -77t-10 -89q0 -71 27 -122t53.5 -100t26.5 -112q0 -59 -26.5 -98t-60.5 -75t-60.5 -82.5t-26.5 -119.5q0 -47 11 -82.5t24 -66.5l74 32q-13 31 -21 57.5t-8 59.5q0 57 26.5 97t60.5 76.5
t60.5 83t26.5 116.5q0 58 -16 101.5t-37.5 80.5t-37.5 73.5t-16 80.5q0 29 8 68.5t20 63.5zM1166 1921q-26 -59 -42 -124t-16 -114q0 -63 20 -112.5t47 -92t47 -84t20 -88.5q0 -51 -26.5 -91.5t-60.5 -81t-60.5 -91t-26.5 -123.5q0 -23 3.5 -38.5t7.5 -28.5h80
q-4 12 -7.5 28t-3.5 39q0 61 26.5 104.5t60.5 83t60.5 86.5t26.5 113q0 60 -20 106.5t-47 88t-47 85t-20 97.5q0 41 14 97t36 107zM1420 1978q-25 -40 -46.5 -104t-21.5 -139q0 -82 20 -140t46.5 -106.5t46.5 -99t20 -117.5q0 -60 -23.5 -103.5t-53.5 -83.5t-53.5 -88.5
t-23.5 -118.5q0 -7 1 -15t2 -15h82q-5 13 -5 30q0 57 23.5 99.5t53.5 83t53.5 90t23.5 121.5q0 75 -20 130.5t-46.5 104t-46.5 102.5t-20 126q0 63 17.5 114.5t38.5 86.5zM932 812v-145h80v145h-80zM1628 1876q-18 -53 -26 -103t-8 -87q0 -69 18.5 -118.5t42.5 -92t42.5 -89
t18.5 -107.5q0 -66 -22 -109t-51.5 -81.5t-51.5 -89.5t-22 -133q0 -7 1 -20.5t2 -26.5h81q-1 11 -2.5 25t-1.5 22q0 72 22 116t51.5 81.5t51.5 86t22 129.5q0 73 -18.5 124t-42.5 92.5t-42.5 86t-18.5 104.5q0 32 7 74t23 90zM1237 812v-145h80v145h-80zM813 389
q-22 0 -32 -19.5t2 -40.5q42 -73 100 -125.5t129 -87.5q20 -10 39.5 -0.5t19.5 32.5q0 28 -29 42q-52 25 -101 69.5t-88 108.5q-12 21 -40 21zM1572 812v-145h80v145h-80zM1123 813q64 0 121 -54h62q49 43 130 43q54 0 87 -16t52 -37l65 -3q19 15 42 20t59 5
q88 0 143.5 -75.5t55.5 -194.5q0 -149 -84.5 -267t-229 -187t-326.5 -69q-139 0 -256.5 42t-203 118.5t-133 179.5t-47.5 225q0 106 44.5 172.5t145.5 66.5q28 0 51 -8t39 -23l66 10q12 22 45.5 37t71.5 15zM1163 143q-13 3 -25.5 -8.5t-12.5 -28.5q0 -21 18.5 -34.5
t44.5 -13.5q18 0 30 11.5t12 28.5q0 16 -10 27t-21 12q-14 1 -36 6z" />
</svg>