<?xml version="1.0" standalone="no"?>
<!DOCTYPE svg PUBLIC "-//W3C//DTD SVG 1.1//EN" "http://www.w3.org/Graphics/SVG/1.1/DTD/svg11.dtd">
<svg xmlns="http://www.w3.org/2000/svg" xmlns:xlink="http://www.w3.org/1999/xlink" version="1.1"
   viewBox="94 -151 2414 2169">
   <path fill="currentColor"
      d="M692 1978q-70 0 -106 -36t-36 -106v-1797q0 -67 37.5 -104t104.5 -37h1216q71 0 106.5 35.5t35.5 106.5v1797q0 67 -37.5 104t-104.5 37h-1216zM1744 1793q-15 0 -35 -56q-53 0 -57 -8q-2 -5 10 -21.5t28 -35.5q-5 -15 -9.5 -38t-0.5 -27q5 -5 23.5 4t40.5 23
q23 -14 41 -23t24 -4q5 4 0 27t-10 38q17 19 28 35.5t9 21.5q-3 8 -56 8q-22 56 -36 56zM1073 1513q-18 0 -35 -10q62 -56 83 -100.5t21 -97.5q-31 28 -68.5 43.5t-75.5 15.5q-50 0 -68 -23q50 -27 83 -57.5t52.5 -62t28.5 -58.5q-29 -49 -41.5 -105.5t-12.5 -117.5
q0 -20 2 -40.5t4 -41.5q47 -44 111.5 -68t142.5 -24t143 24t111 68q2 21 4 41.5t2 40.5q0 61 -12.5 117.5t-41.5 105.5q9 27 28.5 58.5t52.5 62t83 57.5q-18 23 -68 23q-37 0 -74.5 -15.5t-69.5 -43.5q0 53 21.5 97.5t82.5 100.5q-17 10 -35 10q-47 0 -116.5 -45
t-110.5 -127q-40 82 -110 127t-117 45zM821 730q-33 0 -56.5 -23t-23.5 -55t23.5 -55t56.5 -23q31 0 53.5 23t22.5 55q0 31 -22.5 54.5t-53.5 23.5zM1300 1126q-49 0 -70.5 -18t-24.5 -48h191q-3 29 -24.5 47.5t-71.5 18.5zM1048 874q-6 -55 -30.5 -104.5t-58 -81
t-65.5 -31.5q-19 0 -36 14l-33 -45q33 -24 68 -24q48 0 94 37.5t77.5 98.5t37.5 132zM1204 994q-15 0 -17 -43q-38 -2 -38 -16t38 -16q2 -43 17 -43t17 43q38 1 38 16t-38 16q-2 43 -17 43zM1300 1212q67 0 113 -29.5t70.5 -89.5t24.5 -151q0 -17 -0.5 -32.5t-2.5 -30.5
q-26 -22 -79 -42t-126 -20t-126 20t-79 42q-1 15 -2 30.5t-1 32.5q0 91 24.5 151t71 89.5t112.5 29.5zM694 1898h1211q65 0 65 -65v-1789q0 -38 -14 -52t-51 -14h-1211q-64 0 -64 65v1789q0 37 13.5 51.5t50.5 14.5zM861 641l-49 -26q64 -128 185 -128q56 0 103 24t74 68
l-29 54q-23 -47 -59.5 -69t-88.5 -22q-46 0 -79 24t-57 75zM1395 994q-15 0 -17 -43q-38 -2 -38 -16t38 -16q2 -43 17 -43t17 43q38 1 38 16t-38 16q-2 43 -17 43zM791 269q-4 -5 1 -27.5t9 -37.5q-16 -19 -27.5 -35.5t-9.5 -21.5q3 -8 56 -8q22 -56 36 -56q15 0 35 56
q53 0 57 8q2 5 -9.5 21.5t-28.5 35.5q5 15 10 38t0 27q-6 4 -24 -4.5t-40 -22.5q-22 14 -40.5 23.5t-24.5 3.5zM1117 818q0 -197 53 -338.5t163 -225.5q40 32 68 94.5t43.5 148.5t15.5 188q0 32 -1.5 64t-5.5 63l-55 -4q7 -57 7 -122q0 -116 -21.5 -214.5t-56.5 -144.5
q-77 72 -116 196.5t-39 294.5h-55zM1498 865q6 -69 37.5 -129t77.5 -97t95 -37q38 0 68 24l-33 45q-14 -14 -36 -14q-33 0 -66.5 31t-58 80t-30.5 104zM1740 641q-24 -51 -57 -75t-79 -24q-50 0 -87.5 23.5t-65.5 74.5l-27 -57q35 -47 80 -71.5t100 -24.5q121 0 185 128z
M1336 311q-34 0 -58 -23.5t-24 -57.5t24 -57t58 -23q33 0 56.5 23t23.5 57t-23.5 57.5t-56.5 23.5zM1780 730q-31 0 -53.5 -23.5t-22.5 -54.5q0 -32 22.5 -55t53.5 -23q33 0 56.5 23t23.5 55t-23.5 55t-56.5 23z" />
</svg>