<?xml version="1.0" standalone="no"?>
<!DOCTYPE svg PUBLIC "-//W3C//DTD SVG 1.1//EN" "http://www.w3.org/Graphics/SVG/1.1/DTD/svg11.dtd">
<svg xmlns="http://www.w3.org/2000/svg" xmlns:xlink="http://www.w3.org/1999/xlink" version="1.1"
   viewBox="94 -151 2414 2169">
   <path fill="currentColor"
      d="M841 1978q-292 0 -463.5 -90t-186.5 -247q-11 -119 -19.5 -244.5t-12.5 -285.5t-4 -381q0 -183 50 -335.5t141 -264t214.5 -172t270.5 -60.5q144 0 265.5 60t211.5 167t140 248.5t50 304.5v712q0 42 10 77t28 71q14 27 21.5 49.5t7.5 49.5q0 102 -87.5 178.5
t-249.5 119.5t-387 43zM838 1171q-85 0 -155 -33.5t-125 -100.5l51 -44q47 57 102.5 82.5t126.5 25.5q72 0 128 -25.5t102 -82.5l51 44q-55 67 -125.5 100.5t-155.5 33.5zM560 854q-38 0 -63 -28t-25 -68t25 -68.5t63 -28.5t63.5 28.5t25.5 68.5t-25.5 68t-63.5 28z
M838 1898q200 0 344.5 -34.5t222 -94t77.5 -132.5q0 -20 -6 -39.5t-19 -45.5q-19 -40 -30.5 -79.5t-11.5 -82.5v-712q0 -147 -44 -274t-123 -223t-186 -149.5t-234 -53.5q-173 0 -307.5 95.5t-211.5 264.5t-77 392q0 220 4 379.5t12.5 284.5t19.5 240q12 118 158 191t412 73
zM1821 1967l-113 -39q-46 -16 -63 -52t4 -84l165 -375l56 -222q10 -39 31.5 -55.5t60.5 -4.5l147 46q32 10 41.5 37.5t-6.5 64.5l-90 210l-96 397q-13 52 -52 72.5t-85 4.5zM1833 1904q27 9 42.5 -1t21.5 -34l94 -394l87 -203q8 -18 5 -29t-22 -17l-86 -28q-21 -7 -31 1.5
t-15 28.5l-55 213l-160 364q-10 24 -4.5 41.5t36.5 28.5zM1090 854q-38 0 -63 -28t-25 -68t25 -68.5t63 -28.5t63.5 28.5t25.5 68.5t-25.5 68t-63.5 28zM1902 1094l-52 -14l90 -286l52 17zM2278 1260q-25 0 -47.5 -12t-36.5 -31q-10 2 -23.5 0t-24.5 -5l-222 -70
q-16 -5 -32.5 -14.5t-26.5 -19.5q-8 4 -14.5 4.5t-13.5 0.5q-52 0 -80 -40t-28 -98q0 -59 22.5 -114t60 -90.5t81.5 -35.5q28 0 50.5 12t36.5 33q39 -13 76 -1l190 60q39 12 64 49q7 -2 13.5 -2.5t12.5 -0.5q48 0 78.5 38.5t30.5 95.5q0 54 -22 110t-59.5 93.5t-85.5 37.5z
M2279 1196q25 0 48.5 -28.5t38.5 -70t15 -79.5q0 -32 -13.5 -51t-36.5 -19q-27 0 -44 22l-19 -6q1 -19 -9.5 -37.5t-32.5 -25.5l-189 -60q-19 -6 -36.5 -2t-26.5 24l-49 -18q3 -18 -5.5 -31.5t-26.5 -13.5q-23 0 -46 26.5t-38 66.5t-15 82q0 34 11 53.5t32 19.5q22 0 33 -26
l26 4q5 40 47 54l222 70q37 11 59 -12l7 4q-1 21 14 37.5t34 16.5zM2225 1204l-51 -18l93 -283l52 16z" />
</svg>