<?xml version="1.0" standalone="no"?>
<!DOCTYPE svg PUBLIC "-//W3C//DTD SVG 1.1//EN" "http://www.w3.org/Graphics/SVG/1.1/DTD/svg11.dtd">
<svg xmlns="http://www.w3.org/2000/svg" xmlns:xlink="http://www.w3.org/1999/xlink" version="1.1"
   viewBox="94 -151 2414 2169">
   <path fill="currentColor"
      d="M1320 1928l-1080 -149v-1490l1079 -341l1041 341v1490zM332 931q-12 0 -12 -15q0 -14 12 -14q13 0 13 14q0 15 -13 15zM333 974l16 -13q13 -10 18 -22t5 -28q0 -25 -18 -35q0 -24 -5 -34t-17 -10q-23 0 -23 47q-17 15 -17 38q0 31 27 48zM414 959l185 -33v-150l-185 38
v145zM459 905v-54l95 -19v56zM682 867q-14 0 -14 -17q0 -15 14 -15q15 0 15 15q0 17 -15 17zM684 913l16 -15q26 -25 26 -53q0 -29 -20 -38q0 -26 -5 -37t-19 -11q-25 0 -25 51q-19 17 -19 41q0 31 30 52zM774 896l268 -47v-165l-268 56v156zM824 837v-58l168 -34v61z
M1148 782q-16 0 -16 -19q0 -18 16 -18q17 0 17 18q0 19 -17 19zM1149 830l18 -16q29 -26 29 -57t-22 -42q0 -29 -6 -40.5t-20 -11.5q-27 0 -27 56q-21 19 -21 45q0 33 33 55zM1255 812l65 -12l57 9v-172l-57 -11l-65 13v173zM1290 750v-64l30 -6l21 4v65l-21 -4zM1492 781
q-17 0 -17 -19q0 -18 17 -18q16 0 16 18q0 19 -16 19zM2328 718l-125 -31l-44 -50l-44 30l-150 -36l-50 -49l-50 26l-158 -38l-49 -54l-47 32l-231 -56l-60 -50l-66 47l-227 48l-66 -28l-60 55l-155 33l-57 -28l-52 51l-159 34l-53 -25l-45 45l-109 25v-68l110 -26l45 22
l53 -45l160 -38l51 22l57 -47l156 -37l59 22l67 -51l227 -54l64 27l58 -23l231 58l48 50l48 -26l158 41l51 48l49 -23l150 39l45 45l43 -24l127 33v74zM1490 829l18 -13q31 -23 31 -53q0 -26 -21 -45q0 -32 -5.5 -44.5t-20.5 -12.5q-27 0 -27 53q-22 11 -22 42t30 58z
M2325 767v-186l-1005 -259l-1045 251v180l1045 -217zM1843 888v-155l-254 -52v164zM1793 830l-154 -27v-61l154 30v58zM1932 860q-15 0 -15 -17q0 -16 15 -16q14 0 14 16q0 17 -14 17zM1930 904l17 -12q28 -20 28 -48q0 -24 -19 -41q0 -52 -24 -52q-25 0 -25 48
q-20 11 -20 39q0 26 27 52zM2191 947v-143l-181 -37v149zM2146 893l-91 -16v-55l91 18v53zM2281 922q-13 0 -13 -15t13 -15q12 0 12 15t-12 15zM2279 964l16 -13q25 -20 25 -44q0 -23 -17 -37q0 -48 -22 -48q-23 0 -23 44q-18 10 -18 36q0 27 24 48z" />
</svg>