<?xml version="1.0" standalone="no"?>
<!DOCTYPE svg PUBLIC "-//W3C//DTD SVG 1.1//EN" "http://www.w3.org/Graphics/SVG/1.1/DTD/svg11.dtd">
<svg xmlns="http://www.w3.org/2000/svg" xmlns:xlink="http://www.w3.org/1999/xlink" version="1.1"
   viewBox="94 -151 2414 2169">
   <path fill="currentColor"
      d="M1480 1878q-46 0 -67 -31t-21 -80q0 -62 34.5 -127t79.5 -125.5t79.5 -108.5t34.5 -76q0 -10 -39.5 -40.5t-91.5 -85t-91.5 -136.5t-39.5 -194q0 -101 37.5 -178t129.5 -147l49 64q-79 55 -107.5 119.5t-28.5 141.5q0 81 26.5 142.5t65.5 108t78 82.5t65.5 65.5
t26.5 57.5q0 25 -23.5 67t-58.5 92.5t-70.5 102t-59 96.5t-23.5 75q0 20 5.5 30.5t16.5 10.5q17 0 46 -43t87 -140q80 -134 137.5 -208t57.5 -93q0 -14 -18 -31.5t-41.5 -45t-41.5 -70.5t-18 -107q0 -65 21.5 -117t70.5 -97q105 173 182.5 271t147.5 138t152 40q29 0 60 -7
t31 -25q0 -19 -33 -43.5t-101 -62.5q-52 -30 -91.5 -72.5t-78 -104.5t-88.5 -150l-49 -87q-76 -136 -151.5 -212t-155 -107.5t-168.5 -31.5q-92 0 -157 27.5t-113.5 67.5t-89.5 80t-82.5 67.5t-94.5 27.5q-66 0 -110.5 -55t-49.5 -126q105 -102 158 -176.5t53 -120.5
q0 -17 -10 -28.5t-27 -11.5q-27 0 -68 38.5t-82.5 98t-70.5 121.5q-4 -6 -18 -16t-23 -13q0 -26 18 -59.5t77 -112.5q17 -23 32 -51t15 -46q0 -35 -35 -35q-38 0 -75.5 43t-67 108.5t-43.5 135.5q-46 7 -71 29t-40.5 49.5t-34 51t-53.5 33.5q-88 26 -116 40.5t-28 35.5
q0 24 20.5 52.5t50 48.5t56.5 20q28 0 70 -14t85 -28.5t73 -14.5q37 0 64.5 32t56.5 79.5t68.5 95.5t98 80t146.5 32l13 78q-100 0 -169.5 -32t-117 -79.5t-78.5 -94.5t-52.5 -79t-41.5 -32q-14 0 -50.5 13.5t-81.5 27.5t-86 14q-52 0 -99 -32t-76.5 -79.5t-29.5 -93.5
q0 -50 43 -79t146 -61q34 -11 56 -43.5t50 -66t78 -47.5q15 -83 51.5 -151t87 -108.5t106.5 -40.5q41 0 74 28.5t33 78.5q29 -19 54 -19q46 0 74 27.5t28 68.5q0 64 -47 138t-165 194q0 25 25.5 50.5t55.5 25.5q38 0 74 -27.5t76.5 -67.5t93 -80t124 -67.5t169.5 -27.5
q147 0 249 58.5t174.5 151t129.5 194.5l42 74q55 97 109.5 178.5t125.5 122.5q80 45 123.5 91.5t43.5 96.5q0 92 -169 92q-133 0 -252.5 -98t-235.5 -294q-3 17 -6 38.5t-3 40.5q0 62 18.5 102t42 65.5t42 43.5t18.5 36q0 22 -21 61t-52.5 84.5t-62 89t-50.5 75.5
q-85 140 -132 197.5t-99 57.5zM242 676l-56 -101l76 -38q12 7 19.5 28t7.5 44q0 30 -15 48.5t-32 18.5zM1004 1308q-40 0 -65 -33t-39 -121q-11 -70 -18.5 -99.5t-18.5 -54.5l156 42l52 214q-15 27 -28.5 39.5t-38.5 12.5zM1330 1799q-14 0 -19.5 -9t-5.5 -20
q0 -43 36 -104.5t82.5 -126t82.5 -119.5t36 -85q0 -27 -35 -51.5t-81.5 -58.5t-81.5 -88.5t-35 -141.5l84 -8l268 330l-209 370q-10 18 -28.5 44.5t-42 47t-51.5 20.5zM1146 1337q-81 0 -115 -50t-34 -127q0 -64 -10 -136t-35 -123l74 -29q18 35 29.5 88.5t17.5 108t6 93.5
q0 97 73 97q31 0 58.5 -20t27.5 -43q0 -22 -25.5 -34.5t-60.5 -12.5q15 -74 22.5 -130.5t7.5 -103.5q0 -48 -8 -90t-23 -86l73 -26q18 52 27.5 96.5t9.5 94.5q0 45 -5.5 94t-19.5 109q39 6 60.5 33t21.5 50q0 46 -46 96.5t-126 50.5zM1210 1060l19 -84q83 -13 175 -40l23 76
q-58 18 -112.5 29.5t-104.5 18.5zM529 576q-12 0 -21 -13t-9 -31q0 -17 9 -30t21 -13t21 13t9 30q0 18 -9 31t-21 13z" />
</svg>