<?xml version="1.0" standalone="no"?>
<!DOCTYPE svg PUBLIC "-//W3C//DTD SVG 1.1//EN" "http://www.w3.org/Graphics/SVG/1.1/DTD/svg11.dtd">
<svg xmlns="http://www.w3.org/2000/svg" xmlns:xlink="http://www.w3.org/1999/xlink" version="1.1"
   viewBox="94 -151 2414 2169">
   <path fill="currentColor"
      d="M426 1978h1749q68 0 116.5 -49t48.5 -116v-1750q0 -68 -48.5 -116.5t-116.5 -48.5h-1750q-67 0 -116 48.5t-49 116.5v1751q0 67 49 115.5t117 48.5zM956 1503l61 -334h-201v-107h222l51 -256h-214v-106h233l64 -339h116l-64 339h230l64 -339h110l-64 339h203v106h-224
l-49 256h219v107h-240l-66 334h-113l65 -334h-228l-63 334h-112zM1152 1062h228l50 -256h-229zM426 1898q-35 0 -60.5 -25t-25.5 -59v-1751q0 -35 25.5 -60t59.5 -25h1750q35 0 60 25t25 60v1750q0 34 -25 59.5t-60 25.5h-1749zM382 1924h1816q45 0 77.5 -32.5t32.5 -78.5
v-1682q0 -46 -2.5 -69t-18.5 -43l-268 268v1268q0 42 -28.5 71t-69.5 29h-1271z" />
</svg>