<?xml version="1.0" standalone="no"?>
<!DOCTYPE svg PUBLIC "-//W3C//DTD SVG 1.1//EN" "http://www.w3.org/Graphics/SVG/1.1/DTD/svg11.dtd">
<svg xmlns="http://www.w3.org/2000/svg" xmlns:xlink="http://www.w3.org/1999/xlink" version="1.1"
   viewBox="94 -151 2414 2169">
   <path fill="currentColor"
      d="M426 1978q-68 0 -117 -48.5t-49 -115.5v-1751q0 -68 49 -116.5t116 -48.5h1750q68 0 116.5 48.5t48.5 116.5v1750q0 67 -48.5 116t-116.5 49h-1749zM1243 1340q-60 0 -106 -26t-77 -68.5t-46.5 -94.5t-15.5 -104q0 -51 31.5 -99t87.5 -79.5t131 -31.5q110 0 165.5 63.5
t55.5 173.5q0 136 -62.5 201t-163.5 65zM1245 1458q167 0 265 -103t98 -281q0 -166 -91 -256.5t-240 -90.5q-103 0 -169 39t-102 95h-9q6 -125 40 -230t115.5 -168.5t229.5 -63.5q36 0 73 4.5t65 14.5v-120q-26 -8 -66.5 -11t-74.5 -3q-161 0 -263.5 57.5t-159 154.5
t-78.5 216t-22 242q0 128 30 223t83 157.5t123.5 93t152.5 30.5zM426 1898h1749q35 0 60 -25.5t25 -59.5v-1750q0 -35 -25 -60t-60 -25h-1750q-34 0 -59.5 25t-25.5 60v1751q0 34 25.5 59t60.5 25zM382 1924l268 -269h1271q41 0 69.5 -29t28.5 -71v-1268l268 -268
q16 20 18.5 43t2.5 69v1682q0 46 -32.5 78.5t-77.5 32.5h-1816z" />
</svg>