<?xml version="1.0" standalone="no"?>
<!DOCTYPE svg PUBLIC "-//W3C//DTD SVG 1.1//EN" "http://www.w3.org/Graphics/SVG/1.1/DTD/svg11.dtd">
<svg xmlns="http://www.w3.org/2000/svg" xmlns:xlink="http://www.w3.org/1999/xlink" version="1.1"
   viewBox="94 -151 2414 2169">
   <path fill="currentColor"
      d="M426 1978q-68 0 -117 -48.5t-49 -115.5v-1751q0 -68 49 -116.5t116 -48.5h1750q68 0 116.5 48.5t48.5 116.5v1750q0 67 -48.5 116t-116.5 49h-1749zM426 1898h1749q35 0 60 -25.5t25 -59.5v-1750q0 -35 -25 -60t-60 -25h-1750q-34 0 -59.5 25t-25.5 60v1751q0 34 25.5 59
t60.5 25zM382 1924l268 -269h1271q41 0 69.5 -29t28.5 -71v-1268l268 -268q16 20 18.5 43t2.5 69v1682q0 46 -32.5 78.5t-77.5 32.5h-1816zM881 1444h756v-128h-578v-6l238 -236q87 -87 153 -163t103 -154t37 -167q0 -142 -93 -223t-252 -81q-73 0 -136 18t-116.5 48
t-98.5 68l75 94q66 -51 129 -79.5t147 -28.5q90 0 145.5 49t55.5 143q0 77 -30.5 141.5t-89.5 131.5t-145 154l-300 302v117z" />
</svg>