<?xml version="1.0" standalone="no"?>
<!DOCTYPE svg PUBLIC "-//W3C//DTD SVG 1.1//EN" "http://www.w3.org/Graphics/SVG/1.1/DTD/svg11.dtd">
<svg xmlns="http://www.w3.org/2000/svg" xmlns:xlink="http://www.w3.org/1999/xlink" version="1.1"
   viewBox="94 -151 2414 2169">
   <path fill="currentColor"
      d="M426 1978q-68 0 -117 -48.5t-49 -115.5v-1751q0 -68 49 -116.5t116 -48.5h1750q68 0 116.5 48.5t48.5 116.5v1750q0 67 -48.5 116t-116.5 49h-1749zM1241 1347q-123 0 -182 -55.5t-59 -138.5q0 -58 24.5 -102.5t73 -80.5t118.5 -66l25 9q110 40 175 96.5t65 139.5
q0 87 -62 142.5t-178 55.5zM426 1898h1749q35 0 60 -25.5t25 -59.5v-1750q0 -35 -25 -60t-60 -25h-1750q-34 0 -59.5 25t-25.5 60v1751q0 34 25.5 59t60.5 25zM1244 1459q114 0 198.5 -38t130.5 -108t46 -166q0 -78 -34.5 -134t-92 -98.5t-128.5 -76.5q89 -46 153.5 -111.5
t64.5 -168.5q0 -89 -44 -149.5t-121 -92t-177 -31.5q-97 0 -174.5 31.5t-122 92t-44.5 148.5q0 70 26.5 123t72 93.5t101.5 72.5q-94 43 -165.5 116.5t-71.5 189.5q0 145 99 226t283 81zM382 1924l268 -269h1271q41 0 69.5 -29t28.5 -71v-1268l268 -268q16 20 18.5 43
t2.5 69v1682q0 46 -32.5 78.5t-77.5 32.5h-1816zM1246 784q-88 -38 -148.5 -85.5t-60.5 -135.5q0 -80 56.5 -122.5t144.5 -42.5q92 0 148.5 42.5t56.5 122.5q0 86 -57 136t-140 85z" />
</svg>