<?xml version="1.0" standalone="no"?>
<!DOCTYPE svg PUBLIC "-//W3C//DTD SVG 1.1//EN" "http://www.w3.org/Graphics/SVG/1.1/DTD/svg11.dtd">
<svg xmlns="http://www.w3.org/2000/svg" xmlns:xlink="http://www.w3.org/1999/xlink" version="1.1"
   viewBox="94 -151 2414 2169">
   <path fill="currentColor"
      d="M426 1978q-68 0 -117 -48.5t-49 -115.5v-1751q0 -68 49 -116.5t116 -48.5h1750q68 0 116.5 48.5t48.5 116.5v1750q0 67 -48.5 116t-116.5 49h-1749zM426 1898h1749q35 0 60 -25.5t25 -59.5v-1750q0 -35 -25 -60t-60 -25h-1750q-34 0 -59.5 25t-25.5 60v1751q0 34 25.5 59
t60.5 25zM382 1924l268 -269h1271q41 0 69.5 -29t28.5 -71v-1268l268 -268q16 20 18.5 43t2.5 69v1682q0 46 -32.5 78.5t-77.5 32.5h-1816zM1109 1458q162 0 264.5 -57.5t159 -154t78.5 -215.5t22 -242q0 -128 -29.5 -222.5t-82.5 -156.5t-123 -93t-151 -31q-166 0 -265 103
t-99 282q0 165 89.5 255t237.5 90q104 0 169.5 -39t101.5 -94h10q-5 125 -39 229.5t-115.5 167.5t-230.5 63q-36 0 -74 -5.5t-67 -15.5v120q26 8 69 12t75 4zM1240 905q-111 0 -165 -63t-54 -172q0 -135 63 -200.5t163 -65.5q61 0 106.5 26t76 69t46 94.5t15.5 103.5
q0 50 -30.5 98t-87 79t-133.5 31z" />
</svg>