<?xml version="1.0" standalone="no"?>
<!DOCTYPE svg PUBLIC "-//W3C//DTD SVG 1.1//EN" "http://www.w3.org/Graphics/SVG/1.1/DTD/svg11.dtd">
<svg xmlns="http://www.w3.org/2000/svg" xmlns:xlink="http://www.w3.org/1999/xlink" version="1.1"
   viewBox="94 -151 2414 2169">
   <path fill="currentColor"
      d="M426 1978q-68 0 -117 -48.5t-49 -115.5v-1751q0 -68 49 -116.5t116 -48.5h1750q68 0 116.5 48.5t48.5 116.5v1750q0 67 -48.5 116t-116.5 49h-1749zM426 1898h1749q35 0 60 -25.5t25 -59.5v-1750q0 -35 -25 -60t-60 -25h-1750q-34 0 -59.5 25t-25.5 60v1751q0 34 25.5 59
t60.5 25zM382 1924l268 -269h1271q41 0 69.5 -29t28.5 -71v-1268l268 -268q16 20 18.5 43t2.5 69v1682q0 46 -32.5 78.5t-77.5 32.5h-1816zM1266 1461q205 0 293 -156t88 -433q0 -186 -42 -317t-126.5 -200.5t-212.5 -69.5q-137 0 -220 70t-120.5 201t-37.5 316
q0 277 92.5 433t285.5 156zM1264 1341q-130 0 -183.5 -117t-53.5 -352q0 -156 23 -260t75.5 -155.5t138.5 -51.5t138 51.5t76 155.5t24 260q0 236 -55 352.5t-183 116.5z" />
</svg>