<?xml version="1.0" standalone="no"?>
<!DOCTYPE svg PUBLIC "-//W3C//DTD SVG 1.1//EN" "http://www.w3.org/Graphics/SVG/1.1/DTD/svg11.dtd">
<svg xmlns="http://www.w3.org/2000/svg" xmlns:xlink="http://www.w3.org/1999/xlink" version="1.1"
   viewBox="94 -151 2414 2169">
   <path fill="currentColor"
      d="M426 1978q-68 0 -117 -48.5t-49 -115.5v-1751q0 -68 49 -116.5t116 -48.5h1750q68 0 116.5 48.5t48.5 116.5v1750q0 67 -48.5 116t-116.5 49h-1749zM426 1898h1749q35 0 60 -25.5t25 -59.5v-1750q0 -35 -25 -60t-60 -25h-1750q-34 0 -59.5 25t-25.5 60v1751q0 34 25.5 59
t60.5 25zM382 1924l268 -269h1271q41 0 69.5 -29t28.5 -71v-1268l268 -268q16 20 18.5 43t2.5 69v1682q0 46 -32.5 78.5t-77.5 32.5h-1816zM1201 1460q227 0 332.5 -95.5t105.5 -245.5q0 -113 -67.5 -183.5t-204.5 -86.5v-7q108 -21 172.5 -89.5t64.5 -183.5
q0 -122 -87.5 -202.5t-266.5 -80.5q-115 0 -205 35t-152 83l71 96q64 -42 130 -69t158 -27q96 0 152 45.5t56 128.5q0 65 -32.5 113.5t-96.5 75.5t-158 27h-112v120h111q151 0 235.5 47.5t84.5 154.5q0 106 -68 166t-222 60q-76 0 -159.5 -20t-155.5 -56v132q71 34 147.5 48
t166.5 14z" />
</svg>