<?xml version="1.0" standalone="no"?>
<!DOCTYPE svg PUBLIC "-//W3C//DTD SVG 1.1//EN" "http://www.w3.org/Graphics/SVG/1.1/DTD/svg11.dtd">
<svg xmlns="http://www.w3.org/2000/svg" xmlns:xlink="http://www.w3.org/1999/xlink" version="1.1"
   viewBox="94 -151 2414 2169">
   <path fill="currentColor"
      d="M425 1978q-67 0 -116 -49t-49 -116v-1750q0 -68 49 -116.5t116 -48.5h1749q68 0 117 48t49 116v1751q0 67 -48.5 116t-116.5 49h-1750zM1138 1017q-74 -42 -115 -112.5t-41 -155.5q0 -84 39 -152.5t111 -111.5q25 73 37 143t12 138q0 128 -43 251zM1300 1702
q33 0 56.5 -20t23.5 -50q0 -32 -22 -59q-16 -18 -16 -36v-75q44 17 76.5 30t38.5 20q7 7 8.5 15.5t2.5 18.5q4 31 20 48t42 17q27 0 44.5 -18t17.5 -46q0 -52 -84 -103q-14 -8 -36 -18.5t-50 -21.5q34 -14 68 -32.5t67 -38.5l169 168q21 -69 36 -111t29.5 -67.5t31.5 -44.5
q95 -105 138 -208t42 -227q1 -98 -59.5 -197t-161.5 -164q-16 -11 -35 -19.5t-24 -8.5t-5 5q0 4 8 13q28 31 59 102.5t31 173.5q0 200 -118 355.5t-356 246.5v-123q33 -11 86.5 -34t89.5 -40q5 -3 2 -8q-7 -14 -14.5 -27.5t-13.5 -26.5q95 -49 150.5 -141t55.5 -201
t-52.5 -197.5t-148.5 -142.5q6 -17 13 -32l14 -30q2 -4 -1 -5q-58 -29 -120.5 -72.5t-99.5 -92.5q-3 -5 -6 0q-37 49 -99.5 92.5t-120.5 72.5q-3 1 -1 5l14 30t13 32q-96 54 -148.5 142.5t-52.5 197.5t55.5 201t150.5 141q-6 13 -13 26.5t-15 27.5q-3 5 2 8q36 17 89.5 40
t86.5 34v123q-238 -91 -356 -245.5t-118 -356.5q0 -102 31 -173.5t59 -102.5q8 -9 8 -13q0 -5 -5 -5t-23.5 8.5t-35.5 19.5q-100 65 -161 164t-61 197q0 124 43 227t138 208q18 19 32 44.5t29 67.5t36 111l169 -168q33 20 67 38.5t68 32.5q-28 11 -50 21.5t-36 18.5
q-84 51 -84 103q0 28 17.5 46t44.5 18q26 0 42 -17t20 -48q1 -10 2.5 -18.5t8.5 -15.5q6 -7 38.5 -20t76.5 -30v75q0 18 -16 36q-22 27 -22 59q0 30 23.5 50t56.5 20zM1462 1017q-43 -123 -43 -251q0 -68 12 -138t37 -143q72 43 111 111.5t39 152.5q0 85 -41 155.5
t-115 112.5z" />
</svg>