<?xml version="1.0" standalone="no"?>
<!DOCTYPE svg PUBLIC "-//W3C//DTD SVG 1.1//EN" "http://www.w3.org/Graphics/SVG/1.1/DTD/svg11.dtd">
<svg xmlns="http://www.w3.org/2000/svg" xmlns:xlink="http://www.w3.org/1999/xlink" version="1.1"
   viewBox="94 -151 2414 2169">
   <path fill="currentColor"
      d="M1231 1849q-114 0 -184 -11.5t-112 -41.5t-72 -86l-129 -245q-7 145 -52.5 239t-110.5 94q-46 0 -69 -36t-30.5 -85t-7.5 -88h-97q0 -79 21.5 -130t68.5 -103l143 -786q8 -47 41.5 -68t73.5 -21q59 0 103.5 37t33.5 99l-91 485l319 410h615v59h-563q41 51 69 66.5
t63 15.5h713q46 0 78.5 28.5t32.5 68.5q0 41 -32 70t-79 29h-746zM535 1978q-68 0 -123.5 -33t-88.5 -88.5t-33 -123.5q0 -92 61.5 -161t158.5 -79l-21 139q-65 37 -65 109q0 55 37.5 90t89.5 35q53 0 90.5 -38t37.5 -91q0 -47 -36 -83l44 -110q42 34 66 83.5t24 105.5
q0 68 -32.5 123.5t-87.5 88.5t-122 33zM1197 1792h783q51 0 51 -41t-51 -41h-703q-70 0 -123 -28.5t-109 -100.5l-356 -458l97 -520q5 -23 -17.5 -38t-47.5 -15q-20 0 -36 8t-20 27l-149 815q-24 22 -44.5 51t-27.5 58l59 17q0 -29 6.5 -40.5t16.5 -11.5q18 0 18 25
q0 31 -9.5 63t-9.5 52q0 24 5 52t16.5 47.5t29.5 19.5q12 0 27 -20.5t27 -47.5t16 -45q8 -38 12.5 -68.5t4.5 -49.5q0 -57 -26 -79l26 -149l271 349q48 61 84.5 98.5t77.5 54t101 16.5zM2040 1978q-76 0 -134 -45t-77 -113h134q31 56 92 56q46 0 78 -32t32 -78
q0 -45 -31.5 -76t-78.5 -31q-29 0 -56 17h-165q21 -56 77.5 -96.5t128.5 -40.5q91 0 155 64.5t64 155.5t-64 155t-155 64zM431 251q-36 5 -58 -29t-22 -84q0 -36 10.5 -61t36.5 -29l79 -13q22 -4 53 3l64 15l78 -15l-5 130l-37 7l-55 35q-15 10 -33 19t-35 11zM823 604
l-52 -66l64 -364l20 -4q13 -2 23.5 -9t21.5 -22q-18 -15 -28 -37t-10 -46q0 -15 5.5 -30.5t18.5 -25.5q-10 -9 -20 -9q-3 0 -12 1t-35 6l-112 20q-15 45 -15 89q0 68 69 74l-60 345l-72 36l58 -329q-31 -8 -46.5 -48.5t-15.5 -77.5q0 -55 28 -136l185 -31q17 -3 31 -3
q34 0 54 19.5t26 45.5l28 112q0 46 -22.5 68.5t-62.5 30.5zM1740 1553h146q60 -125 231 -125q23 0 49.5 2t56.5 6l12 -66q-45 -28 -98 -43.5t-104 -15.5q-94 0 -174.5 64.5t-118.5 177.5zM1651 1611q22 -107 76.5 -190t133.5 -130.5t172 -47.5q67 0 141.5 24.5t135.5 71.5
l-32 174q-98 -17 -161 -17q-61 0 -98 18.5t-57 58.5v38h-311zM1138 145q-9 0 -18 -1.5t-19 -3.5l-80 -19l-103 18l-35 -135l107 -19l61 -45q30 -22 89 -32q32 -5 50 -7.5t26 -2.5q33 0 53.5 36t20.5 83q0 36 -7.5 70t-39.5 40q-64 12 -81.5 15t-23.5 3z" />
</svg>