<?xml version="1.0" standalone="no"?>
<!DOCTYPE svg PUBLIC "-//W3C//DTD SVG 1.1//EN" "http://www.w3.org/Graphics/SVG/1.1/DTD/svg11.dtd">
<svg xmlns="http://www.w3.org/2000/svg" xmlns:xlink="http://www.w3.org/1999/xlink" version="1.1"
   viewBox="94 -151 2414 2169">
   <path fill="currentColor"
      d="M1273 1670q-314 -373 -587 -678.5t-486 -520.5q44 -33 114.5 -87t155 -119t170 -132.5t161 -128.5t126.5 -106q86 28 187 59t213.5 64t234 67t249.5 69q-69 184 -138 381t-133.5 393.5t-120 380.5t-98.5 342zM1370 1978l-19 -250l12 -20l158 -166q34 17 55.5 42t36.5 65
l-175 105l-7 17l67 164q-54 40 -128 43zM320 1377l-46 -66q100 -70 206 -178.5t202.5 -236t169.5 -258t107 -244.5l76 24q-36 119 -112 255t-176.5 269.5t-211 247t-215.5 187.5zM1270 1548q30 -114 69 -245t83.5 -271t92.5 -282.5t96.5 -280t95.5 -261.5q-96 -27 -200 -56
t-206 -58.5t-193.5 -56t-163.5 -48.5q-42 36 -106 87.5t-138.5 110t-147.5 115t-134 103t-98 73.5q102 104 216 227t235 260t247 284t252 299zM1251 1633q-42 -146 -92 -345t-100 -426.5t-94 -461.5t-74 -448l79 -12q31 214 74.5 446t93 458t99 423.5t91.5 341.5zM1832 1579
l-21 -13l-178 -163q17 -31 46 -53t71 -35l105 170l12 7l186 -87q23 25 36.5 55.5t18.5 71.5zM1530 1827q-62 0 -120 -27t-100.5 -72.5t-60.5 -99.5l76 -24q34 62 88.5 102.5t117.5 40.5q71 0 134 -44.5t111 -124t75.5 -186t27.5 -230.5q0 -206 36 -341t134.5 -201.5
t286.5 -66.5h31t33 2l-6 80q-16 -2 -33 -2h-32q-162 0 -241 58.5t-104 175.5t-25 294q0 142 -33.5 263.5t-92.5 212t-136.5 140.5t-166.5 50zM274 521v-80q147 -1 310 -15t326 -39t314 -61.5t276.5 -82.5t210.5 -101l43 68q-92 59 -224.5 108t-289.5 86t-325 63t-332 39.5
t-309 14.5zM1929 1084l-27 -3l-191 -123q11 -34 35.5 -60.5t61.5 -48.5l109 140l14 2l133 -114q29 21 50.5 49t33.5 63zM2249 781l-133 -145l-3 -19l52 -186q32 2 60 14t47 32l-82 128l2 12l124 78q-10 29 -27.5 51.5t-39.5 34.5z" />
</svg>