<?xml version="1.0" standalone="no"?>
<!DOCTYPE svg PUBLIC "-//W3C//DTD SVG 1.1//EN" "http://www.w3.org/Graphics/SVG/1.1/DTD/svg11.dtd">
<svg xmlns="http://www.w3.org/2000/svg" xmlns:xlink="http://www.w3.org/1999/xlink" version="1.1"
   viewBox="94 -151 2414 2169">
   <path fill="currentColor"
      d="M1090 612l55 -59q168 155 341.5 327t338 352.5t309 361t254.5 351.5q-28 19 -66.5 26t-87.5 7q-103 0 -243.5 -43.5t-294 -118t-298.5 -167t-258 -190.5q-54 -47 -112.5 -103t-107.5 -109t-77 -90l140 -178q33 -42 33 -80q0 -37 -29 -63l-62 -58l55 -58l61 57
q56 52 56 120q0 34 -11.5 64t-40.5 68l-101 128q27 30 68.5 72.5t89 87.5t89.5 83q110 97 250.5 186.5t287.5 159.5t279.5 110.5t226.5 40.5q13 0 26 -0.5t23 -1.5l-13 23q-140 -216 -330 -437.5t-408 -441t-443 -427.5zM791 783l-546 -524q-18 -18 -25.5 -29.5t-7.5 -27.5
q0 -22 25 -59t64.5 -79t83 -80t82.5 -62t61 -24q20 0 34 9t34 30l585 592l-257 276q-22 24 -48 24q-38 0 -85 -46zM495 195q21 0 36 -15t15 -37t-15 -37t-36 -15q-22 0 -37 15t-15 37t15 37t37 15zM937 614q21 0 36 -15t15 -37t-15 -37t-36 -15q-22 0 -37 15t-15 37t15 37
t37 15z" />
</svg>