<?xml version="1.0" standalone="no"?>
<!DOCTYPE svg PUBLIC "-//W3C//DTD SVG 1.1//EN" "http://www.w3.org/Graphics/SVG/1.1/DTD/svg11.dtd">
<svg xmlns="http://www.w3.org/2000/svg" xmlns:xlink="http://www.w3.org/1999/xlink" version="1.1"
   viewBox="94 -151 2414 2169">
   <path fill="currentColor"
      d="M1286 1284q-50 0 -111 -17t-115 -52t-85 -89q-16 -28 -35 -60t-40 -65q-52 -83 -91.5 -166.5t-39.5 -188.5q0 -103 39 -187.5t127 -146.5l2 39q-36 -101 -70 -172t-77.5 -134t-109.5 -137h421q61 51 108.5 136t76.5 177q30 -99 80 -185t107 -138l192 20l12 82l243 8
q-78 47 -158 133t-130 214l-9 -44q80 46 130 130.5t50 204.5q0 77 -26 167t-93 200q-52 86 -106 147t-123.5 92.5t-168.5 31.5zM1070 1920l-30 -64l-92 17l-18 -75l-79 -4q69 -68 116 -154t63 -172q47 19 110 35.5t116 18.5q-7 55 -32.5 130.5t-65 148.5t-88.5 119z
M904 1197q-42 0 -83.5 -8t-72.5 -23l33 -71q23 10 55 16t65 6q28 0 51 -3.5t41 -10.5l29 75q-26 10 -56 14.5t-62 4.5zM955 1440l-8 -79q53 -5 108.5 -42.5t82.5 -89.5l73 35q-39 73 -110 120.5t-146 55.5zM1436 1978q-47 -88 -92 -208t-45 -256q56 -2 121 -13.5t111 -29.5
q22 146 72.5 277.5t105.5 229.5h-273zM1445 1515l-56 -53q28 -25 44 -70.5t16 -96.5q0 -18 -2 -36.5t-7 -36.5l77 -21q5 24 7.5 47.5t2.5 46.5q0 70 -20.5 126.5t-61.5 93.5zM1284 1542q-156 0 -284.5 -62.5t-205 -167.5t-76.5 -234q0 -68 22 -140.5t64 -138.5l42 84
q-18 39 -33 88t-15 107q0 106 65.5 193.5t176 139t244.5 51.5t244.5 -51.5t176 -139t65.5 -193.5q0 -58 -17 -115.5t-64 -146.5l72 -34q52 100 70.5 164t18.5 132q0 129 -76.5 234t-205 167.5t-284.5 62.5zM1154 803q-28 -75 -85.5 -133t-107.5 -87l44 -68q59 36 121.5 101
t90.5 152zM1698 1294q4 -23 6 -39.5t2 -29.5q0 -70 -26.5 -121t-62.5 -82l48 -65q49 36 76 94t27 130q0 29 -3.5 49t-11.5 47zM1272 1235q12 -58 44.5 -122.5t72 -125t72.5 -103.5q55 -72 80 -129.5t25 -131.5q0 -23 -3 -41.5t-8 -37.5q-6 -22 -9.5 -47t-3.5 -60
q0 -61 24.5 -127t64 -127.5t83.5 -106.5h-108l-13 -97l-85 -7q-46 52 -87 132.5t-66.5 171t-25.5 171.5q0 90 21.5 159.5t66.5 133.5t115 139l-60 52q-63 -66 -111 -130t-77 -141q-25 63 -67 125.5t-116 149.5l-60 -52q64 -77 109 -142t69 -135t24 -159q0 -77 -21.5 -162
t-60 -163.5t-89.5 -133.5h-227q24 34 45.5 67.5t41 69.5t36.5 81q29 74 45.5 135.5t16.5 95.5q0 35 -4.5 61t-9.5 49q-4 19 -7 37.5t-3 38.5q0 79 36 151t88 143q59 79 95.5 152t53.5 166h-7zM1268 546q-76 -97 -165 -148t-160 -77l19 -78q79 25 172.5 79.5t164.5 144.5z
M1571 692q-79 -11 -156 -37.5t-129 -61.5l33 -75q54 37 122.5 61t139.5 33zM1215 231q-98 -67 -181 -94t-172 -32l-4 -78q104 5 194.5 35t171.5 83zM1578 481q-82 -39 -152 -88.5t-116 -110.5l55 -60q34 49 95 95.5t158 93.5zM1646 254q-93 -30 -160 -70.5t-116 -89.5
l58 -56q42 44 100.5 78.5t143.5 61.5z" />
</svg>