<?xml version="1.0" standalone="no"?>
<!DOCTYPE svg PUBLIC "-//W3C//DTD SVG 1.1//EN" "http://www.w3.org/Graphics/SVG/1.1/DTD/svg11.dtd">
<svg xmlns="http://www.w3.org/2000/svg" xmlns:xlink="http://www.w3.org/1999/xlink" version="1.1"
   viewBox="94 -151 2414 2169">
   <path fill="currentColor"
      d="M1999 1683l-243 -760l51 -104l249 775q26 -4 64 -17t71 -29l-162 -735q-36 -164 -72.5 -271t-82.5 -174t-110.5 -108.5t-156.5 -74.5l13 -87q108 41 184.5 91t131 125.5t95.5 192t78 290.5l171 790q-55 37 -134 64t-147 32zM1249 1978q-81 0 -175 -5.5t-182 -17.5
t-154 -31q20 -300 30.5 -602t10.5 -591h79q0 179 -7 475t-29 655q47 11 114.5 19.5t140.5 12.5t136 4l36 -9v90zM961 1404v-75h184v75h-184zM601 1683q-67 -5 -146.5 -32t-134.5 -64l171 -790q38 -174 78.5 -290.5t95 -192t131 -125.5t184.5 -91l13 87q-92 33 -156.5 74.5
t-110.5 108.5t-82.5 174t-72.5 271l-162 735q33 16 71.5 29t63.5 17l249 -775l51 104zM1455 1404v-75h184v75h-184zM1351 1978v-90l36 10q64 0 136.5 -4.5t140 -13t114.5 -19.5q-22 -359 -29 -655t-7 -475h79q0 289 11 591t30 602q-65 19 -153.5 31t-182 17.5t-175.5 5.5z
M1211 1926l36 -1080q5 -140 -12.5 -294.5t-42.5 -281.5q-15 -78 -22 -129t-7 -89q0 -62 30.5 -98t106.5 -36q77 0 107 36t30 98q0 38 -7 89t-22 129q-25 127 -42 281.5t-13 294.5l36 1080q-49 -12 -89 -12q-39 0 -89 12zM1455 1003v-75h184v75h-184zM1249 967l-344 -484
l138 -145l22 41l-169 -26q5 -134 57 -236.5t141.5 -160.5t205.5 -58q117 0 206 58t141.5 160.5t56.5 236.5l-169 26l22 -41l138 145l-344 484l-54 -52l302 -427l-99 -101l6 -77l165 -28l-43 60q-4 -107 -48 -189.5t-116.5 -129.5t-163.5 -47t-163.5 47t-116 129.5
t-48.5 189.5l-43 -60l165 28l6 77l-99 101l302 427z" />
</svg>