<?xml version="1.0" standalone="no"?>
<!DOCTYPE svg PUBLIC "-//W3C//DTD SVG 1.1//EN" "http://www.w3.org/Graphics/SVG/1.1/DTD/svg11.dtd">
<svg xmlns="http://www.w3.org/2000/svg" xmlns:xlink="http://www.w3.org/1999/xlink" version="1.1"
   viewBox="94 -151 2414 2169">
   <path fill="currentColor"
      d="M1251 1209q82 0 136 -37.5t121 -98.5q72 -66 140 -115t134.5 -81.5t134.5 -47.5l136 -30q116 -26 172 -112t56 -196q0 -104 -48.5 -214t-142.5 -195q-93 -84 -184 -120.5t-173 -36.5q-87 0 -158 34.5t-117.5 92.5t-61.5 127l-19 91q-13 65 -46.5 126.5t-84.5 128.5
t-118 149q-53 65 -84.5 109.5t-45 80t-13.5 75.5q0 43 16.5 94.5t58.5 90.5q47 43 93 64t98 21zM324 1978q37 -36 73.5 -80t63.5 -85q-16 -18 -37.5 -38t-41.5 -35q-44 25 -87 57t-79 67q12 15 32 37t41 42.5t35 34.5zM412 1842l612 -602l-57 -56l-612 601zM1014 1279
q26 -19 64 -53t69 -65l-106 -102q-33 34 -65 72.5t-49 61.5q11 20 38 46.5t49 39.5zM1227 1376q11 -23 20.5 -53t16.5 -63t11 -64l-59 -10q-5 41 -17 86t-26 78zM808 975q35 -11 88.5 -19t100.5 -9v-59q-54 0 -112.5 8.5t-99.5 22.5zM568 651q-102 0 -184.5 -48.5
t-130.5 -130.5t-48 -184t48 -184.5t130.5 -130.5t184.5 -48t184 48t130 130.5t48 184.5t-48 184.5t-130 130.5t-184 48zM568 571q80 0 144 -37t101 -101.5t37 -144.5t-37 -144t-101 -101.5t-144 -37.5t-144 37.5t-101.5 101.5t-37.5 144t37.5 144t101.5 101.5t144 37.5z
M1275 1154q3 -18 4.5 -37.5t1.5 -40.5q0 -58 -10.5 -123t-29.5 -131t-47 -127l-54 26q25 56 43 117.5t28 122t10 113.5q0 38 -6 70zM1490 1030l28 -54q-46 -21 -105 -36.5t-125 -26.5t-131.5 -18.5t-123.5 -11.5v63q51 3 112 9t124.5 16t120.5 24.5t100 34.5zM1695 892
l32 -51q-78 -44 -164.5 -73.5t-173 -44.5t-165.5 -15q-22 0 -44.5 1.5t-42.5 3.5l-27 60q48 -6 100 -6q77 0 160 13.5t166 41t159 70.5zM1483 1072q6 -29 8.5 -60.5t2.5 -63.5q0 -87 -18 -176t-50 -166.5t-73 -131.5l-44 40q35 48 63 120t44 154.5t16 161.5q0 58 -9 112z
M1613 915l85 -20q13 -38 18.5 -74t5.5 -69q0 -128 -78.5 -202.5t-197.5 -74.5q-36 0 -74 7t-78 23l-13 84q87 -34 160 -34q89 0 145 50.5t56 150.5q0 38 -7.5 77t-21.5 82zM1241 301q32 -17 75.5 -27t92.5 -13v-60q-56 3 -108 15.5t-90 33.5zM1255 1129q-34 0 -67.5 -13.5
t-69.5 -47.5q-31 -29 -42.5 -71.5t-11.5 -68.5q0 -37 35.5 -87.5t96.5 -123.5q69 -82 119.5 -148t84.5 -132t52 -148l19 -85q12 -53 47 -98t90.5 -73t125.5 -28q67 0 144 31t158 105t123 169t42 182t-42.5 152t-131.5 82l-138 26q-67 12 -139.5 48t-146.5 90t-146 123
q-55 52 -101.5 84t-100.5 32zM2057 972q17 -55 26.5 -102t13.5 -95l-59 -4q-4 44 -12.5 87t-24.5 94zM1807 803h60q0 -229 -82 -428t-222 -353l-45 38q133 147 211 336t78 407zM2198 613l30 -52q-200 -111 -417 -165.5t-426 -54.5l2 60q223 0 420 52.5t391 159.5zM1502 47
l42 -43q-31 -29 -69 -55.5t-84 -50.5l-31 51q43 22 78.5 46.5t63.5 51.5zM2210 396l32 -52q-77 -47 -187.5 -81.5t-234 -53.5t-241.5 -19q-41 0 -81 2.5t-77 7.5l8 60q36 -5 74.5 -7.5t78.5 -2.5q112 0 229.5 18t222 50.5t176.5 77.5zM2042 744l60 -4q0 -96 -24.5 -205
t-66.5 -216t-93.5 -200.5t-105.5 -157.5l-61 22q54 58 105.5 147t93.5 194.5t67 214t25 205.5zM2348 745l47 -36q-34 -38 -74.5 -73t-78.5 -60l-31 51q35 23 70.5 53t66.5 65z" />
</svg>