<?xml version="1.0" standalone="no"?>
<!DOCTYPE svg PUBLIC "-//W3C//DTD SVG 1.1//EN" "http://www.w3.org/Graphics/SVG/1.1/DTD/svg11.dtd">
<svg xmlns="http://www.w3.org/2000/svg" xmlns:xlink="http://www.w3.org/1999/xlink" version="1.1"
   viewBox="94 -151 2414 2169">
   <path fill="currentColor"
      d="M1620 1978v-2080h290v2080h-290zM1700 1898h130v-1920h-130v1920zM900 1770v-241h800v241h-800zM980 1690h640v-81h-640v81zM690 1977v-2079h290v2079h-290zM770 1897h130v-1919h-130v1919zM900 1294v-241h800v241h-800zM980 1214h640v-81h-640v81zM900 106h800v241h-800
v-241zM980 186v81h640v-81h-640zM900 582h800v241h-800v-241zM980 662v81h640v-81h-640z" />
</svg>