<?xml version="1.0" standalone="no"?>
<!DOCTYPE svg PUBLIC "-//W3C//DTD SVG 1.1//EN" "http://www.w3.org/Graphics/SVG/1.1/DTD/svg11.dtd">
<svg xmlns="http://www.w3.org/2000/svg" xmlns:xlink="http://www.w3.org/1999/xlink" version="1.1"
   viewBox="94 -151 2414 2169">
   <path fill="currentColor"
      d="M414 1173v-1125h1772v1125h-1772zM494 1173h1612v-1045h-1612v1045zM627 1045v-784h1346v784h-1346zM648 1539h116l13 -42h-113zM752 1470h114l18 -42h-115zM716 1403h117l17 -43h-116zM688 1332h115l14 -36h-117zM863 1332h115l15 -36h-113zM2333 1626h84v202h-2234
v-202h84v122h2066v-122zM923 1403h115l13 -43h-110zM973 1470h116l8 -42h-108zM1038 1332h112l14 -36h-110zM1106 1403h115l8 -43h-112zM1183 1470h115l-3 -42h-103zM901 1539h795l-18 -42h-760zM1207 1332h118l-11 -36h-95zM1277 1403h113l-13 -43h-96zM1406 1470h112
l-14 -42h-109zM1385 1332h112l-16 -36h-109zM1443 1403h112l-19 -43h-105zM1590 1470h116l-19 -42h-115zM1562 1332h114l-20 -36h-115zM1632 1403h114l-18 -43h-115zM1840 1539h114l-22 -42h-112zM1735 1332h117l-21 -36h-114zM1809 1403h113l-22 -43h-113zM1789 1470h410
l-23 -42h-405zM2060 1539h178l-24 -42h-175zM1911 1332h211l-20 -36h-209zM2001 1403h161l-24 -43h-158zM183 1663v-77l231 -413h1772l231 413v77h-2234zM280 1583h2040l-188 -336h-1664zM362 1539h178l12 -42h-166zM401 1470h286l18 -42h-281zM438 1403h212l18 -43h-206z
M478 1332h138l14 -36h-132z" />
</svg>