<?xml version="1.0" standalone="no"?>
<!DOCTYPE svg PUBLIC "-//W3C//DTD SVG 1.1//EN" "http://www.w3.org/Graphics/SVG/1.1/DTD/svg11.dtd">
<svg xmlns="http://www.w3.org/2000/svg" xmlns:xlink="http://www.w3.org/1999/xlink" version="1.1"
   viewBox="94 -151 2414 2169">
   <path fill="currentColor"
      d="M704 1978q-27 0 -75 -32t-98.5 -77.5t-85.5 -89t-35 -66.5q0 -20 28.5 -36t67.5 -42t69 -75q-10 -35 -14 -66.5t-4 -59.5q0 -82 26.5 -144.5t65 -113.5t77.5 -95.5t65.5 -89.5t26.5 -96q0 -31 -1 -97t-1 -143q0 -120 51 -239.5t136.5 -217.5t189 -157t208.5 -59
q108 0 175 33t106.5 81.5t66.5 96.5t56 77q80 82 138 178t58 210q0 120 -42 209.5t-139 177.5q-13 52 -54 102.5t-93 92t-98 66.5q-42 23 -94.5 34t-103.5 21t-89 31q-37 20 -77.5 62t-81.5 115q-33 60 -65.5 102t-77 64t-116.5 22h-14t-15 -1q0 42 -23.5 94t-55.5 90
t-58 38zM544 1648q-61 -57 -96.5 -126t-35.5 -132q0 -67 25 -129t58 -122t58 -121t25 -125q0 -59 -17.5 -126t-17.5 -140q0 -119 60 -220t157 -147q0 -61 31.5 -113t83.5 -83.5t112 -31.5q93 0 167 69l-55 58q-25 -23 -53.5 -35t-58.5 -12q-58 0 -103 46t-45 100q0 11 2 21
t4 18q-54 12 -105 62t-84 121t-33 147q0 72 17.5 134t17.5 132t-25 134.5t-58 125.5t-58 120t-25 117q0 45 28.5 99t78.5 101zM811 1649q51 0 79 -30.5t47 -74.5t41 -83q52 -90 118 -147t169 -97.5t265 -77.5q98 -23 152.5 -48.5t54.5 -41.5q0 -8 -11 -8q-31 0 -92 18.5
t-141 37.5q-97 22 -191 37t-138 26q17 -41 61.5 -87t82.5 -67t95 -34.5t120.5 -27.5t121.5 -35q46 -17 95 -43t82.5 -49t33.5 -30q0 -4 -6 -4q-10 0 -53.5 21t-111 48t-149.5 48t-168 21q-24 0 -24 -11q0 -6 40.5 -32t100 -67.5t119 -93.5t100 -110.5t40.5 -117.5
q0 -20 -7 -20t-19.5 15.5t-56.5 73.5q-31 41 -76.5 85t-94.5 81.5t-90.5 61t-64.5 23.5q23 -67 37.5 -118t22.5 -97q17 -90 23 -138.5t28 -101.5q33 -80 71.5 -116.5t38.5 -48.5q0 -8 -10 -8q-41 0 -84.5 50.5t-79 139.5t-53.5 203q-5 31 -21 78.5t-36 94.5t-38.5 80
t-27.5 35q-14 -20 -25 -62.5t-19 -93.5t-12.5 -97t-4.5 -71q0 -91 20 -159t46 -114.5t46 -72t20 -32.5q0 -4 -5 -4q-46 0 -82 43t-60.5 108t-37.5 132t-13 115q0 84 13.5 167.5t13.5 161.5q0 65 -10.5 106.5t-35 75t-65.5 76.5l-15 -227q-1 -16 -1.5 -61.5t-0.5 -97.5
q0 -55 -1 -77.5t-4 -22.5q-17 0 -27 68t-10 190q0 97 -17 171t-61 141q-43 66 -84 112.5t-68 88.5t-27 96q0 60 40 93.5t92 33.5zM902 1824q-48 0 -85 -7.5t-55 -14.5l28 -75q21 7 51 12t61 5q68 0 123 -32t102.5 -77t91 -86.5t88.5 -61.5q48 -22 117.5 -28t145 -18.5
t140.5 -53.5q31 -20 71.5 -68t86 -102t90.5 -91q77 -62 114.5 -153.5t37.5 -205.5q0 -107 -45.5 -189.5t-125.5 -119.5q8 -61 8 -98q0 -109 -46.5 -195t-125.5 -136.5t-179 -50.5q-61 0 -117 29t-98 80l-40 -72q52 -56 118 -86.5t137 -30.5q123 0 220.5 61.5t154 166
t56.5 234.5q0 29 -3 58q84 56 125 150t41 199q0 119 -41.5 228t-139.5 192q-41 34 -88 90.5t-93 108.5t-86 75q-48 28 -109.5 44t-122 25.5t-106.5 15.5t-63 14q-22 10 -62.5 51t-97 90.5t-127 86t-152.5 36.5z" />
</svg>