<?xml version="1.0" standalone="no"?>
<!DOCTYPE svg PUBLIC "-//W3C//DTD SVG 1.1//EN" "http://www.w3.org/Graphics/SVG/1.1/DTD/svg11.dtd">
<svg xmlns="http://www.w3.org/2000/svg" xmlns:xlink="http://www.w3.org/1999/xlink" version="1.1"
   viewBox="94 -151 2414 2169">
   <path fill="currentColor"
      d="M1313 1380q-58 0 -106.5 -34t-71.5 -91l-84 -216q-43 -111 -74 -196t-51.5 -156.5t-33 -138.5t-20 -141t-11.5 -166q-2 -50 -5 -96.5t-7 -86.5q-4 -42 -21 -61t-53 -19q-48 0 -74 31t-26 93h-80q0 -90 52 -147t128 -57q65 0 107 42t47 110q3 41 6 87.5t6 94.5
q6 98 14 174t21 142t32 133.5t48 147t69 182.5l83 212q14 36 43 56.5t64 20.5q59 0 119 -2.5t149 -9.5t232 -21t369 -36l6 80q-176 18 -301.5 30t-214 20t-151.5 12t-112.5 5.5t-97.5 1.5zM2200 1978q-88 -6 -184 -11.5t-188.5 -10t-173 -8t-141 -5.5t-89.5 -2h-39
q-62 0 -140 1.5t-155 3.5t-136 2q-181 0 -292.5 -45.5t-162 -145.5t-50.5 -262q0 -51 -2.5 -110.5t-8.5 -84.5q-4 -20 -13.5 -69t-17 -106.5t-7.5 -99.5q0 -96 51.5 -157.5t131.5 -61.5q56 0 86 34t36 100q8 89 22.5 162t38.5 135.5t58 120.5l-68 42q-37 -63 -62 -124
t-41 -138t-28 -188q-4 -37 -14 -50.5t-34 -13.5q-43 0 -70 38.5t-27 100.5q0 38 7 91.5t16 100t13 65.5q8 31 10.5 95.5t2.5 115.5q0 140 40 222t133 117.5t252 35.5q58 0 134.5 -2t155 -3.5t141.5 -1.5h39q30 0 91.5 2t143 5.5t174 8.5t187 10.5t180.5 10.5v80zM804 867
q-39 -119 -63 -233.5t-31 -190.5q-3 -35 -3.5 -88.5t-0.5 -99.5q0 -77 -11.5 -102t-48.5 -25q-46 0 -70.5 48t-24.5 140q0 12 0.5 24t1.5 24q4 40 10.5 112.5t11.5 145.5t5 117q0 35 -1.5 61.5t-3.5 48.5l-80 -10q2 -20 3.5 -43.5t1.5 -56.5q0 -42 -5 -113.5t-11.5 -142.5
t-10.5 -111q-1 -15 -1.5 -29.5t-0.5 -26.5q0 -85 20.5 -145t60 -91.5t94.5 -31.5q73 0 106.5 49.5t33.5 157.5q0 46 0.5 97t3.5 83q8 79 30.5 187.5t59.5 218.5z" />
</svg>