<?xml version="1.0" standalone="no"?>
<!DOCTYPE svg PUBLIC "-//W3C//DTD SVG 1.1//EN" "http://www.w3.org/Graphics/SVG/1.1/DTD/svg11.dtd">
<svg xmlns="http://www.w3.org/2000/svg" xmlns:xlink="http://www.w3.org/1999/xlink" version="1.1"
   viewBox="94 -151 2414 2169">
   <path fill="currentColor"
      d="M781 1778q-70 0 -119.5 -49.5t-49.5 -121.5q0 -65 47 -112.5t111 -54.5l20 72q-40 0 -69 27.5t-29 67.5t28.5 68t68.5 28h933q179 0 309.5 -66.5t202 -187t71.5 -283.5q0 -188 -93 -337t-266 -228l-63 -29q-172 -80 -278 -138t-163.5 -103.5t-85.5 -85.5
q-26 -38 -44.5 -55t-40.5 -17q-31 0 -51 30.5t-20 74.5q0 55 30 109.5t101 115.5t195 138q11 32 52.5 79t101 97.5t127.5 94t132 69.5l-23 66q-93 -36 -182.5 -93.5t-155.5 -121t-92 -118.5l-896 4q-41 0 -69.5 27t-28.5 67t28.5 67.5t69.5 27.5l-20 73q-64 -7 -111 -55
t-47 -113q0 -71 49 -120t119 -49l871 -4l-6 41l-73 -47q-83 -54 -139.5 -116t-84.5 -124t-28 -115q0 -77 44.5 -128.5t111.5 -51.5q37 0 71.5 25.5t65.5 69.5q26 35 78 76t152 96t270 134l63 29q192 88 300.5 258t108.5 380q0 183 -82.5 321t-231 214.5t-347.5 76.5h-943z
M574 1513q-70 0 -119 -50t-49 -121q0 -65 47 -112.5t111 -54.5l20 72q-41 0 -69.5 27.5t-28.5 67.5t28.5 68t69.5 28h597v75h-607zM383 1248q-70 0 -119 -50t-49 -121t48.5 -120.5t118.5 -49.5h799v75h-789q-40 0 -68.5 27.5t-28.5 67.5t28.5 68t69.5 28h788v75h-798z" />
</svg>