<?xml version="1.0" standalone="no"?>
<!DOCTYPE svg PUBLIC "-//W3C//DTD SVG 1.1//EN" "http://www.w3.org/Graphics/SVG/1.1/DTD/svg11.dtd">
<svg xmlns="http://www.w3.org/2000/svg" xmlns:xlink="http://www.w3.org/1999/xlink" version="1.1"
   viewBox="94 -151 2414 2169">
   <path fill="currentColor"
      d="M420 1978q-43 0 -71.5 -27t-28.5 -68q0 -36 21 -60.5t58 -24.5q24 0 47.5 -9.5t46.5 -21.5t53 -30t75.5 -46.5t113.5 -72.5q47 -30 61.5 -51.5t14.5 -58.5q0 -53 -13.5 -186t-36.5 -321.5t-52 -405.5q-19 -95 -24.5 -131.5t-5.5 -67.5q0 -93 47 -158.5t152.5 -115
t282.5 -91.5q172 -42 316 -71.5t250 -45.5t163 -16q105 0 193.5 50.5t142.5 135t54 185.5q0 159 -109 247t-313 88h-670l35 -30q21 61 35 130t14 119q0 111 -10.5 186.5t-26 133t-31 115.5t-26 132t-10.5 184q0 62 20 123t20 112q0 71 -50 114t-141 43q-87 0 -163.5 -10
t-93.5 -10q-32 0 -76.5 16t-82.5 16q-34 0 -51.5 -6t-36.5 -6q-16 0 -43 6t-50 6zM1013 1810l-40 -30q24 -33 24 -75q0 -23 -5 -42l48 -12q7 25 7 54q0 59 -34 105zM420 1898q12 0 43.5 -6t49.5 -6q26 0 44 6t44 6q13 0 41.5 -8t61 -16t56.5 -8q15 0 58 5t97.5 10t101.5 5
q60 0 85.5 -21.5t25.5 -55.5q0 -24 -10 -63.5t-20 -85t-10 -86.5q0 -117 10.5 -196t26 -138.5t31 -116.5t26 -127.5t10.5 -172.5q0 -91 -25.5 -173t-48.5 -126h740q170 0 256 -65t86 -190q0 -81 -42.5 -147t-113 -105t-154.5 -39q-52 0 -157 16.5t-247 45.5t-307 69
q-158 38 -250 77t-131 89t-39 121q0 28 6 67.5t23 117.5q20 150 38.5 295t33 271t23 220t8.5 141q0 60 -25 99.5t-87 78.5q-46 29 -78.5 49t-64.5 39q-25 15 -46.5 27t-62.5 32q-28 13 -54.5 19t-55.5 6q-27 0 -27 19q0 10 6.5 15.5t23.5 5.5zM925 507l-32 -38
q71 -59 71 -138h50q0 104 -89 176z" />
</svg>