<?xml version="1.0" standalone="no"?>
<!DOCTYPE svg PUBLIC "-//W3C//DTD SVG 1.1//EN" "http://www.w3.org/Graphics/SVG/1.1/DTD/svg11.dtd">
<svg xmlns="http://www.w3.org/2000/svg" xmlns:xlink="http://www.w3.org/1999/xlink" version="1.1"
   viewBox="94 -151 2414 2169">
   <path fill="currentColor"
      d="M1300 1978q-395 -303 -644.5 -558t-367.5 -480t-118 -438q0 -126 42.5 -235.5t119 -192.5t179 -129.5t221.5 -46.5q121 0 234 46.5t201 127t133 183.5q46 -103 133.5 -183.5t200.5 -127t234 -46.5q119 0 221.5 46.5t179 129.5t119 192.5t42.5 235.5q0 213 -118 438
t-367.5 480t-644.5 558zM790 1546v-80h114v80h-114zM1119 1816v-80h105v80h-105zM348 1004v-80h324v80h-324zM223 734v-80h137v80h-137zM674 1275v-80h324v80h-324zM1336 1816v-80h152v80h-152zM1010 1546v-80h324v80h-324zM460 734v-80h125v80h-125zM779 1004v-80h125v80
h-125zM1099 1275v-80h125v80h-125zM1441 1546v-80h125v80h-125zM348 463v-80h324v80h-324zM674 734v-80h324v80h-324zM1010 1004v-80h324v80h-324zM1673 1546v-80h126v80h-126zM1336 1275v-80h324v80h-324zM1300 1883q365 -283 597 -524.5t342.5 -453t110.5 -403.5
q0 -147 -63.5 -265.5t-172.5 -188.5t-246 -70q-127 0 -236.5 53t-194 151t-137.5 232q-53 -134 -137.5 -232t-193.5 -151t-237 -53q-137 0 -246 70t-172.5 188.5t-63.5 265.5q0 192 110.5 403.5t342.5 453t597 524.5zM460 192v-80h125v80h-125zM779 463v-80h125v80h-125z
M1099 734v-80h125v80h-125zM1441 1004v-80h125v80h-125zM1761 1275v-80h125v80h-125zM686 192v-80h324v80h-324zM1010 463v-80h324v80h-324zM1336 734v-80h324v80h-324zM1999 1275v-80h61v80h-61zM1673 1004v-80h324v80h-324zM1107 192v-80h85v80h-85zM1441 463v-80h125v80
h-125zM1761 734v-80h125v80h-125zM2104 1004v-80h125v80h-125zM1410 192v-80h250v80h-250zM1673 463v-80h324v80h-324zM1999 734v-80h324v80h-324zM1761 192v-80h125v80h-125zM2104 463v-80h125v80h-125zM1986 192v-80h304v80h-304z" />
</svg>