<?xml version="1.0" standalone="no"?>
<!DOCTYPE svg PUBLIC "-//W3C//DTD SVG 1.1//EN" "http://www.w3.org/Graphics/SVG/1.1/DTD/svg11.dtd">
<svg xmlns="http://www.w3.org/2000/svg" xmlns:xlink="http://www.w3.org/1999/xlink" version="1.1"
   viewBox="94 -151 2414 2169">
   <path fill="currentColor"
      d="M1465 2001q-205 0 -389.5 -61.5t-337.5 -174t-265.5 -266t-174 -338t-61.5 -389.5q0 -225 90 -450.5t297 -448.5l1740 1742q-223 206 -448.5 296t-450.5 90zM1272 1626q60 0 106.5 -22t46.5 -74v-485q-34 -5 -66 -18.5t-59 -32.5l-349 349q-23 23 -23 56q0 48 34 89.5
t87 72.5t112.5 48t110.5 17zM840 1310q32 0 55 -23l349 -349q-19 -27 -32.5 -59t-18.5 -66h-484q-52 2 -74 48t-22 105q0 51 17 110.5t48 112.5t72.5 87t89.5 34zM1465 1866q197 0 388.5 -74t353.5 -220l-131 -131q0 56 -40.5 104.5t-104.5 84.5t-136.5 56t-136.5 20
q-58 0 -108.5 -14.5t-84.5 -51.5q-37 40 -91.5 53t-101.5 13q-70 0 -144 -24t-138 -67t-103.5 -100.5t-39.5 -123.5q-64 0 -121 -39t-100.5 -102.5t-68 -138t-24.5 -145.5q0 -57 14.5 -108t50.5 -85q-36 -34 -50.5 -85t-14.5 -107q0 -63 20 -136t56 -137.5t84.5 -105.5
t104.5 -41l-131 -131q-147 162 -221 353.5t-74 388.5q0 179 55.5 342.5t156.5 300.5t238 238t300.5 157t342.5 56zM1658 1626q51 0 110.5 -17t112.5 -48t86.5 -72.5t33.5 -89.5q0 -33 -24 -57l-347 -348q-57 42 -125 51v485q0 52 47 74t106 22zM709 733h484q9 -68 51 -125
l-347 -347q-24 -24 -57 -24q-48 0 -89.5 34t-72.5 87t-48 112.5t-17 110.5q0 56 22 104t74 48zM1465 971q58 0 108 -34l-272 -272q-34 50 -34 108q0 53 27.5 98t72.5 72.5t98 27.5z" />
</svg>