<?xml version="1.0" standalone="no"?>
<!DOCTYPE svg PUBLIC "-//W3C//DTD SVG 1.1//EN" "http://www.w3.org/Graphics/SVG/1.1/DTD/svg11.dtd">
<svg xmlns="http://www.w3.org/2000/svg" xmlns:xlink="http://www.w3.org/1999/xlink" version="1.1"
   viewBox="94 -151 2414 2169">
   <path fill="currentColor"
      d="M1664 1240q31 -17 59.5 -38t53.5 -46l340 -342q69 -70 106 -160t37 -188q0 -99 -37 -188t-106 -158q-142 -142 -346 -142q-203 0 -347 142l-343 342q-141 139 -141 343q0 100 37 191t107 160q112 111 262 135l-64 67q-147 -39 -254 -146q-80 -80 -124 -186t-44 -221
q0 -113 43 -217t122 -182l343 -342q80 -80 184.5 -123t218.5 -43q113 0 218 43t184 123q80 80 123.5 184.5t43.5 217.5t-43.5 218.5t-123.5 185.5l-340 342q-90 90 -215 135zM1324 518q144 40 249 145q80 79 123 184t43 218q0 114 -43 219t-123 185l-340 342
q-79 80 -184 123.5t-218 43.5t-217.5 -43.5t-185.5 -123.5q-80 -80 -124 -186t-44 -221q0 -113 43 -217t122 -182l343 -342q93 -91 209 -131l-50 110q-29 16 -54.5 35t-48.5 42l-343 342q-141 139 -141 343q0 100 37 191t107 160q145 143 347 143q203 0 346 -143l340 -342
q142 -144 142 -348t-142 -346q-102 -102 -248 -133zM1152 746h11.5h8.5q133 0 226 95q92 94 92 228q0 63 -24.5 121.5t-68.5 103.5l-342 343q-43 43 -105.5 69t-124.5 26q-56 0 -117 -25.5t-102 -65.5q-99 -97 -99 -230q0 -63 24 -122t70 -105l305 -305l14 98l-261 263
q-72 74 -72 171q0 99 75 174q29 29 75.5 48t87.5 19q47 0 94.5 -19.5t79.5 -51.5l342 -343q69 -69 69 -169t-70 -172q-69 -71 -168 -71h-8.5h-11.5v-80zM1675 907l266 -268q70 -70 70 -169t-71 -172q-69 -71 -168 -71q-103 0 -172 71l-341 343q-72 74 -72 171q0 99 75 174
q29 29 75.5 48t87.5 19h7.5h11.5v80h-10.5h-8.5q-56 0 -117 -25.5t-102 -65.5q-99 -97 -99 -230q0 -63 24 -122t70 -105l343 -343q95 -95 228 -95t226 95t93 228q0 63 -24.5 121.5t-69.5 103.5l-311 311z" />
</svg>