<?xml version="1.0" standalone="no"?>
<!DOCTYPE svg PUBLIC "-//W3C//DTD SVG 1.1//EN" "http://www.w3.org/Graphics/SVG/1.1/DTD/svg11.dtd">
<svg xmlns="http://www.w3.org/2000/svg" xmlns:xlink="http://www.w3.org/1999/xlink" version="1.1"
   viewBox="94 -151 2414 2169">
   <path fill="currentColor"
      d="M426 1978q-68 0 -117 -48.5t-49 -115.5v-1751q0 -68 49 -116.5t116 -48.5h1750q68 0 116.5 48.5t48.5 116.5v1750q0 67 -48.5 116t-116.5 49h-1749zM661 1708h443l146 -649h-72l-130 579h-331l-135 -579h-73zM877 1451h90v-90h-90v90zM748 1268h90v-89h-90v89zM877 1086
h90v-90h-90v90zM1513 1724q30 0 50 -21t20 -52v-537q0 -14 10 -23.5t23 -9.5q14 0 24.5 9.5t10.5 23.5v537q0 31 20 52t50 21t50 -21t20 -52v-898h23l118 346q8 21 29.5 31t44.5 3q20 -6 28 -27.5t0 -44.5l-148 -419q-28 -80 -90 -103.5t-150 -23.5q-70 0 -119 17t-91 56
l-169 157q-16 16 -44 16h-207q-25 0 -41 16t-16 41q0 23 15 38t37 15h270q25 0 40 -15l101 -107h21v902q0 31 20 52t50 21zM1614 471q67 0 114 -47t47 -113t-47 -112.5t-114 -46.5q-66 0 -112.5 46.5t-46.5 112.5t47 113t112 47z" />
</svg>