<?xml version="1.0" standalone="no"?>
<!DOCTYPE svg PUBLIC "-//W3C//DTD SVG 1.1//EN" "http://www.w3.org/Graphics/SVG/1.1/DTD/svg11.dtd">
<svg xmlns="http://www.w3.org/2000/svg" xmlns:xlink="http://www.w3.org/1999/xlink" version="1.1"
   viewBox="94 -151 2414 2169">
   <path fill="currentColor"
      d="M1850 1639q-111 0 -197.5 -166.5t-124.5 -457.5l77 -13q24 171 63.5 296.5t87 194t94.5 68.5q60 0 110 -66.5t80.5 -173t30.5 -225.5q0 -132 -81 -233t-225 -158.5t-333 -57.5q-109 0 -179.5 15t-105.5 15q-52 0 -93 -45.5t-64 -127.5l-24 -86q-24 -86 -51.5 -137
t-64 -73.5t-88.5 -22.5h-213q-31 7 -77 24.5t-84 41t-46 49.5q50 6 50 23q0 15 -25 31.5t-39 21.5q4 32 40 44t91 12q27 0 49 -9q108 64 147 181l-40 268q-32 -15 -69.5 -76.5t-67.5 -143t-40 -152.5q-80 0 -126 -36t-46 -100q0 -12 5.5 -30.5t5.5 -31.5q0 -59 75.5 -107
t217.5 -79l127 -51q114 0 201.5 67.5t120.5 180.5l30 103q30 103 52.5 142.5t65.5 39.5q27 0 91 -14.5t174 -14.5q206 0 368.5 68t256.5 187t94 272q0 145 -41 268.5t-109 199t-151 75.5zM1156 1978q-24 0 -47.5 -6t-23.5 -13q0 -11 15 -34t29 -33v-252l109 9l-15 303
q-1 8 -21.5 17t-45.5 9zM1404 1898q-24 0 -46 -6.5t-22 -14.5q0 -10 14.5 -32t28.5 -32q0 -62 -3 -110t-9.5 -95.5t-19.5 -109.5l172 -17q-9 90 -48 145l-8 247q0 9 -17.5 17t-41.5 8zM1828 1978q-21 0 -42 -7t-21 -14q0 -10 21.5 -30.5t21.5 -47.5v-289l93 18v344
q0 8 -23.5 17t-49.5 9zM1325 1510l50 -83q71 0 130 -16.5t108 -51.5l30 78q-60 38 -138 55.5t-180 17.5zM1181 1679q-171 0 -186 -258q-32 -20 -64.5 -56t-63.5 -88q-78 -38 -141 -115t-100.5 -173t-37.5 -190q0 -93 29.5 -181t68 -168.5t68 -152t29.5 -129.5h80
q0 60 -29.5 136.5t-68 160.5t-68 169.5t-29.5 164.5q0 76 25.5 149.5t74 137.5t116.5 112l-11 23q-5 -43 -5 -60q0 -70 10 -121.5t26 -89.5l69 32q-32 96 -32 170q0 60 14.5 107.5t61.5 83.5l55 42q0 109 27 162.5t86 53.5q41 0 65.5 -34t24.5 -94q65 0 65 -128
q0 -71 -27 -122l70 -32q19 43 28 86t9 83q0 60 -19.5 100t-57.5 40q0 76 -44 127.5t-118 51.5zM567 337q-14 0 -24 -11.5t-10 -29.5q-6 0 -14 -7.5t-9 -20.5l57 -8q14 1 24 12t10 27t-10 27t-24 11zM2015 1924q-20 0 -36 -4.5t-16 -14.5q0 -11 23 -29t23 -47
q0 -241 -21 -292l61 -87q20 21 36.5 50t16.5 67q0 70 -1 117.5t-2 94.5t-1 119q0 8 -28.5 17t-54.5 9zM761 272q0 -29 -27.5 -51.5t-80.5 -22.5q-29 0 -64.5 9.5t-56.5 9.5q-37 0 -50 -21.5t-13 -31.5q0 -37 60 -73t138 -36q50 0 100.5 19.5t84 50.5t33.5 64zM549 104
q0 -18 -18 -44t-36.5 -50.5t-18.5 -36.5q0 -15 19 -15q27 0 58 22.5t54.5 54t28.5 60.5zM704 144q0 -64 -17.5 -106t-35 -70t-17.5 -50q0 -20 14 -20q29 0 62.5 30.5t58 79t26.5 102.5zM2159 1021q-16 0 -28 -8l-50 -144q36 -42 36 -70q0 -24 -19 -41.5t-42 -17.5
q-34 0 -52 28l-93 -64q34 -48 78.5 -72.5t95.5 -24.5q59 0 93.5 21.5t54.5 55.5q21 35 31.5 77t21.5 78q8 26 28 45t20 33q0 17 -19 28.5t-41 11.5q-15 0 -28 -7q0 28 -27.5 49.5t-59.5 21.5z" />
</svg>