<?xml version="1.0" standalone="no"?>
<!DOCTYPE svg PUBLIC "-//W3C//DTD SVG 1.1//EN" "http://www.w3.org/Graphics/SVG/1.1/DTD/svg11.dtd">
<svg xmlns="http://www.w3.org/2000/svg" xmlns:xlink="http://www.w3.org/1999/xlink" version="1.1"
   viewBox="94 -151 2414 2169">
   <path fill="currentColor"
      d="M1053 1621q-4 -88 -19 -180.5t-28.5 -196.5t-13.5 -228q0 -51 8.5 -91.5t33.5 -86t73 -111.5l193 -266l193 266q48 66 72.5 111.5t33.5 86t9 91.5q0 124 -13.5 228t-28.5 196.5t-19 180.5l-82 -13l25 -190q12 -92 20 -159.5t12 -125t4 -117.5q0 -42 -5 -71.5t-25 -65
t-64 -94.5l-132 -176l-132 176q-44 59 -64 94.5t-25 65t-5 71.5q0 60 4 117.5t12 125t20 159.5l25 190zM846 1706l-58 -11l28 -170l221 -81l23 60l-190 68zM730 1578l-55 -35l106 -159l235 -65l17 64l-212 58zM660 1393l-43 -45l139 -116l271 -3v66l-253 3zM1035 1978
q-64 0 -109 -49.5t-45 -116.5q0 -88 58.5 -141.5t154 -78.5t206.5 -25q112 0 207 25t153.5 78.5t58.5 141.5q0 67 -44.5 116.5t-109.5 49.5q-55 0 -108 -33q-31 16 -67.5 24.5t-89.5 8.5q-52 0 -88.5 -8.5t-68.5 -24.5q-53 33 -108 33zM1045 1901q24 0 48 -10t43 -32
q33 23 70 32t94 9t94 -9t70 -32q19 22 43 32t48 10q41 0 63 -23.5t22 -63.5q0 -48 -44 -86.5t-121 -61t-175 -22.5t-175 22.5t-121 61t-44 86.5q0 40 22 63.5t63 23.5zM1031 1175l-238 -5l-210 -124l37 -53l181 109l230 5v68zM1112 1451l-20 -74q103 -31 208 -31t208 31
l-20 74q-99 -27 -188 -27t-188 27zM759 955q-48 0 -82.5 -34.5t-34.5 -82.5t34.5 -82.5t82.5 -34.5t82.5 34.5t34.5 82.5t-34.5 82.5t-82.5 34.5zM1029 1091q-56 -15 -109.5 -46.5t-88 -69t-34.5 -67.5q0 -31 51 -31q38 0 89 19t92 50v145zM1754 1706l-24 -134l-190 -68
l23 -60l221 81l28 170zM1203 1000q-22 0 -37.5 -15.5t-15.5 -37.5q0 -23 15.5 -38t37.5 -15q23 0 38 15t15 38q0 22 -15 37.5t-38 15.5zM618 831q-70 0 -124 -55.5t-85 -153.5t-31 -225q0 -107 25.5 -197.5t65 -158.5t82.5 -105.5t79 -37.5q50 0 80.5 53t30.5 127
q20 -30 37.5 -43.5t36.5 -13.5q51 0 80.5 72t29.5 176q0 153 -42.5 280.5t-112.5 204.5t-152 77zM622 751q41 0 80.5 -40t71.5 -109.5t51 -157.5t19 -184q0 -69 -9.5 -114t-26.5 -45q-19 0 -51 60t-64 222l-56 -12q45 -198 45 -290q0 -103 -52 -103q-28 0 -58 36t-56 95.5
t-42.5 132t-16.5 146.5q0 97 20 180t57 133t88 50zM1870 1578l-91 -137l-212 -58l17 -64l235 65l106 159zM1397 1000q-22 0 -37.5 -15.5t-15.5 -37.5q0 -23 15.5 -38t37.5 -15q23 0 38 15t15 38q0 22 -15 37.5t-38 15.5zM1940 1393l-114 -95l-253 -3v-66l271 3l139 116z
M1571 1091v-145q41 -31 92 -50t89 -19q51 0 51 31q0 30 -34.5 67.5t-87.5 69t-110 46.5zM1569 1175v-68l230 -5l181 -109l37 53l-210 124zM1144 735v-672q0 -88 -56 -88q-30 0 -43.5 23t-13.5 64h-78q0 -164 135 -164q65 0 100.5 40t35.5 123v592zM1841 955
q-48 0 -82.5 -34.5t-34.5 -82.5t34.5 -82.5t82.5 -34.5t82.5 34.5t34.5 82.5t-34.5 82.5t-82.5 34.5zM1456 735l-80 -82v-592q0 -83 35.5 -123t100.5 -40q135 0 135 164h-78q0 -41 -13.5 -64t-43.5 -23q-56 0 -56 88v672zM1982 831q-82 0 -152 -77t-112.5 -204.5
t-42.5 -280.5q0 -104 29.5 -176t80.5 -72q20 0 37 13.5t37 43.5q0 -74 30.5 -127t80.5 -53q36 0 79 37.5t82.5 105.5t65 158.5t25.5 197.5q0 127 -31 225t-85 153.5t-124 55.5zM1978 751q51 0 88 -50t57 -133t20 -180q0 -74 -16.5 -146.5t-42.5 -132t-56 -95.5t-58 -36
q-52 0 -52 103q0 92 45 290l-56 12q-32 -162 -63.5 -222t-51.5 -60q-17 0 -26.5 45t-9.5 114q0 96 19 184t51 157.5t71.5 109.5t80.5 40z" />
</svg>