<?xml version="1.0" standalone="no"?>
<!DOCTYPE svg PUBLIC "-//W3C//DTD SVG 1.1//EN" "http://www.w3.org/Graphics/SVG/1.1/DTD/svg11.dtd">
<svg xmlns="http://www.w3.org/2000/svg" xmlns:xlink="http://www.w3.org/1999/xlink" version="1.1"
   viewBox="94 -151 2414 2169">
   <path fill="currentColor"
      d="M919 1542l-257 -258q31 -43 73 -94t107.5 -122.5t165 -174.5t244.5 -251q1 -34 24 -59q59 -67 109.5 -120.5t105.5 -105.5t127.5 -112t175.5 -140l215 -167q23 -18 42.5 -27t40.5 -9q28 0 59.5 17.5t73.5 59.5q41 41 59 72t18 60q0 16 -8 37t-27 44l-167 211
q-72 90 -130 161t-113.5 133t-118.5 124t-144 134q-26 23 -64 28q-147 145 -245.5 240t-164.5 154.5t-112.5 97t-88.5 67.5zM317 1885q-20 -20 -19.5 -46t16.5 -51q42 -68 65.5 -133.5t35 -117.5t15.5 -79q4 -23 22 -38t42 -15q22 0 77 -39t124 -99l49 48q-42 38 -88.5 74.5
t-88 60t-69.5 24.5q-5 23 -16.5 74.5t-41 128.5t-89.5 177q91 -57 168 -86.5t132.5 -42.5t79.5 -19q0 -27 23.5 -69t60 -89t73.5 -88l49 49q-60 67 -99 123t-39 77q0 25 -15 43t-39 22q-26 4 -80 15.5t-120 35.5t-130 65q-25 16 -51 16t-47 -21zM977 1007
q-128 -59 -128 -144h80q0 42 100 79zM1469 1704q-19 0 -30 -14.5t-5 -31.5l69 -194q-34 -30 -49.5 -59t-15.5 -60q0 -54 36.5 -87.5t94.5 -33.5t94.5 33.5t36.5 87.5q0 31 -15.5 60t-49.5 59l69 194q6 17 -4.5 31.5t-30.5 14.5h-200zM849 1102v-239q0 -45 54 -85t148 -72
t215 -51l-87 96q-108 23 -179 53t-71 59v158zM1569 1978q-228 0 -389 -31.5t-246 -91.5t-85 -145v-149l80 -70v219q0 42 46.5 77t132 60t202.5 39t259 14t259 -14t202.5 -39t132 -60t46.5 -77v-847q0 -27 -63 -55.5t-161 -50.5l1 -80q136 32 219.5 81t83.5 105v847
q0 85 -85 145t-245.5 91.5t-389.5 31.5zM1530 958q-16 -27 -42.5 -59.5t-82.5 -88.5q-65 -65 -96 -89.5t-59 -40.5l92 -91q27 17 62.5 47t90.5 85q62 62 93.5 99.5t47.5 67.5zM925 1449q38 -31 71.5 -59t73.5 -63.5t96 -88.5t137.5 -132t199.5 -196l57 -19
q100 -86 175.5 -162t147 -161t157.5 -196l174 -225q13 -16 13 -31q0 -20 -14.5 -44.5t-35.5 -45.5q-19 -20 -44 -34.5t-45 -14.5q-15 0 -33 14l-224 173q-93 71 -159.5 126t-120 104.5t-106.5 106t-118 130.5l-20 56q-139 141 -229 234t-147.5 155.5t-97 109t-78.5 93.5z
M1569 1093q-49 0 -95 -1.5t-89 -4.5l75 -75q26 1 53.5 1.5t55.5 0.5q173 0 318.5 -21t233.5 -55.5t88 -74.5h80q0 71 -87 122.5t-248 79.5t-385 28zM1950 884q-32 0 -56.5 -6t-33.5 -16v-337q0 -155 -77 -241t-214 -86t-214 86t-77 241v168l-180 149v-317q0 -149 59 -261
t165 -174t247 -62q142 0 247.5 62t164.5 174t59 261v337q-9 10 -33.5 16t-56.5 6zM356 1891l-43 -42l234 -235q-4 -27 12.5 -47t41.5 -20q22 0 38.5 16t16.5 39q0 26 -19 42t-48 13z" />
</svg>