<?xml version="1.0" standalone="no"?>
<!DOCTYPE svg PUBLIC "-//W3C//DTD SVG 1.1//EN" "http://www.w3.org/Graphics/SVG/1.1/DTD/svg11.dtd">
<svg xmlns="http://www.w3.org/2000/svg" xmlns:xlink="http://www.w3.org/1999/xlink" version="1.1"
   viewBox="94 -151 2414 2169">
   <path fill="currentColor"
      d="M990 1978q-228 0 -389 -31.5t-246 -91.5t-85 -145v-847q0 -46 58 -87.5t158.5 -74t230 -51t273.5 -18.5q113 0 217.5 11.5t192.5 32.5l45 91q-94 -25 -215.5 -41t-239.5 -16q-110 0 -222.5 14t-207 36.5t-152.5 49.5t-58 53v847q0 42 46.5 77t132 60t202.5 39t259 14
t259 -14t202.5 -39t132 -60t46.5 -77v-59l80 41v18q0 85 -85 145t-245.5 91.5t-389.5 31.5zM890 1704q-19 0 -30 -14.5t-5 -31.5l69 -194q-34 -30 -49.5 -59t-15.5 -60q0 -54 36.5 -87.5t94.5 -33.5t94.5 33.5t36.5 87.5q0 31 -15.5 60t-49.5 59l69 194q6 17 -4.5 31.5
t-30.5 14.5h-200zM1859 1906l-295 -273v-665q-119 -67 -189.5 -187t-70.5 -259q0 -142 69.5 -258t186 -185.5t257.5 -69.5q142 0 258 69.5t185.5 185.5t69.5 258q0 143 -73.5 264.5t-199.5 189.5v165l-61 61l96 87l-93 124l58 58v164zM990 1093q-223 0 -384.5 -28
t-248.5 -79.5t-87 -122.5h80q0 40 88 74.5t233.5 55.5t318.5 21q186 0 340.5 -24.5t233.5 -61.5l44 66q-88 47 -246 73t-372 26zM609 884q-32 0 -56.5 -6t-33.5 -16v-467q0 -149 59 -261t165 -174t247 -62q173 0 293 93t160 251l-99 189l5 178l112 202v51q-9 10 -33.5 16
t-56.5 6t-56.5 -6t-33.5 -16v-467q0 -155 -77 -241t-214 -86t-214 86t-77 241v467q-9 10 -33.5 16t-56.5 6zM1813 1801l-60 -33v-851h60v884zM1847 1785l130 -179v-102l-84 -83l91 -122l-105 -95l98 -96v-184q122 -49 197.5 -158t75.5 -244q0 -120 -58.5 -218t-156.5 -156.5
t-218 -58.5q-119 0 -217.5 58.5t-157 156.5t-58.5 218q0 131 72.5 239t187.5 158v679zM1817 585q-64 0 -109.5 -46t-45.5 -110q0 -65 45.5 -110.5t109.5 -45.5q65 0 110.5 45.5t45.5 110.5q0 64 -45.5 110t-110.5 46zM1817 515q36 0 61 -24.5t25 -61.5t-25 -61.5t-61 -24.5
q-35 0 -60 24.5t-25 61.5t25 61.5t60 24.5z" />
</svg>