<?xml version="1.0" standalone="no"?>
<!DOCTYPE svg PUBLIC "-//W3C//DTD SVG 1.1//EN" "http://www.w3.org/Graphics/SVG/1.1/DTD/svg11.dtd">
<svg xmlns="http://www.w3.org/2000/svg" xmlns:xlink="http://www.w3.org/1999/xlink" version="1.1"
   viewBox="94 -151 2414 2169">
   <path fill="currentColor"
      d="M1780 1750l-144 -230h-96l-167 210h-740v-363q-50 -55 -50 -235q0 -95 19 -157t49 -62h794l193 -59l9 85l-183 52h-530q6 38 9 78.5t3 81.5q0 49 -3.5 97t-11.5 97h1406v287l-105 -70h-187l-141 188h-124zM188 1978q0 -30 18.5 -48t41.5 -18l204 -300q26 -39 70.5 -82.5
t86.5 -74.5t60 -31l20 119l-130 369q23 0 40.5 17.5t17.5 48.5h-429zM326 1912h163l136 -384q-24 16 -65.5 60.5t-68.5 84.5zM827 1978q-55 0 -94.5 -38.5t-39.5 -92.5q0 -55 39.5 -94t94.5 -39q53 0 92 39t39 94q0 54 -39 92.5t-92 38.5zM827 1898q20 0 35.5 -15.5
t15.5 -35.5q0 -22 -15.5 -37.5t-35.5 -15.5q-22 0 -38 15.5t-16 37.5q0 21 16 36t38 15zM912 1887v-185h150v185h-150zM1150 1978q-55 0 -94.5 -38.5t-39.5 -92.5q0 -55 39.5 -94t94.5 -39q53 0 92 39t39 94q0 54 -39 92.5t-92 38.5zM1150 1898q20 0 35.5 -15.5t15.5 -35.5
q0 -22 -15.5 -37.5t-35.5 -15.5q-22 0 -38 15.5t-16 37.5q0 21 16 36t38 15zM557 1214q-16 0 -27.5 -22.5t-11.5 -54.5t11.5 -54t27.5 -22q8 0 13 21.5t5 54.5q0 34 -5 55.5t-13 21.5zM553 1181v-82h43v82h-43zM817 1658h252q19 -39 22 -87h107l166 92l37 -60l-187 -104
h-126q-2 -20 -7 -38.5t-12 -35.5h-252q-22 51 -22 116q0 63 22 117zM832 1199q25 0 25 -26q0 -36 -1.5 -64.5t-4.5 -53.5q-3 -27 -29 -22q-23 5 -20 28q4 25 4.5 51.5t0.5 61.5q0 25 25 25zM1584 1978q-66 0 -121.5 -32.5t-88.5 -87.5t-33 -122t33 -121.5t88.5 -87
t121.5 -32.5t121 32.5t88 87t33 121.5t-33 122t-88 87.5t-121 32.5zM1584 1894q65 0 111.5 -46.5t46.5 -111.5t-46.5 -111t-111.5 -46t-112 46t-47 111t47 111.5t112 46.5zM1702 1873l-296 -251l37 -45l296 253zM1460 1879l-37 -43l296 -253l37 45zM1127 1358
q11 -55 15.5 -107t4.5 -104t-4.5 -104.5t-15.5 -107.5h81q19 105 19 212q0 106 -19 211h-81zM1790 1682h123v-68h-123v68zM686 925v-356l-118 -168q-16 -23 -23.5 -57t-7.5 -75v-87h472v87q0 41 -6.5 75t-23.5 57l-118 168v356h-175zM756 476q21 -16 6 -36
q-40 -55 -59.5 -91t-25.5 -66q-5 -22 -24 -22q-13 0 -20 6.5t-6 17.5q4 34 26 77.5t68 106.5q17 22 35 7zM1408 1371q10 -59 15 -114t5 -110t-5 -110.5t-15 -113.5l226 -16v464h-226zM2122 1978q-66 0 -121.5 -32.5t-88.5 -87.5t-33 -122t33 -121.5t88.5 -87t121.5 -32.5
t121 32.5t88 87t33 121.5t-33 122t-88 87.5t-121 32.5zM2122 1894q65 0 111.5 -46.5t46.5 -111.5t-46.5 -111t-111.5 -46t-112 46t-47 111t47 111.5t112 46.5zM2243 1873l-296 -251l37 -45l296 253zM2001 1879l-37 -43l296 -253l37 45zM1664 1244v-69h748v69h-748z
M2303 1739l-19 -117v-1062h-609v787h-80v-867h769v1259h-61zM1131 390q-23 0 -52 -8t-86 -38l13 -79q31 25 61 35t64 10q45 0 85 -20.5t77 -54.5q34 27 71.5 45t77.5 18q68 0 114.5 -45.5t46.5 -109.5q0 -65 -46.5 -110t-114.5 -45q-43 0 -80.5 18.5t-69.5 46.5
q-36 -34 -75 -54.5t-86 -20.5q-45 0 -83 19t-63 46q-36 -23 -72.5 -36.5t-76.5 -13.5q-55 0 -100 26.5t-72 71.5t-27 100h-80q0 -78 38 -141t101.5 -100t139.5 -37q37 0 73 10t68 28q65 -53 154 -53q93 0 163 61q65 -51 148 -51q68 0 122.5 31t86.5 84.5t32 119.5
q0 65 -32 118.5t-86.5 85t-122.5 31.5q-80 0 -146 -50q-73 62 -165 62zM1803 1097v-326q0 -50 49.5 -84.5t123.5 -34.5q73 0 122.5 34t49.5 85v326h-345zM1871 1029h209v-258q0 -19 -29.5 -35t-74.5 -16t-75 16.5t-30 34.5v258zM1665 551l-123 -64v-56h866v56l-123 64h-620z
" />
</svg>