<?xml version="1.0" standalone="no"?>
<!DOCTYPE svg PUBLIC "-//W3C//DTD SVG 1.1//EN" "http://www.w3.org/Graphics/SVG/1.1/DTD/svg11.dtd">
<svg xmlns="http://www.w3.org/2000/svg" xmlns:xlink="http://www.w3.org/1999/xlink" version="1.1"
   viewBox="94 -151 2414 2169">
   <path fill="currentColor"
      d="M1325 1409q-163 0 -333 -143q-203 -172 -203 -368q0 -50 13 -104t38 -114l265 -633l73 32l-265 633q-21 51 -32.5 97.5t-11.5 88.5q0 160 174 307q146 124 282 124q103 0 227 -80l560 -362l61 55l-576 374q-142 93 -272 93zM847 1978q-72 0 -157.5 -39t-168.5 -109
q-96 -80 -148.5 -170t-52.5 -169q0 -92 52.5 -139t139.5 -93q71 -37 154.5 -91t171.5 -159l51 63q-94 109 -183 166.5t-158 92.5q-71 37 -109.5 68t-38.5 93q0 60 45 133.5t126 142.5q72 61 145 95.5t131 34.5q78 0 106.5 -48.5t53.5 -133.5q23 -75 63.5 -172t129.5 -206
l71 39q-85 103 -124 195t-62 169q-32 109 -81.5 173t-156.5 64zM1642 550l-589 707l-58 -51l587 -704zM1447 342l-173 101l-347 681l-65 -44l352 -691l186 -109zM1878 683l-75 204l-599 478l-54 -58l589 -468l66 -183zM1335 180l-215 -5v-80l204 4zM2081 740l32 193l-80 12
l-34 -202zM2034 974q-123 0 -276.5 -69.5t-299.5 -191.5q-111 -93 -193.5 -196.5t-127.5 -204.5t-45 -186t50 -147q32 -39 82.5 -60t114.5 -21q126 0 281 71.5t299 193.5q111 93 192 196t125 203t44 185q0 106 -65.5 166.5t-180.5 60.5zM2035 894q81 0 123.5 -38t42.5 -109
q0 -32 -7.5 -68t-24.5 -76l51 -31q15 31 15 70q0 64 -43.5 101.5t-115.5 37.5q-94 0 -223.5 -63t-257.5 -170q-145 -123 -232 -251.5t-87 -221.5q0 -68 42.5 -105.5t118.5 -37.5v60q-25 -6 -50.5 -10t-47.5 -4q-92 0 -136 52q-31 37 -31 96q0 72 42 162.5t118 184.5t177 179
q134 112 275.5 177t250.5 65zM2076 707q85 0 85 -71q0 -50 -37.5 -118.5t-103.5 -145t-154 -149.5q-78 -66 -156 -116t-147 -78t-122 -28q-40 0 -65 17.5t-25 56.5q0 49 36.5 118t102.5 146t153 151q79 66 159 115t151.5 75.5t122.5 26.5z" />
</svg>