<?xml version="1.0" standalone="no"?>
<!DOCTYPE svg PUBLIC "-//W3C//DTD SVG 1.1//EN" "http://www.w3.org/Graphics/SVG/1.1/DTD/svg11.dtd">
<svg xmlns="http://www.w3.org/2000/svg" xmlns:xlink="http://www.w3.org/1999/xlink" version="1.1"
   viewBox="94 -151 2414 2169">
   <path fill="currentColor"
      d="M1300 1978q-234 0 -369.5 -37.5t-193 -128t-57.5 -247.5q0 -179 28.5 -352t73 -332.5t93.5 -299.5q19 -54 72 -90.5t156 -64.5l20 81q-83 22 -122.5 45t-50.5 56q-92 263 -141 503.5t-49 453.5q0 131 46.5 203.5t164 101t329.5 28.5q213 0 330 -28.5t163.5 -101
t46.5 -203.5q0 -210 -48.5 -449.5t-141.5 -507.5q-11 -32 -50.5 -55.5t-122.5 -45.5l20 -81q104 29 156.5 65.5t71.5 89.5q49 140 93.5 299.5t73 332.5t28.5 352q0 157 -57.5 247.5t-192.5 128t-370 37.5zM1300 1552q-117 0 -191.5 -74.5t-74.5 -191.5q0 -54 21 -113.5
t52 -116t62 -102.5t51 -73q39 -50 80 -50q44 0 80 51q20 27 50.5 72.5t62 102t52.5 116t21 113.5q0 117 -74.5 191.5t-191.5 74.5zM1300 1472q84 0 135 -51.5t51 -134.5q0 -59 -28.5 -124t-66 -124t-65.5 -98q-16 -23 -26 -23t-26 23q-27 39 -65 98t-66.5 124t-28.5 124
q0 84 51.5 135t134.5 51zM1300 639q-108 0 -173 -27.5t-65 -75.5v-159q0 -48 64.5 -75t173.5 -27q110 0 174.5 27t64.5 75v159q0 48 -65 75.5t-174 27.5zM1300 558q60 0 99.5 -7.5t58.5 -22.5v-142q-18 -15 -57 -22.5t-101 -7.5q-61 0 -100.5 7.5t-56.5 22.5v142
q18 15 58 22.5t99 7.5zM1302 404q-27 0 -47 -5v-263h95v263q-18 5 -48 5zM1277 183q-101 0 -222 -89l82 -191q25 6 60.5 11t68.5 8t50 3t41 -3t55 -8q45 -8 81.5 -12t70.5 -4q58 0 122 21.5t110 57.5l-89 199q-50 -27 -75.5 -36.5t-51.5 -9.5q-17 0 -38 4t-56 15
q-39 12 -89 23t-120 11zM1277 103q62 0 105 -9t80 -21q41 -13 68 -18t50 -5q44 0 88 18l26 -59q-64 -31 -130 -31q-31 0 -63.5 3t-74.5 11q-34 7 -61.5 10t-48.5 3q-23 0 -60 -3.5t-71 -7.5l-30 70q71 39 122 39z" />
</svg>