<?xml version="1.0" standalone="no"?>
<!DOCTYPE svg PUBLIC "-//W3C//DTD SVG 1.1//EN" "http://www.w3.org/Graphics/SVG/1.1/DTD/svg11.dtd">
<svg xmlns="http://www.w3.org/2000/svg" xmlns:xlink="http://www.w3.org/1999/xlink" version="1.1"
   viewBox="94 -151 2414 2169">
   <path fill="currentColor"
      d="M1300 1878q-38 -70 -73.5 -117t-73.5 -86q-53 -55 -95.5 -110.5t-54.5 -122.5q-34 49 -80.5 72.5t-107.5 23.5q-66 0 -122.5 -19.5t-107.5 -45t-98 -45t-94 -19.5q-24 0 -57 2.5t-73 10.5q14 -95 77 -168.5t147 -121t160 -63.5l60 72q-52 0 -118.5 28t-123 72.5
t-80.5 94.5q12 -2 21.5 -2.5t21.5 -0.5q55 0 117 31.5t130 63.5t140 32q73 0 123.5 -56.5t85.5 -177.5l66 11q-10 36 -15.5 66.5t-5.5 57.5q0 85 42.5 146.5t100.5 118.5q25 25 48 51t40 53q17 -27 40 -53t48 -51q58 -58 100.5 -119t42.5 -146q0 -27 -5 -57.5t-16 -66.5
l66 -11q35 121 85.5 177.5t123.5 56.5q72 0 140 -32t130 -63.5t117 -31.5q12 0 21.5 0.5t21.5 2.5q-24 -50 -80.5 -94.5t-122.5 -72.5t-119 -28l60 -72q76 16 160 63.5t147.5 121t76.5 168.5q-40 -8 -73 -10.5t-57 -2.5q-46 0 -93.5 19.5t-98.5 45t-107.5 45t-122.5 19.5
q-61 0 -107.5 -23.5t-80.5 -72.5q-12 67 -54.5 122.5t-95.5 110.5q-37 39 -73 86t-74 117zM907 1225q-145 0 -251.5 -75.5t-187.5 -245.5l-19 -40q-34 -72 -58.5 -118.5t-46.5 -75.5t-48.5 -48.5t-65.5 -37.5q48 -45 104 -64.5t121 -19.5q48 0 95 11.5t85 33.5
q2 -30 5.5 -73t7 -90t3.5 -90q0 -35 -6 -73t-26 -93q167 5 279.5 50t182.5 139l-43 77q-48 -77 -127 -124t-188 -60q6 39 6 86q0 97 -10.5 191.5t-10.5 187.5q-69 -46 -124 -70.5t-129 -24.5q-20 0 -39.5 2.5t-44.5 8.5q22 21 42 47.5t45.5 71.5t61.5 122l19 40
q71 150 159 213.5t206 63.5l85 70q-22 4 -42 6t-40 2zM1153 1194q20 0 39 -1.5t38 -3.5q-23 -50 -59.5 -93.5t-86.5 -87t-116 -94.5l-87 -68q-57 66 -57 137q0 59 43.5 107t118.5 76t167 28zM1060 940l-55 -24q1 -8 1.5 -16t0.5 -15q0 -71 -32.5 -138t-72.5 -125.5
t-65 -104.5q-6 21 -6 66.5t8.5 109.5t25.5 142l-53 13q-18 -72 -27.5 -138t-9.5 -118q0 -68 18 -106.5t49 -38.5q32 0 72 27.5t57 49.5l-47 27q29 39 61.5 90.5t55.5 113.5t23 134q0 12 -1 25t-3 26zM1153 1272q-113 0 -205 -38.5t-145.5 -104t-53.5 -146.5q0 -61 32.5 -123
t90.5 -114q35 36 94 78.5t124 95t122 119.5t88 153q32 -86 89 -153.5t122.5 -120.5t124 -95t92.5 -77q59 52 91 114t32 123q0 81 -53.5 146.5t-145 104t-205.5 38.5q-67 0 -147 -17q-80 17 -147 17zM1069 652q35 0 35 -26q0 -25 -35 -25q-34 0 -34 25q0 26 34 26zM1447 1194
q93 0 167.5 -28t118 -76t43.5 -107q0 -71 -57 -137l-87 68q-65 51 -115.5 94.5t-87 87t-59.5 93.5q20 2 39 3.5t38 1.5zM1074 931l-53 -14q16 -62 57 -116.5t96.5 -116.5t116.5 -146h18q61 85 117 147t96.5 116t56.5 116l-53 14q-10 -36 -35 -72t-61 -78
q-27 -32 -61.5 -76.5t-68.5 -96.5q-34 52 -68.5 96.5t-61.5 76.5q-35 42 -60 78t-36 72zM1151 580q29 0 29 -23q0 -21 -29 -21q-30 0 -30 21q0 23 30 23zM1047 884l-154 -328q56 -55 160.5 -79.5t246.5 -24.5t246.5 24.5t160.5 79.5l-154 328l-253 -334zM1449 580
q30 0 30 -23q0 -21 -30 -21q-29 0 -29 21q0 23 29 23zM1531 652q34 0 34 -26q0 -25 -34 -25q-35 0 -35 25q0 26 35 26zM953 531q17 -75 38.5 -134.5t51.5 -113t73 -107.5q48 47 93.5 91.5t90.5 86.5q45 -42 90.5 -86.5t93.5 -91.5q43 54 73 107.5t51.5 113t38.5 134.5l-75 6
q-21 -84 -42 -137t-59 -111q-36 37 -74 75.5t-97 97.5q-59 -59 -97 -97.5t-74 -75.5q-37 58 -58.5 111t-42.5 137zM1540 940q-1 -13 -2.5 -26t-1.5 -25q0 -72 23 -134t56 -113.5t61 -90.5l-47 -27q17 -22 57 -49.5t72 -27.5t49.5 38.5t17.5 106.5q0 52 -9.5 118t-27.5 138
l-53 -13q18 -78 26 -142t8.5 -109.5t-6.5 -66.5q-24 46 -64.5 104.5t-73 125.5t-32.5 138q0 7 0.5 15t1.5 16zM1190 304l-61 -43q34 -65 75 -114.5t96 -98.5q55 49 96 98.5t75 114.5l-61 43q-24 -47 -51 -82.5t-59 -69.5q-32 34 -59 69.5t-51 82.5zM1693 1225q-19 0 -39 -2
t-43 -6l85 -70q119 0 206.5 -63.5t158.5 -213.5l19 -40q37 -77 62 -122t45.5 -71.5t41.5 -47.5q-25 -6 -44.5 -8.5t-39.5 -2.5q-74 0 -129 24.5t-124 70.5q0 -93 -10.5 -187.5t-10.5 -191.5q0 -47 6 -86q-109 13 -188 60t-127 124l-43 -77q71 -94 183.5 -139t278.5 -50
q-20 55 -26 93t-6 73q0 43 3.5 90t7.5 90t5 73q38 -22 85 -33.5t95 -11.5q65 0 121 19.5t104 64.5q-39 18 -65.5 37t-48.5 48t-46 75.5t-59 119.5l-19 40q-81 170 -187 245.5t-252 75.5z" />
</svg>