<?xml version="1.0" standalone="no"?>
<!DOCTYPE svg PUBLIC "-//W3C//DTD SVG 1.1//EN" "http://www.w3.org/Graphics/SVG/1.1/DTD/svg11.dtd">
<svg xmlns="http://www.w3.org/2000/svg"
   xmlns:xlink="http://www.w3.org/1999/xlink" version="1.1"
   viewBox="94 -151 2414 2169">
   <path fill="currentColor"
      d="M327 1728q-65 0 -106 -41t-41 -106v-1288q0 -60 43 -102.5t104 -42.5h1946q61 0 104 42.5t43 102.5v1288q0 65 -41 106t-106 41h-1946zM279 1701l-61 -51l653 -785l34 84zM832 807l-621 -550l51 -60l599 533zM1300 1416q-175 -139 -286 -253t-163.5 -212.5t-52.5 -192.5
q0 -121 76 -198.5t194 -77.5q76 0 135 33t97 96q39 -63 98 -96t134 -33q118 0 194 77.5t76 198.5q0 94 -52.5 192.5t-163.5 212.5t-286 253zM328 1648h1945q67 0 67 -67v-1288q0 -27 -19.5 -46t-47.5 -19h-1945q-28 0 -48 19t-20 46v1288q0 67 68 67zM1300 1317
q153 -125 245.5 -222.5t134.5 -178.5t42 -158q0 -86 -53.5 -141t-136.5 -55q-73 0 -133.5 45.5t-98.5 135.5q-37 -89 -98 -135t-133 -46q-84 0 -137.5 55t-53.5 141q0 77 42 158t135 178.5t245 222.5zM2321 1701l-626 -752l34 -84l653 785zM1768 807l-29 -77l599 -533l51 60
z" />
</svg>