<?xml version="1.0" standalone="no"?>
<!DOCTYPE svg PUBLIC "-//W3C//DTD SVG 1.1//EN" "http://www.w3.org/Graphics/SVG/1.1/DTD/svg11.dtd">
<svg xmlns="http://www.w3.org/2000/svg" xmlns:xlink="http://www.w3.org/1999/xlink" version="1.1"
   viewBox="94 -151 2414 2169">
   <path fill="currentColor"
      d="M870 1668q-53 0 -74 -49q-19 19 -41 29t-45 10q-36 0 -60.5 -23t-31.5 -61l-36 27q-31 24 -56.5 34t-47.5 10q-39 0 -62.5 -24t-23.5 -61q0 -32 23 -66t87 -95l41 -39q-48 -9 -72.5 -33t-24.5 -60q0 -42 35.5 -69.5t108.5 -40.5q-25 -13 -35 -30.5t-12 -45.5v-9.5t1 -8.5
q-73 -4 -107 -28t-34 -68t40.5 -72t119.5 -40q-32 -14 -50 -35.5t-18 -53.5t20 -53t48 -33q-47 -30 -47 -84q0 -38 29 -64.5t70 -26.5q10 0 20.5 2t24.5 6q15 -50 41.5 -79t66.5 -29q38 0 63 27t25 70q0 25 -4 57.5t-8 54.5l120 192q12 -2 25 -10.5t27 -24.5l160 -175v-662
q34 -19 64 -27.5t60 -8.5t60 8.5t64 27.5v662l160 175q14 16 27 24.5t25 10.5l120 -192q-4 -22 -8 -54.5t-4 -57.5q0 -43 25 -70t63 -27q40 0 66.5 29t41.5 79q14 -4 24.5 -6t20.5 -2q41 0 70 26.5t29 64.5q0 54 -47 84q29 12 48.5 33t19.5 53t-18 53.5t-50 35.5
q80 12 120 40t40 72t-33.5 68t-107.5 28q1 4 1 8.5v9.5q-1 28 -11.5 45.5t-35.5 30.5q74 13 109 40.5t35 69.5q0 36 -24.5 60t-72.5 33l41 39q65 61 87.5 95t22.5 66q0 37 -23.5 61t-62.5 24q-22 0 -47 -10t-57 -34l-36 -27q-7 38 -31.5 61t-60.5 23q-23 0 -44.5 -10
t-41.5 -29q-21 49 -74 49q-50 0 -74 -47t-24 -154q0 -50 0.5 -83.5t3.5 -84.5l-142 -201l-194 -175l-194 175l-142 201q3 51 3.5 84.5t0.5 83.5q0 107 -24 154t-74 47zM640 1978q-262 0 -406 -159t-144 -448q0 -177 42 -351t116 -328.5t170.5 -273.5t205.5 -187t221 -68
q74 0 128 42.5t95 133.5t74 237q5 19 10 42t9 48l-70 65q-7 -39 -13.5 -74t-13.5 -63q-30 -128 -61 -205t-69 -111.5t-89 -34.5q-97 0 -193.5 64t-183 176t-154 256.5t-106 306.5t-38.5 325q0 257 120.5 392t349.5 135q183 0 294.5 -54.5t161.5 -175t50 -319.5
q0 -75 -4.5 -158t-12.5 -166l75 -57q10 96 16 194.5t6 186.5q0 220 -60.5 359t-190 204.5t-335.5 65.5zM710 1137l60 -17l61 -68l-27 -2zM870 1608q20 0 29 -30.5t9 -110.5q0 -45 -3 -92t-3 -61q0 -15 3.5 -27.5t7.5 -19.5l148 -209l239 -216l239 216l148 209q5 7 8 19.5
t3 27.5q0 14 -3 61t-3 92q0 80 9 110.5t29 30.5t32.5 -34t17.5 -88q41 66 64.5 89t45.5 23q14 0 23 -9t9 -25q0 -13 -8 -29l-73 -140l212 157q43 33 69 33t26 -25q0 -16 -22 -44t-70 -74l-148 -141h118q68 0 68 -34q0 -29 -74 -43l-71 -13q-59 -11 -91 -18t-47.5 -14.5
t-25.5 -18.5l-145 -161l192 -11l84 92q27 28 54 28q29 0 29 -29q0 -14 -9 -27l-8 -12q-5 -8 -12.5 -19.5t-7.5 -16.5q0 -8 8 -8q11 0 34 3.5t43 3.5q46 0 68 -9t22 -27q0 -19 -34.5 -33.5t-93.5 -21.5l-45 -5q-69 -8 -105 -12.5t-49.5 -9.5t-13.5 -11q0 -8 7.5 -23t22.5 -40
q11 1 24 1.5t26 0.5q79 0 124 -15t45 -32t-23.5 -28t-64.5 -11q-69 0 -69 -18q0 -9 10.5 -17t36.5 -22l63 -35q26 -15 26 -39q0 -16 -16 -25.5t-34 -4.5l-75 19l-15 -51q-8 -28 -21 -48.5t-31 -20.5q-13 0 -20.5 10t-7.5 27q0 19 3.5 47.5t7.5 54.5q2 13 -1.5 24.5
t-8.5 20.5l-124 198q-13 21 -42 21q-22 0 -48.5 -15t-51.5 -42l-175 -192v-637q-10 -5 -28.5 -9.5t-35.5 -4.5q-16 0 -35 4.5t-29 9.5v637l-175 192q-25 27 -51 42t-49 15q-29 0 -42 -21l-124 -198q-5 -9 -8.5 -20.5t-1.5 -24.5q5 -26 8 -54.5t3 -47.5q0 -17 -7.5 -27
t-20.5 -10q-18 0 -31 20.5t-21 48.5l-15 51l-75 -19q-18 -5 -34 4.5t-16 25.5q0 24 26 39l63 35q26 14 36.5 22t10.5 17q0 18 -69 18q-41 0 -64.5 11t-23.5 28t45 32t124 15q14 0 26.5 -0.5t23.5 -1.5q15 25 22.5 40t7.5 23q0 6 -13 11t-49.5 9.5t-105.5 12.5l-45 5
q-58 7 -93 21.5t-35 33.5q0 18 22 27t68 9q20 0 43.5 -3.5t33.5 -3.5q8 0 8 8q0 5 -7.5 16.5t-12.5 19.5l-8 12q-9 13 -9 27q0 29 29 29q27 0 54 -28l84 -92l192 11l-145 161q-10 11 -25.5 18.5t-47 14.5t-91.5 18l-71 13q-74 14 -74 43q0 34 68 34h118l-148 141
q-48 46 -70 74t-22 44q0 25 26 25t69 -33l212 -157l-73 140q-8 16 -8 29q0 16 9 25t23 9q22 0 45.5 -23t64.5 -89q5 54 17.5 88t32.5 34zM1890 1137l-94 -87l-27 2l61 68zM1188 472q-13 0 -22 -8.5t-9 -21.5t9 -21.5t22 -8.5h224q13 0 22 8.5t9 21.5t-9 21.5t-22 8.5h-224z
M1962 1978q-144 0 -234.5 -18.5t-136.5 -61t-57 -113.5l-31 -201q-10 -70 -43 -122.5t-84 -80.5q0 -112 5 -214.5t15 -198.5l75 57q-7 83 -11 164t-4 149q50 40 82.5 100.5t43.5 133.5l31 201q7 45 41.5 72.5t108.5 40t199 12.5q228 0 348 -135t120 -392q0 -162 -38.5 -324
t-106 -306.5t-154 -256.5t-183 -176.5t-193.5 -64.5q-50 0 -88.5 34.5t-69.5 111.5t-61 205q-7 28 -13.5 63t-13.5 74l-70 -65q5 -25 10 -48t9 -42q34 -146 74.5 -237t94.5 -133.5t128 -42.5q112 0 221 68t205.5 187.5t170.5 274t116 328.5t42 350q0 290 -142.5 448.5
t-405.5 158.5zM1188 352q-13 0 -22 -8.5t-9 -21.5t9 -21.5t22 -8.5h224q13 0 22 8.5t9 21.5t-9 21.5t-22 8.5h-224zM1188 232q-13 0 -22 -8.5t-9 -21.5t9 -21.5t22 -8.5h224q13 0 22 8.5t9 21.5t-9 21.5t-22 8.5h-224zM1188 112q-13 0 -22 -8.5t-9 -21.5t9 -21.5t22 -8.5
h224q13 0 22 8.5t9 21.5t-9 21.5t-22 8.5h-224z" />
</svg>