<?xml version="1.0" standalone="no"?>
<!DOCTYPE svg PUBLIC "-//W3C//DTD SVG 1.1//EN" "http://www.w3.org/Graphics/SVG/1.1/DTD/svg11.dtd">
<svg xmlns="http://www.w3.org/2000/svg" xmlns:xlink="http://www.w3.org/1999/xlink" version="1.1"
   viewBox="94 -151 2414 2169">
   <path fill="currentColor"
      d="M453 1978q-65 -26 -117.5 -78t-75.5 -113l1495 -1494q69 22 121 72.5t72 118.5zM686 1673q-25 -48 -49.5 -72.5t-73.5 -46.5l25 -76q63 25 102.5 63t69.5 102zM438 1880l1415 -1415q-28 -48 -79 -77l-1415 1415q32 50 79 77zM1557 803q-25 -48 -49.5 -72.5t-73.5 -46.5
l25 -76q63 25 102.5 63t69.5 102zM1903 1194q-5 9 -14.5 8t-12.5 -12l-29 -109l-109 -31q-10 -3 -10 -12.5t7 -13.5l93 -57l-7 -115q-1 -9 6.5 -13.5t16.5 2.5l91 69l103 -39q10 -4 16 2.5t2 15.5l-39 103l68 90q8 10 3.5 16.5t-13.5 6.5l-114 -4zM1395 260q-5 9 -14.5 8
t-12.5 -11l-29 -109l-109 -32q-10 -3 -10 -12t7 -13l92 -58l-6 -114q-1 -9 6.5 -13.5t16.5 2.5l91 69l103 -39q10 -4 16 2.5t2 15.5l-39 103l68 90q8 10 3.5 17t-14.5 6l-113 -5zM2114 331q-7 10 -17.5 10t-14.5 -13l-37 -132l-131 -39q-12 -4 -12 -15t8 -16l112 -71
l-7 -138q-1 -12 8 -17.5t19 2.5l110 87l126 -48q13 -5 19.5 2.5t1.5 18.5l-48 126l83 109q10 13 5.5 21t-18.5 7l-136 -7z" />
</svg>