<?xml version="1.0" standalone="no"?>
<!DOCTYPE svg PUBLIC "-//W3C//DTD SVG 1.1//EN" "http://www.w3.org/Graphics/SVG/1.1/DTD/svg11.dtd">
<svg xmlns="http://www.w3.org/2000/svg" xmlns:xlink="http://www.w3.org/1999/xlink" version="1.1"
   viewBox="94 -151 2414 2169">
   <path fill="currentColor"
      d="M1396 1878q-241 0 -441.5 -69t-347 -194.5t-227 -297.5t-80.5 -379t80.5 -379t227 -297.5t347 -194.5t441.5 -69h904v595h-903q-229 0 -353 89.5t-124 255.5t124 255.5t353 89.5h903v595h-904zM1730 1848v-535h80v535h-80zM1396 1798h824v-435h-823q-263 0 -410 -112
t-147 -313t147 -313t410 -112h823v-435h-824q-224 0 -410.5 62.5t-322 177.5t-209.5 272.5t-74 347.5t74 347.5t209.5 272.5t322 177.5t410.5 62.5zM1730 563v-535h80v535h-80z" />
</svg>