<?xml version="1.0" standalone="no"?>
<!DOCTYPE svg PUBLIC "-//W3C//DTD SVG 1.1//EN" "http://www.w3.org/Graphics/SVG/1.1/DTD/svg11.dtd">
<svg xmlns="http://www.w3.org/2000/svg" xmlns:xlink="http://www.w3.org/1999/xlink" version="1.1"
   viewBox="94 -151 2414 2169">
   <path fill="currentColor"
      d="M950 1309q-146 0 -274 -54.5t-225 -151.5t-151.5 -225t-54.5 -275q0 -146 55 -273.5t152 -224.5t224.5 -152t273.5 -55t274 54.5t225 151.5t152 225t55 274t-55 274t-152 225t-225 152t-274 55zM546 859q-34 -59 -54 -123.5t-20 -132.5q0 -105 47 -197.5t123 -168.5
q10 -10 24 -10t24 11t10 25q0 16 -15 31q-63 63 -102.5 141t-39.5 168q0 60 16.5 115.5t44.5 99.5q8 13 8 26q0 15 -11.5 23.5t-25.5 8.5q-19 0 -29 -17zM950 1229q130 0 243.5 -48.5t199.5 -134.5t134.5 -199.5t48.5 -243.5q0 -129 -48.5 -242.5t-134.5 -199.5
t-199.5 -134.5t-243.5 -48.5q-129 0 -242.5 48.5t-199.5 134.5t-134.5 199.5t-48.5 242.5q0 130 48.5 243.5t134.5 199.5t199 134.5t243 48.5zM1527 1268l-154 -149l120 -123l154 150zM2148 1978q-69 0 -126 -57l-485 -486q-55 -55 -55 -126q0 -51 30.5 -98t78 -77t98.5 -30
q69 0 124 55l487 487q55 55 55 125q0 50 -30.5 98t-78 78.5t-98.5 30.5zM2148 1898q29 0 58 -20t49 -49.5t20 -57.5q0 -36 -33 -69l-485 -487q-30 -31 -68 -31q-28 0 -57.5 19.5t-49.5 48.5t-20 57q0 35 33 70l483 486q33 33 70 33zM789 205q-15 0 -24 -10.5t-9 -23.5
q0 -20 20 -32q12 -8 24 -13.5t25 -11.5q9 -4 19 -4q15 0 25.5 9t10.5 26q0 22 -27 34q-10 4 -20 9t-18 10q-13 7 -26 7z" />
</svg>