<?xml version="1.0" standalone="no"?>
<!DOCTYPE svg PUBLIC "-//W3C//DTD SVG 1.1//EN" "http://www.w3.org/Graphics/SVG/1.1/DTD/svg11.dtd">
<svg xmlns="http://www.w3.org/2000/svg" xmlns:xlink="http://www.w3.org/1999/xlink" version="1.1"
   viewBox="94 -151 2414 2169">
   <path fill="currentColor"
      d="M1650 1309q-146 0 -274 -55t-225 -152t-152 -225t-55 -274t55 -274t152 -225t225 -151.5t274 -54.5t273.5 55t224.5 152t152 224.5t55 273.5q0 147 -54.5 275t-151.5 225t-225 151.5t-274 54.5zM2054 859q-10 17 -29 17q-14 0 -25.5 -8.5t-11.5 -23.5q0 -13 8 -26
q28 -44 44.5 -99.5t16.5 -115.5q0 -90 -39.5 -168t-102.5 -141q-15 -15 -15 -31q0 -14 10.5 -25t23.5 -11q14 0 24 10q76 76 123 168.5t47 197.5q0 68 -20 132.5t-54 123.5zM1650 1229q130 0 243 -48.5t199 -134.5t134.5 -199.5t48.5 -243.5q0 -129 -48.5 -242.5
t-134.5 -199.5t-199.5 -134.5t-242.5 -48.5q-130 0 -243.5 48.5t-199.5 134.5t-134.5 199.5t-48.5 242.5q0 130 48.5 243.5t134.5 199.5t199.5 134.5t243.5 48.5zM1073 1268l-120 -122l154 -150l120 123zM452 1978q-50 0 -98 -30.5t-78.5 -78.5t-30.5 -98q0 -70 55 -125
l487 -487q55 -55 124 -55q51 0 98.5 30t78 77t30.5 98q0 71 -55 126l-485 486q-57 57 -126 57zM452 1898q37 0 70 -33l483 -486q33 -35 33 -70q0 -28 -20 -57t-49 -48.5t-58 -19.5q-38 0 -68 31l-485 487q-33 33 -33 69q0 28 20 57.5t49.5 49.5t57.5 20zM1811 205
q-13 0 -26 -7q-8 -5 -18 -10t-20 -9q-27 -12 -27 -34q0 -17 10.5 -26t25.5 -9q10 0 19 4q14 6 25.5 11.5t23.5 13.5q20 12 20 32q0 13 -9 23.5t-24 10.5z" />
</svg>