<?xml version="1.0" standalone="no"?>
<!DOCTYPE svg PUBLIC "-//W3C//DTD SVG 1.1//EN" "http://www.w3.org/Graphics/SVG/1.1/DTD/svg11.dtd">
<svg xmlns="http://www.w3.org/2000/svg" xmlns:xlink="http://www.w3.org/1999/xlink" version="1.1"
   viewBox="94 -151 2414 2169">
   <path fill="currentColor"
      d="M1004 1978q-150 0 -282 -57t-232.5 -157.5t-157.5 -233t-57 -282.5q0 -149 57 -280t158 -231t232.5 -157t281.5 -57q113 0 218 33t195 96l496 -514h-341v-240h753v753h-240v-345l-495 513q69 93 105 203t36 226q0 151 -56.5 283.5t-156.5 233t-231.5 157t-282.5 56.5z
M1004 1738q135 0 245.5 -66t176 -177.5t65.5 -246.5q0 -134 -65.5 -244t-176 -175.5t-245.5 -65.5q-133 0 -244.5 66t-178 176t-66.5 243q0 134 66.5 245.5t178 178t244.5 66.5z" />
</svg>