<?xml version="1.0" standalone="no"?>
<!DOCTYPE svg PUBLIC "-//W3C//DTD SVG 1.1//EN" "http://www.w3.org/Graphics/SVG/1.1/DTD/svg11.dtd">
<svg xmlns="http://www.w3.org/2000/svg" xmlns:xlink="http://www.w3.org/1999/xlink" version="1.1"
   viewBox="94 -151 2414 2169">
   <path fill="currentColor"
      d="M1391 1978q-117 0 -184 -46t-67 -131q0 -80 17 -144t17 -127q0 -137 -28 -210q-58 -15 -110 -40t-97 -58l26 -80q53 41 110.5 67.5t124.5 40.5q26 37 40 111t14 169q0 76 -17 138.5t-17 132.5q0 46 41.5 71.5t129.5 25.5q90 0 130.5 -25.5t40.5 -74.5q0 -54 -6 -85
t-12 -64t-6 -92q0 -77 8.5 -143t24 -112t37.5 -63q64 0 135 -4.5t129 -14t80 -22.5q16 41 20.5 73t4.5 62q0 33 -10 87.5t-20 104t-10 67.5q0 40 41 67t108 27q71 0 110.5 -28t39.5 -73q0 -33 -8.5 -80.5t-19 -100.5t-19 -104t-8.5 -90q0 -33 8.5 -89.5t19.5 -120.5
t19.5 -120.5t8.5 -88.5q0 -64 -39.5 -125t-109.5 -110.5t-163 -79.5q-92 -30 -165 -69.5t-115.5 -79t-44.5 -70.5l70 -7q-24 -43 -92 -65t-141 -22q-16 0 -39 2t-37 6l60 -66q-7 -1 -15.5 -1.5t-16.5 -0.5q-38 0 -76.5 9t-71.5 29q-33 -76 -92 -120.5t-154 -44.5
q-55 0 -98.5 10t-81 20t-74.5 10q-18 0 -41 -5q0 20 1.5 41t5.5 36q-21 31 -36 57.5t-26 58t-21 77.5q-12 21 -20 37t-15 40t-17 69q-5 24 -23 47t-33.5 43t-15.5 35q0 30 9 51.5t9 47.5q0 98 -15.5 173t-35.5 150t-34 172l-75 -108q37 -98 58.5 -194.5t21.5 -192.5
q0 -29 -9 -48.5t-9 -50.5q0 -34 31.5 -69t43.5 -78q14 -50 31 -92t34 -80h-54q5 -52 35 -101.5t82 -77.5q-20 -40 -20 -79q0 -13 1.5 -26t3.5 -26q46 16 65 21t36 5q44 0 83 -13t86.5 -25.5t115.5 -12.5q196 0 277 156q63 -29 129 -29q48 0 83.5 8t71.5 25l-75 39
q89 3 170.5 44.5t142.5 134.5l-77 4q36 40 96 68t136 51q109 32 192 93t130 138.5t47 160.5q0 37 -8.5 95t-19.5 121t-19.5 117.5t-8.5 85.5q0 28 8.5 78t19 107.5t19 108.5t8.5 81q0 82 -64.5 131.5t-165.5 49.5q-97 0 -163 -48t-66 -126q0 -51 21 -126.5t21 -178.5
q-49 10 -110.5 19.5t-138.5 11.5q-15 37 -23.5 98.5t-8.5 140.5q0 51 12 105.5t12 135.5q0 88 -66.5 134t-184.5 46zM609 1709q-82 0 -154.5 -65.5t-117.5 -172.5t-45 -232v-16.5t1 -16.5l87 125q14 80 49 148t82.5 109t97.5 41q17 0 25.5 -6t8.5 -13q0 -10 -9.5 -19
t-33.5 -25q-32 -23 -56.5 -60.5t-33.5 -83.5l93 13q8 25 23 44.5t33 35.5q26 22 45 44t19 55q0 42 -33.5 68.5t-80.5 26.5zM928 1863q-82 0 -128 -26.5t-46 -72.5q0 -36 19 -103.5t19 -129.5q0 -27 -6 -90l124 -102l59 -161l156 82q0 36 -11 73t-22 88t-11 131
q0 40 11.5 101t11.5 94q0 54 -46 85t-130 31zM695 1486q-121 0 -209 -44.5t-147.5 -114.5t-95.5 -149t-51.5 -150t-15.5 -115q0 -35 17 -62t44 -27q40 0 62 60q22 62 58 127t81.5 120t97 89t104.5 34q54 0 85.5 -61.5t31.5 -185.5l68 -102v129q0 139 -47.5 211t-137.5 72
q-75 0 -146 -50.5t-131 -128.5t-101 -161q-7 -12 -12 -12q-7 0 -3 17q17 77 50.5 154t87.5 140.5t130.5 101.5t179.5 38q61 0 117.5 -46t93 -124.5t36.5 -176.5q0 -28 -2 -54.5t-5 -50.5l64 -58q13 42 17 77t4 86q0 118 -46 212.5t-120 149.5t-159 55zM372 1090l-66 -169
q-9 -23 -15.5 -62.5t-6.5 -71.5q0 -47 13 -75.5t32 -28.5q20 0 30 14t14 35q11 52 35.5 107t67.5 92zM668 1285l-75 -29q29 -73 76 -154.5t104 -156t113 -125.5q23 26 43 48t40 41l38 -57l54 36q6 -13 12.5 -25.5t12.5 -22.5l59 43q-14 25 -28 54.5t-25 67.5l-66 -42l-34 58
q-33 -12 -65 -37.5t-48 -41.5q-42 47 -82 105t-73 119t-56 119zM1662 1726q-19 0 -37 -3t-33 -8v-414l211 -51q0 55 -7 106.5t-7 99.5q0 52 8 95t8 90q0 45 -44 65t-99 20zM832 627q-19 0 -33.5 -17t-14.5 -41q0 -23 14.5 -40t33.5 -17t33 17t14 40q0 24 -13.5 41t-33.5 17z
M756 433q0 -47 -0.5 -83.5t-3.5 -82.5q-38 29 -82.5 58t-92.5 54l-31 -63q86 -41 153.5 -90.5t106.5 -85.5q5 47 8 91.5t3 88.5q46 -32 80.5 -65.5t60.5 -69.5q14 35 30.5 58.5t36.5 44.5l-39 41q-7 -8 -14.5 -16.5t-14.5 -19.5q-44 52 -96.5 87.5t-104.5 52.5zM1567 1314
q11 -53 24 -93t32 -76.5t46 -75.5q0 41 5 80t18 59q6 -38 23 -92t39 -91q12 14 18 41t6 56q0 15 -0.5 29t-5.5 27q32 -35 60 -82.5t45.5 -94.5t17.5 -80q11 23 17 52t6 63q0 28 -4.5 59t-12.5 60q28 -55 111 -90q-22 58 -29 109t-7 130l-60 -50zM1292 847q0 -47 -12.5 -81.5
t-34.5 -56.5l41 -55q41 36 60 73q24 -31 34.5 -87.5t10.5 -162.5l100 91q1 -6 1 -12.5v-12.5q0 -60 -28.5 -109t-75 -78.5t-101.5 -29.5q-40 0 -83.5 17t-66.5 40l-51 -50q33 -32 90.5 -54t110.5 -22q75 0 137.5 39t100 104t37.5 143q0 27 -6.5 59.5t-26.5 94.5l-72 -65
q-13 84 -52 132t-113 83zM2424 1240q-71 -27 -115.5 -97.5t-44.5 -154.5l22 -327q50 76 68 149t22.5 144t12 142t35.5 144z" />
</svg>