<?xml version="1.0" standalone="no"?>
<!DOCTYPE svg PUBLIC "-//W3C//DTD SVG 1.1//EN" "http://www.w3.org/Graphics/SVG/1.1/DTD/svg11.dtd">
<svg xmlns="http://www.w3.org/2000/svg" xmlns:xlink="http://www.w3.org/1999/xlink" version="1.1"
   viewBox="94 -151 2414 2169">
   <path fill="currentColor"
      d="M1124 1978q-183 0 -344 -47t-284 -129.5t-192.5 -190t-69.5 -229.5q0 -56 31 -101.5t76.5 -85.5t92.5 -81.5t78 -89.5q17 -26 36.5 -62t41.5 -82q50 -101 122 -229t179 -244l86 22q-111 118 -186.5 248.5t-128.5 238.5q-28 57 -47.5 92t-35.5 59q-27 42 -71 83.5
t-88.5 81.5t-75 77.5t-30.5 72.5q0 103 64 196.5t176 166t258.5 114t311.5 41.5q179 0 348.5 -58t316.5 -160.5t258.5 -238t174 -291.5t62.5 -320q0 -222 -121 -382t-336 -223l22 -77q156 45 272 141t179.5 233t63.5 308q0 177 -67 345t-185.5 313t-275.5 255t-338.5 171.5
t-373.5 61.5zM841 1212q-17 -6 -24.5 -20.5t-0.5 -32.5q54 -143 134 -281t154 -249q11 -16 27.5 -18.5t30.5 8.5q32 26 7 61q-83 117 -155.5 249.5t-118.5 258.5q-6 16 -21.5 23t-32.5 1zM1098 463q-147 0 -276.5 -14.5t-209.5 -37t-80 -44.5q0 -21 50 -59t126.5 -83
t157.5 -86q226 -114 385.5 -177.5t293.5 -63.5q121 0 218.5 46t161.5 110.5t83 122.5q17 -18 35 -24.5t47 -6.5q38 0 80.5 18t42.5 53q0 13 -5.5 26t-27.5 48q-7 12 -8.5 31.5t-1.5 68.5q0 28 -15 34.5t-47 6.5q-57 0 -112 -34.5t-76 -80.5q-76 40 -202.5 73.5t-285.5 53
t-334 19.5zM1240 200q62 -20 130 -31t144 -11q53 0 105.5 6t104.5 18q17 4 29.5 -0.5t15.5 -17.5q8 -36 -15 -45q-50 -20 -108.5 -30.5t-131.5 -10.5q-76 0 -149 14.5t-148 43.5q-16 6 -22 18.5t0 26.5q12 29 45 19z" />
</svg>