<?xml version="1.0" standalone="no"?>
<!DOCTYPE svg PUBLIC "-//W3C//DTD SVG 1.1//EN" "http://www.w3.org/Graphics/SVG/1.1/DTD/svg11.dtd">
<svg xmlns="http://www.w3.org/2000/svg" xmlns:xlink="http://www.w3.org/1999/xlink" version="1.1"
   viewBox="94 -151 2414 2169">
   <path fill="currentColor"
      d="M2403 1227l-80 -267v-881q0 -22 -15.5 -36.5t-39.5 -14.5q-22 0 -38.5 14.5t-16.5 36.5v543q-83 -53 -156 -86t-143 -48t-144 -15q-135 0 -249.5 39.5t-207 118.5t-162 195.5t-115.5 271.5l-85 30q38 -183 116.5 -320.5t188 -229.5t241 -138.5t273.5 -46.5q66 0 128.5 10
t121.5 29t113 46v-397q0 -56 39 -94.5t96 -38.5q58 0 96.5 38t38.5 95v1146zM452 1667l-261 -84q-29 -10 -20 -38l6 -18q3 -10 14 -17.5t24 -2.5l264 85zM816 1784l-174 -56l27 -75l170 54zM987 1923q-79 0 -135 -56t-56 -135q0 -80 56 -135.5t135 -55.5q80 0 135.5 55.5
t55.5 135.5q0 79 -55.5 135t-135.5 56zM987 1840q45 0 76.5 -31.5t31.5 -76.5t-31.5 -76.5t-76.5 -31.5t-76.5 31.5t-31.5 76.5t31.5 76.5t76.5 31.5zM540 1847q-82 0 -115 -62.5t-8 -140.5l95 -288q63 -192 165 -305.5t217 -147.5l20 78q-95 29 -182.5 130.5t-143.5 270.5
l-95 288q-13 38 -2.5 67.5t46.5 29.5q21 0 39.5 -13.5t25.5 -35.5l107 -321l76 30q48 19 71 49.5t37 101.5l-69 74q0 -67 -14 -99.5t-51 -50.5l-81 242q-16 46 -55 74.5t-83 28.5zM1069 1609l-69 -41q-16 -104 -55 -155.5t-118 -83.5l-74 -30q54 -111 124.5 -168t159.5 -57
h178l-17 80h-161q-49 0 -90 26.5t-79 79.5q101 43 151 124.5t50 224.5zM1452 1562q-41 -50 -67 -110.5t-32 -127.5h337zM1746 1717q-67 -6 -127.5 -32t-110.5 -67l238 -238v337zM978 1003q-139 0 -139 -141q0 -140 146 -140h159l-116 281h-50zM1353 1244q6 -68 32 -128.5
t67 -109.5l238 238h-337zM1826 1717v-337l238 238q-49 41 -109.5 67t-128.5 32zM1786 1928q-133 0 -250 -50t-205.5 -138.5t-138.5 -205.5t-50 -250t50 -249.5t138.5 -205t205.5 -139t250 -50.5q134 0 250.5 50t205 138.5t138.5 205t50 250.5q0 133 -50 250t-138.5 205.5
t-205 138.5t-250.5 50zM1786 1848q117 0 219.5 -44t180 -121.5t121 -179.5t43.5 -219t-43.5 -219.5t-121 -180t-180 -121t-219.5 -43.5t-219 44t-179.5 121.5t-121.5 180t-44 218.5q0 117 44 219t121.5 179.5t179.5 121.5t219 44zM1786 1405q-49 0 -85 -36t-36 -85
q0 -50 36 -85.5t85 -35.5q50 0 85.5 35.5t35.5 85.5q0 49 -35.5 85t-85.5 36zM1746 1188l-238 -238q50 -41 110.5 -67t127.5 -32v337zM2120 1562l-238 -238h337q-6 67 -32 127.5t-67 110.5zM1882 1244l238 -238q41 49 67 109.5t32 128.5h-337zM1826 1188v-337q68 6 128.5 32
t109.5 67zM2158 489l-290 -50l45 -324q12 -85 41.5 -124.5t79.5 -39.5h57q50 0 78.5 11t47.5 37z" />
</svg>