<?xml version="1.0" standalone="no"?>
<!DOCTYPE svg PUBLIC "-//W3C//DTD SVG 1.1//EN" "http://www.w3.org/Graphics/SVG/1.1/DTD/svg11.dtd">
<svg xmlns="http://www.w3.org/2000/svg" xmlns:xlink="http://www.w3.org/1999/xlink" version="1.1"
   viewBox="94 -151 2414 2169">
   <path fill="currentColor"
      d="M1290 1978q-289 0 -453 -90.5t-179 -245.5q-11 -117 -18.5 -250t-10.5 -301.5t-3 -388.5h80q0 219 3 387t10 300t19 246q13 121 152 192t400 71q201 0 344 -33.5t219.5 -92t76.5 -134.5q0 -19 -4.5 -37.5t-17.5 -44.5q-20 -41 -31 -81t-11 -84l1 -706h80l-1 706
q0 42 10.5 77t28.5 73q14 28 19.5 49.5t5.5 47.5q0 101 -87.5 177.5t-249 119.5t-383.5 43zM1284 1635q-124 0 -244.5 -40.5t-221 -111.5t-166.5 -162v-325q19 44 44 80.5t56 58t66 21.5q51 0 99 -19t101 -44.5t117.5 -44.5t148.5 -19t148.5 19t117 44.5t100.5 44.5t100 19
q49 0 86 -40.5t65 -102.5v323q-65 89 -161.5 156.5t-213 105t-242.5 37.5zM1284 1302q93 0 171.5 -43.5t100.5 -130.5l-105 -51l-167 7l-197 -8l-77 41q18 92 98.5 138.5t175.5 46.5zM1009 961q-37 0 -62 -27.5t-25 -66.5t25 -66.5t62 -27.5t61.5 27.5t24.5 66.5t-24.5 66.5
t-61.5 27.5zM950 1179q-58 0 -92.5 -39.5t-39.5 -91.5q19 8 41 11t47 3q54 0 118 -12t131 -23.5t129 -11.5q94 0 193.5 23.5t184.5 23.5q26 0 47.5 -3t40.5 -11q-5 52 -39 91.5t-93 39.5q-49 0 -108 -19l-118 -38t-108 -19q-48 0 -107.5 19t-118.5 38t-108 19zM1538 961
q-37 0 -61.5 -27.5t-24.5 -66.5t24.5 -66.5t61.5 -27.5q38 0 62 27.5t24 66.5t-24 66.5t-62 27.5zM662 965q-22 0 -38 -41t-25 -111.5t-9 -157.5q0 -232 81.5 -402t237.5 -262.5t379 -92.5q222 0 377 92.5t236 262.5t81 402q0 87 -9 157.5t-25 111.5t-38 41
q-37 0 -53.5 -39.5t-25.5 -98t-22.5 -117t-43 -98t-88.5 -39.5q-48 0 -108 10.5t-131 21.5t-154 11q-81 0 -151.5 -11t-129.5 -21.5t-108 -10.5q-58 0 -88 39.5t-43.5 98t-22.5 117t-25.5 98t-53.5 39.5z" />
</svg>