<?xml version="1.0" standalone="no"?>
<!DOCTYPE svg PUBLIC "-//W3C//DTD SVG 1.1//EN" "http://www.w3.org/Graphics/SVG/1.1/DTD/svg11.dtd">
<svg xmlns="http://www.w3.org/2000/svg" xmlns:xlink="http://www.w3.org/1999/xlink" version="1.1"
   viewBox="94 -151 2414 2169">
   <path fill="currentColor"
      d="M671 1069q-49 0 -79 -37.5t-43.5 -118t-13.5 -208.5q0 -249 92.5 -430t264.5 -279t408 -98q237 0 408.5 98t264 279t92.5 430q0 128 -13.5 208.5t-43.5 118t-79 37.5t-79.5 -48.5t-43.5 -140.5q-15 -112 -41 -158.5t-73 -46.5q-74 0 -170 21.5t-222 21.5
q-127 0 -222.5 -21.5t-169.5 -21.5q-46 0 -72.5 46.5t-41.5 158.5q-13 93 -43 141t-80 48zM1304 1978q-286 0 -456 -91t-186 -245q-13 -131 -20.5 -281t-10.5 -351h80q3 199 10.5 348.5t20.5 276.5q12 121 158.5 192t403.5 71q205 0 350 -33.5t222.5 -92t77.5 -134.5
q0 -19 -6 -37.5t-19 -44.5q-20 -41 -31 -81t-11 -84v-374h80v374q0 42 10 77.5t28 72.5q14 28 21.5 49.5t7.5 47.5q0 101 -88.5 177.5t-252 119.5t-389.5 43zM1305 1346q-85 0 -154 -32.5t-123 -98.5l45 -39q47 57 103.5 83t128.5 26q73 0 129.5 -26t103.5 -83l45 39
q-54 66 -123.5 98.5t-154.5 32.5zM1028 1041q-37 0 -61.5 -27.5t-24.5 -66.5t24.5 -66.5t61.5 -27.5q38 0 62.5 27.5t24.5 66.5t-24.5 66.5t-62.5 27.5zM737 569l-30 -40q53 -41 115 -112t117 -159t85 -177l48 16q-32 93 -90 185.5t-123.5 168t-121.5 118.5zM1558 1041
q-37 0 -62 -27.5t-25 -66.5t25 -66.5t62 -27.5t61.5 27.5t24.5 66.5t-24.5 66.5t-61.5 27.5zM912 666l-28 -42q72 -47 149.5 -136.5t139 -201t85.5 -223.5l48 10q-19 88 -61.5 177.5t-98.5 170.5t-117 144.5t-117 100.5zM671 987q13 0 25 -31.5t20 -92.5q11 -77 31 -137.5
t58.5 -95.5t102.5 -35q83 0 180 21.5t212 21.5q116 0 212.5 -21.5t179.5 -21.5q64 0 102.5 35t59 95.5t30.5 137.5q8 61 20 92.5t25 31.5q18 0 30.5 -31t19 -94t6.5 -157q0 -227 -82.5 -389.5t-235.5 -250t-367 -87.5q-213 0 -366.5 87.5t-236 250t-82.5 389.5q0 94 6.5 157
t19.5 94t30 31zM1216 699l-34 -36q65 -63 126 -156t109.5 -199t74.5 -208l48 12q-27 106 -77.5 217t-114.5 207.5t-132 162.5zM1510 675l-36 -34q47 -50 91 -126t78 -162t49 -165l50 10q-16 83 -52 173.5t-83 170.5t-97 133zM1735 660l-36 -33q98 -119 125 -283l50 8
q-31 180 -139 308z" />
</svg>