<?xml version="1.0" standalone="no"?>
<!DOCTYPE svg PUBLIC "-//W3C//DTD SVG 1.1//EN" "http://www.w3.org/Graphics/SVG/1.1/DTD/svg11.dtd">
<svg xmlns="http://www.w3.org/2000/svg" xmlns:xlink="http://www.w3.org/1999/xlink" version="1.1"
   viewBox="94 -151 2414 2169">
   <path fill="currentColor"
      d="M424 1978q-70 0 -117 -46.5t-47 -116.5v-1754q0 -71 46.5 -117t116.5 -46h1754q71 0 117 46t46 117v1753q0 71 -46 117.5t-117 46.5h-1753zM465 1722q9 0 18 -6.5t9 -13.5q0 -5 -5.5 -9t-10.5 -4q-8 0 -22.5 8t-14.5 11q0 8 5 11t21 3zM583 1757q8 0 9.5 -8.5t5.5 -14.5
q2 -4 5.5 -6.5t3.5 -7.5q0 -11 -12 -11q-22 0 -22 25q0 23 10 23zM674 1863q3 0 14.5 -11t25 -25.5t18.5 -22.5q2 -10 5.5 -30t7.5 -46l35 -77q-1 -32 -11 -53q-13 -28 -22 -33t-35 -5l-36 -41q-34 3 -80 59q-8 3 -23.5 10.5t-22.5 11.5q-3 6 -3 20q0 45 56 45q26 0 34 4.5
t8 19.5q0 12 -2 25t-5 17q-27 35 -27 103q0 2 28 15.5t35 13.5zM881 1675q7 0 20 -22.5t30.5 -45t34.5 -22.5q10 0 19.5 7.5t13.5 7.5q9 0 25.5 -15.5t29.5 -34.5t13 -31q0 -17 -24 -36t-45 -19q-13 0 -20 7t-14 18q-10 16 -19 21t-18 5q-14 0 -18.5 -6t-16.5 -6
q-15 0 -23 12.5t-10 23.5q-22 22 -28.5 30t-6.5 14q0 11 12 33t25.5 40.5t19.5 18.5zM1170 1580q4 0 19.5 -18.5t31 -41.5t20.5 -36q9 0 32 -6.5t23 -11.5q0 -9 -26.5 -18.5t-26.5 -28.5q0 -11 11.5 -21.5t23.5 -10.5q20 0 41 20t52 20h35q15 0 30 -16.5t22 -16.5q15 0 28 6
q0 26 15 26t15 -26q0 -14 13 -31.5t43 -43.5q12 -11 17.5 -23.5t12.5 -12.5q8 0 13.5 10.5t5.5 24.5q0 19 -7.5 33t-7.5 28q0 20 8 20q4 0 8.5 -8t7.5 -23l50 -70q-1 -20 -2.5 -45t-1.5 -44q26 -52 32.5 -73.5t6.5 -53.5q0 -18 -1 -36t-1 -31q0 -31 10.5 -42.5t38.5 -11.5
q10 0 16 -29t12 -51q5 -17 20.5 -44t15.5 -58q0 -20 -17.5 -51.5t-35 -60t-17.5 -38.5q0 -7 5 -24.5t5 -24.5q0 -15 -20.5 -30.5t-32.5 -15.5q-4 0 -7.5 6t-3.5 14q0 10 4 10t11 -2t10 -2q7 0 12 7.5t5 15.5q0 12 -11.5 23t-25.5 11q-15 0 -20 -13t-7.5 -25.5t-8.5 -12.5
q-5 0 -11.5 5.5t-6.5 10.5q0 3 1 9t1 9q0 14 -17 24.5t-24 19.5q-1 10 -1 17.5v18.5q0 17 1.5 50t2.5 62.5t1 34.5q0 11 -13 33.5t-18 41.5q-6 20 -18 50.5t-23 38.5q-4 4 -16 8t-18 11q-7 7 -25.5 35t-26.5 35q-6 5 -24.5 18t-39 24t-32.5 11q-17 0 -32.5 -11.5
t-15.5 -24.5q0 -11 12 -21t12 -13t-6 -3q-21 0 -39.5 13t-18.5 27q0 9 1.5 19.5t2.5 21.5l-22 59q-26 16 -37 45.5t-11 46.5q-7 11 -22.5 20t-27.5 9q-16 0 -33 -15.5t-31 -15.5q-10 0 -31.5 12t-63.5 12q-14 0 -45.5 -2t-40.5 -2q-13 0 -30.5 9.5t-47.5 34.5l-81 68
q-13 11 -34.5 22.5t-39.5 19.5q-10 4 -10 15q0 10 3.5 17.5t5.5 7.5q72 0 129.5 -15.5t95 -31.5t49.5 -16q4 0 12 1.5t12 1.5q8 0 30 -21t53 -24q13 10 24.5 14.5t19.5 4.5q11 0 24.5 -8t18.5 -8q8 0 8 8q0 16 -20 45.5t-20 46.5q0 10 11 27.5t24 31t18 13.5zM1450 1026
q7 0 13.5 -10t6.5 -22q0 -7 -2.5 -18.5t-4.5 -11.5q-4 0 -8 4t-10 18q-12 7 -12 22q0 5 6 11.5t11 6.5zM1632 554q16 0 27 -14q17 -21 43 -25.5t26 -21.5q0 -8 -11.5 -14t-32.5 -10q-13 -2 -25 -15t-12 -26q0 -11 9 -19t19 -8q15 0 22.5 14t22.5 14q20 0 33 -22t38 -22
q14 0 29 16t34 30q10 7 31.5 14t31.5 13q20 12 29 12q12 0 22 -30t25 -60t40 -30q31 0 68.5 -8.5t65 -20t27.5 -20.5q0 -10 -25 -24t-25 -44q0 -22 6.5 -34.5t6.5 -21.5q0 -8 -10 -8q-15 0 -36 20t-35 20q-4 0 -21.5 -16t-25.5 -18q-10 -3 -23 -1.5t-20 -4.5
q-28 -25 -46.5 -44.5t-41.5 -47.5q-40 -51 -59.5 -69.5t-32.5 -18.5t-20 13t-7 36q0 11 3.5 35t6.5 48t3 36q0 26 -20 44t-19 43l1 26q1 13 -12 26.5t-24 13.5q-8 0 -23.5 -13.5t-29.5 -13.5q-15 0 -15 15q0 4 3.5 13.5t3.5 16.5q0 12 -15.5 25.5t-31 29t-15.5 33.5
q0 17 17.5 34t17.5 37q0 8 -5 26t-5 26q0 15 12 15z" />
</svg>