<?xml version="1.0" standalone="no"?>
<!DOCTYPE svg PUBLIC "-//W3C//DTD SVG 1.1//EN" "http://www.w3.org/Graphics/SVG/1.1/DTD/svg11.dtd">
<svg xmlns="http://www.w3.org/2000/svg" xmlns:xlink="http://www.w3.org/1999/xlink" version="1.1"
   viewBox="94 -151 2414 2169">
   <path fill="currentColor"
      d="M1177 1730q-64 0 -114 -36.5t-79 -97.5q-36 -78 -55 -155.5t-38 -156.5t-55 -159q-22 -50 -43.5 -80.5t-56.5 -57t-98 -63.5q-164 -98 -260 -185.5t-137 -184.5t-41 -221q0 -120 56 -218.5t150 -157.5t209 -59q98 0 185.5 46.5t155.5 125.5t107 178t39 205q0 51 -9 108.5
t-20 112.5q-10 49 -17 94t-7 80q0 61 24 127.5t88 152.5q85 113 132.5 186t67 122t19.5 93q0 84 -55.5 142.5t-147.5 58.5zM467 988q-121 -81 -205 -162.5t-132 -173.5l54 -28q44 85 121.5 160t195.5 154zM367 692l-85 -157l-41 -158q12 -19 34 -19q23 0 33 17.5t10 39.5
q0 23 -4 37.5t-4 34.5q0 11 2 17q7 -8 12.5 -19.5t11.5 -27.5q23 -63 60 -63q17 0 29.5 13t12.5 30q0 16 -15.5 32t-47.5 28q-12 4 -22.5 10t-19.5 11q5 1 17 1q9 0 17 -1t19 -2q11 -2 20 -2h17q18 0 33 11.5t15 32.5q0 19 -11 32t-28 13q-12 0 -24 -5t-32 -21
q-13 -11 -26.5 -20t-26.5 -15q5 13 13 27.5t18 28.5q14 19 22 33t8 25q0 23 -17 36zM1177 1650q56 0 89.5 -33t33.5 -88q0 -32 -18 -73.5t-62 -108t-123 -171.5q-71 -95 -99.5 -175.5t-28.5 -152.5q0 -41 8 -90t18 -100q11 -53 19 -106t8 -99q0 -114 -51 -216.5t-131 -169.5
q-37 51 -99.5 97t-139 82.5t-155 57.5t-147.5 21h-9h-10v3.5v4.5q0 110 37 195.5t124 162.5t237 164q68 39 109.5 71.5t69 70.5t52.5 96q39 88 59 168.5t37.5 155t50.5 145.5q21 44 51.5 66t69.5 22zM719 937l-329 -226q13 2 26.5 3t27.5 1q115 0 235 -38t220.5 -106
t155.5 -159l-43 405q-46 55 -118.5 87.5t-174.5 32.5zM604 595q-17 0 -30.5 -12t-13.5 -30q0 -28 52 -61q21 -14 33.5 -25t22.5 -24q10 -14 16 -28.5t10 -39.5q5 -25 16 -48.5t36 -23.5q18 0 31 12.5t13 29.5q0 15 -13 30t-39 31q-38 24 -56 47q-10 13 -15.5 29t-10.5 41
q-15 72 -52 72zM728 606q-22 0 -33.5 -19t-14.5 -62q-1 -26 -4.5 -41.5t-9.5 -31.5q-6 -15 -16 -27.5t-29 -28.5q-42 -34 -42 -62q0 -17 13 -29.5t30 -12.5q47 0 47 81q0 25 3.5 41t10.5 30q7 15 17 28t29 30q22 19 32 34t10 28q0 18 -13 30t-30 12zM803 502q-23 0 -60 -20
q-22 -12 -39.5 -18.5t-32.5 -6.5q-27 0 -69 13q-30 9 -49 9q-22 0 -34 -11.5t-12 -29.5q0 -17 11.5 -29.5t29.5 -12.5q22 0 59 20q22 12 39 18t30 6q19 0 34 -2.5t38 -9.5q16 -5 30 -7t26 -2q17 0 28 11.5t11 28.5q0 18 -11 30.5t-29 12.5zM357 216q18 0 27 -19
q15 -31 38.5 -58.5t58.5 -47.5q15 -9 15 -28q0 -12 -9 -20t-21 -8q-21 0 -54.5 30t-59.5 66.5t-26 55.5q0 13 10.5 21t20.5 8zM917 376q-17 0 -30 -12t-13 -28q0 -13 9.5 -29t30.5 -35q17 -16 24 -23.5t13 -16.5q-18 1 -50 21q-13 8 -29 13t-29 5q-41 0 -41 -41
q0 -18 11.5 -31t31.5 -13q9 0 21.5 3t28.5 9q19 7 29 8.5t26 3.5q-9 -11 -20.5 -19t-24.5 -15q-28 -17 -40 -31.5t-12 -30.5q0 -35 35 -40l110 117l58 183q-31 0 -46.5 -17t-21.5 -57q-3 -20 -6 -32t-9 -23q-3 12 -5 22.5t-2 25.5q0 83 -49 83zM1598 1898q87 0 124 -100
q30 -81 39.5 -157t21 -155t45.5 -169q25 -65 56 -111.5t87.5 -93t156.5 -112.5q138 -92 200 -199.5t62 -252.5v-6.5v-6.5h-6.5h-6.5q-69 0 -149 -21.5t-157 -58t-139.5 -84t-98.5 -98.5q-79 63 -127 163t-48 217q0 44 10 96.5t36 144.5q23 82 33 130.5t10 85.5q0 64 -24 142
t-74 164q-60 103 -95 165.5t-51.5 97t-21.5 55.5t-5 42q0 55 33.5 88.5t88.5 33.5zM1450 830q-12 -52 -17 -94.5t-5 -82.5q0 -74 14.5 -145.5t40.5 -135.5l56 22q-25 61 -38 125.5t-13 133.5q0 37 5 75.5t15 87.5zM1598 1978q-91 0 -146.5 -58.5t-55.5 -143.5q0 -29 6.5 -56
t25 -67.5t55 -106t96.5 -170.5q46 -79 67 -145.5t21 -120.5q0 -31 -8.5 -73t-31.5 -121q-28 -95 -38.5 -154t-10.5 -109q0 -110 38 -208.5t105 -174t156 -119t191 -43.5q117 0 207.5 55t142.5 154t52 231q0 166 -73 292t-225 227q-95 63 -146 103.5t-76.5 79t-46.5 95.5
q-30 82 -42.5 161.5t-23.5 158.5t-40 161q-24 70 -75.5 111t-123.5 41zM1192 448q0 -92 -27.5 -181.5t-77.5 -170.5l50 -32q54 86 84.5 185t30.5 199h-60zM1957 1147q-102 0 -166.5 -33.5t-96.5 -88.5l-73 -403q56 91 156 159t220 106t235 38q14 0 27.5 -1t26.5 -3z
M1330 395q-7 -85 -31.5 -165.5t-64.5 -156.5l54 -28q41 79 68 167t34 179zM2189 1248l-34 -50q48 -30 92.5 -62t83 -64.5t67.5 -62.5l42 43q-17 19 -57.5 52.5t-91.5 71.5t-102 72zM1759 586q-49 0 -49 -83q0 -15 -2 -25.5t-5 -22.5q-6 11 -9 23t-6 32q-6 40 -21.5 57
t-46.5 17l58 -183l110 -117q35 5 35 40q0 16 -12 30.5t-40 31.5q-13 7 -24.5 15t-20.5 19q16 -2 26 -3.5t29 -8.5q16 -6 28.5 -9t21.5 -3q20 0 31.5 13t11.5 31q0 41 -41 41q-13 0 -28.5 -5t-29.5 -13q-32 -20 -50 -21q6 9 13 16.5t24 23.5q21 19 30.5 35t9.5 29
q0 16 -13 28t-30 12zM2072 805q-37 0 -52 -72q-5 -25 -10.5 -41t-15.5 -29q-18 -23 -56 -47q-25 -16 -38.5 -31t-13.5 -30q0 -17 13 -29.5t31 -12.5q26 0 37 23.5t15 48.5q5 25 10.5 39.5t15.5 28.5q18 24 56 49q52 33 52 61q0 18 -13.5 30t-30.5 12zM1948 816
q-16 0 -29.5 -12t-13.5 -30q0 -13 10 -28t32 -34q19 -17 29 -30t17 -28q7 -14 10.5 -30t3.5 -41q0 -81 47 -81q17 0 30 12.5t13 29.5q0 28 -42 62q-19 16 -29 28.5t-16 27.5q-6 16 -9 31.5t-5 41.5q-3 43 -14.5 62t-33.5 19zM1873 712q-18 0 -29 -12.5t-11 -30.5
q0 -17 11.5 -28.5t27.5 -11.5q14 0 28.5 2.5t27.5 6.5q20 6 35.5 9t36.5 3q13 0 30.5 -5.5t38.5 -18.5q33 -20 59 -20q18 0 29.5 12.5t11.5 29.5q0 18 -12 29.5t-34 11.5q-19 0 -49 -9q-42 -13 -69 -13q-15 0 -32.5 6.5t-39.5 18.5q-37 20 -60 20zM2309 902q-17 -13 -17 -36
q0 -11 8 -25t22 -33q11 -14 18.5 -28.5t12.5 -27.5q-13 6 -26 15t-27 20q-19 16 -31.5 21t-24.5 5q-16 0 -27.5 -13t-11.5 -32q0 -21 15 -32.5t33 -11.5h17t20 2q11 1 19 2t17 1q12 0 17 -1q-9 -5 -19.5 -11t-22.5 -10q-32 -12 -47.5 -28t-15.5 -32q0 -17 12.5 -30t29.5 -13
q38 0 60 63q6 16 11.5 27.5t12.5 19.5q2 -6 2 -17q0 -20 -4 -34.5t-4 -37.5q0 -22 10 -39.5t33 -17.5q22 0 34 19l-41 158zM1960 276q9 0 16 -3q23 -11 48 -17t53 -6q10 0 25 2t22 2q12 0 21 -8.5t9 -21.5q0 -35 -65 -35q-64 0 -110.5 16.5t-46.5 42.5q0 10 7.5 19t20.5 9z
" />
</svg>