<?xml version="1.0" standalone="no"?>
<!DOCTYPE svg PUBLIC "-//W3C//DTD SVG 1.1//EN" "http://www.w3.org/Graphics/SVG/1.1/DTD/svg11.dtd">
<svg xmlns="http://www.w3.org/2000/svg" xmlns:xlink="http://www.w3.org/1999/xlink" version="1.1"
   viewBox="94 -151 2414 2169">
   <path fill="currentColor"
      d="M1240 1978q-238 0 -399.5 -85t-243.5 -230t-82 -325q0 -143 31.5 -251.5t79.5 -186t96 -125.5l57 57q-89 88 -136.5 218.5t-47.5 287.5q0 172 77.5 298t222.5 194t345 68q201 0 345.5 -68t222 -194t77.5 -298q0 -157 -47.5 -287.5t-136.5 -218.5l57 -57q49 48 96.5 125.5
t79 186t31.5 251.5q0 180 -82 325t-243 230t-400 85zM913 1664q-156 -95 -156 -302q0 -69 8 -124.5t28 -122.5l67 21q-18 62 -25.5 112t-7.5 114q0 166 121 243zM1240 1043q-157 0 -278.5 -42.5t-190.5 -118t-69 -174.5t69 -174t190.5 -116.5t278.5 -41.5q158 0 279 41.5
t190 116.5t69 174t-69 174.5t-190 118t-279 42.5zM1240 965q136 0 239 -33.5t161 -91.5t58 -132t-57.5 -131t-160.5 -90t-240 -33q-136 0 -239.5 33t-161 90t-57.5 131t58 132t161 91.5t239 33.5zM1240 836q-139 0 -225.5 -39.5t-86.5 -100.5q0 -62 87.5 -102t224.5 -40
t224.5 40t87.5 102q0 61 -86.5 100.5t-225.5 39.5zM1503 738l-88 -43l171 -319q7 -13 15 -25t17 -22l396 -431l71 67l-395 431q-11 12 -18 25zM1789 297l-83 -77q-15 -16 -1 -30l21 -22q14 -15 29 0l83 77q16 15 1 30l-20 22q-6 6 -14.5 6t-15.5 -6z" />
</svg>