<?xml version="1.0" standalone="no"?>
<!DOCTYPE svg PUBLIC "-//W3C//DTD SVG 1.1//EN" "http://www.w3.org/Graphics/SVG/1.1/DTD/svg11.dtd">
<svg xmlns="http://www.w3.org/2000/svg" xmlns:xlink="http://www.w3.org/1999/xlink" version="1.1"
   viewBox="94 -151 2414 2169">
   <path fill="currentColor"
      d="M854 1978q-292 0 -463 -90t-187 -247q-9 -87 -15 -177t-10.5 -198.5t-6.5 -249.5t-2 -330l80 -25q0 197 2 342.5t6.5 256t10.5 200t15 174.5q12 118 157.5 191t412.5 73q200 0 344.5 -34.5t222 -94t77.5 -132.5q0 -20 -6.5 -39.5t-19.5 -45.5q-19 -40 -30 -79.5
t-11 -82.5v-752l80 31v721q0 42 10 77t28 71q14 27 21.5 49.5t7.5 49.5q0 102 -87.5 178.5t-249.5 119.5t-387 43zM840 1329q-85 0 -155 -32.5t-125 -99.5l51 -44q47 57 102.5 82.5t126.5 25.5q72 0 128 -25.5t102 -82.5l51 44q-55 67 -125.5 99.5t-155.5 32.5zM562 1024
q-38 0 -63 -28.5t-25 -68.5t25 -68t63 -28t63.5 28t25.5 68t-25.5 68.5t-63.5 28.5zM1816 1827q-22 0 -38 -16.5t-16 -38.5q0 -23 16 -38.5t38 -15.5q23 0 39 15.5t16 38.5q0 22 -16 38.5t-39 16.5zM1092 1024q-38 0 -63 -28.5t-25 -68.5t25 -68t63 -28t63.5 28t25.5 68
t-25.5 68.5t-63.5 28.5zM418 797q-82 0 -127.5 -40.5t-61.5 -113.5q161 -75 310 -118t302 -43q154 0 303.5 41.5t315.5 123.5q-16 70 -61.5 110t-128.5 40q-40 0 -81.5 -13t-91 -30.5t-112 -30.5t-144.5 -13q-79 0 -140.5 13t-110.5 30.5t-90.5 30.5t-81.5 13zM188 836
q-46 -71 -62 -152t-16 -134q0 -136 56.5 -254.5t157.5 -207.5t235 -139.5t289 -50.5t289 50.5t235 139.5t157.5 207.5t56.5 254.5q0 61 -19.5 149t-70.5 172v-169q-122 -62 -228 -101t-207.5 -57.5t-212.5 -18.5t-211.5 17.5t-205 56t-228.5 100.5zM201 624
q133 -60 235.5 -97t199.5 -54.5t212 -17.5t212 17.5t200 54.5t235 97q6 -17 8.5 -36.5t2.5 -37.5q0 -119 -52 -223t-143 -182.5t-210 -122.5t-253 -44t-253 44t-210 122.5t-143 182.5t-52 223q0 18 2.5 37.5t8.5 36.5zM1818 1978q-76 0 -134 -48t-58 -119q0 -46 26 -119
l289 -829q-60 -47 -96 -119t-36 -148q0 -90 44.5 -166t119.5 -122t166 -46q27 0 53.5 4.5t48.5 15.5l-141 222q12 42 53 68t95 26l144 -229q46 46 72 110.5t26 129.5q0 118 -80.5 207.5t-207.5 112.5l-202 874q-18 77 -65 126t-117 49zM1815 1913q46 0 79 -34t46 -91
l212 -918q119 -7 196 -82.5t77 -178.5q0 -66 -30 -123l-108 172q-27 5 -48 5q-79 0 -135.5 -46.5t-73.5 -122.5l105 -166q-7 0 -13.5 1t-13.5 2q-65 8 -118.5 45.5t-84.5 94.5t-31 124q0 73 39 140.5t104 100.5l-306 878q-10 31 -15 53t-5 41q0 45 37.5 75t86.5 30z" />
</svg>