<?xml version="1.0" standalone="no"?>
<!DOCTYPE svg PUBLIC "-//W3C//DTD SVG 1.1//EN" "http://www.w3.org/Graphics/SVG/1.1/DTD/svg11.dtd">
<svg xmlns="http://www.w3.org/2000/svg" xmlns:xlink="http://www.w3.org/1999/xlink" version="1.1"
   viewBox="94 -151 2414 2169">
   <path fill="currentColor"
      d="M1108 1560q-28 0 -55 -10.5t-44 -33.5l-325 -441q-50 -69 -80.5 -124t-43.5 -102t-13 -92q0 -83 39 -152t105 -111l482 -307q30 -78 100.5 -142.5t163.5 -103t189 -38.5q117 0 214 57t155 152.5t58 212.5q0 116 -57 211.5t-152.5 152.5t-211.5 59l-582 198
q72 37 105.5 84t44.5 97l66 290q9 38 -13.5 71t-62.5 52.5t-82 19.5zM846 1978q-65 0 -110.5 -24t-45.5 -59q0 -23 25 -33.5t88 -12.5q117 -5 192.5 -42t125.5 -118l10 145l157 37l70 -92l-7 -133q8 -3 15.5 -4.5t14.5 -1.5q30 0 47 31.5t17 87.5q0 110 -21.5 164.5
t-65.5 54.5q-41 0 -69.5 -6.5t-56.5 -13t-70 -6.5q-35 0 -61 4t-55.5 9t-76 9t-123.5 4zM1241 1892q-64 0 -109.5 -45.5t-45.5 -109.5q0 -65 45.5 -110t109.5 -45q65 0 110 45t45 110q0 64 -45 109.5t-110 45.5zM1241 1842q44 0 74.5 -31t30.5 -74q0 -44 -30.5 -74.5
t-74.5 -30.5q-43 0 -74 30.5t-31 74.5q0 43 31 74t74 31zM1241 1788q-21 0 -36 -14.5t-15 -35.5t15 -35.5t36 -14.5q20 0 35 14.5t15 35.5t-15 35.5t-35 14.5zM1110 1493q32 0 62.5 -18t25.5 -42l-66 -290q-11 -48 -53 -78t-94.5 -44.5t-95.5 -14.5q-28 0 -50.5 1.5
t-42.5 3.5l269 465q6 10 18.5 13.5t26.5 3.5zM1178 1636l-280 -691l73 22l264 649zM894 832q-37 0 -62.5 -25.5t-25.5 -62.5t25.5 -62.5t62.5 -25.5t62.5 25.5t25.5 62.5t-25.5 62.5t-62.5 25.5zM896 916q12 0 26 -1.5t24 -5.5l551 -187q-56 -28 -97.5 -87.5t-76.5 -162.5
q-30 -89 -49 -133t-36 -58.5t-41 -14.5q-8 0 -19.5 3.5t-19.5 8.5l-277 170q13 1 26 4.5t27 10.5l68 -41q15 -9 30.5 -6.5t22.5 15.5q17 29 -17 49l-157 94q-87 52 -118.5 89t-31.5 87q0 71 47 118.5t118 47.5zM1620 678q99 0 181.5 -47t132 -127.5t49.5 -178.5
t-48.5 -177.5t-129.5 -127t-179 -47.5q-80 0 -158.5 31.5t-139 84.5t-86.5 116q43 15 74.5 63t67.5 152q34 98 67 154.5t73.5 80t95.5 23.5zM1686 510q-79 0 -134.5 -55.5t-55.5 -134.5t55.5 -134.5t134.5 -55.5t134 55.5t55 134.5t-55 134.5t-134 55.5z" />
</svg>