<?xml version="1.0" standalone="no"?>
<!DOCTYPE svg PUBLIC "-//W3C//DTD SVG 1.1//EN" "http://www.w3.org/Graphics/SVG/1.1/DTD/svg11.dtd">
<svg xmlns="http://www.w3.org/2000/svg" xmlns:xlink="http://www.w3.org/1999/xlink" version="1.1"
   viewBox="94 -151 2414 2169">
   <path fill="currentColor"
      d="M1823 1946q-56 -43 -136.5 -73.5t-181.5 -44.5l-296 -41q-194 -27 -275.5 -74t-81.5 -134q0 -95 73.5 -147.5t206.5 -52.5h472q86 0 119 -12.5t33 -41.5q0 -17 -17 -28t-63.5 -20.5t-137.5 -19.5l-451 -53q-107 -13 -195 -38t-139.5 -76.5t-51.5 -140.5q0 -107 94 -159
t288 -52h572q107 0 152 -17t45 -56q0 -36 -42 -50.5t-152 -14.5h-498q-319 0 -477 -72t-158 -220q0 -118 90.5 -193.5t231.5 -75.5q81 0 137 19t85.5 49.5t29.5 67.5q0 46 -54 46h-56q-27 0 -27 24q0 23 27 23h38q-4 38 -96 38q-64 0 -119.5 -6.5t-89.5 -19.5q0 46 37.5 76
t132.5 44t267 14h507q409 0 409 251q0 125 -108 189.5t-320 64.5h-567q-72 0 -102 9t-30 30q0 22 34 34t132 24l445 55q228 28 326.5 83.5t98.5 159.5q0 118 -89 172t-280 53l-489 -3q-63 0 -63 43q0 27 32 43t114 27l309 43q161 22 231 81.5t74 172.5zM1351 1978v-1791h80
v1791h-80zM896 184q32 0 32 -31q0 -32 -32 -32q-31 0 -31 32q0 31 31 31zM1392 247q-73 0 -124 -51t-51 -124q0 -72 51.5 -123t123.5 -51t123 51t51 123q0 73 -50.5 124t-123.5 51z" />
</svg>