<?xml version="1.0" standalone="no"?>
<!DOCTYPE svg PUBLIC "-//W3C//DTD SVG 1.1//EN" "http://www.w3.org/Graphics/SVG/1.1/DTD/svg11.dtd">
<svg xmlns="http://www.w3.org/2000/svg" xmlns:xlink="http://www.w3.org/1999/xlink" version="1.1"
   viewBox="94 -151 2414 2169">
   <path fill="currentColor"
      d="M1232 1978q-63 0 -98.5 -40t-35.5 -116q0 -48 0.5 -73.5t0.5 -52.5q0 -18 -4.5 -24.5t-14.5 -6.5q-20 0 -45.5 16.5t-66.5 16.5q-73 0 -109.5 -47t-36.5 -125q0 -46 -10 -69.5t-35 -23.5q-24 0 -34.5 21.5t-10.5 61.5q0 78 -38.5 123.5t-102.5 45.5q-68 0 -112 -50.5
t-44 -131.5q0 -31 7 -69t13.5 -96.5t6.5 -148.5q0 -76 -11.5 -134t-23 -122t-11.5 -156q0 -185 67.5 -344.5t188.5 -279.5t281.5 -187.5t346.5 -67.5t346.5 67.5t281.5 187.5t188.5 279.5t67.5 344.5q0 81 -10 145.5t-23 127t-23 137t-10 177.5q0 37 3.5 71t3.5 63
q0 82 -41 126t-115 44q-156 0 -156 -196q0 -78 -50 -78q-25 0 -39 20t-14 53q0 97 2 165t2 96q0 61 -36 95.5t-98 34.5q-55 0 -92 -34t-37 -86q0 -41 3 -80t3 -73q0 -25 -14.5 -41t-37.5 -16t-38 16.5t-15 40.5q0 67 8 122.5t8 144.5q0 55 -38.5 90.5t-97.5 35.5zM1232 1903
q26 0 43.5 -17.5t17.5 -43.5q0 -64 -8 -135t-8 -131q0 -54 36.5 -88.5t91.5 -34.5q56 0 91.5 34t35.5 89q0 12 -1.5 44t-3 63.5t-1.5 44.5q0 23 15.5 39t38.5 16q24 0 40 -16t16 -39q0 -14 -1.5 -74.5t-1.5 -167.5q0 -75 36.5 -121t93.5 -46q54 0 90.5 40t36.5 104t17 96.5
t62 32.5q40 0 59 -26.5t19 -77.5q0 -29 -3.5 -61.5t-3.5 -69.5q0 -124 16 -221t32 -183t16 -176q0 -168 -62 -313t-172 -254.5t-256 -170.5t-314 -61t-314 61t-256 170.5t-172 254.5t-62 313q0 76 11.5 138.5t23 126.5t11.5 147q0 49 -6.5 114.5t-13.5 122t-7 79.5
q0 50 19 77t57 27q39 0 55 -27t16 -77q0 -68 33 -107.5t82 -39.5q53 0 83.5 35.5t30.5 102.5q0 66 15 96t62 30q42 0 74 -19t69 -19q26 0 44.5 17t18.5 52q0 46 -0.5 86.5t-0.5 82.5q0 37 14.5 59t44.5 22zM1359 1068q-224 0 -431 -204l53 -59q188 183 379 183
q132 0 271 -84l39 68q-157 96 -311 96zM1015 551q-46 0 -77.5 -37.5t-31.5 -92.5t31.5 -92.5t77.5 -37.5t77.5 37.5t31.5 92.5t-31.5 92.5t-77.5 37.5zM1525 707q-46 0 -77.5 -37.5t-31.5 -92.5t31.5 -92.5t77.5 -37.5t77.5 37.5t31.5 92.5t-31.5 92.5t-77.5 37.5z" />
</svg>