<?xml version="1.0" standalone="no"?>
<!DOCTYPE svg PUBLIC "-//W3C//DTD SVG 1.1//EN" "http://www.w3.org/Graphics/SVG/1.1/DTD/svg11.dtd">
<svg xmlns="http://www.w3.org/2000/svg" xmlns:xlink="http://www.w3.org/1999/xlink" version="1.1"
   viewBox="94 -151 2414 2169">
   <path fill="currentColor"
      d="M1300 1978q395 -303 644.5 -558t367.5 -480t118 -438q0 -126 -42.5 -235.5t-119 -192.5t-179 -129.5t-221.5 -46.5q-121 0 -234 46.5t-200.5 127t-133.5 183.5q-45 -103 -133 -183.5t-201 -127t-234 -46.5q-119 0 -221.5 46.5t-179 129.5t-119 192.5t-42.5 235.5
q0 213 118 438t367.5 480t644.5 558zM228 473q43 -6 121 -12t178 -10.5t209 -7t213 -2.5q88 0 166 2t137 7l31 -78q-61 -6 -147.5 -8.5t-184.5 -2.5q-106 0 -217 2.5t-212.5 7t-181.5 10.5t-124 12zM1300 1883q-365 -283 -597 -524.5t-342.5 -453t-110.5 -403.5
q0 -147 63.5 -265.5t172.5 -188.5t246 -70q128 0 237 53t193.5 151t137.5 232q53 -134 137.5 -232t194 -151t236.5 -53q137 0 246 70t172.5 188.5t63.5 265.5q0 192 -110.5 403.5t-342.5 453t-597 524.5zM521 1213q30 -18 124.5 -66.5t238.5 -116.5t323 -145.5t378 -154.5
t404.5 -142t401.5 -107l-16 -78q-199 43 -407 109t-410 143.5t-383 156t-326.5 147.5t-241.5 118.5t-126 67.5zM327 903q40 -23 145 -77.5t258 -127.5t337.5 -154.5t385 -160t400.5 -143.5t381 -103l-16 -78q-184 39 -386.5 104.5t-405 145t-390 161.5t-342 156.5t-261 129
t-146.5 77.5zM1340 821q63 -7 173 -10t240 -3q146 0 302.5 3.5t285.5 9.5l4 -80q-130 -6 -286.5 -9.5t-304.5 -3.5q-97 0 -183 1.5t-153 5.5z" />
</svg>