<?xml version="1.0" standalone="no"?>
<!DOCTYPE svg PUBLIC "-//W3C//DTD SVG 1.1//EN" "http://www.w3.org/Graphics/SVG/1.1/DTD/svg11.dtd">
<svg xmlns="http://www.w3.org/2000/svg" xmlns:xlink="http://www.w3.org/1999/xlink" version="1.1"
   viewBox="94 -151 2414 2169">
   <path fill="currentColor"
      d="M426 1978q-68 0 -117 -48.5t-49 -115.5v-1751q0 -68 49 -116.5t116 -48.5h1750q68 0 116.5 48.5t48.5 116.5v1751q0 67 -49 115.5t-117 48.5h-1748zM865 1674q0 -55 11.5 -76t59.5 -34q24 -7 45 -15t42 -17q49 -21 110 -39t167 -18q107 0 167.5 18t109.5 39q21 9 42 17
t45 15q48 13 59.5 34t11.5 76h-870zM554 437q23 0 38.5 -18t15.5 -47t-15.5 -60.5t-37.5 -54.5q-22 23 -37 54.5t-15 60.5q0 30 14.5 47.5t36.5 17.5zM799 1739h1002v-64q0 -65 -20 -107t-100 -66q-28 -8 -50.5 -16.5t-43.5 -18.5q-45 -21 -98.5 -36.5t-148.5 -19.5v-129
q157 -8 293 -72.5t238 -171.5t159.5 -245t57.5 -294h-80q0 139 -51 263t-142.5 220t-212.5 153.5t-262 65.5v-141q148 -11 266.5 -89t188 -201.5t69.5 -270.5h-80q0 125 -58.5 230.5t-159 172.5t-226.5 77v-133q88 -10 157.5 -58.5t111 -124t44.5 -164.5h-80q-2 67 -33 124
t-83 94.5t-117 47.5v-377h-80v377q-65 -10 -117 -47.5t-82.5 -94.5t-33.5 -124h-80q3 89 44.5 164.5t111.5 124t157 58.5v133q-125 -10 -226 -77t-159.5 -172.5t-58.5 -230.5h-80q0 147 69.5 270.5t188.5 201.5t266 89v141q-141 -8 -262 -65.5t-212.5 -153.5t-142.5 -220
t-51 -263h-80q0 156 57.5 294t159.5 245t238 171.5t293 72.5v129q-95 4 -148.5 19.5t-98.5 36.5q-21 10 -43.5 18.5t-50.5 16.5q-80 24 -100 66t-20 107v64zM771 437q23 0 38.5 -18t15.5 -47t-15.5 -60.5t-37.5 -54.5q-22 23 -37 54.5t-15 60.5q0 30 14.5 47.5t36.5 17.5z
M990 437q23 0 38.5 -18t15.5 -47t-15.5 -60.5t-37.5 -54.5q-22 23 -37 54.5t-15 60.5q0 30 14.5 47.5t36.5 17.5zM1300 320q23 0 37 -17.5t14 -47.5q0 -29 -15.5 -60.5t-35.5 -54.5q-22 23 -36.5 54.5t-14.5 60.5q0 30 14.5 47.5t36.5 17.5zM1610 437q23 0 37 -17.5
t14 -47.5q0 -29 -15 -60.5t-37 -54.5q-22 23 -37.5 54.5t-15.5 60.5t15.5 47t38.5 18zM1829 437q23 0 37 -17.5t14 -47.5q0 -29 -15 -60.5t-37 -54.5q-22 23 -37.5 54.5t-15.5 60.5t15.5 47t38.5 18zM2046 437q23 0 37 -17.5t14 -47.5q0 -29 -15 -60.5t-37 -54.5
q-22 23 -37.5 54.5t-15.5 60.5t15.5 47t38.5 18z" />
</svg>