<?xml version="1.0" standalone="no"?>
<!DOCTYPE svg PUBLIC "-//W3C//DTD SVG 1.1//EN" "http://www.w3.org/Graphics/SVG/1.1/DTD/svg11.dtd">
<svg xmlns="http://www.w3.org/2000/svg" xmlns:xlink="http://www.w3.org/1999/xlink" version="1.1"
   viewBox="94 -151 2414 2169">
   <path fill="currentColor"
      d="M426 1978q-68 0 -117 -48.5t-49 -115.5v-1751q0 -68 49 -116.5t116 -48.5h1750q68 0 116.5 48.5t48.5 116.5v1750q0 67 -48.5 116t-116.5 49h-1749zM1208 1628q27 0 46.5 -20t19.5 -48v-494q0 -28 26 -28t26 28v494q0 28 19.5 48t46.5 20t46.5 -20t19.5 -48v-790h9
l86 271q7 21 26 31t39 3q21 -8 31 -28t2 -41l-141 -417q-15 -44 -74.5 -72.5t-135.5 -28.5t-135.5 28.5t-74.5 72.5l-141 417q-7 22 2.5 42t30.5 27t39.5 -3t25.5 -31l86 -271h9v790q0 28 19.5 48t46.5 20zM1300 455q64 0 109 -44.5t45 -108.5t-45 -109t-109 -45t-108.5 45
t-44.5 109q0 63 45 108t108 45z" />
</svg>