<?xml version="1.0" standalone="no"?>
<!DOCTYPE svg PUBLIC "-//W3C//DTD SVG 1.1//EN" "http://www.w3.org/Graphics/SVG/1.1/DTD/svg11.dtd">
<svg xmlns="http://www.w3.org/2000/svg" xmlns:xlink="http://www.w3.org/1999/xlink" version="1.1"
   viewBox="94 -151 2414 2169">
   <path fill="currentColor"
      d="M1739 1978q-50 0 -79.5 -19t-29.5 -51q0 -28 23.5 -48t47 -41.5t23.5 -53.5q0 -69 -16 -145t-32.5 -162.5t-16.5 -184.5v-156q0 -80 -2.5 -126t-10 -65.5t-22.5 -19.5q-24 0 -50 17t-43.5 42t-17.5 48q0 30 23.5 55.5t46.5 25.5q13 0 31.5 -13.5t41 -28t45.5 -16.5v210
q-132 -3 -216.5 -68.5t-84.5 -167.5q0 -63 36.5 -119t95.5 -99t128 -67.5t134 -24.5l-3 19q-86 -29 -144 -107t-58 -176q0 -82 40.5 -149t107.5 -107.5t148 -40.5q83 0 150.5 40t108 107.5t40.5 149.5q0 94 -55.5 170.5t-148.5 114.5v-20q58 2 120 27.5t116 68t87.5 97
t33.5 116.5q0 102 -84.5 167.5t-217.5 68.5v-210q24 3 46.5 17t41 27.5t30.5 13.5q23 0 46.5 -25.5t23.5 -55.5q0 -22 -20 -47t-47.5 -42.5t-50.5 -17.5q-31 0 -37 41.5t-6 139.5v137q0 77 29.5 153.5t75.5 146.5t94 130q63 45 96 90.5t33 81.5q0 31 -20 51.5t-52 20.5
q-36 0 -72 -35.5t-95 -131.5q-72 -69 -120 -125t-67 -104q-31 -79 -46 -106t-33 -27q-39 0 -39 80q0 42 7.5 81.5t14.5 93t7 138.5v56.5v58.5q0 45 -37 73t-99 28zM549 1978q-50 0 -79.5 -19t-29.5 -51q0 -28 23.5 -48t47 -41.5t23.5 -53.5q0 -69 -16 -145t-32.5 -162.5
t-16.5 -184.5v-156q0 -80 -2.5 -126t-10 -65.5t-22.5 -19.5q-24 0 -50 17t-43.5 42t-17.5 48q0 30 23.5 55.5t46.5 25.5q13 0 31.5 -13.5t41 -28t45.5 -16.5v210q-132 -3 -216.5 -68.5t-84.5 -167.5q0 -63 36.5 -119t95.5 -99t128 -67.5t134 -24.5l-3 19q-86 -29 -144 -107
t-58 -176q0 -82 40.5 -149t107.5 -107.5t148 -40.5q83 0 150.5 40t108 107.5t40.5 149.5q0 94 -55.5 170.5t-148.5 114.5v-20q58 2 120 27.5t116 68t87.5 97t33.5 116.5q0 102 -84.5 167.5t-217.5 68.5v-210q24 3 46.5 17t41 27.5t30.5 13.5q23 0 46.5 -25.5t23.5 -55.5
q0 -22 -20 -47t-47.5 -42.5t-50.5 -17.5q-31 0 -37 41.5t-6 139.5v137q0 77 29.5 153.5t75.5 146.5t94 130q63 45 96 90.5t33 81.5q0 31 -20 51.5t-52 20.5q-36 0 -72 -35.5t-95 -131.5q-72 -69 -120 -125t-67 -104q-31 -79 -46 -106t-33 -27q-39 0 -39 80q0 42 7.5 81.5
t14.5 93t7 138.5v56.5v58.5q0 45 -37 73t-99 28zM588 254q-64 -36 -104 -109t-40 -156q0 -38 12 -64.5t34 -26.5q43 0 81.5 33.5t63 89.5t24.5 126q0 19 -2.5 41.5t-7.5 48.5zM565 175l47 -21q0 -67 -19 -109.5t-42 -63.5t-36 -21q-19 0 -19 41q0 44 19 95t50 79zM804 254
l-61 -17q-5 -26 -7.5 -48.5t-2.5 -41.5q0 -70 24.5 -126t63 -89.5t81.5 -33.5q22 0 34 26.5t12 64.5q0 83 -40 156t-104 109zM827 175q31 -28 50 -79t19 -95q0 -41 -19 -41q-13 0 -36 22t-42 65t-19 107zM1778 254q-64 -36 -104 -109t-40 -156q0 -38 12 -64.5t34 -26.5
q43 0 81.5 33.5t63 89.5t24.5 126q0 19 -2.5 41.5t-7.5 48.5zM1755 174l47 -20q0 -67 -19 -109.5t-42 -63.5t-36 -21q-19 0 -19 41q0 44 19 94.5t50 78.5zM1994 254l-61 -17q-5 -26 -7.5 -48.5t-2.5 -41.5q0 -70 24.5 -126t63 -89.5t81.5 -33.5q22 0 34 26.5t12 64.5
q0 83 -40 156t-104 109zM2017 174q31 -28 50 -78.5t19 -94.5q0 -41 -19 -41q-13 0 -36 22t-42 65t-19 107z" />
</svg>