<?xml version="1.0" standalone="no"?>
<!DOCTYPE svg PUBLIC "-//W3C//DTD SVG 1.1//EN" "http://www.w3.org/Graphics/SVG/1.1/DTD/svg11.dtd">
<svg xmlns="http://www.w3.org/2000/svg" xmlns:xlink="http://www.w3.org/1999/xlink" version="1.1"
   viewBox="94 -151 2414 2169">
   <path fill="currentColor"
      d="M1720 1736q-56 0 -114 -17.5t-103 -47.5q-78 -52 -123.5 -108.5t-74.5 -112.5t-54 -108.5t-61 -97.5t-90 -75t-122 -59.5t-146 -72.5t-162 -115q-77 -65 -124 -156.5t-47 -197.5q0 -124 63.5 -230.5t169 -172t230.5 -65.5q65 0 130.5 19.5t124.5 58.5q71 47 122.5 110
t94.5 134.5t87.5 145.5t101.5 144q65 79 156 158t227 181q62 46 96.5 123t34.5 145q0 110 -57.5 205.5t-152.5 153.5t-207 58zM437 967l-36 -60l208 -125l46 54zM640 1149l-57 -41l161 -213l56 40zM1227 1716l-38 -55l228 -172l40 56zM1421 1870l-56 -38l152 -234l57 40z
M285 695l-5 -69l290 -20l5 68zM1135 1554l-36 -60l235 -145l36 60zM891 1257l-52 -45l142 -164l59 36zM1629 1978l-65 -18l62 -276l67 18zM1033 1394l-41 -57l226 -168l41 57zM1794 1932l-64 -267l72 -2l57 251zM569 491l-285 -60l14 -66l285 59zM1960 1859l-105 -194
l60 -36l105 195zM1551 1387q-31 0 -51.5 -25t-20.5 -56q0 -30 19 -49.5t44 -19.5q31 0 52 24.5t21 56.5q0 28 -18 48.5t-46 20.5zM1231 989q-19 0 -38 -18t-19 -40q0 -16 11 -27t28 -11q24 0 41 19t17 37q0 16 -11.5 28t-28.5 12zM630 352l-229 -153l39 -57l230 153z
M1720 1656q89 0 166 -47t124 -124t47 -166q0 -55 -28.5 -114t-70.5 -90q-91 -69 -178.5 -144t-155.5 -143t-100 -114q-48 -69 -99.5 -156t-106 -166.5t-113.5 -124.5q-61 -47 -124 -67t-119 -20q-102 0 -189.5 54t-140.5 142t-53 192q0 82 47.5 178.5t162.5 168.5
q71 44 134 74.5t120 58t109 60.5t100 83q39 40 61 86.5t42 96t53.5 101t96.5 102.5q65 52 117.5 65.5t97.5 13.5zM1040 794q-58 0 -109.5 -32.5t-84 -85t-32.5 -111.5q0 -71 47 -115.5t114 -44.5q59 0 111 32t84.5 83.5t32.5 111.5q0 69 -46.5 115.5t-116.5 46.5zM1801 1456
q-28 0 -48.5 -20.5t-20.5 -48.5q0 -29 20.5 -49t48.5 -20q29 0 49 20t20 49q0 28 -20 48.5t-49 20.5zM2161 1762l-173 -183l49 -49l173 181zM1513 1112q-34 0 -59 -25t-25 -59q0 -35 25 -59.5t59 -24.5t58.5 24.5t24.5 59.5q0 34 -24.5 59t-58.5 25zM1364 865q-26 0 -45 -28
t-19 -56q0 -21 11 -37t31 -16q26 0 45 27t19 56q0 21 -11 37.5t-31 16.5zM694 204l-141 -180l53 -41l146 183zM2260 1585l-196 -123l35 -60l197 123zM812 134l-41 -224l67 -12l43 229zM2091 1335l-12 -68l229 -32l12 67zM1780 946l-59 -37l149 -230l58 39zM1616 788l-51 -48
l187 -199l50 49zM1073 139l-70 -11l22 -220l71 7zM2037 1201l-40 -58l219 -163l39 56zM1936 1083l-56 -42l173 -218l54 42zM1474 595l-41 -55l219 -163l40 55zM1350 406l-46 -51l195 -174l45 52zM1247 214l-56 -37l113 -198l60 33z" />
</svg>