<?xml version="1.0" standalone="no"?>
<!DOCTYPE svg PUBLIC "-//W3C//DTD SVG 1.1//EN" "http://www.w3.org/Graphics/SVG/1.1/DTD/svg11.dtd">
<svg xmlns="http://www.w3.org/2000/svg" xmlns:xlink="http://www.w3.org/1999/xlink" version="1.1"
   viewBox="94 -151 2414 2169">
   <path fill="currentColor"
      d="M357 1699q-79 0 -126 -30t-47 -90q0 -32 14 -51.5t31 -34.5q20 -17 36.5 -40.5t16.5 -71.5q0 -20 -8.5 -50.5t-22.5 -70.5q-34 -102 -52.5 -197.5t-18.5 -202.5q0 -206 68 -381t192.5 -305.5t293.5 -203t370 -72.5q275 0 494.5 166t412.5 513q45 81 118 126t142 71
q62 23 105.5 53t43.5 90q0 58 -55 92t-147 54.5t-204 38.5q-87 13 -180.5 30.5t-183.5 42.5q-144 40 -279.5 108.5t-268.5 144.5q-121 69 -243 131t-247 101t-255 39zM941 1719q-39 -56 -61.5 -99t-37.5 -85l76 -26q13 37 32.5 73.5t50.5 83.5zM1064 1876q-13 12 -31 12
q-19 0 -34 -16l-82 -91q-12 -14 -12 -32q0 -20 16 -35l259 -230q14 -12 32 -12q19 0 34 16l81 93q13 16 13 33q0 20 -17 34zM1105 1575q-54 -71 -90 -162l74 -30q34 84 80 142zM474 831q-17 -1 -28 -13.5t-9 -30.5q11 -90 49 -181t93.5 -172t121 -142t132.5 -90
q24 -11 40 -4.5t21 25.5q11 38 -25 52q-57 22 -114.5 76t-107.5 127t-85 155t-46 162q-2 16 -13.5 26.5t-28.5 9.5zM357 1619q121 0 236.5 -36.5t231 -95.5t233.5 -127q134 -77 275 -148.5t295 -114.5q95 -26 191.5 -44t183.5 -31q133 -21 206 -38t102 -33.5t29 -33.5
q0 -20 -18 -34t-81 -35q-43 -15 -97 -40t-107.5 -71t-95.5 -120q-123 -219 -252.5 -360.5t-273 -210t-311.5 -68.5q-185 0 -339.5 66.5t-267.5 186t-175 281t-62 352.5q0 99 18.5 189.5t48.5 181.5q14 42 24.5 79.5t10.5 66.5q0 67 -27 106.5t-47 57.5q-16 15 -20 21t-4 13
q0 40 93 40zM1864 1378q-4 116 -62.5 203.5t-153 135.5t-206.5 48q-70 0 -125.5 -18.5t-102.5 -50.5l56 -73q29 30 74.5 46t97.5 16q93 0 150 -63t57 -157q0 -68 -20 -149t-61 -169l279 -69q49 104 72.5 203.5t23.5 189.5q0 147 -59 261.5t-171 180t-271 65.5
q-88 0 -191.5 -35t-190.5 -101l59 -57q71 54 159 83.5t164 29.5q127 0 227.5 -57t159 -153.5t58.5 -214.5q0 -23 -2.5 -47t-7.5 -48h-13z" />
</svg>