<?xml version="1.0" standalone="no"?>
<!DOCTYPE svg PUBLIC "-//W3C//DTD SVG 1.1//EN" "http://www.w3.org/Graphics/SVG/1.1/DTD/svg11.dtd">
<svg xmlns="http://www.w3.org/2000/svg" xmlns:xlink="http://www.w3.org/1999/xlink" version="1.1"
   viewBox="94 -151 2414 2169">
   <path fill="currentColor"
      d="M1285 1978q-71 0 -121 -49t-50 -119q0 -53 32 -94q-139 -34 -253 -126t-189.5 -224.5t-101.5 -287.5q-38 28 -91 28q-71 0 -121 -49t-50 -119q0 -69 50 -117.5t121 -48.5q53 0 91 28q25 -156 101 -289t190 -225t253 -126q-32 -43 -32 -96q0 -69 50 -117.5t121 -48.5
t121.5 48.5t50.5 117.5q0 54 -33 96q139 34 253 126t190 224.5t101 288.5q39 -27 90 -27q71 0 121.5 48.5t50.5 117.5q0 70 -50.5 119t-121.5 49q-52 0 -90 -28q-25 155 -101 287.5t-189.5 224.5t-252.5 126q32 41 32 94q0 70 -50.5 119t-121.5 49zM1146 1862
q-172 -35 -315.5 -147t-238 -278.5t-120.5 -364.5h68q25 179 110.5 330t213.5 253.5t282 137.5v69zM1285 1900q37 0 63.5 -26.5t26.5 -63.5t-26.5 -63t-63.5 -26t-63 26t-26 63t26 63.5t63 26.5zM511 1028q37 0 63.5 -26t26.5 -63t-26.5 -63t-63.5 -26t-63 26t-26 63t26 63
t63 26zM1145 1452l-53 -41l492 -616l53 41zM1408 1864v-67q159 -32 291.5 -135t220 -257.5t111.5 -338.5h67q-19 152 -79 286t-152 241t-209 177t-250 94zM1285 1641q125 0 234 -55t191.5 -151.5t129.5 -224t47 -272.5t-47 -272t-129.5 -223.5t-191.5 -151.5t-234 -55
q-124 0 -233.5 55t-192 151.5t-129.5 223.5t-47 272t47 272.5t129.5 224t192 151.5t233.5 55zM472 808q25 -200 120.5 -368t241 -281t320.5 -146v68q-157 33 -287.5 136.5t-216.5 256t-111 334.5h-67zM1240 954l-53 -41l458 -561l53 41zM2058 1028q38 0 64 -26t26 -63
t-26 -63t-64 -26q-37 0 -63 26t-26 63t26 63t63 26zM1285 155q37 0 63.5 -26.5t26.5 -63.5t-26.5 -63t-63.5 -26t-63 26t-26 63t26 63.5t63 26.5zM2030 804q-25 -181 -111 -332.5t-215.5 -254.5t-285.5 -136v-67q174 33 318.5 145t240 279t121.5 366h-68z" />
</svg>