<?xml version="1.0" standalone="no"?>
<!DOCTYPE svg PUBLIC "-//W3C//DTD SVG 1.1//EN" "http://www.w3.org/Graphics/SVG/1.1/DTD/svg11.dtd">
<svg xmlns="http://www.w3.org/2000/svg" xmlns:xlink="http://www.w3.org/1999/xlink" version="1.1"
   viewBox="94 -151 2414 2169">
   <path fill="currentColor"
      d="M938 1978q-76 0 -147.5 -10t-128 -33t-89.5 -60.5t-33 -91.5q0 -34 7 -73.5t13.5 -81t6.5 -83.5v-372q0 -149 38 -302.5t120 -325.5q-16 -29 -23 -59t-7 -63q0 -17 9.5 -34t25.5 -29q6 -153 73.5 -256t195 -154.5t313.5 -51.5q113 0 218 26t175 79t77 134
q100 46 161 121.5t89 190.5t28 281v486q0 105 -39.5 158t-141.5 91v235q0 133 -87.5 188.5t-262.5 55.5q-30 0 -70 -2.5t-75 -6.5q-90 22 -198 32.5t-248 10.5zM907 1457q-58 0 -104.5 -23.5t-46.5 -47.5q0 -11 15.5 -16t58.5 -5q113 0 171 3t79 8.5t21 13.5q0 14 -27 30
t-71 26.5t-96 10.5zM1149 1325q-68 -18 -136 -27.5t-124 -9.5q-19 0 -37 1.5t-33 3.5q-19 3 -35 -1t-21 -24q-4 -17 4 -29.5t28 -16.5t43.5 -5.5t49.5 -1.5q67 0 143 10t136 28q23 7 30 20.5t3 27.5q-4 17 -17.5 23t-33.5 1zM936 1898q278 0 430 -34.5t152 -137.5v-436
q0 -115 3.5 -198.5t13 -158.5t28 -160t47.5 -203q-31 -11 -64 -17t-68 -6q-96 0 -151 47.5t-55 107.5q0 50 28.5 90.5t57 83t28.5 100.5q0 64 -41 106.5t-109 42.5q-57 0 -116 -5.5t-92 -12.5q-4 24 -18 37t-40 13q-63 0 -114 -22t-81.5 -55t-30.5 -65q0 -27 40 -45.5
t106 -18.5q65 0 113.5 15.5t87.5 36.5t74.5 36.5t73.5 15.5q87 0 87 -100q0 -74 -56.5 -112.5t-124.5 -38.5q-35 0 -47.5 -8.5t1.5 -27.5l204 -270q-13 -70 -57.5 -114t-105.5 -44q-46 0 -91 36.5t-70 105.5q-33 0 -71 5.5t-74 16.5q-70 138 -111 252t-58.5 215.5
t-17.5 201.5v389q0 52 -13.5 113.5t-13.5 107.5q0 49 52.5 73.5t126 33t137.5 8.5zM869 854q-33 -17 -17 -50q24 -50 58.5 -111t67.5 -113q23 -36 59 -14q14 9 17 24.5t-7 31.5q-28 46 -63 107.5t-61 108.5q-19 34 -54 16zM1653 333q28 -34 50 -80t22 -95q0 -52 -35.5 -90
t-95 -62.5t-133 -36t-149.5 -11.5q-109 0 -201 23t-160 67.5t-106 110t-38 151.5q74 -47 151 -63t177 -16q80 0 173.5 14.5t184 37.5t160.5 50z" />
</svg>