<?xml version="1.0" standalone="no"?>
<!DOCTYPE svg PUBLIC "-//W3C//DTD SVG 1.1//EN" "http://www.w3.org/Graphics/SVG/1.1/DTD/svg11.dtd">
<svg xmlns="http://www.w3.org/2000/svg" xmlns:xlink="http://www.w3.org/1999/xlink" version="1.1"
   viewBox="94 -151 2414 2169">
   <path fill="currentColor"
      d="M514 1613q-72 0 -111 -55.5t-49 -116.5q-18 -118 -32.5 -266.5t-23 -298t-8.5 -270.5q0 -101 60.5 -156t143.5 -77l2 -25q10 -122 89.5 -196t204.5 -74q9 0 18.5 0.5t19.5 2.5q11 -77 85.5 -130t180.5 -53q64 0 116.5 24t89.5 62q37 -38 89.5 -62t116.5 -24q106 0 181 53
t85 130q10 -2 19.5 -2.5t18.5 -0.5q125 0 204.5 74t89.5 196l2 25q83 22 143.5 77t60.5 156q0 124 -8.5 273t-22.5 296.5t-33 265.5q-10 61 -49 116.5t-111 55.5h-49v-80h41q45 0 65 -32t24 -58q13 -87 24 -189.5t19.5 -213t13.5 -217.5q-17 17 -37 32t-41 27v11v11
q0 109 -64.5 179t-184.5 70q-26 0 -54.5 -3.5t-60.5 -10.5q-39 86 -103 132.5t-160 46.5q-81 0 -135.5 -28t-83.5 -65q-28 37 -83 65t-136 28q-96 0 -160 -46.5t-103 -132.5q-31 7 -60 10.5t-55 3.5q-120 0 -184.5 -70t-64.5 -179v-11v-11q-21 -12 -41 -27t-37 -32
q5 107 13.5 217.5t20 213t23.5 189.5q4 26 24 58t65 32h41v80h-49zM1260 1857v-674h80v674h-80zM1096 1978q-97 0 -166.5 -42t-101.5 -107q-7 1 -14 1.5t-15 0.5q-118 0 -191.5 -62.5t-87.5 -156.5q-25 -166 -37.5 -321t-18.5 -320l81 30q4 94 12 198.5t18.5 203.5t19.5 177
q11 92 66.5 132t137.5 40h53l-41 10q-12 -100 -22 -220t-15.5 -240t-5.5 -219h78q0 91 4.5 204.5t13.5 228t23 211.5q14 91 75 131t134 40q71 0 125 -24.5t79 -66.5q25 42 79.5 66.5t124.5 24.5q74 0 135 -40t74 -131q14 -97 23 -211.5t13.5 -228t4.5 -204.5h78
q0 99 -5.5 219t-15 240t-22.5 220l-41 -10h53q82 0 137.5 -40t66.5 -132q10 -78 20 -177t18.5 -203.5t11.5 -198.5l81 -30q-6 165 -18.5 320t-37.5 321q-14 94 -87.5 156.5t-191.5 62.5q-7 0 -14.5 -0.5t-14.5 -1.5q-32 65 -101 107t-167 42q-64 0 -116.5 -17.5t-87.5 -46.5
q-34 29 -87 46.5t-117 17.5zM575 709q-39 0 -66.5 -27.5t-27.5 -66.5q0 -38 27.5 -65.5t66.5 -27.5t66.5 27.5t27.5 65.5q0 39 -27.5 66.5t-66.5 27.5zM770 952q-63 0 -95 -30.5t-32 -76.5q0 -71 71.5 -108.5t179.5 -37.5l69 137q-31 47 -81.5 81.5t-111.5 34.5zM1073 1107
q-53 0 -86.5 -27.5t-33.5 -75.5q0 -35 13 -64.5t46 -48.5l225 90q-28 68 -70 97t-94 29zM1097 740q-28 13 -62.5 6.5t-48.5 -46.5q-15 -42 5 -70.5t48 -38.5q41 -16 90.5 -2t73.5 25q-10 24 -37.5 65.5t-68.5 60.5zM914 492q-95 0 -158 -35.5t-63 -102.5q0 -46 30.5 -75.5
t90.5 -29.5q55 0 99.5 34.5t69.5 81.5zM1527 1107q-52 0 -93.5 -29t-70.5 -97l225 -90q33 19 46 48.5t13 64.5q0 48 -33.5 75.5t-86.5 27.5zM1300 891q-46 0 -65.5 -27.5t-19.5 -56.5q0 -48 32 -91t53 -62q21 19 53 62t32 91q0 29 -19 56.5t-66 27.5zM1086 508
q-20 -8 -33 -28.5t0 -48.5q12 -27 35.5 -32t42.5 5q29 14 48.5 46.5t26.5 50.5q-17 6 -52.5 12.5t-67.5 -5.5zM1300 1025q-139 0 -247 -53.5t-170 -146.5t-62 -211t62 -211t170 -146.5t247 -53.5t247 53.5t170 146.5t62 211t-62 211t-170 146.5t-247 53.5zM1300 947
q117 0 207 -43t141 -118.5t51 -171.5q0 -97 -51 -172t-141 -118t-207 -43q-116 0 -206.5 43t-141.5 118t-51 172q0 96 51 171.5t141.5 118.5t206.5 43zM1081 1238q74 0 129.5 -29t89.5 -81q34 52 89.5 81t129.5 29q77 0 135.5 -42t88.5 -138q37 10 69.5 14t62.5 4
q97 0 145 -44.5t48 -142.5q0 -29 -4 -57q80 -32 123 -88.5t43 -132.5q0 -73 -45.5 -115.5t-128.5 -56.5l-23 -4l-5 -67q-7 -97 -67.5 -155t-163.5 -58q-19 0 -37.5 2.5t-58.5 13.5q2 -11 2.5 -22t0.5 -21q0 -63 -56 -106.5t-142 -43.5q-68 0 -121 31.5t-85 78.5
q-31 -47 -84.5 -78.5t-121.5 -31.5q-85 0 -141.5 43.5t-56.5 106.5q0 10 0.5 21t2.5 22q-40 -11 -58 -13.5t-38 -2.5q-103 0 -163 58t-68 155l-5 67l-23 4q-83 14 -128.5 56.5t-45.5 115.5q0 76 43 132.5t123 88.5q-4 28 -4 57q0 98 48 142.5t145 44.5q30 0 62.5 -4
t69.5 -14q30 96 89 138t135 42zM1300 618q-34 0 -55.5 -18.5t-21.5 -46.5t21.5 -46.5t55.5 -18.5t55.5 18.5t21.5 46.5t-21.5 46.5t-55.5 18.5zM1503 740q-41 -19 -68.5 -60.5t-37.5 -65.5q24 -11 73.5 -25t90.5 2q28 10 48 38.5t5 70.5q-14 40 -48 46.5t-63 -6.5zM1300 458
q-15 -9 -39.5 -31.5t-24.5 -44.5q0 -19 15 -36.5t49 -17.5q35 0 49.5 17.5t14.5 36.5q0 22 -24.5 44.5t-39.5 31.5zM1042 306q-32 -23 -44 -54.5t-12 -67.5q0 -53 32.5 -82t84.5 -29q50 0 87.5 27.5t72.5 110.5zM1830 952q-61 0 -111.5 -34.5t-81.5 -81.5l69 -137
q108 0 179.5 37.5t71.5 108.5q0 46 -32 76.5t-95 30.5zM1514 508q-32 12 -67.5 5.5t-52.5 -12.5q8 -18 27 -50.5t48 -46.5q20 -10 43 -5t35 32q13 28 0 48.5t-33 28.5zM1558 306l-221 -95q35 -83 72.5 -110.5t87.5 -27.5q52 0 84.5 29t32.5 82q0 36 -12 67.5t-44 54.5z
M1686 492l-69 -127q25 -47 69.5 -81.5t99.5 -34.5q60 0 90.5 29.5t30.5 75.5q0 67 -63 102.5t-158 35.5zM2025 709q-39 0 -66.5 -27.5t-27.5 -66.5q0 -38 27.5 -65.5t66.5 -27.5t66.5 27.5t27.5 65.5q0 39 -27.5 66.5t-66.5 27.5z" />
</svg>