<?xml version="1.0" standalone="no"?>
<!DOCTYPE svg PUBLIC "-//W3C//DTD SVG 1.1//EN" "http://www.w3.org/Graphics/SVG/1.1/DTD/svg11.dtd">
<svg xmlns="http://www.w3.org/2000/svg" xmlns:xlink="http://www.w3.org/1999/xlink" version="1.1"
   viewBox="94 -151 2414 2169">
   <path fill="currentColor"
      d="M1765 1978q-230 0 -382 -7.5t-193 -20.5l-63 -320q-22 98 -72 154.5t-116 56.5q-137 0 -216 -268q-47 26 -92 40.5t-80 14.5q-62 0 -106.5 -38t-59.5 -106l77 -18q11 42 33.5 62t58.5 20q35 0 92 -26t128 -75q30 146 74.5 230t90.5 84q32 0 60 -36t45 -94.5t17 -124.5
q0 -6 -1 -14.5l-3 -25.5l111 -39l90 454q66 8 195.5 12.5t311.5 4.5q71 0 146.5 -5t149.5 -13.5t139.5 -20.5t117.5 -27q-52 -123 -120 -216t-160 -196q-37 -41 -75.5 -85.5t-74.5 -90.5q-78 -102 -135.5 -169.5t-108 -115.5t-107 -88t-134.5 -86l25 -140q-110 0 -201.5 19
t-171.5 60t-156 107q-64 55 -115.5 89t-111.5 58t-151 50q-132 37 -196.5 106.5t-64.5 173.5q0 59 36 96.5t93 37.5q73 0 141 -39.5t121 -112.5l64 47q-62 87 -148 136t-178 49q-60 0 -107.5 -28t-74.5 -76.5t-27 -109.5q0 -134 85 -226t244 -134q78 -21 130.5 -41.5
t98.5 -51.5t104 -81q93 -80 186 -125.5t211.5 -64.5t285.5 -19l-34 179q75 48 125.5 84.5t95.5 80t100.5 111t139.5 176.5q33 43 69.5 84.5t72.5 81.5q105 117 193 244.5t133 278.5q-66 22 -143.5 39t-162.5 29t-173.5 18.5t-175.5 6.5zM420 1362l-67 -42q24 -39 24 -71
q0 -22 -13 -48l73 -32q20 36 20 80q0 31 -10 60t-27 53zM970 1543l-20 -78q107 -23 177 -71.5t116 -153.5l73 32q-54 121 -136 181.5t-210 89.5zM1000 1022q-23 0 -40 -17t-17 -40t17 -40t40 -17t40 17t17 40t-17 40t-40 17zM1120 895q-37 0 -61 -22.5t-39 -69.5
q-15 -48 -42 -84t-74 -66.5t-123 -62.5q-136 -58 -234.5 -128t-151.5 -145.5t-53 -147.5q0 -35 18 -57.5t45 -22.5q35 0 70.5 24t78.5 75q51 61 94 89t86 28q18 0 31.5 -8.5t13.5 -34.5q0 -31 -15 -69t-30 -79t-15 -81q0 -39 20.5 -60t47.5 -21q33 0 59 19.5t52 66t58 127.5
q55 137 100 189.5t103 52.5q42 0 71 -23t44 -68t15 -111q0 -52 -5.5 -85.5t-5.5 -79.5q0 -55 18 -98.5t71 -43.5q46 0 70 36t37 127q10 70 25 96t41 26t46 -25t48 -90q35 -82 66.5 -115.5t71.5 -33.5q35 0 54.5 22t19.5 51q0 24 -9 50t-9 46q0 19 11 30t30 11q29 0 45 -27.5
t30 -63t34.5 -63t57.5 -27.5q62 0 62 64q0 23 -8.5 52t-8.5 46q0 13 7.5 19.5t17.5 6.5q21 0 45.5 -26t52.5 -51.5t58 -25.5q22 0 36 18t14 51q0 59 -52 128.5t-142 140.5t-206.5 135.5t-248 114t-263.5 76.5q-33 7 -64.5 29t-49.5 51q-40 64 -78 91t-88 27z" />
</svg>