<?xml version="1.0" standalone="no"?>
<!DOCTYPE svg PUBLIC "-//W3C//DTD SVG 1.1//EN" "http://www.w3.org/Graphics/SVG/1.1/DTD/svg11.dtd">
<svg xmlns="http://www.w3.org/2000/svg" xmlns:xlink="http://www.w3.org/1999/xlink" version="1.1"
   viewBox="94 -151 2414 2169">
   <path fill="currentColor"
      d="M226 1978v-890h238v80h-158v730h1988v-730h-158v-80h238v890h-2148zM571 1838v-576l35 -53l35 53v576h-70zM915 1928v-227l41 -57q-44 -11 -44 -57q0 -26 16 -54t44 -53q29 25 44 53t15 54q0 47 -43 57l41 57v227h-114zM434 1968v-1409h344v1409h-344zM512 1910h188
v-1273h-188v1273zM473 1074v-78h266v78h-266zM1138 1928v-227l46 -63l-3 12q-46 -44 -46 -111q0 -61 46 -113t119 -77q74 25 119.5 77t45.5 113q0 67 -46 111l-3 -12l46 63v227h-324zM761 1183v-80h166v80h-166zM881 1928v-932h838v932h-80v-854h-678v854h-80zM1571 1928
v-227l41 -57q-43 -10 -43 -57q0 -26 15.5 -54t43.5 -53q29 25 44.5 53t15.5 54q0 46 -44 57l41 57v227h-114zM915 1281v-70h770v70h-770zM510 454h66v-123h-66v123zM466 633l-64 -87v-93h46v-210h315v210h45v93l-62 87h-280zM636 454h66v-123h-66v123zM1521 1239v-40
q0 -33 18 -53t46 -20t45.5 20.5t17.5 52.5v40h-127zM449 324q-29 -44 -29 -137q0 -76 51.5 -144t123.5 -87h22q74 19 124.5 87t50.5 144q0 94 -28 137h-315zM501 248h211q2 -12 3 -27.5t1 -33.5q0 -48 -32 -94t-78 -61q-45 15 -77.5 61.5t-32.5 93.5q0 34 5 61zM1959 1838
v-576l35 -53l35 53v576h-70zM889 1100q-19 -37 -34.5 -100.5t-15.5 -107.5q0 -122 120 -245t323 -209h36q203 86 323 209t120 245q0 44 -15 107.5t-35 100.5l-67 -36q16 -29 28.5 -82.5t12.5 -89.5q0 -94 -104.5 -198t-280.5 -181q-176 77 -280.5 181t-104.5 198
q0 36 12.5 89.5t28.5 82.5zM1673 1183v-80h166v80h-166zM606 -22q-16 0 -27.5 -12t-11.5 -29q0 -16 11.5 -27.5t27.5 -11.5t27.5 11.5t11.5 27.5q0 17 -11.5 29t-27.5 12zM1822 1968v-1409h344v1409h-344zM1900 1910h188v-1273h-188v1273zM1300 544q-29 0 -50.5 -21.5
t-21.5 -50.5t21.5 -50t50.5 -21t50.5 21t21.5 50t-21.5 50.5t-50.5 21.5zM1861 1074v-78h266v78h-266zM1315 415q-81 0 -138 -57t-57 -138q0 -80 57 -137t138 -57q32 0 32 11q0 3 -9 6l-8 2q-42 10 -68.5 47t-26.5 83q0 58 40 98t98 40q42 0 76 -21.5t48 -56.5l2 -5
q2 -8 6 -7.5t4 7.5q0 76 -57 130.5t-137 54.5zM1396 266q-2 0 -8 -7l-30 -44l-51 5q-12 1 -12 -4q0 -4 4 -8l33 -43l-20 -45q-6 -14 -6 -16t2 -2t9 2t28 11l24 10l30 -29q18 -17 22 -17q2 0 2 16v7.5t-1 23.5l-1 22l49 28q9 5 9 7q0 3 -17 7l-48 13l-13 53q-2 10 -5 10z
M1898 454h66v-123h-66v123zM1854 633l-62 -87v-93h45v-210h315v210h46v93l-64 87h-280zM2024 454h66v-123h-66v123zM1836 324q-28 -43 -28 -137q0 -76 51 -144t124 -87h22q72 19 123.5 87t51.5 144q0 93 -29 137h-315zM1888 248h211q5 -27 5 -61q0 -47 -32.5 -93.5
t-77.5 -61.5q-46 15 -78 61t-32 94q0 18 1.5 33.5t2.5 27.5zM1994 -22q-16 0 -27.5 -12t-11.5 -29q0 -16 11.5 -27.5t27.5 -11.5q17 0 28 11.5t11 27.5q0 17 -11 29t-28 12zM1334 1239v-40q0 -33 18 -53t46 -20t45.5 20.5t17.5 52.5v40h-127zM1139 1239v-40q0 -33 18 -53
t46 -20t45.5 20.5t17.5 52.5v40h-127zM952 1239v-40q0 -33 18 -53t46 -20t45.5 20.5t17.5 52.5v40h-127z" />
</svg>