<?xml version="1.0" standalone="no"?>
<!DOCTYPE svg PUBLIC "-//W3C//DTD SVG 1.1//EN" "http://www.w3.org/Graphics/SVG/1.1/DTD/svg11.dtd">
<svg xmlns="http://www.w3.org/2000/svg" xmlns:xlink="http://www.w3.org/1999/xlink" version="1.1"
   viewBox="94 -151 2414 2169">
   <path fill="currentColor"
      d="M926 1227q-85 0 -143 -60t-58 -144q0 -83 60 -141t145 -58q40 0 78 16q26 -53 80 -85t120 -32q14 0 27.5 1.5t26.5 3.5q88 -75 205.5 -138.5t247 -110.5t256 -73.5t232.5 -26.5q142 0 208.5 47t66.5 130q0 73 -77 138t-211 114.5t-306.5 77.5t-363.5 28q-31 0 -48 2
t-27 7l-43 -45q29 -16 52 -22.5t69 -6.5q120 0 244 -17t236.5 -46.5t201.5 -67.5t141 -79.5t52 -82.5q0 -54 -45 -76.5t-150 -22.5q-155 0 -324.5 42.5t-323.5 118t-263 174.5q-22 -5 -42.5 -6.5t-39.5 -1.5q-58 0 -103.5 28.5t-80.5 96.5q-40 -23 -88 -23q-59 0 -101 37
t-42 100q0 55 40.5 95t106.5 40q62 0 110.5 -45.5t58.5 -111.5l25 86q-18 62 -81.5 101t-128.5 39zM417 1661l-79 -26l40 -128q30 -97 54.5 -141t49.5 -63l319 -238q19 1 30 22.5t11 37.5l-304 240q-21 16 -37 53t-49 143zM588 1789l-55 -58l272 -256l25 -286l81 12l-30 308
zM433 1121q-86 0 -156.5 -18t-112.5 -51.5t-42 -81.5q0 -22 11.5 -36.5t29.5 -14.5q31 0 44 30t13 67q45 22 100 33t116 11q73 0 156.5 -18t180.5 -54l23 55q-87 40 -181 59t-182 19zM700 937q-138 0 -257.5 -38t-192.5 -98.5t-73 -125.5q0 -32 14 -48t33 -16q20 0 35 18.5
t15 45.5q0 21 -11 38q56 83 193.5 123.5t349.5 40.5l4 60h-110zM743 1928l-56 -58l328 -322l98 -562q4 -20 18.5 -30t31.5 -10q37 0 49 30l45 112l32 -102q5 -15 22 -24.5t36 -9.5q20 0 34 11t18 37l65 426l392 441l-58 53l-408 -459l-60 -390q-12 40 -35 60t-49 20
q-19 0 -38 -13t-34 -40l-91 488zM955 1080q-23 0 -40 -17t-17 -40t17 -40t40 -17t40 17t17 40t-17 40t-40 17zM942 874l-64 -16l42 -127q13 -40 37 -40q14 0 37.5 14t69.5 48v-129q0 -32 17 -51t42 -19q32 0 59 40l60 90l19 -132q6 -44 37 -44q16 0 35 12l139 86l-66 42
l-90 -64l-16 139l-97 31l-77 -133v164l-77 45l-74 -60zM2442 1566l-516 -243l-413 -530l-117 244l-48 -45l108 -230q13 -26 25 -40t30 -14q15 0 30.5 10t31.5 30l400 512l503 234zM1402 882q0 -26 -26.5 -48t-64 -35.5t-69.5 -13.5q167 -219 283 -368t192.5 -242t124 -142.5
t77.5 -67t54 -17.5q39 0 39 49q0 45 -68 139t-220 266q134 -111 210.5 -173t117.5 -86.5t66 -24.5q24 0 38 12.5t14 33.5q0 42 -77 129.5t-246 231.5t-445 357z" />
</svg>