<?xml version="1.0" standalone="no"?>
<!DOCTYPE svg PUBLIC "-//W3C//DTD SVG 1.1//EN" "http://www.w3.org/Graphics/SVG/1.1/DTD/svg11.dtd">
<svg xmlns="http://www.w3.org/2000/svg" xmlns:xlink="http://www.w3.org/1999/xlink" version="1.1"
   viewBox="94 -151 2414 2169">
   <path fill="currentColor"
      d="M416 1778q-105 0 -189.5 -50t-134.5 -133.5t-50 -185.5q0 -90 43 -166.5t110 -128.5l-38 -6q-7 -2 -7 -7q0 -13 41 -32t95.5 -35t92.5 -19q-18 -15 -36 -15q-78 0 -124.5 -45.5t-46.5 -118.5q0 -92 37 -176t101 -150t145 -104.5t169 -38.5q32 0 75 11.5t77 27.5
q-54 62 -92 107.5t-69 87.5t-65 97l74 4q164 9 290.5 49t220.5 97l137 -90l159 -61q122 51 213 51q93 0 165 -45t116 -127l368 -59l-103 93q-47 42 -90.5 56.5t-88 20.5t-95 19.5t-110.5 51t-134 117.5l58 92q-34 30 -57.5 59.5t-49.5 79.5l63 39q31 -53 80 -96t106 -68.5
t112 -25.5q18 0 18 11q0 8 -8 14q-34 27 -72.5 66t-71 80.5t-48.5 76.5l-84 241q0 32 -14.5 69.5t-53.5 63.5t-112 26h-735q-17 -61 -38 -113q-31 124 -127.5 206t-221.5 82zM406 1640q61 0 111 -31t80 -82t30 -112q0 -88 -60 -153q-43 29 -70 74q29 35 29 78q0 49 -35 84.5
t-85 35.5q-49 0 -84 -35.5t-35 -84.5q0 -37 21 -67t55 -43q0 -44 -3 -65.5t-14 -37.5q-72 21 -118 80.5t-46 133.5q0 61 30.5 112t81.5 82t112 31zM406 1462q20 0 33.5 -14t13.5 -33q0 -10 -4 -19l103 -297q-10 -15 -22.5 -25t-36.5 -20l-110 319q-24 14 -24 42q0 19 14 33
t33 14zM216 921l-27 -41l126 -71l23 -72h-127v-49h195l-51 156zM345 642q-35 0 -82.5 -31.5t-73.5 -71.5l165 -194q9 -10 20 -10q19 0 19 17l9 206q2 36 -15 60t-42 24zM862 1525h694q17 0 24.5 -16.5t7.5 -24.5q0 -19 -19 -27l-243 -107h-214q-83 -69 -132 -160l244 -178
q-88 -69 -161.5 -113.5t-154.5 -69.5t-191 -34.5t-272 -9.5q16 -55 41.5 -107.5t66 -109t100.5 -122.5q-7 -1 -13.5 -1.5t-13.5 -0.5q-85 0 -155 39.5t-120.5 101t-77.5 128.5t-27 123q0 42 24 63t73 21q105 0 202.5 77t179 213t137.5 315zM1192 1297q23 0 40.5 -15.5
t20.5 -37.5q21 8 40 8q40 0 68 -28t28 -68q0 -39 -28.5 -67t-67.5 -28t-67.5 28t-28.5 67q0 6 2 18q-1 -1 -3 -1h-4q-25 0 -44 18t-19 44q0 25 19 43.5t44 18.5zM254 632q0 -36 36.5 -95.5t98 -130.5t137.5 -142t155 -129q23 -17 44 -27t45 -10h167q34 0 45 8t11 27
q0 21 -23 53.5t-70 83.5l-154 170l-62 -30l180 -197q17 -19 17 -31q0 -19 -22 -19h-96q-10 0 -23.5 8.5t-35.5 25.5q-100 76 -183.5 162.5t-134.5 154.5zM762 726l-241 -24l64 -99l165 9q-1 -9 -1.5 -18t-0.5 -18q0 -35 14 -56t45 -21q10 0 15 1v-48q69 -35 136.5 -64
t137.5 -47q13 11 20 29t9 36l-253 118l26 86zM1145 902l-47 -65l136 -99l281 -59q9 -2 10 -10.5t-7 -12.5q-44 -25 -99.5 -50.5t-112 -49.5t-105.5 -41q-68 19 -134 46t-132 60q-65 87 -196 143l-136 -38q207 -57 278 -167q76 -39 156.5 -71t165.5 -55q58 19 129 49t139 62
t117 58q22 11 31.5 30t9.5 41q0 28 -15.5 49t-46.5 28l-300 63zM2075 1778q-113 0 -203.5 -65.5t-130.5 -168.5l148 -21q30 52 79 84.5t107 32.5q101 0 167 -66.5t66 -164.5q0 -10 -0.5 -19.5t-2.5 -19.5l127 -58q6 23 9.5 47t3.5 50q0 102 -50 185.5t-134 133.5t-186 50z
M1906 1601l-281 -12q-28 -2 -43 -21.5t-15 -41.5q0 -32 33 -48l833 -405q53 36 85 96.5t40 138.5zM1891 1523l579 -263q-17 -61 -47 -96l-716 350zM1717 1421q0 -107 49.5 -192t131 -134.5t177.5 -49.5q79 0 147 28.5t119 79.5l-142 73q-56 -34 -124 -34q-81 0 -140.5 56
t-69.5 143l-92 30h-56zM1845 1048q-37 0 -70 -26l-120 -91v-93l159 132q13 10 30 10q11 0 20 -6.5t9 -21.5q0 -9 -11 -29.5t-36 -57t-67 -92.5l43 -55l116 173q20 30 20 62q0 40 -27.5 67.5t-65.5 27.5zM1871 935l-28 -76q141 -61 255.5 -117.5t232.5 -120.5q10 -5 20 -14.5
t10 -17.5t-12 -10t-27 2l-141 33l-16 -76l181 -33q50 -9 73.5 10t23.5 51q0 34 -28 74t-87 72q-98 54 -206.5 107.5t-250.5 115.5zM2345 903l-184 -156l117 -48l106 138z" />
</svg>