<?xml version="1.0" standalone="no"?>
<!DOCTYPE svg PUBLIC "-//W3C//DTD SVG 1.1//EN" "http://www.w3.org/Graphics/SVG/1.1/DTD/svg11.dtd">
<svg xmlns="http://www.w3.org/2000/svg" xmlns:xlink="http://www.w3.org/1999/xlink" version="1.1"
   viewBox="94 -151 2414 2169">
   <path fill="currentColor"
      d="M1065 1329q-26 0 -42.5 -14t-16.5 -41v-28q0 -26 16.5 -41.5t41.5 -15.5l669 -2q-51 -27 -73 -69t-22 -112q0 -82 23 -194t58.5 -229.5t70.5 -215.5q13 -35 33.5 -53.5t48.5 -18.5q86 0 86 72q0 29 -6 94.5t-16 152t-21.5 179.5t-23.5 178t-22.5 147.5t-17.5 86.5
q2 10 3 23.5t1 24.5q0 43 -12.5 58t-35.5 15zM868 1723l-384 -125q-19 -6 -25 -20.5t-1 -30.5q6 -19 22.5 -24t34.5 1l335 109l64 -58l40 73zM1007 1978q-51 0 -87 -36t-36 -87t36 -87t87 -36t87 36t36 87t-36 87t-87 36zM1007 1912q23 0 40 -17t17 -40t-17 -40t-40 -17
t-40 17t-17 40t17 40t40 17zM1007 1865q-25 0 -25 -27v-207h50v207q0 27 -25 27zM1008 1687q-66 0 -103 -41t-35.5 -93.5t49.5 -87.5l187 -137l15 89l-156 113q-14 10 -15 28.5t11 33.5t37 15h157l15 80h-162zM1179 1720q-49 0 -56 -51l-53 -381l77 -16l53 368h114l-29 80
h-106zM1468 1978q-67 0 -121.5 -32.5t-87 -87t-32.5 -120.5q0 -67 32.5 -121.5t87 -87t121.5 -32.5t121.5 32.5t87 87t32.5 121.5q0 66 -32.5 120.5t-87 87t-121.5 32.5zM1468 1881q60 0 102 -42t42 -101q0 -60 -42 -102t-102 -42t-102 42t-42 102q0 59 42 101t102 42z
M1468 1779q-18 0 -30 -12t-12 -29q0 -18 12 -30t30 -12t30 12t12 30q0 17 -12 29t-30 12zM2021 1978q-51 0 -87 -36t-36 -87t36 -87t87 -36t87 36t36 87t-36 87t-87 36zM2021 1912q23 0 40 -17t17 -40t-17 -40t-40 -17t-40 17t-17 40t17 40t40 17zM1669 1719l-45 -80h64
l48 -373l78 15l-49 387q-3 22 -19 36.5t-39 14.5h-38zM1743 1645v-80h281v80h-281zM2021 1865q-25 0 -25 -26v-303q0 -20 17 -20h16q17 0 17 20v303q0 26 -25 26zM1082 876q0 -98 -22 -129q-11 -16 -11 -34q0 -24 18 -42t42 -18t42 18t18 42q0 9 -3 17.5t-8 16.5
q-22 36 -22 129h-54zM1420 1271q-53 -100 -53 -212q0 -117 57 -244l72 43q-49 105 -49 201q0 50 17 100t57 112h-101zM1039 936l-137 -126q-22 -19 -7 -38q15 -20 41 0l112 84h102l75 -60h543v79h-516l-78 61h-135zM1921 331l-57 -22l25 -121l57 22zM1950 234l-83 -15
q-37 -7 -32 -38l44 -249q3 -17 16.5 -26.5t30.5 -7.5l83 12q17 2 27 16.5t7 31.5l-45 251q-3 17 -17 22.5t-31 2.5z" />
</svg>