<?xml version="1.0" standalone="no"?>
<!DOCTYPE svg PUBLIC "-//W3C//DTD SVG 1.1//EN" "http://www.w3.org/Graphics/SVG/1.1/DTD/svg11.dtd">
<svg xmlns="http://www.w3.org/2000/svg" xmlns:xlink="http://www.w3.org/1999/xlink" version="1.1"
   viewBox="94 -151 2414 2169">
   <path fill="currentColor"
      d="M1153 1769q-87 6 -144.5 -21.5t-109.5 -86.5q-100 -116 -197.5 -181.5t-236.5 -65.5h-143q-31 0 -49 -12.5t-18 -34.5q0 -24 26.5 -61t70 -76t95.5 -68.5t102 -37.5q0 -121 38 -241t105 -226t153 -183l256 118q-61 173 -86.5 295t-25.5 197q0 140 69.5 224t184.5 84
q89 0 140 -42t51 -91q0 -78 -26.5 -172t-53.5 -158h740q48 39 101.5 118.5t100 176t75.5 187t29 152.5l-662 16l-138 125q-22 19 -49 29.5t-57 12.5zM517 1978q-87 0 -159 -42.5t-115 -114t-43 -158.5q0 -88 43 -159t115 -113t159 -42t158 42t113 113t42 159q0 87 -42 158.5
t-113 114t-158 42.5zM517 1888q62 0 112.5 -30.5t80.5 -81.5t30 -113q0 -94 -65 -159t-158 -65q-94 0 -160.5 65.5t-66.5 158.5q0 62 30.5 113t82.5 81.5t114 30.5zM520 1746q-35 0 -60.5 -25.5t-25.5 -59.5q0 -35 25 -60t61 -25q35 0 59.5 25t24.5 60t-24.5 60t-59.5 25z
M566 1658l-66 -45l137 -225l68 43zM1148 1689l340 -23q38 -3 57 -20l161 -146l603 -15q-14 -57 -41 -124.5t-61.5 -135.5t-72 -125t-71.5 -91h-595q22 69 34 134.5t12 115.5q0 30 -4.5 76.5t-14.5 93.5t-28.5 79t-47.5 34l-239 13q-64 3 -114.5 -31t-85.5 -98.5t-53 -151.5
t-18 -190q0 -82 24 -197.5t69 -252.5l-141 -64q-118 123 -177 279.5t-59 341.5q-64 0 -123.5 25.5t-115.5 87.5q-13 14 -10 22t21 8h59q105 0 186 29.5t156 90t160 153.5q47 51 88 68.5t102 13.5zM1976 1978q-87 0 -160 -43t-116.5 -115t-43.5 -159q0 -62 23 -117h100
q-33 55 -33 117t31.5 113.5t83.5 82.5t115 31t114 -30.5t81.5 -82t30.5 -114.5q0 -61 -32 -117h99q11 27 17 56t6 61q0 87 -42.5 159t-114 115t-159.5 43zM1976 1747q-35 0 -60.5 -25.5t-25.5 -60.5t25.5 -60.5t60.5 -25.5t60.5 25.5t25.5 60.5t-25.5 60.5t-60.5 25.5z
M801 355q22 0 37.5 -23t15.5 -55t-15.5 -54.5t-37.5 -22.5q-23 0 -38.5 22t-15.5 55q0 32 16 55t38 23zM1093 614l-97 -42l52 -113l89 44zM1123 536l-268 -131h-50q-49 0 -78 -38.5t-29 -93.5q0 -52 30 -85t65 -34l261 -8l70 79l68 28q32 13 46 31t14 50q0 39 -28.5 60
t-49.5 21zM1081 427l49 -115l-60 -26l-52 -60l-119 3q6 22 6 50q0 13 -3 29t-11 28zM1355 1005q-25 0 -39.5 -12t-14.5 -32v-93q0 -22 14.5 -36.5t36.5 -14.5h309l199 -97h239q22 0 36.5 14.5t14.5 36.5v163q0 25 -14.5 44t-33.5 19zM1225 371v-89h193q48 0 48 47
q0 10 -5 22t-15 20h-221zM1140 266l-60 -2v-202q0 -37 18 -74.5t44 -63.5t51 -26q43 0 43 110q0 57 -9 93t-23 36q-20 0 -47 -14t-31 -30l14 -26v199zM2250 1159l-102 -158l89 -19q12 -3 25 19.5t23 53.5t13 56.5t-6 29.5z" />
</svg>