<?xml version="1.0" standalone="no"?>
<!DOCTYPE svg PUBLIC "-//W3C//DTD SVG 1.1//EN" "http://www.w3.org/Graphics/SVG/1.1/DTD/svg11.dtd">
<svg xmlns="http://www.w3.org/2000/svg" xmlns:xlink="http://www.w3.org/1999/xlink" version="1.1"
   viewBox="94 -151 2414 2169">
   <path fill="currentColor"
      d="M1463 557l599 868l264 -584l-549 -827zM833 533h140l90 60l-175 131v1244h-224v-1280l-129 -240l218 -76zM787 601l-71 -138l-76 26l98 180v1225h76v-1207l106 -86h-133zM776 519h617l313 -541h-965l-353 541h229l41 80h-267l301 433v140l-426 -612l431 -662h1100
l621 935l-325 715l-665 430h-1246l516 -344v296h153v-672l124 171h160l-49 88v305l615 -277v-117h257l-564 -829h-507zM1730 1203v361l-670 294v-329l174 -330zM1676 1257l-415 -4l-147 291v232l562 -248v-271zM1101 1591l-22 -49l607 -295l22 49zM1473 1504q-26 0 -45 -19
t-19 -45q0 -27 19 -46t45 -19t45 19t19 46q0 26 -19 45t-45 19zM1318 1737q-26 0 -45 -19t-19 -45q0 -27 19 -46t45 -19t45 19t19 46q0 26 -19 45t-45 19zM1372 1337q-26 0 -45 -19t-19 -45q0 -27 19 -46t45 -19t45 19t19 46q0 26 -19 45t-45 19zM1003 605l68 -40l222 330
l-278 582l-72 -36l259 -540zM1426 566l249 372h-426l-249 -372h426z" />
</svg>