<?xml version="1.0" standalone="no"?>
<!DOCTYPE svg PUBLIC "-//W3C//DTD SVG 1.1//EN" "http://www.w3.org/Graphics/SVG/1.1/DTD/svg11.dtd">
<svg xmlns="http://www.w3.org/2000/svg" xmlns:xlink="http://www.w3.org/1999/xlink" version="1.1"
   viewBox="94 -151 2414 2169">
   <path fill="currentColor"
      d="M1300 1978q-212 0 -398.5 -81t-328.5 -224.5t-222.5 -332t-80.5 -402.5t80.5 -402.5t222.5 -332t328.5 -224.5t398.5 -81t398.5 81t328.5 224.5t222.5 332t80.5 402.5t-80.5 402.5t-222.5 332t-328.5 224.5t-398.5 81zM1486 1613q-47 0 -98 -47l-322 -291h-247v-674h247
l322 -291q51 -47 98 -47q43 0 69 30.5t26 89.5v1110q0 58 -26 89t-69 31zM1479 1527q22 0 22 -35v-1108q0 -35 -22 -35q-17 0 -38 20l-343 312h-199v514h199l343 312q21 20 38 20zM1300 1898q196 0 368 -75t303 -207.5t205 -306t74 -371.5t-74 -371.5t-205 -306t-303 -207.5
t-368 -75t-368 75t-303 207.5t-205 306t-74 371.5t74 371.5t205 306t303 207.5t368 75zM1984 1665l-1417 -1405l49 -49l1417 1405zM1561 1082v-289q45 0 68.5 11t23.5 49v169q0 38 -23.5 49t-68.5 11z" />
</svg>