<?xml version="1.0" standalone="no"?>
<!DOCTYPE svg PUBLIC "-//W3C//DTD SVG 1.1//EN" "http://www.w3.org/Graphics/SVG/1.1/DTD/svg11.dtd">
<svg xmlns="http://www.w3.org/2000/svg" xmlns:xlink="http://www.w3.org/1999/xlink" version="1.1"
   viewBox="94 -151 2414 2169">
   <path fill="currentColor"
      d="M1319 1978q-237 0 -431.5 -74.5t-335 -208.5t-216.5 -315t-76 -395q0 -228 85.5 -425t234.5 -346t342 -232.5t407 -83.5q216 0 400 86.5t321 240t213.5 355t76.5 431.5q0 220 -75 398.5t-211.5 305.5t-323.5 195t-411 68zM1290 1605q128 0 240 -47.5t197 -131.5t133 -196
t48 -241q0 -131 -49 -251t-135 -213.5t-198.5 -148t-240.5 -54.5q-119 0 -226.5 48.5t-190.5 136.5t-130.5 206t-47.5 257q0 133 44.5 248.5t125.5 202.5t190.5 135.5t239.5 48.5zM1299 1320q-101 0 -185.5 -51.5t-135 -138.5t-50.5 -192t50 -192t134 -139t185 -52
q102 0 187 52t136 139t51 192q0 104 -50.5 191t-135 139t-186.5 52zM1297 1245q81 0 149 -42t109 -112t41 -153t-41 -153t-109 -112.5t-149 -42.5q-80 0 -147 42t-107 112t-40 154q0 83 40 153t107 112t147 42zM1299 1097q-62 0 -108 -47.5t-46 -111.5q0 -65 45.5 -112.5
t107.5 -47.5q63 0 109 47.5t46 112.5q0 64 -46 111.5t-108 47.5zM1637 1780q144 -57 258 -161t187 -241t93 -291q3 -23 -7.5 -37t-29.5 -14q-16 0 -28 10t-15 30q-20 138 -85 263.5t-166.5 222t-232.5 148.5q-21 8 -28.5 23t-2.5 30t20.5 20t36.5 -3zM699 370q29 21 57 -11
q74 -86 200 -148t266 -72q20 -2 30.5 -12t10.5 -26t-10.5 -25.5t-34.5 -9.5q-92 0 -191.5 34t-187 89t-143.5 120q-15 18 -12.5 34.5t15.5 26.5z" />
</svg>