<?xml version="1.0" standalone="no"?>
<!DOCTYPE svg PUBLIC "-//W3C//DTD SVG 1.1//EN" "http://www.w3.org/Graphics/SVG/1.1/DTD/svg11.dtd">
<svg xmlns="http://www.w3.org/2000/svg" xmlns:xlink="http://www.w3.org/1999/xlink" version="1.1"
   viewBox="94 -151 2414 2169">
   <path fill="currentColor"
      d="M1356 1727q-97 0 -197 -24t-151 -91q-85 0 -129 -21.5t-44 -62.5l-233 -143l-22 -65q-70 -34 -117 -102t-50 -144q-64 -49 -106 -103.5t-53 -103.5q-25 -27 -38.5 -65.5t-13.5 -77.5q0 -51 17.5 -85t48.5 -34q14 0 35 13l57 34q2 -70 30 -118.5t71 -72.5t89 -19
q2 -5 4.5 -10.5t4.5 -8.5q-55 0 -82.5 -29t-27.5 -75q0 -50 33.5 -81t81.5 -31h218q4 -26 28 -47.5t55 -21.5q17 0 30 5t29 16l72 48h130q115 -55 256 -55q92 0 182 23.5t172 79.5v-32q0 -39 30 -67t71 -28q44 0 95.5 35.5t104.5 111.5q71 19 118 61t59 93q84 33 134 102.5
t50 159.5q0 52 -13 100t-42 95q7 28 7 62q0 86 -49 152q2 9 2 22q0 58 -38.5 108t-106.5 79q0 50 -44.5 103t-114.5 83q-52 22 -84.5 37t-60 30.5t-65.5 40.5q-109 70 -217.5 97t-215.5 27zM477 1748q-15 0 -15 -17q0 -83 23.5 -157t63 -127.5t86.5 -74.5l24 29
q-73 4 -121.5 6.5t-85.5 3.5q-49 1 -100.5 13.5t-78.5 12.5q-17 0 -17 -11q0 -39 39 -78t98.5 -64.5t120.5 -25.5q15 0 30 2t30 7l152 139l110 49q2 61 -33.5 114t-92 93.5t-119 63t-114.5 22.5zM865 1149q-73 -2 -131 -23.5t-99 -69.5l58 -46q30 34 72 48.5t100 15.5v75z
M1506 1425h-19.5t-19.5 -1v-74q12 1 23.5 1h22.5q68 0 124.5 -13t105.5 -38l33 67q-57 26 -124.5 42t-145.5 16zM1286 953q20 -17 39.5 -23t44.5 -6q-10 -103 -53.5 -191t-107.5 -142t-134 -54q-67 0 -123 48.5t-89 129.5t-33 178q46 29 165 44.5t291 15.5zM1353 1647
q103 0 204 -25.5t197 -86.5q29 -19 62 -38t69.5 -38t75.5 -37q65 -30 91.5 -64.5t26.5 -66.5v-17t-2 -18q70 -17 107 -58t37 -95v-14t-2 -15q17 -18 26.5 -39.5t10.5 -53.5q-49 39 -109 63t-120 27v-75q81 -3 145.5 -43.5t102 -108.5t37.5 -153q0 -72 -40.5 -124.5
t-114.5 -83.5q-11 -54 -54.5 -91t-107.5 -51q-57 -80 -95.5 -106.5t-63.5 -26.5q-26 0 -26 26q0 11 8 33t24 54q-25 9 -45.5 20t-46.5 32q-52 -62 -154.5 -101.5t-213.5 -39.5q-64 0 -126.5 14.5t-112.5 40.5h-156l-99 -69q-11 -8 -22.5 -2.5t-16.5 16.5t2 22l24 33h-308
q-13 0 -22.5 9t-9.5 23t9.5 23.5t22.5 9.5h154q-36 34 -60 76.5t-41 101.5q-31 -15 -61 -15q-49 0 -85 43.5t-36 108.5q0 18 2.5 55.5t10.5 78.5l-163 -95q-5 32 5 66t38 71q14 41 57.5 93.5t99.5 98.5q8 109 73 169t174 60q142 0 235 -68l47 57q-54 40 -128.5 62.5
t-153.5 22.5q-8 0 -23 -0.5t-34 -4.5l238 145q-9 8 -9 14q0 19 24 29t58 10q51 0 101 -20t85 -51l54 52q-57 55 -130 78q33 29 106 43t148 14zM1089 1051q-49 0 -70 -4.5t-21 -11.5q0 -8 29 -17t49 -19q-125 -3 -212.5 -28t-149.5 -77q-58 0 -89 -34t-39 -104q7 4 14 4
q14 0 14 -26q0 -29 11 -58.5t36 -50t66 -22.5q-8 9 -8 22q0 17 10 29t24 12q17 0 30 -15l15 -17q62 -71 144.5 -117.5t178 -69.5t195.5 -23q145 0 264.5 27.5t192.5 91.5q95 0 156.5 42.5t61.5 108.5q0 40 -18.5 70t-18.5 53q0 7 5 17q-15 18 -48.5 42t-72.5 46t-71 33
q41 -48 67.5 -101t26.5 -87q0 -42 -38 -42q-30 0 -60.5 32t-76.5 92.5t-124 147.5q-60 -4 -104.5 -6.5t-99.5 -2.5q-25 0 -59 16t-84 31.5t-126 15.5zM1567 1223v-74q92 0 157.5 -16t120.5 -48l40 62q-127 76 -318 76zM1533 935l146 -187q66 -85 126 -85q8 0 12 1
q-32 -54 -85.5 -82.5t-115.5 -28.5q-70 0 -141 31.5t-121 84.5q20 32 37.5 80.5t28.5 97t11 82.5z" />
</svg>