<?xml version="1.0" standalone="no"?>
<!DOCTYPE svg PUBLIC "-//W3C//DTD SVG 1.1//EN" "http://www.w3.org/Graphics/SVG/1.1/DTD/svg11.dtd">
<svg xmlns="http://www.w3.org/2000/svg" xmlns:xlink="http://www.w3.org/1999/xlink" version="1.1"
   viewBox="94 -151 2414 2169">
   <path fill="currentColor"
      d="M1235 1978q-120 0 -239.5 -55t-226.5 -151.5t-190.5 -223t-131 -270t-47.5 -291.5q0 -96 79.5 -182.5t222.5 -151.5t331 -97v72q-164 28 -290 82.5t-197.5 126t-71.5 150.5q0 75 67.5 144.5t184 124.5t265 87t309.5 32t309.5 -32t265 -87t184 -124.5t67.5 -144.5
q0 -79 -71.5 -150.5t-197.5 -126t-290 -82.5v-72q189 32 331.5 97t222 151.5t79.5 182.5q0 148 -47.5 291.5t-130.5 270t-190.5 223t-227 151.5t-239.5 55h-130zM687 1293q-41 -84 -60.5 -172.5t-19.5 -173.5l70 8q0 82 20.5 164.5t63.5 162.5zM972 1386
q-25 -52 -41.5 -108.5t-30.5 -138.5l70 6q14 74 28.5 123.5t36.5 96.5zM1300 1733q-113 0 -205.5 -51t-150.5 -139.5t-71 -201.5l74 17q14 89 64 158t125 108t164 39t164 -39t125 -108t64 -158l74 -17q-12 113 -70.5 201.5t-150.5 139.5t-206 51zM1235 1908h130
q120 0 243.5 -65t231.5 -175t181.5 -249.5t92.5 -287.5l17 6q-60 81 -185.5 149t-292.5 109t-353 41q-185 0 -352.5 -41t-292.5 -109t-186 -149l17 -6q20 148 93 287.5t181 249.5t231.5 175t243.5 65zM1300 1225q-201 0 -357.5 -35.5t-246 -98t-89.5 -144.5q0 -73 74 -130.5
t213 -88.5l15 66q-103 24 -167.5 62.5t-64.5 90.5q0 40 50.5 76t137.5 64.5t199 45t236 16.5t236 -16.5t199 -45t137.5 -64.5t50.5 -76q0 -52 -64 -90.5t-168 -62.5l15 -66q139 31 213 88.5t74 130.5q0 82 -89.5 144.5t-246 98t-357.5 35.5zM1116 1181l-74 -4
q-14 -51 -14 -103q0 -99 35.5 -176.5t97 -122t139.5 -44.5t139.5 44.5t97 122t35.5 176.5q0 52 -14 103l-74 4q18 -53 18 -107q0 -118 -58 -195t-144 -77t-144 77t-58 195q0 54 18 107zM1628 1386l-63 -21q23 -47 37.5 -96.5t27.5 -123.5l70 -6q-14 82 -30.5 138.5
t-41.5 108.5zM902 1125l-71 -3q-8 -52 -11.5 -98t-3.5 -84q0 -74 14 -129t57 -112q41 -55 67.5 -101.5t26.5 -98.5q0 -29 -3 -59t-10 -67t-10 -66.5t-3 -52.5q0 -98 42 -179t119.5 -129t183.5 -48t183.5 48t119.5 129t42 179q0 23 -3.5 52.5t-9.5 66.5t-9.5 67t-3.5 59
q0 52 27 98.5t67 101.5q42 57 56.5 112t14.5 129q0 38 -3.5 84t-11.5 98l-71 3q8 -56 12 -101t4 -84q0 -79 -21 -136q-135 -25 -239 -89.5t-154 -148.5q-50 84 -154 148.5t-239 89.5q-21 57 -21 136q0 39 4 84t12 101zM1913 1293l-74 -11q43 -80 63.5 -162.5t20.5 -164.5
l70 -8q0 85 -19.5 173.5t-60.5 172.5zM1178 369q-19 0 -32.5 -16.5t-13.5 -40.5t13.5 -40.5t32.5 -16.5t32.5 16.5t13.5 40.5t-13.5 40.5t-32.5 16.5zM1300 517q117 0 185.5 -75.5t78.5 -199.5q-55 -3 -110 -28.5t-96.5 -68.5t-57.5 -97q-15 54 -56.5 97t-96.5 68.5
t-111 28.5q10 124 78.5 199.5t185.5 75.5zM1422 369q-19 0 -32.5 -16.5t-13.5 -40.5t13.5 -40.5t32.5 -16.5t32.5 16.5t13.5 40.5t-13.5 40.5t-32.5 16.5z" />
</svg>