<?xml version="1.0" standalone="no"?>
<!DOCTYPE svg PUBLIC "-//W3C//DTD SVG 1.1//EN" "http://www.w3.org/Graphics/SVG/1.1/DTD/svg11.dtd">
<svg xmlns="http://www.w3.org/2000/svg" xmlns:xlink="http://www.w3.org/1999/xlink" version="1.1"
   viewBox="94 -151 2414 2169">
   <path fill="currentColor"
      d="M425 1978q-67 0 -116 -49t-49 -116v-1750q0 -68 49 -116.5t116 -48.5h1750q68 0 116.5 48.5t48.5 116.5v1751q0 67 -49 115.5t-117 48.5h-1749zM410 1234h70v-338q0 -47 -2.5 -90.5t-4.5 -73.5h4l323 502h89v-604h-71v341q0 41 2.5 90t3.5 69h-3l-323 -500h-88v604z
M1031 1234h338v-67h-261v-216h246v-66h-246v-189h261v-66h-338v604zM1591 1234h77l114 -394q8 -26 14 -51t10 -44t5 -27q2 8 6 27.5t10.5 44t13.5 48.5l118 396h77l161 -604h-80l-93 368q-10 40 -17.5 76.5t-11.5 68.5q-4 -29 -12.5 -68t-20.5 -78l-111 -367h-79l-107 364
q-10 37 -18.5 76.5t-13.5 72.5q-4 -32 -11.5 -69t-17.5 -75l-94 -369h-79z" />
</svg>