<?xml version="1.0" standalone="no"?>
<!DOCTYPE svg PUBLIC "-//W3C//DTD SVG 1.1//EN" "http://www.w3.org/Graphics/SVG/1.1/DTD/svg11.dtd">
<svg xmlns="http://www.w3.org/2000/svg" xmlns:xlink="http://www.w3.org/1999/xlink" version="1.1"
   viewBox="94 -151 2414 2169">
   <path fill="currentColor"
      d="M425 1978q-67 0 -116 -49t-49 -116v-1750q0 -68 49 -116.5t116 -48.5h1750q68 0 116.5 48.5t48.5 116.5v1751q0 67 -49 115.5t-117 48.5h-1749zM555 1336h148v-370q0 -57 -2.5 -112.5t-7.5 -111.5h5l342 594h211v-787h-150v373q0 55 2 108.5t6 108.5h-3l-341 -590h-210
v787zM1766 1347q84 0 151 -12.5t128 -32.5v-407h-311v138h149v164q-22 4 -46.5 7.5t-59.5 3.5q-109 0 -157 -74t-48 -189q0 -121 64.5 -194.5t173.5 -73.5q50 0 96.5 12.5t82.5 30.5l55 -133q-49 -22 -109.5 -35.5t-123.5 -13.5q-198 0 -304.5 109.5t-106.5 294.5
q0 198 95.5 301.5t270.5 103.5z" />
</svg>