<?xml version="1.0" standalone="no"?>
<!DOCTYPE svg PUBLIC "-//W3C//DTD SVG 1.1//EN" "http://www.w3.org/Graphics/SVG/1.1/DTD/svg11.dtd">
<svg xmlns="http://www.w3.org/2000/svg" xmlns:xlink="http://www.w3.org/1999/xlink" version="1.1"
   viewBox="94 -151 2414 2169">
   <path fill="currentColor"
      d="M378 1978q-72 0 -124 -51.5t-52 -122.5v-1732q0 -71 52 -122.5t124 -51.5h1844q72 0 124 51.5t52 122.5v1732q0 71 -52 122.5t-124 51.5h-1844zM252 1766h489v-60h-489v60zM252 1606h489v-60h-489v60zM252 1446h489v-60h-489v60zM252 1286h489v-60h-489v60zM252 1126h489
v-60h-489v60zM342 896v-70h50v70h-50zM1050 1523h90v-90h-90v90zM342 736v-70h50v70h-50zM1208 1523h90v-90h-90v90zM1050 1353h90v-90h-90v90zM342 576v-70h50v70h-50zM1618 1837h50v-70h-50v70zM1208 1353h90v-90h-90v90zM1050 1183h90v-90h-90v90zM1748 1837h50v-70h-50
v70zM342 416v-70h50v70h-50zM1618 1657h50v-70h-50v70zM756 767h48v-138h-48v138zM1878 1837h50v-70h-50v70zM1208 1183h90v-90h-90v90zM851 1573v-627h-171v-873h530v144h-76v-48h-48v48h-17l-71 220h-48v278h-36v-86h-48v138h44v148h40v658h-99zM1050 1013h90v-90h-90v90z
M1748 1657h50v-70h-50v70zM1618 1497h50v-70h-50v70zM1878 1657h50v-70h-50v70zM1208 1013h90v-90h-90v90zM1748 1497h50v-70h-50v70zM756 537h48v-138h-48v138zM1618 1337h50v-70h-50v70zM866 537h48v-138h-48v138zM1878 1497h50v-70h-50v70zM1748 1337h50v-70h-50v70z
M801 1623h199v-758h-40v-100h40v-278h34l71 -220h140l70 220h33v278h40v100h-40v557h200v-417h82v-110h90v-110h106v110h90v110h82v421h300v-684h70v-50h-120v156h-140v349h-60v-242h-82v-110h-90v-110h-206v110h-90v110h-82v172h-100v-212h40v-200h-40v-278h-46l-71 -220
h-21v-194h-630v923h-98v-730h-280v780h549v627zM756 307h48v-138h-48v138zM1105 708h138v-129q0 -38 -18.5 -57.5t-50.5 -19.5q-31 0 -50 19.5t-19 57.5v129zM1878 1337h50v-70h-50v70zM866 307h48v-138h-48v138zM1671 1092h44v-154h-44v154zM1751 1092h44v-154h-44v154z
M976 307h48v-138h-48v138zM1831 1092h44v-154h-44v154zM2178 1326v-70h50v70h-50zM2178 1186v-70h50v70h-50zM2178 1046v-70h50v70h-50zM1927 592q71 0 127.5 -33t89.5 -90t33 -127q0 -72 -35 -128t-83 -86q26 66 26 131q0 100 -67.5 168.5t-180.5 68.5q-35 0 -69.5 -9.5
t-66.5 -31.5q32 61 92 99t134 38z" />
</svg>