<?xml version="1.0" standalone="no"?>
<!DOCTYPE svg PUBLIC "-//W3C//DTD SVG 1.1//EN" "http://www.w3.org/Graphics/SVG/1.1/DTD/svg11.dtd">
<svg xmlns="http://www.w3.org/2000/svg" xmlns:xlink="http://www.w3.org/1999/xlink" version="1.1"
   viewBox="94 -151 2414 2169">
   <path fill="currentColor"
      d="M1151 1458q162 0 264.5 -57.5t159 -154t78.5 -215.5t22 -242q0 -128 -29.5 -222.5t-82.5 -156.5t-123 -93t-151 -31q-166 0 -265 103t-99 282q0 165 89.5 255t237.5 90q104 0 169.5 -39t101.5 -94h10q-5 125 -39 229.5t-115.5 167.5t-230.5 63q-36 0 -74 -5.5t-67 -15.5
v120q26 8 69 12t75 4zM1282 905q-111 0 -165 -63t-54 -172q0 -135 63 -200.5t163 -65.5q61 0 106.5 26t76 69t46 94.5t15.5 103.5q0 50 -30.5 98t-87 79t-133.5 31z" />
</svg>