<?xml version="1.0" standalone="no"?>
<!DOCTYPE svg PUBLIC "-//W3C//DTD SVG 1.1//EN" "http://www.w3.org/Graphics/SVG/1.1/DTD/svg11.dtd">
<svg xmlns="http://www.w3.org/2000/svg" xmlns:xlink="http://www.w3.org/1999/xlink" version="1.1"
   viewBox="94 -151 2414 2169">
   <path fill="currentColor"
      d="M1462 1978q-200 0 -351 -42t-235 -118.5t-84 -179.5q0 -53 12 -102.5t24 -105t12 -126.5q0 -63 -8.5 -159.5t-20 -201.5t-20 -195t-8.5 -141q0 -213 85.5 -372.5t237.5 -248t349 -88.5q206 0 355.5 96.5t230.5 270.5t81 405q0 168 -11 290t-22 210.5t-11 155.5
q0 69 27 118t53.5 92.5t26.5 95.5q0 103 -86 180.5t-248 121.5t-389 44zM824 1626l-413 -397q-21 -20 -21 -51q0 -35 24.5 -75t62.5 -76t80 -58.5t77 -22.5q27 0 43 15l197 185v82l-225 -213q-7 -6 -18 -6q-27 0 -67.5 31.5t-72 72t-31.5 68.5q0 13 7 20l378 362zM773 1444
q-11 -19 -11 -44q0 -42 31 -70.5t76 -31.5v43q-20 9 -48 38.5t-48 64.5zM552 1199q-9 -17 -9 -36q0 -35 25.5 -59t61.5 -24q18 0 30 6q-31 21 -63 54.5t-45 58.5zM402 1219q-51 0 -86.5 -39.5t-35.5 -94.5q0 -61 43 -120t107 -98.5t127 -39.5q62 0 96.5 39.5t26.5 101.5
l-3 24l-59 -8l3 -24q4 -30 -15 -51.5t-53 -21.5q-43 0 -92.5 32t-85 77.5t-35.5 88.5q0 29 17.5 51.5t42.5 22.5h25l2 60h-25zM689 1355q-10 -16 -10 -40q0 -41 31 -70.5t73 -29.5q21 0 37 9q-88 62 -131 131zM623 1269q-9 -15 -9 -36q0 -38 26 -63t63 -25q20 0 33 7
q-30 21 -61.5 53.5t-51.5 63.5zM1179 873q-38 0 -63.5 -28t-25.5 -68t25.5 -68.5t63.5 -28.5t63 28.5t25 68.5t-25 68t-63 28zM916 1115q120 -99 258 -147.5t278 -48.5q147 0 291 51.5t257 144.5q20 -52 28.5 -99t8.5 -104q0 -182 -62.5 -283.5t-191 -142.5t-327.5 -41
q-282 0 -423 103.5t-141 324.5q0 67 5.5 126.5t18.5 115.5zM1709 873q-38 0 -63.5 -28t-25.5 -68t25.5 -68.5t63.5 -28.5t63 28.5t25 68.5t-25 68t-63 28zM2109 317q-43 0 -87 -12t-85 -34q88 -97 209 -97q87 0 174 54q-47 46 -100.5 67.5t-110.5 21.5zM1929 298
q-1 -14 -2.5 -28.5t-1.5 -29.5q0 -115 68 -208t197 -134q2 10 2 22v21q0 87 -34.5 157t-93.5 120.5t-135 79.5z" />
</svg>