<?xml version="1.0" standalone="no"?>
<!DOCTYPE svg PUBLIC "-//W3C//DTD SVG 1.1//EN" "http://www.w3.org/Graphics/SVG/1.1/DTD/svg11.dtd">
<svg xmlns="http://www.w3.org/2000/svg" xmlns:xlink="http://www.w3.org/1999/xlink" version="1.1"
   viewBox="94 -151 2414 2169">
   <path fill="currentColor"
      d="M1300 1978q-212 0 -398.5 -81t-328.5 -224.5t-222.5 -332t-80.5 -402.5t80.5 -402.5t222.5 -332t328.5 -224.5t398.5 -81t398.5 81t328.5 224.5t222.5 332t80.5 402.5t-80.5 402.5t-222.5 332t-328.5 224.5t-398.5 81zM740 1448v-85h85v85h-85zM611 1265v-84h85v84h-85z
M740 1083v-85h85v85h-85zM1382 1651q-25 0 -41 -17.5t-16 -42.5v-896h-10l-111 99q-20 19 -47 19h-252q-18 0 -29 -11.5t-11 -30.5q0 -20 13.5 -33t31.5 -13h234l166 -149q49 -44 92 -59t103 -15q67 0 118 28t75 88l152 376q3 9 3 17q0 19 -10.5 30.5t-30.5 11.5
q-32 0 -43 -29l-130 -321h-11v888q0 25 -15.5 42.5t-41.5 17.5q-25 0 -41 -17.5t-16 -42.5v-449l-75 -54v503q0 25 -15.5 42.5t-41.5 17.5zM1300 1898q196 0 368 -75t303 -207.5t205 -306t74 -371.5t-74 -371.5t-205 -306t-303 -207.5t-368 -75t-368 75t-303 207.5t-205 306
t-74 371.5t74 371.5t205 306t303 207.5t368 75zM1984 1665l-1417 -1405l49 -49l1417 1405zM1474 449q-57 0 -98 -41t-41 -98t40.5 -97.5t98.5 -40.5t98.5 40.5t40.5 97.5t-41 98t-98 41z" />
</svg>