<?xml version="1.0" standalone="no"?>
<!DOCTYPE svg PUBLIC "-//W3C//DTD SVG 1.1//EN" "http://www.w3.org/Graphics/SVG/1.1/DTD/svg11.dtd">
<svg xmlns="http://www.w3.org/2000/svg" xmlns:xlink="http://www.w3.org/1999/xlink" version="1.1"
   viewBox="94 -151 2414 2169">
   <path fill="currentColor"
      d="M718 1509l-39 -158h347l-39 158h-269zM697 1544l-106 -431h70l82 361h221l82 -361h70l-106 431h-313zM647 1211v-55h411v55h-411zM783 994v-54q0 -77 38 -140t102 -100.5t141 -37.5h145q39 -110 148 -141v-131h-197v29q0 16 -11 26.5t-28 10.5t-27.5 -10.5t-10.5 -26.5
v-151q0 -17 11 -27.5t27 -10.5q17 0 28 10.5t11 27.5v28h197v-99h125v99h197v-28q0 -17 11 -27.5t27 -10.5q17 0 28 10.5t11 27.5v151q0 16 -11 26.5t-28 10.5q-16 0 -27 -10.5t-11 -26.5v-29h-197v131q51 14 89.5 51t56.5 90h202v-102l113 -32v392l-113 -31v-101h-198
q-18 73 -77.5 120t-135.5 47q-48 0 -91 -19t-84 -56l-100 -92h-80q-64 0 -109.5 45t-45.5 110v51h-126zM1300 1978q-212 0 -398.5 -81t-328.5 -224.5t-222.5 -332t-80.5 -402.5t80.5 -402.5t222.5 -332t328.5 -224.5t398.5 -81t398.5 81t328.5 224.5t222.5 332t80.5 402.5
t-80.5 402.5t-222.5 332t-328.5 224.5t-398.5 81zM1300 1898q196 0 368 -75t303 -207.5t205 -306t74 -371.5t-74 -371.5t-205 -306t-303 -207.5t-368 -75t-368 75t-303 207.5t-205 306t-74 371.5t74 371.5t205 306t303 207.5t368 75zM1984 1665l-1417 -1405l49 -49
l1417 1405z" />
</svg>