<?xml version="1.0" standalone="no"?>
<!DOCTYPE svg PUBLIC "-//W3C//DTD SVG 1.1//EN" "http://www.w3.org/Graphics/SVG/1.1/DTD/svg11.dtd">
<svg xmlns="http://www.w3.org/2000/svg" xmlns:xlink="http://www.w3.org/1999/xlink" version="1.1"
   viewBox="94 -151 2414 2169">
   <path fill="currentColor"
      d="M1300 1978q-212 0 -398.5 -81t-328.5 -224.5t-222.5 -332t-80.5 -402.5t80.5 -402.5t222.5 -332t328.5 -224.5t398.5 -81t398.5 81t328.5 224.5t222.5 332t80.5 402.5t-80.5 402.5t-222.5 332t-328.5 224.5t-398.5 81zM931 1591v-712q0 -61 1 -97.5t4 -76.5
q-22 22 -40.5 38t-47.5 39l-107 89l-66 -84l275 -213h104v1017h-123zM1541 1506q104 0 159 -51.5t55 -129.5q0 -73 -59 -120.5t-155 -86.5l-22 -9q-93 40 -142 91.5t-49 129.5q0 73 52 124.5t161 51.5zM1300 1898q196 0 368 -75t303 -207.5t205 -306t74 -371.5t-74 -371.5
t-205 -306t-303 -207.5t-368 -75t-368 75t-303 207.5t-205 306t-74 371.5t74 371.5t205 306t303 207.5t368 75zM1984 1665l-1417 -1405l49 -49l1417 1405zM1544 1605q-163 0 -250.5 -73.5t-87.5 -202.5q0 -104 63 -168.5t147 -102.5q-75 -43 -126 -103t-51 -154
q0 -77 39.5 -130.5t107.5 -81.5t154 -28q89 0 157.5 27.5t107.5 81t39 132.5q0 91 -57 149.5t-136 99.5q93 46 159.5 108t66.5 165q0 127 -90.5 204t-242.5 77zM906 481q-37 0 -57.5 -19.5t-20.5 -55.5v-124h42v123q0 39 37 39t37 -39v-123h42v123q0 36 -21 56t-59 20z
M1545 1003q74 -31 125 -75.5t51 -121.5q0 -70 -50 -107.5t-132 -37.5q-79 0 -128.5 37.5t-49.5 107.5q0 79 53.5 121.5t130.5 75.5zM1039 478v-196h47l93 139q-1 -7 -1 -13.5v-13.5v-112h39v196h-46l-94 -138q1 6 1 13.5v14.5v110h-39zM1273 478v-196h61q46 0 71 25.5
t25 70.5q0 100 -101 100h-56zM1315 441h13q60 0 60 -62q0 -59 -57 -59h-16v121zM1474 478v-196h113v38h-70v38h65v38h-65v45h70v37h-113zM1632 478v-196h60q74 0 74 60q0 18 -8 30.5t-25 20.5l54 85h-49l-43 -73h-21v73h-42zM1674 369h18q32 0 32 -26q0 -23 -34 -23h-16v49z
" />
</svg>