<?xml version="1.0" standalone="no"?>
<!DOCTYPE svg PUBLIC "-//W3C//DTD SVG 1.1//EN" "http://www.w3.org/Graphics/SVG/1.1/DTD/svg11.dtd">
<svg xmlns="http://www.w3.org/2000/svg" xmlns:xlink="http://www.w3.org/1999/xlink" version="1.1"
   viewBox="94 -151 2414 2169">
   <path fill="currentColor"
      d="M614 1048v-220h1091v220h-1091zM1808 1048v-220h197v220h-197zM1810 738v-25q65 -28 93.5 -73t35 -116.5t6.5 -175.5q0 -83 10 -155t42 -129t97 -95t176 -51v25q-66 20 -94 64t-34 122.5t-6 201.5q0 63 -10 125t-42.5 117t-97.5 97.5t-176 67.5zM1300 1978
q-212 0 -398.5 -81t-328.5 -224.5t-222.5 -332t-80.5 -402.5t80.5 -402.5t222.5 -332t328.5 -224.5t398.5 -81t398.5 81t328.5 224.5t222.5 332t80.5 402.5t-80.5 402.5t-222.5 332t-328.5 224.5t-398.5 81zM1300 1898q196 0 368 -75t303 -207.5t205 -306t74 -371.5
t-74 -371.5t-205 -306t-303 -207.5t-368 -75t-368 75t-303 207.5t-205 306t-74 371.5t74 371.5t205 306t303 207.5t368 75zM1984 1665l-1417 -1405l49 -49l1417 1405z" />
</svg>