<?xml version="1.0" standalone="no"?>
<!DOCTYPE svg PUBLIC "-//W3C//DTD SVG 1.1//EN" "http://www.w3.org/Graphics/SVG/1.1/DTD/svg11.dtd">
<svg xmlns="http://www.w3.org/2000/svg" xmlns:xlink="http://www.w3.org/1999/xlink" version="1.1"
   viewBox="94 -151 2414 2169">
   <path fill="currentColor"
      d="M1302 1750q134 0 229 -62.5t154.5 -174t87 -259.5t27.5 -319q0 -170 -27.5 -317.5t-87 -258t-154.5 -172.5t-229 -62q-250 0 -376 201.5t-126 606.5q0 168 27 316t86.5 260.5t155.5 176.5t233 64zM1300 1581q-150 0 -227.5 -163t-77.5 -482q0 -317 76.5 -479.5
t231.5 -162.5q149 0 225 161t76 481q0 324 -77.5 484.5t-226.5 160.5zM426 1978q-68 0 -117 -48.5t-49 -115.5v-1751q0 -68 49 -116.5t116 -48.5h1750q68 0 116.5 48.5t48.5 116.5v1750q0 67 -48.5 116t-116.5 49h-1749z" />
</svg>