<?xml version="1.0" standalone="no"?>
<!DOCTYPE svg PUBLIC "-//W3C//DTD SVG 1.1//EN" "http://www.w3.org/Graphics/SVG/1.1/DTD/svg11.dtd">
<svg xmlns="http://www.w3.org/2000/svg" xmlns:xlink="http://www.w3.org/1999/xlink" version="1.1"
   viewBox="94 -151 2414 2169">
   <path fill="currentColor"
      d="M806 1978q-194 0 -336.5 -40.5t-223 -116t-90.5 -180.5q-11 -119 -19.5 -244.5t-12.5 -285.5t-4 -381q0 -183 50 -335.5t141 -264t214.5 -172t270.5 -60.5q144 0 265.5 60t211.5 167t140 248.5t50 304.5v375h-80v-375q0 -147 -44 -274t-123 -223t-186 -149.5t-234 -53.5
q-173 0 -307.5 95.5t-211.5 264.5t-77 392q0 220 4 379.5t12.5 284.5t19.5 240q12 118 158 191t412 73q129 0 237.5 -15.5t199.5 -45.5l37 72q-100 34 -217.5 51.5t-256.5 17.5zM792 1153q-85 0 -155 -33.5t-125 -100.5l51 -44q47 57 102.5 82.5t126.5 25.5q72 0 128 -25.5
t102 -82.5l51 44q-55 67 -125.5 100.5t-155.5 33.5zM524 845q-38 0 -63 -28t-25 -68t25 -68.5t63 -28.5t63.5 28.5t25.5 68.5t-25.5 68t-63.5 28zM1061 845q-38 0 -63.5 -28t-25.5 -68t25.5 -68.5t63.5 -28.5t63 28.5t25 68.5t-25 68t-63 28zM1696 1698v-334h297v334h-297z
M1764 1630h161v-198h-161v198zM1375 1978q-63 0 -102 -33.5t-50 -95.5q-7 -41 -11 -132t-4 -200q0 -190 14 -344q6 -70 46.5 -108.5t104.5 -38.5h942q65 0 105 38.5t46 108.5q7 75 10.5 164t3.5 180q0 103 -4 195t-10 136q-8 62 -48 96t-105 34h-938zM1375 1910h938
q76 0 85 -70q5 -44 9.5 -135t4.5 -188q0 -90 -3 -177.5t-11 -160.5q-9 -85 -83 -85h-942q-76 0 -83 85q-7 73 -10.5 160.5t-3.5 177.5q0 107 3 195t10 127q12 71 86 71zM1735 1561q-265 0 -389 -90t-124 -286h62q0 112 46.5 179.5t147 98t261.5 30.5h208q162 0 262 -30.5
t146.5 -98t46.5 -179.5h62q0 196 -123.5 286t-389.5 90h-216zM1651 1050v-130h69v130h-69zM1633 972q-14 0 -23.5 -11t-9.5 -28q0 -47 69.5 -79.5t175.5 -32.5q104 0 173.5 32.5t69.5 79.5q0 17 -9.5 28t-23.5 11q-7 0 -21 -6q-48 -21 -89 -32t-100 -11q-62 0 -103 11
t-86 31q-15 7 -23 7zM1969 1050v-130h69v130h-69z" />
</svg>