<?xml version="1.0" standalone="no"?>
<!DOCTYPE svg PUBLIC "-//W3C//DTD SVG 1.1//EN" "http://www.w3.org/Graphics/SVG/1.1/DTD/svg11.dtd">
<svg xmlns="http://www.w3.org/2000/svg" xmlns:xlink="http://www.w3.org/1999/xlink" version="1.1"
   viewBox="94 -151 2414 2169">
   <path fill="currentColor"
      d="M426 1978q-68 0 -117 -48.5t-49 -115.5v-1751q0 -68 49 -116.5t116 -48.5h1750q68 0 116.5 48.5t48.5 116.5v1750q0 67 -48.5 116t-116.5 49h-1749zM871 1387q212 0 312 -122.5t100 -322.5q0 -202 -100 -323t-310 -121q-213 0 -313 121t-100 322t100 323.5t311 122.5z
M871 1234q-115 0 -167 -78t-52 -214q0 -137 52.5 -214.5t168.5 -77.5t166.5 77.5t50.5 214.5q0 136 -51 214t-168 78zM1446 1375h182v-308l78 -56l226 364h208l-304 -482l302 -382h-204l-233 294q-19 25 -37.5 51.5t-35.5 52.5v-398h-182v864z" />
</svg>