<?xml version="1.0" standalone="no"?>
<!DOCTYPE svg PUBLIC "-//W3C//DTD SVG 1.1//EN" "http://www.w3.org/Graphics/SVG/1.1/DTD/svg11.dtd">
<svg xmlns="http://www.w3.org/2000/svg" xmlns:xlink="http://www.w3.org/1999/xlink" version="1.1"
   viewBox="94 -151 2414 2169">
   <path fill="currentColor"
      d="M1298 1978q-151 0 -283.5 -53.5t-233 -147t-157 -213.5t-56.5 -252q0 -85 49 -142t128 -57q58 0 106 40t106 134l27 44q42 68 91.5 99.5t114.5 31.5q75 0 133 -33t91.5 -94t33.5 -143q0 -68 -23 -128t-68 -97.5t-112 -37.5q-34 0 -72 12.5t-82 41.5l-100 65
q-52 34 -100 52.5t-101 18.5q-85 0 -134 -45.5t-49 -108.5q0 -45 31 -94t108 -98l104 -66q113 -72 201 -101.5t160 -29.5q44 0 93.5 10.5t120 32.5t175.5 59q32 11 57 30t51.5 56t61.5 102l102 185l-70 40l-103 -188q-43 -80 -68 -109t-57 -40q-102 -36 -168 -57.5t-111 -31
t-84 -9.5q-61 0 -137.5 25.5t-177.5 90.5l-106 68q-54 34 -78.5 63.5t-24.5 61.5q0 34 27.5 54t75.5 20q39 0 76.5 -14.5t81.5 -43.5l97 -64q53 -35 102.5 -51.5t97.5 -16.5q89 0 152 48t97 126.5t34 168.5q0 104 -44.5 183t-120.5 123t-173 44q-87 0 -154 -42t-120 -127
l-27 -44q-46 -76 -78.5 -106t-65.5 -30q-47 0 -72 34t-25 85q0 115 50.5 220.5t139.5 188t207 130t253 47.5q115 0 216.5 -27.5t177 -76t111.5 -112.5q79 -139 114 -261.5t35 -262.5q0 -193 -66 -377t-210 -398l-474 -355q-30 -23 -56 -36.5t-55 -13.5q-34 0 -58 25.5
t-24 60.5q0 37 30.5 73.5t88.5 80.5l314 234l91 210l-77 28l-78 -175l-303 -238q-76 -60 -111 -111t-35 -102q0 -65 47.5 -115.5t114.5 -50.5q41 0 82.5 19.5t78.5 47.5l487 370q152 223 222.5 420.5t70.5 402.5q0 149 -38 283.5t-121 280.5q-44 77 -130.5 135t-201 89.5
t-243.5 31.5zM1087 645l-107 -102q-55 -53 -83 -98.5t-28 -97.5q0 -69 45 -118.5t118 -49.5q18 0 43 5l-18 78q-13 -3 -25 -3q-39 0 -61 24.5t-22 63.5q0 37 22 71t65 72l141 122z" />
</svg>