<?xml version="1.0" standalone="no"?>
<!DOCTYPE svg PUBLIC "-//W3C//DTD SVG 1.1//EN" "http://www.w3.org/Graphics/SVG/1.1/DTD/svg11.dtd">
<svg xmlns="http://www.w3.org/2000/svg" xmlns:xlink="http://www.w3.org/1999/xlink" version="1.1"
   viewBox="94 -151 2414 2169">
   <path fill="currentColor"
      d="M2229 1582q-144 0 -291.5 -73t-288.5 -209t-266 -326t-224 -424h102q237 49 446 143t369 215t251 255t91 264q0 74 -48.5 114.5t-140.5 40.5zM451 1632q-118 0 -193.5 -115.5t-75.5 -305.5q0 -133 43.5 -255.5t117.5 -219t167.5 -152.5t194.5 -56q102 0 191 52.5
t143.5 138.5t54.5 188q0 101 -38 204t-103 196.5t-148 166.5t-174 115.5t-180 42.5zM451 1554q75 0 154 -38.5t152 -105t131 -150t92 -175t34 -178.5q0 -78 -43.5 -147t-114 -111.5t-151.5 -42.5q-84 0 -163 50.5t-142 136.5t-100.5 194t-37.5 224q0 154 53.5 248.5
t135.5 94.5zM1436 1978q-84 0 -171 -63.5t-159.5 -167.5t-117 -228.5t-44.5 -246.5q0 -123 52.5 -220.5t142.5 -153.5t200 -56h26.5t25.5 2l-9 77q-7 -1 -16.5 -1h-26.5q-89 0 -160.5 46.5t-113 126t-41.5 179.5q0 104 38.5 214t100.5 204t134 152t139 58q69 0 130 -64.5
t98.5 -171t37.5 -231.5q0 -29 -1.5 -57.5t-5.5 -58.5l79 -10q4 30 6 61.5t2 64.5q0 149 -47.5 273t-126 198t-172.5 74zM792 819q-13 0 -23.5 -12t-10.5 -24q0 -17 17 -39q82 -104 134 -180t73 -129l76 31q-100 179 -167 266t-99 87zM1329 1092q-22 0 -48.5 -45.5t-45 -114
t-18.5 -136.5q0 -22 4 -50.5t14 -80.5l71 64q-7 43 -9 57.5t-2 21.5q0 63 19.5 118.5t48.5 114.5q5 10 5 18q0 10 -11.5 21.5t-27.5 11.5zM1334 655q-147 -59 -292.5 -134.5t-276 -159.5t-234.5 -170.5t-167 -167.5l134 -125q63 82 161 171.5t219 179t252.5 170.5t261.5 146
zM2064 1331q-180 -175 -391.5 -346.5t-457.5 -343.5l44 -68q248 174 461.5 348.5t396.5 351.5zM2229 1504q60 0 84.5 -19.5t24.5 -57.5q0 -111 -83 -228.5t-228.5 -227.5t-336 -197.5t-405.5 -136.5q126 263 284 458t328 302t332 107zM1562 657q-133 0 -265.5 -43.5
t-255.5 -130.5l60 -73q150 -10 315 -53t336.5 -118t338.5 -179q69 -43 112 -43q81 0 81 102q0 96 -60.5 191.5t-164 173.5t-232 125.5t-265.5 47.5zM1562 579q116 0 230 -40.5t207 -108t149 -149t56 -162.5q0 -22 -13.5 -20t-57.5 29q-127 79 -257.5 142t-259.5 108.5
t-249 73.5t-226 36l19 -24q194 115 402 115z" />
</svg>