<?xml version="1.0" standalone="no"?>
<!DOCTYPE svg PUBLIC "-//W3C//DTD SVG 1.1//EN" "http://www.w3.org/Graphics/SVG/1.1/DTD/svg11.dtd">
<svg xmlns="http://www.w3.org/2000/svg" xmlns:xlink="http://www.w3.org/1999/xlink" version="1.1"
   viewBox="94 -151 2414 2169">
   <path fill="currentColor"
      d="M426 1978q-68 0 -117 -48.5t-49 -115.5v-1751q0 -68 49 -116.5t116 -48.5h1750q68 0 116.5 48.5t48.5 116.5v1750q0 67 -48.5 116t-116.5 49h-1749zM926 1748q121 0 214 -45t145.5 -124.5t52.5 -181.5q0 -44 -12.5 -91.5t-27.5 -91.5l-17 -51q-4 -12 -4 -18q0 -22 40 -34
q90 -26 157 -84t122 -121t108 -110t120 -47q79 0 120.5 83t41.5 240t-70.5 242.5t-200.5 85.5q-58 0 -105 -20.5t-87 -66.5q-10 -10 -20 -10q-23 0 -23 28q0 48 34 106t99.5 100t160.5 42q316 0 316 -529q0 -126 -42 -220t-116.5 -146t-174.5 -52q-78 0 -131 33t-90 83
t-67 103q-28 51 -60.5 94.5t-80 70t-122.5 26.5q-52 0 -87.5 -13.5t-35.5 -34.5q0 -16 30 -41q33 -29 76 -74t75 -107.5t32 -143.5q0 -96 -79.5 -149.5t-221.5 -53.5q-93 0 -192 38t-170 91q-12 9 -12 21q0 7 5 17l63 109q10 17 24 17q10 0 21 -8q163 -116 285 -116
q64 0 102 23.5t38 64.5q0 62 -40.5 113.5t-108.5 82t-152 30.5q-37 0 -37 28t20.5 68t48.5 67q26 25 59.5 35.5t79.5 18.5q54 8 93.5 22.5t61 47t21.5 94.5q0 61 -34 118.5t-98 95t-156 37.5q-98 0 -180.5 -42t-138.5 -97.5t-76 -95.5q-8 -14 -21 -14q-9 0 -16.5 7t-7.5 19
q0 67 32.5 142t92.5 141t142 107t182 41zM1619 549q79 0 154.5 -24.5t133.5 -59t82 -64.5q6 -8 6 -14q0 -11 -13 -23l-74 -68q-10 -10 -23 -10q-7 0 -16 7q-70 66 -147.5 92t-177.5 26q-76 0 -150 -26t-123 -73q-16 -15 -31 -15q-23 0 -23 30q0 56 58 107t150.5 83t193.5 32
zM1604 345q21 0 36 -15l70 -70q15 -15 15 -36t-15 -36l-70 -70q-15 -15 -36 -15t-36 15l-70 70q-15 15 -15 36t15 36l70 70q15 15 36 15z" />
</svg>