<?xml version="1.0" standalone="no"?>
<!DOCTYPE svg PUBLIC "-//W3C//DTD SVG 1.1//EN" "http://www.w3.org/Graphics/SVG/1.1/DTD/svg11.dtd">
<svg xmlns="http://www.w3.org/2000/svg" xmlns:xlink="http://www.w3.org/1999/xlink" version="1.1"
   viewBox="94 -151 2414 2169">
   <path fill="currentColor"
      d="M425 1978q-67 0 -116 -49t-49 -116v-1751q0 -68 49 -116t117 -48h1749q68 0 116.5 48.5t48.5 116.5v1750q0 67 -48.5 116t-116.5 49h-1750zM937 1786q116 0 170 -67t54 -176q0 -110 -54 -176t-169 -66t-170 66t-55 176q0 109 54.5 176t169.5 67zM937 1702
q-62 0 -90.5 -42.5t-28.5 -116.5t28.5 -116.5t91.5 -42.5t91 42.5t28 116.5t-28 116.5t-92 42.5zM1265 1780h88v-222q0 -34 -1.5 -67.5t-3.5 -67.5h2l205 357h126v-472h-89v223q0 32 1 64.5t4 66.5h-2l-205 -354h-125v472zM1831 1788q23 0 39.5 -13t16.5 -42
q0 -30 -16.5 -42t-39.5 -12q-24 0 -40.5 12t-16.5 42q0 29 16.5 42t40.5 13zM1792 1623h79l16 -315h-112zM1001 1041v-314h598v314l462 -433l-462 -433v314h-598v-314l-462 433z" />
</svg>