<?xml version="1.0" standalone="no"?>
<!DOCTYPE svg PUBLIC "-//W3C//DTD SVG 1.1//EN" "http://www.w3.org/Graphics/SVG/1.1/DTD/svg11.dtd">
<svg xmlns="http://www.w3.org/2000/svg" xmlns:xlink="http://www.w3.org/1999/xlink" version="1.1"
   viewBox="94 -151 2414 2169">
   <path fill="currentColor"
      d="M1444 1878q-80 0 -151 -39.5t-114.5 -106t-43.5 -147.5q0 -49 12 -83l76 26q-8 20 -8 57q0 59 33 107.5t85.5 77t110.5 28.5q63 0 117.5 -20.5t108 -41t112.5 -20.5q74 0 141 25t131 25q43 0 86.5 -38t79.5 -102t58 -141t22 -155q0 -79 -11 -158.5t-39.5 -188.5
t-81.5 -278l-86 -274q-42 -134 -105.5 -195t-150.5 -61q-34 0 -66.5 9t-64.5 18t-66 9q-33 0 -59.5 -20t-54 -46.5t-62 -46.5t-83.5 -20q-56 0 -91 23.5t-62 54.5t-56.5 54.5t-74.5 23.5q-36 0 -71 -21t-88 -21q-48 0 -88 25t-74 50t-65 25q-16 0 -45.5 -5t-68.5 -5
q-35 0 -74.5 45.5t-77 124t-68 178t-48.5 207.5t-18 212q0 156 52 223.5t144 67.5q34 0 60 -10.5t60 -36.5l50 64q-44 34 -83.5 48.5t-86.5 14.5q-130 0 -203 -92.5t-73 -278.5q0 -124 20.5 -246t57 -230t83 -191.5t99.5 -131.5t106 -48q50 0 76 5t38 5q8 0 43 -25t84 -50
t100 -25q48 0 76.5 10.5t47 21t36.5 10.5q26 0 51.5 -23.5t56.5 -54.5t73 -54.5t102 -23.5q57 0 97 20t68 46.5t50 46.5t44 20q31 0 58 -9t59.5 -18t79.5 -9q116 0 199.5 77t132.5 235l86 274q54 172 83.5 285t41 196.5t11.5 167.5q0 96 -27.5 187.5t-74 166t-104.5 118.5
t-120 44q-77 0 -145 -25t-127 -25q-50 0 -100 20.5t-107.5 41t-130.5 20.5zM858 1534q-142 0 -209.5 -93t-67.5 -283q0 -95 15.5 -217.5t46.5 -270.5l78 16q-60 288 -60 472q0 159 47 227.5t150 68.5q75 0 129.5 -32.5t76.5 -89.5l70 34q-31 78 -104.5 123t-171.5 45z
M1399 1649q-187 0 -271.5 -134t-84.5 -429q0 -89 6.5 -197t19.5 -236l80 8q-13 127 -19.5 233t-6.5 192q0 265 64.5 374t211.5 109q107 0 163 -60t56 -175q0 -149 -9 -271.5t-27 -236.5t-46 -235l78 -18q28 123 46.5 240t28 243t9.5 278q0 148 -79 231.5t-220 83.5z
M1911 1591q-129 0 -211 -69.5t-82 -187.5h80q0 84 58.5 130.5t154.5 46.5q105 0 158.5 -58t53.5 -169q0 -52 -9 -113.5t-24.5 -118.5t-33.5 -93l70 -33q21 39 38.5 101.5t28 130.5t10.5 126q0 144 -76.5 225.5t-215.5 81.5z" />
</svg>