<?xml version="1.0" standalone="no"?>
<!DOCTYPE svg PUBLIC "-//W3C//DTD SVG 1.1//EN" "http://www.w3.org/Graphics/SVG/1.1/DTD/svg11.dtd">
<svg xmlns="http://www.w3.org/2000/svg" xmlns:xlink="http://www.w3.org/1999/xlink" version="1.1"
   viewBox="94 -151 2414 2169">
   <path fill="currentColor"
      d="M1149 1978h302q55 -79 130 -174t162 -194t177 -188q-72 -148 -99.5 -255.5t-27.5 -197.5q0 -56 10 -113.5t23 -113.5t22.5 -109.5t9.5 -105.5q0 -47 -13 -125t-33.5 -166t-44 -166.5t-43.5 -124.5q-43 -18 -88.5 -28.5t-120.5 -18.5q0 200 -11 335.5t-56.5 204.5
t-147.5 69t-147 -69t-56.5 -204.5t-11.5 -335.5q-75 8 -120.5 18.5t-88.5 28.5q-20 46 -43.5 124.5t-44 166.5t-33.5 166t-13 125q0 52 9.5 106t22.5 110q14 56 23.5 113t9.5 113q0 90 -27.5 197.5t-99.5 255.5q90 89 177 188t162.5 194t129.5 174zM1616 1695l66 -49
q-36 -139 -111.5 -217.5t-173 -122.5t-201.5 -79q-94 -32 -186 -71t-167 -107l-41 67q74 64 163.5 101t180.5 69q104 36 199.5 79.5t167.5 119.5t103 210zM1188 1898q-40 -56 -91 -121t-107.5 -132t-112 -128.5t-103.5 -109.5q45 -95 79 -209t34 -229q0 -61 -10.5 -119.5
t-23.5 -114.5q-12 -54 -21.5 -106t-9.5 -102q0 -47 11.5 -117.5t29 -148.5t37 -147t34.5 -111q14 -5 32 -9.5t41 -8.5q0 178 20 314t82.5 212t190.5 76t190.5 -75.5t82.5 -211.5t20 -315q23 4 41.5 8.5t31.5 9.5q15 42 34.5 111t37 147t29 148.5t11.5 117.5q0 50 -9.5 101.5
t-21.5 104.5q-13 57 -23.5 116t-10.5 120q0 115 34 229t79 209q-48 48 -103.5 109.5t-112 128.5t-107.5 132t-91 121h-224zM1738 1540l63 -64q-33 -112 -102.5 -200t-159.5 -163.5t-187 -147.5q-114 -86 -222 -179t-184.5 -211t-97.5 -277l-69 45q27 154 105.5 270.5
t185.5 210t219 179.5q101 77 194 156.5t161 171.5t94 209zM1760 1109l19 -77q-129 -80 -213 -154.5t-132 -156t-72 -183.5l-77 9q28 118 82.5 210.5t149 176t243.5 175.5z" />
</svg>