<?xml version="1.0" standalone="no"?>
<!DOCTYPE svg PUBLIC "-//W3C//DTD SVG 1.1//EN" "http://www.w3.org/Graphics/SVG/1.1/DTD/svg11.dtd">
<svg xmlns="http://www.w3.org/2000/svg" xmlns:xlink="http://www.w3.org/1999/xlink" version="1.1"
   viewBox="94 -151 2414 2169">
   <path fill="currentColor"
      d="M1068 1978l-102 -40q21 -54 33.5 -97t21.5 -89l58 57q-125 -32 -248 -90.5t-224.5 -150.5t-162 -225t-60.5 -316q0 -176 73 -340t226.5 -296.5t395.5 -211.5q37 -12 57.5 -43.5t31.5 -80.5q7 -29 12 -66.5t7 -77.5l63 -13q13 8 25 23t25 36q13 -21 25 -36t25 -23l63 13
q2 40 7 77.5t12 66.5q12 49 32 80.5t57 43.5q242 79 395.5 211.5t226.5 296.5t73 340q0 183 -60.5 316t-162 225t-224.5 150.5t-248 90.5l58 -57q9 46 21.5 89t33.5 97l-102 40q-99 -81 -146 -158l33 -7q-22 40 -39 78t-25 77h-110q-7 -39 -24 -77t-40 -78l33 7
q-47 77 -146 158zM971 1554q-57 -86 -92 -217t-35 -258q0 -290 200 -617l71 37q-95 153 -143 298t-48 282q0 119 32 237.5t84 198.5zM1260 1516v-916h80v916h-80zM1074 1872q36 -32 69 -70.5t75 -94.5q24 42 44 83.5t38 83.5q18 -42 38 -83.5t44 -83.5q42 56 75 94.5
t69 70.5q-10 -37 -18.5 -73.5t-12.5 -73.5l61 -17q289 -80 434.5 -254t145.5 -427q0 -268 -167 -471t-473 -303q-57 -19 -91.5 -64.5t-50.5 -115.5q-3 -13 -6 -28t-5 -31q-21 -6 -43 -6t-43 6q-2 16 -5 31t-6 28q-16 70 -50.5 115.5t-91.5 64.5q-306 100 -473 303t-167 471
q0 253 145.5 426t434.5 255l61 17q-4 37 -12 73.5t-19 73.5zM1629 1554l-69 -39q53 -80 84.5 -198.5t31.5 -237.5q0 -137 -48 -282t-143 -298l71 -37q200 327 200 617q0 127 -35 258t-92 217z" />
</svg>