<?xml version="1.0" standalone="no"?>
<!DOCTYPE svg PUBLIC "-//W3C//DTD SVG 1.1//EN" "http://www.w3.org/Graphics/SVG/1.1/DTD/svg11.dtd">
<svg xmlns="http://www.w3.org/2000/svg" xmlns:xlink="http://www.w3.org/1999/xlink" version="1.1"
   viewBox="94 -151 2414 2169">
   <path fill="currentColor"
      d="M443 1356l125 -304l-250 -172zM499 1443h632v-245l-93 -106l-158 168l-239 -159zM867 1149l229 -247v-78h-710zM1071 1501v-714h80v714h-80zM1130 1088l-48 -55l48 -53v108zM1485 992q-73 0 -124.5 -56.5t-51.5 -136.5t51.5 -136t124.5 -56t124.5 56t51.5 136
t-51.5 136.5t-124.5 56.5zM1485 912q40 0 68 -33.5t28 -79.5q0 -47 -28 -79.5t-68 -32.5t-68 32.5t-28 79.5q0 46 28 79.5t68 33.5zM1359 680v-782h549v318h-295v464h-80v-544h295v-158h-389v702h-80zM265 1551v-764q0 -230 117.5 -359.5t325.5 -129.5h686v80h-416
q83 61 128 165t45 244v684h1104v-681q0 -200 -94 -306t-268 -106h-319v-80h319q208 0 325 130t117 362v761h-706v427h-385v-427h-979zM1324 1898h225v-347h-225v347z" />
</svg>