<?xml version="1.0" standalone="no"?>
<!DOCTYPE svg PUBLIC "-//W3C//DTD SVG 1.1//EN" "http://www.w3.org/Graphics/SVG/1.1/DTD/svg11.dtd">
<svg xmlns="http://www.w3.org/2000/svg" xmlns:xlink="http://www.w3.org/1999/xlink" version="1.1"
   viewBox="94 -151 2414 2169">
   <path fill="currentColor"
      d="M746 1678q-118 0 -192 -51.5t-122 -151.5l-317 -665q-21 -46 -9.5 -90.5t46.5 -74.5t84 -30q40 0 72 22t51 59l-74 32q-16 -33 -49 -33q-30 0 -46 26t-3 55l317 665q38 79 94 118t148 39q89 0 179.5 -31.5t166 -84t122 -117t46.5 -130.5v-612q0 -22 -13 -34.5t-35 -12.5
q-35 0 -58.5 31t-25.5 82l-5 102q-1 37 -23.5 62t-52.5 36q-40 15 -68.5 63.5t-43.5 121t-15 159.5h-70q0 -138 35.5 -233.5t87.5 -136.5l-237 -505q-15 -33 -51 -33q-24 0 -39 17.5t-15 39.5q0 11 6 25l-74 31q-12 -27 -12 -55q0 -55 38 -96.5t96 -41.5q40 0 73.5 21.5
t49.5 57.5l227 487q8 -8 8 -24l5 -102q4 -83 49.5 -136t114.5 -53q56 0 92 35.5t36 91.5v612q0 83 -52.5 162t-139.5 142.5t-192 101t-210 37.5zM1874 1678q-114 0 -223.5 -37.5t-198 -100.5t-140.5 -142t-52 -163v-612q0 -56 36.5 -91.5t91.5 -35.5q69 0 114.5 53t49.5 136
l5 102q0 16 8 24l227 -487q17 -36 50 -57.5t73 -21.5q59 0 96.5 41.5t37.5 96.5q0 28 -12 55l-74 -31q6 -14 6 -25q0 -22 -15 -39.5t-39 -17.5q-36 0 -51 33l-237 505q52 41 87.5 136.5t35.5 233.5h-70q0 -87 -15 -159.5t-43.5 -121t-68.5 -63.5q-30 -11 -52 -36t-24 -62
l-5 -102q-2 -51 -25.5 -82t-58.5 -31q-22 0 -35 12.5t-13 34.5v612q0 66 46 130t123.5 117t172.5 84.5t192 31.5q74 0 129 -38.5t93 -118.5l317 -665q14 -29 -2.5 -55t-46.5 -26q-32 0 -49 33l-74 -32q19 -37 51 -59t72 -22q49 0 84 30t47 74.5t-10 90.5l-317 665
q-48 100 -122 151.5t-172 51.5zM468 1086l-251 -491q-19 -37 -19 -79q0 -56 39.5 -96t94.5 -40q41 0 76 27t57 75l-71 33q-27 -55 -62 -55q-22 0 -38 16.5t-16 39.5q0 22 11 43l251 491zM480 1133l-40 -44q95 -88 206 -148t226 -85l13 58q-108 24 -211.5 80t-193.5 139z
M626 990l-294 -600q-14 -30 -14 -58q0 -55 41 -94.5t96 -39.5q40 0 73 21.5t49 57.5l283 612l-74 32l-283 -612q-15 -31 -48 -31q-22 0 -39.5 16.5t-17.5 37.5q0 12 6 24l294 598zM2120 1133q-90 -83 -193.5 -139t-211.5 -80l13 -58q115 25 226.5 85t205.5 148zM1974 990
l-72 -36l294 -598q6 -12 6 -24q0 -21 -17 -37.5t-40 -16.5q-33 0 -48 31l-283 612l-74 -32l283 -612q17 -36 49.5 -57.5t72.5 -21.5q56 0 96.5 39.5t40.5 94.5q0 28 -14 58zM2132 1086l-72 -36l251 -491q11 -21 11 -43q0 -23 -15.5 -39.5t-38.5 -16.5q-35 0 -62 55l-71 -33
q23 -48 57.5 -75t75.5 -27q56 0 95 40t39 96q0 42 -19 79z" />
</svg>