<?xml version="1.0" standalone="no"?>
<!DOCTYPE svg PUBLIC "-//W3C//DTD SVG 1.1//EN" "http://www.w3.org/Graphics/SVG/1.1/DTD/svg11.dtd">
<svg xmlns="http://www.w3.org/2000/svg" xmlns:xlink="http://www.w3.org/1999/xlink" version="1.1"
   viewBox="94 -151 2414 2169">
   <path fill="currentColor"
      d="M1300 1978q-215 0 -403.5 -80.5t-331.5 -223.5t-224 -331.5t-81 -404.5q0 -215 80.5 -403.5t223.5 -331.5t331.5 -224t404.5 -81q215 0 403.5 80.5t331.5 223.5t224 331.5t81 404.5q0 215 -80.5 403.5t-223.5 331.5t-331.5 224t-404.5 81zM1690 1722l-176 -377
q92 -53 159 -138l355 237q-136 181 -338 278zM1300 1898q199 0 373 -74.5t306 -206.5t206.5 -306t74.5 -373t-74.5 -373t-206.5 -306t-306 -206.5t-373 -74.5t-373 74.5t-306 206.5t-206.5 306t-74.5 373t74.5 373t206.5 306t306 206.5t373 74.5zM1300 1330q-108 0 -197 -53
t-142 -142t-53 -197t53 -197.5t142 -142.5t197 -53t197.5 53t142.5 142.5t53 197.5t-53 197t-142.5 142t-197.5 53zM1300 1159q92 0 156.5 -65t64.5 -156q0 -92 -64.5 -156.5t-156.5 -64.5q-91 0 -156 64.5t-65 156.5q0 91 65 156t156 65zM927 669l-355 -237
q136 -181 338 -278l176 377q-92 53 -159 138z" />
</svg>