<?xml version="1.0" standalone="no"?>
<!DOCTYPE svg PUBLIC "-//W3C//DTD SVG 1.1//EN" "http://www.w3.org/Graphics/SVG/1.1/DTD/svg11.dtd">
<svg xmlns="http://www.w3.org/2000/svg" xmlns:xlink="http://www.w3.org/1999/xlink" version="1.1"
   viewBox="94 -151 2414 2169">
   <path fill="currentColor"
      d="M432 1825q-104 0 -150 -24.5t-46 -79.5q0 -20 9 -50.5t22 -56.5q-11 -12 -17 -24.5t-6 -25.5q0 -75 40.5 -177t111 -213.5t162 -218t192.5 -190.5q29 -81 101 -134t157 -53l-4 79q-61 0 -117.5 39.5t-75.5 124.5q-88 68 -174.5 166t-158 204.5t-114.5 201.5t-43 158
q0 31 36 53t106 22q28 0 52 -7t42 -19q15 -60 46.5 -120t94.5 -114.5t173 -97.5l3 58q15 -9 55 -15t81 -6q80 0 158.5 31t136.5 85q59 19 106 58.5t47 70.5q0 15 -9.5 23t-21.5 8q-18 0 -39.5 -17t-46.5 -33.5t-55 -16.5q-16 0 -25 8t-9 19q0 24 28 34q71 27 71 52
q0 17 -9.5 35t-26.5 18q-7 0 -17.5 -4t-42.5 -19q-16 -7 -25 -7q-19 0 -28.5 11.5t-9.5 28.5q0 11 11 21t35 10h126v93l-280 -4q-155 -2 -251.5 -69.5t-96.5 -179.5q0 -46 12.5 -88t31.5 -65q-59 29 -106.5 107.5t-47.5 197.5q0 55 -46.5 83.5t-147.5 28.5zM951 1710
q10 -122 63 -194.5t127 -97.5q-31 -17 -63.5 -25.5t-66.5 -8.5q-76 0 -135.5 48.5t-59.5 126.5q0 58 38.5 94.5t96.5 56.5zM1523 1978q-94 0 -153 -46t-59 -122q0 -47 24 -92.5t54 -45.5q23 0 43.5 29t46 58.5t62.5 29.5q27 0 43.5 -18t16.5 -46q0 -18 -17.5 -31.5
t-42.5 -13.5t-43 -8t-18 -21q0 -10 20 -27.5t58 -45.5t71 -28q48 0 91 31t70.5 80.5t27.5 104.5q0 96 -79.5 154t-215.5 58zM898 1339l-76 -19q14 -120 76 -229t135 -171l18 95q-23 20 -55.5 69.5t-60 115.5t-37.5 139zM1656 1899l29 -78q122 -2 223.5 -30.5t162 -78
t60.5 -111.5q0 -58 -50 -102.5t-136 -44.5q-81 0 -140.5 44t-121.5 140l-67 -43q73 -113 150 -166t179 -53q120 0 193 66.5t73 158.5q0 88 -71 154.5t-196 104t-288 39.5zM1402 1321q-105 0 -191.5 -38.5t-138 -104t-51.5 -144.5q0 -31 7 -56t26 -62l344 135h145l206 -112
q20 29 26.5 44.5t6.5 50.5q0 79 -51.5 144.5t-137.5 104t-191 38.5zM1396 944q-84 0 -162 -27v-52q39 15 78.5 21.5t80.5 6.5q35 0 72.5 -4.5t77.5 -11.5l4 49q-39 8 -77 13t-74 5zM1395 1083q-197 0 -197 -193q0 -102 52.5 -159t144.5 -57q90 0 142.5 57t52.5 159
q0 193 -195 193zM1395 1023q66 0 95.5 -31.5t29.5 -101.5q0 -77 -32 -116.5t-93 -39.5q-127 0 -127 156q0 71 29.5 102t97.5 31zM1361 836q-12 5 -20 -15q-7 -20 5 -23q13 -3 20 15t-5 23zM1422 836q-11 -4 -4 -23q7 -20 19 -15q13 5 6 23q-7 20 -21 15zM1411 1026
q118 0 210.5 -37.5t145.5 -101.5t53 -144q0 -77 -42.5 -131.5t-108 -95t-135.5 -74.5q-36 -17 -61 -17q-36 0 -56 33q-10 -17 -26.5 -25t-36.5 -8q-16 0 -32.5 4.5t-33.5 12.5q-70 34 -135.5 74.5t-108 95t-42.5 131.5q0 80 53 144t145.5 101.5t210.5 37.5zM1411 1106
q-139 0 -249.5 -47t-175 -129.5t-64.5 -186.5q0 -98 50 -166t123 -114t145.5 -80t117.5 -65l53 -36l53 36q45 31 117.5 65t145.5 80t123 114t50 166q0 104 -64.5 186.5t-175 129.5t-249.5 47zM1323 624q-15 3 -28 -9.5t-18 -33.5q-4 -20 4.5 -36.5t24.5 -19.5q14 -3 27.5 10
t17.5 33t-4 36.5t-24 19.5zM2094 1431l-80 -18q-2 -46 -22.5 -113.5t-53 -141t-70 -139.5t-74.5 -108l61 -52q39 45 81 119t77.5 158t58 162t22.5 133zM1505 633q-15 -3 -23.5 -19t-4.5 -37q4 -20 17 -32.5t28 -10.5t24 19t5 37t-17.5 33t-28.5 10zM1098 553l-78 -16
q23 -114 83 -201t145.5 -136t184.5 -49q105 0 193.5 53.5t142 141.5t53.5 194h-80q0 -83 -42.5 -154t-113 -114t-153.5 -43q-79 0 -148 41t-118 114t-69 169zM1244 280q-40 0 -56.5 -14.5t-16.5 -36.5q0 -41 29 -75.5t67 -63l68 -51t32 -38.5l45 163zM1986 1128l-45 -66
q81 -54 124.5 -156t43.5 -215q74 -77 124.5 -182t50.5 -193q0 -136 -154 -202.5t-474 -66.5q-29 -29 -74.5 -49t-74.5 -20q-34 0 -59 27.5t-25 65.5q0 43 14 83t33 59l-103 -38q-13 -22 -18.5 -52.5t-5.5 -51.5q0 -78 51.5 -125.5t112.5 -47.5q39 0 85.5 20t77.5 49
q350 4 522 89.5t172 259.5q0 97 -49 208.5t-131 196.5q0 126 -53.5 236t-144.5 171zM1878 647l-74 -19q11 -44 40.5 -110.5t69.5 -139.5q-14 2 -28.5 3t-29.5 1q-31 0 -64.5 -4t-75.5 -11l13 -75q72 13 119.5 17t95.5 4q22 0 46 -0.5t52 -1.5q-35 51 -68.5 113.5t-59 121.5
t-36.5 101z" />
</svg>