<?xml version="1.0" standalone="no"?>
<!DOCTYPE svg PUBLIC "-//W3C//DTD SVG 1.1//EN" "http://www.w3.org/Graphics/SVG/1.1/DTD/svg11.dtd">
<svg xmlns="http://www.w3.org/2000/svg" xmlns:xlink="http://www.w3.org/1999/xlink" version="1.1"
   viewBox="94 -151 2414 2169">
   <path fill="currentColor"
      d="M1299 1978q214 0 402.5 -81.5t332 -225t225 -332t81.5 -401.5t-81.5 -401.5t-225 -332t-332 -225t-402.5 -81.5q-213 0 -401 81.5t-331.5 225t-225 332t-81.5 401.5t81.5 401.5t225 332t331.5 225t401 81.5zM1345 1971l56 -56l-1071 -1069l-56 56zM600 1689h80v-1497h-80
v1497zM1700 1860l56 -56l-1322 -1322l-56 56zM930 1873h80v-1870h-80v1870zM1299 1898q-196 0 -370 -75.5t-306 -208t-207.5 -306t-75.5 -370.5t75.5 -370.5t207.5 -306t306 -208t370 -75.5q197 0 371 75.5t306.5 208t208 306t75.5 370.5t-75.5 370.5t-208 306t-306.5 208
t-371 75.5zM1961 1655l56 -56l-1378 -1378l-56 56zM1260 1913h80v-1970h-80v1970zM1590 1873h80v-1880h-80v1880zM2166 1394l56 -56l-1322 -1322l-56 56zM1920 1699h80v-1517h-80v1517zM2273 1034l56 -56l-1064 -1066l-56 56z" />
</svg>