<?xml version="1.0" standalone="no"?>
<!DOCTYPE svg PUBLIC "-//W3C//DTD SVG 1.1//EN" "http://www.w3.org/Graphics/SVG/1.1/DTD/svg11.dtd">
<svg xmlns="http://www.w3.org/2000/svg" xmlns:xlink="http://www.w3.org/1999/xlink" version="1.1"
   viewBox="94 -151 2414 2169">
   <path fill="currentColor"
      d="M1975 905q0 226 -77 395.5t-227 263.5t-370 94q-228 0 -378 -94.5t-224 -264.5t-74 -396q0 -225 74 -393.5t224.5 -262.5t379.5 -94q219 0 369 93t226.5 262t76.5 397zM819 905q0 184 51.5 317t158.5 205t272 72q166 0 272 -72t156.5 -205t50.5 -317
q0 -277 -114.5 -433.5t-362.5 -156.5q-166 0 -273 70.5t-159 202.5t-52 317z" />
</svg>