<?xml version="1.0" standalone="no"?>
<!DOCTYPE svg PUBLIC "-//W3C//DTD SVG 1.1//EN" "http://www.w3.org/Graphics/SVG/1.1/DTD/svg11.dtd">
<svg xmlns="http://www.w3.org/2000/svg" xmlns:xlink="http://www.w3.org/1999/xlink" version="1.1"
   viewBox="94 -151 2414 2169">
   <path fill="currentColor"
      d="M1512 1928q-235 0 -436.5 -76t-358.5 -219t-259.5 -345t-141.5 -453q-56 -25 -99 -75.5t-56 -105.5q-42 -18 -72.5 -60t-30.5 -90t28.5 -88.5t69.5 -56.5q14 -108 89.5 -194t191 -136t248.5 -50q57 0 109 12q43 -43 106 -43q65 0 105.5 51t40.5 116q0 8 -2 24
q43 44 70 104t27 136q0 53 -19 101q11 24 23.5 45.5t30.5 49.5l-67 44q-26 -41 -43 -73t-38 -82q20 -14 26.5 -35.5t6.5 -49.5q0 -64 -24.5 -118t-76.5 -99q4 -9 5 -21.5t1 -25.5q0 -38 -19.5 -63.5t-46.5 -25.5q-26 0 -47 13.5t-41 37.5q-30 -10 -61.5 -15t-65.5 -5
q-125 0 -228.5 49t-165 128t-61.5 170q-43 0 -67.5 28t-24.5 72q0 35 25 60t51 35q7 41 34 80t64 66.5t74 36.5q17 130 50.5 246.5t80.5 204.5q35 64 92 104.5t114 40.5q56 0 92 -48t36 -126q0 -35 -9 -66.5t-24 -70.5q21 -19 40.5 -55.5t19.5 -80.5q0 -41 -20 -67.5
t-43 -26.5q-25 0 -46 28.5t-21 69.5q0 28 8 48l-62 22q-8 -18 -12 -33t-4 -37q0 -70 40 -119t97 -49q56 0 94.5 48.5t38.5 119.5q0 87 -43 136q26 67 26 133q0 105 -57 178.5t-151 73.5q-36 0 -72 -12q153 193 374.5 299.5t486.5 106.5q135 0 243.5 -23t185.5 -66.5
t118 -104.5t41 -137q0 -50 -24.5 -92t-64.5 -67.5t-87 -25.5q-49 0 -92.5 26t-70 68t-26.5 91h-80q0 -71 37.5 -131t99 -97t132.5 -37t129 37t92.5 97t34.5 131q0 50 -15 98q43 -38 77 -78l60 53q-139 159 -341 247.5t-449 88.5zM267 943l-47 -39q40 -59 103.5 -122
t117.5 -100l35 47q-32 24 -70.5 61.5t-75.5 78t-63 74.5zM172 805l-35 -39q54 -56 128 -106.5t139 -66.5l24 53q-38 9 -85.5 33.5t-92.5 57.5t-78 68zM1092 1509q-30 -11 -58.5 -27t-61.5 -38l42 -65q29 17 57 32t55 26zM1316 1704q-34 -13 -65.5 -27t-63.5 -29l36 -71
q24 12 53 25.5t67 27.5zM560 985l-23 -77q45 -34 104 -34q42 0 78 14l-7 72q-23 -8 -51 -8q-57 0 -101 33zM1611 1741q-34 -10 -66 -21t-63 -23l30 -73q26 9 56 19t68 23zM428 515q-24 0 -41.5 -17.5t-17.5 -42.5q0 -24 17.5 -41.5t41.5 -17.5t41.5 17.5t17.5 41.5
q0 25 -17.5 42.5t-41.5 17.5zM1472 1488q-29 -11 -60 -25t-65 -30l37 -70q32 16 61.5 29.5t56.5 23.5zM759 811q-25 -2 -42 -18.5t-17 -38.5q0 -23 17 -38.5t42 -15.5q12 0 20 4q-7 -18 -7 -33q0 -23 15.5 -39t38.5 -16q39 0 54 39q10 -48 58 -48q22 0 37 21t15 46l-48 45
q0 -17 -7.5 -31.5t-21.5 -14.5q-10 0 -20 7.5t-12 21.5q-3 -9 -11 -13t-16 -4q-13 0 -21.5 10t-8.5 26q0 9 3 14q-4 -2 -10 -2q-14 0 -25.5 8.5t-11.5 19.5q0 12 11 23.5t29 15.5zM626 656q-23 0 -44 -7l15 -47q15 4 29 4q62 0 62 -89l28 -15q32 33 60 33q30 0 38 -37l50 8
q-7 36 -30 57.5t-55 21.5q-22 0 -48 -12q-10 39 -38 61t-67 22zM572 555q-33 0 -33 -16q0 -12 3.5 -22t16.5 -29q15 -22 14.5 -52.5t4 -58.5t33.5 -42q12 -6 27 -6q24 0 45 14.5t41.5 29.5t39.5 15q49 0 49 30q0 22 -32 51t-79 52q-28 13 -65 23.5t-65 10.5zM1293 1008
q-35 0 -64 -9.5t-55 -34.5q-29 25 -72 25q-50 0 -97 -32t-77 -81t-30 -99q0 -53 32.5 -83.5t78.5 -30.5q8 0 16.5 0.5t15.5 2.5q20 -53 69 -83t107 -30q70 0 127.5 36.5t92 93.5t34.5 121q0 49 -22 96t-62 77.5t-94 30.5zM1284 930q47 0 77 -38.5t30 -87.5
q0 -45 -24.5 -84.5t-64.5 -64t-85 -24.5q-52 0 -86.5 32.5t-34.5 81.5q-13 -5 -38 -8.5t-40 -3.5q-28 0 -38.5 10.5t-10.5 33.5q0 29 22 60.5t55 53.5t67 22q26 0 43.5 -10t24.5 -29q22 28 47.5 42t55.5 14zM808 335q-24 0 -41.5 -17.5t-17.5 -42.5q0 -24 17.5 -41.5
t41.5 -17.5t41.5 17.5t17.5 41.5q0 25 -17.5 42.5t-41.5 17.5zM1239 513q-45 -20 -105 -31t-118 -11q-42 0 -76 7l3 -50q38 -8 85 -8q60 0 121.5 11.5t107.5 31.5zM935 375l-7 -50q38 -15 90.5 -23.5t107.5 -8.5q64 0 118 12l-9 53q-49 -12 -118 -12q-51 0 -99 7.5t-83 21.5
zM2139 1668l-12 -251l-62 -87q21 -58 60.5 -110.5t85 -86t83.5 -33.5q26 0 44.5 14.5t18.5 41.5q0 16 -10.5 32.5t-43.5 47t-102 89.5l16 19q63 -43 118.5 -58t92.5 -15q92 0 92 50q0 37 -51 66.5t-180 71.5l10 25q31 -8 60 -12t54 -4q49 0 83.5 12t34.5 36q0 25 -36 48
t-86 34l-200 42zM1690 1022l-130 -51l79 -72q-13 -28 -19 -61t-6 -67q0 -74 27 -146.5t70.5 -120.5t92.5 -48q32 0 48.5 15.5t16.5 39.5t-21.5 52.5t-51.5 65.5t-57 89l24 15q65 -85 112.5 -130t81.5 -45q20 0 33 14.5t13 37.5q0 24 -27.5 64.5t-108.5 140.5l23 22
q73 -81 107 -116.5t50.5 -43.5t36.5 -8q31 0 31 83l-103 199zM2371 1330q47 -122 69 -233.5t22 -228.5q0 -167 -41 -307t-111 -243.5t-157 -160t-179 -56.5q-23 0 -30.5 5t-7.5 16q0 18 22 52.5t44 65.5q80 112 117.5 218.5t37.5 217.5q0 110 -49 190t-138.5 123t-213.5 43
q-115 0 -215 -34.5t-160 -95.5l57 -56q50 51 135.5 79.5t182.5 28.5q158 0 239.5 -75.5t81.5 -202.5q0 -65 -14 -125t-44.5 -124t-81.5 -139q-46 -69 -63.5 -106.5t-17.5 -70.5q0 -44 33 -66t85 -22q61 0 136 30t151 94t139.5 165.5t102.5 244.5t39 331q0 115 -21.5 225.5
t-63.5 207.5z" />
</svg>