<?xml version="1.0" standalone="no"?>
<!DOCTYPE svg PUBLIC "-//W3C//DTD SVG 1.1//EN" "http://www.w3.org/Graphics/SVG/1.1/DTD/svg11.dtd">
<svg xmlns="http://www.w3.org/2000/svg" xmlns:xlink="http://www.w3.org/1999/xlink" version="1.1"
   viewBox="94 -151 2414 2169">
   <path fill="currentColor"
      d="M276 1124q-10 -54 -14 -98.5t-4 -87.5q0 -222 77.5 -411.5t218 -330.5t329.5 -219.5t412 -78.5q235 0 435.5 91t342.5 249l-46 65q-131 -153 -320 -239t-412 -86q-206 0 -380.5 72t-304 202t-201 305t-71.5 381q0 23 1 46t4 52zM1049 1952q-172 -45 -297 -120t-221 -175
l63 -50q164 170 397 244zM421 1626q102 0 159 -52t57 -145q0 -59 -23 -120t-74 -139l-119 -182l-118 182q-52 79 -75 140t-23 119q0 93 57 145t159 52zM421 1706q-133 0 -214.5 -76t-81.5 -201q0 -68 26.5 -141t84.5 -162l185 -284l186 284q58 88 84 161t26 142
q0 125 -81 201t-215 76zM1288 2028q-171 0 -275 -89t-104 -234v-368l80 -12v380q0 112 81 177.5t218 65.5h14q138 0 218.5 -65.5t80.5 -177.5v-384l80 12v372q0 146 -103.5 234.5t-275.5 88.5h-14zM1265 1703v-418h60v418h-60zM943 1618q-76 -34 -116 -74t-40 -83
q0 -60 69 -109.5t184.5 -79t254.5 -29.5q140 0 255 29.5t184 79t69 109.5q0 43 -40 83t-116 74v-227q-90 -34 -176.5 -51t-175.5 -17t-175.5 17t-176.5 51v227zM943 958q-52 0 -89 -44t-37 -106t37 -106.5t89 -44.5t89 44.5t37 106.5q0 61 -36.5 105.5t-89.5 44.5zM619 579
l-12 -69q116 -20 189 -56t121 -97l55 43q-56 71 -141 114t-212 65zM1558 1939l45 -95q196 -61 342.5 -191.5t228 -313.5t81.5 -401q0 -28 -1.5 -55.5t-3.5 -54.5l77 -30q5 34 6.5 69t1.5 71q0 187 -56.5 351t-159.5 296t-245.5 223t-315.5 131zM1647 958q-52 0 -89 -44
t-37 -106t37 -106.5t89 -44.5t89 44.5t37 106.5q0 61 -36.5 105.5t-89.5 44.5zM1929 571q-213 -45 -310 -171l55 -43q44 55 108 90t164 56zM2179 796q102 0 159 -52t57 -145q0 -59 -23 -120t-74 -139l-119 -182l-118 182q-52 79 -75 140t-23 119q0 93 57 145t159 52z
M2179 876q-133 0 -214.5 -76t-81.5 -201q0 -68 26.5 -141t84.5 -162l185 -284l186 284q58 88 84 161t26 142q0 125 -81 201t-215 76z" />
</svg>