<?xml version="1.0" standalone="no"?>
<!DOCTYPE svg PUBLIC "-//W3C//DTD SVG 1.1//EN" "http://www.w3.org/Graphics/SVG/1.1/DTD/svg11.dtd">
<svg xmlns="http://www.w3.org/2000/svg" xmlns:xlink="http://www.w3.org/1999/xlink" version="1.1"
   viewBox="94 -151 2414 2169">
   <path fill="currentColor"
      d="M1322 1978q-57 0 -117.5 -19t-115.5 -53q-64 9 -116 9q-401 0 -513 -447q-204 -158 -204 -341q0 -82 39 -165.5t124 -159.5q32 -29 46.5 -55t24.5 -52.5t27.5 -56t56.5 -66.5q53 -50 95.5 -66.5t79.5 -28t73 -44.5q76 -71 194 -146t256 -144.5t277 -124.5t259.5 -87.5
t201.5 -32.5q150 0 242 105.5t92 277.5q0 109 -29 246t-98 295q-21 48 -21 125q0 63 9 125.5t9 105.5q0 60 -29 103.5t-69 76.5t-73 61t-41 57q-28 103 -54.5 166t-61.5 95t-89 45q-55 13 -105.5 15t-76.5 10q-14 4 -37 30.5t-58.5 59t-84 57t-113.5 24.5zM1322 1901
q56 0 91.5 -19t61 -47t50.5 -55t61 -43q43 -19 85.5 -16.5t94.5 -13.5q61 -20 96.5 -83t51.5 -155.5t16 -200.5q0 -61 -4 -130.5t-10 -126.5q-121 154 -260 268t-283 176t-282 62q-126 0 -221.5 -48.5t-149.5 -136t-54 -204.5q0 -147 88 -295.5t252 -279.5
q-130 0 -227.5 14.5t-150.5 61.5q-38 34 -56 74t-39 82.5t-70 84.5q-66 57 -96.5 122.5t-30.5 134.5q0 82 46.5 154t134.5 131q47 221 165.5 323t290.5 102q38 0 73.5 -4t70.5 -10q47 43 101 60.5t104 17.5zM1091 1439q125 0 259.5 -61t261 -166.5t230.5 -240.5t171 -285
t81 -299q-26 6 -53.5 9t-53.5 3q-76 0 -129.5 -56t-53.5 -135q-63 22 -122.5 46t-115.5 51l-316 12l-153 261q-171 134 -261 276.5t-90 273.5q0 94 45 164t123 108.5t177 38.5zM1411 761q-21 0 -51 -5l9 -77q9 1 17.5 1h15.5q99 0 136 -94l70 24q-19 70 -71 110.5t-126 40.5
zM1424 952q-95 0 -173 -46.5t-124 -125t-46 -173.5t46 -174.5t124 -127.5t173 -48q96 0 174 48t124.5 127.5t46.5 174.5t-46.5 173.5t-124.5 125t-174 46.5zM1424 872q73 0 133 -36t96 -96t36 -133q0 -74 -36 -135.5t-96 -98t-133 -36.5q-72 0 -131.5 36.5t-95.5 98
t-36 135.5q0 73 35.5 133t95.5 96t132 36z" />
</svg>