<?xml version="1.0" standalone="no"?>
<!DOCTYPE svg PUBLIC "-//W3C//DTD SVG 1.1//EN" "http://www.w3.org/Graphics/SVG/1.1/DTD/svg11.dtd">
<svg xmlns="http://www.w3.org/2000/svg" xmlns:xlink="http://www.w3.org/1999/xlink" version="1.1"
   viewBox="94 -151 2414 2169">
   <path fill="currentColor"
      d="M570 1978q-95 0 -151 -51.5t-80 -169t-24 -314.5v-1545h1748v1726h-80v-1646h-1588v1465q0 174 16 273t54.5 140.5t104.5 41.5q92 0 141 -74t55 -216h1476q43 81 43 153q0 94 -75 155.5t-190 61.5h-1460v-80h1460q81 0 133 -38.5t52 -98.5q0 -34 -15 -73h-1351
q-19 139 -88 214.5t-181 75.5zM726 1358v-80h434v80h-434zM726 1114v-80h938v80h-938zM726 871v-80h938v80h-938zM726 627v-80h938v80h-938zM726 384v-80h938v80h-938z" />
</svg>