<?xml version="1.0" standalone="no"?>
<!DOCTYPE svg PUBLIC "-//W3C//DTD SVG 1.1//EN" "http://www.w3.org/Graphics/SVG/1.1/DTD/svg11.dtd">
<svg xmlns="http://www.w3.org/2000/svg" xmlns:xlink="http://www.w3.org/1999/xlink" version="1.1"
   viewBox="94 -151 2414 2169">
   <path fill="currentColor"
      d="M1382 1281l-55 -59q201 -199 348.5 -353t252.5 -272.5t178 -210t123.5 -164t90.5 -135.5q26 -41 -14 -83q-39 -40 -88 -11q-57 34 -217 154.5t-394.5 329.5t-517.5 509l-59 -55q287 -303 525 -516t400.5 -335.5t220.5 -155.5q47 -27 93 -26t95 50q47 47 49.5 90t-28.5 96
q-34 58 -156 221t-333.5 401.5t-513.5 524.5zM186 1793q61 -28 94 -74t58 -103.5t60 -118.5q37 -64 83 -108t111.5 -68.5t158.5 -28.5l180 -228q34 -94 113 -148l53 30q12 34 32 67.5t80 95.5q37 37 74 61t90 49l25 47q-26 40 -68 72t-84 46l-222 175q-23 117 -86.5 212
t-159 151t-214.5 56q-104 0 -205.5 -48.5t-172.5 -136.5zM309 1804q85 61 179.5 81t179 -0.5t139.5 -80.5q66 -71 91 -125.5t41 -106.5q-33 -8 -65 -25.5t-61 -46.5q-56 -57 -72 -124q-74 -2 -121.5 17t-84.5 56q-25 25 -56.5 73.5t-57 95t-34.5 65.5q-16 37 -33.5 65
t-44.5 56zM814 1340q6 53 55 102q26 26 54 41t50 14l199 -159q-28 -14 -53.5 -32.5t-59.5 -52.5t-53.5 -60.5t-30.5 -53.5zM556 1942q-95 -9 -170 -49t-121 -81q34 -59 60 -103t47.5 -77.5t42.5 -61t46 -52.5t57 -53q-21 32 -31.5 71t-18.5 77t-23 67q35 -3 73.5 -22
t78.5 -76q-5 71 -31.5 109t-47.5 57q40 0 91.5 -24t94.5 -54q-17 48 -42 80.5t-52 52.5t-51 32q55 26 110 23t117 -32q-28 28 -63.5 47t-77 34.5t-89.5 34.5z" />
</svg>