<?xml version="1.0" standalone="no"?>
<!DOCTYPE svg PUBLIC "-//W3C//DTD SVG 1.1//EN" "http://www.w3.org/Graphics/SVG/1.1/DTD/svg11.dtd">
<svg xmlns="http://www.w3.org/2000/svg" xmlns:xlink="http://www.w3.org/1999/xlink" version="1.1"
   viewBox="94 -151 2414 2169">
   <path fill="currentColor"
      d="M215 1578v-727q52 0 92.5 -7.5t81.5 -27t93.5 -56t127.5 -94.5l40 -31q67 -52 146.5 -93.5t131.5 -84.5q43 -36 72.5 -72.5t63 -61.5t86.5 -25q65 0 106 43.5t41 116.5q0 71 -36.5 133t-86.5 116.5t-92 103t-53 92.5l-24 -21q178 33 352.5 85.5t323.5 120.5l-75 -10
q281 -2 452 27.5t249 93.5t78 166q0 56 -45 85t-124 29q-88 0 -222.5 -16t-297.5 -16q-110 0 -233.5 20t-245 45.5t-228 45.5t-182.5 20h-592zM295 1498h512q70 0 178 -20t233 -45.5t250 -45.5t228 -20q96 0 195.5 8t186 16t141.5 8q43 0 64 -13.5t21 -41.5
q0 -96 -162.5 -140.5t-499.5 -45.5q-150 -68 -329.5 -120.5t-362.5 -83.5q-4 -13 -4 -31q0 -64 41 -122.5t94.5 -115t94.5 -112.5t41 -115q0 -80 -67 -80q-28 0 -55 23.5t-55.5 56t-60.5 60.5q-37 32 -88.5 62.5t-103 60t-88.5 57.5l-41 31q-88 66 -141.5 104.5t-88.5 57.5
t-64.5 26.5t-68.5 12.5v568zM1359 1010l-86 -42q32 -12 69.5 -33.5t83.5 -50.5q72 -45 148.5 -85.5t143.5 -40.5q110 0 170 107l-64 37q-38 -70 -106 -70q-47 0 -107 30.5t-124.5 72t-127.5 75.5zM1535 1073l-82 -54q96 -23 174.5 -61t145.5 -75q65 -35 124 -61.5t114 -26.5
q73 0 119.5 47.5t45.5 122.5h-74q1 -44 -24 -70t-67 -26q-53 0 -119.5 36.5t-154 84.5t-202.5 83zM2239 1205l-85 -50q56 -18 85.5 -30t41 -21.5t11.5 -18.5q0 -29 -43.5 -57t-88.5 -28q-34 0 -72.5 10t-107.5 40t-196 91l-98 -41q39 -12 99 -40t128 -59t133 -53t114 -22
q52 0 99 22.5t77 59t30 77.5q0 43 -28.5 68.5t-98.5 51.5z" />
</svg>