<?xml version="1.0" standalone="no"?>
<!DOCTYPE svg PUBLIC "-//W3C//DTD SVG 1.1//EN" "http://www.w3.org/Graphics/SVG/1.1/DTD/svg11.dtd">
<svg xmlns="http://www.w3.org/2000/svg" xmlns:xlink="http://www.w3.org/1999/xlink" version="1.1"
   viewBox="94 -151 2414 2169">
   <path fill="currentColor"
      d="M990 1728q-57 0 -93.5 -36t-92.5 -139q-52 -97 -84.5 -143t-74.5 -78l-40 -31q-129 -100 -202 -166t-103 -108t-30 -70v-657l601 -4q132 -1 248.5 -23.5t215 -51.5t178.5 -51t138 -22q63 0 96.5 31t33.5 85q0 21 -5 45t-13 47l-97 8q15 -25 23 -46.5t8 -43.5
q0 -51 -53 -51q-44 0 -120.5 22.5t-178 52.5t-222 53.5t-252.5 24.5l-521 4v575q0 22 82 94.5t222 183.5l39 31q49 38 90.5 92t76.5 127q44 91 68 127t61 36t60 -33t23 -90q0 -71 -34.5 -183.5t-105.5 -269.5q239 -101 606 -101q126 0 241 6.5t209 6.5q139 0 200.5 -24
t61.5 -82q0 -44 -45 -55t-167 -11q-150 0 -338.5 -23t-366.5 -66l20 -68q148 34 331.5 55.5t353.5 21.5q167 0 229.5 32.5t62.5 113.5q0 97 -81 141.5t-261 44.5q-30 0 -88 -2t-126.5 -4.5t-132 -4.5t-103.5 -2q-172 0 -301.5 19.5t-214.5 54.5l10 -37q35 79 63.5 159
t45 152t16.5 130q0 97 -45 149t-122 52zM1986 802l-10 -73q99 -15 153.5 -54t54.5 -91q0 -27 -15.5 -43.5t-41.5 -16.5q-47 0 -136 19.5t-220.5 39t-305.5 19.5q-43 0 -85 -1.5t-83 -4.5l6 -69q39 3 80 4.5t82 1.5q163 0 289 -19t216 -40q71 -17 103 -22.5t60 -5.5
q54 0 92.5 37.5t38.5 93.5q0 85 -72 145t-206 80zM1130 500v-68q169 -1 291 -24.5t207.5 -55.5t143.5 -57q83 -36 136 -36q65 0 106 39t41 102q0 28 -8.5 49.5t-26.5 41.5l-110 10q32 -23 48.5 -48.5t16.5 -52.5q0 -31 -19 -49t-48 -18q-33 0 -87 25t-143 57.5t-222.5 58
t-325.5 26.5z" />
</svg>