<?xml version="1.0" standalone="no"?>
<!DOCTYPE svg PUBLIC "-//W3C//DTD SVG 1.1//EN" "http://www.w3.org/Graphics/SVG/1.1/DTD/svg11.dtd">
<svg xmlns="http://www.w3.org/2000/svg" xmlns:xlink="http://www.w3.org/1999/xlink" version="1.1"
   viewBox="94 -151 2414 2169">
   <path fill="currentColor"
      d="M1308 1978q-17 0 -25 -11t-5 -25l19 -84l-48 -88q-16 -31 -19 -67l-6 -96l-55 19q-10 4 -17 4q-10 0 -23 -9l-83 -62q-13 -9 -13 -24q0 -12 10 -21t22 -9q10 0 17 6l74 56l22 -7l-61 -192l-827 -539q0 -145 52.5 -281.5t147 -254.5t221 -206.5t276.5 -138.5t313 -50
t313 50t276.5 138.5t221 206.5t147 254.5t52.5 281.5l-827 539l-58 185l20 7l76 -57q8 -7 19 -7q14 0 22 10.5t8 21.5q0 15 -13 24l-84 62q-11 8 -23 8q-6 0 -14 -3l-58 -20l5 108l79 80q11 12 15 31l22 115q3 16 -6 26.5t-22 10.5q-25 0 -30 -26l-22 -118l-74 -72l-27 16
l28 55q5 10 7.5 16.5t2.5 14.5t-3 20l-17 79q-5 23 -28 23zM1046 1252l-268 -414q-21 -41 -82.5 -60t-138.5 -19q-61 0 -110.5 11.5t-78.5 36.5zM1227 1545l19 -6q8 -2 15.5 -4t15.5 -3q-44 -18 -44 -63q0 -26 20 -45t47 -19q26 0 45.5 19t19.5 45q0 41 -37 60q12 1 24 3
t24 5l54 -173q-27 -13 -61 -18t-69 -5t-69 5t-61 18zM1143 1292l106 -474q-28 -30 -83.5 -44.5t-123.5 -14.5q-66 0 -121 14t-84 43zM1205 1291q23 -6 46.5 -8.5t48.5 -2.5t49 2.5t46 8.5l-95 -423zM767 741q6 -162 50 -307.5t122 -260t184 -181.5q-145 26 -273 92
t-228.5 164.5t-166 221.5t-86.5 263q70 -39 188 -39q133 0 210 47zM1457 1292l306 -476q-29 -29 -84 -43t-121 -14q-67 0 -122.5 14.5t-84.5 44.5zM835 742q40 -23 93.5 -35.5t113.5 -12.5q69 0 125.5 13t97.5 40v-767q-88 28 -164 99.5t-133.5 174.5t-92.5 228t-40 260z
M1554 1252l678 -445q-28 -25 -78 -36.5t-111 -11.5q-77 0 -138.5 19t-82.5 60zM1335 747q41 -27 97.5 -40t125.5 -13q60 0 113.5 12.5t93.5 35.5q-5 -135 -40 -260t-92.5 -228t-133.5 -174.5t-164 -99.5v767zM1833 741q77 -47 210 -47q118 0 188 39q-21 -140 -86.5 -263
t-166 -221.5t-228 -164.5t-273.5 -92q106 67 184 181.5t122.5 260t49.5 307.5z" />
</svg>