<?xml version="1.0" standalone="no"?>
<!DOCTYPE svg PUBLIC "-//W3C//DTD SVG 1.1//EN" "http://www.w3.org/Graphics/SVG/1.1/DTD/svg11.dtd">
<svg xmlns="http://www.w3.org/2000/svg" xmlns:xlink="http://www.w3.org/1999/xlink" version="1.1"
   viewBox="94 -151 2414 2169">
   <path fill="currentColor"
      d="M695 1889q-29 0 -29 -24q0 -25 29.5 -47.5t73 -41t84.5 -30.5q53 -16 69.5 -29t16.5 -22q0 -28 -7 -75.5t-16 -96.5l119 40q-1 27 -2 54.5t-1 49.5q0 40 9.5 58t37.5 26q55 16 79 29t24 36q0 15 -44 19.5t-174 4.5q-60 0 -115.5 12t-96 24.5t-57.5 12.5zM1049 1978
q-38 0 -38 -19t18 -35t56 -29.5t99 -26.5q45 -10 70 -24t25 -36q0 -26 -1 -77.5t-3 -90.5h113v170q0 35 54 49q26 7 64 23t38 42q0 16 -18 21t-51 5q-25 0 -57.5 -1.5t-72.5 -1.5q-76 0 -160.5 15.5t-135.5 15.5zM1577 1594l-102 -30l-149 -346l71 -30zM602 656
q-31 0 -65.5 -22t-62.5 -70l50 -47q22 46 44.5 56t37.5 10q13 0 21.5 -13t15.5 -46t13 -94l14 12l-243 186q-37 -40 -54 -87t-17 -95q0 -92 52 -170t140 -98l41 48q-52 7 -90 42t-58.5 83t-20.5 96q0 21 5 42t16 41l277 -214q2 18 3.5 38t1.5 40q0 143 -29.5 202.5
t-91.5 59.5zM696 372q-24 -56 -66 -89t-86 -47t-75 -14q0 -27 22.5 -52.5t59.5 -25.5q51 0 94.5 25t70 62.5t26.5 73.5q0 21 -13 38.5t-33 28.5zM1953 1754q-93 0 -166.5 -26t-136.5 -68l140 -32l-23 -231l-78 -220q38 70 109.5 140.5t157 127t163.5 84.5q67 24 96 39t29 43
q0 38 -47 70.5t-114.5 52.5t-129.5 20zM906 359q-35 0 -60 -25.5t-25 -62.5t25 -62.5t60 -25.5t59.5 26t24.5 62t-24.5 62t-59.5 26zM1314 572v-28q0 -165 -55 -293t-150.5 -201.5t-218.5 -73.5q-79 0 -142.5 27.5t-101 73.5t-37.5 104l-79 -21q5 -76 55 -135t130 -93
t175 -34q146 0 260 82t179 227.5t65 336.5v25zM1720 1692q-31 0 -69 -7.5t-77 -19.5q-40 10 -88.5 17.5t-103.5 7.5q-183 0 -344.5 -57t-284 -162.5t-192 -251.5t-69.5 -324q0 -68 13 -141t37 -149l75 23q-45 146 -45 267q0 163 63 295t174.5 226.5t258.5 145t314 50.5
q22 0 47.5 -2t38.5 -7q-160 -75 -277.5 -166t-182 -208.5t-64.5 -269.5q0 -162 103.5 -274.5t304.5 -169.5q92 112 175.5 253t149 287.5t103.5 278t38 225.5q0 58 -23.5 95.5t-74.5 37.5zM1720 1612q8 0 13 -9.5t5 -43.5q0 -83 -33.5 -200t-91.5 -249.5t-132.5 -263
t-157.5 -238.5q-151 52 -225 140t-74 211q0 108 52.5 214.5t150 196t233.5 146.5l14 31q83 32 144 48.5t102 16.5z" />
</svg>