<?xml version="1.0" standalone="no"?>
<!DOCTYPE svg PUBLIC "-//W3C//DTD SVG 1.1//EN" "http://www.w3.org/Graphics/SVG/1.1/DTD/svg11.dtd">
<svg xmlns="http://www.w3.org/2000/svg" xmlns:xlink="http://www.w3.org/1999/xlink" version="1.1"
   viewBox="94 -151 2414 2169">
   <path fill="currentColor"
      d="M2006 1978q-168 -158 -308 -349.5t-243 -406.5t-161 -443l-22 27q-55 68 -104 95t-117 27q-86 0 -148 -50.5t-87 -153.5l-45 -189l-281 239l-280 -333l430 -398q62 -57 106 -88.5t82 -44t80 -12.5q95 0 152.5 50.5t84.5 151.5l33 122l87 -98q68 -77 128.5 -110.5
t133.5 -33.5q86 0 142 49.5t69 142.5q2 16 4 36.5t3 40.5q7 173 56.5 353.5t135 355.5t200.5 332.5t253 284.5zM2004 1865l274 -288q-127 -126 -236.5 -285t-192 -335t-131 -354t-53.5 -342q-1 -45 -6 -75q-18 -126 -132 -126q-54 0 -99 26t-104 91l-187 207l-70 -263
q-19 -74 -55 -108.5t-104 -34.5q-32 0 -61 10t-64.5 36.5t-88.5 75.5l-372 349l176 213l321 -271l74 309q20 80 60 114t98 34q47 0 78 -18t86 -82l126 -144q43 236 136 462.5t227.5 429.5t299.5 369z" />
</svg>