<?xml version="1.0" standalone="no"?>
<!DOCTYPE svg PUBLIC "-//W3C//DTD SVG 1.1//EN" "http://www.w3.org/Graphics/SVG/1.1/DTD/svg11.dtd">
<svg xmlns="http://www.w3.org/2000/svg" xmlns:xlink="http://www.w3.org/1999/xlink" version="1.1"
   viewBox="94 -151 2414 2169">
   <path fill="currentColor"
      d="M425 1978q-67 0 -116 -49t-49 -116v-1750q0 -68 49 -116.5t116 -48.5h1750q68 0 116.5 48.5t48.5 116.5v1751q0 67 -49 115.5t-117 48.5h-1749zM878 1664h183v-565h167q217 0 343.5 -65t181 -169.5t54.5 -224.5q0 -203 -130 -315t-415 -112h-384v1451zM1061 943v-573h185
q192 0 282 69t90 209q0 107 -45 172t-136 94t-230 29h-146z" />
</svg>