<?xml version="1.0" standalone="no"?>
<!DOCTYPE svg PUBLIC "-//W3C//DTD SVG 1.1//EN" "http://www.w3.org/Graphics/SVG/1.1/DTD/svg11.dtd">
<svg xmlns="http://www.w3.org/2000/svg" xmlns:xlink="http://www.w3.org/1999/xlink" version="1.1"
   viewBox="94 -151 2414 2169">
   <path fill="currentColor"
      d="M997 1606q-49 0 -93.5 -24t-74.5 -68q-26 33 -63 52.5t-81 19.5q-81 0 -139.5 -58.5t-58.5 -139.5q0 -45 19.5 -83t52.5 -64q-45 -35 -60.5 -88.5t-15.5 -108.5q-84 0 -144.5 -54.5t-60.5 -136.5q0 -84 61 -140t146 -56q0 -60 22.5 -116t77.5 -90q-40 -26 -64 -68
t-24 -92q0 -79 57.5 -136t137.5 -57q44 0 81.5 18.5t65.5 50.5q28 -47 73.5 -73t97.5 -26q45 0 95 22q0 -83 60 -137.5t136 -54.5q66 0 116.5 39.5t68.5 98.5q32 -16 52 -21.5t49 -5.5q66 0 120 40.5t69 100.5q54 -52 128 -52q82 0 140 58.5t58 139.5q0 49 -23 89t-61 65
q53 34 74.5 86.5t21.5 120.5q85 0 146.5 56t61.5 140q0 82 -61 136t-145 54q0 58 -21.5 115t-53.5 83q33 26 52 64t19 83q0 81 -58.5 139.5t-139.5 58.5q-43 0 -80.5 -20t-63.5 -53q-30 45 -74.5 69t-93.5 24q-82 0 -135.5 -60t-53.5 -139h-226q0 82 -55 140.5t-135 58.5z
M628 1495q-25 0 -43.5 -19t-18.5 -44t18.5 -43.5t43.5 -18.5t43.5 18.5t18.5 43.5t-18.5 44t-43.5 19zM679 1506q40 0 68 -28t46 -85l53 -168l-169 54q-44 14 -78 39.5t-34 73.5q0 47 33.5 80.5t80.5 33.5zM1185 1978q-26 0 -26 -11q0 -17 25.5 -26t51 -20.5t25.5 -32.5
q0 -27 -24 -68.5t-49.5 -87.5t-30.5 -84l95 24q19 47 36 97.5t28.5 89.5t11.5 50q0 14 -23 30t-56.5 27.5t-63.5 11.5zM976 1544q-25 0 -43 -19t-18 -44q0 -26 18 -44t43 -18t43 18t18 44q0 25 -18 44t-43 19zM610 1166q-25 0 -43.5 -19t-18.5 -44t18.5 -43.5t43.5 -18.5
t43.5 18.5t18.5 43.5t-18.5 44t-43.5 19zM395 912q-25 0 -43.5 -19t-18.5 -44t18.5 -43.5t43.5 -18.5t43.5 18.5t18.5 43.5t-18.5 44t-43.5 19zM992 1527q46 0 79.5 -34.5t33.5 -81.5q0 -25 -10 -48l-48 -104l-103 48q-30 14 -47.5 41.5t-17.5 60.5q0 48 33.5 83t79.5 35z
M1423 1971q-10 0 -22.5 -29.5t-12.5 -49.5q0 -25 16.5 -38.5t33 -25t16.5 -30.5q0 -7 -7 -31t-25 -71l74 -6q14 60 19 90.5t5 36.5q0 22 -9.5 35.5t-35.5 25.5q-19 9 -22 33t-11 42t-19 18zM666 1195q29 0 57.5 -16.5t50.5 -46.5l93 -126l-148 -26q-71 -13 -115.5 16.5
t-44.5 89.5q0 46 31 77.5t76 31.5zM453 959q20 0 43 -7t49 -20l167 -81l-167 -81q-28 -14 -50.5 -21t-42.5 -7q-41 0 -70.5 33t-29.5 77t29.5 75.5t71.5 31.5zM613 654q-25 0 -43.5 -19t-18.5 -44t18.5 -43.5t43.5 -18.5t43.5 18.5t18.5 43.5t-18.5 44t-43.5 19zM680 729
q10 0 21 -1.5t21 -2.5l158 -26l-102 -126q-25 -32 -52.5 -48t-55.5 -16q-43 0 -76.5 34t-33.5 79q0 48 33.5 77.5t86.5 29.5zM1369 1753q-103 0 -183.5 -54t-126 -145t-45.5 -201q0 -92 38 -176t88.5 -153.5t88.5 -118.5t38 -72l-52 -31q-31 -19 -61.5 -29t-56.5 -11
q-55 -3 -68.5 -5.5t-13.5 -9.5q0 -23 40.5 -36t113.5 -13q31 -51 108 -51q57 0 97.5 36t40.5 89q0 72 -27.5 123.5t-55 99.5t-27.5 109q0 73 29.5 128.5t72.5 100.5t86 85.5t72.5 83t29.5 95.5q0 62 -64.5 109t-161.5 47zM1628 1540q-22 0 -38.5 -17t-16.5 -40t16.5 -39.5
t38.5 -16.5q23 0 39 16.5t16 39.5t-16 40t-39 17zM1607 1527q45 0 78.5 -34t33.5 -80q0 -62 -63 -105l-104 -70l-48 125q-8 22 -8 48q0 49 32.5 82.5t78.5 33.5zM845 457l-42 -168q-13 -54 -43 -83.5t-71 -29.5q-47 0 -80.5 33.5t-33.5 80.5q0 48 34 73t78 40zM1417 1348
q22 -77 63.5 -142.5t85.5 -132t75 -144t31 -177.5q0 -139 -98 -222t-251 -83q-117 0 -208.5 48t-144 139.5t-52.5 223.5q0 139 59 250t170.5 175.5t269.5 64.5zM648 302q-25 0 -43.5 -19t-18.5 -44t18.5 -43.5t43.5 -18.5t43.5 18.5t18.5 43.5t-18.5 44t-43.5 19zM1920 1506
q47 0 80.5 -33.5t33.5 -80.5q0 -41 -29.5 -69.5t-83.5 -43.5l-157 -43l42 157q15 55 44.5 84t69.5 29zM1971 1496q-25 0 -43.5 -19t-18.5 -44t18.5 -43.5t43.5 -18.5t43.5 18.5t18.5 43.5t-18.5 44t-43.5 19zM1305 809q26 0 45 -19.5t19 -45.5t-19 -45t-45 -19
q-25 0 -44.5 19t-19.5 45t19.5 45.5t44.5 19.5zM1338 762q-46 -1 -68 -28l30 -17q11 11 32 11zM1095 464l18 -158q9 -77 -18 -119t-86 -42q-46 0 -79 32t-33 76q0 29 17 57.5t47 51.5zM1393 755l-48 -75l36 -112l53 11l-28 82l97 -68l28 39l-113 78l95 -4l12 49h-132z
M987 265q-25 0 -43.5 -19t-18.5 -44t18.5 -43.5t43.5 -18.5t43.5 18.5t18.5 43.5t-18.5 44t-43.5 19zM1935 1195q44 0 74.5 -32t30.5 -77q0 -61 -39.5 -87.5t-119.5 -18.5l-170 16l114 136q26 31 54 47t56 16zM1535 758q-14 0 -24 -10t-10 -23q0 -14 10 -23.5t24 -9.5
t23.5 9.5t9.5 23.5q0 13 -9.5 23t-23.5 10zM1409 605q-14 0 -24 -10t-10 -24t10 -23.5t24 -9.5t23.5 9.5t9.5 23.5t-9.5 24t-23.5 10zM1988 1166q-25 0 -43.5 -19t-18.5 -44t18.5 -43.5t43.5 -18.5t43.5 18.5t18.5 43.5t-18.5 44t-43.5 19zM1527 639q-14 0 -24 -10t-10 -23
q0 -14 10 -23.5t24 -9.5t23.5 9.5t9.5 23.5q0 13 -9.5 23t-23.5 10zM1300 334l81 -167q13 -26 20 -49t7 -43q0 -42 -31.5 -71.5t-75.5 -29.5q-45 0 -77.5 30t-32.5 71q0 19 7 41t21 51zM2148 958q41 0 70 -31.5t29 -74.5q0 -44 -29 -76.5t-69 -32.5q-23 0 -47 7.5t-48 18.5
l-189 82l189 82q29 13 51.5 19t42.5 6zM1922 732q50 0 83.5 -32t33.5 -78q0 -44 -32.5 -78t-75.5 -34q-31 0 -58 18.5t-52 43.5l-102 105l158 48q24 7 45 7zM1299 80q-25 0 -43.5 -19t-18.5 -44t18.5 -43.5t43.5 -18.5t43.5 18.5t18.5 43.5t-18.5 44t-43.5 19zM1514 414
l124 -112q32 -29 48 -56.5t16 -54.5q0 -43 -33.5 -74.5t-78.5 -31.5q-49 0 -78.5 31.5t-29.5 84.5q0 10 1.5 22t2.5 23zM2193 912q-25 0 -43.5 -19t-18.5 -44t18.5 -43.5t43.5 -18.5t43.5 18.5t18.5 43.5t-18.5 44t-43.5 19zM1985 684q-25 0 -43.5 -19t-18.5 -44t18.5 -43.5
t43.5 -18.5t43.5 18.5t18.5 43.5t-18.5 44t-43.5 19zM1611 197q-25 0 -43.5 -19t-18.5 -44t18.5 -43.5t43.5 -18.5t43.5 18.5t18.5 43.5t-18.5 44t-43.5 19zM1754 446l157 -43q56 -16 84.5 -44t28.5 -69q0 -47 -33.5 -80.5t-80.5 -33.5q-40 0 -69.5 29t-44.5 84zM1960 312
q-25 0 -43.5 -19t-18.5 -44t18.5 -43.5t43.5 -18.5t43.5 18.5t18.5 43.5t-18.5 44t-43.5 19z" />
</svg>