<?xml version="1.0" standalone="no"?>
<!DOCTYPE svg PUBLIC "-//W3C//DTD SVG 1.1//EN" "http://www.w3.org/Graphics/SVG/1.1/DTD/svg11.dtd">
<svg xmlns="http://www.w3.org/2000/svg" xmlns:xlink="http://www.w3.org/1999/xlink" version="1.1"
   viewBox="94 -151 2414 2169">
   <path fill="currentColor"
      d="M1260 1618q-127 -8 -239.5 -59.5t-198.5 -135.5l438 -432v627zM769 1364q-70 -88 -110 -196.5t-40 -229.5q0 -136 49.5 -256t137 -212.5t204 -148t250.5 -63.5v621zM1340 1618v-627l438 432q-85 84 -197.5 135.5t-240.5 59.5zM1300 1699q158 0 295.5 -59t242.5 -164
t164 -243t59 -295q0 -158 -59 -296t-163.5 -242.5t-242.5 -163.5t-296 -59q-157 0 -295 59t-243 164t-164 242.5t-59 295.5q0 157 59 295t164 243t243 164t295 59zM1831 1364l-491 -485v-621q134 8 250.5 63.5t204 148t137 212t49.5 256.5q0 121 -39.5 229.5t-110.5 196.5z
M426 1978q-68 0 -117 -48.5t-49 -115.5v-1751q0 -68 49 -116.5t116 -48.5h1750q68 0 116.5 48.5t48.5 116.5v1750q0 67 -48.5 116t-116.5 49h-1749z" />
</svg>