<?xml version="1.0" standalone="no"?>
<!DOCTYPE svg PUBLIC "-//W3C//DTD SVG 1.1//EN" "http://www.w3.org/Graphics/SVG/1.1/DTD/svg11.dtd">
<svg xmlns="http://www.w3.org/2000/svg" xmlns:xlink="http://www.w3.org/1999/xlink" version="1.1"
   viewBox="94 -151 2414 2169">
   <path fill="currentColor"
      d="M755 1948q-245 0 -376.5 -57t-131.5 -163q0 -83 53 -195t146.5 -239.5t216 -258.5t262.5 -253.5t286.5 -224t285.5 -169.5q-42 -44 -70.5 -99t-28.5 -107q0 -72 30.5 -113.5t83.5 -41.5q29 0 53.5 17.5t49.5 61.5q26 46 47 65t55 19q44 0 100 -30.5t141 -106.5
q71 -63 118.5 -94t92.5 -31q63 0 97.5 39.5t34.5 87.5q0 35 -12.5 77t-44.5 112q-23 50 -37 95t-14 69q0 37 17.5 70.5t60.5 65.5q47 34 65 60t18 58q0 49 -39 78t-105 29q-62 0 -107 -17t-68 -42v3v4q0 37 -28 61t-66 24q-49 0 -91 -39.5t-68 -103t-26 -135.5
q0 -86 51.5 -163.5t136.5 -120.5l39 68q-146 87 -146 216q0 43 14.5 89t38.5 77.5t50 31.5t26 -38q0 -29 -3 -64.5t-3 -54.5q0 -29 3 -50.5t7 -36.5l70 5q0 67 15.5 113t52.5 69.5t99 23.5q29 0 48 -7.5t19 -19.5q0 -8 -12.5 -22t-43.5 -36q-52 -38 -78.5 -88t-26.5 -108
q0 -39 15 -87.5t46 -115.5q26 -54 36.5 -89t10.5 -61q0 -23 -14.5 -35t-37.5 -12q-28 0 -64.5 25.5t-89.5 75.5q-91 85 -162.5 123t-137.5 38q-55 0 -94 -28t-73 -92q-22 -43 -39 -43q-15 0 -23 21t-8 53q0 38 14 70t49.5 68t97.5 86q-141 60 -292.5 159t-298.5 220.5
t-277 253.5t-230 260t-157 239t-57 191q0 43 52.5 74.5t148.5 48.5t227 17q359 0 635 -141t450.5 -406t228.5 -636l77 31q-47 291 -164.5 519.5t-297 387.5t-414 242t-515.5 83zM770 1495q-10 -2 -15 -13.5t1 -25.5q19 -49 82 -60q14 -2 24 4.5t10 17.5q0 25 -28 27
q-30 1 -42 30q-10 23 -32 20zM681 1605q58 -9 122.5 -29t126.5 -46t109 -52q-75 -69 -104 -145q-34 -9 -61 -9q-57 0 -103.5 27.5t-74 74t-27.5 103.5q0 26 4 45.5t8 30.5zM495 1703q-27 0 -43 -15.5t-16 -41.5q0 -54 52 -143t142.5 -198.5t207 -226t247 -227t263 -202.5
t254 -152.5t218.5 -74.5v189q-32 171 -120.5 331.5t-219 298.5t-290.5 242t-337 162t-358 58zM1135 1423q56 -33 123.5 -87.5t129.5 -115t102 -111.5q-48 -26 -88 -71.5t-60 -100.5q-35 -8 -67 -8q-74 0 -134.5 36t-96.5 96.5t-36 134.5q0 70 33.5 129.5t93.5 97.5z
M1112 1194q-10 0 -17.5 -10t-5.5 -25q10 -62 48.5 -101.5t101.5 -46.5q14 -2 23.5 5t9.5 18q0 23 -28 27q-93 12 -105 105q-3 28 -27 28zM1550 1029q42 -55 79.5 -126t66 -145t41.5 -138q-20 -11 -45 -15.5t-48 -4.5q-62 0 -113 30t-81 81t-30 113q0 64 36 121.5t94 83.5z
M1496 821q-10 0 -17.5 -9t-4.5 -23q20 -110 129 -130q14 -3 23 4t9 18q0 22 -26 27q-75 15 -86 87q-3 26 -27 26z" />
</svg>