<?xml version="1.0" standalone="no"?>
<!DOCTYPE svg PUBLIC "-//W3C//DTD SVG 1.1//EN" "http://www.w3.org/Graphics/SVG/1.1/DTD/svg11.dtd">
<svg xmlns="http://www.w3.org/2000/svg" xmlns:xlink="http://www.w3.org/1999/xlink" version="1.1"
   viewBox="94 -151 2414 2169">
   <path fill="currentColor"
      d="M823 1771l-350 -350q62 -86 231.5 -266.5t461.5 -478.5q1 -34 25 -60q98 -110 173 -185.5t140 -132t133.5 -108t152.5 -112.5l41 64q-77 56 -139.5 103.5t-122.5 98.5t-126.5 117.5t-151.5 161.5q28 18 67 52t109 104q68 68 102.5 107.5t52.5 66.5q95 -84 161.5 -150.5
t117.5 -126.5t98.5 -122.5t103.5 -139.5l64 48q-60 82 -111 149t-108 132t-133 139.5t-186 171.5q-13 11 -27 17.5t-34 8.5q-296 291 -477.5 460t-267.5 231zM359 1978q-50 0 -71 -21t-21 -72q0 -84 61 -214t179 -260l57 57q-55 60 -100 126.5t-77 128.5q18 12 34.5 26.5
t37.5 35.5t35 37t28 35q59 -32 125 -76t130 -102l56 58q-131 118 -260.5 179.5t-213.5 61.5zM829 1664q62 -50 151 -131t218 -204.5t308 -300.5q-15 -23 -44.5 -57t-91.5 -96q-61 -62 -95 -91.5t-57 -45.5q-177 180 -301 308.5t-205.5 217.5t-131.5 151zM2098 527
q-12 -21 -28.5 -43.5t-47.5 -57t-88 -91.5q-59 -59 -92 -89.5t-52 -44.5t-36 -24l-151 -146l61 3l-382 363q0 34 -20 67t-51 56q-37 28 -74.5 30.5t-63 -14t-28 -44t30.5 -59.5l501 -491q20 -20 43.5 -32t47.5 -12q29 0 54.5 8t43.5 26l112 109q27 19 63.5 49.5t114.5 107.5
q60 59 90 90.5t52 54.5q29 31 22.5 76.5t-32.5 73.5q-18 19 -45 26.5t-45 7.5zM2208 374l-65 -46l106 -131q8 -10 -14 -42t-68 -78q-44 -44 -76 -67t-43 -14l-131 106l-46 -65l121 -99q30 -26 63 -26q32 0 71.5 27.5t95.5 83.5t83.5 95t27.5 72q0 31 -26 63z" />
</svg>