<?xml version="1.0" standalone="no"?>
<!DOCTYPE svg PUBLIC "-//W3C//DTD SVG 1.1//EN" "http://www.w3.org/Graphics/SVG/1.1/DTD/svg11.dtd">
<svg xmlns="http://www.w3.org/2000/svg" xmlns:xlink="http://www.w3.org/1999/xlink" version="1.1"
   viewBox="94 -151 2414 2169">
   <path fill="currentColor"
      d="M1308 1768q-68 0 -126.5 -39t-108 -114t-90.5 -181l37 17q-78 23 -164.5 33.5t-184.5 10.5q-289 0 -440 -81.5t-151 -238.5q0 -225 76 -400.5t209.5 -276t305.5 -100.5q174 0 306 100.5t206.5 275.5t74.5 401q0 69 17 114.5t48 87.5l-42 45q-52 -50 -75 -104t-23 -143
q0 -205 -65.5 -364.5t-180.5 -251t-266 -91.5q-149 0 -264.5 92t-181 251.5t-65.5 363.5q0 250 511 250q106 0 194.5 -13t167.5 -37q24 73 62 147.5t80 124.5l-35 23q-7 -17 -7 -38q0 -45 23 -86t65 -93q44 -56 82.5 -121t38.5 -157q0 -226 74.5 -401t207 -275.5
t305.5 -100.5t306 100.5t209 276t76 400.5q0 157 -150.5 238.5t-440.5 81.5q-97 0 -183.5 -10t-163.5 -34l38 -25q-10 33 -23 64t-30 60l-56 -38q20 -33 33.5 -68t23.5 -71q143 52 361 52q511 0 511 -250q0 -204 -65.5 -363.5t-180.5 -251.5t-265 -92t-265.5 91.5t-181 251
t-65.5 364.5q0 107 -46.5 183.5t-93.5 133.5q-40 49 -57 79t-17 59q0 39 31.5 56t81.5 17q12 0 24 -3l19 62q-9 2 -21.5 4t-29.5 2zM695 1217q-91 0 -164 -41t-103 -110l59 -26q23 51 79 81.5t129 30.5q125 0 181 -81l54 36q-35 52 -97.5 81t-137.5 29zM494 958
q-31 0 -49.5 -26.5t-18.5 -59.5q0 -38 20.5 -65.5t51.5 -27.5t49.5 26.5t18.5 59.5q0 37 -20.5 65t-51.5 28zM1381 1778q-34 0 -57.5 -22.5t-23.5 -56.5q0 -50 31.5 -102.5t79 -88.5t95.5 -36q34 0 55 25.5t21 59.5q0 30 -16 66t-44 71q-31 38 -69 61t-72 23zM1383 1716
q20 0 46 -16.5t48 -44.5q21 -26 34 -52.5t13 -47.5q0 -11 -6 -18t-16 -7q-27 0 -60 27.5t-57 65.5t-24 71q0 22 22 22zM904 988q-31 0 -49.5 -26.5t-18.5 -59.5q0 -38 20.5 -65.5t51.5 -27.5t49.5 26.5t18.5 59.5q0 37 -20.5 65t-51.5 28zM1907 1217q-75 0 -137.5 -29
t-97.5 -81l54 -36q56 81 181 81q73 0 130 -30.5t79 -81.5l59 26q-30 69 -103 110t-165 41zM1701 988q-31 0 -51.5 -28t-20.5 -65q0 -33 18.5 -59.5t49.5 -26.5t51.5 27.5t20.5 65.5q0 33 -18.5 59.5t-49.5 26.5zM2111 958q-31 0 -51.5 -28t-20.5 -65q0 -33 18.5 -59.5
t49.5 -26.5t51.5 27.5t20.5 65.5q0 33 -18.5 59.5t-49.5 26.5z" />
</svg>