<?xml version="1.0" standalone="no"?>
<!DOCTYPE svg PUBLIC "-//W3C//DTD SVG 1.1//EN" "http://www.w3.org/Graphics/SVG/1.1/DTD/svg11.dtd">
<svg xmlns="http://www.w3.org/2000/svg" xmlns:xlink="http://www.w3.org/1999/xlink" version="1.1"
   viewBox="94 -151 2414 2169">
   <path fill="currentColor"
      d="M1281 1978q-292 0 -463.5 -90t-186.5 -247q-11 -119 -19.5 -223.5t-12.5 -188t-4 -139.5q0 -197 58 -359t161 -272l52 61q-90 100 -140.5 245.5t-50.5 324.5q0 55 4 138.5t12.5 187t19.5 218.5q12 118 158 191t412 73q200 0 344.5 -34.5t222 -94t77.5 -132.5
q0 -20 -6 -39.5t-19 -45.5q-19 -40 -30.5 -79.5t-11.5 -82.5v-352q0 -154 -48 -287t-134 -228l52 -61q98 106 154 255t56 321v352q0 42 10 77t28 71q14 27 21.5 49.5t7.5 49.5q0 102 -87.5 178.5t-249.5 119.5t-387 43zM1268 1502q-85 0 -155 -33.5t-125 -100.5l51 -44
q47 57 102.5 82.5t126.5 25.5q72 0 128 -25.5t102 -82.5l51 44q-55 67 -125.5 100.5t-155.5 33.5zM1007 1193q-38 0 -63 -28t-25 -68t25 -68.5t63 -28.5t63.5 28.5t25.5 68.5t-25.5 68t-63.5 28zM1529 1193q-38 0 -63 -28t-25 -68t25 -68.5t63 -28.5t63.5 28.5t25.5 68.5
t-25.5 68t-63.5 28zM920 758l-37 -50q53 -44 121 -76t137.5 -50t126.5 -18q58 0 127.5 18t137.5 50t120 76l-37 50q-78 -46 -171 -72.5t-177 -26.5q-83 0 -176.5 26.5t-171.5 72.5zM1041 582q4 -22 6 -48.5t2 -48.5q0 -104 -32 -199t-95 -168t-156 -108q-4 24 -4.5 47.5
t-0.5 40.5q0 155 70 284.5t210 199.5zM1016 682q-104 -45 -183.5 -120t-124 -186t-44.5 -264q0 -44 -20 -91t-20 -90q0 -45 30.5 -64t67.5 -19q69 0 143.5 52t139 137t105 184t40.5 194v222zM1445 367q-84 -29 -174 -29q-52 0 -100 9t-83 24l-14 -82q95 -31 197 -31
q101 0 191 30zM1497 582q141 -70 210.5 -199.5t69.5 -284.5q0 -17 -0.5 -40.5t-4.5 -47.5q-93 35 -156 108t-95 168t-32 199q0 22 2.5 48.5t5.5 48.5zM1523 682l-135 -45v-222q0 -95 40.5 -194t105.5 -184t139.5 -137t142.5 -52q38 0 68.5 19t30.5 64q0 43 -20.5 90
t-20.5 91q0 153 -44.5 264t-123.5 186t-183 120z" />
</svg>