<?xml version="1.0" standalone="no"?>
<!DOCTYPE svg PUBLIC "-//W3C//DTD SVG 1.1//EN" "http://www.w3.org/Graphics/SVG/1.1/DTD/svg11.dtd">
<svg xmlns="http://www.w3.org/2000/svg" xmlns:xlink="http://www.w3.org/1999/xlink" version="1.1"
   viewBox="94 -151 2414 2169">
   <path fill="currentColor"
      d="M738 1828q-190 0 -327 -63t-210.5 -178.5t-73.5 -272.5q0 -104 59 -229.5t172 -259.5q45 -54 73 -93.5t56 -87.5q83 -142 162 -253t169 -187.5t206.5 -116t275.5 -39.5t276 39.5t207.5 116t169.5 187t161 253.5q28 48 56 87.5t73 92.5q113 134 171.5 259t58.5 231
q0 157 -73.5 272.5t-210 178.5t-327.5 63q-163 0 -304 -32t-279 -102l57 -56q115 58 244.5 84t281.5 26q251 0 391 -116t140 -318q0 -91 -54 -203t-157 -235q-48 -58 -78 -100.5t-59 -91.5q-81 -140 -154 -244.5t-154.5 -173.5t-186.5 -103.5t-250 -34.5t-249.5 34.5
t-185.5 103.5t-154 173.5t-155 244.5q-29 49 -59 92t-78 99q-103 122 -157.5 235t-54.5 204q0 202 140 318t391 116q183 0 326.5 -33.5t273 -117t268.5 -233.5q78 45 148 62t136 17q43 0 98.5 -12.5t110.5 -37.5l31 62q-63 29 -125 43.5t-115 14.5q-50 0 -106 -10
t-107 -28.5t-87 -41.5h55q-123 118 -228.5 194.5t-208 120.5t-216 62t-254.5 18zM687 1506q-59 0 -111.5 -12.5t-102.5 -37.5l29 -64q50 25 94 34.5t91 9.5h11t9 -1l50 65q-36 6 -70 6zM896 1585q-63 0 -116.5 -28t-86 -82.5t-32.5 -133.5q0 -59 31.5 -110.5t86 -84
t123.5 -32.5q81 0 169 28t204 99l-38 59q-107 -65 -185.5 -90.5t-149.5 -25.5q-76 0 -123.5 47t-47.5 110q0 82 43 128t116 46q61 0 121 -52t76 -132q130 -81 225.5 -128.5t171.5 -68t146 -20.5q104 0 184.5 39.5t128 116.5t51.5 191h-70q-4 -97 -44 -159.5t-104.5 -92.5
t-143.5 -30q-43 0 -90 10.5t-105 34.5t-132.5 64t-173.5 98l18 -30q-23 102 -96 165.5t-157 63.5zM1068 1057l-52 -53q58 -62 129.5 -94.5t154.5 -32.5q84 0 155.5 32.5t129.5 94.5l-52 53q-52 -53 -108.5 -79t-124.5 -26q-67 0 -123.5 26t-108.5 79zM955 742
q-18 -33 -18 -71q0 -54 29.5 -85.5t69.5 -31.5q41 0 70 31.5t29 85.5q0 21 -5.5 38.5t-13.5 32.5h-161zM1484 742q-18 -33 -18 -71q0 -54 29 -85.5t69 -31.5q41 0 70.5 31.5t29.5 85.5q0 21 -5.5 38.5t-13.5 32.5h-161z" />
</svg>