<?xml version="1.0" standalone="no"?>
<!DOCTYPE svg PUBLIC "-//W3C//DTD SVG 1.1//EN" "http://www.w3.org/Graphics/SVG/1.1/DTD/svg11.dtd">
<svg xmlns="http://www.w3.org/2000/svg" xmlns:xlink="http://www.w3.org/1999/xlink" version="1.1"
   viewBox="94 -151 2414 2169">
   <path fill="currentColor"
      d="M1281 1978q-292 0 -463.5 -90t-186.5 -247q-11 -119 -19.5 -244.5t-12.5 -285.5t-4 -381q0 -183 50 -335.5t141 -264t214.5 -172t270.5 -60.5q144 0 265.5 60t211.5 167t140 248.5t50 304.5v712q0 42 10 77t28 71q14 27 21.5 49.5t7.5 49.5q0 102 -87.5 178.5
t-249.5 119.5t-387 43zM1276 1220q-85 0 -155 -33.5t-125 -100.5l51 -44q47 57 102.5 82.5t126.5 25.5q72 0 128 -25.5t102 -82.5l51 44q-55 67 -125.5 100.5t-155.5 33.5zM998 903q-38 0 -63 -28t-25 -68t25 -68.5t63 -28.5t63.5 28.5t25.5 68.5t-25.5 68t-63.5 28z
M1281 1898q200 0 344.5 -34.5t222 -94t77.5 -132.5q0 -20 -6 -39.5t-19 -45.5q-19 -40 -30.5 -79.5t-11.5 -82.5v-712q0 -147 -44 -274t-123 -223t-186 -149.5t-234 -53.5q-173 0 -307.5 95.5t-211.5 264.5t-77 392q0 220 4 379.5t12 284.5t20 240q12 118 158 191t412 73z
M1528 903q-38 0 -63 -28t-25 -68t25 -68.5t63 -28.5t63.5 28.5t25.5 68.5t-25.5 68t-63.5 28zM915 448q-16 0 -28 -14t-3 -34q57 -129 167 -206q23 -17 52 -32t42 -15q14 0 24 10.5t10 25.5q0 23 -22 32q-34 14 -69 38q-92 63 -139 171q-10 24 -34 24zM1275 188
q-34 0 -34 -35q0 -29 30 -34q23 -3 46 -3q11 0 22 0.5t22 2.5q14 1 22.5 11t8.5 23q0 35 -38 35q-7 0 -18 -1t-22 -1q-12 0 -22 1t-17 1z" />
</svg>