<?xml version="1.0" standalone="no"?>
<!DOCTYPE svg PUBLIC "-//W3C//DTD SVG 1.1//EN" "http://www.w3.org/Graphics/SVG/1.1/DTD/svg11.dtd">
<svg xmlns="http://www.w3.org/2000/svg" xmlns:xlink="http://www.w3.org/1999/xlink" version="1.1"
   viewBox="94 -151 2414 2169">
   <path fill="currentColor"
      d="M1305 1978q-292 0 -463.5 -90t-186.5 -247q-11 -119 -19.5 -244.5t-12.5 -285.5t-4 -381h80q0 220 4 379.5t12.5 284.5t19.5 240q12 118 158 191t412 73q200 0 343.5 -34.5t220 -94t76.5 -132.5q0 -20 -6 -39.5t-19 -45.5q-19 -40 -30.5 -79.5t-11.5 -82.5v-712h80v712
q0 42 10 77t28 71q14 27 21.5 49.5t7.5 49.5q0 102 -86.5 178.5t-247.5 119.5t-386 43zM1295 1379q-85 0 -155 -33.5t-125 -100.5l51 -44q47 57 102.5 82.5t126.5 25.5q72 0 128 -25.5t102 -82.5l51 44q-55 67 -125.5 100.5t-155.5 33.5zM1036 1074q-38 0 -63 -28t-25 -68
t25 -68.5t63 -28.5t63.5 28.5t25.5 68.5t-25.5 68t-63.5 28zM1553 1074q-38 0 -63 -28t-25 -68t25 -68.5t63 -28.5t63.5 28.5t25.5 68.5t-25.5 68t-63.5 28zM1307 682q41 0 68 -32.5t27 -77.5q0 -46 -27.5 -78t-67.5 -32t-68 32t-28 78t28 78t68 32zM1025 485h-70
q0 -175 47.5 -324.5t139.5 -226.5l60 42q-87 62 -132 200.5t-45 308.5zM632 856q-35 -50 -46 -105t-11 -110q0 -158 54 -293.5t152.5 -236.5t231.5 -157t290 -56q150 0 278.5 56t224.5 157t150 236.5t54 293.5q0 53 -13.5 110.5t-48.5 104.5h-20q-131 -58 -291.5 -90
t-347.5 -32q-180 0 -341.5 31.5t-295.5 90.5h-20zM656 556q150 -71 309 -105.5t326 -34.5q176 0 336.5 36t301.5 104q-18 -170 -106 -301.5t-227.5 -206.5t-313.5 -75q-163 0 -298.5 75t-222 206.5t-105.5 301.5zM1560 485q0 -170 -45 -308.5t-132 -200.5l60 -42
q92 77 139.5 226.5t47.5 324.5h-70z" />
</svg>