<?xml version="1.0" standalone="no"?>
<!DOCTYPE svg PUBLIC "-//W3C//DTD SVG 1.1//EN" "http://www.w3.org/Graphics/SVG/1.1/DTD/svg11.dtd">
<svg xmlns="http://www.w3.org/2000/svg" xmlns:xlink="http://www.w3.org/1999/xlink" version="1.1"
   viewBox="94 -151 2414 2169">
   <path fill="currentColor"
      d="M1217 1736q-29 0 -49 -26t-24 -66l-48 -539q-55 0 -84.5 -25t-29.5 -62v-411q0 -71 80.5 -111.5t237.5 -40.5q158 0 238 40.5t80 111.5v411q0 37 -29 62t-85 25l-48 539q-4 40 -24 66t-49 26q-32 0 -54.5 -35t-28.5 -105q-5 70 -28 105t-55 35zM1300 1978
q-106 0 -178.5 -20.5t-72.5 -44.5q0 -25 72 -45t179 -20t178.5 20t71.5 45q0 24 -72.5 44.5t-177.5 20.5zM1094 1029v-50q-30 0 -72 -15v48q36 17 72 17zM1506 1029q36 0 72 -17v-48q-42 15 -72 15v50zM1300 866l-44 -58l28 -207l-31 -39l24 -33h47l23 33l-31 39l28 207z
M1300 820l158 -212l-50 -9l53 -46q-37 -8 -77 -11.5t-84 -3.5t-83.5 3.5t-77.5 11.5l53 46l-50 9zM1300 477q-68 0 -125 -33.5t-90.5 -90.5t-33.5 -125q0 -5 0.5 -9t1.5 -8h495q1 4 1 8v9q0 68 -33.5 125t-90 90.5t-125.5 33.5zM1300 199q127 0 198.5 -16t71.5 -44
q0 -18 -22.5 -23.5t-61.5 -6.5l-18 -88q-8 -40 -39.5 -51.5t-128.5 -11.5t-128.5 11t-39.5 52l-17 88q-40 1 -62.5 6.5t-22.5 23.5q0 28 72 44t198 16zM1059 237q-89 -39 -89 -98q0 -28 22 -46t69 -23l13 -63q14 -65 60 -87t166 -22t166 22t60 87l14 63q47 5 68.5 23
t21.5 46q0 60 -88 98h-483z" />
</svg>