<?xml version="1.0" standalone="no"?>
<!DOCTYPE svg PUBLIC "-//W3C//DTD SVG 1.1//EN" "http://www.w3.org/Graphics/SVG/1.1/DTD/svg11.dtd">
<svg xmlns="http://www.w3.org/2000/svg" xmlns:xlink="http://www.w3.org/1999/xlink" version="1.1"
   viewBox="94 -151 2414 2169">
   <path fill="currentColor"
      d="M916 1978v-278q-48 17 -100.5 26.5t-84.5 9.5q-91 0 -157.5 -73.5t-103 -205t-36.5 -305.5q0 -73 33 -113.5t91 -40.5q59 0 92 40t33 114q0 43 -2.5 105t-2.5 113q0 71 22 99.5t58 28.5q41 0 76 -26t70.5 -64t78 -76.5t98.5 -64.5t133 -26h141q112 0 182 42t113 104
t71 124.5t54.5 104.5t65.5 42q32 0 57 -35t25 -93q0 -23 -1.5 -64.5t-3.5 -84.5t-2 -69q0 -74 33 -114t91 -40q59 0 91.5 40.5t32.5 113.5q0 271 -80.5 422.5t-220.5 151.5q-66 0 -120 -37t-90 -107v236h-737zM550 736q-52 0 -88.5 -36.5t-36.5 -88.5q0 -53 36.5 -89
t88.5 -36q53 0 89 36t36 89q0 52 -36 88.5t-89 36.5zM511 596q14 0 23.5 -9.5t9.5 -22.5q0 -14 -9.5 -23.5t-23.5 -9.5q-13 0 -22.5 9.5t-9.5 23.5q0 13 9.5 22.5t22.5 9.5zM1289 1269q-93 0 -169.5 -46.5t-122.5 -129t-49 -191.5q173 27 343.5 28.5t339.5 -28.5
q-2 108 -48.5 191t-123 129.5t-170.5 46.5zM1289 968q-154 0 -270.5 -29t-181.5 -80.5t-65 -118.5q0 -97 138 -130q10 -89 61 -158t133.5 -108t184.5 -39q103 0 185.5 39t134 108t60.5 158q138 33 138 130q0 67 -65 118.5t-181.5 80.5t-271.5 29zM1289 878q131 0 229.5 -17
t153.5 -48t55 -73q0 -29 -26.5 -47t-112.5 -31q2 -8 2 -15v-14q0 -73 -37.5 -130t-105.5 -90t-158 -33q-89 0 -157 33t-106 90t-38 130q0 7 0.5 14t1.5 15q-85 13 -111.5 31t-26.5 47q0 42 55 73t153.5 48t228.5 17zM2050 899q-52 0 -88.5 -36.5t-36.5 -88.5q0 -53 36.5 -89
t88.5 -36t88.5 36t36.5 89q0 52 -36.5 88.5t-88.5 36.5zM2015 758q14 0 23.5 -10t9.5 -23t-9.5 -22.5t-23.5 -9.5q-13 0 -22.5 9.5t-9.5 22.5t9.5 23t22.5 10zM1571 148q-52 0 -88.5 -36.5t-36.5 -88.5q0 -53 36.5 -89t88.5 -36q53 0 89 36t36 89q0 52 -36 88.5t-89 36.5z
M1537 2q13 0 22.5 -10t9.5 -23t-9.5 -22.5t-22.5 -9.5t-23 9.5t-10 22.5t10 23t23 10z" />
</svg>