<?xml version="1.0" standalone="no"?>
<!DOCTYPE svg PUBLIC "-//W3C//DTD SVG 1.1//EN" "http://www.w3.org/Graphics/SVG/1.1/DTD/svg11.dtd">
<svg xmlns="http://www.w3.org/2000/svg" xmlns:xlink="http://www.w3.org/1999/xlink" version="1.1"
   viewBox="94 -151 2414 2169">
   <path fill="currentColor"
      d="M1300 1978q-238 0 -441 -63t-354.5 -185t-235.5 -299.5t-84 -405.5q0 -176 48.5 -322t131 -258.5t185.5 -189.5l32 -24q29 -22 43 -49.5t26 -79.5q22 -96 64.5 -150t99.5 -54q50 0 74.5 33.5t28.5 91.5l-20 -6q35 -26 76 -38t82 -12q79 0 131 49.5t52 127.5
q0 55 -27.5 97t-77 76t-116.5 67l-97 47q-111 54 -190.5 144t-123 198.5t-47.5 218.5l-18 -1q74 -142 184 -249t254 -166.5t320 -59.5q177 0 321 59.5t254 166.5t183 249l-18 1q-4 -110 -47 -218.5t-122 -198.5t-191 -144l-97 -47q-67 -33 -117 -67t-77.5 -76t-27.5 -97
q0 -78 52 -127.5t131 -49.5q42 0 83 12t76 38l-20 6q4 -58 29 -91.5t74 -33.5q57 0 99.5 54t63.5 150q11 52 26 79.5t43 49.5l32 24q103 77 185.5 189.5t131 258.5t48.5 322q0 228 -84 405.5t-235.5 299.5t-354.5 185t-441 63zM1300 1483q-89 0 -172.5 -33.5t-161.5 -115.5
l61 -52q67 69 132.5 95t140.5 26t140.5 -26t132.5 -95l61 52q-78 82 -161.5 115.5t-172.5 33.5zM1028 1161q-37 0 -64 -29.5t-27 -78.5q0 -50 27 -79.5t64 -29.5q38 0 64.5 29.5t26.5 79.5q0 49 -26.5 78.5t-64.5 29.5zM1300 1898q172 0 328.5 -35t287.5 -105t227 -175
t149 -244.5t53 -313.5q0 -129 -27.5 -238.5t-75 -199t-107 -158t-123.5 -116.5l-32 -24q-45 -34 -64.5 -70.5t-33.5 -97.5q-18 -77 -40.5 -112.5t-51.5 -35.5q-20 0 -30.5 14.5t-10.5 42.5q0 10 1 23.5t5 27.5l-40 25q-36 -33 -78.5 -49t-84.5 -16q-51 0 -83.5 26t-32.5 75
q0 54 44.5 95t132.5 84l97 47q116 56 208 156t145 242t53 326l-75 4q-77 -158 -182.5 -270t-243.5 -171t-315 -59q-176 0 -314.5 59t-243.5 171t-183 270l-74 -4q0 -184 53 -326t145 -242t208 -156l97 -47q88 -43 132 -84t44 -95q0 -49 -32.5 -75t-82.5 -26q-42 0 -85 16
t-78 49l-41 -25q4 -14 5.5 -27.5t1.5 -23.5q0 -28 -11 -42.5t-31 -14.5q-28 0 -50.5 35.5t-41.5 112.5q-15 61 -34 97.5t-64 70.5l-32 24q-64 48 -123.5 116.5t-107 158t-75 199t-27.5 238.5q0 174 53 313.5t149.5 244.5t227 175t287 105t328.5 35zM1572 1161
q-37 0 -64 -29.5t-27 -78.5q0 -50 27 -79.5t64 -29.5q38 0 64.5 29.5t26.5 79.5q0 49 -26.5 78.5t-64.5 29.5z" />
</svg>