<?xml version="1.0" standalone="no"?>
<!DOCTYPE svg PUBLIC "-//W3C//DTD SVG 1.1//EN" "http://www.w3.org/Graphics/SVG/1.1/DTD/svg11.dtd">
<svg xmlns="http://www.w3.org/2000/svg" xmlns:xlink="http://www.w3.org/1999/xlink" version="1.1"
   viewBox="94 -151 2414 2169">
   <path fill="currentColor"
      d="M1157 1978q-223 0 -352 -26t-183 -93t-54 -190q0 -276 83 -478t229 -311.5t336 -109.5q163 0 310 76t261 208t179.5 302t65.5 358q0 133 -39 190t-110 57q-56 0 -102 -25t-71 -67q-21 58 -148.5 83.5t-404.5 25.5zM1237 1771q43 0 82 -18t83.5 -36t103.5 -18q37 0 70 4
t61 15q-56 -101 -165 -101q-55 -74 -127.5 -106.5t-173.5 -33.5q7 -22 11.5 -46t4.5 -43q0 -8 -0.5 -17t-3.5 -26q17 7 36 9t35 -5l17 -8l4 8q12 23 30 23q8 0 15 -4l377 -160q33 -15 20 -45l-53 -126q-6 -14 -19 -19.5t-27 0.5l-378 160q-22 9 -22 31q0 5 3 12.5l5 12.5
l-19 8q-13 5 -23.5 17t-18.5 32q-29 -74 -92.5 -111.5t-131.5 -37.5t-124 33t-89 89t-33 124t33 124t89 89t124 33q38 0 78.5 20.5t80 48t75 48t62.5 20.5zM1606 1400q-49 0 -84 -34t-35 -81t35 -80.5t84 -33.5t83.5 33.5t34.5 80.5t-34.5 81t-83.5 34zM1149 799
q-124 0 -226.5 -61t-163.5 -163.5t-61 -226.5q0 -125 61 -227t163.5 -162.5t226.5 -60.5q125 0 227 60.5t163 162.5t61 227q0 124 -61 226.5t-163 163.5t-227 61z" />
</svg>