<?xml version="1.0" standalone="no"?>
<!DOCTYPE svg PUBLIC "-//W3C//DTD SVG 1.1//EN" "http://www.w3.org/Graphics/SVG/1.1/DTD/svg11.dtd">
<svg xmlns="http://www.w3.org/2000/svg" xmlns:xlink="http://www.w3.org/1999/xlink" version="1.1"
   viewBox="94 -151 2414 2169">
   <path fill="currentColor"
      d="M663 1396q-76 -2 -109.5 -21.5t-39.5 -46.5q34 -5 51 -32t17 -63q0 -29 -16.5 -66t-48.5 -80q-54 -71 -73 -127t-19 -135q0 -43 10 -79.5t29 -77.5q-24 -48 -24 -97q0 -87 81 -148q-6 -24 -8.5 -47t-2.5 -44q0 -81 48.5 -133.5t145.5 -76.5q-10 -34 -10 -66q0 -44 25 -77
t73 -61q5 51 35 81t95 30q36 0 73.5 -13t92.5 -41q71 -36 148.5 -56.5t195.5 -20.5q124 0 209.5 35t132 86.5t51.5 100.5q68 0 129 35t108.5 95t74.5 134.5t27 153.5q0 67 -29 130q20 41 30 77.5t10 79.5q0 79 -19.5 135t-73.5 127q-66 88 -66 146q0 36 16.5 63t50.5 32
q-8 28 -40.5 48t-67.5 20q-33 0 -61 -22v-540l-23 -19q0 -137 -50.5 -207t-138.5 -70q-20 0 -48 5q-4 -70 -49.5 -112.5t-119.5 -42.5q-102 0 -181.5 48.5t-159.5 111.5q-150 118 -265 167.5t-216 49.5v631zM1307 1978q-288 0 -458 -90.5t-185 -245.5q-11 -117 -19.5 -253.5
t-12.5 -299t-4 -355.5h81q0 183 4 348t12.5 304.5t19.5 248.5q13 121 158 192t404 71q205 0 350.5 -33.5t223 -92t77.5 -134.5q0 -19 -6 -37.5t-19 -44.5q-20 -41 -31 -81t-11 -84v-576h80v576q0 42 10 77.5t28 72.5q14 28 21.5 49.5t7.5 47.5q0 101 -88.5 177.5t-252 119.5
t-390.5 43zM1308 1296q-85 0 -154 -32.5t-124 -97.5l46 -40q47 58 103 83.5t129 25.5t129.5 -26t103.5 -83l45 40q-54 65 -123.5 97.5t-154.5 32.5zM1031 983q-37 0 -61.5 -28t-24.5 -66q0 -39 24.5 -67t61.5 -28q38 0 62 28t24 67q0 38 -24 66t-62 28zM1561 983
q-37 0 -61.5 -28t-24.5 -66q0 -39 24.5 -67t61.5 -28q38 0 62 28t24 67q0 38 -24 66t-62 28z" />
</svg>