<?xml version="1.0" standalone="no"?>
<!DOCTYPE svg PUBLIC "-//W3C//DTD SVG 1.1//EN" "http://www.w3.org/Graphics/SVG/1.1/DTD/svg11.dtd">
<svg xmlns="http://www.w3.org/2000/svg" xmlns:xlink="http://www.w3.org/1999/xlink" version="1.1"
   viewBox="94 -151 2414 2169">
   <path fill="currentColor"
      d="M573 1978q-159 0 -235 -139l66 -34q29 52 69.5 75t99.5 23q61 0 108.5 -18.5t93.5 -42.5t101.5 -42.5t131.5 -18.5q80 0 132.5 18.5t93.5 42.5t86.5 42.5t111.5 18.5q71 0 126 -22t106 -50.5t110 -50t137 -21.5q71 0 122 19.5t94 39t90 19.5q40 0 85 -21l33 68
q-64 28 -118 28q-63 0 -108 -19.5l-90 -39t-108 -19.5q-69 0 -122.5 21.5t-104 50t-110.5 50.5t-142 22t-133.5 -18.5t-91.5 -42.5t-85 -42.5t-114 -18.5t-118 18.5t-93.5 42.5t-97 42.5t-126.5 18.5zM540 1559q-103 0 -187 -47t-133 -131l67 -35q80 138 253 138
q61 0 107.5 -18.5t93 -42.5t104.5 -42.5t140 -18.5q88 0 143.5 18.5t95.5 42.5t81.5 42.5t102.5 18.5q66 0 116.5 -22t100 -50.5t111.5 -50t151 -21.5q91 0 160.5 26t126 52t106.5 26q34 0 67 -15l33 67q-46 23 -100 23q-64 0 -124 -26t-125 -52t-144 -26t-135.5 21.5
t-105.5 50t-104.5 50.5t-133.5 22q-72 0 -120.5 -18.5t-89.5 -42.5t-90 -42.5t-123 -18.5q-73 0 -125.5 18.5t-99 42.5t-98 42.5t-122.5 18.5zM586 374l-15 -48q86 -7 145.5 -37.5t105.5 -91.5l40 30q-52 69 -121 104.5t-155 42.5zM654 458l-35 -48q107 -5 175.5 -46.5
t111.5 -126.5l45 22q-88 177 -297 199zM640 343q-59 -97 -59 -184q0 -35 8 -72t24 -77l50 -20q-20 45 -26.5 84.5t-6.5 84.5q0 72 52 157zM729 519l-13 -49q117 -16 178.5 -53t103.5 -118l45 24q-48 91 -119.5 135t-194.5 61zM740 294q-64 -96 -64 -195q0 -38 9.5 -78
t30.5 -87l45 14q-19 49 -27 84t-8 67q0 86 56 166zM831 538q-88 0 -160.5 -43.5t-116 -116t-43.5 -160.5t43.5 -160.5t116 -116t160.5 -43.5t160.5 43.5t116 116t43.5 160.5t-43.5 160.5t-116 116t-160.5 43.5zM831 488q74 0 135.5 -37t98 -98.5t36.5 -134.5
q0 -74 -36.5 -135.5t-98 -98t-135.5 -36.5q-73 0 -134.5 36.5t-98.5 98t-37 135.5q0 73 37 134.5t98.5 98.5t134.5 37zM1052 381q-49 -71 -103.5 -106.5t-123.5 -45.5l7 -50q78 11 142 53t119 121zM808 223q-13 -37 -21 -70t-8 -65q0 -41 11 -82t34 -88l44 23
q-20 41 -29.5 76t-9.5 70q0 28 6 57t19 59zM1102 283q-58 -78 -119.5 -112t-141.5 -34h-11h-12l-3 -50h13.5h13.5q176 0 292 157zM1110 180q-65 -83 -125 -113.5t-144 -30.5h-8.5h-11.5l2 -51h10h9q90 0 156 30.5t130 107.5zM1760 1683l-35 -25q-29 -21 -34 -56.5t14 -68.5
l4 -7q13 -23 39 -47t48 -52.5t22 -62.5q0 -41 -34.5 -72t-84.5 -31q-45 0 -84 27t-63 76l-85 173q-63 0 -133 -21.5t-143.5 -49t-148.5 -49t-149 -21.5q35 -50 49.5 -90t14.5 -82q0 -71 -34 -108t-84.5 -56t-101 -35t-84.5 -43.5t-34 -83.5t29 -109t57.5 -101t28.5 -87
q0 -31 -12 -52.5t-16 -49.5q87 0 139 -3.5t87 -13t68 -27.5q-8 37 -30.5 71.5t-49 74.5t-47.5 91.5t-27 122.5q63 13 147.5 34t189.5 48.5t229 62.5q187 0 330 54.5t224.5 144.5t81.5 199q0 36 -13.5 76.5t-47.5 93.5t-96 126l-6 7q-25 28 -60.5 35.5t-64.5 -13.5zM1448 976
q-85 0 -155.5 -41.5t-112.5 -112t-42 -156.5q0 -85 42 -155t112.5 -112t155.5 -42q86 0 156 42t111.5 112t41.5 155q0 86 -41.5 156.5t-111.5 112t-156 41.5z" />
</svg>