<?xml version="1.0" standalone="no"?>
<!DOCTYPE svg PUBLIC "-//W3C//DTD SVG 1.1//EN" "http://www.w3.org/Graphics/SVG/1.1/DTD/svg11.dtd">
<svg xmlns="http://www.w3.org/2000/svg" xmlns:xlink="http://www.w3.org/1999/xlink" version="1.1"
   viewBox="94 -151 2414 2169">
   <path fill="currentColor"
      d="M1239 1639q-44 0 -64 -27t-20 -70q0 -29 15 -53t29.5 -44.5t14.5 -37.5q0 -37 -3.5 -61.5t-7.5 -51.5t-4 -72q0 -44 20 -95t47 -101t47 -94t20 -75q0 -51 -16 -90.5t-52 -88.5l-225 151q-21 14 -52.5 30.5t-63.5 28.5t-53 14l-76 -97l-78 74q-25 0 -38.5 -12.5
t-13.5 -34.5q0 -51 51 -76.5t179 -25.5l257 -196q-112 -10 -185.5 -80t-98.5 -167l529 -81q-1 25 -10 52t-18 40q206 103 304.5 211t98.5 233q0 68 -36 124t-89.5 105t-106 94t-87 90.5t-32.5 96.5l11 226q2 29 -13.5 67t-57.5 66t-122 28zM709 1978q-102 0 -185.5 -51
t-133.5 -136t-50 -187q0 -101 49.5 -184.5t134.5 -133t189 -49.5l-20 84q-76 5 -137.5 44t-97 101.5t-35.5 137.5q0 79 38.5 145t103.5 106t144 40q78 0 142.5 -40t103 -106t38.5 -145q0 -76 -37 -139.5t-96 -100.5l21 -85q86 46 140.5 132.5t54.5 192.5q0 102 -49.5 187
t-133 136t-184.5 51zM1196 1811q-23 0 -38.5 -13.5t-15.5 -37.5v-150h310v145q0 28 -14.5 42t-38.5 14h-203zM721 1705q-57 0 -88.5 -44.5t-15.5 -102.5l165 -620l68 -7l-171 645q-7 25 6 43t36 18q30 0 39 -31l131 -508l323 423l-13 92l-285 -356l-93 366q-9 37 -37 59.5
t-65 22.5zM1203 1751h187v-86h-187v86zM1247 1436l-278 -381l308 43l-9 54l-177 -25l185 257zM793 971q-39 0 -65.5 -26.5t-26.5 -65.5t26.5 -65.5t65.5 -26.5t66 26.5t27 65.5t-27 65.5t-66 26.5zM793 918q17 0 29 -11.5t12 -27.5q0 -17 -12 -28.5t-29 -11.5q-40 0 -40 40
q0 39 40 39zM1348 1525l55 -68h150q20 -47 53 -83l-75 -100l-111 146l-27 -65l143 -188l266 358h-454zM1315 1020l-383 -53l44 -174l75 -21l-34 138l322 45zM1892 1978q-95 0 -175 -46t-131 -123t-60 -170h84q8 70 47.5 128.5t101 93t133.5 34.5q79 0 143.5 -40t103 -106
t38.5 -145q0 -78 -38.5 -142.5t-103 -103t-143.5 -38.5q-23 0 -45 3.5t-43 10.5l-50 -71q64 -26 138 -26q102 0 185.5 49.5t133 132.5t49.5 185t-49.5 187t-133 136t-185.5 51zM1413 1675l-18 -71h480q36 0 47.5 -21t-8.5 -49l-331 -445l61 -83l65 13l-43 59l307 415
q29 39 29 81t-31 71.5t-96 29.5h-462zM1705 1042l-158 -29l64 -59l108 16q54 8 86.5 -7.5t32.5 -53.5q0 -31 -21 -50t-59 -19h-90l9 -67h81q72 0 113.5 37t41.5 99q0 76 -59 112.5t-149 20.5zM1188 482q54 -50 90 -112.5t47 -126.5l-51 6q-6 20 -12.5 39t-14.5 35
q-15 -9 -28 -23t-23 -33l-57 6q19 31 38.5 54t41.5 40q-22 29 -31.5 48.5t-9.5 35.5q0 15 10 31zM843 323q-10 -27 -15 -55t-5 -56q0 -85 39.5 -156t107 -114.5t152.5 -43.5q82 0 153.5 44t116 114.5t44.5 150.5v15t-2 19q-43 12 -123.5 26t-172 27t-171.5 21t-124 8z
M892 256q34 0 95.5 -6.5t134 -16.5t139.5 -21.5t111 -22.5q-7 -63 -43.5 -115.5t-91 -84t-115.5 -31.5q-65 0 -119 34.5t-86 91.5t-32 123q0 13 1.5 25t5.5 24z" />
</svg>