<?xml version="1.0" standalone="no"?>
<!DOCTYPE svg PUBLIC "-//W3C//DTD SVG 1.1//EN" "http://www.w3.org/Graphics/SVG/1.1/DTD/svg11.dtd">
<svg xmlns="http://www.w3.org/2000/svg" xmlns:xlink="http://www.w3.org/1999/xlink" version="1.1"
   viewBox="94 -151 2414 2169">
   <path fill="currentColor"
      d="M1071 1978q-55 0 -86 -30t-31 -88q0 -63 -8.5 -138t-21.5 -154q-15 -95 -27 -188t-12 -183q0 -72 4.5 -124t16.5 -96q18 -68 27 -113.5t9 -79.5q0 -63 -47.5 -96.5t-145.5 -33.5q-116 0 -182.5 -72t-66.5 -211q0 -102 34.5 -166t97.5 -64q44 0 74.5 28t30.5 72
q0 39 -21.5 69.5t-21.5 65.5q0 36 29.5 63t81.5 27q47 0 86 -11t91.5 -22.5t138.5 -11.5q-43 -46 -66 -101.5t-23 -121.5q0 -84 40.5 -152t108.5 -108t151 -40q84 0 152 40t108 108t40 152q0 98 -63.5 178t-166.5 119q41 15 71 64.5t30 111.5q0 36 -5.5 68t-14.5 69
q-13 53 -24.5 126t-11.5 190q0 189 17.5 297.5t60 154t116.5 45.5q137 0 137 152q0 71 -30 124t-74 53q-28 0 -43.5 -18t-26.5 -43t-27 -47.5t-47 -31.5q-107 -33 -164.5 -86t-83 -117.5t-38.5 -128.5q-7 -35 -16 -56.5t-28 -21.5q-21 0 -30 34t-9 86q0 86 18.5 172.5
t18.5 157.5q0 57 -35 92.5t-92 35.5zM826 362l-195 -77l17 -48l178 73v52zM878 488q-39 -41 -56 -84.5t-17 -98.5q0 -38 27 -64t64 -26q38 0 64 26t26 64q0 40 5.5 69.5t23.5 72.5zM2015 798l-609 -226v-53l626 232zM2026 1013q-33 0 -53.5 -36.5t-20.5 -95.5t20.5 -95
t53.5 -36t53.5 36t20.5 95t-20.5 95.5t-53.5 36.5z" />
</svg>