<?xml version="1.0" standalone="no"?>
<!DOCTYPE svg PUBLIC "-//W3C//DTD SVG 1.1//EN" "http://www.w3.org/Graphics/SVG/1.1/DTD/svg11.dtd">
<svg xmlns="http://www.w3.org/2000/svg" xmlns:xlink="http://www.w3.org/1999/xlink" version="1.1"
   viewBox="94 -151 2414 2169">
   <path fill="currentColor"
      d="M1524 1444l-690 -2q-36 0 -59.5 -29t-23.5 -68v-35t1 -37q-8 -36 -20.5 -114.5t-25.5 -177t-24.5 -196.5t-18.5 -174t-7 -108q0 -22 4 -34q-24 -18 -30 -50l-55 -278q-7 -32 10 -58t53 -32l93 -15q34 -5 58 12.5t31 51.5l54 276q8 42 -20 68q13 21 23 48q34 91 64 202
t49 218t19 186q0 42 -3 71t-10 44l529 2q40 0 67.5 28t27.5 69v35q0 41 -27.5 69t-68.5 28zM1694 1746l-76 -66l30 -62l58 53l317 -104q14 -5 26 0.5t17 20.5q5 13 -1.5 25.5t-20.5 17.5zM1567 1978q-47 0 -80 -33t-33 -80t33 -79.5t80 -32.5t79.5 32.5t32.5 79.5t-32.5 80
t-79.5 33zM1567 1922q24 0 40.5 -17t16.5 -40q0 -24 -16.5 -40.5t-40.5 -16.5t-40.5 16.5t-16.5 40.5t16.5 40.5t40.5 16.5zM1567 1878q-10 0 -18 -7.5t-8 -18.5v-188h52v188q0 11 -7.5 18.5t-18.5 7.5zM1566 1708h-141l8 -65h133q24 0 38.5 -10.5t14.5 -25.5q0 -25 -31 -47
l-131 -97l20 -65l149 109q29 22 44 48.5t15 52.5q0 42 -32 71t-87 29zM1413 1739h-111l-18 -66h134l-29 12l41 -299l71 3l-41 309q-5 41 -47 41zM1147 1978q-88 0 -150 -61.5t-62 -149.5q0 -58 28.5 -106t77 -77t106.5 -29t106 29t76.5 77t28.5 106t-28.5 106t-76.5 76.5
t-106 28.5zM1147 1902q56 0 95 -39.5t39 -95.5t-39 -95.5t-95 -39.5t-95.5 39.5t-39.5 95.5t39.5 95.5t95.5 39.5zM1147 1798q-16 0 -27.5 -11t-11.5 -27q0 -17 11.5 -27.5t27.5 -10.5q17 0 27.5 10.5t10.5 27.5q0 16 -10.5 27t-27.5 11zM1817 1656q-28 0 -41 -13t-27 -38
l-158 -296l-12 -63l-594 -3l-24 -289l180 12l8 233h115v-238l123 6l67 60h131l23 -50q67 41 115.5 161t97.5 341q18 -5 40 -7.5t39 -2.5q57 0 87.5 18t30.5 54q0 15 -12 39.5t-49 35.5zM645 1978q-47 0 -80 -33t-33 -80t33 -79.5t80 -32.5t79.5 32.5t32.5 79.5t-32.5 80
t-79.5 33zM645 1922q23 0 40 -17t17 -40q0 -24 -17 -40.5t-40 -16.5q-24 0 -40.5 16.5t-16.5 40.5t16.5 40.5t40.5 16.5zM992 1739h-67q-20 0 -33.5 -11.5t-15.5 -30.5l-38 -297l72 -3l38 287l-28 -11h97zM896 1676h-257v-72h257v72zM644 1878q-11 0 -18.5 -7.5t-7.5 -18.5
v-280q0 -18 18 -18h15q18 0 18 18v280q0 11 -7 18.5t-18 7.5zM1267 1247h-169q42 -72 42 -145q0 -52 -20 -111h-142l-3 -50h163q32 91 32 161q0 50 -15 95h86q12 -48 12 -95q0 -35 -7.5 -75t-21.5 -86h168l75 58h100l114 -150q10 -13 2.5 -19t-21.5 5l-85 68h-32v-50
q0 -27 5 -42t5 -39q0 -36 -33 -36q-13 0 -23 9.5t-10 26.5q0 22 5 40t5 41v50h-28l-62 -52h-448l-2 -50h468l24 20q-7 -20 -8.5 -30t-1.5 -18q0 -33 24 -56.5t57 -23.5q34 0 58 23.5t24 56.5q0 18 -4.5 33t-12.5 34l61 -43q23 -16 45 -16q20 0 34 14t14 33q0 21 -17 44
l-136 177h-138l-75 -58h-96q14 58 14 111q0 76 -26 145zM1500 1379q50 0 50 -38v-48q0 -38 -50 -38h-551q8 -57 9 -85.5t1 -71.5q0 -62 -17 -155.5t-48 -203.5t-72 -221q-14 -37 -51 -37q-19 0 -32 10t-13 35t7.5 98.5t19 169.5t25 193t25.5 171.5t19 102.5v81
q0 14 10.5 24.5t24.5 10.5zM1312 828l-361 -2l-34 -222q-4 -23 -8 -57t-4 -67t5.5 -54.5t16.5 -32.5q-20 -4 -43 -15t-43 -27l-74 -285q28 -73 93 -118t145 -45q70 0 127.5 34t92 91.5t34.5 128.5q0 82 -47 146t-129 93q83 90 140 201.5t89 230.5zM737 423l43 -7
q14 -2 21 -13.5t4 -27.5l-49 -243q-3 -17 -11 -22t-22 -3l-56 10q-13 2 -18.5 9.5t-1.5 24.5l49 239q4 16 15 25.5t26 7.5zM1669 697q0 20 -21 39t-42 19q-18 0 -36 -11.5t-59 -11.5q-28 0 -70.5 7.5t-75.5 7.5q-76 0 -141.5 -14t-125.5 -44l-22 -210q77 73 136 97t114 34
q84 15 128 8t88 -7q72 0 99.5 28t27.5 58z" />
</svg>