<?xml version="1.0" standalone="no"?>
<!DOCTYPE svg PUBLIC "-//W3C//DTD SVG 1.1//EN" "http://www.w3.org/Graphics/SVG/1.1/DTD/svg11.dtd">
<svg xmlns="http://www.w3.org/2000/svg" xmlns:xlink="http://www.w3.org/1999/xlink" version="1.1"
   viewBox="94 -151 2414 2169">
   <path fill="currentColor"
      d="M1181 1978q-70 0 -122.5 -42.5t-52.5 -101.5q0 -41 24.5 -74t65.5 -52q0 -140 11 -235t37 -163t71 -126l-90 -373q-74 76 -163.5 135.5t-178 93.5t-159.5 34q-68 0 -108.5 -31t-40.5 -82q0 -44 32.5 -73t82.5 -39l165 -33q37 -7 76.5 -40.5t83 -79.5t91 -92t100 -80.5
t109.5 -42.5q-82 -41 -132.5 -112.5t-50.5 -161.5q0 -85 41.5 -155t111.5 -112t155 -42q86 0 155.5 41.5t111 111.5t41.5 156q0 67 -28.5 121.5t-78.5 99.5q144 2 278.5 35.5t242 89t170.5 123.5t63 139q0 46 -32.5 79.5t-79.5 33.5q-43 0 -71 -24.5t-55 -61t-65 -73
t-100 -61t-161 -24.5l96 345q14 48 18 94.5t4 89.5q0 37 -3 82t-3 74q0 51 26 82.5t66 31.5q32 0 52.5 -18.5t43 -36.5t59.5 -18q64 0 105.5 56.5t41.5 133.5q0 58 -26 91t-68 33q-32 0 -61.5 -19t-43.5 -50q-24 28 -76 46t-114 18q-115 0 -205.5 -72.5t-182.5 -235.5
q-35 54 -56.5 95.5t-32.5 83.5t-14.5 95.5t-3.5 132.5q0 71 -50 115.5t-122 44.5zM411 1653q41 -44 47 -112h-91q6 61 44 112zM567 1742v-201h-59q-8 91 -63 149q54 45 122 52zM367 1491h91q-8 -70 -47 -111q-38 49 -44 111zM617 1742q69 -7 122 -52q-55 -60 -63 -149h-59
v201zM592 1803q-79 0 -144 -38.5t-104 -104t-39 -144.5q0 -80 39 -145t104 -103.5t144 -38.5q80 0 145 38.5t103.5 103.5t38.5 145q0 79 -38.5 144.5t-103.5 104t-145 38.5zM508 1491h59v-201q-70 8 -122 53q55 58 63 148zM773 1653q37 -48 45 -112h-91q6 69 46 112z
M617 1491h59q8 -90 64 -148q-53 -46 -123 -53v201zM727 1491h91q-8 -64 -44 -111q-41 43 -47 111z" />
</svg>