<?xml version="1.0" standalone="no"?>
<!DOCTYPE svg PUBLIC "-//W3C//DTD SVG 1.1//EN" "http://www.w3.org/Graphics/SVG/1.1/DTD/svg11.dtd">
<svg xmlns="http://www.w3.org/2000/svg" xmlns:xlink="http://www.w3.org/1999/xlink" version="1.1"
   viewBox="94 -151 2414 2169">
   <path fill="currentColor"
      d="M1209 1978q-91 0 -131.5 -19.5t-40.5 -61.5q0 -40 30 -61t81 -21q39 0 56 -41t17 -133q0 -98 -1 -190t-5 -168t-12.5 -126t-22.5 -63q-64 -60 -114 -104.5t-97.5 -78.5t-102 -61t-126.5 -53q-162 -59 -234.5 -78t-91.5 -8q-25 14 -41.5 20t-35.5 6q-29 0 -45.5 -13.5
t-16.5 -41.5q0 -35 20 -74t50 -66.5t59 -27.5q12 0 27 5q35 12 76 27.5t80 31.5q36 15 108.5 39t160 48.5t170.5 41t140 16.5q39 0 58 -9q29 -14 62 -68.5t66 -131.5t62.5 -158t50.5 -149t31 -103q11 -41 15.5 -75t13.5 -70q15 -61 77 -61q19 0 35.5 2t33.5 7q78 21 78 63
q0 32 -24.5 53t-55.5 36q-22 10 -45.5 80t-48.5 225q-18 112 -26 186t-10.5 126.5t-2.5 102.5q0 55 64.5 86.5t232.5 58.5q231 37 361.5 121t130.5 184q0 40 -22 59t-50 19q-30 0 -62 -22.5t-69 -66.5q-64 -77 -155.5 -121t-186.5 -44q-72 0 -109.5 12t-50.5 36.5t-13 62.5
l-47 78q-28 -15 -71 -23.5t-60 -8.5q-34 0 -49.5 28.5t-19.5 77t-4 107.5q0 82 4.5 176t4.5 177q0 202 -156 202zM1674 1569q-64 0 -116.5 -31t-83.5 -83.5t-31 -116.5t31 -116t83.5 -83t116.5 -31t116 31t83.5 83t31.5 116q0 63 -31.5 115.5t-83.5 84t-116 31.5z" />
</svg>