<?xml version="1.0" standalone="no"?>
<!DOCTYPE svg PUBLIC "-//W3C//DTD SVG 1.1//EN" "http://www.w3.org/Graphics/SVG/1.1/DTD/svg11.dtd">
<svg xmlns="http://www.w3.org/2000/svg" xmlns:xlink="http://www.w3.org/1999/xlink" version="1.1"
   viewBox="94 -151 2414 2169">
   <path fill="currentColor"
      d="M1076 1444q-41 0 -68.5 -28t-27.5 -69v-35q0 -41 27.5 -69t67.5 -28l529 -2q-7 -15 -10 -44t-3 -71q0 -79 19 -186t49.5 -218t63.5 -202q10 -27 23 -48q-28 -26 -20 -68l54 -276q7 -34 31 -51.5t58 -12.5l93 15q36 6 53 32t10 58l-55 278q-6 32 -30 50q4 12 4 34
q0 32 -7 108t-18.5 174t-24.5 196.5t-25.5 177t-20.5 114.5q1 18 1 37v35q0 39 -23.5 68t-59.5 29zM906 1746l-350 -115q-14 -5 -20 -17.5t-2 -25.5q5 -15 17 -20.5t26 -0.5l317 104l58 -53l30 62zM1033 1978q-46 0 -79 -33t-33 -80t33 -79.5t79 -32.5q47 0 80 32.5t33 79.5
t-33 80t-80 33zM1033 1922q24 0 40.5 -16.5t16.5 -40.5t-16.5 -40.5t-40.5 -16.5t-40.5 16.5t-16.5 40.5q0 23 16.5 40t40.5 17zM1033 1878q-11 0 -18.5 -7.5t-7.5 -18.5v-188h52v188q0 11 -7.5 18.5t-18.5 7.5zM1034 1708q-55 0 -87 -29t-32 -71q0 -26 15 -52.5t44 -48.5
l149 -109l20 65l-131 97q-31 22 -31 47q0 15 14.5 25.5t38.5 10.5h133l8 65h-141zM1187 1739q-42 0 -47 -41l-41 -309l71 -3l41 299l-29 -12h134l-18 66h-111zM1453 1978q-58 0 -106 -28.5t-76.5 -76.5t-28.5 -106t28.5 -106t76.5 -77t106 -29q59 0 107 29t76.5 77t28.5 106
q0 88 -62 149.5t-150 61.5zM1453 1902q56 0 95.5 -39.5t39.5 -95.5t-39.5 -95.5t-95.5 -39.5q-55 0 -94.5 39.5t-39.5 95.5t39.5 95.5t94.5 39.5zM1453 1798q-16 0 -27 -11t-11 -27q0 -17 11 -27.5t27 -10.5q17 0 28 10.5t11 27.5q0 16 -11 27t-28 11zM783 1656l-140 -40
q-37 -11 -49 -35.5t-12 -39.5q0 -36 30.5 -54t87.5 -18q17 0 39 2.5t40 7.5q49 -221 97.5 -341t115.5 -161l23 50h131l67 -60l123 -6v238h115l8 -233l180 -12l-24 289l-594 3l-12 63l-158 296q-13 25 -26.5 38t-41.5 13zM1955 1978q-46 0 -79 -33t-33 -80t33 -79.5t79 -32.5
q47 0 80 32.5t33 79.5t-33 80t-80 33zM1955 1922q24 0 40.5 -16.5t16.5 -40.5t-16.5 -40.5t-40.5 -16.5q-23 0 -40 16.5t-17 40.5q0 23 17 40t40 17zM1608 1739l-25 -66h97l-28 11l38 -287l72 3l-38 297q-2 19 -15.5 30.5t-33.5 11.5h-67zM1704 1676v-72h257v72h-257z
M1956 1878q-10 0 -17.5 -7.5t-7.5 -18.5v-280q0 -18 18 -18h15q18 0 18 18v280q0 11 -7.5 18.5t-18.5 7.5zM1333 1247q-26 -69 -26 -145q0 -53 14 -111h-96l-75 58h-138l-136 -177q-17 -23 -17 -44q0 -19 14 -33t34 -14q22 0 45 16l61 43q-8 -19 -12.5 -34t-4.5 -33
q0 -33 24 -56.5t58 -23.5q33 0 57 23.5t24 56.5q0 8 -1.5 18t-8.5 30l24 -20h468l-2 50h-448l-62 52h-28v-50q0 -23 5 -41t5 -40q0 -17 -9.5 -26.5t-23.5 -9.5q-33 0 -33 36q0 24 5 39t5 42v50h-32l-85 -68q-13 -11 -21 -5t2 19l114 150h100l75 -58h168q-14 46 -21.5 86
t-7.5 75q0 47 12 95h86q-15 -45 -15 -95q0 -70 32 -161h163l-3 50h-142q-20 59 -20 111q0 73 42 145h-169zM1100 1379l643 -2q14 0 24.5 -10.5t10.5 -24.5v-81q8 -28 19.5 -102.5t25 -171.5t25 -193t19 -169.5t7.5 -98.5t-13 -35t-32 -10q-37 0 -51 37q-41 111 -72 221
t-48 203.5t-17 155.5q0 43 1.5 71.5t8.5 85.5h-551q-50 0 -50 38v48q0 38 50 38zM1288 828q32 -119 89 -230.5t140 -201.5q-82 -29 -129 -93t-47 -146q0 -71 34.5 -128.5t92 -91.5t127.5 -34q80 0 145 45t93 118l-74 285q-19 16 -42.5 27t-43.5 15q11 11 16.5 32.5t5.5 54.5
t-4 67t-8 57l-34 222zM1863 423q15 2 26 -7.5t15 -25.5l49 -239q4 -17 -1 -24.5t-19 -9.5l-56 -10q-13 -2 -21.5 3t-11.5 22l-49 243q-3 16 4.5 27.5t20.5 13.5zM931 697q0 -30 27.5 -58t99.5 -28q44 0 88 7t128 -8q55 -10 114 -34t136 -97l-22 210q-60 30 -125.5 44
t-141.5 14q-33 0 -75.5 -7.5t-70.5 -7.5q-40 0 -58.5 11.5t-36.5 11.5q-21 0 -42 -19t-21 -39z" />
</svg>