<?xml version="1.0" standalone="no"?>
<!DOCTYPE svg PUBLIC "-//W3C//DTD SVG 1.1//EN" "http://www.w3.org/Graphics/SVG/1.1/DTD/svg11.dtd">
<svg xmlns="http://www.w3.org/2000/svg" xmlns:xlink="http://www.w3.org/1999/xlink" version="1.1"
   viewBox="94 -151 2414 2169">
   <path fill="currentColor"
      d="M621 1928q-274 0 -417.5 -127.5t-143.5 -349.5q0 -119 67.5 -238.5t212.5 -244.5q69 -59 107.5 -94t66.5 -65.5t62 -76.5q81 -109 189 -198t242 -142.5t293 -53.5t293 53.5t242 142.5t189 198q35 46 62.5 76.5t66.5 65.5t107 94q146 124 213 244t67 239
q0 222 -143.5 349.5t-417.5 127.5h-388q-74 0 -116 -39.5t-42 -100.5q0 -158 386 -209l98 -13q106 -14 156 -37.5t50 -66.5q0 -30 -25 -62l63 -39q19 23 28 50.5t9 50.5q0 77 -64 118.5t-207 61.5l-98 13q-160 21 -240.5 57t-80.5 78q0 58 83 58h388q244 0 365 -104
t121 -293q0 -102 -61 -207.5t-194 -219.5q-71 -62 -111 -97.5t-68 -66.5t-63 -78q-79 -106 -179.5 -188t-222.5 -129t-266 -47q-143 0 -265.5 47t-223 129t-179.5 188q-35 47 -63 78t-67.5 66.5t-111.5 97.5q-133 114 -194 219.5t-61 207.5q0 189 121 293t365 104h388
q83 0 83 -58q0 -42 -80 -78t-241 -57l-98 -13q-143 -19 -207 -61t-64 -119q0 -23 9 -50.5t28 -50.5l63 39q-25 32 -25 62q0 43 50 66.5t156 37.5l98 13q386 51 386 209q0 61 -42 100.5t-116 39.5h-388zM1300 1851q-44 0 -89.5 -3.5t-89.5 -16.5v-73q68 23 179 23t179 -23v73
q-44 13 -89.5 16.5t-89.5 3.5zM957 1474q-47 0 -80.5 -24.5t-33.5 -58.5t33.5 -58t80.5 -24t79.5 24t32.5 58t-32.5 58.5t-79.5 24.5zM839 1220l-37 -42q64 -56 159 -56q97 0 159 56l-36 42q-47 -41 -123 -41q-75 0 -122 41zM589 461l-186 -211l56 -49l186 211zM1643 1474
q-46 0 -79 -24.5t-33 -58.5t33 -58t79 -24q48 0 81 24t33 58t-33.5 58.5t-80.5 24.5zM1517 1220l-37 -42q64 -56 159 -56q97 0 159 56l-36 42q-47 -41 -123 -41q-75 0 -122 41zM976 261l-97 -289l71 -24l97 289zM1625 261l-71 -24l97 -289l71 24zM2011 461l-56 -49l186 -211
l56 49z" />
</svg>