<?xml version="1.0" standalone="no"?>
<!DOCTYPE svg PUBLIC "-//W3C//DTD SVG 1.1//EN" "http://www.w3.org/Graphics/SVG/1.1/DTD/svg11.dtd">
<svg xmlns="http://www.w3.org/2000/svg" xmlns:xlink="http://www.w3.org/1999/xlink" version="1.1"
   viewBox="94 -151 2414 2169">
   <path fill="currentColor"
      d="M1151 1978q-49 0 -95.5 -26t-76 -67t-29.5 -85q0 -41 34.5 -64t89.5 -23q42 0 86 -55.5t84.5 -142t72.5 -181t50.5 -174t18.5 -119.5q0 -24 -5 -37.5t-22 -13.5q-26 0 -47.5 33.5t-46 77t-58.5 77t-85 33.5q-43 0 -69 -25.5t-26 -64.5q0 -40 28.5 -74.5t75 -76
t99.5 -99.5l10 -11q43 -48 87.5 -112t75 -119.5t30.5 -76.5q-94 -45 -151 -130t-57 -188q0 -93 46 -169t122.5 -121.5t169.5 -45.5t169.5 45.5t122 121.5t45.5 169q0 91 -44.5 169t-122.5 130q0 36 38.5 79.5t96 98t114.5 121.5t95.5 149.5t38.5 182.5q0 68 -27 105.5
t-79 37.5q-49 0 -74 -38.5t-25 -122.5q0 -81 -20.5 -129t-54.5 -48q-14 0 -23.5 10.5t-9.5 27.5q0 28 17 73t17 104q0 31 -5 62.5t-13 62.5q38 79 88.5 148.5t109.5 142.5q52 64 72 103t20 76q0 48 -24.5 93.5t-62 75.5t-76.5 30q-45 0 -75 -30t-30 -75q0 -23 6.5 -45.5
t6.5 -44.5q0 -32 -34.5 -85t-85 -107t-100.5 -91t-80 -37t-66.5 36.5t-84 116.5t-111.5 212q-44 91 -72.5 120.5t-68.5 29.5zM593 1978q-44 0 -76.5 -32t-32.5 -77q0 -36 21.5 -64.5t55.5 -39.5l494 -687l41 30l-506 702q-24 2 -40 19t-16 40q0 24 17.5 41.5t41.5 17.5
t41.5 -17.5t17.5 -41.5q0 -3 -0.5 -7t-3.5 -17l503 -700l41 30l-491 681q1 6 1 13q0 45 -32 77t-77 32zM1186 1134q7 -8 15 -19t14 -21q-54 -20 -89 -63q-19 20 -30 39q36 43 90 64z" />
</svg>