<?xml version="1.0" standalone="no"?>
<!DOCTYPE svg PUBLIC "-//W3C//DTD SVG 1.1//EN" "http://www.w3.org/Graphics/SVG/1.1/DTD/svg11.dtd">
<svg xmlns="http://www.w3.org/2000/svg" xmlns:xlink="http://www.w3.org/1999/xlink" version="1.1"
   viewBox="94 -151 2414 2169">
   <path fill="currentColor"
      d="M1817 1788q-51 -164 -109.5 -267t-129.5 -153.5t-161 -55.5q-76 -132 -177.5 -212t-259.5 -80q-66 0 -111.5 5.5t-87 21.5t-95.5 47v-313q0 -25 -15 -40t-38 -15t-37.5 15.5t-14.5 39.5v614l-60 140v-762q0 -47 31.5 -77t80.5 -30q50 0 81 30t31 77v100l-24 1
q30 -100 75 -187t95.5 -152.5t98.5 -102.5t84 -37q-49 -39 -77 -96t-28 -121q0 -77 38 -140.5t102 -101.5t141 -38t140 38t101 101.5t38 140.5q0 80 -40.5 143t-108.5 99t-150 36q24 34 33 68.5t9 75.5q0 52 -18 119.5t-36.5 153t-18.5 190.5q43 -7 104.5 -12t101.5 -5
q143 0 240 141.5t156 419.5q37 -14 83 -14q54 0 87.5 23t33.5 56q0 15 -9.5 31.5t-31.5 25.5zM1822 1823l-25 -66l254 -90q14 -6 20 11l13 36q5 13 -11 20zM1550 1910v-74l111 -36l20 66zM1458 1978q-51 0 -87.5 -36t-36.5 -87q0 -50 36.5 -85.5t87.5 -35.5q50 0 86 35.5
t36 85.5q0 51 -36 87t-86 36zM1458 1918q26 0 44 -18t18 -45q0 -26 -18 -43.5t-44 -17.5t-45 18t-19 43q0 27 19 45t45 18zM1753 1940q-37 0 -61 -22t-35 -53l-54 -163l-15 6q-20 8 -29.5 25t-14.5 60l-49 -27q9 -53 26 -72.5t53 -34.5l64 -27l71 214q11 34 42 34
q26 0 36 -19.5t1 -47.5l-64 -192q-44 -132 -119.5 -205t-176.5 -79l17 -64q119 17 203.5 102.5t133.5 231.5l64 191q18 54 -10.5 98t-82.5 44zM1377 1777q0 -93 36.5 -153.5t108.5 -88.5q-23 -32 -48 -45.5t-58 -13.5h-91l-8 -60h106q58 0 104 37t79 110l-43 16
q-61 22 -91.5 62.5t-35.5 116.5zM954 1835v-225l157 157q-62 57 -157 68zM1141 1738l-158 -159h224q-5 93 -66 159zM910 1835q-46 -5 -86.5 -22.5t-71.5 -45.5l158 -157v225zM1207 1535h-224l158 -157q62 69 66 157zM931 1973q-114 0 -208.5 -56t-151 -150.5t-56.5 -209.5
q0 -97 41 -180.5t112 -142t161 -80.5l37 63q-79 15 -143 63.5t-101 120t-37 156.5q0 95 46.5 174t125.5 125.5t174 46.5q96 0 174.5 -46.5t125 -125.5t46.5 -174q0 -90 -42 -165.5t-113 -123.5t-160 -55l32 -67q100 15 180 73.5t126.5 146t46.5 191.5q0 115 -56.5 209.5
t-150.5 150.5t-209 56zM931 1629q-30 0 -51 -20.5t-21 -50.5q0 -31 21 -52t51 -21q29 0 50.5 21t21.5 52q0 30 -21.5 50.5t-50.5 20.5zM1493 1450l-61 -3q-57 -196 -165 -301.5t-283 -126.5l-9 -62q132 12 236 73t175.5 167t106.5 253zM954 1507v-225q90 6 157 67zM723 1738
q-28 -31 -45.5 -72t-22.5 -87h225zM910 1507l-158 -158q65 -61 158 -67v225zM880 1535h-225q11 -94 68 -157zM914 1249q-41 0 -69.5 -29t-28.5 -70q0 -29 16 -54t44 -36l-15 -53l109 -76q20 55 31.5 110t11.5 90q0 52 -28.5 85t-70.5 33z" />
</svg>