<?xml version="1.0" standalone="no"?>
<!DOCTYPE svg PUBLIC "-//W3C//DTD SVG 1.1//EN" "http://www.w3.org/Graphics/SVG/1.1/DTD/svg11.dtd">
<svg xmlns="http://www.w3.org/2000/svg" xmlns:xlink="http://www.w3.org/1999/xlink" version="1.1"
   viewBox="94 -151 2414 2169">
   <path fill="currentColor"
      d="M783 1788l-147 -59q-22 -9 -31.5 -25.5t-9.5 -31.5q0 -33 33.5 -56t87.5 -23q46 0 83 14q59 -278 156 -419.5t240 -141.5q41 0 102 5t104 12q0 -105 -18 -190.5t-36.5 -153t-18.5 -119.5q0 -41 9 -75.5t33 -68.5q-82 0 -150 -36t-108.5 -99t-40.5 -143q0 -77 38 -140.5
t101.5 -101.5t139.5 -38q78 0 141.5 38t101.5 101.5t38 140.5q0 64 -27.5 121t-77.5 96q36 0 84 37t98.5 102.5t95.5 152.5t75 187l-24 -1v-100q0 -47 31.5 -77t80.5 -30q50 0 81 30t31 77v762l-60 -140v-614q0 -24 -14.5 -39.5t-37.5 -15.5q-22 0 -37.5 15t-15.5 40v313
q-54 -31 -95.5 -47t-87 -21.5t-111.5 -5.5q-157 0 -259 80t-178 212q-89 5 -160.5 55.5t-129.5 153.5t-110 267zM778 1823l-251 -89q-16 -7 -11 -20l13 -36q6 -17 20 -11l254 90zM1050 1910l-131 -44l20 -66l111 36v74zM1142 1978q-50 0 -86 -36t-36 -87q0 -50 36 -85.5
t86 -35.5q51 0 87.5 35.5t36.5 85.5q0 51 -36.5 87t-87.5 36zM1142 1918q26 0 45 -18t19 -45q0 -25 -19 -43t-45 -18q-25 0 -43.5 17.5t-18.5 43.5q0 27 18.5 45t43.5 18zM847 1940q-54 0 -82.5 -44t-10.5 -98l64 -191q49 -146 134 -231.5t203 -102.5l17 64q-100 6 -176 79
t-120 205l-64 192q-9 28 1.5 47.5t35.5 19.5q31 0 42 -34l71 -214l64 27q36 15 53 34.5t26 72.5l-49 27q-5 -43 -14.5 -60t-29.5 -25l-15 -6l-54 163q-10 31 -34 53t-62 22zM1223 1777l-59 -19q-5 -76 -35.5 -116.5t-91.5 -62.5l-43 -16q33 -73 79 -110t104 -37h106l-8 60
h-91q-33 0 -58 13.5t-48 45.5q72 28 108.5 88.5t36.5 153.5zM1646 1835q-95 -11 -157 -68l157 -157v225zM1459 1738q-61 -66 -66 -159h224zM1690 1835v-225l158 157q-31 28 -71.5 45.5t-86.5 22.5zM1393 1535q4 -88 66 -157l158 157h-224zM1669 1973q-114 0 -208.5 -56
t-151 -150.5t-56.5 -209.5q0 -104 46.5 -191.5t126.5 -146t180 -73.5l32 67q-88 7 -159.5 55t-113.5 123.5t-42 165.5q0 95 46.5 174t125.5 125.5t174 46.5q96 0 174.5 -46.5t125 -125.5t46.5 -174q0 -85 -37 -156.5t-100.5 -120t-143.5 -63.5l37 -63q90 22 161 80.5
t112 142t41 180.5q0 115 -56.5 209.5t-150.5 150.5t-209 56zM1669 1629q-29 0 -50.5 -20.5t-21.5 -50.5q0 -31 21.5 -52t50.5 -21q30 0 51 21t21 52q0 30 -21 50.5t-51 20.5zM1107 1450q35 -147 106.5 -253t175.5 -167t236 -73l-9 62q-175 21 -283 126.5t-165 301.5z
M1646 1507l-157 -158q67 -61 157 -67v225zM1877 1738l-157 -159h225q-5 46 -22 87t-46 72zM1690 1507v-225q93 6 158 67zM1720 1535l157 -157q57 63 68 157h-225zM1686 1249q-42 0 -70.5 -33t-28.5 -85q0 -35 12 -90t31 -110l109 76l-15 53q28 11 44 36t16 54q0 41 -28.5 70
t-69.5 29z" />
</svg>