<?xml version="1.0" standalone="no"?>
<!DOCTYPE svg PUBLIC "-//W3C//DTD SVG 1.1//EN" "http://www.w3.org/Graphics/SVG/1.1/DTD/svg11.dtd">
<svg xmlns="http://www.w3.org/2000/svg" xmlns:xlink="http://www.w3.org/1999/xlink" version="1.1"
   viewBox="94 -151 2414 2169">
   <path fill="currentColor"
      d="M2009 1508q-82 0 -125.5 -48.5t-43.5 -127.5q0 -68 30.5 -126.5t61 -113.5t30.5 -111q0 -59 -46.5 -84t-141.5 -25q-91 0 -148 -35t-57 -103t42 -101t117 -55q70 -20 119 -46.5t75.5 -69.5t26.5 -110v-398h70v398q0 75 -21 126t-57.5 84.5t-85 54.5t-104.5 36
q-57 15 -84.5 32t-27.5 48q0 37 37 53t96 16q85 0 142.5 16t87 54.5t29.5 108.5t-30 130t-60.5 113.5t-30.5 107.5q0 101 99 101q81 0 152 -62t115 -163t44 -217q0 -77 -16 -142.5t-32 -136.5t-16 -164q0 -56 3 -118t8 -108l37 -308l77 8l-37 308q-4 31 -6 94t-2 125
q0 85 16 155t32 138.5t16 148.5q0 103 -31.5 196t-86.5 165.5t-125 114t-148 41.5zM1291 1978q-293 0 -462.5 -91.5t-186.5 -250.5q-4 -41 -7.5 -84t-5.5 -94l77 -32q3 61 7 110.5t9 93.5q10 77 81 137.5t195 95.5t293 35q199 0 343 -36t222 -96.5t78 -133.5q0 -24 -8 -50.5
t-23 -55.5q-11 -23 -22 -54t-15 -56l91 40q5 16 14 37t17 38q14 28 20 51t6 50q0 103 -86.5 180.5t-248 121.5t-388.5 44zM709 1217l-80 -128v-197l80 -37v362zM590 1508q-78 0 -148 -41.5t-124.5 -114t-86 -165.5t-31.5 -196q0 -81 16 -149.5t32 -138.5t16 -154
q0 -62 -2 -125t-6 -94l-37 -308l77 -8l37 308q5 46 8 108t3 118q0 93 -16 164.5t-32 136.5t-16 142q0 116 44 217t115 163t151 62q100 0 100 -101q0 -54 -30 -108t-60.5 -113.5t-30.5 -129.5q0 -98 66 -138.5t193 -40.5q67 0 100 -16.5t33 -50.5q0 -28 -25 -47t-87 -35
q-142 -38 -205 -109t-63 -192v-398h70v398q0 88 49 138.5t171 87.5q87 26 123.5 64.5t36.5 91.5q0 71 -54.5 104.5t-151.5 33.5q-95 0 -141 25t-46 84q0 57 30.5 112t61 113t30.5 126q0 79 -43.5 127.5t-126.5 48.5zM1300 1330q-84 0 -155 -32.5t-125 -98.5l51 -44
q46 56 102.5 82t126.5 26q71 0 127.5 -26t101.5 -82l52 44q-55 66 -126 98.5t-155 32.5zM1043 1038q-49 0 -89 -23t-57 -61l59 -27q9 20 33 33t54 13t55 -13t32 -32l60 26q-16 37 -56.5 60.5t-90.5 23.5zM1557 1038q-49 0 -89.5 -23.5t-56.5 -60.5l60 -26q8 19 32 32t54 13
q31 0 55 -13t33 -33l59 27q-17 38 -57 61t-90 23zM970 675l-60 -54q107 -49 201.5 -72t188.5 -23q95 0 189.5 23t200.5 72l-60 54q-90 -38 -170 -56t-160 -18t-160 18t-170 56zM1260 593q-130 -101 -239.5 -217.5t-224.5 -274.5l65 -42q113 155 217.5 266.5t223.5 206.5z
M1887 1259v-415l80 31v262zM631 321l-18 -98q79 -97 189 -170t238.5 -114t259.5 -41q132 0 260 41t238.5 114t188.5 170l-18 98q-75 -110 -182 -186.5t-232.5 -116.5t-254.5 -40q-128 0 -253.5 40t-233 116.5t-182.5 186.5z" />
</svg>