<?xml version="1.0" standalone="no"?>
<!DOCTYPE svg PUBLIC "-//W3C//DTD SVG 1.1//EN" "http://www.w3.org/Graphics/SVG/1.1/DTD/svg11.dtd">
<svg xmlns="http://www.w3.org/2000/svg" xmlns:xlink="http://www.w3.org/1999/xlink" version="1.1"
   viewBox="94 -151 2414 2169">
   <path fill="currentColor"
      d="M1314 1978q-292 0 -463.5 -90t-186.5 -247q-8 -83 -14.5 -168t-11.5 -181.5t-7.5 -213t-2.5 -261.5l80 -10q0 147 2.5 264.5t7 214.5t11.5 182t15 166q12 118 158 191t412 73q200 0 344.5 -34.5t222 -94t77.5 -132.5q0 -20 -6 -39.5t-19 -45.5q-19 -40 -30.5 -79.5
t-11.5 -82.5v-593l80 21v572q0 42 10 77t28 71q14 27 21.5 49.5t7.5 49.5q0 102 -87.5 178.5t-249.5 119.5t-387 43zM1291 1438q-85 0 -155 -33.5t-125 -100.5l51 -44q47 57 102.5 82.5t126.5 25.5t127 -25.5t102 -82.5l51 44q-55 67 -125 100.5t-155 33.5zM1030 1124
q-38 0 -63.5 -28t-25.5 -68t25.5 -68.5t63.5 -28.5t63 28.5t25 68.5t-25 68t-63 28zM575 541q-25 0 -43.5 -30t-18.5 -70q0 -30 11.5 -50t28.5 -20q24 0 42 32t18 73q0 30 -9.5 47.5t-28.5 17.5zM554 224q-31 0 -52.5 -21.5t-21.5 -52.5t21.5 -52t52.5 -21q32 0 53 21t21 52
t-21 52.5t-53 21.5zM935 509q-22 0 -39 -19.5t-17 -47.5q0 -23 13 -40.5t33 -17.5q22 0 39 20t17 48q0 24 -13 40.5t-33 16.5zM1552 1124q-38 0 -63 -28t-25 -68t25 -68.5t63 -28.5t63.5 28.5t25.5 68.5t-25.5 68t-63.5 28zM628 673l-13 -61q116 -29 293.5 -55t391.5 -26
t392 26t293 55l-13 61q-143 -29 -302.5 -52t-369.5 -23t-369.5 23t-302.5 52zM887 291q14 -40 21.5 -80.5t7.5 -83.5l38 -13q42 87 122 123zM654 783q99 -22 197 -37t207.5 -22.5t241.5 -7.5q133 0 242 7.5t207.5 22.5t196.5 37q19 -23 23 -38t4 -25q0 -54 -45 -75l76 -437
l24 27q-57 39 -104 62t-93 32.5t-99 9.5q-128 0 -245.5 -54.5t-186.5 -145.5q-69 91 -186.5 145.5t-245.5 54.5q-53 0 -99 -9.5t-93 -32.5t-104 -62l24 -27l76 437q-45 21 -45 75q0 10 4 25t23 38zM630 869q-38 -26 -59.5 -60.5t-21.5 -80.5q0 -29 9 -54.5t28 -41.5
l-76 -457l59 -37q74 62 145.5 91.5t153.5 29.5q87 0 167.5 -29t143 -80t93.5 -117h56q32 66 94 117t143 80t167 29q82 0 154 -29.5t145 -91.5l59 37l-76 457q20 16 28.5 41.5t8.5 54.5q0 46 -21.5 80.5t-59.5 60.5q-130 -32 -290.5 -52.5t-379.5 -20.5t-379.5 20.5
t-290.5 52.5zM928 160q-33 0 -56 -25t-23 -60q0 -34 23.5 -58.5t55.5 -24.5t55.5 24t23.5 59t-23 60t-56 25zM1300 481q-32 0 -56.5 -29t-24.5 -72t24.5 -72t56.5 -29t56.5 29t24.5 72t-24.5 72t-56.5 29zM1665 509q-20 0 -33 -16.5t-13 -40.5q0 -28 17 -48t39 -20
q20 0 33 17.5t13 40.5q0 28 -17 47.5t-39 19.5zM1300 71q-37 0 -62 -25t-25 -62q0 -36 25 -61t62 -25t62 25t25 61q0 37 -25 62t-62 25zM1713 291l-189 -54q80 -36 122 -123l38 13q0 43 8 83.5t21 80.5zM2025 541q-19 0 -28.5 -17.5t-9.5 -47.5q0 -41 18 -73t42 -32
q17 0 28.5 20t11.5 50q0 40 -18.5 70t-43.5 30zM1672 160q-33 0 -56 -25t-23 -60t23.5 -59t55.5 -24t55.5 24.5t23.5 58.5q0 35 -23 60t-56 25zM2046 224q-31 0 -52.5 -21.5t-21.5 -52.5t21.5 -52t52.5 -21q32 0 53 21t21 52t-21 52.5t-53 21.5z" />
</svg>