<?xml version="1.0" standalone="no"?>
<!DOCTYPE svg PUBLIC "-//W3C//DTD SVG 1.1//EN" "http://www.w3.org/Graphics/SVG/1.1/DTD/svg11.dtd">
<svg xmlns="http://www.w3.org/2000/svg" xmlns:xlink="http://www.w3.org/1999/xlink" version="1.1"
   viewBox="94 -151 2414 2169">
   <path fill="currentColor"
      d="M679 1587q-155 -24 -222 -76.5t-67 -122.5q0 -18 5.5 -35.5t5.5 -30.5q0 -29 -24 -56.5t-48 -62.5t-24 -86q0 -9 1.5 -19t2.5 -18q68 -371 175 -609.5t269.5 -362.5t394.5 -151l-14 82q-205 29 -345 142.5t-235 335t-166 577.5q-3 15 -3 27q0 35 24 62t48 57t24 74
q0 22 -5.5 38t-5.5 33q0 88 194 120zM1305 1978q-292 0 -463.5 -90t-186.5 -247q-11 -116 -18.5 -238t-12.5 -279l79 -10q6 160 13.5 283t18.5 237q12 118 158 191t412 73q200 0 344.5 -34.5t222 -94t77.5 -132.5q0 -20 -6 -39.5t-19 -45.5q-19 -40 -30.5 -79.5t-11.5 -82.5
v-291l80 12v279q0 28 4.5 52.5t13 48t20.5 47.5q14 27 21.5 49.5t7.5 49.5q0 102 -87.5 178.5t-249.5 119.5t-387 43zM1300 1343q-85 0 -155 -33.5t-125 -100.5l51 -44q47 57 102.5 82.5t126.5 25.5q72 0 128 -25.5t102 -82.5l51 44q-55 67 -125.5 100.5t-155.5 33.5z
M665 1372q-64 -26 -100.5 -69.5t-36.5 -94.5q0 -65 54.5 -106.5t136.5 -41.5h93q35 -273 77 -446.5t101 -268.5t144 -131l54 67q-62 21 -107.5 74.5t-80.5 152.5t-63 254t-55 378h-163q-51 0 -81 19t-30 49q0 24 22 47t59 40zM1058 1032q-38 0 -63 -28t-25 -68t25 -68.5
t63 -28.5t63.5 28.5t25.5 68.5t-25.5 68t-63.5 28zM1517 1032q-38 0 -63 -28t-25 -68t25 -68.5t63 -28.5t63.5 28.5t25.5 68.5t-25.5 68t-63.5 28zM1670 700q-52 -51 -87 -102t-53 -105q-66 56 -140.5 99.5t-135 67.5t-84.5 24q-17 0 -17 -16q0 -8 3.5 -22t13.5 -36l91 -211
q-97 46 -178 91t-148 92l108 -249l103 -64l177 -13l196 50l130 220zM1932 1373l-23 -77q38 -17 60 -40.5t22 -47.5q0 -30 -30 -49t-81 -19h-163q-27 -223 -55 -378t-62.5 -254t-80.5 -152.5t-108 -74.5l55 -67q86 36 144.5 131t100.5 268.5t77 446.5h92q82 0 136.5 41.5
t54.5 106.5q0 52 -37 95.5t-102 69.5zM1952 1581l-16 -76q194 -32 194 -120q0 -17 -5.5 -33t-5.5 -38q0 -44 24 -74t48 -57t24 -62q0 -12 -3 -27q-71 -356 -166 -577.5t-235 -335t-345 -142.5l-14 -82q232 27 394.5 151t270 362.5t174.5 609.5q2 8 3 18t1 19q0 51 -24 86
t-48 62.5t-24 56.5q0 13 5.5 30.5t5.5 35.5q0 73 -66.5 123t-191.5 70zM1222 302q-52 0 -88 -35.5t-36 -86.5q0 -23 8 -41.5t25 -36.5q-33 -33 -33 -81q0 -53 36 -88t88 -35q44 0 78 33q34 -33 78 -33q53 0 88.5 35t35.5 88q0 48 -33 81q17 18 25 36.5t8 41.5q0 51 -36 86.5
t-88 35.5q-44 0 -78 -33q-34 33 -78 33zM1220 240q16 0 31 -10.5t49 -43.5q34 33 49 43.5t31 10.5q27 0 44.5 -17t17.5 -43q0 -16 -10 -30t-43 -48q34 -35 43.5 -49t9.5 -32q0 -28 -16.5 -44.5t-45.5 -16.5q-16 0 -31 10.5t-49 43.5q-34 -33 -49 -43.5t-31 -10.5
q-28 0 -45 16.5t-17 44.5q0 18 9.5 32t43.5 49q-33 34 -43 48t-10 30q0 26 17.5 43t44.5 17zM1300 141q-17 0 -29 -12t-12 -29t12 -29t29 -12t29 12t12 29t-12 29t-29 12z" />
</svg>