<?xml version="1.0" standalone="no"?>
<!DOCTYPE svg PUBLIC "-//W3C//DTD SVG 1.1//EN" "http://www.w3.org/Graphics/SVG/1.1/DTD/svg11.dtd">
<svg xmlns="http://www.w3.org/2000/svg" xmlns:xlink="http://www.w3.org/1999/xlink" version="1.1"
   viewBox="94 -151 2414 2169">
   <path fill="currentColor"
      d="M764 1750q-120 0 -221 -76.5t-164 -212.5t-70 -312l81 25q12 150 64.5 263t133 175.5t176.5 62.5h1072q96 0 175.5 -62t132 -175t65.5 -264l81 -36q-9 180 -71.5 318t-162 216t-220.5 78h-1072zM526 1878q0 -29 15 -46t35 -32t35 -36.5t15 -58.5l137 7q-43 28 -58 47
t-15 35q0 21 14.5 41.5t14.5 42.5h-193zM647 1041q-81 0 -148 -39.5t-106.5 -106t-39.5 -147.5q0 -82 39.5 -149t106.5 -107t148 -40q82 0 148.5 40t106.5 107t40 149q0 81 -40 147.5t-106.5 106t-148.5 39.5zM647 1016l-21 -107h122q112 0 205.5 27t175.5 80h-482z
M1881 1878q0 -22 14.5 -42.5t14.5 -41.5q0 -16 -15 -35t-58 -47l137 -7q0 37 15 58.5t35 36.5t35 32t15 46h-193zM373 1195q-54 0 -86 -31.5t-32 -75.5t32 -76t86 -32h1853q55 0 87 32t32 76t-32 75.5t-87 31.5h-1853zM373 1130h1853q49 0 49 -42q0 -43 -49 -43h-1853
q-48 0 -48 43q0 42 48 42zM1239 804q-58 0 -99 -41t-41 -99q0 -59 41 -99.5t99 -40.5q59 0 99.5 40.5t40.5 99.5q0 58 -40.5 99t-99.5 41zM1239 744q34 0 57 -23.5t23 -56.5q0 -34 -23 -57t-57 -23q-33 0 -56.5 23t-23.5 57q0 33 23.5 56.5t56.5 23.5zM1497 1038
q16 -46 52 -83t81.5 -58.5t88.5 -21.5q63 0 119 46t82 117h-423zM1309 278q-58 0 -99 -41t-41 -99q0 -59 41 -99.5t99 -40.5q59 0 99.5 40.5t40.5 99.5q0 58 -40.5 99t-99.5 41zM1309 218q34 0 57 -23.5t23 -56.5q0 -34 -23 -57t-57 -23q-33 0 -56.5 23t-23.5 57
q0 33 23.5 56.5t56.5 23.5zM2062 1019v-275q0 -40 -29 -68.5t-70 -28.5q-40 0 -69 28.5t-29 68.5v33h-64v-33q0 -65 47.5 -112.5t114.5 -47.5t115.5 47.5t48.5 112.5v275h-65zM1639 594q-58 0 -99 -41t-41 -99q0 -59 41 -99.5t99 -40.5q59 0 99.5 40.5t40.5 99.5
q0 58 -40.5 99t-99.5 41zM1639 534q34 0 57 -23.5t23 -56.5q0 -34 -23 -57t-57 -23q-33 0 -56.5 23t-23.5 57q0 33 23.5 56.5t56.5 23.5z" />
</svg>