<?xml version="1.0" standalone="no"?>
<!DOCTYPE svg PUBLIC "-//W3C//DTD SVG 1.1//EN" "http://www.w3.org/Graphics/SVG/1.1/DTD/svg11.dtd">
<svg xmlns="http://www.w3.org/2000/svg" xmlns:xlink="http://www.w3.org/1999/xlink" version="1.1"
   viewBox="94 -151 2414 2169">
   <path fill="currentColor"
      d="M191 1532q-28 1 -37 -15t3 -37q51 -89 105.5 -227.5t108.5 -355.5q70 -279 177 -449t266 -247.5t382 -77.5q342 0 551 180.5t282 566.5q23 120 40.5 203.5t36.5 145t43.5 113.5t61.5 108q16 24 7.5 39.5t-35.5 15.5q-262 0 -383.5 -150t-121.5 -454q-43 -2 -84 -25.5
t-58 -66.5q-150 88 -315 141t-317 61q-15 1 -22 -10.5t1 -24.5q24 -38 38.5 -70t24.5 -63q-50 43 -115 82.5t-116 56.5q-18 186 -71.5 306.5t-161.5 182t-291 71.5zM361 1735q-67 0 -93.5 -10.5t-26.5 -29.5q0 -18 20 -37q41 -38 70 -84t44 -99l86 -43q-10 73 -32 124
t-59 100q65 -2 106 -15.5t66 -44.5l30 82q-34 28 -85.5 42.5t-125.5 14.5zM1194 1978q-292 0 -461.5 -90t-188.5 -247q-7 -64 -11.5 -128t-8.5 -134l75 -73q4 61 7.5 116.5t8 108t9.5 103.5q11 118 157.5 191t412.5 73q200 0 344.5 -34.5t222 -94t77.5 -132.5
q0 -20 -6 -39.5t-19 -45.5q-19 -40 -30.5 -79.5t-11.5 -82.5v-125l80 74v51q0 42 10 77t28 71q14 27 21.5 49.5t7.5 49.5q0 102 -87.5 178.5t-249.5 119.5t-387 43zM921 1269q-50 0 -90.5 -23.5t-58.5 -62.5l62 -29q10 22 33.5 34.5t53.5 12.5q29 0 53.5 -13t33.5 -33l62 28
q-15 39 -56.5 62.5t-92.5 23.5zM1191 1551q-74 0 -132.5 -22.5t-108.5 -71.5l49 -51q76 75 192 75t192 -75l49 51q-50 49 -108.5 71.5t-132.5 22.5zM1435 1269q-50 0 -91 -23.5t-58 -62.5l62 -28q9 20 33.5 33t53.5 13q30 0 53.5 -12.5t33.5 -34.5l62 29q-18 39 -58.5 62.5
t-90.5 23.5zM262 1454q131 -21 209.5 -82t119 -172.5t54.5 -283.5q76 -31 133 -63.5t99 -61.5q30 -21 52 -37t40 -32q40 -36 56 -36q9 0 12.5 9t3.5 32q0 26 -11.5 83.5t-34.5 102.5q65 -4 156.5 -31t197 -76t211.5 -117q26 73 76 105t123 34q0 200 32.5 319.5t105.5 178.5
t195 79q-38 -84 -64 -172.5t-44.5 -179t-34.5 -179.5q-61 -341 -254.5 -506t-498.5 -165q-208 0 -353 73.5t-240.5 232t-155.5 415.5q-23 98 -50.5 187t-61 173.5t-73.5 169.5zM2072 1687q-58 0 -102.5 -9.5t-77.5 -28.5l-8 -101q23 33 67.5 45.5t111.5 14.5
q-28 -38 -47.5 -75.5t-31.5 -80.5l91 19q19 44 47 83t68 70q17 14 17 28q0 18 -28.5 26.5t-106.5 8.5zM2282 661q-72 0 -124 -48t-52 -115q0 -46 -13 -72.5t-31 -44.5l-27 -27l-381 116q-69 21 -98 21q-16 0 -25.5 -7t-19.5 -25l352 -208l-342 -201q18 -33 49 -33
q17 0 40 5.5t54 15.5l368 113l20 -23q17 -20 30.5 -46t13.5 -72q0 -66 52 -114t124 -48q70 0 118.5 44.5t48.5 109.5q0 67 -51.5 115t-123.5 48q-57 0 -78.5 4t-33.5 18l-52 61l62 74q11 13 34 17.5t78 4.5q71 0 123.5 48t52.5 114q0 64 -49 109.5t-119 45.5zM2017 294
q16 0 27.5 -12t11.5 -28t-11.5 -27.5t-27.5 -11.5t-27.5 11.5t-11.5 27.5t11.5 28t27.5 12zM2282 595q41 0 71 -25t30 -64q0 -43 -33 -69.5t-76 -26.5q-42 0 -71.5 25t-29.5 63q0 43 33.5 70t75.5 27zM2264 100q42 0 75.5 -27.5t33.5 -70.5q0 -38 -30 -63.5t-71 -25.5
q-42 0 -75.5 27.5t-33.5 69.5q0 40 29.5 65t71.5 25z" />
</svg>