<?xml version="1.0" standalone="no"?>
<!DOCTYPE svg PUBLIC "-//W3C//DTD SVG 1.1//EN" "http://www.w3.org/Graphics/SVG/1.1/DTD/svg11.dtd">
<svg xmlns="http://www.w3.org/2000/svg" xmlns:xlink="http://www.w3.org/1999/xlink" version="1.1"
   viewBox="94 -151 2414 2169">
   <path fill="currentColor"
      d="M680 1400q-70 0 -109 -16t-50 -56q45 -8 61.5 -27.5t16.5 -53.5q0 -26 -18.5 -62.5t-59.5 -89.5q-55 -73 -78 -131.5t-23 -138.5q0 -42 11 -78.5t30 -78.5q-24 -48 -24 -97q0 -47 17.5 -86.5t59.5 -66.5q-11 -39 -11 -81q0 -170 191 -209q-5 -15 -7.5 -30t-2.5 -31
q0 -42 24.5 -79t70.5 -62q22 55 59.5 79t86.5 24q36 0 70 -14t74 -33q60 -29 141.5 -56.5t201.5 -27.5q112 0 205 28.5t153.5 78.5t73.5 115q66 5 124.5 41.5t103.5 95.5t70.5 131.5t25.5 149.5q0 68 -28 130q19 40 29.5 77t10.5 80q0 81 -19 139t-73 131q-35 48 -57 84.5
t-22 67.5q0 34 16.5 53.5t61.5 27.5q-10 40 -50 56t-109 16v-149q0 -50 28 -100t66 -103q41 -57 59 -105t18 -118q0 -41 -11 -73.5t-38 -83.5q20 -36 28.5 -67.5t8.5 -62.5q0 -93 -41 -172.5t-110 -129t-155 -51.5q-3 -62 -54 -108.5t-133 -72.5t-182 -26
q-112 0 -181.5 24.5t-125.5 52.5q-40 20 -84 37t-98 17q-45 0 -85 -14.5t-66 -41.5q-2 7 -3.5 16.5t-1.5 22.5q0 80 36.5 142t108 102.5t176.5 57.5l-8 50q-149 -24 -239.5 -94.5t-115.5 -178.5l18 19q-76 10 -117.5 46t-41.5 101q0 71 61 129t156 91.5t197 33.5l-38 45
q-85 0 -170 -31t-148.5 -78.5t-86.5 -94.5l36 28q-43 21 -58 48.5t-15 62.5q0 24 7.5 46t22.5 48q-27 61 -37 93t-10 67q0 70 21.5 117.5t64.5 105.5q38 52 65.5 102t27.5 101v149zM1308 1296q-85 0 -154 -32.5t-124 -97.5l46 -40q47 58 103 83.5t129 25.5t129.5 -26
t103.5 -83l45 40q-54 65 -123.5 97.5t-154.5 32.5zM1031 983q-37 0 -61.5 -28t-24.5 -66q0 -39 24.5 -67t61.5 -28q38 0 62 28t24 67q0 38 -24 66t-62 28zM1307 1898q205 0 350.5 -33.5t223 -92t77.5 -134.5q0 -19 -6 -37.5t-19 -44.5q-20 -41 -31 -81t-11 -84v-555
q0 -149 -53.5 -221t-186.5 -72q0 -74 -42 -112.5t-121 -38.5q-103 0 -184 49t-161 111q-125 97 -237.5 149t-222.5 63l26 -23q0 192 4 353t12.5 295t19.5 246q13 121 158 192t404 71zM1307 1978q-288 0 -458 -90.5t-185 -245.5q-12 -126 -20 -262.5t-12 -304t-4 -386.5
q119 -5 230.5 -54.5t238.5 -148.5q80 -62 175.5 -118t215.5 -56q62 0 111.5 20t80 55t35.5 80q128 4 192 96.5t64 263.5v564q0 42 10 77.5t28 72.5q14 28 21.5 49.5t7.5 47.5q0 101 -88.5 177.5t-252 119.5t-390.5 43zM1561 983q-37 0 -61.5 -28t-24.5 -66q0 -39 24.5 -67
t61.5 -28q38 0 62 28t24 67q0 38 -24 66t-62 28zM1952 990l-34 -38q58 -54 83 -95.5t27 -83.5l50 4q-3 51 -32.5 102t-93.5 111zM1956 477q-21 -47 -69 -81.5t-92 -34.5q-7 0 -21.5 2t-26.5 9q-61 -120 -140 -175t-176 -55q-61 0 -118 23t-79 56l-42 -28q29 -44 97 -72.5
t142 -28.5q107 0 193 57.5t141 164.5q14 -3 30 -3q60 0 120 42.5t87 103.5z" />
</svg>