<?xml version="1.0" standalone="no"?>
<!DOCTYPE svg PUBLIC "-//W3C//DTD SVG 1.1//EN" "http://www.w3.org/Graphics/SVG/1.1/DTD/svg11.dtd">
<svg xmlns="http://www.w3.org/2000/svg" xmlns:xlink="http://www.w3.org/1999/xlink" version="1.1"
   viewBox="94 -151 2414 2169">
   <path fill="currentColor"
      d="M1961 1794q-32 0 -61.5 -19t-43.5 -50q-24 28 -76 46t-114 18q-106 0 -214.5 -109t-180.5 -323h-128q-22 -75 -42.5 -164t-35 -182t-19.5 -179q-106 48 -167 104t-97.5 106t-67.5 82t-78 32q-46 0 -71 -28t-25 -78q0 -107 126 -218t379 -229q-85 -44 -131.5 -116.5
t-46.5 -162.5q0 -85 41 -154t110.5 -110t153.5 -41q85 0 154 41t110 110t41 154q0 55 -22 113.5t-74 139.5q44 -41 85.5 -59t85.5 -31q95 -27 148.5 -63.5t87.5 -104.5q39 -77 76 -107t83 -30q50 0 81.5 30t31.5 92q0 63 -37 114.5t-95.5 94t-123.5 79.5t-123.5 71.5
t-95.5 70t-37 75.5q0 27 18 65t41.5 93.5t41.5 133t18 182.5q0 135 17 202.5t69 67.5q32 0 52.5 -18.5t43 -36.5t59.5 -18q64 0 105.5 56.5t41.5 133.5q0 58 -26 91t-68 33zM904 1978q-74 0 -110 -21t-36 -67q0 -38 20.5 -71.5t66.5 -69.5q17 -13 23.5 -36.5t6.5 -54.5v-203
q0 -109 76 -179.5t261 -124.5l182 341q-66 -23 -102 -31.5t-60 -8.5q-142 0 -142 160q0 58 6.5 118t6.5 110q0 67 -49 102.5t-150 35.5zM1811 388q-67 0 -123 -33t-89 -89t-33 -123q0 -68 33 -123.5t89 -88.5t123 -33q68 0 123 33t88 88.5t33 123.5q0 67 -33 123t-88 89
t-123 33zM1811 318q72 0 123 -51.5t51 -123.5q0 -73 -51 -124t-123 -51t-123.5 51.5t-51.5 123.5t52 123.5t123 51.5z" />
</svg>