<?xml version="1.0" standalone="no"?>
<!DOCTYPE svg PUBLIC "-//W3C//DTD SVG 1.1//EN" "http://www.w3.org/Graphics/SVG/1.1/DTD/svg11.dtd">
<svg xmlns="http://www.w3.org/2000/svg" xmlns:xlink="http://www.w3.org/1999/xlink" version="1.1"
   viewBox="94 -151 2414 2169">
   <path fill="currentColor"
      d="M155 1728v-1580h297l346 152v250q77 6 154 36t135 64q72 -14 134.5 -18.5t120.5 -4.5q109 0 195.5 15.5t165.5 35t166 35t198 15.5q113 0 198 50t132.5 142t47.5 219v589h-297l-95 -279h-1496l-95 279h-307zM477 1139h355q9 -117 52 -214h-407v214zM766 855h151
q26 -42 56.5 -76.5t66.5 -58.5q-64 -50 -136 -75.5t-141 -25.5q-76 0 -153 35.5t-126 94.5q35 47 113.5 76.5t168.5 29.5zM477 659q52 -46 118 -74.5t133 -34.5v-199l-251 -110v418zM903 1139h226q30 -122 90 -241t130 -195h-44q-115 0 -199.5 52.5t-135.5 150.5t-67 233z
M970 798q-12 -34 -41 -61t-64 -46t-69 -29q-5 -22 -5 -39q0 -68 48 -115.5t115 -47.5q68 0 115.5 47.5t47.5 115.5q0 66 -44 114.5t-103 60.5zM235 1653h168v-279h1800v279h162v-439h-1963v-991h-167v1430zM1210 1139h1152q-9 -179 -85 -257.5t-210 -78.5q-128 0 -235 -22
t-200.5 -45t-183.5 -27q-83 83 -146 198.5t-92 231.5z" />
</svg>