<?xml version="1.0" standalone="no"?>
<!DOCTYPE svg PUBLIC "-//W3C//DTD SVG 1.1//EN" "http://www.w3.org/Graphics/SVG/1.1/DTD/svg11.dtd">
<svg xmlns="http://www.w3.org/2000/svg" xmlns:xlink="http://www.w3.org/1999/xlink" version="1.1"
   viewBox="94 -151 2414 2169">
   <path fill="currentColor"
      d="M738 1828q-190 0 -327 -62.5t-210.5 -178t-73.5 -273.5q0 -106 58.5 -231.5t170.5 -260.5q44 -53 72.5 -92.5t56.5 -86.5q83 -143 161.5 -253.5t169.5 -186.5t208 -115.5t276 -39.5q160 0 277 39.5t207.5 116t169.5 187t162 252.5q29 48 57 87.5t72 92.5
q113 135 170.5 260.5t57.5 230.5q0 158 -73 273.5t-210 178t-328 62.5q-175 0 -302.5 -29t-225.5 -85.5t-185 -140.5q-112 -107 -206.5 -185t-180.5 -140q-100 -73 -153 -117.5t-72 -78t-19 -71.5q0 -63 43.5 -95t122.5 -32q119 0 265 70t276 191q188 172 358 256t307 84
q50 0 92 -9.5t94 -33.5l29 63q-52 24 -101.5 37t-113.5 13q-151 0 -334.5 -88.5t-378.5 -269.5q-121 -113 -253.5 -180.5t-239.5 -67.5q-52 0 -74 16.5t-22 45.5q0 21 16 44t62.5 60.5t138.5 103.5q63 45 124.5 96t127.5 109.5t142 127.5q66 60 130 103t138 70t169.5 40
t225.5 13q254 0 392.5 -116t138.5 -318q0 -90 -52.5 -203t-156.5 -237q-46 -56 -76.5 -98t-60.5 -93q-82 -140 -155 -244.5t-155 -173.5t-187 -103t-250 -34t-250 34t-187 103t-155 173t-154 245q-29 50 -59.5 92.5t-77.5 98.5q-104 124 -157 236.5t-53 203.5
q0 202 138.5 318t392.5 116q158 0 286 -28t239 -88l56 56q-128 72 -270 106t-311 34zM710 1511q-55 0 -122 -16.5t-117 -41.5l31 -63q44 22 102.5 36.5t105.5 14.5q130 0 263 -73l53 51q-158 92 -316 92zM1300 1049q-43 0 -74 -27.5t-31 -73.5q0 -47 31 -74t74 -27
q44 0 74.5 27t30.5 74q0 46 -30.5 73.5t-74.5 27.5zM1028 752q-37 0 -64 -29.5t-27 -78.5q0 -50 27 -79.5t64 -29.5q38 0 64.5 29.5t26.5 79.5q0 49 -26.5 78.5t-64.5 29.5zM1613 1455l-49 -50q77 -76 136 -128.5t108 -87.5q89 -64 135.5 -101t63.5 -60.5t17 -46.5
q0 -31 -23 -49t-73 -18q-104 0 -236 67.5t-257 185.5q-40 38 -103 90l-45 -53q32 -27 56.5 -48.5t43.5 -40.5q132 -127 278 -196.5t263 -69.5q77 0 121.5 34.5t44.5 97.5q0 64 -58.5 119t-186.5 146q-46 33 -103 84t-133 125zM1572 752q-37 0 -64 -29.5t-27 -78.5
q0 -50 27 -79.5t64 -29.5q38 0 64.5 29.5t26.5 79.5q0 49 -26.5 78.5t-64.5 29.5z" />
</svg>