<?xml version="1.0" standalone="no"?>
<!DOCTYPE svg PUBLIC "-//W3C//DTD SVG 1.1//EN" "http://www.w3.org/Graphics/SVG/1.1/DTD/svg11.dtd">
<svg xmlns="http://www.w3.org/2000/svg" xmlns:xlink="http://www.w3.org/1999/xlink" version="1.1"
   viewBox="94 -151 2414 2169">
   <path fill="currentColor"
      d="M1449 1978q-40 0 -68.5 -29.5t-72.5 -120.5q-64 -132 -111.5 -212t-83.5 -116.5t-67 -36.5q-30 0 -80 37t-100.5 91t-85 107t-34.5 85q0 22 6.5 44.5t6.5 45.5q0 45 -30 75t-75 30q-39 0 -76.5 -30t-62 -75.5t-24.5 -93.5q0 -37 20 -76t72 -103q59 -73 110 -142.5
t88 -148.5q-7 -31 -12.5 -62.5t-5.5 -62.5q0 -59 17 -104t17 -73q0 -17 -9.5 -27.5t-23.5 -10.5q-34 0 -54.5 48t-20.5 129q0 84 -24.5 122.5t-74.5 38.5q-52 0 -79 -37.5t-27 -105.5q0 -100 38.5 -182.5t95.5 -149.5t114.5 -121.5t96 -98t38.5 -79.5q-78 -52 -122.5 -130
t-44.5 -169q0 -93 45.5 -169t122 -121.5t169.5 -45.5t170 45.5t122.5 121.5t45.5 169q0 103 -57 188t-151 130q0 21 30.5 76.5t75 119.5t87.5 112l10 11q53 58 99.5 99.5t75 76t28.5 74.5q0 39 -26 64.5t-69 25.5q-51 0 -85 -33.5t-58.5 -77t-46 -77t-47.5 -33.5
q-16 0 -21.5 13.5t-5.5 37.5q0 40 18.5 119.5t50.5 174t72.5 181t84.5 142t86 55.5q56 0 90 23t34 64q0 44 -29.5 85t-75.5 67t-96 26zM2007 1978q-45 0 -77 -32t-32 -77q0 -7 1 -13l-491 -681l41 -30l503 700q-3 13 -3.5 17t-0.5 7q0 24 17.5 41.5t41.5 17.5t41.5 -17.5
t17.5 -41.5q0 -23 -16 -40t-40 -19l-506 -702l41 -30l494 687q34 11 55.5 39.5t21.5 64.5q0 45 -32.5 77t-76.5 32zM1414 1134q54 -21 90 -64q-11 -19 -30 -39q-35 43 -89 63q6 10 14 21t15 19z" />
</svg>