<?xml version="1.0" standalone="no"?>
<!DOCTYPE svg PUBLIC "-//W3C//DTD SVG 1.1//EN" "http://www.w3.org/Graphics/SVG/1.1/DTD/svg11.dtd">
<svg xmlns="http://www.w3.org/2000/svg" xmlns:xlink="http://www.w3.org/1999/xlink" version="1.1"
   viewBox="94 -151 2414 2169">
   <path fill="currentColor"
      d="M627 1427q-56 0 -94.5 -38.5t-38.5 -91.5q0 -26 9 -48q-50 -6 -83 -43t-33 -86q0 -45 22 -74q-33 -17 -53.5 -48t-20.5 -69q0 -58 41 -97q-44 -36 -44 -96q0 -38 19 -69.5t50 -48.5q-23 -35 -23 -76q0 -46 28.5 -81t71.5 -45q-5 -20 -5 -38q0 -53 39 -91.5t94 -38.5h5
q-1 -4 -1 -15q0 -53 39 -91.5t94 -38.5q17 0 30 4q7 -47 42.5 -78t84.5 -31q44 0 74 24q11 -41 45 -68.5t79 -27.5q53 0 92 39q16 -28 45 -47.5t65 -19.5t65.5 19.5t45.5 47.5q17 -17 40.5 -28t50.5 -11q46 0 80 27.5t44 68.5q32 -24 74 -24q50 0 85.5 31t41.5 78
q13 -4 31 -4q56 0 94 38.5t38 91.5q0 11 -1 15h5q56 0 94 38.5t38 91.5q0 18 -5 38q44 10 72.5 45t28.5 81q0 42 -24 76q31 17 50.5 48.5t19.5 69.5q0 59 -44 96q41 41 41 97q0 38 -21 69t-53 48q22 31 22 74q0 49 -33 86t-83 43q9 22 9 48q0 53 -38 91.5t-94 38.5
q-18 0 -36 -9v-255q-55 -7 -81 -44.5t-26 -86.5q0 -50 22 -76q-38 -26 -54.5 -57t-16.5 -68q-53 -19 -76 -67q-18 5 -35 5q-34 0 -63.5 -17t-46.5 -45q-34 25 -78 25q-58 0 -98 -45q-37 30 -85 30q-47 0 -85 -30q-38 45 -97 45q-45 0 -78 -25q-18 28 -47 45t-64 17
q-15 0 -35 -5q-21 47 -76 67q0 37 -16 68t-54 57q8 10 14.5 30.5t6.5 45.5q0 49 -25.5 86.5t-81.5 44.5v255q-16 9 -35 9zM1309 1978q-293 0 -462.5 -92.5t-186.5 -249.5q-9 -87 -14.5 -171.5t-7.5 -182t-2 -222.5h80q0 128 2 226.5t7 180.5t15 163q14 118 165 193t404 75
q199 0 343 -35.5t222 -96t78 -134.5q0 -26 -8 -50.5t-21 -50.5q-15 -31 -26.5 -66.5t-11.5 -79.5v-444h80v444q0 43 11 76t25 63q13 26 22 52t9 56q0 101 -86.5 179.5t-248 122.5t-388.5 44zM1309 1324q-84 0 -155 -33t-125 -99l51 -44q46 56 102.5 82t126.5 26
q71 0 127.5 -26t101.5 -82l52 44q-55 66 -126 99t-155 33zM1052 1033q-38 0 -63.5 -28t-25.5 -68t25.5 -68.5t63.5 -28.5t63 28.5t25 68.5t-25 68t-63 28zM1567 1033q-38 0 -63.5 -28t-25.5 -68t25.5 -68.5t63.5 -28.5t63 28.5t25 68.5q0 39 -24.5 67.5t-63.5 28.5z" />
</svg>