<?xml version="1.0" standalone="no"?>
<!DOCTYPE svg PUBLIC "-//W3C//DTD SVG 1.1//EN" "http://www.w3.org/Graphics/SVG/1.1/DTD/svg11.dtd">
<svg xmlns="http://www.w3.org/2000/svg" xmlns:xlink="http://www.w3.org/1999/xlink" version="1.1"
   viewBox="94 -151 2414 2169">
   <path fill="currentColor"
      d="M295 1978q-65 0 -108 -42t-43 -107v-840q92 -227 199 -344t216 -117q47 0 112 24.5t132 53.5q59 25 113 46t91 21l-25 77q-37 0 -88.5 -19.5t-115.5 -48.5q-80 -37 -133.5 -56.5t-85.5 -19.5q-82 0 -172 104.5t-173 304.5v809q0 36 24.5 60t61.5 24h2001q37 0 61 -24
t24 -60v-1119q-87 -156 -183.5 -267.5t-191 -171t-176.5 -59.5q-47 0 -109.5 32.5t-126.5 87.5t-114 124l-62 -45q58 -79 131 -141.5t147 -98.5t134 -36q98 0 205.5 64.5t214 185t201.5 288.5v1160q0 66 -42 108t-108 42h-2011zM707 1973q-102 0 -185.5 -48.5t-133.5 -132.5
t-50 -188q0 -101 49.5 -184.5t134.5 -133t189 -49.5l-20 84q-76 5 -137.5 44t-97 101.5t-35.5 137.5q0 79 38.5 144t103.5 103.5t144 38.5q78 0 142.5 -38.5t103 -103.5t38.5 -144q0 -76 -37 -139.5t-96 -100.5l21 -85q86 46 140.5 132.5t54.5 192.5q0 102 -49.5 185.5
t-133 133.5t-184.5 50zM1195 1811q-22 0 -38 -13.5t-16 -37.5v-150h310v145q0 28 -14.5 42t-38.5 14h-203zM721 1705q-57 0 -88.5 -44.5t-15.5 -102.5l165 -620l68 -7l-171 645q-7 25 5.5 43t36.5 18q30 0 39 -31l131 -508l322 423l-13 92l-284 -356l-94 366
q-10 37 -37 59.5t-64 22.5zM1203 1751h187v-86h-187v86zM1246 1436l-277 -381l308 43l-9 54l-178 -25l180 247zM793 971q-38 0 -65 -26.5t-27 -65.5t27 -65.5t65 -26.5q40 0 67 26.5t27 65.5t-27 65.5t-67 26.5zM792 918q18 0 30 -11.5t12 -27.5q0 -17 -12 -28.5t-30 -11.5
q-39 0 -39 40q0 39 39 39zM1348 1525l55 -68h150q17 -43 52 -83l-74 -100l-112 146l-27 -65l144 -188l266 358h-454zM1315 1020l-384 -53l44 -174l75 -21l-34 138l323 45zM1893 1973q-96 0 -176 -44.5t-130.5 -120.5t-59.5 -169h83q9 70 48.5 127t100.5 90.5t134 33.5
q79 0 143.5 -38.5t103 -103.5t38.5 -144q0 -78 -38.5 -142.5t-103 -103t-143.5 -38.5q-23 0 -45.5 3.5t-42.5 10.5l-51 -71q66 -26 139 -26q101 0 184.5 49.5t133.5 132.5t50 185t-49.5 185.5t-133 133.5t-185.5 50zM1239 1639q-44 0 -64 -27t-20 -70q0 -29 15 -53
t29.5 -44.5t14.5 -37.5q0 -37 -3.5 -61.5t-7.5 -51.5t-4 -72q0 -44 20 -95t47 -101t47 -94t20 -75q0 -51 -16 -90.5t-52 -88.5l-225 151q-21 14 -52.5 30.5t-63.5 28.5t-53 14l-76 -97l-78 74q-25 0 -38.5 -12.5t-13.5 -34.5q0 -51 51 -76.5t179 -25.5l257 -196
q-112 -10 -185.5 -80t-98.5 -167l529 -81q-1 25 -10 52t-18 40q206 103 304.5 211t98.5 233q0 68 -36 124t-89.5 105t-106 94t-87 90.5t-32.5 96.5l11 226q2 29 -13.5 67t-57.5 66t-122 28zM1413 1675l-19 -71h481q35 0 47 -21t-9 -49l-330 -445l60 -83l65 13l-43 59
l308 415q29 39 29 81t-31 71.5t-96 29.5h-462zM843 323q-10 -27 -15 -55t-5 -56q0 -85 39.5 -156t107 -114.5t152.5 -43.5q82 0 153.5 44t116 114.5t44.5 150.5v15t-2 19q-43 12 -123.5 26t-172 27t-171.5 21t-124 8zM1188 482q54 -50 90 -112.5t47 -126.5l-51 6
q-6 20 -12.5 39t-14.5 35q-15 -9 -28 -23t-23 -33l-57 6q19 31 38.5 54t41.5 40q-22 29 -31.5 48.5t-9.5 35.5q0 15 10 31zM892 256q34 0 95.5 -6.5t134 -16.5t139.5 -21.5t111 -22.5q-7 -63 -43.5 -115.5t-91 -84t-115.5 -31.5q-65 0 -119 34.5t-86 91.5t-32 123
q0 13 1.5 25t5.5 24zM1704 1042l-158 -29l64 -59l108 16q55 8 87 -7.5t32 -53.5q0 -31 -21 -50t-59 -19h-90l9 -67h81q72 0 113.5 37t41.5 99q0 76 -58.5 112.5t-149.5 20.5z" />
</svg>