<?xml version="1.0" standalone="no"?>
<!DOCTYPE svg PUBLIC "-//W3C//DTD SVG 1.1//EN" "http://www.w3.org/Graphics/SVG/1.1/DTD/svg11.dtd">
<svg xmlns="http://www.w3.org/2000/svg" xmlns:xlink="http://www.w3.org/1999/xlink" version="1.1"
   viewBox="94 -151 2414 2169">
   <path fill="currentColor"
      d="M1087 1656q-64 0 -107 -33.5t-43 -75.5q0 -50 22 -119.5t58 -145.5l-128 -84q-91 -59 -134 -146t-43 -225q0 -57 12.5 -105.5t12.5 -94.5t-40 -78t-98.5 -61.5t-117.5 -66.5t-99 -92t-40 -139q0 -67 29.5 -111.5t82.5 -44.5q38 0 63.5 24.5t35.5 77.5q15 73 111.5 136.5
t243.5 90.5q-25 -43 -37.5 -85.5t-12.5 -85.5q0 -81 40 -148t107 -106.5t148 -39.5t148 39.5t106.5 106.5t39.5 148q0 37 -16 82.5t-40.5 84.5t-49.5 59q56 -25 95.5 -45t71 -41t63.5 -48q12 -66 41 -102t78 -36q50 0 76.5 34t26.5 82q0 85 -97 160.5t-271 142.5
q-182 70 -182 204q0 54 27 93t99 83q66 40 86.5 69.5t20.5 68.5q0 20 -8.5 59.5t-21 82.5t-25.5 75q33 7 54 29.5t21 52.5q0 32 -33.5 51.5t-88.5 19.5q-61 0 -99 -18.5t-38 -52.5q0 -22 16 -59.5t32 -77.5t16 -67q0 -53 -28.5 -81t-76.5 -28q-59 0 -59 45q0 24 16.5 60.5
t29.5 73.5t4 65l-64 193q27 20 42.5 41.5t15.5 44.5q0 26 -24 45t-70 19zM721 1978q-158 0 -249 -56t-91 -147q0 -69 55.5 -144t152 -148.5t221 -139t263.5 -116t280.5 -79.5t269.5 -29q157 0 248 50.5t91 141.5q0 69 -55 145t-151.5 151t-220.5 141.5t-263.5 118.5
t-280.5 81.5t-270 29.5zM721 1903q115 0 245 -27.5t260 -75t248 -108t210 -126.5t145 -132t53 -123q0 -54 -69 -85.5t-190 -31.5q-115 0 -245 27t-260.5 73.5t-248.5 105.5t-210 124.5t-145 130t-53 120.5q0 53 67.5 90.5t192.5 37.5zM1658 1959q-32 0 -45.5 -23.5
t-21.5 -51t-25 -39.5q8 -2 15 -2.5t14 -0.5q37 0 73 16.5t36 51.5q0 21 -12.5 35t-33.5 14zM1746 1779v-60q64 -1 95 -20t31 -71q0 -12 -2 -26.5t-5 -31.5l7 -7q35 11 66 16t56 5q41 0 66.5 -11t25.5 -30q0 -18 -17.5 -43.5t-58.5 -62.5q37 -38 80.5 -59t75.5 -39t32 -46
q0 -18 -18 -26.5t-44 -8.5q-16 0 -33 2.5t-34 7.5l-8 -13q37 -57 52 -99.5t15 -67.5q0 -34 -48 -34q-22 0 -58 8t-83 24l-9 -9q21 -32 32.5 -59.5t11.5 -43.5q0 -12 -7 -18.5t-16 -6.5q-25 0 -67 27.5t-87 69.5h-9q-24 -53 -54 -53q-16 0 -40 15t-52 48l-59 -23
q50 -55 85.5 -77.5t68.5 -22.5q55 0 83 65l-32 -1q50 -50 94 -77t80 -27q29 0 48 19t19 53q0 10 -3 22t-9 25l-8 -6q21 -8 41 -10.5t36 -2.5q53 0 79 22.5t26 63.5q0 27 -11.5 64.5t-35.5 73.5l-12 -14q62 1 94 26.5t32 63.5q0 49 -31 72.5t-73 43.5t-77 57l-4 -38
q37 28 55 57t18 58q0 44 -41 72t-105 28q-33 0 -61.5 -5t-48.5 -12l31 -32q2 9 3.5 21.5t1.5 24.5q0 136 -180 139zM1570 879q-25 -20 -40.5 -50t-15.5 -54t15.5 -38.5t35.5 -14.5t33 14.5t13 34.5q0 28 -20.5 52.5t-20.5 55.5zM1775 875q-17 -45 -10 -90q8 -39 25 -55.5
t38 -16.5q24 0 40 15t16 39q0 34 -21.5 49t-47.5 26t-40 33z" />
</svg>