<?xml version="1.0" standalone="no"?>
<!DOCTYPE svg PUBLIC "-//W3C//DTD SVG 1.1//EN" "http://www.w3.org/Graphics/SVG/1.1/DTD/svg11.dtd">
<svg xmlns="http://www.w3.org/2000/svg" xmlns:xlink="http://www.w3.org/1999/xlink" version="1.1"
   viewBox="94 -151 2414 2169">
   <path fill="currentColor"
      d="M1384 1978q-125 0 -181 -118.5t-56 -365.5q0 -74 -24 -114t-70 -40q-36 0 -69 19t-68.5 43.5t-79.5 43.5t-103 19t-98.5 -19.5t-68 -44.5t-53 -44.5t-53.5 -19.5q-34 0 -62 12.5t-51 12.5q-35 0 -48.5 -27.5t-13.5 -82.5q0 -51 26.5 -91.5t65.5 -64t77 -23.5
q41 0 68 17.5t49 41t47 41t61 17.5q75 0 136.5 -66t125.5 -157q72 -102 109.5 -173.5t37.5 -114.5q0 -53 -43.5 -89.5t-112.5 -36.5q-124 0 -124 89q0 50 -31 85.5t-80 35.5q-54 0 -92 -42t-38 -106q0 -85 53.5 -154.5t144 -111.5t200.5 -42q75 0 192 20t244 56l-26 41
q-31 -57 -46.5 -106.5t-15.5 -98.5q0 -88 43 -161t115.5 -116.5t160.5 -43.5t160.5 43.5t115.5 116.5t43 161q0 83 -37 152.5t-101 113.5t-146 54l67 -62q5 85 40.5 150t88 101t108.5 36q44 0 67 -24t27 -64q13 -113 122 -113q60 0 94 34.5t34 99.5q0 82 -51 153t-130 114.5
t-163 43.5q-60 0 -107 -21t-87 -42t-79 -21q-51 0 -98.5 48t-84.5 133.5t-59 200t-22 247.5q0 134 24 184q43 14 71 48t28 73q0 51 -49.5 85.5t-123.5 34.5z" />
</svg>