<?xml version="1.0" standalone="no"?>
<!DOCTYPE svg PUBLIC "-//W3C//DTD SVG 1.1//EN" "http://www.w3.org/Graphics/SVG/1.1/DTD/svg11.dtd">
<svg xmlns="http://www.w3.org/2000/svg" xmlns:xlink="http://www.w3.org/1999/xlink" version="1.1"
   viewBox="94 -151 2414 2169">
   <path fill="currentColor"
      d="M1120 1978q-48 0 -83.5 -15t-35.5 -42q0 -23 17 -55.5t64 -94.5v-272q0 -44 -15 -91t-30 -102t-15 -123q0 -63 12 -126.5t12 -108.5q0 -58 -32 -58q-28 0 -55 44.5t-44.5 107t-17.5 117.5q0 81 -26 115t-73 34q-88 0 -88 -97q0 -138 46.5 -263.5t128.5 -223t188.5 -154
t226.5 -56.5t226.5 56.5t188.5 154t128.5 223t46.5 263.5q0 97 -88 97q-47 0 -73 -34t-26 -115q0 -55 -17.5 -117.5t-44.5 -107t-55 -44.5q-32 0 -32 58q0 45 12 108.5t12 126.5q0 68 -14.5 123t-29.5 102t-15 91v272q47 62 64 94.5t17 55.5q0 27 -35.5 42t-84.5 15
q-58 0 -97.5 -22t-39.5 -78v-376q0 -25 -11 -40t-32 -15t-31.5 15t-10.5 40v376q0 56 -39 78t-99 22zM1300 534q-87 0 -159 -43t-115.5 -115.5t-43.5 -161.5q0 -88 43.5 -159.5t115.5 -114t159 -42.5t159.5 42.5t115.5 114t43 159.5q0 89 -43 161.5t-115.5 115.5t-159.5 43z
" />
</svg>