<?xml version="1.0" standalone="no"?>
<!DOCTYPE svg PUBLIC "-//W3C//DTD SVG 1.1//EN" "http://www.w3.org/Graphics/SVG/1.1/DTD/svg11.dtd">
<svg xmlns="http://www.w3.org/2000/svg" xmlns:xlink="http://www.w3.org/1999/xlink" version="1.1"
   viewBox="94 -151 2414 2169">
   <path fill="currentColor"
      d="M1216 1978q-73 0 -123 -34.5t-50 -85.5q0 -39 28 -73t71 -48q24 -50 24 -184q0 -133 -22 -247.5t-59 -200t-84.5 -133.5t-98.5 -48q-39 0 -79 21t-87 42t-107 21q-84 0 -163 -43.5t-130 -114.5t-51 -153q0 -65 34 -99.5t94 -34.5q109 0 122 113q5 40 27.5 64t66.5 24
q56 0 108.5 -36t88 -101t40.5 -150l67 62q-82 -10 -146 -54t-101 -113.5t-37 -152.5q0 -88 43 -161t115.5 -116.5t160.5 -43.5t160.5 43.5t115.5 116.5t43 161q0 49 -15 98.5t-47 106.5l-26 -41q128 -36 244.5 -56t191.5 -20q110 0 200.5 42t144 111.5t53.5 154.5
q0 64 -38 106t-92 42q-49 0 -80 -35.5t-31 -85.5q0 -89 -124 -89q-69 0 -112.5 36.5t-43.5 89.5q0 43 37.5 114.5t109.5 173.5q65 91 126 157t136 66q36 0 61 -17.5t47 -41t49 -41t68 -17.5q38 0 77 23.5t65.5 64t26.5 91.5q0 55 -13.5 82.5t-48.5 27.5q-22 0 -50.5 -12.5
t-62.5 -12.5q-29 0 -53.5 19.5t-53 44.5t-68 44.5t-98.5 19.5t-103 -19t-79.5 -43.5t-68.5 -43.5t-69 -19q-46 0 -70 40t-24 114q0 247 -56 365.5t-181 118.5z" />
</svg>