<?xml version="1.0" standalone="no"?>
<!DOCTYPE svg PUBLIC "-//W3C//DTD SVG 1.1//EN" "http://www.w3.org/Graphics/SVG/1.1/DTD/svg11.dtd">
<svg xmlns="http://www.w3.org/2000/svg" xmlns:xlink="http://www.w3.org/1999/xlink" version="1.1"
   viewBox="94 -151 2414 2169">
   <path fill="currentColor"
      d="M723 1978q-22 0 -39 -13t-17 -39q0 -38 35 -69.5t113 -55.5q-12 -183 -17.5 -280.5t-5.5 -147.5q0 -40 21.5 -77t86 -61t193.5 -24q8 -173 16 -298t18.5 -214.5t24.5 -153.5q-104 -35 -167.5 -121.5t-63.5 -194.5q0 -92 45 -167t120 -119.5t165 -44.5q92 0 167.5 44.5
t120 119.5t44.5 167q0 89 -45 166t-124 124q54 80 94.5 187.5t63.5 219.5t23 207q0 137 -10 228t-23 152t-23 104.5t-10 85.5q0 83 58 83q43 0 73.5 -23.5t59.5 -46.5t68 -23q40 0 77 35t61 83t24 88q0 36 -23.5 57.5t-64.5 21.5q-28 0 -57.5 -12t-64.5 -34
q-52 23 -106 34.5t-104 11.5q-211 0 -211 -234v-313h-289q6 123 8.5 224t2.5 192q0 131 -86 131h-232zM775 1259q-58 0 -91.5 -28t-33.5 -72q0 -43 30 -67t78 -24q44 0 94.5 -13t102.5 -52.5t102 -117.5t93 -208l193 144q-19 73 -73.5 150t-133 142t-171.5 105.5t-190 40.5z
" />
</svg>