<?xml version="1.0" standalone="no"?>
<!DOCTYPE svg PUBLIC "-//W3C//DTD SVG 1.1//EN" "http://www.w3.org/Graphics/SVG/1.1/DTD/svg11.dtd">
<svg xmlns="http://www.w3.org/2000/svg" xmlns:xlink="http://www.w3.org/1999/xlink" version="1.1"
   viewBox="94 -151 2414 2169">
   <path fill="currentColor"
      d="M1305 1978q-292 0 -462.5 -90t-187.5 -247q-11 -105 -19 -217.5t-12.5 -248t-4.5 -307.5l80 -46q0 187 4.5 330.5t12.5 259.5t19 222q12 118 158 191t412 73q200 0 344.5 -34.5t222 -94t77.5 -132.5q0 -20 -6 -39.5t-19 -45.5q-19 -40 -30.5 -79.5t-11.5 -82.5v-560
l80 18v542q0 42 10 77t28 71q14 27 21.5 49.5t7.5 49.5q0 102 -87.5 178.5t-249.5 119.5t-387 43zM1300 1300q-85 0 -155 -33.5t-125 -100.5l51 -44q47 57 102.5 82.5t126.5 25.5q72 0 128 -25.5t102 -82.5l51 44q-55 67 -125.5 100.5t-155.5 33.5zM1022 993q-38 0 -63 -28
t-25 -68t25 -68.5t63 -28.5t63.5 28.5t25.5 68.5t-25.5 68t-63.5 28zM1552 993q-38 0 -63 -28t-25 -68t25 -68.5t63 -28.5t63.5 28.5t25.5 68.5t-25.5 68t-63.5 28zM579 662l-33 -69q281 -204 608 -302.5t724 -98.5q25 0 48.5 0.5t51.5 2.5l-4 74q-25 -2 -50.5 -2h-50.5
q-387 0 -703 96.5t-591 298.5zM630 936q-44 -83 -68 -154t-33 -147.5t-9 -176.5q0 -119 60 -221t167 -178t248.5 -118.5t304.5 -42.5q164 0 305.5 42t248 117.5t166.5 176t60 217.5q0 103 -10 181.5t-37 150t-78 154.5q-116 -130 -275.5 -220.5t-341.5 -135.5
q-225 49 -399 136.5t-309 218.5zM661 811q166 -133 366.5 -213t442 -116.5t529.5 -38.5q0 -96 -54.5 -180.5t-150.5 -150t-222.5 -102.5t-271.5 -37q-146 0 -273 37t-223 103t-150 154.5t-54 190.5q0 114 12.5 193.5t48.5 159.5zM568 424l-27 -71q292 -190 559.5 -281
t555.5 -101l38 74q-194 2 -377 43t-366.5 124t-382.5 212zM1934 812q34 -70 48 -136.5t17 -157.5q-133 0 -262 9.5t-242 26.5q238 81 439 258z" />
</svg>