<?xml version="1.0" standalone="no"?>
<!DOCTYPE svg PUBLIC "-//W3C//DTD SVG 1.1//EN" "http://www.w3.org/Graphics/SVG/1.1/DTD/svg11.dtd">
<svg xmlns="http://www.w3.org/2000/svg" xmlns:xlink="http://www.w3.org/1999/xlink" version="1.1"
   viewBox="94 -151 2414 2169">
   <path fill="currentColor"
      d="M2044 1828q-114 0 -185.5 -48t-104.5 -133t-33 -195q0 -145 52.5 -312t160.5 -336q49 -77 90.5 -118.5t87.5 -41.5q12 0 23.5 2t23.5 6q65 -92 117 -137.5t113 -45.5q55 0 94 38.5t39 100.5q0 76 -38.5 151t-111.5 160q-78 91 -127 165t-71.5 145.5t-22.5 157.5h-78
q0 -94 25.5 -175.5t78.5 -163.5t136 -179q66 -77 100.5 -141.5t34.5 -118.5q0 -32 -16.5 -51t-46.5 -19t-56 18t-57.5 59t-78.5 110q-36 -12 -63 -12q-36 0 -64 33t-66 95q-74 119 -118.5 223.5t-64 199.5t-19.5 187q0 139 56.5 217.5t189.5 78.5q86 0 145 -38.5t90 -103
t31 -142.5q0 -95 -21 -197t-70 -196l57 -60q54 108 83 229.5t29 223.5q0 100 -42 183t-119 132t-183 49zM556 1828q-105 0 -182 -49t-119 -132t-42 -183q0 -102 28.5 -223.5t83.5 -229.5l57 60q-49 94 -70.5 196t-21.5 197q0 78 31 142.5t90.5 103t144.5 38.5
q133 0 189.5 -78.5t56.5 -217.5q0 -92 -19 -187t-63 -200t-119 -223q-39 -62 -66.5 -95t-63.5 -33q-26 0 -64 12q-46 -69 -78 -110t-57.5 -59t-55.5 -18t-46.5 19t-16.5 51q0 54 34 118.5t100 141.5q83 97 136 179t78.5 163.5t25.5 175.5h-77q0 -86 -22.5 -157.5t-71 -145.5
t-127.5 -165q-73 -85 -112 -160t-39 -151q0 -62 39.5 -100.5t94.5 -38.5q60 0 112.5 45.5t116.5 137.5q13 -4 24 -6t23 -2q47 0 88.5 41.5t90.5 118.5q109 169 161 336t52 312q0 110 -33 195t-104.5 133t-186.5 48zM1300 1736q-145 0 -274 -10t-242 -30l32 -75
q105 17 226.5 26t257.5 9t257.5 -9t227.5 -26l31 75q-112 20 -241.5 30t-274.5 10zM1300 1018q-46 0 -76 -14t-30 -51q0 -41 30.5 -68t75.5 -27t76 27t31 68q0 37 -30 51t-77 14zM1035 772q-35 0 -60.5 -28t-25.5 -75q0 -48 25.5 -75.5t60.5 -27.5q37 0 62 27.5t25 75.5
q0 47 -25 75t-62 28zM1565 772q-36 0 -61 -28t-25 -75q0 -48 25 -75.5t61 -27.5t61.5 27.5t25.5 75.5q0 47 -25.5 75t-61.5 28zM568 721l-64 -46q109 -177 201 -298t182 -193t189.5 -104t223.5 -32t224 32t189.5 104t182 193t200.5 298l-64 46q-100 -170 -184 -284
t-165 -182t-173.5 -97.5t-209.5 -29.5t-209 29.5t-173.5 97.5t-165 182t-184.5 284z" />
</svg>