<?xml version="1.0" standalone="no"?>
<!DOCTYPE svg PUBLIC "-//W3C//DTD SVG 1.1//EN" "http://www.w3.org/Graphics/SVG/1.1/DTD/svg11.dtd">
<svg xmlns="http://www.w3.org/2000/svg" xmlns:xlink="http://www.w3.org/1999/xlink" version="1.1"
   viewBox="94 -151 2414 2169">
   <path fill="currentColor"
      d="M522 1423q-103 -58 -176 -139t-123.5 -196t-87.5 -274l2231 -20q-9 219 -57 364.5t-143 236.5l-68 -43q85 -74 129.5 -198.5t56.5 -320.5l30 36l-2110 20l23 -35q35 136 81.5 232.5t112 164t156.5 116.5zM544 1878q-68 0 -124 -27l34 -66q36 18 90 18q55 0 101.5 -18.5
t93.5 -42.5t102.5 -42.5t127.5 -18.5q78 0 129.5 18.5t93 42.5t88 42.5t113.5 18.5q72 0 127 -22t106.5 -50.5t110 -50t135.5 -21.5q64 0 114 27t93 54t85 27q21 0 47.5 -6.5t48.5 -17.5l33 67q-62 32 -129 32q-46 0 -80.5 -16.5t-66 -37.5t-66 -37.5t-79.5 -16.5
q-70 0 -123.5 21.5t-104 50t-110 50.5t-141.5 22t-134 -18.5t-91.5 -42.5t-84.5 -42.5t-114 -18.5q-68 0 -118 18.5t-94.5 42.5t-94.5 42.5t-118 18.5zM1100 1379l-216 -68q38 -103 93 -166.5t110 -63.5q45 0 72.5 28t40.5 75.5t13 106.5q0 16 -2.5 43t-9.5 52zM311 1479
q-68 0 -122 -27l34 -66q36 18 88 18q99 0 168.5 -18.5t126 -42.5t115 -42.5t135.5 -18.5q100 0 185.5 30.5t165.5 61t162 30.5q68 0 121 -22t104 -50.5t111.5 -50t142.5 -21.5q77 0 135.5 18.5t110.5 43.5t108.5 43.5t129.5 18.5q23 0 50.5 -6.5t49.5 -17.5l33 67
q-62 32 -133 32q-82 0 -142.5 -18.5t-111.5 -43.5t-105 -43.5t-125 -18.5q-75 0 -131 21.5t-106 50t-107 50.5t-135 22q-96 0 -180 -30.5t-165 -61t-168 -30.5q-67 0 -121.5 18.5t-112 42.5t-131.5 42.5t-180 18.5zM1110 1167l-49 -24l319 -811q6 -14 21 -15t26 9t3 29z
M654 844q-1 -11 -1 -21v-20q0 -101 7.5 -192t17.5 -166q-52 -28 -85.5 -84t-33.5 -123t32.5 -121t87 -86.5t120.5 -32.5q67 0 121.5 32.5t87 86.5t32.5 121q0 66 -32 121.5t-77 76.5q39 40 91 61t103 21q43 0 74 -18.5t56.5 -42t51.5 -42t58 -18.5q31 0 58.5 25.5t27.5 59.5
q0 55 -45 95t-123 61.5t-176 21.5q-30 0 -66 -5.5t-60 -14.5q35 46 55 101.5t31 102.5h-413z" />
</svg>