<?xml version="1.0" standalone="no"?>
<!DOCTYPE svg PUBLIC "-//W3C//DTD SVG 1.1//EN" "http://www.w3.org/Graphics/SVG/1.1/DTD/svg11.dtd">
<svg xmlns="http://www.w3.org/2000/svg" xmlns:xlink="http://www.w3.org/1999/xlink" version="1.1"
   viewBox="94 -151 2414 2169">
   <path fill="currentColor"
      d="M1877 1978h-232q-86 0 -86 -131q0 -91 2.5 -192t8.5 -224h-289v313q0 234 -211 234q-50 0 -103.5 -11.5t-106.5 -34.5q-34 22 -64 34t-58 12q-40 0 -64 -21.5t-24 -57.5q0 -40 24 -88t61.5 -83t76.5 -35t68 23t59.5 46.5t73.5 23.5q58 0 58 -83q0 -42 -10 -85.5
t-23 -104.5t-23 -152t-10 -228q0 -95 23 -207t64 -219.5t94 -187.5q-79 -47 -124 -124t-45 -166q0 -92 44.5 -167t120 -119.5t167.5 -44.5q91 0 165.5 44.5t119.5 119.5t45 167q0 108 -63.5 194.5t-167.5 121.5q15 64 25 153.5t18 214.5t16 298q130 0 194 24t85.5 61
t21.5 77q0 50 -5.5 147.5t-17.5 280.5q78 24 113 55.5t35 69.5q0 26 -16.5 39t-39.5 13zM1825 1259q-97 0 -190 -40.5t-171.5 -105.5t-132.5 -142t-74 -150l193 -144q44 130 93.5 208t101.5 117.5t102.5 52.5t94.5 13q48 0 78 24t30 67q0 44 -33 72t-92 28z" />
</svg>