<?xml version="1.0" standalone="no"?>
<!DOCTYPE svg PUBLIC "-//W3C//DTD SVG 1.1//EN" "http://www.w3.org/Graphics/SVG/1.1/DTD/svg11.dtd">
<svg xmlns="http://www.w3.org/2000/svg" xmlns:xlink="http://www.w3.org/1999/xlink" version="1.1"
   viewBox="94 -151 2414 2169">
   <path fill="currentColor"
      d="M1023 1978q-48 0 -70.5 -13t-22.5 -42q0 -43 56 -90q17 -14 23 -90.5t6 -251.5q0 -102 13.5 -183.5t30 -166.5t24.5 -196q-209 -188 -301.5 -351t-92.5 -329q0 -181 99 -181q43 0 63.5 42.5t20.5 122.5q0 105 34 199.5t95 163t141 96.5l47 -6q-70 -42 -103 -101.5
t-33 -120.5q0 -69 33.5 -125t89.5 -89t124 -33q69 0 125 33t89 89t33 125q0 61 -33 120.5t-103 101.5l48 6q80 -28 140.5 -96.5t94.5 -163t34 -199.5q0 -80 21 -122.5t63 -42.5q99 0 99 181q0 166 -92.5 329t-301.5 351q8 111 24.5 196t30 166.5t13.5 183.5q0 176 6.5 252
t23.5 90q55 46 55 90q0 29 -22 42t-71 13q-128 0 -128 -88q0 -33 4.5 -71.5t4.5 -75.5q0 -48 -15 -102.5t-39 -103.5t-51.5 -79.5t-52.5 -30.5t-52.5 30.5t-51.5 79.5t-39 103.5t-15 102.5q0 37 4.5 75.5t4.5 71.5q0 88 -128 88zM271 336q-28 0 -46.5 -19t-18.5 -48v-207
q0 -29 18.5 -47.5t46.5 -18.5q29 0 47 19t18 48v207q0 28 -18 47t-47 19zM486 434q-39 0 -64.5 -26t-25.5 -66v-352q0 -41 25.5 -66.5t64.5 -25.5q40 0 65 25.5t25 66.5v352q0 40 -25 66t-65 26zM130 188v-45h2340v45h-2340zM2114 434q-39 0 -64.5 -26t-25.5 -66v-352
q0 -41 25.5 -66.5t64.5 -25.5q40 0 65 25.5t25 66.5v352q0 40 -25 66t-65 26zM2329 336q-28 0 -46.5 -19t-18.5 -47v-207q0 -29 18.5 -48t46.5 -19q29 0 47 18.5t18 47.5v207q0 29 -18 48t-47 19z" />
</svg>