<?xml version="1.0" standalone="no"?>
<!DOCTYPE svg PUBLIC "-//W3C//DTD SVG 1.1//EN" "http://www.w3.org/Graphics/SVG/1.1/DTD/svg11.dtd">
<svg xmlns="http://www.w3.org/2000/svg" xmlns:xlink="http://www.w3.org/1999/xlink" version="1.1"
   viewBox="94 -151 2414 2169">
   <path fill="currentColor"
      d="M1281 1978q-292 0 -468.5 -90t-191.5 -247q-9 -89 -15.5 -181t-11 -198t-7 -236t-2.5 -296q0 -183 51.5 -335.5t144.5 -264t218 -172t272 -60.5q144 0 267 60t215 167t143.5 248.5t51.5 304.5v712q0 42 10 77t28 71q14 27 21.5 49.5t7.5 49.5q0 102 -90 178.5
t-254.5 119.5t-389.5 43zM1276 1781q-25 0 -42.5 -18t-17.5 -43t17.5 -42.5t42.5 -17.5q26 0 43.5 17.5t17.5 42.5t-17.5 43t-43.5 18zM976 1656q-20 11 -40.5 -1.5t-20.5 -34.5v-291q0 -24 19.5 -34t41.5 2l256 142q22 12 22 33.5t-22 34.5zM1826 1865l-94 -254l63 -119
l-66 -119q-54 33 -130 59.5t-160 41.5t-163 15t-163.5 -15.5t-161 -42t-130.5 -59.5l-64 120l63 119l-72 192l-103 -178v-369q20 1 64.5 17.5t115.5 48.5l90 41q77 35 173 56.5t188 21.5q93 0 189 -21t172 -57l89 -41q72 -33 115.5 -49t72.5 -17v192l73 158l-37 148z
M1259 1568q-25 0 -46.5 -17t-27.5 -41l-12 -51q-8 -35 14 -63.5t58 -28.5h60q37 0 60 28t13 64l-14 51q-7 24 -27.5 41t-45.5 17h-32zM1574 1656l-257 -149q-21 -13 -21 -35t21 -33l257 -142q22 -12 42 -2t20 34v291q0 22 -21 35t-41 1zM1278 1151q-85 0 -155 -33.5
t-125 -100.5l51 -44q47 57 102.5 82.5t126.5 25.5q72 0 128 -25.5t102 -82.5l51 44q-55 67 -125.5 100.5t-155.5 33.5zM1000 834q-38 0 -63 -28t-25 -68t25 -68.5t63 -28.5t63.5 28.5t25.5 68.5t-25.5 68t-63.5 28zM1281 1898q200 0 347 -34.5t227 -94t80 -132.5
q0 -20 -6 -39.5t-19 -45.5q-19 -40 -30.5 -79.5t-11.5 -82.5v-712q0 -147 -45.5 -274t-126.5 -223t-189.5 -149.5t-235.5 -53.5q-173 0 -310 95.5t-216.5 264.5t-79.5 392q0 165 2.5 295t7 235.5t11 196.5t15.5 177q8 78 78.5 137.5t197.5 93t304 33.5zM1530 834
q-38 0 -63 -28t-25 -68t25 -68.5t63 -28.5t63.5 28.5t25.5 68.5t-25.5 68t-63.5 28z" />
</svg>