<?xml version="1.0" standalone="no"?>
<!DOCTYPE svg PUBLIC "-//W3C//DTD SVG 1.1//EN" "http://www.w3.org/Graphics/SVG/1.1/DTD/svg11.dtd">
<svg xmlns="http://www.w3.org/2000/svg" xmlns:xlink="http://www.w3.org/1999/xlink" version="1.1"
   viewBox="94 -151 2414 2169">
   <path fill="currentColor"
      d="M1300 1628q-254 0 -470.5 -29.5t-378 -83.5t-251.5 -126.5t-90 -157.5v-692h80v692q0 60 80.5 117t228.5 102t351.5 71.5t449.5 26.5t449.5 -26.5t351.5 -71.5t228.5 -102t80.5 -117v-692h80v692q0 85 -89.5 157.5t-251 126.5t-378.5 83.5t-471 29.5zM576 1214
q40 0 68 -11t28 -26q0 -17 -28 -28t-68 -11q-39 0 -67 11t-28 28q0 15 28 26t67 11zM973 1321q81 0 138 -23t57 -55t-57 -54.5t-138 -22.5q-80 0 -137 22.5t-57 54.5t57 55t137 23zM1454 1297q41 0 70 -12.5t29 -28.5t-29 -27.5t-70 -11.5t-69.5 11.5t-28.5 27.5t28.5 28.5
t69.5 12.5zM1356 1144q51 0 86.5 -15t35.5 -34q0 -21 -35.5 -35t-86.5 -14q-49 0 -85.5 14t-36.5 35q0 19 36.5 34t85.5 15zM1760 1292q28 0 47 -8t19 -18q0 -11 -19 -19t-47 -8q-27 0 -46 8t-19 19q0 10 19 18t46 8zM1709 1159q44 0 74 -12.5t30 -28.5q0 -18 -30 -30
t-74 -12q-43 0 -73 12t-30 30q0 16 30 28.5t73 12.5zM1300 830q-372 0 -638.5 -33t-409 -97.5t-142.5 -160.5q0 -97 142 -161.5t408.5 -97t639.5 -32.5t639.5 32.5t408.5 97t142 161.5q0 96 -142.5 160.5t-408.5 97.5t-639 33zM1300 750q350 0 598 -27t380 -74.5t132 -109.5
q0 -63 -132 -110.5t-380 -74t-598 -26.5q-349 0 -597.5 26.5t-380.5 74t-132 110.5q0 62 132 109.5t380.5 74.5t597.5 27zM2006 1217q42 0 71.5 -12t29.5 -28q0 -17 -29.5 -29t-71.5 -12t-71.5 12t-29.5 29q0 16 29.5 28t71.5 12zM1300 1410q-191 0 -363.5 -17t-306 -47
t-210.5 -67.5t-77 -77.5t77 -77.5t210.5 -67t306 -46.5t363.5 -17t363 17t305.5 46.5t210.5 67t77 77.5t-77 77.5t-210.5 67.5t-305.5 47t-363 17z" />
</svg>