<?xml version="1.0" standalone="no"?>
<!DOCTYPE svg PUBLIC "-//W3C//DTD SVG 1.1//EN" "http://www.w3.org/Graphics/SVG/1.1/DTD/svg11.dtd">
<svg xmlns="http://www.w3.org/2000/svg" xmlns:xlink="http://www.w3.org/1999/xlink" version="1.1"
   viewBox="94 -151 2414 2169">
   <path fill="currentColor"
      d="M779 1136q62 0 97.5 -10.5t62.5 -34.5q-13 -53 -12.5 -107.5t18.5 -105.5q-64 0 -105 -25t-61 -86q-24 24 -24.5 47.5t-0.5 57.5q0 45 -38 45q-22 0 -38 -26.5t-16 -66.5q0 -34 12 -73t12 -86q0 -44 -19.5 -95.5t-75.5 -113.5q0 66 -8.5 109t-21.5 72.5t-26 56t-21.5 58
t-8.5 79.5q0 88 38 157t100.5 108.5t135.5 39.5zM1405 1857q-20 0 -33.5 -29t-13 -64.5t19.5 -56.5q24 -26 39 -43t15 -38q0 -14 -7.5 -42t-17.5 -58t-18 -48h98q13 35 25.5 78t12.5 71q0 37 -27.5 69.5t-53.5 60.5q-10 11 -9 35t-2.5 44.5t-27.5 20.5zM1481 140l-68 159
l-61 -23l66 -164zM1577 258l-145 74l-32 -57l147 -78zM1567 273q-22 0 -37 -15t-15 -37q0 -23 15 -38t37 -15q23 0 38 15t15 38q0 22 -15 37t-38 15zM1455 158q-22 0 -37 -15t-15 -37q0 -23 15 -38t37 -15q23 0 38 15t15 38q0 22 -15 37t-38 15zM1344 384l19 48
q-28 17 -59.5 17t-57.5 -22l26 -48q13 12 35 13t37 -8zM1160 1977q-25 0 -38 -6t-13 -15q0 -20 41 -41q26 -14 41.5 -29.5t15.5 -33.5q0 -41 -3.5 -108.5t-11 -134.5t-21.5 -105q-25 -72 -79 -141.5t-100 -146.5q-29 19 -74 33t-105 14q-79 0 -130 -23t-87 -56.5
t-67.5 -66.5t-72.5 -54q-104 -53 -149.5 -126.5t-45.5 -176.5q0 -78 26 -141q14 31 35 52.5t44 21.5q25 0 35 -16.5t10 -40.5q0 -46 -22 -94.5t-44 -103t-22 -118.5q0 -98 53.5 -184t183.5 -132q-10 46 -2 88.5t42 42.5q26 0 40.5 -24t14.5 -57q0 -69 34.5 -113.5t99 -60.5
t153.5 2q-55 52 -75.5 93.5t-20.5 78.5q0 45 17.5 82.5t34.5 79.5t17 103q0 58 -16 97.5t-36.5 70.5t-36.5 62.5t-16 75.5q0 57 21 90.5t52.5 48t60.5 14.5q46 0 90 -10.5t113 -47.5q34 -19 59.5 -39.5t25.5 -47.5q0 -29 -27 -45t-66.5 -24t-78.5 -13t-63 -11
q-26 -7 -35.5 -15.5t-9.5 -24.5q0 -22 40.5 -60.5t93.5 -65.5q21 -71 82 -112t125 -41q73 0 135 35.5t100.5 106.5t38.5 176q0 29 -5.5 79t-12 97.5t-9.5 69.5q31 0 73 -10t81.5 -30t65.5 -50t26 -70q0 -44 -16 -75.5t-36.5 -62.5t-36.5 -70.5t-16 -97.5q0 -61 17.5 -103
t34.5 -79.5t17 -82.5q0 -37 -20.5 -78.5t-75.5 -93.5q90 -18 154.5 -2t99.5 60.5t35 113.5q0 33 12.5 57t37.5 24q37 0 44.5 -42.5t-1.5 -88.5q130 46 183.5 132t53.5 184q0 65 -22 119.5t-44 102.5t-22 94q0 24 10 40.5t35 16.5q23 0 44 -21.5t35 -52.5q26 63 26 141
q0 103 -45.5 176.5t-149.5 126.5q-39 20 -66 53t-54 67t-66.5 57t-102.5 23q-27 0 -61 -15t-69.5 -32t-67.5 -25t-55 6q46 73 114 143t150 132q108 82 242.5 147t294.5 110q-56 112 -133 162.5t-163 50.5q-123 0 -223 -56q-68 56 -154 56q-61 0 -117.5 -45t-74.5 -100
l70 -40q14 48 51 76.5t71 28.5q43 0 75 -18t68 -62q53 41 108.5 60.5t125.5 19.5q48 0 90 -20.5t81 -66.5q-115 -41 -237 -100.5t-224 -137.5q-126 -95 -215.5 -206t-115.5 -205q58 -32 111.5 -26.5t110 21t121.5 15.5q73 0 136 -39.5t101.5 -108.5t38.5 -157
q0 -58 -13.5 -99.5t-31 -79.5t-31 -84t-13.5 -112q-56 62 -74 113.5t-18 95.5q0 47 12 86t12 73q0 40 -19.5 66.5t-43.5 26.5q-22 0 -30 -13.5t-8 -39.5q0 -25 -2 -49t-24 -48q-41 55 -102 78.5t-131.5 28t-139.5 4.5q5 -35 12.5 -86t14.5 -104.5t11.5 -96t4.5 -60.5
q0 -121 -56 -175.5t-138 -54.5q-52 0 -89.5 30t-45.5 71q7 22 9.5 52t-1.5 49q59 7 100 38.5t41 84.5q0 48 -36.5 93.5t-101.5 76.5q-85 40 -125 82t-40 114q0 69 28 128t69 115t80.5 113t61.5 122q24 68 33.5 149.5t11 148.5t1.5 94q0 53 -38.5 84t-90.5 31z" />
</svg>