<?xml version="1.0" standalone="no"?>
<!DOCTYPE svg PUBLIC "-//W3C//DTD SVG 1.1//EN" "http://www.w3.org/Graphics/SVG/1.1/DTD/svg11.dtd">
<svg xmlns="http://www.w3.org/2000/svg" xmlns:xlink="http://www.w3.org/1999/xlink" version="1.1"
   viewBox="94 -151 2414 2169">
   <path fill="currentColor"
      d="M121 1509q-25 0 -42 -17.5t-17 -42.5v-122q0 -26 19 -35.5t50 -9.5h234l49 -55q24 -27 61 -27h310q22 0 35 9.5t26 26.5l156 195h685l89 -179q27 -53 78 -53h535q2 -33 2.5 -71t0.5 -78q0 -65 -2 -131.5t-7 -123.5q-2 -27 -29 -27l-895 -2v-79l903 2q38 0 65 22t31 60
q10 79 14 156.5t4 154.5q0 46 -1 92t-4 91q67 0 67 60v124q0 25 -16.5 42.5t-42.5 17.5h-194l-184 -205h-167l-164 205h-896l-143 -200l-195 -2l-158 202h-257zM625 1778q-74 0 -135.5 -36.5t-98 -98.5t-36.5 -136q0 -75 36.5 -136.5t98 -98t135.5 -36.5q75 0 136.5 36.5
t98 98t36.5 136.5q0 74 -36.5 136t-98 98.5t-136.5 36.5zM625 1688q74 0 127.5 -53.5t53.5 -127.5t-53.5 -127.5t-127.5 -53.5t-127 53.5t-53 127.5t53 127.5t127 53.5zM179 1178v-66h100q8 0 14 -6t6 -14v-128l-34 -69l-93 -9l7 -66l129 13l57 116v161q0 68 -49 68h-137z
M1389 1444v-1248q0 -20 -20 -20h-370q-59 0 -110 30.5t-76 79.5l-237 463h-347q-40 0 -43 39q-3 37 -4 86.5t-1 103.5q0 75 6 152.5t18 160.5l-79 12q-12 -82 -18.5 -163t-6.5 -162q0 -55 1.5 -109t5.5 -108q3 -37 28.5 -63.5t65.5 -26.5h325l215 -421q36 -71 106.5 -111.5
t150.5 -40.5h407q26 0 44.5 16.5t18.5 43.5v1286h-80zM728 770q-14 0 -21 -11t0 -24l200 -386q15 -29 42.5 -46t59.5 -17h231q17 0 29 12.5t12 29.5v402q0 17 -12.5 28.5t-29.5 11.5h-511zM860 692h321q20 0 20 -22v-284q0 -22 -20 -22h-172q-20 0 -31 22l-139 268
q-7 13 -0.5 25.5t21.5 12.5zM2020 1778q-74 0 -135.5 -36.5t-98 -98.5t-36.5 -136q0 -75 36.5 -136.5t98 -98t135.5 -36.5q75 0 136.5 36.5t98 98t36.5 136.5q0 74 -36.5 136t-98 98.5t-136.5 36.5zM2020 1688q74 0 127.5 -53.5t53.5 -127.5t-53.5 -127.5t-127.5 -53.5
t-127 53.5t-53 127.5t53 127.5t127 53.5zM2333 1118q-17 0 -29 -11.5t-12 -28.5v-170q0 -17 12 -27.5t29 -10.5h84v248h-84z" />
</svg>