<?xml version="1.0" standalone="no"?>
<!DOCTYPE svg PUBLIC "-//W3C//DTD SVG 1.1//EN" "http://www.w3.org/Graphics/SVG/1.1/DTD/svg11.dtd">
<svg xmlns="http://www.w3.org/2000/svg" xmlns:xlink="http://www.w3.org/1999/xlink" version="1.1"
   viewBox="94 -151 2414 2169">
   <path fill="currentColor"
      d="M1303 1978q-292 0 -463.5 -90t-186.5 -247q-9 -89 -15.5 -182.5t-11 -207.5t-7 -263t-2.5 -348l80 90q0 220 4 379.5t12.5 284.5t19.5 240q12 118 158 191t412 73q200 0 344.5 -34.5t222 -94t77.5 -132.5q0 -20 -6 -39.5t-19 -45.5q-19 -40 -30.5 -79.5t-11.5 -82.5v-712
l81 -38v750q0 42 9.5 77t27.5 71q14 27 21.5 49.5t7.5 49.5q0 102 -87.5 178.5t-249.5 119.5t-387 43zM1291 1379q-85 0 -154.5 -33.5t-124.5 -100.5l51 -44q47 57 102 82.5t126 25.5q72 0 127.5 -25.5t101.5 -82.5l51 44q-55 67 -125 100.5t-155 33.5zM1035 1074
q-38 0 -63 -28t-25 -68t25 -68.5t63 -28.5t63.5 28.5t25.5 68.5t-25.5 68t-63.5 28zM1543 1074q-38 0 -63 -28t-25 -68t25 -68.5t63 -28.5t63.5 28.5t25.5 68.5t-25.5 68t-63.5 28zM1055 597h97q-1 -14 -3.5 -29t-7.5 -29h-170q38 38 84 58zM930 493h195q-8 -17 -16 -30
t-21 -28h-196q7 13 17.5 29.5t20.5 28.5zM1292 923q-188 0 -341 -38.5t-243.5 -103t-90.5 -141.5q0 -39 24.5 -75.5t71 -69t110.5 -58.5q-10 -14 -17.5 -28.5t-14.5 -29.5h279l56 -149q50 27 86 38.5t77 11.5t77 -11.5t86 -38.5l56 149h279q-7 16 -15 30.5t-17 27.5
q65 26 111 58.5t70.5 69t24.5 75.5q0 58 -52 109t-144 90t-213 61.5t-260 22.5zM1291 684q21 -23 36.5 -34t49.5 -26q0 -55 18.5 -113t52.5 -105l-30 -83q-33 10 -64.5 16.5t-62.5 6.5t-62.5 -6.5t-64.5 -16.5l-30 83q34 47 52.5 105t18.5 113q34 15 49.5 26t36.5 34z
M1430 597h97q46 -20 84 -58h-170q-4 14 -7 29t-4 29zM1939 600l-77 -33q35 -62 48.5 -103.5t13.5 -81.5q0 -113 -83.5 -204.5t-226.5 -145.5t-323 -54q-179 0 -322 54t-226.5 145.5t-83.5 204.5q0 40 14 81.5t48 103.5l-77 33q-38 -68 -54.5 -118.5t-16.5 -99.5
q0 -100 54.5 -188t152 -154.5t228.5 -104t283 -37.5q153 0 283.5 37.5t228.5 104t152.5 154.5t54.5 188q0 49 -16.5 99.5t-54.5 118.5zM1457 493h195q10 -12 20.5 -28.5t17.5 -29.5h-196q-13 15 -21 28t-16 30z" />
</svg>