<?xml version="1.0" standalone="no"?>
<!DOCTYPE svg PUBLIC "-//W3C//DTD SVG 1.1//EN" "http://www.w3.org/Graphics/SVG/1.1/DTD/svg11.dtd">
<svg xmlns="http://www.w3.org/2000/svg" xmlns:xlink="http://www.w3.org/1999/xlink" version="1.1"
   viewBox="94 -151 2414 2169">
   <path fill="currentColor"
      d="M1391 1470q-25 0 -40.5 -12t-32.5 -12q-22 0 -34.5 9.5t-35.5 9.5q-30 0 -45.5 -14t-25.5 -31t-25 -26q-17 -11 -42 -13q-22 -1 -38.5 -10.5t-16.5 -30.5q0 -23 26 -48q-18 -14 -24 -29.5t-6 -28.5t5 -29t5 -27q0 -21 -20.5 -27.5t-37.5 -22.5q-17 -17 -31.5 -41.5
t-46.5 -24.5q-15 0 -30 3.5t-29 19.5q-7 -5 -14.5 -14.5t-7.5 -22.5q0 -20 14 -34t29 -17q-12 -8 -13 -24t4 -28q-18 -5 -37 -25t-19 -54q0 -39 17 -53.5t36.5 -20.5t24.5 -18q4 -9 -1.5 -20t-5.5 -26q0 -17 11.5 -32t29.5 -15q23 0 27 -5q5 -4 3.5 -11.5t-1.5 -16.5
q0 -45 63 -45q5 -26 26.5 -37t45.5 -3q16 -47 55.5 -64t94.5 -2q6 -14 15.5 -25t31.5 -11q17 0 27 10t20 10q9 0 17 -13.5t27 -13.5q21 0 30 15.5t24 15.5q14 0 31 -6t39 12q15 12 13.5 42t-15.5 62q31 10 36.5 39t-9.5 52q15 16 16.5 34t13.5 31q8 9 37.5 5t55.5 4
q27 8 45 29t28 23q14 -5 38.5 7.5t24.5 50.5q0 15 -7.5 22t-21.5 14q29 18 29 38q0 16 -11 24.5t-11 24.5q0 9 8 17t8 26q0 21 -14.5 28.5t-14.5 26.5q0 8 7.5 25.5t7.5 36.5q0 20 -13 35t-33 22q-7 -17 -16 -27t-21 -10q-19 0 -39 19t-37 19q-9 0 -21 -2.5t-24 -2.5
q-11 0 -23 3.5t-21 13.5q-15 16 -11.5 47t-19.5 57q-13 14 -16 28t-3 34q0 42 -24.5 61.5t-60.5 19.5zM997 1977q-61 0 -127.5 -28t-122 -76t-87.5 -106l62 -39q26 51 71 91t99.5 63.5t106.5 23.5q57 0 88 -20.5t52 -72.5l70 18q-25 74 -78.5 110t-133.5 36zM527 1481
q-60 0 -115 -35t-91 -99q-29 -53 -45 -108.5t-16 -112.5q0 -54 13 -99l71 14q-13 38 -13 87q0 45 13 92t38 91q26 47 64 72.5t79 25.5q11 0 25 -3.5t26 -11.5l40 66q-19 10 -41.5 15.5t-47.5 5.5zM561 1434q-55 -52 -85.5 -116t-30.5 -131q0 -17 2.5 -36.5t6.5 -43.5l71 5
q-6 27 -6 61q0 58 23 112t69 101zM1152 1853q-90 2 -171.5 -41t-131.5 -120l50 -43q59 70 119 101t136 31zM580 1464l-23 -56l341 -398l50 36l-294 341l460 -103l16 60zM1186 1860l-57 -20l-24 -475l65 14l14 371l203 -334l60 27zM1530 1978q-16 0 -31 -1.5t-32 -3.5l7 -73
q11 3 24.5 4.5t30.5 1.5q76 0 143 -30.5t109 -78.5t42 -102q0 -30 -20 -62l62 -46q30 49 30 108q0 75 -51 139.5t-134.5 104t-179.5 39.5zM1579 1787q-13 0 -26 -1t-26 -4v-70q12 1 21.5 1.5t25.5 0.5q61 0 113.5 -27.5t104.5 -86.5l50 46q-47 67 -116 104t-147 37zM849 900
l-304 -365l38 -46l462 107l-48 51l-350 -81l226 264zM1290 1166l-18 -92h91l18 92h-91zM1816 1652l-388 -272l39 -46l320 222l-128 -377l56 -34l155 478zM1129 925l-18 -92h91l18 92h-91zM626 528l-67 -24q27 -95 87 -155t155 -89l30 65q-84 28 -132 75.5t-73 127.5z
M564 566q-39 -27 -61.5 -72t-22.5 -96q0 -38 12 -75.5t35 -71.5q52 -77 119 -126.5t142 -64.5l21 69q-67 13 -124 54t-98 106q-18 28 -27 56t-9 54q0 33 16.5 64.5t36.5 34.5zM1316 1381q-6 -6 -6 -22q0 -22 11 -31t22.5 -18t11.5 -29q0 -14 1.5 -29.5t9.5 -25.5
q14 -17 28.5 -17.5t28.5 -22.5q13 -19 14.5 -36.5t17.5 -30.5q17 -14 32 -11t29 -12q20 -20 28.5 -39t38.5 -19q12 0 21 5t23 5q10 0 23 -6.5t28 -9.5q8 -36 8 -85q-13 7 -32 7q-22 0 -43 -13.5t-30 -39.5q-20 8 -43 8q-37 0 -61 -24t-24 -57q-38 -7 -67 -35.5t-29 -70.5
q0 -20 9 -42q-22 0 -37 -19.5t-15 -45.5q0 -30 22 -52q-100 0 -186.5 41.5t-144.5 118.5t-75 182q7 12 14.5 22.5t17.5 13.5q17 5 38.5 1.5t40.5 9.5q23 14 25 28.5t18 28.5q15 14 35 16.5t38 22.5q14 15 11 36t10 38q13 16 30 24.5t17 38.5t-9 42.5t-9 41.5q0 19 8.5 39
t-12.5 54q32 9 61 13t52 6zM1273 985l18 -91h91l-18 91h-91zM1164 761l18 -91h91l-18 91h-91zM1040 625q-30 -53 -63 -160.5t-33 -232.5q0 -86 17 -168t50 -151l65 27q-30 66 -45 142.5t-15 153.5q0 69 14 138t34 126t37 91zM2053 1410l-53 -49q57 -47 83.5 -100.5
t26.5 -124.5v-22t-2 -21l68 -4q4 13 5.5 27t1.5 33q0 78 -30 138.5t-100 122.5zM2142 1585l-46 -55q65 -42 105.5 -118.5t40.5 -152.5q0 -53 -29 -97t-71 -54l8 -76q74 22 118.5 84t44.5 145q0 89 -48.5 182t-122.5 142zM1748 1191v-65l329 -60l-335 -172l29 -56l411 216
l-18 57zM1203 538l-68 -6l133 -461l61 6l172 428l-57 18l-143 -351zM1738 844l-55 -30l197 -401l-388 200l-30 -55l471 -239l36 48zM1604 188q-48 -35 -91 -50.5t-93 -15.5q-51 0 -102 19l-19 -72q34 -11 64.5 -17t58.5 -6q62 0 112.5 19t105.5 63zM1261 103
q0 -59 32 -105.5t88 -73t127 -26.5q83 0 159.5 28t131.5 81l-46 55q-52 -48 -111 -70t-133 -22q-76 0 -127.5 36t-51.5 83zM2267 668q-3 -79 -37.5 -151t-87 -118t-111.5 -46q-40 0 -78 29l-54 -51q27 -25 59.5 -37t69.5 -12q82 0 151 53.5t113 140.5t48 186zM2074 644
q-8 -86 -41.5 -140t-110.5 -103l37 -58q89 48 134 118t51 170z" />
</svg>