<?xml version="1.0" standalone="no"?>
<!DOCTYPE svg PUBLIC "-//W3C//DTD SVG 1.1//EN" "http://www.w3.org/Graphics/SVG/1.1/DTD/svg11.dtd">
<svg xmlns="http://www.w3.org/2000/svg" xmlns:xlink="http://www.w3.org/1999/xlink" version="1.1"
   viewBox="94 -151 2414 2169">
   <path fill="currentColor"
      d="M438 1607l-58 -56l216 -221q28 -145 71.5 -262t112 -224.5t170.5 -225.5q68 -79 113.5 -142t75.5 -123.5t51 -130.5q20 -67 64.5 -108.5t104.5 -41.5q40 0 71 20v-3v-2q0 -66 33 -102.5t88 -36.5q38 0 67 23.5t67 89.5q16 27 40 58.5t55.5 67t70.5 74.5q57 57 94.5 106
t45.5 79q21 76 49.5 137t56.5 118t49 122.5t28 152.5h-78q-8 -98 -44.5 -184t-77 -166t-60.5 -160q-4 -18 -37 -59t-82 -90q-64 -65 -108 -118t-70 -96q-27 -47 -39 -61t-27 -14q-19 0 -30 17t-11 60q0 21 3 38.5t13 38.5l-87 45q-13 -37 -31 -56t-49 -19q-34 0 -56 23
t-37 71q-23 75 -55.5 141t-81 133.5t-119.5 149.5q-101 116 -166.5 220t-106 218t-67.5 260zM987 1434l-72 -34q91 -196 255.5 -302.5t423.5 -137.5l10 80q-239 28 -387 123t-230 271zM1156 931l-26 -76q107 -38 213 -57.5t209 -19.5v80q-193 0 -396 73zM1281 870l-81 -30
q75 -73 128 -167t88 -218l51 102q-37 104 -86 185t-100 128zM1098 1978l-60 -54q54 -60 97 -100t85.5 -68t96.5 -52.5t131 -52.5q103 -38 201.5 -95t182 -125t141 -139t77.5 -135q23 -73 43.5 -178t33.5 -231t13 -261q0 -47 -26 -96t-63 -84l-228 -219q-22 -22 -37.5 -38.5
t-27.5 -29.5q-18 -20 -33.5 -31t-27.5 -11t-26 11.5t-31 38.5l-68 -42q26 -44 53.5 -66t62.5 -22q26 0 50.5 13t58 42.5t84.5 78.5l226 217q48 46 80.5 111t32.5 127q0 138 -13.5 268.5t-35 240t-45.5 185.5q-23 74 -85 153t-151.5 154t-195.5 137t-218 102
q-73 26 -122.5 47.5t-88 47t-77.5 62.5t-90 94zM1578 1144q-20 -48 -35.5 -99.5t-25.5 -106.5t-15 -111q-4 -58 -10 -97.5t-11 -49.5q-55 -111 -87 -208.5t-32 -166.5q0 -70 34 -117t85 -47q55 0 87 33t66 119q14 34 30.5 63.5t39.5 67.5q57 93 93.5 178.5t57.5 176.5
t30 202l-80 6q-8 -105 -27.5 -190t-53.5 -164t-88 -167q-23 -38 -42 -71.5t-34 -71.5q-27 -68 -41.5 -85t-37.5 -17q-13 0 -26 24.5t-13 59.5q0 59 30 146.5t81 192.5q12 25 19 80.5t10 96.5q6 79 24 152.5t46 138.5z" />
</svg>