<?xml version="1.0" standalone="no"?>
<!DOCTYPE svg PUBLIC "-//W3C//DTD SVG 1.1//EN" "http://www.w3.org/Graphics/SVG/1.1/DTD/svg11.dtd">
<svg xmlns="http://www.w3.org/2000/svg" xmlns:xlink="http://www.w3.org/1999/xlink" version="1.1"
   viewBox="94 -151 2414 2169">
   <path fill="currentColor"
      d="M372 1015l-55 -59l874 -807l55 59zM233 484l-55 -59l565 -522l55 59zM1013 1722l-55 -59l1410 -1301l55 59zM662 1399l-55 -59l1496 -1386l55 59zM1300 1978q-395 -303 -644.5 -558t-367.5 -480t-118 -438q0 -126 42.5 -235.5t119 -192.5t179 -129.5t221.5 -46.5
q121 0 234 46.5t201 127t133 183.5q46 -103 133.5 -183.5t200.5 -127t234 -46.5q119 0 221.5 46.5t179 129.5t119 192.5t42.5 235.5q0 213 -118 438t-367.5 480t-644.5 558zM1300 1883q365 -283 597 -524.5t342.5 -453t110.5 -403.5q0 -147 -63.5 -265.5t-172.5 -188.5
t-246 -70q-127 0 -236.5 53t-194 151t-137.5 232q-53 -134 -137.5 -232t-193.5 -151t-237 -53q-137 0 -246 70t-172.5 188.5t-63.5 265.5q0 192 110.5 403.5t342.5 453t597 524.5z" />
</svg>