<?xml version="1.0" standalone="no"?>
<!DOCTYPE svg PUBLIC "-//W3C//DTD SVG 1.1//EN" "http://www.w3.org/Graphics/SVG/1.1/DTD/svg11.dtd">
<svg xmlns="http://www.w3.org/2000/svg" xmlns:xlink="http://www.w3.org/1999/xlink" version="1.1"
   viewBox="94 -151 2414 2169">
   <path fill="currentColor"
      d="M1904 1828q-130 0 -252 -34t-240.5 -84t-237 -100.5t-241.5 -84.5t-255 -34q-128 0 -270.5 32.5t-283.5 100.5v-1394q159 -101 304.5 -141.5t267.5 -40.5q130 0 252 34t240.5 84t237 100.5t241.5 84.5t255 34q128 0 270.5 -33t283.5 -100v1394q-159 100 -304.5 141
t-267.5 41zM1079 1151q36 -3 64 -4.5t101 -4.5q-101 -62 -161 -98t-105 -61.5t-102 -54.5q3 -8 3 -21q0 -32 -23.5 -57t-54.5 -25q-25 0 -42 17.5t-17 43.5q0 18 10 37q-44 11 -44 59q0 28 24.5 52t55.5 24q39 0 55 -38q43 23 76.5 41t70 38.5t89.5 51.5zM805 1395
q26 0 42.5 -17t16.5 -42q0 -11 -3 -21q121 -16 227 -24t203 -8h34q81 0 189 -7.5t226 -22.5q8 26 30 42.5t46 16.5t41 -17.5t17 -42.5q0 -20 -12.5 -40t-32.5 -29q12 -19 12 -36q0 -30 -25 -55t-57 -25q-24 0 -40 15.5t-16 40.5q0 11 3 23q-94 10 -191 16t-197 10l-30 1
q-145 6 -255.5 14t-205.5 22q-8 -26 -29 -42t-45 -16q-25 0 -42.5 17.5t-17.5 43.5q0 45 44 69q-11 19 -11 35q0 30 24.5 54.5t54.5 24.5zM1767 1642q26 0 41.5 -16t15.5 -41q0 -23 -10 -40q45 -10 45 -56q0 -31 -25 -56t-56 -25q-40 0 -54 37q-43 -24 -76.5 -42.5t-70 -40
t-89.5 -51.5q-37 2 -70.5 3.5t-94.5 3.5q90 55 148.5 90.5t108 64.5t111.5 64q-3 9 -3 22q0 31 24.5 57t54.5 26zM1320 931q-8 0 -19.5 -11t-34.5 -11q-3 0 -7.5 0.5t-7.5 0.5q-9 0 -9 -25v-35q0 -14 10 -22.5t22 -8.5q20 0 36 18t16 38v36q0 20 -6 20zM1187 794
q-44 0 -81 -39t-37 -84q0 -32 18.5 -51t48.5 -19q45 0 81 38.5t36 83.5q0 33 -18.5 52t-47.5 19zM1406 1090q20 0 20 -17v-21q0 -33 17 -33q14 0 38.5 13.5t52.5 13.5q56 0 56 -75q0 -32 -10 -65q45 -91 45 -180q0 -75 -39 -148t-104 -132.5t-145.5 -94.5t-164.5 -35
q-107 0 -169 58t-62 159q0 92 45 201q-6 25 -6 48q0 60 37 98t95 38q28 0 28 47v23q0 10 10.5 21t21.5 11q18 0 18 -19v-20l29 9v21q0 11 10.5 21.5t22.5 10.5q17 0 17 -18v-20l29 9v21q0 32 31 32q18 0 18 -19v-20l29 9v21q0 13 9.5 22.5t20.5 9.5zM1435 867q-46 0 -83 -39
t-37 -85q0 -32 19 -51t48 -19q45 0 81.5 39.5t36.5 84.5q0 31 -18.5 50.5t-46.5 19.5z" />
</svg>