<?xml version="1.0" standalone="no"?>
<!DOCTYPE svg PUBLIC "-//W3C//DTD SVG 1.1//EN" "http://www.w3.org/Graphics/SVG/1.1/DTD/svg11.dtd">
<svg xmlns="http://www.w3.org/2000/svg" xmlns:xlink="http://www.w3.org/1999/xlink" version="1.1"
   viewBox="94 -151 2414 2169">
   <path fill="currentColor"
      d="M426 1978q-68 0 -117 -48.5t-49 -115.5v-1751q0 -68 49 -116.5t116 -48.5h1750q68 0 116.5 48.5t48.5 116.5v1750q0 67 -48.5 116t-116.5 49h-1749zM1126 1730h563q37 0 58.5 -21t21.5 -58q0 -32 -23 -54t-60 -22h-267l171 -105q82 -51 82 -115q0 -23 -8 -52l-126 -435
q-13 -43 -48.5 -70t-80.5 -27q-55 0 -102 47l-192 187l-174 -206q-24 -28 -53 -28q-25 0 -43.5 17.5t-18.5 43.5q0 21 16 40l216 258q23 29 51 29q20 0 32 -8t27 -23l130 -131l101 351q3 10 3 20q0 29 -28 47l-276 167q-47 28 -47 79q0 28 22 48.5t53 20.5zM1287 741
q62 0 105.5 -44t43.5 -105q0 -62 -43.5 -106t-105.5 -44t-106 44t-44 106q0 61 44 105t106 44zM531 460l687 -186q27 -8 46 -11t36 -3t36 3t46 11l687 186l18 -68l-685 -186q-32 -9 -56.5 -12.5t-45.5 -3.5t-45.5 3.5t-56.5 12.5l-685 186z" />
</svg>