<?xml version="1.0" standalone="no"?>
<!DOCTYPE svg PUBLIC "-//W3C//DTD SVG 1.1//EN" "http://www.w3.org/Graphics/SVG/1.1/DTD/svg11.dtd">
<svg xmlns="http://www.w3.org/2000/svg" xmlns:xlink="http://www.w3.org/1999/xlink" version="1.1"
   viewBox="94 -151 2414 2169">
   <path fill="currentColor"
      d="M1699 1786q-132 -33 -224.5 -65t-155.5 -76t-107 -110t-80 -167l-213 -603q-34 -98 -60 -138t-58 -48l-248 -63l16 -73l251 64q53 13 91 65.5t78 167.5l213 603q32 89 69 146.5t91.5 95t135.5 65.5t201 58l464 -127v-150q0 -27 -25 -35q-90 -28 -156.5 -58t-112.5 -78
t-75 -129l-198 -553q-40 -113 -77.5 -180t-80.5 -101.5t-103 -49.5l-266 -69l17 -71l266 67q78 19 133 64.5t97.5 122.5t83.5 192l198 553q24 67 61 105t94 62t141 51q35 11 56.5 40t21.5 67v208zM430 1195l-17 -68l494 -123l17 68zM1239 1772q-13 0 -22.5 -9.5t-9.5 -22.5
v-284l80 80v204q0 13 -8.5 22.5t-22.5 9.5h-17zM476 994l-17 -68l492 -125l17 68zM1671 1978q-13 0 -22.5 -9.5t-9.5 -22.5v-222h80v222q0 13 -9 22.5t-23 9.5h-16zM400 1408q-19 0 -30 -13.5t-7 -32.5l224 -1170q12 -62 47.5 -96t87.5 -34q64 0 99.5 49t50 164t14.5 314
l-75 -24q0 -154 -9 -248t-28.5 -137t-51.5 -43q-47 0 -60 70l-225 1172q-5 29 -37 29zM876 1262q-16 0 -23 -10.5t-5 -23.5l92 -476l45 62l-82 426q-5 22 -27 22zM513 795l-17 -68l404 -103l23 67zM1650 1748v-131q0 -35 -6 -45t-31 -17q-88 -24 -145.5 -54.5t-94 -76.5
t-61.5 -116l-232 -656q-40 -113 -97 -171t-129 -77l-262 -67l14 -73l266 67q90 22 161 93.5t117 202.5l232 656q21 60 50.5 96t78 58.5t124.5 44.5q50 14 70 44t20 91v131h-75zM2121 1842q-13 0 -22.5 -9.5t-9.5 -22.5v-188l80 -10v198q0 13 -9 22.5t-23 9.5h-16zM847 388
l-19 -72l241 -46l19 73zM2193 1618q-166 -56 -274.5 -104.5t-173.5 -113t-104 -168.5l-249 -668q-28 -74 -56.5 -110.5t-94.5 -54.5l-231 -63l16 -73l249 67q74 20 114.5 70t72.5 139l240 668q32 88 88.5 142.5t158.5 98t268 99.5zM1085 354l-75 -15l59 -311q12 -62 47 -96
t87 -34q75 0 111 72t47 239l-75 5q-8 -131 -27.5 -186t-55.5 -55q-47 0 -60 70z" />
</svg>