<?xml version="1.0" standalone="no"?>
<!DOCTYPE svg PUBLIC "-//W3C//DTD SVG 1.1//EN" "http://www.w3.org/Graphics/SVG/1.1/DTD/svg11.dtd">
<svg xmlns="http://www.w3.org/2000/svg" xmlns:xlink="http://www.w3.org/1999/xlink" version="1.1"
   viewBox="94 -151 2414 2169">
   <path fill="currentColor"
      d="M1454 989l-57 -56l848 -844q20 -20 20 -44q0 -26 -20 -46.5t-46 -20.5q-22 0 -44 20l-848 843l-57 -56l848 -843q44 -44 101 -44q59 0 102.5 44t43.5 103q0 57 -43 100zM1173 1978q-63 0 -112 -49l-757 -758q-49 -49 -49 -111q0 -60 44 -104t104 -44q63 0 111 48l756 759
q49 49 49 114q0 60 -42.5 102.5t-103.5 42.5zM1173 1898q27 0 46.5 -19t19.5 -46q0 -32 -25 -57l-756 -759q-25 -25 -55 -25q-27 0 -47.5 20.5t-20.5 47.5q0 29 25 54l757 758q26 26 56 26zM1236 1766l-56 -58q152 -152 152 -360q0 -122 -63.5 -223.5t-170.5 -162
t-236 -60.5q-205 0 -336 145l-59 -55q75 -82 177.5 -126t217.5 -44q113 0 212.5 41t175.5 114t119 168t43 203q0 115 -46 224t-130 194zM1345 1208l-45 -68l78 -77q26 -26 26 -59q0 -32 -24 -57l-86 -88q-26 -26 -60 -26q-31 0 -57 24l-80 79l-71 -43l94 -92q50 -48 114 -48
q67 0 117 50l86 88q47 49 47 113q0 66 -49 115z" />
</svg>