<?xml version="1.0" standalone="no"?>
<!DOCTYPE svg PUBLIC "-//W3C//DTD SVG 1.1//EN" "http://www.w3.org/Graphics/SVG/1.1/DTD/svg11.dtd">
<svg xmlns="http://www.w3.org/2000/svg" xmlns:xlink="http://www.w3.org/1999/xlink" version="1.1"
   viewBox="94 -151 2414 2169">
   <path fill="currentColor"
      d="M1300 1878q-346 0 -599 -92t-390.5 -261t-137.5 -399q0 -143 49.5 -294t135 -291t194.5 -251.5t228.5 -176.5t235.5 -65q64 0 103.5 9.5t66.5 22.5t52.5 22.5t61.5 9.5t61.5 -9.5t52.5 -22.5t66.5 -22.5t103.5 -9.5q116 0 235.5 65t228.5 176.5t194.5 251.5t135 291
t49.5 294q0 230 -137.5 399t-390 261t-599.5 92zM330 660q-102 -76 -161 -177t-59 -205q0 -80 34 -143t92.5 -100t132.5 -37q77 0 167.5 49.5t159.5 124.5l-59 54q-60 -65 -135.5 -106.5t-132.5 -41.5q-77 0 -128 56.5t-51 143.5q0 83 49.5 167.5t138.5 150.5zM1105 1261
l-62 -51q46 -47 116 -75t141 -28t141 28t116 75l-62 51q-35 -33 -88 -53.5t-107 -20.5t-107 20.5t-88 53.5zM809 701q-35 0 -60 -25t-25 -60t25 -60t60 -25t60 25t25 60t-25 60t-60 25zM1260 1173v-241h80v241h-80zM1300 1584q-156 0 -273.5 -55t-182.5 -156t-65 -238
q0 -119 45 -234t121 -209.5t168.5 -150.5t186.5 -56q95 0 187 56t168 150.5t121 209.5t45 234q0 137 -65 238t-182.5 156t-273.5 55zM1300 1504q204 0 322.5 -100t118.5 -269q0 -102 -39 -202.5t-104 -184t-143 -133.5t-155 -50t-155 50t-142.5 133.5t-104 184t-39.5 202.5
q0 169 118.5 269t322.5 100zM1300 1798q325 0 559.5 -82t361 -233t126.5 -357q0 -133 -46.5 -272.5t-125.5 -269t-178.5 -232.5t-206 -163.5t-206.5 -60.5q-63 0 -102.5 9.5t-67 22.5t-53.5 22.5t-61 9.5t-61 -9.5t-53.5 -22.5t-67 -22.5t-102.5 -9.5q-100 0 -206.5 60.5
t-206 163.5t-178.5 232.5t-125.5 269t-46.5 272.5q0 206 126.5 357t361.5 233t559 82zM1300 1029q-91 0 -157 -49t-66 -117q0 -69 66 -118t157 -49q92 0 157.5 49t65.5 118q0 68 -65.5 117t-157.5 49zM1791 701q-35 0 -60 -25t-25 -60t25 -60t60 -25t60 25t25 60t-25 60
t-60 25zM2270 660l-48 -64q89 -66 138.5 -150.5t49.5 -167.5q0 -87 -51 -143.5t-128 -56.5q-57 0 -132.5 41.5t-135.5 106.5l-59 -54q69 -75 159.5 -124.5t167.5 -49.5q74 0 132.5 37t92.5 100t34 143q0 104 -59 205t-161 177z" />
</svg>