<?xml version="1.0" standalone="no"?>
<!DOCTYPE svg PUBLIC "-//W3C//DTD SVG 1.1//EN" "http://www.w3.org/Graphics/SVG/1.1/DTD/svg11.dtd">
<svg xmlns="http://www.w3.org/2000/svg" xmlns:xlink="http://www.w3.org/1999/xlink" version="1.1"
   viewBox="94 -151 2414 2169">
   <path fill="currentColor"
      d="M1300 1571q-156 0 -302.5 -8.5t-262.5 -28.5t-184 -53t-68 -82q0 -142 13.5 -310.5t38 -341.5t57.5 -331t72 -280q41 -129 196.5 -183.5t439.5 -54.5t439.5 54.5t196.5 183.5q39 122 72 280t57.5 331t38 341.5t13.5 310.5q0 49 -68 82t-184 53t-262.5 28.5t-302.5 8.5z
M1300 1978q-304 0 -525 -31t-336.5 -87t-105.5 -131l42 -302q5 -32 34.5 -55t97.5 -47l27 75q-30 4 -54 15t-26 23l-42 302q-3 25 63.5 52.5t188 51.5t284.5 39t352 15t352 -15t284.5 -39t188 -51.5t63.5 -52.5l-42 -302q-1 -12 -25.5 -23t-54.5 -15l27 -75q68 24 98 47
t34 55l42 302q11 75 -105 131t-337 87t-525 31zM974 1490q12 0 18 -13l236 -418q10 -17 26 -23.5t47 -6.5q32 0 47.5 6.5t25.5 23.5l236 418q7 13 18 13q9 0 12 -8.5t0 -19.5l-138 -468q-3 -11 -3 -18q0 -30 30 -30q12 0 25 6l435 180q8 3 15 -1.5t7 -12.5q0 -6 -8 -14
l-387 -278q-18 -13 -18 -37q0 -33 33 -46l311 -120q11 -5 11 -14q0 -14 -17 -14l-343 3q-47 0 -47 -31q0 -12 10 -29l271 -434q8 -12 -2 -20t-21 3l-364 376q-16 16 -34 16q-33 0 -38 -41l-46 -381q-3 -26 -7 -40t-14 -14t-14 14t-7 40l-46 381q-5 41 -38 41q-18 0 -34 -16
l-364 -376q-10 -11 -20 -3t-3 20l271 434q10 17 10 29q0 31 -47 31l-343 -3q-17 0 -17 14q0 9 11 14l311 120q33 13 33 46q0 24 -18 37l-387 278q-8 5 -8 14q0 8 7 12.5t15 1.5l435 -180q14 -6 25 -6q30 0 30 30q0 7 -3 18l-138 468q-3 11 0 19.5t12 8.5z" />
</svg>