<?xml version="1.0" standalone="no"?>
<!DOCTYPE svg PUBLIC "-//W3C//DTD SVG 1.1//EN" "http://www.w3.org/Graphics/SVG/1.1/DTD/svg11.dtd">
<svg xmlns="http://www.w3.org/2000/svg" xmlns:xlink="http://www.w3.org/1999/xlink" version="1.1"
   viewBox="94 -151 2414 2169">
   <path fill="currentColor"
      d="M1300 1978l-574 -246l-289 -1203q-13 -57 9.5 -96t71.5 -39q41 0 76 25t61 64q17 -11 36 -17t41 -6q42 0 81.5 27.5t68.5 73.5q31 -26 77 -26q48 0 94 29.5t83 77.5q52 -97 164 -97t164 97q38 -48 83.5 -77.5t93.5 -29.5q46 0 77 26q29 -46 68.5 -73.5t81.5 -27.5
q22 0 41.5 6t35.5 17q26 -39 61.5 -64t75.5 -25q49 0 72 39t9 96l-289 1203zM1019 1768l-160 -1067q-10 -63 -44.5 -113.5t-85.5 -50.5q-28 0 -43.5 22t-10.5 53l190 1088zM1300 1892l68 -30l51 -1060q4 -83 -26.5 -130.5t-92.5 -47.5t-92.5 47.5t-26.5 130.5l51 1060z
M1585 1768l154 -68l189 -1088q5 -31 -10 -53t-44 -22q-51 0 -85.5 50.5t-44.5 113.5zM952 601q-42 -20 -63.5 -52.5t-21.5 -67.5q0 -36 22.5 -69t68.5 -48q30 -53 91 -53q34 0 69 20q33 -15 70 -15q57 0 95.5 38t38.5 91q0 61 -55 113l9 -29q4 8 6.5 21t3.5 27l-55 3
q-2 -20 -7.5 -33t-9.5 -19q49 -43 49 -84q0 -30 -21.5 -49t-53.5 -19q-17 0 -36.5 5.5t-39.5 19.5q-10 -17 -22.5 -24t-26.5 -7q-22 0 -39 12t-19 29q-40 5 -59 26.5t-19 46.5q0 19 14.5 37t42.5 28zM1313 458l-40 -58q22 -34 58.5 -54.5t79.5 -20.5q15 0 23 2l5 62
q-15 -5 -31 -5q-33 0 -60 21t-35 53zM1177 355q-21 -32 -21 -68q0 -49 35 -82.5t84 -33.5q53 0 89 39l-37 52q-14 -31 -51 -31q-25 0 -42 17t-17 40q0 30 23 45zM1561 569q-12 -19 -19.5 -41.5t-7.5 -47.5q0 -73 48 -125.5t120 -58.5q27 -27 66 -29q-9 -44 -46 -74.5
t-87 -30.5q-16 0 -31 4.5t-28 12.5l-11 -39q11 -14 20 -29.5t9 -34.5q0 -40 -22 -69t-67 -29q-29 0 -47.5 18t-18.5 64q0 13 3 28t10 33h-61q2 -11 3.5 -21t1.5 -18q0 -41 -18.5 -56.5t-35.5 -15.5q-13 0 -23 2t-18 4q-13 -14 -38 -26t-56 -12q-46 0 -79 35t-33 84
q0 43 37.5 72.5t83.5 29.5l2 58q-55 0 -99.5 -30t-64.5 -76q-23 -10 -50 -10q-24 0 -48 7t-42 18q41 22 66 63t25 91q0 46 -21 85l-80 -10q31 -31 31 -75q0 -53 -31.5 -90.5t-77.5 -37.5q-40 0 -71 30t-31 73q0 15 4 28q-6 -1 -15 -1q-34 0 -51 23.5t-17 60.5q-4 -1 -7.5 -1
h-7.5q-37 0 -62.5 28.5t-25.5 67.5h-84q0 -57 32.5 -102t84.5 -65q11 -26 30 -45.5t43 -31.5q17 -61 68.5 -101.5t116.5 -40.5q11 0 16 1q28 -26 67.5 -38t75.5 -12q5 0 11 0.5t11 1.5q15 -65 69 -117t124 -52q61 0 112 34q16 -2 25 -2q26 0 47 18q23 -25 46.5 -38t51.5 -13
q72 0 125 45.5t53 113.5q0 9 -0.5 17t-1.5 15q73 6 121.5 52.5t61.5 111.5q25 -7 55 -7q81 0 133 52.5t62 126.5l-73 21q0 -47 -30.5 -84.5t-86.5 -37.5q-8 0 -16 1t-16 3q5 10 7.5 21.5t2.5 22.5q0 14 -5 31q13 28 16 66l-56 8q-1 -15 -6 -32t-17 -43q6 -11 8 -21t2 -14
q0 -19 -15.5 -31.5t-38.5 -12.5q-12 0 -23.5 8t-14.5 29q-19 -4 -26 -4q-49 0 -82.5 34.5t-33.5 84.5q0 42 23 71zM1566 422l-54 -53l64 -56l51 28zM1477 403q-26 0 -52.5 -15t-46.5 -50q-36 -8 -52.5 -31.5t-16.5 -51.5q0 -38 21.5 -77.5t57.5 -66.5t78 -27q37 0 70.5 24.5
t55 62.5t21.5 78q0 58 -41.5 106t-94.5 48zM1480 344q32 0 52 -28.5t20 -65.5q0 -39 -23 -72.5t-61 -33.5t-69.5 37t-31.5 72q0 30 50 30q14 33 30.5 47t32.5 14z" />
</svg>