<?xml version="1.0" standalone="no"?>
<!DOCTYPE svg PUBLIC "-//W3C//DTD SVG 1.1//EN" "http://www.w3.org/Graphics/SVG/1.1/DTD/svg11.dtd">
<svg xmlns="http://www.w3.org/2000/svg" xmlns:xlink="http://www.w3.org/1999/xlink" version="1.1"
   viewBox="94 -151 2414 2169">
   <path fill="currentColor"
      d="M217 1878v-1072l74 -172l561 2v220l-592 -2l37 -93v1037h2006v-1037l37 93l-592 2v-220l561 -2l74 172v1072h-2166zM446 1584q-31 0 -31 -31v-243q0 -31 31 -31h222q31 0 31 31v243q0 31 -31 31h-222zM522 1584h70v-305h-70v305zM409 1317q-11 0 -17.5 -8.5t-3.5 -19.5
l31 -124q7 -29 37 -29h202q30 0 37 29l31 124q3 11 -3.5 19.5t-17.5 8.5h-296zM807 1830v-1210l80 -10v1220h-80zM1102 1838v-619h396v619h-70v-549h-256v549h-70zM1353 1558v-50h99v50h-99zM854 1104v-90h892v90h-892zM1211 897q-11 0 -11 -10v-101q0 -11 11 -11h115
q11 0 11 11v101q0 10 -11 10h-115zM1713 1830v-1220l80 10v1210h-80zM1268 816q47 0 79.5 -33t32.5 -79t-32.5 -78.5t-79.5 -32.5q-46 0 -78.5 32.5t-32.5 78.5t32.5 79t78.5 33zM1289 885q-83 0 -159.5 -52.5t-131.5 -146.5q-34 -2 -34 -19q0 -14 20 -31.5t36 -17.5
q9 0 12.5 10t3.5 36q19 28 32.5 43.5t32.5 31.5q-1 -11 -2 -22.5t-1 -16.5q0 -68 49.5 -118.5t121.5 -50.5q39 0 78 18.5t65.5 55t26.5 91.5q0 22 -2.5 42.5t-19.5 41.5q20 -14 35 -29t22 -31t10 -40.5t9 -44.5t22 -20t45 23t53 58t24 70q0 19 -19 25t-67 6q-59 40 -130 64
t-132 24zM1932 1584q-31 0 -31 -31v-243q0 -31 31 -31h222q31 0 31 31v243q0 31 -31 31h-222zM2008 1584h70v-305h-70v305zM1895 1317q-11 0 -17.5 -8.5t-3.5 -19.5l31 -124q7 -29 37 -29h202q30 0 37 29l31 124q3 11 -3.5 19.5t-17.5 8.5h-296zM825 661l-107 -121l582 -542
l582 542l-107 121l-62 -51l58 -64l-471 -439l-471 439l58 64z" />
</svg>