<?xml version="1.0" standalone="no"?>
<!DOCTYPE svg PUBLIC "-//W3C//DTD SVG 1.1//EN" "http://www.w3.org/Graphics/SVG/1.1/DTD/svg11.dtd">
<svg xmlns="http://www.w3.org/2000/svg" xmlns:xlink="http://www.w3.org/1999/xlink" version="1.1"
   viewBox="94 -151 2414 2169">
   <path fill="currentColor"
      d="M426 1978q-68 0 -117 -48.5t-49 -115.5v-1751q0 -68 49 -116.5t116 -48.5h1750q68 0 116.5 48.5t48.5 116.5v1750q0 67 -48.5 116t-116.5 49h-1749zM606 1734h450l148 -659h-61l-22 102h-580l-23 -102h-61zM597 1424l-43 -187h554l-43 187h-468zM763 914h137v-56
q0 -69 48.5 -117.5t117.5 -48.5h151q20 80 85 130t147 50t146.5 -50.5t83.5 -129.5h212v108l123 35v-424l-123 35v109h-218q-19 -56 -60 -96t-96 -56v-139h211v30q0 18 12 29.5t30 11.5t30 -11.5t12 -29.5v-163q0 -18 -12 -29.5t-30 -11.5t-30 11.5t-12 29.5v30h-211v-107
h-136v107h-211v-30q0 -18 -12 -29.5t-30 -11.5t-30 11.5t-12 29.5v163q0 18 12 29.5t30 11.5t30 -11.5t12 -29.5v-30h211v139q-117 35 -159 152h-156q-83 0 -152 40.5t-110 108.5t-41 151v59z" />
</svg>