<?xml version="1.0" standalone="no"?>
<!DOCTYPE svg PUBLIC "-//W3C//DTD SVG 1.1//EN" "http://www.w3.org/Graphics/SVG/1.1/DTD/svg11.dtd">
<svg xmlns="http://www.w3.org/2000/svg" xmlns:xlink="http://www.w3.org/1999/xlink" version="1.1"
   viewBox="94 -151 2414 2169">
   <path fill="currentColor"
      d="M120 1828v-1780h2360v1780h-2360zM165 1621v-70h901v70h-901zM527 1218q-3 -80 -59.5 -130.5t-137.5 -53.5v-596q81 -3 137.5 -54t59.5 -130h547v59h-500q-7 62 -61.5 112t-124.5 58v506q70 7 124.5 57.5t61.5 112.5h500v59h-547zM597 1010v-47q44 -23 67.5 -63.5
t23.5 -87.5q0 -11 -1 -22.5t-4 -22.5h-85v-49l57 -3h14q-8 -26 -15 -51.5t-7 -51.5q0 -73 45 -116t118 -43q46 0 78.5 18t56.5 47l-45 43q-16 -20 -36 -32t-48 -12q-45 0 -69.5 27t-24.5 72q0 25 6.5 49.5t13.5 49.5h135v52h-124q5 25 5 46q0 43 -13 72t-38 55v4h239v66
h-349zM1031 1782v-1697h70v1697h-70zM200 1748h2200v-324h-861v-80h861v-1216h-2200v1216h863v80h-863v324zM1539 1621v-70h896v70h-896zM1499 1782v-1697h70v1697h-70zM1526 1218v-59h500q8 -62 62.5 -112.5t123.5 -57.5v-506q-69 -8 -123.5 -58t-62.5 -112h-500v-59h548
q3 79 59.5 130t137.5 54v596q-81 3 -137.5 53.5t-59.5 130.5h-548z" />
</svg>