<?xml version="1.0" standalone="no"?>
<!DOCTYPE svg PUBLIC "-//W3C//DTD SVG 1.1//EN" "http://www.w3.org/Graphics/SVG/1.1/DTD/svg11.dtd">
<svg xmlns="http://www.w3.org/2000/svg" xmlns:xlink="http://www.w3.org/1999/xlink" version="1.1"
   viewBox="94 -151 2414 2169">
   <path fill="currentColor"
      d="M1759 1324q-27 0 -43 -8l-1236 -580q-91 -42 -91 -216q0 -105 33.5 -214.5t88 -202t118.5 -149t125 -56.5q17 0 30 4l1298 354q69 19 99 86.5t30 175.5q0 95 -25.5 204.5t-70 216t-102.5 193.5t-123 139.5t-131 52.5zM1793 1978q-32 0 -51.5 -23.5t-19.5 -62.5
q0 -95 8 -191t8 -232q0 -82 -11.5 -136t-38.5 -70l-1195 -573q-19 -10 -5 -20.5t48 -10.5q53 0 134.5 21t175.5 60l710 292q69 28 130 66t92 72q24 26 40 74.5t26.5 131t15 208.5t4.5 308q0 40 -19.5 63t-51.5 23zM1615 1180q-7 -42 -9.5 -68.5t-2.5 -51.5q0 -101 27.5 -214
t74.5 -220.5t107 -193t126 -131.5l-1131 -310q-10 -3 -27 -7t-25 -4q-44 0 -94 52.5t-93.5 136.5t-71 179t-27.5 181q0 52 11.5 87.5t33.5 46.5zM1762 1243q44 0 94.5 -47.5t99 -126.5t88 -175t63.5 -195.5t24 -185.5q0 -89 -18.5 -132.5t-61.5 -43.5q-44 0 -94.5 48
t-99 128t-88.5 177.5t-63.5 198t-23.5 187.5q0 64 17.5 115.5t62.5 51.5z" />
</svg>