<?xml version="1.0" standalone="no"?>
<!DOCTYPE svg PUBLIC "-//W3C//DTD SVG 1.1//EN" "http://www.w3.org/Graphics/SVG/1.1/DTD/svg11.dtd">
<svg xmlns="http://www.w3.org/2000/svg" xmlns:xlink="http://www.w3.org/1999/xlink" version="1.1"
   viewBox="94 -151 2414 2169">
   <path fill="currentColor"
      d="M2073 1978q-26 -59 -76 -87.5t-100 -47.5q-41 -16 -78 -35.5t-60 -50.5q-12 4 -21 4q-21 0 -32.5 -15t-11.5 -35q0 -17 9.5 -36t28.5 -33q23 -17 44.5 -25t39.5 -8q26 0 43.5 17.5t19.5 54.5q29 15 65.5 20t75.5 7q57 2 114.5 12t101.5 57q0 83 -43.5 134.5t-119.5 66.5z
M433 1665q-61 0 -104.5 -43t-43.5 -104q0 -62 43.5 -104.5t104.5 -42.5t104 43t43 104t-43 104t-104 43zM433 1605q36 0 61.5 -25.5t25.5 -61.5t-25.5 -61.5t-61.5 -25.5q-37 0 -62.5 25t-25.5 62t25.5 62t62.5 25zM274 1493q-61 0 -104.5 -43t-43.5 -104q0 -62 43.5 -104.5
t104.5 -42.5t104 43t43 104t-43 104t-104 43zM274 1433q36 0 61.5 -25.5t25.5 -61.5t-25.5 -61.5t-61.5 -25.5q-37 0 -62.5 25t-25.5 62t25.5 62t62.5 25zM606 1823q-61 0 -104.5 -43t-43.5 -104q0 -62 43.5 -105t104.5 -43t104 43t43 105q0 61 -43 104t-104 43zM606 1763
q36 0 61.5 -25.5t25.5 -61.5q0 -37 -25.5 -62.5t-61.5 -25.5q-37 0 -62.5 25.5t-25.5 62.5q0 36 25.5 61.5t62.5 25.5zM824 1915q-62 0 -105.5 -43t-43.5 -104q0 -62 44 -105t105 -43t104 43t43 105q0 61 -43 104t-104 43zM824 1855q36 0 61.5 -25.5t25.5 -61.5
q0 -37 -25.5 -62.5t-61.5 -25.5q-37 0 -63 25.5t-26 62.5q0 36 26 61.5t63 25.5zM211 1269q-61 0 -104.5 -43t-43.5 -104q0 -62 43.5 -104.5t104.5 -42.5t104 43t43 104t-43 104t-104 43zM211 1209q36 0 61.5 -25.5t25.5 -61.5t-25.5 -61.5t-61.5 -25.5q-37 0 -62.5 25
t-25.5 62t25.5 62t62.5 25zM168 1041q-61 0 -104.5 -43.5t-43.5 -104.5q0 -60 43.5 -103.5t104.5 -43.5t104 43t43 104t-43 104.5t-104 43.5zM168 981q36 0 61.5 -25.5t25.5 -62.5q0 -36 -25.5 -61.5t-61.5 -25.5t-62 26t-26 61q0 37 25.5 62.5t62.5 25.5zM1051 1851
q-61 0 -105 -43t-44 -104q0 -62 44 -105t105 -43t104 43.5t43 104.5q0 60 -43.5 103.5t-103.5 43.5zM1051 1791q35 0 61 -26t26 -61q0 -36 -25.5 -62t-61.5 -26q-37 0 -63 25.5t-26 62.5q0 36 26 61.5t63 25.5zM221 813q-61 0 -105 -43.5t-44 -104.5t44 -104t105 -43
q60 0 103.5 43.5t43.5 103.5q0 61 -43 104.5t-104 43.5zM221 753q36 0 61.5 -26t25.5 -62q0 -35 -26 -61t-61 -26q-37 0 -63 25.5t-26 61.5q0 37 26 62.5t63 25.5zM1238 1708q-61 0 -104.5 -43t-43.5 -104t43.5 -104t104.5 -43q62 0 105 43t43 104t-43 104t-105 43z
M1238 1648q37 0 62.5 -25.5t25.5 -61.5t-25.5 -61.5t-62.5 -25.5t-62.5 25.5t-25.5 61.5t25.5 61.5t62.5 25.5zM360 625q-41 0 -75 -20t-54 -53.5t-20 -73.5q0 -61 43.5 -104t105.5 -43q61 0 104 43t43 104t-43 104t-104 43zM360 565q36 0 61.5 -25.5t25.5 -61.5
t-25.5 -61.5t-61.5 -25.5q-37 0 -63 25.5t-26 61.5t26 61.5t63 25.5zM1459 1627q-61 0 -104.5 -43t-43.5 -104q0 -62 43.5 -105t104.5 -43t104.5 43.5t43.5 104.5t-43.5 104t-104.5 43zM1459 1567q36 0 62 -25.5t26 -61.5t-26 -62t-62 -26q-37 0 -62.5 25.5t-25.5 62.5
q0 36 25.5 61.5t62.5 25.5zM1880 1957q-61 0 -101 -38t-40 -102q0 -40 16 -82l46 19q-12 31 -12 62q0 43 26.5 67.5t66.5 24.5q29 0 62.5 -13.5t68.5 -42.5l29 40q-42 34 -83.5 49.5t-78.5 15.5zM1687 1688q-61 0 -104.5 -43t-43.5 -104q0 -62 43.5 -105t104.5 -43
t104.5 43.5t43.5 104.5t-43.5 104t-104.5 43zM1687 1628q36 0 62 -25.5t26 -61.5t-26 -62t-62 -26q-37 0 -62.5 25.5t-25.5 62.5q0 36 25.5 61.5t62.5 25.5zM551 492q-41 0 -74.5 -20t-53.5 -53.5t-20 -73.5q0 -62 43.5 -105t104.5 -43t104 43t43 105q0 61 -43 104t-104 43z
M551 432q36 0 61.5 -25.5t25.5 -61.5q0 -37 -25.5 -62.5t-61.5 -25.5q-37 0 -62.5 25.5t-25.5 62.5q0 36 25.5 61.5t62.5 25.5zM1871 1739v-53q59 0 100 -22t75 -48q33 -26 71 -43t90 -18l-6 53q-34 1 -62 14t-56 36q-34 28 -82 53.5t-130 27.5zM1819 1494q-61 0 -104 -43
t-43 -104q0 -62 43 -105t104 -43q62 0 105 43t43 105q0 61 -43 104t-105 43zM1819 1434q38 0 63 -25t25 -62t-25.5 -62.5t-62.5 -25.5q-36 0 -61.5 25.5t-25.5 62.5q0 36 25.5 61.5t61.5 25.5zM738 349q-61 0 -104.5 -43t-43.5 -104t43.5 -104.5t104.5 -43.5
q63 0 105.5 42.5t42.5 105.5q0 61 -43.5 104t-104.5 43zM738 289q36 0 62 -25.5t26 -61.5q0 -38 -25 -63t-63 -25q-36 0 -62 26t-26 62t26 61.5t62 25.5zM2042 1420q-61 0 -104 -43.5t-43 -104.5t43 -104t104 -43q62 0 105 43t43 104t-43 104.5t-105 43.5zM2042 1360
q37 0 62.5 -25.5t25.5 -62.5q0 -36 -25.5 -61.5t-62.5 -25.5q-36 0 -61.5 25.5t-25.5 61.5q0 37 25.5 62.5t61.5 25.5zM947 238q-61 0 -104.5 -43t-43.5 -104q0 -62 43.5 -104.5t104.5 -42.5t104 43t43 104t-43 104t-104 43zM947 178q36 0 61.5 -25.5t25.5 -61.5
t-25.5 -61.5t-61.5 -25.5q-37 0 -62.5 25t-25.5 62t25.5 62t62.5 25zM2223 1271q-61 0 -104.5 -43t-43.5 -104t43.5 -104.5t104.5 -43.5q62 0 105 43t43 105q0 61 -43.5 104t-104.5 43zM2223 1211q36 0 62 -25.5t26 -61.5q0 -37 -25.5 -62.5t-62.5 -25.5q-36 0 -62 26
t-26 62t26 61.5t62 25.5zM1181 204q-61 0 -105 -43t-44 -104q0 -62 44 -105t105 -43q62 0 104.5 43t42.5 105q0 61 -43 104t-104 43zM1181 144q36 0 61.5 -25.5t25.5 -61.5q0 -38 -25 -63t-62 -25t-63 25.5t-26 62.5q0 36 26 61.5t63 25.5zM1415 192q-62 0 -105.5 -43
t-43.5 -104t43.5 -104t105.5 -43q61 0 104 43t43 104t-43 104t-104 43zM1415 132q36 0 61.5 -25.5t25.5 -61.5t-25.5 -61.5t-61.5 -25.5q-37 0 -63 25.5t-26 61.5t26 61.5t63 25.5zM2368 1087q-61 0 -104 -43t-43 -104t43 -104t104 -43q62 0 105.5 43t43.5 104t-43.5 104
t-105.5 43zM2368 1027q37 0 63 -25.5t26 -61.5t-26 -61.5t-63 -25.5q-36 0 -61.5 25.5t-25.5 61.5t25.5 61.5t61.5 25.5zM1648 144q37 0 62.5 -25.5t25.5 -61.5t-25.5 -61.5t-62.5 -25.5t-62.5 25.5t-25.5 61.5t25.5 61.5t62.5 25.5zM1648 199q-61 0 -104.5 -43t-43.5 -104
t43.5 -104t104.5 -43q62 0 105 43t43 104t-43 104t-105 43zM2432 863q-61 0 -104.5 -43t-43.5 -104t43.5 -104t104.5 -43q62 0 105 43t43 104q0 62 -43 104.5t-105 42.5zM2432 803q38 0 63 -25t25 -62q0 -36 -25.5 -61.5t-62.5 -25.5t-62.5 25.5t-25.5 61.5t25.5 61.5
t62.5 25.5zM1879 246q-61 0 -104.5 -43t-43.5 -104t43.5 -104.5t104.5 -43.5t104.5 43.5t43.5 104.5t-43.5 104t-104.5 43zM1879 186q36 0 62 -25.5t26 -61.5t-26 -62t-62 -26t-62 26t-26 62t26 61.5t62 25.5zM2102 315q-61 0 -104 -43t-43 -104q0 -62 43 -105t104 -43
q62 0 105.5 43t43.5 105q0 61 -43.5 104t-105.5 43zM2102 255q37 0 63 -25.5t26 -61.5q0 -37 -26 -62.5t-63 -25.5q-36 0 -61.5 25.5t-25.5 62.5q0 36 25.5 61.5t61.5 25.5zM2432 630q-61 0 -104.5 -43t-43.5 -104t43.5 -104t104.5 -43q62 0 105 42.5t43 104.5q0 61 -43 104
t-105 43zM2432 570q37 0 62.5 -25t25.5 -62t-25.5 -62t-62.5 -25t-62.5 25.5t-25.5 61.5t25.5 61.5t62.5 25.5zM2307 432q-61 0 -104 -43.5t-43 -104.5q0 -62 42.5 -104.5t104.5 -42.5t105 43t43 104t-43 104.5t-105 43.5zM2307 372q37 0 62.5 -25.5t25.5 -62.5
q0 -36 -25.5 -61.5t-62.5 -25.5t-62 24.5t-25 62.5q0 37 25.5 62.5t61.5 25.5z" />
</svg>