<?xml version="1.0" standalone="no"?>
<!DOCTYPE svg PUBLIC "-//W3C//DTD SVG 1.1//EN" "http://www.w3.org/Graphics/SVG/1.1/DTD/svg11.dtd">
<svg xmlns="http://www.w3.org/2000/svg" xmlns:xlink="http://www.w3.org/1999/xlink" version="1.1"
   viewBox="94 -151 2414 2169">
   <path fill="currentColor"
      d="M805 1978q-96 -67 -150.5 -154.5t-54.5 -188.5q0 -134 80 -251.5t245 -233.5q35 -35 72.5 -87t78 -107t84.5 -101t90 -68q-122 -6 -222 -66t-159.5 -159t-59.5 -220q0 -122 60.5 -223t162 -161t223.5 -60q124 0 224.5 60t160.5 160.5t60 223.5q0 139 -78 254.5
t-205 171.5q100 22 202.5 83.5t189 146.5t139 176.5t52.5 173.5q0 56 -24.5 97t-60 75t-71.5 68t-60.5 76t-24.5 100q0 69 -41.5 107t-98.5 38q-18 0 -38 -5.5t-50 -20.5q0 34 -1 53.5t-3 41.5h-722zM1503 1647q20 -41 57 -82.5t75 -81t64.5 -74t26.5 -61.5
q0 -45 -52.5 -90.5t-144.5 -79.5q-20 73 -38 155.5t-18 159.5q0 38 9 77t21 77z" />
</svg>