<?xml version="1.0" standalone="no"?>
<!DOCTYPE svg PUBLIC "-//W3C//DTD SVG 1.1//EN" "http://www.w3.org/Graphics/SVG/1.1/DTD/svg11.dtd">
<svg xmlns="http://www.w3.org/2000/svg" xmlns:xlink="http://www.w3.org/1999/xlink" version="1.1"
   viewBox="94 -151 2414 2169">
   <path fill="currentColor"
      d="M1300 1893q197 0 370 -74.5t304.5 -206t206 -304.5t74.5 -370t-74.5 -369.5t-206 -304.5t-304.5 -206.5t-370 -74.5t-370 74.5t-304.5 206t-206 304.5t-74.5 370t74.5 370t206 304.5t304.5 206t370 74.5zM1300 1978q-214 0 -402.5 -81t-332 -224.5t-224.5 -332
t-81 -402.5t81 -402.5t224.5 -332t332 -224.5t402.5 -81q215 0 403 81t331.5 224.5t224.5 332t81 402.5t-81 402.5t-224.5 332t-331.5 224.5t-403 81zM2031 1614l-65 69l-1396 -1421l65 -69z" />
</svg>