<?xml version="1.0" standalone="no"?>
<!DOCTYPE svg PUBLIC "-//W3C//DTD SVG 1.1//EN" "http://www.w3.org/Graphics/SVG/1.1/DTD/svg11.dtd">
<svg xmlns="http://www.w3.org/2000/svg" xmlns:xlink="http://www.w3.org/1999/xlink" version="1.1"
   viewBox="94 -151 2414 2169">
   <path fill="currentColor"
      d="M1301 1978q213 0 401 -81.5t331.5 -225t225 -332t81.5 -401.5t-81.5 -401.5t-225 -332t-331.5 -225t-401 -81.5q-214 0 -402.5 81.5t-332 225t-225 332t-81.5 401.5t81.5 401.5t225 332t332 225t402.5 81.5zM1304 1956l1008 -939l-54 -58l-1008 939zM962 1888l1309 -1221
l-54 -58l-1309 1221zM711 1736l1433 -1337l-54 -58l-1433 1337zM1301 1898q-197 0 -371 -75.5t-306.5 -208t-208 -306t-75.5 -370.5t75.5 -370.5t208 -306t306.5 -208t371 -75.5t370.5 75.5t305.5 208t207.5 306t75.5 370.5t-75.5 370.5t-207.5 306t-305.5 208t-370.5 75.5z
M518 1529l1433 -1337l-54 -58l-1433 1337zM383 1267l1309 -1220l-54 -58l-1309 1220zM339 921l1008 -939l-54 -58l-1008 939z" />
</svg>