<?xml version="1.0" standalone="no"?>
<!DOCTYPE svg PUBLIC "-//W3C//DTD SVG 1.1//EN" "http://www.w3.org/Graphics/SVG/1.1/DTD/svg11.dtd">
<svg xmlns="http://www.w3.org/2000/svg" xmlns:xlink="http://www.w3.org/1999/xlink" version="1.1"
   viewBox="94 -151 2414 2169">
   <path fill="currentColor"
      d="M425 1978h1749q68 0 117 -48.5t49 -115.5v-1751q0 -68 -48.5 -116.5t-116.5 -48.5h-1750q-67 0 -116 48.5t-49 116.5v1750q0 67 49 116t116 49zM652 1965l1628 -1520v-109l-1682 1571zM1004 1963l1276 -1189v-109l-1330 1240zM314 228l278 -258l-54 -58l-224 208v108z
M1354 1965l926 -863v-109l-980 914zM1706 1966l574 -536v-108l-628 586zM425 1898q-34 0 -59.5 -25.5t-25.5 -59.5v-1750q0 -35 25.5 -60t59.5 -25h1750q35 0 60 25t25 60v1751q0 34 -25.5 59t-60.5 25h-1749zM333 1890l1990 -1857l-54 -58l-1990 1857zM2059 1965l222 -207
v-109l-276 258zM314 557l633 -588l-54 -58l-579 538v108zM314 886l983 -916l-54 -58l-929 866v108zM314 1213l1335 -1243l-54 -58l-1281 1193v108zM314 1542l1681 -1568l-54 -58l-1627 1518v108z" />
</svg>