<?xml version="1.0" standalone="no"?>
<!DOCTYPE svg PUBLIC "-//W3C//DTD SVG 1.1//EN" "http://www.w3.org/Graphics/SVG/1.1/DTD/svg11.dtd">
<svg xmlns="http://www.w3.org/2000/svg" xmlns:xlink="http://www.w3.org/1999/xlink" version="1.1"
   viewBox="94 -151 2414 2169">
   <path fill="currentColor"
      d="M1300 1928q-368 0 -678 -154t-579 -455l166 -107l-129 -110q27 -87 83.5 -192t127 -202.5t138.5 -162.5q-34 -122 -54.5 -235.5t-20.5 -186.5q0 -85 30.5 -130t100.5 -45q100 0 228 47.5t258 132.5q57 -34 152.5 -57.5t176.5 -23.5t176.5 23.5t152.5 57.5
q131 -85 258.5 -132.5t227.5 -47.5q70 0 100.5 45t30.5 130q0 73 -20 186.5t-55 235.5q69 65 139 162.5t126.5 202.5t83.5 192l-129 110l166 107q-269 301 -579 455t-678 154zM1166 1670q-51 0 -98.5 -22t-77.5 -56l57 -54q49 52 119 52q47 0 73.5 -27t26.5 -62h68
q0 35 27 62t73 27q70 0 119 -52l57 54q-30 34 -77.5 56t-98.5 22q-81 0 -134 -62q-53 62 -134 62zM1300 1556q-78 0 -125 -42t-47 -111q0 -68 47.5 -110t124.5 -42t124.5 42t47.5 110q0 69 -47 111t-125 42zM1015 1093q44 0 74.5 -41.5t30.5 -99.5t-30.5 -99t-74.5 -41
t-74.5 41t-30.5 99t30.5 99.5t74.5 41.5zM1300 1848q322 0 601.5 -126.5t531.5 -386.5l-170 -114l169 -144q-93 -143 -217 -242t-263.5 -150.5t-280.5 -51.5q-77 0 -129 22.5t-81 80.5q31 -18 69 -28t82 -10q78 0 138.5 29t106.5 72t82 86t65 71q38 36 78.5 81t68 99.5
t27.5 122.5q0 78 -39.5 153t-106 136t-148.5 97t-166 36q-30 -162 -72.5 -271.5t-111 -189t-176.5 -149.5q-7 -12 -10.5 -44t-3.5 -69q0 -216 82.5 -310t244.5 -94q100 0 197 27t199 83t217 144q-49 -77 -103 -142.5t-102 -102.5q40 -131 63.5 -248t23.5 -192
q0 -60 -11.5 -77.5t-39.5 -17.5q-96 0 -225.5 52.5t-247.5 137.5q-26 -19 -84.5 -40t-128 -36t-129.5 -15q-59 0 -128.5 15t-128 36t-85.5 40q-118 -85 -247.5 -137.5t-225.5 -52.5q-28 0 -39.5 17.5t-11.5 77.5q0 75 23.5 192t63.5 248q-48 37 -101.5 102.5t-103.5 142.5
q115 -88 217 -144t199.5 -83t196.5 -27q162 0 244.5 94t82.5 310q0 37 -3.5 69t-10.5 44q-108 70 -176.5 149.5t-111 189t-72.5 271.5q-84 0 -166 -36t-148.5 -97t-106 -136t-39.5 -153q0 -68 27.5 -122.5t68 -99.5t78.5 -81q29 -28 65 -71t82 -86t106.5 -72t138.5 -29
q44 0 82 10t69 28q-28 -58 -80.5 -80.5t-129.5 -22.5q-140 0 -280 51.5t-263.5 150t-217.5 241.5l169 145l-170 114q252 260 531.5 386.5t601.5 126.5zM613 455q-22 -28 -41.5 -74t-32 -95.5t-12.5 -86.5q0 -66 52 -66q30 0 75.5 18.5t94 49t87.5 67.5q-55 43 -109.5 89
t-113.5 98zM1585 1093q44 0 74.5 -41.5t30.5 -99.5t-30.5 -99t-74.5 -41t-74.5 41t-30.5 99t30.5 99.5t74.5 41.5zM1987 455q-58 -52 -113 -98t-110 -89q39 -37 87.5 -67.5t94 -49t75.5 -18.5q52 0 52 66q0 37 -12.5 86.5t-32 95.5t-41.5 74z" />
</svg>