<?xml version="1.0" standalone="no"?>
<!DOCTYPE svg PUBLIC "-//W3C//DTD SVG 1.1//EN" "http://www.w3.org/Graphics/SVG/1.1/DTD/svg11.dtd">
<svg xmlns="http://www.w3.org/2000/svg" xmlns:xlink="http://www.w3.org/1999/xlink" version="1.1"
   viewBox="94 -151 2414 2169">
   <path fill="currentColor"
      d="M1904 1828q-130 0 -252 -34t-240.5 -84t-237 -100.5t-241.5 -84.5t-255 -34q-128 0 -270.5 32.5t-283.5 100.5v-1394q159 -101 304.5 -141.5t267.5 -40.5q130 0 252 34t240.5 84t237 100.5t241.5 84.5t255 34q128 0 270.5 -33t283.5 -100v1394q-159 100 -304.5 141
t-267.5 41zM585 1200q-46 0 -81 -27t-35 -76q0 -37 21 -63t53 -37v-8.5v-5.5q0 -77 54.5 -131.5t130.5 -54.5q61 0 105 30t68 77q38 0 73 24t48 65q45 12 71.5 42t26.5 68q0 46 -32.5 71.5t-86.5 25.5h-416zM585 1152h416q38 0 54.5 -14t16.5 -35q0 -28 -28.5 -48t-54.5 -20
q0 -24 -25 -54t-62 -30q-12 0 -18.5 0.5t-17.5 2.5q-11 -50 -49.5 -79.5t-88.5 -29.5q-53 0 -95 38.5t-42 99.5q0 10 1 22t4 27q-37 1 -58 20t-21 45q0 22 16.5 38.5t51.5 16.5zM1590 1177q0 -83 -41.5 -150.5t-111 -107.5t-152.5 -40q-81 0 -148.5 37.5t-108.5 99.5
l-42 -29q48 -71 126.5 -114.5t172.5 -43.5q97 0 177.5 47t129 125.5t48.5 175.5h-50zM1904 1748q119 0 239 -34t253 -113v-1229q-238 93 -474 93q-136 0 -263 -34t-248 -84.5t-239 -100.5t-236 -84t-240 -34q-118 0 -238.5 34t-253.5 113v1229q238 -93 474 -93q136 0 263 34
t248 84t239 100.5t236.5 84.5t239.5 34zM1732 1083q-23 -103 -87 -184t-157 -127.5t-203 -46.5q-118 0 -216.5 52t-161.5 140l-41 -28q70 -98 179.5 -156t239.5 -58q121 0 223.5 51t173.5 139.5t97 201.5zM1863 1053q-29 -133 -112.5 -238t-203.5 -165.5t-262 -60.5
q-151 0 -278.5 66.5t-208.5 179.5l-41 -29q89 -122 227 -194.5t301 -72.5q155 0 286.5 67t222 182.5t120.5 262.5zM1568 1430q-54 0 -86.5 -25.5t-32.5 -71.5q0 -38 26.5 -68t71.5 -42q13 -41 49.5 -65.5t73.5 -24.5q24 -47 67 -76.5t104 -29.5q77 0 131 54.5t54 131.5v5.5
v8.5q32 11 53 37t21 63q0 49 -34.5 76t-81.5 27h-416zM1568 1382h416q35 0 51.5 -16.5t16.5 -38.5q0 -26 -20.5 -45t-58.5 -20q3 -15 4 -27t1 -22q0 -61 -42 -99.5t-95 -38.5q-49 0 -88 29.5t-50 79.5q-10 -2 -17 -2.5t-19 -0.5q-37 0 -62 30t-25 54q-26 0 -54.5 20
t-28.5 48q0 21 16.5 35t54.5 14z" />
</svg>