<?xml version="1.0" standalone="no"?>
<!DOCTYPE svg PUBLIC "-//W3C//DTD SVG 1.1//EN" "http://www.w3.org/Graphics/SVG/1.1/DTD/svg11.dtd">
<svg xmlns="http://www.w3.org/2000/svg" xmlns:xlink="http://www.w3.org/1999/xlink" version="1.1"
   viewBox="94 -151 2414 2169">
   <path fill="currentColor"
      d="M646 1978q-67 0 -134 -52l-72 -56q-86 -66 -86 -139q0 -43 32 -85l693 -896q27 -35 50.5 -55.5t48.5 -37.5l158 -108l260 257l-189 156q-12 10 -20 19t-15 19l-623 925q-36 53 -103 53zM646 1897q26 0 44 -27l616 -917q11 -17 26 -31t29 -25l142 -117l-150 -149l-116 78
q-20 13 -45.5 37t-50.5 56l-693 894q-14 19 -14 36q0 33 54 74l74 56q46 35 84 35zM1916 811l-617 -600l49 -28l617 600zM1779 1049l-697 -673q-42 -41 -42 -87.5t41 -88.5l251 -259q41 -42 87 -42.5t88 40.5l696 673q42 41 42.5 87t-40.5 88l-251 260q-41 42 -87 42.5
t-88 -40.5zM1809 966q30 29 57.5 29t55.5 -30l200 -208q29 -30 29 -57.5t-30 -55.5l-644 -622q-30 -29 -57 -29t-56 30l-200 207q-28 30 -29 57t29 56zM2017 751l-650 -634l59 -54l647 631zM1841 886l-617 -600l48 -28l617 600z" />
</svg>