<?xml version="1.0" standalone="no"?>
<!DOCTYPE svg PUBLIC "-//W3C//DTD SVG 1.1//EN" "http://www.w3.org/Graphics/SVG/1.1/DTD/svg11.dtd">
<svg xmlns="http://www.w3.org/2000/svg" xmlns:xlink="http://www.w3.org/1999/xlink" version="1.1"
   viewBox="94 -151 2414 2169">
   <path fill="currentColor"
      d="M1415 502q-49 0 -84 -34.5t-35 -83.5q0 -50 35 -84.5t84 -34.5q50 0 84.5 34.5t34.5 84.5q0 49 -34.5 83.5t-84.5 34.5zM769 609h720v70h-720v-70zM1293 787h196v70h-196v-70zM769 965h620v70h-620v-70zM1779 609h284v70h-284v-70zM1779 787h284v70h-284v-70zM1779 965
h284v70h-284v-70zM1151 857h-382v-70h382v70zM769 1170h94v69h-94v-69zM969 1170h94v69h-94v-69zM1169 1170h94v69h-94v-69zM1369 1170h94v69h-94v-69zM1569 1170h94v69h-94v-69zM1769 1170h94v69h-94v-69zM1969 1170h94v69h-94v-69zM1629 1340h354v68h-354v-68zM2300 1357
q0 187 -8 308t-38.5 189.5t-95.5 96t-179 27.5h-1370q-83 0 -153.5 -28t-113 -83t-42.5 -136q0 -50 19 -110.5t59 -130.5l109 122l113 -132l115 138l113 -115l114 115l114 -115l114 115l114 -115l114 115l114 -115l115 117l128 -125q88 98 141.5 153.5t91.5 78t77 22.5
q65 0 110 -112t45 -312v-1281l-101 113l-116 -138l-116 131l-117 -131l-118 131l-116 -131l-117 131l-117 -131l-116 131l-117 -131l-118 131l-116 -131l-117 131l-106 -118v1553l-81 10v-1686h24q59 0 117 69l46 54l117 -134l116 134l118 -134l117 134l116 -134l117 134
l117 -134l116 134l118 -134l117 134l118 -134l116 141l75 -85q24 -27 41.5 -36t39.5 -9h23v1448zM2204 1682l16 3q-20 57 -45 88.5t-52.5 43.5t-57.5 12q-50 0 -93 -19.5t-94.5 -67.5t-127.5 -131l-124 122l-114 -116l-114 115l-114 -115l-114 115l-114 -115l-114 115
l-114 -115l-117 120l-112 -132l-110 129l-89 -100q-20 49 -20 97q0 76 61.5 121.5t167.5 45.5h1370q87 0 132.5 -16t65 -62.5t27.5 -137.5z" />
</svg>