<?xml version="1.0" standalone="no"?>
<!DOCTYPE svg PUBLIC "-//W3C//DTD SVG 1.1//EN" "http://www.w3.org/Graphics/SVG/1.1/DTD/svg11.dtd">
<svg xmlns="http://www.w3.org/2000/svg" xmlns:xlink="http://www.w3.org/1999/xlink" version="1.1"
   viewBox="94 -151 2414 2169">
   <path fill="currentColor"
      d="M426 1978q-68 0 -117 -48.5t-49 -115.5v-1751q0 -68 49 -116.5t116 -48.5h1749q68 0 117 48t49 116v1751q0 67 -48.5 116t-116.5 49h-1749zM1299 1430q137 0 248.5 -66.5t178 -178t66.5 -247.5t-66.5 -247.5t-177.5 -178t-247 -66.5t-248 66.5t-178.5 178t-66.5 247.5
q0 135 66.5 247t178 178.5t246.5 66.5z" />
</svg>