<?xml version="1.0" standalone="no"?>
<!DOCTYPE svg PUBLIC "-//W3C//DTD SVG 1.1//EN" "http://www.w3.org/Graphics/SVG/1.1/DTD/svg11.dtd">
<svg xmlns="http://www.w3.org/2000/svg" xmlns:xlink="http://www.w3.org/1999/xlink" version="1.1"
   viewBox="94 -151 2414 2169">
   <path fill="currentColor"
      d="M1694 1978l-359 -422l359 -421h72v165h269q98 0 167 -25t106 -71t37 -109q0 -39 -22 -76l-179 -312l-288 163l256 451l-72 35l-294 -517l428 -240l220 382q31 53 31 114q0 39 -18 87.5t-51 97.5l-266 390q-31 46 -61 70.5t-71 33.5t-106 9h-86v195h-72zM730 1854
q-79 0 -137.5 -43t-104.5 -137l-207 -425q-18 -38 -25 -63t-7 -49q0 -32 11.5 -66t39.5 -84l45 -78l-170 -96l37 -63l544 -104l187 522l-36 62l-141 -80l-129 228q-36 64 -53.5 119.5t-17.5 103.5q0 69 46.5 121t116.5 52h363v-333h-529l9 -80h600v493h-442zM493 1620
q0 -65 17 -138.5t59 -146.5l167 -294l185 105l-56 37l-162 -445l-466 89l-8 -75l225 128l-84 146q-23 40 -32 66.5t-9 49.5q0 16 7 34.5t20 45.5l195 396zM1686 1939v-236h163q54 0 82.5 -4t47 -19.5t42.5 -50.5l241 -353l53 24q-60 36 -134 58t-152 22h-343v-211l61 24
l-310 363l307 360zM1038 650l-442 -217l192 -396q35 -72 100.5 -105.5t168.5 -33.5h472q54 0 90.5 10.5t68 39.5t69.5 84l48 69l161 -110l40 61l-145 534l-551 -59l-41 -60l137 -93l-154 -224q-58 -85 -122 -129t-126 -44q-99 0 -144 94l-157 324l298 149l231 -476l68 44z
M1802 499l127 -461l54 38l-198 136l-90 -131q-29 -43 -51 -65t-47.5 -30t-67.5 -8h-433l-5 -47q69 22 125 64.5t105 114.5l196 285l-176 119l-14 -66z" />
</svg>