<?xml version="1.0" standalone="no"?>
<!DOCTYPE svg PUBLIC "-//W3C//DTD SVG 1.1//EN" "http://www.w3.org/Graphics/SVG/1.1/DTD/svg11.dtd">
<svg xmlns="http://www.w3.org/2000/svg" xmlns:xlink="http://www.w3.org/1999/xlink" version="1.1"
   viewBox="94 -151 2414 2169">
   <path fill="currentColor"
      d="M1300 1978q213 0 401.5 -81.5t332 -225t225 -332t81.5 -402.5q0 -213 -81.5 -401t-225 -331.5t-332 -225t-401.5 -81.5t-401.5 81.5t-332 225t-225 331.5t-81.5 401q0 214 81.5 402.5t225 332t332 225t401.5 81.5zM600 1689h80v-1497h-80v1497zM930 1873h80v-1880h-80
v1880zM1300 1898q-197 0 -370.5 -75.5t-306 -208t-208 -306.5t-75.5 -371t75.5 -370.5t208 -305.5t306 -207.5t370.5 -75.5t370.5 75.5t306 207.5t208 305.5t75.5 370.5t-75.5 371t-208 306.5t-306 208t-370.5 75.5zM1260 1933h80v-1990h-80v1990zM1590 1873h80v-1880h-80
v1880zM1920 1689h80v-1497h-80v1497z" />
</svg>