<?xml version="1.0" standalone="no"?>
<!DOCTYPE svg PUBLIC "-//W3C//DTD SVG 1.1//EN" "http://www.w3.org/Graphics/SVG/1.1/DTD/svg11.dtd">
<svg xmlns="http://www.w3.org/2000/svg" xmlns:xlink="http://www.w3.org/1999/xlink" version="1.1"
   viewBox="94 -151 2414 2169">
   <path fill="currentColor"
      d="M487 1978v-2080h1436v2080h-1436zM973 1209v-238q-19 20 -38.5 37t-39.5 31q-4 -13 -13.5 -31.5t-17.5 -27.5q52 -33 101.5 -87.5t79.5 -116.5h-157v-58h85v-123h63v123h41l12 -2l34 23q-13 36 -31.5 71t-41.5 67q17 14 44 38t40 37l-38 50q-9 -11 -27 -31t-33 -36v274
h-63zM1185 1129h84v-59h-84v59zM1185 1021h84v-57h-84v57zM1126 1209v-297h350v296h-61v-27h-230v28h-59zM567 1898h1276v-1920h-1276v1920zM1326 1129h89v-59h-89v59zM1205 1427q-108 0 -203 -41t-167 -113t-113 -167t-41 -203t41 -202.5t113 -167t167 -113t203 -40.5
t203 40.5t167 113t113 167t41 202.5t-41 203t-113 167t-167 113t-203 41zM1205 1347q123 0 223.5 -60t160.5 -160.5t60 -223.5t-60 -223.5t-160.5 -160t-223.5 -59.5q-122 0 -223 59.5t-161 160t-60 223.5t60 223.5t161 160.5t223 60zM1326 1021h89v-57h-89v57zM1160 876
v-161h286v161h-286zM1217 827h170v-63h-170v63zM1123 678v-53h356v53h-356zM1863 569l21 -614l39 -57l190 671h-250z" />
</svg>