<?xml version="1.0" standalone="no"?>
<!DOCTYPE svg PUBLIC "-//W3C//DTD SVG 1.1//EN" "http://www.w3.org/Graphics/SVG/1.1/DTD/svg11.dtd">
<svg xmlns="http://www.w3.org/2000/svg" xmlns:xlink="http://www.w3.org/1999/xlink" version="1.1"
   viewBox="94 -151 2414 2169">
   <path fill="currentColor"
      d="M1300 1978q395 -303 644.5 -558t367.5 -480t118 -438q0 -126 -42.5 -235.5t-119 -192.5t-179 -129.5t-221.5 -46.5q-121 0 -234 46.5t-200.5 127t-133.5 183.5q-45 -103 -133 -183.5t-201 -127t-234 -46.5q-119 0 -221.5 46.5t-179 129.5t-119 192.5t-42.5 235.5
q0 213 118 438t367.5 480t644.5 558zM500 1125v-1104h-80v1084zM780 1461v-1516h-80v1496zM1060 1715v-1707h-80v1687zM1260 1929h80v-1666h-80v1666zM1300 1883q-365 -283 -597 -524.5t-342.5 -453t-110.5 -403.5q0 -147 63.5 -265.5t172.5 -188.5t246 -70q128 0 237 53
t193.5 151t137.5 232q53 -134 137.5 -232t194 -151t236.5 -53q137 0 246 70t172.5 188.5t63.5 265.5q0 192 -110.5 403.5t-342.5 453t-597 524.5zM1540 1715l80 -20v-1687h-80v1707zM1820 1461l80 -20v-1496h-80v1516zM2100 1125l80 -20v-1084h-80v1104z" />
</svg>