<?xml version="1.0" standalone="no"?>
<!DOCTYPE svg PUBLIC "-//W3C//DTD SVG 1.1//EN" "http://www.w3.org/Graphics/SVG/1.1/DTD/svg11.dtd">
<svg xmlns="http://www.w3.org/2000/svg" xmlns:xlink="http://www.w3.org/1999/xlink" version="1.1"
   viewBox="94 -151 2414 2169">
   <path fill="currentColor"
      d="M1300 1863q-145 0 -272 -30.5t-223 -94t-150.5 -163.5t-54.5 -239v-822q0 -141 67.5 -256.5t182.5 -184.5t255 -69v80q-118 0 -214.5 58t-153.5 155.5t-57 216.5v822q0 122 48.5 207.5t134 138.5t198 77t239.5 24q128 0 240 -24t197.5 -77t134 -138.5t48.5 -207.5v-822
q0 -119 -57 -216.5t-153 -155.5t-215 -58v-80q141 0 255.5 69t182 184.5t67.5 256.5v822q0 139 -54.5 239t-150.5 163.5t-223 94t-272 30.5zM1300 1978q-95 0 -163.5 -5t-109.5 -18q-40 -13 -40 -49v-105l313 30l313 -30v105q0 36 -40 49t-109 18t-164 5zM1300 1580
q-174 0 -330 -20.5t-322 -65.5l22 -78q160 44 310.5 64t319.5 20t319.5 -20t310.5 -64l22 78q-166 45 -322 65.5t-330 20.5zM1300 1295q-181 0 -320.5 -19t-229 -42t-121.5 -33l24 -76q32 10 118 32t220 40t309 18q176 0 309.5 -18t219.5 -40t118 -32l24 76
q-32 10 -121.5 33t-228.5 42t-321 19zM1300 1010q-181 0 -320.5 -19t-229 -41.5t-121.5 -32.5l24 -76q32 10 118 31.5t220 39.5t309 18q176 0 309.5 -18t219.5 -39.5t118 -31.5l24 76q-32 10 -121.5 32.5t-228.5 41.5t-321 19zM1300 725q-179 0 -317 -18.5t-227.5 -41
t-121.5 -32.5l24 -76q32 10 118 31.5t218.5 39t305.5 17.5t306 -17.5t218.5 -39t117.5 -31.5l24 76q-32 10 -121 32.5t-227.5 41t-317.5 18.5zM1300 440q-177 0 -331.5 -20t-289.5 -60l22 -76q131 38 279 57t320 19t320.5 -19t278.5 -57l22 76q-135 40 -289.5 60t-331.5 20z
M1199 63v-105h-80v101q14 2 40 3t40 1zM1300 115q-94 0 -166.5 -5.5t-108.5 -18.5q-38 -13 -38 -48v-107q0 -16 12.5 -27t31.5 -11h538q19 0 31.5 11t12.5 27v107q0 35 -38 48q-36 13 -108.5 18.5t-166.5 5.5z" />
</svg>