<?xml version="1.0" standalone="no"?>
<!DOCTYPE svg PUBLIC "-//W3C//DTD SVG 1.1//EN" "http://www.w3.org/Graphics/SVG/1.1/DTD/svg11.dtd">
<svg xmlns="http://www.w3.org/2000/svg" xmlns:xlink="http://www.w3.org/1999/xlink" version="1.1"
   viewBox="94 -151 2414 2169">
   <path fill="currentColor"
      d="M1130 1289q3 -97 17.5 -166.5t44 -125t78.5 -109.5t122 -120q62 -57 106 -102.5t67 -95.5t23 -119q0 -139 -71 -218t-207 -79q-130 0 -209.5 72.5t-94.5 194.5h-296q0 -149 77 -267t211.5 -187t308.5 -69q279 0 431 146t152 396q0 93 -30 171.5t-99 159.5t-186 183
q-65 57 -98.5 100t-47 96t-19.5 139h-280zM1271 1978q-62 0 -114 -31t-83 -83t-31 -114t31 -113.5t83 -82.5t114 -31t113.5 31t82.5 82.5t31 113.5t-31 114t-82.5 83t-113.5 31z" />
</svg>