<?xml version="1.0" standalone="no"?>
<!DOCTYPE svg PUBLIC "-//W3C//DTD SVG 1.1//EN" "http://www.w3.org/Graphics/SVG/1.1/DTD/svg11.dtd">
<svg xmlns="http://www.w3.org/2000/svg" xmlns:xlink="http://www.w3.org/1999/xlink" version="1.1"
   viewBox="94 -151 2414 2169">
   <path fill="currentColor"
      d="M426 1978h1749q68 0 116.5 -49t48.5 -116v-1750q0 -68 -48.5 -116.5t-116.5 -48.5h-1750q-67 0 -116 48.5t-49 116.5v1751q0 67 49 115.5t117 48.5zM590 1935h80v-1997h-80v1997zM925 1935h80v-1997h-80v1997zM426 1898q-35 0 -60.5 -25t-25.5 -59v-1751q0 -35 25.5 -60
t59.5 -25h1750q35 0 60 25t25 60v1750q0 34 -25 59.5t-60 25.5h-1749zM1260 1935h80v-1997h-80v1997zM1595 1935h80v-1997h-80v1997zM1930 1935h80v-1997h-80v1997z" />
</svg>