<?xml version="1.0" standalone="no"?>
<!DOCTYPE svg PUBLIC "-//W3C//DTD SVG 1.1//EN" "http://www.w3.org/Graphics/SVG/1.1/DTD/svg11.dtd">
<svg xmlns="http://www.w3.org/2000/svg" xmlns:xlink="http://www.w3.org/1999/xlink" version="1.1"
   viewBox="94 -151 2414 2169">
   <path fill="currentColor"
      d="M1300 1978q-226 0 -416 -77t-330 -217t-217 -330t-77 -416t77 -416t217 -330t330 -217t416 -77t416 77t330 217t217 330t77 416t-77 416t-217 330t-330 217t-416 77zM1300 1828q192 0 353.5 -65.5t279.5 -185t183 -282.5t65 -357t-65 -357t-183 -282.5t-279.5 -185
t-353.5 -65.5t-353.5 65.5t-279.5 185t-183 282.5t-65 357t65 357t183 282.5t279.5 185t353.5 65.5zM912 1559v-1238h363q232 0 339.5 91t107.5 274q0 133 -67.5 210.5t-152.5 111.5l329 551h-245l-283 -490h-175v490h-216zM1128 893h141q111 0 173 -56t62 -145
q0 -101 -57 -145.5t-181 -44.5h-138v391z" />
</svg>