<?xml version="1.0" standalone="no"?>
<!DOCTYPE svg PUBLIC "-//W3C//DTD SVG 1.1//EN" "http://www.w3.org/Graphics/SVG/1.1/DTD/svg11.dtd">
<svg xmlns="http://www.w3.org/2000/svg" xmlns:xlink="http://www.w3.org/1999/xlink" version="1.1"
   viewBox="94 -151 2414 2169">
   <path fill="currentColor"
      d="M425 1978q-67 0 -116 -49t-49 -116v-1750q0 -68 49 -116.5t116 -48.5h1749q68 0 117 48t49 116v1751q0 67 -48.5 116t-116.5 49h-1750zM883 1601v-305q0 -19 0.5 -50t1.5 -55q-4 4 -15.5 16t-22.5 21l-60 48l-54 -67l169 -135h92v527h-111zM918 1686q121 0 219.5 -73
t134.5 -190h342q198 0 309 -109t111 -303q0 -51 -9.5 -96.5t-27.5 -79.5l-177 159q5 20 5 46q0 76 -56.5 122.5t-154.5 46.5h-343q-37 -116 -135.5 -188t-217.5 -72q-63 0 -120 20q-20 -48 -20 -97q0 -98 53.5 -151.5t152.5 -53.5h649v272l424 -377l-424 -377v268h-649
q-124 0 -219 53t-148 147.5t-53 219.5q0 56 14.5 113t42.5 109q-72 104 -72 222q0 102 50 185.5t133.5 133.5t185.5 50z" />
</svg>