<?xml version="1.0" standalone="no"?>
<!DOCTYPE svg PUBLIC "-//W3C//DTD SVG 1.1//EN" "http://www.w3.org/Graphics/SVG/1.1/DTD/svg11.dtd">
<svg xmlns="http://www.w3.org/2000/svg" xmlns:xlink="http://www.w3.org/1999/xlink" version="1.1"
   viewBox="94 -151 2414 2169">
   <path fill="currentColor"
      d="M1300 1286q-219 0 -407 -23t-327.5 -65t-217.5 -100t-78 -128v-69q0 -42 22 -69t87 -72q10 -96 46.5 -214.5t106.5 -235.5t181 -213t270 -147v-52h634v52q159 51 270 147t181 213t106.5 235.5t46.5 214.5q65 45 87 72t22 69v69q0 70 -78 128t-217.5 100t-327.5 65
t-407 23zM1183 1978q-44 0 -79 -45t-35 -97v-9q0 -14 9 -23t22 -9h400q14 0 22.5 9t8.5 23v9q0 52 -35 97t-79 45h-234zM1300 1923q-180 0 -331.5 -57t-262 -161t-171.5 -245t-61 -309h80q0 202 95.5 358t264 245t386.5 89q219 0 387 -89t263.5 -245t95.5 -358h80
q0 168 -61 309t-171.5 245t-262 161t-331.5 57zM930 1051q-86 0 -181 -25.5t-166 -68.5q-16 -10 -18.5 -26t6.5 -30q11 -17 26.5 -18.5t28.5 6.5q62 37 139.5 57.5t166.5 24.5q18 1 29 11.5t11 29.5q0 17 -12 28t-30 11zM1247 917q-23 0 -23 -25v-147q0 -24 -24 -24h-140
q-24 0 -24 -25v-113q0 -25 24 -25h140q24 0 24 -24v-147q0 -25 23 -25h106q23 0 23 25v147q0 24 24 24h140q24 0 24 25v113q0 25 -24 25h-140q-24 0 -24 24v147q0 25 -23 25h-106zM1300 1206q191 0 362.5 -20t303.5 -54t208 -76t76 -86v-69q0 -10 -5 -18.5t-27 -26
t-74 -52.5q-6 -93 -37.5 -209.5t-99.5 -232.5t-183 -210t-287 -142v-31h-474v31q-172 48 -287 142t-183 210t-99.5 232.5t-37.5 209.5q-51 35 -73.5 52.5t-27.5 26t-5 18.5v69q0 44 76 86t208 76t303.5 54t362.5 20zM912 346l-74 -299l198 -84v-42h56q0 144 -16.5 232
t-55.5 133t-108 60zM1688 346q-68 -15 -107.5 -60t-56 -133t-16.5 -232h56v42l198 84z" />
</svg>