<?xml version="1.0" standalone="no"?>
<!DOCTYPE svg PUBLIC "-//W3C//DTD SVG 1.1//EN" "http://www.w3.org/Graphics/SVG/1.1/DTD/svg11.dtd">
<svg xmlns="http://www.w3.org/2000/svg" xmlns:xlink="http://www.w3.org/1999/xlink" version="1.1"
   viewBox="94 -151 2414 2169">
   <path fill="currentColor"
      d="M1287 1380q-48 0 -97.5 -1.5t-112.5 -5.5t-151.5 -12t-214 -20t-301.5 -30l6 -80q226 22 369 36t232 21t149 9.5t119 2.5q35 0 64 -20.5t43 -56.5l83 -212q41 -103 69.5 -182.5t47.5 -147t32 -133.5t21 -142t14 -174q3 -48 6 -94.5t6 -87.5q5 -68 47 -110t107 -42
q77 0 128.5 57t51.5 147h-80q0 -62 -26 -93t-74 -31q-36 0 -53 19t-21 61q-4 40 -7 86.5t-5 96.5q-4 92 -11.5 166t-20 141t-33 138.5t-51.5 156.5t-74 196l-84 216q-22 57 -70.5 91t-107.5 34zM400 1978v-80q86 -5 180.5 -10.5t187 -10.5t174 -8.5t143 -5.5t91.5 -2h39
q63 0 141.5 1.5t155.5 3.5t134 2q159 0 252 -35.5t133 -117.5t40 -222q0 -51 3 -115.5t10 -95.5q5 -19 13.5 -65.5t15.5 -100t7 -91.5q0 -62 -26.5 -100.5t-70.5 -38.5q-24 0 -34 13.5t-14 50.5q-11 111 -27.5 188t-41 138t-62.5 124l-68 -42q35 -58 58.5 -120.5t38 -135.5
t22.5 -162q6 -66 36 -100t86 -34q80 0 131.5 61.5t51.5 157.5q0 42 -7.5 99.5t-16.5 106.5t-14 69q-6 25 -8.5 84.5t-2.5 110.5q0 162 -50.5 262t-161.5 145.5t-293 45.5q-58 0 -135.5 -2t-155.5 -3.5t-140 -1.5h-39q-29 0 -89.5 2t-141 5.5t-173 8t-188 10t-184.5 11.5z
M1796 867l-76 -26q38 -110 60.5 -218.5t29.5 -187.5q3 -32 3.5 -83t0.5 -97q0 -108 33.5 -157.5t106.5 -49.5q56 0 95 31.5t59.5 91.5t20.5 145v26.5t-2 29.5q-4 40 -10.5 111t-11.5 142.5t-5 113.5q0 33 1.5 56.5t3.5 43.5l-80 10q-2 -22 -3.5 -48.5t-1.5 -61.5
q0 -44 5 -117t11.5 -145.5t10.5 -112.5q2 -12 2 -24v-24q0 -92 -24 -140t-71 -48q-37 0 -48.5 25t-11.5 102q0 46 -0.5 99.5t-3.5 88.5q-7 76 -31 190.5t-63 233.5z" />
</svg>