<?xml version="1.0" standalone="no"?>
<!DOCTYPE svg PUBLIC "-//W3C//DTD SVG 1.1//EN" "http://www.w3.org/Graphics/SVG/1.1/DTD/svg11.dtd">
<svg xmlns="http://www.w3.org/2000/svg" xmlns:xlink="http://www.w3.org/1999/xlink" version="1.1"
   viewBox="94 -151 2414 2169">
   <path fill="currentColor"
      d="M425 1978q-67 0 -116 -49t-49 -116v-1750q0 -68 49 -116.5t116 -48.5h1749q68 0 117 48t49 116v1751q0 67 -48.5 116t-116.5 49h-1750zM1539 1730l433 -462h-314v-574q0 -151 -67 -268.5t-184.5 -185t-267.5 -67.5q-152 0 -269.5 67t-184 184.5t-66.5 269.5v160h237v-160
q0 -129 77.5 -206.5t205.5 -77.5q127 0 204 78t77 206v574h-314z" />
</svg>