<?xml version="1.0" standalone="no"?>
<!DOCTYPE svg PUBLIC "-//W3C//DTD SVG 1.1//EN" "http://www.w3.org/Graphics/SVG/1.1/DTD/svg11.dtd">
<svg xmlns="http://www.w3.org/2000/svg" xmlns:xlink="http://www.w3.org/1999/xlink" version="1.1"
   viewBox="94 -151 2414 2169">
   <path fill="currentColor"
      d="M876 1778q-198 0 -347 -76.5t-231.5 -214.5t-82.5 -321q0 -210 109 -380t301 -258l63 -29q170 -79 270.5 -133.5t152.5 -95.5t77 -77q31 -44 65.5 -69.5t70.5 -25.5q68 0 112 51.5t44 128.5q0 72 -54 148.5t-177 156.5l-48 32q-8 5 -5.5 14.5t12.5 9.5l812 4q70 0 119 49
t49 120q0 65 -46.5 113t-111.5 55l-20 -73q41 0 69.5 -27.5t28.5 -67.5t-28.5 -67t-69.5 -27l-855 -4q-36 0 -57 -16t-21 -42q0 -34 29 -62.5t93 -71.5q115 -77 158 -132.5t43 -111.5q0 -44 -19.5 -74.5t-51.5 -30.5q-22 0 -40.5 17.5t-44.5 54.5q-28 39 -85 84t-162 104
t-279 139l-63 29q-172 79 -266 228t-94 337q0 163 71.5 283.5t202.5 187t309 66.5h933q40 0 68.5 -28t28.5 -68t-28 -67.5t-69 -27.5l19 -72q65 7 111.5 54.5t46.5 112.5q0 72 -49 121.5t-120 49.5h-943zM1137 1630q-76 0 -76 -27q0 -26 76 -26q75 0 75 26q0 27 -75 27z
M1143 1420q-92 0 -92 -33q0 -32 92 -32t92 32q0 33 -92 33zM1151 1146q-100 0 -100 -36q0 -35 100 -35q101 0 101 35q0 36 -101 36zM1135 886q-84 0 -84 -32q0 -31 84 -31t84 31q0 32 -84 32zM1419 1513v-75h597q41 0 69.5 -28t28.5 -68t-28.5 -67.5t-69.5 -27.5l20 -72
q65 7 111.5 54.5t46.5 112.5q0 71 -49 121t-119 50h-607zM1419 1248v-75h788q41 0 69.5 -28t28.5 -68t-28 -67.5t-69 -27.5h-789v-75h799q70 0 118.5 49.5t48.5 120.5t-49 121t-119 50h-798z" />
</svg>