<?xml version="1.0" standalone="no"?>
<!DOCTYPE svg PUBLIC "-//W3C//DTD SVG 1.1//EN" "http://www.w3.org/Graphics/SVG/1.1/DTD/svg11.dtd">
<svg xmlns="http://www.w3.org/2000/svg" xmlns:xlink="http://www.w3.org/1999/xlink" version="1.1"
   viewBox="94 -151 2414 2169">
   <path fill="currentColor"
      d="M285 1778q-73 0 -123 -29t-50 -86q0 -67 67.5 -160t191.5 -200t293 -215l37 94q-145 88 -216 167t-71 141q0 47 29 64.5t72 17.5q55 0 147 -24.5t211 -71t255.5 -112.5t280.5 -148q173 -98 314.5 -195.5t243 -185.5t156.5 -159t55 -117q0 -38 -28.5 -59t-71.5 -21
q-58 0 -147.5 25.5t-195.5 75.5l-50 -78q184 -98 352 -151t280 -53q75 0 123 28t48 89q0 91 -122 227t-352 304t-555 357q-266 154 -491.5 260t-399 160.5t-283.5 54.5zM1282 1675q-142 0 -266.5 -53.5t-218.5 -147.5t-147 -218.5t-53 -266.5t53.5 -266.5t147.5 -218.5
t218.5 -147.5t265.5 -53.5q142 0 266.5 53.5t218.5 148t147 218.5t53 266t-53 266.5t-147 218.5t-218.5 147.5t-266.5 53.5zM1282 1597q125 0 235 -47.5t193 -131t130 -193.5t47 -236q0 -125 -47 -235t-130 -194t-193 -131.5t-235 -47.5t-234.5 47.5t-193 131.5t-130.5 194
t-47 235q0 126 47 236t130 193.5t193 131t235 47.5z" />
</svg>