<?xml version="1.0" standalone="no"?>
<!DOCTYPE svg PUBLIC "-//W3C//DTD SVG 1.1//EN" "http://www.w3.org/Graphics/SVG/1.1/DTD/svg11.dtd">
<svg xmlns="http://www.w3.org/2000/svg" xmlns:xlink="http://www.w3.org/1999/xlink" version="1.1"
   viewBox="94 -151 2414 2169">
   <path fill="currentColor"
      d="M1300 1978q215 0 403.5 -81t331.5 -224t224 -331.5t81 -403.5t-81 -403.5t-224 -331.5t-331.5 -224t-403.5 -81t-403.5 81t-331.5 224t-224 331.5t-81 403.5t81 403.5t224 331.5t331.5 224t403.5 81zM1101 1943l71 -19q-26 -101 -26 -201q0 -161 71 -347l-71 -26
q-75 204 -75 373q0 112 30 220zM317 1127q53 -26 148 -41.5t206 -15.5q54 0 104 3.5t93 10.5l11 -73q-49 -8 -101 -12t-105 -4q-115 0 -219.5 17t-166.5 47zM1499 1943q31 -103 31 -220q0 -167 -76 -373l-71 26q72 188 72 347q0 102 -27 201zM850 835l57 -50
q-32 -44 -126 -70.5t-213 -26.5q-76 0 -147 12t-124 34l27 71q44 -20 109.5 -30.5t138.5 -10.5q103 0 182 19.5t96 51.5zM1300 1898q-199 0 -373 -74.5t-306 -206.5t-206.5 -306t-74.5 -373t74.5 -373t206.5 -306t306 -206.5t373 -74.5t373 74.5t306 206.5t206.5 306
t74.5 373t-74.5 373t-206.5 306t-306 206.5t-373 74.5zM1300 1428q135 0 246 -66.5t177 -177.5t66 -246t-66 -246.5t-177 -177.5t-246 -66t-246 66t-177 177.5t-66 246.5t66 246t177 177.5t246 66.5zM1300 1348q-113 0 -206 -55t-148 -148t-55 -207t55 -207t148 -148
t206 -55q114 0 206.5 55t147.5 148t55 207t-55 207t-147.5 148t-206.5 55zM1146 525l71 -26q-71 -185 -71 -346q0 -100 26 -201l-71 -19q-30 108 -30 220q0 171 75 372zM2283 1127l30 -68q-62 -30 -166 -47t-220 -17q-52 0 -104 4t-102 12l11 73q45 -7 94.5 -10.5
t102.5 -3.5q111 0 206 15.5t148 41.5zM1454 525q76 -203 76 -372q0 -117 -31 -220l-71 19q27 99 27 201q0 159 -72 346zM1751 835q17 -31 95.5 -51t181.5 -20q74 0 139 10.5t109 30.5l27 -71q-53 -22 -123.5 -34t-146.5 -12q-120 0 -213.5 26.5t-125.5 70.5z" />
</svg>