<?xml version="1.0" standalone="no"?>
<!DOCTYPE svg PUBLIC "-//W3C//DTD SVG 1.1//EN" "http://www.w3.org/Graphics/SVG/1.1/DTD/svg11.dtd">
<svg xmlns="http://www.w3.org/2000/svg" xmlns:xlink="http://www.w3.org/1999/xlink" version="1.1"
   viewBox="94 -151 2414 2169">
   <path fill="currentColor"
      d="M1541 1978q-40 0 -92 -6.5t-115 -16.5l-615 -95q-22 -4 -44 -12.5t-45 -19.5l-211 -104l-182 -387q-15 -32 -28.5 -68.5t-13.5 -73.5q0 -59 23 -120t86 -166l163 -271q20 -32 50 -64t66 -54l307 -193l294 -313q35 -38 90 -51l199 -47q29 -7 57.5 -12.5t50.5 -5.5
q74 0 121 73l618 938q44 67 66.5 167.5t17.5 210.5l-10 221q-3 71 -57.5 138.5t-135.5 99.5l-498 200q-40 16 -80.5 24t-81.5 8zM1087 1878v-549l-541 -291l38 -70l583 313v597h-80zM1599 1475l-269 -272l56 -56l269 272zM1541 1898q68 0 132 -26l498 -200q60 -24 100.5 -72
t42.5 -96l10 -221q3 -66 -4.5 -127t-24 -113t-41.5 -90l-618 -938q-15 -23 -26 -30t-29 -7q-12 0 -31 3.5t-59 12.5l-199 47q-16 4 -27.5 10t-22.5 17l-300 321l-317 199q-29 18 -52 41t-38 49l-163 273q-58 97 -77.5 146.5t-19.5 97.5q0 19 7.5 43.5t26.5 64.5l170 361
l187 92q26 13 41 18t25 7l614 95q63 10 111.5 16t83.5 6zM1638 1933l-76 -26l138 -388l647 -429l44 66l-625 415zM1324 1059l-78 -18l129 -557l-24 -372l80 -6l24 384zM954 315l255 -294l371 -78l-187 256z" />
</svg>