<?xml version="1.0" standalone="no"?>
<!DOCTYPE svg PUBLIC "-//W3C//DTD SVG 1.1//EN" "http://www.w3.org/Graphics/SVG/1.1/DTD/svg11.dtd">
<svg xmlns="http://www.w3.org/2000/svg" xmlns:xlink="http://www.w3.org/1999/xlink" version="1.1"
   viewBox="94 -151 2414 2169">
   <path fill="currentColor"
      d="M1711 1978q-81 -34 -217 -63t-368 -72l-264 -49q-350 -64 -350 -254v-1387l82 10q6 61 98 123t247 116.5t353 94.5t416 58q-125 180 -125 307q0 25 4 48.5t12 46.5q24 65 36.5 122.5t12.5 117.5q0 38 -5.5 85t-19.5 104q-7 27 -9.5 50.5t-2.5 45.5q0 46 12 82.5t28 75.5
q22 51 43 117t21 140q0 18 -1 38t-3 43zM1634 1872q-4 -45 -18 -94t-40 -107q-18 -41 -32 -84.5t-14 -103.5q0 -25 4 -54t11 -61q12 -53 17.5 -94.5t5.5 -75.5q0 -57 -12 -105t-34 -112q-10 -29 -14 -58t-4 -59q0 -59 17 -117t51 -124q-225 -26 -416 -71.5t-333.5 -106.5
t-223.5 -132.5t-86 -149.5h79v1377q0 59 71.5 103.5t214.5 71.5l262 49q146 27 236.5 45.5t149.5 33t108 29.5zM1665 1825l-11 -80q173 -23 263.5 -67.5t90.5 -105.5v-1409l80 -10v1419q0 194 -423 253zM1300 411q-226 0 -404 -33t-281 -91.5t-103 -133.5t103 -132.5
t281.5 -90t403.5 -32.5q226 0 404 32.5t281 90t103 132.5t-103 133.5t-281 91.5t-404 33zM1300 331q137 0 264 -15.5t227 -41t158.5 -57t58.5 -64.5q0 -32 -58.5 -63t-159 -56.5t-227 -40.5t-263.5 -15q-136 0 -263 15t-227.5 40.5t-159 56.5t-58.5 63q0 33 58.5 64.5
t158.5 57t227 41t264 15.5zM1300 255q-80 0 -147 -9.5t-107 -31.5t-40 -58q0 -37 40 -59.5t107 -32.5t147 -10t147 10t107 32.5t40 59.5q0 36 -40 58t-106.5 31.5t-147.5 9.5zM1300 192q96 0 151.5 -8.5t55.5 -27.5t-55.5 -27.5t-151.5 -8.5q-94 0 -150.5 8.5t-56.5 27.5
t56.5 27.5t150.5 8.5z" />
</svg>