<?xml version="1.0" standalone="no"?>
<!DOCTYPE svg PUBLIC "-//W3C//DTD SVG 1.1//EN" "http://www.w3.org/Graphics/SVG/1.1/DTD/svg11.dtd">
<svg xmlns="http://www.w3.org/2000/svg" xmlns:xlink="http://www.w3.org/1999/xlink" version="1.1"
   viewBox="94 -151 2414 2169">
   <path fill="currentColor"
      d="M2136 1347l-42 -68q37 -23 53 -48.5t16 -59.5q0 -57 -26 -100t-91.5 -81.5t-184.5 -82.5q-87 -32 -187.5 -75t-197.5 -101q-71 -43 -135.5 -101.5t-105.5 -120t-41 -113.5q0 -30 3 -75t7 -93l-107 -98q-11 -57 -29.5 -90t-48.5 -47.5t-76 -14.5q-29 0 -63 5t-98 19
q-131 28 -239 42.5t-212 20.5q-22 1 -30.5 10t-8.5 21q0 36 78 80q-32 21 -50 46.5t-18 55.5q0 25 14.5 48.5t38.5 35.5q-24 28 -32 46t-8 47q0 28 24 49.5t47 34.5q-20 123 -33 205t-20.5 133.5t-10.5 82t-3 51.5q0 92 35 149.5t123 105.5l-39 70q-125 -69 -162 -151.5
t-37 -173.5q0 -21 2 -47t7.5 -73t17.5 -128t31 -210q-28 -17 -45 -40.5t-17 -53.5q0 -28 14 -57t31 -43q-25 -12 -41.5 -33t-16.5 -48q0 -56 48 -100q-26 -17 -42 -42.5t-16 -56.5q0 -41 27 -66t76 -27q114 -5 220 -20t230 -42q68 -15 106.5 -20.5t71.5 -5.5q100 0 153 49
t69 153q24 -34 63 -50.5t68 -16.5q36 0 36 39q0 30 -9 79t-23 99q-12 43 -19 82t-7 64q0 32 27 71t67.5 77.5t81.5 70t68 48.5q91 57 187.5 97t183.5 72q132 49 209.5 97t111 105.5t33.5 136.5q0 49 -24 94.5t-83 81.5zM627 1978q-72 0 -131.5 -35.5t-95 -95t-35.5 -131.5
t35.5 -131t95 -94t131.5 -35t131.5 35t95 94t35.5 131t-35.5 131.5t-95 95t-131.5 35.5zM627 1888q71 0 121.5 -50.5t50.5 -121.5t-50.5 -120.5t-121.5 -49.5t-121.5 49.5t-50.5 120.5t50.5 121.5t121.5 50.5zM1090 1302q-43 -97 -99.5 -149t-130 -71.5t-167.5 -19.5
q-43 0 -110 5.5t-126 11t-80 5.5q-39 0 -69 -6l-11 -152q37 8 71.5 9.5t83.5 1.5q10 0 37 -0.5t54.5 -1.5t37.5 -1q114 0 208 23t165.5 69t119 115t69.5 161h-53zM480 1609l-164 -370h1891l-33 152l-148 100l-76 -104l-130 222l-179 -111l-181 111l-118 -215h-386l-105 215
l-231 -106zM1217 1286q-34 -172 -107.5 -273t-186.5 -150t-267 -65q-85 -9 -164.5 -21.5t-146.5 -28.5l20 -113q67 22 138 38.5t147 27.5q203 30 331 96.5t198 184.5t97 304h-59zM1662 1978q-72 0 -131.5 -35.5t-95 -95t-35.5 -131.5t35.5 -131t95 -94t131.5 -35t131.5 35
t95 94t35.5 131t-35.5 131.5t-95 95t-131.5 35.5zM1662 1888q71 0 121.5 -50.5t50.5 -121.5t-50.5 -120.5t-121.5 -49.5t-121.5 49.5t-50.5 120.5t50.5 121.5t121.5 50.5zM329 585v-70q334 0 590 -80l24 66q-136 43 -288.5 63.5t-325.5 20.5zM309 393v-70q170 0 315 -20
t275 -60l24 66q-136 43 -288.5 63.5t-325.5 20.5zM299 213v-68q334 0 590 -80l24 66q-136 42 -288.5 62t-325.5 20zM1208 660q-25 0 -42.5 -17.5t-17.5 -42.5q0 -24 17.5 -41.5t42.5 -17.5q24 0 41.5 17.5t17.5 41.5q0 25 -17.5 42.5t-41.5 17.5zM1343 789
q-25 0 -42.5 -17.5t-17.5 -42.5q0 -24 17.5 -41.5t42.5 -17.5q24 0 41.5 17.5t17.5 41.5q0 25 -17.5 42.5t-41.5 17.5zM2185 1749q-14 10 -29.5 6.5t-25.5 -19.5l-124 -200q-16 -25 9 -43l154 -110q25 -17 44 4l164 171q13 13 11.5 29t-16.5 27zM1519 896q-25 0 -42.5 -17.5
t-17.5 -42.5q0 -24 17.5 -41.5t42.5 -17.5q24 0 41.5 17.5t17.5 41.5q0 25 -17.5 42.5t-41.5 17.5zM1105 470q-25 0 -42.5 -17.5t-17.5 -42.5q0 -24 17.5 -41.5t42.5 -17.5q24 0 41.5 17.5t17.5 41.5q0 25 -17.5 42.5t-41.5 17.5zM1214 636l-40 -58l133 -93l40 58zM1351 770
l-51 -47l151 -162l51 47zM1093 448l-16 -68l212 -48l16 68zM1537 854l-59 -37l101 -164l59 37zM1724 977q-25 0 -42.5 -17.5t-17.5 -42.5q0 -24 17.5 -41.5t42.5 -17.5q24 0 41.5 17.5t17.5 41.5q0 25 -17.5 42.5t-41.5 17.5zM1751 939l-67 -25l66 -178l67 25zM1445 475
q-90 0 -215 -113l47 -51q104 95 168 95q72 0 72 -54q0 -21 -21 -32.5t-58 -11.5q-64 0 -168 48l-48 -13q-50 -81 -102.5 -125.5t-99.5 -44.5q-12 0 -20 8t-8 20q0 38 70.5 69t179.5 35v70q-150 -5 -234.5 -53t-84.5 -121q0 -41 28.5 -69.5t68.5 -28.5q126 0 246 179
q47 -20 92.5 -32t79.5 -12q68 0 108.5 31t40.5 83q0 55 -38.5 89t-103.5 34z" />
</svg>