<?xml version="1.0" standalone="no"?>
<!DOCTYPE svg PUBLIC "-//W3C//DTD SVG 1.1//EN" "http://www.w3.org/Graphics/SVG/1.1/DTD/svg11.dtd">
<svg xmlns="http://www.w3.org/2000/svg" xmlns:xlink="http://www.w3.org/1999/xlink" version="1.1"
   viewBox="94 -151 2414 2169">
   <path fill="currentColor"
      d="M1663 1377q-56 0 -104.5 -9t-80.5 -25v-86q35 16 85.5 29t103.5 13q73 0 110 -31t37 -84t-33.5 -82.5t-122.5 -64.5q-83 -33 -127.5 -81t-44.5 -131q0 -85 60 -133.5t156 -48.5q55 0 101 11t85 29l-28 77q-36 -16 -76.5 -27t-83.5 -11q-61 0 -92.5 28.5t-31.5 75.5
q0 54 32.5 83t112.5 61q88 35 135 78.5t47 127.5q0 95 -65 148t-175 53z" />
</svg>