<?xml version="1.0" standalone="no"?>
<!DOCTYPE svg PUBLIC "-//W3C//DTD SVG 1.1//EN" "http://www.w3.org/Graphics/SVG/1.1/DTD/svg11.dtd">
<svg xmlns="http://www.w3.org/2000/svg" xmlns:xlink="http://www.w3.org/1999/xlink" version="1.1"
   viewBox="94 -151 2414 2169">
   <path fill="currentColor"
      d="M1820 656q-96 115 -225.5 256.5t-267.5 278.5q-131 130 -256.5 244t-236.5 201l-23 -84q104 -84 221 -190.5t238 -227.5q128 -128 264 -275t248 -282zM1690 420q-82 67 -183 155.5t-207 187.5t-204 197q-213 214 -341.5 355t-186 225.5t-57.5 128.5q0 25 15.5 38.5
t35.5 13.5q22 0 37.5 -15.5t15.5 -36.5t-14.5 -36.5t-34.5 -15.5q-16 0 -31.5 8.5t-27.5 24.5l-15 -22l47 -88q15 -3 28 -3q54 0 90.5 38t36.5 93q0 56 -38 94t-94 38q-54 0 -91.5 -35t-37.5 -90q0 -65 50.5 -150t136.5 -185.5t194.5 -210.5t224.5 -225q93 -92 192.5 -185
t195.5 -178.5t175 -151.5zM1511 339q-116 97 -259.5 228t-280.5 268q-197 197 -341.5 350.5t-223.5 272.5t-79 215q0 60 33 111t87 82.5t116 31.5q66 0 117.5 -31.5t81.5 -84t30 -114.5q0 -83 -53 -147t-136 -76l57 -69q95 31 153.5 110.5t58.5 180.5q0 60 -22.5 117.5
t-68.5 103.5q-45 45 -102 67.5t-117 22.5q-84 0 -155.5 -42t-115 -110.5t-43.5 -147.5q0 -115 86 -250t236.5 -295.5t343.5 -353.5q143 -143 293 -279.5t268 -235.5zM1967 758q-99 118 -234.5 265.5t-280.5 292.5q-115 115 -234 223t-230.5 197.5t-206.5 151.5l-18 -13
l57 -111q137 -98 286.5 -232t288.5 -273q140 -140 264 -274.5t223 -252.5zM1837 733q-30 -30 -44 -56.5t-22.5 -73.5t-22.5 -139q-5 -35 3 -68.5t31 -55.5q32 -31 71 -32.5t94 13.5q15 4 29 4q24 0 38.5 -16t14.5 -35q0 -21 -15 -37t-30 -16q-14 0 -21 12.5t-11 25.5
q-9 30 -26 51.5t-39 43.5q-65 65 -153 74.5t-176.5 -29t-157.5 -116.5q11 -9 42 -33.5t68.5 -56t72 -61.5t53.5 -49q20 -20 38.5 -39t34.5 -35q111 -111 247 -111q74 0 144.5 33t127 89.5t90.5 127t34 145.5q0 57 -20.5 109.5t-63.5 95.5q-13 13 -30 29t-32.5 30.5
t-27.5 26.5q-20 20 -46 48.5t-53 58t-51 54.5q-37 38 -93.5 33.5t-97.5 -45.5zM1894 677q20 19 42.5 21.5t38.5 -13.5q11 -11 40 -43t60 -66t46 -49q17 -17 45.5 -43.5t44.5 -42.5q61 -61 61 -148q0 -78 -48 -150.5t-120.5 -118.5t-147.5 -46q-103 0 -191 88l-22 22
t-31 31.5t-20 20.5q-36 40 -74 72t-96 75q80 63 166 66t142 -55q40 -41 48.5 -71.5t35.5 -57.5q30 -30 71 -30q50 0 86.5 42t36.5 94q0 54 -38 91.5t-93 37.5q-26 0 -51 -7q-38 -11 -57 -11t-30 11q-17 17 -12 53q12 83 18 123.5t16.5 60.5t32.5 43z" />
</svg>