<?xml version="1.0" standalone="no"?>
<!DOCTYPE svg PUBLIC "-//W3C//DTD SVG 1.1//EN" "http://www.w3.org/Graphics/SVG/1.1/DTD/svg11.dtd">
<svg xmlns="http://www.w3.org/2000/svg" xmlns:xlink="http://www.w3.org/1999/xlink" version="1.1"
   viewBox="94 -151 2414 2169">
   <path fill="currentColor"
      d="M1535 1978q-91 0 -132.5 -39t-41.5 -119l78 -2q0 78 102 78q29 0 49 -1.5t45 -5.5l485 -79v-841l49 133q-145 -139 -214.5 -311.5t-69.5 -392.5q0 -53 4 -106.5t19 -102.5l46 85q-43 -24 -113.5 -60t-151.5 -76t-156 -76t-128 -59l-17 -92q58 23 137.5 59.5t165 78.5
t162.5 81t129 68q-10 64 -13.5 104.5t-3.5 95.5q0 195 57 348t178 280v853l-549 88q-36 6 -64.5 8.5t-51.5 2.5zM1126 1708q-157 0 -343 -22.5t-364 -62.5l16 -79q167 38 350.5 61t339.5 23q37 0 68 -1t61 -4v81q-34 3 -66 3.5t-62 0.5zM1168 1391q-105 0 -233 -12.5
t-260.5 -34.5t-252.5 -50l16 -79q100 23 227.5 45.5t258.5 36.5t242 14q26 0 46.5 -0.5t42.5 -2.5v80q-22 2 -44 2.5t-43 0.5zM1065 1978q-22 0 -51 -2.5t-65 -8.5l-549 -88v-853q121 -127 178 -280t57 -348q0 -55 -3.5 -95.5t-13.5 -104.5q53 -29 129.5 -68t162 -81
t165 -78.5t137.5 -59.5l-17 92q-52 23 -127.5 59t-156.5 76t-151.5 76t-113.5 60l46 -85q15 49 19 102.5t4 106.5q0 220 -69.5 392.5t-214.5 311.5l49 -133v841l485 79q26 4 46 5.5t48 1.5q102 0 102 -78l78 2q0 80 -41.5 119t-132.5 39zM1474 1708q-30 0 -62 -0.5t-66 -3.5
v-81q30 3 61 4t68 1q156 0 340 -23t350 -61l16 79q-178 40 -364 62.5t-343 22.5zM829 1336v-1219l78 -20v1239h-78zM1161 1861v-832q0 -101 -7.5 -170t-22 -124t-34.5 -113q-52 -151 -63 -267.5t-11 -186.5q0 -75 37.5 -136t100.5 -97.5t139 -36.5q77 0 139.5 36.5t100 97.5
t37.5 136q0 70 -11 186.5t-63 267.5q-20 58 -34.5 113t-22 124t-7.5 170v832q-41 -4 -74 -5.5t-65 -1.5t-65 1.5t-74 5.5zM1432 1391q-21 0 -43 -0.5t-44 -2.5v-80q23 2 43.5 2.5t45.5 0.5q111 0 242 -14t258.5 -36.5t227.5 -45.5l16 79q-120 28 -252.5 50t-260 34.5
t-233.5 12.5zM1693 1336v-1239l78 20v1219h-78z" />
</svg>