<?xml version="1.0" standalone="no"?>
<!DOCTYPE svg PUBLIC "-//W3C//DTD SVG 1.1//EN" "http://www.w3.org/Graphics/SVG/1.1/DTD/svg11.dtd">
<svg xmlns="http://www.w3.org/2000/svg" xmlns:xlink="http://www.w3.org/1999/xlink" version="1.1"
   viewBox="94 -151 2414 2169">
   <path fill="currentColor"
      d="M1052 1978l-305 -177q-46 -26 -66 -71t-9 -92q40 -170 68 -337t49 -349.5t40 -398.5l174 -119l43 68l-141 96q-18 207 -39 385t-48.5 342.5t-67.5 330.5q-12 49 37 77l286 167h454l286 -167q49 -28 37 -77q-40 -166 -67.5 -330.5t-48 -342.5t-39.5 -385l-141 -96l43 -68
l174 119q19 216 40 398.5t49 349.5t68 337q11 47 -9 92t-66 71l-305 177h-496zM1097 1920l-78 -19q27 -236 44 -430.5t24.5 -367.5t7.5 -342l79 4q0 172 -8 348.5t-25 374.5t-44 432zM1503 1920q-27 -234 -44 -432t-25 -374.5t-8 -348.5l79 -4q0 169 8 342t24.5 367.5
t43.5 430.5zM1104 813l-272 -178l44 -67l252 167h344l252 -167l44 67l-272 178h-392zM1147 199q-31 0 -51 -9t-20 -22t19 -21t52 -8q32 0 51.5 8t19.5 21t-20 22t-51 9zM1300 395q-112 0 -216 -31.5t-194 -86.5l45 -61q47 30 105 52.5t124 34.5t136 12t136 -12t124 -34.5
t105 -52.5l45 61q-91 55 -194.5 86.5t-215.5 31.5zM1300 591q-129 0 -226.5 -44.5t-152.5 -128t-55 -200.5q0 -89 49 -161.5t146 -115.5t239 -43q141 0 237.5 43t146.5 115.5t50 161.5q0 117 -55.5 200.5t-153 128t-225.5 44.5zM1300 513q165 0 259.5 -79.5t94.5 -215.5
q0 -108 -95 -175t-259 -67q-166 0 -260 67t-94 175q0 136 93.5 215.5t260.5 79.5zM1300 117q-31 0 -51 -9t-20 -22t19 -21t52 -8q32 0 51.5 8t19.5 21t-20 22t-51 9zM1453 199q-31 0 -51 -9t-20 -22t19 -21t52 -8q32 0 51.5 8t19.5 21t-20 22t-51 9z" />
</svg>