<?xml version="1.0" standalone="no"?>
<!DOCTYPE svg PUBLIC "-//W3C//DTD SVG 1.1//EN" "http://www.w3.org/Graphics/SVG/1.1/DTD/svg11.dtd">
<svg xmlns="http://www.w3.org/2000/svg" xmlns:xlink="http://www.w3.org/1999/xlink" version="1.1"
   viewBox="94 -151 2414 2169">
   <path fill="currentColor"
      d="M1300 1978q-212 0 -392 -74.5t-314 -208t-208 -312t-74 -387.5q0 -140 35 -269l67 63q-10 49 -16 101t-6 105q0 194 68 358.5t190.5 286.5t288 189.5t361.5 67.5q197 0 363 -67.5t288.5 -189.5t190.5 -286.5t68 -358.5q0 -178 -57.5 -331.5t-162.5 -272t-248.5 -193
t-316.5 -95.5l24 -73q185 25 338.5 107.5t266.5 210.5t174.5 292.5t61.5 354.5q0 209 -74.5 387.5t-208.5 312t-314.5 208t-392.5 74.5zM1300 1440q-83 0 -178 -9.5t-208 -28.5l13 -79q219 37 373 37q155 0 373 -37l14 79q-112 19 -207 28.5t-180 9.5zM959 968
q-51 0 -88.5 -44.5t-37.5 -105.5q0 -10 1.5 -20t3.5 -19l173 -97q33 18 53.5 54.5t20.5 81.5q0 61 -37 105.5t-89 44.5zM605 861q-116 0 -201 -50.5t-131 -136t-46 -190.5q0 -148 91 -247.5t280 -157.5q112 -34 183.5 -71t124 -63t105.5 -26q49 0 77.5 33t28.5 77
q0 47 -31.5 79t-81 57.5t-104.5 52t-103 62.5l-41 -43q29 -26 78.5 -51t100.5 -49.5t86.5 -50t35.5 -52.5q0 -22 -13 -36t-33 -14q-19 0 -44.5 9.5t-81.5 38.5q-47 25 -113.5 56t-158.5 59q-165 49 -238 130t-73 207q0 87 39.5 156.5t108.5 110t155 40.5q74 0 159.5 -28.5
t185.5 -88.5l157 -95q47 -29 73 -57t26 -49q0 -11 -4.5 -21t-11.5 -18l43 -46q24 10 36 33.5t12 51.5q0 35 -37.5 81.5t-102.5 85.5l-158 95q-103 62 -200 94t-178 32zM620 626l-33 -55q54 -37 111 -56.5t115 -19.5q29 0 63.5 8t71.5 22l220 -131q106 -63 166.5 -106.5
t86.5 -76t26 -62.5q0 -15 -7.5 -20.5t-15.5 -6.5l4 -58q38 4 63.5 27t25.5 56q0 43 -28.5 83t-97.5 90t-191 124l-251 151q-43 -19 -78 -27t-58 -8q-50 0 -97.5 17t-95.5 49zM1642 968q-52 0 -89 -47t-37 -108q0 -62 37 -104t89 -42q51 0 88.5 44.5t37.5 106.5
q0 61 -37.5 105.5t-88.5 44.5zM949 349l-47 -34q30 -37 89.5 -77.5t123.5 -82.5t109 -81.5t45 -73.5q0 -16 -9 -26.5t-23 -10.5q-13 0 -43 17.5t-95 67.5l-30 -52q79 -62 114.5 -80t63.5 -18q37 0 62 28t25 67q0 56 -45.5 102.5t-111.5 88t-129.5 81.5t-98.5 84zM1059 410
l-38 -36q35 -37 100.5 -78.5t134 -87t116 -93.5t47.5 -96q0 -20 -9 -29.5t-23 -9.5q-23 0 -68 42l-31 -52q32 -31 58 -43t48 -12q41 0 65.5 28t24.5 71q0 51 -33.5 96.5t-86 86t-111 77t-110.5 70.5t-84 66z" />
</svg>