<?xml version="1.0" standalone="no"?>
<!DOCTYPE svg PUBLIC "-//W3C//DTD SVG 1.1//EN" "http://www.w3.org/Graphics/SVG/1.1/DTD/svg11.dtd">
<svg xmlns="http://www.w3.org/2000/svg" xmlns:xlink="http://www.w3.org/1999/xlink" version="1.1"
   viewBox="94 -151 2414 2169">
   <path fill="currentColor"
      d="M1225 1978q-292 0 -463.5 -90t-186.5 -247q-11 -119 -19.5 -244.5t-12.5 -285.5t-4 -381h80q0 220 4 379.5t12.5 284.5t19.5 240q12 118 158 191t412 73q200 0 344.5 -34.5t222 -94t77.5 -132.5q0 -20 -6 -39.5t-19 -45.5q-19 -40 -30.5 -79.5t-11.5 -82.5v-269l80 49
v220q0 42 10 77t28 71q14 27 21.5 49.5t7.5 49.5q0 102 -87.5 178.5t-249.5 119.5t-387 43zM1220 1345q-85 0 -155 -33.5t-125 -100.5l51 -44q47 57 102.5 82.5t126.5 25.5q72 0 128 -25.5t102 -82.5l51 44q-55 67 -125.5 100.5t-155.5 33.5zM952 1033q-38 0 -63 -28
t-25 -68t25 -68.5t63 -28.5t63.5 28.5t25.5 68.5t-25.5 68t-63.5 28zM1489 1033q-38 0 -63.5 -28t-25.5 -68t25.5 -68.5t63.5 -28.5t63 28.5t25 68.5t-25 68t-63 28zM575 673q66 -14 170.5 -30t227 -27.5t241.5 -11.5t230.5 11t205 26.5t154.5 29.5q29 7 47 -7t18 -54
q0 -66 -52.5 -118.5t-144.5 -90t-209.5 -57t-248.5 -19.5q-219 0 -375.5 35.5t-240 101t-83.5 155.5q0 31 15.5 46.5t44.5 9.5zM1864 905l-7 -149q-10 0 -22 -1t-24 -4q-115 -28 -271 -50t-326 -22q-113 0 -230.5 10.5t-219.5 27t-171 34.5q-66 17 -112 -17t-46 -101
q0 -94 52 -164t146 -117q33 -120 123 -223.5t227.5 -167t311.5 -63.5q152 0 282.5 61t228.5 164.5t153 234t55 270.5q0 83 -5.5 148t-14.5 109zM1959 1248q-85 0 -145 -58.5t-60 -143.5q0 -86 60 -145t145 -59q86 0 146 58.5t60 145.5q0 85 -60 143.5t-146 58.5zM1959 1168
q53 0 89.5 -35.5t36.5 -86.5q0 -52 -36.5 -88t-89.5 -36q-52 0 -88.5 36t-36.5 88q0 50 36.5 86t88.5 36zM1802 963v-257l80 -28v246z" />
</svg>