<?xml version="1.0" standalone="no"?>
<!DOCTYPE svg PUBLIC "-//W3C//DTD SVG 1.1//EN" "http://www.w3.org/Graphics/SVG/1.1/DTD/svg11.dtd">
<svg xmlns="http://www.w3.org/2000/svg" xmlns:xlink="http://www.w3.org/1999/xlink" version="1.1"
   viewBox="94 -151 2414 2169">
   <path fill="currentColor"
      d="M1259 1978q-70 0 -120 -16.5t-86 -33.5q-22 -11 -41 -18t-36 -7q-21 0 -49.5 2t-47.5 2q-70 0 -121.5 -17.5t-118.5 -55.5q34 -221 58.5 -438t34.5 -448q1 -31 23 -44l31 -18l-40 -123q-9 -28 -3 -45t29 -30l38 -22l-38 -92q-13 -32 13 -51l76 -54l-13 -55l-154 120
l-234 -246q83 -101 145.5 -165.5t121.5 -110.5q62 -48 119.5 -72.5t141.5 -41.5q129 40 220 40q48 0 100.5 -9.5t119.5 -30.5q87 21 156.5 52.5t139.5 84.5q77 57 137.5 124.5t121.5 157.5l-238 239l-114 -77l23 -63l78 51l160 -157q-46 -66 -104.5 -125t-109.5 -96
q-47 -35 -129.5 -78.5t-192.5 -53.5l106 -40q-56 90 -149 199.5t-212.5 224t-255.5 221.5l43 110l-62 -12q91 -58 183.5 -126.5t161.5 -126.5l42 49q-57 50 -129 105t-142.5 104t-124.5 81l50 156l-48 -30q92 -56 180 -115.5t148 -111.5l43 51q-53 45 -119.5 93t-135.5 91
t-131 76q-10 160 -23.5 307t-29 280t-33.5 251q74 40 161 40q20 0 46.5 -2.5t50.5 -2.5q25 0 50 8.5t53 21.5q35 16 79 31t101 15t101 -15t80 -31q29 -13 53 -21.5t49 -8.5q24 0 50 2.5t45 2.5q43 0 79 -9t74 -29l-235 -1114l50 -119l269 1277q-61 33 -121 50t-116 17
q-19 0 -46.5 -2t-48.5 -2q-17 0 -35.5 7t-41.5 18q-36 17 -85.5 33.5t-120.5 16.5zM896 1703l-66 -78l66 -80l67 80zM1257 1778l-65 -76l65 -78l67 78zM921 1323l-46 -57l46 -57l48 57zM1620 1703l-67 -78l67 -80l66 80zM1154 1153l-53 -66l53 -66l54 66zM762 426l-195 -206
l37 -37l200 212zM726 1514l-3 -56q134 -13 266.5 -98.5t252.5 -223.5t217.5 -312t162.5 -366.5t86 -383.5l50 26q-22 197 -90.5 395t-171 377t-228 320t-264 226.5t-278.5 95.5zM1349 908l-59 -74l57 -71l62 71zM756 1231l3 -65q197 -106 356 -285t267.5 -412t153.5 -501
l54 20q-36 208 -113.5 401.5t-188 358t-245.5 288.5t-287 195zM702 441l130 -105h70l31 129l-51 -19q118 -95 226 -200t170 -182l25 6q-10 20 -26.5 31.5t-53.5 11.5q-100 0 -168.5 -50t-96.5 -144l102 41q-64 10 -117.5 25.5t-94.5 34.5t-71 43q-53 42 -108 95.5
t-114 125.5zM1709 1258l-16 -56q30 -16 59.5 -34t58.5 -37q49 -32 109.5 -67.5t115.5 -54.5l19 54q-60 22 -121.5 57.5t-96.5 59.5q-42 28 -71 46t-57 32zM1825 1027l-63 -77l63 -76l64 76zM1188 233q-117 -5 -207 -68.5t-131 -178.5l41 -19q47 109 125 164t181 60z
M1508 609l-53 -66l53 -66l54 66zM1739 1387l-20 -57q21 -11 43 -24.5t46 -29.5q53 -36 113.5 -71.5t139.5 -70.5l-285 -684l54 -19l310 735q-97 40 -172 82.5t-134 82.5q-25 16 -48.5 30t-46.5 26zM1604 324l-49 -60l48 -56l48 57zM1683 452l-42 -31l203 -209l37 37z" />
</svg>