<?xml version="1.0" standalone="no"?>
<!DOCTYPE svg PUBLIC "-//W3C//DTD SVG 1.1//EN" "http://www.w3.org/Graphics/SVG/1.1/DTD/svg11.dtd">
<svg xmlns="http://www.w3.org/2000/svg" xmlns:xlink="http://www.w3.org/1999/xlink" version="1.1"
   viewBox="94 -151 2414 2169">
   <path fill="currentColor"
      d="M1055 1973q-307 0 -484 -94t-194 -260q-9 -93 -16 -182t-11.5 -187.5t-7 -219.5t-2.5 -279q0 -254 88 -446t247.5 -299.5t374.5 -107.5q209 0 366.5 101t245.5 281t88 417v537l-80 78v-615q0 -215 -77.5 -376.5t-217 -252t-325.5 -90.5q-191 0 -332.5 96.5t-219.5 270.5
t-78 406q0 159 2 280.5t6.5 218.5t11.5 184t17 177q14 125 166 203.5t432 78.5q149 0 269 -18.5t208 -52.5l85 49q-100 47 -241.5 74.5t-320.5 27.5zM575 949q-9 -26 -9 -57v-156q0 -25 9 -43q-32 10 -77 31t-80 44v59zM1055 1309q-146 0 -250 -92l46 -53q84 75 204 75
t204 -75l46 53q-104 92 -250 92zM792 940q-37 0 -61 -27.5t-24 -66.5q0 -38 24 -65.5t61 -27.5q38 0 62 27.5t24 65.5q0 39 -24 66.5t-62 27.5zM744 1117q-59 0 -112.5 -30t-105.5 -73l-137 -112v-207q45 -28 101 -53t109 -40.5t87 -15.5h738q34 0 85 15t105 38.5t97 50.5
v219l-127 105q-52 43 -105.5 73t-112.5 30q-57 0 -102.5 -21t-82 -48t-67.5 -48t-59 -21t-59 21t-67.5 48t-81.5 48t-103 21zM744 1042q54 0 93 -21t72.5 -48t68 -48t77.5 -21q44 0 78.5 21t68 48t72.5 48t92 21q59 0 83.5 -34t24.5 -103v-180q0 -28 -13 -46t-37 -18h-738
q-23 0 -36.5 18t-13.5 46v180q0 69 25 103t83 34zM1318 940q-37 0 -61 -27.5t-24 -66.5q0 -38 24 -65.5t61 -27.5q38 0 62 27.5t24 65.5q0 39 -24 66.5t-62 27.5zM1915 1978q-66 0 -146 -21t-159 -55.5t-145.5 -76.5t-106.5 -85.5t-40 -80.5q0 -43 33 -76l391 -391l223 -522
q11 -26 33 -36.5t53 -10.5q47 0 95 20.5t81 51.5t33 61q0 14 -5 28l-201 534v568q0 46 -37 69t-102 23zM1780 1552q55 0 108.5 -8.5t96.5 -20.5v-132l-134 -56l18 -47l116 48v-32l22 -59l-104 -43l18 -47l104 43l33 -88l-102 -41l18 -47l102 42l33 -87l-101 -41l18 -47
l100 41l34 -89q-43 -5 -90 -24.5t-72 -47.5l-197 461l-278 278q79 24 141 34t116 10zM1536 949l154 -122v-59q-36 -23 -79 -44t-76 -31q9 18 9 43v156q0 34 -8 57zM2167 781q32 0 32 -18q0 -14 -25.5 -32.5t-60.5 -33t-64 -14.5q-32 0 -32 18q0 13 25.5 32t61 33.5
t63.5 14.5z" />
</svg>