<?xml version="1.0" standalone="no"?>
<!DOCTYPE svg PUBLIC "-//W3C//DTD SVG 1.1//EN" "http://www.w3.org/Graphics/SVG/1.1/DTD/svg11.dtd">
<svg xmlns="http://www.w3.org/2000/svg" xmlns:xlink="http://www.w3.org/1999/xlink" version="1.1"
   viewBox="94 -151 2414 2169">
   <path fill="currentColor"
      d="M1300 1978q-171 0 -326 -53.5t-285.5 -150.5t-226.5 -227.5t-149 -285.5t-53 -323t53 -323t149 -285.5t226.5 -227.5t285.5 -150.5t326 -53.5t326 53.5t285.5 150.5t226.5 227.5t149 285.5t53 323t-53 323t-149 285.5t-226.5 227.5t-285.5 150.5t-326 53.5zM1780 1471
q110 0 174.5 -72t69.5 -198h98l-158 -217l-158 217h98q-4 77 -34 114t-89 37q-62 0 -92.5 -46t-30.5 -141v-502q0 -150 -72.5 -238t-197.5 -88q-72 0 -125.5 30.5t-87.5 89.5q-34 -59 -87.5 -89.5t-123.5 -30.5q-128 0 -199 85.5t-71 240.5v728h120v-728q0 -105 37.5 -155.5
t113.5 -50.5q73 0 112 53t39 153v728h120v-728q0 -206 151 -206q74 0 112.5 52.5t38.5 153.5v505q0 144 63.5 223.5t178.5 79.5z" />
</svg>