<?xml version="1.0" standalone="no"?>
<!DOCTYPE svg PUBLIC "-//W3C//DTD SVG 1.1//EN" "http://www.w3.org/Graphics/SVG/1.1/DTD/svg11.dtd">
<svg xmlns="http://www.w3.org/2000/svg" xmlns:xlink="http://www.w3.org/1999/xlink" version="1.1"
   viewBox="94 -151 2414 2169">
   <path fill="currentColor"
      d="M2029 1978q-100 0 -186 -86l-472 -472q-40 -41 -57 -82.5t-25 -72.5q-7 -25 -11.5 -35t-9.5 -15t-12.5 -6.5t-24.5 -1.5q-47 0 -79 -11t-59 -38q-24 -24 -39.5 -53.5t-15.5 -66.5l82 10q3 26 29 52q16 16 33.5 21.5t48.5 5.5q62 0 91 28q27 25 35 59.5t20 72.5t50 77
l472 472q62 62 130 62q71 0 151 -80l22 -22q72 -72 72 -149q0 -65 -59 -126l-472 -473q-37 -37 -75 -48.5t-72 -20t-61 -34.5q-16 -17 -22.5 -38.5t-6.5 -52.5q0 -26 -3 -44.5t-23 -37.5q-27 -27 -52 -30l-10 -82q33 0 63 15.5t55 38.5q40 37 44.5 76.5t5.5 64.5t8 35
q4 5 14 9.5t35 9.5q35 7 76.5 26t79.5 57l472 473q83 85 83 182q0 109 -96 205l-22 22q-104 104 -207 104zM1131 955l-734 -678l-151 -218l159 -161l205 141l711 723q5 27 -11 61.5t-46 66.5q-29 30 -66.5 48t-66.5 17zM1157 868q26 -8 51 -34q24 -25 29 -44l-678 -689
l-141 -100l-71 69l113 157zM1111 1112q-33 0 -53 -20.5t-20 -53.5q0 -31 18.5 -74t53.5 -89l51 42q-22 31 -36 58t-14 41q0 18 15 18q25 0 75.5 -29.5t96.5 -75.5q33 -33 60 -70t43.5 -69t16.5 -48q0 -14 -18 -14q-16 0 -49.5 18.5t-70.5 48.5l-38 -53q50 -40 96.5 -61
t79.5 -21t53 20t20 53q0 44 -37.5 107.5t-104.5 130.5q-64 64 -128.5 102.5t-109.5 38.5zM2019 1792q-15 0 -26 -11l-439 -436q-11 -11 -10.5 -25.5t10.5 -26.5q10 -11 25 -11t26 11l439 437q11 10 11.5 26t-10.5 25q-14 11 -26 11zM2139 1672q-15 0 -26 -11l-439 -436
q-11 -11 -10.5 -25.5t10.5 -26.5q10 -11 25 -11t26 11l439 437q11 10 11.5 26t-10.5 25q-14 11 -26 11z" />
</svg>