<?xml version="1.0" standalone="no"?>
<!DOCTYPE svg PUBLIC "-//W3C//DTD SVG 1.1//EN" "http://www.w3.org/Graphics/SVG/1.1/DTD/svg11.dtd">
<svg xmlns="http://www.w3.org/2000/svg" xmlns:xlink="http://www.w3.org/1999/xlink" version="1.1"
   viewBox="94 -151 2414 2169">
   <path fill="currentColor"
      d="M1166 1978q-229 0 -421 -86.5t-332.5 -245.5t-217.5 -376t-77 -478q0 -267 78 -468t223.5 -313.5t349.5 -112.5q157 0 275 71t184.5 203.5t66.5 319.5t66.5 286t181.5 99q102 0 154 -74t52 -209q0 -77 -18.5 -147t-18.5 -110q0 -50 37.5 -79t83.5 -29q75 0 135 53
t103 149q114 -116 241 -116q71 0 120.5 29.5t49.5 79.5q0 34 -16.5 62.5t-43.5 66.5q-29 40 -65 98.5t-71.5 148.5t-62.5 225l-9 45q-41 205 -135.5 372t-232.5 287t-310.5 184.5t-369.5 64.5zM357 639l-31 -53q41 -30 94.5 -58t105.5 -48l15 61q-48 22 -98 48.5t-86 49.5z
M315 476l-21 -49q43 -20 95 -35.5t106 -23.5l15 55q-50 7 -102.5 20t-92.5 33zM1332 1632q-100 0 -158 -91.5t-58 -239.5q0 -99 18.5 -168t18.5 -126q0 -72 -33 -102l54 -59q30 27 44.5 69t14.5 92q0 51 -9 94.5t-18.5 90.5t-9.5 109q0 118 37.5 184.5t98.5 66.5
q58 0 103 -53.5t71.5 -149t26.5 -221.5h80q0 150 -35.5 263.5t-98.5 177t-147 63.5zM859 563q-38 0 -63 -17t-42 -51q-34 28 -70 28q-34 0 -67 -23.5t-58 -66.5l51 -35q33 54 68 54q49 0 66 -89l68 13q-5 27 -5 45q0 34 13.5 52.5t40.5 18.5q24 0 56 -16l33 61
q-46 26 -91 26zM1090 785q-27 -35 -65 -77t-76 -79l38 -50q42 37 82 81.5t67 85.5zM1166 1900q244 0 445 -105.5t337.5 -296t187.5 -444.5l9 -45q33 -164 87.5 -281.5t124.5 -218.5q29 -42 37 -56t8 -22q0 -11 -25.5 -23.5t-64.5 -12.5q-67 0 -134 39.5t-132 113.5
q-41 -118 -96 -178.5t-117 -60.5q-19 0 -31 9t-12 19q0 14 10 57.5t19.5 98t9.5 101.5q0 170 -75 266.5t-211 96.5q-153 0 -240.5 -123t-87.5 -342q0 -238 -118.5 -377t-327.5 -139q-175 0 -303 99t-198 282t-70 435q0 172 37.5 323.5t101.5 279.5q36 71 117.5 136
t181.5 106t191 41q62 0 97 -25t35 -74q0 -53 -39.5 -106.5t-102 -107t-132 -106t-132 -104t-102 -100t-39.5 -93.5h80q0 31 39.5 71t102 87.5t132 101t132 111t102 117.5t39.5 122q0 77 -50 130.5t-162 53.5q-59 0 -124 -16.5t-128 -45.5q120 98 269.5 152t321.5 54z
M601 284q-23 0 -40 -17t-17 -40t17 -39.5t40 -16.5t39.5 16.5t16.5 39.5t-16.5 40t-39.5 17zM774 393q-16 0 -36 -21t-20 -37q0 -8 15.5 -15t37.5 -7q29 0 56 15t27 31q0 13 -24 23.5t-56 10.5zM1146 600q-71 -46 -154 -74l26 -52q41 15 81.5 36t75.5 44zM1001 374
q-23 0 -40 -17t-17 -40t17 -39.5t40 -16.5t39.5 16.5t16.5 39.5t-16.5 40t-39.5 17z" />
</svg>