<?xml version="1.0" standalone="no"?>
<!DOCTYPE svg PUBLIC "-//W3C//DTD SVG 1.1//EN" "http://www.w3.org/Graphics/SVG/1.1/DTD/svg11.dtd">
<svg xmlns="http://www.w3.org/2000/svg" xmlns:xlink="http://www.w3.org/1999/xlink" version="1.1"
   viewBox="94 -151 2414 2169">
   <path fill="currentColor"
      d="M1198 1978q-75 0 -118 -29.5t-43 -84.5q0 -23 11.5 -48.5t23 -48.5t11.5 -36v-324q-130 -14 -231.5 -94.5t-138.5 -217.5l-147 -554h83l141 533q21 78 70 136t120 90t157 32h13t13 -1v400q0 36 -23 73t-23 60q0 15 17.5 25.5t63.5 10.5q44 0 67 -9t24 -22l28 -593
q43 0 99.5 -26.5t120 -61t127 -62t118.5 -28.5q6 38 21 76t40 78t62 85.5t87 98.5q38 40 63 70t27 53l12 109q3 26 -9 54.5t-25.5 53t-13.5 37.5q0 24 32 24q56 0 82.5 -33.5t26.5 -109.5q0 -24 -3 -70t-9.5 -115t-16.5 -160l87 46q9 88 15.5 173t6.5 126q0 106 -48.5 163.5
t-140.5 57.5q-112 0 -112 -102q0 -24 12.5 -50.5t25 -49.5t10.5 -36l-13 -120q-1 -8 -33 -37.5t-77.5 -77.5t-87.5 -110.5t-63 -137.5q-60 12 -121.5 41.5t-118.5 60.5t-105 48l-26 529q-2 46 -47.5 75.5t-123.5 29.5zM807 1915q-43 0 -69.5 -11t-26.5 -35q0 -29 26 -51
t52 -52t26 -82v-437l181 85l-19 382q-5 103 -43 152t-127 49zM737 1097l-13 -74l325 -101l45 70zM1589 1898q-47 0 -68.5 -8t-21.5 -27q0 -20 18.5 -39t40.5 -41t31 -50l24 -78q15 -48 8 -81.5t-23.5 -72t-30.5 -99.5t-14 -163l221 -94l65 212q-7 160 -33.5 271.5
t-64.5 181.5q-28 52 -58.5 70t-93.5 18zM564 394q-16 0 -28 -16t-12 -38t12 -37.5t28 -15.5q17 0 28.5 15.5t11.5 37.5t-11.5 38t-28.5 16zM395 610q-25 0 -49 -8t-24 -30q-72 -23 -117 -79t-45 -144q0 -19 41.5 -30t96 -23t92.5 -32q9 -5 22.5 -30.5t37.5 -57t65 -54.5
t105 -23l48 15l56 -60q50 -53 104 -91.5t91 -38.5q68 0 87 85t19 216q0 65 -13 114.5t-33 79.5l-143 -64q62 0 85.5 -31.5t23.5 -98.5q0 -76 -7 -127.5t-13 -78.5q-2 -10 -10.5 -13t-16.5 2q-26 16 -56 43t-54 51q-39 39 -52.5 70t-18.5 57q-15 -26 -44.5 -45.5t-61.5 -19.5
q-43 0 -79 30t-58 75t-22 91q0 45 25 86.5t66.5 68t90.5 26.5l-40 69h-199zM1363 1284v-232l-18 -22v-430l-44 -16q2 -44 21 -67t43 -23q35 0 46.5 31.5t11.5 98.5v627zM1246 1021q41 0 81.5 -33t79 -83t73 -103.5t62 -95.5t46.5 -57h-197q-59 0 -127.5 -7t-110.5 -17
q-27 56 -39 107t-12 94q0 79 38 137t106 58zM508 177q32 -163 53 -221t51 -58q20 0 35.5 23t33.5 82t43 167q-27 -13 -54.5 -20t-54.5 -7q-54 0 -107 34zM819 284q-14 0 -25 -11t-11 -26q0 -18 16 -47t35.5 -51.5t31.5 -22.5q4 0 6 8t2 30q0 54 -15.5 87t-39.5 33z
M2364 1489q-109 0 -172 -45.5t-94 -140.5q-25 -76 -38 -166.5t-26 -172.5t-38 -134.5t-73 -52.5q-42 0 -90.5 32.5t-108 74.5t-132 74.5t-161.5 32.5q-46 66 -87 87t-98 21q-110 0 -165.5 -78t-55.5 -190v-18q-52 -55 -95 -117t-68.5 -144.5t-25.5 -196.5l80 22l44 -89
q25 25 55 68.5t58.5 91.5t46.5 86q67 19 134 29.5t131 10.5q110 0 183 2t116.5 4.5t64.5 5.5q134 16 228.5 76.5t158 175.5t102.5 295q17 79 50 137t68 97t59.5 62.5t24.5 35.5q0 14 -22.5 19t-53.5 5zM1455 545q-25 0 -42.5 -17.5t-17.5 -41.5t17.5 -41.5t42.5 -17.5
q12 0 24.5 5.5t28.5 23.5q0 -26 14 -41t33 -15q18 0 31.5 13.5t13.5 31.5q0 19 -13.5 32.5t-31.5 13.5q-20 0 -42 -22q1 4 1 8v9q0 24 -17.5 41.5t-41.5 17.5zM1607 465l-31 -72l681 -292l34 73z" />
</svg>