<?xml version="1.0" standalone="no"?>
<!DOCTYPE svg PUBLIC "-//W3C//DTD SVG 1.1//EN" "http://www.w3.org/Graphics/SVG/1.1/DTD/svg11.dtd">
<svg xmlns="http://www.w3.org/2000/svg" xmlns:xlink="http://www.w3.org/1999/xlink" version="1.1"
   viewBox="94 -151 2414 2169">
   <path fill="currentColor"
      d="M283 1978l-19 -17l1557 -1854q89 -105 173.5 -157t164.5 -52q81 0 129 46t48 123q0 68 -58.5 152.5t-166.5 178.5zM706 677q-178 0 -279 -96t-101 -265q0 -118 58 -212t157.5 -149.5t221.5 -55.5q156 0 258 82t118 222l-80 8q-13 -108 -92 -170t-204 -62
q-100 0 -181 44.5t-128.5 120.5t-47.5 172q0 135 77.5 208t222.5 73q74 0 155.5 -15.5t182.5 -49.5t231 -89q118 -50 214 -85.5t184 -54.5l-40 92q-85 22 -166.5 55t-161.5 68q-132 58 -234.5 93t-189.5 50.5t-175 15.5zM1442 1205q-253 0 -420.5 -64t-296.5 -216l60 -52
q79 91 171 146.5t210.5 80.5t275.5 25q148 0 275.5 -37.5t223.5 -104.5t150 -155.5t54 -190.5q0 -134 -62 -205t-174 -71v-80q98 0 168.5 42.5t109 122t38.5 191.5q0 120 -60 223.5t-167 180.5t-249.5 120.5t-306.5 43.5zM718 1521l1341 -1183q94 -83 145.5 -153.5
t51.5 -117.5q0 -43 -25 -66t-72 -23q-61 0 -130 44.5t-148 136.5zM1835 454q-34 34 -61 30.5t-31 -30.5t29 -60l273 -273q29 -29 55 -24t32.5 29t-24.5 55z" />
</svg>