<?xml version="1.0" standalone="no"?>
<!DOCTYPE svg PUBLIC "-//W3C//DTD SVG 1.1//EN" "http://www.w3.org/Graphics/SVG/1.1/DTD/svg11.dtd">
<svg xmlns="http://www.w3.org/2000/svg" xmlns:xlink="http://www.w3.org/1999/xlink" version="1.1"
   viewBox="94 -151 2414 2169">
   <path fill="currentColor"
      d="M1300 1928q-205 0 -384.5 -77t-315.5 -213t-213 -315.5t-77 -384.5t77 -384.5t213 -315.5t315.5 -213t384.5 -77t384.5 77t315.5 213t213 315.5t77 384.5t-77 384.5t-213 315.5t-315.5 213t-384.5 77zM571 2008q-187 -128 -322.5 -314t-198.5 -409l48 -14
q62 216 191.5 394t309.5 301zM1011 2053q-185 -48 -342 -152.5t-273.5 -252.5t-181 -328.5t-64.5 -381.5q0 -112 21 -218l59 12q-9 50 -14.5 101.5t-5.5 104.5q0 191 60.5 362.5t170.5 311.5t259.5 238.5t326.5 144.5zM801 1227q-35 0 -73.5 -28t-72 -73t-54 -97t-20.5 -100
q0 -60 31 -80q-1 7 -1 20q0 64 31 136.5t80 132t103 85.5q-11 4 -24 4zM899 1170q-35 0 -73.5 -28t-72 -73.5t-54 -97.5t-20.5 -100q0 -90 65 -90q7 0 19 2q0 60 27.5 127.5t72 125.5t95.5 88q-14 46 -59 46zM1048 1085q-35 0 -73.5 -28t-72 -73.5t-54 -97.5t-20.5 -100
q0 -90 65 -90q35 0 73.5 28t72 73.5t54 97.5t20.5 100q0 90 -65 90zM1534 1518q-61 0 -113 -33.5t-83.5 -88t-31.5 -118.5q0 -86 56.5 -144t138.5 -58q61 0 113 33.5t83.5 88t31.5 118.5q0 85 -56.5 143.5t-138.5 58.5zM1300 1848q190 0 355 -70t290 -195t195 -290t70 -355
t-70 -355t-195 -290t-290 -195t-355 -70t-355 70t-290 195t-195 290t-70 355t70 355t195 290t290 195t355 70zM1517 812q-40 0 -79 -30.5t-71 -77.5t-51 -98.5t-19 -92.5q0 -35 15.5 -62.5t49.5 -27.5q39 0 78 30t71 77t51.5 98.5t19.5 94.5q0 36 -15.5 62.5t-49.5 26.5z
M1665 726q-6 0 -16 -2q0 -60 -28 -127t-73.5 -124.5t-97.5 -87.5q5 -17 19.5 -33t40.5 -16q39 0 78 30.5t71 77.5t51.5 98.5t19.5 94.5q0 40 -17.5 64.5t-47.5 24.5zM1801 657q1 -9 1 -16q0 -69 -34 -143t-85 -132.5t-101 -79.5q12 -6 27 -6q25 0 58 18q46 26 82.5 75
t58 105t21.5 103q0 21 -6 42t-22 34zM2429 1156l-59 -12q9 -50 14.5 -101.5t5.5 -104.5q0 -191 -60.5 -362.5t-170.5 -311.5t-259.5 -238.5t-326.5 -144.5l16 -58q185 48 342 152.5t273.5 252.5t181 328.5t64.5 381.5q0 111 -21 218zM2502 605q-61 -216 -191 -394t-310 -301
l28 -42q187 127 322.5 313.5t198.5 409.5z" />
</svg>