<?xml version="1.0" standalone="no"?>
<!DOCTYPE svg PUBLIC "-//W3C//DTD SVG 1.1//EN" "http://www.w3.org/Graphics/SVG/1.1/DTD/svg11.dtd">
<svg xmlns="http://www.w3.org/2000/svg" xmlns:xlink="http://www.w3.org/1999/xlink" version="1.1"
   viewBox="94 -151 2414 2169">
   <path fill="currentColor"
      d="M1626 1153l-1254 -82v-726l1522 -94l48 -117q41 -100 118 -132l99 -41l29 73l-95 39q-50 21 -78 91zM378 1650l-58 -58q66 -89 197 -89l736 3q47 0 82.5 -33.5t35.5 -76.5q0 -23 -15 -58t-44 -76l-108 -156l65 -48l103 154q39 58 58.5 104.5t19.5 79.5q0 59 -40 108h179
q46 0 77 -31.5t31 -76.5q0 -24 -14.5 -59t-40.5 -73l-93 -137l64 -48l97 141q32 47 49.5 92.5t17.5 83.5q0 81 -54.5 134.5t-133.5 53.5l-1072 -2q-92 0 -139 68zM636 1050l-58 -4l32 -683l57 4zM829 1066l-56 -8l95 -714l57 8zM399 870v-57h1299v57h-1299zM1023 1084
l-57 -15l160 -745l56 13zM1572 1069l289 -737l-1409 88v576zM388 650l-3 -57l1405 -50l3 58zM1217 1100l-56 -16l223 -779l56 16zM1411 1114l-56 -17l288 -811l53 20zM2187 82q-37 0 -64 -27t-27 -66q0 -38 27 -64.5t64 -26.5q39 0 66 26.5t27 64.5t-27 65.5t-66 27.5z
M637 1978q-68 0 -117 -48.5t-49 -116.5q0 -70 49 -119t117 -49q70 0 118.5 49t48.5 119q0 67 -49 116t-118 49zM637 1906q40 0 68 -27.5t28 -65.5q0 -40 -27.5 -68t-68.5 -28q-39 0 -67 28t-28 68q0 38 28 65.5t67 27.5zM638 1845q-13 0 -24 -12t-15 -31l-47 -235h172
l-47 235q-4 19 -14.5 31t-24.5 12zM1497 1978q-68 0 -117 -48.5t-49 -116.5q0 -70 49 -119t117 -49q70 0 118.5 49t48.5 119q0 67 -49 116t-118 49zM1497 1906q40 0 68 -27.5t28 -65.5q0 -40 -27.5 -68t-68.5 -28q-39 0 -67 28t-28 68q0 38 28 65.5t67 27.5zM1498 1845
q-13 0 -24 -12t-15 -31l-47 -235h172l-47 235q-4 19 -14.5 31t-24.5 12z" />
</svg>