<?xml version="1.0" standalone="no"?>
<!DOCTYPE svg PUBLIC "-//W3C//DTD SVG 1.1//EN" "http://www.w3.org/Graphics/SVG/1.1/DTD/svg11.dtd">
<svg xmlns="http://www.w3.org/2000/svg" xmlns:xlink="http://www.w3.org/1999/xlink" version="1.1"
   viewBox="94 -151 2414 2169">
   <path fill="currentColor"
      d="M1169 1978l140 -717h-18l141 717q134 0 279.5 -16.5t281 -45.5t242 -66.5t160.5 -79.5l-206 -1560l13 -198q3 -50 -27.5 -82t-80.5 -32h-1589q-51 0 -82 32t-27 82l15 198l-206 1560q54 42 160.5 79.5t242.5 66.5t282 45.5t279 16.5zM1175 1587q-43 -116 -66.5 -161.5
t-48.5 -45.5q-21 0 -40.5 18.5t-42 43.5t-52.5 43.5t-71 18.5q-52 0 -81 -32t-46.5 -74t-34 -74t-43.5 -32q-24 0 -45.5 18.5t-44 43.5t-50 43.5t-62.5 18.5q-44 0 -75 -30.5t-52 -97.5l19 -106q26 90 52 122t54 32q25 0 49 -18.5t48.5 -43.5t52.5 -43.5t62 -18.5
q48 0 73.5 32t41.5 74t34 74t50 32q26 0 48 -18.5t44 -43.5t49 -43.5t63 -18.5q47 0 78 44t69 148zM1163 1827l104 -577q-16 -18 -29 -51t-30.5 -68.5t-45.5 -60t-74 -24.5q-43 0 -75 27.5t-59 55t-56 27.5q-30 0 -45.5 -30t-31 -69t-42 -69t-78.5 -30q-48 0 -77.5 26.5
t-54 53t-58.5 26.5q-28 0 -43.5 -21.5t-27 -52t-27 -59t-44.5 -41.5l-92 644q21 49 59.5 83t90.5 34q50 0 82 -28t56 -56.5t49 -28.5q26 0 39.5 31t29.5 71.5t47.5 71.5t93.5 31q50 0 78 -27.5t48.5 -54.5t48.5 -27q22 0 37 24.5t30.5 59t38 65.5t58.5 44zM1103 1897
q-112 -3 -230.5 -17.5t-229.5 -37.5t-202 -52t-150 -60l200 -1518l-15 -206q-1 -28 29 -28h1589q29 0 28 28l-13 206l200 1518q-58 31 -149.5 60t-202.5 52t-229 37.5t-230 17.5l-167 -908h-62zM1425 1587l-32 -95q38 -104 69.5 -148t77.5 -44q36 0 63 18.5t49 43.5t44 43.5
t48 18.5q32 0 50 -32t34 -74t41.5 -74t73.5 -32q34 0 62 18.5t52.5 43.5t48.5 43.5t49 18.5q29 0 55 -32t51 -122l19 106q-21 67 -52 97.5t-75 30.5q-35 0 -62.5 -18.5t-50 -43.5t-44 -43.5t-45.5 -18.5q-27 0 -43.5 32t-34 74t-46.5 74t-81 32q-41 0 -71 -18.5t-52.5 -43.5
t-42 -43.5t-40.5 -18.5q-25 0 -48.5 45.5t-66.5 161.5zM1437 1827q36 -13 58.5 -44t38 -65.5t30.5 -59t37 -24.5q28 0 48.5 27t48.5 54.5t78 27.5q62 0 93.5 -31t47.5 -71.5t29.5 -71.5t39.5 -31t50 28.5t56 56.5t81 28q53 0 91 -34t59 -83l-92 -644q-28 13 -44 41.5
t-27.5 59t-27 52t-43.5 21.5q-33 0 -57.5 -26.5t-54 -53t-78.5 -26.5q-52 0 -78.5 30t-42 69t-31 69t-45.5 30q-28 0 -55.5 -27.5t-59.5 -55t-75 -27.5q-46 0 -74 24.5t-45.5 60t-30.5 68.5t-29 51zM1099 804q-67 0 -104 -41.5t-37 -114.5q0 -93 42 -185t113.5 -171.5
t161 -135.5t183.5 -76l16 78q-81 18 -158.5 67t-140.5 118t-100 148t-37 157q0 42 16 59t41 17q36 0 69 -28.5t58.5 -82t40.5 -127t15 -163.5h72q0 145 -31.5 253t-88 168t-131.5 60zM1502 648q-64 0 -109.5 -41t-73.5 -107.5t-41 -143.5t-13 -149h80q0 88 13.5 155.5
t36.5 113.5t51 69t56 23q17 0 28 -12.5t11 -43.5q0 -76 -54.5 -152.5t-143 -134t-190.5 -73.5l13 -80q91 15 173 58t145.5 104.5t100 133.5t36.5 144q0 62 -32.5 99t-86.5 37z" />
</svg>