<?xml version="1.0" standalone="no"?>
<!DOCTYPE svg PUBLIC "-//W3C//DTD SVG 1.1//EN" "http://www.w3.org/Graphics/SVG/1.1/DTD/svg11.dtd">
<svg xmlns="http://www.w3.org/2000/svg" xmlns:xlink="http://www.w3.org/1999/xlink" version="1.1"
   viewBox="94 -151 2414 2169">
   <path fill="currentColor"
      d="M425 1978q-67 0 -116 -49t-49 -116v-1750q0 -68 49 -116.5t116 -48.5h1749q68 0 117 48t49 116v1751q0 67 -48.5 116t-116.5 49h-1750zM977 813l126 -205q-61 -78 -140 -148t-187 -116t-256 -52v224q117 9 201.5 53t146.5 108.5t109 135.5zM1719 1689l371 -295l-371 -295
v174q-94 0 -173.5 -50.5t-156.5 -154.5l-123 206q86 100 195.5 158.5t257.5 84.5v172zM520 1585q165 -6 300.5 -72t252.5 -201.5t225 -349.5q60 -118 127 -197.5t141 -120.5t153 -41v174l371 -295l-371 -295v172q-157 26 -267 90t-193.5 164t-159.5 236q-63 112 -117 199.5
t-115 151t-144 103t-203 56.5v226z" />
</svg>