<?xml version="1.0" standalone="no"?>
<!DOCTYPE svg PUBLIC "-//W3C//DTD SVG 1.1//EN" "http://www.w3.org/Graphics/SVG/1.1/DTD/svg11.dtd">
<svg xmlns="http://www.w3.org/2000/svg" xmlns:xlink="http://www.w3.org/1999/xlink" version="1.1"
   viewBox="94 -151 2414 2169">
   <path fill="currentColor"
      d="M1477 1978q-280 0 -449 -85.5t-192 -233.5l79 -24q13 121 158 192t404 71q205 0 350.5 -33.5t223 -92t77.5 -134.5q0 -19 -6 -37.5t-19 -44.5q-20 -41 -31 -81t-11 -84v-576q0 -137 -50.5 -207t-138.5 -70q-20 0 -48 5q-4 -70 -49.5 -112.5t-119.5 -42.5t-149 35.5
t-151.5 88.5t-154.5 107.5t-156.5 95t-158.5 48.5v522l-116 105q-41 -8 -60.5 -25t-24.5 -37q34 -5 51 -32t17 -63q0 -60 -65 -146q-54 -71 -73 -127t-19 -135q0 -43 10 -79.5t29 -77.5q-24 -48 -24 -97q0 -87 81 -148q-6 -24 -8.5 -47t-2.5 -44q0 -81 48.5 -133.5
t145.5 -76.5q-10 -34 -10 -66q0 -44 25 -77t73 -61q5 51 35 81t95 30q36 0 73.5 -13t92.5 -41q71 -36 148.5 -56.5t195.5 -20.5q124 0 209.5 35t132 86.5t51.5 100.5q68 0 129 35t108.5 95t74.5 134.5t27 153.5q0 67 -29 130q20 41 30 77.5t10 79.5q0 79 -19.5 135
t-73.5 127q-66 88 -66 146q0 36 16.5 63t50.5 32q-8 28 -40.5 48t-67.5 20q-12 0 -24.5 -0.5t-24.5 -4.5l45 -29v28q0 43 10.5 78.5t27.5 72.5q14 28 21.5 49.5t7.5 47.5q0 101 -88.5 177.5t-252 119.5t-390.5 43zM380 1898l440 -275q-36 -17 -60 -54t-28 -74l-415 315
q0 29 18.5 55t44.5 33zM662 1665q-13 0 -23 -10t-10 -23q0 -14 10 -23.5t23 -9.5q14 0 23.5 9.5t9.5 23.5q0 13 -9.5 23t-23.5 10zM383 1970q-58 -14 -93 -60t-35 -105q0 -14 3 -32l476 -358q20 -71 75 -117t125 -46q84 0 141.5 56t57.5 134q0 91 -67.5 147t-168.5 56z
M915 1580q11 0 31.5 -4t32.5 -9q-39 -41 -81.5 -96.5t-68.5 -98.5q-18 20 -26.5 46.5t-8.5 52.5q0 52 36 80.5t85 28.5zM1030 1534q37 -34 37 -86q0 -57 -39.5 -94.5t-92.5 -37.5q-13 0 -28.5 4t-29.5 12q27 48 69 103.5t84 98.5zM1472 1323q-150 0 -253 -103l44 -53
q44 46 94.5 66t114.5 20t115 -20t94 -66l44 53q-103 103 -253 103zM1204 989q37 0 61.5 -27t24.5 -65t-24.5 -65.5t-61.5 -27.5t-61 27.5t-24 65.5t24 65t61 27zM1106 1231l-7 -2l18 -173l-117 6l228 -637l521 -160l-348 457l167 -35zM1740 989q37 0 61 -27t24 -65
t-24 -65.5t-61 -27.5t-61.5 27.5t-24.5 65.5t24.5 65t61.5 27z" />
</svg>