<?xml version="1.0" standalone="no"?>
<!DOCTYPE svg PUBLIC "-//W3C//DTD SVG 1.1//EN" "http://www.w3.org/Graphics/SVG/1.1/DTD/svg11.dtd">
<svg xmlns="http://www.w3.org/2000/svg" xmlns:xlink="http://www.w3.org/1999/xlink" version="1.1"
   viewBox="94 -151 2414 2169">
   <path fill="currentColor"
      d="M1311 1340q-60 0 -106 -26t-77 -68.5t-46.5 -94.5t-15.5 -104q0 -51 31.5 -99t87.5 -79.5t131 -31.5q110 0 165.5 63.5t55.5 173.5q0 136 -62.5 201t-163.5 65zM1313 1458q167 0 265 -103t98 -281q0 -166 -91 -256.5t-240 -90.5q-103 0 -169 39t-102 95h-9
q6 -125 40 -230t115.5 -168.5t229.5 -63.5q36 0 73 4.5t65 14.5v-120q-26 -8 -66.5 -11t-74.5 -3q-161 0 -263.5 57.5t-159 154.5t-78.5 216t-22 242q0 128 30 223t83 157.5t123.5 93t152.5 30.5z" />
</svg>