<?xml version="1.0" standalone="no"?>
<!DOCTYPE svg PUBLIC "-//W3C//DTD SVG 1.1//EN" "http://www.w3.org/Graphics/SVG/1.1/DTD/svg11.dtd">
<svg xmlns="http://www.w3.org/2000/svg" xmlns:xlink="http://www.w3.org/1999/xlink" version="1.1"
   viewBox="94 -151 2414 2169">
   <path fill="currentColor"
      d="M743 1513q-136 0 -253.5 -34t-205 -92t-136.5 -131.5t-49 -151.5q0 -81 57 -134.5t141 -53.5q55 0 100.5 -7t69.5 -18l1137 -546q18 -8 40 -26t48 -42q99 -91 207 -135t212 -44q118 0 205.5 49.5t136 135t48.5 194.5q0 73 -22.5 144t-63.5 125.5t-95 80.5l-1273 614
q-71 34 -145 53t-159 19zM577 1570q-53 0 -113.5 -44.5t-79.5 -111.5l363 62q-26 42 -71 68t-99 26zM883 1542l-81 -48l104 -33zM1072 1778q-83 0 -142 -59.5t-59 -143.5q0 -83 59 -142t142 -59q85 0 143.5 59t58.5 142q0 84 -58.5 143.5t-143.5 59.5zM1131 1671
q27 0 46.5 -20t19.5 -47t-19.5 -46.5t-46.5 -19.5t-47 19.5t-20 46.5q0 28 19.5 47.5t47.5 19.5zM638 1106q-19 0 -32.5 -11.5t-13.5 -27.5q0 -30 39 -30q18 0 32 11t14 25q0 13 -11.5 23t-27.5 10zM815 1210q-19 0 -32.5 -11.5t-13.5 -27.5q0 -30 39 -30q18 0 32 11t14 25
q0 13 -11.5 23t-27.5 10zM821 1022q-19 0 -32.5 -11.5t-13.5 -27.5q0 -30 39 -30q18 0 32 11t14 25q0 13 -11.5 23t-27.5 10zM993 1126q-19 0 -32.5 -11.5t-13.5 -27.5q0 -30 39 -30q18 0 32 11t14 25q0 13 -11.5 23t-27.5 10zM743 1433q72 0 136 -15.5t133 -48.5l1273 -614
q38 -18 68.5 -60.5t49 -99.5t18.5 -118q0 -135 -85 -217t-225 -82q-94 0 -187 40.5t-178 117.5q-34 31 -60 50.5t-48 30.5l-1137 546q-32 16 -87 24.5t-117 8.5q-52 0 -85 30.5t-33 77.5q0 64 45 123t124 105.5t180.5 73.5t214.5 27zM1608 626q-19 0 -32.5 -11.5
t-13.5 -27.5q0 -30 39 -30q18 0 32 11t14 25q0 13 -11.5 23t-27.5 10zM1785 730q-19 0 -32.5 -11.5t-13.5 -27.5q0 -30 39 -30q18 0 32 11t14 25q0 13 -11.5 23t-27.5 10zM2164 1229q-85 0 -144 -59t-59 -144q0 -84 59 -143t144 -59q83 0 143 59t60 143q0 85 -60 144
t-143 59zM2221 1122q27 0 46.5 -20t19.5 -47t-19.5 -46.5t-46.5 -19.5t-47 19.5t-20 46.5q0 28 19.5 47.5t47.5 19.5zM1791 542q-19 0 -32.5 -11.5t-13.5 -27.5q0 -30 39 -30q18 0 32 11t14 25q0 13 -11.5 23t-27.5 10zM1963 646q-19 0 -32.5 -11.5t-13.5 -27.5
q0 -30 39 -30q18 0 32 11t14 25q0 13 -11.5 23t-27.5 10z" />
</svg>