<?xml version="1.0" standalone="no"?>
<!DOCTYPE svg PUBLIC "-//W3C//DTD SVG 1.1//EN" "http://www.w3.org/Graphics/SVG/1.1/DTD/svg11.dtd">
<svg xmlns="http://www.w3.org/2000/svg" xmlns:xlink="http://www.w3.org/1999/xlink" version="1.1"
   viewBox="94 -151 2414 2169">
   <path fill="currentColor"
      d="M426 1978q-68 0 -117 -48.5t-49 -115.5v-1751q0 -68 49 -116.5t116 -48.5h1750q68 0 116.5 48.5t48.5 116.5v1750q0 67 -48.5 116t-116.5 49h-1749zM580 1953l-312 -312v-112l424 424h-112zM920 1953l-652 -652v-112l764 764h-112zM1254 1953l-986 -986v-112l1099 1098
h-113zM598 1935v-1997h64v1997h-64zM283 1640v-64h2037v64h-2037zM1590 1953l-1322 -1321v-112l1434 1433h-112zM933 1935v-1997h64v1997h-64zM283 1305v-64h2037v64h-2037zM1924 1953l-1656 -1655v-112l1768 1767h-112zM2249 1942l-1952 -1951l56 -56l1952 1951zM426 1898
h1749q35 0 60 -25.5t25 -59.5v-1750q0 -35 -25 -60t-60 -25h-1750q-34 0 -59.5 25t-25.5 60v1751q0 34 25.5 59t60.5 25zM283 970v-64h2037v64h-2037zM1268 1935v-1997h64v1997h-64zM2332 1690l-1768 -1767h112l1656 1655v112zM1603 1935v-1997h64v1997h-64zM283 635v-64
h2037v64h-2037zM2332 1356l-1434 -1433h112l1322 1321v112zM1938 1935v-1997h64v1997h-64zM283 300v-64h2037v64h-2037zM2332 1021l-1099 -1098h113l986 986v112zM2332 687l-764 -764h112l652 652v112zM2331 324l-423 -401h112l311 311v90z" />
</svg>