<?xml version="1.0" standalone="no"?>
<!DOCTYPE svg PUBLIC "-//W3C//DTD SVG 1.1//EN" "http://www.w3.org/Graphics/SVG/1.1/DTD/svg11.dtd">
<svg xmlns="http://www.w3.org/2000/svg" xmlns:xlink="http://www.w3.org/1999/xlink" version="1.1"
   viewBox="94 -151 2414 2169">
   <path fill="currentColor"
      d="M426 1978q-68 0 -117 -48.5t-49 -115.5v-1751q0 -68 49 -116.5t116 -48.5h1750q68 0 116.5 48.5t48.5 116.5v1750q0 67 -48.5 116t-116.5 49h-1749zM418 1938v-320h64v320h-64zM588 1938v-180h64v180h-64zM758 1938v-320h64v320h-64zM588 1658v-200h64v200h-64zM418 1518
v-320h64v320h-64zM928 1938v-180h64v180h-64zM1098 1938v-320h64v320h-64zM588 1358v-200h64v200h-64zM928 1658v-200h64v200h-64zM758 1518v-320h64v320h-64zM1268 1938v-180h64v180h-64zM418 1098v-320h64v320h-64zM588 1058v-200h64v200h-64zM1438 1938v-320h64v320h-64z
M928 1358v-200h64v200h-64zM1268 1658v-200h64v200h-64zM1098 1518v-320h64v320h-64zM1608 1938v-180h64v180h-64zM758 1098v-320h64v320h-64zM418 678v-320h64v320h-64zM588 758v-200h64v200h-64zM928 1058v-200h64v200h-64zM1778 1938v-320h64v320h-64zM1268 1358v-200h64
v200h-64zM1608 1658v-200h64v200h-64zM1438 1518v-320h64v320h-64zM1948 1938v-180h64v180h-64zM1098 1098v-320h64v320h-64zM588 458v-200h64v200h-64zM758 678v-320h64v320h-64zM928 758v-200h64v200h-64zM1268 1058v-200h64v200h-64zM418 258v-320h64v320h-64zM426 1898
h1749q35 0 60 -25.5t25 -59.5v-1750q0 -35 -25 -60t-60 -25h-1750q-34 0 -59.5 25t-25.5 60v1751q0 34 25.5 59t60.5 25zM2118 1938v-320h64v320h-64zM1608 1358v-200h64v200h-64zM1948 1658v-200h64v200h-64zM1778 1518v-320h64v320h-64zM1438 1098v-320h64v320h-64z
M588 158v-220h64v220h-64zM928 458v-200h64v200h-64zM1098 678v-320h64v320h-64zM1268 758v-200h64v200h-64zM1608 1058v-200h64v200h-64zM758 258v-320h64v320h-64zM1948 1358v-200h64v200h-64zM2118 1518v-320h64v320h-64zM1778 1098v-320h64v320h-64zM928 158v-220h64
v220h-64zM1268 458v-200h64v200h-64zM1438 678v-320h64v320h-64zM1608 758v-200h64v200h-64zM1948 1058v-200h64v200h-64zM1098 258v-320h64v320h-64zM2118 1098v-320h64v320h-64zM1268 158v-220h64v220h-64zM1608 458v-200h64v200h-64zM1778 678v-320h64v320h-64zM1948 758
v-200h64v200h-64zM1438 258v-320h64v320h-64zM1608 158v-220h64v220h-64zM1948 458v-200h64v200h-64zM2118 678v-320h64v320h-64zM1778 258v-320h64v320h-64zM1948 158v-220h64v220h-64zM2118 258v-320h64v320h-64z" />
</svg>