<?xml version="1.0" standalone="no"?>
<!DOCTYPE svg PUBLIC "-//W3C//DTD SVG 1.1//EN" "http://www.w3.org/Graphics/SVG/1.1/DTD/svg11.dtd">
<svg xmlns="http://www.w3.org/2000/svg" xmlns:xlink="http://www.w3.org/1999/xlink" version="1.1"
   viewBox="94 -151 2414 2169">
   <path fill="currentColor"
      d="M426 1978h1749q68 0 116.5 -49t48.5 -116v-1750q0 -68 -48.5 -116.5t-116.5 -48.5h-1750q-67 0 -116 48.5t-49 116.5v1751q0 67 49 115.5t117 48.5zM598 1935h64v-1997h-64v1997zM283 1640h2037v-64h-2037v64zM933 1935h64v-1997h-64v1997zM283 1305h2037v-64h-2037v64z
M426 1898q-35 0 -60.5 -25t-25.5 -59v-1751q0 -35 25.5 -60t59.5 -25h1750q35 0 60 25t25 60v1750q0 34 -25 59.5t-60 25.5h-1749zM283 970h2037v-64h-2037v64zM1268 1935h64v-1997h-64v1997zM1603 1935h64v-1997h-64v1997zM283 635h2037v-64h-2037v64zM1938 1935h64v-1997
h-64v1997zM283 300h2037v-64h-2037v64z" />
</svg>