<?xml version="1.0" standalone="no"?>
<!DOCTYPE svg PUBLIC "-//W3C//DTD SVG 1.1//EN" "http://www.w3.org/Graphics/SVG/1.1/DTD/svg11.dtd">
<svg xmlns="http://www.w3.org/2000/svg" xmlns:xlink="http://www.w3.org/1999/xlink" version="1.1"
   viewBox="94 -151 2414 2169">
   <path fill="currentColor"
      d="M426 1978q-68 0 -117 -48.5t-49 -115.5v-1751q0 -68 49 -116.5t116 -48.5h1750q68 0 116.5 48.5t48.5 116.5v1750q0 67 -48.5 116t-116.5 49h-1749zM418 1938v-180h64v180h-64zM588 1938v-80h64v80h-64zM418 1638v-180h64v180h-64zM758 1938v-180h64v180h-64zM588 1738
v-180h64v180h-64zM928 1938v-80h64v80h-64zM418 1338v-180h64v180h-64zM758 1638v-180h64v180h-64zM588 1438v-180h64v180h-64zM1098 1938v-180h64v180h-64zM928 1738v-180h64v180h-64zM1268 1938v-80h64v80h-64zM418 1038v-180h64v180h-64zM758 1338v-180h64v180h-64z
M588 1138v-180h64v180h-64zM1098 1638v-180h64v180h-64zM928 1438v-180h64v180h-64zM1438 1938v-180h64v180h-64zM1268 1738v-180h64v180h-64zM1608 1938v-80h64v80h-64zM418 738v-180h64v180h-64zM758 1038v-180h64v180h-64zM588 838v-180h64v180h-64zM1098 1338v-180h64
v180h-64zM928 1138v-180h64v180h-64zM1438 1638v-180h64v180h-64zM1268 1438v-180h64v180h-64zM1778 1938v-180h64v180h-64zM1608 1738v-180h64v180h-64zM1948 1938v-80h64v80h-64zM418 438v-180h64v180h-64zM758 738v-180h64v180h-64zM588 538v-180h64v180h-64zM1098 1038
v-180h64v180h-64zM928 838v-180h64v180h-64zM1438 1338v-180h64v180h-64zM1268 1138v-180h64v180h-64zM1778 1638v-180h64v180h-64zM1608 1438v-180h64v180h-64zM2118 1938v-180h64v180h-64zM1948 1738v-180h64v180h-64zM426 1898h1749q35 0 60 -25.5t25 -59.5v-1750
q0 -35 -25 -60t-60 -25h-1750q-34 0 -59.5 25t-25.5 60v1751q0 34 25.5 59t60.5 25zM418 138v-200h64v200h-64zM758 438v-180h64v180h-64zM588 238v-180h64v180h-64zM1098 738v-180h64v180h-64zM928 538v-180h64v180h-64zM1438 1038v-180h64v180h-64zM1268 838v-180h64v180
h-64zM1778 1338v-180h64v180h-64zM1608 1138v-180h64v180h-64zM2118 1638v-180h64v180h-64zM1948 1438v-180h64v180h-64zM758 138v-200h64v200h-64zM1098 438v-180h64v180h-64zM928 238v-180h64v180h-64zM1438 738v-180h64v180h-64zM1268 538v-180h64v180h-64zM1778 1038
v-180h64v180h-64zM1608 838v-180h64v180h-64zM2118 1338v-180h64v180h-64zM1948 1138v-180h64v180h-64zM1098 138v-200h64v200h-64zM1438 438v-180h64v180h-64zM1268 238v-180h64v180h-64zM1778 738v-180h64v180h-64zM1608 538v-180h64v180h-64zM2118 1038v-180h64v180h-64z
M1948 838v-180h64v180h-64zM1438 138v-200h64v200h-64zM1778 438v-180h64v180h-64zM1608 238v-180h64v180h-64zM2118 738v-180h64v180h-64zM1948 538v-180h64v180h-64zM1778 138v-200h64v200h-64zM2118 438v-180h64v180h-64zM1948 238v-180h64v180h-64zM2118 138v-200h64
v200h-64z" />
</svg>