<?xml version="1.0" standalone="no"?>
<!DOCTYPE svg PUBLIC "-//W3C//DTD SVG 1.1//EN" "http://www.w3.org/Graphics/SVG/1.1/DTD/svg11.dtd">
<svg xmlns="http://www.w3.org/2000/svg" xmlns:xlink="http://www.w3.org/1999/xlink" version="1.1"
   viewBox="94 -151 2414 2169">
   <path fill="currentColor"
      d="M929 1978q-36 0 -57 -8t-21 -20q0 -14 15 -36t15 -59q0 -26 -16 -48t-45 -31q1 7 1.5 14.5t0.5 14.5q0 54 -42.5 89.5t-98.5 35.5q-28 0 -51 -8.5t-23 -25.5q0 -21 19 -38.5t19 -51.5q0 -17 -11.5 -50t-23 -66.5t-11.5 -51.5q-39 8 -67 8q-76 0 -129 -36.5t-53 -88.5
q0 -23 9 -37.5t22 -23.5q-4 -23 -6 -49t-2 -53q0 -54 13 -102.5t50 -73.5q-12 -24 -12 -57q0 -39 21 -61.5t55 -22.5q28 0 46.5 17.5t37.5 52.5q44 0 95 13.5t88 30.5q12 -118 65.5 -217.5t131 -162t160.5 -67.5q-32 -59 -46 -135t-14 -173q0 -150 79 -263t212 -176t295 -63
q172 0 307.5 66.5t214 182t78.5 262.5q0 85 -25 161.5t-66 124t-90 47.5q17 -34 25.5 -70t8.5 -67q0 -41 -24 -72q-11 46 -24.5 82t-33.5 63q0 -56 -7 -107.5t-34.5 -85t-91.5 -33.5q-60 0 -120.5 34t-110.5 90t-80.5 122t-30.5 129q63 59 85 146.5t22 181.5q0 90 -18 197.5
t-47 205.5q-17 58 -50 91t-85 33q-51 0 -51 -35q0 -20 8.5 -42t8.5 -42q0 -19 -13.5 -32.5t-34.5 -13.5q-29 0 -69.5 28t-78 69.5t-57.5 81.5l-108 215q-21 41 -53 54t-76 13zM456 1582q6 0 27 -10.5t40 -24t19 -22.5q0 -15 -35 -33.5t-62 -18.5q-29 0 -29 21q0 24 14 56
t26 32zM475 1396q25 0 41 -18t16 -45q0 -26 -16.5 -44t-40.5 -18q-25 0 -41.5 18t-16.5 44q0 27 16.5 45t41.5 18zM664 1486q26 0 44 -19t18 -44q0 -26 -18 -44t-44 -18q-25 0 -44 18t-19 44t18.5 44.5t44.5 18.5zM567 1351q44 -49 95 -79.5t102 -43.5q-55 -28 -107 -45
t-83 -17q-19 37 -19 87q0 19 3 41t9 57zM970 1385q78 -129 156 -218t179.5 -135t246.5 -46q-29 -95 -85.5 -133t-126.5 -38q-106 0 -193 80t-149 220q0 -119 56 -203.5t150 -138.5q-113 0 -196 58.5t-127.5 161t-44.5 234.5q28 -14 61 -14q32 0 60 21t28 69q0 13 -3 31.5
t-12 50.5zM1411 746q19 -117 95.5 -222.5t203.5 -187.5q-28 -11 -55 -17t-56 -6q-34 0 -70 9q59 -131 176.5 -184t310.5 -53q-44 -43 -105 -73.5t-129 -47t-134 -16.5q-124 0 -216 76.5t-154 219.5l-49 -148q-46 83 -69 167t-23 165q0 76 16 144.5t44 132.5q30 1 71.5 8
t81 16t61.5 17z" />
</svg>