<?xml version="1.0" standalone="no"?>
<!DOCTYPE svg PUBLIC "-//W3C//DTD SVG 1.1//EN" "http://www.w3.org/Graphics/SVG/1.1/DTD/svg11.dtd">
<svg xmlns="http://www.w3.org/2000/svg" xmlns:xlink="http://www.w3.org/1999/xlink" version="1.1"
   viewBox="94 -151 2414 2169">
   <path fill="currentColor"
      d="M342 1029l1153 -981l823 208v53l-1114 1085l-63 -65l401 -389q-70 14 -134.5 21.5t-126.5 7.5q-166 0 -273.5 -64t-139.5 -205l-461 392zM249 1366q-22 0 -42 -9.5t-33 -26.5q-35 -48 -59.5 -107.5t-24.5 -97.5q0 -50 39.5 -85.5t87.5 -35.5q12 0 24.5 3.5t25.5 9.5
l39 -33q73 6 106 51.5t33 128.5l-51 49l3 16q7 36 -13.5 67.5t-57 50.5t-77.5 19zM249 1296q32 0 60 -21t21 -37l-17 -44l63 -61q0 -58 -50 -74l-49 41q-14 -14 -31 -20t-33 -6q-25 0 -39 16t-14 35q0 28 19.5 78t53.5 90q5 3 16 3zM499 1485q-67 0 -130.5 -45t-106.5 -119
l79 -44q34 58 74.5 88t83.5 30q36 0 67 -15.5t76 -58.5l478 -450l58 68l-481 454q-56 53 -100.5 72.5t-97.5 19.5zM1024 1681q-24 0 -46.5 -9.5t-36.5 -25.5q-40 -49 -68.5 -112t-28.5 -103q0 -53 39.5 -93.5t92.5 -40.5q25 0 54 13l40 -37q80 4 118 52.5t38 129.5l-55 59
l4 18q8 36 -11.5 70.5t-57 56.5t-82.5 22zM1026 1601q31 0 57.5 -22t19.5 -37l-20 -46l68 -72q-5 -58 -56 -71l-58 54q-16 -21 -32.5 -27.5t-28.5 -6.5q-26 0 -41 18t-15 40q0 26 24 78t58 87q10 5 24 5zM806 1210l55 -584l75 157l-30 335zM1692 1491l-125 -548l82 -41
l119 513zM1321 1828q-80 0 -163.5 -50t-144.5 -138l83 -41q47 67 103 103t116 36q50 0 97.5 -28.5t108.5 -92.5l922 -972q7 -7 21 -3t28 18q31 31 12 52l-939 989q-58 61 -119.5 94t-124.5 33zM997 865l-48 -53l767 -687l51 48zM1267 953l-48 -51l728 -708l50 49zM1308 891
q48 0 117.5 -7.5t141 -23t125.5 -39.5l512 -511l-688 -175l-605 514q0 75 52 129.5t142 83.5t203 29zM2279 861l-186 -366l71 -59l185 363z" />
</svg>