<?xml version="1.0" standalone="no"?>
<!DOCTYPE svg PUBLIC "-//W3C//DTD SVG 1.1//EN" "http://www.w3.org/Graphics/SVG/1.1/DTD/svg11.dtd">
<svg xmlns="http://www.w3.org/2000/svg" xmlns:xlink="http://www.w3.org/1999/xlink" version="1.1"
   viewBox="94 -151 2414 2169">
   <path fill="currentColor"
      d="M1398 1978q-93 0 -180 -30t-140 -52q3 15 3 22q0 40 -32 40q-33 0 -90 -34t-116 -85t-98 -101l-28 41q-7 11 -19 14.5t-25 -6.5q-120 -93 -210.5 -229t-141 -309.5t-50.5 -376.5q0 -159 61.5 -278t169.5 -184.5t247 -65.5q101 0 187 37.5t144 101.5l-3 142
q-39 -62 -78 -97.5t-69 -35.5q-35 0 -72 21.5t-84 21.5q-31 0 -65.5 -14t-67.5 -28t-61 -14q-55 0 -103 43t-78 115t-30 160q0 74 48 136t140 98.5t223 36.5q66 0 134 -14l-40 86q-24 4 -47 5t-46 1q-138 0 -257.5 -48t-189.5 -159l16 -33q0 110 23 221t65.5 214t100.5 189
t128 145q14 11 21 -5l30 -73q34 42 72.5 84t74.5 76.5t63.5 55.5t39.5 21q14 0 11 -16l-13 -83q68 46 139 82t126.5 56t75.5 20q10 0 10 -7q0 -3 -1 -6t-5 -7l-59 -70q96 16 150.5 24.5t86 11t55.5 2.5q140 0 241.5 -53t163.5 -169l211 -392q49 -91 69.5 -137.5t20.5 -65.5
q0 -23 -18 -34t-38 -11q-39 0 -83.5 48t-76.5 133q-14 -56 -68 -155t-128 -226q-69 -119 -128 -232.5t-95 -205t-36 -143.5q0 -40 28 -59q-11 -18 -27.5 -27.5t-33.5 -9.5q-34 0 -69 36.5t-35 116.5q0 40 8.5 78.5t35.5 105.5t81 193q56 127 82 213.5t26 149.5
q0 50 -65.5 82t-148.5 32q-54 0 -106.5 -17.5t-90.5 -47.5q17 -60 27.5 -110.5t15.5 -117t5 -173.5q0 -174 9.5 -278t35.5 -160t76 -86q-21 -14 -37 -18.5t-39 -4.5q-25 0 -51.5 8t-49.5 32q-51 52 -81.5 156.5t-30.5 275.5q0 98 -21.5 175t-53.5 142t-64.5 127t-54 130
t-21.5 152h-80q0 -77 14.5 -136t35.5 -108q31 -73 67.5 -135t66 -136.5t38.5 -184.5v-100q20 -245 88 -361t198 -116q52 0 104 31q20 -12 34 -17t36 -5q64 0 108 47.5t44 113.5q-13 0 -17.5 5t-4.5 22q0 27 23.5 96.5t67.5 146.5q114 199 182.5 321.5t107.5 201.5
q68 -79 152 -79q54 0 94.5 36.5t40.5 85.5q0 34 -25.5 94t-78.5 158l-211 393q-69 128 -190 190t-250 62q-50 0 -91.5 -3.5t-53.5 -8.5q10 14 10 33q0 37 -41 37zM1164 1710q-19 0 -59.5 -18t-84 -45.5t-74.5 -58.5t-31 -56q0 -16 13.5 -28.5t29.5 -12.5q19 0 34 17
q38 41 78 81.5t92 68.5q27 14 27 31q0 21 -25 21zM374 883l-33 -167q21 -22 68.5 -49.5t93.5 -40.5l52 90q-57 22 -105 66.5t-76 100.5zM1333 1606q-61 0 -100 -18t-39 -44q0 -14 11 -22t28 -8q9 0 31 3.5t48 7.5t47 4q10 0 30.5 -2t39.5 -3.5t24 -1.5q25 0 25 18
q0 25 -44 45.5t-101 20.5zM546 731q-26 0 -45 -19t-19 -45t19 -44.5t45 -18.5t44.5 18.5t18.5 44.5t-18.5 45t-44.5 19zM1448 1747q-62 0 -62 -46q0 -19 12.5 -30.5t32.5 -11.5q79 0 141 -12.5t102 -24.5t50 -12q7 0 12.5 6.5t5.5 14.5q0 22 -42 49.5t-109 47t-143 19.5z
M820 887q-24 0 -47 -9.5t-44 -28.5q-40 25 -82 25q-25 0 -47.5 -9t-49.5 -30l32 -46q35 24 65 24q48 0 83 -55q15 35 42.5 52t47.5 17q22 0 52 -20l31 48q-25 18 -44 25t-39 7zM732 805l-75 -88q17 -46 76 -46q27 0 51.5 12.5t32.5 30.5zM936 751q-26 0 -45 -19t-19 -45
t19 -44.5t45 -18.5t44.5 18.5t18.5 44.5t-18.5 45t-44.5 19zM1039 854q-21 -38 -50.5 -68t-69.5 -54l58 -78q32 15 61 31t55 38zM1052 523l-116 -58l-189 -15q7 -27 15.5 -81.5t15.5 -108.5t8 -79l212 49q15 60 28.5 138t25.5 155zM620 164q-9 0 -14.5 -10.5t-5.5 -41.5
q0 -42 30.5 -85t68.5 -43q20 0 20 12q0 13 -16.5 35t-33 44.5t-16.5 38.5q0 13 -9.5 31.5t-23.5 18.5zM722 223q-10 0 -17 -12t-7 -46q0 -31 16 -63t41 -54.5t53 -22.5q22 0 22 14t-18 38.5t-36 49.5t-18 42q0 14 -10.5 34t-25.5 20zM1137 267q-34 0 -128 -13t-240 -53
q-15 -4 -62.5 -12.5t-106.5 -17.5t-109.5 -16t-71.5 -8q-91 -6 -91 -108q0 -141 152 -141q52 0 98 14t98 35q17 -20 49 -34.5t76 -14.5q59 0 106 29t82 96q17 1 36 1.5t38 0.5q56 0 129 4t131 17l-116 54q-31 -2 -67 -3.5t-77 -1.5q-158 0 -258 -29.5t-169 -57.5
q-61 -26 -92.5 -33t-63.5 -7q-49 0 -66.5 15t-17.5 56q0 22 7.5 29.5t23.5 9.5q23 2 75 9.5t112 16.5t108.5 17t64.5 13q122 34 209 49.5t154 15.5zM1468 1031q37 0 77 -9.5t57 -25.5q-4 -81 -39.5 -176.5t-82.5 -205.5q-20 -47 -39 -96t-38 -101q-8 49 -10.5 92t-2.5 88
q0 37 1 82t1 104q0 67 -8.5 123t-25.5 104q22 9 50 15t60 6zM2036 1045l-201 -315q-7 -120 -10 -190.5t-3.5 -109t-0.5 -62.5l181 43l107 566zM2144 466q-34 0 -92 -5.5t-124.5 -14.5t-127.5 -21.5t-102.5 -26.5t-49.5 -28l23 -53q37 10 95.5 21.5t125 22.5t127.5 19t103 11
q1 -6 1 -12v-13q0 -47 -10 -90q-10 -5 -22 -10t-25 -9q4 13 4 29q0 31 -4.5 40.5t-12.5 9.5q-13 0 -24 -15t-19 -31q-4 -9 -12.5 -23t-18.5 -28q-9 -2 -17.5 -3t-17.5 -1q3 18 3 36q0 28 -7.5 40t-16.5 12q-8 0 -15.5 -11.5t-14.5 -34.5q-4 -13 -7 -24t-6 -21
q-10 -1 -21.5 -1h-22.5q-36 0 -81.5 2t-120.5 8l6 -70q72 -6 115.5 -8t79.5 -2h13q32 -57 94 -57q38 0 64 21t38 58q77 18 125 51q11 34 16.5 67t5.5 65q0 28 -4 51t-11 46q-6 3 -32 3z" />
</svg>