<?xml version="1.0" standalone="no"?>
<!DOCTYPE svg PUBLIC "-//W3C//DTD SVG 1.1//EN" "http://www.w3.org/Graphics/SVG/1.1/DTD/svg11.dtd">
<svg xmlns="http://www.w3.org/2000/svg" xmlns:xlink="http://www.w3.org/1999/xlink" version="1.1"
   viewBox="94 -151 2414 2169">
   <path fill="currentColor"
      d="M2021 1361q-69 0 -143 -16t-164.5 -53t-207.5 -99q-64 -34 -121 -58t-123 -43.5t-156 -40.5l-431 -385l-310 214l-265 -156v-61l278 -299l-69 -466l234 86l210 354q250 23 434.5 59t320.5 92t240 138t193 197l114 57q101 51 152 120.5t51 143.5q0 64 -33 112.5t-86.5 76
t-117.5 27.5zM703 1978l-301 -98v-101l664 -786l53 46l-641 762l3 20l205 67l875 -716l51 62zM627 621q-24 -37 -68 -77t-91 -68t-80 -29l4 -77q47 1 105.5 32.5t112.5 79.5t87 97zM1653 1512q-40 0 -69.5 -32t-29.5 -75q0 -64 46 -93l-30 -82l108 11v76q24 10 40.5 40
t16.5 66q0 40 -22.5 64.5t-59.5 24.5zM1048 770l-84 -43q-22 -11 -22 -40v-56q0 -11 7.5 -16t17.5 -1l79 31q29 12 31 41l4 64q1 14 -9 20.5t-24 -0.5zM1292 896l-114 -59q-20 -10 -23 -37l-10 -89q-1 -11 7 -17.5t19 -1.5l109 44q25 10 30 40l13 100q2 13 -8 20t-23 0z
M2021 1282q68 0 112.5 -39.5t44.5 -97.5q0 -53 -41 -104t-118 -90l-130 -66q-86 -114 -187 -194t-235.5 -134t-320 -88.5t-441.5 -56.5l-216 -363l-81 -29l48 365l-267 284l1 14l172 102l319 -220l463 413q88 21 154 41t124.5 44.5t121.5 58.5q161 87 270.5 123.5
t206.5 36.5zM1544 1024l-116 -59q-22 -12 -25 -38l-15 -115q-1 -14 8 -20.5t22 -1.5l86 34q18 8 23 25l47 147q5 16 -5 25.5t-25 2.5zM1990 1586q-11 0 -23 -12.5t-12 -31.5q0 -41 26.5 -95.5t72 -103.5t102.5 -73l42 19q-24 85 -64.5 152.5t-80.5 106t-63 38.5zM919 428
l-87 -22l218 -250l-188 -90l-217 181l-50 -50l265 -220l298 142v34zM1749 1041q-43 0 -67 -41l-83 -146q-13 -23 -8.5 -48t26.5 -41l105 -81l189 190q-15 40 -44.5 78.5t-61.5 63.5t-56 25zM2199 1306q-80 0 -80 -82q0 -38 23.5 -69.5t52.5 -31.5q21 0 47 19.5t45 48
t19 57.5q0 25 -30 41.5t-77 16.5zM2268 1189l-56 -31q19 -70 56 -138t78.5 -113t70.5 -45q12 0 18 8t6 19q0 28 -24.5 86.5t-63.5 118.5t-85 95zM1921 854l-64 -48l546 -725q-51 -34 -111.5 -60.5t-110.5 -39.5l-650 577l-46 -53l676 -600q49 0 112.5 23t125 57t101.5 68
l-2 34z" />
</svg>