<?xml version="1.0" standalone="no"?>
<!DOCTYPE svg PUBLIC "-//W3C//DTD SVG 1.1//EN" "http://www.w3.org/Graphics/SVG/1.1/DTD/svg11.dtd">
<svg xmlns="http://www.w3.org/2000/svg" xmlns:xlink="http://www.w3.org/1999/xlink" version="1.1"
   viewBox="94 -151 2414 2169">
   <path fill="currentColor"
      d="M1300 1278q49 0 84 -35l221 -221q18 -18 26.5 -40t8.5 -44q0 -23 -8.5 -44.5t-26.5 -39.5l-221 -221q-35 -35 -84 -35t-84 35l-221 221q-18 18 -26.5 39.5t-8.5 44.5q0 22 8.5 44t26.5 40l221 221q35 35 84 35zM1103 1105v-328l-40 43v245zM1376 1210l28 -28l-349 -348
l-28 28zM1196 1196v-517l-40 43v434zM1300 1238q-15 0 -29.5 -5.5t-26.5 -17.5l-221 -221q-23 -23 -23 -56t23 -56l221 -221q12 -12 26.5 -17.5t29.5 -5.5t29.5 5.5t26.5 17.5l221 221q23 23 23 56t-23 56l-221 221q-12 12 -26.5 17.5t-29.5 5.5zM1461 1127l28 -28
l-350 -350l-28 28zM1280 1258h40v-640h-40v640zM1404 1197l40 -43v-434l-40 -40v517zM1545 1042l28 -28l-349 -348l-28 28zM1497 1099l40 -43v-245l-40 -40v328z" />
</svg>