<?xml version="1.0" standalone="no"?>
<!DOCTYPE svg PUBLIC "-//W3C//DTD SVG 1.1//EN" "http://www.w3.org/Graphics/SVG/1.1/DTD/svg11.dtd">
<svg xmlns="http://www.w3.org/2000/svg" xmlns:xlink="http://www.w3.org/1999/xlink" version="1.1"
   viewBox="94 -151 2414 2169">
   <path fill="currentColor"
      d="M232 941q0 -224 78 -414t219.5 -330.5t331.5 -218t414 -77.5q120 0 228 21.5t209 66.5q-18 12 -35.5 28t-30.5 32q-82 -35 -175.5 -51.5t-200.5 -16.5q-203 0 -377.5 72t-304.5 200.5t-202.5 299.5t-72.5 370q-15 0 -37.5 5t-43.5 13zM1275 1971q-141 0 -275 -33
t-250.5 -96t-207.5 -152q34 7 67 11.5t67 6.5q119 89 273.5 138.5t325.5 49.5q57 0 116 -7t128 -20q5 17 12.5 36t15.5 36q-78 14 -143.5 22t-128.5 8zM732 1632q-183 -7 -322 -60.5t-217 -143.5t-78 -203q0 -98 64 -160.5t163 -62.5q60 0 133 27q37 -92 99.5 -143.5
t137.5 -51.5q68 0 121.5 40t84.5 109.5t31 156.5q0 119 -52.5 237t-164.5 255zM1831 2023q-76 0 -162 -12q-129 -238 -129 -437q0 -99 34.5 -177.5t93.5 -124.5t133 -46q83 0 145.5 61t88.5 174q19 -4 38.5 -6t39.5 -2q107 0 175.5 61.5t68.5 156.5q0 105 -67.5 184
t-186 123.5t-272.5 44.5zM760 677l-56 -48q45 -65 104 -100.5t125 -35.5t125 35.5t104 100.5l-56 48q-69 -104 -173 -104t-173 104zM1275 1237q-92 0 -183.5 -14.5t-181.5 -45.5l14 -79q171 59 351 59q356 0 709 -241l42 68q-372 253 -751 253zM1444 677l-56 -48
q45 -65 104 -100.5t125 -35.5t125 35.5t104 100.5l-56 48q-69 -104 -173 -104t-173 104zM2218 1389q-16 -7 -40 -10.5t-42 -3.5q50 -109 74.5 -215.5t24.5 -221.5q0 -59 -6 -113t-17 -116q20 2 40 3t42 1q11 60 16 113.5t5 111.5q0 116 -22.5 223t-74.5 228zM2282 633
q-188 -7 -326 -59.5t-212.5 -141t-74.5 -203.5q0 -95 61.5 -152.5t161.5 -57.5q65 0 129 24q36 -89 97 -139.5t134 -50.5q66 0 119 39.5t83.5 107t30.5 151.5q0 214 -203 482z" />
</svg>