<?xml version="1.0" standalone="no"?>
<!DOCTYPE svg PUBLIC "-//W3C//DTD SVG 1.1//EN" "http://www.w3.org/Graphics/SVG/1.1/DTD/svg11.dtd">
<svg xmlns="http://www.w3.org/2000/svg" xmlns:xlink="http://www.w3.org/1999/xlink" version="1.1"
   viewBox="94 -151 2414 2169">
   <path fill="currentColor"
      d="M1300 1978q-121 0 -235 -27t-216 -76l112 -39q163 62 339 62q199 0 373 -74.5t306 -206.5t206.5 -306t74.5 -373t-74.5 -373t-206.5 -306t-306 -206.5t-373 -74.5t-373 74.5t-306 206.5t-206.5 306t-74.5 373t76 374t206 306v109q-166 -143 -264 -347.5t-98 -441.5
q0 -216 80.5 -404.5t223.5 -331.5t331.5 -223.5t404.5 -80.5q215 0 403.5 80.5t331.5 223.5t224 331.5t81 404.5t-81 404.5t-224 331.5t-331.5 223.5t-403.5 80.5zM843 1837q83 0 138 -57t55 -144q0 -68 -26.5 -138.5t-61.5 -136.5l-105 -203l-105 203q-34 66 -60.5 136.5
t-26.5 138.5q0 89 53.5 145t138.5 56zM843 1912q-77 0 -137.5 -36t-95 -98.5t-34.5 -141.5q0 -78 30 -159.5t68 -153.5l169 -316l170 316q39 72 68.5 153.5t29.5 159.5q0 79 -35 141.5t-95.5 98.5t-137.5 36zM1300 1456q-69 0 -136.5 -12t-133.5 -37l-55 -113q80 42 160 62
t165 20q211 0 410 -133l44 67q-217 146 -454 146zM948 878q-52 0 -89 -44t-37 -106t37 -106.5t89 -44.5t89 44.5t37 106.5q0 61 -36.5 105.5t-89.5 44.5zM1652 878q-52 0 -89 -44t-37 -106t37 -106.5t89 -44.5t89 44.5t37 106.5q0 61 -36.5 105.5t-89.5 44.5z" />
</svg>