<?xml version="1.0" standalone="no"?>
<!DOCTYPE svg PUBLIC "-//W3C//DTD SVG 1.1//EN" "http://www.w3.org/Graphics/SVG/1.1/DTD/svg11.dtd">
<svg xmlns="http://www.w3.org/2000/svg" xmlns:xlink="http://www.w3.org/1999/xlink" version="1.1"
   viewBox="94 -151 2414 2169">
   <path fill="currentColor"
      d="M1300 1978q-216 0 -404.5 -80.5t-331.5 -223.5t-223.5 -331.5t-80.5 -404.5t80.5 -404.5t223.5 -331.5t331.5 -223.5t404.5 -80.5q215 0 403.5 80.5t331.5 223.5t224 331.5t81 404.5t-81 404.5t-224 331.5t-331.5 223.5t-403.5 80.5zM636 1164q-22 -11 -12 -34l55 -115
q11 -24 34 -12q23 11 12 34l-55 115q-11 24 -34 12zM746 1192q-23 -12 -12 -34l81 -171q11 -24 34 -12t12 34l-81 171q-11 24 -34 12zM882 1164q-22 -11 -12 -34l55 -115q11 -24 34 -12q23 11 12 34l-55 115q-11 24 -34 12zM1300 1516q-183 0 -378 -161l52 -62
q170 143 326 143q152 0 327 -143l50 62q-196 161 -377 161zM748 900l-60 -52q104 -119 240 -119t240 119l-60 52q-81 -91 -180 -91t-180 91zM1300 1898q199 0 373 -74.5t306 -206.5t206.5 -306t74.5 -373t-74.5 -373t-206.5 -306t-306 -206.5t-373 -74.5t-373 74.5
t-306 206.5t-206.5 306t-74.5 373t74.5 373t206.5 306t306 206.5t373 74.5zM706 535l-54 -60q66 -60 159 -88t224 -28v80q-118 0 -196.5 23t-132.5 73zM1641 1164q-22 -11 -12 -34l55 -115q11 -24 34 -12q23 11 12 34l-55 115q-11 24 -34 12zM1751 1192q-23 -12 -12 -34
l81 -171q11 -24 34 -12t12 34l-81 171q-11 24 -34 12zM1887 1164q-22 -11 -12 -34l55 -115q11 -24 34 -12q23 11 12 34l-55 115q-11 24 -34 12zM1492 900l-60 -52q104 -119 240 -119t240 119l-60 52q-81 -91 -180 -91t-180 91zM1894 535q-54 -50 -132.5 -73t-196.5 -23v-80
q131 0 224 28t159 88z" />
</svg>