<?xml version="1.0" standalone="no"?>
<!DOCTYPE svg PUBLIC "-//W3C//DTD SVG 1.1//EN" "http://www.w3.org/Graphics/SVG/1.1/DTD/svg11.dtd">
<svg xmlns="http://www.w3.org/2000/svg" xmlns:xlink="http://www.w3.org/1999/xlink" version="1.1"
   viewBox="94 -151 2414 2169">
   <path fill="currentColor"
      d="M1724 1596q-107 66 -164.5 101.5t-86 52t-49.5 27.5q-94 49 -176.5 75t-156.5 26q-56 0 -140 -26.5t-186 -75.5t-212 -114q-175 -105 -271.5 -223.5t-96.5 -272.5q0 -113 49 -212.5t146 -194.5l45 60q-80 82 -122.5 164.5t-42.5 178.5q0 88 32.5 157t107.5 136t202 148
q86 54 178.5 98.5t174.5 71t136 26.5q65 0 136 -22t158 -71q26 -15 59 -34t89 -52.5t152 -91.5zM1079 736q0 98 -68.5 159t-170.5 61q-100 0 -170 -61.5t-70 -158.5q0 -66 32.5 -120.5t87 -86.5t120.5 -32q53 0 100.5 22t81.5 62l-41 64q-22 -35 -59.5 -56.5t-81.5 -21.5
q-70 0 -120 49.5t-50 119.5q0 67 49 108.5t121 41.5q73 0 121 -40.5t48 -109.5h70zM1120 787q-65 0 -110 -40.5t-45 -104.5t45.5 -110t109.5 -46t110 46t46 110q0 63 -45.5 104t-110.5 41zM1120 722q39 0 65 -22t26 -58q0 -37 -27 -64t-64 -27t-63.5 27t-26.5 64t26 58.5
t64 21.5zM1991 1088q-58 0 -98.5 -40.5t-40.5 -98.5q0 -57 40.5 -98t98.5 -41q57 0 98 41t41 98q0 58 -41 98.5t-98 40.5zM1991 1023q30 0 52 -21.5t22 -52.5q0 -30 -22 -52t-52 -22q-31 0 -52.5 22t-21.5 52q0 31 21.5 52.5t52.5 21.5zM1286 189q86 -44 161 -65t118 -21
q82 0 183 36t202 95.5t185.5 130t136 141.5t51.5 129q0 75 -56 143q-27 33 -75.5 68.5t-89.5 62.5l-46 -66q50 -31 90 -62t58 -53q39 -48 39 -93q0 -44 -48.5 -102.5t-126.5 -119.5t-169.5 -113.5t-179.5 -84.5t-154 -32q-25 0 -103.5 18.5t-172.5 68.5zM1993 1813
q-95 0 -173 -46t-124.5 -124t-46.5 -173q0 -91 58.5 -163t147.5 -114.5t181 -42.5q40 0 79 9t74 29q68 48 107.5 122t39.5 160q0 95 -46.5 173t-124 124t-172.5 46zM1993 1743q75 0 137 -37t99 -99t37 -137q0 -69 -31.5 -128.5t-86.5 -96.5q-28 -13 -57.5 -18t-60.5 -5
q-75 0 -146.5 31.5t-118 87t-46.5 129.5q0 75 37 137t99.5 99t137.5 37zM2148 1213q103 -80 145 -162t42 -195q0 -84 -18.5 -132t-68.5 -112l33 -89q72 91 103 167.5t31 165.5q0 127 -45 223t-149 179zM468 740q-39 -37 -61 -86t-22 -104q0 -65 31 -122t83.5 -96t114.5 -48
l14 68q-70 11 -121.5 69t-51.5 129q0 81 60 138zM949 -32q-86 0 -155 44.5t-109 120t-40 168.5q0 73 32 137t88 108l-55 46q-64 -54 -99.5 -130t-35.5 -161q0 -112 49.5 -203t134.5 -145.5t190 -54.5q106 0 190.5 54.5t134 145.5t49.5 203q0 82 -32.5 155t-90.5 126l-55 -46
q51 -44 79.5 -105t28.5 -130q0 -93 -40 -168.5t-109 -120t-155 -44.5zM308 909q0 -53 35.5 -105.5t106.5 -109.5l236 -188l54 61l-245 194q-52 41 -79.5 78t-27.5 70q0 28 19.5 57.5t56.5 54.5l442 293q43 28 88 41t94 13q121 0 287 -94q92 -53 213 -130.5t295 -192.5l36 71
q-132 89 -220.5 147.5t-149.5 96t-111 63.5q-99 52 -155.5 77.5t-98 33.5t-96.5 8q-60 0 -117 -15.5t-105 -47.5l-450 -301q-53 -36 -80.5 -81t-27.5 -94z" />
</svg>