<?xml version="1.0" standalone="no"?>
<!DOCTYPE svg PUBLIC "-//W3C//DTD SVG 1.1//EN" "http://www.w3.org/Graphics/SVG/1.1/DTD/svg11.dtd">
<svg xmlns="http://www.w3.org/2000/svg" xmlns:xlink="http://www.w3.org/1999/xlink" version="1.1"
   viewBox="94 -151 2414 2169">
   <path fill="currentColor"
      d="M1301 1978q-214 0 -402.5 -81.5t-332 -225t-225 -332t-81.5 -401.5t81.5 -401.5t225 -332t332 -225t402.5 -81.5q213 0 401 81.5t331.5 225t225 332t81.5 401.5t-81.5 401.5t-225 332t-331.5 225t-401 81.5zM1344 1906q20 0 40 -1t40 -3q5 -29 8.5 -59t5.5 -58l62 -26
q14 -6 21.5 -16.5t7.5 -22.5q0 -13 -9 -26t-28 -13q-12 0 -26 6l-27 11q0 -40 -2.5 -78.5t-5.5 -75.5l71 -57q10 -8 14.5 -17t4.5 -19q0 -16 -11 -27.5t-28 -11.5q-15 0 -29 11l-34 26q-8 -53 -21 -103.5t-30 -99.5l78 -74q14 -13 14 -30q0 -16 -12 -29.5t-28 -13.5
q-20 0 -39 19l-47 48q-24 -52 -55 -102.5t-71 -100.5l52 -106q11 -23 0 -41.5t-34 -18.5q-12 0 -22.5 8t-17.5 22l-34 69q-34 -39 -80 -82.5t-87 -74.5l3 -91q2 -49 -40 -49q-18 0 -29 12.5t-12 34.5l-1 40q-58 -35 -115.5 -56.5t-112.5 -29.5l-21 -81q-4 -17 -16 -26.5
t-26 -9.5q-20 0 -31.5 16.5t-4.5 41.5l15 56q-67 4 -129 33t-117 79q-6 28 -13.5 71t-11.5 80q36 -54 75 -91.5t82.5 -59.5t89.5 -29l-28 42q-11 15 -11 34q0 16 10 26.5t28 10.5q20 0 31 -16l68 -97q49 7 102 28t107 55l-61 47q-24 19 -24 39q0 13 11 25.5t28 12.5
q13 0 24 -8l91 -69q35 28 72.5 63.5t64.5 65.5l-55 12q-41 9 -41 40q0 19 14 31t32 8l109 -23q35 45 64.5 91t51.5 93l-64 -7q-23 -2 -38.5 9t-15.5 31q0 15 10 25.5t25 12.5l118 13q17 46 29 95t19 101l-46 -11q-25 -6 -42 4t-17 33q0 31 29 37l86 21q3 33 5.5 68t2.5 71
l-25 -14q-7 -5 -14.5 -7t-15.5 -2q-16 0 -27.5 12t-11.5 29q0 21 19 32l74 42q-1 30 -5 60.5t-9 59.5zM2279 987v-47t-2 -47q-46 -31 -93.5 -63.5t-95.5 -66.5l32 -17q27 -14 27 -39q0 -20 -18.5 -33.5t-40.5 -1.5l-71 39q-43 -32 -85 -64t-83 -64l50 -19q32 -13 32 -40
q0 -21 -16.5 -33t-41.5 -2l-95 38q-46 -38 -91 -75t-88 -74l50 -16q34 -11 34 -40q0 -17 -16 -30.5t-39 -6.5l-101 31q-34 -30 -66.5 -60t-62.5 -58l14 -1q45 -3 45 -40q0 -17 -13 -29.5t-34 -10.5l-89 6q-41 -41 -76 -79t-63 -71q-23 3 -45.5 7.5t-42.5 10.5
q32 40 73.5 85.5t90.5 95.5l-34 72q-10 22 0.5 42t32.5 20q12 0 22.5 -7.5t16.5 -20.5l22 -47q36 34 74.5 69.5t79.5 72.5l-24 108q-5 24 6 39.5t33 15.5q15 0 26.5 -10.5t15.5 -29.5l13 -63q44 38 90 77t94 77l-13 108q-3 23 7.5 38.5t29.5 15.5q17 0 28.5 -11.5
t13.5 -31.5l7 -61q42 33 84.5 65t85.5 64v91q0 21 9 33.5t27 12.5q40 0 40 -48v-34q59 42 117.5 81.5t116.5 76.5z" />
</svg>