<?xml version="1.0" standalone="no"?>
<!DOCTYPE svg PUBLIC "-//W3C//DTD SVG 1.1//EN" "http://www.w3.org/Graphics/SVG/1.1/DTD/svg11.dtd">
<svg xmlns="http://www.w3.org/2000/svg" xmlns:xlink="http://www.w3.org/1999/xlink" version="1.1"
   viewBox="94 -151 2414 2169">
   <path fill="currentColor"
      d="M425 1978q-67 0 -116 -49t-49 -116v-1751q0 -68 49 -116t117 -48h1749q68 0 116.5 48.5t48.5 116.5v1750q0 67 -48.5 116t-116.5 49h-1750zM532 1787q84 0 129.5 -37.5t45.5 -99.5q0 -56 -30 -87t-86 -56q-44 -20 -66 -35.5t-22 -38.5q0 -22 15 -35t43 -13q27 0 53 7
t59 21l32 -79q-37 -16 -70.5 -24.5t-70.5 -8.5q-73 0 -116.5 35.5t-43.5 99.5t40 94.5t72 46.5q39 19 66 36.5t27 40.5q0 22 -16 36t-53 14q-35 0 -71 -12t-70 -26v92q29 14 63 21.5t70 7.5zM976 1787q116 0 170.5 -67.5t54.5 -176.5q0 -110 -54.5 -176.5t-169.5 -66.5
q-116 0 -171 66.5t-55 176.5q0 109 55 176.5t170 67.5zM976 1703q-62 0 -90.5 -42.5t-28.5 -117.5q0 -74 28.5 -116.5t91.5 -42.5q64 0 92 42.5t28 116.5q0 75 -28 117.5t-93 42.5zM1485 1787q116 0 170.5 -67.5t54.5 -176.5q0 -110 -54.5 -176.5t-170.5 -66.5t-170.5 66.5
t-54.5 176.5q0 109 54.5 176.5t170.5 67.5zM1485 1703q-64 0 -92.5 -42.5t-28.5 -117.5q0 -74 28.5 -116.5t92.5 -42.5t91.5 42.5t27.5 116.5q0 75 -27.5 117.5t-91.5 42.5zM1775 1780h90v-222q0 -34 -1.5 -67.5t-4.5 -67.5h3l205 357h127v-472h-89v223q0 33 1 65.5t3 65.5
h-2l-205 -354h-127v472zM1541 1022l462 -433l-462 -433v314h-952v238h952v314z" />
</svg>