<?xml version="1.0" standalone="no"?>
<!DOCTYPE svg PUBLIC "-//W3C//DTD SVG 1.1//EN" "http://www.w3.org/Graphics/SVG/1.1/DTD/svg11.dtd">
<svg xmlns="http://www.w3.org/2000/svg" xmlns:xlink="http://www.w3.org/1999/xlink" version="1.1"
   viewBox="94 -151 2414 2169">
   <path fill="currentColor"
      d="M426 1978q-68 0 -117 -48.5t-49 -115.5v-1751q0 -68 49 -116.5t116 -48.5h1750q68 0 116.5 48.5t48.5 116.5v1750q0 67 -48.5 116t-116.5 49h-1749zM635 1408q121 0 193.5 -77.5t72.5 -199.5q0 -89 -42 -149.5t-128 -108.5q-78 -44 -102 -72.5t-24 -76.5
q0 -39 22.5 -63.5t65.5 -24.5q74 0 157 53l48 -155q-49 -27 -101.5 -41.5t-108.5 -14.5q-121 0 -189.5 69.5t-68.5 184.5q0 108 47 163t126 103q76 46 99 76.5t23 74.5q0 41 -25 70t-74 29q-46 0 -99 -17t-102 -49v177q50 27 101 38t109 11zM1299 1408q109 0 179.5 -56.5
t105.5 -161t35 -248.5q0 -145 -34.5 -249t-105.5 -160t-180 -56q-157 0 -240 117.5t-83 346.5q0 143 35.5 248t107 162t180.5 57zM1299 1255q-143 0 -143 -313q0 -314 143 -314q70 0 105 78t35 236q0 159 -35 236t-105 77zM1910 1408q121 0 193 -77.5t72 -199.5
q0 -89 -41.5 -149t-127.5 -109q-78 -44 -102.5 -72.5t-24.5 -76.5q0 -39 23 -63.5t68 -24.5q34 0 73 12.5t83 40.5l47 -155q-49 -27 -102 -41.5t-108 -14.5q-121 0 -189.5 69.5t-68.5 184.5q0 108 46.5 163.5t126.5 102.5q77 45 99.5 76t22.5 75q0 41 -24.5 70t-74.5 29
q-46 0 -99 -17t-103 -49v177q52 27 103 38t108 11z" />
</svg>