<?xml version="1.0" standalone="no"?>
<!DOCTYPE svg PUBLIC "-//W3C//DTD SVG 1.1//EN" "http://www.w3.org/Graphics/SVG/1.1/DTD/svg11.dtd">
<svg xmlns="http://www.w3.org/2000/svg" xmlns:xlink="http://www.w3.org/1999/xlink" version="1.1"
   viewBox="94 -151 2414 2169">
   <path fill="currentColor"
      d="M772 1978q-28 0 -45.5 -18t-17.5 -48q0 -34 24 -67t72.5 -65.5t119.5 -63.5q57 -25 113.5 -60t94.5 -86.5t38 -123.5q0 -22 -5 -50q-66 55 -125 88.5t-119 48t-131 14.5q-125 0 -220 -51t-148 -143t-53 -214q0 -103 44.5 -216t133.5 -240.5t222 -271.5q50 -55 120 -125.5
t146.5 -144.5t145.5 -138t118 -105q49 41 118 105t145.5 138t146.5 144.5t120 125.5q133 144 222 271.5t133.5 240.5t44.5 216q0 122 -53 214t-148 143t-220 51q-70 0 -130.5 -14.5t-119.5 -48t-125 -88.5q-5 28 -5 50q0 72 38 123.5t95 86.5t113 60q72 31 120 63.5t72 65.5
t24 67q0 30 -17 48t-46 18h-1056z" />
</svg>