<?xml version="1.0" standalone="no"?>
<!DOCTYPE svg PUBLIC "-//W3C//DTD SVG 1.1//EN" "http://www.w3.org/Graphics/SVG/1.1/DTD/svg11.dtd">
<svg xmlns="http://www.w3.org/2000/svg" xmlns:xlink="http://www.w3.org/1999/xlink" version="1.1"
   viewBox="94 -151 2414 2169">
   <path fill="currentColor"
      d="M434 1978q-71 0 -122.5 -51t-51.5 -121v-1735q0 -71 51 -122t122 -51h1734q71 0 122 51t51 122v1734q0 71 -51 122t-122 51h-1733zM1264 1978h120v-854l457 637l-219 -6l-2 61l242 6l-25 93l58 15l16 -59l37 67l53 -29l-53 -95l204 -41l-12 -58l-199 39l64 -324l-58 -12
l-62 300l-445 -620l399 240l31 -51l-405 -245l628 76l-93 121l48 36l97 -125l47 89l52 -27l-47 -90l76 -3l-3 -60l-104 5l-61 -117l-52 29l43 82l-614 -74l538 -151l-50 105l54 25l60 -126l92 88l42 -44l-73 -68l111 -7l-3 -60l-122 7l89 -146l-50 -31l-106 172l-163 -83
l-27 54l120 60l-531 149l442 -354l-37 -46l-404 321l355 -526l204 27l7 -60l-132 -17l210 -121l-30 -53l-237 136l21 -194l-60 -6l-18 166l-83 -134l-51 32l94 150l-100 -19l-10 59l120 23l-392 581l21 -658l120 64l29 -52l-124 -66l188 -157l-39 -46l-179 148l-15 -147
l-60 6l15 143l-123 -76l-32 51l160 99l-19 655l-273 -654l145 82l30 -52l-190 -108l107 -122l-45 -39l-100 114l-47 -113l-56 24l49 113l-244 -10l-3 60l257 10l-42 240l58 10l31 -172l257 615l-497 -530l-44 40l495 529l-587 -294l104 -19l-11 -59l-149 28l19 -150l-60 -7
l-20 148l-39 -16l-81 -38l-25 54l119 56l-113 116l44 42l105 -108l33 133l59 -15l-31 -121l628 314l-485 -25l72 -51l-34 -49l-100 71l-7 -90l-60 5l8 108l-181 -1l-1 60l179 2l-16 100l58 10l16 -90l95 60l32 -51l-35 -22l448 23l-718 253l19 57l745 -262l-469 494l23 -141
l-60 -9l-28 174l-148 -164l-46 40l172 190l-155 134l39 45l152 -132l119 176l49 -33l-112 -168l224 -47l-12 -58l-174 36l468 -499v874z" />
</svg>