<?xml version="1.0" standalone="no"?>
<!DOCTYPE svg PUBLIC "-//W3C//DTD SVG 1.1//EN" "http://www.w3.org/Graphics/SVG/1.1/DTD/svg11.dtd">
<svg xmlns="http://www.w3.org/2000/svg" xmlns:xlink="http://www.w3.org/1999/xlink" version="1.1"
   viewBox="94 -151 2414 2169">
   <path fill="currentColor"
      d="M2093 1505q-111 0 -252.5 -58t-294 -163.5t-300.5 -249.5q-160 -157 -276.5 -315t-179 -303t-62.5 -261q0 -120 67 -188q68 -69 185 -69q113 0 253 55.5t288.5 156t287.5 236.5q157 152 274.5 318t183 322t65.5 279q0 114 -63 177t-176 63zM1216 1686
q-104 -32 -210 -91.5t-200 -140t-165.5 -177.5t-106.5 -205l65 -61q27 108 95 205t161.5 177.5t200 138t210.5 86.5zM865 1978q-84 0 -177 -45.5t-195 -136.5q-112 -100 -168.5 -195t-56.5 -184q0 -57 24 -111t70 -105l97 -107q102 -113 167.5 -204t102.5 -171.5t51.5 -162
t14.5 -174.5l82 11q0 103 -17 191.5t-58 174.5t-110.5 180.5t-174.5 210.5l-96 106q-36 40 -54.5 81t-18.5 84q0 70 49.5 148.5t149.5 167.5q92 81 171.5 122t145.5 41q49 0 92 -21.5t82 -64.5l96 -106q92 -102 187.5 -173.5t204 -118.5t240.5 -73l58 75q-140 24 -246 64.5
t-197 107t-186 170.5l-99 108q-49 55 -107 82.5t-124 27.5zM1451 1112l186 -263q12 -17 12 -43q0 -48 -37.5 -100.5t-92 -88.5t-104.5 -36q-29 0 -51 15l-252 174q75 95 159 180t180 162z" />
</svg>