<?xml version="1.0" standalone="no"?>
<!DOCTYPE svg PUBLIC "-//W3C//DTD SVG 1.1//EN" "http://www.w3.org/Graphics/SVG/1.1/DTD/svg11.dtd">
<svg xmlns="http://www.w3.org/2000/svg" xmlns:xlink="http://www.w3.org/1999/xlink" version="1.1"
   viewBox="94 -151 2414 2169">
   <path fill="currentColor"
      d="M736 1978q6 -44 9.5 -99t3.5 -141q0 -44 -15.5 -84.5t-54.5 -92.5t-109 -128q-110 -120 -178.5 -233t-100 -231.5t-31.5 -255.5q0 -248 90.5 -431t270 -283.5t446.5 -100.5q227 0 391.5 72.5t253 204.5t88.5 312q0 53 -9 104.5t-9 82.5q0 41 23 69t53.5 52.5t53.5 52
t23 66.5q0 32 -17 49.5t-34 30t-17 29.5q0 10 10.5 28.5t10.5 37.5q0 27 -28.5 56.5t-96.5 57.5q50 0 83.5 19t33.5 53q0 31 -20 57t-20 41q0 12 10 37.5t10 60.5q0 67 -55.5 115t-153.5 58q-46 4 -83.5 9.5t-82.5 14.5q-5 40 -9 111.5t-4 133.5v34t1 31h-737zM823 1903h569
q0 -54 3 -116t8.5 -113t10.5 -71q74 -13 121 -20t110 -13q62 -6 98.5 -31.5t36.5 -67.5q0 -20 -10 -48t-10 -50q0 -19 17 -39.5t17 -40.5q0 -11 -17.5 -14.5t-47.5 -3.5q-28 0 -57 -17t-49 -70l114 -46q41 -17 56 -27t15 -28q0 -15 -10.5 -31.5t-10.5 -32.5q0 -26 17 -44
t34 -33t17 -31q0 -21 -23 -42.5t-53.5 -48.5t-53.5 -63.5t-23 -86.5q0 -49 9.5 -95t9.5 -92q0 -160 -78.5 -275t-224.5 -177t-351 -62q-247 0 -408 90t-240 255.5t-79 394.5q0 130 29.5 241t93.5 216t169 219q113 121 155 196.5t42 151.5q0 50 -2 98t-4 68zM2226 1524
l-201 -156q-24 -19 -10 -44q13 -23 42 -12l236 96q17 7 22.5 23t-3.5 33l-27 49q-9 16 -26.5 19t-32.5 -8zM2296 1240l-253 -34q-31 -3 -31 -32t31 -32l253 -35q18 -2 31 9t13 29v57q0 19 -13 29.5t-31 8.5zM2057 1049q-28 11 -42 -12q-15 -25 10 -43l201 -156
q15 -12 32.5 -8.5t26.5 19.5l27 49q9 16 3.5 32t-22.5 24z" />
</svg>