<?xml version="1.0" standalone="no"?>
<!DOCTYPE svg PUBLIC "-//W3C//DTD SVG 1.1//EN" "http://www.w3.org/Graphics/SVG/1.1/DTD/svg11.dtd">
<svg xmlns="http://www.w3.org/2000/svg" xmlns:xlink="http://www.w3.org/1999/xlink" version="1.1"
   viewBox="94 -151 2414 2169">
   <path fill="currentColor"
      d="M1974 1523q-107 0 -243 -55.5t-282.5 -157t-288.5 -239.5q-154 -151 -266 -303t-172 -291.5t-60 -250.5q0 -116 64 -181q65 -66 178 -66q109 0 243.5 53.5t277.5 150t276 226.5q151 147 263.5 306.5t175.5 309.5t63 268q0 109 -60 169.5t-169 60.5zM1128 1700
q-99 -31 -200.5 -88t-192 -135t-159.5 -171t-104 -196l67 -62q26 103 91.5 196.5t155.5 171t192 133t202 82.5zM793 1978q-80 0 -169.5 -44t-187.5 -131q-108 -96 -162 -187.5t-54 -176.5q0 -55 22.5 -107t67.5 -101l93 -103q98 -109 161 -196.5t98.5 -165t49.5 -155
t14 -167.5l79 11q0 99 -16.5 184t-55.5 168t-105.5 174t-167.5 203l-92 102q-35 39 -53.5 77.5t-18.5 79.5q0 67 49 141t145 160q88 78 163.5 118.5t138.5 40.5q47 0 87.5 -21.5t77.5 -63.5l92 -102q89 -98 181 -166t197.5 -112.5t231.5 -69.5l56 72q-134 23 -236 62
t-189.5 103t-178.5 163l-96 104q-48 52 -103 79t-119 27zM1357 1146l178 -253q12 -17 12 -41q0 -47 -36 -97t-88.5 -85t-100.5 -35q-29 0 -49 15l-242 167q72 91 153 173t173 156zM2102 666l-73 -26q12 -50 12 -81q0 -96 -53.5 -179t-140.5 -133.5t-189 -50.5q-13 0 -26 1
t-27 3l-15 -76q14 -3 31 -4.5t36 -1.5q92 0 175 35t147.5 96.5t101.5 140t37 165.5q0 59 -16 111zM2281 931l-66 -37q44 -83 66 -170.5t22 -173.5q0 -132 -48.5 -246t-136 -199t-203.5 -132.5t-251 -47.5q-67 0 -139 13t-133 37l-27 -72q70 -28 149.5 -41.5t152.5 -13.5
q150 0 279.5 53.5t227 149.5t152 223.5t54.5 274.5q0 97 -24.5 193t-74.5 189z" />
</svg>