<?xml version="1.0" standalone="no"?>
<!DOCTYPE svg PUBLIC "-//W3C//DTD SVG 1.1//EN" "http://www.w3.org/Graphics/SVG/1.1/DTD/svg11.dtd">
<svg xmlns="http://www.w3.org/2000/svg" xmlns:xlink="http://www.w3.org/1999/xlink" version="1.1"
   viewBox="94 -151 2414 2169">
   <path fill="currentColor"
      d="M230 1878v-1830h2140v1830h-2140zM583 1576h162v-131h-162v131zM583 1395h162v-132h-162v132zM795 1576h161v-131h-161v131zM583 1213h162v-131h-162v131zM795 1395h161v-132h-161v132zM1007 1576h161v-131h-161v131zM583 1031h162v-131h-162v131zM795 1213h161v-131
h-161v131zM1007 1395h161v-132h-161v132zM1219 1576h161v-131h-161v131zM583 849h162v-131h-162v131zM795 1031h161v-131h-161v131zM1007 1213h161v-131h-161v131zM1219 1395h161v-132h-161v132zM1431 1576h161v-131h-161v131zM795 849h161v-131h-161v131zM1007 1031h161
v-131h-161v131zM534 1627v-959h1531v959h-1531zM1219 1213h161v-131h-161v131zM1431 1395h161v-132h-161v132zM1642 1576h161v-131h-161v131zM530 350q-31 0 -53 -22t-22 -53q0 -30 22.5 -52t52.5 -22q32 0 53.5 22t21.5 52q0 32 -21.5 53.5t-53.5 21.5zM1007 849h161v-131
h-161v131zM1219 1031h161v-131h-161v131zM310 1798h1980v-1670h-1980v1670zM1431 1213h161v-131h-161v131zM1642 1395h161v-132h-161v132zM1854 1576h161v-131h-161v131zM1219 849h161v-131h-161v131zM830 350q-31 0 -53 -22t-22 -53q0 -30 22.5 -52t52.5 -22q32 0 53.5 22
t21.5 52q0 32 -21.5 53.5t-53.5 21.5zM1431 1031h161v-131h-161v131zM502 237q-5 -18 -7 -38t-2 -43q0 -125 40.5 -191.5t115.5 -66.5q64 0 108 53t41 143h-63q2 -66 -21 -101t-64 -35q-52 0 -73.5 51.5t-21.5 140.5q0 22 3 44.5t7 45.5zM1642 1213h161v-131h-161v131z
M1854 1395h161v-132h-161v132zM1431 849h161v-131h-161v131zM1642 1031h161v-131h-161v131zM1854 1213h161v-131h-161v131zM272 521v-80h2049v80h-2049zM1130 350q-31 0 -53 -22t-22 -53q0 -30 22.5 -52t52.5 -22q32 0 53.5 22t21.5 52q0 32 -21.5 53.5t-53.5 21.5zM802 237
q-5 -18 -7 -38t-2 -43q0 -125 40.5 -191.5t115.5 -66.5q64 0 108 53t41 143h-63q2 -66 -21 -101t-64 -35q-52 0 -73.5 51.5t-21.5 140.5q0 22 3 44.5t7 45.5zM1642 849h161v-131h-161v131zM1854 1031h161v-131h-161v131zM1430 350q-31 0 -53 -22t-22 -53q0 -30 22.5 -52
t52.5 -22q32 0 53.5 22t21.5 52q0 32 -21.5 53.5t-53.5 21.5zM1854 849h161v-131h-161v131zM1102 237q-5 -18 -7 -38t-2 -43q0 -125 40.5 -191.5t115.5 -66.5q64 0 108 53t41 143h-63q2 -66 -21 -101t-64 -35q-52 0 -73.5 51.5t-21.5 140.5q0 22 3 44.5t7 45.5zM1730 350
q-31 0 -53 -22t-22 -53q0 -30 22.5 -52t52.5 -22q32 0 53.5 22t21.5 52q0 32 -21.5 53.5t-53.5 21.5zM1402 237q-5 -18 -7 -38t-2 -43q0 -125 40.5 -191.5t115.5 -66.5q64 0 108 53t41 143h-63q2 -66 -21 -101t-64 -35q-52 0 -73.5 51.5t-21.5 140.5q0 22 3 44.5t7 45.5z
M2030 350q-31 0 -53 -22t-22 -53q0 -30 22.5 -52t52.5 -22q32 0 53.5 22t21.5 52q0 32 -21.5 53.5t-53.5 21.5zM1702 237q-5 -18 -7 -38t-2 -43q0 -125 40.5 -191.5t115.5 -66.5q64 0 108 53t41 143h-63q2 -66 -21 -101t-64 -35q-52 0 -73.5 51.5t-21.5 140.5q0 22 3 44.5
t7 45.5zM2002 237q-5 -18 -7 -38t-2 -43q0 -125 40.5 -191.5t115.5 -66.5q64 0 108 53t41 143h-63q2 -66 -21 -101t-64 -35q-52 0 -73.5 51.5t-21.5 140.5q0 22 3 44.5t7 45.5z" />
</svg>