<?xml version="1.0" standalone="no"?>
<!DOCTYPE svg PUBLIC "-//W3C//DTD SVG 1.1//EN" "http://www.w3.org/Graphics/SVG/1.1/DTD/svg11.dtd">
<svg xmlns="http://www.w3.org/2000/svg" xmlns:xlink="http://www.w3.org/1999/xlink" version="1.1"
   viewBox="94 -151 2414 2169">
   <path fill="currentColor"
      d="M450 1978v-1910h1700v1434l-487 476h-1213zM530 1898h1101v-430h439v-1320h-1540v1750zM742 394q-33 0 -57 -24t-24 -58q0 -32 24 -56t57 -24q34 0 57.5 23.5t23.5 56.5q0 34 -23.5 58t-57.5 24zM1073 394q-33 0 -57.5 -24t-24.5 -58q0 -32 24.5 -56t57.5 -24
q34 0 57.5 23.5t23.5 56.5q0 34 -23.5 58t-57.5 24zM710 298q-18 -53 -18 -118q0 -121 60.5 -201.5t154.5 -80.5q147 0 201 184l-83 4q-7 -57 -41 -89t-75 -32q-66 0 -108 63t-42 152q0 25 5 49.5t11 45.5zM1404 394q-33 0 -57 -24t-24 -58q0 -32 24 -56t57 -24
q34 0 57.5 24t23.5 56q0 34 -23.5 58t-57.5 24zM1041 298q-19 -55 -19 -118q0 -121 61 -201.5t155 -80.5q147 0 201 184l-83 4q-7 -57 -40.5 -89t-76.5 -32q-65 0 -107 63t-42 152q0 25 5 49.5t11 45.5zM1735 394q-33 0 -57 -24t-24 -58q0 -32 24 -56t57 -24q34 0 57.5 24
t23.5 56q0 34 -23.5 58t-57.5 24zM1372 298q-18 -57 -18 -118q0 -121 61 -201.5t155 -80.5q146 0 200 184l-83 4q-7 -57 -40.5 -89t-75.5 -32q-66 0 -108 63t-42 152q0 25 5 49.5t11 45.5zM1703 298q-18 -57 -18 -118q0 -121 61 -201.5t155 -80.5q75 0 128 50.5t76 155.5
l-87 -18q-7 -57 -40.5 -89t-75.5 -32q-66 0 -108 63t-42 152q0 25 5.5 49.5t11.5 45.5zM714 1978v-80h1356v-1637h80v1717h-1436zM1706 1831l295 -293h-295v293zM490 611v-58h1611v58h-1611zM490 887v-58h1611l5 58h-1616zM490 1163v-58h1616v58h-1616zM490 1439v-58h1616
v58h-1616zM490 1716v-59h1175v59h-1175z" />
</svg>