<?xml version="1.0" standalone="no"?>
<!DOCTYPE svg PUBLIC "-//W3C//DTD SVG 1.1//EN" "http://www.w3.org/Graphics/SVG/1.1/DTD/svg11.dtd">
<svg xmlns="http://www.w3.org/2000/svg" xmlns:xlink="http://www.w3.org/1999/xlink" version="1.1"
   viewBox="94 -151 2414 2169">
   <path fill="currentColor"
      d="M1781 1084l-29 -67q65 -28 125.5 -41t168.5 -20q79 -6 145.5 -43.5t107.5 -94.5t41 -120q0 -79 -82 -156t-220.5 -140t-310.5 -102.5t-352 -42.5q-16 55 -59 87t-105 32q-24 0 -47 -6q-59 37 -106 137q-23 50 -70.5 86.5t-127.5 67.5l-27 -68q68 -26 105.5 -53t53.5 -63
q33 -71 78 -121.5t91 -66.5q11 6 25.5 9.5t24.5 3.5q54 0 75.5 -32.5t21.5 -84.5q6 -1 17 -1h17q207 0 399 42.5t344 115.5t240.5 165t88.5 191q0 83 -49.5 156t-132.5 120.5t-182 55.5q-102 7 -156 18t-113 36zM889 1735q-27 0 -46 -24.5t-19 -55.5q0 -24 14 -41.5
t36 -17.5q26 0 45 25t19 55q0 24 -13.5 41.5t-35.5 17.5zM633 1491q-46 0 -74 -40t-28 -99v-9.5t1 -8.5q54 -38 126 -38q41 0 69.5 20t28.5 53q0 47 -37.5 84.5t-85.5 37.5zM545 1383q-158 -66 -242.5 -159t-84.5 -202q0 -75 40 -141t113 -112l39 62q-57 37 -87.5 86
t-30.5 105q0 85 73 160.5t210 134.5zM1175 1975q-115 0 -192 -32t-128 -60q-43 -24 -62 -31.5t-36 -7.5q-18 0 -39 17t-50 17q-61 0 -135.5 -36t-142 -92t-111 -118t-43.5 -113q0 -30 14.5 -46t29 -27.5t14.5 -25.5q0 -19 -24.5 -38t-51.5 -23v-329h74v285q35 19 57.5 48
t22.5 57q0 29 -15.5 43.5t-31 26.5t-15.5 34q0 34 38.5 81.5t96 93t118 75.5t105.5 30q29 0 44.5 -17t44.5 -17q35 0 68 15t65 33q52 28 118 55.5t167 27.5q199 0 298 -94l51 54q-120 114 -349 114zM1063 1323q-52 0 -88 -21.5t-36 -58.5q0 -40 44.5 -66.5t102.5 -26.5
q52 0 88 23t36 61t-44.5 63.5t-102.5 25.5zM1073 1528q-82 0 -181 -22.5t-190 -60.5l30 -67q84 36 174.5 56t166.5 20q102 0 175 -34t128 -106q141 -186 218 -224l31 67q-31 15 -79 65t-112 136q-126 170 -361 170zM612 985q-78 0 -142.5 -38.5t-102.5 -102.5t-38 -142
t38.5 -142t103 -102t141.5 -38q78 0 142 38t102.5 102t38.5 142t-38 142.5t-102.5 102.5t-142.5 38zM612 911q87 0 148 -61t61 -148q0 -58 -28.5 -105t-75.5 -75t-105 -28q-57 0 -104.5 28t-76 75t-28.5 105q0 87 61 148t148 61zM1595 1892q-70 0 -129 -35t-94 -93.5
t-35 -128.5q0 -71 34.5 -129.5t93.5 -93.5t130 -35t129.5 35t93.5 93t35 129t-34.5 129.5t-93 93.5t-130.5 35zM1595 1818q77 0 130.5 -54t53.5 -130t-54 -129.5t-130 -53.5t-130 53.5t-54 130.5q0 76 54 129.5t130 53.5zM1818 1978q-63 0 -109 -41.5t-52 -102.5l72 -11
q3 34 29 58t60 24q37 0 63 -26t26 -63q0 -35 -24.5 -61.5t-59.5 -27.5l-1 -73q66 1 112 48t46 114t-47 114.5t-115 47.5zM1177 929q-61 0 -103.5 -22.5t-42.5 -61.5q0 -42 54 -70.5t122 -28.5q62 0 104 22.5t42 60.5q0 43 -52.5 71.5t-123.5 28.5zM1688 1187
q-29 0 -65.5 -17t-63.5 -42t-27 -48q0 -42 36.5 -63t94.5 -21q40 0 82 9t56 23q3 10 3 22q0 50 -35.5 93.5t-80.5 43.5zM761 326q-88 0 -151 -62.5t-63 -151.5t62.5 -151.5t151.5 -62.5q90 0 153 62.5t63 151.5q0 88 -63.5 151t-152.5 63zM761 253q59 0 100.5 -41.5
t41.5 -99.5q0 -59 -41.5 -100t-100.5 -41q-58 0 -99 41t-41 100q0 58 41 99.5t99 41.5zM1914 1272q-19 0 -31 -16t-12 -41q0 -34 20.5 -62.5t46.5 -28.5q20 0 31.5 16t11.5 40q0 34 -20 63t-47 29zM1331 540q-39 0 -65.5 -15.5t-26.5 -42.5q0 -29 33 -47.5t76 -18.5
q38 0 65 15.5t27 42.5q0 29 -32.5 47.5t-76.5 18.5zM1787 1528l-37 -62q83 -47 166.5 -73.5t135.5 -30.5q41 -4 62.5 -8t34.5 -9q8 -44 40.5 -74.5t73.5 -30.5q20 0 42 7.5t36 22.5l-39 -5q17 -9 27.5 -31t10.5 -53v-453l74 -30v483q0 56 -26 99t-70 55q-18 -21 -51 -21
q-18 0 -32 16.5t-14 39.5q0 11 3 17q-24 20 -57 30.5t-107 18.5q-61 7 -136 32t-137 60zM1748 571q-39 0 -66 -16t-27 -43q0 -29 33 -48.5t76 -19.5q37 0 64 16.5t27 42.5q0 28 -32.5 48t-74.5 20zM2049 846q-47 0 -80.5 -20.5t-33.5 -54.5q0 -33 36.5 -55.5t85.5 -22.5
q47 0 80.5 19.5t33.5 53.5t-36 57t-86 23zM362 675q-73 0 -124.5 -51.5t-51.5 -125.5q0 -73 51.5 -124t124.5 -51q70 0 120.5 46.5t55.5 114.5l-73 6q-4 -40 -33 -67t-70 -27q-42 0 -72.5 30t-30.5 72q0 43 30 73t73 30v74z" />
</svg>