<?xml version="1.0" standalone="no"?>
<!DOCTYPE svg PUBLIC "-//W3C//DTD SVG 1.1//EN" "http://www.w3.org/Graphics/SVG/1.1/DTD/svg11.dtd">
<svg xmlns="http://www.w3.org/2000/svg" xmlns:xlink="http://www.w3.org/1999/xlink" version="1.1"
   viewBox="94 -151 2414 2169">
   <path fill="currentColor"
      d="M2318 1448l-113 -1205q-1 -15 -17 -15h-1051l-470 548l-396 26q-20 1 -30 10t-10 23v590h-80v-590q0 -50 33.5 -80t81.5 -33l362 -24l472 -550h1088q38 0 65.5 24.5t31.5 62.5l113 1206zM632 1728q-70 0 -127.5 -34t-91.5 -92t-34 -128q0 -69 34 -126.5t91.5 -91.5
t127.5 -34t127.5 34t92 91.5t34.5 126.5q0 70 -34.5 128t-92 92t-127.5 34zM632 1638q68 0 116 -48t48 -116q0 -67 -48 -114.5t-116 -47.5q-67 0 -115 47.5t-48 114.5q0 68 47.5 116t115.5 48zM100 1530v-107q0 -26 17.5 -43t42.5 -17h169q42 -92 128 -146t185 -54
q97 0 182.5 57.5t129.5 170.5h599q40 -122 130.5 -188t199.5 -66q113 0 198 59.5t134 166.5h157q25 0 39 16t14 42v109h-296l-83 -197l-159 -98l-145 111l-70 180h-815l-59 -199l-157 -98l-155 105l-84 196h-302zM836 796q-16 0 -18.5 -12.5t10.5 -27.5l312 -360
q26 -31 53 -47t54 -16h350q15 0 25.5 11t10.5 27v389q0 15 -10.5 25.5t-26.5 10.5h-760zM1025 718h510q20 0 20 -20v-267q0 -20 -20 -20h-288q-18 0 -48 36l-195 225q-13 14 -5.5 30t26.5 16zM1760 796q-16 0 -26.5 -10.5t-10.5 -25.5v-389q0 -16 10.5 -27t25.5 -11h315
q14 0 24.5 10.5t11.5 27.5l36 369q6 56 -48 56h-338zM1821 718h221q23 0 21 -23l-26 -266q-2 -18 -20 -18h-196q-20 0 -20 20v267q0 20 20 20zM2322 1184l-57 -490h123q36 0 59.5 22.5t26.5 57.5l26 307q4 44 -23 73.5t-70 29.5h-85zM1894 1728q-70 0 -127.5 -34t-91.5 -92
t-34 -128q0 -69 34 -126.5t91.5 -91.5t127.5 -34t127.5 34t92 91.5t34.5 126.5q0 70 -34.5 128t-92 92t-127.5 34zM1894 1638q68 0 116 -48t48 -116q0 -67 -48 -114.5t-116 -47.5q-67 0 -115 47.5t-48 114.5q0 68 47.5 116t115.5 48zM218 1154l-16 -64l132 -32l24 -83
q3 -11 -2.5 -18.5t-16.5 -7.5h-134v-66h171q32 0 47 28t4 63l-40 139zM2174 1080v-214h112l10 214h-122z" />
</svg>