<?xml version="1.0" standalone="no"?>
<!DOCTYPE svg PUBLIC "-//W3C//DTD SVG 1.1//EN" "http://www.w3.org/Graphics/SVG/1.1/DTD/svg11.dtd">
<svg xmlns="http://www.w3.org/2000/svg" xmlns:xlink="http://www.w3.org/1999/xlink" version="1.1"
   viewBox="94 -151 2414 2169">
   <path fill="currentColor"
      d="M1762 1247q0 130 -64 222t-181 140.5t-277 48.5q-82 0 -156.5 -8t-136.5 -23.5t-109 -37.5v-176q74 32 183.5 59t226.5 27q109 0 182 -28.5t110.5 -81.5t37.5 -126q0 -72 -31 -121t-106 -90.5t-207 -89.5q-125 -45 -209 -102.5t-126 -137.5t-42 -194q0 -116 59 -199.5
t164.5 -128.5t243.5 -45q120 0 220.5 22.5t182.5 59.5l-57 158q-76 -32 -165.5 -55t-184.5 -23q-91 0 -153 27t-93 74.5t-31 111.5q0 73 30.5 122.5t100.5 89t189 83.5q129 48 218 101.5t135 129.5t46 191z" />
</svg>