<?xml version="1.0" standalone="no"?>
<!DOCTYPE svg PUBLIC "-//W3C//DTD SVG 1.1//EN" "http://www.w3.org/Graphics/SVG/1.1/DTD/svg11.dtd">
<svg xmlns="http://www.w3.org/2000/svg" xmlns:xlink="http://www.w3.org/1999/xlink" version="1.1"
   viewBox="94 -151 2414 2169">
   <path fill="currentColor"
      d="M1168 1605q-108 0 -188.5 -52.5t-145.5 -145t-127 -211.5q-31 -61 -45 -83t-26 -34l137 -128q25 37 45.5 70.5t51.5 93.5q48 90 91.5 160t94.5 109.5t120 39.5q84 0 131.5 -61.5t47.5 -170.5q0 -33 -6 -86t-15 -130q-8 -70 -12 -112t-5 -76h174q9 68 20 143t19 144t8 119
q0 119 -47.5 212t-131 146t-191.5 53zM1168 1546q91 0 161 -45t110 -124.5t40 -182.5q0 -54 -12 -138t-24 -172q-1 -11 -2 -20t-2 -17h-61q2 21 6 51t9 71q10 78 15.5 133t5.5 90q0 134 -64 212.5t-174 78.5q-86 0 -148 -47.5t-112 -125.5t-99 -168q-18 -33 -31.5 -56.5
t-25.5 -42.5l-45 43q8 15 19 34.5t26 48.5q74 140 137.5 222.5t128 118.5t142.5 36zM695 1091q5 11 3.5 8.5t-3.5 -6.5q-1 -2 -1.5 -4t-1.5 -3q-20 -41 -58.5 -103.5t-83.5 -129t-87 -117.5q-62 -77 -108 -137t-71.5 -117t-25.5 -122q0 -126 85.5 -193t238.5 -69v85
q-100 -2 -169 42.5t-69 134.5q0 79 54.5 153.5t132.5 169.5q42 51 86.5 114.5t83 125t60.5 108.5zM1045 1244q-83 0 -170 -39l-40 -102q46 32 100 52t104 20q66 0 127.5 -31t109.5 -83.5t73 -116.5l24 106q-58 87 -144.5 140.5t-183.5 53.5zM630 239q-40 0 -68.5 -28.5
t-28.5 -68.5q0 -41 28.5 -69t68.5 -28q41 0 69 28t28 69q0 40 -28 68.5t-69 28.5zM1959 606q-16 59 -16 104q0 82 44 154.5t138 146.5q116 91 166.5 186t50.5 221q0 162 -74 288.5t-203 199t-295 72.5q-372 0 -580 -409l163 -54q155 293 413 293q121 0 212.5 -49
t142.5 -137.5t51 -204.5q0 -86 -32 -144.5t-120 -128.5q-129 -104 -188 -207.5t-59 -225.5q0 -43 7 -86.5t20 -89.5l49 53q-7 30 -11.5 60.5t-4.5 62.5q0 109 53 199.5t171 186.5q98 79 136.5 149t38.5 171q0 133 -59 234.5t-164 159t-243 57.5q-279 0 -450 -297l-48 16
q188 331 502 331q150 0 265.5 -64t181 -177t65.5 -259q0 -112 -45 -194.5t-150 -165.5q-204 -161 -204 -348q0 -23 3 -49t9 -54zM1456 834l-87 -1q-9 -59 -16 -124t-7 -155q0 -74 7.5 -140.5t7.5 -164.5q0 -116 -43.5 -189t-136.5 -73q-40 0 -81.5 18t-82.5 47l-55 -67
q57 -44 109 -65.5t110 -21.5q86 0 145.5 48t90 128.5t30.5 177.5q0 64 -3 112t-6.5 92t-3.5 96q0 93 6.5 159t15.5 123zM960 139q-40 0 -68.5 -28.5t-28.5 -68.5q0 -41 28.5 -69t68.5 -28q41 0 69 28t28 69q0 40 -28 68.5t-69 28.5zM1969 631q-67 0 -122 -32.5t-87.5 -87.5
t-32.5 -122t32.5 -122t87.5 -87.5t122 -32.5q68 0 122.5 32.5t87 87.5t32.5 122t-32.5 122t-87 87.5t-122.5 32.5zM1969 571q76 0 129 -53.5t53 -128.5q0 -76 -53 -129t-129 -53q-75 0 -128.5 53t-53.5 129q0 75 53.5 128.5t128.5 53.5zM1969 489q-42 0 -71 -29t-29 -71
q0 -43 29 -72t71 -29q43 0 72 29t29 72q0 42 -29 71t-72 29zM1969 439q21 0 35.5 -15t14.5 -35q0 -21 -14.5 -35.5t-35.5 -14.5q-20 0 -35 14.5t-15 35.5q0 20 15 35t35 15z" />
</svg>