<?xml version="1.0" standalone="no"?>
<!DOCTYPE svg PUBLIC "-//W3C//DTD SVG 1.1//EN" "http://www.w3.org/Graphics/SVG/1.1/DTD/svg11.dtd">
<svg xmlns="http://www.w3.org/2000/svg" xmlns:xlink="http://www.w3.org/1999/xlink" version="1.1"
   viewBox="94 -151 2414 2169">
   <path fill="currentColor"
      d="M654 863l-60 -38q0 -86 11 -165.5t26 -131.5l-414 -108v-93l1050 -429l1045 429v93l-408 108q11 59 17.5 137.5t6.5 167.5l-58 22q-151 -116 -292 -167t-311 -51t-312 52t-301 174zM1272 1978q-290 0 -460 -90t-187 -247q-16 -155 -23.5 -348.5t-7.5 -473.5l80 -32
q0 291 7 491t24 356q13 118 161.5 191t405.5 73q200 0 344 -34.5t221.5 -94t77.5 -132.5q0 -20 -6 -39.5t-19 -45.5q-19 -40 -30.5 -79.5t-11.5 -82.5v-604l80 47v557q0 42 10.5 77t27.5 71q13 27 21 49.5t8 49.5q0 102 -87 178.5t-249 119.5t-387 43zM1274 1350
q-85 0 -155 -33.5t-125 -100.5l51 -44q47 57 102.5 82.5t126.5 25.5q72 0 128 -25.5t102 -82.5l51 44q-55 67 -125.5 100.5t-155.5 33.5zM996 1033q-38 0 -63 -28t-25 -68t25 -68.5t63 -28.5t63.5 28.5t25.5 68.5t-25.5 68t-63.5 28zM1526 1033q-38 0 -63 -28t-25 -68
t25 -68.5t63 -28.5t63.5 28.5t25.5 68.5t-25.5 68t-63.5 28zM677 542l-36 -66q308 -181 626 -181t626 181l-36 66q-288 -172 -590 -172t-590 172zM671 757q146 -101 290 -148t306 -47q165 0 308 46.5t282 146.5q0 -74 -10.5 -151t-24.5 -123l415 -110l-970 -397l-975 397
l427 112q-18 31 -30.5 106t-17.5 168zM2275 1470q-46 0 -82 -21t-22 -62l60 -171h87l61 171q15 41 -21 62t-83 21zM2275 1274q-43 0 -73 -30.5t-30 -73.5t30 -73t73 -30q42 0 72.5 30t30.5 73t-30.5 73.5t-72.5 30.5zM2237 1117v-754h75v754h-75z" />
</svg>