<?xml version="1.0" standalone="no"?>
<!DOCTYPE svg PUBLIC "-//W3C//DTD SVG 1.1//EN" "http://www.w3.org/Graphics/SVG/1.1/DTD/svg11.dtd">
<svg xmlns="http://www.w3.org/2000/svg" xmlns:xlink="http://www.w3.org/1999/xlink" version="1.1"
   viewBox="94 -151 2414 2169">
   <path fill="currentColor"
      d="M1236 1978q-214 0 -398 -76.5t-321.5 -214t-214 -321t-76.5 -397.5q0 -215 76.5 -398.5t214 -321t321.5 -214t398 -76.5q215 0 398.5 76.5t321 214t214 321t76.5 398.5q0 214 -76.5 397.5t-214 321t-321 214t-398.5 76.5zM1236 1918q202 0 375 -72t302 -200.5t201 -301.5
t72 -375t-72 -375t-201 -302t-302 -201t-375 -72t-375 72t-302 201t-201 302t-72 375t72 375t201 301.5t302 200.5t375 72zM1236 1803q174 0 324 -64t262.5 -178.5t176 -266t63.5 -326.5q0 -176 -63.5 -327.5t-176 -266t-262.5 -178.5t-324 -64q-175 0 -325.5 64t-263 178
t-175 266t-62.5 328q0 175 63 327t176 266t263 178t324 64zM1236 1853q-184 0 -343 -67.5t-279 -188.5t-187 -282t-67 -347q0 -187 67 -348t187 -282t279 -188.5t343 -67.5t343 68t279 189t187 282t67 347t-67 347t-187 281.5t-279 188.5t-343 68zM667 1614l-78 -77l76 -76
q15 -15 37 -12.5t37 16.5t17 36.5t-13 37.5zM1181 1828v-107q0 -21 17 -35.5t38 -14.5t38 14.5t17 35.5v107h-110zM385 1023v-110h107q21 0 36 17t15 38t-15 38t-36 17h-107zM1805 1614l-76 -75q-15 -15 -13 -37.5t17 -36.5t37 -16.5t37 12.5l76 76zM671 480l-75 -75l78 -78
l75 75q15 15 13 37.5t-16 37.5t-37 16.5t-38 -13.5zM791 1413l-6 -5q23 -65 55.5 -126t54.5 -89l258 -320l325 -260q28 -22 85.5 -52.5t121.5 -53.5l6 5q-23 65 -55 126t-55 89l-258 320l-325 260q-28 22 -85 52.5t-122 53.5zM1238 1033q31 0 52 -21t21 -52t-21 -52t-52 -21
t-52 21t-21 52t21 52t52 21zM1216 1549l-82 -348l-123 -130l-355 -81v-61l331 -78l-180 -290l44 -43l285 180l75 -329h61l82 348l123 130l355 81v61l-331 78l180 290l-44 43l-285 -180l-75 329h-61zM1246 1415l66 -291l252 159l-157 -255l292 -69l-293 -67l-96 -98l-68 -291
l-66 291l-252 -159l157 255l-292 69l293 67l96 98zM1980 1023q-21 0 -36 -17t-15 -38t15 -38t36 -17h107v110h-107zM1236 265q-21 0 -38 -14.5t-17 -35.5v-107h110v107q0 21 -17 35.5t-38 14.5zM1801 480q-15 15 -38 13.5t-37 -16.5t-16 -37.5t13 -37.5l75 -75l78 78z
M2060 429l-47 -67l81 -83l-102 -101l-78 76l-61 -52l139 -138l214 214zM2148 351q-8 0 -16.5 -0.5t-16.5 -1.5l34 -78q61 0 103 -42.5t42 -103.5t-42.5 -104t-103.5 -43t-104.5 43t-43.5 104q0 8 1 16.5t3 16.5h-82q-1 -8 -1.5 -16.5t-0.5 -16.5q0 -63 31 -114.5t82.5 -82
t114.5 -30.5t114 30.5t81.5 82t30.5 114.5q0 62 -30.5 113.5t-81.5 82t-114 30.5z" />
</svg>