<?xml version="1.0" standalone="no"?>
<!DOCTYPE svg PUBLIC "-//W3C//DTD SVG 1.1//EN" "http://www.w3.org/Graphics/SVG/1.1/DTD/svg11.dtd">
<svg xmlns="http://www.w3.org/2000/svg" xmlns:xlink="http://www.w3.org/1999/xlink" version="1.1"
   viewBox="94 -151 2414 2169">
   <path fill="currentColor"
      d="M1115 1978q-31 0 -51 -20.5t-26 -54.5l-82 -442l-405 92q-46 10 -76 -10t-36.5 -56.5t19.5 -75.5l228 -343l-366 -231q-39 -25 -47.5 -61.5t11 -68t64.5 -39.5l421 -73l-95 -431q-10 -45 7.5 -73.5t51 -34t70.5 20.5l360 243l240 -373q14 -23 33.5 -36t41.5 -13
q31 0 52 22.5t28 56.5l81 425l438 -81q59 -11 83.5 30t-10.5 93l-237 347l368 238q39 25 47 61t-11.5 66.5t-64.5 39.5l-420 77l92 433q8 34 -11.5 60.5t-51 34.5t-61.5 -12l-358 -241l-245 378q-33 52 -82 52zM1129 1884l247 -382l97 -30l357 241q6 4 10 3t2 -10l-92 -437
l46 -71l442 -81q12 -2 12.5 -7.5t-11.5 -12.5l-372 -241l-36 -87l242 -354q9 -12 -8 -10l-406 74l-97 -56l-83 -432q-1 -5 -3.5 -5.5t-4.5 3.5l-237 368l-118 26l-354 -237q-5 -3 -7.5 -1.5t-1.5 8.5l97 439l-44 78l-446 77q-10 1 -10 7.5t10 13.5l390 246l15 79l-241 364
q-9 13 -7 17t14 1l428 -97l72 52l85 453q2 7 5.5 7.5t7.5 -6.5zM1301 1563q-131 0 -245.5 -48.5t-200.5 -134.5t-134.5 -200.5t-48.5 -245.5t48.5 -245.5t134.5 -200.5t200.5 -134.5t245.5 -48.5t245.5 48.5t200.5 134.5t134.5 200.5t48.5 245.5t-48.5 245.5t-134.5 200.5
t-200.5 134.5t-245.5 48.5zM1301 1483q114 0 213.5 -42.5t175 -118t118 -175t42.5 -213.5t-42.5 -213.5t-118 -175t-175 -118t-213.5 -42.5t-213.5 42.5t-175 118t-118 175t-42.5 213.5t42.5 213.5t118 175t175 118t213.5 42.5z" />
</svg>