<?xml version="1.0" standalone="no"?>
<!DOCTYPE svg PUBLIC "-//W3C//DTD SVG 1.1//EN" "http://www.w3.org/Graphics/SVG/1.1/DTD/svg11.dtd">
<svg xmlns="http://www.w3.org/2000/svg" xmlns:xlink="http://www.w3.org/1999/xlink" version="1.1"
   viewBox="94 -151 2414 2169">
   <path fill="currentColor"
      d="M378 1978q-48 0 -88 -23.5t-64 -63.5t-24 -87v-823h698v627h86v-728h-40v-130h40v-278h40l70 -220h158l70 220h40v278h40v130h-40v728h54v-657h92v-126h90v-110h186v110h90v126h92v460h315v-684h115v1077q0 71 -52 122.5t-124 51.5h-304v-977h-92v-126h-90v-110h-86v110
h-90v126h-92v977h-1090zM272 1766h558v-60h-558v60zM272 1606h558v-60h-558v60zM272 1446h558v-60h-558v60zM272 1286h558v-60h-558v60zM272 1126h558v-60h-558v60zM342 896v-70h50v70h-50zM1050 1523h90v-90h-90v90zM342 736v-70h50v70h-50zM202 1016v-800h330v800h-50
v-750h-230v750h-50zM1208 1523h90v-90h-90v90zM1538 1817v-70h50v70h-50zM1050 1353h90v-90h-90v90zM342 576v-70h50v70h-50zM1668 1817v-70h50v70h-50zM1538 1657v-70h50v70h-50zM1208 1353h90v-90h-90v90zM1050 1183h90v-90h-90v90zM342 416v-70h50v70h-50zM1798 1817v-70
h50v70h-50zM1668 1657v-70h50v70h-50zM760 763v-130h40v130h-40zM1538 1497v-70h50v70h-50zM1208 1183h90v-90h-90v90zM1050 1013h90v-90h-90v90zM1334 1247v-50h109v50h-109zM870 763v-130h40v130h-40zM1798 1657v-70h50v70h-50zM1668 1497v-70h50v70h-50zM1538 1337v-70
h50v70h-50zM1208 1013h90v-90h-90v90zM760 533v-130h40v130h-40zM1798 1497v-70h50v70h-50zM1668 1337v-70h50v70h-50zM870 533v-130h40v130h-40zM630 1014v-991h630v303h-50v-253h-530v941h-50zM1798 1337v-70h50v70h-50zM980 533v-130h40v130h-40zM760 303v-130h40v130
h-40zM1105 708h138v-129q0 -38 -18.5 -57.5t-50.5 -19.5q-31 0 -50 19.5t-19 57.5v129zM1597 1096v-152h32v152h-32zM870 303v-130h40v130h-40zM1677 1096v-152h32v152h-32zM1757 1096v-152h32v152h-32zM980 303v-130h40v130h-40zM1090 303v-130h40v130h-40zM2148 1326v-70
h50v70h-50zM1936 1031v-50q57 0 109 -27v55q-25 10 -52.5 16t-56.5 6zM2148 1186v-70h50v70h-50zM1939 1247v-50h79v-349h272v48h-222v351h-129zM2148 1046v-70h50v70h-50zM2136 869q35 -57 35 -123q0 -65 -31.5 -118.5t-85 -85t-118.5 -31.5t-118.5 31.5t-85.5 85
t-32 118.5v2.5v3.5h-50v-3.5v-2.5q0 -79 38.5 -143.5t103.5 -103t144 -38.5t143.5 38.5t103 103t38.5 143.5q0 65 -28 123h-57z" />
</svg>