<?xml version="1.0" standalone="no"?>
<!DOCTYPE svg PUBLIC "-//W3C//DTD SVG 1.1//EN" "http://www.w3.org/Graphics/SVG/1.1/DTD/svg11.dtd">
<svg xmlns="http://www.w3.org/2000/svg" xmlns:xlink="http://www.w3.org/1999/xlink" version="1.1"
   viewBox="94 -151 2414 2169">
   <path fill="currentColor"
      d="M1189 959q-95 0 -149 -66t-54 -189q63 20 136.5 31.5t157.5 11.5q30 0 62.5 -2t68.5 -5q-4 96 -65.5 157.5t-156.5 61.5zM1055 574q-33 0 -73 -19.5t-68.5 -47.5t-28.5 -55q0 -16 9.5 -22.5t21.5 -6.5q39 0 83 15.5t75.5 40.5t31.5 56q0 22 -16.5 30.5t-34.5 8.5z
M1099 445q-70 -20 -107 -73.5t-37 -125.5q0 -24 4.5 -49t14.5 -55l52 18q-9 28 -13 49t-4 41q0 41 18 75.5t54 56.5q22 -20 38.5 -45.5t27.5 -50.5l47 21q-11 37 -38.5 76t-56.5 62zM1414 613q-22 0 -39 -10.5t-17 -28.5q0 -30 29 -52.5t72.5 -34.5t88.5 -12q34 0 34 27
q0 23 -26.5 49t-65 44t-76.5 18zM1329 514q-43 -60 -43 -151q0 -10 1 -20.5t2 -20.5l54 4q-1 10 -1.5 18.5t-0.5 16.5q0 39 11 75q102 -60 147.5 -118t48.5 -133h55q-4 94 -62 166.5t-187 147.5zM140 545q0 -89 45.5 -143t117.5 -54q50 0 80.5 26.5t51 60.5t41 60.5
t48.5 26.5q21 0 37 -9l-9 -205l-348 -49v-8l357 -112l136 132l8 -14l-99 -188l-398 6l-3 -8l426 -162l193 197q98 -99 221 -151.5t258 -52.5q157 0 295.5 63t231.5 176l211 -184l385 154l-2 9l-358 -21l-124 252l2 8l166 -147l315 147l-1 8l-283 -24l-29 260
q19 -15 35 -41.5t34.5 -54t46 -46.5t69.5 -19q72 0 117.5 54t45.5 143q0 105 -37 190.5t-97.5 136t-129.5 50.5q-13 0 -34 -2.5t-39 -6.5q0 78 -27.5 155t-64 149t-64 135.5t-27.5 115.5q0 36 26 67t60 60.5t60 61t26 69.5q0 73 -72 117.5t-205 44.5q-136 0 -231.5 -57
t-111.5 -151q-43 14 -74 20t-72 6q-90 0 -168 -23q-18 94 -112.5 149.5t-230.5 55.5q-132 0 -204 -44.5t-72 -120.5q0 -36 26 -66.5t60 -57.5t60 -50.5t26 -45.5q0 -29 -11.5 -60t-37.5 -64q-51 -65 -94.5 -161.5t-72.5 -201.5t-38 -195q-20 6 -38.5 8.5t-34.5 2.5
q-68 0 -128.5 -50.5t-98 -136t-37.5 -190.5zM220 545q0 85 26 153.5t70 108.5t98 40q57 0 131 -32q3 101 28.5 214.5t69.5 218t99 177.5q38 50 53.5 90.5t15.5 78.5q0 36 -26 65.5t-60 54.5t-60 49t-26 50q0 39 48 62t148 23q140 0 210 -56.5t70 -165.5q44 18 108.5 31.5
t122.5 13.5q44 0 92 -11t116 -39q0 119 74 173t207 54q101 0 149 -22.5t48 -59.5q0 -25 -26 -51.5t-60 -56.5t-60 -66.5t-26 -82.5q0 -62 29.5 -128.5t68 -144t68 -171t29.5 -209.5q38 16 71 23.5t60 7.5q55 0 99 -40t69.5 -108.5t25.5 -153.5q0 -58 -22 -90t-61 -32
q-34 0 -53.5 26.5t-38.5 60.5t-48 60.5t-81 26.5q-66 0 -110.5 -39t-61.5 -120l-22 -103q-28 -132 -112.5 -232.5t-205.5 -157.5t-261 -57q-187 0 -345 111t-239 317l-7 18q-34 90 -79 131.5t-109 41.5q-51 0 -80 -26.5t-48.5 -60.5t-39.5 -60.5t-53 -26.5q-38 0 -60.5 32
t-22.5 90z" />
</svg>