<?xml version="1.0" standalone="no"?>
<!DOCTYPE svg PUBLIC "-//W3C//DTD SVG 1.1//EN" "http://www.w3.org/Graphics/SVG/1.1/DTD/svg11.dtd">
<svg xmlns="http://www.w3.org/2000/svg" xmlns:xlink="http://www.w3.org/1999/xlink" version="1.1"
   viewBox="94 -151 2414 2169">
   <path fill="currentColor"
      d="M1416 1978q-34 -78 -100 -134t-154 -87q-95 -35 -168 -42t-141 -12.5t-150 -35.5q-95 -35 -152.5 -102t-90 -151.5t-54.5 -169.5q-22 -89 -53 -170t-85 -145t-148 -101q148 -120 258 -204.5t192 -139.5t146 -86t118 -43.5t108 -12.5q172 0 328 96t268 275q42 7 86 7
q95 0 174.5 -39t153.5 -120l185 -200q62 -67 104.5 -95.5t100.5 -28.5q56 0 97 39.5t41 100.5q0 53 -35.5 116.5t-125.5 161t-255 253.5q-121 114 -203 205.5t-137.5 164.5t-98.5 134q-84 119 -140.5 174t-113.5 55q-69 0 -115.5 -47.5t-46.5 -120.5q0 -20 2.5 -42.5
t8.5 -47.5q-25 -14 -52 -30.5t-52 -32.5q-102 76 -177 76q-64 0 -109.5 -44.5t-45.5 -111.5q0 -59 28.5 -136.5t77.5 -177.5q52 -104 72.5 -165t20.5 -99q0 -45 -41 -45q-18 0 -27 11t-9 26q0 18 13.5 36.5t26.5 40t13 49.5q0 56 -37.5 93.5t-94.5 37.5q-60 0 -110.5 -32.5
t-81 -86t-30.5 -116.5q0 -112 58 -197l14 33q-76 43 -152.5 96t-146 108t-124.5 104q62 35 104.5 94.5t71 133t47.5 150.5q22 84 49 162.5t72 138t120 87.5q63 23 141 32.5t164.5 22t172.5 43.5q71 25 138.5 75.5t105.5 103.5q63 -48 138.5 -130.5t150.5 -199t138.5 -268
t102.5 -337.5l93 -85q-33 173 -79.5 327t-119 293t-181.5 267t-267 248zM1278 1021q-93 -45 -171.5 -79t-143.5 -58l29 -54q62 22 139.5 56t171.5 81zM1374 1171q-49 0 -85 -36t-36 -85t36 -84t85 -35t84 35t35 84t-35 85t-84 36zM1374 1121q29 0 49 -21t20 -50t-20 -49
t-49 -20t-50 20t-21 49t21 50t50 21zM1653 1267q-47 -43 -99 -82.5t-109 -75.5l21 -56q139 86 240 179zM1369 1558q34 0 74.5 -42t116.5 -150q65 -92 164.5 -217t283.5 -299q149 -141 234.5 -233t121.5 -148.5t36 -91.5q0 -25 -17.5 -42.5t-42.5 -17.5q-28 0 -62 23t-82 75
l-185 200q-173 187 -385 187q-68 0 -135 -19q-97 -167 -242.5 -264t-306.5 -97q-115 0 -186 70t-71 184q0 62 42.5 108.5t99.5 46.5q24 0 38 -14t14 -37q0 -27 -25.5 -56t-25.5 -68q0 -47 32 -79.5t84 -32.5q56 0 87.5 32t31.5 86q0 61 -31.5 140.5t-67.5 153.5
q-39 81 -69.5 155t-30.5 124q0 38 22.5 60t53.5 22q33 0 76 -25t100 -74q25 24 62.5 48.5t75 42.5t63.5 25q-14 43 -21.5 77t-7.5 60q0 41 23.5 64t57.5 23zM1665 580q-67 0 -116 -43.5t-63 -119.5l67 -10q10 52 39.5 79t72.5 27t87 -41l48 48q-64 60 -135 60zM1551 296
q-25 0 -43.5 -19.5t-18.5 -46.5q0 -29 20.5 -52t48.5 -23q25 0 43.5 19.5t18.5 46.5q0 28 -20.5 51.5t-48.5 23.5zM2045 512q4 -29 5.5 -55t1.5 -51q0 -197 -107.5 -312.5t-301.5 -115.5q-146 0 -275.5 108t-237.5 326l-68 -33q111 -235 259.5 -358t320.5 -123q145 0 254 61
t170 170.5t61 256.5v26t-2 26zM1861 409q-25 0 -43.5 -19.5t-18.5 -46.5q0 -29 20.5 -52t48.5 -23q25 0 43.5 19.5t18.5 46.5q0 28 -20.5 51.5t-48.5 23.5z" />
</svg>