<?xml version="1.0" standalone="no"?>
<!DOCTYPE svg PUBLIC "-//W3C//DTD SVG 1.1//EN" "http://www.w3.org/Graphics/SVG/1.1/DTD/svg11.dtd">
<svg xmlns="http://www.w3.org/2000/svg" xmlns:xlink="http://www.w3.org/1999/xlink" version="1.1"
   viewBox="94 -151 2414 2169">
   <path fill="currentColor"
      d="M1183 1978q-517 0 -780.5 -154t-263.5 -455q0 -147 57.5 -296t184.5 -317l77 -102q75 -99 114.5 -154t54.5 -81t15 -37q0 -18 -22 -18q-20 0 -53.5 9.5t-66.5 31.5l-185 -200q0 -88 49.5 -157t131.5 -109.5t179 -40.5q106 0 191 50.5t135 136t50 191.5q0 78 -30.5 159
t-80.5 153l-228 328q-17 25 -28.5 47.5t-18.5 38.5q161 -77 328.5 -131.5t330.5 -83.5t308 -29q118 0 236.5 14t216.5 38.5t157 57t59 68.5q0 25 -12 42t-12 37q0 16 16 16q22 0 42 -13.5t41 -27t45 -13.5q20 0 36.5 27t16.5 98q0 426 -331 651t-960 225zM1313 1721
q-207 0 -413.5 -77.5t-368.5 -218.5l53 -60q151 133 343.5 205.5t385.5 72.5q195 0 306 -67t126 -175q56 0 101 -14t71.5 -39.5t26.5 -59.5q0 -19 -6 -32l73 -32q13 29 13 64q0 76 -62 128.5t-162 60.5q-29 112 -161.5 178t-325.5 66zM1237 1471q-86 0 -201.5 -28.5
t-257.5 -86.5l30 -74q134 55 241.5 82t187.5 27q115 0 155.5 -44t40.5 -132q45 0 84.5 -10t63.5 -28.5t24 -45.5q0 -17 -10 -34l71 -38q19 36 19 72q0 63 -53.5 109t-132.5 46q0 85 -71.5 135t-190.5 50zM207 606q-81 0 -81 -51q0 -29 20.5 -46t51 -39.5t61.5 -63.5t52 -117
q-41 -15 -41 -54q0 -27 20 -47.5t48 -20.5q36 0 70 10.5t53 27.5q10 -84 70 -84q20 0 32.5 14t12.5 36q0 26 -22.5 46.5t-57.5 27.5q30 44 30 96q0 67 -48.5 127.5t-122 99t-148.5 38.5zM1183 1900q596 0 903.5 -204.5t307.5 -593.5q0 -34 -21 -34q-16 0 -51 20t-68 20
q-22 0 -39.5 -14.5t-17.5 -48.5q0 -32 12 -58.5t12 -36.5q0 -17 -59.5 -36.5t-151.5 -36.5t-193 -28t-185 -11q-101 0 -221 19t-245.5 51.5t-243.5 74.5t-216 88.5t-161 92.5q0 -82 35 -164.5t66 -128.5l228 -328q97 -139 97 -267q0 -84 -39.5 -152t-106.5 -108t-150 -40
q-72 0 -132 26.5t-98.5 72.5t-47.5 105l112 141q62 -35 122 -35q44 0 67.5 24.5t23.5 62.5q0 32 -22.5 75.5t-67 105t-110.5 148.5l-77 102q-117 155 -171.5 291.5t-54.5 273.5q0 262 239.5 396.5t724.5 134.5z" />
</svg>