<?xml version="1.0" standalone="no"?>
<!DOCTYPE svg PUBLIC "-//W3C//DTD SVG 1.1//EN" "http://www.w3.org/Graphics/SVG/1.1/DTD/svg11.dtd">
<svg xmlns="http://www.w3.org/2000/svg" xmlns:xlink="http://www.w3.org/1999/xlink" version="1.1"
   viewBox="94 -151 2414 2169">
   <path fill="currentColor"
      d="M463 1978v-1678h432v1026h810v-1026h432v1678h-1674zM365 1978v-1130h165v1130h-165zM844 1929v-305q0 -47 34 -81t81 -34q48 0 82 34t34 81v305h-231zM630 1314v-245h98v245h-98zM1185 1929v-305q0 -47 34 -81t81 -34t81 34t34 81v305h-230zM508 961v-78h363v78h-363z
M1525 1929v-305q0 -47 34 -81t82 -34q47 0 81 34t34 81v305h-231zM630 714v-245h98v245h-98zM1158 1064l26 -48l28 48h-54zM543 1900h1514v-1522h-272v1026h-970v-1026h-272v1522zM1300 1152l-28 -53h56zM1184 942l-26 -48h54zM1300 1224l69 -125h134l-67 -120l67 -120h-134
l-69 -125l-69 125h-134l67 120l-67 120h134zM1252 1064l-48 -85l48 -85h96l48 85l-48 85h-96zM1300 1271q-83 0 -151.5 -40.5t-109 -109t-40.5 -151.5t40.5 -151t109 -108.5t151.5 -40.5t151.5 40.5t109 108.5t40.5 151t-40.5 151.5t-109 109t-151.5 40.5zM1388 1064l28 -48
l26 48h-54zM1272 859l28 -53l28 53h-56zM1416 942l-28 -48h54zM678 310l-215 -10l104 -55q-64 -43 -64 -107q0 -39 20 -81t50 -78t59 -58.5t47 -22.5t47 22.5t59 58.5t50 78t20 81q0 64 -64 107l104 55zM837 982v-130l374 -468v-119q0 -93 89 -93t89 93v119l374 468v130
l-463 -581zM1872 1314v-245h98v245h-98zM2070 1978v-1130h165v1130h-165zM1729 961v-78h363v78h-363zM1872 714v-245h98v245h-98zM1922 310l-217 -10l104 -55q-64 -43 -64 -107q0 -39 20 -81t50 -78t59 -58.5t47 -22.5t47 22.5t59 58.5t50 78t20 81q0 64 -64 107l104 55z
" />
</svg>