<?xml version="1.0" standalone="no"?>
<!DOCTYPE svg PUBLIC "-//W3C//DTD SVG 1.1//EN" "http://www.w3.org/Graphics/SVG/1.1/DTD/svg11.dtd">
<svg xmlns="http://www.w3.org/2000/svg" xmlns:xlink="http://www.w3.org/1999/xlink" version="1.1"
   viewBox="94 -151 2414 2169">
   <path fill="currentColor"
      d="M709 1978q-13 0 -27 -7.5t-31 -19.5l-208 -151q-38 -28 -38 -61q0 -25 20 -51l276 -359q44 -58 65 -100t21 -82q0 -23 -6 -47t-19 -51l-39 -85q-27 -59 -37.5 -113t-10.5 -113q0 -103 33.5 -201.5t98.5 -195.5l67 44q-57 88 -88 174.5t-31 178.5q0 53 11 103t36 104
l39 85q29 64 29 117q0 52 -25.5 105t-75.5 118l-259 337q-8 9 -8 18t11 17l169 132q13 10 25 10q15 0 29 -19l248 -332q45 -61 91 -100.5t100.5 -59.5t122.5 -20h21.5t21.5 1l101 8q8 1 16 1h16q99 0 192.5 -45t175 -124t143 -181.5t96 -219.5t34.5 -237q0 -68 -13 -123.5
t-40 -111.5q-52 -108 -137 -184.5t-190 -117t-219 -40.5q-131 0 -254 55l-31 -71q69 -32 141 -48t145 -16q128 0 248 44t216.5 128.5t154.5 204.5q30 62 44.5 134t14.5 146q0 136 -39 265.5t-107.5 242.5t-159.5 198.5t-195 133.5t-213 48h-15t-16 -1l-111 -8
q-9 -1 -18 -1.5t-17 -0.5q-79 0 -137 33t-120 115l-265 354q-18 24 -37 33.5t-36 9.5zM1470 1402l-737 -531q-2 -31 -4 -65t-2 -71q0 -94 21.5 -191t88.5 -167q56 57 116 82t117 25q72 0 132.5 -34t97 -92.5t36.5 -129.5q0 -96 -20.5 -142t-64.5 -88q56 -37 119.5 -48.5
t169.5 -11.5q103 0 210.5 43.5t198.5 123.5t147 190t56 244q0 171 -52.5 324t-146 272t-217.5 190t-266 77zM1056 521q-88 0 -159 -41t-112.5 -111.5t-41.5 -158.5t43 -158.5t116 -112t163 -41.5q89 0 159 41t110 112t40 162q0 87 -42 157t-114 110.5t-162 40.5zM1056 441
q102 0 170 -65.5t68 -162.5q0 -103 -64 -169t-165 -66q-68 0 -123 30.5t-87 83t-32 118.5q0 98 67 164.5t166 66.5z" />
</svg>