<?xml version="1.0" standalone="no"?>
<!DOCTYPE svg PUBLIC "-//W3C//DTD SVG 1.1//EN" "http://www.w3.org/Graphics/SVG/1.1/DTD/svg11.dtd">
<svg xmlns="http://www.w3.org/2000/svg" xmlns:xlink="http://www.w3.org/1999/xlink" version="1.1"
   viewBox="94 -151 2414 2169">
   <path fill="currentColor"
      d="M557 1908q-133 -1 -234.5 -71.5t-158.5 -200t-57 -305.5q0 -221 60.5 -424t169 -374t254.5 -298t317.5 -197t357.5 -70q175 0 297 34.5t213 108.5q63 -17 131 -17q165 0 298 70t210.5 191.5t77.5 276.5q0 131 -55.5 234t-185 196.5t-353.5 199.5q-67 31 -131.5 64.5
t-125.5 70.5q-75 46 -147.5 99.5t-147.5 112.5q-135 106 -258 171.5t-244.5 96.5t-252.5 31h-35zM623 1604q46 0 85 -38t39 -82q0 -122 -109 -122q-41 0 -71.5 37t-30.5 85q0 53 24 86.5t63 33.5zM622 1206q65 0 115 -27t60 -67l46 -190q0 -40 -8.5 -76.5t-27.5 -67.5
q-36 0 -54.5 2.5t-42.5 8.5q-48 46 -86 105.5t-67 131.5q0 64 15.5 103t49.5 77zM1147 1465l-32 -51q20 -12 38.5 -21t37.5 -14l15 60q-13 4 -27.5 10t-31.5 16zM666 1848l-111 -3q-76 -2 -114.5 -60.5t-38.5 -150.5q0 -45 8 -82t8 -75q0 -53 -18 -79.5t-18 -48.5
q0 -32 24.5 -66t24.5 -68q0 -32 -16.5 -73.5t-16.5 -100.5q0 -62 28.5 -115t68 -99t73.5 -88.5t45 -82.5q40 -148 141 -216.5t281 -68.5q55 0 111 -56l43 -43q22 -22 71.5 -56t107.5 -34q33 0 69 12t61.5 28.5t28.5 32.5l-220 306l-366 832zM560 1832q61 0 119.5 -57.5
t131 -196t175.5 -382.5q139 -330 254.5 -543t224.5 -334.5t228 -176.5q-77 -56 -180.5 -81t-246.5 -25q-172 0 -332.5 67t-296.5 188t-237.5 283.5t-158 355t-56.5 401.5q0 153 47.5 265.5t132 174t195.5 61.5zM1432 1289q-13 -7 -28 -10.5t-30 -6.5l8 -56q20 2 38.5 7.5
t36.5 13.5zM1315 1094l-38 -43q32 -27 65 -43l24 51q-30 17 -51 35zM920 739q37 0 65 -8t65 -27q41 -53 41 -104q0 -40 -28 -83q-29 -4 -51 -4q-43 0 -72 9.5t-55 26.5q-22 43 -22 79q0 60 57 111zM745 1821q87 -14 166.5 -44.5t172 -87.5t216.5 -150q69 -52 141.5 -104
t154.5 -102q62 -38 131 -74t139 -70q206 -99 325.5 -184t170.5 -173.5t51 -199.5q0 -136 -66.5 -242t-180.5 -166.5t-259 -60.5q-116 0 -216.5 54t-197 175t-199 319.5t-222.5 487.5q-103 247 -179.5 397t-147.5 225zM1438 867q-26 -11 -58 -16l9 -57q47 9 74 22zM1742 989
q-13 -7 -28 -10.5t-30 -6.5l8 -56q20 2 38.5 7.5t36.5 13.5zM1168 507q50 0 80 -32t30 -75q0 -26 -12.5 -39t-37.5 -13t-45.5 8t-38.5 22q-11 20 -11 47q0 31 9.5 49.5t25.5 32.5z" />
</svg>