<?xml version="1.0" standalone="no"?>
<!DOCTYPE svg PUBLIC "-//W3C//DTD SVG 1.1//EN" "http://www.w3.org/Graphics/SVG/1.1/DTD/svg11.dtd">
<svg xmlns="http://www.w3.org/2000/svg" xmlns:xlink="http://www.w3.org/1999/xlink" version="1.1"
   viewBox="94 -151 2414 2169">
   <path fill="currentColor"
      d="M411 1222l-85 -25q67 -77 164.5 -193.5t203.5 -244.5q93 -112 189 -227t187.5 -219.5t171 -187t140 -130t92.5 -47.5q82 0 191 35.5t223 93.5t214.5 128.5t169 142t83.5 131.5q5 19 7.5 54.5t2.5 74.5q0 47 -5.5 91t-20.5 61q-42 46 -106.5 108.5t-138 130t-143.5 129.5
l-41 -82q53 -43 111 -92.5t120 -107t125 -124.5q8 -9 12 -32.5t5.5 -47.5t1.5 -34q0 -35 -2 -65.5t-6 -44.5q-12 -48 -74.5 -109.5t-156 -124.5t-198.5 -116.5t-204 -86.5t-170 -33q-12 0 -47.5 30t-95 91t-143 154t-191.5 219.5t-241 287.5q-106 128 -196 236t-149 176z
M1025 1823v-66q-93 -3 -199 -34.5t-201 -84t-155 -121t-60 -144.5q0 -12 1 -18l-61 -11q-1 8 -2.5 17t-1.5 17q0 92 64.5 171.5t168 140t221.5 95.5t225 38zM729 1451q2 -19 7 -41t12 -38l-62 -20q-8 18 -15 40t-11 48zM1025 1928q-102 0 -211.5 -28t-212.5 -78.5
t-185.5 -119t-131.5 -150.5t-49 -172q0 -93 58 -154t150.5 -91t197.5 -30q102 0 211.5 28.5t212.5 79.5t185.5 119.5t131.5 149t49 168.5q0 92 -57.5 154t-150.5 93t-198 31zM582 1304q14 -12 31.5 -23.5t33.5 -16.5l-28 -55q-40 13 -77 42zM1144 1729l67 -26
q-7 -17 -14.5 -39t-9.5 -40l-66 15q3 42 23 90zM831 1312l30 -63q-18 -8 -40.5 -15t-48.5 -11l-11 70q38 5 70 19zM920 1420q17 -8 33.5 -12t32.5 -7l-5 -65q-19 1 -41 5.5t-45 15.5zM1409 1744l-36 -144q67 -120 132 -217.5t136.5 -193t159.5 -207.5l124 145
q-71 67 -122 133t-59 149q-7 79 -23.5 119.5t-48.5 40.5q-14 0 -36 -6.5t-48 -6.5q-57 0 -93.5 48t-85.5 140zM1844 1195q-32 0 -58 -16l65 -107q-115 -116 -223 -203.5t-245 -172.5q-92 -58 -186.5 -96.5t-162 -58t-77.5 -19.5l-107 92q-20 -41 -20 -74q0 -52 37.5 -83
t99.5 -31q91 0 218 52t256 132q110 67 206 138t168.5 136.5t114 118.5t41.5 84q0 43 -38 75.5t-89 32.5zM1386 688q-84 0 -144.5 -42t-60.5 -100q0 -34 33.5 -77.5t68.5 -54.5q143 11 241 110l8 51q-9 46 -52.5 79.5t-93.5 33.5zM1289 528q-86 -107 -150 -238t-106 -286
l105 -35q36 153 83.5 275t111.5 223zM1894 998l-64 -69l235 -321q19 -26 46 -26q26 0 46.5 20.5t20.5 48.5q0 26 -18 45zM1445 616l-22 -81q143 -36 275.5 -98.5t257.5 -153.5l68 87q-133 88 -278.5 149.5t-300.5 96.5z" />
</svg>