<?xml version="1.0" standalone="no"?>
<!DOCTYPE svg PUBLIC "-//W3C//DTD SVG 1.1//EN" "http://www.w3.org/Graphics/SVG/1.1/DTD/svg11.dtd">
<svg xmlns="http://www.w3.org/2000/svg" xmlns:xlink="http://www.w3.org/1999/xlink" version="1.1"
   viewBox="94 -151 2414 2169">
   <path fill="currentColor"
      d="M786 1978q-292 0 -463.5 -90t-186.5 -247q-9 -89 -15.5 -181t-11 -198t-7 -236t-2.5 -296q0 -183 50 -335.5t141 -264t214.5 -172t270.5 -60.5q144 0 275.5 60t234.5 167t162.5 248.5t59.5 304.5v656l-80 56v-712q0 -147 -53.5 -274t-145.5 -223t-209 -149.5t-244 -53.5
q-173 0 -307.5 95.5t-211.5 264.5t-77 392q0 165 2.5 295t7 235.5t11 196.5t15.5 177q12 118 158 191t412 73q279 0 448 -65.5t192 -164.5l73 37q-41 124 -228 198.5t-485 74.5zM802 1238q-85 0 -155 -33.5t-125 -100.5l51 -44q47 57 102.5 82.5t126.5 25.5q72 0 128 -25.5
t102 -82.5l51 44q-55 67 -125.5 100.5t-155.5 33.5zM503 920q79 0 121 -22t57.5 -74.5t15.5 -145.5q0 -84 -55 -103.5t-164 -19.5q-128 0 -172 19.5t-44 76.5q0 37 4.5 68t10.5 62q11 57 31 87t64.5 41t130.5 11zM512 833q-38 0 -63 -28t-25 -68t25 -68.5t63 -28.5
t63.5 28.5t25.5 68.5t-25.5 68t-63.5 28zM496 986q-130 0 -187 -31t-72 -92l-32 -133q-4 -18 -10.5 -26t-25.5 -19l-25 -15v-138q85 -23 167.5 -33t166.5 -10q99 0 156 14t86.5 40t42.5 63q17 -15 43 -15q27 0 43 15q14 -37 43 -63t86.5 -40t155.5 -14q84 0 166.5 10
t167.5 33v138l-25 15q-19 11 -25 19t-11 26l-32 133q-15 61 -72 92t-187 31q-112 0 -175 -39t-79 -152l-14 -100q-3 -23 -15.5 -33.5t-26.5 -10.5t-26.5 10.5t-15.5 33.5l-14 100q-16 113 -79 152t-175 39zM1981 1968q-19 -18 -32 -42t-13 -54q0 -17 5.5 -41.5t18.5 -47.5
l76 -21q-22 35 -27.5 57t-5.5 38q0 19 9 41t22 34zM1100 833q-38 0 -63.5 -28t-25.5 -68t25.5 -68.5t63.5 -28.5t63 28.5t25 68.5t-25 68t-63 28zM1969 1904q40 0 71 -53l389 -673q-8 -7 -16.5 -17.5t-13.5 -26.5l-363 628q-18 31 -39.5 44t-44.5 13q-13 0 -29 -5t-37 -17
l-489 -281q-31 -17 -47 11q-7 11 -3.5 25t15.5 21l578 323q13 8 29 8zM1109 920q86 0 130.5 -11t64.5 -41t31 -87q6 -31 10.5 -62t4.5 -68q0 -57 -44 -76.5t-172 -19.5q-109 0 -164 19.5t-55 103.5q0 93 15.5 145.5t57.5 74.5t121 22zM1983 1978q-15 0 -32 -4.5t-40 -17.5
l-585 -327q-34 -19 -44 -55.5t11 -73.5l445 -771q43 -74 119 -31l510 293q32 19 42 39t10 43l41 25q40 25 40 68q0 21 -12 42l-408 705q-19 34 -45 49.5t-52 15.5zM1895 1725q32 18 52.5 19.5t36.5 -26.5l346 -598q15 -26 12 -47t-23 -32l-495 -285l62 -21l-452 781l-13 -62
zM1460 557h329v-60h-329v60zM1468 958q0 -141 -15 -273t-52.5 -252t-103.5 -225.5t-167 -195.5h918q45 0 77 32t32 78v797l-342 -205l-129 244h-218zM1392 353h577v-60h-577v60z" />
</svg>