<?xml version="1.0" standalone="no"?>
<!DOCTYPE svg PUBLIC "-//W3C//DTD SVG 1.1//EN" "http://www.w3.org/Graphics/SVG/1.1/DTD/svg11.dtd">
<svg xmlns="http://www.w3.org/2000/svg" xmlns:xlink="http://www.w3.org/1999/xlink" version="1.1"
   viewBox="94 -151 2414 2169">
   <path fill="currentColor"
      d="M1326 1753q-222 0 -392 -80t-266 -221q-296 -125 -431 -279t-135 -371q0 -108 37.5 -196.5t101.5 -140.5t141 -52q90 0 175.5 67t157.5 185q45 -61 90.5 -107t80.5 -71l47 65q-51 35 -111.5 104.5t-103.5 146.5q-55 -98 -112 -168t-113.5 -107t-110.5 -37t-101 41.5
t-76 112t-29 157.5q0 131 56.5 234.5t178 190t315.5 168.5q88 135 243.5 207.5t356.5 72.5q243 0 416 -102.5t237 -284.5q7 1 13.5 1.5t13.5 0.5q67 0 122 -51t91.5 -143.5t47.5 -216.5q8 -90 39 -172.5t63 -148.5q-6 1 -18 1q-30 0 -58.5 -7.5t-48.5 -20.5q-16 21 -32 58.5
t-36 98.5q-23 72 -46.5 113.5t-56.5 68t-87 55.5q-26 -76 -68.5 -148t-94 -130.5t-104.5 -93.5l45 -66q74 49 143.5 135.5t116.5 184.5q25 -21 41 -52.5t35 -90.5q47 -143 98.5 -210t151.5 -67q68 0 108 29t40 63q0 13 -8.5 33.5t-31.5 53.5q-40 60 -71.5 152t-39.5 169
q-20 217 -109 342.5t-206 139.5q-83 179 -268 281.5t-438 102.5zM678 1233q-201 -84 -297 -186.5t-96 -237.5q0 -85 34.5 -139t88.5 -54q62 0 125.5 75t142.5 257q-11 57 -11 106q0 52 3 95t10 84zM590 1107v-26t1 -23q3 -39 12 -82q-64 -148 -113.5 -216t-81.5 -68
q-15 0 -31 32t-16 85q0 88 55.5 161t173.5 137zM1326 1828q-183 0 -286.5 -30t-103.5 -70q0 -20 14.5 -37.5t38.5 -36.5l337 50l337 -50q24 19 38.5 36.5t14.5 37.5q0 40 -103.5 70t-286.5 30zM844 1115q-17 -2 -27.5 -15t-7.5 -30q14 -91 48.5 -168.5t87.5 -141.5
q11 -14 28 -14.5t30 12.5q26 26 4 53q-46 58 -76.5 123.5t-43.5 143.5q-7 40 -43 37zM1326 667q-144 0 -263 -22.5t-189.5 -62t-70.5 -89.5q0 -47 46.5 -93t123 -83.5t169 -60.5t184.5 -23q91 0 183 23t169 60.5t123.5 83.5t46.5 93q0 50 -70.5 89.5t-189 62t-262.5 22.5z
M1326 589q127 0 224.5 -18t152.5 -43t55 -45q0 -21 -38 -50.5t-100.5 -57t-139 -46t-154.5 -18.5t-155 18.5t-140 46t-100.5 57t-37.5 50.5q0 20 55 45t152.5 43t225.5 18zM1326 370q-68 0 -114 -47t-46 -113q0 -68 46 -115t114 -47q66 0 113.5 47t47.5 115q0 66 -47.5 113
t-113.5 47zM2350 501q30 0 52.5 -9.5t22.5 -23.5t-22 -23t-53 -9t-52.5 9t-21.5 23t22 23.5t52 9.5z" />
</svg>