<?xml version="1.0" standalone="no"?>
<!DOCTYPE svg PUBLIC "-//W3C//DTD SVG 1.1//EN" "http://www.w3.org/Graphics/SVG/1.1/DTD/svg11.dtd">
<svg xmlns="http://www.w3.org/2000/svg" xmlns:xlink="http://www.w3.org/1999/xlink" version="1.1"
   viewBox="94 -151 2414 2169">
   <path fill="currentColor"
      d="M221 1306q-42 0 -71.5 -30t-29.5 -72v-1204q0 -43 29.5 -72.5t71.5 -29.5h2158q42 0 71.5 29.5t29.5 72.5v1204q0 42 -29.5 72t-71.5 30h-472v-70h472q14 0 22.5 -9.5t8.5 -22.5v-1204q0 -14 -8.5 -23t-22.5 -9h-2158q-13 0 -22 9t-9 23v1204q0 13 9 22.5t22 9.5h260v70
h-260zM850 1903h341q-22 -83 -31 -172.5t-14 -162.5q-1 -26 -16 -41t-43 -15h-133q-28 0 -43 15t-17 41q-4 75 -13 164t-31 171zM287 1033v-55h311v55h-311zM419 1978v-673q0 -60 42 -101.5t101 -41.5h936q60 0 101.5 41.5t41.5 101.5v673h-1222zM494 1903h287l12 -46
q10 -38 18 -91t13.5 -107.5t6.5 -94.5q2 -48 35.5 -82t87.5 -34h133q54 0 88 34t35 82q2 40 6.5 94.5t12.5 107.5t18 91l12 46h307v-593q0 -31 -21 -52t-52 -21h-926q-30 0 -51.5 21t-21.5 52v593zM307 833v-55h108v55h-108zM475 833v-55h113v55h-113zM287 633v-55h346
l-5 55h-341zM320 433v-55h158v55h-158zM951 929q-40 0 -65 -29.5t-25 -69.5q0 -41 25 -69.5t65 -28.5t65 28.5t25 69.5q0 40 -25 69.5t-65 29.5zM543 433v-55h167l-5 55h-162zM287 233v-55h427v55h-427zM1603 1946v-79q181 -36 268 -100t87 -141q0 -20 -6.5 -40.5
t-19.5 -46.5q-19 -41 -31 -81t-12 -85v-527q0 -157 -44.5 -288t-126 -227t-194 -148.5t-248.5 -52.5q-193 0 -336 97t-221.5 270.5t-78.5 402.5q0 89 1 163.5t3 137.5l-79 -2q-2 -65 -3.5 -139t-1.5 -161q0 -251 88.5 -441t249.5 -296.5t378 -106.5q154 0 281 58t219.5 164
t142.5 251t50 318v527q0 43 10 79t29 72q14 28 22 51t8 51q0 114 -107.5 197t-327.5 123zM1512 929q-40 0 -65 -29.5t-25 -69.5q0 -41 25 -69.5t65 -28.5t65 28.5t25 69.5q0 40 -25 69.5t-65 29.5zM1924 1032v-55h390v55h-390zM1924 832v-55h290v55h-290zM1903 632v-55h285
v55h-285zM1828 432l-10 -55h220v55h-210zM2123 432v-55h125v55h-125zM1841 232v-55h290v55h-290zM2186 232v-55h128v55h-128z" />
</svg>