<?xml version="1.0" standalone="no"?>
<!DOCTYPE svg PUBLIC "-//W3C//DTD SVG 1.1//EN" "http://www.w3.org/Graphics/SVG/1.1/DTD/svg11.dtd">
<svg xmlns="http://www.w3.org/2000/svg" xmlns:xlink="http://www.w3.org/1999/xlink" version="1.1"
   viewBox="94 -151 2414 2169">
   <path fill="currentColor"
      d="M1413 919q-114 0 -222 -24.5t-194 -74t-137 -124.5t-51 -176q0 -49 20.5 -113.5t49.5 -110.5q-32 -30 -54 -79.5t-22 -93.5q0 -63 29.5 -114t79.5 -81t111 -30q49 0 92.5 19t86.5 59q46 -10 71 -13t59 -3q62 0 136 17.5t128 45.5q63 -37 127 -37q68 0 117.5 27t77 76
t27.5 115q0 55 -24.5 105t-69.5 86q14 30 19.5 67.5t5.5 81.5q0 117 -58.5 201t-163 129t-241.5 45zM956 1594q-39 0 -69 -12t-56 -34l12 -65q11 13 41.5 22t56.5 9q44 0 71 -27.5t27 -70.5q0 -32 -9 -65t-33 -79l73 -31q28 55 38.5 95.5t10.5 82.5q0 76 -48 125.5
t-115 49.5zM735 1978q-103 0 -179.5 -43t-118.5 -117t-42 -167q0 -120 72.5 -198t181.5 -78q76 0 139 39t101 104t38 142h-80q0 -55 -26 -101.5t-70.5 -75t-101.5 -28.5q-76 0 -125 54t-49 142q0 106 69 176.5t191 70.5q110 0 206.5 -54.5t202.5 -183.5q36 3 80.5 5t75.5 2
t75.5 -2t80.5 -5q106 129 202.5 183.5t206.5 54.5q122 0 191 -70.5t69 -176.5q0 -88 -48.5 -142t-125.5 -54q-56 0 -101 28.5t-71 75t-26 101.5h-80q0 -77 38 -142t101.5 -104t138.5 -39q110 0 182 78t72 198q0 93 -42 167t-118 117t-180 43q-82 0 -155.5 -23.5t-143.5 -76
t-144 -137.5q-32 3 -62.5 4.5t-59.5 1.5q-28 0 -59 -1.5t-63 -4.5q-73 85 -143.5 137.5t-143.5 76t-156 23.5zM656 1449q-31 -52 -46 -108.5t-15 -114.5q0 -111 49 -215t136.5 -178.5t203.5 -96.5l39 75q-102 14 -180.5 76.5t-123 152t-44.5 185.5q0 49 12.5 96.5t40.5 90.5
zM1644 1594q-67 0 -115 -49.5t-48 -125.5q0 -42 10.5 -82.5t38.5 -95.5l73 31q-24 46 -33 79t-9 65q0 43 27.5 70.5t70.5 27.5q26 0 56.5 -9t41.5 -22l12 65q-26 22 -56 34t-69 12zM1347 1229q-8 -31 -17 -76.5t-17 -97t-13 -99.5q-29 44 -86.5 99t-107.5 91
q-32 -49 -58.5 -103t-40.5 -104q19 -8 74 -25t157 -36l143 10q62 62 106.5 114t84.5 112q-22 22 -61 45.5t-83 42.5t-81 27zM1327 775q-73 0 -123.5 -35t-59.5 -90l49 -9q9 40 44 62t90 22q85 0 113 -60l47 17q-16 43 -58.5 68t-101.5 25zM1124 484q-27 0 -46 -22.5
t-19 -53.5q0 -35 21 -60t50 -25q28 0 46.5 22.5t18.5 55.5q0 34 -21 58.5t-50 24.5zM1316 654q-32 0 -55 -33t-23 -61q0 -20 18.5 -30.5t55.5 -10.5q41 0 70 17t29 40q0 30 -28.5 54t-66.5 24zM1944 1449l-72 -37q28 -43 40.5 -91t12.5 -97q0 -81 -32 -158.5t-90 -138.5
t-136 -92l57 -64q86 40 149 112t97.5 160.5t34.5 181.5q0 58 -14.5 115t-46.5 109zM1413 839q120 0 205.5 -35t131.5 -101.5t46 -160.5q0 -47 -7.5 -90t-24.5 -76q47 -36 74 -80.5t27 -91.5q0 -65 -38 -101.5t-106 -36.5q-33 0 -61 10t-63 36q-42 -29 -121.5 -50.5
t-146.5 -21.5q-29 0 -59 3t-84 16q-50 -44 -90 -62.5t-73 -18.5q-58 0 -99 42.5t-41 102.5q0 44 20.5 88t60.5 77q-31 44 -53 111.5t-22 120.5q0 85 46 145.5t122.5 99t169 56.5t186.5 18zM1556 543q-27 0 -46 -22.5t-19 -53.5q0 -35 21 -60t50 -25q28 0 46.5 22.5
t18.5 55.5q0 34 -21 58.5t-50 24.5z" />
</svg>