<?xml version="1.0" standalone="no"?>
<!DOCTYPE svg PUBLIC "-//W3C//DTD SVG 1.1//EN" "http://www.w3.org/Graphics/SVG/1.1/DTD/svg11.dtd">
<svg xmlns="http://www.w3.org/2000/svg" xmlns:xlink="http://www.w3.org/1999/xlink" version="1.1"
   viewBox="94 -151 2414 2169">
   <path fill="currentColor"
      d="M480 1978q-75 0 -145 -33t-125.5 -88.5t-88.5 -125.5t-33 -145q0 -176 167 -343l1058 -1059q31 -31 41.5 -57.5t9.5 -52.5q-1 -49 11 -85.5t35 -59.5q31 -31 81 -31q77 0 186 70t229 190t190 229.5t70 186.5q0 50 -31 81q-23 23 -59 36t-85 10q-27 -2 -53 8.5t-57 41.5
l-1059 1060q-167 167 -342 167zM484 1757q-41 0 -81.5 -26.5t-67 -67t-26.5 -81.5q0 -81 102 -183l578 -582q133 -24 262.5 -26t258.5 16l-844 848q-101 102 -182 102zM841 1304q35 0 59.5 -25t24.5 -60t-24.5 -59.5t-59.5 -24.5t-60 24.5t-25 59.5t25 60t60 25zM964 1082
q26 0 43 -17t17 -42q0 -26 -17 -43t-43 -17q-25 0 -42 17t-17 43q0 25 17 42t42 17zM168 1585q0 76 45.5 148t117 118t150.5 46q141 0 284 -143l1069 -1070q40 -40 79 -52.5t87 -10.5q55 1 80 -24q23 -23 1 -78t-81.5 -133.5t-150.5 -170.5q-90 -92 -169 -151.5t-135 -81
t-79 2.5q-13 14 -18.5 32.5t-4.5 47.5q2 47 -10.5 85.5t-52.5 79.5l-1068 1070q-144 144 -144 285zM1164 959q16 0 26.5 -10.5t10.5 -25.5q0 -16 -10.5 -26.5t-26.5 -10.5q-15 0 -25.5 10.5t-10.5 26.5q0 15 10.5 25.5t25.5 10.5zM1507 596q-34 0 -57 -23t-23 -57t23 -57
t57 -23t57 23t23 57t-23 57t-57 23zM1679 385q-87 -89 -162 -145t-128 -78l21 -74q71 28 154.5 90t171.5 150q91 91 154 177t89 158l-76 15q-22 -51 -77.5 -126t-146.5 -167zM2158 170q-55 0 -95.5 -40t-40.5 -96t40.5 -96t95.5 -40q57 0 96.5 40t39.5 96t-39.5 96t-96.5 40
zM2450 164q-26 0 -44 -18t-18 -44t18 -44t44 -18t44 18t18 44t-18 44t-44 18z" />
</svg>