<?xml version="1.0" standalone="no"?>
<!DOCTYPE svg PUBLIC "-//W3C//DTD SVG 1.1//EN" "http://www.w3.org/Graphics/SVG/1.1/DTD/svg11.dtd">
<svg xmlns="http://www.w3.org/2000/svg" xmlns:xlink="http://www.w3.org/1999/xlink" version="1.1"
   viewBox="94 -151 2414 2169">
   <path fill="currentColor"
      d="M1303 1978q-214 0 -330.5 -148t-116.5 -408q0 -35 1 -63.5t3 -54.5q3 -35 4.5 -72.5t1.5 -80.5q0 -91 -7 -152.5t-21.5 -115.5t-37.5 -120q-21 -63 -37 -125t-24.5 -124t-8.5 -126q0 -227 117.5 -358.5t327.5 -131.5q211 0 367 99t242 276.5t86 413.5q0 81 -14 208
t-33 270l-41 316q-32 251 -148 374t-331 123zM1303 1898q183 0 277 -102.5t122 -322.5l42 -323q18 -140 32 -263.5t14 -199.5q0 -214 -75.5 -373.5t-213.5 -247.5t-326 -88q-174 0 -269 107.5t-95 296.5q0 82 15 168.5t48 184.5q26 78 48.5 179.5t22.5 252.5q0 44 -1 82.5
t-4 70.5q-2 24 -3 50.5t-1 54.5q0 225 94.5 349t272.5 124zM1153 1245q-16 0 -28.5 -12t-29.5 -44l-21 -39q-31 -58 -57 -147t-26 -200q0 -140 42 -254t120 -196l-30 -103q-7 -23 2.5 -36t23.5 -13q25 0 37 30l38 95q148 41 255 109.5t165 163.5t58 216q0 70 -13.5 150.5
t-28.5 135.5l-21 77q-7 25 -17.5 33.5t-23.5 8.5q-36 0 -36 -39q0 -5 2 -17l16 -75q9 -44 19.5 -109t10.5 -112q0 -124 -90 -227.5t-257 -164.5q-39 35 -68.5 91.5t-49 119t-29 116.5t-9.5 84q0 37 10 94.5t26 102.5l40 112q3 9 3 17q0 32 -33 32z" />
</svg>