<?xml version="1.0" standalone="no"?>
<!DOCTYPE svg PUBLIC "-//W3C//DTD SVG 1.1//EN" "http://www.w3.org/Graphics/SVG/1.1/DTD/svg11.dtd">
<svg xmlns="http://www.w3.org/2000/svg" xmlns:xlink="http://www.w3.org/1999/xlink" version="1.1"
   viewBox="94 -151 2414 2169">
   <path fill="currentColor"
      d="M1348 1506q-116 0 -208 -67.5t-148 -192.5q-11 1 -21.5 1.5t-21.5 0.5q-188 0 -307 -145q-46 -56 -70 -125.5t-24 -144.5q0 -77 27 -144.5t78 -126.5q-36 -85 -36 -171q0 -115 56 -208.5t149.5 -149.5t207.5 -56q76 0 143 26q121 -105 277 -105q128 0 240 75
q69 -18 135 -18q137 0 248.5 66t178 177.5t66.5 248.5q0 95 -31 176q39 85 39 175q0 106 -57 201.5t-149 148.5q-23 91 -75.5 159.5t-125.5 106t-160 37.5q-84 0 -164 -40q-107 95 -247 95zM428 1978q-64 0 -109 -45t-45 -109t45 -109t109 -45t109 45t45 109t-45 109
t-109 45zM428 1898q31 0 52.5 -21.5t21.5 -52.5t-21.5 -52.5t-52.5 -21.5t-52.5 21.5t-21.5 52.5t21.5 52.5t52.5 21.5zM749 1727q-82 0 -139 -57t-57 -139q0 -81 57 -138t139 -57q81 0 138 57t57 138q0 82 -57 139t-138 57zM749 1647q48 0 81.5 -33.5t33.5 -82.5
q0 -48 -33.5 -81.5t-81.5 -33.5q-49 0 -82.5 33.5t-33.5 81.5q0 49 33.5 82.5t82.5 33.5zM1348 1426q68 0 129 -30.5t104 -86.5q86 62 178 62q110 0 189.5 -75.5t101.5 -202.5q86 -36 141 -119.5t55 -175.5q0 -86 -47 -173q39 -82 39 -178q0 -115 -55.5 -208t-149 -148.5
t-208.5 -55.5q-71 0 -151 27q-102 -84 -224 -84q-74 0 -142 31.5t-119 90.5q-71 -43 -159 -43q-92 0 -167.5 45t-120.5 120.5t-45 168.5q0 49 13 94.5t41 90.5q-61 56 -92 118t-31 142q0 124 76 217q47 58 110 86t153 28q18 0 37.5 -1t39.5 -3q53 133 126.5 198t177.5 65z
" />
</svg>