<?xml version="1.0" standalone="no"?>
<!DOCTYPE svg PUBLIC "-//W3C//DTD SVG 1.1//EN" "http://www.w3.org/Graphics/SVG/1.1/DTD/svg11.dtd">
<svg xmlns="http://www.w3.org/2000/svg" xmlns:xlink="http://www.w3.org/1999/xlink" version="1.1"
   viewBox="94 -151 2414 2169">
   <path fill="currentColor"
      d="M1238 1460q227 0 332.5 -95.5t105.5 -245.5q0 -113 -67.5 -183.5t-204.5 -86.5v-7q108 -21 172.5 -89.5t64.5 -183.5q0 -122 -87.5 -202.5t-266.5 -80.5q-115 0 -205 35t-152 83l71 96q64 -42 130 -69t158 -27q96 0 152 45.5t56 128.5q0 65 -32.5 113.5t-96.5 75.5
t-158 27h-112v120h111q151 0 235.5 47.5t84.5 154.5q0 106 -68 166t-222 60q-76 0 -159.5 -20t-155.5 -56v132q71 34 147.5 48t166.5 14z" />
</svg>