<?xml version="1.0" standalone="no"?>
<!DOCTYPE svg PUBLIC "-//W3C//DTD SVG 1.1//EN" "http://www.w3.org/Graphics/SVG/1.1/DTD/svg11.dtd">
<svg xmlns="http://www.w3.org/2000/svg" xmlns:xlink="http://www.w3.org/1999/xlink" version="1.1"
   viewBox="94 -151 2414 2169">
   <path fill="currentColor"
      d="M1300 1978q-216 0 -404.5 -81t-331.5 -224t-223.5 -331.5t-80.5 -403.5t80.5 -403.5t223.5 -331.5t331.5 -224t404.5 -81t404.5 81t331.5 224t223.5 331.5t80.5 403.5t-80.5 403.5t-223.5 331.5t-331.5 224t-404.5 81zM955 1615l-70 -40l56 -98l70 40zM662 1352l-40 -70
l98 -57l40 70zM1259 1697v-113h80v113h-80zM541 977v-80h113v80h-113zM1271 1444v-458h60v458h-60zM1644 1616l-57 -98l70 -40l57 98zM721 649l-98 -56l40 -70l98 56zM1300 1858q191 0 357.5 -72t293 -198.5t198 -293t71.5 -356.5t-71.5 -356.5t-198 -293t-293 -198.5
t-357.5 -72t-357.5 72t-293 198.5t-198 293t-71.5 356.5t71.5 356.5t198 293t293 198.5t357.5 72zM1300 1045q-44 0 -75.5 -32t-31.5 -75q0 -44 31.5 -75.5t75.5 -31.5t75.5 31.5t31.5 75.5q0 43 -31.5 75t-75.5 32zM1639 1101l-317 -117l26 -70l316 116zM1937 1353l-98 -56
l40 -70l98 56zM943 398l-57 -98l70 -40l57 98zM1946 979v-80h113v80h-113zM1261 292v-113h80v113h-80zM1880 651l-40 -70l98 -57l40 70zM1659 399l-70 -40l56 -98l70 40z" />
</svg>