<?xml version="1.0" standalone="no"?>
<!DOCTYPE svg PUBLIC "-//W3C//DTD SVG 1.1//EN" "http://www.w3.org/Graphics/SVG/1.1/DTD/svg11.dtd">
<svg xmlns="http://www.w3.org/2000/svg" xmlns:xlink="http://www.w3.org/1999/xlink" version="1.1"
   viewBox="94 -151 2414 2169">
   <path fill="currentColor"
      d="M2000 1904q-159 42 -311 58t-277 16q-269 0 -464.5 -67t-301.5 -193.5t-106 -302.5q0 -209 121 -416t332 -367v90q-177 142 -280 326t-103 367q0 155 97 265.5t277 169t428 58.5q148 0 292.5 -18.5t277.5 -52.5zM1421 1776q-68 0 -154 -6t-175.5 -20.5t-170 -41.5
t-137.5 -69v-215l203 -195l52 53l-180 172v144q54 32 126 52t150 31t152 15.5t134 4.5t134.5 -4.5t152.5 -15.5t150 -31t126 -52v-144l-181 -172l52 -53l204 195v215q-57 42 -137.5 69t-170.5 41.5t-176 20.5t-154 6zM1421 1593q-62 0 -144 -5t-170 -19t-168.5 -39
t-139.5 -64l39 -60q54 36 128 59t156 35.5t160 17.5t139 5t139 -5t160 -17.5t156 -35.5t128 -59l39 60q-59 39 -139.5 64t-168.5 39t-170 19t-144 5zM1431 1261v-70q-112 0 -212.5 -11t-177.5 -35v74q81 21 181.5 31.5t208.5 10.5zM1431 1079v-70q-112 0 -212.5 -11
t-177.5 -35v74q81 21 181.5 31.5t208.5 10.5zM1431 897v-70q-112 0 -212.5 -11t-177.5 -35v74q81 21 181.5 31.5t208.5 10.5zM1421 1364q-142 0 -243 -19t-199 -64v-810l441 62l443 -62v810q-99 45 -199.5 64t-242.5 19zM1431 715v-70q-112 0 -212.5 -11t-177.5 -35v74
q81 21 181.5 31.5t208.5 10.5zM1423 423q-138 0 -259 -17t-211.5 -45t-140.5 -59l26 -61q45 28 131.5 54t203.5 42t250 16q134 0 249.5 -16t201.5 -42t131 -54l26 61q-49 31 -139.5 59t-210 45t-258.5 17zM1421 569q-122 0 -237 -16t-198 -44l-203 -198v-278
q47 -35 140.5 -65.5t222 -50t277.5 -19.5q150 0 277 19.5t220 50t140 65.5v279l-205 197q-82 28 -197 44t-237 16zM1421 494q112 0 215.5 -13.5t178.5 -38.5l170 -152v-216q-76 -39 -223 -70t-339 -31t-340.5 31t-224.5 70v217l168 151q75 25 179 38.5t216 13.5zM1421 249
q-122 0 -242.5 -16.5t-219.5 -49.5t-158 -80l35 -58q46 39 136 69t207 47.5t242 17.5q126 0 243 -17.5t207.5 -47.5t134.5 -69l35 58q-56 47 -155.5 80t-220.5 49.5t-244 16.5zM1423 113q-57 0 -97.5 -11.5t-40.5 -32.5q0 -20 40.5 -31.5t97.5 -11.5t97 11.5t40 31.5
q0 21 -40 32.5t-97 11.5z" />
</svg>