<?xml version="1.0" standalone="no"?>
<!DOCTYPE svg PUBLIC "-//W3C//DTD SVG 1.1//EN" "http://www.w3.org/Graphics/SVG/1.1/DTD/svg11.dtd">
<svg xmlns="http://www.w3.org/2000/svg" xmlns:xlink="http://www.w3.org/1999/xlink" version="1.1"
   viewBox="94 -151 2414 2169">
   <path fill="currentColor"
      d="M1397 -84q49 0 121 4t189 16l-88 73q-54 -7 -111.5 -10t-110.5 -3q-233 0 -390 99l-32 20q-94 58 -159.5 82.5t-131.5 24.5h-244v693q97 1 206 12t207 41q3 59 19.5 100t59.5 77.5t123 83.5q116 67 183 138t95.5 163.5t28.5 222.5v39q0 61 14 83.5t45 22.5
q71 0 114.5 -73.5t43.5 -199.5q0 -93 -21.5 -172.5t-43 -156t-21.5 -160.5l83 42q7 70 27 139.5t38 144.5t18 163q0 159 -65 256t-173 97q-139 0 -139 -186v-39q0 -116 -23.5 -195t-81.5 -139t-162 -120q-117 -68 -169.5 -126.5t-66.5 -141.5q-103 -26 -213.5 -31t-205.5 -5
v-853h324q55 0 109 -20.5t140 -74.5l32 -20q176 -111 432 -111zM1845 -96q23 -4 32 -5t14 -1q68 0 114 59t46 144q0 88 -55 134l-92 -44q67 -14 67 -90q0 -56 -26.5 -92t-65.5 -30l-212 33q-89 14 -89 101q0 45 25 64.5t83 19.5h117l-140 77q-79 -5 -122 -46t-43 -115
t42.5 -122t116.5 -59zM1187 511q105 31 190.5 100.5t137 157t55.5 172.5l-73 51q-6 -92 -53 -175t-121.5 -144.5t-165.5 -86.5zM1976 170q109 -14 175 46t66 171q0 105 -62.5 162t-179.5 57h-222q-104 0 -169.5 -50t-65.5 -147q0 -81 48.5 -138t139.5 -68zM1986 250l-270 33
q-61 7 -89.5 41.5t-28.5 84.5q0 63 41.5 90t111.5 27h222q86 0 125 -34t39 -105q0 -74 -39 -110t-112 -27zM1724 525h282q112 0 173 57t61 166q0 110 -61 166.5t-171 44.5l-309 -33q-110 -12 -153.5 -65.5t-43.5 -135.5q0 -88 60.5 -144t161.5 -56zM1726 607
q-67 0 -105.5 30.5t-38.5 87.5q0 51 26 82t99 39l309 33q144 16 144 -131q0 -77 -37.5 -109t-114.5 -32h-282zM1719 850l278 29q68 7 108.5 65t40.5 147q0 109 -63.5 162.5t-170.5 40.5l-221 -28q-121 -16 -187 -74t-66 -146q0 -101 71 -155.5t210 -40.5zM1711 930
q-94 -10 -143.5 21.5t-49.5 94.5q0 56 47 92.5t136 47.5l221 28q144 18 144 -123q0 -57 -21 -92.5t-58 -39.5z" />
</svg>