<?xml version="1.0" standalone="no"?>
<!DOCTYPE svg PUBLIC "-//W3C//DTD SVG 1.1//EN" "http://www.w3.org/Graphics/SVG/1.1/DTD/svg11.dtd">
<svg xmlns="http://www.w3.org/2000/svg" xmlns:xlink="http://www.w3.org/1999/xlink" version="1.1"
   viewBox="94 -151 2414 2169">
   <path fill="currentColor"
      d="M855 1978q-96 0 -147 -16t-70.5 -67t-23.5 -156l-39 -1265q-4 -113 42.5 -161t167.5 -48h1030q121 0 167.5 48t42.5 161l-39 1265q-3 105 -23 156t-70.5 67t-147.5 16h-890zM1565 1792q-19 0 -31 -11t-12 -28t11.5 -28.5t29.5 -12.5q88 -4 119.5 -32.5t34.5 -106.5
q1 -18 12.5 -29.5t28.5 -11.5q39 0 39 45q0 105 -58.5 160t-173.5 55zM1051 1205l216 -4l-8 -244l-224 3zM855 1898h890q74 0 107 -9t42.5 -43t11.5 -109l39 -1263q2 -58 -6.5 -85.5t-37 -35.5t-86.5 -8h-1030q-57 0 -86 8t-37.5 35.5t-6.5 85.5l39 1263q3 75 12 109
t42.5 43t106.5 9zM1321 1695q-19 0 -29 -12t-12 -43l-14 -366h-215q0 54 -23 54q-9 0 -15 -7.5t-12 -32.5l-102 -429q-3 -14 5 -23t24 -9q24 0 48 17t38 46l238 -13v-169q-31 -35 -45.5 -57t-14.5 -32q0 -9 18 -26t36 -17q17 0 41 8.5t49 22.5q60 32 60 73q0 20 -16 42v147
l178 -17q28 -3 55.5 -15.5t43.5 -12.5q17 0 41.5 14.5t50.5 32.5v27q-13 12 -25.5 30t-19.5 43l-62 225q26 15 34.5 28t9.5 32q0 16 -13 16l-299 2l-14 366q-1 31 -11.5 43t-27.5 12zM798 713q-17 0 -28.5 -12t-10.5 -31q5 -114 61 -165.5t172 -51.5q19 0 31 11t12 28
t-11.5 28.5t-29.5 12.5q-88 4 -120 32.5t-35 106.5q-1 18 -12.5 29.5t-28.5 11.5zM1374 1198h189l36 -204l-19 -43l-206 3v244zM588 430q0 -99 11 -164t46.5 -100.5t107.5 -43.5q63 -8 201.5 -11.5t345.5 -3.5t345.5 3.5t201.5 11.5q73 8 108 43.5t46 100.5t11 164l-85 -112
h-1254zM619 236q12 -130 35.5 -200t70.5 -98t129 -31q116 -5 223.5 -7t222.5 -2q116 0 223.5 2t222.5 7q82 3 129 31t70.5 98t35.5 200l-80 6q-10 -112 -25 -165t-45.5 -70.5t-88.5 -19.5q-114 -5 -220 -7t-222 -2q-115 0 -221.5 2t-220.5 7q-58 2 -88.5 19.5t-45 70.5
t-25.5 165z" />
</svg>