<?xml version="1.0" standalone="no"?>
<!DOCTYPE svg PUBLIC "-//W3C//DTD SVG 1.1//EN" "http://www.w3.org/Graphics/SVG/1.1/DTD/svg11.dtd">
<svg xmlns="http://www.w3.org/2000/svg" xmlns:xlink="http://www.w3.org/1999/xlink" version="1.1"
   viewBox="94 -151 2414 2169">
   <path fill="currentColor"
      d="M578 1198q-18 0 -29.5 -12t-11.5 -29v-113q0 -17 11.5 -29t29.5 -12h46v195h-46zM699 1407q-38 0 -63.5 -26t-25.5 -63v-339q0 -38 25.5 -63.5t63.5 -25.5h74q38 0 63.5 25.5t25.5 63.5v339q0 37 -25.5 63t-63.5 26h-74zM699 1340h74q23 0 23 -22v-339q0 -22 -23 -22h-74
q-23 0 -23 22v339q0 22 23 22zM848 1198v-195h46q18 0 29.5 12t11.5 29v113q0 17 -11.5 29t-29.5 12h-46zM1300 250h-671l-148 117h819v80h-901l-86 254h987v80h-1006v278h1006v80h-1006v759h1006v80h-1086v-1249l124 -345l273 -214h689v80zM1300 34h-137q-46 0 -74.5 27.5
t-55.5 110.5q-25 76 -51.5 103t-82.5 27h-87q-41 0 -48 -12.5t9.5 -30.5t43.5 -33l28 -16q24 -14 38 -38.5t33 -86.5q33 -107 83.5 -147t143.5 -40h157v136zM2022 1198h-46v-195h46q18 0 29.5 12t11.5 29v113q0 17 -11.5 29t-29.5 12zM1901 1407h-74q-38 0 -63.5 -26
t-25.5 -63v-339q0 -38 25.5 -63.5t63.5 -25.5h74q38 0 63.5 25.5t25.5 63.5v339q0 37 -25.5 63t-63.5 26zM1901 1340q23 0 23 -22v-339q0 -22 -23 -22h-74q-23 0 -23 22v339q0 22 23 22h74zM1752 1198h-46q-18 0 -29.5 -12t-11.5 -29v-113q0 -17 11.5 -29t29.5 -12h46v195z
M1300 250v-80h689l273 214l124 345v1249h-1086v-80h1006v-759h-1006v-80h1006v-278h-1006v-80h987l-86 -254h-901v-80h819l-148 -117h-671zM1300 34v-136h157q93 0 143.5 40t83.5 147q20 62 33.5 86.5t37.5 38.5l28 16q28 15 44 33t9.5 30.5t-48.5 12.5h-87q-55 0 -82 -27
t-52 -103q-27 -83 -55.5 -110.5t-74.5 -27.5h-137z" />
</svg>