<?xml version="1.0" standalone="no"?>
<!DOCTYPE svg PUBLIC "-//W3C//DTD SVG 1.1//EN" "http://www.w3.org/Graphics/SVG/1.1/DTD/svg11.dtd">
<svg xmlns="http://www.w3.org/2000/svg" xmlns:xlink="http://www.w3.org/1999/xlink" version="1.1"
   viewBox="94 -151 2414 2169">
   <path fill="currentColor"
      d="M1028 1978q-175 0 -263.5 -234.5t-88.5 -682.5q0 -63 -25 -134.5t-58 -154t-58 -180t-25 -213.5q0 -223 104 -352t282 -129q78 0 154 17.5t144 35t123 17.5q75 0 133 -17.5t118 -35t139 -17.5q180 0 281.5 135t101.5 379q0 135 -24 233.5t-55.5 174.5t-55.5 145t-24 146
q0 61 10.5 155t10.5 184q0 245 -67.5 386.5t-184.5 141.5q-100 0 -152.5 -133.5t-52.5 -383.5q0 -144 -38.5 -235t-100.5 -91q-97 0 -148 168t-51 493q0 96 -30.5 139t-98.5 43zM1028 1898q29 0 39 -18t10 -84q0 -741 279 -741q101 0 160 111t59 295q0 204 35.5 320.5
t89.5 116.5q75 0 123.5 -121.5t48.5 -326.5q0 -30 -3 -77.5t-7.5 -99.5t-7.5 -96t-3 -66q0 -88 24 -166.5t55.5 -158t55.5 -170.5t24 -204q0 -212 -79.5 -323t-223.5 -111q-68 0 -126.5 17.5t-121 35t-142.5 17.5q-64 0 -135 -17.5t-143 -35t-143 -17.5q-142 0 -224 105
t-82 296q0 97 25 189t58 177.5t58 164.5t25 151q0 407 72 622t200 215zM1319 316q-156 0 -323 -81l36 -72q147 73 287 73q127 0 253 -60l34 72q-144 68 -287 68z" />
</svg>