<?xml version="1.0" standalone="no"?>
<!DOCTYPE svg PUBLIC "-//W3C//DTD SVG 1.1//EN" "http://www.w3.org/Graphics/SVG/1.1/DTD/svg11.dtd">
<svg xmlns="http://www.w3.org/2000/svg" xmlns:xlink="http://www.w3.org/1999/xlink" version="1.1"
   viewBox="94 -151 2414 2169">
   <path fill="currentColor"
      d="M2020 79l-58 -55q24 -23 56.5 -34.5t66.5 -11.5q31 0 60.5 9.5t52.5 29.5q135 118 135 241q0 101 -90 191l-265 265q-28 28 -57.5 45t-64.5 31q-41 17 -88 43.5t-111 88.5l-953 939q-118 117 -207 117q-56 0 -100 -46l-87 -91q-43 -46 -43 -104q0 -75 68 -140l898 -866
q44 -41 133.5 -78.5t225.5 -74.5l-52 53q-6 -35 -7.5 -59t-1.5 -50q0 -50 28 -109l68 38q-7 19 -11.5 38t-4.5 33q0 28 3 60t9 72q-129 34 -215 68.5t-119 66.5l-898 866q-44 42 -44 83q0 26 21 49l87 91q18 20 43 20q55 0 150 -95l953 -939q71 -70 124.5 -100t99.5 -48
q30 -12 52.5 -24t44.5 -34l265 -265q66 -66 66 -135q0 -44 -26.5 -89.5t-82.5 -91.5q-23 -19 -59 -19q-41 0 -65 21zM2140 95q44 44 44 105q0 55 -38 95l-256 261q-42 44 -104 44q-58 0 -97 -39l-158 -158q-44 -44 -44 -104q0 -57 38 -95l256 -261q45 -45 104 -45
q57 0 97 40zM2084 152l-158 -158q-15 -15 -40 -15q-29 0 -47 20l-256 261q-16 16 -16 40q0 27 20 47l158 158q15 15 40 15q29 0 47 -20l256 -261q16 -16 16 -40q0 -27 -20 -47zM1926 -6l62 -48q37 43 37 98q0 56 -37 93l-256 261q-43 45 -105 45q-53 0 -88 -34l48 -62
q14 14 39 14q30 0 48 -19l256 -261q16 -16 16 -40q0 -27 -20 -47z" />
</svg>