<?xml version="1.0" standalone="no"?>
<!DOCTYPE svg PUBLIC "-//W3C//DTD SVG 1.1//EN" "http://www.w3.org/Graphics/SVG/1.1/DTD/svg11.dtd">
<svg xmlns="http://www.w3.org/2000/svg" xmlns:xlink="http://www.w3.org/1999/xlink" version="1.1"
   viewBox="94 -151 2414 2169">
   <path fill="currentColor"
      d="M1367 849q-28 0 -53.5 -1t-59.5 -3v-60q40 4 111 4q135 -1 256 -31.5t214 -83t146 -120t53 -142.5q0 -87 -77 -158t-211 -112.5t-305 -41.5q-123 0 -233.5 22.5t-196 61t-134 87.5t-48.5 103q0 79 116.5 129t297.5 50q174 0 281.5 -47t107.5 -120q0 -50 -46.5 -84.5
t-132.5 -34.5q-80 0 -121.5 19t-41.5 44q0 17 18.5 28t49.5 11h12v52q-7 1 -14.5 1.5t-14.5 0.5q-54 0 -92.5 -29t-38.5 -71q0 -54 71 -93.5t183 -39.5q88 0 160 28t114.5 73.5t42.5 100.5q0 69 -68 125.5t-189 90t-280 33.5q-160 0 -285.5 -34.5t-197 -93t-71.5 -131.5
q0 -76 59 -143.5t163.5 -119.5t242 -81.5t294.5 -29.5q206 0 361 51.5t242 140.5t87 203q0 99 -67 180.5t-179.5 141t-249 92t-276.5 32.5zM656 1216q-129 -47 -211.5 -137.5t-116.5 -234.5l58 -15q29 121 102 206.5t188 125.5zM949 1978q3 -29 40 -62t104 -33q11 0 23.5 1
t25.5 5q24 -35 60 -57t76 -22q84 0 141 25q35 -24 81 -40t101 -16q116 0 182 81q74 0 126.5 32.5t62.5 85.5h-1023zM1379 1845l-91 -18q69 -74 111.5 -168t42.5 -173q0 -26 -4.5 -50t-10.5 -45l72 -37q12 43 18 74.5t6 57.5q0 85 -35.5 171.5t-108.5 187.5zM1614 1874
l-118 -26q58 -23 114.5 -73t99.5 -110.5t59 -115.5l92 -50q-13 105 -81.5 205t-165.5 170zM1484 1404q-126 0 -225.5 -33t-163.5 -120q-142 -24 -210 -85t-95 -180l89 -4q14 90 68.5 133t190.5 68q35 72 132 110.5t215 38.5q58 0 113.5 -8t95.5 -24l18 56q-43 20 -100 34
t-128 14zM1253 1073q-182 0 -304.5 -27.5t-198 -72.5t-115.5 -99t-55.5 -108.5t-18.5 -99.5q-49 -38 -80.5 -95t-31.5 -119q0 -89 66 -163t177 -118.5t244 -44.5l-129 103q-59 0 -124 31.5t-109.5 82t-44.5 109.5q0 45 27.5 91.5t73.5 71.5q0 92 37 164t116 122t204 76
t301 26q47 0 110.5 -2.5t135.5 -7.5l6 62q-154 18 -287 18zM1633 1584l-9 -59q123 -15 177 -56.5t54 -117.5q0 -50 -25 -97q14 -14 21 -32.5t7 -36.5q0 -53 -48 -94l57 -63q70 55 70 142q0 46 -21 91q19 41 19 83q0 109 -70.5 165.5t-231.5 74.5zM498 76l-32 -53
q105 -57 220 -89t236 -36l3 59q-132 10 -236.5 39.5t-190.5 79.5zM1410 1225l-3 -60q202 0 304 -54t102 -167q0 -32 -3 -69q85 -46 119.5 -96t42.5 -138l72 -41q2 9 2.5 21.5t0.5 23.5q0 81 -43 158t-116 113q3 24 3 44q0 130 -125.5 197.5t-355.5 67.5zM2112 1097l-39 -45
q140 -122 140 -302q0 -7 -0.5 -14t-1.5 -14l59 -5q2 8 2 16v16q0 211 -160 348z" />
</svg>