<?xml version="1.0" standalone="no"?>
<!DOCTYPE svg PUBLIC "-//W3C//DTD SVG 1.1//EN" "http://www.w3.org/Graphics/SVG/1.1/DTD/svg11.dtd">
<svg xmlns="http://www.w3.org/2000/svg" xmlns:xlink="http://www.w3.org/1999/xlink" version="1.1"
   viewBox="94 -151 2414 2169">
   <path fill="currentColor"
      d="M1209 1978v-204h-223v-180h223v-221q-113 -22 -201 -90.5t-138.5 -168t-50.5 -214.5q0 -73 21.5 -142t62.5 -127l-114 -115l-156 153l-126 -130l154 -151l-181 -183v205h-180v-512h512v180h-203l182 184l164 -160l126 130l-162 158l113 112q59 -41 126.5 -62t141.5 -21
t142 21t126 62l423 -424h-203v-180h512v512h-180v-205l-423 426q41 58 62.5 127t21.5 142q0 116 -50.5 216t-139 168t-202.5 89v221h223v180h-223v204h-180zM1300 1202q83 0 151 -41t109 -109.5t41 -151.5t-41 -151t-109 -109t-151 -41q-82 0 -150.5 41t-109.5 109t-41 151
q0 82 41 151t109.5 110t150.5 41z" />
</svg>