<?xml version="1.0" standalone="no"?>
<!DOCTYPE svg PUBLIC "-//W3C//DTD SVG 1.1//EN" "http://www.w3.org/Graphics/SVG/1.1/DTD/svg11.dtd">
<svg xmlns="http://www.w3.org/2000/svg" xmlns:xlink="http://www.w3.org/1999/xlink" version="1.1"
   viewBox="94 -151 2414 2169">
   <path fill="currentColor"
      d="M1904 1828q-130 0 -252 -34t-240.5 -84t-237 -100.5t-241.5 -84.5t-255 -34q-128 0 -270.5 32.5t-283.5 100.5v-1394q159 -101 304.5 -141.5t267.5 -40.5q130 0 252 34t240.5 84t237 100.5t241.5 84.5t255 34q128 0 270.5 -33t283.5 -100v1394q-159 100 -304.5 141
t-267.5 41zM1271 1383v-80h-89v-66h89v-93q-66 -12 -110.5 -66t-44.5 -125q0 -55 33 -104l-48 -48l-66 65l-47 -47l65 -65l-79 -79v82h-72v-204h205v72h-81l79 78l64 -64l46 47l-63 64l49 49q23 -16 50.5 -25.5t57.5 -9.5q54 0 98 27l167 -166h-81v-72h205v205h-72v-83
l-165 164q39 50 39 114q0 71 -44.5 125t-110.5 66v93h91v66h-91v80h-74zM1307 1068q47 0 80 -34t33 -81q0 -46 -33 -79t-80 -33q-46 0 -78.5 33t-32.5 79q0 47 32.5 81t78.5 34zM1904 1748q119 0 239 -34t253 -113v-1229q-238 93 -474 93q-136 0 -263 -34t-248 -84.5
t-239 -100.5t-236 -84t-240 -34q-118 0 -238.5 34t-253.5 113v1229q238 -93 474 -93q136 0 263 34t248 84t239 100.5t236.5 84.5t239.5 34z" />
</svg>