<?xml version="1.0" standalone="no"?>
<!DOCTYPE svg PUBLIC "-//W3C//DTD SVG 1.1//EN" "http://www.w3.org/Graphics/SVG/1.1/DTD/svg11.dtd">
<svg xmlns="http://www.w3.org/2000/svg" xmlns:xlink="http://www.w3.org/1999/xlink" version="1.1"
   viewBox="94 -151 2414 2169">
   <path fill="currentColor"
      d="M523 1205l-53 -60q65 -57 132.5 -99.5t139.5 -71.5q62 -26 131 -46.5t136 -36.5q77 -19 148.5 -40t138.5 -50q168 -73 294.5 -177.5t246.5 -268.5q65 -90 141.5 -158.5t161.5 -115.5l5 20q-23 -6 -45.5 -9t-45.5 -3q-76 0 -130 13t-104 42q-115 66 -196.5 93t-170.5 27
q-52 0 -100 -15t-103 -50.5t-130 -96.5q-119 -98 -309 -98q-118 0 -218 19t-202 60l-30 -74q107 -44 216 -64.5t234 -20.5q120 0 209 32.5t151 83.5q77 63 142 103.5t140 40.5q95 0 171.5 -31.5t155.5 -77.5q64 -37 130.5 -50.5t143.5 -13.5q66 0 138 18t132 62
q-136 37 -240.5 121.5t-181.5 189.5q-104 143 -236.5 263t-337.5 209q-71 31 -147 53t-153 42q-66 16 -131.5 35.5t-124.5 43.5q-67 27 -128.5 65.5t-120.5 91.5zM578 1978q-43 0 -49 -43l-252 -1985q-3 -23 10.5 -37.5t39.5 -14.5q20 0 32 10t14 29l252 1985q3 24 -10.5 40
t-36.5 16z" />
</svg>