<?xml version="1.0" standalone="no"?>
<!DOCTYPE svg PUBLIC "-//W3C//DTD SVG 1.1//EN" "http://www.w3.org/Graphics/SVG/1.1/DTD/svg11.dtd">
<svg xmlns="http://www.w3.org/2000/svg" xmlns:xlink="http://www.w3.org/1999/xlink" version="1.1"
   viewBox="94 -151 2414 2169">
   <path fill="currentColor"
      d="M248 1978v-2080l2104 2080h-2104zM328 1898h1829l-1829 -1809v1809zM775 1167v284h284zM695 974l557 557h-557v-557zM565 510l-44 -44l113 -114l44 44zM668 710l-50 -51l160 -160l50 51zM862 806l-45 -43l114 -114l44 44zM965 1006l-50 -51l160 -160l50 51zM1159 1104
l-44 -44l113 -114l45 44zM1262 1304l-50 -51l159 -160l51 50zM1456 1400l-44 -44l113 -113l44 44zM1560 1600l-52 -50l161 -160l51 51zM1753 1699l-44 -45l113 -114l44 44z" />
</svg>