<?xml version="1.0" standalone="no"?>
<!DOCTYPE svg PUBLIC "-//W3C//DTD SVG 1.1//EN" "http://www.w3.org/Graphics/SVG/1.1/DTD/svg11.dtd">
<svg xmlns="http://www.w3.org/2000/svg" xmlns:xlink="http://www.w3.org/1999/xlink" version="1.1"
   viewBox="94 -151 2414 2169">
   <path fill="currentColor"
      d="M1364 769q0 -45 -8.5 -69.5t-31.5 -24.5q-34 0 -54 48q17 16 39.5 27.5t54.5 18.5zM637 1068q42 0 86 -14t84 -37q0 123 22 208.5t50.5 148t50.5 115t22 110.5q0 34 -25.5 62t-58.5 52.5t-58.5 49.5t-25.5 53q0 41 47 61.5t142 20.5q130 0 200 -54t76 -166
q54 17 121.5 30t113.5 13q41 0 94.5 -11.5t115.5 -35.5q6 113 77.5 168.5t201.5 55.5q95 0 142 -20.5t47 -61.5q0 -29 -26 -55.5t-60 -55t-60 -63t-26 -79.5q0 -33 12 -59.5t29.5 -53.5t33 -62t21.5 -85l68 63q-9 40 -28 73.5t-34.5 61.5t-15.5 52q0 34 26 64.5t60 60.5
t60 63.5t26 74.5q0 76 -70 119t-205 43q-136 0 -228.5 -53t-116.5 -149q-42 14 -73 19.5t-71 5.5q-87 0 -167 -22q-25 94 -117.5 146.5t-226.5 52.5q-135 0 -205 -43t-70 -119q0 -40 25.5 -71t58.5 -56.5t58.5 -48t25.5 -44.5q0 -47 -21 -94.5t-48 -103.5t-48 -127.5
t-21 -166.5l46 7q-32 16 -69 27t-81 11zM1448 815q-79 0 -137 -26.5t-89 -63.5t-31 -69q0 -34 36 -34q29 0 87 21t134 21t134.5 -21t86.5 -21q36 0 36 34q0 32 -31 69t-88.5 63.5t-137.5 26.5zM1532 771q60 -15 95 -48q-12 -27 -24 -37.5t-31 -10.5q-23 0 -31.5 26t-8.5 70z
M1273 509q-28 0 -46 -20.5t-18 -48.5q0 -29 18 -49t46 -20q27 0 45 20t18 49q0 28 -18 48.5t-45 20.5zM1628 509q-27 0 -45 -20.5t-18 -48.5q0 -29 18 -49t45 -20q28 0 46 20t18 49q0 28 -18 48.5t-46 20.5zM659 571l-40 -8l70 -258l45 -356l41 11l-44 354zM548 407l21 -253
l41 3l-21 254zM631 1298l-183 -17l-4 -162l64 -16v113l76 7l129 -735l50 -103l30 -224l-59 -48l4 -104l-18 -59l-53 -24l-50 59l-41 12q-14 20 -18 36.5t-4 35.5q-29 4 -47 15l-23 347l26 111l-6 260l-68 -51l6 -209l-24 -124l24 -368q26 -26 53 -36q2 -14 9 -30t20 -37
l49 -14l61 -73l48 -12l24 21l68 35l27 74l-8 92l68 51l-31 273l-54 112zM420 1150q-61 0 -108.5 -39t-74.5 -100t-27 -128q0 -91 45 -150t118 -59q101 0 150 73.5t49 199.5q0 97 -43 150t-109 53zM424 1078q33 0 53 -34.5t20 -89.5q0 -107 -29.5 -153t-96.5 -46
q-38 0 -62 32.5t-24 89.5q0 45 19.5 91.5t51.5 78t68 31.5zM888 1121l-110 29l-12 -58l40 -11q-7 -49 -21.5 -109t-30 -116t-28.5 -92l71 -21q17 49 37 124t36 145.5t18 108.5zM1008 1237q-23 0 -40.5 -17.5t-17.5 -40.5t17.5 -40t40.5 -17t40 17t17 40t-17 40.5t-40 17.5z
M1286 1700l-39 50l-69 -50l-101 60l-22 -87l-74 85l-89 -179l52 -35l54 101l90 -104l29 121l65 -38zM1655 1694l105 -80l67 41l44 -89l81 69l40 -81l57 37l-75 158l-78 -70l-35 68l-97 -57l-70 55zM1950 1089l12 66l-327 67l-101 158l-125 -191l-214 -30l-150 -162l-49 -8
l-156 -420l62 -32l144 390l33 6l150 162l238 35l70 119l59 -97l23 3zM2214 1389q-41 0 -85 -15.5t-87.5 -55.5t-84 -111.5t-74.5 -183.5l74 -32q35 100 68 162.5t64 96t60.5 46t58.5 12.5q44 0 70.5 -28t26.5 -67q0 -56 -34 -133.5t-81.5 -160.5t-89.5 -157t-57 -123
l-46 -147q-65 -209 -196 -304t-340 -95q-185 0 -324 98t-208 307l-51 155q-31 93 -75.5 133.5t-111.5 40.5v-80q33 -2 61 -31t49 -93l51 -155q77 -233 237 -344t372 -111q238 0 392.5 117t221.5 334l37 119q20 64 65 144t94 167t84 172t35 159q0 64 -48 114t-128 50z" />
</svg>