<?xml version="1.0" standalone="no"?>
<!DOCTYPE svg PUBLIC "-//W3C//DTD SVG 1.1//EN" "http://www.w3.org/Graphics/SVG/1.1/DTD/svg11.dtd">
<svg xmlns="http://www.w3.org/2000/svg" xmlns:xlink="http://www.w3.org/1999/xlink" version="1.1"
   viewBox="94 -151 2414 2169">
   <path fill="currentColor"
      d="M434 1978q-71 0 -122.5 -51t-51.5 -121v-1735q0 -71 51 -122t122 -51h1734q71 0 122 51t51 122v1735q0 70 -51.5 121t-122.5 51h-1732zM1850 1968q-4 -128 -44.5 -211.5t-128 -135t-234.5 -81.5l-81 -17q-187 -39 -278 -106.5t-91 -155.5q0 -26 10.5 -69.5t38.5 -65.5
l84 -12q-19 18 -36 62.5t-17 74.5q0 64 77.5 114.5t228.5 81.5l83 17q161 33 259.5 91.5t147 153.5t58.5 238zM1025 1061q-45 -38 -94 -102.5t-136 -188.5l-28 -40q-100 -144 -173.5 -228.5t-128.5 -121.5t-102 -37q-19 0 -40 6l-24 -76q17 -5 33 -7.5t31 -2.5
q65 0 131.5 40.5t148 132.5t190.5 248l28 40q58 83 96 135.5t66 85t54 55.5zM434 1898h1732q38 0 66 -27.5t28 -64.5v-1735q0 -38 -27.5 -65.5t-65.5 -27.5h-1734q-38 0 -65.5 27.5t-27.5 65.5v1735q0 37 28 64.5t66 27.5zM1996 1546q-56 0 -111 -18t-91 -49t-36 -71
q0 -33 23.5 -56t66.5 -54l25 -18l86 22q-71 40 -96 62.5t-25 44.5q0 21 45 40t103 19q24 0 52 -5l10 79q-21 4 -52 4zM1119 1024l-71 -27l119 -312q65 -172 132 -248t158 -76q49 0 106 23l-29 70q-42 -17 -77 -17q-59 0 -109.5 61t-109.5 214zM1067 343q-89 0 -136.5 -15
t-47.5 -43q0 -11 3 -20q-29 2 -44.5 2.5t-26.5 0.5q-133 0 -203 -25.5t-70 -74.5t70 -74.5t203 -25.5q131 0 199 25t75 72q75 2 123.5 31t48.5 71q0 38 -46.5 57t-147.5 19zM1067 293q74 0 109 -5.5t35 -20.5q0 -17 -48.5 -38t-110.5 -21h-10.5t-10.5 1q9 -14 9 -34
q0 -24 -62 -40.5t-163 -16.5q-105 0 -164 16t-59 34t59 34t164 16q17 0 43.5 -0.5t79.5 -3.5q-14 21 -14 43q0 10 23 23t120 13zM1850 1210q-80 -2 -151 -8t-123 -13l122 -309q25 -62 40 -91t22 -29t21 31.5t32 90.5l50 162l78 -141q8 -15 15.5 -25t9.5 -10q6 0 22 28l42 73
zM1992 1324q-68 0 -125 -31t-57 -83q0 -29 20.5 -56.5t57.5 -58.5q20 -17 39.5 -36.5t36.5 -39.5l10 -12q23 -27 42 -56t35 -55q28 -47 48.5 -66t46.5 -19q38 0 61.5 33.5t45.5 110.5q10 34 29 69t47 70l-54 54q-23 -20 -42 -49.5t-30 -61.5l-11 -31q-19 -53 -29 -73.5
t-21 -20.5q-13 0 -27.5 24t-34 60.5t-49.5 73.5l-9 11q-23 28 -53.5 52t-52.5 43.5t-22 35.5q0 18 33.5 26t64.5 8q23 0 46.5 -2.5t44.5 -8.5l24 65q-25 11 -54 17.5t-61 6.5zM1431 1101l-75 -9q45 -361 124.5 -584.5t197 -327.5t274.5 -104q99 0 187 39t179 118l-50 57
q-84 -73 -159 -105.5t-157 -32.5q-137 0 -239 99.5t-171.5 309t-110.5 540.5zM1825 1005l-76 -2q6 -170 77 -268.5t195 -132.5q0 -213 -51.5 -323t-129.5 -110v-60q125 0 191.5 139t66.5 416q-119 13 -193.5 100.5t-79.5 240.5zM2090 1814q-40 0 -63.5 -12.5t-42 -29
t-42 -29t-63.5 -12.5q-61 0 -107.5 -35.5t-46.5 -88.5q0 -31 25 -65.5t68 -68.5l48 33q-30 31 -47.5 60.5t-17.5 40.5q0 17 25 34t73 17q49 0 78 20t54 40t59 20q49 0 82 -16.5t65.5 -33.5t77.5 -18v77q-48 0 -76 10t-47.5 23.5t-42 23.5t-59.5 10zM296 1701l24 -76
q38 -3 80.5 -39.5t63.5 -79.5q35 10 58 14t42 4q50 0 70 -42l72 24q-16 43 -56.5 68.5t-85.5 25.5q-31 0 -72 -12q-34 55 -89 82t-107 31zM329 1858l-43 -63q35 -23 88 -42.5t109 -36.5q140 -43 197.5 -80.5t57.5 -74.5q0 -11 -14 -22.5t-55 -35.5h-26
q-90 -58 -143.5 -139.5t-53.5 -166.5q30 25 66 25q26 0 26 -34q0 -17 -6 -38t-23 -52l-228 -437q20 -9 35 -9q34 0 60 37.5t61 105.5l123 238l26 -65q9 -22 13 -29t5 -7q3 0 20 36l29 59l42 -106q12 -29 17.5 -39t8.5 -10q2 0 7 8.5t21 40.5l86 175h132l48 -131
q20 -56 28 -72.5t10 -16.5t8 10.5t25 51.5l58 126h97l83 -189q13 -29 18 -37t7 -8q5 0 11 9t15 32l73 193h223l20 67h-650q-69 6 -146 29.5t-144.5 56t-109.5 66t-42 58.5q0 22 17 39.5t74 46.5q60 30 92 59.5t32 74.5q0 63 -49 105.5t-120.5 71t-138.5 50.5
q-56 18 -102.5 34.5t-74.5 35.5z" />
</svg>