<?xml version="1.0" standalone="no"?>
<!DOCTYPE svg PUBLIC "-//W3C//DTD SVG 1.1//EN" "http://www.w3.org/Graphics/SVG/1.1/DTD/svg11.dtd">
<svg xmlns="http://www.w3.org/2000/svg" xmlns:xlink="http://www.w3.org/1999/xlink" version="1.1"
   viewBox="94 -151 2414 2169">
   <path fill="currentColor"
      d="M451 1527q-17 6 -31.5 -2t-18.5 -25q-6 -26 -9 -59.5t-3 -73.5q0 -26 1 -52.5t5 -48.5q3 -17 15.5 -27t28.5 -7q15 3 23.5 15.5t6.5 27.5q-4 22 -4.5 45.5t-0.5 46.5q0 73 10 117q7 33 -23 43zM792 858q-25 0 -39 -14t-14 -41v-59h-58q-54 0 -54 -54q0 -55 54 -55h59v-57
q0 -55 55 -55q54 0 54 56v58h57q55 0 55 55q0 54 -55 54h-58v58q0 54 -56 54zM1120 1127q-58 0 -100 -41.5t-42 -99.5q0 -59 41.5 -100.5t100.5 -41.5t100.5 41.5t41.5 100.5q0 58 -42 99.5t-100 41.5zM1120 1047q25 0 43.5 -18.5t18.5 -42.5q0 -26 -18 -44t-44 -18t-44 18
t-18 44q0 25 18.5 43t43.5 18zM480 1698q57 0 96.5 -13.5t73.5 -55t74.5 -125t98.5 -222.5q98 -14 220.5 -21.5t256.5 -7.5t256.5 7.5t220.5 21.5q59 139 99 222.5t74 125t73.5 55t96.5 13.5q111 0 158 -57.5t47 -191.5q0 -96 -23 -259.5t-67 -360.5q-32 -141 -76.5 -232.5
t-112.5 -144.5t-168.5 -78t-242 -31.5t-335.5 -6.5q-193 0 -335 6.5t-242.5 31.5t-168.5 78t-112.5 144.5t-76.5 232.5q-44 197 -67 360.5t-23 259.5q0 134 47 191.5t158 57.5zM1480 1127q-58 0 -100 -41.5t-42 -99.5q0 -59 42 -100.5t100 -41.5q59 0 100.5 41.5t41.5 100.5
q0 58 -41.5 99.5t-100.5 41.5zM1480 1047q26 0 44 -18t18 -43q0 -26 -18 -44t-44 -18q-25 0 -43.5 18t-18.5 44q0 24 18.5 42.5t43.5 18.5zM2070 1532q-13 10 -29.5 7.5t-25.5 -15.5q-32 -47 -59.5 -100t-40.5 -99q-5 -19 2 -33.5t25 -18.5q16 -4 28 3.5t16 21.5
q14 46 38.5 95.5t51.5 87.5q21 30 -6 51zM1803 896q-28 0 -47.5 -19.5t-19.5 -45.5q0 -27 20 -47t47 -20q28 0 47 19.5t19 47.5q0 27 -19 46t-47 19zM1663 751q-26 0 -45.5 -19.5t-19.5 -47.5q0 -26 19.5 -45.5t45.5 -19.5q28 0 47.5 19.5t19.5 45.5q0 28 -19.5 47.5
t-47.5 19.5zM1947 765q-26 0 -46 -20t-20 -46q0 -27 19.5 -46.5t46.5 -19.5q28 0 47.5 19.5t19.5 46.5t-19.5 46.5t-47.5 19.5zM1808 619q-26 0 -45.5 -19.5t-19.5 -46.5q0 -26 19.5 -46t45.5 -20q27 0 46.5 20t19.5 46q0 27 -19.5 46.5t-46.5 19.5zM195 1449
q0 -80 13 -189.5t34.5 -226.5t44.5 -220q38 -167 95 -272t144 -165q11 -113 80.5 -170.5t187.5 -57.5q59 0 84.5 26.5t35.5 91.5q83 -6 178.5 -8t207.5 -2t208 2t178 8q11 -65 36.5 -91.5t83.5 -26.5q119 0 188 57.5t80 170.5q87 60 144 165t95 272q24 103 45 220t34 226.5
t13 189.5q0 166 -70 247.5t-215 81.5q-81 0 -135.5 -21t-95.5 -69t-79.5 -130t-88.5 -203q-83 -11 -187.5 -16.5t-233.5 -5.5t-233.5 5.5t-187.5 16.5q-49 121 -88 203t-80 130t-95.5 69t-135.5 21q-145 0 -215 -81.5t-70 -247.5z" />
</svg>