<?xml version="1.0" standalone="no"?>
<!DOCTYPE svg PUBLIC "-//W3C//DTD SVG 1.1//EN" "http://www.w3.org/Graphics/SVG/1.1/DTD/svg11.dtd">
<svg xmlns="http://www.w3.org/2000/svg" xmlns:xlink="http://www.w3.org/1999/xlink" version="1.1"
   viewBox="94 -151 2414 2169">
   <path fill="currentColor"
      d="M1595 1878q-218 0 -409.5 -74t-337 -205.5t-227.5 -305.5t-82 -373v-17q0 -99 -8.5 -164t-17 -117.5t-8.5 -110.5q0 -46 30.5 -85.5t79.5 -63.5q10 -72 54.5 -122.5t115.5 -50.5q27 0 52 4.5t49 12.5q73 -17 154 -25t168 -8q361 0 601.5 112.5t370 349t155.5 607.5
q3 42 14.5 96.5t22 108t10.5 95.5q0 78 -43.5 145.5t-114.5 109t-154 41.5q-44 0 -71.5 -1.5t-63.5 -4.5q-178 46 -340 46zM505 1636q-148 -164 -217.5 -316t-69.5 -297q0 -175 91 -339.5t254 -319.5l65 65l-91 64l41 196l13 378l119 281q-38 69 -89.5 141.5t-115.5 146.5z
M706 480q-20 0 -33 -12l-71 -61q-109 -93 -163.5 -154t-73.5 -100.5t-19 -68.5q0 -35 25 -60.5t51 -25.5q18 0 20.5 17t7 41t27.5 47l284 271q15 14 15 35q0 24 -21.5 47.5t-48.5 23.5zM1595 1800q77 0 156.5 -11.5t176.5 -36.5q39 4 65 6t77 2q59 0 112 -32t86.5 -82
t33.5 -104q0 -32 -10.5 -85t-21.5 -109t-15 -97q-30 -358 -146.5 -578t-336.5 -321t-564 -101q-91 0 -170 8.5t-152 28.5q-31 -10 -55.5 -15.5t-49.5 -5.5q-52 0 -72.5 39.5t-20.5 108.5q-28 1 -51.5 17t-37.5 37.5t-14 41.5q0 64 16.5 160.5t16.5 231.5v17q0 185 75 345
t208 280t311 187.5t383 67.5zM1726 695q-19 0 -34 -14q-75 -69 -182 -108q-105 -38 -230 -44q-17 -1 -28.5 -12.5t-11.5 -27.5q0 -17 12 -28.5t31 -11.5q61 0 128.5 14t128.5 37q92 34 155.5 79t63.5 83q0 13 -9.5 23t-23.5 10z" />
</svg>