<?xml version="1.0" standalone="no"?>
<!DOCTYPE svg PUBLIC "-//W3C//DTD SVG 1.1//EN" "http://www.w3.org/Graphics/SVG/1.1/DTD/svg11.dtd">
<svg xmlns="http://www.w3.org/2000/svg" xmlns:xlink="http://www.w3.org/1999/xlink" version="1.1"
   viewBox="94 -151 2414 2169">
   <path fill="currentColor"
      d="M1300 1928q-262 0 -476 -56.5t-367.5 -162t-236 -253.5t-82.5 -332q0 -176 68.5 -310t181 -223t244.5 -129l24 77q-133 40 -231.5 124t-152.5 201.5t-54 259.5q0 221 134 383.5t377.5 251.5t570.5 89q328 0 571 -89t377 -251.5t134 -383.5q0 -142 -54 -259.5
t-152.5 -201.5t-231.5 -124l24 -77q132 40 244.5 129t181 223t68.5 310q0 184 -82.5 332t-236 253.5t-367.5 162t-476 56.5zM891 1190q-101 -46 -138.5 -93t-23.5 -117l40 -192q4 -17 14.5 -25t23.5 -8q17 0 31 13t9 36l-40 192q-7 35 15.5 60.5t97.5 59.5q28 13 28 38
q0 19 -17 32.5t-40 3.5zM1300 1495q-196 0 -353 -37.5t-264.5 -103t-157 -149.5t-31.5 -177l140 -715l79 15l-140 715q-15 76 35 143t151 118.5t239.5 81t301.5 29.5t301.5 -29.5t239.5 -81t151 -118.5t35 -143l-140 -715l79 -15l140 715q18 93 -31.5 177t-157 149.5
t-264.5 103t-353 37.5zM1300 640q-140 0 -263 -25.5t-216.5 -72t-146.5 -108.5t-53 -135t53 -136.5t146.5 -112t216.5 -75.5t263 -27t263 27t216.5 75.5t146.5 112t53 136.5t-53 135t-146.5 108.5t-216.5 72t-263 25.5zM1650 472q82 -26 128 -73.5t46 -109.5q0 -52 -37 -97
t-96 -82q-22 -14 -41 0t-19 35q0 23 22 35q41 23 66 52t25 57q0 32 -29 60.5t-85 46.5q-37 12 -37 42q0 17 15.5 29.5t41.5 4.5z" />
</svg>