<?xml version="1.0" standalone="no"?>
<!DOCTYPE svg PUBLIC "-//W3C//DTD SVG 1.1//EN" "http://www.w3.org/Graphics/SVG/1.1/DTD/svg11.dtd">
<svg xmlns="http://www.w3.org/2000/svg" xmlns:xlink="http://www.w3.org/1999/xlink" version="1.1"
   viewBox="94 -151 2414 2169">
   <path fill="currentColor"
      d="M1300 1978q-180 0 -312.5 -75t-204.5 -212.5t-72 -325.5q0 -191 74 -335t207 -224.5t308 -80.5q176 0 308.5 80.5t206.5 224.5t74 335q0 188 -72 325.5t-204 212.5t-313 75zM1031 1706q-13 0 -13 -16q0 -17 20.5 -42t47.5 -44.5t44 -19.5q18 0 44.5 19.5t47 44.5t20.5 42
q0 16 -13 16q-10 0 -30.5 -15t-40 -29.5t-28.5 -14.5t-28.5 14.5t-39.5 29.5t-31 15zM879 1436q-11 0 -11 -15t21 -40.5t48 -46t44 -20.5t44 20.5t48 46t21 40.5t-11 15q-12 0 -33 -15t-40.5 -29.5t-28.5 -14.5t-28.5 14.5t-40 29.5t-33.5 15zM1371 1706q-13 0 -13 -16
q0 -17 20.5 -42t47.5 -44.5t44 -19.5q18 0 44.5 19.5t47 44.5t20.5 42q0 16 -13 16q-10 0 -30.5 -15t-40 -29.5t-28.5 -14.5t-28.5 14.5t-39.5 29.5t-31 15zM1189 1463q-12 0 -12 -17q0 -19 23 -47t52.5 -50.5t47.5 -22.5q19 0 48 22.5t52 50.5t23 47q0 17 -12 17
q-11 0 -33.5 -16.5t-44.5 -32.5t-33 -16q-10 0 -32.5 16t-45 32.5t-33.5 16.5zM1300 1898q158 0 272 -64t175.5 -183.5t61.5 -285.5q0 -169 -63.5 -295t-178 -195.5t-267.5 -69.5t-267.5 69.5t-178 195.5t-63.5 295q0 166 61.5 285.5t175.5 183.5t272 64zM1001 1190
q-14 0 -14 -15q0 -18 23 -46t52.5 -50t47.5 -22q19 0 48 22t52 50t23 46q0 15 -14 15q-13 0 -35 -15.5t-43 -31t-31 -15.5t-31 15.5t-42.5 31t-35.5 15.5zM1517 1436q-11 0 -11 -15t21 -40.5t48 -46t44 -20.5t44 20.5t48 46t21 40.5t-11 15q-12 0 -33 -15t-40.5 -29.5
t-28.5 -14.5t-28.5 14.5t-40 29.5t-33.5 15zM1381 1190q-14 0 -14 -15q0 -18 23 -46t52.5 -50t47.5 -22q19 0 48 22t52 50t23 46q0 15 -14 15q-13 0 -35 -15.5t-43 -31t-31 -15.5t-31 15.5t-42.5 31t-35.5 15.5zM1300 910q-79 0 -158.5 -14.5t-158.5 -43.5
q-55 -64 -104.5 -104.5t-80.5 -64t-31 -36.5q0 -8 19 -14t47 -6q22 0 48 4t51 14q-33 -70 -86 -123.5t-94.5 -88.5t-41.5 -50q0 -8 12.5 -13t48.5 -5q34 0 77.5 17.5t83.5 43.5q-26 -89 -62 -146.5t-70.5 -92t-57.5 -53t-23 -29.5q0 -9 20.5 -12.5t49.5 -3.5
q73 0 132.5 23.5t116.5 67.5q0 -80 -21 -132.5t-42.5 -85t-21.5 -50.5q0 -14 46 -14q76 0 156 43.5t145 126.5q65 -83 145 -126.5t156 -43.5q46 0 46 14q0 18 -21 50.5t-42.5 85t-21.5 132.5q57 -44 116.5 -67.5t132.5 -23.5q29 0 49.5 3.5t20.5 12.5q0 11 -23 29.5
t-57.5 53t-70.5 92t-62 146.5q41 -26 84 -43.5t77 -17.5q36 0 48.5 5t12.5 13q0 15 -41.5 50t-94 88.5t-86.5 123.5q26 -10 51.5 -14t47.5 -4q29 0 47.5 6t18.5 14q0 13 -31 36.5t-80 64t-105 104.5q-79 29 -158.5 43.5t-158.5 14.5z" />
</svg>