<?xml version="1.0" standalone="no"?>
<!DOCTYPE svg PUBLIC "-//W3C//DTD SVG 1.1//EN" "http://www.w3.org/Graphics/SVG/1.1/DTD/svg11.dtd">
<svg xmlns="http://www.w3.org/2000/svg" xmlns:xlink="http://www.w3.org/1999/xlink" version="1.1"
   viewBox="94 -151 2414 2169">
   <path fill="currentColor"
      d="M1300 1850q-88 0 -143.5 -24t-102.5 -94q-198 -293 -292 -509t-94 -376q0 -123 55.5 -198t174.5 -115q86 -29 126.5 -75t40.5 -129q0 -17 -2.5 -45t-10.5 -86t-25 -163l82 7q17 101 24.5 154.5t9.5 81t2 51.5q0 107 -53.5 174.5t-168.5 105.5q-97 32 -136 85t-39 152
q0 151 91 357.5t281 482.5q37 53 74.5 68t105.5 15t105.5 -15t74.5 -68q190 -276 281 -482.5t91 -357.5q0 -99 -38.5 -152t-136.5 -85q-115 -38 -168.5 -105.5t-53.5 -174.5q0 -24 2 -51.5t10 -81t24 -154.5l82 -7q-16 105 -24.5 163t-11 86t-2.5 45q0 83 41 129t126 75
q119 40 174.5 115t55.5 198q0 160 -94 376t-292 509q-47 70 -102.5 94t-143.5 24zM1300 1978q-109 0 -176.5 -21t-67.5 -46q0 -22 28.5 -55t58.5 -51h314q30 18 58.5 51t28.5 55q0 25 -67.5 46t-176.5 21zM1300 1362q-123 0 -243.5 -14t-225.5 -45l15 -80q100 31 216.5 45
t237.5 14q122 0 238 -14t216 -45l15 80q-105 31 -225.5 45t-243.5 14zM1227 1134q-83 0 -159 -4.5t-137 -16.5l9 -142l80 6l-4 69q19 4 61.5 6.5t69.5 2.5v-227h80v306zM706 714q-16 -45 -29 -102.5t-20 -117.5t-7 -110q0 -130 47 -202t123 -72q83 0 157.5 91.5t123.5 253.5
l-80 27q-24 -88 -58 -153.5t-71 -102t-72 -36.5q-43 0 -66.5 52.5t-23.5 141.5q0 66 12.5 145.5t32.5 139.5zM1300 867q-110 0 -222.5 -6t-214 -19.5t-177.5 -34.5l18 -78q73 21 171.5 33.5t208.5 18.5t216 6q107 0 216.5 -6t208 -18.5t171.5 -33.5l18 78
q-76 21 -177.5 34.5t-214 19.5t-222.5 6zM1373 1134v-155h80v76q27 0 69.5 -2.5t61.5 -6.5l-16 -227l80 -6l21 300q-61 12 -137 16.5t-159 4.5zM1894 714l-69 -45q20 -60 32.5 -139.5t12.5 -145.5q0 -89 -23.5 -141.5t-66.5 -52.5q-34 0 -71.5 36.5t-71 102t-58.5 153.5
l-80 -27q50 -162 124 -253.5t157 -91.5q77 0 123.5 72t46.5 202q0 50 -7 110t-19.5 117.5t-29.5 102.5zM1069 58q-20 5 -45 -6.5t-42.5 -32t-17.5 -41.5q0 -38 88 -59t248 -21q161 0 248.5 21t87.5 59q0 21 -17.5 41.5t-42 32t-45.5 6.5q-52 -14 -115.5 -20.5t-115.5 -6.5
t-115.5 6.5t-115.5 20.5z" />
</svg>