<?xml version="1.0" standalone="no"?>
<!DOCTYPE svg PUBLIC "-//W3C//DTD SVG 1.1//EN" "http://www.w3.org/Graphics/SVG/1.1/DTD/svg11.dtd">
<svg xmlns="http://www.w3.org/2000/svg" xmlns:xlink="http://www.w3.org/1999/xlink" version="1.1"
   viewBox="94 -151 2414 2169">
   <path fill="currentColor"
      d="M1301 1978q-270 0 -473 -52.5t-315.5 -143t-112.5 -205.5q0 -88 82 -163t221.5 -126t310.5 -65l-73 90q-130 13 -234.5 54.5t-165.5 97t-61 112.5q0 66 60.5 124.5t171 102.5t260.5 69t329 25q180 0 330 -24.5t259.5 -68.5t169.5 -102.5t60 -125.5q0 -55 -67 -111
t-182 -99t-259 -59l3 -76q172 18 303.5 70t206.5 123.5t75 151.5q0 118 -114 208.5t-316.5 141.5t-468.5 51zM867 1771q-54 -20 -126 -97q-29 -32 -45 -44t-39 -25q-21 -12 -29.5 -19t-15.5 -17l47 -32q22 19 49 30.5t73 63.5q60 67 104 84zM1176 1045q-72 -20 -114.5 -78
t-42.5 -146v-21t1 -20l-191 191q-56 -87 -56 -195q0 -90 38.5 -163.5t108.5 -124.5l-212 -3q-4 -16 -4 -35q0 -80 43 -140t112.5 -93t146.5 -33q58 0 112 18q-1 -6 -1 -12.5v-12.5q0 -126 78.5 -202.5t209.5 -76.5q25 0 43 3l-22 212q50 -41 105 -62.5t111 -21.5
q77 0 139.5 39t90.5 104l-217 155q134 5 209 80.5t75 197.5q0 81 -25 124l-507 -146zM1500 1810l-3 -61q15 -5 33.5 -6.5t34.5 -1.5q95 0 144 -13t75 -35t50.5 -49t70.5 -55l32 53q-37 20 -63 47t-59 52.5t-91 42.5t-159 17q-13 0 -32 2t-33 7zM1546 1188q-37 0 -70.5 -5.5
t-64.5 -16.5l22 -56q53 18 111 18q40 0 81 -7l9 60q-22 3 -44.5 5t-43.5 2zM1446 1025v-60q54 0 92.5 -5t55.5 -13l31 53q-33 16 -87 20.5t-92 4.5zM1439 868v-60q68 0 111 -30l40 47q-62 43 -151 43zM1517 1340q-89 0 -129.5 -20.5t-40.5 -80.5q0 -26 7 -51t16 -49
q14 -36 25 -80t11 -108q0 -74 -19.5 -141.5t-65.5 -146.5l61 -35q49 85 71.5 162.5t22.5 160.5q0 73 -13 124t-27 89q-10 27 -14.5 44t-4.5 31q0 18 13.5 24.5t86.5 6.5q65 0 78.5 -4.5t13.5 -9.5q0 -414 -155 -664l60 -37q165 268 165 701q0 51 -41 67.5t-121 16.5z
M1393 732v-60q66 0 109 -31l40 47q-28 19 -69 31.5t-80 12.5zM1361 568l-128 -43q-21 -8 -21 -27q0 -23 24 -23q11 0 22 4l80 29l-48 -87q-7 -11 -7 -22q0 -23 23 -23q16 0 27 19l54 93l13 -67q6 -32 28 -32q11 0 17.5 11t2.5 28l-22 111zM1249 1469q-37 0 -62 -25t-25 -61
t25 -61t62 -25q36 0 61 25t25 61t-25 61t-61 25zM1289 1682q-41 0 -74 -16t-66.5 -32t-76.5 -16q-33 0 -76 4q-61 6 -96.5 -5.5t-67.5 -48.5q-12 -14 -23 -24.5t-36.5 -32t-82.5 -66.5q66 -89 164.5 -155t213.5 -102.5t230 -36.5q33 0 67 2t69 7l-42 74q-43 -3 -94 -3
q-110 0 -199 25t-161 71t-134 108q39 31 55.5 46t32.5 34q19 21 36 26.5t60 0.5q26 -3 45 -3.5t39 -0.5q46 0 85 16t72.5 32t59.5 16q29 0 57.5 -17t64.5 -33.5t86 -16.5q15 0 48.5 4t68 6t50.5 -2q39 -11 70 -45t63 -57q-28 -32 -68 -70t-93 -70l134 24q46 35 80.5 71
t53.5 79q-51 16 -80 43.5t-57 55.5t-77 45q-24 8 -63 6.5t-75.5 -6t-54.5 -4.5q-43 0 -73.5 16.5t-61 33.5t-73.5 17zM1141 937l224 -449l493 142q1 -8 1 -25q0 -95 -53.5 -149.5t-157.5 -54.5q-19 0 -38 2t-38 8l-51 -87l241 -172q-49 -43 -120 -43q-31 0 -82 15.5
t-108 74.5l-113 -28l22 -203l44 6q-97 0 -152.5 55t-55.5 148q0 18 1 30t5 31l-71 57q-35 -17 -66.5 -24t-59.5 -7q-93 0 -157.5 50t-64.5 136l-13 -42h290v98q-120 42 -164 118.5t-44 151.5q0 25 5 53l212 -212l65 55q-19 34 -27.5 69.5t-8.5 79.5q0 75 42 116z" />
</svg>