<?xml version="1.0" standalone="no"?>
<!DOCTYPE svg PUBLIC "-//W3C//DTD SVG 1.1//EN" "http://www.w3.org/Graphics/SVG/1.1/DTD/svg11.dtd">
<svg xmlns="http://www.w3.org/2000/svg" xmlns:xlink="http://www.w3.org/1999/xlink" version="1.1"
   viewBox="94 -151 2414 2169">
   <path fill="currentColor"
      d="M687 1978q-77 0 -117 -38.5t-40 -111.5v-1781q0 -74 40 -111.5t116 -37.5h1228q77 0 116.5 38t39.5 112v1780q0 73 -40 111.5t-117 38.5h-1226zM1141 916q-109 0 -194.5 -48t-134 -132.5t-48.5 -193.5q0 -120 47.5 -209.5t133.5 -138.5t202 -49q109 0 193 50t132 137.5
t48 200.5q0 108 -49.5 195t-135.5 137.5t-194 50.5zM1141 836q86 0 153.5 -39.5t106.5 -108t39 -155.5q0 -137 -81 -222.5t-212 -85.5q-140 0 -221.5 85t-81.5 232q0 130 83 212t214 82zM610 1372q127 -85 269 -149.5t292 -100.5t298 -36q84 0 179.5 21t185.5 55.5t156 77.5
v-1192q0 -39 -16 -54.5t-60 -15.5h-1228q-43 0 -59.5 15t-16.5 54v1325z" />
</svg>