<?xml version="1.0" standalone="no"?>
<!DOCTYPE svg PUBLIC "-//W3C//DTD SVG 1.1//EN" "http://www.w3.org/Graphics/SVG/1.1/DTD/svg11.dtd">
<svg xmlns="http://www.w3.org/2000/svg" xmlns:xlink="http://www.w3.org/1999/xlink" version="1.1"
   viewBox="94 -151 2414 2169">
   <path fill="currentColor"
      d="M2149 941q-87 0 -194.5 -64.5t-230.5 -158.5q-102 -79 -216.5 -150t-232 -116t-231.5 -45q-119 0 -181.5 22t-106.5 53q-25 18 -51 32.5t-57 14.5q-67 0 -97 -36.5t-30 -98.5q0 -141 96 -253t263 -177.5t378 -65.5q228 0 423 61.5t341 172t227 259.5t81 324
q0 100 -47.5 163t-133.5 63zM625 1345q-17 -6 -36.5 -8.5t-35.5 -2.5l4 -60q43 3 81 15zM938 1560q-14 -8 -33 -13.5t-35 -8.5l14 -60q22 5 41.5 13.5t34.5 16.5zM788 1423l-36 -48q19 -14 37 -24.5t34 -15.5l26 50q-15 5 -31.5 16t-29.5 22zM1475 1978q-73 0 -182 -37.5
t-234.5 -98t-247 -130.5t-221.5 -135.5t-156 -111.5q-40 -32 -59 -70t-26 -100q-5 -51 -10.5 -110.5t-7.5 -120.5l78 -3q2 53 7 111t11 114q5 46 17 71t41 48q55 45 151 108t213 130t236 125t221.5 94t168.5 36q57 0 125.5 -28.5t141 -81t140.5 -124.5q17 -17 23.5 -33.5
t6.5 -44.5q0 -83 -14.5 -190.5t-39.5 -204.5l78 -19q23 89 39.5 202.5t16.5 211.5q0 29 -8.5 62.5t-43.5 70.5q-58 62 -135.5 121.5t-162.5 98.5t-167 39zM839 1121q23 7 41 -1.5t22 -29.5q5 -20 -5 -35.5t-30 -20.5l-201 -54q-58 -16 -76.5 -28t-18.5 -28t13 -29.5
t39 -23.5q19 -8 32.5 -20.5t8.5 -30.5q-4 -17 -21.5 -22.5t-37.5 1.5q-66 22 -96.5 59t-30.5 81q0 49 43.5 75.5t151.5 58.5zM1498 1589q-69 0 -147 -31.5t-161 -79.5t-168.5 -99.5t-169.5 -91.5q-99 -47 -201.5 -76.5t-189 -57.5t-139 -68.5t-52.5 -110.5
q0 -66 55.5 -124.5t151.5 -102.5t220 -69.5t261 -25.5q144 0 291.5 43t282 112.5t240 151t167 159.5t61.5 136q0 52 -45 110.5t-119 109.5t-162.5 83t-175.5 32zM736 814q-39 -78 -65 -162.5t-36 -176.5l80 -8q8 73 27 142.5t50 140.5zM966 576q-16 -7 -36 -9t-37 -2l4 -61
q23 1 44 6t37 11zM1151 596q-7 -15 -19.5 -30.5t-23.5 -27.5l44 -39q16 17 27 33.5t18 32.5zM1332 658l-25 -52q36 -18 74 -25l16 50q-11 1 -31 10t-34 17zM761 473l-64 -30q78 -181 199.5 -311.5t300.5 -230.5l37 63q-170 95 -284 211t-189 298zM1872 1164l-25 -78
q70 -39 125.5 -91.5t90.5 -107.5l79 26q-103 158 -270 251zM2149 863q47 0 74 -39t27 -109q0 -156 -74.5 -290.5t-209 -235.5t-315.5 -157t-393 -56q-195 0 -343 55.5t-231 150.5t-83 212q0 55 41 55q15 0 29 -6.5t31 -19.5q50 -38 128 -66t214 -28q126 0 253.5 48.5
t248 123t224.5 151.5q110 81 180.5 127t117 65t81.5 19zM1167 395l-64 -41q196 -336 638 -375l6 76q-210 19 -352 103.5t-228 236.5zM1805 734l-58 -56q174 -180 438 -180q23 0 45 1.5t44 3.5l-10 80q-21 -2 -41 -3.5t-40 -1.5q-229 0 -378 156zM1518 525l-62 -52
q111 -133 261 -199.5t328 -66.5q15 0 30 0.5t31 2.5l-4 79q-14 -1 -29 -1.5t-29 -0.5q-160 0 -294.5 58t-231.5 180z" />
</svg>