<?xml version="1.0" standalone="no"?>
<!DOCTYPE svg PUBLIC "-//W3C//DTD SVG 1.1//EN" "http://www.w3.org/Graphics/SVG/1.1/DTD/svg11.dtd">
<svg xmlns="http://www.w3.org/2000/svg" xmlns:xlink="http://www.w3.org/1999/xlink" version="1.1"
   viewBox="94 -151 2414 2169">
   <path fill="currentColor"
      d="M1300 1978q-133 0 -220.5 -29t-95.5 -93l-48 -385q-41 -31 -61.5 -74.5t-20.5 -110.5q-31 -20 -41 -55t-10 -121l81 48q0 42 12 65.5t38 34.5q0 72 13 104t64 58l51 416q2 12 8.5 20.5t16.5 13.5q39 17 88 23.5t125 6.5q77 0 125.5 -6.5t87.5 -23.5q11 -5 17.5 -13.5
t7.5 -20.5l51 -416q51 -26 64 -58t13 -104q26 -11 38 -34.5t12 -65.5l81 -48q0 86 -9.5 121t-41.5 55q0 67 -20.5 110.5t-61.5 74.5l-48 385q-8 64 -95 93t-221 29zM1239 1782q-16 0 -34.5 -0.5t-35.5 -3.5l-21 -344q37 5 70 6zM1361 1782l21 -342q33 -1 70 -6l-21 344
q-16 3 -34.5 3.5t-35.5 0.5zM1300 1291q-206 0 -338 -38t-195 -104t-63 -150q0 -71 43.5 -121.5t113.5 -77.5l59 50q-71 34 -103.5 67t-32.5 82q0 67 55.5 115t170 73.5t290.5 25.5q177 0 291 -25.5t169.5 -73.5t55.5 -115q0 -48 -29 -90t-94 -78l43 -57q76 31 118 91.5
t42 133.5q0 84 -63 150t-194.5 104t-338.5 38zM1300 943q-89 0 -175.5 -14.5t-157 -45t-112.5 -79t-42 -117.5q0 -67 45 -129.5t143 -93.5l69 50q-94 28 -135.5 74t-41.5 95q0 63 56.5 103t149.5 59.5t201 19.5q129 0 220 -26t139.5 -74t48.5 -113q0 -61 -40 -108.5
t-111 -72.5l47 -64q89 36 136.5 103.5t47.5 145.5q0 98 -67 161.5t-177.5 94.5t-243.5 31zM1302 577q-95 0 -168.5 -23.5t-114.5 -65t-41 -95.5q0 -47 26.5 -81.5t65 -61.5t77.5 -51.5t65.5 -50.5t26.5 -60q0 -28 -21 -47.5t-46 -19.5q-30 0 -44 17.5t-14 46.5
q-23 -18 -31.5 -35.5t-8.5 -37.5q0 -52 55 -83t122 -31q82 0 150 36t117.5 94.5t76.5 127.5t27 135q0 90 -37.5 154t-109 98t-173.5 34zM1302 497q79 0 132.5 -25.5t80.5 -71.5t27 -109q0 -53 -22 -108t-60.5 -101.5t-86.5 -75t-101 -28.5q-10 0 -21.5 1.5t-19.5 3.5l-1 -11
q42 6 65.5 36.5t23.5 79.5q0 51 -26.5 88.5t-65 66t-77.5 52t-65.5 47t-26.5 51.5q0 44 70.5 74t173.5 30z" />
</svg>