<?xml version="1.0" standalone="no"?>
<!DOCTYPE svg PUBLIC "-//W3C//DTD SVG 1.1//EN" "http://www.w3.org/Graphics/SVG/1.1/DTD/svg11.dtd">
<svg xmlns="http://www.w3.org/2000/svg" xmlns:xlink="http://www.w3.org/1999/xlink" version="1.1"
   viewBox="94 -151 2414 2169">
   <path fill="currentColor"
      d="M1154 1603q-143 -12 -284.5 -34t-258 -49t-186.5 -53.5t-70 -47.5q0 -14 20.5 -69.5t55 -138.5t76.5 -179l10 -23q54 -125 90 -203t58.5 -120t37 -59t25.5 -19q29 -6 104.5 -10.5t176.5 -7.5t205 -3h287q22 0 38.5 13t40.5 50l418 640l28 149q-34 14 -78.5 22.5
t-98.5 12.5q-17 30 -52.5 49.5t-81.5 19.5q-26 0 -49 -7.5t-41 -20.5q-28 1 -62 5t-63 9l-5 32q-60 19 -138 30.5t-203 11.5zM1300 1978q-210 0 -402.5 -37t-343 -101.5t-237.5 -147.5t-87 -175q0 -62 50.5 -124t140.5 -105l-20 104q-91 63 -91 125q0 70 83 138t224 123
t318 87.5t365 32.5t365 -32.5t318 -87.5t224 -123t83 -138q0 -53 -69 -109l35 -74q114 84 114 183q0 92 -87 175t-237.5 147.5t-343 101.5t-402.5 37zM1097 1527l348 -875q-21 -3 -41 -4.5t-62 -1.5h-128q-90 0 -187 2.5t-175.5 6.5t-115.5 9q-34 70 -60 127.5t-50.5 116
t-54.5 132.5l-141 346q52 27 161 55t243.5 50.5t262.5 35.5zM1717 1488q17 0 36 -9t31 -21q-42 -29 -98.5 -111t-136.5 -239q32 206 73.5 293t94.5 87zM1172 1533q53 0 114.5 -3.5t106 -13t47.5 -25.5l74 -445q8 -44 12.5 -55.5t9.5 -11.5q6 0 15 11.5t34.5 55.5t78.5 143
q60 110 104.5 162t66.5 69q33 -3 64 -9t53.5 -14.5t27.5 -16.5q-54 -82 -98 -148.5t-92 -140t-112.5 -173.5t-159.5 -248q-27 55 -67 149.5t-87 213t-96.5 247.5t-95.5 253zM2165 1602l-171 -139l62 -17l141 118zM1982 1583l-20 -46l211 -89l41 33zM1901 1228l-69 -120v-83
h69v203zM2113 1459q38 0 64.5 -20.5t26.5 -54.5q0 -30 -16.5 -49t-33 -40t-16.5 -55q0 -15 4 -35t9 -30q-37 19 -63 51.5t-26 64.5q0 19 6.5 28t6.5 20q0 10 -10 10q-18 0 -19 -34q-11 10 -17.5 29.5t-6.5 36.5q0 34 26 56t65 22zM2113 1508q-81 0 -134 -55.5t-53 -137.5
q0 -47 18 -85.5t47 -56.5q-1 10 -2 19.5t-1 21.5q0 22 7 36.5t17 17.5q0 -41 20.5 -62.5t40.5 -41.5t20 -55t-26 -62q11 -7 30 -7q48 0 79.5 36t31.5 96q0 25 -4 41t-4 28q0 16 10 27t23 11q29 0 37 -28q14 13 22 38t8 55q0 67 -55 115.5t-132 48.5zM1180 606
q7 -31 32 -55.5t77 -46.5l30 -13q68 -29 101 -51t33 -60h69q0 48 -36.5 84t-137.5 80q-52 22 -69.5 37t-21.5 25h-77zM1939 1063q-31 0 -75.5 -7.5t-82.5 -23.5l-14 -6l-23 -74l64 26q32 13 68.5 19t62.5 6q32 0 52.5 -14t20.5 -48q0 -6 -0.5 -12.5t-1.5 -13.5q17 2 32 3.5
t33 1.5q78 0 128 -14t50 -41q0 -18 -15.5 -29.5t-63.5 -31.5q-62 -26 -102 -56t-66 -78h80q20 28 40 43t67 34q73 29 96.5 56t23.5 62q0 54 -67 84.5t-187 30.5q-20 83 -120 83zM1633 786q-13 0 -20 -1l-26 -76q20 17 46 17q44 0 98.5 -38.5t79.5 -84.5q36 17 98 30t113 13
q61 0 103.5 -20.5t42.5 -48.5q0 -15 -19.5 -29t-69.5 -36q-54 -24 -100.5 -57t-63.5 -70h80q11 21 34 37.5t58 33.5l31 15q56 27 83 52t27 54q0 51 -59 89.5t-147 38.5q-45 0 -96.5 -8t-92.5 -22q-35 45 -91 78t-109 33zM1760 472q35 0 51.5 -37t21.5 -98q55 16 90 19.5
t68 3.5q35 0 61.5 -14.5t26.5 -33.5q0 -26 -47 -61.5t-125 -105.5q-49 -45 -79.5 -85.5t-50.5 -66t-38 -25.5q-15 0 -42 32.5t-60 77.5t-66 82q-38 43 -78 72t-67 49t-27 38q0 19 28.5 30t80.5 11q32 0 60.5 -4.5t64.5 -18.5q24 64 57 99.5t70 35.5zM1760 532
q-49 0 -87.5 -32.5t-61.5 -92.5q-30 8 -56.5 10.5t-56.5 2.5q-68 0 -113.5 -28.5t-45.5 -74.5q0 -34 29.5 -61t72 -57.5t81.5 -73.5q37 -41 73.5 -94.5t72.5 -93t71 -39.5q37 0 66 32t63.5 80t86.5 98q46 43 88 77t69 63.5t27 61.5q0 43 -45 76.5t-107 33.5q-35 0 -64 -3.5
t-49 -8.5q-7 49 -34 86.5t-80 37.5z" />
</svg>