<?xml version="1.0" standalone="no"?>
<!DOCTYPE svg PUBLIC "-//W3C//DTD SVG 1.1//EN" "http://www.w3.org/Graphics/SVG/1.1/DTD/svg11.dtd">
<svg xmlns="http://www.w3.org/2000/svg" xmlns:xlink="http://www.w3.org/1999/xlink" version="1.1"
   viewBox="94 -151 2414 2169">
   <path fill="currentColor"
      d="M1287 1978q-42 0 -82 -17q-175 -74 -343 -166t-354 -216q-46 -31 -70 -79t-24 -104v-565q-75 -65 -112 -150t-37 -161q0 -94 62 -184.5t171 -169.5t251 -139.5t302.5 -94.5t325.5 -34q203 0 377.5 52.5t305 145t203 215t72.5 262.5q0 93 -38.5 175t-127.5 153v430
q0 52 -21.5 95t-65.5 78q-91 72 -208 150.5t-247.5 156.5t-264.5 152q-15 8 -33 11.5t-42 3.5zM1152 1851q62 30 104 0t42 -106v-596q55 -10 98 -42t67.5 -79t24.5 -100q0 -75 -56.5 -157t-152 -158.5t-214 -138t-244 -98t-241.5 -36.5q-131 0 -183 48t-52 126
q0 76 33.5 146t115.5 135v585q0 43 8.5 72t39.5 52q95 71 251.5 160t358.5 187z" />
</svg>