<?xml version="1.0" standalone="no"?>
<!DOCTYPE svg PUBLIC "-//W3C//DTD SVG 1.1//EN" "http://www.w3.org/Graphics/SVG/1.1/DTD/svg11.dtd">
<svg xmlns="http://www.w3.org/2000/svg" xmlns:xlink="http://www.w3.org/1999/xlink" version="1.1"
   viewBox="94 -151 2414 2169">
   <path fill="currentColor"
      d="M1079 1557q-96 -31 -152.5 -117t-56.5 -205q0 -20 2 -42t8 -53l-299 296q-30 -58 -47 -128t-17 -140q0 -137 64.5 -247.5t178.5 -180.5l-342 -5q-3 -23 -3 -43q0 -113 60.5 -197t158 -131t206.5 -47q93 0 180 35q-4 -27 -4 -61q0 -178 111.5 -285.5t296.5 -107.5h26.5
t22.5 2l-34 338q72 -71 157.5 -109t176.5 -38q104 0 190 51t132 140l-345 248q17 -2 25.5 -2.5t15.5 -0.5q182 0 288 106t106 284q0 88 -24 170l-743 -213zM1600 1752q-46 0 -83.5 -5.5t-69.5 -16.5l21 -66q57 18 127 18q31 0 68.5 -3t84.5 -10l10 70q-46 7 -85.5 10
t-72.5 3zM1494 1521v-69q72 0 128.5 -7.5t84.5 -20.5l29 63q-31 14 -75.5 21.5t-89 10t-77.5 2.5zM1589 1978q-130 0 -186 -28.5t-56 -110.5q0 -60 21 -117.5t42 -129.5t21 -175q0 -105 -26 -201.5t-88 -206.5l53 -71q74 123 107.5 237.5t33.5 241.5q0 80 -12.5 142.5
t-29.5 112.5t-29.5 90.5t-12.5 76.5q0 23 10 36t44.5 18t107.5 5q98 0 123.5 -9t25.5 -25q0 -311 -60 -559.5t-188 -442.5l105 6q223 387 223 996q0 69 -57.5 91.5t-171.5 22.5zM1478 1292l-3 -71q49 0 94 -13t76 -35l40 60q-39 26 -95 42.5t-112 16.5zM1415 1091l-2 -70
q44 0 86.5 -12.5t73.5 -33.5l40 59q-37 25 -90.5 41t-107.5 16zM1043 1450l333 -671l724 207q5 -37 5 -69q0 -145 -82 -227.5t-249 -82.5q-16 0 -39.5 1t-37.5 3l-59 -100l347 -249q-82 -91 -212 -91q-42 0 -90 13t-113 53.5t-157 121.5l-64 -36l36 -343q-78 0 -144 39
t-105.5 109t-39.5 163q0 38 6 70.5t22 65.5l-47 36q-50 -31 -115 -48.5t-122 -17.5q-90 0 -164 34t-121 92.5t-58 132.5l409 6l3 91q-84 23 -155 84t-114 147t-43 184q0 63 15 125l353 -353l45 31q-37 58 -48.5 118t-11.5 135q0 79 24.5 136t68.5 90zM1438 879l-275 -79
q-34 -10 -50.5 -25t-16.5 -31q0 -20 21 -28t52 2l140 44l-75 -144q-19 -35 -12.5 -59t29.5 -24q14 0 25.5 8.5t24.5 33.5l84 163l24 -112q10 -44 20 -61t28 -17q24 0 31 24t-1 66z" />
</svg>