<?xml version="1.0" standalone="no"?>
<!DOCTYPE svg PUBLIC "-//W3C//DTD SVG 1.1//EN" "http://www.w3.org/Graphics/SVG/1.1/DTD/svg11.dtd">
<svg xmlns="http://www.w3.org/2000/svg" xmlns:xlink="http://www.w3.org/1999/xlink" version="1.1"
   viewBox="94 -151 2414 2169">
   <path fill="currentColor"
      d="M197 1978v-1174h80v1096h2046v-1096h80v1174h-2206zM210 1978q-60 0 -82.5 -12.5t-22.5 -48.5q0 -58 34 -108t91.5 -81.5t127.5 -31.5q52 0 117 19.5t104 52.5q32 -10 55 -13t40 -3q67 0 104.5 46.5t37.5 119.5q0 36 -18.5 48t-88.5 12h-499zM357 1620v-290h340v290h-340
zM427 1550h200v-150h-200v150zM1085 1813h180v-100h-180v100zM777 1918v-1114h70v1114h-70zM357 1220v-290h340v290h-340zM427 1150h200v-150h-200v150zM1085 1643h180v-220h-180v220zM1335 1813h180v-100h-180v100zM1006 1922v-738h588v738h-588zM1335 1643h180v-220h-180
v220zM1085 1353h430v-100h-430v100zM1896 1978q-67 0 -90.5 -12t-23.5 -50q0 -52 31 -96t84.5 -71t118.5 -27q60 0 112 29q29 -24 65.5 -38t76.5 -14q62 0 113 29t81.5 78t30.5 109q0 37 -23 50t-93 13h-483zM1753 1918v-1114h70v1114h-70zM1219 874l-46 -49l92 -85v-152h70
v184zM1300 1026q-84 0 -152 -40t-108.5 -107.5t-40.5 -148.5q0 -82 40.5 -149t108.5 -107t152 -40t152.5 40t108.5 107t40 149q0 81 -40 148.5t-108.5 107.5t-152.5 40zM1300 950q63 0 114 -29.5t81 -79.5t30 -111t-30 -111t-81 -79.5t-114 -29.5q-62 0 -113.5 29.5
t-81.5 79.5t-30 111t30 111t81.5 79.5t113.5 29.5zM1903 1620v-290h340v290h-340zM1973 1550h200v-150h-200v150zM119 848l151 -467h546l462 -473q10 -10 22 -10q13 0 22 10l462 473h546l151 467h-728v-244l-438 -438q-6 -6 -15 -6t-15 6l-438 438v244h-728zM1903 1220v-290
h340v290h-340zM1973 1150h200v-150h-200v150z" />
</svg>