<?xml version="1.0" standalone="no"?>
<!DOCTYPE svg PUBLIC "-//W3C//DTD SVG 1.1//EN" "http://www.w3.org/Graphics/SVG/1.1/DTD/svg11.dtd">
<svg xmlns="http://www.w3.org/2000/svg" xmlns:xlink="http://www.w3.org/1999/xlink" version="1.1"
   viewBox="94 -151 2414 2169">
   <path fill="currentColor"
      d="M1308 1978q-143 0 -256.5 -55t-179 -151.5t-65.5 -218.5q0 -142 73 -251.5t201 -172t293 -62.5q104 0 192 16t136 16q55 0 92 -18t65.5 -36t55.5 -18q49 0 61 51.5t12 134.5q0 156 -53.5 294t-147.5 244t-217 166.5t-262 60.5zM837 1765q-103 0 -225 -52l36 -74
q92 46 189 46q64 0 136.5 -36.5t143 -82t128.5 -73.5t120 -49t119 -40t98 -40l39 69q-74 39 -160 63t-182 69q-92 43 -160.5 89.5t-133.5 78.5t-148 32zM1308 1898q122 0 230.5 -54t191.5 -149t130.5 -219t47.5 -263q0 -42 -3 -65t-5 -33q-62 35 -107 49.5t-91 14.5
q-55 0 -148 -16t-180 -16q-143 0 -253 51.5t-172 143t-62 211.5q0 99 54.5 177t150 123t216.5 45zM940 912q-39 -89 -39 -170q0 -111 69 -203t184 -146.5t253 -54.5q105 0 201 24.5t171.5 67.5t119 98.5t43.5 117.5q0 80 -58.5 117.5t-179.5 37.5q-154 0 -304 -45
t-272.5 -121t-195.5 -169.5t-73 -190.5q0 -74 39.5 -141.5t108 -120.5t155 -84t179.5 -31v80q-103 0 -195 43t-149.5 111t-57.5 143q0 78 67 157t179 144.5t247.5 105t271.5 39.5q91 0 124.5 -17.5t33.5 -57.5q0 -42 -38 -83t-103 -73.5t-146.5 -52t-167.5 -19.5
q-116 0 -213 44.5t-155 118t-58 161.5q0 34 9 72t28 77z" />
</svg>