<?xml version="1.0" standalone="no"?>
<!DOCTYPE svg PUBLIC "-//W3C//DTD SVG 1.1//EN" "http://www.w3.org/Graphics/SVG/1.1/DTD/svg11.dtd">
<svg xmlns="http://www.w3.org/2000/svg" xmlns:xlink="http://www.w3.org/1999/xlink" version="1.1"
   viewBox="94 -151 2414 2169">
   <path fill="currentColor"
      d="M424 1978q-70 0 -117 -46t-47 -116v-1755q0 -71 46.5 -117t116.5 -46h1754q71 0 117 46t46 117v1754q0 71 -46 117t-117 46h-1753zM424 1898h1753q38 0 60.5 -23t22.5 -60v-1754q0 -38 -22.5 -60.5t-60.5 -22.5h-1754q-37 0 -60 22.5t-23 60.5v1755q0 37 23 59.5t61 22.5
zM1326 1653l-293 -345q-42 -50 -70 -73.5t-55 -23.5q-28 0 -74 33q-79 -125 -133 -183.5t-96 -58.5q-49 0 -115 68t-170 236l-18 -112q43 -72 91.5 -134t101.5 -100t110 -38q44 0 84.5 25.5t82.5 75t89 120.5q30 -15 56 -15q51 0 88.5 34t88.5 94l238 280l149 -143
q108 -104 212 -187.5t195 -133t158 -49.5q51 0 81 20t54 50t55 61t83 53l-29 74q-51 -21 -81 -50.5t-52.5 -58.5t-49 -48.5t-71.5 -19.5q-57 0 -136 46.5t-171.5 125.5t-192.5 175zM930 1048l-625 -485v-221l641 682q-8 11 -16 24zM1022 942l-706 -895v-15q0 -35 33 -62
t77 -27h40l582 978q-6 4 -13 9.5t-13 11.5zM1133 869l-419 -926h171l277 914q-7 3 -14.5 6t-14.5 6zM1255 831l-170 -888h166l36 883l-16 2t-16 3zM1414 830q-7 -2 -13.5 -2.5t-13.5 -1.5l57 -883h161zM1744 1049q-5 -10 -10.5 -18t-12.5 -17l574 -586v185zM1539 868
q-14 -7 -27 -11l284 -914h165zM1652 942q-12 -11 -28 -22l549 -977q53 1 87.5 35.5t34.5 85.5v51zM472 1904l-157 -16v-409q36 -26 67.5 -66.5t60.5 -81.5t58 -69t60 -28q20 0 20 13q0 21 -14.5 64.5t-20.5 99.5q-7 65 -15.5 140.5t-18.5 146.5t-20 126t-20 80zM1056 1234
l-61 -59q39 -103 132 -170t210 -67q86 0 159 36.5t124.5 100t70.5 144.5l-67 56q-12 -76 -53.5 -134t-102.5 -90.5t-131 -32.5q-94 0 -171.5 58.5t-109.5 157.5zM1145 1799q-24 0 -80.5 -30.5t-111.5 -104.5q-20 -28 -21 -75t-18 -73q-46 -72 -91.5 -126.5t-45.5 -94.5
q0 -12 9 -12q35 0 71.5 32.5t68 79t53 89t26.5 63.5q20 13 45.5 45t49 71.5t39 75.5t15.5 57q0 3 -9 3zM1321 1901q-24 -67 -51.5 -96.5t-27.5 -58.5q0 -17 16 -17q18 0 65.5 27.5t89.5 62.5q3 -10 16.5 -46.5t31 -80t30.5 -71.5q8 -10 31.5 -28.5t53.5 -41t57 -44.5t41 -40
q52 -64 84 -93t44 -29q13 0 13 11q0 19 -23 43.5t-46 28.5q-12 64 -33.5 94t-46.5 48.5t-50 49.5q-19 24 -44 72.5t-36 79.5q-16 46 -35 74t-45 55h-135zM2236 1938q-12 -46 -25.5 -126.5t-26.5 -172t-24 -169.5q-7 -56 -21 -100t-14 -63q0 -13 20 -13q34 0 60.5 34.5
t53 80.5t58.5 83l-12 364z" />
</svg>