<?xml version="1.0" standalone="no"?>
<!DOCTYPE svg PUBLIC "-//W3C//DTD SVG 1.1//EN" "http://www.w3.org/Graphics/SVG/1.1/DTD/svg11.dtd">
<svg xmlns="http://www.w3.org/2000/svg" xmlns:xlink="http://www.w3.org/1999/xlink" version="1.1"
   viewBox="94 -151 2414 2169">
   <path fill="currentColor"
      d="M434 1978q-71 0 -122.5 -51t-51.5 -121v-1735q0 -71 51 -122t122 -51h1734q71 0 122 51t51 122v1734q0 71 -51 122t-122 51h-1733zM657 1447q19 -96 104 -180l-47 -48q-100 98 -122 217zM483 1508q37 -131 119.5 -243t197.5 -187l-37 -57q-124 82 -214.5 204.5
t-130.5 265.5zM712 1731h66q3 -216 190 -490l-55 -39q-200 293 -201 529zM418 1240q103 -138 303 -257l-33 -57q-210 124 -324 274zM995 1821l65 -13q-42 -218 75 -442l-58 -32q-129 247 -82 487zM1128 1696l67 -5q-1 -24 1 -62t7.5 -77.5t12.5 -70.5l-65 -15
q-7 34 -12.5 77.5t-8.5 85t-2 67.5zM497 942q36 -29 88.5 -50t104.5 -29l-9 -66q-61 9 -122 34.5t-104 58.5zM337 752q95 -38 194.5 -50.5t169.5 5.5l19 -63q-80 -22 -192 -9.5t-216 56.5zM1574 1791q15 -67 22 -123t5 -134l-67 3q2 72 -4 122.5t-21 116.5zM938 1117
q23 -29 64.5 -59.5t90.5 -53.5l-28 -60q-55 25 -103.5 61.5t-76.5 71.5zM1058 1283q37 -95 76.5 -155t103.5 -118l-45 -51q-70 64 -114 132t-82 169zM837 955q31 -40 103.5 -56.5t162.5 -2.5l10 -64q-109 -17 -198.5 6t-132.5 79zM1274 1305q5 -29 10.5 -56.5t9.5 -55.5
q5 -29 10.5 -57.5t9.5 -56.5l-65 -11q-10 56 -20 112.5t-20 113.5zM821 616l37 -57q-82 -52 -154.5 -73t-141 -25t-137.5 -4v66q69 0 131.5 4t127 23t137.5 66zM1464 1365q26 -183 -51 -380l-61 25q70 183 46 345zM1737 1628q24 -231 -161 -484l-54 40q170 232 148 435z
M1163 790l57 -35q-111 -164 -339 -63l26 60q92 -40 154 -30.5t102 68.5zM1930 1761l67 -7q-18 -162 -75.5 -298.5t-152.5 -241.5l-49 45q177 196 210 502zM1008 571l52 -42q-46 -58 -109 -116t-160 -107l-30 60q74 37 132.5 85.5t114.5 119.5zM1650 1169l47 -49
q-40 -38 -80.5 -77t-81.5 -79l-47 49q41 38 81.5 77.5t80.5 78.5zM637 104q17 0 29 -12.5t12 -29.5t-12 -29t-29 -12t-29.5 12t-12.5 29t12.5 29.5t29.5 12.5zM1237 727l64 -22q-19 -55 -46 -103t-89 -98l-42 52q53 42 74 80t39 91zM1070 434l62 -26q-114 -248 -373 -341
l-22 63q232 82 333 304zM2051 1396l49 -45q-19 -20 -37 -39.5t-38 -38.5q-19 -20 -37 -39l-36 -38l-49 45q37 40 74 78.5t74 76.5zM1774 1058l51 -42q-86 -105 -305 -163l-17 65q102 27 167 60.5t104 79.5zM1396 738q49 -48 98 -96.5t98 -96.5l-47 -47q-24 24 -48.5 48
t-49.5 49q-25 23 -49 47.5t-49 48.5zM1479 818q123 -112 257 -25l37 -55q-178 -116 -338 31zM2200 1331l49 -47q-12 -12 -23 -24t-22 -23q-55 -61 -113.5 -114.5t-141.5 -89.5l-26 62q87 38 145.5 98.5t131.5 137.5zM1188 327l65 -13q-10 -47 -41.5 -113t-57.5 -117l-60 30
q25 51 54.5 111.5t39.5 101.5zM2163 1050l39 -55q-95 -66 -193 -100t-201 -50l-10 66q111 17 198.5 50.5t166.5 88.5zM1072 56q17 0 29 -12.5t12 -29.5t-12 -29t-29 -12t-29.5 12t-12.5 29t12.5 29.5t29.5 12.5zM1296 497h66q2 -95 30.5 -205t76.5 -202l-58 -32
q-52 98 -83 218t-32 221zM1868 805q112 -32 192 -4l23 -64q-100 -34 -234 3zM1711 611q125 -148 319 -176l-9 -66q-220 31 -361 200zM1804 682q190 -65 366 -37l11 -65q-192 -32 -399 38zM1527 412q53 -128 130.5 -205t198.5 -117l-22 -63q-133 46 -222 132.5t-146 227.5z
M1659 453q61 -93 165.5 -154.5t221.5 -73.5l-7 -67q-131 13 -249 83t-188 177zM673 342q17 0 29 -12.5t12 -29.5t-12 -29t-29 -12t-29.5 12t-12.5 29t12.5 29.5t29.5 12.5zM1485 36q17 0 29 -12.5t12 -29.5t-12 -29t-29 -12t-29.5 12t-12.5 29t12.5 29.5t29.5 12.5zM1935 69
q17 0 29 -12.5t12 -29.5t-12 -29t-29 -12t-29.5 12t-12.5 29t12.5 29.5t29.5 12.5zM2134 221q17 0 29 -12.5t12 -29.5t-12 -29t-29 -12t-29.5 12t-12.5 29t12.5 29.5t29.5 12.5zM1969 1884q17 0 29 -12.5t12 -29.5t-12 -29t-29 -12t-29.5 12t-12.5 29t12.5 29.5t29.5 12.5z
M2138 1504q17 0 29 -12.5t12 -29.5t-12 -29t-29 -12t-29.5 12t-12.5 29t12.5 29.5t29.5 12.5zM2168 848q17 0 29 -12.5t12 -29.5t-12 -29t-29 -12t-29.5 12t-12.5 29t12.5 29.5t29.5 12.5zM1174 1831q17 0 29 -12.5t12 -29.5t-12 -29t-29 -12t-29.5 12t-12.5 29t12.5 29.5
t29.5 12.5zM1424 1496q17 0 29 -12.5t12 -29.5t-12 -29t-29 -12t-29.5 12t-12.5 29t12.5 29.5t29.5 12.5zM741 1866q17 0 29 -12.5t12 -29.5t-12 -29t-29 -12t-29.5 12t-12.5 29t12.5 29.5t29.5 12.5zM607 1581q17 0 29 -12.5t12 -29.5t-12 -29t-29 -12t-29.5 12t-12.5 29
t12.5 29.5t29.5 12.5zM427 1640q17 0 29 -12.5t12 -29.5t-12 -29t-29 -12t-29.5 12t-12.5 29t12.5 29.5t29.5 12.5zM392 1015q17 0 29 -12.5t12 -29.5t-12 -29t-29 -12t-29.5 12t-12.5 29t12.5 29.5t29.5 12.5zM1426 864q-48 -5 -70 -24t-34 -64h-20q-12 45 -34 64.5
t-70 24.5v22q48 5 70 24.5t34 64.5h20q12 -45 34 -65t70 -25v-22zM1700 1772q17 0 29 -12.5t12 -29.5t-12 -29t-29 -12t-29.5 12t-12.5 29t12.5 29.5t29.5 12.5z" />
</svg>