<?xml version="1.0" standalone="no"?>
<!DOCTYPE svg PUBLIC "-//W3C//DTD SVG 1.1//EN" "http://www.w3.org/Graphics/SVG/1.1/DTD/svg11.dtd">
<svg xmlns="http://www.w3.org/2000/svg" xmlns:xlink="http://www.w3.org/1999/xlink" version="1.1"
   viewBox="94 -151 2414 2169">
   <path fill="currentColor"
      d="M1340 1978l-29 -124q-100 -5 -143 -35t-73 -110l-69 -183l521 -78q89 -14 156 -36t112 -55t67.5 -79t22.5 -107q0 -47 -13 -118t-37 -152l-186 -627q-30 -102 -87.5 -168.5t-144.5 -99t-208 -32.5q-92 0 -172.5 22t-151.5 65t-135 107l-14 -47q50 -34 107 -53t101 -19
q109 0 183 60.5t105 176.5l195 721q23 85 23 170q0 117 -43.5 203t-123.5 133t-190 47q-82 0 -136.5 -27.5t-92 -95t-68.5 -188.5l-171 -664q-30 -119 -30 -200q0 -102 48 -190t132.5 -155t195.5 -104.5t238 -37.5q205 0 334 89.5t181 265.5l186 626q18 59 36.5 144.5
t18.5 147.5q0 112 -58.5 186t-168.5 106l33 -47l37 127q8 26 12.5 52t4.5 51q0 154 -173 208l25 124h-357zM1112 1485q129 0 204 -83.5t75 -226.5q0 -34 -5.5 -72t-16.5 -80l-185 -711q-25 -94 -81.5 -141.5t-144.5 -47.5q-74 0 -134.5 34.5t-96 94t-35.5 135.5
q0 40 7.5 83.5t18.5 87.5l175 673q27 104 54 159t65.5 75t99.5 20zM1257 1751q27 0 45.5 -21.5t18.5 -52.5q0 -32 -18.5 -52.5t-45.5 -20.5t-46 20.5t-19 52.5t18.5 53t46.5 21zM882 1374l-20 -81l117 -74l21 80zM818 1140l-20 -81l120 -76l21 82zM755 906l-20 -81l122 -77
l21 81zM692 673l-22 -80l126 -81l21 82zM1181 1208l-21 -81l224 -145l21 80zM1772 1230q-10 69 -54 127t-114.5 96.5t-160.5 49.5l-48 -32q75 -9 137 -43t103.5 -86t55.5 -112h81zM1120 971l-21 -80l222 -144l22 80zM1610 1058l-187 -2l-21 -80l187 2zM1059 736l-21 -80
l221 -144l21 81zM1547 823l-184 -2l-21 -80l184 2zM997 501l-21 -81l221 -143l21 80zM1941 1057l-144 -2l-21 -79l144 2zM1483 587l-181 -2l-22 -79l182 2zM1880 821l-148 -2l-21 -79l148 2zM1419 352l-181 -2l-22 -79l182 2zM1820 589l-152 -2l-22 -80l152 2zM1756 352
l-153 -2l-22 -80l153 2zM1398 169q-20 -54 -63 -95t-101.5 -65t-125.5 -26l34 -36q81 0 149 26.5t117 76.5t72 119h-82z" />
</svg>