<?xml version="1.0" standalone="no"?>
<!DOCTYPE svg PUBLIC "-//W3C//DTD SVG 1.1//EN" "http://www.w3.org/Graphics/SVG/1.1/DTD/svg11.dtd">
<svg xmlns="http://www.w3.org/2000/svg" xmlns:xlink="http://www.w3.org/1999/xlink" version="1.1"
   viewBox="94 -151 2414 2169">
   <path fill="currentColor"
      d="M897 1473l53 -51q39 -38 96.5 -63t132.5 -41t165 -27q120 -16 206 -32.5t154 -39.5t134 -55q109 -54 197 -130t150.5 -171.5t96 -205.5t33.5 -231q0 -104 -33 -182t-101 -147q-73 -74 -155.5 -105.5t-198.5 -31.5q-154 0 -283.5 55.5t-233.5 156t-181 236.5
q-42 74 -70 153.5t-46 176.5t-31 224q-12 124 -44 215.5t-86 148.5l-51 54zM511 1899q-12 0 -26 -14l-97 -95q-13 -13 -13 -26q0 -17 27.5 -27.5t70.5 -10.5l316 -321l80 79l-320 316q0 45 -11 72t-27 27zM516 1978q44 0 77 -39.5t33 -106.5l349 -348l-186 -184l-347 350
q-67 0 -107.5 33.5t-40.5 77.5q0 42 37 78l106 103q38 36 79 36zM468 532q51 -65 78 -138.5t27 -143.5q0 -71 -27 -144t-77 -138l-59 51q43 54 65.5 113.5t22.5 117.5t-22.5 117.5t-65.5 112.5zM1442 1274l93 -76q-97 0 -179.5 -35.5t-144 -97.5t-95.5 -141.5t-34 -167.5
l-76 86q11 106 70.5 197.5t154.5 153.5t211 81zM1528 1241l49 -49l-490 -512l-35 65zM640 606q98 0 178.5 -48t128.5 -128.5t48 -177.5q0 -98 -48 -178t-128.5 -128t-178.5 -48t-178.5 48t-128.5 128t-48 178q0 97 48 177.5t128.5 128.5t178.5 48zM640 526q-76 0 -138.5 -37
t-99.5 -99.5t-37 -137.5q0 -76 37 -138t99.5 -99t138.5 -37t138.5 37t99.5 99t37 138q0 75 -37 137.5t-99.5 99.5t-138.5 37zM812 532l58 -52q-43 -53 -65.5 -112.5t-22.5 -117.5t22.5 -117.5t65.5 -113.5l-59 -51q-50 65 -77 138t-27 144q0 70 27 143.5t78 138.5z
M1785 1157l57 -41l-674 -678l-49 49zM933 1345l-3 -3q37 -45 63 -100t44 -126.5t28 -164.5q14 -123 32 -211.5t43.5 -158t61.5 -132.5q72 -127 165.5 -218t210.5 -140t258 -49q86 0 153 22t132 86q62 61 86.5 125t24.5 142q0 153 -51.5 279.5t-147.5 225t-232 169.5
q-59 31 -124 53t-148 38.5t-197 31.5q-83 11 -157.5 28t-135.5 42t-106 61zM1196 1134l989 -983l-48 -49l-990 983zM1436 1250l868 -869l-43 -55l-895 894zM1050 906l894 -890l-54 -43l-870 863zM2011 1015l45 -54l-749 -747l-49 49zM2172 827l42 -57l-717 -711l-49 49z
M2264 572l27 -72l-545 -534l-49 49z" />
</svg>