<?xml version="1.0" standalone="no"?>
<!DOCTYPE svg PUBLIC "-//W3C//DTD SVG 1.1//EN" "http://www.w3.org/Graphics/SVG/1.1/DTD/svg11.dtd">
<svg xmlns="http://www.w3.org/2000/svg" xmlns:xlink="http://www.w3.org/1999/xlink" version="1.1"
   viewBox="94 -151 2414 2169">
   <path fill="currentColor"
      d="M1299 976q-287 0 -493 -49.5t-316.5 -148.5t-110.5 -246q0 -108 58 -219.5t173.5 -205.5t287.5 -151.5t401 -57.5t401.5 57.5t288 151.5t173.5 205.5t58 219.5q0 147 -110.5 246t-317 148.5t-493.5 49.5zM1299 1978q-193 0 -357 -37.5t-285.5 -104.5t-189 -157
t-67.5 -196q0 -26 4.5 -55t14.5 -58l76 33q-15 42 -15 80q0 89 61 165t171.5 132.5t260 88t326.5 31.5t326.5 -31.5t260 -88t171.5 -132.5t61 -165q0 -38 -15 -80l76 -33q10 29 14.5 58t4.5 55q0 106 -67.5 196t-189 157t-285.5 104.5t-357 37.5zM1298 1734
q-128 0 -249 -17.5t-220.5 -49t-163.5 -73.5q-160 -42 -222.5 -118t-62.5 -157q0 -43 23 -82l926 437l833 -466q24 52 24 111q0 80 -73 154.5t-198.5 133t-284.5 93t-332 34.5zM1343 1718q-196 -97 -356 -172.5t-310 -144t-318 -142.5q-40 -18 -40 -57q0 -24 16 -44
l137 -170l56 40l-125 150q-7 10 -6 20.5t14 15.5q203 83 422 184t451 222q35 18 66 0q176 -98 370.5 -200.5t419.5 -214.5q19 -10 9 -29l-80 -136l59 -25l86 148q8 15 8 33q0 37 -36 54q-223 108 -429 221t-414 247zM1264 1357q-185 0 -337 -33.5t-247 -74.5
q-115 -50 -163 -114.5t-48 -173.5l174 151l320 51l161 74l333 -87l322 21l162 -94l141 -28q-25 66 -78.5 112.5t-145.5 87.5q-95 42 -248 75t-346 33zM1140 1289q-82 0 -131 -25t-85 -92q-93 17 -158 17q-115 0 -179.5 -40.5t-90.5 -137.5q-103 -17 -162 -56t-59 -99
q0 -54 48 -103t127 -76l26 75q-76 28 -98.5 51.5t-22.5 47.5q0 28 46 53t149 51q14 82 74 120.5t177 38.5q36 0 79.5 -4t94.5 -12q21 43 39.5 66.5t47 32t78.5 8.5q60 0 121.5 -26t125 -51.5t125.5 -25.5q64 0 132.5 21.5t122.5 21.5q55 0 92 -33t59 -78q17 4 38 7.5t43 3.5
q53 0 101.5 -21.5t48.5 -63.5q0 -18 -4.5 -42t-4.5 -50q0 -46 36.5 -80t82.5 -64l-12 27q0 -45 -30.5 -69.5t-77.5 -24.5v-79q77 0 131.5 48.5t54.5 118.5q0 29 -26 48.5t-52 37t-26 41.5q0 22 4 40.5t4 47.5q0 73 -61.5 120t-138.5 47q-36 0 -80 -13q-50 113 -180 113
q-70 0 -137 -21t-117 -21q-69 0 -129 26t-119 52t-127 26zM855 320q-14 -7 -29 -11t-32 -6l10 -61q42 6 77 23zM1072 422q-8 -20 -13 -41t-7 -38l56 -13q2 17 7.5 36t12.5 34zM1299 898q410 0 625.5 -95.5t215.5 -270.5q0 -116 -64 -216.5t-179 -177t-268 -119.5t-330 -43
t-329.5 43t-267.5 119.5t-179 177t-64 216.5q0 175 215.5 270.5t624.5 95.5zM1166 225l-37 -50q18 -15 37 -25t36 -16l27 52q-16 6 -32.5 17t-30.5 22zM1412 411l-60 -9q3 -23 10 -43t15 -36l51 17q-6 14 -10 34t-6 37zM1497 224q-17 -5 -33 -6t-33 -1v-60q18 0 41.5 1.5
t39.5 7.5zM1745 342q-17 -1 -37.5 -6t-40.5 -14l22 -57q33 14 61 18z" />
</svg>