<?xml version="1.0" standalone="no"?>
<!DOCTYPE svg PUBLIC "-//W3C//DTD SVG 1.1//EN" "http://www.w3.org/Graphics/SVG/1.1/DTD/svg11.dtd">
<svg xmlns="http://www.w3.org/2000/svg" xmlns:xlink="http://www.w3.org/1999/xlink" version="1.1"
   viewBox="94 -151 2414 2169">
   <path fill="currentColor"
      d="M1807 1978q-149 0 -309.5 -56.5t-318 -157t-300.5 -233t-258.5 -285.5t-192 -316t-99.5 -322l76 -41q16 149 85.5 305t178.5 305.5t246 279.5t288.5 229t306 155.5t297.5 56.5q142 0 258 -55.5t184.5 -150.5t68.5 -211q0 -88 -41 -160t-110 -127q-41 -32 -115 -67
t-162.5 -71t-175 -72t-151.5 -70q-86 -45 -182.5 -113.5t-189.5 -147.5t-169.5 -157t-121.5 -142l71 -40q47 65 118 138.5t157 146t177.5 136t177.5 109.5q101 53 219 99t223.5 90.5t170.5 95.5q87 68 135.5 158t48.5 194q0 138 -79 250.5t-213 179.5t-299 67zM273 827
q-31 0 -51 -11.5t-20 -33.5q0 -19 17 -36t34 -36.5t17 -45.5v-139q0 -127 27.5 -199t94.5 -121q-35 -57 -55 -106t-20 -87q0 -45 27 -79.5t66 -34.5q35 0 43 27t28 68l63 125q22 -7 64 -7q75 0 132.5 21.5t107 49.5t101 49.5t114.5 21.5q51 0 69 10t18 30q0 64 -70.5 104.5
t-161.5 40.5q-38 0 -71.5 -7t-56.5 -19q2 10 4 21t2 24q0 51 -19.5 112.5t-48.5 105.5t-58 44q-20 0 -49 -25.5t-56 -66t-45 -86.5q-100 286 -247 286z" />
</svg>