<?xml version="1.0" standalone="no"?>
<!DOCTYPE svg PUBLIC "-//W3C//DTD SVG 1.1//EN" "http://www.w3.org/Graphics/SVG/1.1/DTD/svg11.dtd">
<svg xmlns="http://www.w3.org/2000/svg" xmlns:xlink="http://www.w3.org/1999/xlink" version="1.1"
   viewBox="94 -151 2414 2169">
   <path fill="currentColor"
      d="M1300 1978q-131 0 -236.5 -62.5t-167 -164.5t-61.5 -221q0 -105 48.5 -198t127.5 -160v-976q0 -134 78 -216t211 -82t211 82t78 216v976q80 67 128 160t48 198q0 119 -61.5 221t-166.5 164.5t-237 62.5zM1300 1782q-69 0 -125.5 -33.5t-90 -90.5t-33.5 -127t33.5 -126
t90 -89.5t125.5 -33.5q70 0 126 33.5t89.5 89.5t33.5 126t-33.5 127t-90 90.5t-125.5 33.5zM1218 1452v-642h164v642h-164zM1300 1900q106 0 193.5 -51t139.5 -135t52 -184q0 -90 -45.5 -174t-130.5 -145v-1015q0 -101 -55 -160.5t-154 -59.5t-154 59.5t-55 160.5v1015
q-85 61 -130.5 145t-45.5 174q0 100 52 184t139.5 135t193.5 51zM1068 702v-78h214v78h-214zM1068 472v-78h214v78h-214zM1068 242v-78h214v78h-214z" />
</svg>