<?xml version="1.0" standalone="no"?>
<!DOCTYPE svg PUBLIC "-//W3C//DTD SVG 1.1//EN" "http://www.w3.org/Graphics/SVG/1.1/DTD/svg11.dtd">
<svg xmlns="http://www.w3.org/2000/svg" xmlns:xlink="http://www.w3.org/1999/xlink" version="1.1"
   viewBox="94 -151 2414 2169">
   <path fill="currentColor"
      d="M526 1978l-10 -80q78 -12 145 -41t127.5 -80t119.5 -128t120.5 -184.5t129.5 -251.5q82 -172 146.5 -286.5t125.5 -190t130 -131.5l51 58q-58 48 -112.5 116.5t-116.5 177.5t-145 277q-79 160 -148.5 279t-135.5 203.5t-132.5 139t-139 83.5t-155.5 39zM948 1661
q0 -97 -15.5 -173.5t-61.5 -157.5l61 -35q36 64 56.5 130.5t25.5 134.5q18 -5 37.5 -7t38.5 -2q32 0 71 2t76 5l-6 70q-35 -3 -72.5 -5t-68.5 -2q-39 0 -71 10t-71 30zM622 1058q-88 -82 -145 -187t-85 -231q-3 -14 6 -26.5t22 -12.5q27 0 32 27q21 117 73 215.5t137 170.5
q22 19 3 42q-9 10 -20.5 11t-22.5 -9zM893 1355q-211 -39 -365 -143.5t-237 -262t-83 -353.5q0 -66 11.5 -139t37.5 -168q232 39 393 142t245 260.5t84 360.5q0 132 -41 275zM871 1269q28 -109 28 -217q0 -172 -70 -310t-200.5 -232t-312.5 -133q-28 112 -28 219
q0 170 70 308t200.5 231.5t312.5 133.5zM1739 1897q-152 0 -297.5 -74.5t-273.5 -232.5q128 -144 269.5 -216.5t301.5 -72.5q164 0 304 73.5t269 221.5q-131 154 -276 227.5t-297 73.5zM1739 1817q261 0 470 -218q-209 -218 -470 -218q-128 0 -248.5 55.5t-223.5 162.5
q210 218 472 218zM1567 1582q-28 11 -40 -15q-13 -28 15 -40q49 -22 113 -33.5t171 -11.5q14 0 23 8.5t9 21.5t-9 21.5t-23 8.5q-73 0 -117 4.5t-75.5 13.5t-66.5 22zM1188 1214q0 -109 -1.5 -176t-5.5 -114t-13 -97l67 -9q9 41 14 78t7 84t2 120q51 -29 110 -44t107 -16v72
q-43 0 -94.5 13t-102 35.5t-90.5 53.5zM1165 546q-12 4 -23.5 -2.5t-13.5 -19.5q-5 -30 -10 -64t-5 -66q0 -21 1.5 -44.5t4.5 -50.5t31 -27q13 0 22 10.5t7 24.5q-3 25 -4.5 46t-1.5 41q0 29 4 59t10 56q7 28 -22 37zM1209 895q-139 -113 -205.5 -239t-66.5 -259
q0 -122 57 -240t180 -233q137 112 203 231.5t66 263.5q0 133 -58 248t-176 228zM1203 789q160 -169 160 -370q0 -219 -185 -389q-161 167 -161 367q0 220 186 392zM1829 1187q125 0 233.5 -62.5t189.5 -180.5q-157 -113 -321 -113q-122 0 -233.5 63.5t-193.5 179.5
q160 113 325 113zM1829 1267q-210 0 -404 -153l-9 -51q93 -148 228.5 -230t286.5 -82q102 0 206.5 42.5t214.5 140.5q-103 169 -234.5 251t-288.5 82zM1783 1011q-27 14 -41 -12q-6 -11 -3 -23t16 -18q51 -24 107 -36t120 -12q14 0 22 8.5t8 22.5q0 13 -11 21t-26 8
q-56 0 -103 10t-89 31zM1671 693q-51 0 -105 -6l-35 -40q0 -221 87.5 -389.5t243 -264t358.5 -95.5q32 0 71 3t101 14q0 237 -90 412t-252 270.5t-379 95.5zM1671 613q185 0 326.5 -79.5t224 -222t89.5 -331.5q-22 -2 -45 -2h-46q-175 0 -309.5 79.5t-213 222t-85.5 331.5
q19 1 31.5 1.5t27.5 0.5zM1791 340q-10 -8 -12 -20.5t7 -22.5q49 -57 95 -103.5t111 -89.5q11 -8 23.5 -5.5t19.5 13.5q17 25 -11 44q-59 41 -104.5 81t-86.5 97q-18 25 -42 6z" />
</svg>