<?xml version="1.0" standalone="no"?>
<!DOCTYPE svg PUBLIC "-//W3C//DTD SVG 1.1//EN" "http://www.w3.org/Graphics/SVG/1.1/DTD/svg11.dtd">
<svg xmlns="http://www.w3.org/2000/svg" xmlns:xlink="http://www.w3.org/1999/xlink" version="1.1"
   viewBox="94 -151 2414 2169">
   <path fill="currentColor"
      d="M993 1978q-50 0 -105.5 -28.5t-97.5 -56.5q-89 -62 -178 -144.5t-165.5 -174t-128.5 -178.5q-50 -85 -74 -151t-24 -119q0 -56 25.5 -87t71.5 -31q23 0 62 7t82 19q69 19 133 28.5t128 9.5q119 0 223.5 -41t190.5 -121l985 -915l50 59l-984 913q-95 88 -214.5 134.5
t-253.5 46.5q-72 0 -137 -8.5t-126 -26.5q-40 -12 -77 -19t-63 -7q-19 0 -33 6q3 30 16 71t33.5 87t45.5 92q41 73 115 162.5t163.5 175t177.5 148.5q40 28 87 49.5t72 21.5q19 0 32 -22t13 -54q0 -11 -0.5 -32t-4.5 -47q-5 -38 -9 -79t-4 -78q0 -116 35 -226.5t107 -209.5
q8 53 20.5 86.5t28.5 55.5q33 43 80.5 67t99.5 24q73 0 130 -26.5t128 -93.5l431 -405q56 -53 81 -99.5t25 -98.5q0 -70 -33.5 -127t-92.5 -93.5t-137 -44.5l311 -294l50 60l-257 240l-3 -49q67 10 121.5 54.5t86.5 109.5t32 139q0 71 -31 131.5t-100 125.5l-435 407
q-84 79 -149.5 109t-159.5 30q-63 0 -116.5 -22.5t-90 -61t-48.5 -87.5h31q-34 67 -50.5 140t-16.5 160q0 40 4 79.5t9 74.5q4 25 5 45t1 35q0 75 -31.5 115t-92.5 40zM1023 1936q-57 0 -118.5 -27.5t-127 -76.5t-134 -115t-137.5 -144q-82 -92 -136.5 -178t-82 -161
t-27.5 -133q0 -34 15 -34q21 0 72 39.5t120.5 105.5t147.5 147.5t152.5 167.5t135.5 165t97.5 139t36.5 90q0 15 -14 15zM1764 1422l-640 -677l56 -54l641 678zM1109 781q-26 0 -26 -25q0 -37 42 -74t73 -37q14 0 20.5 7t6.5 19q0 35 -42 74q-38 36 -74 36zM1429 1282
q-38 0 -72.5 -15t-58.5 -41q-22 -24 -34 -55.5t-12 -65.5q0 -77 54 -128l471 -442q52 -49 120 -49q80 0 131 57q23 25 35 56.5t12 64.5q0 77 -55 127l-471 443q-51 48 -120 48zM1429 1207q38 0 68 -27l471 -443q32 -29 32 -73q0 -41 -26 -69q-31 -34 -77 -34q-39 0 -68 28
l-471 443q-31 30 -31 73t25 70q29 32 77 32zM1957 1242l-642 -678l56 -54l642 679zM1300 600q-26 0 -26 -25q0 -37 42 -74t73 -37q14 0 20.5 7t6.5 19q0 35 -42 74q-38 36 -74 36zM2149 1062l-641 -678l56 -54l642 679zM1493 420q-26 0 -26 -25q0 -37 42 -74t73 -37
q14 0 20.5 7t6.5 19q0 35 -42 74q-38 36 -74 36zM2296 197q-16 0 -35 -1.5t-40 -4.5l-135 -142q0 -67 4.5 -93.5t18.5 -40.5q17 -17 43 -17q29 0 65 21.5t77 65.5q44 47 65 86t21 69t-15 42q-20 15 -69 15z" />
</svg>