<?xml version="1.0" standalone="no"?>
<!DOCTYPE svg PUBLIC "-//W3C//DTD SVG 1.1//EN" "http://www.w3.org/Graphics/SVG/1.1/DTD/svg11.dtd">
<svg xmlns="http://www.w3.org/2000/svg" xmlns:xlink="http://www.w3.org/1999/xlink" version="1.1"
   viewBox="94 -151 2414 2169">
   <path fill="currentColor"
      d="M1300 1846q-232 0 -430 -68t-345.5 -190t-229.5 -286t-82 -356q0 -72 84.5 -134.5t234 -110.5t346.5 -75t422 -27t422 27t346.5 74.5t234 111t84.5 135.5q0 192 -82 356t-229.5 285.5t-345.5 189.5t-430 68zM1301 1978q-151 0 -269.5 -25t-171.5 -74v-108l440 52l441 -52
v108q-52 49 -170.5 74t-269.5 25zM1300 1766q256 0 466 -86.5t345 -233.5q-133 61 -343 96t-468 35t-467.5 -35t-343.5 -96q135 147 345 233.5t466 86.5zM714 1170q57 -27 113.5 -51t111 -44t106.5 -36l-22 -67q-98 31 -202.5 73.5t-212.5 92.5zM1004 1217q68 -50 125.5 -83
t108.5 -51l-24 -64q-68 25 -144.5 70t-162.5 113zM1300 1497q165 0 314 -17.5t271 -46t207.5 -63.5t123.5 -71q27 -49 47 -102t30 -109q-84 61 -233 108t-343.5 74t-416.5 27q-221 0 -416 -27t-343.5 -74t-233.5 -108q11 56 30.5 109t46.5 102q38 36 123.5 71t207.5 63.5
t271 46t314 17.5zM1300 1277q-177 0 -352 -25.5t-332 -75.5t-280 -125q57 -50 164.5 -92t243 -73.5t280 -48.5t276.5 -17t275.5 15.5t277.5 44t240 68.5t163 90q-118 82 -259.5 135t-314 78.5t-382.5 25.5zM846 947q-58 -46 -91.5 -122.5t-33.5 -160.5q0 -107 19.5 -188.5
t39 -154t19.5 -148.5q0 -30 -9.5 -62.5t-23.5 -52.5l-112 76q-11 -28 -11 -58q0 -45 28.5 -74t72.5 -29q59 0 97 54t38 142q0 86 -19.5 162t-39 155.5t-19.5 177.5q0 73 32 137.5t83 99.5zM1300 1217q159 0 307.5 -15.5t275.5 -42.5t222 -62t148.5 -73.5t53.5 -77.5
q0 -48 -82 -95t-224 -86t-322.5 -62.5t-378.5 -23.5t-378.5 23.5t-322.5 62.5t-224 86t-82 95q0 39 53.5 77.5t148.5 73.5t222 62t275.5 42.5t307.5 15.5zM1515 1248q-48 0 -75 -21t-27 -58q0 -32 27 -62t69.5 -49.5t86.5 -19.5q46 0 76.5 19.5t30.5 54.5q0 32 -27 63.5
t-70 52t-91 20.5zM1331 1266l186 -3l273 -34q42 -47 57.5 -83t15.5 -64q0 -65 -63 -94.5t-160 -29.5q-92 0 -170.5 35t-126 89.5t-47.5 113.5q0 26 9.5 41t25.5 29zM1153 948q-73 -62 -115.5 -146t-42.5 -169q0 -69 6.5 -153t12.5 -167t6 -148q0 -29 -4.5 -54.5t-7.5 -38.5
l-139 22q0 -62 29.5 -100.5t77.5 -38.5q57 0 90.5 56t33.5 154q0 103 -12.5 231.5t-12.5 236.5q0 70 38.5 139.5t104.5 119.5zM2129 297l-1475 -39v-68l1479 7zM2218 1097l-574 -226l-142 -188q79 -66 141 -110t122.5 -74.5t131 -53.5t165.5 -47q19 111 61.5 216.5
t88.5 179.5l129 127l-26 101zM654 134l-7 -66l1463 -170l13 100z" />
</svg>