<?xml version="1.0" standalone="no"?>
<!DOCTYPE svg PUBLIC "-//W3C//DTD SVG 1.1//EN" "http://www.w3.org/Graphics/SVG/1.1/DTD/svg11.dtd">
<svg xmlns="http://www.w3.org/2000/svg" xmlns:xlink="http://www.w3.org/1999/xlink" version="1.1"
   viewBox="94 -151 2414 2169">
   <path fill="currentColor"
      d="M1448 1978q-69 0 -110 -48q-20 13 -45 20.5t-53 7.5q-46 0 -83.5 -21t-55.5 -53q-30 14 -64 14q-57 0 -96 -37.5t-39 -90.5q-197 -140 -311 -317t-150 -401q-75 -50 -154.5 -125t-133.5 -167t-54 -191q0 -65 38 -100.5t89 -35.5q15 0 27.5 2.5t26.5 7.5q0 -65 36 -122
t116 -57q41 0 73.5 20t54.5 55q49 -54 113 -54q67 0 107.5 64.5t40.5 159.5q0 112 -11.5 224t-25.5 224q81 53 156 123.5t145 157.5q44 -31 101 -31q42 0 78 19.5t55 48.5q50 -46 114 -66t120 -20q14 0 27 0.5t26 2.5q-1 -11 -1.5 -22t-0.5 -25q0 -35 12.5 -64t22.5 -47
q-31 -8 -63 -40.5t-37 -62.5q-17 7 -41.5 13t-52.5 6q-49 0 -90.5 -22.5t-65.5 -57.5q-28 9 -54 9q-62 0 -112.5 -36t-80 -93.5t-29.5 -120.5q0 -41 11 -75q-29 -22 -48.5 -59.5t-19.5 -80.5q0 -48 23 -87.5t60 -60.5q-13 -25 -13 -59q0 -59 42 -100.5t100 -41.5q20 0 37 5
q8 -61 57.5 -102.5t123.5 -41.5q49 0 94 20q29 -21 65.5 -34.5t77.5 -13.5q51 0 95 17t73 46q34 -14 73 -14q78 0 132.5 46.5t57.5 114.5q82 9 137.5 67.5t55.5 138.5q0 10 -0.5 19t-2.5 18q64 29 104.5 86.5t40.5 129.5q0 32 -8 62q53 24 86.5 72.5t33.5 107.5q0 45 -18 84
t-44 67q16 23 28.5 57.5t12.5 75.5q0 62 -26 103t-66 57q3 14 5 30t2 32q0 100 -60.5 168t-146.5 72q1 4 1 8v9q0 72 -37.5 127t-98.5 86t-131 31q-9 0 -15 -0.5t-20 -1.5q-18 57 -75 96t-134 39q-31 0 -59.5 -7t-52.5 -20q-19 25 -49.5 40.5t-68.5 15.5zM428 900l42 -30
l-153 -247l-59 37zM1335 1717q-31 0 -61.5 -15.5t-52.5 -43.5l39 -46q30 34 70 34q31 0 56 -19l35 51q-16 19 -39 29t-47 10zM522 761l51 -20l-98 -308l-66 24zM652 803h54v-329l-70 2zM1625 1603q-37 0 -70 -16l16 -58q21 9 46 9q51 0 73 -49l54 32q-10 39 -44 60.5
t-75 21.5zM1448 1898q29 0 58 -13t45 -40q35 15 60.5 20.5t50.5 5.5q82 0 123.5 -41t57.5 -92q14 4 28 5t29 1q108 0 168 -67.5t60 -178.5q85 -9 138.5 -58t53.5 -145q0 -20 -1 -37.5t-4 -41.5q44 -16 66 -52.5t22 -90.5q0 -32 -12.5 -66t-38.5 -55q35 -31 52 -68.5
t17 -74.5q0 -49 -34 -89t-84 -57q5 -30 5.5 -53t0.5 -36q0 -64 -38.5 -116.5t-95.5 -71.5q1 -8 1 -17v-17q0 -77 -47.5 -127.5t-135.5 -51.5q0 -66 -36 -107.5t-105 -41.5q-19 0 -41.5 6t-38.5 15q-23 -26 -62 -46.5t-87 -20.5q-40 0 -72.5 17t-57.5 38q-16 -13 -40.5 -22.5
t-49.5 -9.5q-59 0 -99.5 36t-47.5 95q-13 -3 -27.5 -4.5t-24.5 -1.5q-50 0 -76.5 28t-26.5 69q0 16 5 33.5t11 29.5q-36 18 -59.5 53t-23.5 79q0 35 18.5 66.5t51.5 48.5q-13 49 -13 97q0 67 45.5 120t131.5 53q26 0 54 -7q28 36 57 55.5t79 19.5q27 0 65.5 -5.5t64.5 -12.5
q5 24 18.5 47t29.5 42q17 20 40.5 35t58.5 26q-23 36 -34 62.5t-16 55.5q-6 32 -8 62.5t-2 74.5q-64 1 -114 6.5t-95 18.5q-44 13 -88 36t-65 41q-34 -38 -64.5 -55.5t-62.5 -17.5q-46 0 -88.5 30t-42.5 90q0 24 9 46.5t27 40.5q-23 14 -33.5 33.5t-10.5 46.5q0 15 7 36
q-41 0 -73 30.5t-32 81.5q0 47 32 76t75 29q17 0 34.5 -3t31.5 -10q24 35 62 50.5t70 15.5q23 0 50.5 -7.5t42.5 -20.5q20 21 48 33.5t53 12.5zM2147 1004l-51 -36q14 -16 21 -33t7 -34t-6 -32.5t-19 -28.5l51 -41q45 34 45 96q0 29 -12.5 57.5t-35.5 51.5zM2003 520
q0 -44 -16 -71.5t-53 -34.5l17 -60q53 0 85.5 50.5t32.5 115.5h-66z" />
</svg>