<?xml version="1.0" standalone="no"?>
<!DOCTYPE svg PUBLIC "-//W3C//DTD SVG 1.1//EN" "http://www.w3.org/Graphics/SVG/1.1/DTD/svg11.dtd">
<svg xmlns="http://www.w3.org/2000/svg" xmlns:xlink="http://www.w3.org/1999/xlink" version="1.1"
   viewBox="94 -151 2414 2169">
   <path fill="currentColor"
      d="M1300 1978q-316 0 -551.5 -100t-366 -297.5t-130.5 -488.5q0 -281 114.5 -469.5t328.5 -285.5t512 -103l1 94q-275 7 -468 89.5t-294 248.5t-101 426q0 269 119 446.5t334 265t502 87.5q288 0 503 -88t333.5 -265.5t118.5 -445.5q0 -259 -99.5 -424.5t-289 -248
t-461.5 -91.5v-94q296 8 507 106t323.5 285.5t112.5 466.5q0 292 -131 489.5t-366.5 297t-550.5 99.5zM1174 1924l-82 -3q-26 -34 -51 -105.5t-46 -159.5l90 56q14 55 38.5 113t50.5 99zM1426 1924q26 -41 51 -100.5t38 -111.5l90 -56q-21 88 -46 159.5t-51 105.5zM815 1855
l-117 -64q-97 -116 -147.5 -280t-50.5 -356q0 -241 90 -415.5t247 -280t356 -139.5l31 67q-128 11 -245 68t-208 156.5t-144 236.5t-53 308q0 205 62 383.5t179 315.5zM1156 1618q-13 0 -25 -8l-120 -74q-16 -10 -33 -10q-13 0 -29 8l-97 50q-28 14 -40 -18l-100 -289
q-4 -13 0.5 -17.5t15.5 1.5l142 73q13 7 26 7q15 0 33 -16l58 -57q12 -10 29 -10q13 0 23 6l111 70q15 9 28 9q16 0 31 -13l71 -61q14 -13 20 -13t20 13l71 61q15 13 31 13q13 0 28 -9l111 -70q11 -6 23 -6q17 0 29 10l58 57q18 16 33 16q13 0 26 -7l142 -73q11 -6 16 -1.5
t0 17.5l-100 289q-12 32 -40 18l-97 -50q-16 -8 -29 -8q-17 0 -33 10l-120 74q-12 8 -25 8q-15 0 -29 -12l-93 -83q-10 -9 -22 -9q-11 0 -22 9l-93 83q-13 12 -29 12zM1076 1084l-357 -39q-17 -1 -17 -12q0 -6 7 -14l193 -222q8 -9 15 -9q10 0 18 14l158 257q4 5 4 12
q0 15 -21 13zM1183 1182q-28 0 -28 -18q0 -10 9 -20l114 -130q13 -16 22 -16q8 0 21 16l115 130q9 10 9 20q0 18 -28 18h-234zM1030 778l-53 -73q25 -84 81.5 -177.5t126.5 -151.5l56 54q-66 49 -125 145t-86 203zM1785 1855q117 -137 179 -315.5t62 -383.5
q0 -171 -53 -308.5t-144 -237t-208 -157t-245 -67.5l42 -64q197 35 351 141t242.5 279.5t88.5 412.5q0 192 -50 356t-148 280zM1524 1084q-21 2 -21 -13q0 -7 4 -12l158 -257q8 -14 18 -14q8 0 15 9l193 222q7 8 7 14q0 11 -17 12zM1569 779q-27 -108 -86 -204t-125 -145
l57 -52q71 58 127 150.5t81 176.5zM1310 477q-71 0 -113.5 -32.5t-42.5 -103.5v-39q0 -49 -17.5 -74.5t-65.5 -56.5l-14 -9q-47 -30 -69 -60t-22 -72q0 -55 39.5 -93.5t108.5 -38.5q93 0 171.5 60.5t126 157.5t47.5 206q0 70 -41 112.5t-108 42.5zM1310 397q28 0 48.5 -17.5
t20.5 -51.5q0 -90 -37 -170t-97 -130t-131 -50q-29 0 -48.5 13t-19.5 39q0 17 11 31t37 30l30 18q59 35 90 86.5t31 125.5q0 41 20 58.5t45 17.5z" />
</svg>