<?xml version="1.0" standalone="no"?>
<!DOCTYPE svg PUBLIC "-//W3C//DTD SVG 1.1//EN" "http://www.w3.org/Graphics/SVG/1.1/DTD/svg11.dtd">
<svg xmlns="http://www.w3.org/2000/svg" xmlns:xlink="http://www.w3.org/1999/xlink" version="1.1"
   viewBox="94 -151 2414 2169">
   <path fill="currentColor"
      d="M896 1978q-52 0 -116.5 -24t-132.5 -66.5t-132.5 -99t-117.5 -121.5q-81 -99 -114 -163t-33 -122q0 -98 65 -183.5t177 -135.5q56 -25 110 -52.5t97 -59.5q57 -43 77 -89t33 -98q11 -44 30.5 -95t62.5 -115q42 -62 111.5 -106.5t126.5 -44.5q31 0 48 13t17 36
q0 16 -13.5 35t-48.5 54q-32 32 -60 70.5t-28 84.5q0 36 28.5 59.5t72.5 23.5q11 0 36 -5.5t61 -16.5l-155 165l149 136l147 -153q-14 40 -21.5 75.5t-7.5 62.5q0 55 33 82q44 35 88 35q32 0 54 -17t44 -59q14 -26 26 -37t28 -11q22 0 37 17.5t15 42.5q0 49 -20.5 88.5
t-71.5 89.5q-40 39 -83 59t-84 33q-43 13 -70 26.5t-46 30.5q-33 31 -49 76.5t-27 99.5q-12 63 -33.5 130t-74.5 128q-49 57 -109.5 89t-125.5 32zM748 1641l108 -108l-220 -206l-108 108zM1028 1616q-19 0 -31.5 -12.5t-12.5 -30.5t13 -31t31 -13t30.5 13t12.5 31
q0 17 -13 30t-30 13zM1039 1481q-22 0 -37 -15t-15 -36t15.5 -36.5t36.5 -15.5t36 15t15 37q0 21 -15 36t-36 15zM953 1328l-143 -135l56 -56l143 135zM1019 1680q31 0 50 -20q30 -32 41 -77.5t15 -95.5q4 -48 15 -94.5t45 -74.5q33 -27 67.5 -44.5t74.5 -23.5q29 -4 58 -15
q14 -5 14 -14t-16 -14q-29 -8 -51 -31.5t-34 -60t-12 -82.5l-46 44l-169 -160q-21 -20 -35 -28t-33 -8q-38 0 -61 21.5t-31 64.5q-4 24 -16 46t-56 28q-65 9 -105 43t-40 81q0 20 8 42q7 19 27 38t54 48q37 30 75 68t65.5 92t30.5 134q2 42 19.5 67.5t45.5 25.5zM1089 1202
l-143 -135l56 -56l143 135zM1230 1133l-208 -199l743 -751l-20 82q-30 -21 -30 -60q0 -29 17.5 -51t51.5 -36l336 -136q20 -8 42.5 -12.5t41.5 -4.5q62 0 104 42t42 105q0 38 -15.5 62t-48.5 35t-85 11q-31 0 -46 7t-27 27l-46 75q-25 40 -56.5 61.5t-70.5 21.5
q-13 0 -42 -8.5t-52 -29.5l91 -28zM1228 1037l666 -722q14 16 27 23.5t29 7.5q23 0 43 -14t37 -41l47 -75q19 -30 46 -43t73 -13q45 0 66 -7.5t21 -41.5q0 -38 -24 -60.5t-62 -22.5q-22 0 -55 13l-318 132q-22 9 -31 18.5t-9 23.5q0 7 3.5 16.5t5.5 14.5l-677 687zM1806 129
q-22 0 -39.5 -18t-17.5 -41q0 -14 8.5 -22t21.5 -8q20 0 37.5 18.5t17.5 39.5q0 31 -28 31zM1892 91q-22 0 -39.5 -18t-17.5 -41q0 -13 8.5 -21t21.5 -8q20 0 37.5 18t17.5 39q0 31 -28 31zM1983 57q-22 0 -39.5 -18t-17.5 -41q0 -13 8.5 -21t21.5 -8q20 0 37.5 18t17.5 39
q0 31 -28 31zM2072 21q-22 0 -39.5 -18t-17.5 -41q0 -13 8.5 -21t21.5 -8q20 0 37.5 18t17.5 39q0 31 -28 31zM2160 -14q-22 0 -39.5 -18t-17.5 -41q0 -13 8.5 -21t21.5 -8q20 0 37.5 18t17.5 39q0 31 -28 31z" />
</svg>