<?xml version="1.0" standalone="no"?>
<!DOCTYPE svg PUBLIC "-//W3C//DTD SVG 1.1//EN" "http://www.w3.org/Graphics/SVG/1.1/DTD/svg11.dtd">
<svg xmlns="http://www.w3.org/2000/svg" xmlns:xlink="http://www.w3.org/1999/xlink" version="1.1"
   viewBox="94 -151 2414 2169">
   <path fill="currentColor"
      d="M1413 1943q0 -13 6 -22l903 -1317l6 29l-88 -60l-862 1262l102 64l-26 37l-144 -90l888 -1299q15 -23 37 -37.5t48 -25.5q22 -9 31 12q4 9 0.5 17.5t-12.5 12.5q-7 3 -22 11t-32 19v-27l115 72q17 11 17 31q0 10 -6 19l-895 1308q-12 19 -33 19q-14 0 -23.5 -10.5
t-9.5 -24.5zM427 1735q-16 0 -29 -14q-50 -55 -90.5 -125t-64 -140t-23.5 -124q0 -77 22.5 -134.5t54.5 -89.5t60 -32q32 0 65.5 33.5t56.5 82t23 95.5q0 38 -12.5 63t-28.5 47q-16 21 -26.5 43.5t-10.5 53.5q0 16 14.5 36.5t51.5 55.5l-32 8q29 -80 71 -145.5t102 -126.5
l142 146q-41 27 -92.5 68t-99.5 82.5t-80 72.5q-22 22 -40.5 33t-33.5 11zM839 1411l-140 -144l51 -37q8 -6 18 -6q13 0 23 10l83 84q10 10 10 22q0 10 -7 20zM414 1676q-76 -82 -120 -172t-44 -166q0 -99 55 -172t173 -140q30 -17 54 -43t53 -74q48 12 73 15.5t39 3.5
q58 0 92 -37q24 -26 24 -67q0 -18 -2.5 -36.5t-12.5 -47.5q61 -23 94 -42t73 -50q44 -35 103.5 -70.5t129.5 -35.5q45 0 89.5 19.5t91.5 59.5l-56 56q-37 -30 -70 -45t-64 -15q-47 0 -90.5 26.5t-84.5 61.5q-37 31 -67 48t-63 27q2 9 3 20.5t1 27.5q0 30 -10.5 57t-32.5 53
q-26 31 -60.5 46t-75.5 15q-21 0 -42.5 -3t-44.5 -9q-14 28 -42 55t-63 47q-93 51 -138.5 113t-45.5 136q0 59 35.5 126t108.5 146zM703 1185q-37 0 -66 -20.5t-29 -47.5q0 -18 11.5 -30t28.5 -12t28.5 15.5t11.5 38.5q12 2 18 2q23 0 44 -18.5t40 -43.5q29 -37 54 -54
t50 -17q27 0 48 19t21 44q0 16 -11 27t-28 11q-16 0 -26.5 -11t-12.5 -30q-11 2 -25.5 14t-32.5 35q-14 19 -25.5 32.5t-23.5 21.5q-34 24 -75 24zM1012 1502q-27 0 -46 -26.5t-19 -63.5q0 -44 24 -80q8 -11 21.5 -23.5t32.5 -25.5q46 -32 52 -58q-18 -2 -30 -12.5
t-12 -26.5q0 -37 39 -37q25 0 43.5 20.5t18.5 48.5q0 34 -23 59.5t-49 43.5q-19 13 -31.5 24t-20.5 24q-7 11 -9.5 24.5t-2.5 27.5q23 1 38.5 13.5t15.5 29.5q0 16 -11.5 27t-30.5 11zM875 1900q-106 0 -209.5 -50.5t-217.5 -156.5l57 -51q96 92 188.5 137.5t177.5 45.5
q91 0 154.5 -38t102.5 -117q20 -41 47.5 -76t46.5 -52q-33 -32 -51 -71.5t-18 -79.5q0 -76 52 -126.5t131 -50.5q15 0 40.5 4t42.5 8q11 -44 34.5 -83.5t62.5 -81.5q32 -35 47.5 -68t15.5 -68q0 -33 -19 -69.5t-63 -85.5l55 -49q54 60 78 107.5t24 95.5q0 49 -18.5 94
t-65.5 95q-45 47 -68.5 95t-30.5 104q-28 -12 -59 -17.5t-68 -5.5q-52 0 -84 28.5t-32 74.5q0 35 23 75.5t73 84.5q-45 28 -75.5 66t-53.5 86q-46 99 -127 147.5t-193 48.5zM1252 1044q-46 -59 -95 -108t-99 -87l962 -803l16 51l-33 -31q-20 -19 -29.5 -35.5t-9.5 -35.5
q0 -35 23 -61q26 -30 64 -30q20 0 40.5 7.5t37.5 23.5l39 37l-56 -8q66 -66 119 -66q33 0 62 25q34 30 34 69q0 24 -16 49t-51 58l-7 -46l20 22q37 40 37 79q0 32 -23 57q-28 29 -65 29q-18 0 -35 -7.5t-36 -25.5l-30 -28l46 2zM1254 949l888 -830l43 38q16 13 31 13
q13 0 21.5 -8.5t8.5 -21.5q0 -17 -16 -33l-32 -31l50 -47q18 -17 18 -35q0 -16 -12 -26.5t-29 -10.5q-19 0 -38 16l-50 44l-49 -42q-16 -13 -31 -13q-13 0 -21.5 8.5t-8.5 20.5q0 17 16 32l46 43l-931 778q26 22 49.5 49t46.5 56zM1814 244q-34 -35 -51 -35q-7 0 -14 1
t-16 1q-16 0 -25 -9t-9 -22q0 -24 23.5 -46t51.5 -22q19 0 27 13q4 7 4.5 18.5t0.5 26.5q0 14 6.5 23.5t25.5 28.5zM2009 476q-18 0 -26 -13q-4 -7 -5 -18.5t-1 -26.5q0 -14 -6 -23.5t-25 -28.5l23 -22q35 35 51 35q7 0 14.5 -1t15.5 -1q16 0 25 8.5t9 22.5q0 24 -23.5 46
t-51.5 22zM1938 134q-35 -35 -51 -35q-7 0 -14.5 1t-15.5 1q-16 0 -25 -9t-9 -22q0 -24 23.5 -46t51.5 -22q18 0 26 13q5 7 5.5 18.5t0.5 26.5q0 14 6 23.5t25 28.5zM2129 363q-18 0 -26 -13q-4 -7 -5 -18.5t-1 -26.5q0 -14 -6 -23.5t-25 -28.5l23 -22q35 35 51 35
q7 0 14.5 -1t15.5 -1q16 0 25 8.5t9 22.5q0 24 -23.5 46t-51.5 22z" />
</svg>