<?xml version="1.0" standalone="no"?>
<!DOCTYPE svg PUBLIC "-//W3C//DTD SVG 1.1//EN" "http://www.w3.org/Graphics/SVG/1.1/DTD/svg11.dtd">
<svg xmlns="http://www.w3.org/2000/svg" xmlns:xlink="http://www.w3.org/1999/xlink" version="1.1"
   viewBox="94 -151 2414 2169">
   <path fill="currentColor"
      d="M1749 1978q-230 0 -391.5 -107.5t-252.5 -309.5q-42 -93 -64.5 -190t-39 -192.5t-40 -186.5t-67.5 -173q-27 -51 -54.5 -87.5t-68 -68.5t-104 -67.5t-162.5 -84.5q-105 -52 -156 -101t-51 -114q0 -34 17 -64t54 -51q28 -16 56.5 -28t46.5 -33q10 -11 14.5 -35t11.5 -52
q17 -70 50 -102.5t91 -32.5q53 0 91.5 36.5t68.5 95t57 124.5q54 130 104.5 212.5t113.5 136.5t153 100q139 69 283.5 116t280.5 98.5t249 135.5q155 114 208.5 249t53.5 272q0 141 -65.5 255.5t-189 181.5t-298.5 67zM1605 1737q17 11 34.5 8.5t26.5 -18.5q20 -35 -17 -58
q-20 -13 -38 -26t-37 -29q-16 -13 -32.5 -13.5t-27.5 13.5q-11 13 -9 31t18 31q21 16 40.5 31t41.5 30zM1383 1493q16 -6 22.5 -21t-0.5 -34t-11.5 -37.5t-9.5 -38.5q-4 -19 -17.5 -29.5t-30.5 -6.5q-16 4 -25 19t-5 35q5 22 11.5 43t13.5 43q6 18 21 25.5t31 1.5z
M1262 1105q16 -6 22.5 -22t-1.5 -35q-9 -23 -19 -45t-21 -44q-9 -18 -25 -24.5t-30 2.5q-33 21 -15 57q11 20 20.5 39.5t16.5 40.5q7 19 22 28t30 3zM785 573q22 -47 52 -82.5t70 -58.5q-37 -57 -70 -123t-59 -137q-40 -110 -72 -153t-58 -43q-36 0 -51.5 24.5t-22.5 59
t-13.5 66.5t-24.5 48q-19 17 -49 32.5t-57 31.5q-22 13 -37 26.5t-15 29.5q0 37 41 72.5t126 77.5q60 30 124 63.5t116 65.5z" />
</svg>