<?xml version="1.0" standalone="no"?>
<!DOCTYPE svg PUBLIC "-//W3C//DTD SVG 1.1//EN" "http://www.w3.org/Graphics/SVG/1.1/DTD/svg11.dtd">
<svg xmlns="http://www.w3.org/2000/svg" xmlns:xlink="http://www.w3.org/1999/xlink" version="1.1"
   viewBox="94 -151 2414 2169">
   <path fill="currentColor"
      d="M897 1762q-154 0 -179 -117h-12.5h-8.5q-98 0 -175.5 -20t-122.5 -57.5t-45 -89.5q0 -50 44.5 -89.5t133.5 -82.5q158 -75 209 -177l72 34q-63 126 -247 213q-66 31 -99 56.5t-33 45.5q0 24 36 44t96 32t131 12q20 0 40.5 -1t55.5 -5q-4 69 15.5 96t88.5 27q73 0 164 -36
l90 -36q28 40 65.5 56t83.5 16q47 0 84 -16t65 -56l90 36q91 36 164 36q69 0 89 -27t15 -96q33 4 54.5 5t41.5 1q71 0 130.5 -12t96 -32.5t36.5 -43.5t-33.5 -49t-86.5 -46q-189 -74 -251 -215l73 -29q52 112 206 170q78 30 125 73.5t47 95.5t-45 89.5t-122.5 57.5
t-175.5 20h-8.5h-12.5q-25 117 -179 117q-44 0 -92 -11t-102 -32l-32 -13q-62 56 -177 56t-177 -56l-32 13q-54 21 -102 32t-92 11zM1300 1978q-74 0 -115.5 -18.5t-41.5 -58.5q0 -35 21.5 -75t21.5 -90v-54q57 17 114 14.5t114 -15.5v55q0 50 21.5 90t21.5 75
q0 40 -41.5 58.5t-115.5 18.5zM1116 1638q-41 0 -69.5 -29t-28.5 -72q0 -41 28.5 -70t69.5 -29t70 29t29 70q0 42 -29 71.5t-70 29.5zM957 1310q-41 0 -69.5 -29t-28.5 -71t28.5 -71t69.5 -29q42 0 71 29t29 71q0 41 -29 70.5t-71 29.5zM1661 1577q-41 0 -69.5 -29
t-28.5 -72q0 -41 28.5 -70t69.5 -29t70 29t29 70q0 42 -29 71.5t-70 29.5zM984 868q-41 0 -69.5 -29t-28.5 -71t28.5 -70.5t69.5 -28.5t70 29t29 70q0 42 -29 71t-70 29zM1285 1084q-41 0 -69.5 -29t-28.5 -71t28.5 -70.5t69.5 -28.5t70 29t29 70q0 42 -29 71t-70 29z
M1278 1318q-81 0 -143 -41.5t-110 -117.5q-55 18 -119 26t-118 8q-138 0 -215 -49t-77 -123q0 -52 53.5 -100t143.5 -87q101 -44 144 -81t44 -78h80q0 70 -56 124t-180 107q-64 28 -106.5 60.5t-42.5 54.5q0 34 53.5 64t158.5 30q84 0 147.5 -16t124.5 -43q37 81 95.5 132.5
t125.5 51.5q79 0 140 -50.5t90 -121.5q41 14 124 33.5t171 19.5q61 0 119.5 -14t97.5 -35.5t39 -43.5q0 -16 -32.5 -38t-91.5 -46q-118 -48 -183.5 -121t-68.5 -154l80 1q2 55 55 109.5t147 92.5q87 35 130.5 72t43.5 84q0 49 -47 88t-123.5 61t-165.5 22q-60 0 -133.5 -10
t-129.5 -24q-53 83 -114.5 118t-150.5 35zM1720 1242q-41 0 -69.5 -29t-28.5 -71t28.5 -70.5t69.5 -28.5t70 29t29 70q0 42 -29 71t-70 29zM1362 569q-41 0 -69.5 -29t-28.5 -71t28.5 -70.5t69.5 -28.5t70 29t29 70q0 42 -29 71t-70 29zM1660 844q-41 0 -69.5 -29t-28.5 -71
t28.5 -71t69.5 -29t70 29t29 71q0 41 -29 70.5t-70 29.5zM1102 511q-34 0 -34 -36q0 -34 34 -34q15 0 25 10t10 24q0 15 -10 25.5t-25 10.5zM1182 611q-34 0 -34 -36q0 -34 34 -34q15 0 25 10t10 24q0 15 -10 25.5t-25 10.5zM1292 671q-34 0 -34 -36q0 -34 34 -34
q15 0 25 10t10 24q0 15 -10 25.5t-25 10.5zM1522 552q-34 0 -34 -36q0 -34 34 -34q15 0 25 10t10 24q0 15 -10 25.5t-25 10.5zM1631 504q-34 0 -34 -36q0 -34 34 -34q15 0 25 10t10 24q0 15 -10 25.5t-25 10.5zM758 873q15 0 25 10.5t10 24.5q0 15 -10 25t-25 10
q-34 0 -34 -35t34 -35zM848 951q15 0 25 10.5t10 24.5q0 15 -10 25t-25 10q-34 0 -34 -35t34 -35zM974 919q15 0 25 10.5t10 24.5q0 15 -10 25t-25 10q-34 0 -34 -35t34 -35zM1104 889q15 0 25 10.5t10 24.5q0 15 -10 25t-25 10q-34 0 -34 -35t34 -35zM1462 1052
q-34 0 -34 -36q0 -34 34 -34q15 0 25 10t10 24q0 15 -10 25.5t-25 10.5zM1562 982q-34 0 -34 -36q0 -34 34 -34q15 0 25 10t10 24q0 15 -10 25.5t-25 10.5zM1692 962q-34 0 -34 -36q0 -34 34 -34q15 0 25 10t10 24q0 15 -10 25.5t-25 10.5zM1802 922q-34 0 -34 -36
q0 -34 34 -34q15 0 25 10t10 24q0 15 -10 25.5t-25 10.5zM1248 1434q-34 0 -34 -36q0 -34 34 -34q15 0 25 10t10 24q0 15 -10 25.5t-25 10.5zM1384 1446q-34 0 -34 -36q0 -34 34 -34q15 0 25 10t10 24q0 15 -10 25.5t-25 10.5zM1474 1536q-34 0 -34 -36q0 -34 34 -34
q15 0 25 10t10 24q0 15 -10 25.5t-25 10.5zM1800 1343q15 0 25 10.5t10 24.5q0 15 -10 25t-25 10q-34 0 -34 -35t34 -35zM1920 1413q15 0 25 10.5t10 24.5q0 15 -10 25t-25 10q-34 0 -34 -35t34 -35zM2060 1433q15 0 25 10.5t10 24.5q0 15 -10 25t-25 10q-34 0 -34 -35
t34 -35zM720 1333q15 0 25 10.5t10 24.5q0 15 -10 25t-25 10q-34 0 -34 -35t34 -35zM820 1413q15 0 25 10.5t10 24.5q0 15 -10 25t-25 10q-34 0 -34 -35t34 -35zM960 1433q15 0 25 10.5t10 24.5q0 15 -10 25t-25 10q-34 0 -34 -35t34 -35zM1223 248l-19 -13l107 -56l107 56
l-19 13l-21 -117l67 -65l-90 -12l-55 -109h23l-55 109l-91 12l67 65zM1148 295l21 -121q2 -11 -2 -19t-12 -16l-87 -85q-10 -11 -5 -26.5t19 -16.5l121 -16q12 -2 19.5 -7t11.5 -15l53 -111q7 -14 23 -14q17 0 24 14l53 111q5 10 11 15t19 7l122 16q14 1 19.5 16.5
t-5.5 26.5l-89 86q-8 8 -10.5 15.5t-1.5 18.5l20 121q3 17 -11 25t-25 2l-109 -56q-11 -7 -19 -6t-16 5l-108 57q-13 7 -26 -2t-10 -25zM740 597q0 -40 37.5 -76.5t116.5 -84.5q77 -47 147 -99t131 -110l12 95q-56 41 -96.5 71t-78 55t-83.5 54q-49 31 -75.5 51.5
t-26.5 40.5q0 22 49.5 32.5t107.5 10.5q25 0 60 -4t68 -11t51 -15q21 72 71 120t102 48q86 0 100 -159q28 6 69 11.5t82 8.5t70 3q58 0 95.5 -14t37.5 -36q0 -18 -28 -42.5t-99 -69.5q-52 -33 -107 -71t-117 -84l16 -89q28 26 74.5 60t134.5 90q117 74 161.5 116.5
t44.5 89.5q0 61 -59 94.5t-154 33.5q-30 0 -71.5 -3t-83.5 -8q-42 147 -166 147q-64 0 -122.5 -41.5t-96.5 -110.5q-32 6 -69.5 10t-63.5 4q-104 0 -172.5 -30t-68.5 -88z" />
</svg>