<?xml version="1.0" standalone="no"?>
<!DOCTYPE svg PUBLIC "-//W3C//DTD SVG 1.1//EN" "http://www.w3.org/Graphics/SVG/1.1/DTD/svg11.dtd">
<svg xmlns="http://www.w3.org/2000/svg" xmlns:xlink="http://www.w3.org/1999/xlink" version="1.1"
   viewBox="94 -151 2414 2169">
   <path fill="currentColor"
      d="M1300 1978q-247 0 -452.5 -62t-355 -175.5t-231 -268t-81.5 -339.5q0 -233 130 -431.5t378 -348.5q141 -85 264.5 -170.5t214.5 -159.5t133 -125q42 51 132.5 125t214.5 159.5t265 170.5q248 150 378 348.5t130 431.5q0 185 -81.5 339.5t-231 268t-354.5 175.5t-453 62z
M1300 1898q183 0 331.5 -33.5t308.5 -110.5q-85 -59 -186.5 -100.5t-203.5 -41.5q-50 0 -92 13.5t-80 27t-78 13.5t-78 -13.5t-79.5 -27t-92.5 -13.5q-102 0 -203 41.5t-187 100.5q160 77 308.5 110.5t331.5 33.5zM620 1588l72 -34q-88 -182 -88 -388q0 -201 84 -376.5
t236 -294.5l-50 -62q-166 130 -258 322t-92 411q0 109 25 217t71 205zM1767 1543q35 -88 54.5 -193.5t19.5 -216.5q0 -98 -15 -195t-44 -183l-76 26q55 163 55 352q0 104 -18 201.5t-50 178.5zM2047 1667q69 -121 106.5 -252t37.5 -259q0 -173 -66 -329.5t-189 -279.5
l-56 56q113 112 172 253.5t59 299.5q0 119 -34.5 238.5t-99.5 232.5zM1300 354q167 0 301 -106q-88 -62 -168 -123.5t-133 -110.5q-52 49 -132 110.5t-169 123.5q134 106 301 106z" />
</svg>