<?xml version="1.0" standalone="no"?>
<!DOCTYPE svg PUBLIC "-//W3C//DTD SVG 1.1//EN" "http://www.w3.org/Graphics/SVG/1.1/DTD/svg11.dtd">
<svg xmlns="http://www.w3.org/2000/svg" xmlns:xlink="http://www.w3.org/1999/xlink" version="1.1"
   viewBox="94 -151 2414 2169">
   <path fill="currentColor"
      d="M930 1664q0 -27 1.5 -48t2.5 -34h-26q-93 0 -185.5 -24t-169.5 -61.5t-125 -80.5t-53 -81l207 -95q-76 -52 -127.5 -103t-111.5 -121l135 -37q-39 -64 -70 -143.5t-48.5 -160.5t-17.5 -149q67 0 140 17.5t140.5 44.5t115.5 54l11 -96q93 37 161 92q-14 -49 -18 -99.5
t-4 -108.5q0 -62 10 -121.5t23 -89.5q47 24 84 73q7 -79 34.5 -144.5t62.5 -100.5l50 33q26 -55 67 -106.5t81 -75.5q41 24 82 75.5t66 106.5l50 -33q35 35 62.5 100.5t34.5 144.5q37 -49 84 -73q14 30 23.5 89.5t9.5 121.5q0 58 -4 108.5t-18 99.5q68 -55 161 -92l11 96
q49 -27 116 -54t140.5 -44.5t139.5 -17.5q0 68 -17.5 149t-48 160.5t-70.5 143.5l135 37q-60 70 -111.5 121t-127.5 103l207 95q-4 38 -52.5 81t-125.5 80.5t-169.5 61.5t-185.5 24h-26q2 13 3 34t1 48q-89 0 -191 -29t-174 -90h-10q-72 61 -174 90t-191 29zM1300 1978
q-59 0 -59 -44q0 -14 3.5 -28.5t7.5 -43t7.5 -85t3.5 -155.5v-232q-33 -8 -93 -12t-122 -4h-176q-59 0 -59 -35q0 -33 59 -33h175h70.5t68.5 2l-451 -342q-34 -26 -48.5 -45.5t-14.5 -34.5q0 -18 24 -18q14 0 37 15t44 31l488 366v-800q0 -125 8.5 -172.5t26.5 -47.5
t26.5 47.5t8.5 172.5v800l488 -366q21 -16 44 -31t37 -15q24 0 24 18q0 15 -14 34.5t-49 45.5l-451 342q34 -2 68.5 -2h70.5h175q59 0 59 33q0 35 -59 35h-176q-61 0 -121.5 4t-93.5 12v232q0 99 3.5 155.5t7.5 85t7.5 43t3.5 28.5q0 44 -59 44zM1001 1578q48 -2 107.5 -24
t110.5 -57t71 -75h20q21 40 71.5 75t110.5 57t107 24q0 -17 -2.5 -40.5t-4.5 -39.5q25 4 50 5t50 1q59 0 126.5 -13t128.5 -34t104 -45t54 -46l-256 -119q76 -25 139 -76t121 -110l-115 -33q55 -62 90.5 -137t56 -148t29.5 -128q-64 12 -149 43.5t-225 109.5l-11 -100
q-44 29 -88.5 68t-97.5 100l-52 -36q54 -98 69.5 -184.5t15.5 -185.5q0 -21 -0.5 -42.5t-2.5 -40.5l-103 83q0 -84 -9.5 -156.5t-38.5 -117.5l-66 53q-25 -83 -56.5 -132.5t-55.5 -74.5q-24 25 -55 74.5t-57 132.5l-66 -53q-29 45 -38.5 117.5t-9.5 156.5l-103 -83
q-2 19 -2.5 40.5t-0.5 42.5q0 99 15.5 185.5t69.5 184.5l-52 36q-53 -61 -97.5 -100t-88.5 -68l-11 100q-140 -78 -224.5 -109.5t-149.5 -43.5q10 55 30 128t55.5 148t90.5 137l-115 33q58 59 121 110t139 76l-256 119q11 22 54 46t104 45t128.5 34t126.5 13q25 0 50 -1
t50 -5q-2 16 -4.5 39.5t-2.5 40.5z" />
</svg>