<?xml version="1.0" standalone="no"?>
<!DOCTYPE svg PUBLIC "-//W3C//DTD SVG 1.1//EN" "http://www.w3.org/Graphics/SVG/1.1/DTD/svg11.dtd">
<svg xmlns="http://www.w3.org/2000/svg" xmlns:xlink="http://www.w3.org/1999/xlink" version="1.1"
   viewBox="94 -151 2414 2169">
   <path fill="currentColor"
      d="M1231 1978q-135 0 -278 -47t-275.5 -136t-238 -216.5t-167.5 -289t-62 -352.5t62 -352.5t167.5 -288.5t238 -216t275.5 -135.5t278 -46.5t278 46.5t275.5 135.5t238 216t167.5 288.5t62 352.5t-62 352.5t-167.5 289t-238 216.5t-275.5 136t-278 47zM1231 1898
q128 0 260.5 -42.5t254 -124t218 -199t152.5 -267.5t56 -328q0 -179 -56 -328.5t-152 -266.5t-218 -198t-254.5 -123.5t-260.5 -42.5t-260.5 42.5t-254.5 123.5t-218 198t-152 266.5t-56 328.5q0 178 56 328t152.5 267.5t218 199t254.5 124t260 42.5zM1231 1695
q-154 0 -290 -59.5t-240.5 -164t-164 -241.5t-59.5 -291t60 -291t164.5 -242t240.5 -165t289 -60t289 60t240.5 165t164.5 242t60 291t-59.5 291t-164 241.5t-240.5 164t-290 59.5zM1231 1615q137 0 259 -53t215.5 -147t146.5 -216t53 -260t-53.5 -260.5t-147.5 -216.5
t-215.5 -147.5t-257.5 -53.5t-257.5 53.5t-215.5 147.5t-147.5 216.5t-53.5 260.5t53 260t146.5 216t215.5 147t259 53zM1231 1423q-138 0 -249 -64t-175.5 -174t-64.5 -248q0 -136 65 -245.5t176 -173.5t248 -64t248 64t176 173.5t65 245.5q0 138 -64.5 248t-175 174
t-249.5 64zM1231 1343q117 0 209.5 -53t146 -145t53.5 -208q0 -114 -54 -205t-146.5 -144.5t-208.5 -53.5q-115 0 -208 53.5t-147 144.5t-54 205q0 116 53.5 208t146 145t209.5 53zM1231 1098q-67 0 -112.5 -44t-45.5 -117q0 -74 45.5 -117.5t112.5 -43.5t112.5 43.5
t45.5 117.5q0 73 -45.5 117t-112.5 44zM1260 972l-34 -72l1130 -528l34 72zM2122 773q-53 0 -112.5 -12t-112.5 -31.5t-88 -42.5l-14 -34q11 -60 38 -126.5t68.5 -124.5t95.5 -94.5t117 -36.5q41 0 81 15.5t61 38.5l-25 131l14 32l120 77q0 91 -65 149.5t-178 58.5z" />
</svg>