<?xml version="1.0" standalone="no"?>
<!DOCTYPE svg PUBLIC "-//W3C//DTD SVG 1.1//EN" "http://www.w3.org/Graphics/SVG/1.1/DTD/svg11.dtd">
<svg xmlns="http://www.w3.org/2000/svg" xmlns:xlink="http://www.w3.org/1999/xlink" version="1.1"
   viewBox="94 -151 2414 2169">
   <path fill="currentColor"
      d="M1167 1297q-15 -14 -47 -30.5t-74 -16.5q-29 0 -53.5 10.5t-47.5 27.5q-19 -26 -50 -42t-69 -16q-39 0 -67 17q-21 -35 -54 -56t-77 -21h-10.5t-10.5 1q-22 -20 -54 -31.5t-64 -11.5q-13 0 -26 2t-29 7v-248q0 -50 28.5 -80t102.5 -63q52 -23 125 -62t148.5 -84
t138.5 -89t95 -77l111 -115q47 -48 71 -67t46 -19t46.5 19t70.5 67l113 115q32 33 94.5 76.5t138 89t148 84.5t124.5 62q74 33 102.5 63t28.5 80v248q-16 -5 -29 -7t-26 -2q-31 0 -63.5 11.5t-54.5 31.5q-5 -1 -10.5 -1h-10.5q-43 0 -76.5 21t-54.5 56q-28 -17 -67 -17
q-38 0 -69 16t-50 42q-23 -17 -47.5 -27.5t-53.5 -10.5q-42 0 -74 16.5t-47 30.5q-40 -66 -133 -66t-133 66zM844 1978q-75 0 -172.5 -24.5t-192.5 -65.5t-164 -90q16 -34 36.5 -90.5t41 -122.5t35.5 -126l97 -374l78 20l-97 374q-11 45 -27 97t-32.5 102t-31.5 89
q65 37 142.5 67t153 47t133.5 17q56 0 85 -15.5t67 -66.5q61 -82 87 -222.5t26 -384.5h80v34q0 240 -31.5 385t-97.5 236q-48 66 -93.5 90t-122.5 24zM865 1929q0 -23 -21 -59.5t-57 -80t-83 -87t-98 -80.5q93 -85 158 -147.5t111 -110.5t79.5 -89.5t61.5 -84.5l66 44
q-29 45 -65 89.5t-80 91.5t-96.5 98t-114.5 109q43 31 82 71t70 82.5t49 82.5t18 71h-80zM1001 1853l122 -257l17 -342l160 -56l160 56l19 342l122 257q-87 -13 -151.5 -19t-149.5 -6q-83 0 -147.5 6t-151.5 19zM761 1191l-110 -65q-1 -17 -1.5 -34t-0.5 -33q0 -84 11 -150
q156 -100 274 -199.5t215 -204.5l39 28q-40 61 -92.5 119t-130.5 129.5t-197 175.5q-5 37 -8 74.5t-3 72.5q0 22 1 44t3 43zM1655 1929q0 -31 18 -71t49 -82.5t70 -82.5t82 -71q-62 -58 -114.5 -109t-96.5 -98t-80 -91.5t-65 -89.5l66 -44q29 43 62 84.5t79 89.5t111 110.5
t158 147.5q-51 37 -98 80.5t-83 87t-57 80t-21 59.5h-80zM1135 1245l-176 -12q0 -59 5.5 -125t21.5 -124q33 -42 69 -103t69 -127.5t58 -125t36 -94.5l42 9q0 59 -18.5 140t-46 165.5t-55.5 154.5q-4 63 -4.5 123t-0.5 119zM1756 1978q-76 0 -122 -24t-94 -90
q-66 -91 -97.5 -236t-31.5 -385v-34h80q0 244 26 384.5t87 222.5q38 51 67 66.5t85 15.5q59 0 134 -17t153 -47t142 -67q-15 -39 -31.5 -89t-32 -102t-27.5 -97l-97 -374l78 -20l97 374q16 60 36 126t40.5 122.5t36.5 90.5q-68 49 -163.5 90t-192.5 65.5t-173 24.5z
M1150 1200q56 -49 150 -49t150 49q25 -14 49.5 -22t54.5 -8q23 0 51 4.5t50 14.5q27 -19 55.5 -29t63.5 -10q11 0 25 1t24 3q56 -61 142 -64q24 -20 59 -30t62 -10v-161q0 -20 -14 -32.5t-69 -36.5q-48 -21 -113 -57.5t-134 -79.5t-132.5 -86t-109.5 -78q-38 22 -95 33.5
t-119 11.5q-61 0 -118.5 -11.5t-95.5 -33.5q-46 35 -109.5 78t-132.5 86t-134 79.5t-113 57.5q-55 24 -69 36.5t-14 32.5v161q27 0 62 10t59 30q86 3 142 64q11 -2 25 -3t24 -1q35 0 63.5 10t55.5 29q22 -10 50.5 -14.5t50.5 -4.5q30 0 54.5 8t49.5 22zM1465 1245
q0 -59 -0.5 -119t-4.5 -123q-28 -70 -55.5 -154.5t-46 -165.5t-18.5 -140l42 -9q11 36 36 94.5t58 125t69 127.5t69 103q16 58 21.5 124t5.5 125zM1839 1191q2 -21 3 -43t1 -44q0 -35 -3 -72.5t-8 -74.5q-119 -104 -197 -175.5t-130 -129.5t-93 -119l39 -28
q97 105 215 204.5t274 199.5q11 66 11 150v33t-2 34zM1275 309v-411h50v411h-50zM1518 111q-46 0 -84.5 -10.5t-83.5 -10.5q-13 0 -23.5 1.5t-25.5 4.5l-14 -198h75q46 0 73 16t49 36.5t52 36.5t83 16q36 0 50 6t14 20q0 26 -47 54t-118 28z" />
</svg>