<?xml version="1.0" standalone="no"?>
<!DOCTYPE svg PUBLIC "-//W3C//DTD SVG 1.1//EN" "http://www.w3.org/Graphics/SVG/1.1/DTD/svg11.dtd">
<svg xmlns="http://www.w3.org/2000/svg" xmlns:xlink="http://www.w3.org/1999/xlink" version="1.1"
   viewBox="94 -151 2414 2169">
   <path fill="currentColor"
      d="M915 1978q-116 0 -217.5 -43.5t-178.5 -120t-120.5 -178t-43.5 -218.5q0 -116 43.5 -217t120.5 -178t178.5 -120t217.5 -43t217 43.5t177.5 120t120 177.5t43.5 217q0 115 -43.5 216.5t-120 178.5t-177.5 121t-217 44zM645 1646q33 0 56 -23t23 -56t-23 -56t-56 -23
t-56 23t-23 56t23 56t56 23zM698 1332q38 0 65 -27t27 -66q0 -38 -27 -65t-65 -27q-39 0 -66 27t-27 65q0 39 27 66t66 27zM940 1490q37 0 62 -25t25 -62t-25 -62t-62 -25t-62 25t-25 62t25 62t62 25zM730 653v-80h261v80h-261zM651 1041l-75 -29q48 -124 74.5 -208.5
t37 -147t10.5 -119.5q0 -45 -6.5 -90.5t-15.5 -90.5q-9 -44 -15.5 -87.5t-6.5 -84.5q0 -79 26.5 -139t75 -94t112.5 -34q98 0 151 69.5t53 194.5q0 59 -8 108t-19 93q-9 38 -15 74t-6 73q0 89 24 183t72 225l-75 28q-32 -89 -54.5 -163.5t-34.5 -142t-12 -134.5
q0 -42 7 -81.5t16 -79.5q10 -43 17.5 -88t7.5 -96q0 -92 -31 -137.5t-93 -45.5q-61 0 -97.5 50.5t-36.5 136.5q0 34 6 74.5t14 84.5q9 48 16.5 97.5t7.5 96.5q0 62 -11.5 129.5t-39 157t-76.5 217.5zM735 453v-80h254v80h-254zM1390 1945q-43 0 -88 -4t-87 -12
q-10 -13 -22.5 -31.5t-25.5 -40.5l63 -46q10 17 20 31.5t20 26.5q23 3 56.5 4.5t67.5 1.5q32 0 60 -1.5t45 -4.5q10 -10 37 -58.5t57 -128t51.5 -182t21.5 -219.5t-32 -203t-71 -164q-38 -77 -68.5 -157.5t-30.5 -187.5q0 -72 8 -124.5t18 -95.5q9 -36 14.5 -70t5.5 -73
q0 -95 -31.5 -146.5t-94.5 -51.5q-62 0 -92.5 55.5t-30.5 157.5q0 25 5.5 59t13.5 73q11 50 19 107t8 113q0 63 -7.5 121.5t-30 124t-67.5 151.5l-70 -37q38 -74 58.5 -130t28.5 -109.5t8 -120.5q0 -48 -8 -100t-18 -101q-8 -43 -14 -81t-6 -67q0 -91 23 -157t68.5 -102.5
t111.5 -36.5q101 0 153.5 76.5t52.5 204.5q0 46 -6 82.5t-15 72.5q-10 41 -18 89t-8 118q0 93 28.5 168.5t65.5 150.5q41 82 75 174t34 216q0 125 -24.5 237t-58.5 200t-65 143.5t-44 68.5q-34 7 -76 11.5t-88 4.5zM1255 718v-80h270v80h-270zM1265 518v-80h240v80h-240z
M1890 1871q-43 0 -87.5 -4t-86.5 -12q-21 -26 -49 -74t-42 -90l57 -81q20 66 41.5 111t47.5 74q23 3 56 4.5t67 1.5q32 0 60.5 -1.5t45.5 -4.5q10 -10 36.5 -56.5t56 -122.5t51 -176.5t21.5 -217.5q0 -119 -30.5 -204t-67.5 -161q-34 -71 -61 -144.5t-27 -167.5
q0 -68 8 -122.5t18 -102.5q9 -41 15 -79t6 -80q0 -92 -31 -137.5t-93 -45.5q-58 0 -90.5 49t-32.5 138q0 39 6 81.5t14 87.5q9 49 16.5 101.5t7.5 105.5q0 57 -6.5 103.5t-22.5 98t-44 119.5t-71 168l-61 -54q37 -82 61.5 -139.5t38.5 -102.5t19.5 -90t5.5 -103
q0 -50 -7 -98t-16 -96q-8 -46 -14.5 -91t-6.5 -91q0 -81 24.5 -141t70 -93t108.5 -33q98 0 151 69t53 194q0 49 -6.5 91t-15.5 84q-10 46 -17.5 96.5t-7.5 113.5q0 79 23.5 140.5t54.5 123.5q38 77 73 171.5t35 240.5q0 125 -24 234.5t-58 194.5t-64.5 138t-43.5 66
q-34 7 -76 11.5t-89 4.5zM1774 657v-80h262v80h-262zM1781 457v-80h240v80h-240z" />
</svg>