<?xml version="1.0" standalone="no"?>
<!DOCTYPE svg PUBLIC "-//W3C//DTD SVG 1.1//EN" "http://www.w3.org/Graphics/SVG/1.1/DTD/svg11.dtd">
<svg xmlns="http://www.w3.org/2000/svg" xmlns:xlink="http://www.w3.org/1999/xlink" version="1.1"
   viewBox="94 -151 2414 2169">
   <path fill="currentColor"
      d="M1297 1978q-230 0 -400 -76t-262.5 -213.5t-92.5 -323.5q0 -142 51.5 -258t166.5 -255l61 -74q43 -51 68 -109.5t43 -116t39 -105.5q59 -133 138 -191t192 -58q94 0 154.5 32t98.5 85t64 117.5t49.5 132t56.5 126.5q30 54 85 113t112 132.5t97 170.5t40 227
q0 196 -92 340.5t-262.5 224t-406.5 79.5zM1210 1707q-169 -23 -279.5 -115.5t-124.5 -232.5q-4 -43 41 -43q33 0 39 39q19 114 104.5 183.5t228.5 89.5q42 6 42 44q0 19 -14 28.5t-37 6.5zM1297 1900q210 0 363 -69t235.5 -196t82.5 -301q0 -118 -35.5 -203.5t-89 -151.5
t-107.5 -125t-92 -124q-42 -74 -68 -152.5t-56 -147t-82 -110.5t-147 -42q-60 0 -105.5 20t-82 64t-69.5 118q-23 51 -41 109.5t-44.5 119.5t-75.5 120l-61 74q-75 91 -119 165.5t-62.5 145t-18.5 151.5q0 163 82 283t233.5 186t359.5 66zM1517 1303q-18 0 -31 -13t-13 -31
t13 -31t31 -13t31 13t13 31t-13 31t-31 13zM1784 1449q-18 0 -31 -13t-13 -31t13 -31t31 -13t31 13t13 31t-13 31t-31 13zM1687 1136q-18 0 -31 -13t-13 -31t13 -31t31 -13t31 13t13 31t-13 31t-31 13zM1506 923q-18 0 -31 -13t-13 -31t13 -31t31 -13t31 13t13 31t-13 31
t-31 13zM1304 402q-13 0 -24.5 -8t-16.5 -25q-11 -37 -27 -101t-32 -132t-27 -119t-11 -62q0 -23 42 -40t97 -17q23 0 42 5.5t19 13.5l-15 440q-1 18 -14.5 31.5t-32.5 13.5z" />
</svg>