<?xml version="1.0" standalone="no"?>
<!DOCTYPE svg PUBLIC "-//W3C//DTD SVG 1.1//EN" "http://www.w3.org/Graphics/SVG/1.1/DTD/svg11.dtd">
<svg xmlns="http://www.w3.org/2000/svg" xmlns:xlink="http://www.w3.org/1999/xlink" version="1.1"
   viewBox="94 -151 2414 2169">
   <path fill="currentColor"
      d="M221 1978v-1324l-93 -162q-11 -20 -6 -33.5t25 -13.5h399v80h-307l62 106v1267h694v-385h-544v-270h1698v270h-544v385h694v-1267l62 -106h-307v-80h399q20 0 25 13.5t-6 33.5l-93 162v1324h-2158zM415 1938v-144h112v144h-112zM471 1808q-29 0 -48 -24t-19 -62
q0 -29 10.5 -60.5t26 -53.5t30.5 -22t30.5 22t26.5 53.5t11 60.5q0 38 -19.5 62t-48.5 24zM700 1938v-465h80v465h-80zM376 1165v-140h60v140h-60zM1075 1898h185v-385h-185v385zM376 925v-140h60v140h-60zM656 1153v-140h60v140h-60zM1340 1898h185v-385h-185v385zM255 680
v-80h291v80h-291zM656 913v-140h60v140h-60zM531 1433h1538v-110h-1538v110zM656 673v-140h60v140h-60zM1820 1938v-465h80v465h-80zM2073 1938v-144h112v144h-112zM2129 1808q-29 0 -48.5 -24t-19.5 -62q0 -29 11 -60.5t27 -53.5t30 -22q15 0 30.5 22t26 53.5t10.5 60.5
q0 38 -19 62t-48 24zM992 1093v-805h164v321h288v-321h164v805h-164v-352h-288v352h-164zM506 1283v-1043l288 -2q41 -161 177 -250.5t329 -89.5q194 0 330 89.5t176 250.5l288 2v1043h-80v-963l-200 -2v965h-80v-955q0 -108 -56.5 -186.5t-154.5 -121t-223 -42.5
q-124 0 -222.5 42.5t-155 121t-56.5 186.5v955h-80v-965l-200 2v963h-80zM1884 1153v-140h60v140h-60zM1884 913v-140h60v140h-60zM2164 1165v-140h60v140h-60zM1884 673v-140h60v140h-60zM2164 925v-140h60v140h-60zM2054 680v-80h291v80h-291z" />
</svg>