<?xml version="1.0" standalone="no"?>
<!DOCTYPE svg PUBLIC "-//W3C//DTD SVG 1.1//EN" "http://www.w3.org/Graphics/SVG/1.1/DTD/svg11.dtd">
<svg xmlns="http://www.w3.org/2000/svg" xmlns:xlink="http://www.w3.org/1999/xlink" version="1.1"
   viewBox="94 -151 2414 2169">
   <path fill="currentColor"
      d="M1426 1480q-117 0 -231.5 -51t-215.5 -140.5t-179 -205.5t-122 -248t-44 -267q0 -191 82 -342.5t225.5 -239.5t325.5 -88q187 0 330.5 94.5t225 259t81.5 375.5q0 182 -36 337.5t-100.5 271t-152 180t-189.5 64.5zM1524 1978q-43 0 -70.5 -31.5t-27.5 -75.5q0 -45 17 -83
t17 -69q0 -16 -2.5 -33t-13.5 -49l75 -19q14 39 17.5 59.5t3.5 41.5q0 35 -17 71.5t-17 60.5q0 21 9.5 34t28.5 13t39.5 -12.5t53.5 -37.5q31 -24 71 -40t80 -16q71 0 115.5 40t62.5 113l-80 26q-12 -53 -39 -76t-74 -23q-24 0 -47.5 10t-56.5 33q-49 34 -76.5 48.5
t-68.5 14.5zM1395 1688q-48 9 -69 -12t-21 -51q0 -29 13.5 -61t28.5 -68t17 -76l71 37q-10 42 -27.5 78.5t-17.5 56.5q0 23 44 14l101 -20q13 -2 22.5 -7t9.5 -18q0 -16 -23 -42.5t-65 -66.5l50 -52q77 82 101.5 115.5t24.5 59.5q0 34 -23 53.5t-75 29.5zM1426 1400
q83 0 155.5 -59t127 -164.5t85 -246t30.5 -303.5q0 -189 -70.5 -335.5t-196 -230t-290.5 -83.5q-160 0 -285 77.5t-196.5 210.5t-71.5 302q0 122 40 242t110.5 226t161.5 188t193.5 129t206.5 47zM1632 602q-41 0 -47 -43q-17 -123 -86 -208q-24 -30 -1 -59q14 -17 35 -16.5
t36 19.5q42 53 70.5 120t35.5 137q2 22 -10.5 36t-32.5 14zM1352 240q-26 -11 -50 -14q-39 -5 -39 -43q0 -22 15.5 -35t37.5 -10q20 3 37 8t35 13q20 9 25 27t-4 36q-10 19 -25 22t-32 -4z" />
</svg>