<?xml version="1.0" standalone="no"?>
<!DOCTYPE svg PUBLIC "-//W3C//DTD SVG 1.1//EN" "http://www.w3.org/Graphics/SVG/1.1/DTD/svg11.dtd">
<svg xmlns="http://www.w3.org/2000/svg" xmlns:xlink="http://www.w3.org/1999/xlink" version="1.1"
   viewBox="94 -151 2414 2169">
   <path fill="currentColor"
      d="M1300 1978q-243 0 -430.5 -54.5t-282.5 -152.5q-39 -40 -63.5 -93t-38.5 -134t-19.5 -203t-5.5 -299q0 -149 108 -258.5t298 -169.5t434 -60q245 0 434.5 60t297.5 169.5t108 258.5q0 177 -5.5 299t-19.5 203t-38.5 134t-63.5 93q-95 98 -282.5 152.5t-430.5 54.5z
M781 1101q11 0 19 -12.5t8 -28.5q0 -26 -20 -26q-11 0 -19 12t-8 29q0 26 20 26zM845 1172q-69 0 -102 -26.5t-33 -85.5q0 -46 20 -93t51 -79t64 -32t64 32t51 79t20 93q0 59 -33 85.5t-102 26.5zM910 1101q20 0 20 -26q0 -17 -8 -29t-19 -12q-20 0 -20 26q0 16 8 28.5
t19 12.5zM845 1005q23 0 23 -34t-23 -34t-23 34t23 34zM1235 1231q11 0 19 -12.5t8 -28.5q0 -26 -20 -26q-11 0 -19 12t-8 29q0 26 20 26zM1300 1678q50 0 82.5 -31.5t61.5 -104.5q25 -62 48.5 -85.5t57.5 -23.5q28 0 47 15t39 54q26 50 55.5 74t73.5 24q66 0 107.5 -45.5
t78.5 -147.5q27 -74 49.5 -98.5t56.5 -24.5q1 -30 1.5 -75t1 -90.5t0.5 -76.5q0 -125 -99 -221.5t-270.5 -151.5t-390.5 -55q-218 0 -390 55t-271 151.5t-99 221.5q0 31 0.5 76.5t1 90.5t1.5 75q35 0 57 24.5t49 98.5q38 102 79 147.5t107 45.5q44 0 73.5 -24t55.5 -74
q20 -39 39 -54t47 -15q35 0 58 23.5t48 85.5q29 73 61.5 104.5t82.5 31.5zM1300 1302q-69 0 -102 -26.5t-33 -85.5q0 -46 20 -93t51 -79t64 -32t64 32t51 79t20 93q0 59 -33 85.5t-102 26.5zM1365 1231q20 0 20 -26q0 -17 -8 -29t-19 -12q-20 0 -20 26q0 16 8 28.5t19 12.5z
M1300 1135q23 0 23 -34t-23 -34t-23 34t23 34zM990 809q-31 0 -48 -11t-17 -29v-430q0 -18 17 -29t48 -11q32 0 48.5 11t16.5 29v430q0 18 -16.5 29t-48.5 11zM1690 1101q11 0 19 -12.5t8 -28.5q0 -26 -20 -26q-11 0 -19 12t-8 29q0 26 20 26zM1300 909q-31 0 -48 -11
t-17 -29v-430q0 -18 17 -29t48 -11q32 0 48.5 11t16.5 29v430q0 18 -16.5 29t-48.5 11zM1755 1172q-69 0 -102 -26.5t-33 -85.5q0 -46 20 -93t51 -79t64 -32t64 32t51 79t20 93q0 59 -33 85.5t-102 26.5zM1819 1101q20 0 20 -26q0 -17 -8 -29t-19 -12q-20 0 -20 26
q0 16 8 28.5t19 12.5zM1755 1005q23 0 23 -34t-23 -34t-23 34t23 34zM990 229q-31 0 -53 -22t-22 -56q0 -18 6.5 -41t16.5 -49l52 -143l52 143q10 26 16.5 49t6.5 41q0 34 -21.5 56t-53.5 22zM1610 809q-31 0 -48 -11t-17 -29v-430q0 -18 17 -29t48 -11q32 0 48.5 11
t16.5 29v430q0 18 -16.5 29t-48.5 11zM1300 329q-31 0 -53 -22t-22 -56q0 -18 6.5 -41.5t16.5 -49.5l52 -142l52 142q10 26 16.5 49.5t6.5 41.5q0 34 -21.5 56t-53.5 22zM1610 229q-31 0 -53 -22t-22 -56q0 -18 6.5 -41t16.5 -49l52 -143l52 143q10 26 16.5 49t6.5 41
q0 34 -21.5 56t-53.5 22z" />
</svg>