<?xml version="1.0" standalone="no"?>
<!DOCTYPE svg PUBLIC "-//W3C//DTD SVG 1.1//EN" "http://www.w3.org/Graphics/SVG/1.1/DTD/svg11.dtd">
<svg xmlns="http://www.w3.org/2000/svg" xmlns:xlink="http://www.w3.org/1999/xlink" version="1.1"
   viewBox="94 -151 2414 2169">
   <path fill="currentColor"
      d="M859 1978q-121 0 -190 -66t-69 -181v-1586q0 -116 69 -181.5t190 -65.5h882q121 0 190 65.5t69 181.5v1586q0 115 -69 181t-190 66h-882zM831 1678v-80h318v80h-318zM831 1398v-80h318v80h-318zM831 1118v-80h318v80h-318zM1451 1678v-80h318v80h-318zM831 838v-80h318
v80h-318zM1451 1398v-80h318v80h-318zM859 1898h882q88 0 133.5 -42.5t45.5 -124.5v-1586q0 -82 -45.5 -124.5t-133.5 -42.5h-882q-88 0 -133.5 42.5t-45.5 124.5v1586q0 82 45.5 124.5t133.5 42.5zM1300 1782q-17 0 -28.5 -12t-11.5 -29v-1606q0 -17 11.5 -29t28.5 -12
t28.5 12t11.5 29v1606q0 17 -11.5 29t-28.5 12zM831 558v-80h318v80h-318zM1451 1118v-80h318v80h-318zM831 278v-80h318v80h-318zM1114 614q-25 0 -43.5 -18t-18.5 -43v-68q0 -26 18.5 -44t43.5 -18h372q26 0 44 18t18 44v68q0 25 -18 43t-44 18h-372zM1451 838v-80h318v80
h-318zM1451 558v-80h318v80h-318zM1451 278v-80h318v80h-318z" />
</svg>