<?xml version="1.0" standalone="no"?>
<!DOCTYPE svg PUBLIC "-//W3C//DTD SVG 1.1//EN" "http://www.w3.org/Graphics/SVG/1.1/DTD/svg11.dtd">
<svg xmlns="http://www.w3.org/2000/svg" xmlns:xlink="http://www.w3.org/1999/xlink" version="1.1"
   viewBox="94 -151 2414 2169">
   <path fill="currentColor"
      d="M948 1447l-112 -237l-547 -546q-19 -20 -19 -44t19 -43l651 -660q19 -19 43 -19t43 19l549 548l116 -18l105 114l52 270l-298 138l-35 263l-420 86zM605 714l163 -163l-52 -53l-106 106l-47 -48l-59 58zM840 948l163 -163l-52 -53l-106 106l-47 -48l-59 58zM1628 1978
q-20 0 -46 -26l-603 -604l63 -50l571 572q15 15 29 0l587 -599q13 -15 0 -28l-436 -439l26 -87l482 483q27 27 29 54t-24 53l-632 645q-26 26 -46 26zM979 1320l90 -78l375 -77l33 -251l281 -130l-38 -193l-55 -60l-65 11l-77 98l-135 58l-45 98l-167 78l-108 251l-108 31
l-27 68zM1161 626l163 -163l-52 -53l-106 106l-47 -48l-59 58zM927 392l163 -163l-52 -53l-106 106l-48 -48l-58 58z" />
</svg>