<?xml version="1.0" standalone="no"?>
<!DOCTYPE svg PUBLIC "-//W3C//DTD SVG 1.1//EN" "http://www.w3.org/Graphics/SVG/1.1/DTD/svg11.dtd">
<svg xmlns="http://www.w3.org/2000/svg" xmlns:xlink="http://www.w3.org/1999/xlink" version="1.1"
   viewBox="94 -151 2414 2169">
   <path fill="currentColor"
      d="M409 1978l-47 -933l78 -4l45 860q227 -9 443 -35t452 -74.5t522 -125.5q122 -2 189 -40t67 -102q0 -32 -15 -64.5t-47 -69.5l-24 -725q35 -25 52.5 -54t17.5 -64q0 -54 -38 -91.5t-91 -37.5q-19 0 -38.5 4t-41.5 12q-7 -65 -52.5 -106.5t-104.5 -41.5q-14 0 -29 1.5
t-29 4.5q-19 -47 -57 -74t-83 -27q-14 0 -24 2l-17 -78q19 -4 41 -4q55 0 102.5 27.5t75.5 73.5q8 -1 15.5 -1.5t14.5 -0.5q64 0 117 37t76 95q18 -3 34 -3q86 0 147 61t61 147q0 91 -68 154l22 659q33 43 48 84.5t15 79.5q0 95 -86 157.5t-229 62.5q-448 121 -813.5 177.5
t-700.5 56.5zM604 1721q0 -90 61 -143.5t137 -53.5q67 0 129 40.5t93 113.5zM412 1750l-4 -80q398 -17 773 -78.5t727 -169.5l29 74q-366 113 -749 173.5t-776 80.5zM1200 1520q-64 0 -121.5 -30t-79.5 -83l416 -82q0 97 -67 146t-148 49zM1891 1719l-23 -649
q-1 -28 -9.5 -39t-31.5 -11q-18 0 -39 6q-165 43 -384.5 91.5t-471 90t-512.5 65.5l-20 -74q258 -22 508.5 -64t477.5 -92.5t413 -96.5q21 -5 39 -9t33 -4q41 0 58 29.5t19 97.5l22 628zM404 1490l-4 -75q265 -24 535 -65.5t521 -96.5t458 -119l29 70q-227 71 -482 127.5
t-522.5 96.5t-534.5 62zM1490 1570q0 -73 37 -121t91.5 -72.5t107.5 -24.5q60 0 104.5 27t44.5 74zM395 1080l-33 -35q165 -230 334.5 -437.5t348.5 -394.5l58 55q-161 167 -316 352.5t-290 370.5q164 -18 343 -44.5t368 -64t380.5 -87t378.5 -112.5q-110 -62 -226.5 -122.5
t-223.5 -110.5l34 -71q148 69 308.5 155t293.5 167q-295 111 -605.5 187t-606 122.5t-546.5 69.5zM1137 447q17 0 28 -19t11 -45q0 -39 -29 -39q-16 0 -28 19t-12 45q0 39 30 39zM1295 350q33 0 33 -53t-33 -53t-33 53t33 53zM1173 195q20 0 33 -24t13 -43q0 -17 -8.5 -25.5
t-19.5 -8.5q-19 0 -33 22t-14 45q0 17 9.5 25.5t19.5 8.5zM1295 605q-160 0 -236.5 -61t-76.5 -199q0 -78 27 -157t72 -144.5t100.5 -105.5t113.5 -40t113.5 40t100.5 105.5t72 144.5t27 157q0 138 -76.5 199t-236.5 61zM1451 447q30 0 30 -39q0 -26 -11.5 -45t-28.5 -19
q-29 0 -29 39q0 26 11.5 45t27.5 19zM1410 195q11 0 20 -8.5t9 -25.5q0 -23 -14 -45t-33 -22q-10 0 -19 8.5t-9 25.5q0 19 13 43t33 24z" />
</svg>