<?xml version="1.0" standalone="no"?>
<!DOCTYPE svg PUBLIC "-//W3C//DTD SVG 1.1//EN" "http://www.w3.org/Graphics/SVG/1.1/DTD/svg11.dtd">
<svg xmlns="http://www.w3.org/2000/svg" xmlns:xlink="http://www.w3.org/1999/xlink" version="1.1"
   viewBox="94 -151 2414 2169">
   <path fill="currentColor"
      d="M1235 1970q-29 0 -68.5 -25t-104.5 -83q-25 -23 -48 -42t-36 -26q-88 -51 -88 -131q0 -32 11 -63q3 -29 4 -58.5t1 -58.5v-34t-1 -34q-157 -170 -212 -528l37 22q-59 19 -113.5 31.5t-107.5 20.5q-44 17 -81.5 25t-67.5 8q-67 0 -111.5 -38t-44.5 -104q0 -53 41 -99
t106 -88q14 -9 67 -71.5t120 -155.5l53 35q-75 104 -130 170t-76 79q-46 28 -78.5 60.5t-32.5 69.5q0 33 25.5 55t60.5 22q25 0 58 -7.5t78 -24.5q53 -8 110 -21t126 -35l30 13q28 196 80 325t132 211q2 22 2.5 43.5t0.5 44.5q0 34 -1.5 67.5t-5.5 68.5q-10 23 -10 49
q0 46 58 80q17 10 40.5 29t45.5 40q56 52 87 72.5t44 20.5q16 0 31 -5t25 -11q-7 -13 -16 -36.5t-11 -43.5q-7 1 -19 5.5t-24 13.5l-158 -179q53 -70 93 -168.5t71 -228.5l58 14q-28 118 -61.5 213.5t-79.5 165.5l96 108q23 -7 38 -7q46 0 46 42q0 38 18.5 61.5t18.5 49.5
q0 29 -42 50t-84 21zM1002 1797q-30 -3 -61 -24.5t-72 -60.5q-13 -3 -44 -14.5t-44 -20.5q-16 -11 -30.5 -36.5t-34.5 -45.5l-56 -55q-37 -37 -50 -59t-13 -50q0 -71 70 -91q65 -19 110.5 -35t83.5 -31l94 154q-49 13 -101.5 24.5t-110.5 21.5q32 37 64.5 66.5t67.5 50.5
l56 15l17 109zM1319 1918q-14 0 -27.5 -20.5t-21.5 -48.5t-8 -49t9 -27q28 -20 52 -33.5t37 -13.5q15 0 37 19t43 46.5t35.5 54.5t14.5 44q0 10 -6.5 18t-18.5 8zM376 833q-10 0 -10 -10q0 -5 2.5 -10.5t2.5 -10.5q0 -8 -7.5 -10t-7.5 -4q0 -10 18 -10q27 0 27 27
q0 28 -25 28zM470 927q0 -81 -26.5 -123.5t-97.5 -73.5l20 -45q85 37 119.5 91.5t34.5 150.5h-50zM497 875l-14 -48q133 -39 225 -121l33 38q-101 89 -244 131zM496 939v-50q92 -4 176.5 -34.5t158 -81t132.5 -115.5l36 35q-64 69 -143.5 123.5t-170 86.5t-189.5 36z
M731 883l-50 -5l33 -283l50 5zM634 682q-20 0 -31.5 -14t-11.5 -33q0 -20 11.5 -34t31.5 -14t32 14t12 34q0 19 -12 33t-32 14zM1624 1725q-26 3 -26 -52q0 -44 19.5 -71t41.5 -27h156l-37 92q-8 20 -44 34t-110 24zM503 574q-50 0 -89 -34t-50 -83q24 9 54 9q36 0 59.5 -17
t43 -39.5t42.5 -39.5t59 -17q31 0 70 16q-60 205 -189 205zM736 632q-78 -107 -200 -147l15 -47q109 35 190 122l96 -86l33 37zM1645 1978q-1 -8 -2.5 -17.5t-1.5 -19.5q0 -55 16.5 -113.5t41.5 -76.5l143 -104q49 -36 73.5 -63t24.5 -52l165 -80q20 29 20 61q0 19 -11.5 38
t-31.5 35q-66 52 -140.5 108t-155.5 113v82q0 15 -24.5 35t-57.5 35.5t-59 18.5zM737 439q-13 0 -13 -20q0 -11 7 -24t21 -18q8 12 8 27q0 14 -6.5 24.5t-16.5 10.5zM827 474l-42 -24q5 -25 5 -47q0 -35 -6.5 -54.5t-17.5 -19.5q-17 0 -41 25t-31 73l-54 11q9 -71 50 -117
t85 -46q34 0 50 34.5t16 92.5q0 21 -3.5 39t-10.5 33zM1791 1406q-76 -24 -128 -91.5t-83 -167.5l61 -4q27 82 69 135t101 77zM1220 850q-74 0 -131.5 -36.5t-103 -92t-81 -113.5t-64.5 -102t-55 -56l24 -92q11 -4 26 -4q20 0 38.5 5t34.5 13l-55 29q47 0 80 12.5t76 12.5
q16 0 29 -3q-3 25 -27.5 37.5t-68.5 12.5q23 10 40.5 14.5t35.5 4.5q43 0 77 -28q-1 23 -10 42t-25 36q17 -12 34 -18.5t35 -6.5q16 0 31 3t29 3q16 0 29 -6q-6 66 -45 83q17 4 35 8t43 7q-13 10 -28 18t-33 16q23 4 46.5 7t45.5 3q68 0 129 -23q1 4 1 9.5v10.5
q0 79 -56 136.5t-136 57.5zM1773 1620q-62 0 -108 -17.5t-46 -55.5q0 -26 24 -44t70 -41l86 -44q-44 -22 -81 -22q-26 0 -51 7.5t-54 19.5q-35 14 -85.5 31t-129 29t-198.5 12v-65q167 0 253 -23t137 -45q30 -14 60 -22.5t64 -8.5q44 0 90.5 18.5t106.5 62.5
q-55 43 -102.5 69.5t-79.5 42.5q-19 10 -26.5 14t-12.5 9q11 4 33 8.5t50 4.5q15 0 29 -1.5t22 -3.5q11 -18 38 -32.5t76 -32.5q80 -29 110.5 -51.5t30.5 -45.5q0 -17 -11 -35.5t-39 -49.5q64 -47 95.5 -104t31.5 -127q0 -77 -38.5 -140.5t-102.5 -101.5t-141 -38h-37.5
t-32.5 2l-37 -61q23 -4 48.5 -5t58.5 -1q96 0 176 47.5t128 126t48 171.5q0 68 -27.5 131.5t-76.5 110.5q27 33 27 74q0 38 -27.5 65.5t-71.5 48.5t-94 40q-37 14 -58.5 24t-24.5 17q-8 18 -37 25t-63 7zM1250 1295q-28 0 -39.5 -14.5t-11.5 -40.5q0 -29 38 -50.5t139 -54.5
l-23 34q-15 -22 -31.5 -66.5t-31.5 -99.5t-24 -109.5t-9 -95.5q0 -48 59 -121.5t168 -142.5q-22 -23 -44.5 -38.5t-48.5 -22.5q-50 -14 -83 -27l-13 126q-4 37 -53.5 66.5t-189.5 79.5q-35 43 -85 43q-43 0 -72.5 -29.5t-29.5 -72.5q0 -42 29.5 -72t72.5 -30q47 0 90 -5
t110 -16v-232q0 -50 35.5 -86t86.5 -36q82 0 171.5 30t167.5 79.5t126.5 108t48.5 115.5q0 60 -36 96t-89.5 58t-107 41.5t-89.5 46.5t-36 73q0 96 14 169.5t27.5 124t13.5 78.5q0 37 -19.5 51t-78.5 22l-121 17q-18 3 -31 3zM1531 1199h-30.5t-28.5 -1l-13 -66q16 1 34 1.5
t38 0.5q153 0 218 -27.5t65 -85.5q0 -42 -12 -98t-29 -98t-32 -42q-17 0 -41 15.5t-62 31t-96 15.5q-39 0 -72.5 -8t-53.5 -15l17 -69q21 8 49 15t60 7q57 0 89.5 -15.5t57.5 -31t57 -15.5q33 0 59 33.5t43.5 83.5t26.5 102t9 89q0 93 -86 135.5t-267 42.5zM1111 317
q-68 0 -119 -44.5t-61 -110.5l363 -10q-7 70 -59 117.5t-124 47.5zM875 217q-43 0 -76.5 -27t-33.5 -57q0 -29 27.5 -56t88.5 -46q49 -59 113 -96t128 -37q95 0 151 61.5t56 152.5q0 34 -23 53.5t-64 19.5l-239 2q-59 30 -128 30zM879 162q29 0 58.5 -9t58.5 -20h220
q25 0 41.5 -7.5t16.5 -18.5q0 -65 -43 -109.5t-115 -44.5q-52 0 -106 35.5t-98 92.5q-49 14 -69 27.5t-20 22.5q0 10 17 20.5t39 10.5zM2195 1049l-19 -38q38 -8 62 -31.5t24 -66.5q0 -42 -31.5 -77.5t-123.5 -98.5q-109 -74 -155 -138t-46 -143q0 -38 12.5 -68t28.5 -30
q9 0 11 15.5t13.5 43.5t45 64t103.5 77l64 37q46 27 95 62t83 84t34 117q0 44 -24 87.5t-69 72.5t-108 31z" />
</svg>