<?xml version="1.0" standalone="no"?>
<!DOCTYPE svg PUBLIC "-//W3C//DTD SVG 1.1//EN" "http://www.w3.org/Graphics/SVG/1.1/DTD/svg11.dtd">
<svg xmlns="http://www.w3.org/2000/svg" xmlns:xlink="http://www.w3.org/1999/xlink" version="1.1"
   viewBox="94 -151 2414 2169">
   <path fill="currentColor"
      d="M1418 1901q-129 0 -221.5 -47t-154.5 -113q-53 -57 -90 -131t-61.5 -137.5t-42.5 -87.5q-27 -37 -68.5 -62.5t-109.5 -80.5q-65 -53 -106 -121t-41 -180q0 -88 28 -189.5t96 -202.5t188 -186q121 -86 234 -123t210 -37q81 0 148 24.5t119 67.5q48 39 70.5 68t35 54.5
t26.5 53t44 63.5q35 42 89 67.5t122.5 60t144.5 104.5q60 55 111 144t51 211q0 186 -98 356h-96q53 -79 83.5 -170.5t30.5 -185.5q0 -114 -55 -195.5t-148 -125.5t-206 -44q-108 0 -222 38.5t-220 124.5q-82 67 -147.5 157.5t-103.5 191t-38 197.5q0 102 55.5 183.5
t147 129.5t197.5 48q87 0 170.5 -22t159.5 -60v83q-76 35 -159.5 54.5t-172.5 19.5zM1897 1978q-43 0 -82 -13.5t-61 -39.5q-16 -20 -22.5 -45.5t-12.5 -78.5l-12 -112l-210 -268q-13 -17 -18.5 -31t-5.5 -36q0 -45 32 -93t81 -81.5t101 -33.5q21 0 40 7.5t38 27.5l249 250
l110 25q45 10 69.5 21.5t43.5 31.5q20 22 26 50t6 59q0 46 -15 89t-44 69q-23 20 -52 26.5t-84 6.5q-3 55 -13 81.5t-31 45.5q-23 21 -59 31.5t-74 10.5zM1897 1898q61 0 79.5 -19.5t25.5 -74.5l9 -70h74q60 0 82 -23t22 -93q0 -49 -17 -62t-64 -23l-132 -28l-260 -274
q-10 -11 -29 -11q-28 0 -60.5 21.5t-55.5 51t-23 53.5q0 8 12 25l227 290l12 131q6 63 21.5 84.5t76.5 21.5zM1456 1717q-78 0 -148 -29.5t-113.5 -75.5t-43.5 -93q0 -51 59 -74.5t190 -23.5q28 0 40.5 -6.5t12.5 -20.5q0 -17 -33 -28.5t-77 -11.5q-82 0 -120.5 -16
t-38.5 -56q0 -39 32.5 -90.5t84 -104t111.5 -97.5t116 -72.5t96 -27.5q45 0 59 46t14 159q0 15 11.5 25t24.5 10q12 0 22 -11t10 -37q0 -117 25 -162t79 -45q55 0 101 35.5t74 92t28 119.5q0 79 -58 112t-201 33l-88 -77h-68l-79 46l-52 95l70 174q0 80 -12 126.5t-42 66
t-86 19.5zM679 533l-119 -126l-85 -14q-144 -25 -144 -158q0 -95 45 -138t140 -43q15 -85 53 -120.5t120 -35.5q167 0 167 174v80l114 155l-64 47l-130 -176v-106q0 -62 -19.5 -78.5t-72.5 -16.5q-46 0 -63.5 13t-25.5 69l-11 74h-75q-61 0 -79.5 18.5t-18.5 73.5
q0 43 14.5 62.5t60.5 26.5l111 17l139 147z" />
</svg>