<?xml version="1.0" standalone="no"?>
<!DOCTYPE svg PUBLIC "-//W3C//DTD SVG 1.1//EN" "http://www.w3.org/Graphics/SVG/1.1/DTD/svg11.dtd">
<svg xmlns="http://www.w3.org/2000/svg" xmlns:xlink="http://www.w3.org/1999/xlink" version="1.1"
   viewBox="94 -151 2414 2169">
   <path fill="currentColor"
      d="M1300 1978q-232 0 -435 -71.5t-357 -196.5t-241 -288.5t-87 -347.5q0 -156 61.5 -297.5t167.5 -251.5t240.5 -173.5t280.5 -63.5q59 0 118.5 9.5t115.5 38.5l-20 78q-46 -26 -95.5 -37t-118.5 -11q-130 0 -250.5 58t-215 158t-149.5 227t-55 265q0 168 81.5 317.5
t225 264t331.5 179.5t402 65t402 -65t331.5 -179.5t225 -264t81.5 -317.5q0 -138 -55 -265t-149.5 -227t-214.5 -158t-251 -58q-69 0 -118.5 11t-95.5 37l-20 -78q56 -29 116 -38.5t118 -9.5q146 0 280.5 63.5t240.5 173.5t167.5 251.5t61.5 297.5q0 184 -87 347.5
t-241 288.5t-357 196.5t-435 71.5zM669 1395q-18 0 -34.5 -16.5t-34.5 -44.5q-33 -53 -58.5 -134t-25.5 -160q0 -53 9 -98.5t21 -74.5q22 -52 47 -52q14 0 24.5 10t10.5 24q0 22 -16 71.5t-16 120.5q0 73 25.5 146.5t73.5 142.5q8 13 8 29t-10 26t-24 10zM1548 863
q-9 0 -20 -1t-23 -3q-80 -15 -129.5 -43.5t-80.5 -62t-54.5 -63.5t-50 -49.5t-69.5 -19.5q-28 0 -63 4.5t-80 4.5t-104.5 -11.5t-103.5 -36t-44 -62.5q0 -14 29 -14q60 0 96 -6t60.5 -17.5t50 -26.5t65.5 -33q-50 -16 -94 -62t-71 -110t-27 -134q0 -13 13 -13q9 0 24.5 10.5
t32.5 25.5l41 37q24 22 63 23.5t85 35.5q48 35 81 72.5t86 37.5q39 0 69 -31.5t63.5 -72t80.5 -72t120 -31.5q24 0 52 4.5t28 15.5q0 5 -13.5 13.5t-48.5 47.5l-70 78q-44 49 -66 98q58 0 101 26t84 52t92 26q8 0 19 -1.5t21 -1.5q24 0 24 13q0 23 -26 42.5t-62 30.5t-65 11
q-46 0 -90 -11.5t-74 -11.5q-27 0 -37 17q14 27 26 68.5t15 71.5q2 22 18 47t35 40q23 18 23 33t-32 15zM1193 374q0 -113 14 -214t54 -204l9 -23q13 -35 52 -35q35 0 48 25t3 51l-10 27q-35 94 -48.5 183t-13.5 190h-108z" />
</svg>