<?xml version="1.0" standalone="no"?>
<!DOCTYPE svg PUBLIC "-//W3C//DTD SVG 1.1//EN" "http://www.w3.org/Graphics/SVG/1.1/DTD/svg11.dtd">
<svg xmlns="http://www.w3.org/2000/svg" xmlns:xlink="http://www.w3.org/1999/xlink" version="1.1"
   viewBox="94 -151 2414 2169">
   <path fill="currentColor"
      d="M1018 1978q-138 0 -262 -72t-220 -197.5t-151 -287.5t-55 -343q0 -207 74 -362.5t204 -242t297 -86.5q92 0 189 28.5t206 87.5q109 -59 206 -87.5t189 -28.5q168 0 297.5 86.5t203.5 242t74 362.5q0 181 -55 343t-151 287.5t-220 197.5t-262 72q-76 0 -149.5 -22.5
t-132.5 -62.5q-59 40 -132.5 62.5t-149.5 22.5zM1261 740q0 -150 -8 -252.5t-26 -174t-49 -128.5l70 -35q34 63 53.5 140.5t28.5 186t9 263.5h-78zM1266 362q47 -241 189 -352.5t401 -111.5q-45 241 -186 352.5t-404 111.5z" />
</svg>