<?xml version="1.0" standalone="no"?>
<!DOCTYPE svg PUBLIC "-//W3C//DTD SVG 1.1//EN" "http://www.w3.org/Graphics/SVG/1.1/DTD/svg11.dtd">
<svg xmlns="http://www.w3.org/2000/svg" xmlns:xlink="http://www.w3.org/1999/xlink" version="1.1"
   viewBox="94 -151 2414 2169">
   <path fill="currentColor"
      d="M923 1878q-34 0 -54.5 -21.5t-25.5 -55.5l-60 -387l-372 94q-44 11 -76 -9.5t-39 -58.5t20 -76l224 -315l-337 -195q-39 -23 -47.5 -60.5t11 -70.5t63.5 -40l377 -61l-93 -379q-11 -46 8 -76.5t54 -37t71 20.5l319 235l205 -337q13 -22 32.5 -36t44.5 -14q33 0 55 23.5
t28 58.5l69 400l-69 68l-79 -453q-1 -6 -6 -6.5t-8 4.5l-205 336l-103 29l-326 -240q-6 -5 -9 -1.5t-2 9.5l94 388l-48 84l-396 64q-10 1 -10 9t10 14l348 201l22 99l-229 321q-10 15 -6.5 21t23.5 1l369 -93l91 56l60 396q2 7 6 8t9 -7l222 -358l67 -24l352 259q6 4 8 1.5
t0 -9.5l-62 -255h83l54 225q11 44 -8 77t-53.5 41.5t-73.5 -19.5l-314 -231l-205 331q-15 24 -36 38t-47 14zM683 1265q-56 -68 -88 -153t-32 -179q0 -145 70.5 -264.5t190.5 -191t266 -71.5q86 0 164 26t142 73l-50 62q-55 -39 -120 -60t-136 -21q-123 0 -224.5 60.5
t-162 161.5t-60.5 225q0 65 19 127t53 115zM936 1449q-127 0 -202 -64.5t-75 -176.5q0 -72 40 -131.5t103 -97t130 -43.5q11 -81 55.5 -145t114.5 -101t156 -37q92 0 164 39.5t114 107t42 153.5h-80q0 -96 -68 -159t-172 -63q-77 0 -137 37t-94 98t-34 135
q-62 0 -120.5 28.5t-96 75.5t-37.5 103q0 78 51 120.5t146 42.5h1205q107 0 166.5 -53.5t59.5 -147.5q0 -96 -62.5 -156t-175.5 -70q11 -53 15 -82.5t4 -58.5q0 -116 -56.5 -214.5t-148.5 -158t-201 -59.5q-81 0 -158.5 40t-138 110t-91.5 161l-76 -26q36 -104 106.5 -186
t163.5 -129.5t194 -47.5q100 0 188 41.5t155 113t105 163t38 192.5q0 20 -1.5 40.5t-5.5 41.5q105 26 165.5 102t60.5 183q0 127 -83 203t-223 76h-1205z" />
</svg>