<?xml version="1.0" standalone="no"?>
<!DOCTYPE svg PUBLIC "-//W3C//DTD SVG 1.1//EN" "http://www.w3.org/Graphics/SVG/1.1/DTD/svg11.dtd">
<svg xmlns="http://www.w3.org/2000/svg" xmlns:xlink="http://www.w3.org/1999/xlink" version="1.1"
   viewBox="94 -151 2414 2169">
   <path fill="currentColor"
      d="M821 1978q256 0 482 -75.5t411 -214.5t318.5 -331t205.5 -427t72 -501q0 -201 -60.5 -317t-191.5 -165t-342 -49q-187 0 -372 56t-352.5 161t-304.5 253q-128 138 -216.5 312.5t-134.5 377t-46 423.5q0 183 50.5 292t167 157t313.5 48zM425 1799q33 -134 75.5 -253
t100.5 -235t136 -239l-65 -45q-63 99 -111.5 189t-86 178t-67 180.5t-54.5 197.5zM1065 1927l225 -67q-82 -127 -183.5 -252.5t-218 -237.5t-243.5 -200.5t-260 -142.5l-43 227q133 59 261 168t245 241.5t217 263.5zM821 1898q-175 0 -273.5 -37t-138 -128t-39.5 -252
q0 -211 43.5 -403.5t127 -358.5t204.5 -296q197 -211 451.5 -328t519.5 -117q190 0 302.5 38.5t162 136.5t49.5 276q0 253 -68 475.5t-194.5 405t-301 314t-388.5 203t-457 71.5zM753 1049q-14 -8 -18.5 -22.5t2.5 -27.5q16 -29 32.5 -54t37.5 -54l-60 -50q-28 -23 -6 -51
q10 -12 25 -14t26 8l59 48q20 -26 42 -53t45 -54l-53 -44q-12 -10 -14.5 -24.5t8.5 -26.5t25.5 -13.5t25.5 8.5l56 46q24 -27 49.5 -53.5t51.5 -51.5l-49 -40q-12 -10 -13.5 -25t8.5 -27q23 -27 51 -4l55 44q28 -26 56 -51.5t56 -49.5l-40 -34q-13 -11 -14.5 -26t8.5 -26
t25 -13t26 8l51 45q28 -22 52.5 -39.5t50.5 -35.5q14 -9 29 -7t23 16q8 13 5.5 27.5t-15.5 22.5q-22 14 -43 29.5t-44 33.5l66 57q13 10 14.5 25.5t-8.5 26.5t-24 13.5t-27 -8.5l-78 -67q-28 22 -56 47t-56 52l73 58q29 23 6 51q-10 12 -24 14t-28 -8l-79 -64
q-27 26 -52.5 52.5t-50.5 53.5l71 57q13 10 13.5 25t-8.5 26q-10 12 -25 14t-26 -8l-72 -60q-22 25 -43.5 51.5t-43.5 54.5l63 51q28 23 5 51q-10 13 -25.5 14.5t-26.5 -8.5l-59 -49q-18 25 -33 49t-30 49q-18 30 -48 15zM823 1140q55 0 99.5 -20.5t87 -59t90.5 -91.5
q92 -103 175 -192.5t168 -169.5q95 -90 133.5 -140t38.5 -89q0 -23 -11 -49t-36 -52q-38 -41 -81 -59t-89 -18q-77 0 -147 32.5t-130 80t-110 93.5q-133 123 -218 220.5t-125 173t-40 134.5q0 97 56.5 151.5t138.5 54.5zM2229 763l42 -255q-123 -162 -235.5 -275.5
t-230.5 -181t-258 -90.5l-207 44q135 37 257.5 115t233.5 182.5t210.5 223t187.5 237.5zM1542 306q88 -58 201.5 -98.5t233 -63t224.5 -27.5l-18 -72q-113 1 -240.5 27t-245 70t-200.5 99z" />
</svg>