<?xml version="1.0" standalone="no"?>
<!DOCTYPE svg PUBLIC "-//W3C//DTD SVG 1.1//EN" "http://www.w3.org/Graphics/SVG/1.1/DTD/svg11.dtd">
<svg xmlns="http://www.w3.org/2000/svg" xmlns:xlink="http://www.w3.org/1999/xlink" version="1.1"
   viewBox="94 -151 2414 2169">
   <path fill="currentColor"
      d="M768 1978q-223 0 -339 -152.5t-116 -448.5q0 -49 4 -100t11 -100q8 -47 11 -85t3 -71q0 -26 -14 -56t-46 -71q-51 -67 -72.5 -112.5t-21.5 -87.5q0 -119 130 -189.5t344 -70.5q143 0 251 32.5t169 90.5t61 134q0 40 -18.5 94.5t-54.5 122.5q-17 32 -33 73t-28 84.5
t-18 82.5l579 -1066q58 -106 104 -145t116 -39q67 0 109.5 24t71 62.5t51.5 82.5q24 46 54.5 92.5t82.5 81.5q19 13 28.5 29t9.5 36q0 38 -41.5 66t-97.5 28q-61 0 -120 -32.5t-112 -97.5l-489 1209q-74 183 -154.5 292.5t-180.5 158t-234 48.5zM629 1670q-17 4 -31 -4.5
t-19 -25.5q-16 -64 -24.5 -155t-8.5 -194q0 -108 9 -213q2 -17 14 -27.5t29 -10.5t28 13t9 32q-4 55 -6.5 112t-2.5 113q0 91 7.5 173t24.5 139q5 17 -3.5 30t-25.5 18zM665 825q-117 0 -200 -33t-83 -82q0 -48 83 -82t200 -34q119 0 202 34t83 82q0 49 -83 82t-202 33z
M1190 1126q-37 0 -63 -26.5t-26 -63.5t26 -63t63 -26t63.5 26.5t26.5 62.5q0 37 -26.5 63.5t-63.5 26.5zM768 1900q116 0 201.5 -42.5t156 -143t139.5 -272.5l508 -1256h88q45 70 92.5 104t95.5 34q20 0 38.5 -10t18.5 -18q0 -4 -1.5 -6t-6.5 -6q-53 -39 -86 -84.5
t-56 -87.5q-32 -60 -64.5 -97t-101.5 -37q-46 0 -75 28t-75 111l-648 1191h-76q-6 -30 -7.5 -50.5t-1.5 -48.5q0 -57 14 -118.5t36 -119.5t44 -104q26 -53 44 -96t18 -76q0 -39 -29.5 -72.5t-83.5 -57.5t-127 -37.5t-160 -13.5q-88 0 -160.5 13.5t-125 37.5t-81 57.5
t-28.5 73.5q0 26 16 58.5t59 87.5q42 54 60.5 96.5t18.5 82.5q0 35 -3.5 75t-10.5 87q-7 51 -11 100t-4 94q0 265 93 394t282 129zM1307 899q-37 0 -63 -26.5t-26 -63.5q0 -38 26 -63.5t63 -25.5q38 0 64 26t26 63t-26 63.5t-64 26.5zM1425 659q-36 0 -60.5 -24.5
t-24.5 -60.5t25 -61t60 -25t60.5 25.5t25.5 60.5t-25 60t-61 25zM1542 420q-34 0 -58 -24t-24 -58q0 -35 24 -58.5t58 -23.5q35 0 58.5 23.5t23.5 58.5q0 34 -23.5 58t-58.5 24zM2389 492q-77 0 -151 -7t-126.5 -33.5t-67.5 -84.5q58 -5 82 -25.5t24 -40.5
q0 -21 -10.5 -43.5t-25.5 -38.5q57 0 99 20.5t73 66.5q19 28 44.5 55t64.5 52q17 11 17 28q0 14 -6 25.5t-17 25.5z" />
</svg>