<?xml version="1.0" standalone="no"?>
<!DOCTYPE svg PUBLIC "-//W3C//DTD SVG 1.1//EN" "http://www.w3.org/Graphics/SVG/1.1/DTD/svg11.dtd">
<svg xmlns="http://www.w3.org/2000/svg" xmlns:xlink="http://www.w3.org/1999/xlink" version="1.1"
   viewBox="94 -151 2414 2169">
   <path fill="currentColor"
      d="M263 1878l-87 -493l59 -1387h2130l59 1387l-87 493h-2074zM219 1423v-80h2145v80h-2145zM387 1243l46 -1065h601v1065h-647zM719 783q-52 0 -73.5 -13.5t-21.5 -45.5q0 -41 29 -75.5t66 -34.5q38 0 66.5 34.5t28.5 75.5q0 32 -21.5 45.5t-73.5 13.5zM565 1098h325
q41 0 59.5 -30.5t18.5 -86.5q0 -40 -6 -66t-12 -49.5t-6 -57.5q0 -38 14 -64.5t14 -69.5q0 -31 -14 -68.5t-14 -77.5q0 -42 10 -76t10 -71q0 -35 -13.5 -55.5t-33.5 -20.5q-29 0 -49 4.5t-49 4.5q-30 0 -46 -6.5t-46 -6.5q-29 0 -56 10t-56 10q-22 0 -40 -5t-42 -5
q-25 0 -39 19.5t-14 47.5q0 42 15 87.5t15 83.5q0 47 -15 82.5t-15 75.5q0 46 13 80.5t13 71.5q0 26 -3 46t-6 45t-3 69q0 33 19.5 56t51.5 23zM330 1798h1940l74 -417l-56 -1303h-1976l-56 1303zM1417 889q-28 -8 -39 -16.5t-11 -19.5q0 -21 20 -21q12 0 19 12.5t11 44.5z
M1457 864q-10 -17 -16.5 -29.5t-6.5 -22.5q0 -22 23 -22t23 22q0 10 -6.5 22.5t-16.5 29.5zM1497 889q5 -33 11 -45t19 -12q20 0 20 21q0 11 -10.5 19.5t-39.5 16.5zM1333 613l-46 -18l31 -82l47 18zM1166 675q-20 -25 -20 -59q0 -62 60.5 -91.5t174.5 -29.5t174.5 29.5
t60.5 91.5q0 34 -20 59h-95q34 -8 49.5 -24.5t15.5 -34.5q0 -31 -39.5 -51t-145.5 -20t-145.5 20t-39.5 51q0 19 15.5 35t49.5 24h-95zM1964 1172v-43q47 0 65.5 -4.5t18.5 -12.5q0 -7 -22.5 -11.5t-66.5 -4.5q-69 0 -103 16.5t-34 33.5q0 24 43 42.5t98 18.5
q86 0 130 -30.5t44 -65.5q0 -41 -51 -68.5t-127 -27.5q-70 0 -120.5 19.5t-57.5 44.5l-34 -18q11 -40 70.5 -64.5t141.5 -24.5q100 0 161.5 39.5t61.5 99.5t-54.5 99.5t-164.5 39.5q-88 0 -136.5 -26t-48.5 -78q0 -47 52.5 -71t128.5 -24q62 0 98 15.5t36 44.5
q0 25 -29.5 43t-99.5 18zM1443 613l-46 -18l31 -82l47 18zM1333 453l-46 -18l31 -82l47 18zM1139 708v-530h484v530h-484zM1189 658h384v-430h-384v430zM1723 1243v-435h471l19 435h-490zM1217 551q-71 -32 -71 -95q0 -62 60.5 -91.5t174.5 -29.5t174.5 29.5t60.5 91.5
q0 63 -71 95l-47 -35q35 -8 51.5 -25t16.5 -35q0 -31 -39.5 -51t-145.5 -20t-145.5 20t-39.5 51q0 44 68 60zM1792 1191l170 27l184 -28v-128l-34 -40l37 -56l-37 -116l-328 8v122l54 35h-46v176zM1797 1041q-19 -22 -19 -55q0 -47 52.5 -71.5t128.5 -24.5q62 0 98 16t36 45
q0 25 -29 43t-103 18v-40q50 0 68.5 -6t18.5 -14q0 -7 -21 -12t-68 -5q-68 0 -102.5 17t-34.5 34q0 18 19 31zM2086 1022q26 -14 39 -33t13 -38q0 -41 -48.5 -68t-130.5 -27q-70 0 -120 19t-57 44l-36 -17q11 -40 71 -65.5t142 -25.5q100 0 160.5 40t60.5 100q0 67 -63 106z
M1443 453l-46 -18l31 -82l47 18zM1333 293l-46 -18l31 -82l47 18zM1215 393q-69 -31 -69 -97q0 -62 60.5 -91.5t174.5 -29.5t174.5 29.5t60.5 91.5q0 66 -69 97l-47 -35q35 -8 50.5 -25.5t15.5 -36.5q0 -31 -39.5 -51t-145.5 -20t-145.5 20t-39.5 51q0 19 15.5 36.5
t50.5 25.5zM1759 635h381q0 -9 -6 -20t-6 -19q0 -14 8.5 -26t8.5 -25q0 -18 -13 -23t-13 -20q0 -20 10 -29.5t10 -29.5q0 -18 -8.5 -26.5t-8.5 -24.5q0 -11 10.5 -22t10.5 -23q0 -14 -11.5 -22.5t-11.5 -21.5q0 -14 11 -25.5t11 -24.5q0 -11 -8.5 -20.5t-20.5 -9.5
q-14 0 -22.5 8.5t-20.5 8.5q-16 0 -24 -12t-21 -12q-25 0 -36.5 14.5t-29.5 14.5q-20 0 -31 -14.5t-28 -14.5q-22 0 -33 13t-25 13q-19 0 -28.5 -8t-23.5 -8t-21 10t-7 22q0 15 9 27t9 26q0 13 -13.5 22t-13.5 23q0 13 15 25t15 24q0 15 -14.5 24.5t-14.5 28.5q0 15 15.5 26
t15.5 25q0 16 -14.5 22.5t-14.5 24.5q0 21 13.5 28t13.5 18q0 7 -12 16t-12 17zM1723 708v-530h444l23 530h-467zM1443 293l-46 -18l31 -82l47 18zM2031 657l5 -100l-112 -2l-72 100l-57 -6l104 -145l190 4l-9 161zM1578 1020l-25 -45q37 -35 37 -87q0 -51 -38.5 -88
t-95.5 -37q-52 0 -88.5 30t-44.5 85h-50q8 -72 59.5 -118.5t123.5 -46.5q77 0 130.5 51.5t53.5 123.5q0 40 -16.5 74t-45.5 58zM1174 1083q-38 -40 -38 -95q0 -56 39 -95t95 -39q49 0 85 30.5t45 76.5l-50 6q-7 -28 -29 -45.5t-51 -17.5q-35 0 -59.5 24.5t-24.5 59.5
q0 23 11 42zM1264 1247q-56 0 -95 -39t-39 -95t39 -95t95 -39q32 0 62 15l-18 48q-21 -13 -44 -13q-35 0 -59.5 24.5t-24.5 59.5t24.5 59.5t59.5 24.5q24 0 43.5 -9t30.5 -23l-18 73q-11 4 -27 6.5t-29 2.5zM1193 1198h327l88 -89l-83 -154h-169l-62 -82h-64l-76 109v175z
M1139 1243v-435h155l22 93l81 53h226v289h-484zM1401 1230q-43 0 -71.5 -26.5t-28.5 -66.5q0 -27 15 -49q-16 -24 -16 -52q0 -37 26 -62t65 -25q13 0 25 3q24 -40 75 -40q39 0 66 27.5t27 59.5q26 15 36.5 39t10.5 46q0 55 -51 82q-1 18 -9 35t-22 29h-148zM1391 1178
q9 0 19 -5.5t34 -26.5q4 10 8 18t8 14h65q5 -20 5 -38v-9t-1 -8q4 2 12 2q16 0 29 -13t13 -27q0 -20 -17.5 -32.5t-38.5 -12.5q6 -14 6 -29q0 -21 -11 -36.5t-30 -15.5q-22 0 -35 17t-15 43q-21 -20 -49 -20q-17 0 -30 10t-13 28q0 20 31 51q-17 17 -24 29t-7 23
q0 17 12 27.5t29 10.5zM1988 486l-57 -134l-42 3q10 -33 37 -54.5t62 -21.5q43 0 73 30t30 74q0 43 -30 73t-73 30zM1837 607l-10 -272h136l78 177l-50 7l-63 -134h-49l6 164z" />
</svg>