<?xml version="1.0" standalone="no"?>
<!DOCTYPE svg PUBLIC "-//W3C//DTD SVG 1.1//EN" "http://www.w3.org/Graphics/SVG/1.1/DTD/svg11.dtd">
<svg xmlns="http://www.w3.org/2000/svg" xmlns:xlink="http://www.w3.org/1999/xlink" version="1.1"
   viewBox="94 -151 2414 2169">
   <path fill="currentColor"
      d="M922 1978q-20 0 -40.5 -16.5t-8.5 -51.5l679 -1962q18 -50 49 -50q21 0 42 16.5t10 48.5l-679 1962q-19 53 -52 53zM368 1066q-37 -94 -65.5 -195t-52.5 -201q-31 -128 -63 -226.5t-65 -174.5q106 -36 167 -60t105 -49.5t99 -63.5q110 -77 187.5 -110t153.5 -33
q26 0 72 8.5t125 42.5l-20 79q-113 -50 -177 -50q-62 0 -128.5 28t-156.5 93q-84 60 -155 96t-166 67q32 80 55.5 162.5t42.5 164.5q20 85 42 167t50 160q52 -17 109 -53.5t154 -112.5q123 -97 222 -140t197 -43q38 0 70 1.5t60 6.5l-9 80q-28 -5 -56.5 -6.5t-64.5 -1.5
q-82 0 -167.5 36.5t-189.5 119.5q-125 100 -211.5 149t-163.5 59zM660 630q-76 0 -129.5 -53.5t-53.5 -129.5t53.5 -129.5t129.5 -53.5t129.5 53.5t53.5 129.5t-53.5 129.5t-129.5 53.5zM1678 1978q-33 0 -52 -53l-679 -1962q-9 -26 6.5 -45.5t43.5 -19.5q33 0 51 50
l679 1962q12 35 -8.5 51.5t-40.5 16.5zM2232 1066q-77 -10 -163.5 -59t-211.5 -149q-103 -83 -188.5 -119.5t-168.5 -36.5q-36 0 -64.5 1.5t-56.5 6.5l-9 -80q29 -5 60.5 -6.5t69.5 -1.5q98 0 197 43t222 140q97 76 154 112.5t109 53.5q28 -78 50 -160t42 -167
q20 -82 43.5 -164.5t54.5 -162.5q-95 -31 -166 -67t-155 -96q-90 -65 -156.5 -93t-128.5 -28q-64 0 -177 50l-20 -79q79 -34 125 -42.5t72 -8.5q76 0 154 32.5t187 110.5q55 39 99 64t105 49t167 60q-33 76 -65 174.5t-63 226.5q-24 100 -52.5 201t-65.5 195zM1940 630
q-76 0 -129.5 -53.5t-53.5 -129.5t53.5 -129.5t129.5 -53.5t129.5 53.5t53.5 129.5t-53.5 129.5t-129.5 53.5z" />
</svg>