<?xml version="1.0" standalone="no"?>
<!DOCTYPE svg PUBLIC "-//W3C//DTD SVG 1.1//EN" "http://www.w3.org/Graphics/SVG/1.1/DTD/svg11.dtd">
<svg xmlns="http://www.w3.org/2000/svg" xmlns:xlink="http://www.w3.org/1999/xlink" version="1.1"
   viewBox="94 -151 2414 2169">
   <path fill="currentColor"
      d="M1024 1960q-42 24 -77.5 16.5t-54 -39.5t-9.5 -79l53 -279q7 -38 -21 -63l-202 -186q-35 -33 -38 -71.5t21.5 -68.5t70.5 -35l289 -33q27 -3 41 -33l105 -234q17 -37 42 -57.5t56 -20.5q32 0 57.5 20.5t41.5 57.5l105 234q14 31 40 33l290 33q47 5 71 35t21 68.5
t-39 71.5l-202 186q-27 25 -20 63l53 279q9 47 -9.5 79t-54 39.5t-77.5 -16.5l-245 -141q-16 -9 -32 -9t-31 9zM959 1936l-41 -30l258 -330l40 31zM1126 1407l-425 -155l17 -48l426 157zM1642 1936l-257 -329l39 -31l258 330zM1245 1543q-16 0 -16 -21q0 -8 4 -20l15 -44
l-36 -21q-23 -13 -23 -24q0 -15 29 -15h52l10 -49q5 -23 20 -23t20 23l11 49h52q29 0 29 15q0 11 -23 24l-36 21l15 44q3 9 3 20q0 21 -15 21q-11 0 -28 -17l-28 -29l-28 29q-17 17 -27 17zM989 1900l245 -142q46 -26 66 -26q21 0 67 26l245 142q20 11 31 2.5t6 -30.5
l-54 -285q-13 -74 23 -107l222 -202q20 -18 15.5 -34t-29.5 -19l-304 -35q-52 -6 -76 -59l-111 -248q-7 -17 -15 -26.5t-20 -9.5q-11 0 -18.5 9.5t-15.5 26.5l-111 248q-24 53 -77 59l-303 35q-25 3 -29.5 19t14.5 34l222 202q39 34 24 107l-55 285q-4 22 7.5 30.5
t30.5 -2.5zM1275 1277v-443h50v443h-50zM1474 1407l-18 -46l427 -157l17 48zM1099 829l-289 -272q-40 -37 -54.5 -66t-14.5 -71v-382q0 -58 41 -99t99 -41h838q58 0 99 41t41 99v382q0 42 -14.5 71t-53.5 66l-290 272h-402zM1125 749h350l269 -257q17 -16 26 -34.5t9 -37.5
v-382q0 -25 -17.5 -42.5t-42.5 -17.5h-838q-25 0 -42.5 17.5t-17.5 42.5v382q0 19 9.5 37.5t25.5 34.5zM1091 773v-824h418v824h-418z" />
</svg>