<?xml version="1.0" standalone="no"?>
<!DOCTYPE svg PUBLIC "-//W3C//DTD SVG 1.1//EN" "http://www.w3.org/Graphics/SVG/1.1/DTD/svg11.dtd">
<svg xmlns="http://www.w3.org/2000/svg" xmlns:xlink="http://www.w3.org/1999/xlink" version="1.1"
   viewBox="94 -151 2414 2169">
   <path fill="currentColor"
      d="M1300 1978q-188 0 -352.5 -70.5t-289.5 -196t-195.5 -290.5t-70.5 -354q0 -184 69 -342t193 -276t289 -184t357 -66q193 0 358 66t288.5 184t192.5 276t69 342q0 189 -70.5 354t-195 290.5t-289 196t-353.5 70.5zM1300 1898q172 0 322 -64.5t264 -178.5t178 -265t64 -323
q0 -168 -62.5 -311.5t-175 -250.5t-263.5 -166.5t-327 -59.5t-326.5 60t-263 167t-175.5 250.5t-63 310.5q0 172 64.5 323t178.5 265t264 178.5t321 64.5zM1302 446q-57 0 -91 -20.5t-34 -51.5q0 -21 17.5 -38.5t51.5 -22.5v-231h-90q-164 0 -226.5 -14.5t-62.5 -65.5
q0 -20 10 -38.5t27 -18.5q13 0 43 6.5t97 13t187 6.5q154 0 264 -18.5t176 -36.5t86 -18q34 0 34 41q0 25 -7.5 38t-22.5 24q-28 19 -89.5 36.5t-140.5 28t-159 10.5v242q54 18 54 57q0 31 -33.5 51t-90.5 20zM588 1598l-125 -228l-45 -244l49 -276l140 -308l242 -199
l111 -34q63 0 102 18t39 43q0 11 -25 15.5t-60 4.5q-46 0 -68 14.5t-58 28.5q-40 15 -72.5 23t-59.5 32q-38 34 -50 59t-35 57q-22 31 -55.5 54t-57.5 78q-17 39 -23.5 73.5t-6.5 102.5q0 21 -8.5 40.5t-21.5 39.5t-20.5 39.5t-7.5 41.5q0 52 12.5 95.5t12.5 66.5
q0 10 -4.5 28.5t-4.5 36.5q0 13 14.5 61.5t37.5 112t48 124.5zM1245 1927q7 -20 16.5 -55.5t9.5 -58.5q0 -24 -9.5 -67.5t-9.5 -68.5q0 -27 11.5 -60.5t11.5 -79.5q0 -37 -8 -60t-16 -44.5t-8 -52.5q0 -42 12 -74.5t12 -77.5q0 -61 -21 -116t-21 -117q0 -41 10 -62.5t20 -41
t10 -53.5q0 -44 -15.5 -73.5t-15.5 -69.5q0 -32 10 -75t27 -75t38 -32q17 0 22.5 21t5.5 42q0 31 -2 59t-2 41q0 44 13.5 72.5t26.5 57t13 75.5q0 38 -7.5 76t-7.5 62q0 34 15 73t15 99q0 33 -4 82.5t-4 91.5q0 56 12.5 100.5t12.5 100.5q0 37 -6 73t-6 64q0 42 12.5 65.5
t12.5 59.5q0 22 -7 48t-19 42zM1775 1797q9 -23 24.5 -78t15.5 -94q0 -36 -20.5 -84t-20.5 -88q0 -53 24.5 -104t24.5 -88q0 -25 -12 -54.5t-24 -56.5t-12 -42q0 -23 2 -45.5t2 -44.5q0 -39 -18.5 -70.5t-43.5 -62.5t-43.5 -68t-18.5 -87q0 -20 -15 -38.5t-52 -43.5
q-31 -22 -61 -59.5t-30 -107.5q0 -16 4 -20t8 -4q15 0 41 11.5t51.5 28.5t36.5 34q20 29 27 54t32 57q17 21 41.5 26.5t49.5 18.5t42 58q11 29 14 73t3 76q0 44 22 96.5t44 102.5t22 89q0 37 -11.5 88.5t-23.5 100t-12 75.5q0 43 14.5 71t28.5 54.5t14 66.5zM2087 1427
q13 -125 18 -196t6.5 -116t1.5 -91q0 -106 -83 -235q-13 -21 -30 -60t-35 -80t-36 -66q-30 -43 -65.5 -58.5t-70.5 -40.5q-30 -22 -41.5 -42.5t-42.5 -39.5q-22 -14 -56 -17t-68 -3q-69 0 -95 -9t-26 -25q0 -29 55 -34t121 -5l192 65l191 214l119 229l36 257zM937 1872
l-172 -128q-17 -27 -24.5 -50t-7.5 -61q0 -29 8 -56t8 -53q0 -32 -13.5 -83t-27 -101.5t-13.5 -79.5q0 -40 17.5 -73.5t23.5 -70.5q7 -43 -0.5 -92.5t-7.5 -91.5q0 -37 15 -61t35 -46t35 -53t18.5 -64.5t10.5 -67.5t32 -65q22 -28 60 -52t77.5 -39.5t64.5 -15.5q22 0 22 16
q0 12 -16 23.5t-36 21.5q-19 9 -37.5 24.5t-26.5 31.5q-14 27 -15.5 45t-14.5 59t-33 71t-36 62.5t-16 83.5q0 28 4 54.5t4 71.5q0 40 -18 72t-36 61.5t-18 60.5q0 45 25 89.5t25 93.5q0 53 -13 83t-13 80q0 64 27.5 113.5t55 93.5t27.5 93z" />
</svg>