<?xml version="1.0" standalone="no"?>
<!DOCTYPE svg PUBLIC "-//W3C//DTD SVG 1.1//EN" "http://www.w3.org/Graphics/SVG/1.1/DTD/svg11.dtd">
<svg xmlns="http://www.w3.org/2000/svg" xmlns:xlink="http://www.w3.org/1999/xlink" version="1.1"
   viewBox="94 -151 2414 2169">
   <path fill="currentColor"
      d="M1300 1978q-226 0 -356 -45.5t-130 -123.5q0 -41 44 -71.5t144 -57.5q125 -34 173 -85t48 -164v-262q0 -97 -52.5 -170t-144.5 -166l-524 -527q-40 -41 -58.5 -71t-18.5 -64h80q0 10 10 27t44 52l524 527q62 62 112 122t79 125t29 145v262q0 91 -27.5 152t-89 99.5
t-165.5 64.5q-79 20 -101 34t-22 30q0 24 58.5 44.5t150.5 32.5t193 12t193 -12t150.5 -32.5t58.5 -44.5q0 -16 -21.5 -30t-101.5 -34q-103 -27 -165 -65.5t-89.5 -99t-27.5 -151.5v-262q0 -80 29 -145t79 -125t112 -122l524 -527q35 -35 44.5 -52t9.5 -27h80q0 34 -18 64
t-59 71l-524 527q-92 93 -144.5 166t-52.5 170v262q0 113 48 164t173 85q100 27 144 57.5t44 71.5q0 78 -130 123.5t-356 45.5zM1316 782q18 0 28.5 -13t10.5 -27q0 -24 -27.5 -48.5t-50.5 -24.5q-18 0 -28.5 13t-10.5 27q0 24 27.5 48.5t50.5 24.5zM1316 841
q-57 0 -99 -41.5t-42 -99.5q0 -52 28.5 -105t74 -89.5t97.5 -36.5q56 0 97.5 43t41.5 104q0 50 -29 102.5t-74 87.5t-95 35zM694 300l-60 -56q132 -42 309.5 -68.5t356.5 -26.5t356.5 26.5t309.5 68.5l-60 56q-130 -37 -287 -59t-319 -22t-319 22t-287 59zM1300 402
q-187 0 -346.5 -17.5t-278 -49t-184.5 -73.5t-66 -91q0 -68 108.5 -119t305.5 -79t461 -28t460.5 28t305.5 79t109 119q0 49 -66 91t-184.5 73.5t-278 49t-346.5 17.5zM1300 332q151 0 293 -16t255.5 -41t180 -52.5t66.5 -51.5q0 -26 -62 -53t-171.5 -50.5t-253.5 -38
t-308 -14.5t-308 14.5t-253.5 38t-171.5 50.5t-62 53q0 24 66.5 51.5t180 52.5t255.5 41t293 16zM1364 673l-57 -45l593 -587l161 -143l22 18l-123 171z" />
</svg>