<?xml version="1.0" standalone="no"?>
<!DOCTYPE svg PUBLIC "-//W3C//DTD SVG 1.1//EN" "http://www.w3.org/Graphics/SVG/1.1/DTD/svg11.dtd">
<svg xmlns="http://www.w3.org/2000/svg" xmlns:xlink="http://www.w3.org/1999/xlink" version="1.1"
   viewBox="94 -151 2414 2169">
   <path fill="currentColor"
      d="M837 854q-66 0 -122 -49t-89.5 -125t-33.5 -157q0 -37 9 -72t28 -70q80 -144 206 -246.5t283 -157t330 -54.5q41 0 88.5 2t95.5 5q56 4 119.5 5t120.5 1q58 0 102.5 -5.5t78.5 -16.5q26 -8 47.5 -12t40.5 -4q61 0 87 23t26 65q0 55 -27.5 116t-58.5 105q-4 5 -6 10.5
t-2 10.5q0 7 5.5 13t14.5 8l58 16q53 14 78.5 42t25.5 65q0 80 -104 158q-132 99 -255.5 124.5t-242.5 25.5q-85 0 -141 2.5t-99.5 10t-89.5 22t-112 37.5q-48 17 -125.5 41t-165.5 42.5t-170 18.5zM504 1641q-38 0 -72.5 -12.5t-34.5 -58.5q0 -61 61 -79q8 49 22 61t45 12
q33 -3 89 -15t118 -32.5t113 -48.5l34 69q-56 30 -124 53.5t-134 37t-117 13.5zM901 1632q16 0 24 -13.5t8 -32.5q0 -37 -28 -112q-24 -64 -46 -93t-45 -29q-20 0 -28 15.5t-8 34.5q0 25 7 57t23 65q23 48 45.5 78t47.5 30zM566 1978q-28 0 -38.5 -10t-13.5 -31l-231 -1775
l100 -9l230 1775q3 22 -10 36t-37 14zM1184 1643q1 -22 1 -33v-22q0 -93 -32.5 -158t-109 -114t-208.5 -93l51 -64q203 69 290 165.5t87 254.5q0 12 -0.5 24t-2.5 26zM399 752q-38 0 -72 -12.5t-34 -58.5q0 -61 60 -79q8 49 22 61t45 12q33 -3 89 -15t118.5 -32.5
t113.5 -48.5l34 69q-56 30 -124.5 53.5t-134.5 37t-117 13.5zM1399 1607q56 -70 86 -143t30 -143q0 -52 23 -52q15 0 27 23q20 36 28.5 76.5t8.5 85.5q0 24 -1 48.5t-3 47.5zM1320 1328q-64 0 -109 -50t-45 -120q0 -62 37 -104t96 -42q65 0 109.5 50t44.5 120
q0 61 -37 103.5t-96 42.5zM1316 1274q37 0 60 -28t23 -68q0 -47 -27.5 -79.5t-68.5 -32.5q-37 0 -60 27.5t-23 68.5q0 46 28 79t68 33zM796 743q17 0 24.5 -13.5t7.5 -32.5q0 -40 -27 -112q-24 -64 -46.5 -93t-45.5 -29q-20 0 -28 15.5t-8 34.5q0 25 7 57.5t23 64.5
q23 48 46 78t47 30zM1310 1212q-19 0 -31.5 -14t-12.5 -34q0 -17 10 -29t28 -12t31 14t13 34q0 18 -10.5 29.5t-27.5 11.5zM269 99q33 0 54.5 -27.5t21.5 -55.5q0 -23 -16.5 -37.5t-34.5 -14.5q-28 0 -50.5 24.5t-22.5 56.5q0 22 13 38t35 16zM319 228q-68 0 -116.5 -48.5
t-48.5 -116.5t48.5 -116.5t116.5 -48.5t116.5 48.5t48.5 116.5t-48.5 116.5t-116.5 48.5zM942 1743q-67 0 -122.5 -49t-89 -125t-33.5 -157q0 -37 9 -72t28 -70q79 -143 205 -245.5t283.5 -157.5t330.5 -55q41 0 88.5 2t94.5 5q56 4 120 5t121 1t102 -5.5t79 -16.5
q26 -8 47.5 -12t40.5 -4q61 0 87 23t26 65q0 55 -27 116t-59 105q-4 5 -6 10.5t-2 10.5q0 7 5 12.5t15 8.5l58 16q53 14 78 42t25 65q0 81 -103 158q-132 99 -256 124.5t-242 25.5q-85 0 -141 3t-99.5 10.5t-89.5 21.5t-112 37q-48 17 -125.5 41t-165.5 42.5t-170 18.5z
M958 1693l4 -29q63 -2 129 -15.5t138 -36t153 -51.5q69 -24 119.5 -38t98.5 -20.5t104.5 -8.5t137.5 -2q113 0 224.5 -23.5t229.5 -111.5q36 -27 54.5 -49t18.5 -41q0 -30 -47 -43l-88 -24q-59 -16 -59 -62q0 -20 11.5 -44.5t29.5 -52.5q23 -37 43.5 -80.5t20.5 -69.5
q0 -27 -29 -27q-23 0 -68 12q-40 10 -95 18t-111 8q-51 0 -118 -1.5t-126 -5.5q-49 -3 -97 -4.5t-83 -1.5q-158 0 -304 51.5t-261 144.5t-182 219l-6 -22q9 -3 19 -3q46 0 89 47t71 116.5t28 137.5q0 31 -9.5 61.5t-39.5 51.5zM1080 754v-33v-22q0 -93 -32.5 -158t-109 -114
t-208.5 -93l52 -64q203 69 289.5 165.5t86.5 254.5v24t-2 26zM1675 1325l-35 -129q8 -2 22 -2q30 0 43.5 22t13.5 52q0 41 -44 57zM1821 1407l-35 -129q8 -2 22 -2q30 0 43.5 22t13.5 52q0 41 -44 57zM1629 1157l-35 -129q8 -2 22 -2q30 0 43.5 22t13.5 52q0 41 -44 57z
M1775 1244l-35 -129q8 -2 22 -2q30 0 43.5 22t13.5 52q0 41 -44 57zM1932 1327l-35 -129q8 -2 22 -2q30 0 43.5 22t13.5 52q0 41 -44 57zM1728 1076l-35 -129q8 -2 22 -2q30 0 43.5 22t13.5 52q0 41 -44 57zM2078 1408l-35 -129q8 -2 22 -2q30 0 43.5 22t13.5 52
q0 41 -44 57zM1886 1158l-35 -129q8 -2 22 -2q30 0 43.5 22t13.5 52q0 41 -44 57zM1313 703q51 -64 78.5 -130.5t27.5 -129.5q0 -48 21 -48q12 0 24 21q19 33 27 70t8 78q0 22 -1.5 44t-3.5 43zM2031 1245l-35 -129q8 -2 22 -2q30 0 43.5 22t13.5 52q0 41 -44 57zM1220 439
q-64 0 -109 -50t-45 -120q0 -62 37.5 -104t95.5 -42q65 0 110 50t45 120q0 61 -37.5 103.5t-96.5 42.5zM1216 385q37 0 60 -28t23 -68q0 -47 -27.5 -79.5t-68.5 -32.5q-37 0 -59.5 27.5t-22.5 68.5q0 46 27.5 79t67.5 33zM1210 323q-19 0 -31.5 -14t-12.5 -34
q0 -17 10.5 -29t27.5 -12q18 0 31.5 14t13.5 34q0 18 -11 29.5t-28 11.5zM1985 1077l-35 -129q8 -2 22 -2q30 0 43.5 22t13.5 52q0 41 -44 57zM854 804l3 -29q63 -2 129 -15.5t138 -36t153 -51.5q69 -24 120 -38t98.5 -20.5t104.5 -8.5t137 -2q113 0 225.5 -23t229.5 -112
q35 -27 53.5 -49t18.5 -41q0 -30 -46 -43l-88 -24q-60 -17 -60 -62q0 -20 11.5 -44.5t29.5 -52.5q23 -37 43.5 -80.5t20.5 -69.5q0 -27 -29 -27q-23 0 -68 12q-40 10 -95 18t-111 8q-51 0 -118 -1.5t-126 -5.5q-48 -3 -96.5 -4.5t-83.5 -1.5q-158 0 -303.5 51.5
t-260.5 144.5t-183 219l-6 -22q9 -3 19 -3q47 0 90 47t70.5 116.5t27.5 137.5q0 31 -9.5 61.5t-38.5 51.5zM1570 436l-34 -129q8 -2 21 -2q30 0 44 22t14 52q0 41 -45 57zM1716 518l-34 -129q8 -2 21 -2q30 0 44 22t14 52q0 41 -45 57zM1524 268l-34 -129q8 -2 21 -2
q30 0 44 22t14 52q0 41 -45 57zM1670 355l-34 -129q8 -2 21 -2q30 0 44 22t14 52q0 41 -45 57zM1827 438l-34 -129q8 -2 21 -2q30 0 44 22t14 52q0 41 -45 57zM1623 187l-34 -129q8 -2 21 -2q30 0 44 22t14 52q0 41 -45 57zM1973 519l-34 -129q8 -2 21 -2q30 0 44 22t14 52
q0 41 -45 57zM1781 269l-34 -129q8 -2 21 -2q30 0 44 22t14 52q0 41 -45 57zM1926 356l-34 -129q8 -2 21 -2q30 0 44 22t14 52q0 41 -45 57zM1880 188l-34 -129q8 -2 21 -2q30 0 44 22t14 52q0 41 -45 57z" />
</svg>