<?xml version="1.0" standalone="no"?>
<!DOCTYPE svg PUBLIC "-//W3C//DTD SVG 1.1//EN" "http://www.w3.org/Graphics/SVG/1.1/DTD/svg11.dtd">
<svg xmlns="http://www.w3.org/2000/svg" xmlns:xlink="http://www.w3.org/1999/xlink" version="1.1"
   viewBox="94 -151 2414 2169">
   <path fill="currentColor"
      d="M1282 1381q-250 0 -425.5 -33.5t-298.5 -96.5q-15 -49 -27.5 -96t-20.5 -93.5t-8 -92.5q0 -102 50 -208.5t129 -178.5q-76 -38 -76 -98q0 -65 86.5 -112.5t239.5 -73.5t351 -26q171 0 310 21l-125 96q-53 -4 -97.5 -5.5t-87.5 -1.5q-226 0 -347 50.5t-121 147.5
q0 33 14 58t28.5 60.5t14.5 100.5q0 33 -14 97t-14 135q0 95 33 158.5t82 63.5q47 0 76.5 -43t29.5 -112q0 -62 -11.5 -137.5t-23 -148.5t-11.5 -127q0 -57 22.5 -86t67.5 -29q53 0 118 19t168 19q76 0 140 -18l235 -258q95 28 142.5 65t47.5 87q0 60 -76 98
q79 72 129 178.5t50 208.5q0 46 -8 92.5t-20.5 93.5t-27.5 96q-123 63 -298 96.5t-426 33.5zM1282 1698q-200 0 -345.5 -29t-243.5 -80q-21 -41 -41 -85t-39 -91q152 56 320 84.5t349 28.5q182 0 349.5 -28.5t319.5 -84.5q-19 48 -39 91t-41 85q-97 51 -243 80t-346 29z
M1282 1978q-150 0 -264 -27t-152 -64q-12 -12 -31.5 -38.5t-43.5 -66.5q-61 -102 -114 -211t-92 -216.5t-61 -206t-22 -178.5h84q0 86 26 194t71 223t102 224t119 197q85 19 184.5 29.5t193.5 10.5q95 0 194.5 -10.5t183.5 -29.5q62 -88 119 -197t102 -224t71 -223t26 -194
h84q0 80 -22 178.5t-61 206t-91.5 216.5t-114.5 211q-24 40 -43.5 66.5t-31.5 38.5q-37 37 -151.5 64t-264.5 27zM1238 694l-52 -60l508 -510q0 -56 22 -107.5t59 -85t81 -33.5q29 0 56.5 10.5t56.5 38.5l73 71q56 54 56 117q0 42 -33.5 80t-85.5 61.5t-110 23.5l-333 337
l-99 -16l405 -403q8 2 17 2.5t17 0.5q35 0 69 -15t56.5 -37.5t22.5 -43.5t-31 -52l-75 -74q-30 -30 -48 -30q-20 0 -43 22t-39 55.5t-16 68.5q0 23 4 40z" />
</svg>