<?xml version="1.0" standalone="no"?>
<!DOCTYPE svg PUBLIC "-//W3C//DTD SVG 1.1//EN" "http://www.w3.org/Graphics/SVG/1.1/DTD/svg11.dtd">
<svg xmlns="http://www.w3.org/2000/svg" xmlns:xlink="http://www.w3.org/1999/xlink" version="1.1"
   viewBox="94 -151 2414 2169">
   <path fill="currentColor"
      d="M1300 1978q-213 0 -399 -81t-327 -224t-220 -331.5t-79 -403.5t79 -403.5t220 -331.5t327 -224t399 -81t399 81t327 224t220 331.5t79 403.5t-79 403.5t-220 331.5t-327 224t-399 81zM1300 1898q196 0 367.5 -74.5t301 -206.5t203 -306t73.5 -373t-73 -373t-203 -306
t-301 -206.5t-368 -74.5q-196 0 -367.5 74.5t-301.5 206.5t-203 306t-73 373t73 373t203 306t301.5 206.5t367.5 74.5zM1339 1918q103 -49 198 -128t170 -196t118.5 -279t43.5 -377t-43.5 -377t-118.5 -279t-170 -196t-198 -128q192 4 362 81.5t300 211.5t204.5 310
t74.5 377t-74.5 377t-204.5 310t-300 211.5t-362 81.5z" />
</svg>