<?xml version="1.0" standalone="no"?>
<!DOCTYPE svg PUBLIC "-//W3C//DTD SVG 1.1//EN" "http://www.w3.org/Graphics/SVG/1.1/DTD/svg11.dtd">
<svg xmlns="http://www.w3.org/2000/svg" xmlns:xlink="http://www.w3.org/1999/xlink" version="1.1"
   viewBox="94 -151 2414 2169">
   <path fill="currentColor"
      d="M1241 1928q-115 0 -221.5 -31.5t-193 -89.5t-142.5 -135q-58 -2 -102 -37.5t-72 -83.5q-125 -80 -197.5 -241t-72.5 -360q0 -168 51.5 -296.5t145.5 -191.5q78 -172 196.5 -286t268.5 -171t320 -57q187 0 358.5 50.5t315.5 141.5t250 212t165 262t59 292
q0 139 -35.5 264.5t-98.5 226.5t-146 165q-37 83 -113 138t-172 82.5t-195 27.5q-68 57 -162.5 87.5t-206.5 30.5zM612 1075q-9 0 -19.5 -5.5t-19.5 -20.5q-3 -5 -13 -13q-27 -21 -27 -63q0 -15 15 -36t34.5 -37.5t31.5 -16.5q32 0 67 29.5t35 57.5q0 14 -20 39.5t-45 45.5
t-39 20zM1178 1340q-130 0 -196 -32t-78 -101l-13 -75q-7 -41 34 -70t104 -29q21 0 52.5 23.5t62.5 58.5t51.5 70t20.5 58q0 42 -11 69.5t-27 27.5zM906 830q-65 0 -116.5 -33t-51.5 -75q0 -15 3.5 -32t8.5 -25q11 -17 35.5 -34t53 -28.5t48.5 -11.5q39 0 65 43t26 108
q0 36 -21.5 62t-50.5 26zM1294 987q-42 0 -71.5 -30t-29.5 -72q0 -13 16 -30t37.5 -29.5t37.5 -12.5q15 0 34 17.5t33 40.5t14 41q0 22 -24 48.5t-47 26.5zM1233 1708q63 0 124.5 -16t116.5 -47q-129 -47 -202 -175l68 -42q44 76 129 116.5t181 40.5q114 0 218.5 -51
t190 -142.5t143 -215.5t78.5 -270q0 -147 -60.5 -279t-165.5 -241.5t-240.5 -189.5t-286.5 -124t-302 -44q-165 0 -294 51t-223.5 139t-158.5 199q14 -2 28.5 -3.5t29.5 -1.5q41 0 98 9.5t105 28.5l-33 74q-75 -31 -142 -31q-97 0 -167.5 56t-109 156t-38.5 234
q0 110 47.5 206.5t139 175t223.5 136.5q69 82 153 138t174 84.5t176 28.5zM1745 1367l-170 -22q-65 -8 -65 -73q0 -45 28.5 -94t69.5 -83t77 -34q34 0 63 31.5t47 82.5t18 110q0 36 -20.5 61t-47.5 21zM820 336q-61 0 -86.5 -19.5t-25.5 -65.5q0 -66 45 -113.5t108 -47.5
q28 0 56 23.5t47.5 58t19.5 67.5q0 53 -37 75t-127 22zM1357 609q-19 0 -48 -21.5t-56.5 -53t-46.5 -63.5t-19 -53q0 -38 10 -63t24 -25q119 0 178.5 29t70.5 92l12 68q7 37 -30.5 63.5t-94.5 26.5zM1688 838q-19 0 -43.5 -16t-42.5 -37.5t-18 -36.5q0 -24 18.5 -48.5
t45 -41.5t49.5 -17q37 0 61.5 33t24.5 67q0 20 -17.5 42.5t-39.5 38.5t-38 16zM1386 738q0 -144 78 -224.5t226 -102.5l10 69q-127 18 -185.5 83t-58.5 175h-70zM2032 927q-75 0 -97 -15.5t-22 -62.5q0 -60 23 -104t51 -44q30 0 63 25t55.5 60.5t22.5 69.5q0 32 -25.5 51.5
t-70.5 19.5zM1440 261q-65 0 -65 -43q0 -39 24 -87t57 -83t59 -35q25 0 56.5 27.5t55.5 65t24 66.5q0 89 -211 89zM2095 627q-13 0 -27.5 -7t-31.5 -19l-28 -19q-28 -20 -59 -30.5t-31 -35.5q0 -23 17 -49t38 -51q0 -9 2.5 -27.5t10.5 -34.5t24 -16q36 0 66 28t47.5 70
t17.5 83q0 56 -14.5 82t-31.5 26z" />
</svg>