<?xml version="1.0" standalone="no"?>
<!DOCTYPE svg PUBLIC "-//W3C//DTD SVG 1.1//EN" "http://www.w3.org/Graphics/SVG/1.1/DTD/svg11.dtd">
<svg xmlns="http://www.w3.org/2000/svg" xmlns:xlink="http://www.w3.org/1999/xlink" version="1.1"
   viewBox="94 -151 2414 2169">
   <path fill="currentColor"
      d="M998 1978q-126 0 -251.5 -22t-228.5 -59.5t-165 -85t-62 -97.5q0 -37 26.5 -89.5t70.5 -94.5l174 -881l70 36l-174 886q-43 31 -68 74t-27 66q158 0 299.5 17t276 53t268.5 93q6 -6 13 -24.5t7 -28.5q0 -52 -41 -117l200 -853l81 6l-197 839q15 22 25.5 56t10.5 69
q0 50 -30.5 85.5t-98.5 53.5t-179 18zM442 1510q-153 -25 -242.5 -95.5t-89.5 -165.5q0 -62 15.5 -143t40.5 -161.5t53.5 -140t54.5 -77.5q62 -43 160 -43q72 0 153 24l-18 62q-73 -22 -137 -22q-76 0 -122 31q-19 13 -42.5 67.5t-44.5 128.5t-35 148t-14 126
q0 68 74.5 122.5t203.5 74.5zM466 1357q-205 -28 -205 -122q0 -38 11.5 -98.5t29.5 -122.5t37 -108t34 -56q23 -15 64 -15q53 0 128 23l-18 62q-37 -12 -66 -17t-47 -5t-25 4q-9 6 -23 47.5t-28 98t-23.5 108.5t-9.5 79q0 15 39.5 32t109.5 26zM813 1436q20 0 34 -14t14 -34
t-14 -34t-34 -14t-34 14t-14 34t14 34t34 14zM1081 1653q-117 -44 -241 -67.5t-263 -28.5l140 -704q36 0 87 4t101 10t81 13l-77 321l93 126l109 -82l80 -335l59 23zM798 1102q14 0 24.5 -10.5t10.5 -25.5t-10.5 -25.5t-24.5 -10.5q-15 0 -25 10.5t-10 25.5t10 25.5t25 10.5
zM1009 1279q24 0 44.5 -17t36.5 -49.5t24 -80.5q26 -149 70 -241t135 -92q31 0 46 10t28.5 20.5t38.5 10.5q35 0 60 -31t25 -77q0 -69 -60 -104t-185 -35q-47 -90 -116 -132t-152 -42q-92 0 -194 48q-49 -20 -94 -20q-52 0 -89 29t-37 84q0 60 41.5 84t108.5 24
q44 0 86.5 -5t67.5 -5q77 0 117 41t40 125q0 58 -24.5 130t-49 142t-24.5 124q0 23 15.5 41t40.5 18zM1008 1346q-52 0 -87 -33.5t-35 -88.5q0 -48 23 -117.5t45.5 -145t22.5 -140.5q0 -50 -33.5 -66.5t-77.5 -16.5q-29 0 -69 6t-81 6q-95 0 -150.5 -48t-55.5 -142
q0 -89 56 -138.5t148 -49.5q47 0 93 15q52 -24 104 -36t101 -12q97 0 180 45.5t137 139.5q121 1 194.5 56.5t73.5 168.5q0 44 -21 82.5t-55.5 62.5t-74.5 24q-37 0 -55.5 -11t-32 -22.5t-37.5 -11.5q-21 0 -46.5 30t-49.5 77t-41.5 99.5t-21.5 96.5q-4 50 -21.5 88.5
t-49.5 60t-83 21.5zM1767 1156q17 0 29 -12t12 -28q0 -17 -12 -28.5t-29 -11.5q-16 0 -28 11.5t-12 28.5q0 16 12 28t28 12zM1916 1285q15 0 26 -11t11 -26q0 -16 -11 -27t-26 -11q-16 0 -26.5 11t-10.5 27q0 15 10.5 26t26.5 11zM1026 281l-236 -95l23 -55l235 94z
M1647 1814q-109 0 -172.5 -45.5t-63.5 -123.5q0 -52 24 -110l-116 -343l67 -38l127 376q-11 26 -16.5 55t-5.5 47q0 54 39 78t127 24q112 0 225.5 -30t209 -79.5t153.5 -109t58 -117.5q0 -44 -31.5 -75.5t-70.5 -31.5l-270 -840l73 -23l258 804q55 18 88 63.5t33 102.5
q0 77 -63 151t-168.5 134t-236.5 95.5t-268 35.5zM1659 1510q-17 0 -32 -3l-206 -606l119 -61v-194l202 -145l94 14l260 818q-15 27 -65 57.5t-117 57.5t-135.5 44.5t-119.5 17.5zM1777 873q21 0 35 -15t14 -34q0 -20 -14 -34.5t-35 -14.5q-19 0 -33 14.5t-14 34.5
q0 19 14 34t33 15zM1082 193l-150 -224l49 -34l151 224zM1529 705l-7 -94q61 -24 121.5 -62t85.5 -77q23 4 47 4q83 0 141.5 -43t58.5 -107q0 -53 -41.5 -90.5t-107.5 -37.5q-7 0 -20 1t-21 2q-34 -27 -73 -40t-74 -13q-114 0 -180 120q-33 -6 -63 -6q-75 0 -132.5 41.5
t-89.5 115.5l-74 -25q41 -99 109.5 -151.5t172.5 -52.5q9 0 19 0.5t18 2.5q34 -62 96 -93.5t129 -31.5q43 0 83.5 12t74.5 41q11 -2 21 -2.5t20 -0.5q86 0 149.5 56t63.5 152q0 103 -79 162.5t-211 59.5q-43 45 -108.5 90t-128.5 67zM1248 135l-60 -5l22 -232l60 6z
M2175 1093l-20 -60q70 -23 96 -46.5t26 -60.5q0 -29 -8.5 -73t-23 -88t-32 -74t-34.5 -30q-13 0 -42 12t-85 46l-34 -54q63 -39 100 -53.5t61 -14.5q35 0 64.5 34t51.5 86.5t34 109t12 101.5q0 59 -39.5 97.5t-126.5 67.5zM2221 1241l-22 -60q116 -42 171.5 -104.5
t55.5 -142.5q0 -65 -17 -138.5t-48.5 -138.5t-75 -106.5t-96.5 -41.5q-31 0 -74.5 14t-93.5 43l-32 -56q56 -32 108.5 -48.5t91.5 -16.5q69 0 125 45.5t95 119.5t60 159.5t21 165.5q0 101 -68.5 180t-200.5 126z" />
</svg>