<?xml version="1.0" standalone="no"?>
<!DOCTYPE svg PUBLIC "-//W3C//DTD SVG 1.1//EN" "http://www.w3.org/Graphics/SVG/1.1/DTD/svg11.dtd">
<svg xmlns="http://www.w3.org/2000/svg" xmlns:xlink="http://www.w3.org/1999/xlink" version="1.1"
   viewBox="94 -151 2414 2169">
   <path fill="currentColor"
      d="M529 1778q-146 0 -224.5 -69.5t-78.5 -190.5q0 -113 90.5 -188t240.5 -85q8 -97 59.5 -174.5t132.5 -123t177 -45.5q111 0 198.5 47t137.5 128.5t50 185.5h-80q0 -82 -39.5 -145.5t-108.5 -100.5t-158 -37q-83 0 -150.5 44.5t-107 116.5t-39.5 154v21q-97 2 -170 27
t-113 69t-40 106q0 88 55.5 135t167.5 47h1492q128 0 200.5 -56t72.5 -148q0 -98 -75.5 -157.5t-205.5 -61.5q12 -60 18 -105t6 -85q0 -101 -40 -190.5t-109.5 -157.5t-161 -107t-195.5 -39q-109 0 -206.5 43.5t-169.5 119.5t-104 176l-76 -24q38 -117 121.5 -205.5
t196.5 -138t238 -49.5q119 0 224.5 44t187 122.5t128 182.5t46.5 223q0 60 -11 124q123 20 195.5 97t72.5 188q0 128 -97 205t-256 77h-1492zM719 1036q-76 -49 -122 -129t-46 -178t48 -180.5t130.5 -132.5t184.5 -50q125 0 220.5 78t125.5 196l-70 29q-14 -69 -55.5 -120
t-99 -79t-121.5 -28q-79 0 -144 39t-104 104t-39 144q0 75 35 138t99 99zM474 1117q-37 9 -63 -7t-32.5 -46t15.5 -61l138 -196l-207 -119q-32 -19 -39 -49.5t10 -57.5t54 -33l226 -36l-57 -233q-9 -37 8 -62t47 -31t60 16l194 143l125 -207q23 -40 67 -40q25 0 43 20t22 48
l38 234l247 -55q34 -8 55 8t24.5 43.5t-17.5 56.5l-146 201l-59 -45l118 -161q4 -5 0.5 -10.5t-10.5 -3.5l-230 52l-55 -40l-37 -222q-2 -8 -9 -8q-5 0 -8 5l-115 191l-78 13l-182 -134q-5 -4 -10 -1t-4 10l53 221l-36 64l-223 36q-7 1 -8 7t5 10l196 112l20 79l-130 186
q-4 6 -0.5 10.5t9.5 3.5l211 -52l19 78z" />
</svg>