<?xml version="1.0" standalone="no"?>
<!DOCTYPE svg PUBLIC "-//W3C//DTD SVG 1.1//EN" "http://www.w3.org/Graphics/SVG/1.1/DTD/svg11.dtd">
<svg xmlns="http://www.w3.org/2000/svg" xmlns:xlink="http://www.w3.org/1999/xlink" version="1.1"
   viewBox="94 -151 2414 2169">
   <path fill="currentColor"
      d="M1300 1740q-520 0 -785 -213t-265 -634q0 -92 17 -165t52.5 -124.5t88.5 -78.5q8 -95 51.5 -174t119.5 -109q11 -50 49.5 -93.5t92.5 -70.5t109 -27q38 -50 101.5 -79t128.5 -29q27 0 54 6q33 -23 83.5 -37t102.5 -14q53 0 103 14t83 37q27 -6 54 -6q65 0 129 29t101 79
q55 0 109 27t93 70.5t49 93.5q77 30 120.5 109t50.5 174q54 27 89 78.5t52 124.5t17 165q0 421 -264.5 634t-785.5 213zM1300 1978q-198 0 -309 -38.5t-111 -106.5v-165l420 46l420 -46v165q0 68 -111 106.5t-309 38.5zM1300 1660q298 0 515.5 -77.5t336 -245t118.5 -438.5
q0 -37 -1.5 -63.5t-6.5 -54.5q-115 47 -271.5 84t-334 57.5t-356.5 20.5q-178 0 -356 -20.5t-334.5 -57.5t-271.5 -84q-5 28 -6.5 54.5t-1.5 63.5q0 271 118.5 438.5t336 245t515.5 77.5zM1355 760l-13 -58q34 -5 54 -26t20 -52q0 -17 -13 -40l55 -25q18 28 18 65
q0 53 -33 90.5t-88 45.5zM1244 513l-22 -55q27 -11 42.5 -33.5t15.5 -49.5q0 -13 -4.5 -24t-15.5 -24l50 -34q14 15 22 38.5t8 45.5q0 46 -25.5 82.5t-70.5 53.5zM1300 863q178 0 353 -20.5t327 -57.5t259 -84q-16 -44 -48 -78t-69 -44q0 -103 -48 -184.5t-119 -92.5
q-2 -45 -30 -83.5t-73.5 -63.5t-101.5 -29q-5 -1 -10.5 -1h-10.5q-30 -47 -81.5 -75t-107.5 -28q-37 0 -71 14q-25 -28 -69 -43t-100 -15t-100 15t-69 43q-34 -14 -71 -14q-55 0 -107 28t-82 75h-11.5t-11.5 1q-55 4 -100 29.5t-72.5 63.5t-30.5 83q-71 11 -119 92.5
t-48 184.5q-37 10 -68.5 44t-48.5 78q108 47 259.5 84t326.5 57.5t353 20.5zM1746 664l-13 -60q34 -5 54 -26t20 -52q0 -17 -13 -40l55 -25q18 28 18 65q0 53 -33.5 91.5t-87.5 46.5zM1603 418l-31 -51q23 -15 34 -32t11 -41q0 -37 -31 -61l43 -43q47 36 47 101q0 38 -19 71
t-54 56z" />
</svg>