<?xml version="1.0" standalone="no"?>
<!DOCTYPE svg PUBLIC "-//W3C//DTD SVG 1.1//EN" "http://www.w3.org/Graphics/SVG/1.1/DTD/svg11.dtd">
<svg xmlns="http://www.w3.org/2000/svg" xmlns:xlink="http://www.w3.org/1999/xlink" version="1.1"
   viewBox="94 -151 2414 2169">
   <path fill="currentColor"
      d="M988 1978q-93 0 -193.5 -46t-196 -123t-171.5 -173.5t-121.5 -198t-45.5 -195.5q0 -69 32.5 -133t100.5 -130q41 -40 95 -75.5t110 -68.5t103.5 -64t76.5 -62l253 -268q50 -53 97.5 -75.5t106.5 -22.5q52 0 121 18l-20 78q-28 -8 -51.5 -12t-43.5 -4q-51 0 -84.5 18.5
t-86.5 74.5l-230 245q-43 46 -116.5 91t-149 91t-126.5 94q-55 52 -81.5 102.5t-26.5 104.5q0 79 41.5 169t110.5 175.5t154 155.5t173.5 112t166.5 42q60 0 113.5 -24t96.5 -69q59 -61 101.5 -132.5t86.5 -143t107 -130.5l246 -234q41 -40 61.5 -79t20.5 -89q0 -22 -3 -46
t-11 -52l77 -20q17 66 17 118q0 67 -28 122.5t-86 110.5l-268 253q-33 31 -63 77.5t-61 100t-65.5 105.5t-75.5 94q-56 58 -123 88t-141 30zM1009 907q-18 0 -26.5 -12t-8.5 -25q0 -20 17 -37q38 -38 78.5 -95t89.5 -93q17 -12 32 -12q17 0 27.5 11t10.5 26q0 22 -24 40
q-21 16 -49.5 50t-56.5 70t-51 59q-18 18 -39 18zM1686 720q22 0 41 -19l110 -110q18 -18 18 -38q0 -17 -12 -29t-30 -12q-22 0 -41 19l-110 110q-18 18 -18 38q0 17 12 29t30 12zM1561 591q22 0 41 -19l110 -110q18 -18 18 -38q0 -17 -12 -29t-30 -12q-22 0 -41 19
l-110 110q-18 18 -18 38q0 17 12 29t30 12zM1448 436q22 0 41 -19l110 -110q18 -18 18 -38q0 -17 -12 -29t-30 -12q-22 0 -41 19l-110 110q-18 18 -18 38q0 17 12 29t30 12zM1845 830q22 0 41 -19l110 -110q18 -18 18 -38q0 -17 -12 -29t-30 -12q-22 0 -41 19l-110 110
q-18 18 -18 38q0 17 12 29t30 12zM1873 936q-49 0 -121 -41.5t-150 -108t-146 -143t-111 -147.5t-43 -120q0 -38 15.5 -74t67.5 -86l37 -36q35 -35 78 -54.5t92 -19.5q23 0 45 5.5t42 16.5q55 -61 97.5 -85.5t92.5 -24.5q52 0 82 14t55 14q16 0 27.5 -22.5t28.5 -51.5
t49.5 -51.5t89.5 -22.5q56 0 97.5 39.5t41.5 102.5q0 52 -22 85t-51.5 53t-51.5 33.5t-22 27.5q0 23 14 58t14 76q0 52 -30.5 98.5t-83.5 87.5q12 24 18 48.5t6 48.5q0 41 -17.5 82t-49.5 74l-37 38q-49 51 -82.5 68.5t-71.5 17.5zM2040 513q58 -48 79.5 -80t21.5 -62
t-15 -66.5t-15 -73.5q0 -34 22.5 -54.5t52 -37.5t52 -40t22.5 -63q0 -26 -17.5 -42t-41.5 -16q-39 0 -59 22.5t-35 51.5t-36.5 51.5t-63.5 22.5q-35 0 -71.5 -14t-65.5 -14q-33 0 -71 28t-78 74q17 60 69.5 128t120 120t129.5 65z" />
</svg>