<?xml version="1.0" standalone="no"?>
<!DOCTYPE svg PUBLIC "-//W3C//DTD SVG 1.1//EN" "http://www.w3.org/Graphics/SVG/1.1/DTD/svg11.dtd">
<svg xmlns="http://www.w3.org/2000/svg" xmlns:xlink="http://www.w3.org/1999/xlink" version="1.1"
   viewBox="94 -151 2414 2169">
   <path fill="currentColor"
      d="M1307 1978q-83 0 -147.5 -33.5t-94.5 -85.5q-112 -13 -176 -88.5t-64 -203.5q0 -14 1 -39t3 -47q-50 34 -104 59t-108 25q-72 0 -128.5 -35.5t-97.5 -113.5q-87 -43 -135 -117.5t-48 -149.5q0 -48 16 -96.5t38 -89.5q-6 -13 -9 -35t-3 -42q0 -98 61.5 -152.5t158.5 -69.5
q-63 -68 -63 -152q0 -59 32.5 -115.5t94.5 -99.5l22 80q-37 28 -53 57.5t-16 64.5q0 49 29.5 96t92.5 118q-133 10 -206 48.5t-73 124.5q0 33 12 77q-22 37 -38 89.5t-16 96.5q0 61 41.5 116.5t120.5 89.5q34 72 73.5 101t93.5 29q56 0 131.5 -40t160.5 -114q-5 41 -8.5 79
t-3.5 80q0 131 43.5 211.5t174.5 80.5q17 54 65 85t127 31q60 0 111.5 -24t111.5 -85q103 0 152.5 -63.5t49.5 -190.5q0 -28 -2.5 -57.5t-7 -61.5t-12.5 -67q58 22 113.5 34t107.5 12q94 0 145.5 -38.5t51.5 -114.5q47 -3 89 -41.5t68.5 -94.5t26.5 -109q0 -62 -31.5 -129.5
t-90.5 -103.5q-30 -111 -84 -167t-184 -66q25 -38 42.5 -103.5t17.5 -114.5q0 -64 -35 -104t-110 -66q-4 -42 -38 -80.5t-83.5 -63t-98.5 -24.5q-28 0 -63.5 9t-64.5 23q-37 -13 -74 -19.5t-70 -6.5q-79 0 -125.5 39.5t-87.5 122.5q-27 -17 -58 -26.5t-63 -13.5l-20 -83
q25 2 46.5 8.5t52.5 23.5q44 -71 106 -111t149 -40q68 0 140 25q32 -13 72.5 -20.5t72.5 -7.5q57 0 111.5 24.5t97 66.5t63.5 95q76 37 118 96.5t42 132.5q0 40 -12.5 86t-32.5 81q81 11 146 77t98 167q62 46 96.5 122t34.5 153q0 66 -27 128t-71.5 107t-99.5 63
q-13 81 -75.5 127.5t-159.5 46.5q-39 0 -83.5 -8t-88.5 -22q14 41 17.5 80.5t3.5 61.5q0 122 -67 195.5t-174 87.5q-62 56 -125 84t-135 28zM458 1978q-81 0 -106.5 -9.5t-25.5 -31.5q0 -11 6 -21.5t19 -27.5q14 -19 36 -51t53 -89q-27 0 -44 -7t-17 -26q0 -44 46 -96
t106 -107l151 9l190 -104v287l131 112q-73 76 -134.5 115t-109.5 39q-25 0 -39 -11.5t-14 -40.5q0 -6 0.5 -12.5t1.5 -13.5q-43 48 -101.5 67t-148.5 19zM626 1790q24 -33 65 -78.5t88 -92.5t89 -84l-35 -47q-27 19 -75.5 67t-98.5 103t-83 98zM793 1199q-11 0 -11 -14
q0 -26 34.5 -78.5t101.5 -131.5q-26 14 -69 28t-84.5 23.5t-65.5 9.5q-33 0 -33 -14q0 -12 38 -36.5t90 -48.5t94 -35q-53 -7 -109 -22t-93.5 -32t-37.5 -28q0 -9 20 -14.5t53 -5.5q84 0 158.5 14.5t121 38.5t46.5 51q0 20 -20.5 56t-52 77t-67 78t-66.5 60.5t-48 23.5z
M1328 1439q-12 0 -27.5 -41.5t-26.5 -99t-11 -104.5q-20 54 -46.5 103t-50.5 80t-38 31q-13 0 -13 -26q0 -41 19 -98.5t47 -113.5t57 -93.5t49 -37.5q24 0 64 36.5t81 89.5t69 105t28 82q0 14 -11 14q-13 0 -45.5 -28.5t-68.5 -71t-62 -83.5q5 26 8.5 68.5t3.5 75.5
q0 52 -7 82t-19 30zM676 369q32 0 54.5 -22.5t22.5 -54.5t-22.5 -54.5t-54.5 -22.5t-54 22.5t-22 54.5t22 54.5t54 22.5zM2348 1895q-220 0 -343 -99q2 10 2 17.5v14.5q0 28 -12 40t-36 12q-32 0 -80.5 -16.5t-99 -46t-89.5 -68.5l75 -104l-20 -251l265 33l126 -78
q48 29 86.5 66t61 73t22.5 63q0 22 -13.5 31.5t-34.5 9.5q-8 0 -19.5 -1t-18.5 -2q63 61 94.5 149.5t33.5 156.5zM2070 1672l44 -40q-70 -81 -149 -141t-154 -88l-44 45q58 24 111 58t101.5 75.5t90.5 90.5zM1279 887q-19 0 -38 -6t-36 -21q-15 -91 -41 -163.5t-70 -140
t-114 -142.5l72 -82q85 82 144.5 158t102 157t75.5 179q-12 25 -35 43t-60 18zM915 393q32 0 54 -22t22 -54t-22 -54.5t-54 -22.5t-54.5 22.5t-22.5 54.5t22.5 54t54.5 22zM913 473q-40 0 -73.5 -19t-54.5 -50q-43 45 -109 45t-111 -46.5t-45 -110.5q0 -34 13 -63t34 -51
q-25 -21 -40 -52t-15 -68q0 -65 46 -110.5t110 -45.5q41 0 75 18.5t55 50.5q43 -45 109 -45q65 0 110.5 45.5t45.5 111.5q0 34 -13 62.5t-34 50.5q26 21 40.5 51.5t14.5 67.5q0 68 -46.5 113t-111.5 45zM668 134q32 0 54 -22t22 -54t-22 -54t-54 -22t-54 22t-22 54t22 54
t54 22zM1762 1133q-18 0 -49 -23.5t-66.5 -60.5t-67 -78t-52 -77t-20.5 -56q0 -27 47 -50.5t121.5 -38.5t158.5 -15q73 0 73 20t-67.5 43.5t-177.5 40.5q39 8 92.5 32.5t94 50t40.5 37.5t-26 12q-27 0 -93.5 -16.5t-131.5 -39.5q19 17 42 46.5t44.5 62t35 59.5t13.5 39
t-11 12zM907 160q32 0 54 -22.5t22 -54.5t-22 -54.5t-54 -22.5t-54.5 22.5t-22.5 54.5t22.5 54.5t54.5 22.5zM1447 596q-37 0 -52 -46t-15 -162q0 -83 12.5 -142.5t28.5 -59.5q10 0 19 36.5t15 93.5t6 121q6 -11 11.5 -21t12.5 -21q41 -67 78 -111t54 -44q11 0 11 16
q0 22 -20.5 71t-50.5 109q-10 21 -27 44q19 -13 45 -27q59 -31 107.5 -51t72.5 -20q17 0 17 11q0 17 -44 55t-111 77q-64 37 -104.5 54t-65.5 17z" />
</svg>