<?xml version="1.0" standalone="no"?>
<!DOCTYPE svg PUBLIC "-//W3C//DTD SVG 1.1//EN" "http://www.w3.org/Graphics/SVG/1.1/DTD/svg11.dtd">
<svg xmlns="http://www.w3.org/2000/svg" xmlns:xlink="http://www.w3.org/1999/xlink" version="1.1"
   viewBox="94 -151 2414 2169">
   <path fill="currentColor"
      d="M1815 1978q-140 0 -278.5 -33.5t-269.5 -78t-251.5 -78t-224.5 -33.5q-94 0 -194.5 28.5t-165.5 81.5q-108 -187 -163 -373.5t-55 -385.5q0 -255 85.5 -474.5t242.5 -384t373 -257t477 -92.5q168 0 309 38t226 105t85 154q0 58 -39.5 91t-100.5 39q116 97 149 177t33 130
q0 74 -39 122t-122 48q-71 0 -143 -40t-193 -128l-80 -58q-69 33 -107.5 93.5t-38.5 149.5q0 109 55.5 223.5t155 224.5t232.5 206.5t289.5 169.5t324.5 113q-6 34 -56 72.5t-130 72.5t-179.5 55.5t-206.5 21.5zM441 1712q26 -230 70.5 -368t139.5 -185q70 -35 136 -42
t127 -2.5t115 4.5q77 0 119.5 -31.5t42.5 -92.5q0 -93 -80.5 -152t-202.5 -59q-51 0 -100 9.5t-94 28.5l-34 -63q70 -54 162.5 -76.5t212.5 -22.5q70 0 114.5 -30.5t44.5 -79.5q0 -56 -50 -92.5t-126 -36.5q-28 0 -56 4.5t-54 15.5l-23 -69q45 -16 89 -24t88 -8
q105 0 199 35.5t168.5 83.5t121.5 86q103 83 178.5 131t137.5 48q35 0 60.5 -20.5t25.5 -71.5q0 -69 -50 -143.5t-143 -142.5t-222 -114l17 -60q54 16 94.5 37t79 37t85.5 16q43 0 70 -17.5t27 -51.5q0 -44 -45.5 -83t-123 -69.5t-175 -47.5t-202.5 -17q-230 0 -428.5 86.5
t-347.5 241t-232.5 360t-83.5 443.5q0 158 39 313t109 292z" />
</svg>