<?xml version="1.0" standalone="no"?>
<!DOCTYPE svg PUBLIC "-//W3C//DTD SVG 1.1//EN" "http://www.w3.org/Graphics/SVG/1.1/DTD/svg11.dtd">
<svg xmlns="http://www.w3.org/2000/svg" xmlns:xlink="http://www.w3.org/1999/xlink" version="1.1"
   viewBox="94 -151 2414 2169">
   <path fill="currentColor"
      d="M1300 1978q99 0 214 -6t229 -16t210 -23t157 -27q-11 -55 -20.5 -147t-15 -196t-5.5 -194q0 -164 7 -329t22 -331q-41 -63 -70 -181.5t-44 -271t-15 -317.5q-45 -12 -117.5 -21t-145.5 -14.5t-122 -5.5q-78 65 -138 90.5t-146 25.5q-85 0 -145.5 -25.5t-138.5 -90.5
q-48 0 -121.5 5.5t-145.5 14.5t-118 21q0 165 -15 317.5t-43.5 271t-70.5 181.5q15 166 22 331t7 329q0 90 -5.5 194t-15 196t-20.5 147q61 14 157 27t210 23t229 16t214 6zM562 1720q122 -66 271 -155t309.5 -194.5t320.5 -221.5t306.5 -237t265.5 -240q-23 -67 -45 -134.5
t-37.5 -141t-21.5 -157.5q-135 150 -301.5 293t-348.5 275.5t-364 252.5t-348 224q0 44 -0.5 100t-1 116.5t-2 117t-3.5 102.5zM1300 1898q-116 0 -249.5 -7t-257.5 -19.5t-212 -28.5q9 -61 15.5 -141.5t10.5 -167.5t4 -165q0 -162 -8.5 -318.5t-22.5 -319.5
q36 -59 60.5 -145.5t39.5 -187.5t21.5 -203.5t6.5 -191.5q41 -7 92.5 -12.5t101.5 -8.5t86 -4q55 53 138 74.5t174 21.5t174 -21.5t138 -74.5q36 1 86 4t101.5 8.5t92.5 12.5q0 93 6.5 196t21.5 203t39.5 185t60.5 144q-14 163 -22.5 319.5t-8.5 318.5q0 78 4 165
t10.5 167.5t15.5 141.5q-88 16 -212 28.5t-257.5 19.5t-249.5 7zM1300 455q152 0 258.5 -59.5t165 -175t64.5 -284.5l-60 -5q-7 108 -33 194t-76 146t-128.5 92t-190.5 32t-190.5 -32t-128.5 -92t-76 -146t-33 -194l-60 5q7 169 65 284.5t164.5 175t258.5 59.5zM1300 291
q111 0 182.5 -49t109 -133t46.5 -190q-75 54 -153 85.5t-185 31.5t-185 -31.5t-153 -85.5q10 106 47 190t108.5 133t182.5 49z" />
</svg>