<?xml version="1.0" standalone="no"?>
<!DOCTYPE svg PUBLIC "-//W3C//DTD SVG 1.1//EN" "http://www.w3.org/Graphics/SVG/1.1/DTD/svg11.dtd">
<svg xmlns="http://www.w3.org/2000/svg" xmlns:xlink="http://www.w3.org/1999/xlink" version="1.1"
   viewBox="94 -151 2414 2169">
   <path fill="currentColor"
      d="M1300 1978q-392 0 -592.5 -91.5t-257.5 -296.5l-95 -343q-17 -63 -41 -89t-81 -45q-94 -32 -135 -77.5t-41 -120.5q0 -76 28 -143.5t72.5 -109.5t94.5 -42q28 0 61.5 11.5t75.5 35.5q154 -111 328 -177.5t382 -85.5l17 80q-211 19 -386 87t-336 190q-49 -31 -84 -46
t-58 -15q-26 0 -53 33t-44.5 82.5t-17.5 99.5q0 46 25.5 72.5t95.5 49.5q77 25 114 65.5t60 123.5l95 343q49 175 230.5 253t542.5 78q362 0 543 -78t230 -253l95 -343q23 -83 60.5 -123.5t113.5 -65.5q70 -23 95.5 -49.5t25.5 -72.5q0 -50 -17.5 -99.5t-44 -82.5t-53.5 -33
q-22 0 -57.5 15t-84.5 46q-125 -99 -266.5 -161t-310.5 -91t-377 -29l112 -77q251 6 461 71.5t386 192.5q42 -24 75.5 -35.5t61.5 -11.5q50 0 94.5 42t72.5 109.5t28 143.5q0 75 -40.5 120.5t-135.5 77.5q-57 19 -81 45t-41 89l-95 343q-57 205 -257.5 296.5t-592.5 91.5z
M1030 1106q35 0 62.5 -9.5t27.5 -20.5q0 -50 -48 -85t-116 -35q-40 0 -66 18t-26 46q0 17 27.5 37.5t66 34.5t72.5 14zM1312 1075q39 0 62.5 -12t23.5 -31q0 -70 -90 -70q-22 0 -45 24t-23 46q0 19 20.5 31t51.5 12zM1623 1107q29 0 54 -28t25 -59q0 -44 -63 -44
q-25 0 -53.5 16.5t-49 39t-20.5 41.5q0 18 25 26t82 8zM1286 597q-115 0 -188 -61t-73 -160q0 -76 58 -139.5t215 -131.5l60 -26q87 -38 119 -60.5t32 -47.5q0 -35 -33 -73q115 0 188 59.5t73 158.5q0 76 -58 139.5t-215 131.5l-60 26q-87 37 -119 60t-32 48q0 38 33 76z
M1185 490q0 -39 42.5 -72.5t142.5 -76.5l60 -26q130 -56 178.5 -101t48.5 -100q0 -43 -22.5 -73.5t-57.5 -38.5q0 39 -42.5 72t-142.5 77l-60 26q-130 56 -178.5 101t-48.5 100q0 43 23 73.5t57 38.5zM502 933q0 -71 64 -134t175 -112t255 -77t304 -28t304 28t255 77
t175 112t64 134q0 70 -62 132t-171.5 108.5t-254.5 73t-310 26.5t-310 -26.5t-254.5 -73t-171.5 -108.5t-62 -132zM582 933q0 44 50 88q20 -41 84 -79t157.5 -68t204 -47.5t222.5 -17.5t222.5 17.5t204 47.5t157.5 68t84 79q50 -44 50 -88q0 -50 -61 -98.5t-164.5 -87.5
t-231 -62t-261.5 -23q-133 0 -261 23t-231.5 62t-164.5 87.5t-61 98.5z" />
</svg>