<?xml version="1.0" standalone="no"?>
<!DOCTYPE svg PUBLIC "-//W3C//DTD SVG 1.1//EN" "http://www.w3.org/Graphics/SVG/1.1/DTD/svg11.dtd">
<svg xmlns="http://www.w3.org/2000/svg" xmlns:xlink="http://www.w3.org/1999/xlink" version="1.1"
   viewBox="94 -151 2414 2169">
   <path fill="currentColor"
      d="M2249 1978q-34 0 -77 -58.5t-75 -158t-32 -223.5q0 -55 2 -116t4.5 -120t2.5 -107q0 -144 -47 -280.5t-131 -254.5t-197.5 -207t-248.5 -139.5t-281 -50.5q-54 0 -123 3.5t-143 7.5t-145.5 7.5t-131.5 3.5q-59 0 -120 -13.5t-112 -38t-82.5 -58t-31.5 -73.5
q0 -23 11.5 -37t30.5 -14q22 0 63 19q44 20 111.5 40.5t192.5 20.5q64 0 133 -5.5t135.5 -13t125.5 -13t102 -5.5q172 0 329 55.5t288 155.5t228 233.5t150.5 290.5t53.5 326q0 82 -4 145t-7.5 120.5t-3.5 124.5q0 95 18 167t36 123q11 32 17 54.5t6 39.5q0 22 -13 35.5
t-34 13.5zM889 1685l-317 -316q78 -94 144 -154t124.5 -89t111.5 -29q54 0 100.5 29.5t74.5 78t28 104.5q0 84 -67 178.5t-199 197.5zM893 1576q182 -151 182 -266q0 -53 -37.5 -93t-86.5 -40q-52 0 -120.5 48t-148.5 140zM664 1326l-314 -1141l76 -20l313 1133zM2217 1925
l-1277 -330l34 -74l1263 327zM681 1632l-55 -57l1320 -1348l56 56zM2143 296l70 -289l-293 73q4 64 14 96.5t34 55.5l17 16q24 23 59.5 34t98.5 14zM2205 379q-81 -2 -131.5 -8.5t-83 -21.5t-61.5 -42l-17 -16q-42 -39 -58 -95.5t-16 -177.5l482 -120z" />
</svg>