<?xml version="1.0" standalone="no"?>
<!DOCTYPE svg PUBLIC "-//W3C//DTD SVG 1.1//EN" "http://www.w3.org/Graphics/SVG/1.1/DTD/svg11.dtd">
<svg xmlns="http://www.w3.org/2000/svg" xmlns:xlink="http://www.w3.org/1999/xlink" version="1.1"
   viewBox="94 -151 2414 2169">
   <path fill="currentColor"
      d="M902 1501q-101 0 -171 -71.5t-70 -175.5v-10.5t1 -4.5q-88 -15 -145 -83t-57 -159q0 -94 67 -168t182 -109q-112 -47 -179 -138t-67 -199q0 -75 34.5 -136t93 -96.5t129.5 -35.5h15t7 1q11 -63 46.5 -112t87.5 -77.5t112 -28.5q63 0 124 35t110.5 96.5t77.5 140.5
q28 -79 77.5 -140.5t111 -96.5t123.5 -35q60 0 112 28.5t88 77.5t46 112q3 -1 7.5 -1h14.5q72 0 130 35.5t92.5 96.5t34.5 136q0 108 -66.5 199t-179.5 138q116 35 182.5 109t66.5 168q0 91 -56.5 159t-145.5 83q1 2 1 4.5v10.5q0 104 -70 175.5t-171 71.5
q-94 0 -178.5 -51.5t-143.5 -139t-76 -195.5q-17 108 -76 195.5t-143.5 139t-178.5 51.5zM1514 1978q-131 -79 -193.5 -226t-62.5 -379v-281h90v281q0 209 51.5 335.5t163.5 194.5zM902 1421q100 0 181 -66t129 -180t48 -257h80q0 143 48 257t129.5 180t180.5 66
q68 0 114.5 -48t46.5 -119q0 -15 -1.5 -32t-6.5 -46q4 1 8 1h9q81 0 136.5 -52t55.5 -128q0 -67 -50 -119.5t-136.5 -83t-196.5 -30.5h-213v-80h213q107 0 193 -40.5t136.5 -108.5t50.5 -152q0 -79 -51 -133.5t-126 -54.5q-19 0 -37 2.5t-40 9.5v-5v-7q0 -53 -24.5 -102.5
t-67.5 -82t-99 -32.5q-64 0 -126.5 50t-104 133.5t-41.5 184.5v226h-80v-226q0 -101 -41.5 -184.5t-104 -133.5t-126.5 -50q-56 0 -99 32.5t-67.5 82t-24.5 102.5v7v5q-20 -7 -38 -9.5t-39 -2.5q-74 0 -125.5 54t-51.5 134q0 84 50.5 152t137 108.5t192.5 40.5h213v80h-213
q-109 0 -196 30.5t-137 83t-50 119.5q0 76 55.5 128t136.5 52h11t6 -1q-4 29 -6 46t-2 32q0 71 46.5 119t114.5 48z" />
</svg>