<?xml version="1.0" standalone="no"?>
<!DOCTYPE svg PUBLIC "-//W3C//DTD SVG 1.1//EN" "http://www.w3.org/Graphics/SVG/1.1/DTD/svg11.dtd">
<svg xmlns="http://www.w3.org/2000/svg" xmlns:xlink="http://www.w3.org/1999/xlink" version="1.1"
   viewBox="94 -151 2414 2169">
   <path fill="currentColor"
      d="M1252 1978q-79 0 -153 -50.5t-142 -136.5t-129.5 -194.5t-117 -226.5t-104.5 -231.5t-90.5 -209.5t-75.5 -160l-42 -79q-45 -84 -92 -134.5t-87 -81.5t-64.5 -56t-24.5 -59q0 -35 30 -55.5t79 -20.5q141 0 247.5 60.5t187 169t143.5 251.5l65 146q51 114 90 222t74 189.5
t74 119.5q21 -81 76 -140t132 -91t163 -32q118 0 208 48.5t141 133t51 193.5q0 49 -19 77t-54 28q-46 0 -78.5 -25.5t-63 -59.5t-68.5 -59.5t-94 -25.5q-69 0 -101.5 47.5t-32.5 140.5q0 35 4 68.5t4 68.5q0 73 -38 119t-98 46zM1252 1898q30 0 43 -22.5t13 -72.5
q0 -24 -4 -58t-4 -69q0 -131 54.5 -199.5t159.5 -68.5q68 0 113.5 23.5t75.5 54t51 54t39 23.5q9 0 14 -9t5 -29q0 -63 -39 -124.5t-111 -102t-171 -40.5q-91 0 -167 45.5t-123 124t-53 178.5q-46 -45 -84.5 -102.5t-71.5 -124t-63.5 -138t-60 -145t-60.5 -146.5l-62 -144
q-58 -135 -128.5 -233t-165.5 -152t-229 -56q-5 0 -5 3q0 1 4 4q45 31 90 75t84.5 93.5t65.5 99.5l42 79q35 65 82.5 176t105.5 244.5t124.5 266.5t138 244.5t147 179.5t150.5 68zM1136 1469h-44q-37 -98 -47 -168.5t-10 -133.5q0 -121 46.5 -239t125.5 -212.5t174 -142.5
l26 42q-102 106 -154 220.5t-52 259.5q53 -100 164 -158.5t248 -58.5q89 0 183 25.5t181 73.5l-6 55q-86 -51 -156.5 -73.5t-138.5 -22.5q-139 0 -245 58.5t-179.5 177t-115.5 297.5zM1720 1152q-66 -14 -101 -59t-35 -115q0 -13 1 -26.5t4 -27.5q137 29 137 171q0 27 -6 57
zM903 1071l-78 -163v-100q0 -132 42 -263t115 -247.5t167.5 -206.5t201 -141.5t214.5 -51.5q26 0 38.5 8.5t12.5 22.5q0 25 -46.5 73.5t-115 119.5t-137.5 166.5t-115.5 215t-46.5 264.5v95l-80 134v-229q0 -145 48 -287t138.5 -268.5t215.5 -223.5q-102 30 -190 91.5
t-158.5 145.5t-121 183.5t-77.5 206t-27 212.5v243zM1879 1159q-66 -14 -101 -59t-35 -115q0 -13 1 -26.5t4 -27.5q137 29 137 171q0 27 -6 57zM2041 1266q-119 -47 -119 -170q0 -51 20 -102q119 47 119 168q0 51 -20 104zM1610 895q-8 0 -17 -0.5t-19 -1.5q17 -92 65 -141
t119 -49q9 0 18.5 0.5t19.5 2.5q-15 91 -64.5 140t-121.5 49zM1505 685q-82 0 -145 -71q63 -72 145 -72q81 0 145 72q-65 71 -145 71zM1329 641q-17 -36 -17 -81q0 -82 44.5 -148.5t112.5 -87.5q11 27 11 62q0 69 -41 138.5t-110 116.5zM2273 1293q-88 -3 -137.5 -61.5
t-49.5 -160.5q89 3 138 60.5t49 161.5zM1850 927q-58 0 -111 -24q32 -62 82.5 -91.5t105.5 -29.5q65 0 124 38q-41 56 -93.5 81.5t-107.5 25.5zM2066 1045q-82 0 -145 -71q63 -72 145 -72q81 0 145 72q-65 71 -145 71zM1756 581q-103 0 -154 -87q63 -51 128 -51
q98 0 153 100q-67 38 -127 38zM1505 474q-4 -15 -4 -36q0 -45 25 -91.5t68 -84t96 -55.5q2 14 3.5 28.5t1.5 28.5q0 91 -53.5 150.5t-136.5 59.5zM1718 401q0 -56 26.5 -104t70 -77t94.5 -29q0 100 -50 155t-141 55zM2007 525q-60 0 -106 -30.5t-66 -85.5q56 -31 106 -31
q55 0 98 34t65 94q-55 19 -97 19zM2328 557q-103 0 -162.5 -50t-59.5 -137q104 0 163 49.5t59 137.5zM2010 340q-27 0 -59 -9q0 -69 54.5 -114.5t128.5 -45.5q33 0 68 11q-64 158 -192 158zM2332 377q-79 0 -139 -68q60 -68 139 -68q78 0 138 68q-60 68 -138 68z" />
</svg>