<?xml version="1.0" standalone="no"?>
<!DOCTYPE svg PUBLIC "-//W3C//DTD SVG 1.1//EN" "http://www.w3.org/Graphics/SVG/1.1/DTD/svg11.dtd">
<svg xmlns="http://www.w3.org/2000/svg" xmlns:xlink="http://www.w3.org/1999/xlink" version="1.1"
   viewBox="94 -151 2414 2169">
   <path fill="currentColor"
      d="M1327 1527q-138 0 -250 -59t-178.5 -159t-66.5 -223q0 -65 14.5 -137.5t50.5 -189.5q27 -88 44 -154.5t25 -118.5t8 -95l108 -45q47 -10 109.5 -15.5t135.5 -5.5q95 0 175 9t129 24t49 33q0 43 8 95t25 118.5t44 154.5q36 117 50.5 189.5t14.5 137.5q0 123 -66 223
t-178.5 159t-250.5 59zM1327 1978q-166 0 -262.5 -31.5t-96.5 -88.5q0 -40 41 -70.5t108.5 -48t146.5 -17.5v76q-54 0 -102 7.5t-78 20t-30 27.5q0 19 82 32t191 13q110 0 191.5 -13t81.5 -32q0 -15 -30 -27.5t-78 -20t-102 -7.5v-76q80 0 147 17.5t108 48t41 70.5
q0 57 -96 88.5t-263 31.5zM1327 1815q-67 0 -105.5 -14t-38.5 -27t15.5 -30.5t30.5 -38.5t15 -43v-177h166v177q0 22 15.5 43t31 38.5t15.5 30.5t-38.5 27t-106.5 14zM1184 1242q14 0 24 -9.5t10 -23.5q0 -19 -21 -35q-47 -35 -47 -90q0 -35 6.5 -71t22.5 -85
q8 -23 -3.5 -37t-27.5 -14q-26 0 -35 30q-13 46 -22 89.5t-9 87.5q0 92 79 150q11 8 23 8zM1327 1379q-98 0 -173.5 -39t-118.5 -107.5t-43 -156.5q0 -51 10.5 -102.5t24.5 -103t24 -103.5q50 -16 123.5 -27t152.5 -11t153 11t123 27q11 52 24.5 103.5t24 103t10.5 102.5
q0 88 -43 156.5t-118.5 107.5t-173.5 39zM1327 1449q116 0 210 -48.5t149.5 -131t55.5 -183.5q0 -60 -13 -124.5t-48 -178.5q-36 -117 -53.5 -196t-24.5 -155q-47 11 -121.5 18t-154.5 7q-81 0 -155 -7t-121 -18q-7 76 -24.5 155t-53.5 196q-35 114 -48 178.5t-13 124.5
q0 101 55.5 183.5t149.5 131t210 48.5zM1075 404l-325 -34v-71l264 31l22 -225l68 10zM827 599q-55 -65 -84 -135t-29 -136q0 -81 42 -145.5t109.5 -102t144.5 -37.5q78 0 153 42t135 122zM838 501l363 -302q-90 -88 -191 -88q-60 0 -112 29t-84 78.5t-32 110.5q0 84 56 172
zM1323 1053l-76 -47l328 -788q11 -28 40.5 -51t62.5 -30l250 -54l18 87l-250 53q-16 3 -28 15t-18 26zM1038 406l-384 -463l52 -45l384 463zM783 122q-35 0 -60 -25t-25 -60t25 -59.5t60 -24.5t59.5 24.5t24.5 59.5t-24.5 60t-59.5 25z" />
</svg>