<?xml version="1.0" standalone="no"?>
<!DOCTYPE svg PUBLIC "-//W3C//DTD SVG 1.1//EN" "http://www.w3.org/Graphics/SVG/1.1/DTD/svg11.dtd">
<svg xmlns="http://www.w3.org/2000/svg" xmlns:xlink="http://www.w3.org/1999/xlink" version="1.1"
   viewBox="94 -151 2414 2169">
   <path fill="currentColor"
      d="M1453 1081q-257 0 -382.5 -121.5t-125.5 -369.5q0 -160 76.5 -287.5t207.5 -201.5t296 -74q166 0 296.5 74t206 201.5t75.5 288.5q0 184 -75 291t-220 153t-355 46zM1146 1692q-17 0 -29.5 -12.5t-12.5 -29.5t12.5 -29.5t29.5 -12.5t29.5 12.5t12.5 29.5t-12.5 29.5
t-29.5 12.5zM1138 1978q-151 -61 -319.5 -85t-321.5 -34q28 -67 82 -116.5t124.5 -87t149.5 -70.5t157 -67q92 -41 153.5 -81.5t90.5 -95t23 -135.5l542 -19q9 121 -12.5 220t-83.5 172t-176 118q-123 48 -198.5 84t-123 80t-87.5 117zM1083 1905q31 -55 85.5 -99.5
t120.5 -79t130 -56.5q132 -46 200 -99.5t92 -132t24 -197.5l35 32l-449 13l36 -32q-7 106 -67 172t-152 110q-65 31 -143 64t-153.5 68.5t-133.5 75t-83 85.5l-43 -45q71 3 170 15.5t197.5 34t168.5 52.5zM1321 1609q-17 0 -29.5 -12.5t-12.5 -29.5t12.5 -29.5t29.5 -12.5
t29.5 12.5t12.5 29.5t-12.5 29.5t-29.5 12.5zM1467 1498q-17 0 -29.5 -12.5t-12.5 -29.5t12.5 -29.5t29.5 -12.5t29.5 12.5t12.5 29.5t-12.5 29.5t-29.5 12.5zM1550 1325q-31 0 -31 -35v-274l72 -4v278q0 19 -11 27t-30 8zM1142 556q-16 -4 -24 -19.5t-2 -36.5
q26 -90 85 -161.5t141 -119.5q18 -11 35 -7.5t26 19.5q8 14 -1 29t-31 28q-136 79 -180 226q-7 22 -20 34t-29 8zM1453 1001q207 0 332.5 -41t181.5 -131t56 -238q0 -139 -65 -248.5t-177.5 -172.5t-255.5 -63q-142 0 -255.5 63t-179 172.5t-65.5 247.5q0 214 102 312.5
t326 98.5zM1379 57l-32 -105q-7 -22 -2 -35t24 -17q26 -6 39 5t18 28l30 102zM1380 890q-25 17 -49.5 9.5t-34.5 -24.5q-8 -14 -9 -36.5t23 -44.5q-9 0 -24 -6q-25 -10 -33.5 -36.5t2.5 -46.5q9 -17 27.5 -31.5t49.5 -3.5q21 8 31 23q3 -9 8 -20q14 -27 40 -28t41 10
q16 10 23 32.5t-5 42.5q-6 10 -16 17q21 -1 49 19q16 11 16.5 33t-7.5 35q-7 13 -31 22t-49 -4q-7 -4 -12 -11t-8 -12q0 15 -6.5 31.5t-25.5 29.5zM1403 795q3 -32 27 -40q-19 3 -35 -5.5t-23 -21.5q2 26 -18 46q17 0 29.5 7t19.5 14zM1725 530q11 -22 25.5 -24.5t30.5 4.5
q-13 -12 -12 -26t8 -24q-33 0 -48 -22q-2 13 -10.5 24t-25.5 16q16 9 23.5 23.5t8.5 28.5zM1791 652q-33 4 -54.5 -20.5t-21.5 -61.5q-6 15 -29 29.5t-50 14.5t-47 -28q-21 -31 -2.5 -65t49.5 -44q-52 -17 -59.5 -58t8.5 -61q26 -32 69 -19.5t60 47.5q1 -49 34.5 -66
t53.5 -9q46 19 46 58.5t-21 60.5q39 -13 63 7.5t22 43.5q-4 36 -27 48.5t-58 12.5q30 44 10.5 75.5t-46.5 34.5z" />
</svg>