<?xml version="1.0" standalone="no"?>
<!DOCTYPE svg PUBLIC "-//W3C//DTD SVG 1.1//EN" "http://www.w3.org/Graphics/SVG/1.1/DTD/svg11.dtd">
<svg xmlns="http://www.w3.org/2000/svg" xmlns:xlink="http://www.w3.org/1999/xlink" version="1.1"
   viewBox="94 -151 2414 2169">
   <path fill="currentColor"
      d="M908 1978q-196 0 -336.5 -73.5t-216 -211.5t-75.5 -331q0 -140 40 -288.5t114.5 -294.5t177.5 -277.5t229 -235.5q139 -115 285 -197.5t292.5 -126.5t286.5 -44q303 0 459 160.5t156 484.5q0 267 -108.5 514.5t-319.5 466.5q-211 220 -464.5 337t-519.5 117zM958 992
l-167 -143q-22 -19 -4 -42q8 -11 20.5 -11t22.5 8l167 143q11 9 11.5 20t-7.5 22q-8 10 -20.5 10.5t-22.5 -7.5zM1105 840l-167 -143q-22 -19 -4 -42q8 -11 20.5 -11t22.5 8l167 143q11 9 11.5 20t-7.5 22q-8 10 -20.5 10.5t-22.5 -7.5zM479 1777l-68 -50q48 -160 129 -336
t193.5 -351.5t255.5 -336t316.5 -291.5t375.5 -216.5t432 -110.5l60 76q-232 19 -433.5 99t-373.5 205.5t-313.5 283t-252.5 332t-191 352.5t-130 344zM908 1898q250 0 487 -110t439 -320q201 -209 303.5 -441t102.5 -484q0 -291 -133 -428t-402 -137q-131 0 -268 42
t-274.5 120.5t-269.5 187.5q-159 131 -279 306t-187 364t-67 364q0 256 143.5 396t404.5 140zM893 1095q47 0 83 -17.5t74.5 -55t93.5 -97.5q60 -66 130 -139.5t138.5 -141.5t121.5 -116q67 -60 84.5 -85.5t17.5 -58.5t-31 -67.5t-77 -57.5t-92 -23q-58 0 -127 30.5
t-146 89.5q-51 39 -111.5 94.5t-120 119.5t-107.5 127t-74 117q-16 33 -23 61.5t-7 58.5q0 39 11 66.5t32 43.5q27 20 66.5 35.5t63.5 15.5zM893 1175q-36 0 -88.5 -19.5t-89.5 -47.5t-56 -73t-19 -101q0 -38 9.5 -76.5t28.5 -77.5q28 -59 79.5 -126.5t115 -135.5t127 -127
t115.5 -99q84 -65 167.5 -100.5t153.5 -35.5q69 0 133 33.5t105.5 86t41.5 108.5q0 65 -34.5 108t-93.5 96q-51 46 -117 112t-136 139t-133 141q-82 89 -146.5 142t-162.5 53zM1264 675l-167 -143q-22 -19 -4 -42q8 -11 20.5 -11t22.5 8l167 143q11 9 11.5 20t-7.5 22
q-8 10 -20.5 10.5t-22.5 -7.5zM1421 530l-167 -143q-22 -19 -4 -42q8 -11 20.5 -11t22.5 8l167 143q11 9 11.5 20t-7.5 22q-8 10 -20.5 10.5t-22.5 -7.5z" />
</svg>