<?xml version="1.0" standalone="no"?>
<!DOCTYPE svg PUBLIC "-//W3C//DTD SVG 1.1//EN" "http://www.w3.org/Graphics/SVG/1.1/DTD/svg11.dtd">
<svg xmlns="http://www.w3.org/2000/svg" xmlns:xlink="http://www.w3.org/1999/xlink" version="1.1"
   viewBox="94 -151 2414 2169">
   <path fill="currentColor"
      d="M323 1047q57 -26 106 -53.5t92 -57.5q135 -94 215 -201t126 -216t78 -206q25 -73 48.5 -134t55.5 -107.5t79 -76.5l-42 -61q-94 58 -140 151.5t-85 208.5q-32 95 -74 196.5t-114 199t-193 181.5q-40 28 -85.5 53.5t-98.5 48.5zM2071 1623l28 -76q-208 -76 -412 -185.5
t-390 -239.5t-342 -267.5t-269.5 -272t-171.5 -251.5l-72 36q64 130 186.5 273t286.5 286t355.5 274.5t396 240t404.5 182.5zM1278 1939l77 -31q-103 -124 -169.5 -239t-99 -219t-32.5 -194q0 -107 47.5 -193.5t139 -148t224 -94t302.5 -32.5q113 0 242.5 14.5t274.5 46.5
l9 -79q-145 -32 -277 -46t-248 -14q-189 0 -336.5 38.5t-250 110t-155.5 172t-53 225.5q0 96 32.5 205.5t100.5 229.5t172 248zM620 1635q6 -141 58.5 -294t141.5 -305t202 -290q123 -151 266.5 -275t294.5 -206.5t295 -105.5l-48 -73q-149 31 -302 117.5t-298 212.5
t-269 278q-115 140 -205 293.5t-146 309t-68 301.5zM1301 1978q213 0 401 -81.5t331.5 -225t225 -332t81.5 -401.5t-81.5 -401.5t-225 -332t-331.5 -225t-401 -81.5q-214 0 -402.5 81.5t-332 225t-225 332t-81.5 401.5t81.5 401.5t225 332t332 225t402.5 81.5zM1301 1898
q-197 0 -371 -75.5t-306.5 -208t-208 -306t-75.5 -370.5t75.5 -370.5t208 -306t306.5 -208t371 -75.5t370.5 75.5t305.5 208t207.5 306t75.5 370.5t-75.5 370.5t-207.5 306t-305.5 208t-370.5 75.5z" />
</svg>