<?xml version="1.0" standalone="no"?>
<!DOCTYPE svg PUBLIC "-//W3C//DTD SVG 1.1//EN" "http://www.w3.org/Graphics/SVG/1.1/DTD/svg11.dtd">
<svg xmlns="http://www.w3.org/2000/svg" xmlns:xlink="http://www.w3.org/1999/xlink" version="1.1"
   viewBox="94 -151 2414 2169">
   <path fill="currentColor"
      d="M1203 1435q-160 0 -299.5 -59.5t-245 -165t-165 -245t-59.5 -299.5q0 -159 59.5 -298.5t165 -245t245 -165t299.5 -59.5t299.5 59.5t245 165t165 245t59.5 298.5q0 160 -59.5 299.5t-165 245t-245 165t-299.5 59.5zM2013 1827q23 -17 6 -41l-69 -99q-7 -11 -18 -14t-22 5
q-23 16 -5 41l68 98q8 11 19 14t21 -4zM1983 1978l-532 -762l183 -128l532 761zM1128 696q32 0 32 -48q0 -23 10 -41t29 -31q24 -16 24 -35q0 -30 -33 -30t-64 42.5t-31 94.5q0 48 33 48zM1307 1144q103 0 173.5 -45.5t114 -118t63 -155.5t19.5 -158q0 -89 -31 -182.5
t-86.5 -173.5t-128.5 -129t-157 -49q-91 0 -146 39.5t-89.5 100t-62 125t-64.5 113.5q-39 52 -79 102.5t-66.5 111t-26.5 143.5q0 67 30 124t83.5 92t125.5 35q36 0 66.5 -8.5t68.5 -8.5q49 0 96.5 21t96.5 21zM1236 861q-58 0 -106.5 -28.5t-77 -77t-28.5 -106.5t28.5 -106
t77 -76.5t106.5 -28.5q59 0 106.5 28t76 76t28.5 107q0 58 -28.5 106.5t-76.5 77t-106 28.5z" />
</svg>