<?xml version="1.0" standalone="no"?>
<!DOCTYPE svg PUBLIC "-//W3C//DTD SVG 1.1//EN" "http://www.w3.org/Graphics/SVG/1.1/DTD/svg11.dtd">
<svg xmlns="http://www.w3.org/2000/svg" xmlns:xlink="http://www.w3.org/1999/xlink" version="1.1"
   viewBox="94 -151 2414 2169">
   <path fill="currentColor"
      d="M1305 1249q-31 -57 -68 -91t-79.5 -49t-91.5 -15q-73 0 -133 58t-135 201q-61 116 -117 188.5t-105 106.5t-91 34q-43 0 -75.5 -23t-32.5 -74q0 -45 19 -87t19 -82q0 -182 51.5 -311.5t143.5 -199t214 -69.5q92 0 180.5 32t167.5 89t140 134q64 -93 157 -146.5t199 -53.5
q173 0 261 104t111 328q10 97 24.5 159.5t29 100.5t24 62.5t9.5 47.5q0 52 -37 81t-96 29q-70 0 -130.5 -26.5t-110 -82.5t-88.5 -144t-66 -211q-28 -126 -48 -189.5t-41.5 -85.5t-54.5 -22l23 -78q45 0 76 28.5t57.5 100.5t56.5 201q29 121 63 204t74 132t87 71t102 22
q29 0 41 -7.5t12 -22.5q0 -8 -2.5 -16.5t-11.5 -29.5q-15 -35 -36 -104t-36 -212q-20 -196 -91 -278t-202 -82q-75 0 -143 32t-123.5 93.5t-96.5 152.5zM626 1936q-34 0 -59.5 -27.5t-25.5 -65.5q0 -40 25.5 -68t59.5 -28q35 0 59.5 27.5t24.5 66.5t-25 67t-59 28zM657 1878
l-22 -77q184 -38 324.5 -134.5t224.5 -238t98 -312.5l76 28q-18 183 -110 334t-243 255t-348 145zM883 1978q-186 0 -295 -78l16 -134q135 -112 230.5 -228t146 -222.5t50.5 -188.5q0 -11 -0.5 -23.5t-2.5 -21.5l61 -57q10 2 16 35t6 67q0 93 -50.5 206t-147 234.5
t-233.5 238.5l-6 52q80 40 209 40q251 0 438.5 -162.5t275.5 -456.5l71 31q-61 210 -175 359.5t-269 229t-341 79.5zM2144 1412q-28 0 -54.5 -11t-72.5 -37l-132 -382l-262 -49v-95q26 -23 67.5 -35t79.5 -12q100 0 190 74.5t122 217.5q23 99 55 158.5t44 72.5l12 13
q30 33 30 48t-23 26t-56 11zM1681 964l-82 -31q0 -183 -37 -354t-100.5 -306.5t-143 -215t-165.5 -79.5q-70 0 -110 51t-40 131q0 25 5 68t15.5 108t26.5 158q21 118 34 200t19.5 139.5t8.5 101.5l-80 6q-2 -68 -16 -170.5t-42 -247.5q-26 -138 -38.5 -226.5t-12.5 -136.5
q0 -75 29 -134.5t81 -93.5t120 -34q106 0 201.5 85.5t169 234t115.5 341t42 405.5zM1153 1044q-70 -59 -155.5 -93.5t-173.5 -34.5q-97 0 -171 58.5t-116 170t-42 271.5q0 33 -8 61.5t-17 51.5q-10 25 -11.5 38t-1.5 20q0 15 21 15q27 0 62.5 -27t81.5 -89t103 -167
q64 -118 117.5 -183.5t103 -92.5t101.5 -27q31 0 56 3.5t52 15.5z" />
</svg>