<?xml version="1.0" standalone="no"?>
<!DOCTYPE svg PUBLIC "-//W3C//DTD SVG 1.1//EN" "http://www.w3.org/Graphics/SVG/1.1/DTD/svg11.dtd">
<svg xmlns="http://www.w3.org/2000/svg" xmlns:xlink="http://www.w3.org/1999/xlink" version="1.1"
   viewBox="94 -151 2414 2169">
   <path fill="currentColor"
      d="M958 1317q0 -252 -38 -440.5t-118 -327t-208 -239.5l66 17q-72 0 -117 -30t-45 -67q0 -28 27.5 -47t66.5 -19q48 0 87 31.5t39 69.5l379 122q118 63 216 130.5t162 132.5q131 130 193.5 273t62.5 316l-77 5q0 -165 -56.5 -295t-182.5 -251q-120 -115 -295 -212t-437 -182
l18 -2q170 157 253.5 406.5t83.5 608.5h-80zM971 1978q-133 0 -243 -64.5t-175 -173t-65 -240.5t65 -240.5t175 -173t243 -64.5q100 0 187.5 37t154 103t104 152.5t37.5 185.5q0 132 -65 240.5t-174.5 173t-243.5 64.5zM971 1898q112 0 203 -53.5t145.5 -144t54.5 -200.5
t-54.5 -200.5t-145.5 -144t-203 -53.5q-111 0 -202.5 53.5t-146 144t-54.5 200.5t54.5 200.5t146 144t202.5 53.5zM1008 1391q-57 0 -109.5 -22.5t-89.5 -67.5l59 -51q27 32 62 48t75 16q20 0 52 -6.5t61 -19.5l36 66q-34 19 -71 28t-75 9zM1652 1878q-98 0 -184.5 -38.5
t-149.5 -105.5l54 -59q53 57 125 90t155 33q105 0 191 -51.5t137.5 -138t51.5 -191.5t-51.5 -192.5t-137.5 -139.5t-191 -52q-109 0 -199 56.5t-139 145.5l-66 -40q59 -107 166.5 -172.5t237.5 -65.5q127 0 231.5 62t166.5 166.5t62 231.5t-62 231.5t-166.5 167t-231.5 62.5
zM1715 1307q-65 0 -123.5 -28t-93.5 -81l61 -47q29 40 69 59t85 19q49 0 99 -19l30 69q-60 28 -127 28zM1147 322q175 0 334.5 -76.5t304.5 -229.5l15 35q-139 -38 -247.5 -55.5t-206.5 -17.5q-211 0 -375.5 70.5t-272.5 203.5l-14 -34q126 52 240 78t222 26zM1147 400
q-118 0 -247 -30.5t-267 -91.5l-18 -47q114 -163 301.5 -248t430.5 -85q104 0 230 20.5t321 73.5q-123 145 -240.5 235t-242 131.5t-268.5 41.5z" />
</svg>