<?xml version="1.0" standalone="no"?>
<!DOCTYPE svg PUBLIC "-//W3C//DTD SVG 1.1//EN" "http://www.w3.org/Graphics/SVG/1.1/DTD/svg11.dtd">
<svg xmlns="http://www.w3.org/2000/svg" xmlns:xlink="http://www.w3.org/1999/xlink" version="1.1"
   viewBox="94 -151 2414 2169">
   <path fill="currentColor"
      d="M434 1978q-70 0 -122 -51t-52 -121v-1735q0 -71 51.5 -122t121.5 -51h1734q71 0 122 51t51 122v1734q0 70 -51 121.5t-122 51.5h-1733zM641 1652q14 0 23.5 -10t9.5 -23q0 -14 -9.5 -23.5t-23.5 -9.5q-13 0 -23 9.5t-10 23.5q0 13 10 23t23 10zM1025 1833q15 0 25 -10.5
t10 -25.5q0 -14 -10.5 -24.5t-24.5 -10.5q-15 0 -25.5 10t-10.5 25t10.5 25.5t25.5 10.5zM464 1238q16 0 26.5 -12t10.5 -28t-11 -27.5t-26 -11.5q-16 0 -27 11.5t-11 27.5t11 28t27 12zM694 1246q12 0 20.5 -9t8.5 -21q0 -11 -9 -20t-20 -9q-12 0 -21 8.5t-9 20.5t9 21
t21 9zM1065 1493q25 0 43 -18.5t18 -43.5t-18.5 -43t-42.5 -18t-42.5 18t-18.5 43t18 43.5t43 18.5zM1382 1771q9 0 16.5 -11.5t16.5 -34.5l22 -56l84 -7q29 -3 29 -17q0 -12 -25 -34l-54 -45l15 -79q3 -14 3 -23q0 -14 -14 -14q-9 0 -26 10l-67 40l-67 -40q-17 -10 -26 -10
q-14 0 -14 14q0 9 3 23l15 79l-54 45q-25 22 -25 34q0 14 29 17l84 7l22 56q9 23 16.5 34.5t16.5 11.5zM932 1179q29 0 50.5 -21t21.5 -51q0 -29 -21.5 -50t-50.5 -21t-50.5 21t-21.5 50q0 30 21.5 51t50.5 21zM556 849q9 0 25 -16l55 -56l74 24q9 3 19 3q20 0 20 -14
q0 -6 -10 -27l-33 -71l42 -57q19 -27 19 -37q0 -14 -20 -14q-5 0 -15 2l-83 14l-36 -50q-14 -20 -23.5 -28t-17.5 -8q-10 0 -14.5 13.5t-7.5 38.5l-8 61l-81 27q-24 7 -24 22q0 7 8.5 13t24.5 14l63 32l5 79q2 35 18 35zM1770 1536q20 0 33 -14t13 -33t-13.5 -32.5
t-32.5 -13.5t-33 13t-14 33q0 19 14 33t33 14zM1022 845q5 0 11 -4.5t11 -11.5l37 -52l63 10q32 5 32 -10q0 -7 -11 -24l-36 -55l28 -51q12 -21 12 -30q0 -14 -16 -14q-2 0 -6.5 0.5t-10.5 2.5l-65 22l-35 -36q-13 -14 -20.5 -19.5t-14.5 -5.5q-15 0 -15 46v50l-64 32
q-17 8 -17 20t31 22l55 17l12 63q5 28 19 28zM340 1564q92 -83 192 -126.5t203.5 -65t208.5 -35.5t207.5 -34.5t200 -64t186.5 -124.5l35 -32q70 -64 130 -147.5t113 -167.5t101.5 -153t94.5 -104q48 -37 103 -60t145 -37v-112q-106 16 -181 45.5t-132 73.5
q-60 47 -107.5 115t-94 147t-103.5 159.5t-136 152.5l-35 32q-93 85 -199.5 123.5t-221 55t-234 34t-239.5 58.5t-237 130v137zM755 443q26 0 45.5 -20t19.5 -48q0 -26 -19.5 -45.5t-45.5 -19.5q-28 0 -48 19.5t-20 45.5q0 28 20 48t48 20zM1585 1197q15 0 25 -10.5
t10 -25.5q0 -14 -10.5 -24.5t-24.5 -10.5q-15 0 -25.5 10t-10.5 25t10.5 25.5t25.5 10.5zM2059 1615q14 0 19 -28l12 -63l55 -17q31 -10 31 -22t-17 -20l-64 -32v-50q0 -46 -15 -46q-7 0 -14 5.5t-21 19.5l-35 36l-65 -22q-6 -2 -10.5 -2.5t-6.5 -0.5q-16 0 -16 14
q0 9 12 30l28 51l-36 55q-11 16 -11 21q0 14 21 14q9 0 13 -1l61 -10l37 52q5 7 11.5 11.5t10.5 4.5zM1089 484q18 0 31.5 -13t13.5 -32t-13.5 -32t-31.5 -13q-19 0 -32.5 13t-13.5 32t13.5 32t32.5 13zM1248 593q16 0 26.5 -11t10.5 -27q0 -15 -11 -26t-26 -11
q-16 0 -27 10.5t-11 26.5t11 27t27 11zM340 1213q91 -82 188 -121.5t198.5 -56t204 -27t204 -31.5t199.5 -69t189 -142l31 -32q113 -117 181 -224t120.5 -192.5t115.5 -135.5q52 -41 125.5 -68t163.5 -43q0 -36 -27 -63t-58 -27q-78 19 -145 49t-114 67q-60 47 -103 107
t-84.5 131t-96 150.5t-138.5 166.5l-31 32q-81 83 -169 126.5t-181.5 63t-190 30t-194.5 26t-195.5 50.5t-192.5 107v126zM340 344q101 -91 207 -131t216.5 -55t223 -27.5t226.5 -44.5t226 -108h-228q-108 34 -217.5 47t-219.5 27t-218.5 49.5t-215.5 115.5v127zM985 261
q12 0 21 -9t9 -21t-9 -20.5t-21 -8.5t-21 8.5t-9 20.5t9 21t21 9zM1648 755q12 0 20.5 -9t8.5 -21q0 -11 -9 -20t-20 -9q-12 0 -21 8.5t-9 20.5t9 21t21 9zM1859 1111q9 0 26 -10l67 -40l67 40q17 10 26 10q14 0 14 -14q0 -10 -3 -23l-15 -79l54 -45q25 -22 25 -34
q0 -14 -29 -17l-84 -7l-22 -56q-9 -23 -16.5 -34.5t-16.5 -11.5t-16.5 11.5t-16.5 34.5l-22 56l-84 7q-29 3 -29 17q0 12 25 34l54 45l-15 79q-3 13 -3 23q0 14 14 14zM1412 481q9 0 16.5 -11t16.5 -35l22 -56l84 -7q29 -3 29 -17q0 -12 -25 -34l-54 -45l15 -79q3 -14 3 -23
q0 -14 -14 -14q-9 0 -26 10l-67 40l-67 -40q-17 -10 -26 -10q-14 0 -14 14q0 9 3 23l15 79l-54 45q-25 22 -25 34q0 14 29 17l84 7l22 56q9 23 16.5 34.5t16.5 11.5zM2085 703q22 0 38.5 -17.5t16.5 -40.5q0 -21 -17 -38t-38 -17q-23 0 -40.5 16.5t-17.5 38.5
q0 23 17.5 40.5t40.5 17.5zM1669 184q18 0 31.5 -13t13.5 -32t-13.5 -32t-31.5 -13q-19 0 -32.5 13t-13.5 32t13.5 32t32.5 13zM2119 277q25 0 42.5 -17.5t17.5 -42.5t-17.5 -42.5t-42.5 -17.5t-42.5 17.5t-17.5 42.5t17.5 42.5t42.5 17.5z" />
</svg>