<?xml version="1.0" standalone="no"?>
<!DOCTYPE svg PUBLIC "-//W3C//DTD SVG 1.1//EN" "http://www.w3.org/Graphics/SVG/1.1/DTD/svg11.dtd">
<svg xmlns="http://www.w3.org/2000/svg" xmlns:xlink="http://www.w3.org/1999/xlink" version="1.1"
   viewBox="94 -151 2414 2169">
   <path fill="currentColor"
      d="M887 1878q-90 0 -138 -53t-48 -147q0 -71 37 -132.5t98.5 -108.5t137 -73.5t153.5 -26.5l32 -826l42 3q26 61 60 98.5t94 82.5q56 42 102.5 85t74.5 105t28 162q0 19 -1 37.5t-3 41.5l-44 -2q-14 -119 -80.5 -197.5t-157.5 -88.5l-23 684q-3 91 -52.5 172.5t-130.5 132.5
t-181 51zM357 1377q-91 0 -145 -53t-54 -138q0 -99 57.5 -181t150 -132t195.5 -52l-18 -823h42q38 72 87.5 113t101.5 73q66 41 111.5 86.5t69 120t23.5 202.5h-44q-20 -126 -91.5 -199t-163.5 -76l18 691q3 92 -44.5 176.5t-126 138t-169.5 53.5zM1842 1528
q-87 0 -143.5 -54.5t-56.5 -137.5q0 -101 55.5 -182t145.5 -130.5t193 -54.5l-40 -830l42 -2q41 71 82.5 109t111.5 77q60 33 107.5 80.5t75 123.5t27.5 195l-38 2q-23 -118 -95.5 -191t-167.5 -73l36 685q5 96 -41.5 183.5t-125 143.5t-168.5 56z" />
</svg>