<?xml version="1.0" standalone="no"?>
<!DOCTYPE svg PUBLIC "-//W3C//DTD SVG 1.1//EN" "http://www.w3.org/Graphics/SVG/1.1/DTD/svg11.dtd">
<svg xmlns="http://www.w3.org/2000/svg" xmlns:xlink="http://www.w3.org/1999/xlink" version="1.1"
   viewBox="94 -151 2414 2169">
   <path fill="currentColor"
      d="M464 1659q-149 0 -236.5 -37t-87.5 -99q0 -35 36.5 -77.5t84 -86t83.5 -80.5t36 -61q0 -12 -13 -24.5t-26.5 -27t-13.5 -30.5q0 -26 20 -61.5t46 -74.5t46 -74t20 -59q0 -23 -21.5 -46.5t-21.5 -50.5q0 -25 23.5 -46.5t54.5 -49.5t53 -71l18 -35q88 -170 217 -255
t301 -85q107 0 200.5 51t164.5 141t111 208t40 252q0 105 -18.5 198t-53.5 151t-85 58q-40 0 -70 -24q-45 43 -75 82t-49 71q-31 53 -60.5 89.5t-57.5 55t-57 18.5q-34 0 -72.5 -12.5t-70.5 -26.5q-141 66 -245 92.5t-221 26.5zM996 1312q-32 -68 -50.5 -156.5t-24.5 -175.5
q-74 48 -157.5 86t-174.5 56l-13 -78q106 -21 212 -76.5t197 -129.5q0 56 8 134.5t26 159t47 142.5zM464 1579q78 0 144.5 -11t142 -39t179.5 -77q98 47 143 47q17 0 44 -35.5t67 -95.5q35 -53 84.5 -112t112.5 -116q11 30 28 48.5t33 18.5q18 0 36 -49.5t29.5 -125
t11.5 -152.5q0 -118 -34 -221.5t-94 -182.5t-139 -123.5t-169 -44.5q-295 0 -446 296l-22 43q-24 47 -50.5 66.5t-44.5 30t-18 29.5q0 25 18.5 46.5t18.5 47.5q0 20 -20 57t-46 79t-46 76.5t-20 48.5q0 18 26.5 41.5t26.5 48.5q0 33 -36 76.5t-83.5 88.5t-84 82.5
t-36.5 57.5q0 13 36.5 26t93 21.5t114.5 8.5zM1281 991q-75 -70 -123 -173t-64 -201q-88 55 -187.5 97t-185.5 59l-20 -77q74 -15 161 -49t161.5 -73t112.5 -68q0 31 13.5 84.5t39.5 116t63 122.5t83 104zM577 1450l-54 -59q123 -102 218 -226.5t168.5 -262t132.5 -277.5
t110 -272q53 -137 105 -254.5t109 -200.5l66 46q-54 78 -108 190t-108 247q-33 83 -67.5 173.5t-69.5 185.5q-72 193 -200.5 379.5t-301.5 330.5zM2334 1898h16h15q-33 -48 -55 -93.5t-32.5 -91.5t-10.5 -94q0 -34 4.5 -73t9 -79t4.5 -75q0 -92 -37.5 -164.5t-102 -115
t-145.5 -42.5q-73 0 -131 36t-91.5 99t-33.5 144q0 84 32 156l135 4l-62 129q46 75 123 133.5t171 92.5t191 34zM2353 1978q-126 0 -244.5 -43.5t-211 -120.5t-140.5 -177l32 -59l-64 2q-28 -44 -44.5 -106t-16.5 -125q0 -103 44 -184t120 -128t172 -47q103 0 185.5 53
t131 144t48.5 205q0 60 -9 119.5t-9 107.5q0 68 17 114.5t39.5 78t39.5 54.5t17 46q0 34 -31.5 50t-75.5 16zM1889 1407l-51 -41q35 -44 69.5 -75t98.5 -78q46 15 74.5 26.5t50.5 23.5t49 30l-35 58q-30 -21 -59 -36.5t-74 -31.5q-37 29 -64 56.5t-59 67.5zM2059 1580
q-66 -156 -91 -346t-25 -388h75q0 225 27.5 401t82.5 306zM2193 514q-42 -45 -107.5 -95.5t-139.5 -97.5t-144.5 -82.5t-123.5 -49.5l20 -56q57 14 130.5 49t150 83t145 101t116.5 103zM2437 770q-74 -19 -109.5 -26.5t-81.5 -14.5l-105 -18q-162 -28 -253.5 -109.5
t-91.5 -203.5q0 -80 36.5 -144t99 -101.5t138.5 -37.5q77 0 147 44.5t124.5 120.5t86.5 172.5t32 200.5q0 32 -5 57t-18 60zM2379 673q0 -29 -3 -57q-7 -86 -35.5 -162t-71 -134t-94 -91.5t-105.5 -33.5q-82 0 -138 58.5t-56 144.5q0 91 72 153t205 82l105 16q29 4 56 9.5
t65 14.5zM2032 489q-7 -37 -9 -69t-2 -103q49 -11 87.5 -15.5t75.5 -4.5v60q-19 0 -48.5 1.5t-54.5 5.5q0 67 9 111z" />
</svg>