<?xml version="1.0" standalone="no"?>
<!DOCTYPE svg PUBLIC "-//W3C//DTD SVG 1.1//EN" "http://www.w3.org/Graphics/SVG/1.1/DTD/svg11.dtd">
<svg xmlns="http://www.w3.org/2000/svg" xmlns:xlink="http://www.w3.org/1999/xlink" version="1.1"
   viewBox="94 -151 2414 2169">
   <path fill="currentColor"
      d="M1864 1202q-74 0 -121.5 -45.5t-47.5 -118.5q0 -79 68.5 -154t242.5 -181q161 -99 225 -178t64 -177q0 -103 -59.5 -166t-157.5 -63q-43 0 -64.5 18.5t-30.5 46t-15 56.5q-7 35 -18.5 58.5t-47.5 23.5l-31 -171q33 -52 87 -82t113 -30q135 0 219.5 86t84.5 223
q0 82 -31 149.5t-102.5 132.5t-192.5 140q-156 97 -215 155.5t-59 112.5q0 39 23.5 61.5t65.5 22.5q40 0 63.5 -26t23.5 -68h80q0 74 -47 124t-120 50zM730 1978v-218h140v-241h860v241h140v218h-1140zM1178 1777h244q44 0 44 -36v-53q0 -37 -44 -37h-244q-44 0 -44 37v53
q0 36 44 36zM736 1202q-73 0 -120 -50t-47 -124h80q0 42 23.5 68t63.5 26q42 0 65.5 -22.5t23.5 -61.5q0 -54 -59 -112.5t-215 -155.5q-121 -75 -192.5 -140t-102.5 -132.5t-31 -149.5q0 -137 84.5 -223t219.5 -86q59 0 113 30t87 82l-31 171q-36 0 -47.5 -23.5t-18.5 -58.5
q-5 -29 -14.5 -56.5t-31 -46t-64.5 -18.5q-97 0 -157 63t-60 166q0 98 64 177t225 178q174 106 242.5 181t68.5 154q0 73 -47.5 118.5t-121.5 45.5zM989 1546q62 -87 92.5 -175.5t37.5 -206.5q-100 -27 -183 -107t-143.5 -200t-93.5 -269t-33 -313q0 -38 1.5 -75.5
t5.5 -74.5l78 -7q-4 40 -6 79.5t-2 79.5q0 147 27.5 286t81.5 253.5t132 189t179 94.5l30 33q0 126 -29.5 224.5t-85.5 188.5h-89zM1139 1176l-24 -68q92 -34 184 -34q47 0 93.5 8.5t92.5 25.5l-24 68q-81 -30 -162 -30q-79 0 -160 30zM1099 901q-13 9 -28.5 4.5
t-25.5 -20.5q-45 -72 -76 -141t-49 -134t-23 -124q-1 -18 9 -31t25 -13q36 0 39 37q6 60 20 118t41.5 118.5t73.5 131.5q10 15 8.5 30t-14.5 24zM1522 1546q-56 -90 -85.5 -188.5t-29.5 -224.5l30 -33q101 -20 179 -94.5t132 -189t81.5 -253.5t27.5 -286q0 -40 -1.5 -79.5
t-6.5 -79.5l78 7q4 37 5.5 74.5t1.5 75.5q0 164 -33 313t-93.5 269t-143.5 200t-183 107q8 118 38 206.5t92 175.5h-89zM882 267q-15 7 -29.5 3t-21.5 -18t-1 -28.5t22 -21.5q96 -46 212 -69.5t236 -23.5t236 23.5t212 69.5q16 7 22 21.5t-1 28.5t-21.5 18t-29.5 -3
q-89 -41 -197.5 -63t-220.5 -22t-220.5 22t-197.5 63zM712 187l-56 -58q63 -71 163.5 -123t224.5 -80t256 -28q133 0 256.5 28t224.5 80t163 123l-56 58q-55 -64 -146.5 -110.5t-205 -72t-236.5 -25.5q-122 0 -236 25.5t-205 72t-147 110.5z" />
</svg>