<?xml version="1.0" standalone="no"?>
<!DOCTYPE svg PUBLIC "-//W3C//DTD SVG 1.1//EN" "http://www.w3.org/Graphics/SVG/1.1/DTD/svg11.dtd">
<svg xmlns="http://www.w3.org/2000/svg" xmlns:xlink="http://www.w3.org/1999/xlink" version="1.1"
   viewBox="94 -151 2414 2169">
   <path fill="currentColor"
      d="M1300 1904q-288 0 -466 -23.5t-294 -75.5q-157 -71 -243 -201.5t-86 -317.5q0 -184 87.5 -391.5t268.5 -432.5q86 -107 185.5 -200.5t200 -164t190.5 -110t157 -39.5t157 39.5t190.5 110t200 164t185.5 200.5q181 225 268.5 432.5t87.5 391.5q0 187 -86 317.5t-243 201.5
q-115 52 -293.5 75.5t-466.5 23.5zM438 1238v-76q38 -2 73.5 -6t73.5 -14l18 75q-40 14 -80.5 17.5t-84.5 3.5zM952 1633q18 0 29 -11.5t11 -28.5v-446q0 -18 6 -24t24 -6h50q17 0 29 -11.5t12 -27.5q0 -17 -12 -28t-29 -11h-70q-90 0 -90 90v463q0 18 11.5 29.5t28.5 11.5z
M1300 1826q187 0 323.5 -9.5t234.5 -30t169 -52.5q140 -64 211 -176.5t71 -271.5q0 -175 -85.5 -370.5t-252.5 -403.5q-79 -99 -172.5 -187t-186.5 -155.5t-174.5 -105.5t-137.5 -38t-137.5 38t-174.5 105.5t-186 155.5t-173 187q-167 208 -252.5 403.5t-85.5 370.5
q0 159 71 271.5t211 176.5q72 32 169.5 52.5t234 30t323.5 9.5zM1294 1928q-117 0 -200.5 -3t-154.5 -9t-152 -16l-18 -551v-484q135 4 262 6.5t262 2.5q268 0 538 -9v484l-18 551q-81 10 -155 16t-160 9t-204 3zM840 720q-78 -27 -143 -85l48 -60q29 23 60.5 41t66.5 35z
M939 488l8 -76q30 3 60 3q43 0 88 -6l10 76q-22 4 -44.5 7t-44.5 3q-19 0 -38 -1.5t-39 -5.5zM1958 1290l-4 -77q39 -2 73.5 -8t71.5 -17l25 74q-40 16 -81.5 22t-84.5 6zM1188 310l-21 -74q40 -10 73.5 -24t66.5 -33l37 65q-35 25 -74 41.5t-82 24.5zM1961 1014l-43 -66
q58 -36 114 -95l59 52q-54 64 -130 109zM1590 591l-21 -75q38 -10 70.5 -24t65.5 -33l39 67q-70 47 -154 65z" />
</svg>