<?xml version="1.0" standalone="no"?>
<!DOCTYPE svg PUBLIC "-//W3C//DTD SVG 1.1//EN" "http://www.w3.org/Graphics/SVG/1.1/DTD/svg11.dtd">
<svg xmlns="http://www.w3.org/2000/svg" xmlns:xlink="http://www.w3.org/1999/xlink" version="1.1"
   viewBox="94 -151 2414 2169">
   <path fill="currentColor"
      d="M1340 1244q-185 0 -328 -98.5t-224 -273.5t-81 -402q0 -143 32 -256t88 -178.5t127 -65.5q59 0 123.5 50t128 132t119 180t97.5 196t64 178l-77 21q-25 -92 -67.5 -187t-94.5 -182.5t-106 -157t-103 -110t-84 -40.5q-42 0 -80.5 56t-62.5 151t-24 213q0 205 70.5 362
t195.5 245.5t287 88.5q233 0 366.5 -148t133.5 -407q0 -115 -23 -227t-61 -204t-82.5 -147t-86.5 -55q-32 0 -80 52.5t-97.5 142.5t-88.5 203l-58 -71q45 -121 100 -212.5t113 -143t111 -51.5q66 0 125.5 61t106.5 163.5t74 229.5t27 259q0 195 -71 337t-201.5 219
t-307.5 77zM1170 1831q-103 -38 -205.5 -104.5t-190 -150.5t-146.5 -176t-74 -181q-8 -47 15.5 -81t69.5 -34q51 0 140 34.5t194 92t208 126.5t184 137l-22 84q-81 -70 -184 -140t-205.5 -127.5t-184 -92t-120.5 -34.5q-12 0 -16.5 7.5t-0.5 23.5q23 81 79 163t134 156
t169 131.5t184 90.5zM1272 1651q28 -186 28 -360v-48.5t-2 -48.5h80q2 26 2 52.5v52.5q0 79 -5 157.5t-16 156.5zM1290 1978q-79 0 -131 -32t-52 -88q0 -37 50 -106.5t132.5 -155.5t180.5 -172.5t195.5 -160t177.5 -118.5t125 -45q42 0 64 35.5t14 95.5q-20 146 -92.5 280.5
t-179 239.5t-232 166t-252.5 61zM1290 1900q112 0 223 -55.5t206 -151t161 -217t87 -253.5q7 -43 -8 -43q-32 0 -101 42t-156.5 110t-177.5 147.5t-166.5 156.5t-123.5 136.5t-47 85.5q0 14 27 28t76 14zM1110 117l-51 -62q39 -65 94.5 -108.5t119.5 -43.5q53 0 99 31t83 75
l-53 62q-27 -43 -60.5 -66.5t-68.5 -23.5q-48 0 -90 37t-73 99z" />
</svg>