<?xml version="1.0" standalone="no"?>
<!DOCTYPE svg PUBLIC "-//W3C//DTD SVG 1.1//EN" "http://www.w3.org/Graphics/SVG/1.1/DTD/svg11.dtd">
<svg xmlns="http://www.w3.org/2000/svg" xmlns:xlink="http://www.w3.org/1999/xlink" version="1.1"
   viewBox="94 -151 2414 2169">
   <path fill="currentColor"
      d="M1229 1928q-24 0 -72 -10t-103 -24.5t-102 -30.5t-69 -28l-116 -62q-22 -12 -39.5 -25t-36.5 -29l-159 -135q-38 -32 -58 -69.5t-36 -77.5l-52 -131q-13 -32 -20 -63.5t-9 -65.5l-16 -439q-4 -105 50 -204l82 -149q26 -47 66 -85l145 -143q47 -45 110 -74l141 -63
q21 -9 64 -21.5t93 -24t92 -19t61 -7.5h209q26 0 70.5 10.5t89.5 25.5t73 31l151 83q32 17 58.5 34t50.5 42l150 153q20 20 35.5 42.5t28.5 48.5l56 108q22 43 32 85.5t10 89.5v437q0 86 -38 165l-84 179q-24 53 -68 98l-110 114q-27 28 -57 49.5t-62 41.5l-117 70
q-33 20 -90 46.5t-95 26.5h-309zM919 1462l70 -2v-462q0 -28 8 -36.5t34 -8.5h88v-68h-92q-58 0 -83 23t-25 76v478zM1508 1877l-370 -3l-369 -164l-21 -610l15 -391l494 7l280 -2l362 -14l24 714l-10 268zM1902 1638l109 -114q17 -19 30 -36t24 -41l84 -178q30 -64 30 -131
v-437q0 -73 -33 -138l-56 -109q-12 -23 -23.5 -39t-26.5 -32l-150 -153q-29 -29 -90 -62l-152 -83q-22 -12 -60.5 -25t-76 -22.5t-57.5 -9.5h-209q-15 0 -53.5 7t-83.5 18t-84 21.5t-56 18.5l-141 63q-27 12 -47 25.5t-40 32.5l-145 143q-17 16 -29 31.5t-23 35.5l-82 149
q-43 78 -40 162l16 439q1 28 7 51.5t16 50.5l52 131q20 52 35 75t37 41l159 135q20 16 33.5 26.5t28.5 18.5zM896 515l-43 -58q21 -15 44 -27.5t45 -21.5l31 59q-16 7 -36 19.5t-41 28.5zM1196 317l-43 -58q21 -15 44 -27.5t45 -21.5l31 59q-16 7 -36 19.5t-41 28.5z
M1425 523l-43 -58q21 -15 44 -27.5t45 -21.5l31 59q-16 7 -36 19.5t-41 28.5zM1777 535l-43 -58q21 -15 44 -27.5t45 -21.5l31 59q-16 7 -36 19.5t-41 28.5z" />
</svg>