<?xml version="1.0" standalone="no"?>
<!DOCTYPE svg PUBLIC "-//W3C//DTD SVG 1.1//EN" "http://www.w3.org/Graphics/SVG/1.1/DTD/svg11.dtd">
<svg xmlns="http://www.w3.org/2000/svg" xmlns:xlink="http://www.w3.org/1999/xlink" version="1.1"
   viewBox="94 -151 2414 2169">
   <path fill="currentColor"
      d="M2182 1977q-17 0 -34 -14l-71 -63q-44 -21 -71 -52t-42 -86l-315 -242l-102 -115q-73 4 -205 27t-299 23q-16 29 -43.5 48t-49.5 20l-260 7q-33 1 -52.5 14t-33.5 36l-34 54q18 18 30 41t12 40q0 13 -6 26.5t-14 24.5l-50 68q-29 40 -51 63t-48 23q-34 0 -52.5 -39
t-44.5 -139q-18 -44 -18 -68q0 -35 10.5 -64.5t44.5 -70.5l103 -201l175 -55q-27 -29 -36.5 -89t-9.5 -126q0 -64 23.5 -127t47 -124t23.5 -119q0 -14 -1 -28t-5 -26l-54 58q0 50 -18 88.5t-42 60t-43 21.5q-14 0 -26 -4t-29 -20l-18 40q-9 7 -23 10t-26 3q-65 0 -109.5 -48
t-44.5 -115q0 -59 29 -110l9 -221q-12 -38 -12 -75q0 -41 15 -77.5t46 -58.5q-11 -26 -17.5 -52.5t-6.5 -49.5q0 -41 14 -63.5t35 -22.5q14 0 28.5 7.5t28.5 20.5l95 81q26 -7 52.5 -10t49.5 -3q54 0 111 13t106.5 34.5t80 45.5t30.5 47q0 22 -61 22q-9 0 -19 -1
q56 28 96 76t62 107.5t22 125.5q0 64 -20 124q15 6 32 6q41 0 69.5 17t61.5 34t86 17q48 0 90.5 -14t89.5 -27.5t106 -13.5q12 0 23 2t19 5q104 0 180 42t118 116t42 171q0 70 -24 135.5t-24 102.5q0 28 14 42.5t35 21.5l106 34q2 52 13.5 94t27.5 72q17 31 28.5 44
t20.5 26.5t18 47.5q21 5 49.5 14.5t61.5 26.5l-50 212q-6 26 -19.5 38.5t-35.5 12.5zM339 1626q-13 -16 -17.5 -36.5t7.5 -51.5q15 -39 36 -61t34 -53q18 -44 24 -75.5t41 -64.5q31 -29 71 -30t78 -10q29 -7 45 -14t23 -23l16 88l-159 48zM1391 1847l-169 -110v-72l169 110
v72zM1187 1978v-576l80 -9v510h70v-504l80 -9v588h-230zM1391 1587l-169 -110v-72l169 110v72zM403 766q-25 0 -25 -37q0 -36 25 -36q24 0 24 36q0 37 -24 37zM2123 1847l32 -94q-7 -32 -20 -56.5t-45 -62.5q-9 -11 -19 -26t-22 -39q-12 -25 -21.5 -56.5t-15.5 -77.5
l-74 -25q-39 -14 -62 -42.5t-23 -76.5q0 -39 12 -76t24 -76.5t12 -85.5q0 -73 -33 -132t-91 -94.5t-133 -37.5v494q-18 5 -38 5q-75 0 -138 -43q-31 28 -69 42t-76 14q-37 0 -72.5 -11.5t-63.5 -30.5q-30 26 -70 37t-116 11v-321q-58 46 -143.5 102t-155.5 89q8 41 24 75
t38 64q-21 14 -58.5 26t-83.5 17q-38 4 -57 8.5t-27 12.5q-7 9 -12.5 22t-9.5 33q-8 44 -16 63.5t-28 44.5l-29 36q-26 33 -35.5 54t-9.5 41q0 9 4 24t10 24l102 -68l-11 -43l50 -81q24 -38 53.5 -54t81.5 -17l258 -6q24 -1 48.5 -22t35.5 -46q98 0 186 -8.5t200 -25.5
q48 -8 90 -10.5t82 -2.5q20 49 46.5 79t63.5 51t76 30.5t74 12.5q56 4 87 23t50.5 61t39.5 116l8 29q14 48 31.5 69t58.5 38zM488 504q-10 0 -18 -9t-8 -22q-34 0 -49 -25q32 -36 81 -36q21 19 21 52q0 16 -6.5 28t-20.5 12zM509 799l-53 -8q26 -41 49.5 -110t41 -148
t23.5 -148l-146 -92l-11 -66l159 101v-5v-5q0 -41 -19.5 -83t-49.5 -83q55 10 85.5 52.5t30.5 140.5q0 65 -15.5 153.5t-40.5 171t-54 129.5zM2029 1914q-25 -10 -46 -20.5t-34 -22.5q-45 -43 -70 -76.5t-42.5 -63.5t-41.5 -61q-39 -53 -82 -77.5t-89.5 -46t-97.5 -64.5
q-91 -78 -99 -114l115 -2l307 228l211 273zM688 1046q98 -47 183 -114t152 -141l-17 -37q-91 -199 -165.5 -316.5t-145 -169t-152.5 -51.5l-139 -120q-1 4 -1.5 10t-0.5 12q0 33 12.5 76t28.5 65q0 32 -18 76t-47 73l-11 239q-14 26 -21 46.5t-7 43.5q0 35 26 66.5t64 31.5
q11 -38 25.5 -57t36.5 -22q14 30 26.5 40.5t32.5 10.5q15 -15 26 -39.5t11 -55.5q0 -5 -1 -13.5t-2 -12.5l131 -154q30 36 47 80.5t17 87.5q0 57 -20 116t-42 113t-28 97q-1 7 -1 19zM1071 1245q30 -4 54 -16.5t60 -46.5q64 59 138 59q32 0 68 -16.5t78 -53.5
q21 21 48.5 35.5t56.5 17.5v-303q-41 83 -81.5 134t-85.5 74t-101 23q-77 0 -131 -47t-104 -161v301zM1391 597l-169 -110v-72l169 110v72zM1782 1088q-25 0 -29 -25q-4 -22 -11 -44.5t-15 -43.5q-8 -20 2 -33t25 -13q19 0 28 20q11 25 18.5 51t11.5 52q3 17 -7 26.5
t-23 9.5zM1337 886v-908h-70v907h-80v-987h230v988h-80zM1391 337l-169 -110v-72l169 110v72zM2157 1247q15 0 24 -14t-3 -33q-22 -35 -42 -72.5t-34 -75.5q-8 -22 -28 -22q-13 0 -22.5 11.5t-3.5 28.5q17 45 38 85t47 78q10 14 24 14zM2194 1377q-62 0 -118 -36t-93 -95.5
t-42 -128.5l-12 -159l-73 -105q53 -47 116 -47q62 0 108.5 59t83.5 172l13 40q17 50 45 94.5t67 79.5q20 18 30.5 33t10.5 29q0 27 -39 45.5t-97 18.5zM1391 77l-169 -110v-32h62l107 70v72zM1391 857l-169 -110v-72l169 110v72z" />
</svg>