<?xml version="1.0" standalone="no"?>
<!DOCTYPE svg PUBLIC "-//W3C//DTD SVG 1.1//EN" "http://www.w3.org/Graphics/SVG/1.1/DTD/svg11.dtd">
<svg xmlns="http://www.w3.org/2000/svg" xmlns:xlink="http://www.w3.org/1999/xlink" version="1.1"
   viewBox="94 -151 2414 2169">
   <path fill="currentColor"
      d="M1300 1978q-96 0 -173.5 -19t-145.5 -62l-546 -346q-62 -40 -91 -100.5t-29 -154.5v-689q0 -99 25.5 -172t79.5 -126.5t139 -93.5l602 -285q36 -17 72 -24.5t67 -7.5q32 0 67.5 7.5t71.5 24.5l602 285q86 40 139.5 93.5t79 126.5t25.5 172v689q0 94 -29 154.5t-91 100.5
l-546 346q-68 43 -145.5 62t-173.5 19zM1049 1667q-36 0 -69 -25t-54 -64t-21 -81q0 -41 19 -64t53 -23q38 0 72.5 25t56.5 64.5t22 81.5q0 40 -21 63t-58 23zM1145 1873q47 0 79.5 -34t32.5 -113v-669q0 -59 -20.5 -94t-72.5 -66l-628 -369q-49 -29 -78 -29q-33 0 -47.5 36
t-14.5 112v649q0 77 18 118t64 70l554 351q60 38 113 38zM664 963q-36 0 -69 -25t-54 -64t-21 -81q0 -41 19 -64t53 -23q38 0 72.5 25t56.5 64.5t22 81.5q0 40 -21 63t-58 23zM1551 1667q-37 0 -58 -23t-21 -63q0 -42 22 -81.5t57 -64.5t72 -25q34 0 53 23t19 64
q0 42 -21 81t-54 64t-69 25zM1455 1873q53 0 113 -38l554 -351q47 -29 64.5 -70t17.5 -118v-649q0 -76 -14.5 -112t-47.5 -36q-29 0 -78 29l-628 369q-52 31 -72.5 66t-20.5 94v669q0 79 32.5 113t79.5 34zM1747 1312q-37 0 -58 -23t-21 -63q0 -42 22 -81.5t57 -64.5t72 -25
q34 0 53 23t19 64q0 42 -21 81t-54 64t-69 25zM1300 859q23 0 46 -8t51 -24l624 -366q36 -21 54 -42.5t18 -42.5q0 -23 -22.5 -46t-69.5 -45l-602 -287q-28 -14 -52 -19.5t-47 -5.5t-47 5.5t-52 19.5l-602 287q-46 22 -69 45t-23 46q0 21 18 42.5t54 42.5l624 366
q28 16 51 24t46 8zM1300 536q-89 0 -153 -45.5t-64 -109.5t63.5 -109t153.5 -45t153.5 45t63.5 109t-64 109.5t-153 45.5zM1936 963q-37 0 -58 -23t-21 -63q0 -42 22 -81.5t57 -64.5t72 -25q34 0 53 23t19 64q0 42 -21 81t-54 64t-69 25z" />
</svg>