<?xml version="1.0" standalone="no"?>
<!DOCTYPE svg PUBLIC "-//W3C//DTD SVG 1.1//EN" "http://www.w3.org/Graphics/SVG/1.1/DTD/svg11.dtd">
<svg xmlns="http://www.w3.org/2000/svg" xmlns:xlink="http://www.w3.org/1999/xlink" version="1.1"
   viewBox="94 -151 2414 2169">
   <path fill="currentColor"
      d="M761 1421q-118 0 -187 -58.5t-69 -158.5q0 -64 35 -117t91 -88t120 -43q9 -74 50 -132.5t104.5 -93t137.5 -34.5q114 0 195 58.5t112 171.5l-77 21q-47 -176 -230 -176q-58 0 -106.5 29.5t-78 80t-29.5 114.5v24q-72 6 -127 31.5t-86 65t-31 88.5q0 64 45 101.5t131 37.5
h1099q86 0 138 -46.5t52 -119.5q0 -69 -55.5 -123t-138.5 -54q-9 0 -25 2q14 -46 20 -82t6 -66q0 -102 -49.5 -185.5t-132.5 -133t-184 -49.5q-117 0 -211.5 68.5t-132.5 181.5l-76 -26q46 -134 161 -218t259 -84q123 0 224.5 60t161.5 161.5t60 224.5q0 45 -7 81
q88 21 144 87t56 155q0 107 -76 175.5t-194 68.5h-1099zM845 1837q-46 0 -77.5 -27.5t-31.5 -66.5q0 -30 21.5 -71.5t54 -81t66.5 -66t59 -26.5q16 0 23 24.5t7 86.5q0 228 -122 228zM1233 1978q-46 0 -77.5 -28t-31.5 -67q0 -30 21.5 -71t54.5 -81t67 -66t58 -26
q16 0 23 24.5t7 85.5q0 229 -122 229zM1654 1877q-46 0 -77.5 -27.5t-31.5 -65.5q0 -30 21.5 -71.5t54 -81.5t66.5 -66t59 -26q16 0 23 24.5t7 85.5q0 116 -30 172t-92 56zM893 822q-76 -47 -122 -127t-46 -177q0 -98 48.5 -180t131 -131.5t184.5 -49.5q126 0 222 76.5
t127 192.5l-77 20q-16 -62 -56 -109.5t-96 -74.5t-120 -27q-78 0 -142.5 38t-103 102.5t-38.5 142.5q0 73 34.5 135.5t95.5 100.5zM657 905q-37 9 -62.5 -6.5t-31.5 -44.5t14 -59l134 -199l-199 -121q-32 -20 -39.5 -50t8 -55.5t53.5 -31.5l221 -36l-49 -222q-8 -38 7.5 -62
t44.5 -28.5t58 17.5l184 134l128 -204q25 -39 65 -39q28 0 45 20.5t21 48.5l38 225l238 -49q34 -7 54 9.5t22.5 45t-18.5 57.5l-155 216l-63 -45l132 -185q3 -5 0 -9t-8 -2l-205 43l-73 -61l-34 -199q-1 -6 -5.5 -6.5t-7.5 4.5l-118 189l-95 9l-159 -115q-4 -4 -8.5 -1.5
t-3.5 8.5l43 194l-65 84l-188 31q-5 1 -5.5 6t3.5 8l182 111l22 91l-123 183q-3 5 0 8.5t8 2.5l178 -44l20 75z" />
</svg>