<?xml version="1.0" standalone="no"?>
<!DOCTYPE svg PUBLIC "-//W3C//DTD SVG 1.1//EN" "http://www.w3.org/Graphics/SVG/1.1/DTD/svg11.dtd">
<svg xmlns="http://www.w3.org/2000/svg" xmlns:xlink="http://www.w3.org/1999/xlink" version="1.1"
   viewBox="94 -151 2414 2169">
   <path fill="currentColor"
      d="M923 1559q-133 -69 -234.5 -180t-158 -253t-56.5 -302q0 -171 64 -320.5t178 -263.5t263.5 -178t320.5 -64t320.5 64t263.5 178t178 263.5t64 320.5q0 160 -56.5 302t-157.5 253t-235 180l-40 -69q121 -62 213 -162.5t144 -229.5t52 -274q0 -155 -58 -290t-160.5 -237.5
t-237.5 -160.5t-290 -58q-154 0 -289.5 58t-238 160.5t-160.5 237.5t-58 290q0 145 52 274t144 229.5t213 162.5zM683 1621q-33 0 -54.5 -24t-17.5 -58l28 -194q10 -68 73 -68h172q63 0 73 68l24 166l-76 110h-222zM630 1978q-7 0 -11 -13t-4 -41t4 -41t11 -13h1340
q7 0 11 13t4 41t-4 41t-11 13h-1340zM659 1908l415 -610l131 -324h50l71 179l-77 205l-263 550h-327zM765 1876h156l274 -545l95 -253l-46 -56l-115 307zM403 1046q-33 0 -54.5 -24t-17.5 -58l28 -194q10 -68 73 -68h172q63 0 73 68l28 194q5 34 -17 58t-55 24h-230z
M1300 1650q-55 0 -108.5 -7.5t-105.5 -20.5l35 -74q90 22 179 22q47 0 92 -6t88 -16l32 74q-106 28 -212 28zM742 1284l81 -269l-165 -85v-67l237 122l-90 299h-63zM893 1369l-15 -58l265 -74l-33 73zM1300 1325q-34 0 -74 -5l27 -78q23 3 47 3q25 0 47 -3l27 78
q-40 5 -74 5zM1679 1876h156l-364 -547l-115 -307l-46 56l95 253zM648 793l-29 -53l198 -96l-61 -222h62l71 254zM862 854v-60h245v60h-245zM1614 1908l-263 -550l-77 -205l71 -179h50l131 324l415 610h-327zM1707 1369l-217 -59l-33 -73l265 74zM1695 1621l-76 -110
l24 -166q10 -68 73 -68h172q63 0 73 68l28 194q5 34 -17 58t-55 24h-222zM613 469q-33 0 -54.5 -24t-17.5 -58l28 -194q10 -68 73 -68h172q63 0 73 68l28 194q5 34 -17 58t-55 24h-230zM1300 1095l-79 -79h-113v-113l-79 -79l79 -79v-113h112l80 -78l80 78h112v113l79 79
l-79 79v113h-113zM1300 1011l55 -55h77v-77l55 -55l-55 -55v-77h-76l-56 -54l-56 54h-76v77l-55 55l55 55v77h77zM1110 1285q-136 -56 -222.5 -180.5t-86.5 -280.5q0 -138 67.5 -251t180.5 -180.5t251 -67.5t251 67.5t180.5 180.5t67.5 251q0 156 -86.5 280.5t-222.5 180.5
l-29 -74q113 -47 185.5 -152t72.5 -235q0 -116 -56.5 -211t-151.5 -151.5t-211 -56.5t-211 56.5t-151.5 151.5t-56.5 211q0 130 72.5 235t185.5 152zM1795 1284l-90 -299l237 -122v67l-165 85l81 269h-63zM1139 419l-291 -88l6 -61l255 77l78 -152h67zM1493 854v-60h245v60
h-245zM1270 622v-249h60v249h-60zM1967 1046q-33 0 -54.5 -24t-17.5 -58l28 -194q10 -68 73 -68h172q63 0 73 68l28 194q5 34 -17 58t-55 24h-230zM1185 242q-33 0 -54.5 -24t-17.5 -58l28 -194q10 -68 73 -68h172q63 0 73 68l28 194q5 34 -17 58t-55 24h-230zM1461 419
l-115 -224h67l78 152l255 -77l6 61zM1952 793l-241 -117l71 -254h62l-61 222l198 96zM1757 469q-33 0 -54.5 -24t-17.5 -58l28 -194q10 -68 73 -68h172q63 0 73 68l28 194q5 34 -17 58t-55 24h-230z" />
</svg>