<?xml version="1.0" standalone="no"?>
<!DOCTYPE svg PUBLIC "-//W3C//DTD SVG 1.1//EN" "http://www.w3.org/Graphics/SVG/1.1/DTD/svg11.dtd">
<svg xmlns="http://www.w3.org/2000/svg" xmlns:xlink="http://www.w3.org/1999/xlink" version="1.1"
   viewBox="94 -151 2414 2169">
   <path fill="currentColor"
      d="M293 1978v-142l67 -22v-673h-86v-410h2052v410h-86v673l67 22v142h-2014zM540 1487v-246h340v246h-340zM1115 1838h150v-532h-150v532zM440 1838h605v-602h510v602h605v-697h-1720v697zM1335 1838h150v-532h-150v532zM511 771v-148h80v148h-80zM354 1061h1892v-250h-1892
v250zM538 520h285v-86h-168v-4l70 -92q50 -65 70 -109.5t20 -96.5q0 -65 -38 -103t-100 -38q-42 0 -75 16t-65 54l48 65q23 -28 41 -38.5t38 -10.5q26 0 39 16t13 44q0 36 -15 71.5t-63 102.5l-100 138v71zM1720 1487v-246h340v246h-340zM1191 771v-148h80v148h-80zM385 636
v-738h1010v738h-1010zM963 336l66 -141q10 -22 22 -56h2q-1 8 -1.5 37.5t-0.5 40.5v119h-88zM1052 520h96v-104h52v-80h-52v-332h-97l-167 334v78h168v104z" />
</svg>