<?xml version="1.0" standalone="no"?>
<!DOCTYPE svg PUBLIC "-//W3C//DTD SVG 1.1//EN" "http://www.w3.org/Graphics/SVG/1.1/DTD/svg11.dtd">
<svg xmlns="http://www.w3.org/2000/svg" xmlns:xlink="http://www.w3.org/1999/xlink" version="1.1"
   viewBox="94 -151 2414 2169">
   <path fill="currentColor"
      d="M1407 1978q-88 0 -140.5 -34t-52.5 -90q0 -28 21 -74.5t48.5 -113.5t48.5 -157.5t21 -206.5q0 -76 -9.5 -151t-29.5 -151q-67 20 -138 30t-138 10q-182 0 -347 -74t-300.5 -216t-228.5 -344q163 -95 307 -139.5t290 -44.5q167 0 317 65t273 187q73 -181 200.5 -309.5
t296.5 -197.5t368 -69q82 0 128.5 2.5t95.5 8.5q0 295 -106.5 521.5t-297 365.5t-443.5 172q32 111 55 215.5t35.5 205t12.5 201.5q0 208 -68 298t-219 90zM1129 688q-110 -76 -226.5 -117.5t-241.5 -46.5q-40 -2 -40 -41q0 -17 12 -28t30 -11q90 0 177.5 21.5t171.5 61
t163 95.5q15 10 18 26.5t-8 30.5q-23 31 -56 9zM1407 1898q112 0 159.5 -65.5t47.5 -242.5q0 -106 -14.5 -213t-42 -225t-66.5 -256q198 -8 355.5 -82t269.5 -199t173.5 -287t67.5 -346q-27 -2 -60.5 -3t-82.5 -1q-197 0 -361 71t-286.5 209.5t-197.5 343.5
q-147 -155 -295 -227.5t-315 -72.5q-120 0 -244 34t-248 100q84 163 202.5 280.5t263 180.5t305.5 63q83 0 167.5 -12t163.5 -44q33 99 48.5 199t15.5 199q0 119 -21 212t-48.5 161t-48.5 111t-21 63q0 23 26.5 36t86.5 13zM1587 571q-14 -9 -17 -25.5t7 -31.5
q54 -78 118.5 -143.5t134.5 -118t140 -88.5q16 -8 31.5 -2t21.5 22q14 34 -19 51q-109 57 -197 134.5t-165 190.5q-22 32 -55 11z" />
</svg>