<?xml version="1.0" standalone="no"?>
<!DOCTYPE svg PUBLIC "-//W3C//DTD SVG 1.1//EN" "http://www.w3.org/Graphics/SVG/1.1/DTD/svg11.dtd">
<svg xmlns="http://www.w3.org/2000/svg" xmlns:xlink="http://www.w3.org/1999/xlink" version="1.1"
   viewBox="94 -151 2414 2169">
   <path fill="currentColor"
      d="M1140 1222q-295 0 -468 -53t-247.5 -176t-74.5 -332q0 -165 59 -304t165.5 -242t251 -160t314.5 -57t314.5 57t251 160t165.5 242t59 304q0 209 -74.5 332t-247 176t-468.5 53zM1140 1900q121 0 228 -27t178.5 -69t84.5 -88l80 -275q-107 52 -253.5 79.5t-317.5 27.5
t-317.5 -27.5t-253.5 -79.5l80 275q14 46 85 88t178.5 69t227.5 27zM1140 1978q-140 0 -262 -31.5t-204 -86t-102 -122.5l-104 -358q-55 -37 -89 -120.5t-34 -191.5q0 -73 21.5 -122.5t67.5 -86.5l37 70q-25 25 -35.5 56t-10.5 83q0 67 18.5 124.5t46.5 101.5
q45 51 148.5 90.5t236.5 62.5t265 23t265 -23t237 -62.5t148 -90.5q28 -44 46.5 -101.5t18.5 -124.5q0 -52 -10.5 -83t-35.5 -56l37 -70q46 37 67.5 86.5t21.5 122.5q0 108 -33.5 191.5t-89.5 120.5l-104 358q-20 68 -102 122.5t-204 86t-262 31.5zM583 563q18 0 30.5 -13
t12.5 -31q0 -17 -13 -30t-30 -13q-18 0 -31 12.5t-13 30.5t13 31t31 13zM731 664q23 0 39 -16.5t16 -38.5q0 -23 -16 -39t-39 -16q-22 0 -38.5 16t-16.5 39q0 22 16.5 38.5t38.5 16.5zM683 463q18 0 30.5 -13t12.5 -31q0 -17 -13 -30t-30 -13q-18 0 -31 12.5t-13 30.5t13 31
t31 13zM875 508q28 0 47 -19.5t19 -47.5q0 -27 -19.5 -46.5t-46.5 -19.5q-28 0 -47.5 19t-19.5 47t19.5 47.5t47.5 19.5zM1025 544q20 0 34 -17t14 -39q0 -23 -14 -39.5t-34 -16.5q-21 0 -35 16.5t-14 39.5t14 39.5t35 16.5zM1140 1144q206 0 343 -24t217.5 -79.5
t115 -148.5t34.5 -231q0 -148 -53 -272.5t-148.5 -216.5t-225 -143t-283.5 -51t-283.5 51t-225 143t-148.5 216.5t-53 272.5q0 138 34 231t114.5 148.5t218 79.5t343.5 24zM738 265q17 20 47.5 19t56.5 -23q25 -21 31.5 -50.5t-10.5 -49.5q-16 -21 -46.5 -20t-56.5 23
q-25 21 -31.5 50.5t9.5 50.5zM1259 667q22 0 37 -15.5t15 -37.5t-15 -37.5t-37 -15.5t-37.5 15.5t-15.5 37.5t15.5 37.5t37.5 15.5zM945 304q17 0 29 -12.5t12 -29.5t-12 -29.5t-29 -12.5t-29.5 12.5t-12.5 29.5t12.5 29.5t29.5 12.5zM1273 745q-56 0 -99 -17.5t-82.5 -35
t-88.5 -17.5q-41 0 -84.5 13t-88 25.5t-89.5 12.5q-57 0 -114 -24t-105 -59.5t-80 -71.5t-40 -60l47 -192l185 -223l246 -144l260 -15l260 15l246 144l185 223l47 192q-35 61 -87.5 78.5t-115.5 21t-132 23.5q-46 13 -84 39.5t-81 49t-105 22.5zM1050 141q23 0 39.5 -17
t16.5 -40t-16.5 -39.5t-39.5 -16.5t-40 16.5t-17 39.5t17 40t40 17zM1649 587q25 0 42 -17.5t17 -42.5t-17 -42.5t-42 -17.5t-42.5 17.5t-17.5 42.5t17.5 42.5t42.5 17.5zM1523 403q18 0 30.5 -13t12.5 -31q0 -17 -13 -30t-30 -13q-18 0 -31 12.5t-13 30.5t13 31t31 13z
M1800 412l-97 -128l457 -359l95 127z" />
</svg>