<?xml version="1.0" standalone="no"?>
<!DOCTYPE svg PUBLIC "-//W3C//DTD SVG 1.1//EN" "http://www.w3.org/Graphics/SVG/1.1/DTD/svg11.dtd">
<svg xmlns="http://www.w3.org/2000/svg" xmlns:xlink="http://www.w3.org/1999/xlink" version="1.1"
   viewBox="94 -151 2414 2169">
   <path fill="currentColor"
      d="M1360 1922q-61 0 -128.5 -37t-127 -96t-97 -125.5t-37.5 -126.5q0 -52 30 -80q215 -199 408 -392.5t395 -407.5q44 -47 101 -47q39 0 72 24.5t47 65.5q6 -1 19 -1q67 0 109 46.5t42 108.5q0 11 -1 16q41 11 64 47.5t23 75.5q0 58 -43 100q-212 202 -406 394.5t-395 406.5
q-27 28 -75 28zM1361 1696q-12 12 -45 -4.5t-65 -48.5q-31 -32 -48 -64t-4 -44q12 -11 44.5 4.5t63.5 47.5q32 31 49 64t5 45zM998 947q14 0 21.5 -7.5t7.5 -19.5q0 -15 -10 -32q-16 -26 -24.5 -61t-8.5 -66q0 -22 5 -42.5t5 -28.5q0 -12 -6.5 -21.5t-20.5 -9.5
q-22 0 -33 37t-11 69t10.5 75t28 75t36.5 32zM522 740l-36 -789l70 -6l36 788zM1361 1844q11 0 16 -5q202 -215 396.5 -408.5t407.5 -395.5q15 -14 15 -39q0 -33 -22 -54t-58 -29q6 -23 6 -41q0 -43 -30 -72.5t-76 -29.5q-22 0 -40 7q-13 -38 -33 -62.5t-39 -24.5
q-23 0 -43 22q-202 214 -396.5 409t-409.5 395q-6 4 -6 18q0 43 32 96t81 102t102.5 80.5t96.5 31.5zM1132 1125q-95 0 -173 -46t-124 -124t-46 -173q0 -96 46 -173.5t124 -123t173 -45.5q96 0 173.5 45.5t123.5 123t46 173.5q0 95 -46 173t-123.5 124t-173.5 46zM312 501
l8 -70l466 -7l-51 -466l69 -19l56 515l-45 39zM1407 1140l-128 -128l93 -92l127 127zM896 628l-90 -90l88 -90l91 91zM2244 1978l-476 -477l92 -91l478 476zM409 874q-36 0 -66 -22.5t-38 -68.5q-10 -54 -17.5 -133.5t-13 -180.5t-8 -221t-2.5 -255q0 -41 28.5 -68.5
t70.5 -27.5q107 0 218 2t216 7t195.5 13t157.5 20q46 8 68.5 38t22.5 66q0 22 -8.5 44t-25.5 41q-118 133 -230.5 251t-230.5 230.5t-252 230.5q-19 16 -40.5 25t-44.5 9zM409 793q18 0 32 -13q184 -167 363 -343t343 -362q13 -14 13 -32q0 -10 -6 -16.5t-18 -8.5
q-52 -10 -128.5 -17.5t-175 -13t-215 -8t-247.5 -2.5q-27 0 -27 26q0 131 2.5 247.5t8 215t13 175t17.5 128.5q2 12 8.5 18t16.5 6zM1100 225l-793 -15l5 -70l795 15zM1370 1444l-43 -43q191 -188 345.5 -349.5t302.5 -324.5l47 40q-150 164 -307 327.5t-345 349.5z
M1493 1567l-42 -43q183 -188 355.5 -352.5t337.5 -315.5l40 46q-164 148 -335 312.5t-356 352.5z" />
</svg>