<?xml version="1.0" standalone="no"?>
<!DOCTYPE svg PUBLIC "-//W3C//DTD SVG 1.1//EN" "http://www.w3.org/Graphics/SVG/1.1/DTD/svg11.dtd">
<svg xmlns="http://www.w3.org/2000/svg" xmlns:xlink="http://www.w3.org/1999/xlink" version="1.1"
   viewBox="94 -151 2414 2169">
   <path fill="currentColor"
      d="M1300 1460q-189 0 -334.5 -52.5t-244.5 -140t-150 -196t-51 -220.5q0 -41 11.5 -75.5t24.5 -58.5q17 -94 75 -165.5t145 -112t189 -40.5q78 0 146.5 32t132.5 108q28 -11 55 -11q63 0 107 45t44 113q0 30 -9 56.5t-25 50.5q31 38 31 96t-29 105t-77 71q-2 24 -7 43
q194 -8 340 -58.5t227.5 -128.5t81.5 -167q-21 -85 -88.5 -152t-162.5 -96l23 -76q94 29 167 93.5t115.5 150t42.5 177.5q0 112 -51 220.5t-150 196t-244.5 140t-334.5 52.5zM1300 1978q-131 0 -236.5 -29.5t-166.5 -79.5t-61 -113q0 -78 104 -140.5t272 -84.5l11 72
q-139 19 -221.5 60.5t-82.5 92.5q0 37 54 70t141.5 53.5t185.5 20.5q99 0 185.5 -20.5t140.5 -53.5t54 -70q0 -51 -82.5 -92.5t-220.5 -60.5l11 -72q167 22 271 84.5t104 140.5q0 63 -61 113t-166 79.5t-236 29.5zM1300 1731q-71 0 -112 -24t-41 -52q0 -18 12.5 -30
t24.5 -26t12 -36v-139h208v139q0 22 12.5 36t24.5 26t12 30q0 31 -45 53.5t-108 22.5zM806 756l-26 -42q33 -20 60 -27l13 48q-25 8 -47 21zM1300 1380q134 0 249.5 -31.5t207 -89.5t151.5 -136.5t82 -171.5q2 -7 2.5 -13t1.5 -13q-53 79 -152.5 138t-237 91t-304.5 32
q-166 0 -304 -32t-237.5 -91t-152.5 -138q1 7 2 13t2 13q22 93 82 171.5t151.5 136.5t207.5 89.5t249 31.5zM1242 1107q10 -17 19 -37.5t13 -54.5q38 0 67 -40t29 -86q0 -23 -6 -48t-29 -44q20 -26 29 -54t9 -55q0 -35 -24.5 -58t-66.5 -23q-12 0 -31 5.5t-36 16.5
q-49 -78 -111 -115t-139 -37q-89 0 -165 37.5t-122 102t-46 144.5q0 89 77 165t214.5 125t318.5 56zM1073 802q-9 -2 -16.5 -2h-15.5q-13 0 -19 1l-5 -47q8 -2 15.5 -2.5t14.5 -0.5q9 0 17.5 1t16.5 3zM968 654q-23 -12 -51 -20l11 -51q20 4 36.5 10.5t29.5 14.5zM1633 856
l-43 -17q7 -17 15 -30.5t16 -23.5l35 31q-15 17 -23 40zM1199 237l-38 -31q22 -29 47 -45l28 41q-10 7 -19 15.5t-18 19.5zM1724 754l-14 -44q31 -10 60 -10v46q-24 0 -46 8zM1515 731q-31 0 -57 -9t-48 -26l21 -67q18 12 37.5 17t46.5 5q44 0 70 -30.5t35 -76.5
q26 0 50.5 -8.5t40 -23.5t15.5 -32q0 -21 -16 -43t-65 -38q4 -24 6.5 -51t2.5 -58q0 -93 -40 -163.5t-110.5 -110.5t-163.5 -40q-96 0 -170 37.5t-116 101.5t-42 146q0 41 7 81q-37 15 -52.5 38t-15.5 46l-79 -14q5 -25 18.5 -50t45.5 -48q-4 -23 -4 -53q0 -86 45 -169.5
t135.5 -138.5t227.5 -55q107 0 196.5 47t143.5 135t54 210q0 24 -1 41t-5 34q29 8 53.5 44.5t24.5 70.5q0 47 -38.5 87t-98.5 40q-12 56 -53.5 90t-100.5 34zM1499 286q-13 -4 -25 -6.5t-25 -3.5l3 -48q33 1 63 13zM1358 128q-7 -2 -14.5 -2h-15.5h-12t-13 1l-6 -52
q20 -3 36 -3q20 0 35 4z" />
</svg>