<?xml version="1.0" standalone="no"?>
<!DOCTYPE svg PUBLIC "-//W3C//DTD SVG 1.1//EN" "http://www.w3.org/Graphics/SVG/1.1/DTD/svg11.dtd">
<svg xmlns="http://www.w3.org/2000/svg" xmlns:xlink="http://www.w3.org/1999/xlink" version="1.1"
   viewBox="94 -151 2414 2169">
   <path fill="currentColor"
      d="M288 1773q-70 0 -115 -46t-45 -114q0 -42 19.5 -81t62.5 -76q48 -43 94.5 -106t83.5 -162q31 -81 60 -142t68 -105t99 -74l334 -4q82 40 152.5 120.5t122 185.5t76.5 218l-2 337q-8 25 -29 37t-53 12h-928zM291 1905v-160h86v160h-86zM501 1905v-160h80v160h-80z
M291 1978v-93h906v93h-906zM704 1905v-160h80v160h-80zM907 1905v-160h80v160h-80zM420 1662h720l-79 -137q-40 18 -82.5 27t-79.5 9q-39 0 -70 -9.5t-51 -28.5h-248q-24 38 -54 75t-56 64zM571 1429q79 -5 128.5 -40t49.5 -90q0 -34 -22.5 -54.5t-57.5 -20.5q-25 0 -53 10
q0 52 -9.5 103t-35.5 92zM1111 1905v-160h86v160h-86zM908 1480q27 0 59 -5.5t66 -17.5q-17 -32 -33 -69t-30 -74q-61 1 -111.5 28.5t-50.5 72.5q0 31 30 48t70 17zM1388 1905v-160h86v160h-86zM618 1164h124v-229h-124v229zM1598 1905v-160h80v160h-80zM476 659
q-36 0 -62 -27t-26 -65q0 -43 20 -68.5t54 -25.5zM1388 1978v-93h906v93h-906zM1378 1687q68 0 133 -45.5t119 -114.5t88 -139q-48 34 -103.5 57.5t-109.5 43.5q-77 28 -137.5 58t-60.5 82q0 25 18.5 41.5t52.5 16.5zM1801 1905v-160h80v160h-80zM791 755q-81 0 -81 -50
q0 -28 81 -28t81 28q0 50 -81 50zM672 591q-32 0 -55.5 -14.5t-23.5 -37.5q0 -24 25 -24q10 0 25.5 6t28.5 6q14 0 29 -6t25 -6q25 0 25 24q0 23 -23.5 37.5t-55.5 14.5zM790 844q148 0 207 -81.5t58 -245.5q-31 -22 -47 -65t-16 -90h-404q0 47 -15.5 90t-47.5 65
q-1 164 58 245.5t207 81.5zM689 457q-16 0 -29.5 -7.5t-13.5 -17.5t14.5 -16.5t30.5 -6.5q15 0 27 6t12 17q0 10 -13 17.5t-28 7.5zM2004 1905v-160h80v160h-80zM1601 1655h421q-51 -44 -92.5 -96t-73.5 -125h-108q-30 78 -69.5 130t-77.5 91zM790 918q-109 0 -185 -44.5
t-115.5 -121.5t-39.5 -174v-270q0 -80 47.5 -109t177.5 -29v-165q0 -41 25.5 -74t89.5 -33t89.5 33t25.5 74v165q130 0 177.5 29t47.5 109v270q0 97 -40 174t-116 121.5t-184 44.5zM907 591q-32 0 -55.5 -14.5t-23.5 -37.5q0 -24 25 -24q10 0 25.5 6t28.5 6q14 0 29 -6
t25 -6q25 0 25 24q0 23 -23.5 37.5t-55.5 14.5zM2208 1905v-160h86v160h-86zM1385 1773q-76 0 -96 -53t-20 -171q0 -95 26.5 -195t75 -192t114 -165t143.5 -113l345 2q86 46 149 125.5t102 176.5t77.5 161t87.5 107q43 37 63 75.5t20 79.5q0 69 -45 115.5t-116 46.5h-926z
M891 457q-15 0 -28 -7.5t-13 -17.5q0 -11 12 -17t27 -6q16 0 30.5 6.5t14.5 16.5t-13 17.5t-30 7.5zM1104 659l14 -186q34 0 54 25.5t20 68.5q0 38 -26 65t-62 27zM2288 1683q42 0 62.5 -16.5t20.5 -44.5q0 -54 -56.5 -80.5t-145.5 -51.5q-67 -19 -132.5 -44.5t-132.5 -62.5
q11 49 53 101.5t100.5 97.5t120 73t110.5 28zM1794 1366l290 -216q-39 -89 -112.5 -145.5t-177.5 -56.5t-177.5 56.5t-112.5 145.5zM387 181v-80h243v-80h320v80h243v80h-806zM1794 754q-42 0 -61 -14t-19 -30q0 -27 80 -27t80 27q0 16 -19 30t-61 14zM1665 591
q-32 0 -55.5 -14.5t-23.5 -37.5q0 -25 25 -25q10 0 25.5 6t28.5 6q14 0 29 -6t25 -6q25 0 25 25q0 23 -23.5 37.5t-55.5 14.5zM1794 869q117 0 190 -81.5t73 -204.5q0 -78 -17.5 -132t-42.5 -90.5t-48 -60.5q-38 21 -77 32.5t-78 11.5t-78 -11.5t-77 -32.5
q-22 24 -47.5 60.5t-43 90.5t-17.5 132q0 123 73 204.5t190 81.5zM1692 446q-16 0 -29.5 -7.5t-13.5 -17.5q0 -11 14.5 -17.5t30.5 -6.5q15 0 27 6.5t12 17.5q0 10 -13 17.5t-28 7.5zM1677 943q-119 -69 -197.5 -125.5t-117 -112.5t-38.5 -121q0 -97 38 -171.5t104.5 -135
t150.5 -113.5q17 -67 59.5 -105.5t117.5 -38.5t117.5 38.5t59.5 105.5q83 48 149 108.5t105 137t39 174.5q0 65 -38.5 121t-116.5 112.5t-198 125.5h-234zM1920 591q-32 0 -55.5 -14.5t-23.5 -37.5q0 -25 25 -25q10 0 25.5 6t28.5 6q14 0 29 -6t25 -6q25 0 25 25
q0 23 -23.5 37.5t-55.5 14.5zM1894 446q-15 0 -28 -7.5t-13 -17.5q0 -11 12 -17.5t27 -6.5q16 0 30.5 6.5t14.5 17.5q0 10 -13 17.5t-30 7.5zM1794 287q40 0 67.5 -28.5t27.5 -67.5q0 -40 -27.5 -68t-67.5 -28t-67.5 28t-27.5 68q0 39 27.5 67.5t67.5 28.5zM1679 66
q-11 -16 -19 -37.5t-8 -40.5q0 -47 42 -47q13 0 26.5 8t25.5 28q0 -34 13 -56.5t35 -22.5t35 22.5t13 56.5q12 -20 25.5 -28t26.5 -8q42 0 42 47q0 19 -8 40.5t-19 37.5h-230z" />
</svg>