<?xml version="1.0" standalone="no"?>
<!DOCTYPE svg PUBLIC "-//W3C//DTD SVG 1.1//EN" "http://www.w3.org/Graphics/SVG/1.1/DTD/svg11.dtd">
<svg xmlns="http://www.w3.org/2000/svg" xmlns:xlink="http://www.w3.org/1999/xlink" version="1.1"
   viewBox="94 -151 2414 2169">
   <path fill="currentColor"
      d="M1303 1938q-200 0 -376.5 -78t-311.5 -214.5t-212 -315t-77 -379.5q0 -225 89 -411t243.5 -320.5t353.5 -208t418 -73.5q135 0 260.5 34.5t231.5 93t185 130.5t123 148t44 144q0 44 -16.5 64.5t-40.5 20.5q-31 0 -70.5 -39t-96.5 -96.5t-140 -115.5t-200.5 -97
t-279.5 -39q-171 0 -319.5 58.5t-261 163t-175.5 243.5t-63 300q0 148 53.5 277t148.5 226.5t220.5 152.5t269.5 55q124 0 231 -43t187.5 -119.5t125.5 -178t45 -218.5q0 -135 -61 -242.5t-165.5 -170t-235.5 -62.5q-154 0 -248.5 89t-94.5 234q0 121 65 186.5t151 65.5
q62 0 100 -26.5t38 -73.5q0 -33 -21 -56.5t-48 -45t-48 -47t-21 -62.5q0 -41 27.5 -64.5t72.5 -23.5q63 0 122 44.5t96.5 113t37.5 141.5q0 96 -46.5 172.5t-127 121t-182.5 44.5q-132 0 -237 -64.5t-166 -175.5t-61 -250q0 -165 77.5 -296t211.5 -207.5t302 -76.5
q153 0 285.5 56t232 156t155.5 233t56 287q0 174 -66 325.5t-183 266t-272.5 179t-334.5 64.5z" />
</svg>