<?xml version="1.0" standalone="no"?>
<!DOCTYPE svg PUBLIC "-//W3C//DTD SVG 1.1//EN" "http://www.w3.org/Graphics/SVG/1.1/DTD/svg11.dtd">
<svg xmlns="http://www.w3.org/2000/svg" xmlns:xlink="http://www.w3.org/1999/xlink" version="1.1"
   viewBox="94 -151 2414 2169">
   <path fill="currentColor"
      d="M652 1082q-106 0 -166 -71.5t-60 -183.5q0 -139 70 -274t193 -253t285.5 -208.5t348.5 -142t379 -51.5q358 0 358 238q0 74 -36.5 126.5t-85.5 66.5q-26 -25 -66.5 -38.5t-75.5 -13.5q-28 0 -74.5 24.5t-87.5 35.5q-73 18 -131.5 21.5t-107 10.5t-93.5 37
q-53 35 -80.5 71t-53.5 73.5t-76 77.5q-33 26 -76 46t-82.5 39.5t-61.5 42.5q-40 42 -59 87t-28.5 87.5t-21 77t-36.5 54.5t-75 20zM1353 1632q-88 -71 -202.5 -170.5t-236.5 -212t-236 -223.5l56 -57q101 100 212 203t215.5 195t185.5 161zM1456 1978q-61 0 -95 -41
t-47 -143t-13 -283q0 -86 -10 -134.5t-33 -68.5l-478 -427l42 -57l502 451q19 17 31 49t17.5 81t5.5 118q0 157 5.5 237.5t22 109t49.5 28.5q49 0 69 -51.5t20 -183.5q0 -76 17.5 -118.5t46.5 -42.5q10 0 19 4.5t22 12.5q35 24 95 59.5t128.5 72t130 62.5t99.5 30l-3 71
q-37 -5 -94 -27t-121.5 -54.5t-126 -67.5t-106.5 -65q-4 -3 -9 -3q-15 0 -20 38t-5 106q0 120 -41 178.5t-120 58.5zM1430 1372q-45 0 -77 -32.5t-32 -77.5t32 -77.5t77 -32.5t77.5 32.5t32.5 77.5t-32.5 77.5t-77.5 32.5zM1148 1072q-67 0 -113.5 -46.5t-46.5 -113.5
t46.5 -113.5t113.5 -46.5t113.5 46.5t46.5 113.5t-46.5 113.5t-113.5 46.5zM1860 1534q-48 0 -81 -33t-33 -81q0 -47 33 -80t81 -33q47 0 79.5 33t32.5 80q0 48 -32.5 81t-79.5 33zM1565 1048q-59 0 -101 -42.5t-42 -101.5t42 -101.5t101 -42.5q60 0 102.5 42.5t42.5 101.5
t-42.5 101.5t-102.5 42.5zM652 1002q32 0 42 -26t17 -69.5t27.5 -96.5t72.5 -106q31 -31 72 -51.5t83 -40t74 -45.5q41 -34 68 -72t61 -78t93 -79q55 -36 119 -46.5t128.5 -15t120.5 -21.5q39 -12 78 -35t88 -23q37 0 76 10.5t72 28.5q17 -16 26.5 -42.5t9.5 -57.5
q0 -81 -63.5 -119.5t-214.5 -38.5q-179 0 -352.5 47.5t-325.5 130.5t-268.5 191.5t-183 231.5t-66.5 248q0 83 38.5 129t107.5 46zM2041 1978q-28 0 -80.5 -20t-116 -51t-126 -64t-110.5 -59v-93q180 100 289.5 153.5t143.5 53.5q25 0 39 -37t14 -100q0 -154 -14 -288
t-37 -264t-51 -269t-58 -302t-56 -365l79 -10q28 211 58 377t58 305.5t51 267.5t36.5 260.5t13.5 287.5q0 97 -37 157t-96 60zM1980 1222q-71 0 -122.5 -51t-51.5 -123q0 -75 60.5 -128t154.5 -57l51 342q-24 7 -48.5 12t-43.5 5zM1772 714q-66 0 -113 -47t-47 -113t47 -113
t113 -47q65 0 112 47t47 113t-47 113t-112 47z" />
</svg>