<?xml version="1.0" standalone="no"?>
<!DOCTYPE svg PUBLIC "-//W3C//DTD SVG 1.1//EN" "http://www.w3.org/Graphics/SVG/1.1/DTD/svg11.dtd">
<svg xmlns="http://www.w3.org/2000/svg" xmlns:xlink="http://www.w3.org/1999/xlink" version="1.1"
   viewBox="94 -151 2414 2169">
   <path fill="currentColor"
      d="M1587 1965q-157 0 -266.5 -64.5t-165.5 -190.5l47 -59q54 117 150.5 175.5t234.5 58.5q209 0 302 -115t93 -373q0 -116 -21.5 -219t-69 -213t-124.5 -246q-73 -130 -73 -220q0 -26 8.5 -54t31 -71.5t64.5 -117.5q18 -32 35 -72.5t27.5 -77.5t10.5 -56q0 -27 -26.5 -42.5
t-88.5 -22.5t-169 -7t-170 7t-89.5 22.5t-26.5 42.5q0 19 11 56t27.5 77.5t34.5 72.5q42 74 64.5 117.5t31 71.5t8.5 54q0 90 -73 220q-77 136 -124.5 246t-69 213t-21.5 219h-80q0 -93 12.5 -176.5t39.5 -168t71 -178t106 -204.5q59 -104 59 -171q0 -18 -6.5 -38
t-25.5 -56.5t-57 -101.5q-40 -71 -64 -139.5t-24 -113.5q0 -80 86.5 -116t279.5 -36q191 0 277.5 36t86.5 116q0 45 -23.5 113.5t-64.5 139.5q-37 65 -56.5 101.5t-26 56.5t-6.5 38q0 65 58 172q63 111 106.5 204t71 177.5t40 168t12.5 176.5q0 291 -116 429.5t-359 138.5z
M896 1978q-49 0 -91 -7.5t-68 -22.5v-111h318v111q-26 15 -68 22.5t-91 7.5zM896 1822q136 0 207 -96t71 -282q-52 18 -123.5 27.5t-154.5 9.5q-170 0 -278 -37q0 186 71 282t207 96zM896 1902q-168 0 -263 -120t-95 -334v-63q0 -26 49.5 -47t131 -34t177.5 -13q97 0 178 13
t130.5 34t49.5 47v63q0 214 -95 334t-263 120zM1675 1746q-19 4 -30.5 -6t-11.5 -24q0 -26 29 -36q58 -20 81 -86.5t23 -145.5q0 -32 -2.5 -63.5t-8.5 -61.5q-4 -20 7 -31.5t25 -11.5q10 0 19.5 7t12.5 23q7 36 10.5 72.5t3.5 71.5q0 104 -36 187t-122 105zM1587 113
q-90 0 -163 -11t-116.5 -30.5t-43.5 -42.5q0 -24 43.5 -43t116.5 -30t163 -11q89 0 162 11t116 30t43 43q0 23 -43 42.5t-116 30.5t-162 11z" />
</svg>