<?xml version="1.0" standalone="no"?>
<!DOCTYPE svg PUBLIC "-//W3C//DTD SVG 1.1//EN" "http://www.w3.org/Graphics/SVG/1.1/DTD/svg11.dtd">
<svg xmlns="http://www.w3.org/2000/svg" xmlns:xlink="http://www.w3.org/1999/xlink" version="1.1"
   viewBox="94 -151 2414 2169">
   <path fill="currentColor"
      d="M276 1678l-64 -46l76 -106v-746q0 -148 71 -276t195.5 -224.5t288 -150.5t347.5 -54q186 0 349.5 54.5t288 151t194.5 224.5t70 275v746l76 106l-64 46l-92 -126v-772q0 -130 -64 -243t-177 -199t-262 -134.5t-319 -48.5q-168 0 -316.5 48t-262.5 134t-178.5 199
t-64.5 244v772zM204 1978v-363h1972v363h-1972zM284 1898h1812v-203h-1812v203zM687 1305q0 -62 17 -107t58 -86q-5 1 -11 1.5t-11 0.5q-9 0 -17.5 -2.5t-17.5 -7.5q-15 -8 -28 -8q-11 0 -21 5q-8 26 -13.5 35t-13.5 9q-11 0 -16 -20t-5 -62q0 -33 4 -52t15 -19q8 0 17 13
q5 9 10 9q12 0 28 -14q20 -18 36 -18q13 0 31 12q11 7 28.5 13.5t30.5 6.5q17 0 35 -5q13 -4 20 -4t12.5 9.5t6.5 20.5l-25 48q-34 67 -44.5 111.5t-10.5 110.5h-115zM946 1499v-679h46v679h-46zM468 1534v-750h1444v750h-1444zM548 1454h1284v-590h-1284v590zM1137 1305
q0 -62 17 -107t58 -86q-5 1 -11 1.5t-11 0.5q-9 0 -17.5 -2.5t-17.5 -7.5q-15 -8 -28 -8q-11 0 -21 5q-8 26 -13.5 35t-13.5 9q-11 0 -16 -20t-5 -62q0 -33 4 -52t15 -19q8 0 17 13q5 9 10 9q12 0 28 -14q20 -18 36 -18q13 0 31 12q11 7 28.5 13.5t30.5 6.5q17 0 35 -5
q13 -4 20 -4t12.5 9.5t6.5 20.5l-25 48q-35 67 -45 111.5t-10 110.5h-115zM1388 1499v-679h46v679h-46zM1153 839l-436 -356l50 -62l436 356zM1150 810v-506h80v506h-80zM544 812l-76 -28q94 -256 280 -388t442 -132q257 0 442.5 132t279.5 388l-76 28q-85 -233 -250 -350.5
t-396 -117.5t-396 117.5t-250 350.5zM1227 839l-50 -62l436 -356l50 62zM2063 1429v-80h167q11 0 15.5 -5t4.5 -16v-333h80v335q0 54 -23 76.5t-75 22.5h-169zM990 107q0 -89 45.5 -149t154.5 -60q110 0 155 60t45 149h-400zM2293 1039q-44 0 -74.5 -30t-30.5 -73
q0 -44 30.5 -74t74.5 -30q43 0 73 30t30 74q0 43 -30 73t-73 30zM1577 1305q0 -62 17 -107t58 -86q-5 1 -11 1.5t-11 0.5q-9 0 -17.5 -2.5t-17.5 -7.5q-15 -8 -28 -8q-11 0 -21 5q-8 26 -13.5 35t-13.5 9q-11 0 -16 -20t-5 -62q0 -33 4 -52t15 -19q8 0 17 13q5 9 10 9
q12 0 28 -14q20 -18 36 -18q13 0 31 12q11 7 28.5 13.5t30.5 6.5q17 0 35 -5q13 -4 20 -4t12.5 9.5t6.5 20.5l-25 48q-34 67 -44.5 111.5t-10.5 110.5h-115z" />
</svg>