<?xml version="1.0" standalone="no"?>
<!DOCTYPE svg PUBLIC "-//W3C//DTD SVG 1.1//EN" "http://www.w3.org/Graphics/SVG/1.1/DTD/svg11.dtd">
<svg xmlns="http://www.w3.org/2000/svg" xmlns:xlink="http://www.w3.org/1999/xlink" version="1.1"
   viewBox="94 -151 2414 2169">
   <path fill="currentColor"
      d="M1299 1455l-1204 -685v-175l1205 -697l1205 697v177zM615 1978q-27 0 -46.5 -22t-24.5 -56q-5 28 -21 47.5t-33 19.5q-35 0 -35 -53q0 -58 10.5 -138.5t27.5 -170t37.5 -176.5t41.5 -157q-23 -17 -37.5 -40t-14.5 -48q0 -29 13.5 -53.5t38.5 -35.5v-121q0 -65 15 -96.5
t58 -59.5l538 -339l74 51l-525 336q-41 26 -50.5 50.5t-14.5 80.5l-8 98q26 10 39.5 34.5t13.5 54.5q0 28 -14 53t-40 34q21 71 42 158t38.5 176.5t28 169.5t10.5 139q0 53 -36 53q-17 0 -33 -19.5t-21 -47.5q-4 34 -24 56t-48 22zM1309 1659q-187 0 -370 -70.5t-326 -197.5
l51 -60q132 117 302 182t343 65q177 0 335 -58t278 -167v-291l80 -48v376q-92 87 -202.5 147t-234 91t-256.5 31zM1297 1387l1128 -639v-46l-1128 639l-1152 -657v46zM1297 1272l1120 -634l-1118 -648l-1117 646zM1224 585q-40 0 -69.5 -25.5t-29.5 -59.5q0 -30 25 -55.5
t60.5 -41t68.5 -15.5q42 0 70 24t28 58q0 30 -24.5 56.5t-59.5 42.5t-69 16z" />
</svg>