<?xml version="1.0" standalone="no"?>
<!DOCTYPE svg PUBLIC "-//W3C//DTD SVG 1.1//EN" "http://www.w3.org/Graphics/SVG/1.1/DTD/svg11.dtd">
<svg xmlns="http://www.w3.org/2000/svg" xmlns:xlink="http://www.w3.org/1999/xlink" version="1.1"
   viewBox="94 -151 2414 2169">
   <path fill="currentColor"
      d="M249 1978v-1703h640v80h-560v1543h1942v-1543h-560v-80h640v1703h-2102zM810 1938v-300h180v300h-180zM419 1215v-120h120v120h-120zM1070 1938v-300h190v300h-190zM639 1215v-120h120v120h-120zM419 905v-120h120v120h-120zM1340 1938v-300h190v300h-190zM639 905v-120
h120v120h-120zM1610 1938v-300h180v300h-180zM419 595v-120h120v120h-120zM1039 1406v-180h522v180h-522zM639 595v-120h120v120h-120zM1039 1066v-180h522v180h-522zM571 1678v-300h278v-1480h902v1480h278v300h-1458zM651 1598h1298v-140h-278v-1480h-742v1480h-278v140z
M1841 1215v-120h120v120h-120zM1215 646v-200h-176v-168h176v-200h170v200h176v168h-176v200h-170zM2061 1215v-120h120v120h-120zM1841 905v-120h120v120h-120zM2061 905v-120h120v120h-120zM1841 595v-120h120v120h-120zM2061 595v-120h120v120h-120z" />
</svg>