<?xml version="1.0" standalone="no"?>
<!DOCTYPE svg PUBLIC "-//W3C//DTD SVG 1.1//EN" "http://www.w3.org/Graphics/SVG/1.1/DTD/svg11.dtd">
<svg xmlns="http://www.w3.org/2000/svg" xmlns:xlink="http://www.w3.org/1999/xlink" version="1.1"
   viewBox="94 -151 2414 2169">
   <path fill="currentColor"
      d="M1135 1978q-118 0 -228 -17.5t-198 -46t-139.5 -62.5t-51.5 -67q0 -78 12.5 -154t19.5 -106l11 -1012l80 37l-11 976q0 21 -7.5 54.5t-15.5 76t-8 92.5q0 25 48 51.5t127 48.5t173.5 35.5t187.5 13.5t187.5 -13.5t173.5 -35.5t127 -48.5t48 -51.5q0 -50 -7.5 -92.5
t-15.5 -76t-8 -54.5l-11 -1006l80 -37l11 1042q7 30 19.5 106t12.5 154q0 33 -51.5 67t-139.5 62.5t-198 46t-228 17.5zM973 1591q17 0 26 -7t9 -20q0 -20 -15 -28t-30.5 -23.5t-15.5 -57.5v-390q0 -14 -6.5 -27.5t-23.5 -13.5t-23.5 13t-6.5 28v390q0 65 23.5 100.5
t62.5 35.5zM1135 1718q-97 0 -176 -17.5t-125.5 -50t-46.5 -76.5v-931l93 141l204 -173l399 -18v981q0 44 -46.5 76.5t-125 50t-176.5 17.5zM1310 1278q26 0 45.5 -19.5t19.5 -47.5q0 -26 -19.5 -45.5t-45.5 -19.5q-28 0 -47.5 19.5t-19.5 45.5q0 28 19.5 47.5t47.5 19.5z
M1190 1067q30 0 50.5 -21.5t20.5 -52.5q0 -29 -20.5 -50.5t-50.5 -21.5q-28 0 -49.5 21.5t-21.5 50.5q0 31 21.5 52.5t49.5 21.5zM1296 843q25 0 41 -16.5t16 -40.5q0 -23 -16 -39.5t-41 -16.5q-24 0 -40.5 16.5t-16.5 39.5q0 24 16.5 40.5t40.5 16.5zM1682 1285v-93
q62 -30 97.5 -75.5t35.5 -114.5q0 -60 -24 -84.5t-76 -24.5q-19 0 -37 3v-79q12 -2 24 -3t22 -1q77 0 124 48.5t47 140.5q0 93 -50 160.5t-163 122.5zM843 849l-89 -151q-24 -41 -39.5 -64t-23.5 -24q-94 -16 -137.5 -60t-43.5 -119q0 -87 89 -153q5 -95 71.5 -159
t158.5 -64h14q56 -73 140 -115t180 -42q134 0 231.5 73.5t138.5 204.5q121 10 176.5 57.5t55.5 134.5q0 143 -160.5 205t-484.5 62zM890 749q16 0 37 -29.5t48.5 -67.5t64 -67.5t84.5 -29.5q282 0 421.5 -46.5t139.5 -140.5q0 -56 -42.5 -85t-170.5 -33
q-34 -136 -111.5 -204t-197.5 -68q-87 0 -159.5 42.5t-117.5 106.5q-10 0 -19 0.5t-18 1.5q-76 7 -121.5 43.5t-45.5 92.5q0 12 0.5 24.5t1.5 26.5q-43 19 -68.5 50.5t-25.5 64.5q0 31 35.5 62.5t81.5 38.5q25 4 51 30.5t49 68.5l20 36q18 32 35.5 57t27.5 25zM1679 1500
v-83q169 -68 250 -170.5t81 -244.5q0 -143 -74 -224.5t-206 -81.5q-24 0 -59 5v-80q37 -5 64 -5q107 0 187 48t124 134.5t44 203.5q0 175 -105 302.5t-306 195.5z" />
</svg>