<?xml version="1.0" standalone="no"?>
<!DOCTYPE svg PUBLIC "-//W3C//DTD SVG 1.1//EN" "http://www.w3.org/Graphics/SVG/1.1/DTD/svg11.dtd">
<svg xmlns="http://www.w3.org/2000/svg" xmlns:xlink="http://www.w3.org/1999/xlink" version="1.1"
   viewBox="94 -151 2414 2169">
   <path fill="currentColor"
      d="M1300 1836q-266 0 -483.5 -55.5t-374.5 -158t-241.5 -245.5t-84.5 -317q0 -179 92 -329t268 -258l11 89q-139 88 -215 217t-76 281q0 156 78.5 284t224.5 220t349 142t452 50t452 -50t349 -142t224.5 -220t78.5 -284q0 -211 -151.5 -376t-421.5 -247l-64 -102
q222 55 383 161t247.5 250t86.5 314q0 174 -84.5 317t-241.5 245.5t-374.5 158t-483.5 55.5zM912 1449q21 0 34 -12.5t13 -27.5t-7.5 -27t-30.5 -18q-114 -29 -195 -79t-127 -112q-28 -38 -56 -38q-16 0 -26.5 13.5t-10.5 28.5q0 36 43 82.5t108.5 89.5t134.5 71.5t120 28.5
zM1300 1928q-265 0 -451 -51t-296 -137.5t-149 -193.5l394 185l502 63l510 -63l395 -185q-38 107 -149 193.5t-298.5 137.5t-457.5 51zM932 1268q44 0 61.5 -15.5t17.5 -35.5q0 -50 -45.5 -75.5t-100.5 -25.5q-22 0 -48 16t-26 36q0 53 26 76.5t115 23.5zM1352 1537
q52 0 80.5 -39.5t28.5 -86.5q0 -58 -29.5 -81t-83.5 -23q-38 0 -64.5 23.5t-40.5 55.5q-20 29 -20 57q0 58 37 76t92 18zM1194 1322q47 -26 76.5 -56.5t29.5 -60.5q0 -33 -19.5 -52t-51.5 -19q-44 0 -78 31.5t-34 73.5q0 33 22.5 53.5t54.5 29.5zM1193 914l6 -51
q21 0 39.5 -20t18.5 -42q0 -7 -2 -15l46 -19q6 18 6 33q0 43 -33.5 78.5t-74.5 35.5h-2.5h-3.5zM1631 1406q107 0 147.5 -50.5t40.5 -150.5q0 -25 -21.5 -58t-53.5 -33q-20 0 -50 25.5t-59.5 63.5t-49.5 76t-20 64q0 28 15 45.5t51 17.5zM1300 1601q-194 0 -364 -38.5
t-299 -111t-202 -176t-73 -232.5q0 -68 17 -132t63 -128q-7 -20 -10 -38.5t-3 -35.5q0 -55 27 -92q-14 -22 -20 -43.5t-6 -44.5q0 -65 42.5 -114.5t100.5 -76.5q6 -81 61.5 -139t135.5 -64q26 -60 81 -95t124 -35q24 0 43 3q33 -28 76 -44t91 -16t91 16t76 44q20 -3 43 -3
q69 0 124 35t81 95q80 6 135.5 64t61.5 139q58 27 100.5 76.5t42.5 114.5q0 20 -4 45t-15 44q167 91 242.5 200.5t75.5 224.5q0 129 -73 232.5t-202 176t-299.5 111t-364.5 38.5zM1208 1039q187 0 334.5 -42.5t233.5 -114.5t86 -162q0 -45 -29 -83q15 -19 21 -46t6 -46
q0 -65 -40 -100t-90 -45q1 -5 1 -14q0 -53 -22.5 -93.5t-60.5 -64t-87 -23.5q-7 0 -14 1q-19 -61 -61 -91t-104 -30q-15 0 -31 1t-28 3q-26 -29 -62 -45t-76 -16t-76 16t-62 45q-12 -2 -28 -3t-31 -1q-62 0 -103.5 30t-61.5 91q-5 -1 -7.5 -1h-6.5q-48 0 -86.5 23.5t-61 64
t-22.5 93.5v7t1 7q-49 10 -89.5 45t-40.5 100q0 19 6 46t21 46q-29 38 -29 84q0 67 56 124.5t153 101t223.5 68t267.5 24.5zM1469 869l6 -51q21 0 39.5 -20t18.5 -42q0 -7 -2 -15l46 -19q6 18 6 33q0 43 -33.5 78.5t-74.5 35.5h-2.5h-3.5zM1392 694l6 -51q21 0 39.5 -20
t18.5 -42q0 -7 -2 -15l46 -19q6 18 6 33q0 43 -33.5 78.5t-74.5 35.5h-2.5h-3.5zM1949 1079q103 0 144.5 -21t41.5 -72q0 -36 -16 -64t-36 -28q-28 0 -54 17q-21 -3 -43 -3q-80 0 -126 28t-46 78q0 28 39 46.5t96 18.5zM1412 474l6 -51q21 0 39.5 -20t18.5 -42q0 -7 -2 -15
l46 -19q6 18 6 33q0 43 -33.5 78.5t-74.5 35.5h-2.5h-3.5zM1627 646l-10 -50q14 -5 24.5 -22.5t10.5 -37.5q0 -18 -10 -32l37 -34q23 28 23 66t-21.5 69.5t-53.5 40.5z" />
</svg>