<?xml version="1.0" standalone="no"?>
<!DOCTYPE svg PUBLIC "-//W3C//DTD SVG 1.1//EN" "http://www.w3.org/Graphics/SVG/1.1/DTD/svg11.dtd">
<svg xmlns="http://www.w3.org/2000/svg" xmlns:xlink="http://www.w3.org/1999/xlink" version="1.1"
   viewBox="94 -151 2414 2169">
   <path fill="currentColor"
      d="M1300 1978q-39 0 -71.5 -17t-68.5 -47l-104 -86h-160q-84 0 -140 -30.5t-85 -100.5l-60 -145l-55 -17q-78 -24 -118 -77.5t-40 -135.5v-133l-77 -102q-30 -40 -44 -76t-14 -73q0 -38 14 -73.5t44 -75.5l77 -102v-133q0 -83 40 -136t118 -77l55 -17l60 -145
q29 -70 85 -100.5t140 -30.5h160l104 -86q36 -30 68.5 -47t71.5 -17t71.5 17t68.5 47l104 86h160q84 0 140 30.5t85 100.5l60 145l55 17q78 24 118 77t40 136v133l77 102q30 40 44 75.5t14 73.5q0 37 -14 73t-44 76l-77 102v133q0 82 -40 135.5t-118 77.5l-55 17l-60 145
q-29 70 -85 100.5t-140 30.5h-160l-104 86q-36 30 -68.5 47t-71.5 17zM1300 1898q35 0 75 -34l141 -117h191q63 0 96 -18.5t58 -77.5l68 -164l81 -25q62 -20 87 -52t25 -89v-159l101 -133q16 -21 25 -45t9 -46t-9 -46t-25 -45l-101 -133v-159q0 -57 -25 -89.5t-87 -51.5
l-81 -25l-68 -164q-25 -59 -58 -77.5t-96 -18.5h-191l-141 -117q-40 -34 -75 -34t-75 34l-141 117h-191q-63 0 -96 18.5t-58 77.5l-68 164l-81 25q-62 19 -87 51.5t-25 89.5v159l-101 133q-16 21 -25 45t-9 46t9 46t25 45l101 133v159q0 57 25 89t87 52l81 25l68 164
q25 59 58 77.5t96 18.5h191l141 117q40 34 75 34zM1298 1544q-118 0 -221.5 -43.5t-183 -121t-124.5 -179t-45 -217.5q0 -168 69.5 -302t198.5 -224t309 -125l16 78q-243 47 -378 198.5t-135 374.5q0 132 67 241.5t179.5 174.5t247.5 65q134 0 247 -64.5t181.5 -171.5
t68.5 -234q0 -103 -44.5 -181.5t-124 -122.5t-183.5 -44q-83 0 -151.5 37.5t-109 100.5t-40.5 139q0 84 49.5 140.5t123.5 56.5q63 0 100 -40t37 -106h80q0 99 -60 162.5t-157 63.5q-72 0 -129 -37t-90.5 -99.5t-33.5 -140.5q0 -98 51.5 -179t138 -129.5t191.5 -48.5
q126 0 223.5 55t153 151.5t55.5 221.5q0 112 -45.5 211t-126 175.5t-184.5 120t-221 43.5z" />
</svg>