<?xml version="1.0" standalone="no"?>
<!DOCTYPE svg PUBLIC "-//W3C//DTD SVG 1.1//EN" "http://www.w3.org/Graphics/SVG/1.1/DTD/svg11.dtd">
<svg xmlns="http://www.w3.org/2000/svg" xmlns:xlink="http://www.w3.org/1999/xlink" version="1.1"
   viewBox="94 -151 2414 2169">
   <path fill="currentColor"
      d="M226 1978q488 -821 1012.5 -1235t1095.5 -414h20.5h19.5v312q-10 -1 -19.5 -1.5t-20.5 -0.5q-166 0 -346.5 65t-363.5 185t-357 286t-328 369t-275 434h-438zM712 1788l-214 -129l42 -68l214 129zM815 1978v-246q-10 -10 -18 -20.5t-15 -23.5l70 -64q4 24 12.5 45.5
t30.5 43.5v190h90v-193q23 -20 31.5 -36t12.5 -43l43 -285l104 -150l-69 448q-9 57 -42 91v243h-250zM996 1409l-183 -170l56 -57l183 170zM923 1049q-24 0 -40.5 -16.5t-16.5 -41.5q0 -24 16.5 -40.5t40.5 -16.5t40.5 16.5t16.5 40.5q0 25 -16.5 41.5t-40.5 16.5zM368 1898
h248q155 -284 354.5 -523.5t423.5 -418.5t454 -282t446 -115v-150q-340 9 -665 175t-639.5 493t-621.5 821zM1396 1978v-828q-16 -16 -27 -37t-16 -49l-4 -23l71 -58l12 68q5 27 12.5 44t31.5 38v770h90v-770q23 -21 31 -38t12 -44l35 -202l91 -54l-47 269q-10 58 -42 86
v828h-250zM869 893q59 -56 137 -124t157 -126l-44 -80q-78 61 -141.5 114t-115.5 104q-4 17 -7.5 36t-3.5 36q0 29 18 40zM1250 758q-24 0 -40.5 -16.5t-16.5 -41.5q0 -24 16.5 -40.5t40.5 -16.5t40.5 16.5t16.5 40.5q0 25 -16.5 41.5t-40.5 16.5zM1504 927l-147 -202
l66 -45l147 202zM1986 1978v-1086q-16 -16 -27 -37t-16 -49l-22 -130l75 -32l26 149q5 27 12.5 44t31.5 38v1028h90v-1028q23 -21 31 -38t12 -44l35 -202l83 -9l-39 224q-10 58 -42 86v1086h-250zM1228 597q77 -56 165 -109.5t152 -86.5l-41 -88q-87 46 -169 97.5
t-150 100.5zM825 1034q-31 -20 -40.5 -38.5t-9.5 -51.5q0 -23 9 -82.5t24 -127.5q36 -35 73 -67t77 -66l-39 -81q-15 -32 -15 -58q0 -32 18 -51t43 -19q20 0 41.5 13t40.5 42l35 54q59 -45 118 -85.5t116 -75.5l-19 -69q-8 -30 -8 -53q0 -34 14.5 -56t44.5 -22
q21 0 38.5 14.5t33.5 43.5l35 62q75 -39 151.5 -71.5t152.5 -57.5v-74q0 -48 17 -80t55 -32q20 0 37 19.5t27 55.5l19 69q133 -31 273 -42l13 -61q9 -42 30.5 -65t48.5 -23q31 0 46 27.5t15 60.5v57h26v210q-382 7 -771 201t-770 580zM1610 529q-24 0 -40.5 -16.5
t-16.5 -41.5q0 -24 16.5 -40.5t40.5 -16.5t40.5 16.5t16.5 40.5q0 25 -16.5 41.5t-40.5 16.5zM1616 367q34 -17 93.5 -41.5t125 -47.5t114.5 -34l-14 -89q-40 7 -93.5 23.5t-108 36t-97 36.5t-59.5 26zM2071 638l-39 -246l79 -11l39 246zM1995 394q-24 0 -40.5 -16.5
t-16.5 -41.5q0 -24 16.5 -40.5t40.5 -16.5t40.5 16.5t16.5 40.5q0 25 -16.5 41.5t-40.5 16.5zM2027 224q68 -15 139 -25t130 -12v-77q-68 1 -136.5 8.5t-145.5 20.5zM2312 352q-24 0 -40.5 -16.5t-16.5 -41.5q0 -24 16.5 -40.5t40.5 -16.5t40.5 16.5t16.5 40.5
q0 25 -16.5 41.5t-40.5 16.5z" />
</svg>