<?xml version="1.0" standalone="no"?>
<!DOCTYPE svg PUBLIC "-//W3C//DTD SVG 1.1//EN" "http://www.w3.org/Graphics/SVG/1.1/DTD/svg11.dtd">
<svg xmlns="http://www.w3.org/2000/svg" xmlns:xlink="http://www.w3.org/1999/xlink" version="1.1"
   viewBox="94 -151 2414 2169">
   <path fill="currentColor"
      d="M493 1978q-36 0 -78.5 -24t-80.5 -62t-62 -80t-24 -79q0 -48 29 -70t68.5 -41.5t71.5 -57.5q-31 -83 -41 -130.5t-10 -96.5q0 -115 34.5 -231.5t99.5 -228.5t155 -212q130 -144 208 -241.5t112.5 -161t34.5 -104.5q0 -44 -23.5 -65t-71.5 -21q-51 0 -110 37
q7 -56 41.5 -100t87 -69.5t113.5 -25.5q81 0 136.5 36.5t89.5 113.5q26 -42 50.5 -88.5t38.5 -77.5q59 43 98.5 105.5t55.5 144.5q20 -82 79.5 -132t138.5 -50q26 0 45 3.5t35 11.5q27 -33 71.5 -53t90.5 -20q75 0 123.5 50t48.5 121q0 66 -29 112q37 47 37 121
q0 81 -44 145t-111 79q2 7 2.5 14t0.5 15q0 19 -7 44t-14 43l-115 33q31 -36 45 -74t14 -76q0 -21 -5 -54q74 -13 114 -57t40 -113q0 -36 -13.5 -67t-35.5 -55q41 -54 41 -102q0 -49 -26.5 -74t-67.5 -25q-43 0 -78.5 26t-55.5 63q-62 -31 -101 -31q-71 0 -113.5 55
t-47.5 150q-13 -1 -25 -1.5t-25 -0.5q-102 0 -150.5 49.5t-48.5 153.5v12.5v12.5q-28 -4 -46 -4q-94 0 -140 41t-46 117q0 38 10 87q-119 0 -166 51.5t-47 139.5q0 50 10 82q-89 4 -132.5 46t-43.5 127q0 43 18 90q-19 14 -29.5 39.5t-10.5 54.5q0 26 9 53t28 50l356 -307
q200 -173 390 -293t382 -177q95 -28 149.5 -42.5t96.5 -20t97 -5.5q43 0 75 5t63 14q-100 70 -163 117.5t-108.5 86t-96.5 83.5h4h4q89 0 155 46.5t66 130.5q0 74 -39.5 126t-104.5 63q-7 -58 -27.5 -79t-53.5 -21q-31 0 -74 22t-110 73t-170 139l-130 111
q-138 118 -241.5 186t-192.5 97t-184 29q-54 0 -114.5 -9t-112.5 -25q-34 34 -53 75.5t-42 71.5t-71 30zM490 1899q18 0 34 -29.5t39.5 -73t61.5 -85.5q77 23 140 33.5t121 10.5q84 0 163 -26.5t174.5 -90t226.5 -174.5l130 -111q126 -108 199.5 -162.5t121 -73.5t94.5 -19
q39 0 69.5 14t50.5 41q18 -37 18 -64q0 -50 -48 -75.5t-141 -25.5q-40 0 -82 6t-82 17q68 -80 151.5 -158t213.5 -171q-185 38 -348 105.5t-320.5 170.5t-326.5 248l-416 357q-53 -45 -80.5 -103t-27.5 -109q0 -59 33 -110q-6 -31 -8.5 -48.5t-2.5 -39.5q0 -89 47.5 -152.5
t122.5 -76.5q-1 -9 -1.5 -20t-0.5 -22q0 -59 28.5 -111.5t76 -85.5t104.5 -33q-3 -18 -3 -36q0 -59 29 -108.5t77.5 -79t105.5 -29.5q7 0 13.5 0.5t13.5 1.5q-1 -5 -1 -10v-10q0 -70 51 -129.5t127 -71.5q-6 -37 -20 -77t-37 -71q-31 78 -69.5 119.5t-83.5 58.5
q-13 -55 -35.5 -104.5t-60.5 -80.5t-96 -31q-36 0 -66 19q61 14 90.5 50t29.5 95q0 40 -19.5 88.5t-63.5 113.5t-117 154t-180 210q-85 96 -144 198.5t-89.5 207.5t-30.5 208q0 47 12 96t50 145q-47 62 -88.5 89.5t-67 40t-25.5 29.5t18.5 44t45.5 54t54 45t45 18zM920 1328
q52 -50 76.5 -105.5t24.5 -107.5q0 -36 -14 -81q95 -2 149 -45.5t54 -134.5q0 -40 -11 -76q32 5 57 5q76 0 115 -36.5t39 -109.5q0 -43 -13 -92h10h9q116 0 165.5 -38.5t49.5 -133.5q0 -14 -0.5 -26.5t-1.5 -25.5q51 -3 80.5 -7.5t52 -15t51.5 -30.5q-23 49 -23 89
q0 22 9 37q-85 37 -119 87t-34 133q0 43 9 69h-13.5h-12.5q-108 0 -179 65t-71 164q0 10 1.5 24t2.5 25z" />
</svg>