<?xml version="1.0" standalone="no"?>
<!DOCTYPE svg PUBLIC "-//W3C//DTD SVG 1.1//EN" "http://www.w3.org/Graphics/SVG/1.1/DTD/svg11.dtd">
<svg xmlns="http://www.w3.org/2000/svg" xmlns:xlink="http://www.w3.org/1999/xlink" version="1.1"
   viewBox="94 -151 2414 2169">
   <path fill="currentColor"
      d="M335 1678v-1480h1930v1480h-1930zM411 1558h136v-80h-136v80zM688 1558h135v-80h-135v80zM959 1558h135v-80h-135v80zM571 1410v-944h80v944h-80zM1231 1558h135v-80h-135v80zM1502 1558h135v-80h-135v80zM411 398h136v-80h-136v80zM1773 1558h135v-80h-135v80zM414 1388
h1772v-900h-1772v900zM688 398h135v-80h-135v80zM2052 1558h136v-80h-136v80zM959 398h135v-80h-135v80zM1231 398h135v-80h-135v80zM1949 1410v-944h80v944h-80zM1502 398h135v-80h-135v80zM1773 398h135v-80h-135v80zM2052 398h136v-80h-136v80z" />
</svg>