<?xml version="1.0" standalone="no"?>
<!DOCTYPE svg PUBLIC "-//W3C//DTD SVG 1.1//EN" "http://www.w3.org/Graphics/SVG/1.1/DTD/svg11.dtd">
<svg xmlns="http://www.w3.org/2000/svg" xmlns:xlink="http://www.w3.org/1999/xlink" version="1.1"
   viewBox="94 -151 2414 2169">
   <path fill="currentColor"
      d="M273 1628q0 -61 -31 -92t-92 -31v-1134q61 0 92 -31t31 -92h2054q0 61 31 92t92 31v1134q-61 0 -92 31t-31 92h-2054zM553 1289h280v-702h-280v702zM656 1189v-502h75v502h-75zM1148 1134v-130h304v130h-304zM341 1548h1918q16 -41 44.5 -70t67.5 -41v-212
q-34 -5 -57.5 -32t-23.5 -61q0 -35 23.5 -61.5t57.5 -31.5v-202q-34 -5 -57.5 -32t-23.5 -61t23.5 -61t57.5 -32v-212q-39 -12 -67.5 -41.5t-44.5 -69.5h-1918q-16 40 -44.5 69.5t-67.5 41.5v212q34 5 57.5 32t23.5 61t-23.5 61t-57.5 32v202q34 5 57.5 31.5t23.5 61.5
q0 34 -23.5 61t-57.5 32v212q39 12 67.5 41t44.5 70zM483 1359v-842h1634v842h-1634zM903 1289h794v-702h-794v702zM1048 872v-130h504v130h-504zM1767 1289h280v-702h-280v702zM1870 1189v-502h75v502h-75z" />
</svg>