<?xml version="1.0" standalone="no"?>
<!DOCTYPE svg PUBLIC "-//W3C//DTD SVG 1.1//EN" "http://www.w3.org/Graphics/SVG/1.1/DTD/svg11.dtd">
<svg xmlns="http://www.w3.org/2000/svg" xmlns:xlink="http://www.w3.org/1999/xlink" version="1.1"
   viewBox="94 -151 2414 2169">
   <path fill="currentColor"
      d="M686 1728q-140 0 -255 -49.5t-183 -133.5t-68 -186q0 -56 28.5 -92t71.5 -36q29 0 60.5 17t75.5 59q78 74 136.5 99t133.5 25l1734 2v295h-1734zM630 1469q41 -103 94 -153t109 -50q36 0 60 22l64 60q19 19 43 19q28 0 47 -26l6 -8q17 -22 33 -22q26 0 41 31.5t15 85.5
v19.5t-2 21.5h-510zM686 1653h1659v-145l-1659 -2q-88 0 -159.5 -30t-160.5 -114q-34 -32 -53.5 -44t-30.5 -12t-19 14t-8 37q0 81 58 148t156 107.5t217 40.5zM807 1399q0 -68 28.5 -121.5t88.5 -95.5t153 -72q123 -40 200.5 -75.5t114 -68.5t36.5 -63l65 61
q-22 39 -71.5 75.5t-128.5 72t-192 73.5q-76 25 -123 56t-68 69t-21 87zM1340 1345q-23 7 -41 -5t-28 -34l-26 -58l98 -40l28 62q11 25 1.5 46.5t-32.5 28.5zM1282 1290q-24 -65 -51.5 -113t-52.5 -66l65 -41q34 35 62.5 90.5t47.5 106.5zM1408 1470q29 -70 82 -110t119 -40
q45 0 87 22.5t72.5 56.5t42.5 71h-403zM1536 1275q-23 7 -41.5 -4.5t-28.5 -34.5l-25 -58l97 -40l28 62q11 25 1.5 47t-31.5 28zM1475 1215q-22 -56 -56.5 -109.5t-65.5 -80.5l55 -46q36 31 73.5 89t62.5 122zM1583 908q-34 0 -66.5 -2t-60.5 -5l-11 -75q61 11 139 11
q57 0 110.5 -3.5t103.5 -11.5t94 -20l20 69q-43 12 -93 20.5t-108 12.5t-128 4zM1940 1467q5 -92 47.5 -132.5t133.5 -40.5q44 -68 100.5 -118t88.5 -50q21 0 9 37l-102 304h-277zM1875 1056q-19 0 -32.5 -13t-13.5 -32q0 -20 13.5 -33.5t32.5 -13.5t32.5 13.5t13.5 33.5
q0 19 -13.5 32t-32.5 13zM2111 1375l-60 -6q5 -45 7 -93t2 -89q0 -53 -5 -100t-17 -87l56 -25q14 43 20 95t6 116q0 41 -2 90.5t-7 98.5zM1501 744q-19 0 -36 -0.5t-32 -1.5l-10 -74q18 1 38 2t40 1q65 0 128.5 -5t121 -14t103.5 -22l20 69q-47 14 -106.5 24.5t-127 15.5
t-139.5 5zM1879 1126q41 0 74 -29t58 -86q14 -29 23.5 -57t9.5 -56q0 -9 -2 -25l-72 -490q-7 -51 -28 -73.5t-59 -22.5q-36 0 -83 20t-106 60q-46 31 -101.5 59.5t-107.5 28.5q-37 0 -60.5 -8t-39.5 -25l31 -31l81 535q83 17 146.5 49t112.5 81q31 31 60 50.5t63 19.5z
M1822 909l-14 -104l66 -11q29 -5 47 10.5t18 41.5q0 20 -15.5 34.5t-39.5 18.5zM1879 1206q-57 0 -98 -28.5t-73 -59.5q-59 -57 -118 -81.5t-142 -41.5l-26 -33l-81 -531q-4 -27 9 -46.5t44 -32.5l-13 56q-44 -63 -44 -109q0 -38 21 -57t52 -19q35 0 65.5 21t44.5 37
q39 -29 97 -60t123 -52t125 -21q61 0 97.5 26.5t56.5 79t32 131.5l71 473q2 12 2.5 22.5t0.5 21.5q0 37 -12 71.5t-27 68.5q-35 79 -88.5 121.5t-118.5 42.5zM1781 734l-14 -103l66 -11q29 -5 47.5 11t18.5 40q0 21 -16 36t-40 18zM1410 580l-11 -80q152 -2 315 -29.5
t311 -79.5l20 78q-148 52 -315 80.5t-320 30.5z" />
</svg>