<?xml version="1.0" standalone="no"?>
<!DOCTYPE svg PUBLIC "-//W3C//DTD SVG 1.1//EN" "http://www.w3.org/Graphics/SVG/1.1/DTD/svg11.dtd">
<svg xmlns="http://www.w3.org/2000/svg" xmlns:xlink="http://www.w3.org/1999/xlink" version="1.1"
   viewBox="94 -151 2414 2169">
   <path fill="currentColor"
      d="M1300 1978q-171 0 -326 -53.5t-285.5 -150.5t-226.5 -227.5t-149 -285.5t-53 -323t53 -323t149 -285.5t226.5 -227.5t285.5 -150.5t326 -53.5t326 53.5t285.5 150.5t226.5 227.5t149 285.5t53 323t-53 323t-149 285.5t-226.5 227.5t-285.5 150.5t-326 53.5zM1176 1731
q137 -6 280 -49t272.5 -121.5t229 -190.5t148.5 -254q6 -17 0 -34t-22 -22q-36 -12 -54 26q-60 125 -152 226t-206.5 174.5t-241 115.5t-254.5 49q-19 1 -31.5 12.5t-12.5 28.5q0 18 13 29t31 10zM1033 761q48 0 61 -49q2 -10 2 -15q0 -26 -18 -51t-38 -44q-35 7 -59.5 23.5
t-32.5 46.5q-3 10 -3 21q0 22 14.5 39t43.5 25q15 4 30 4zM1047 1022q130 0 233 -62.5t163 -170t60 -241.5q0 -117 -54 -206t-148.5 -138.5t-214.5 -49.5q-127 0 -235.5 62.5t-174 168t-65.5 233.5q0 122 58.5 213t157.5 141t220 50zM1047 847q-31 0 -64 -9
q-71 -19 -108 -57t-37 -89q0 -19 6 -40q14 -53 52 -79t84 -36q-22 -25 -38 -54t-16 -63q0 -15 5 -35q13 -48 50.5 -70t83.5 -22q27 0 59 8q56 14 94 49t38 85q0 15 -5 35q-13 47 -47.5 70t-80.5 31q30 29 53.5 63t23.5 75q0 17 -4 32q-13 51 -53 78.5t-96 27.5zM1070 509
q25 -6 46.5 -18.5t28.5 -40.5q2 -6 2 -16q0 -40 -45 -52q-6 -2 -19 -2q-41 0 -51 40q-3 10 -3 20q0 22 12 37.5t29 31.5z" />
</svg>