<?xml version="1.0" standalone="no"?>
<!DOCTYPE svg PUBLIC "-//W3C//DTD SVG 1.1//EN" "http://www.w3.org/Graphics/SVG/1.1/DTD/svg11.dtd">
<svg xmlns="http://www.w3.org/2000/svg" xmlns:xlink="http://www.w3.org/1999/xlink" version="1.1"
   viewBox="94 -151 2414 2169">
   <path fill="currentColor"
      d="M368 1978q-68 0 -117 -48.5t-49 -115.5v-833h698v627h86v-728h-40v-130h40v-278h40l70 -220h158l70 220h40v278h40v130h-40v728h89v-598h92v-120h90v-110h116v110h90v120h92v401h350v-684h115v1086q0 67 -48.5 116t-116.5 49h-1865zM272 1766h558v-60h-558v60zM272 1606
h558v-60h-558v60zM272 1446h558v-60h-558v60zM272 1286h558v-60h-558v60zM272 1126h558v-60h-558v60zM342 895v-70h50v70h-50zM1050 1523h90v-90h-90v90zM342 735v-70h50v70h-50zM202 1016v-800h330v800h-50v-750h-230v750h-50zM1208 1523h90v-90h-90v90zM1538 1817h50v-70
h-50v70zM1050 1353h90v-90h-90v90zM342 575v-70h50v70h-50zM1668 1817h50v-70h-50v70zM1538 1657h50v-70h-50v70zM1208 1353h90v-90h-90v90zM1050 1183h90v-90h-90v90zM342 415v-70h50v70h-50zM1798 1817h50v-70h-50v70zM1668 1657h50v-70h-50v70zM760 763v-130h40v130h-40z
M1538 1497h50v-70h-50v70zM1208 1183h90v-90h-90v90zM1050 1013h90v-90h-90v90zM1334 1247v-50h154v50h-154zM870 763v-130h40v130h-40zM1798 1657h50v-70h-50v70zM1668 1497h50v-70h-50v70zM1538 1337h50v-70h-50v70zM1208 1013h90v-90h-90v90zM760 533v-130h40v130h-40z
M1798 1497h50v-70h-50v70zM384 54q-18 -38 -55 -56q37 -19 55 -56q18 37 55 56q-37 18 -55 56zM1668 1337h50v-70h-50v70zM870 533v-130h40v130h-40zM630 1014v-991h630v303h-50v-253h-530v941h-50zM1798 1337h50v-70h-50v70zM980 533v-130h40v130h-40zM760 303v-130h40v130
h-40zM1105 708h138v-129q0 -38 -18.5 -57.5t-50.5 -19.5q-31 0 -50 19.5t-19 57.5v129zM1597 1096h32v-152h-32v152zM870 303v-130h40v130h-40zM1677 1096h32v-152h-32v152zM1757 1096h32v-152h-32v152zM980 303v-130h40v130h-40zM1090 303v-130h40v130h-40zM2148 1326v-70
h50v70h-50zM2148 1186v-70h50v70h-50zM1904 1247v-50h114v-349h272v48h-222v351h-164zM2148 1046v-70h50v70h-50zM1623 511q-18 -38 -55 -56q37 -19 55 -56q18 37 55 56q-37 18 -55 56zM1479 193q-18 -38 -55 -56q37 -19 55 -56q18 37 55 56q-37 18 -55 56zM1983 551
q-18 -38 -55 -56q37 -19 55 -56q18 37 55 56q-37 18 -55 56zM1803 10q-18 -38 -55 -56q37 -19 55 -56q18 37 55 56q-37 18 -55 56zM2183 101q-18 -38 -55 -56q37 -19 55 -56q18 37 55 56q-37 18 -55 56z" />
</svg>