<?xml version="1.0" standalone="no"?>
<!DOCTYPE svg PUBLIC "-//W3C//DTD SVG 1.1//EN" "http://www.w3.org/Graphics/SVG/1.1/DTD/svg11.dtd">
<svg xmlns="http://www.w3.org/2000/svg" xmlns:xlink="http://www.w3.org/1999/xlink" version="1.1"
   viewBox="94 -151 2414 2169">
   <path fill="currentColor"
      d="M793 1928v-1484h1660v1484h-1660zM103 1928v-1980h530v1980h-530zM183 1322h370v-1294h-370v1294zM1278 1668v-404h70v404h-70zM1628 1882v-182h100v182h-100zM338 533v-182h60v182h-60zM1009 1698q-31 0 -31 -31v-403h70v394l-24 -20h889v60h-904zM263 370v-60h210v60
h-210zM1528 1748q-20 0 -20 -20v-263q0 -20 20 -20h295q20 0 20 20v263q0 20 -20 20h-295zM1574 1623h203q16 0 16 -17v-94q0 -17 -16 -17h-203q-16 0 -16 17v94q0 17 16 17zM263 220v-60h210v60h-210zM1578 1463v-199h70v199h-70zM1034 1059q-31 0 -31 -31v-273
q0 -31 31 -31h242q31 0 31 31v273q0 31 -31 31h-242zM1120 1059h70v-335h-70v335zM1878 1882v-618h70v618h-70zM749 1323v-164h1748v164h-1748zM873 1848h1500v-1224h-1500v1224zM2198 1882v-618h70v618h-70zM1502 1059q-31 0 -31 -31v-273q0 -31 31 -31h242q31 0 31 31v273
q0 31 -31 31h-242zM1588 1059h70v-335h-70v335zM1970 1059q-31 0 -31 -31v-273q0 -31 31 -31h242q31 0 31 31v273q0 31 -31 31h-242zM2056 1059h70v-335h-70v335z" />
</svg>