<?xml version="1.0" standalone="no"?>
<!DOCTYPE svg PUBLIC "-//W3C//DTD SVG 1.1//EN" "http://www.w3.org/Graphics/SVG/1.1/DTD/svg11.dtd">
<svg xmlns="http://www.w3.org/2000/svg" xmlns:xlink="http://www.w3.org/1999/xlink" version="1.1"
   viewBox="94 -151 2414 2169">
   <path fill="currentColor"
      d="M319 1647l-7 -109l93 -6l7 109zM945 1846l-118 -87l56 -74l118 87zM965 1556l-55 -76q26 -19 47.5 -39.5t40.5 -43.5l73 60q-23 27 -50 52t-56 47zM413 1440q-13 -106 71 -167q37 -26 50 -39.5t13 -27.5t-6.5 -33t-23.5 -56q-18 -39 -26.5 -64.5t-8.5 -48.5
q0 -46 26.5 -73.5t83.5 -53.5q42 -20 68.5 -40.5t29.5 -72.5h94q-2 58 -23 95t-52 57t-64 30q-31 9 -50 20.5t-19 37.5q0 12 6 28.5t16 36.5q17 33 30 69.5t13 67.5q0 43 -24.5 73t-80.5 70q-21 15 -27.5 30.5t-3.5 45.5zM1508 1970l-72 -118l80 -48l72 118zM1498 1096
q-29 -12 -56 -28t-50 -33l59 -74q37 29 83 50zM1513 1455l-59 -73l113 -92l59 73zM1355 482l-80 -50l57 -92l80 50zM1635 581q-4 22 -7.5 47.5t-3.5 47.5q0 70 37.5 132.5t96.5 119t125 111.5t125 110.5t96.5 114.5t37.5 126q0 31 -6.5 65.5t-16.5 57.5l-85 -42
q14 -31 14 -81q0 -33 -19 -67.5t-65 -81.5t-128 -116q-69 -59 -140 -127t-118.5 -147.5t-47.5 -174.5q0 -33 3.5 -64t11.5 -60zM2173 1012l-94 -70l56 -74l94 70zM910 116q29 9 45 -7t14.5 -39.5t-28.5 -34.5q-31 -13 -65 -19q-29 -5 -44.5 15t-10 43t36.5 29q27 5 52 13z
M1761 130q20 -9 47 -15t53 -6q33 0 43.5 -22.5t0 -45t-43.5 -22.5q-34 0 -71 8t-66 21q-30 13 -31 38.5t18 41.5t50 2zM1120 547q23 8 50 22.5t42 27.5q64 55 90.5 111t26.5 130q0 78 -29 140.5t-58 120t-29 123.5q0 53 18 99.5t67 120.5q77 116 77 207q0 67 -37.5 124
t-102.5 89l-37 -85q83 -43 83 -128q0 -64 -61 -155q-40 -61 -70.5 -124.5t-30.5 -147.5q0 -76 29 -139.5t58 -122.5t29 -122q0 -54 -16 -91.5t-65 -77.5q-17 -14 -37.5 -27t-40.5 -23zM347 1854q259 -186 398 -454t139 -590q0 -25 -1.5 -56.5t-6.5 -64.5l97 22q2 20 3.5 44
t1.5 55q0 345 -150 633t-427 487zM1687 1112q0 -85 13.5 -186.5t33.5 -204.5l93 10q-20 99 -33 198.5t-13 182.5q0 234 86 424t239 294l-52 78q-114 -78 -196.5 -199t-126.5 -273.5t-44 -323.5zM1383 192q0 -47 40 -98t106.5 -95.5t148 -72.5t164.5 -28q125 0 226 60.5
t160.5 161t59.5 221.5q0 101 -34 191t-87.5 146.5t-111.5 56.5q-33 0 -94.5 -26.5t-137.5 -71.5t-153.5 -102t-142.5 -118t-104.5 -119t-39.5 -106zM1475 158q81 3 170 39t179 98q112 77 186.5 165.5t86.5 163.5q46 -39 78.5 -114t32.5 -169q0 -99 -49 -181.5t-132 -132
t-185 -49.5q-78 0 -154 26.5t-133 68t-80 85.5zM370 341q0 -121 59.5 -221.5t161 -161t225.5 -60.5q83 0 164.5 28t148 72.5t106.5 95.5t40 98q0 48 -39.5 106t-104.5 119t-142.5 118t-153.5 102t-137.5 71.5t-94.5 26.5q-58 0 -111.5 -56.5t-87.5 -146.5t-34 -191zM450 341
q0 94 32.5 169t78.5 114q12 -75 86.5 -163.5t186.5 -165.5q90 -62 179 -98t170 -39q-22 -44 -79.5 -85.5t-133.5 -68t-154 -26.5q-102 0 -185 49.5t-132 132t-49 181.5z" />
</svg>