<?xml version="1.0" standalone="no"?>
<!DOCTYPE svg PUBLIC "-//W3C//DTD SVG 1.1//EN" "http://www.w3.org/Graphics/SVG/1.1/DTD/svg11.dtd">
<svg xmlns="http://www.w3.org/2000/svg" xmlns:xlink="http://www.w3.org/1999/xlink" version="1.1"
   viewBox="94 -151 2414 2169">
   <path fill="currentColor"
      d="M2135 1101l-48 -35q76 -148 119.5 -300t43.5 -289q0 -153 -50.5 -270t-151.5 -183t-251 -66q-109 0 -219 38t-178 103q-20 19 -31.5 34t-11.5 26q0 17 20 17q19 0 45 -16q100 -61 183 -87t162 -26q117 0 201.5 45t130 133t45.5 219q0 124 -38.5 273.5t-111.5 301.5
l-60 -14q74 -152 112 -295.5t38 -264.5q0 -114 -37 -189t-108 -112t-173 -37q-72 0 -144 24t-161 76q-22 13 -46.5 22t-44.5 9q-30 0 -50.5 -21.5t-20.5 -46.5q0 -57 59 -114q74 -70 196 -114t243 -44q166 0 280.5 73.5t173.5 203.5t59 301q0 148 -46.5 308t-128.5 317z
M647 1828q-34 0 -58.5 -21.5t-44.5 -65.5l-24 -54l-114 -3q-60 -2 -88 -29.5t-28 -61.5q0 -35 20.5 -58.5t64.5 -42.5l141 -59q0 -31 -5.5 -61t-16.5 -61.5t-29 -66.5q-25 -53 -50.5 -112t-51.5 -150q57 -39 114.5 -64t124.5 -37q51 -74 142 -116.5t182 -42.5q70 0 128 16
l-20 77q-27 -7 -54 -10t-54 -3q-77 0 -156 39t-121 117q-30 0 -67 8.5t-70.5 22t-55.5 28.5q19 61 40.5 109t41.5 86q25 47 38 90t17.5 88t4.5 100l-197 78q-31 13 -31 21q0 15 24 15l179 2l48 116q11 26 25 26q24 0 24 -45v-159q144 -22 253 -95.5t169.5 -181.5t60.5 -232
q0 -44 -8 -82.5t-22 -74.5l74 -30q16 40 26 88t10 104q0 131 -61.5 248t-170 201.5t-251.5 120.5v93q0 69 -32.5 97t-70.5 28zM801 1389q-9 0 -9 -17q0 -73 9.5 -133.5t26 -97t36.5 -36.5q26 0 39 21.5t13 56.5q0 38 -20 86.5t-47 84t-48 35.5zM892 1013q-24 0 -41.5 -17.5
t-17.5 -42.5q0 -23 17.5 -41t41.5 -18q25 0 42.5 18t17.5 41q0 25 -17.5 42.5t-42.5 17.5zM1632 1748l-91 -40q-28 -12 -28 -37q0 -9 8 -31l31 -82q-13 -17 -19 -29.5t-8 -32.5l-82 45q-19 10 -38 15t-39 5q-18 0 -34.5 -3.5t-30.5 -9.5q-49 -22 -49 -65q0 -30 21 -50
t52 -20q23 0 48.5 14.5t43.5 37.5l127 -69l34 -85q23 -58 52.5 -84t71.5 -26q36 0 89 20q48 18 73 49t25 73q0 38 -19 80l-56 130q-18 41 -49.5 52.5t-74.5 11.5zM1080 932q-21 7 -38.5 -4.5t-19.5 -33.5l-9 -152q-1 -24 11 -36.5t28 -12.5q14 0 26.5 11.5t13.5 37.5l6 102
l92 -29q28 -9 43.5 4t15.5 31q0 12 -8 23.5t-25 16.5zM1747 1978q-48 0 -98 -23q-105 -47 -105 -129q0 -17 5 -33.5t12 -34.5l287 -672q24 -56 52.5 -80.5t68.5 -24.5q54 0 96.5 20t67.5 52.5t25 71.5q0 13 -2 28t-7 34q-6 23 -23.5 78.5t-45.5 132.5t-64 167
q-40 99 -71 168t-53 113t-36 68q-18 30 -46.5 47t-62.5 17zM1746 1898q14 0 23 -7t16 -18q23 -39 61 -117t95 -220q36 -90 63.5 -166t45.5 -129t23 -74q2 -10 3.5 -20t1.5 -18q0 -17 -13.5 -32t-36.5 -24.5t-50 -9.5q-16 0 -29 11t-24 36l-291 678q-10 24 -10 37
q0 16 12 28.5t46 28.5q19 9 35 12.5t29 3.5zM1092 884l-30 -48q58 -50 86 -102.5t28 -104.5q0 -44 -4.5 -86t-4.5 -91q0 -93 41 -174t120 -133l35 58q-68 46 -102 108t-34 143q0 41 4.5 87t4.5 88q0 67 -33 131t-111 124z" />
</svg>