<?xml version="1.0" standalone="no"?>
<!DOCTYPE svg PUBLIC "-//W3C//DTD SVG 1.1//EN" "http://www.w3.org/Graphics/SVG/1.1/DTD/svg11.dtd">
<svg xmlns="http://www.w3.org/2000/svg" xmlns:xlink="http://www.w3.org/1999/xlink" version="1.1"
   viewBox="94 -151 2414 2169">
   <path fill="currentColor"
      d="M1300 1978q-213 0 -399 -81t-327 -224t-220 -331.5t-79 -403.5t79 -403.5t220 -331.5t327 -224t399 -81t399 81t327 224t220 331.5t79 403.5t-79 403.5t-220 331.5t-327 224t-399 81zM1300 1898q196 0 367.5 -74.5t301 -206.5t203 -306t73.5 -373t-73 -373t-203 -306
t-301 -206.5t-368 -74.5q-196 0 -367.5 74.5t-301.5 206.5t-203 306t-73 373t73 373t203 306t301.5 206.5t367.5 74.5zM1167 1904q-67 -48 -144 -127.5t-146 -196t-113 -275.5t-44 -366t44 -366t113 -275.5t146 -196t144 -127.5q214 -13 387.5 34.5t305 141.5t220 220.5
t133.5 272t45 296.5t-45 296.5t-133.5 272t-220 220.5t-305 141.5t-387.5 34.5z" />
</svg>