<?xml version="1.0" standalone="no"?>
<!DOCTYPE svg PUBLIC "-//W3C//DTD SVG 1.1//EN" "http://www.w3.org/Graphics/SVG/1.1/DTD/svg11.dtd">
<svg xmlns="http://www.w3.org/2000/svg" xmlns:xlink="http://www.w3.org/1999/xlink" version="1.1"
   viewBox="94 -151 2414 2169">
   <path fill="currentColor"
      d="M1300 1978q-213 0 -399 -81t-327 -224t-220 -331.5t-79 -403.5t79 -403.5t220 -331.5t327 -224t399 -81t399 81t327 224t220 331.5t79 403.5t-79 403.5t-220 331.5t-327 224t-399 81zM1419 1929q-275 0 -481 -83t-343 -224t-205 -318t-68 -365t71 -365.5t210 -319
t343.5 -224.5t472.5 -83q72 58 152 143t150.5 204t114.5 278.5t44 366.5t-44 366.5t-114.5 278t-150.5 203.5t-152 142zM1300 1898q197 0 368 -74.5t301 -206.5t203 -306t73 -373t-73 -373t-203 -306t-301 -206.5t-368 -74.5q-196 0 -367.5 74.5t-301.5 206.5t-203 306
t-73 373t73.5 373t203 306t301 206.5t367.5 74.5z" />
</svg>