<?xml version="1.0" standalone="no"?>
<!DOCTYPE svg PUBLIC "-//W3C//DTD SVG 1.1//EN" "http://www.w3.org/Graphics/SVG/1.1/DTD/svg11.dtd">
<svg xmlns="http://www.w3.org/2000/svg" xmlns:xlink="http://www.w3.org/1999/xlink" version="1.1"
   viewBox="94 -151 2414 2169">
   <path fill="currentColor"
      d="M1300 1978q-316 0 -551 -107t-364 -302.5t-129 -458.5q0 -194 75.5 -350.5t214.5 -267.5t330.5 -170.5t423.5 -59.5t423.5 59.5t330.5 170.5t214.5 267.5t75.5 350.5q0 263 -129 458.5t-363.5 302.5t-551.5 107zM1405 1730q-18 0 -31.5 -12.5t-13.5 -31.5q0 -27 28.5 -55
t56.5 -28q18 0 31.5 12.5t13.5 30.5q0 27 -28 55.5t-57 28.5zM602 1170q-17 0 -27.5 -13t-9.5 -31q32 -351 309 -513q17 -10 32.5 -5.5t23.5 21.5q16 34 -13 51q-245 143 -272 451q-3 39 -43 39zM1300 1900q295 0 511.5 -97.5t334.5 -275t118 -417.5q0 -232 -119.5 -405
t-336 -269t-508.5 -96t-508.5 96t-336 269t-119.5 405q0 240 118 417.5t334.5 275t511.5 97.5zM1828 1452q-19 0 -32 -12.5t-13 -31.5q0 -28 25 -57.5t53 -29.5q20 0 33 12t13 32q0 28 -25 57.5t-54 29.5zM1318 642q-66 0 -106 -30.5t-40 -79.5t40 -79t106 -30q65 0 104 30
t39 79t-39 79.5t-104 30.5zM1996 1137q-22 0 -34 -15.5t-12 -38.5q0 -31 17.5 -59t45.5 -28q25 0 36 16t11 38q0 30 -17.5 58.5t-46.5 28.5zM1372 486l-110 -10q1 -11 1.5 -21.5t0.5 -20.5q0 -103 -7.5 -164.5t-29 -102t-62.5 -80.5q0 -23 32 -39.5t78 -16.5q45 0 66 28.5
t27 115t6 259.5v26t-2 26zM1892 827q-19 0 -31 -13.5t-12 -33.5q0 -27 18.5 -54.5t44.5 -27.5q42 0 42 46q0 28 -17.5 55.5t-44.5 27.5zM1580 225q-114 0 -262 -50q85 -143 188 -210t231 -67q114 0 259 51q-83 139 -182.5 207.5t-233.5 68.5z" />
</svg>