<?xml version="1.0" standalone="no"?>
<!DOCTYPE svg PUBLIC "-//W3C//DTD SVG 1.1//EN" "http://www.w3.org/Graphics/SVG/1.1/DTD/svg11.dtd">
<svg xmlns="http://www.w3.org/2000/svg" xmlns:xlink="http://www.w3.org/1999/xlink" version="1.1"
   viewBox="94 -151 2414 2169">
   <path fill="currentColor"
      d="M1300 1978q-223 0 -410.5 -47t-325 -133t-213 -202.5t-75.5 -255.5q0 -134 75.5 -251t216.5 -205t339 -135l19 78q-175 42 -303 118t-197.5 176.5t-69.5 218.5q0 121 69.5 223t196 177.5t299 117.5t379.5 42t379.5 -42t299 -117.5t196 -177.5t69.5 -223t-75 -225.5
t-211 -181.5t-318 -114l16 -77q202 41 352 128.5t233 208t83 261.5q0 139 -75.5 255.5t-213 202.5t-324.5 133t-411 47zM1204 1772l62 -32q-25 -51 -85.5 -89.5t-191.5 -85.5l-44 -16q-186 -68 -267 -143.5t-81 -192.5q0 -80 37.5 -131.5t91.5 -51.5q44 0 79 30.5t89 116.5
l20 32q42 67 104 122t172 55q36 0 67 -6.5t51 -16.5l-23 -63q-20 8 -42 12t-51 4q-84 0 -133 -41.5t-83 -97.5l-27 -45q-59 -98 -106 -135t-114 -37q-85 0 -143.5 71.5t-58.5 181.5q0 140 94 235t297 166l40 14q116 40 171 72.5t75 71.5zM1340 1681l60 -36
q-26 -42 -68.5 -74t-109.5 -62.5t-170 -67.5l-50 -18q-131 -47 -192 -103.5t-72 -141.5l-69 14q10 69 44.5 122.5t100.5 96t168 79.5l44 16q109 39 170 66.5t92.5 52t51.5 56.5zM1479 1694q74 -21 130 -53t124 -32q24 0 41 6.5t39 23.5l41 -56q-28 -23 -56.5 -33.5
t-64.5 -10.5q-54 0 -99 17t-86.5 37.5t-86.5 32.5zM1424 1586q59 -20 108 -50t100.5 -53.5t114.5 -23.5q37 0 58 11t42 39l56 -42q-30 -41 -66 -59.5t-90 -18.5q-72 0 -131.5 25.5t-112.5 57t-107 50.5zM1292 1825q-65 0 -104.5 -12.5t-74 -33.5t-82.5 -47.5t-131 -55.5
q-224 -78 -331 -191t-107 -270q0 -106 58 -199.5t158.5 -165t228.5 -112t268 -40.5q11 -11 36 -24.5t59 -19.5q-7 -41 -13 -91t-6 -129l50 5q0 105 15.5 188t15.5 152q0 46 -10 79t-36 59q-18 18 -43 37t-44.5 42t-19.5 55q0 40 31.5 70t72 56.5t72 57t31.5 72.5
q0 40 -19.5 66t-65.5 48l29 63q62 -27 94 -73.5t32 -109.5q0 -53 -31.5 -92t-72 -67.5t-72 -50t-31.5 -40.5q0 -20 32 -41t58 -48q38 -40 50.5 -88t12.5 -100q0 -82 -14.5 -161t-14.5 -150v-13.5t1 -16.5l49 -34q0 71 3.5 111.5t8 71t8.5 73.5q17 6 31.5 15t21.5 15
q98 16 146 47t76 61l208 89l164 122q38 35 56.5 90t18.5 118q0 91 -43.5 170.5t-106.5 124.5q-37 27 -61 60.5t-47.5 65t-57.5 52t-90 20.5q-114 0 -182 18t-111.5 42t-81.5 42t-92 18zM1982 1389q53 0 86 -35.5t33 -90.5q0 -72 -53.5 -147t-138.5 -121l-38 59
q67 35 113.5 95.5t46.5 112.5q0 28 -14 42.5t-37 14.5q-28 0 -62.5 -17.5t-79.5 -35t-105 -17.5q-52 0 -109 18t-122 53l31 62q56 -32 105.5 -47.5t93.5 -15.5q54 0 95 17.5t77.5 35t77.5 17.5zM991 474q-23 2 -23 -15q0 -14 17 -16l339 -45q26 -3 26 -22q0 -8 -5.5 -14
t-20.5 -4l-350 56q-19 4 -19 -13q0 -12 14 -15l334 -69q18 -4 18 -17q0 -21 -23 -16l-338 77q-18 4 -18 -15q0 -11 13 -15l419 -106q3 -1 9 -1q27 0 49 44.5t22 103.5q0 64 -31 67zM1449 551q-33 0 -49 -25l17 -48q9 21 30 21q38 0 65 -37t27 -108q0 -98 -41 -152.5
t-95 -54.5q-40 0 -63.5 28.5t-23.5 76.5l-56 6q0 -70 41 -115.5t103 -45.5q51 0 95 34t70.5 91.5t26.5 128.5q0 88 -43.5 144t-103.5 56zM1576 380l-47 -193q42 -6 66.5 -20.5t44 -34.5t46 -43.5t74.5 -47.5q32 -16 89 -41t154 -56q76 -25 132 -35.5t78 -10.5q30 0 30 31
q0 43 -61 57l-288 70q-65 16 -95.5 39t-54.5 54q-28 36 -49.5 77.5t-48 81.5t-70.5 72z" />
</svg>