<?xml version="1.0" standalone="no"?>
<!DOCTYPE svg PUBLIC "-//W3C//DTD SVG 1.1//EN" "http://www.w3.org/Graphics/SVG/1.1/DTD/svg11.dtd">
<svg xmlns="http://www.w3.org/2000/svg" xmlns:xlink="http://www.w3.org/1999/xlink" version="1.1"
   viewBox="94 -151 2414 2169">
   <path fill="currentColor"
      d="M170 1628v-1380h2260v1380h-2260zM451 1364v-160h92v160h-92zM611 1364v-160h142v160h-142zM831 1364v-160h142v160h-142zM451 1120v-90h491v90h-491zM451 949v-90h491v90h-491zM1041 1364v-160h92v160h-92zM1201 1364v-160h92v160h-92zM451 740v-100h730v100h-730z
M1091 1015v-160h202v160h-202zM1632 1424q-38 0 -65 -27.5t-27 -64.5q0 -38 27 -65t65 -27t65 27t27 65q0 37 -27 64.5t-65 27.5zM250 1548h2100v-1220h-2100v1220zM1632 1161q-38 0 -65 -27.5t-27 -64.5q0 -38 27 -65t65 -27t65 27t27 65q0 37 -27 64.5t-65 27.5z
M1887 1375v-100h333v100h-333zM1632 899q-38 0 -65 -27.5t-27 -64.5q0 -38 27 -65t65 -27t65 27t27 65q0 37 -27 64.5t-65 27.5zM1887 1175v-100h333v100h-333zM1632 636q-38 0 -65 -27.5t-27 -64.5q0 -38 27 -65t65 -27t65 27t27 65q0 37 -27 64.5t-65 27.5zM1887 960v-280
h333v280h-333z" />
</svg>