<?xml version="1.0" standalone="no"?>
<!DOCTYPE svg PUBLIC "-//W3C//DTD SVG 1.1//EN" "http://www.w3.org/Graphics/SVG/1.1/DTD/svg11.dtd">
<svg xmlns="http://www.w3.org/2000/svg" xmlns:xlink="http://www.w3.org/1999/xlink" version="1.1"
   viewBox="94 -151 2414 2169">
   <path fill="currentColor"
      d="M385 1978q-50 0 -82.5 -33t-32.5 -83v-1886q0 -35 22 -56.5t56 -21.5h1904q35 0 56.5 21.5t21.5 56.5v1886q0 50 -33 83t-83 33h-1829zM433 1916h245q35 0 59 -24.5t24 -58.5v-1577h-411v1577q0 34 24.5 58.5t58.5 24.5zM924 1916h253q35 0 59 -24.5t24 -58.5v-1577h-419
v1577q0 34 24.5 58.5t58.5 24.5zM712 1240q-19 0 -32 -11.5t-13 -27.5v-945l246 -1v946q0 16 -13 27.5t-32 11.5h-156zM1423 1916h254q35 0 59 -24.5t24 -58.5v-1577h-420v1577q0 34 25.5 58.5t57.5 24.5zM1222 1240q-19 0 -32 -11.5t-13 -27.5v-945l247 -1v946
q0 16 -13 27.5t-32 11.5h-157zM1923 1916h244q35 0 59 -24.5t24 -58.5v-1577h-410v1577q0 34 24.5 58.5t58.5 24.5zM1733 1240q-19 0 -32 -11.5t-13 -27.5v-946l246 1v945q0 16 -13 27.5t-32 11.5h-156zM350 192h1900v-80h-1900v80z" />
</svg>