<?xml version="1.0" standalone="no"?>
<!DOCTYPE svg PUBLIC "-//W3C//DTD SVG 1.1//EN" "http://www.w3.org/Graphics/SVG/1.1/DTD/svg11.dtd">
<svg xmlns="http://www.w3.org/2000/svg" xmlns:xlink="http://www.w3.org/1999/xlink" version="1.1"
   viewBox="94 -151 2414 2169">
   <path fill="currentColor"
      d="M897 1728q-156 0 -179 -119h-15.5h-15.5q-154 0 -243.5 -47.5t-89.5 -122.5q0 -47 42.5 -87.5t139.5 -83.5q73 -32 122.5 -77.5t79.5 -107.5l82 14q-42 88 -101.5 145.5t-148.5 97.5q-68 31 -102 55t-34 44q0 24 36 44.5t96 33t131 12.5q22 0 43 -1t54 -5
q-1 11 -1.5 19.5t-0.5 16.5q0 48 22.5 68.5t82.5 20.5q72 0 164 -37l86 -35q20 28 53 50t100 22t100.5 -23.5t52.5 -47.5l86 34q93 37 164 37q59 0 82 -20.5t23 -67.5v-17.5t-2 -19.5q30 4 52.5 5t44.5 1q112 0 187.5 -28t75.5 -62q0 -19 -26.5 -36.5t-93.5 -42.5
q-88 -34 -155.5 -98.5t-100.5 -146.5l74 -30q27 67 82.5 120t127.5 81q61 23 98.5 46.5t55.5 49.5t18 57q0 50 -41 88.5t-116.5 60t-179.5 21.5h-13.5h-13.5q-23 119 -179 119q-90 0 -194 -43l-32 -13q-62 56 -177 56t-177 -56l-32 13q-104 43 -194 43zM1302 1978
q-76 0 -116.5 -19.5t-40.5 -58.5q0 -38 21.5 -68.5t21.5 -79.5v-80h228v80q0 49 21.5 79.5t21.5 68.5q0 39 -40 58.5t-117 19.5zM1236 1245q-58 0 -106 -36.5t-97 -118.5q-59 20 -127.5 28t-117.5 8q-76 0 -143 -25.5t-108 -67t-41 -88.5q0 -51 44.5 -93.5t138.5 -85.5
l26 -12q94 -43 135 -79t41 -75h80q0 70 -58 125.5t-192 114.5q-66 29 -100.5 55.5t-34.5 49.5t33 46.5t82 39t97 15.5q83 0 160 -16t120 -43q33 85 76 131.5t92 46.5q42 0 98.5 -28.5t105.5 -70.5t67 -83q45 25 133 44t166 19q60 0 119 -14.5t98 -36t39 -43.5
q0 -15 -33 -37.5t-92 -47.5q-119 -50 -187 -125t-68 -157h80q0 63 41 110t127 82l39 16q91 37 132 75t41 84q0 48 -45 87.5t-121.5 63t-169.5 23.5q-46 0 -119 -12t-151 -32q-35 46 -86.5 82.5t-108 58.5t-105.5 22zM1641 895q-22 -20 -42.5 -40.5t-38.5 -45.5l48 -43
q22 26 41.5 46t36.5 35zM816 1419l-36 -56q20 -11 42.5 -27t48.5 -38l39 51q-22 19 -45.5 36t-48.5 34zM1490 446q-22 -20 -42 -41t-39 -45l48 -43q22 26 41.5 46t36.5 35zM1286 494q-7 -28 -14 -55t-13 -55l65 -15q11 63 25 105zM1333 724q40 0 66.5 -47t33.5 -140
q46 12 113.5 20.5t116.5 8.5q56 0 90 -20t34 -48q0 -29 -37 -62.5t-92.5 -75t-112.5 -92.5q-71 -65 -117.5 -132t-76 -112.5t-51.5 -45.5q-14 0 -37.5 30.5t-54 77.5t-65.5 98t-73 92q-59 64 -118 106.5t-98 72t-39 55.5q0 20 47 38t113 18q80 0 179 -33q23 80 73.5 135.5
t105.5 55.5zM1333 804q-65 0 -127 -48.5t-98 -133.5q-31 8 -69 14.5t-72 6.5q-100 0 -166 -36.5t-66 -96.5q0 -49 44 -90t108.5 -87.5t124.5 -111.5q44 -48 80.5 -103.5t69 -105.5t66 -82t72.5 -32q40 0 69.5 27.5t59 73t69 100.5t100.5 109q59 53 121.5 99.5t105 92.5
t42.5 98q0 67 -57.5 107.5t-146.5 40.5q-37 0 -81 -4t-82 -12q-19 83 -62 128.5t-105 45.5zM893 942l-26 -61q22 -8 47 -20t54 -29l30 57q-25 16 -51.5 28.5t-53.5 24.5zM1028 1517l-59 -30q11 -20 23 -45.5t23 -56.5l60 24q-8 29 -20.5 55t-26.5 53zM1589 1455
q-14 -27 -26.5 -53t-20.5 -55l60 -24q11 31 23 56.5t23 45.5z" />
</svg>