<?xml version="1.0" standalone="no"?>
<!DOCTYPE svg PUBLIC "-//W3C//DTD SVG 1.1//EN" "http://www.w3.org/Graphics/SVG/1.1/DTD/svg11.dtd">
<svg xmlns="http://www.w3.org/2000/svg" xmlns:xlink="http://www.w3.org/1999/xlink" version="1.1"
   viewBox="94 -151 2414 2169">
   <path fill="currentColor"
      d="M1483 1978q-217 0 -426 -94.5t-389 -262.5q-249 -232 -368.5 -487.5t-119.5 -486.5q0 -210 93.5 -380t275 -269.5t444.5 -99.5q169 0 339 54t330 148t297.5 217t241 261.5t161.5 281t58 275.5q0 90 -47.5 161.5t-127.5 113t-178 41.5q-81 0 -156 -31t-141 -65
q-55 -29 -104 -50t-93 -21q-32 0 -43 13t-11 36q0 37 27.5 67t71 56t91.5 51q54 27 104 58t82.5 69t32.5 88q0 74 -57 132t-157 91t-231 33zM1027 1475q21 0 25 -32q4 -36 31 -52q11 -7 17 -13.5t6 -16.5q0 -9 -9 -14.5t-26 -5.5q-37 0 -59.5 21.5t-22.5 57.5q0 23 11 39
t27 16zM1158 1616q-53 0 -108 -30t-92.5 -80t-37.5 -111q0 -59 36.5 -89t109.5 -30q94 0 156.5 57.5t62.5 143.5q0 65 -34 102t-93 37zM613 1013q21 0 25 -32q4 -36 31 -52q11 -7 17 -13.5t6 -16.5q0 -9 -9 -14.5t-26 -5.5q-37 0 -59.5 21.5t-22.5 57.5q0 23 11 39t27 16z
M746 1161q-55 0 -109.5 -33.5t-90 -84t-35.5 -101.5q0 -50 36.5 -82.5t94.5 -32.5q57 0 108.5 30.5t84.5 78.5t33 100t-36 88.5t-86 36.5zM637 465q21 0 25 -32q4 -36 31 -52q11 -7 17 -13.5t6 -16.5q0 -9 -9 -14.5t-26 -5.5q-37 0 -59.5 21.5t-22.5 57.5q0 23 11 39t27 16z
M729 580q-44 0 -87.5 -28t-72.5 -70t-29 -83q0 -47 37 -81t89 -34q49 0 95 22.5t76 57.5t30 72q0 61 -39.5 102.5t-98.5 41.5zM1483 1898q106 0 188.5 -24.5t129.5 -64.5t47 -87q0 -41 -50 -73.5t-116 -66.5q-56 -29 -112.5 -63t-93.5 -79t-37 -105t35.5 -95.5t98.5 -35.5
q58 0 114 24t113 54q63 33 128.5 61t138.5 28q76 0 138 -31t98.5 -85t36.5 -122q0 -122 -55.5 -254t-154 -261.5t-228.5 -244.5t-281 -204t-311 -140t-317 -51q-238 0 -402 89t-248 241t-84 342q0 142 50.5 297.5t153 312t259.5 303.5q169 158 364 246.5t397 88.5z
M1723 1124q-69 0 -134.5 -39.5t-107.5 -100.5t-42 -127q0 -68 43.5 -110t112.5 -42q70 0 134.5 40t106.5 102t42 129q0 65 -43.5 106.5t-111.5 41.5zM1723 1044q35 0 55 -18t20 -50q0 -45 -31 -89t-77.5 -73t-94.5 -29q-36 0 -56 18.5t-20 53.5q0 43 31 86.5t78.5 72
t94.5 28.5zM1186 384q21 0 25 -32q4 -36 31 -52q11 -7 17 -13.5t6 -16.5q0 -9 -9 -14.5t-26 -5.5q-37 0 -59.5 21.5t-22.5 57.5q0 23 11 39t27 16zM1283 496q-53 0 -99 -24t-74 -63t-28 -83q0 -52 36.5 -84t94.5 -32q51 0 96.5 26t74.5 67t29 86q0 46 -37 76.5t-93 30.5z
M1698 577q17 0 21 -28q4 -29 27 -45q20 -14 20 -25q0 -18 -30 -18q-32 0 -52 19t-20 51q0 19 10 32.5t24 13.5zM1810 687q-28 0 -50 -10t-40 -30q-25 -30 -59 -40q-24 -8 -39.5 -32t-15.5 -54q0 -43 28.5 -70.5t72.5 -27.5q41 0 98 25q47 20 72.5 52t25.5 71q0 43 -29 79.5
t-64 36.5z" />
</svg>