<?xml version="1.0" standalone="no"?>
<!DOCTYPE svg PUBLIC "-//W3C//DTD SVG 1.1//EN" "http://www.w3.org/Graphics/SVG/1.1/DTD/svg11.dtd">
<svg xmlns="http://www.w3.org/2000/svg" xmlns:xlink="http://www.w3.org/1999/xlink" version="1.1"
   viewBox="94 -151 2414 2169">
   <path fill="currentColor"
      d="M1069 1792q-33 0 -33 -16q0 -12 13 -29.5t25.5 -48t12.5 -79.5q0 -36 -5.5 -77t-5.5 -80q0 -9 0.5 -18.5t1.5 -18.5q-19 24 -42 59t-40 78l-15 38q-31 78 -80 110t-85 32q-35 0 -35 -18q0 -12 13 -21t30 -26.5t30 -54t13 -105.5q0 -53 18.5 -108t64.5 -104
q-100 -62 -161.5 -160t-61.5 -222q0 -76 14 -137.5t14 -92.5q0 -18 -10.5 -42.5t-39.5 -62.5l-25 -33q-40 -53 -55 -107t-15 -95q0 -92 50.5 -174.5t138.5 -145.5t201.5 -99t240.5 -36q114 0 206 26.5t146.5 74t54.5 111.5q0 47 -29.5 75t-73 44.5t-87.5 30t-73.5 32
t-29.5 50.5q0 39 43 67t126 35l-105 80q-152 -59 -268 -127t-180.5 -141t-64.5 -146q0 -10 1.5 -20t3.5 -20l-76 23q-76 55 -110.5 123.5t-34.5 130.5q0 34 11 74t43 85l24 33q34 46 50.5 82.5t16.5 71.5q0 49 -14 106t-14 124q0 95 44 168.5t118.5 124.5t166.5 77t187 26
q131 0 232 -43.5t159 -125t58 -194.5v-35q0 -117 14 -190.5t34.5 -120.5t41 -84.5t34.5 -81.5t14 -113q0 -21 -5.5 -59t-15.5 -78.5t-24 -65.5l15 -19q24 58 24 110q0 86 -41 136.5t-97 77t-100 41.5q-117 38 -190 92.5t-93 160.5l-68 -45q33 -116 110.5 -177t210.5 -104
q97 -32 150 -87.5t53 -122.5q0 -77 -56.5 -125.5t-142.5 -48.5q-16 0 -28 2t-29 7l-67 -63q19 -11 50 -17.5t64 -6.5q161 0 260.5 105.5t99.5 287.5q0 70 -14 118t-34.5 89t-41 89.5t-34.5 117.5t-14 175v35q0 112 -46.5 204t-124.5 142q10 25 13.5 48t3.5 44
q0 34 -4.5 67.5t-4.5 74.5q0 60 15 96.5t30 60t15 43.5q0 13 -15 13q-21 0 -56.5 -24.5t-74 -66.5t-70.5 -94l-95 -157q-56 0 -120.5 52t-93.5 130l-18 50q-25 71 -60 112t-77 41zM1497 1305q14 -68 20.5 -118.5t6.5 -84.5q0 -80 -34.5 -146.5t-118.5 -136.5t-233 -162
l-186 -115q-99 -61 -142.5 -122.5t-43.5 -131.5q0 -47 16.5 -99t59.5 -105l97 -31q-37 40 -65 102.5t-28 125.5q0 50 26 91t78 74l325 204q186 117 257.5 227t71.5 211q0 47 -5 92t-17 101zM1277 364l-105 -27l-81 -56q40 -63 110.5 -97.5t151.5 -34.5q37 0 71.5 7t62.5 18
l-119 79zM1268 340q15 -52 49.5 -83t77.5 -48.5t82.5 -30.5t65 -29t25.5 -44q0 -57 -93 -93t-227 -36q-126 0 -196 35t-70 94q0 33 27 73t70 77t93 61t96 24zM1358 1978q-25 0 -55 -7.5t-51.5 -24.5t-21.5 -45v-505h80v482q0 10 13 15.5t35 5.5t37 -5t15 -16q0 -30 9.5 -61
t35 -52t74.5 -21l-6 26q-34 -33 -60 -45t-65 -23v-346l80 9v305q47 19 79 49t32 53q0 15 -15.5 20.5t-36 12t-36 23.5t-15.5 55q0 53 -33 74t-95 21z" />
</svg>