<?xml version="1.0" standalone="no"?>
<!DOCTYPE svg PUBLIC "-//W3C//DTD SVG 1.1//EN" "http://www.w3.org/Graphics/SVG/1.1/DTD/svg11.dtd">
<svg xmlns="http://www.w3.org/2000/svg" xmlns:xlink="http://www.w3.org/1999/xlink" version="1.1"
   viewBox="94 -151 2414 2169">
   <path fill="currentColor"
      d="M1328 1978q-176 0 -273 -16.5t-137.5 -45t-47.5 -63.5l-193 -991q30 -13 64 -13q51 0 115.5 36t139 82.5t158.5 82.5t174 36q91 0 175 -36t159 -82.5t139.5 -82.5t116.5 -36q33 0 62 13l-193 991q-7 35 -47.5 63.5t-137.5 45t-274 16.5zM713 1006q-40 -180 -105 -361.5
t-154 -365.5l216 -105q66 139 123.5 280.5t96.5 284.5l-24 131q-40 -154 -96 -308.5t-128 -307.5l-108 53q80 170 138.5 339.5t99.5 338.5zM1497 1847h3h2q101 -8 144.5 -41.5t56.5 -110.5l82 -507q1 -8 1 -15q0 -40 -34 -40q-30 0 -36 38l-82 512q-8 52 -34 69t-105 25
q-16 1 -26.5 11.5t-10.5 24.5q0 16 11.5 25t27.5 9zM886 1114q-9 -159 -36.5 -317t-69.5 -321l268 -71q36 166 58.5 335.5t32.5 346.5h-58q-10 -157 -29.5 -308.5t-47.5 -299.5l-153 40q42 148 62.5 293t31.5 293zM1110 1173q11 -220 30.5 -426.5t45.5 -394.5l303 57
q-42 172 -68 363t-41 401h-61q15 -194 38 -373t59 -344l-179 -34q-24 175 -39.5 363.5t-28.5 387.5h-59zM898 481l-173 -395l231 -98l133 301l-41 53l-123 -275l-121 51l143 324zM1610 1200l-62 -13q36 -206 89.5 -389.5t126.5 -347.5l-128 -59q-79 169 -137.5 362
t-96.5 408l-53 -10q39 -238 103.5 -448.5t156.5 -391.5l235 111q-82 169 -140.5 361.5t-93.5 416.5zM1075 549l-60 -17q20 -116 28 -228t8 -231q0 -41 -0.5 -83t-2.5 -87l283 -5v33q0 104 -7.5 222.5t-21.5 238.5h-61q14 -107 22 -221.5t8 -214.5l-160 4v79q0 111 -4 190
t-11.5 152.5t-20.5 167.5zM1404 425q0 -94 -7.5 -191.5t-24.5 -218.5l275 -29q10 89 17.5 189t7.5 201l-60 7q0 -82 -4.5 -167t-14.5 -164l-153 16q13 113 18.5 197t5.5 158zM1788 958l-59 -2q20 -223 67 -438.5t120 -417.5l230 86q-60 161 -101.5 329t-64.5 347l-67 44
q23 -179 61 -349.5t96 -335.5l-118 -43q-61 186 -102.5 381.5t-61.5 398.5zM1800 430l11 -305h-159l-10 -60h231l-13 349z" />
</svg>