<?xml version="1.0" standalone="no"?>
<!DOCTYPE svg PUBLIC "-//W3C//DTD SVG 1.1//EN" "http://www.w3.org/Graphics/SVG/1.1/DTD/svg11.dtd">
<svg xmlns="http://www.w3.org/2000/svg" xmlns:xlink="http://www.w3.org/1999/xlink" version="1.1"
   viewBox="94 -151 2414 2169">
   <path fill="currentColor"
      d="M1534 342l-34 72q-38 -26 -88.5 -39t-112.5 -13q-61 0 -111.5 13t-88.5 39l-35 -72q47 -31 106.5 -45.5t128.5 -14.5q70 0 129.5 14.5t105.5 45.5zM1324 1580q-112 109 -240 212t-271 186l-330 -380q143 -95 276.5 -197.5t248.5 -207.5l39 68q-100 92 -213 182t-232 170
l228 262q122 -76 233 -168t208 -187zM1271 910q108 -145 165.5 -302t57.5 -331q0 -83 -12.5 -162t-35.5 -134l79 -18q20 53 34.5 136t14.5 178q0 193 -65.5 364.5t-187.5 330.5zM1539 1201q125 -182 193.5 -368.5t68.5 -340.5q0 -104 -40 -196.5t-110 -164t-160.5 -112.5
t-191.5 -41q-100 0 -190.5 41t-161 112.5t-110.5 164t-40 196.5q0 170 69.5 356t198.5 370.5t308 353t397 303.5l228 -262q-183 -127 -357 -268.5t-313.5 -304t-221.5 -351.5t-82 -412q0 -95 15 -178t34 -136l80 18q-22 55 -35.5 134t-13.5 162q0 219 85 404t229.5 344.5
t325.5 300.5t373 272l-330 380q-240 -140 -436.5 -318.5t-338.5 -377t-218.5 -400.5t-76.5 -390q0 -125 46.5 -232.5t127.5 -189t186 -127t222 -45.5t222 45.5t186 127t127.5 189t46.5 232.5q0 169 -73.5 368t-208.5 394z" />
</svg>