<?xml version="1.0" standalone="no"?>
<!DOCTYPE svg PUBLIC "-//W3C//DTD SVG 1.1//EN" "http://www.w3.org/Graphics/SVG/1.1/DTD/svg11.dtd">
<svg xmlns="http://www.w3.org/2000/svg" xmlns:xlink="http://www.w3.org/1999/xlink" version="1.1"
   viewBox="94 -151 2414 2169">
   <path fill="currentColor"
      d="M750 1788q-49 0 -78 -39.5t-19 -91.5l109 -551l-410 -382q-40 -38 -40 -82q0 -41 28 -69t72 -33l555 -67l237 -508q31 -67 96 -67t96 67l237 508l555 67q44 5 72 33t28 69q0 44 -40 82l-410 382l109 551q11 52 -18 91.5t-79 39.5q-31 0 -60 -17l-490 -274l-490 274
q-29 17 -60 17zM407 1353q-18 11 -36 5t-24 -25l-35 -110q-6 -20 4 -35.5t31 -16.5l215 -16q41 -3 51 30q10 34 -24 55zM1243 1978q-21 0 -32.5 -15t-6.5 -35l51 -209q10 -39 45 -39t45 39l51 209q5 20 -6.5 35t-32.5 15h-114zM750 1709q12 0 24 -7l526 -294l526 294
q12 7 24 7q14 0 18.5 -12t0.5 -32l-116 -587l438 -407q19 -17 19 -29q0 -20 -39 -25l-591 -72l-249 -536q-16 -33 -31 -33t-31 33l-249 536l-591 72q-39 5 -39 25q0 12 19 29l438 407l-116 587q-4 20 1 32t18 12zM864 388q-28 21 -59 -5l-165 -138q-16 -14 -15 -33.5
t17 -30.5l93 -66q17 -13 35 -8t26 25l81 199q14 37 -13 57zM2193 1353l-182 -113q-34 -21 -24 -55q10 -33 51 -30l215 16q21 1 31 16.5t4 35.5l-35 110q-6 19 -24 25t-36 -5zM1736 388q-27 -20 -13 -57l81 -199q8 -20 26 -25t35 8l93 66q17 11 18 30.5t-16 33.5l-165 138
q-31 26 -59 5z" />
</svg>