<?xml version="1.0" standalone="no"?>
<!DOCTYPE svg PUBLIC "-//W3C//DTD SVG 1.1//EN" "http://www.w3.org/Graphics/SVG/1.1/DTD/svg11.dtd">
<svg xmlns="http://www.w3.org/2000/svg" xmlns:xlink="http://www.w3.org/1999/xlink" version="1.1"
   viewBox="94 -151 2414 2169">
   <path fill="currentColor"
      d="M270 1551v-1315h991v71h-651v1173h1720v71h-2060zM580 1240v-71h410v71h-410zM580 929v-71h455v71h-455zM1279 1978q-106 0 -167 -57t-61 -139q0 -66 36.5 -103t87.5 -37q45 0 71.5 27.5t26.5 68.5q0 43 -27 69.5t-69 26.5q-16 0 -32 -5.5t-27 -15.5q13 40 49 64t94 24
q107 0 172 -81.5t65 -205.5q0 -52 -14 -113l-210 -895q-30 -128 -44 -227t-14 -163q0 -149 61.5 -233.5t167.5 -84.5q94 0 144.5 66t50.5 183q0 108 -43 191t-110.5 151.5t-141.5 134.5t-143 136t-112.5 154.5t-43.5 195.5q0 101 39.5 185t110.5 134t164 50
q82 0 152.5 -36.5t114 -100t43.5 -142.5q0 -62 -26 -113.5t-72.5 -82t-109.5 -30.5q-78 0 -133.5 47t-55.5 118q0 7 0.5 12t1.5 16l-88 20q-8 -37 -8 -69q0 -72 38.5 -130.5t103 -93.5t141.5 -35q87 0 156.5 44t110.5 119t41 168q0 103 -53.5 182.5t-146 125t-210.5 45.5
q-128 0 -223.5 -54.5t-148 -152.5t-52.5 -226q0 -130 49 -225.5t124.5 -170.5t154.5 -142q71 -61 134 -122t102.5 -133t39.5 -163q0 -76 -22.5 -119.5t-72.5 -43.5q-58 0 -93.5 61t-35.5 164q0 52 10 133.5t41 215.5l212 903q17 74 17 140q0 107 -39.5 190.5t-110.5 131.5
t-167 48zM1718 1240v-71h612v71h-612zM580 618v-71h1750v71h-1750zM1398 929l-16 -71h948v71h-932zM1590 307v-71h740v71h-740z" />
</svg>