<?xml version="1.0" standalone="no"?>
<!DOCTYPE svg PUBLIC "-//W3C//DTD SVG 1.1//EN" "http://www.w3.org/Graphics/SVG/1.1/DTD/svg11.dtd">
<svg xmlns="http://www.w3.org/2000/svg" xmlns:xlink="http://www.w3.org/1999/xlink" version="1.1"
   viewBox="94 -151 2414 2169">
   <path fill="currentColor"
      d="M1233 1978q-127 0 -254.5 -5t-253.5 -19q-141 -16 -232 -52t-141.5 -102.5t-71 -173.5t-20.5 -266q0 -181 19.5 -358.5t67.5 -333.5t134.5 -276t219.5 -188.5t322 -68.5q188 0 327.5 69.5t236.5 190t156.5 273.5t86.5 321.5t27 332.5q0 42 -2 102.5t-7.5 119t-17.5 96.5
q-31 100 -115.5 176.5t-208.5 119t-273 42.5zM942 1721q-184 0 -288 -29.5t-146.5 -101.5t-42.5 -200q0 -23 1.5 -40t5.5 -47l72 28q-3 25 -3.5 38.5t-0.5 25.5q0 101 34 155.5t121 75.5t247 21q43 0 98 -1.5t144 -8.5l26 47q-74 -8 -102 -78.5t-28 -249.5h76
q0 154 15 211.5t55 57.5q46 0 68.5 -60.5t22.5 -172.5q0 -121 -14.5 -170t-54.5 -49q-22 0 -33 16.5t-16 56.5q-8 61 -25.5 97.5t-49 52.5t-82.5 16h-436q-77 0 -114 -34.5t-37 -97.5q0 -88 65.5 -142t171.5 -54h496q80 0 124 27t61.5 94t17.5 187q0 116 -24.5 186
t-81.5 102t-156 36q-56 2 -104 3.5t-83 1.5zM1041 1338q39 0 58 -24t27 -88q5 -41 22.5 -73t63.5 -41l25 47h-545q-78 0 -120.5 32t-42.5 89q0 23 21.5 40.5t56.5 17.5h434zM1233 1898q126 0 197 -26.5t103 -80.5t40 -137.5t8 -198.5q0 -537 -167.5 -801.5t-514.5 -264.5
q-182 0 -293 67t-168.5 194t-77.5 306t-20 404q0 147 14 241.5t54.5 150t118.5 83t205 41.5q90 9 184.5 14t178 6.5t138.5 1.5zM1503 1905l-47 -25q130 -44 204.5 -109t101.5 -153q10 -32 14 -89t5 -115t1 -92q0 -152 -24 -309.5t-78 -301.5t-142.5 -257t-216 -179
t-299.5 -66q-101 0 -196.5 31.5t-174 89t-129.5 136.5l-66 14q96 -92 202 -131.5t238 -39.5q376 0 568 290t192 856q0 117 -11.5 199.5t-44 141.5t-97.5 109zM1031 820l-268 -4q-16 0 -25 -10t-9 -26v-137q0 -35 33 -35l268 2q38 0 38 34v141q0 35 -37 35zM1748 1762l35 -74
l55 -185q49 -48 81 -86t70 -90l20 68l199 -4q-68 112 -132.5 182.5t-142 113.5t-185.5 75zM528 394q-27 -44 -38.5 -82.5t-11.5 -74.5q0 -107 79.5 -177t209.5 -70q62 0 101.5 31.5t87.5 131.5q-159 30 -260 92.5t-168 148.5zM2202 1621q-23 5 -28 -19l-42 -215l124 -13
l52 196q6 24 -18 30zM1978 1434l-21 -284l362 -25l21 284zM2047 1354l211 -17l-11 -133l-211 17zM1350 207l-124 -42l-24 -164l-142 -2l-32 148l-112 9l43 -194l111 -64h133l112 92zM2034 1195q0 -114 -18 -245t-53.5 -261.5t-88 -243.5t-121.5 -190q-32 29 -54.5 52
t-44.5 53.5t-53 80.5l-267 -223q95 -135 186 -202.5t176 -67.5q57 0 119.5 19.5t115.5 47.5t79 55q63 64 126 183.5t104.5 289.5t41.5 386q0 93 -18.5 158t-56.5 103z" />
</svg>