<?xml version="1.0" standalone="no"?>
<!DOCTYPE svg PUBLIC "-//W3C//DTD SVG 1.1//EN" "http://www.w3.org/Graphics/SVG/1.1/DTD/svg11.dtd">
<svg xmlns="http://www.w3.org/2000/svg" xmlns:xlink="http://www.w3.org/1999/xlink" version="1.1"
   viewBox="94 -151 2414 2169">
   <path fill="currentColor"
      d="M264 1978v-195h80v-145h57q0 -55 8.5 -92.5t27.5 -62.5v-501q-22 -29 -29.5 -71.5t-7.5 -138.5v-90h80v83h1640v-83h80v90q0 96 -7.5 138.5t-29.5 71.5v501q20 25 28 62.5t8 92.5h57v145h80v195h-2072zM483 1638h321q0 -41 -4.5 -67t-14.5 -45h-283q-10 19 -14.5 45
t-4.5 67zM517 1456h250v-444h-250v444zM344 1900h1912v-67h-1912v67zM921 1638h321q0 -41 -4.5 -67t-14.5 -45h-283q-10 19 -14.5 45t-4.5 67zM424 1783h1752v-67h-1752v67zM501 942h284q10 -20 14 -45t4 -62h-321q0 37 4.5 62t14.5 45zM957 1456h248v-444h-248v444z
M1358 1638h321q0 -41 -4.5 -67t-14.5 -45h-283q-10 19 -14.5 45t-4.5 67zM480 630h145v-80h-145v80zM678 630h134v-80h-134v80zM939 942h284q10 -20 14 -45t4 -62h-321q0 37 4.5 62t14.5 45zM1395 1456h248v-444h-248v444zM880 630h134v-80h-134v80zM1796 1638h321
q0 -41 -4.5 -67t-14.5 -45h-283q-10 19 -14.5 45t-4.5 67zM1377 942h284q10 -20 14.5 -45t4.5 -62h-321q0 37 4 62t14 45zM1080 630h440v-80h-440v80zM1833 1456h250v-444h-250v444zM400 697v-147h-77v-131l977 -521l977 521v131h-77v147h-1800zM859 363l441 -235l441 235
h-882zM1586 630h134v-80h-134v80zM1815 942h284q10 -20 14.5 -45t4.5 -62h-321q0 37 4 62t14 45zM432 469h1736v-18l-868 -462l-868 462v18zM1788 630h134v-80h-134v80zM1975 630h145v-80h-145v80z" />
</svg>