<?xml version="1.0" standalone="no"?>
<!DOCTYPE svg PUBLIC "-//W3C//DTD SVG 1.1//EN" "http://www.w3.org/Graphics/SVG/1.1/DTD/svg11.dtd">
<svg xmlns="http://www.w3.org/2000/svg" xmlns:xlink="http://www.w3.org/1999/xlink" version="1.1"
   viewBox="94 -151 2414 2169">
   <path fill="currentColor"
      d="M1047 1694q-55 0 -94 -33.5t-39 -84.5q0 -36 17 -71.5t34 -79.5t17 -103q0 -68 -29.5 -115t-68 -92t-68 -104t-29.5 -150q0 -38 11 -101t27 -112q-73 24 -113.5 54t-56.5 86t-16 160q0 62 -34.5 101.5t-90.5 39.5q-48 0 -81 -27t-33 -67q0 -38 27.5 -70.5t67.5 -40.5
q-16 -55 -16 -110q0 -128 81 -222t215 -144q-43 -46 -64 -100t-21 -111q0 -83 40.5 -150.5t108.5 -108t150 -40.5q83 0 150.5 40.5t108 108t40.5 150.5q0 50 -16 98t-46 82q39 28 71 60t76 55t117 23q51 0 115.5 -18t113.5 -18q69 0 110 23.5t41 76.5q0 55 -34 85.5
t-78 30.5q-31 0 -47.5 -12.5t-32.5 -25t-47 -12.5q-38 0 -77.5 22.5t-92.5 22.5q-41 0 -88 -22t-103 -74v102q0 60 30.5 97t75.5 63t91 53t78.5 65.5t36.5 101.5l11 183q50 17 89.5 50.5t39.5 68.5q0 38 -37.5 66t-104.5 28q-57 0 -92.5 -29t-42.5 -68l-31 -188
q-5 -32 -36.5 -64.5t-77.5 -55t-95 -22.5q-53 0 -53 58q0 27 10.5 64t20.5 70.5t10 51.5q0 52 -13.5 88t-27 60.5t-13.5 44.5q0 25 8.5 38t17 25t8.5 35q0 41 -36 77.5t-90 36.5zM757 2018q-103 0 -174.5 -66.5t-71.5 -175.5q0 -96 78 -158t215 -79q90 -11 184.5 -48.5
t189 -88.5t183.5 -103q122 -71 227.5 -124.5t181.5 -53.5q95 0 161.5 60.5t66.5 161.5q0 95 -68.5 159.5t-174.5 78.5q-136 18 -254.5 55.5t-231.5 97.5t-233 148q-70 52 -117.5 81.5t-84.5 42t-77 12.5zM757 1953q31 0 60 -10.5t69 -37t103 -73.5q182 -137 361 -212.5
t396 -103.5q83 -11 132.5 -58.5t49.5 -114.5q0 -68 -45 -112.5t-113 -44.5q-63 0 -158 48.5t-214 118.5q-90 52 -189 106t-200 93.5t-198 51.5q-112 13 -171 58t-59 114q0 75 50 126t126 51zM1500 1861l-46 -38q34 -37 94 -55.5t178 -28.5q132 -11 215.5 -38t131 -77
t69.5 -130l58 15q-39 141 -149 208t-329 85q-100 8 -149 21t-73 38zM815 348h37q33 0 45.5 -25.5t18.5 -51t18 -25.5t20 25t20.5 49.5t34.5 24.5h80q45 0 60.5 -40.5t15.5 -156.5q-66 3 -124 5t-112 2q-50 0 -93.5 -2t-84.5 -6q-5 23 -5 47q0 58 18.5 106t50.5 48z
M1651 1086l-12 -61q8 -5 14 -16.5t6 -24.5q0 -59 39.5 -100.5t90.5 -41.5q22 0 44 7q4 -70 50.5 -113.5t112.5 -43.5q78 0 129 60l-48 36q-33 -36 -81 -36q-44 0 -75.5 31t-31.5 75q0 10 1 25t5 45q-32 -14 -54.5 -20t-39.5 -6q-34 0 -58 23.5t-24 58.5q0 33 -20 63t-48 39z
" />
</svg>