<?xml version="1.0" standalone="no"?>
<!DOCTYPE svg PUBLIC "-//W3C//DTD SVG 1.1//EN" "http://www.w3.org/Graphics/SVG/1.1/DTD/svg11.dtd">
<svg xmlns="http://www.w3.org/2000/svg" xmlns:xlink="http://www.w3.org/1999/xlink" version="1.1"
   viewBox="94 -151 2414 2169">
   <path fill="currentColor"
      d="M1300 1978q-213 0 -400 -45.5t-329 -127t-222.5 -189t-80.5 -231.5v-592q0 -113 60.5 -205.5t164.5 -163t237 -118.5t279.5 -72.5t290.5 -24.5t290.5 24.5t279.5 72.5t237 118.5t164.5 163t60.5 205.5v592q0 124 -80.5 231.5t-222.5 189t-329 127t-400 45.5zM558 1722
l-130 -119v-322q0 -29 13 -44.5t36 -15.5q34 0 57.5 33t23.5 81v387zM880 1865l-131 -43v-358q0 -33 15.5 -54t39.5 -21q30 0 53 32t23 73v371zM667 1076l-332 -239v-90l371 267zM1088 1915v-254q0 -87 62.5 -149.5t149.5 -62.5t149.5 62.5t62.5 149.5v254h-424zM1300 1900
q125 0 258 -21.5t257 -64.5t222.5 -106t156.5 -146.5t58 -185.5v-345q-79 109 -222.5 187t-331 120t-398.5 42t-398.5 -42t-331 -120t-222.5 -187v345q0 102 58 185.5t156.5 146.5t222.5 106t257 64.5t258 21.5zM536 708l-56 -61l47 -41l54 59zM701 803l-46 -70l54 -36
l46 66zM490 442v-105q-31 -19 -68.5 -35.5t-65 -31t-27.5 -27.5q71 -11 126 -40.5t75 -29.5t20 27v197zM1300 1297h17.5t17.5 -1v-232h250v208q17 -2 33.5 -5t33.5 -7v-274h-704v274q17 4 33.5 7t33.5 5v-208h250v232q8 1 17.5 1h17.5zM1720 1865v-371q0 -41 23 -73t53 -32
q24 0 39.5 21t15.5 54v358zM915 857l-254 -450l64 -28l258 457zM1299 1375l-378 -59l-293 -118q5 -113 63.5 -192t154 -127.5t213.5 -71t241 -22.5t241 22.5t213.5 71t154 127.5t63.5 192l-302 118zM925 578l-29 -74l60 -20l28 75zM1090 728l-27 -78l58 -16l24 80z
M1300 1302q204 0 377.5 -39t302.5 -108.5t200.5 -162t71.5 -199.5q0 -104 -74 -195t-204.5 -160.5t-303 -109t-370.5 -39.5t-370.5 39.5t-303 109t-204.5 160.5t-74 195q0 107 71.5 199.5t200.5 162t302.5 108.5t377.5 39zM773 297v-110q-31 -19 -68.5 -35.5t-65 -31
t-27.5 -27.5q71 -11 126 -40.5t75 -29.5t20 27v237zM1020 468l-23 -82l58 -16l22 82zM2042 1722v-387q0 -48 23.5 -81t57.5 -33q23 0 36 15.5t13 44.5v322zM1264 789v-512h70v512h-70zM1148 435l-9 -82l66 -4v84zM1599 720l-63 -26l37 -92l65 27zM1466 514l-63 -2v-104l72 4
zM1959 890l-44 -40l73 -70l46 38zM1685 857l-68 -21l258 -457l64 28zM1933 1076l-39 -62l371 -267v90zM1651 486l-65 -12l16 -96l71 16zM1031 241v-105h-72v-238h682v238h-72v105l-80 -12v-93h-378v93zM1029 66h542v-98h-542v98zM1982 627l-50 -38l57 -78l47 33zM1827 297
l-60 -10v-237q0 -27 20 -27t75.5 29.5t125.5 40.5q0 13 -27.5 27.5t-65 31t-68.5 35.5v110zM2110 442l-60 -45v-197q0 -27 20 -27t75.5 29.5t125.5 40.5q0 13 -27.5 27.5t-65 31t-68.5 35.5v105z" />
</svg>