<?xml version="1.0" standalone="no"?>
<!DOCTYPE svg PUBLIC "-//W3C//DTD SVG 1.1//EN" "http://www.w3.org/Graphics/SVG/1.1/DTD/svg11.dtd">
<svg xmlns="http://www.w3.org/2000/svg" xmlns:xlink="http://www.w3.org/1999/xlink" version="1.1"
   viewBox="94 -151 2414 2169">
   <path fill="currentColor"
      d="M426 1978q-68 0 -117 -48.5t-49 -115.5v-1751q0 -68 49 -116.5t116 -48.5h1750q68 0 116.5 48.5t48.5 116.5v1750q0 67 -48.5 116t-116.5 49h-1749zM840 1738q-95 0 -174.5 -47.5t-127 -127.5t-47.5 -177q0 -96 47 -175.5t126.5 -127t175.5 -47.5q97 0 176 47.5
t126.5 126.5t47.5 176t-47.5 177t-126.5 127.5t-176 47.5zM840 1679q80 0 146 -39.5t106 -105.5t40 -146q0 -81 -39.5 -148t-106 -106.5t-146.5 -39.5q-79 0 -145.5 40t-106.5 106.5t-40 147.5q0 79 39.5 145t106 106t146.5 40zM840 1615q-62 0 -114 -31t-82.5 -83
t-30.5 -115q0 -62 31 -113.5t82.5 -82t113.5 -30.5q70 0 127.5 39t81.5 101l-212 44l12 63l216 -44q1 8 1.5 16.5t0.5 16.5q0 60 -31.5 110t-83 79.5t-112.5 29.5zM840 832q-94 0 -172 -46.5t-124 -124.5t-46 -173t46 -172.5t124 -123.5t172 -46q95 0 172.5 46.5t123.5 124
t46 171.5q0 95 -46.5 173t-124 124.5t-171.5 46.5zM840 774q78 0 143 -38.5t103.5 -103.5t38.5 -144q0 -78 -38.5 -143t-103.5 -103.5t-143 -38.5t-142.5 38.5t-103 103t-38.5 143.5t38.5 144t103 103.5t142.5 38.5zM840 716q-62 0 -113.5 -30.5t-82.5 -82t-31 -113.5
q0 -63 30.5 -115t82.5 -83t114 -31q42 0 80 15.5t67 41.5l-157 153l46 46l154 -151q37 58 37 124q0 61 -30.5 112.5t-82 82.5t-114.5 31zM426 1898h1749q35 0 60 -25.5t25 -59.5v-1750q0 -35 -25 -60t-60 -25h-1750q-34 0 -59.5 25t-25.5 60v1751q0 34 25.5 59t60.5 25z
M1760 1738q-96 0 -175 -47.5t-126.5 -127.5t-47.5 -177t47.5 -176t126.5 -126.5t175 -47.5q97 0 176 47.5t126.5 127t47.5 175.5q0 97 -47.5 177t-127 127.5t-175.5 47.5zM1760 1679q81 0 147 -40t105.5 -106t39.5 -145q0 -81 -40 -147.5t-106.5 -106.5t-145.5 -40
q-80 0 -146.5 39.5t-106 106.5t-39.5 148q0 80 40 146t106.5 105.5t145.5 39.5zM1760 1615q-62 0 -113.5 -30.5t-82.5 -82t-31 -113.5q0 -63 30.5 -115t82.5 -83t114 -31q42 0 80 15t67 41l-157 154l46 46l154 -151q37 58 37 124q0 61 -30.5 112.5t-82 82.5t-114.5 31z
M1760 839q-95 0 -174.5 -47.5t-127 -127t-47.5 -176.5q0 -96 47 -175.5t126.5 -127t175.5 -47.5q97 0 176 47.5t126.5 126.5t47.5 176t-47.5 176.5t-126.5 127t-176 47.5zM1760 781q80 0 146 -39.5t106 -105.5t40 -146q0 -81 -39.5 -148t-106 -106.5t-146.5 -39.5
q-79 0 -145.5 40t-106.5 106.5t-40 147.5q0 79 39.5 145t106 106t146.5 40zM1760 716q-62 0 -114 -31t-82.5 -82.5t-30.5 -112.5q0 -66 37 -124l155 151l45 -46l-157 -153q29 -26 67 -41.5t80 -15.5q63 0 114.5 31t82 83t30.5 115q0 62 -31 113.5t-82.5 82t-113.5 30.5z" />
</svg>