<?xml version="1.0" standalone="no"?>
<!DOCTYPE svg PUBLIC "-//W3C//DTD SVG 1.1//EN" "http://www.w3.org/Graphics/SVG/1.1/DTD/svg11.dtd">
<svg xmlns="http://www.w3.org/2000/svg" xmlns:xlink="http://www.w3.org/1999/xlink" version="1.1"
   viewBox="94 -151 2414 2169">
   <path fill="currentColor"
      d="M265 1978q-55 0 -90 -35t-35 -90v-1662q-35 -39 -55.5 -85.5t-20.5 -86.5q0 -54 35 -87.5t91 -33.5h1570q56 0 86 33t30 88q0 43 -21 88.5t-55 83.5v474h610q56 0 91 33.5t35 87.5q0 40 -20.5 85t-55.5 84v898q0 55 -35 90t-90 35h-2070zM310 1836v-269h155v269h-155z
M360 1786h55v-194h-55v194zM311 1596q-15 0 -22.5 -13t-1.5 -34l37 -126h127l37 126q6 21 -1.5 34t-22.5 13h-153zM760 1898h120v-285h-120v285zM335 1323v-260h180v260h-180zM385 1273h80v-160h-80v160zM620 1898h90v-335h220v335h80v-335h220v335h90v-405h-700v405z
M1060 1898h120v-285h-120v285zM335 963v-260h180v260h-180zM385 913h80v-160h-80v160zM1475 1836v-269h155v269h-155zM1525 1786h55v-194h-55v194zM620 1323v-980h180v980h-180zM670 1273h80v-880h-80v880zM265 1898h285v-475h840v475h330v-1660h-1500v1615q0 21 12 33
t33 12zM335 603v-260h180v260h-180zM385 553h80v-160h-80v160zM1476 1600q-15 0 -22.5 -13t-1.5 -34l37 -130h127l37 130q6 21 -1.5 34t-22.5 13h-153zM880 1323v-980h180v980h-180zM930 1273h80v-880h-80v880zM1425 1323v-260h180v260h-180zM1475 1273h80v-160h-80v160z
M1933 1836v-269h314v269h-314zM1140 1323v-980h180v980h-180zM1190 1273h80v-880h-80v880zM1983 1786h214v-194h-214v194zM1935 1596q-15 0 -22.5 -13t-1.5 -34l36 -126h286l36 126q6 21 -1.5 34t-22.5 13h-310zM1425 963v-260h180v260h-180zM1475 913h80v-160h-80v160z
M1800 1898h535q21 0 33 -12t12 -33v-934q33 -25 54.5 -64.5t21.5 -68.5q0 -41 -42 -41h-614v1153zM1915 1313v-230h350v230h-350zM1965 1263h250v-130h-250v130zM220 158h1500q32 -25 54 -67.5t22 -71.5q0 -15 -6.5 -28t-19.5 -13h-1590q-36 0 -36 41q0 31 23 73t53 66z
M1425 603v-260h180v260h-180zM1475 553h80v-160h-80v160zM1765 978v-80h656v80h-656zM1958 686v-97h-34q-40 0 -40 -30t40 -30h483q40 0 40 30t-40 30h-34v97h-80v-97h-255v97h-80zM1952 543h427v-295h-427v295zM1902 564v-366h527v366h-527zM1936 497v-84q39 -38 84.5 -62
t76.5 -24q33 0 49 22t28.5 44.5t32.5 22.5q28 0 83.5 -44t113.5 -99v66q-71 71 -116.5 103t-85.5 32q-30 0 -43.5 -13t-20.5 -30.5t-16.5 -30.5t-31.5 -13q-31 0 -75.5 31.5t-78.5 78.5z" />
</svg>