<?xml version="1.0" standalone="no"?>
<!DOCTYPE svg PUBLIC "-//W3C//DTD SVG 1.1//EN" "http://www.w3.org/Graphics/SVG/1.1/DTD/svg11.dtd">
<svg xmlns="http://www.w3.org/2000/svg" xmlns:xlink="http://www.w3.org/1999/xlink" version="1.1"
   viewBox="94 -151 2414 2169">
   <path fill="currentColor"
      d="M221 1978v-1324l-93 -162q-11 -20 -6 -33.5t25 -13.5h399v78h-276q-10 0 -15.5 9t-0.5 19l47 80v1269h694v-387h-544v-269h1698v269h-544v387h694v-1269l47 -80q5 -10 0 -19t-16 -9h-276v-78h399q20 0 25.5 13.5t-6.5 33.5l-93 162v1324h-2158zM415 1938v-144h112v144
h-112zM471 1808q-29 0 -48 -24t-19 -62q0 -29 10.5 -60.5t26 -53.5t30.5 -22t30.5 22t26.5 53.5t11 60.5q0 38 -19.5 62t-48.5 24zM700 1938v-465h80v465h-80zM376 1165v-140h60v140h-60zM1075 1900h185v-387h-185v387zM376 925v-140h60v140h-60zM656 1153v-140h60v140h-60z
M1340 1900h185v-387h-185v387zM255 700v-78h291v78h-291zM656 913v-140h60v140h-60zM531 1415h1538v-93h-1538v93zM656 673v-140h60v140h-60zM1820 1938v-465h80v465h-80zM2073 1938v-144h112v144h-112zM2129 1808q-29 0 -48.5 -24t-19.5 -62q0 -29 11 -60.5t27 -53.5
t30 -22q15 0 30.5 22t26 53.5t10.5 60.5q0 38 -19 62t-48 24zM1299 963q-84 -46 -154 -117.5t-112.5 -151.5t-42.5 -150q0 -79 44 -124.5t121 -45.5q41 0 80 16.5t64 43.5q25 -27 64.5 -43.5t79.5 -16.5q77 0 121 45.5t44 124.5q0 70 -42 150t-112.5 151.5t-154.5 117.5z
M1299 870q64 -42 115.5 -99.5t82.5 -117.5t31 -109q0 -90 -85 -90q-38 0 -78 22t-66 54q-26 -32 -66 -54t-78 -22q-85 0 -85 90q0 49 31 109t83 117.5t115 99.5zM506 1283v-1043l288 -2q41 -161 177 -250.5t329 -89.5q194 0 330 89.5t176 250.5l288 2v1043h-80v-965l-200 -2
v967h-80v-955q0 -108 -56.5 -187t-154.5 -122t-223 -43q-124 0 -222.5 43t-155 122t-56.5 187v955h-80v-967l-200 2v965h-80zM1884 1153v-140h60v140h-60zM1884 913v-140h60v140h-60zM2164 1165v-140h60v140h-60zM1884 673v-140h60v140h-60zM2164 925v-140h60v140h-60z
M2054 700v-78h291v78h-291z" />
</svg>