<?xml version="1.0" standalone="no"?>
<!DOCTYPE svg PUBLIC "-//W3C//DTD SVG 1.1//EN" "http://www.w3.org/Graphics/SVG/1.1/DTD/svg11.dtd">
<svg xmlns="http://www.w3.org/2000/svg" xmlns:xlink="http://www.w3.org/1999/xlink" version="1.1"
   viewBox="94 -151 2414 2169">
   <path fill="currentColor"
      d="M2119 1852q-63 0 -126 -42l-1517 -1031q56 -37 137.5 -60t169.5 -27l-2 44l-205 -156q46 -24 121 -44.5t159.5 -34t157.5 -16.5l-9 37l-162 -181l72 -67l164 182h-35q23 -117 61.5 -232t84.5 -208l109 189l-19 12q15 -49 40.5 -97.5t54.5 -87t54 -56.5l810 1647
q23 46 23 93q0 60 -40 98t-103 38zM2292 1978q-35 0 -56 -24l-106 -115l61 -37l44 -59l104 115q21 24 21 54q0 28 -19.5 47t-48.5 19zM438 385q26 0 44.5 -16.5t18.5 -38.5q0 -8 -3.5 -16t-12.5 -20q-11 -15 -21 -34t-10 -44q0 -43 31.5 -73t74.5 -30q57 0 101 49l139 149
l90 -84l-141 -151q-49 -53 -96 -78t-97 -25q-60 0 -115 34.5t-90.5 88t-35.5 112.5q0 75 61 142q15 16 30.5 25.5t31.5 9.5zM438 460q-34 0 -64 -16t-56 -45q-78 -87 -78 -191q0 -79 45.5 -150t118 -115.5t152.5 -44.5q66 0 128 31.5t120 94.5l192 207l-200 185l-190 -202
q-23 -26 -45 -26q-13 0 -22.5 8.5t-9.5 20.5q0 9 5.5 17.5t12.5 17.5q11 12 21 32t10 46q0 53 -41.5 91.5t-98.5 38.5zM2122 1778q29 0 46 -17t17 -45q0 -25 -15 -56l-787 -1604l69 11q-37 49 -70.5 107t-50.5 150l-29 -102l557 976l-63 32l-628 -1091l66 -29
q-26 50 -51 122t-45 153t-32 159l-12 -52l757 868l-51 45l-761 -864l46 18q-71 2 -148.5 11t-148.5 24.5t-122 36.5l31 -56l962 741l-42 56l-804 -615l56 7q-95 5 -157.5 15t-103.5 25l4 -25l1434 972q38 27 76 27z" />
</svg>