<?xml version="1.0" standalone="no"?>
<!DOCTYPE svg PUBLIC "-//W3C//DTD SVG 1.1//EN" "http://www.w3.org/Graphics/SVG/1.1/DTD/svg11.dtd">
<svg xmlns="http://www.w3.org/2000/svg" xmlns:xlink="http://www.w3.org/1999/xlink" version="1.1"
   viewBox="94 -151 2414 2169">
   <path fill="currentColor"
      d="M1787 1978q-112 0 -229.5 -37t-248.5 -70q-83 -21 -154.5 -36t-140.5 -37t-147 -65q-205 -114 -312 -292t-107 -386v-89h80v89q0 190 99.5 346.5t271.5 257.5q74 43 148 65.5t149 37.5t151 36q74 20 157 44t158.5 41t124.5 17q168 0 262.5 -93.5t94.5 -256.5
q0 -61 -13.5 -129.5t-28 -132.5t-19.5 -110q-5 -55 -2.5 -93t7.5 -80.5t5 -108.5q0 -197 -92 -353t-256 -251.5t-380 -108.5l5 -80q174 11 321 73.5t255 168t167.5 245.5t59.5 306q0 81 -8.5 140t-1.5 135q8 86 34.5 181t26.5 198q0 197 -118.5 312.5t-318.5 115.5z
M887 1439q-31 0 -63 -29t-32 -56q0 -17 12 -28t29 -11q31 0 63 29t32 56q0 16 -12 27.5t-29 11.5zM1187 1569q-31 0 -63 -29t-32 -56q0 -17 12 -28t29 -11q31 0 63 29t32 56q0 16 -12 27.5t-29 11.5zM1648 1694q-36 0 -56.5 -12.5t-20.5 -34.5t20.5 -34.5t56.5 -12.5
t56.5 12.5t20.5 34.5t-20.5 34.5t-56.5 12.5zM1237 1209q-31 0 -63 -29t-32 -56q0 -17 12 -28t29 -11q31 0 63 29t32 56q0 16 -12 27.5t-29 11.5zM1603 1344q-27 0 -57 -32.5t-30 -62.5q0 -17 11.5 -28t27.5 -11q27 0 57 32.5t30 62.5q0 16 -11 27.5t-28 11.5zM811 1214
q-12 0 -35.5 -21.5t-48.5 -56t-43 -73t-18 -72.5v-60q-12 15 -27.5 31.5t-32.5 26.5q-25 15 -56 24.5t-72 29.5q-27 13 -42 28.5t-29 15.5q-22 0 -26.5 -26.5t-4.5 -51.5q0 -93 34 -203.5t93.5 -220.5t134.5 -199q-67 -65 -101.5 -144.5t-34.5 -166.5q0 -38 4 -73.5t6 -44.5
q2 -8 19.5 -22t40 -25.5t39.5 -11.5q23 0 28 5t6 13q2 19 0 51.5t-2 66.5q0 77 33 140t101 79q119 -96 255.5 -147.5t281.5 -51.5q53 0 108 4t93 14.5t38 29.5t-27.5 51t-67.5 66t-80.5 61t-67.5 38q23 7 64.5 33t85 60t73.5 64.5t30 47.5q0 29 -36 51.5t-91.5 35
t-113.5 12.5q-16 0 -31 -1t-29 -4q21 46 34.5 119.5t13.5 134.5q0 25 -2 45.5t-12 28.5q-24 18 -72 18q-46 0 -100.5 -13t-101 -30.5t-68.5 -32.5q0 85 -27 159.5t-60.5 121t-55.5 46.5zM1923 1441q-24 0 -45.5 -31.5t-21.5 -68.5q0 -21 11.5 -34.5t27.5 -13.5
q24 0 45.5 31.5t21.5 68.5q0 21 -11 34.5t-28 13.5zM1561 918q-25 0 -52.5 -33.5t-27.5 -66.5q0 -19 11 -30.5t27 -11.5q26 0 53 33.5t27 66.5q0 19 -10.5 30.5t-27.5 11.5zM1887 972q-23 0 -40 -27.5t-17 -65.5q0 -26 12 -41.5t31 -15.5q23 0 40 27.5t17 65.5
q0 26 -11.5 41.5t-31.5 15.5zM1734 544q-28 0 -57.5 -31.5t-29.5 -62.5q0 -17 11.5 -28.5t27.5 -11.5q28 0 57.5 31.5t29.5 62.5q0 16 -11 28t-28 12z" />
</svg>