<?xml version="1.0" standalone="no"?>
<!DOCTYPE svg PUBLIC "-//W3C//DTD SVG 1.1//EN" "http://www.w3.org/Graphics/SVG/1.1/DTD/svg11.dtd">
<svg xmlns="http://www.w3.org/2000/svg" xmlns:xlink="http://www.w3.org/1999/xlink" version="1.1"
   viewBox="94 -151 2414 2169">
   <path fill="currentColor"
      d="M1654 1058q73 0 150 -21t151 -59q62 -32 119 -80t108 -106q80 -92 124 -211t44 -237q0 -97 -30 -177t-86 -135q-66 -65 -148 -99.5t-174 -34.5q-137 0 -265 59t-229 159.5t-160 227.5t-59 264q0 82 33.5 165t91.5 145q65 69 148.5 104.5t181.5 35.5zM430 1964
q14 14 29 14q16 0 27.5 -11.5t11.5 -29.5q0 -20 -16 -40l349 -353q8 3 16 3q17 0 26 -10.5t9 -27.5q0 -32 -23 -65t-55.5 -55.5t-61.5 -22.5q-16 0 -28.5 9t-12.5 25q0 10 6 19l-352 357q-15 -15 -34 -15q-16 0 -28 12t-12 27q0 14 11 25zM760 1543l564 -568l-53 -53
l-563 569zM1285 1075l126 -125l-121 -118l-124 120zM1728 1041l42 -42l-512 -533l-30 54zM1989 927l42 -42l-657 -658l-42 42zM1559 1024l758 -751l-43 -42l-757 751zM1654 984q-77 0 -146 -29.5t-132 -89.5q-46 -44 -74 -113.5t-28 -140.5q0 -121 53.5 -235t144 -205.5
t205 -145t235.5 -53.5q77 0 146 29t125 84q45 43 68.5 110.5t23.5 147.5q0 106 -40.5 213t-111.5 189q-44 51 -95.5 95t-109.5 73q-73 36 -138.5 53.5t-125.5 17.5zM1268 705l745 -735l-42 -42l-745 735zM1378 906l846 -826l-42 -42l-847 826zM2167 742l42 -42l-656 -649
l-42 42zM2281 505l42 -42l-538 -529l-42 42zM250 231q0 -67 48 -113.5t115 -47.5l531 -10q62 -2 103.5 41t41.5 101q0 33 -15 60.5t-38 49.5l-332 316q-37 34 -68.5 49.5t-67.5 15.5q-47 0 -88.5 -32t-58.5 -81q-58 -10 -96.5 -55.5t-38.5 -105.5q0 -35 15 -68
q-51 -53 -51 -120zM310 231q0 46 34 78l459 -117q3 -37 26 -70l-416 8q-43 1 -73 30t-30 71zM346 419q0 38 21.5 63t59.5 34l387 -259l-3 -8l-450 115q-15 33 -15 55zM475 554q11 33 36.5 56t56.5 23q23 0 44 -11t52 -39l256 -240q-20 -5 -38.5 -14.5t-33.5 -23.5zM858 202
q0 36 26 62t62 26t62 -26t26 -62q0 -35 -26.5 -61t-61.5 -26t-61.5 26t-26.5 61z" />
</svg>