<?xml version="1.0" standalone="no"?>
<!DOCTYPE svg PUBLIC "-//W3C//DTD SVG 1.1//EN" "http://www.w3.org/Graphics/SVG/1.1/DTD/svg11.dtd">
<svg xmlns="http://www.w3.org/2000/svg" xmlns:xlink="http://www.w3.org/1999/xlink" version="1.1"
   viewBox="94 -151 2414 2169">
   <path fill="currentColor"
      d="M925 1978q-92 0 -178 -36l25 -195l-176 94q-64 -65 -99.5 -150.5t-35.5 -176.5q0 -148 87 -269q-105 -23 -188 -88t-131.5 -160t-48.5 -206v-16t1 -16l180 -43l-130 -134q60 -118 172 -186t242 -68q102 0 198 45q-2 -15 -3 -30.5t-1 -31.5q0 -95 44.5 -179t123.5 -145.5
t181 -88.5l112 179l112 -179q103 27 181.5 88.5t123 145.5t44.5 179q0 16 -1 31.5t-3 30.5q96 -45 198 -45q131 0 242.5 68t171.5 186l-130 134l180 43q1 8 1 16v16q0 111 -48 206t-131.5 160t-188.5 88q87 121 87 269q0 91 -35 176.5t-100 150.5l-176 -94l25 195
q-85 36 -178 36q-112 0 -211 -51.5t-164 -139.5q-64 88 -163.5 139.5t-211.5 51.5zM1129 1077q22 0 38 -16t16 -38t-16 -38t-38 -16t-38 16t-16 38t16 38t38 16zM1300 1201q23 0 39.5 -16.5t16.5 -39.5t-16.5 -39.5t-39.5 -16.5t-39.5 16.5t-16.5 39.5t16.5 39.5t39.5 16.5z
M1300 1377q-49 -138 -145.5 -209.5t-215.5 -76.5q58 -57 91.5 -134.5t33.5 -165.5q0 -77 -26 -147q54 43 121 67t141 24t141 -24t121 -67q-26 70 -26 147q0 88 33.5 165.5t91.5 134.5q-119 5 -215 76.5t-146 209.5zM1300 1051l80 -64l-40 -81h-80l-40 81zM925 1898
q118 0 212 -65t163 -186q70 122 164.5 186.5t210.5 64.5q43 0 90 -11l-35 -282l255 135q74 -98 74 -226q0 -87 -32 -169t-92 -148q106 -6 194.5 -57t145 -134t64.5 -184l-256 -60l186 -192q-54 -76 -137 -119t-177 -43q-78 0 -149 22.5t-142 70.5q11 -59 14 -102.5t3 -87.5
q0 -99 -64 -185t-171 -132l-146 235l-146 -235q-106 46 -170.5 132t-64.5 185q0 44 3 87.5t14 102.5q-70 -48 -141.5 -70.5t-149.5 -22.5q-94 0 -177 43t-137 119l186 192l-256 60q9 101 65 184t144.5 134t194.5 57q-60 66 -92 148t-32 169q0 128 74 226l255 -135l-35 282
q47 11 90 11zM1201 883q22 0 38 -16t16 -38q0 -23 -16 -38.5t-38 -15.5t-38 15.5t-16 38.5q0 22 16 38t38 16zM1471 1077q22 0 38 -16t16 -38t-16 -38t-38 -16t-38 16t-16 38t16 38t38 16zM1399 883q23 0 39 -16t16 -38q0 -23 -16 -38.5t-39 -15.5q-22 0 -37.5 15.5
t-15.5 38.5q0 22 15.5 38t37.5 16z" />
</svg>