<?xml version="1.0" standalone="no"?>
<!DOCTYPE svg PUBLIC "-//W3C//DTD SVG 1.1//EN" "http://www.w3.org/Graphics/SVG/1.1/DTD/svg11.dtd">
<svg xmlns="http://www.w3.org/2000/svg" xmlns:xlink="http://www.w3.org/1999/xlink" version="1.1"
   viewBox="94 -151 2414 2169">
   <path fill="currentColor"
      d="M416 1978q-72 0 -114 -41.5t-42 -112.5v-1771q0 -72 41.5 -113.5t113.5 -41.5h1770q72 0 113.5 41.5t41.5 113.5v1770q0 72 -41.5 113.5t-113.5 41.5h-1769zM1160 1937v-70l193 -187h72zM1106 1938v-539h100v539h-100zM546 1399v-632h60v632h-60zM1440 1937l-265 -257h72
l193 187v70zM416 1898h1769q30 0 52.5 -22.5t22.5 -52.5v-384h-1920v385q0 30 22.5 52t53.5 22zM300 1749v-161q79 0 148.5 20t127.5 58q76 -24 192 -42t255.5 -28t286.5 -10q183 0 345.5 10.5t289.5 29t201 42.5q27 -16 64.5 -22.5t89.5 -6.5v110h-2000zM706 1229v-272h50
v272h-50zM1162 1653v-70l191 -184h72zM1394 1938v-539h100v539h-100zM1438 1653l-263 -254h72l191 184v70zM860 1399v-872h60v872h-60zM340 1359h1920v-100h-1920v100zM429 462q-31 0 -31 -31t31 -31t31 31t-31 31zM990 1229v-482h50v482h-50zM300 1208v-63
q156 -58 313.5 -149.5t299 -204.5t251.5 -234.5t171 -239.5h61q-61 132 -175 263.5t-262.5 251t-317.5 216.5t-341 160zM690 522q-3 0 -5 -9l-8 -48l-36 -13q-15 -5 -15 -11q0 -4 8 -7l42 -19v-34q0 -25 6 -25t20 16l22 24l42 -11q11 -3 14 1t-6 18l-19 32l22 37q5 10 5 12
q0 7 -14 4l-41 -8l-26 32q-7 9 -11 9zM611 240q-28 0 -28 -29q0 -28 28 -28t28 28q0 29 -28 29zM1300 945q21 0 44 -2.5t41 -6.5v-224q-20 -5 -42.5 -7t-42.5 -2q-19 0 -42 2t-43 7v224q18 4 41 6.5t44 2.5zM1560 1229v-482h50v482h-50zM1115 1229v-614h29v-296
q-76 103 -207.5 217t-296.5 222t-340 193v-67q150 -75 290 -165t255.5 -184t194 -182t105.5 -158q0 -20 9.5 -31t26.5 -11h8q17 0 26.5 9.5t9.5 26.5v80q10 12 31.5 19.5t43.5 7.5q23 0 44 -7.5t31 -19.5v-80q0 -17 9.5 -26.5t26.5 -9.5h8q17 0 26.5 11t9.5 31
q27 70 105.5 158t194 182t255.5 184t290 165v67q-175 -85 -339.5 -193t-296.5 -222t-208 -217v296h29v614h-100v-201h-170v201h-100zM858 218q-22 0 -22 -22q0 -21 22 -21q21 0 21 21q0 22 -21 22zM340 1199h1920v-1146q0 -30 -22.5 -52.5t-52.5 -22.5h-1760
q-30 0 -57.5 22.5t-27.5 52.5v1146zM1680 1399v-872h60v872h-60zM1844 1229v-272h50v272h-50zM1300 617q17 0 37.5 -1.5t38.5 -5.5v-253h-152v253q19 4 39 5.5t37 1.5zM1994 1399v-632h60v632h-60zM2300 1208q-172 -63 -341 -160t-317.5 -216.5t-262 -251t-175.5 -263.5h61
q62 118 171.5 239.5t251 234.5t299 204.5t313.5 149.5v63zM1853 482q-26 0 -26 -26t26 -26t26 26t-26 26zM1707 285q-24 0 -24 -24q0 -23 24 -23q23 0 23 23q0 24 -23 24zM1873 250q-5 0 -4 -9l9 -49l-29 -25q-12 -9 -12 -14t12 -6l45 -3l12 -31q9 -22 14 -22t14 22l12 31
l45 3q12 1 12 6t-12 14l-29 25l9 49q1 9 -4 9q-4 0 -11 -5l-36 -21l-36 21q-7 5 -11 5zM2204 337q-25 0 -25 -26q0 -25 25 -25t25 25q0 26 -25 26z" />
</svg>