<?xml version="1.0" standalone="no"?>
<!DOCTYPE svg PUBLIC "-//W3C//DTD SVG 1.1//EN" "http://www.w3.org/Graphics/SVG/1.1/DTD/svg11.dtd">
<svg xmlns="http://www.w3.org/2000/svg" xmlns:xlink="http://www.w3.org/1999/xlink" version="1.1"
   viewBox="94 -151 2414 2169">
   <path fill="currentColor"
      d="M1757 1978q-71 -215 -152.5 -423.5t-162.5 -406.5q-37 -92 -77 -183.5t-77 -173.5l81 -17q98 220 203.5 479.5t196.5 515.5l154 -341l237 71q-37 -92 -96 -201t-132.5 -214t-154.5 -185l78 -35q77 79 146.5 176t126 199t95.5 197.5t55 171.5l-311 -68zM844 1978
l-211 -438l-311 68q16 -76 55 -171.5t96 -197.5t126.5 -199t146.5 -176l78 35q-81 80 -154.5 185t-132.5 214t-97 201l237 -51l155 321q91 -256 197 -515.5t203 -479.5l80 17q-36 82 -75.5 173.5t-77.5 183.5q-80 198 -162 406.5t-153 423.5zM425 732q6 -60 53.5 -94
t130.5 -47t198 -12.5t257 9.5l-8 80q-180 -12 -297.5 -10t-179 19.5t-72.5 54.5h-82zM439 980q-124 0 -193 -143.5t-69 -396.5q0 -292 58.5 -417t191.5 -125q120 0 247.5 37t245 103t206.5 155l-56 58q-81 -81 -189.5 -142.5t-226.5 -96t-227 -34.5q-92 0 -131 104.5
t-39 357.5q0 209 49.5 334.5t132.5 125.5q90 0 179.5 -17t206 -58.5t286.5 -114.5l32 74q-174 75 -296 118t-217.5 60.5t-190.5 17.5zM1300 819q-157 0 -225 -68.5t-68 -227.5q0 -163 25.5 -252t89 -124t178.5 -35q116 0 179.5 35t88.5 124t25 252q0 159 -67.5 227.5
t-225.5 68.5zM1300 739q124 0 168.5 -45t44.5 -171q0 -141 -15.5 -212t-61.5 -95t-136 -24t-135.5 24t-61.5 95t-16 212q0 126 45 171t168 45zM2093 732q-11 -37 -72.5 -54.5t-178.5 -19.5t-297 10l-8 -80q142 -9 257 -9.5t198 12.5t130 47t53 94h-82zM2161 980
q-95 0 -190 -17.5t-217 -60.5t-297 -118l32 -74q171 73 287.5 114.5t205.5 58.5t179 17q84 0 133 -125.5t49 -334.5q0 -253 -38.5 -357.5t-131.5 -104.5q-109 0 -226.5 34.5t-226 96t-190.5 142.5l-56 -58q89 -89 206.5 -155t245.5 -103t247 -37q134 0 192 125t58 417
q0 253 -69 396.5t-193 143.5z" />
</svg>