<?xml version="1.0" standalone="no"?>
<!DOCTYPE svg PUBLIC "-//W3C//DTD SVG 1.1//EN" "http://www.w3.org/Graphics/SVG/1.1/DTD/svg11.dtd">
<svg xmlns="http://www.w3.org/2000/svg" xmlns:xlink="http://www.w3.org/1999/xlink" version="1.1"
   viewBox="94 -151 2414 2169">
   <path fill="currentColor"
      d="M604 1978q-62 -4 -123 -36t-111 -82.5t-80 -110t-30 -117.5l1009 -1115l56 59l-981 1084q9 49 45 98t86.5 86t102.5 50l1074 -970l58 56zM1263 1056q-32 0 -55.5 -23.5t-23.5 -55.5t23.5 -55.5t55.5 -23.5t55 23.5t23 55.5t-23 55.5t-55 23.5zM1679 998q-19 0 -56.5 -23
t-86 -63t-103.5 -90q-51 -47 -97 -95.5t-75.5 -88t-29.5 -58.5q0 -17 10 -30l113 -149q46 100 131 194t189.5 167.5t207.5 110.5l-166 113q-19 12 -37 12zM1763 907q-131 0 -228.5 -53.5t-151 -151t-53.5 -228.5q0 -114 38.5 -217.5t109 -184.5t165.5 -127.5t207 -46.5
q98 0 188 37t159 106t106 158t37 187q0 114 -46.5 209.5t-127.5 165.5t-185 108t-218 38zM1764 828q131 0 244 -56.5t182.5 -156t69.5 -227.5q0 -83 -30.5 -159t-88.5 -132q-58 -57 -133 -88t-157 -31q-130 0 -229.5 70t-155.5 183t-56 243q0 166 94 260t260 94zM2147 725
q-77 -43 -170.5 -115.5t-187.5 -159t-173.5 -174.5t-128.5 -161l62 -51q47 71 126 158.5t172.5 173.5t185.5 157t165 109z" />
</svg>