<?xml version="1.0" standalone="no"?>
<!DOCTYPE svg PUBLIC "-//W3C//DTD SVG 1.1//EN" "http://www.w3.org/Graphics/SVG/1.1/DTD/svg11.dtd">
<svg xmlns="http://www.w3.org/2000/svg" xmlns:xlink="http://www.w3.org/1999/xlink" version="1.1"
   viewBox="94 -151 2414 2169">
   <path fill="currentColor"
      d="M1324 1978q-215 0 -395 -74.5t-312 -209.5t-204.5 -318.5t-72.5 -402.5q0 -173 46.5 -332.5t129.5 -294.5t194.5 -235.5t243 -156.5t273.5 -56q71 0 93 47.5t-19 91.5q-63 66 -111 154t-75.5 181t-27.5 174q0 149 73.5 244.5t205.5 124.5q58 13 85 41t27 74
q0 49 -27.5 82.5t-55 54t-27.5 29.5t9 14.5t21 8.5q11 3 24.5 10t22.5 15q23 18 30 52q2 11 10 22q26 35 128 58t242 23q83 0 156.5 -13t140.5 -39q33 -13 63 2t42 47t-11 71q-149 255 -382 383t-540 128zM856 1004q-44 0 -61 -24t-17 -52q0 -18 -11 -18q-13 0 -24.5 17
t-23.5 51l-48 -11q15 -80 56.5 -123t102.5 -43q50 0 81.5 30t31.5 79q0 41 -23.5 67.5t-63.5 26.5zM1278 1425q-103 0 -202 -54l38 -70q82 44 164 44q31 0 61 -15t61 -46l57 56q-87 85 -179 85zM1324 1898q287 0 499.5 -117.5t348.5 -335.5q5 -7 -1 -13.5t-15 -2.5
q-35 16 -83 27.5t-103 17t-115 5.5q-163 0 -279 -30t-157 -87q-10 -14 -21 -46q-2 -8 -7 -12q-5 -6 -13 -7q-38 -8 -64 -37.5t-26 -63.5q0 -32 28 -54.5t56 -45.5t28 -58q0 -19 -12 -29t-39 -16q-160 -35 -251 -152.5t-91 -294.5q0 -91 30.5 -194t80.5 -195.5t109 -151.5
q11 -11 7.5 -19t-15.5 -8q-122 0 -239 52t-218 145t-178 218t-120.5 272.5t-43.5 307.5q0 202 66.5 371.5t187.5 293.5t286.5 192t363.5 68z" />
</svg>