<?xml version="1.0" standalone="no"?>
<!DOCTYPE svg PUBLIC "-//W3C//DTD SVG 1.1//EN" "http://www.w3.org/Graphics/SVG/1.1/DTD/svg11.dtd">
<svg xmlns="http://www.w3.org/2000/svg" xmlns:xlink="http://www.w3.org/1999/xlink" version="1.1"
   viewBox="94 -151 2414 2169">
   <path fill="currentColor"
      d="M1021 1978l-84 -412l-397 132l132 -397l-411 -84l313 -279l-313 -279l411 -84l-132 -397l397 132l84 -412l279 316l279 -316l84 412l397 -132l-132 397l411 84l-313 279l313 279l-411 84l132 397l-397 -132l-84 412l-279 -314zM1300 1265q-140 0 -242 -83l50 -59
q81 66 192 66t192 -66l50 59q-102 83 -242 83zM1016 872q-32 0 -54.5 -28.5t-22.5 -69.5t23 -69t54 -28q32 0 54.5 28t22.5 69t-22.5 69.5t-54.5 28.5zM1300 1616q141 0 263.5 -52.5t216 -146t146 -216t52.5 -263.5t-52.5 -263.5t-146 -216t-216 -146t-263.5 -52.5
t-263.5 52.5t-216 146t-146 216t-52.5 263.5t52.5 263.5t146 216t216 146t263.5 52.5zM1297 1077q-30 0 -74 -15l27 -70q27 9 47 9q17 0 25.5 -8.5t8.5 -23.5q0 -40 -19.5 -73.5t-39.5 -70t-20 -84.5q0 -39 19.5 -74t50.5 -54l36 68q-12 6 -20 24.5t-8 35.5q0 16 7 34t26 53
q15 27 29.5 62t14.5 79q0 47 -30.5 77.5t-79.5 30.5zM1584 872q-32 0 -54.5 -28.5t-22.5 -69.5t23 -69t54 -28q32 0 54.5 28t22.5 69t-22.5 69.5t-54.5 28.5z" />
</svg>