<?xml version="1.0" standalone="no"?>
<!DOCTYPE svg PUBLIC "-//W3C//DTD SVG 1.1//EN" "http://www.w3.org/Graphics/SVG/1.1/DTD/svg11.dtd">
<svg xmlns="http://www.w3.org/2000/svg" xmlns:xlink="http://www.w3.org/1999/xlink" version="1.1"
   viewBox="94 -151 2414 2169">
   <path fill="currentColor"
      d="M1300 1902q-170 0 -298.5 -45.5t-201.5 -135.5t-78 -223l-24 -695q0 -90 104 -157.5t274 -96.5l55 70q-108 17 -187 47t-122.5 65.5t-43.5 70.5q0 51 75.5 93.5t195 67.5t251.5 25t251.5 -25t195 -67.5t75.5 -93.5q0 -50 -73.5 -93.5t-192.5 -70.5t-256 -27h-49.5
t-48.5 2v-79q48 -3 98 -3q169 0 305 36.5t216.5 98t80.5 137.5l-24 695q-4 133 -77.5 223t-202 135.5t-298.5 45.5zM1300 1978q-154 0 -240 -32t-90 -69l-4 -43l335 30l333 -30l-4 43q-4 37 -89.5 69t-240.5 32zM1115 1628q-66 -14 -102.5 -60t-39.5 -119l-8 -187
q-2 -36 33 -36q33 0 35 34l8 187q5 100 82 118q30 7 30 32q0 15 -11.5 24.5t-26.5 6.5zM1300 1824q238 0 365.5 -87t132.5 -241l19 -554q-78 58 -214 92t-303 34t-303 -34t-214 -92l19 554q5 154 132.5 241t365.5 87zM1300 1030l-467 -80q0 -32 40.5 -62.5t109 -55.5
t152 -40t169.5 -15q114 0 220 25.5t174.5 65t68.5 82.5zM1265 685q-86 0 -150 -28.5t-99.5 -79.5t-35.5 -118q0 -84 58.5 -154.5t172.5 -127.5l70 -35q92 -46 136 -84.5t44 -74.5q0 -20 -11.5 -43t-31.5 -42q86 0 150 28.5t99.5 79.5t35.5 118q0 84 -58.5 154.5
t-172.5 127.5l-70 35q-92 46 -136 84.5t-44 74.5q0 19 12 42t31 43zM1158 635q-16 -19 -16 -47q0 -56 53 -107.5t174 -112.5l70 -35q91 -46 137.5 -98.5t46.5 -110.5q0 -52 -33 -92.5t-80 -47.5l15 -36q16 19 16 47q0 56 -53 107.5t-174 112.5l-70 35q-91 46 -137.5 98
t-46.5 111q0 52 33 92.5t80 47.5z" />
</svg>