<?xml version="1.0" standalone="no"?>
<!DOCTYPE svg PUBLIC "-//W3C//DTD SVG 1.1//EN" "http://www.w3.org/Graphics/SVG/1.1/DTD/svg11.dtd">
<svg xmlns="http://www.w3.org/2000/svg" xmlns:xlink="http://www.w3.org/1999/xlink" version="1.1"
   viewBox="94 -151 2414 2169">
   <path fill="currentColor"
      d="M397 1978q-46 0 -74.5 -26t-28.5 -72q0 -27 10.5 -65.5t35.5 -96.5l379 -899l73 30l-378 899q-18 43 -27 70.5t-9 44.5q0 13 6 24t27 11q23 0 69 -17t96 -37l787 -322l106 44l-864 353q-79 32 -127 45.5t-81 13.5zM708 1832q-92 -42 -160.5 -106.5t-103.5 -144.5l43 -93
q38 103 122.5 182t198.5 118zM985 1720q-97 -23 -184 -81.5t-149 -141t-86 -175.5l49 -108q18 118 87.5 216t174.5 161t227 75zM1319 1594q-129 0 -243 -48t-201 -132.5t-137 -194.5t-50 -234q0 -158 80 -245t223 -87q119 0 230.5 55t201.5 149t142.5 211t52.5 240
q0 139 -76.5 212.5t-222.5 73.5zM1319 1514q113 0 166 -50t53 -156q0 -107 -46.5 -209t-125 -185t-176 -132t-198.5 -49q-109 0 -166 64t-57 188q0 108 44 203.5t120.5 168.5t175.5 115t210 42zM455 418q-40 -15 -74.5 -35.5t-66.5 -46.5l58 -60q23 15 47 29.5t54 29.5z
M727 640l-137 -71l54 -79l117 73zM1883 1794l-90 -15q-1 -24 -9.5 -50t-22.5 -51l70 -56q23 37 36.5 80.5t15.5 91.5zM2229 1910l-103 -97l62 -64l103 103zM617 192l-88 -29q16 -60 9 -114l90 -14q7 78 -11 157zM2288 1595l-119 -8l-3 -89l135 9zM1804 1121l-76 -88l72 -62
l76 86zM1940 845l-38 -120l82 -26l35 124zM1523 234l-28 -138l87 -18l25 140zM1797 68l-64 -65q22 -24 36.5 -50.5t20.5 -54.5l84 14q-9 43 -28.5 81t-48.5 75zM972 1130l-57 -56q59 -62 89 -124t30 -124q0 -31 -6 -71t-18 -82q-26 -89 -26 -155q0 -70 33.5 -129t89.5 -95
t121 -36q78 0 130 51.5t52 129.5q0 79 -56.5 126.5t-150.5 47.5q-87 0 -158 -42t-112.5 -114t-41.5 -161q0 -143 104 -237.5t285 -105.5l5 80q-148 9 -231 80t-83 183q0 67 30 120.5t82.5 85t119.5 31.5q59 0 93 -24.5t34 -69.5q0 -44 -28.5 -72.5t-73.5 -28.5
q-64 0 -114 54.5t-50 125.5q0 22 5.5 53.5t18.5 83.5q12 48 19 92t7 79q0 154 -142 304zM1190 1161q0 -121 66 -189.5t215 -108.5q88 -23 115 -41.5t27 -55.5q0 -18 -5 -34t-22 -47q-40 -73 -40 -132q0 -78 48.5 -126t124.5 -48q44 0 88.5 18.5t106.5 64.5q56 41 91 56.5
t67 15.5q56 0 81 -40t25 -122q0 -80 -26.5 -153t-87.5 -157l64 -48q68 94 99 180.5t31 177.5q0 116 -48.5 179t-137.5 63q-46 0 -93 -20t-112 -67q-55 -41 -86.5 -54.5t-61.5 -13.5q-44 0 -68.5 23.5t-24.5 70.5q0 19 6.5 39.5t24.5 54.5q20 37 28 63.5t8 55.5
q0 66 -44.5 105.5t-157.5 68.5q-127 33 -174 79.5t-47 141.5h-80zM1881 1478q-51 0 -97 -24t-110 -79q-49 -44 -75.5 -58.5t-52.5 -14.5q-16 0 -33.5 5.5t-49.5 22.5q-60 31 -108.5 43t-102.5 12q-25 0 -54 -3t-62 -10l16 -79q59 12 104 12q44 0 82.5 -11t89.5 -36
q40 -20 66.5 -28t51.5 -8q40 0 80.5 21t99.5 72q56 48 89 65.5t66 17.5q47 0 70 -34.5t47 -139.5q38 -163 107.5 -233.5t200.5 -70.5v80q-69 0 -112 21.5t-69.5 74t-48.5 146.5q-31 133 -75 184.5t-120 51.5z" />
</svg>