<?xml version="1.0" standalone="no"?>
<!DOCTYPE svg PUBLIC "-//W3C//DTD SVG 1.1//EN" "http://www.w3.org/Graphics/SVG/1.1/DTD/svg11.dtd">
<svg xmlns="http://www.w3.org/2000/svg" xmlns:xlink="http://www.w3.org/1999/xlink" version="1.1"
   viewBox="94 -151 2414 2169">
   <path fill="currentColor"
      d="M264 1978v-228h80v-148h60q2 -31 11.5 -62.5t22.5 -53.5v-391q-17 -31 -26.5 -70.5t-9.5 -83.5v-90h1796v90q0 44 -9.5 83.5t-26.5 70.5v391q13 22 23 53.5t11 62.5h60v148h80v228h-2072zM491 1521v-60h629v60h-629zM481 1648h302q0 -47 -8.5 -79.5t-28.5 -47.5v-463
q20 -15 28.5 -48t8.5 -79h-301q0 46 8.5 79.5t27.5 47.5v463q-19 14 -28 47.5t-9 79.5zM344 1908h1912v-70h-1912v70zM424 1778h1752v-70h-1752v70zM402 899v-240h80v240h-80zM830 1648h301q0 -47 -8.5 -79.5t-28.5 -47.5v-463q20 -15 28.5 -48t8.5 -79h-301q0 46 8.5 79.5
t27.5 47.5v463q-19 14 -27.5 47.5t-8.5 79.5zM491 1108v-60h630v60h-630zM1275 1671v-335h50v335h-50zM1195 1638h210v-382h-210v382zM1480 1521v-60h629v60h-629zM1469 1648h301q0 -46 -8.5 -79.5t-27.5 -47.5v-463q19 -14 27.5 -47.5t8.5 -79.5h-301q0 46 9 79t28 48v463
q-19 15 -28 47.5t-9 79.5zM1817 1648h302q0 -46 -9 -79.5t-28 -47.5v-463q19 -14 27.5 -47.5t8.5 -79.5h-301q0 46 9 79t28 48v463q-19 15 -28 47.5t-9 79.5zM1479 1108v-60h630v60h-630zM1265 776v-59q-33 -2 -63.5 -9t-56.5 -20v-94q34 15 70 27t72 12q38 0 53.5 -14
t15.5 -36q0 -27 -27 -44t-66 -34q-33 -15 -73 -46.5t-40 -95.5q0 -54 30.5 -88t84.5 -44v-64h80v62q27 3 53.5 11t54.5 21l-33 78q-33 -14 -59 -21t-53 -7q-59 0 -59 48q0 25 22.5 40t67.5 36q54 25 85 56t31 87q0 50 -28.5 84t-81.5 48v66h-80zM1300 880
q-117 0 -213.5 -57.5t-154 -154t-57.5 -213.5t57.5 -213.5t154 -153.5t213.5 -57t213.5 57t153.5 153.5t57 213.5t-57 213.5t-153.5 154t-213.5 57.5zM1300 800q95 0 173 -46.5t124.5 -125t46.5 -173.5t-46.5 -173t-124.5 -124.5t-173 -46.5t-173.5 46.5t-125 124.5
t-46.5 173t46.5 173.5t125 125t173.5 46.5zM374 676v-136l926 -642l926 642v136h-635l62 -80h493v-14l-845 -586l-847 586v14h493l62 80h-635zM2118 899v-240h80v240h-80z" />
</svg>