<?xml version="1.0" standalone="no"?>
<!DOCTYPE svg PUBLIC "-//W3C//DTD SVG 1.1//EN" "http://www.w3.org/Graphics/SVG/1.1/DTD/svg11.dtd">
<svg xmlns="http://www.w3.org/2000/svg" xmlns:xlink="http://www.w3.org/1999/xlink" version="1.1"
   viewBox="94 -151 2414 2169">
   <path fill="currentColor"
      d="M1280 1246q-337 0 -547.5 -52t-309 -167t-98.5 -304q0 -174 73.5 -323.5t204 -262.5t304 -176t373.5 -63q204 0 384 65t317.5 179t215.5 263t78 318q0 186 -105 301.5t-325 168.5t-565 53zM1280 1978q-243 0 -371.5 -75.5t-128.5 -217.5q0 -39 9 -94.5t26 -119.5l13 -49
q9 -33 13.5 -70t6.5 -90.5t2 -134.5l80 16q0 84 -2.5 138t-7.5 91t-14 70l-13 49q-16 60 -24.5 110t-8.5 84q0 103 109 158t311 55q203 0 311.5 -55t108.5 -158q0 -34 -8.5 -84t-24.5 -110l-13 -49q-9 -33 -14 -70.5t-7.5 -92t-2.5 -138.5l80 -16q0 85 2 139t7 90t13 68
l13 49q17 64 26 119.5t9 94.5q0 142 -128.5 217.5t-371.5 75.5zM647 953q113 0 182.5 -83t69.5 -203q0 -95 -45 -161t-139 -66q-78 0 -137.5 41t-92.5 109t-33 151q0 94 54.5 153t140.5 59zM685 335q36 0 79 -27t74 -64t31 -68q0 -27 -21.5 -45t-52.5 -18q-42 0 -82 23.5
t-66.5 59.5t-26.5 74q0 28 18.5 46.5t46.5 18.5zM1346 1078q77 0 140.5 -37.5t101 -101.5t37.5 -141t-37.5 -140.5t-101 -101t-140.5 -37.5t-141 37.5t-101.5 101t-37.5 140.5t37.5 141t101.5 101.5t141 37.5zM1257 345q74 0 135 -24.5t97.5 -66t36.5 -91.5q0 -51 -36.5 -92
t-97.5 -65.5t-135 -24.5t-135.5 24.5t-98 65.5t-36.5 92q0 50 36.5 91.5t98 66t135.5 24.5zM2034 934q34 0 57 -25.5t23 -62.5q0 -49 -31.5 -86.5t-71.5 -37.5q-39 0 -63.5 24.5t-24.5 62.5q0 51 33 88t78 37zM1877 612q76 0 121.5 -54.5t45.5 -125.5q0 -66 -39.5 -127
t-101.5 -100.5t-130 -39.5q-78 0 -129 55.5t-51 126.5q0 67 43.5 128t109.5 99t131 38z" />
</svg>