<?xml version="1.0" standalone="no"?>
<!DOCTYPE svg PUBLIC "-//W3C//DTD SVG 1.1//EN" "http://www.w3.org/Graphics/SVG/1.1/DTD/svg11.dtd">
<svg xmlns="http://www.w3.org/2000/svg" xmlns:xlink="http://www.w3.org/1999/xlink" version="1.1"
   viewBox="94 -151 2414 2169">
   <path fill="currentColor"
      d="M434 1978q-70 0 -122 -51.5t-52 -121.5v-1733q0 -71 51.5 -122.5t121.5 -51.5h1734q71 0 122 51.5t51 122.5v1733q0 70 -51.5 121.5t-122.5 51.5h-1732zM730 1726q-88 0 -151.5 -14.5t-63.5 -31.5q0 -11 30 -21.5t79 -17t106 -6.5q58 0 106.5 6.5t78.5 17t30 21.5
q0 17 -63.5 31.5t-151.5 14.5zM534 1548q-48 0 -102.5 -1t-108.5 -2v-94q64 6 113 9.5t108 3.5q131 0 240 -14t197 -14q101 0 154 13t53 21t-54.5 21t-147 26t-209.5 22t-243 9zM734 1315q-127 0 -234.5 -6t-197.5 -17l28 -64q82 9 182.5 12t215.5 3h99.5h98.5
q-39 -32 -64.5 -51.5t-39.5 -29.5q-23 -17 -46.5 -35.5t-39.5 -38.5q-14 -18 -20.5 -38.5t-6.5 -42.5v-20q-51 31 -83.5 44t-61 22.5t-67.5 28.5q-29 14 -53 29t-52 29t-68 26l-31 -62q70 -17 103.5 -42.5t76.5 -44.5q37 -17 90.5 -36t80.5 -34t50.5 -22.5t37.5 -7.5
q16 0 58.5 18t98.5 41t114 39q32 9 92.5 18t102.5 19l51 12l30 241q-57 0 -106.5 1.5t-114.5 3.5q-79 3 -161 4t-163 1zM1374 1453q-12 0 -17 -2q-1 -3 -1 -6v-7q0 -22 8 -38t18 -16q7 0 7 11q0 5 -2 13.5t-9 23.5q21 -12 36 -12q10 0 10 6q0 10 -15 18.5t-35 8.5z
M1640 1931q-75 -19 -119 -50t-44 -74t42 -71t106 -28l35 153h177l30 -126q56 4 132.5 11.5t153 15.5t130.5 15l-48 129zM1797 1720q-10 0 -18.5 -17.5t-8.5 -37.5q0 -7 2 -15q29 0 48.5 9t19.5 20q0 6 -12 6q-11 0 -34 -10q10 24 10 34q0 11 -7 11zM1647 1538q-16 0 -16 -8
q0 -6 10.5 -13.5t29.5 -13.5q-17 -3 -28.5 -11t-11.5 -13q0 -8 16 -8q30 0 51 33q-22 34 -51 34zM1435 1256q-19 0 -35 -8.5t-16 -18.5q0 -6 10 -6q8 0 17 2.5t20 11.5q-6 -14 -8.5 -22.5t-2.5 -16.5q0 -10 6 -10q11 0 18.5 15.5t7.5 37.5v7.5v6.5q-4 1 -8 1h-9zM704 605
q-85 0 -145.5 -60.5t-60.5 -145.5t60.5 -145t145.5 -60t145 60t60 145t-60 145.5t-145 60.5zM1500 1283l-17 -168q34 1 59.5 6t52.5 12v150h-95zM434 1898h1732q38 0 66 -28t28 -65v-1733q0 -38 -27.5 -66t-65.5 -28h-1734q-37 0 -65 28t-28 66v1733q0 37 28.5 65t65.5 28z
M1405 1044q-16 0 -16 -8q0 -5 10.5 -11.5t27.5 -13.5q-19 -7 -28.5 -14.5t-9.5 -11.5q0 -8 16 -8q30 0 51 34q-23 33 -51 33zM1791 1284q-29 0 -52 -34q25 -33 52 -33q16 0 16 7q0 5 -10 12.5t-30 15.5q17 4 28.5 11.5t11.5 12.5q0 8 -16 8zM1736 1916q-84 0 -122 -63.5
t-38 -220.5q-98 -10 -179.5 -82.5t-130 -193t-48.5 -272.5q0 -137 47.5 -211.5t122.5 -74.5q56 0 85 54t29 161q0 16 -1.5 55.5t-3 78t-1.5 52.5q0 64 19.5 95.5t59.5 40.5v-107q0 -54 -9 -139t-18.5 -171t-9.5 -141q0 -153 50.5 -239.5t147.5 -86.5q89 0 138.5 77t49.5 213
q0 26 -4.5 85t-10.5 128.5t-10.5 131t-4.5 91.5q14 10 29 10q16 0 31.5 -19t15.5 -46q0 -21 -2 -62t-4 -82.5t-2 -61.5q0 -83 28.5 -131t92.5 -48q70 0 100.5 67t30.5 205q0 132 -34.5 236t-95.5 164t-140 60q-29 0 -44 -6v175q0 146 -40.5 212t-123.5 66zM1736 1858
q56 0 81 -48.5t25 -171.5v-261q46 34 102 34q59 0 108.5 -45t80 -134.5t30.5 -222.5q0 -121 -19.5 -167.5t-60.5 -46.5q-31 0 -51.5 27t-20.5 94q0 14 1 44.5t3 64.5t3 61.5t1 35.5q0 46 -25 81.5t-69 35.5q-23 0 -43.5 -12t-37.5 -31q0 -16 2 -60.5t5.5 -104l7 -119
t5.5 -106t2 -65.5q0 -112 -34 -172t-96 -60q-67 0 -103.5 68.5t-36.5 199.5q0 47 4.5 103.5t10 117t10 119.5t4.5 112v166q-4 1 -8 1.5t-8 0.5q-90 0 -125.5 -58t-35.5 -140q0 -20 1.5 -57l3 -74t1.5 -55q0 -96 -22.5 -126.5t-43.5 -30.5q-49 0 -80.5 60.5t-31.5 167.5
q0 132 43 245t116.5 182.5t166.5 69.5h32v51q0 95 11.5 143.5t34 65.5t56.5 17zM1374 819q-33 -21 -33 -51q0 -17 8 -17q5 0 12.5 11.5t11.5 28.5q8 -20 15.5 -30t11.5 -10q7 0 7 17q0 30 -33 51zM1632 1059q-12 0 -18 -2v-6v-7q0 -22 8 -38t18 -16q6 0 6 11q0 14 -11 39
q11 -9 20.5 -11.5t16.5 -2.5q10 0 10 6q0 10 -15.5 18.5t-34.5 8.5zM2025 1386q-19 0 -35 -8.5t-16 -18.5q0 -6 10 -6q8 0 17 2.5t20 11.5q-6 -14 -8.5 -22.5t-2.5 -16.5q0 -10 6 -10q11 0 18.5 15.5t7.5 37.5v7.5v6.5q-4 1 -8 1h-9zM2266 1554q-63 -3 -106.5 -18t-43.5 -36
q0 -13 30 -24.5t66 -19t54 -7.5v105zM1867 1196l4 -39q25 0 51 1t52 6l-7 32h-100zM2146 1301l26 -91q29 7 62 12.5t62 5.5v73h-150zM2113 1126q-11 0 -17 -2v-6v-7q0 -23 8 -38.5t18 -15.5q6 0 6 11q0 14 -11 39q11 -9 20.5 -11.5t16.5 -2.5q10 0 10 6q0 10 -16 18.5
t-35 8.5zM1776 761h-8.5t-8.5 -1q-2 -10 -2 -16q0 -19 8.5 -35t18.5 -16q7 0 7 11q0 12 -12 37q14 -9 22 -10.5t15 -1.5q10 0 10 5q0 10 -15 18.5t-35 8.5zM1692 472q-37 -22 -37 -50q0 -18 8 -18q7 0 14.5 11t14.5 31q5 -19 13.5 -30.5t14.5 -11.5q9 0 9 18q0 28 -37 50z
M2029 772q-33 -21 -33 -51q0 -16 8 -16q6 0 13 10.5t11 29.5q6 -19 13.5 -29.5t13.5 -10.5q8 0 8 16q0 31 -34 51z" />
</svg>