<?xml version="1.0" standalone="no"?>
<!DOCTYPE svg PUBLIC "-//W3C//DTD SVG 1.1//EN" "http://www.w3.org/Graphics/SVG/1.1/DTD/svg11.dtd">
<svg xmlns="http://www.w3.org/2000/svg" xmlns:xlink="http://www.w3.org/1999/xlink" version="1.1"
   viewBox="94 -151 2414 2169">
   <path fill="currentColor"
      d="M523 983q-73 0 -120.5 -48.5t-47.5 -132.5q0 -199 70.5 -364.5t198.5 -286.5t300 -187t376 -66t376 66t300 187t198.5 286.5t70.5 364.5q0 84 -47 132.5t-121 48.5q-79 0 -124.5 -47t-56.5 -138q-19 -170 -100 -288.5t-208.5 -180t-287.5 -61.5q-159 0 -287 61.5
t-208.5 180t-100.5 288.5q-10 91 -56 138t-125 47zM550 1737q-79 0 -118.5 -53t-39.5 -126q0 -55 25 -102t77 -57q2 30 7.5 78.5t14 101t17.5 95.5t17 63zM884 1946q-60 -66 -106.5 -179t-73 -246t-26.5 -259q0 -54 6 -94t19 -102l79 -8q-13 57 -19 104t-6 100
q0 119 24.5 242t69 236.5t105.5 202.5zM489 1443q-11 -100 -17 -189t-8 -169t-2 -152h79q0 60 1.5 127t5 131.5t7.5 118.5zM904 1904q19 0 36.5 -2t37.5 -5l98 -16q15 -18 24 -65.5t9 -111.5q0 -128 -23.5 -250t-65.5 -221.5t-99 -161.5l-105 18q-77 13 -138 67t-95.5 136.5
t-34.5 181.5q0 129 44.5 225.5t125 150.5t186.5 54zM923 1978q-140 0 -241.5 -60.5t-155.5 -173.5t-54 -270q0 -119 40.5 -216t113 -160.5t168.5 -81.5l91 -17q54 -10 97 27.5t76 105.5t57 151.5t39 166.5t22.5 150.5t7.5 103.5q0 82 -10.5 136t-33 83t-60.5 35l-89 14
q-19 3 -35 4.5t-33 1.5zM1091 1908q-25 0 -56.5 -55.5t-61 -150t-51.5 -210.5q-13 -74 -20 -143.5t-7 -127.5q0 -52 5.5 -93.5t16.5 -66t26 -24.5q25 0 57 56t62.5 150t50.5 209q11 59 18.5 136t7.5 146q0 81 -12.5 127.5t-35.5 46.5zM1509 1908q-23 0 -35.5 -46.5
t-12.5 -127.5q0 -69 8 -146t18 -136q21 -115 51 -209t62 -150t57 -56q16 0 26.5 24.5t16 66t5.5 93.5q0 58 -6.5 127.5t-20.5 143.5q-21 116 -51 210.5t-61 150t-57 55.5zM1716 1946l-72 -3q61 -89 105.5 -202.5t69 -236.5t24.5 -242q0 -53 -5.5 -100t-19.5 -104l79 8
q14 62 19.5 102t5.5 94q0 126 -26.5 259t-72.5 246t-107 179zM1696 1904q107 0 187 -54t124.5 -150.5t44.5 -225.5q0 -99 -34.5 -181.5t-95 -136.5t-138.5 -67l-105 -18q-56 62 -98.5 161.5t-66 221.5t-23.5 250q0 64 9 111.5t24 65.5l98 16q20 3 37.5 5t36.5 2zM1677 1978
q-17 0 -32.5 -1.5t-35.5 -4.5l-89 -14q-37 -6 -60 -35t-33.5 -83t-10.5 -136q0 -36 7.5 -103.5t22.5 -150.5t39 -166.5t57 -151.5t76 -105.5t97 -27.5l91 17q97 18 169 81.5t112.5 160.5t40.5 216q0 157 -54 270t-155 173.5t-242 60.5zM2050 1737q8 -20 17 -63t17.5 -95.5
t14.5 -101t7 -78.5q52 10 77 57t25 102q0 73 -39 126t-119 53zM525 907q50 0 73.5 -29t30.5 -92q16 -140 73.5 -251t147 -188.5t204.5 -118t246 -40.5t246 40.5t204.5 118t147 188.5t73.5 251q8 63 31 92t73 29q48 0 69 -25.5t21 -80.5q0 -179 -63 -329.5t-178 -261
t-273.5 -171.5t-350.5 -61t-350.5 61t-273.5 171.5t-178 261t-63 329.5q0 55 21 80.5t69 25.5zM2111 1443l-66 -133q5 -54 8 -118.5t4.5 -131.5t1.5 -127h79q0 72 -2 152t-8 169t-17 189z" />
</svg>