<?xml version="1.0" standalone="no"?>
<!DOCTYPE svg PUBLIC "-//W3C//DTD SVG 1.1//EN" "http://www.w3.org/Graphics/SVG/1.1/DTD/svg11.dtd">
<svg xmlns="http://www.w3.org/2000/svg" xmlns:xlink="http://www.w3.org/1999/xlink" version="1.1"
   viewBox="94 -151 2414 2169">
   <path fill="currentColor"
      d="M250 1978q-34 0 -54 -20t-20 -54v-1004q0 -32 18 -49t46 -17q12 0 26.5 4.5t29.5 12.5l482 250l50 -212q7 -30 23.5 -42.5t41.5 -12.5q26 0 56 15l591 304v-871h-42v-80h926v80h-44v1696h-2130zM271 1900h539v-679h-554v664q0 15 15 15zM384 1681v-287h298v287h-298z
M454 1611h158v-147h-158v147zM890 1900h650v-679h-650v679zM1066 1682v-287h298v287h-298zM1136 1611h158v-147h-158v147zM372 926v-78h407v78h-407zM786 1178l-92 -740l22 -30q11 -14 12.5 -20.5t1.5 -9.5q0 -8 -5 -14t-13 -6h-293q-9 0 -14.5 5.5t-5.5 13.5q0 5 2 11
t11 18l23 31l-57 467l-76 -37l51 -415q-15 -14 -24.5 -33.5t-9.5 -41.5q0 -41 29 -70t71 -29h293q40 0 69 29t29 71q0 22 -10 41t-24 33l89 716zM392 647v-78h349v78h-349zM1016 926v-78h407v78h-407zM1434 1178l-92 -740l22 -30q11 -14 12.5 -20.5t1.5 -9.5q0 -8 -5 -14
t-13 -6h-293q-9 0 -14.5 5.5t-5.5 13.5q0 5 2 11t11 18l23 31l-57 467l-76 -37l51 -415q-15 -14 -24.5 -33.5t-9.5 -41.5q0 -41 29 -70t71 -29h293q40 0 69 29t29 71q0 22 -10 41t-24 33l89 716zM1046 647v-78h349v78h-349zM371 343q-12 -38 -17 -67.5t-5 -54.5
q0 -288 518 -288q81 0 122 -7.5t66 -15.5q13 -5 26 -8.5t21 -3.5q23 0 39.5 15.5t16.5 38.5q0 50 -49.5 102.5t-133.5 88.5q-39 16 -97 35.5t-90 54.5q-19 21 -30.5 44.5t-16.5 52.5l-79 -12q11 -43 32.5 -83.5t38.5 -58.5q31 -33 68 -50t77.5 -30t82 -32t81.5 -56
q5 -5 3 -8.5t-9 -1.5q-27 6 -68 9.5t-101 3.5q-228 0 -333 53t-105 157q0 40 15 92zM1620 1900h118v-568q0 -25 25 -25h394q25 0 25 25v568h118v-1618h-97v872h-486v-872h-97v1618zM1797 1076h326v-210h-326v210zM1797 788h326v-206h-326v206zM1027 348q-3 -29 -4.5 -49.5
t-1.5 -36.5q0 -158 125.5 -240t365.5 -82q73 0 102.5 -7.5t49.5 -16.5q33 -14 56 -14q26 0 44 14.5t18 37.5q0 51 -46 96.5t-137 95.5q-92 50 -128 82t-44 65l-13 50l-77 -20l12 -50q14 -57 65 -103.5t153 -101.5q21 -11 42.5 -23t41.5 -25q6 -4 5 -9t-9 -4q-39 5 -73.5 8
t-63.5 3q-208 0 -308.5 62.5t-100.5 181.5q0 14 1.5 28.5t3.5 27.5zM1797 504h326v-222h-326v222z" />
</svg>