<?xml version="1.0" standalone="no"?>
<!DOCTYPE svg PUBLIC "-//W3C//DTD SVG 1.1//EN" "http://www.w3.org/Graphics/SVG/1.1/DTD/svg11.dtd">
<svg xmlns="http://www.w3.org/2000/svg" xmlns:xlink="http://www.w3.org/1999/xlink" version="1.1"
   viewBox="94 -151 2414 2169">
   <path fill="currentColor"
      d="M402 1978v-296h93v-1014h-425v-531h503l131 -162q35 -44 60.5 -60.5t59.5 -16.5t59.5 16.5t60.5 60.5l131 162h1079l324 307q52 50 52 111q0 50 -34.5 81.5t-89.5 31.5h-1279v1014h96v296h-821zM707 1761l104 -112l104 112h-208zM655 1704v-217l99 109zM967 1704
l-99 -108l99 -109v217zM811 1543l-104 -113h208zM191 958q-59 0 -59 -59v-266h265v266q0 59 -59 59h-147zM707 1343l104 -112l104 112h-208zM655 1286v-217l99 109zM967 1286l-99 -108l99 -109v217zM811 1125l-104 -113h208zM235 468v-173h135zM707 925l104 -112l104 112
h-208zM655 868v-217l99 109zM299 508l116 -149l116 149h-232zM587 455l-126 -160h126v160zM967 868l-99 -108l99 -109v217zM811 707l-104 -113h208zM1411 1752v-85h83v-100h-84v-85h964v85h-84v100h83v85h-962zM1564 1682h656v-130h-656v130zM1707 1844q-15 0 -25 -10
t-10 -26v-318l220 -194l220 194v318q0 16 -10 26t-25 10t-25 -10t-10 -26v-291l-150 -127l-150 127v291q0 16 -10 26t-25 10zM472 1908h681v-156h-96v-1154h1349q27 0 40.5 -11t13.5 -32q0 -30 -20 -50l-314 -298h-1084l-157 -193q-22 -28 -35 -37t-26 -9t-25.5 9t-35.5 37
l-157 193h-466v391h425v1154h-93v156zM667 469v-174h242zM1166 1023q-13 0 -37 -1t-37 -3v-382h340q3 23 4.5 43t1.5 37q0 89 -35.5 158t-96.5 108.5t-140 39.5zM741 508l250 -180v180h-250zM1274 921q47 -33 70.5 -87t23.5 -111h-184v111zM1892 1432q-55 0 -90 -34.5
t-35 -84.5q0 -56 49 -105l41 -41v-78h70v108q-38 25 -61.5 56t-23.5 55q0 26 14.5 44t43.5 18q18 0 32.5 -11.5t18.5 -35.5q5 -29 28 -29q25 0 25 41q0 40 -32.5 68.5t-79.5 28.5zM707 210l117 -141l117 141h-234zM1076 508v-167l146 167h-146zM1757 1115v-276h270v276h-270
zM1827 1045h130v-136h-130v136zM1298 480l-161 -185h336zM1862 874v-86h-47l-63 -60v-95h280v95l-63 60h-47v86h-60zM1384 508l173 -182l177 182h-350zM1817 477l-174 -182h357zM1905 508l196 -194l205 194h-401z" />
</svg>