<?xml version="1.0" standalone="no"?>
<!DOCTYPE svg PUBLIC "-//W3C//DTD SVG 1.1//EN" "http://www.w3.org/Graphics/SVG/1.1/DTD/svg11.dtd">
<svg xmlns="http://www.w3.org/2000/svg" xmlns:xlink="http://www.w3.org/1999/xlink" version="1.1"
   viewBox="94 -151 2414 2169">
   <path fill="currentColor"
      d="M2298 1228l-9 -88l98 -714h-135q-28 0 -34 32l-67 398l-274 -60q3 -20 3 -36q0 -53 -43.5 -79.5t-110.5 -26.5h-27v313q-93 0 -144 4.5t-83.5 18.5t-70.5 44q-73 -17 -168 -21t-193 -4q-49 0 -93 2t-79 7l-83 -60q44 -13 109 -20t147 -7q87 0 173 9t153 18
q40 -29 73 -43.5t74 -19.5t105 -5v-316h108q51 0 105 21.5t102 51.5l156 97l50 -307q15 -89 76 -89h264l-114 809q-4 34 -26 52.5t-42 18.5zM120 1462v-184h337l90 184h-427zM179 1326q0 -128 67 -192t235 -97l15 78q-94 19 -145.5 44t-71.5 64.5t-20 102.5h-80zM692 1528
q-82 0 -149.5 -40.5t-108 -108.5t-40.5 -150q0 -84 40 -152.5t108 -109t150 -40.5q81 0 149 40.5t109 109t41 152.5q0 82 -40.5 150t-108 108.5t-150.5 40.5zM692 1438q86 0 147.5 -61.5t61.5 -147.5q0 -58 -28.5 -106t-76 -77t-104.5 -29q-86 0 -147 61.5t-61 150.5
q0 86 61.5 147.5t146.5 61.5zM693 1331q-42 0 -72.5 -30.5t-30.5 -72.5q0 -44 30.5 -73.5t72.5 -29.5q43 0 73 29.5t30 73.5q0 42 -29.5 72.5t-73.5 30.5zM693 1271q18 0 30.5 -12.5t12.5 -30.5t-12.5 -30.5t-30.5 -12.5t-30.5 12.5t-12.5 30.5q0 17 13 30t30 13zM980 1359
v-203q41 0 71 30t30 71q0 43 -30 72.5t-71 29.5zM933 1362v-80h854v80h-854zM1028 1462q-7 0 -10 -6t1 -13l58 -96h732l73 115h-854zM1114 969l2 -32q3 -48 31.5 -80.5t65 -49t62.5 -16.5q33 0 33 22v156h-194zM2022 1528q-82 0 -149.5 -40.5t-108 -108.5t-40.5 -150
q0 -84 40.5 -152.5t108 -109t149.5 -40.5q81 0 149 40.5t109 109t41 152.5q0 82 -40.5 150t-108 108.5t-150.5 40.5zM2022 1438q86 0 147.5 -61.5t61.5 -147.5q0 -58 -28.5 -106t-76 -77t-104.5 -29q-86 0 -147 62t-61 150q0 86 61.5 147.5t146.5 61.5zM2023 1331
q-42 0 -72.5 -30.5t-30.5 -72.5q0 -44 30.5 -73.5t72.5 -29.5q43 0 73 29.5t30 73.5q0 42 -29.5 72.5t-73.5 30.5zM2023 1271q18 0 30.5 -12.5t12.5 -30.5t-12.5 -30.5t-30.5 -12.5t-30.5 12.5t-12.5 30.5q0 17 13 30t30 13zM1672 590v-56q-40 -5 -61.5 -15.5t-21.5 -34.5
q0 -41 43 -41q40 0 83.5 5t81.5 18q34 12 34 41q0 10 -9.5 17.5t-23.5 8.5l-27 1v56h-99zM2219 1116v-98h135v98h-135z" />
</svg>