<?xml version="1.0" standalone="no"?>
<!DOCTYPE svg PUBLIC "-//W3C//DTD SVG 1.1//EN" "http://www.w3.org/Graphics/SVG/1.1/DTD/svg11.dtd">
<svg xmlns="http://www.w3.org/2000/svg" xmlns:xlink="http://www.w3.org/1999/xlink" version="1.1"
   viewBox="94 -151 2414 2169">
   <path fill="currentColor"
      d="M1300 1211q-148 0 -263 -66.5t-181 -184.5t-66 -271q0 -85 19.5 -200t54 -234.5t78.5 -217.5q0 -62 91 -100.5t267 -38.5t267 38.5t91 100.5q45 98 79 217.5t53.5 234.5t19.5 200q0 153 -66 271t-181 184.5t-263 66.5zM1300 1978q-121 0 -218.5 -24.5t-154.5 -72
t-57 -114.5q0 -54 40 -94t104.5 -65.5t140 -38t145.5 -12.5q71 0 146 12.5t139.5 38t104.5 65.5t40 94q0 67 -57 114.5t-154 72t-219 24.5zM1300 1900q157 0 248.5 -40.5t91.5 -92.5q0 -32 -45.5 -62.5t-122.5 -50t-172 -19.5t-172 19.5t-122.5 50t-45.5 62.5
q0 52 91.5 92.5t248.5 40.5zM1300 1693q-61 0 -104 -17t-43 -41q0 -16 21.5 -29.5t55.5 -21.5v-400h140v400q34 8 55.5 21.5t21.5 29.5q0 24 -42.5 41t-104.5 17zM1300 1058q-106 0 -186 -45.5t-124.5 -124.5t-44.5 -179q0 -30 9 -45t18 -15q12 0 31.5 22t50 50.5t73.5 50.5
t101 22q67 0 113 -29.5t87 -68.5t92 -68.5t127 -29.5q5 40 6.5 62.5t1.5 48.5q0 100 -44.5 179t-124 124.5t-186.5 45.5zM1300 1133q127 0 224 -56.5t151.5 -157t54.5 -230.5q0 -77 -16 -176.5t-44.5 -203t-64.5 -191.5q-47 31 -128 48t-177 17t-177 -17t-128 -48
q-36 88 -64 191.5t-44.5 203t-16.5 176.5q0 130 54.5 230.5t151.5 157t224 56.5zM1300 105q73 0 133.5 -12.5t97.5 -28.5t37 -27q0 -15 -73.5 -38t-194.5 -23t-194.5 23t-73.5 38q0 11 37 27t98.5 28.5t132.5 12.5z" />
</svg>