<?xml version="1.0" standalone="no"?>
<!DOCTYPE svg PUBLIC "-//W3C//DTD SVG 1.1//EN" "http://www.w3.org/Graphics/SVG/1.1/DTD/svg11.dtd">
<svg xmlns="http://www.w3.org/2000/svg" xmlns:xlink="http://www.w3.org/1999/xlink" version="1.1"
   viewBox="94 -151 2414 2169">
   <path fill="currentColor"
      d="M1055 1978q-248 0 -440 -82.5t-301 -230t-109 -341.5q0 -98 36.5 -158.5t104.5 -60.5q29 0 57.5 21t79.5 97l20 30q49 72 97 114t105 60t131 18q161 0 274.5 -114.5t177.5 -334.5l97 -335q32 -111 74 -173t95 -82l81 49q-70 31 -108.5 79.5t-66.5 147.5l-95 336
q-69 244 -204 374.5t-325 130.5q-85 0 -154 -21.5t-128.5 -71.5t-116.5 -135l-20 -30q-38 -57 -52 -68.5t-25 -11.5q-19 0 -37 34t-18 105q0 170 97 300t270.5 203t402.5 73q203 0 386 -58.5t335 -165.5t263.5 -253t172.5 -321.5t61 -370.5h80q0 208 -65 395.5t-184 343.5
t-281 269.5t-357 176t-411 62.5zM1493 1296q-17 -8 -20 -26t12 -52q37 -85 65 -173.5t44 -168.5q13 -64 48 -58q39 7 28 68q-16 88 -44 182t-66 184q-27 64 -67 44zM2375 826q-38 0 -59.5 -19.5t-38 -45t-39 -45t-63.5 -19.5q-30 0 -51.5 11.5t-43 23.5t-54.5 12
q-30 0 -46.5 -24.5t-34.5 -57t-50 -57t-94 -24.5q-20 0 -53.5 5t-64.5 10t-45 5q-37 0 -37 -24q0 -8 7 -29.5t7 -35.5q0 -34 -26.5 -46.5t-59.5 -12.5q-52 0 -52 -17q0 -24 29.5 -45t75.5 -34t97 -13q35 0 76.5 4t61.5 4q71 0 123.5 -33.5t81.5 -88t29 -117.5
q0 -50 -21 -76.5t-65 -26.5q-25 0 -64 15l-44 -99q62 -28 117 -28q95 0 148 55t53 154q0 88 -22.5 152t-22.5 124q0 28 27 53.5t66.5 55.5t78.5 69.5t66 93t27 127.5q0 44 -20 44z" />
</svg>