<?xml version="1.0" standalone="no"?>
<!DOCTYPE svg PUBLIC "-//W3C//DTD SVG 1.1//EN" "http://www.w3.org/Graphics/SVG/1.1/DTD/svg11.dtd">
<svg xmlns="http://www.w3.org/2000/svg" xmlns:xlink="http://www.w3.org/1999/xlink" version="1.1"
   viewBox="94 -151 2414 2169">
   <path fill="currentColor"
      d="M520 1345l-49 -62q126 -101 233 -162t208.5 -88.5t211.5 -27.5q91 0 172.5 18.5t160.5 42t161 42t173 18.5q97 0 209 -36.5t230 -122.5l-230 -920q-88 76 -207.5 124t-266.5 48q-103 0 -191.5 -28t-171 -64.5t-167.5 -64.5t-181 -28q-98 0 -208 55t-232 177l-13 -94
q110 -105 223 -161.5t230 -56.5q105 0 193 28t169 64.5t165.5 64.5t183.5 28q148 0 269 -56.5t251 -184.5l274 1099q-57 49 -140 97.5t-182.5 80t-206.5 31.5q-126 0 -236.5 -30t-215.5 -60.5t-215 -30.5q-99 0 -190.5 25t-190.5 82t-223 153zM569 1978q-17 0 -32.5 -11
t-19.5 -42l-236 -1843q-4 -34 13 -49.5t38 -15.5q17 0 30.5 10.5t17.5 39.5l236 1843q5 37 -11 52.5t-36 15.5zM469 1065l-23 -227q90 -68 164 -105t146 -61l34 214q-88 31 -160 72.5t-161 106.5zM829 1133l-39 -247q50 -17 105.5 -27t111.5 -10q23 0 48 1t54 3l32 200
l-162 -8zM422 636l-28 -211q83 -69 152.5 -106t143.5 -60l33 207q-88 28 -156 68t-145 102zM756 672l-33 -206q45 -14 99 -21.5t114 -7.5q21 0 50 2t58 5l32 203q-52 -6 -91 -6q-71 0 -128.5 9t-100.5 22zM1389 908q-93 -22 -163 -36.5t-117 -18.5l-33 -206q62 7 132 21.5
t143 31.5zM1725 1191l-297 -73l-39 -210q62 15 132.5 25.5t155.5 10.5zM690 259l-34 -217l127 -45l196 37l34 214q-40 -7 -77.5 -10.5t-68.5 -3.5q-48 0 -93 7t-84 18zM1314 497q-73 -17 -137 -30t-133 -23l-31 -196q60 10 123 25t143 36zM1637 737q-70 0 -149 -11.5
t-137 -25.5l-37 -203q58 13 133.5 25t149.5 12zM1677 944l-40 -207q56 0 123 -10t140 -35l44 206q-69 22 -136 34t-131 12zM1996 1143l-52 -245q57 -20 119 -49t147 -84l52 221zM1560 346q-89 0 -158.5 -12t-122.5 -25l-29 -158l280 43zM1597 534l-37 -188q67 -2 131.5 -18
t121.5 -40l43 198q-54 21 -124 34.5t-135 13.5zM1900 692l-44 -206q51 -21 113 -57t124 -86l53 224q-56 37 -117 68t-129 57zM1813 288l-28 -131l217 -157l37 144q-65 53 -118.5 85.5t-107.5 58.5z" />
</svg>