<?xml version="1.0" standalone="no"?>
<!DOCTYPE svg PUBLIC "-//W3C//DTD SVG 1.1//EN" "http://www.w3.org/Graphics/SVG/1.1/DTD/svg11.dtd">
<svg xmlns="http://www.w3.org/2000/svg" xmlns:xlink="http://www.w3.org/1999/xlink" version="1.1"
   viewBox="94 -151 2414 2169">
   <path fill="currentColor"
      d="M258 1978v-1727l-97 -163q-12 -20 -2 -38t33 -18h2216q23 0 33 18t-2 38l-97 163v1727h-2084zM424 1633v-130h130v130h-130zM424 1333v-130h130v130h-130zM794 1633v-130h130v130h-130zM338 1829h296v-1719h-371l75 114v1605zM424 1033v-130h130v130h-130zM794 1333v-130
h130v130h-130zM1085 1829h80v-309h99v309h72v-309h99v309h80v-380h-430v380zM424 733v-130h130v130h-130zM794 1033v-130h130v130h-130zM424 433v-130h130v130h-130zM1676 1633v-130h130v130h-130zM794 733v-130h130v130h-130zM704 1829h311v-623h570v623h311v-1638h-1192
v1638zM1134 1033v-130h332v130h-332zM1676 1333v-130h130v130h-130zM794 433v-130h130v130h-130zM2046 1633v-130h130v130h-130zM1134 733v-130h332v130h-332zM1676 1033v-130h130v130h-130zM2046 1333v-130h130v130h-130zM1134 433v-130h332v130h-332zM1676 733v-130h130
v130h-130zM2046 1033v-130h130v130h-130zM1966 1829h296v-1605l75 -114h-371v1719zM992 117v-219h616v219h-616zM1676 433v-130h130v130h-130zM2046 733v-130h130v130h-130zM2046 433v-130h130v130h-130z" />
</svg>