<?xml version="1.0" standalone="no"?>
<!DOCTYPE svg PUBLIC "-//W3C//DTD SVG 1.1//EN" "http://www.w3.org/Graphics/SVG/1.1/DTD/svg11.dtd">
<svg xmlns="http://www.w3.org/2000/svg" xmlns:xlink="http://www.w3.org/1999/xlink" version="1.1"
   viewBox="94 -151 2414 2169">
   <path fill="currentColor"
      d="M1003 1044q-118 0 -222 -44.5t-183 -123t-123.5 -182.5t-44.5 -223t44.5 -223t123 -182.5t182.5 -123t223 -44.5t222.5 44.5t182.5 123t123.5 182.5t44.5 223t-44.5 223t-123 182.5t-182.5 123t-223 44.5zM480 1934v-943h80v943h-80zM403 1978q-72 0 -122.5 -50.5
t-50.5 -122.5v-687q0 -71 51 -122t122 -51h153l200 268h193v497h-193l-200 268h-153zM403 1898h113l200 -268h180v-337h-180l-200 -268h-113q-39 0 -66 27t-27 66v687q0 39 27 66t66 27zM708 1672v-419h73v419h-73zM1144 1658q-23 0 -39.5 -17t-16.5 -40t16.5 -40t39.5 -17
t40 17t17 40t-17 40t-40 17zM1144 1489q-23 0 -39.5 -17t-16.5 -40t16.5 -40t39.5 -17t40 17t17 40t-17 40t-40 17zM1339 1648q-27 0 -46 -19t-19 -46v-133q0 -26 19.5 -45.5t45.5 -19.5h475q26 0 45.5 19.5t19.5 45.5v133q0 27 -19 46t-46 19h-475zM1069 1960
q-71 0 -122 -51t-51 -122v-650q0 -71 51 -122t122 -51h689v80h-689q-39 0 -66 27t-27 66v650q0 38 27.5 65.5t65.5 27.5h866q39 0 66.5 -27.5t27.5 -65.5v-650q0 -39 -27.5 -66t-66.5 -27h-185v-80h185q72 0 123 50.5t51 122.5v650q0 71 -51 122t-123 51h-866zM1003 964
q136 0 248 -66.5t178.5 -178.5t66.5 -248t-66.5 -248t-178.5 -178.5t-248 -66.5t-248 66.5t-178.5 178.5t-66.5 248t66.5 248t178.5 178.5t248 66.5zM1003 860q-108 0 -196.5 -52.5t-141 -141t-52.5 -195.5q0 -108 52.5 -196.5t141.5 -141t196 -52.5q108 0 196.5 52.5
t141 141t52.5 195.5t-52.5 196t-141 141.5t-196.5 52.5zM1003 802q91 0 166.5 -45t120.5 -120.5t45 -166.5t-45 -166t-120 -120t-167 -45q-91 0 -166.5 45t-120.5 120.5t-45 166.5t45 166t120.5 120t166.5 45zM1003 710q-66 0 -120.5 -32t-87 -86.5t-32.5 -120.5
t32.5 -120.5t87 -87t120.5 -32.5q67 0 121 32t86.5 86.5t32.5 120.5t-32.5 120.5t-87 87t-120.5 32.5zM1003 618q61 0 104.5 -43.5t43.5 -104.5t-43.5 -104t-104.5 -43t-104.5 43.5t-43.5 104.5t43.5 104t104.5 43zM2370 1511l-182 -84h-108v-80h126l84 40v-201l-84 40h-126
v-80h108l182 -84v449zM1889 1044q-112 0 -204.5 -55t-147.5 -147t-55 -204q0 -113 55 -205t147.5 -147t204.5 -55q113 0 205 55t147 147t55 204t-55 204.5t-147 147.5t-205 55zM1889 964q90 0 164.5 -44t118.5 -118.5t44 -164.5t-44 -164t-118 -118t-165 -44q-90 0 -164 44
t-118.5 118.5t-44.5 164.5t44 164t118.5 118t164.5 44zM1889 860q-61 0 -112 -30t-81 -81t-30 -112q0 -62 30 -112.5t81 -80.5t112 -30q62 0 112.5 30t80.5 80.5t30 112.5q0 61 -30 112t-80.5 81t-112.5 30zM1889 780q60 0 102 -42t42 -101t-42.5 -101t-101.5 -42
q-60 0 -102 42t-42 101t42.5 101t101.5 42z" />
</svg>