<?xml version="1.0" standalone="no"?>
<!DOCTYPE svg PUBLIC "-//W3C//DTD SVG 1.1//EN" "http://www.w3.org/Graphics/SVG/1.1/DTD/svg11.dtd">
<svg xmlns="http://www.w3.org/2000/svg" xmlns:xlink="http://www.w3.org/1999/xlink" version="1.1"
   viewBox="94 -151 2414 2169">
   <path fill="currentColor"
      d="M1311 1698q-148 0 -277.5 -55.5t-228 -154t-154 -228t-55.5 -277.5t55.5 -277.5t154 -228t228 -154t277.5 -55.5t277.5 55.5t228 154t154 228t55.5 277.5t-55.5 277.5t-154 228t-228 154t-277.5 55.5zM284 1978q-73 0 -98 -26.5t-25 -64.5q0 -76 9.5 -175.5t21.5 -211
t21.5 -223.5t9.5 -214q0 -61 -4.5 -115t-15.5 -97h163q-10 43 -15 97t-5 115q0 102 9.5 214t21.5 223.5t21.5 211t9.5 175.5q0 38 -25 64.5t-99 26.5zM286 893q-87 0 -135.5 -57t-48.5 -158q0 -62 3 -140.5t9.5 -181t16.5 -237.5h58l-19 483q-1 19 9.5 30.5t29.5 11.5
t31 -11t12 -29l4 -485h60l4 485q0 18 12 29t31 11t29.5 -11.5t9.5 -30.5l-19 -483h58q10 135 16.5 237.5t9.5 181t3 140.5q0 101 -48.5 158t-135.5 57zM1311 1618q132 0 247 -49.5t202 -136.5t136.5 -202t49.5 -247t-49.5 -247t-136.5 -202t-202 -136.5t-247 -49.5
t-247 49.5t-202 136.5t-136.5 202t-49.5 247t49.5 247t136.5 202t202 136.5t247 49.5zM1011 1208q-16 11 -31 8.5t-25 -18.5q-28 -47 -43.5 -101.5t-15.5 -113.5q0 -115 56 -209t150.5 -150t208.5 -56q129 0 228 68q17 11 19 25t-10 30q-23 30 -57 9q-39 -25 -84.5 -38.5
t-95.5 -13.5q-92 0 -168.5 45t-121.5 121t-45 169q0 46 12 89t33 80q19 34 -10 56zM2374 1978q-62 0 -92.5 -22.5t-30.5 -68.5q0 -72 19.5 -182t39 -242t19.5 -266q0 -130 -20 -222q-69 -37 -99.5 -92t-30.5 -141q0 -163 18 -314t49 -270.5t70 -189.5t81 -70q32 0 33 54
l24 951q3 134 6 240t7.5 210.5t11.5 231t19 302.5q3 45 -28.5 68t-95.5 23z" />
</svg>