<?xml version="1.0" standalone="no"?>
<!DOCTYPE svg PUBLIC "-//W3C//DTD SVG 1.1//EN" "http://www.w3.org/Graphics/SVG/1.1/DTD/svg11.dtd">
<svg xmlns="http://www.w3.org/2000/svg" xmlns:xlink="http://www.w3.org/1999/xlink" version="1.1"
   viewBox="94 -151 2414 2169">
   <path fill="currentColor"
      d="M777 1430q-93 0 -168.5 -45.5t-131.5 -109.5q-83 -95 -127.5 -213t-44.5 -248q0 -85 13 -186.5t37.5 -205t59 -196t78 -160.5t93.5 -96q46 -26 105 -41.5t123 -23t123 -7.5q127 0 245.5 38.5t214.5 109.5t154 170q18 30 27.5 60t9.5 51q0 15 -1 32.5t-6 38.5
q-48 233 -103.5 411.5t-148.5 309.5t-256 222q-71 40 -149.5 64.5t-146.5 24.5zM213 1490q-4 -24 -4 -52q0 -37 7.5 -70.5t20.5 -62.5q-40 30 -74.5 61.5t-54.5 55.5q0 -78 43 -149t109 -124.5t135 -78.5l72 151q-74 33 -138.5 100.5t-115.5 168.5zM881 1840q-31 0 -76 -8
t-79 -34q44 -2 91 -13.5t73 -27.5q-40 -4 -92.5 -32t-76.5 -63q32 12 72.5 19.5t68.5 7.5q60 0 91 -29.5t58 -68.5q30 -44 72 -81t132 -37l60 146q-65 0 -100 30t-65 70q-34 45 -88.5 83t-140.5 38zM350 968q-85 -15 -140.5 -57.5t-82.5 -102.5t-27 -125q0 -76 36.5 -149.5
t106.5 -126.5t172 -68l-24 154q-100 16 -151.5 76.5t-51.5 126.5q0 55 36.5 100.5t111.5 60.5zM843 1114q-103 0 -188.5 -53t-137 -141.5t-51.5 -193.5q0 -21 8 -34t22 -13q11 0 24.5 10t44.5 45q34 37 83 81t116 76t155 32q80 0 161.5 -20.5t126.5 -48.5q24 -15 33 -15
q12 0 12 17q0 63 -60 122t-153.5 97.5t-195.5 38.5zM832 511q-7 0 -23 -13q-34 -30 -70.5 -44.5t-77.5 -14.5q-53 0 -85 12q-12 5 -20 5q-11 0 -11 -8q0 -36 46.5 -70.5t108.5 -34.5q64 0 102.5 41.5t38.5 96.5q0 30 -9 30zM779 1350q59 0 128.5 -23.5t133.5 -57.5
q116 -63 190 -148.5t121 -194t79.5 -239t64.5 -282.5q4 -20 6 -35t2 -28q0 -24 -7 -43.5t-21 -41.5q-52 -85 -136.5 -147t-189 -95.5t-216.5 -33.5q-53 0 -110 6t-108.5 18.5t-91.5 34.5q-44 24 -81.5 88.5t-67 153.5t-50 188t-31.5 193.5t-11 168.5q0 113 39 210.5
t112 180.5q49 55 110 91t135 36zM1543 1671q-19 0 -19 -37q0 -53 26 -112.5t73.5 -113t111.5 -87t140 -33.5q78 0 142.5 29t102.5 75.5t38 97.5q0 14 -10 14q-6 0 -13.5 -4t-14.5 -8q-49 -33 -96 -46.5t-106 -13.5q-93 0 -151.5 24.5t-103 73.5t-97.5 124q-12 17 -23 17z
M1483 1236q-35 0 -65.5 -17t-30.5 -37q0 -12 23 -23q60 -32 115.5 -76.5t82.5 -106.5q8 -21 20 -21q11 0 18 16.5t10.5 39t3.5 40.5q0 87 -48.5 136t-128.5 49zM1938 1978q-52 0 -113 -7.5t-123 -20.5q-112 -24 -192 -58t-137.5 -85t-100 -126t-78.5 -181
q-21 -62 -40 -122.5t-37 -122.5l73 -36q18 64 38.5 127.5t42.5 128.5q33 99 70 166t86.5 110.5t121 71.5t174.5 50q56 12 111.5 20t101.5 8q67 0 113 -26.5t81.5 -74.5t70.5 -112q35 -65 61.5 -134.5t26.5 -133.5q0 -54 -14.5 -145t-40.5 -196.5t-59.5 -206t-71 -175
t-75.5 -101.5q-33 -24 -78 -36.5t-100.5 -17.5t-121.5 -5q-118 0 -229 35l18 -86q105 -29 216 -29q72 0 133.5 6.5t112 21.5t89.5 41q47 31 91 111t82 187t67 221.5t45 215.5t16 168q0 70 -27.5 145t-65.5 145q-40 75 -89.5 133.5t-110.5 92t-138 33.5zM1283 647
q-6 0 -20 -15q-37 -44 -82.5 -66t-110.5 -22q-19 0 -29.5 3.5t-21.5 3.5q-13 0 -13 -12q0 -26 30.5 -53t100.5 -27q72 0 116.5 42t44.5 100q0 18 -5 32t-10 14zM1950 1097q-45 0 -84.5 -24.5t-64 -62t-24.5 -76.5q0 -19 13 -19q8 0 19 7q54 34 120.5 43t128.5 9q28 0 28 18
q0 46 -44.5 75.5t-91.5 29.5zM2332 1407l-18 -118q50 -38 74.5 -83.5t24.5 -89.5q0 -61 -42.5 -107t-125.5 -52l-45 -161q96 12 163 64.5t102 126t35 151.5q0 83 -41 157t-127 112z" />
</svg>