<?xml version="1.0" standalone="no"?>
<!DOCTYPE svg PUBLIC "-//W3C//DTD SVG 1.1//EN" "http://www.w3.org/Graphics/SVG/1.1/DTD/svg11.dtd">
<svg xmlns="http://www.w3.org/2000/svg" xmlns:xlink="http://www.w3.org/1999/xlink" version="1.1"
   viewBox="94 -151 2414 2169">
   <path fill="currentColor"
      d="M1028 1978q-46 0 -84.5 -28t-57.5 -77q-39 20 -79 20q-65 0 -107 -49t-42 -134q0 -24 3.5 -56t9 -62.5t11.5 -47.5q-22 6 -68 11t-93 5q-96 0 -155 -46t-59 -119q0 -42 21 -82q-51 -20 -81.5 -60t-30.5 -89q0 -69 57.5 -135t140.5 -91q-83 -25 -140.5 -91t-57.5 -135
q0 -49 30.5 -89t81.5 -60q-21 -41 -21 -82q0 -74 59 -119.5t155 -45.5q47 0 93 5t68 11q-6 -17 -11.5 -47.5t-9 -63t-3.5 -55.5q0 -85 42 -134t107 -49q40 0 79 20q19 -50 57.5 -77.5t84.5 -27.5q68 0 139.5 58.5t132.5 162.5q62 -104 133.5 -162.5t138.5 -58.5
q47 0 85 27.5t57 77.5q39 -20 79 -20q65 0 107 49t42 134q0 23 -3.5 55.5t-8.5 63t-12 47.5q22 -6 68.5 -11t92.5 -5q96 0 155 45.5t59 119.5q0 41 -21 82q51 20 81.5 60t30.5 89q0 69 -57.5 135t-140.5 91q83 25 140.5 91t57.5 135q0 49 -30.5 89t-81.5 60q21 40 21 82
q0 73 -59 119t-155 46q-46 0 -92.5 -5t-68.5 -11q7 17 12 47.5t8.5 62.5t3.5 56q0 85 -42 134t-107 49q-40 0 -79 -20q-19 49 -57 77t-85 28q-67 0 -138.5 -59t-133.5 -162q-61 103 -132.5 162t-139.5 59zM953 1674q-27 -13 -13 -41l173 -368l74 26l-194 369q-14 26 -40 14z
M571 1231q-29 9 -38 -18q-10 -28 20 -38l389 -141l20 76zM923 1315q-9 -9 -9 -21t9 -22l92 -102l52 52l-101 92q-24 20 -43 1zM941 978l-144 -10q-31 -2 -31 -30t31 -30l144 -10v80zM1300 1471q-28 0 -30 -31l-10 -144h80l-10 144q-2 31 -30 31zM942 842l-389 -141
q-30 -10 -20 -38q9 -27 38 -18l391 121zM1647 1674q-26 12 -40 -14l-194 -369l74 -26l173 368q14 28 -13 41zM1238 1154q-22 0 -37.5 -15.5t-15.5 -36.5t15.5 -36.5t37.5 -15.5q21 0 36.5 15.5t15.5 36.5t-15.5 36.5t-36.5 15.5zM1118 1024q-22 0 -37.5 -15.5t-15.5 -36.5
t15.5 -36.5t37.5 -15.5q21 0 36.5 15.5t15.5 36.5t-15.5 36.5t-36.5 15.5zM1158 864q-22 0 -37.5 -15.5t-15.5 -36.5t15.5 -36.5t37.5 -15.5q21 0 36.5 15.5t15.5 36.5t-15.5 36.5t-36.5 15.5zM1015 706l-92 -102q-9 -10 -9 -22t9 -21q19 -19 43 1l101 92zM1028 1898
q38 0 89 -42.5t101 -109t82 -137.5q33 71 82.5 137.5t101 109t88.5 42.5q32 0 61.5 -33.5t42.5 -93.5q32 23 54.5 33.5t48.5 10.5q42 0 64 -28t22 -83q0 -96 -66 -267q62 18 143 30.5t140 12.5q63 0 97.5 -26t34.5 -71q0 -26 -12 -54t-35 -56q60 -15 98.5 -43t38.5 -66
q0 -51 -73 -112.5t-211 -113.5q138 -53 211 -114t73 -112q0 -38 -38.5 -66t-98.5 -43q23 -28 35 -56t12 -54q0 -45 -34.5 -71t-97.5 -26q-59 0 -140 12.5t-143 30.5q66 -171 66 -267q0 -55 -22 -83t-64 -28q-26 0 -48.5 10.5t-54.5 33.5q-13 -60 -42.5 -93.5t-61.5 -33.5
q-37 0 -88.5 42.5t-101 109t-82.5 137.5q-32 -71 -82 -137.5t-101 -109t-89 -42.5q-31 0 -61 33.5t-43 93.5q-32 -23 -54.5 -33.5t-48.5 -10.5q-42 0 -64 28t-22 83q0 96 66 267q-62 -18 -143 -30.5t-140 -12.5q-63 0 -97.5 26t-34.5 71q0 26 12.5 54t34.5 56
q-60 15 -98.5 43t-38.5 66q0 51 73 112t211 114q-138 52 -211 113.5t-73 112.5q0 38 38.5 66t98.5 43q-22 28 -34.5 56t-12.5 54q0 45 34.5 71t97.5 26q59 0 140 -12.5t143 -30.5q-66 171 -66 267q0 55 22 83t64 28q26 0 48.5 -10.5t54.5 -33.5q13 60 43 93.5t61 33.5z
M1300 1322q-106 0 -193.5 -52t-139.5 -139t-52 -193t52 -193t139.5 -139t193.5 -52t193.5 52t139.5 139t52 193t-52 193t-139.5 139t-193.5 52zM1300 1246q85 0 155 -41.5t112 -111.5t42 -155t-42 -155t-112 -111.5t-155 -41.5t-155 41.5t-112 111.5t-42 155t42 155
t112 111.5t155 41.5zM1677 1315q-19 19 -43 -1l-101 -92l52 -52l92 102q9 10 9 22t-9 21zM1288 974q-22 0 -37.5 -15.5t-15.5 -36.5t15.5 -36.5t37.5 -15.5q21 0 36.5 15.5t15.5 36.5t-15.5 36.5t-36.5 15.5zM1328 804q-22 0 -37.5 -15.5t-15.5 -36.5t15.5 -36.5t37.5 -15.5
q21 0 36.5 15.5t15.5 36.5t-15.5 36.5t-36.5 15.5zM1113 611l-173 -368q-14 -28 13 -41q26 -12 40 14l194 369zM2029 1231l-391 -121l20 -76l389 141q30 10 20 38q-9 27 -38 18zM1260 580l10 -144q2 -31 30 -31t30 31l10 144h-80zM1659 978v-80l144 10q31 2 31 30t-31 30z
M1585 706l-52 -52l101 -92q24 -20 43 -1q9 9 9 21t-9 22zM1658 842l-20 -76l391 -121q29 -9 38 18q10 28 -20 38zM1487 611l-74 -26l194 -369q14 -26 40 -14q27 13 13 41z" />
</svg>