<?xml version="1.0" standalone="no"?>
<!DOCTYPE svg PUBLIC "-//W3C//DTD SVG 1.1//EN" "http://www.w3.org/Graphics/SVG/1.1/DTD/svg11.dtd">
<svg xmlns="http://www.w3.org/2000/svg" xmlns:xlink="http://www.w3.org/1999/xlink" version="1.1"
   viewBox="94 -151 2414 2169">
   <path fill="currentColor"
      d="M1298 1978q-362 0 -631.5 -73.5t-418 -207t-148.5 -313.5q0 -110 59.5 -179.5t155.5 -69.5q59 0 126 28.5t125 59.5q6 -64 11 -134t5 -141q0 -107 -10 -207.5t-25 -192.5t-31 -172q-16 -82 -26.5 -149.5t-10.5 -116.5q0 -72 95 -119t278.5 -70t447.5 -23t447 23t278.5 70
t95.5 119q0 49 -10.5 116.5t-26.5 149.5q-15 80 -30.5 172t-25.5 192.5t-10 207.5q0 71 5 141t11 134q59 -31 125.5 -59.5t125.5 -28.5q96 0 155.5 69.5t59.5 179.5q0 180 -149 313.5t-419 207t-634 73.5zM1298 1536q-201 0 -396 -25t-363 -76l19 -168l71 -109
q147 14 319 21t350 7q181 0 353.5 -7t319.5 -21l71 109l19 168q-168 51 -363.5 76t-399.5 25zM851 1005q-17 0 -29 -11.5t-12 -30.5q0 -63 -4 -127t-11.5 -134t-18.5 -149q-2 -17 7 -30t27 -16t31 7t15 28q10 81 17.5 153.5t12 138.5t4.5 129q0 18 -11 30t-28 12zM1298 1898
q340 0 592 -65t391 -180.5t139 -268.5q0 -78 -36.5 -123.5t-98.5 -45.5q-39 0 -83.5 14.5t-101.5 43t-134 71.5q-10 -78 -19 -182.5t-9 -213.5q0 -95 10.5 -195.5t26 -198t30.5 -182.5q9 -50 18 -94.5t17 -81.5h37q-76 67 -275.5 102t-501.5 35t-501 -35t-276 -102h37
q8 37 17 81.5t18 94.5q16 85 31 182.5t25.5 198t10.5 195.5q0 109 -9 213.5t-19 182.5q-77 -43 -134 -71.5t-101.5 -43t-83.5 -14.5q-61 0 -98 45.5t-37 123.5q0 153 138.5 268.5t390 180.5t589.5 65zM1300 253q218 0 385 -21.5t261.5 -54.5t94.5 -67q0 -36 -92.5 -66
t-259 -48t-389.5 -18q-222 0 -389 18t-259.5 48t-92.5 66q0 34 94.5 67t261.5 54.5t385 21.5z" />
</svg>