<?xml version="1.0" standalone="no"?>
<!DOCTYPE svg PUBLIC "-//W3C//DTD SVG 1.1//EN" "http://www.w3.org/Graphics/SVG/1.1/DTD/svg11.dtd">
<svg xmlns="http://www.w3.org/2000/svg" xmlns:xlink="http://www.w3.org/1999/xlink" version="1.1"
   viewBox="94 -151 2414 2169">
   <path fill="currentColor"
      d="M703 1071q95 -256 264.5 -470.5t395 -372t491 -244t550.5 -86.5v80q-273 0 -522.5 81t-460.5 226.5t-370.5 339.5t-252.5 421zM437 1978q-109 0 -175 -62t-66 -156q0 -88 62 -152t156 -77q-4 -24 -6.5 -44t-2.5 -44q0 -127 61 -230t164.5 -164t230.5 -61q98 0 184.5 38
t151.5 106t97 158q9 -2 18.5 -2h19.5q79 0 144 36.5t106.5 98t48.5 138.5q111 0 183 61.5t72 156.5q0 100 -66.5 149.5t-182.5 49.5h-1200zM437 1898h1200q90 0 129.5 -30.5t39.5 -88.5q0 -67 -54.5 -103.5t-146.5 -36.5h-25.5h-25.5q1 -13 1 -25v-25q0 -61 -30.5 -111
t-81 -80t-111.5 -30t-110.5 30t-78.5 80t-29 111h-80q0 -94 50 -169t132 -109q-42 -108 -139 -175.5t-216 -67.5q-105 0 -190.5 50t-135.5 135t-50 190q0 45 6.5 80t16.5 73q-97 6 -164.5 47.5t-67.5 116.5q0 61 42.5 99.5t118.5 38.5zM1575 1541l-49 -108
q55 -184 184 -325.5t308.5 -221.5t385.5 -80v80q-153 0 -290.5 49t-249.5 137.5t-187 208t-102 260.5zM1335 1357l-80 -7q57 -186 168 -339.5t263 -264.5t334.5 -171.5t383.5 -60.5v80q-251 0 -465.5 97t-371 269t-232.5 397zM1125 1114l-71 -38q87 -191 222 -349t310 -274
t381.5 -179t436.5 -63v80q-219 0 -416.5 61t-363.5 172t-293 261t-206 329z" />
</svg>