<?xml version="1.0" standalone="no"?>
<!DOCTYPE svg PUBLIC "-//W3C//DTD SVG 1.1//EN" "http://www.w3.org/Graphics/SVG/1.1/DTD/svg11.dtd">
<svg xmlns="http://www.w3.org/2000/svg" xmlns:xlink="http://www.w3.org/1999/xlink" version="1.1"
   viewBox="94 -151 2414 2169">
   <path fill="currentColor"
      d="M1300 1978q-327 0 -570 -64t-364 -188l584 -820l65 46l-542 762q79 59 201 101t280 63.5t346 21.5t346 -21.5t280 -63.5t201 -101l-542 -762l65 -46l584 820q-121 124 -364 188t-570 64zM648 1080q-41 0 -41 -77q0 -39 11.5 -81t28 -71.5t30.5 -29.5q12 0 12 36
q0 7 -0.5 27.5t-0.5 40.5q0 15 1 34.5t1 36.5q0 37 -11 60.5t-31 23.5zM502 588q-35 0 -35 -38q0 -32 33 -67.5t76 -61t71 -25.5q17 0 17 12q0 10 -16 27t-36 36.5t-32 37.5q-24 36 -38.5 57.5t-39.5 21.5zM1789 1535q-52 0 -117 -104q-34 -56 -58 -110t-41 -99l-12 -33
q-19 -54 -36.5 -75t-34.5 -21t-27.5 16.5t-19.5 57.5l-6 28q-11 51 -28.5 74.5t-46.5 23.5q-44 0 -49 -48l-2 -25q-3 -34 -11 -47.5t-26 -13.5q-30 0 -70 34t-82 95l-22 32q-64 94 -123.5 132t-96.5 38q-38 0 -38 -28q0 -23 29.5 -57t94.5 -88l17 -14q39 -32 62 -68t23 -66
q0 -42 -34 -42q-35 0 -69 53l-12 18q-30 45 -57 68.5t-47 23.5q-18 0 -28 -14t-10 -41q0 -23 6.5 -53t22.5 -75q-22 48 -44.5 83t-42 54t-33.5 19q-10 0 -19 -10t-9 -23q0 -18 31 -60.5t74.5 -92.5t83 -93t55.5 -62q40 -47 65.5 -88.5t52 -67.5t70.5 -26q37 0 62.5 24.5
t52 49t65.5 24.5q42 0 71 -21.5t60 -42.5t79 -21q37 0 62 19t56 71q23 40 60.5 99.5t65.5 102.5q14 20 44.5 57t57 73t26.5 55q0 33 -28 33q-25 0 -47.5 -28t-70.5 -115l-17 -31q-28 -53 -47 -74t-33 -21q-24 0 -24 34q0 27 21.5 84t54 120t63.5 112q33 50 51 89.5t18 61.5
q0 40 -38 40zM698 741q-46 0 -46 -59q0 -58 37.5 -109t97.5 -83.5t125 -32.5q72 0 128 31t88.5 75.5t32.5 86.5q0 28 -16 28t-33.5 -19t-42.5 -44t-62 -44t-92 -19q-64 0 -111.5 39t-64.5 107q-5 20 -15 31.5t-26 11.5zM1300 1045q77 0 133 -50.5t56 -120.5q0 -20 -16 -20
q-12 0 -37.5 15t-60 30t-75.5 15q-46 0 -79.5 -15t-56 -30t-37.5 -15q-16 0 -16 20q0 70 56 120.5t133 50.5zM1259 671q-26 0 -33 -33q-75 -352 -232 -352q-55 0 -102.5 24.5t-91.5 24.5q-23 0 -37 -14.5t-14 -38.5q0 -48 56.5 -81t135.5 -33q101 0 179.5 60t123 163.5
t44.5 234.5q0 45 -29 45zM2010 1084q-22 0 -35.5 -26t-13.5 -67q0 -11 1.5 -37t1.5 -40q0 -19 -1 -40.5t-1 -35.5q0 -40 16 -40q15 0 33 32.5t30.5 79t12.5 88.5q0 40 -12 63t-32 23zM1257 193q-11 0 -25.5 -11t-45.5 -46l-43 -49q-32 -37 -59.5 -57.5t-44.5 -36t-17 -35.5
q0 -16 13 -28t33 -12q30 0 65 27.5t66 69t50.5 85t19.5 75.5q0 18 -12 18zM1474 688q-15 0 -15 -22q0 -25 19 -64.5t56 -79t91.5 -66.5t124.5 -27q67 0 119.5 30.5t83.5 76t31 91.5q0 18 -12 30t-30 12q-26 0 -46 -35q-34 -58 -70 -84.5t-95 -26.5q-64 0 -107.5 25
t-71.5 57.5t-46 57.5t-32 25zM1371 669q-30 0 -30 -42q0 -127 51 -234.5t135.5 -173t182.5 -65.5q58 0 107.5 22t80.5 57.5t31 75.5q0 19 -8.5 33t-28.5 14t-50.5 -21t-70.5 -41.5t-90 -20.5q-82 0 -159.5 92.5t-122.5 272.5q-8 31 -28 31zM1402 203q-24 0 -24 -29
q0 -30 23.5 -76.5t63.5 -92t91 -76.5t106 -31q30 0 48.5 13t18.5 34q0 17 -14 29.5t-37 18.5q-76 19 -132 61t-94 101q-17 27 -28 37.5t-22 10.5zM2169 604q-19 0 -34 -11.5t-32 -33.5t-43 -54q-19 -24 -40 -45.5t-21 -34.5q0 -11 14 -11q33 0 77.5 27.5t78 64t33.5 63.5
q0 14 -9 24.5t-24 10.5z" />
</svg>