<?xml version="1.0" standalone="no"?>
<!DOCTYPE svg PUBLIC "-//W3C//DTD SVG 1.1//EN" "http://www.w3.org/Graphics/SVG/1.1/DTD/svg11.dtd">
<svg xmlns="http://www.w3.org/2000/svg" xmlns:xlink="http://www.w3.org/1999/xlink" version="1.1"
   viewBox="94 -151 2414 2169">
   <path fill="currentColor"
      d="M1636 1696q-69 -95 -118.5 -168.5t-89 -144t-78.5 -154t-86 -197.5q81 -33 128.5 -50.5t76.5 -28t51.5 -20t52.5 -25.5q66 122 138 226t140.5 176.5t122.5 102.5q-61 77 -149.5 140t-188.5 143zM259 1577q47 -65 109.5 -123t159.5 -115q58 -34 118 -44t93 8
q0 38 -38.5 85t-97.5 82q-101 59 -185 78.5t-159 28.5zM885 1978q14 -100 21 -177.5t7 -147.5q0 -72 -7 -147t-21 -172q74 13 142 13t141 -13q-14 96 -21 170.5t-7 148.5q0 71 7 148.5t21 176.5q-73 -14 -141 -14t-142 14zM811 1215q-47 22 -120 4.5t-142 -64.5
q-114 -78 -182 -158t-116 -168q92 16 193.5 47t219.5 114q67 47 108 109.5t39 115.5zM885 1259q14 -97 21 -171.5t7 -146.5t-7 -147t-21 -172q74 13 142 13t141 -13q-14 96 -21 170.5t-7 148.5q0 73 7 147.5t21 170.5q-73 -14 -141 -14t-142 14zM1646 1603q74 -56 117.5 -89
t68.5 -53.5t42 -37.5q-56 -46 -114 -115.5t-113 -150.5t-101 -161q-45 22 -91.5 39.5t-100.5 36.5q35 81 65.5 146.5t63 125.5t72 122.5t91.5 136.5zM1168 1259l-67 -25q29 -204 108.5 -381t200.5 -315l50 46q-115 129 -190 298.5t-102 376.5zM1402 1033q-13 -31 -32 -75.5
t-37 -90.5t-29 -79l48 -28q11 35 29.5 81.5t38 92t33.5 78.5zM1294 820l-21 -63q45 -20 110 -32t132 -12v66q-63 1 -122 12t-99 29zM885 542q14 -97 21 -171.5t7 -146.5q0 -71 -7 -148.5t-21 -177.5q74 13 142 13t141 -13q-14 99 -21 176.5t-7 149.5q0 73 7 147.5t21 170.5
q-73 -14 -141 -14t-142 14zM2349 962q-81 12 -170 20t-192.5 0.5t-228.5 -41.5q-107 -29 -187.5 -87.5t-93.5 -119.5q43 -45 142.5 -55.5t204.5 18.5q179 50 302 115.5t223 149.5zM1399 583q-5 -76 54.5 -167.5t156.5 -159.5q115 -81 218.5 -126t199 -68.5t184.5 -38.5
q-70 129 -168.5 245.5t-263.5 229.5q-100 69 -206.5 93.5t-174.5 -8.5z" />
</svg>