<?xml version="1.0" standalone="no"?>
<!DOCTYPE svg PUBLIC "-//W3C//DTD SVG 1.1//EN" "http://www.w3.org/Graphics/SVG/1.1/DTD/svg11.dtd">
<svg xmlns="http://www.w3.org/2000/svg" xmlns:xlink="http://www.w3.org/1999/xlink" version="1.1"
   viewBox="94 -151 2414 2169">
   <path fill="currentColor"
      d="M1047 1508q-168 0 -314 -62t-256.5 -172.5t-172.5 -256.5t-62 -314q0 -167 62 -313t172.5 -256.5t256.5 -173t314 -62.5q167 0 313 62.5t256.5 173t173 256.5t62.5 313q0 168 -62.5 314t-173 256.5t-256.5 172.5t-313 62zM1047 1430q122 0 231 -35.5t198 -101.5
t153.5 -158.5t97.5 -205.5q7 -23 12 -46.5t9 -48.5q-11 32 -29 66q-55 108 -149.5 190.5t-221.5 129t-281 46.5q-158 0 -282 -70.5t-195 -193t-71 -279.5q0 -113 39.5 -211.5t110.5 -174t165 -118t203 -42.5q131 0 236 61t166.5 164t61.5 230q0 114 -55.5 207t-149 148
t-209.5 55q-93 0 -168 -39.5t-119 -107t-44 -152.5q0 -81 34.5 -146.5t96.5 -104t144 -38.5q86 0 148 55.5t62 136.5q0 78 -46 130.5t-114 52.5q-50 0 -78 -25.5t-28 -61.5q0 -35 26 -60.5t60 -25.5q29 0 50 16t31 40q19 -28 19 -61q0 -50 -38.5 -84.5t-91.5 -34.5
q-94 0 -145.5 61t-51.5 150q0 96 74.5 158.5t178.5 62.5q93 0 169 -45.5t120.5 -121t44.5 -165.5q0 -106 -51 -191.5t-138 -135.5t-195 -50q-123 0 -222 63t-157.5 169t-58.5 236q0 136 60 241t166 164.5t242 59.5q189 0 331.5 -76t221.5 -208.5t79 -302.5
q0 -138 -50.5 -253t-140 -198t-208 -128.5t-253.5 -45.5q-151 0 -282.5 55.5t-231 155t-155.5 231.5t-56 285q0 151 56 282.5t155.5 231.5t231 156.5t282.5 56.5zM2220 1978l-707 -694l142 -136l703 689z" />
</svg>