<?xml version="1.0" standalone="no"?>
<!DOCTYPE svg PUBLIC "-//W3C//DTD SVG 1.1//EN" "http://www.w3.org/Graphics/SVG/1.1/DTD/svg11.dtd">
<svg xmlns="http://www.w3.org/2000/svg" xmlns:xlink="http://www.w3.org/1999/xlink" version="1.1"
   viewBox="94 -151 2414 2169">
   <path fill="currentColor"
      d="M1300 1978q-237 -47 -434.5 -155.5t-342 -263t-224 -341.5t-79.5 -391q0 -151 56.5 -283t157 -232.5t232.5 -157t283 -56.5q185 0 351 84q166 -84 351 -84q151 0 283 56.5t232.5 157t157 232.5t56.5 283q0 204 -79.5 391t-224 341.5t-342 263t-434.5 155.5zM1300 1897
q219 -45 401.5 -146.5t317 -245t208 -316.5t73.5 -362q0 -135 -50.5 -252.5t-139.5 -206.5t-206.5 -139.5t-252.5 -50.5q-189 0 -351 95q-162 -95 -351 -95q-135 0 -252.5 50.5t-206.5 139.5t-139.5 206.5t-50.5 252.5q0 189 73.5 362t208 316.5t317 245t401.5 146.5z
M1452 1696l-72 -34q74 -163 113 -333.5t39 -334.5q0 -217 -69 -407t-203 -341l69 -46q138 157 210.5 361.5t72.5 432.5q0 172 -41.5 352.5t-118.5 349.5zM1300 223l-380 -96l-224 76q-56 -41 -107 -101.5t-99 -141.5q89 -32 165.5 -47t145.5 -15q138 0 262 60.5t237 183.5
q113 -123 237 -183.5t262 -60.5q69 0 145.5 15t165.5 47q-48 81 -99 141.5t-107 101.5l-224 -76z" />
</svg>