<?xml version="1.0" standalone="no"?>
<!DOCTYPE svg PUBLIC "-//W3C//DTD SVG 1.1//EN" "http://www.w3.org/Graphics/SVG/1.1/DTD/svg11.dtd">
<svg xmlns="http://www.w3.org/2000/svg" xmlns:xlink="http://www.w3.org/1999/xlink" version="1.1"
   viewBox="94 -151 2414 2169">
   <path fill="currentColor"
      d="M426 1978q-68 0 -117 -48.5t-49 -115.5v-1751q0 -68 49 -116.5t116 -48.5h1750q68 0 116.5 48.5t48.5 116.5v1750q0 67 -48.5 116t-116.5 49h-1749zM737 1958l-58 -56q153 -154 344 -234.5t421 -88.5q114 -113 236.5 -181t273 -98.5t348.5 -30.5v80q-193 0 -334.5 29
t-257 96.5t-230.5 183.5q-233 6 -416 80t-327 220zM426 1898h1749q35 0 60 -25.5t25 -59.5v-1750q0 -35 -25 -60t-60 -25h-1750q-34 0 -59.5 25t-25.5 60v1751q0 34 25.5 59t60.5 25zM2275 1224q-97 -58 -197.5 -84.5t-204.5 -26.5q-53 0 -109.5 7t-128.5 22
q-57 -111 -151 -186.5t-208 -114.5t-234 -39q-181 0 -336 99q-82 -106 -181.5 -170.5t-226.5 -92.5l18 -78q244 54 408 239q148 -77 318 -77q129 0 248.5 38.5t217 112.5t159.5 182q50 -11 103.5 -16.5t102.5 -5.5q118 0 227 29.5t215 91.5zM656 764l-78 -20
q39 -132 128 -229.5t214.5 -150.5t273.5 -53q86 0 169 19q90 -105 231 -164.5t300 -59.5q123 0 234.5 39.5t197.5 118.5l-54 60q-76 -69 -172 -103.5t-206 -34.5q-157 0 -291.5 63t-208.5 172q-100 -30 -200 -30q-130 0 -239.5 45.5t-187 129.5t-111.5 198zM1635 212
q-66 -34 -136.5 -50.5t-148.5 -16.5q-133 0 -285 48q-26 -66 -84 -128.5t-119 -90.5l30 -74q59 26 116.5 79.5t97.5 118.5q128 -33 244 -33q86 0 167 19t154 56z" />
</svg>