<?xml version="1.0" standalone="no"?>
<!DOCTYPE svg PUBLIC "-//W3C//DTD SVG 1.1//EN" "http://www.w3.org/Graphics/SVG/1.1/DTD/svg11.dtd">
<svg xmlns="http://www.w3.org/2000/svg" xmlns:xlink="http://www.w3.org/1999/xlink" version="1.1"
   viewBox="94 -151 2414 2169">
   <path fill="currentColor"
      d="M1300 1484q-79 0 -146 -25t-130 -57.5t-130 -57.5t-147 -25q-57 0 -108 3.5t-108 -17.5q-61 -23 -95 -69.5t-56.5 -94.5t-47.5 -74q-28 -31 -60.5 -49t-55 -44t-22.5 -80q0 -181 87 -335.5t239.5 -269t353 -178t426.5 -63.5q227 0 427 63.5t352.5 178t239.5 269t87 335.5
q0 54 -22.5 80t-54.5 44t-61 49q-25 26 -47 74t-56.5 94.5t-95.5 69.5q-57 21 -108 17.5t-108 -3.5q-81 0 -148.5 25t-130.5 57.5t-129 57.5t-145 25zM815 1228l39 -71q-40 -23 -69 -44t-64 -52l-51 61q38 34 70 57t75 49zM395 848l78 -25q-19 -44 -28.5 -78.5t-17.5 -79.5
l-80 12q9 48 20.5 86t27.5 85zM1300 1828q-550 0 -814 -228t-264 -683l79 3q0 421 243.5 624.5t755.5 203.5t755.5 -203.5t243.5 -624.5l79 -3q0 455 -264 683t-814 228zM715 824q16 -42 31.5 -74.5t40.5 -71.5l-70 -39q-25 43 -43 78t-35 82zM1269 1126v-80q-45 0 -80.5 -4
t-80.5 -14l-14 79q50 9 88 14t87 5zM842 489l68 -43q-22 -39 -37.5 -72.5t-29.5 -78.5l-74 32q17 47 32.5 82.5t40.5 79.5zM1593 1238l75 -28q-16 -43 -24.5 -77t-14.5 -80l-78 14q8 49 17 86.5t25 84.5zM840 933q3 -86 60 -150.5t159 -101t241 -36.5t241 36.5t159 101
t60 150.5h-81q0 -59 -46 -106t-130.5 -74.5t-202.5 -27.5q-117 0 -202 27.5t-131 74.5t-46 106h-81zM1300 889q205 0 312.5 -61t107.5 -146q0 -86 -107.5 -146.5t-312.5 -60.5t-312.5 60.5t-107.5 146.5q0 85 107.5 146t312.5 61zM1964 1086q19 -48 29 -85t20 -86l-80 -12
q-7 44 -17.5 79t-27.5 80zM1280 335q44 -18 79.5 -28t78.5 -17l-12 -80q-49 10 -85.5 20t-84.5 28zM1822 494q18 -47 29 -84.5t21 -86.5l-80 -12q-8 44 -18 79.5t-28 79.5zM2074 652l67 -43q-24 -44 -45.5 -76t-52.5 -72l-61 54q29 34 49.5 64.5t42.5 72.5z" />
</svg>