<?xml version="1.0" standalone="no"?>
<!DOCTYPE svg PUBLIC "-//W3C//DTD SVG 1.1//EN" "http://www.w3.org/Graphics/SVG/1.1/DTD/svg11.dtd">
<svg xmlns="http://www.w3.org/2000/svg" xmlns:xlink="http://www.w3.org/1999/xlink" version="1.1"
   viewBox="94 -151 2414 2169">
   <path fill="currentColor"
      d="M1300 1978q-213 0 -399 -81t-327 -224t-220 -331.5t-79 -403.5t79 -403.5t220 -331.5t327 -224t399 -81t399 81t327 224t220 331.5t79 403.5t-79 403.5t-220 331.5t-327 224t-399 81zM1285 1492l-10 -79q39 -4 75 -18t64 -32l44 64q-73 50 -173 65zM1300 1314
q-161 0 -282 -96l53 -64q97 80 229 80t229 -80l53 64q-121 96 -282 96zM872 889q-39 0 -69 -25.5t-30 -77.5q0 -59 39 -94.5t104 -35.5q72 0 131.5 48.5t81.5 138.5l-57 12q-22 -32 -46.5 -52.5t-50.5 -20.5q-8 0 -12 8t-4 16q0 25 -17 54t-70 29zM1300 1898
q196 0 367.5 -74.5t301 -206.5t203 -306t73.5 -373t-73 -373t-203 -306t-301 -206.5t-368 -74.5q-196 0 -367.5 74.5t-301.5 206.5t-203 306t-73 373t73 373t203 306t301.5 206.5t367.5 74.5zM1292 1121q-38 0 -83 -17l26 -74q36 11 57 11q20 0 32.5 -12.5t12.5 -29.5
q0 -43 -23 -82t-46 -83t-23 -100q0 -45 22 -85t57 -61l37 72q-16 10 -26 31t-10 43q0 37 23 77.5t46 86.5t23 101t-34.5 88.5t-90.5 33.5zM1572 889q-39 0 -69 -25.5t-30 -77.5q0 -59 39 -94.5t104 -35.5q72 0 131.5 48.5t81.5 138.5l-57 12q-22 -32 -46.5 -52.5
t-50.5 -20.5q-8 0 -12 8t-4 16q0 25 -17 54t-70 29z" />
</svg>