<?xml version="1.0" standalone="no"?>
<!DOCTYPE svg PUBLIC "-//W3C//DTD SVG 1.1//EN" "http://www.w3.org/Graphics/SVG/1.1/DTD/svg11.dtd">
<svg xmlns="http://www.w3.org/2000/svg" xmlns:xlink="http://www.w3.org/1999/xlink" version="1.1"
   viewBox="94 -151 2414 2169">
   <path fill="currentColor"
      d="M424 1978q-71 0 -117.5 -46t-46.5 -116v-1755q0 -71 46 -117t117 -46h1754q71 0 117 46t46 117v1754q0 71 -46 117t-117 46h-1753zM424 1898h1753q38 0 60.5 -22.5t22.5 -60.5v-596h-1920v597q0 37 23 59.5t61 22.5zM764 1078l-454 -88v-175l468 184q-4 14 -8 36.5
t-6 42.5zM340 1139h1920v-1078q0 -38 -22.5 -60.5t-60.5 -22.5h-1754q-37 0 -60 22.5t-23 60.5v1078zM823 1156v-9v-8q0 -137 64 -247t172 -174.5t241 -64.5t241 64.5t172 174.5t64 247v8v9h-80v-9v-8q0 -114 -53 -206t-142.5 -146t-201.5 -54q-111 0 -201.5 54t-143.5 146
t-53 206v8v9h-79zM799 933l-488 -276v-202l526 400q-21 37 -38 78zM877 798l-569 -578q0 -85 13 -136t41 -80l578 726q-16 15 -32.5 32.5t-30.5 35.5zM984 695l-468 -749h217l325 704q-18 9 -36.5 20t-37.5 25zM1117 625l-204 -681h175l119 657q-25 4 -47 10t-43 14z
M1369 597q-18 -2 -35 -3t-35 -1h-15.5t-16.5 1l-25 -650h157zM1836 1091q-1 -20 -4 -40.5t-10 -46.5l472 -153v171zM1512 636q-22 -10 -45 -17t-48 -13l136 -659l178 2zM1805 946q-8 -21 -17.5 -42.5t-21.5 -41.5l529 -394v209zM1635 709q-18 -14 -35.5 -25.5t-36.5 -21.5
l324 -712h192zM1737 817q-13 -19 -28 -36.5t-32 -33.5l599 -734q19 20 19 51v194zM677 1566q-16 0 -27 -11.5t-11 -27.5q0 -17 11 -28.5t27 -11.5h123q16 0 27 11.5t11 28.5q0 16 -11 27.5t-27 11.5h-123zM547 1408q-16 0 -27 -11t-11 -28t11 -28t27 -11h123q16 0 27 11
t11 28t-11 28t-27 11h-123zM1307 1643q-16 0 -27 -10t-11 -25q0 -7 2 -14t11 -16h-206q-16 0 -27 -11.5t-11 -27.5q0 -17 11 -28.5t27 -11.5h473q16 0 27 11.5t11 28.5q0 16 -11 27.5t-27 11.5h-94q9 9 11 16t2 14q0 15 -11 25t-27 10h-123zM886 1398q-16 0 -27 -11t-11 -28
t11 -28t27 -11h843q16 0 27 11t11 28t-11 28t-27 11h-843zM1947 1408q-16 0 -27 -11t-11 -28t11 -28t27 -11h123q16 0 27 11t11 28t-11 28t-27 11h-123z" />
</svg>