<?xml version="1.0" standalone="no"?>
<!DOCTYPE svg PUBLIC "-//W3C//DTD SVG 1.1//EN" "http://www.w3.org/Graphics/SVG/1.1/DTD/svg11.dtd">
<svg xmlns="http://www.w3.org/2000/svg" xmlns:xlink="http://www.w3.org/1999/xlink" version="1.1"
   viewBox="94 -151 2414 2169">
   <path fill="currentColor"
      d="M651 661q66 0 131.5 -33t120 -87t87.5 -119.5t33 -131.5q0 -70 -36.5 -129.5t-95.5 -96t-128 -36.5q-66 0 -132.5 33t-121 87t-87.5 119.5t-33 131.5q0 69 37 128.5t96.5 96.5t128.5 37zM650 741q-89 0 -167 -47.5t-126 -125t-48 -166.5q0 -82 39.5 -162.5t105.5 -146.5
t147 -105.5t163 -39.5q89 0 166.5 47.5t125 124.5t47.5 165q0 86 -38.5 167.5t-103 146.5t-145.5 103.5t-166 38.5zM1592 1673q-94 0 -173.5 -48t-127.5 -127t-48 -172q0 -82 38 -161t101.5 -143t143 -102t161.5 -38q94 0 173 48t127 127t48 173q0 82 -38 160.5
t-101.5 142.5t-142.5 102t-161 38zM1102 1129q66 0 131.5 -33t120 -87t87.5 -119.5t33 -131.5q0 -70 -36.5 -129.5t-95.5 -96t-128 -36.5q-66 0 -132.5 33t-121 87t-87.5 119.5t-33 131.5q0 69 37 128.5t96.5 96.5t128.5 37zM1419 1414q34 0 34 -33q0 -12 -4.5 -24t-4.5 -28
q0 -21 9 -36.5t9 -28.5q0 -17 -11.5 -28t-26.5 -11q-22 0 -37 29.5t-15 72.5q0 40 13 63.5t34 23.5zM1009 944q-21 0 -34 -23.5t-13 -63.5q0 -43 15 -72.5t37 -29.5q15 0 26.5 11t11.5 28q0 13 -9 28.5t-9 36.5q0 16 4.5 28t4.5 24q0 33 -34 33zM558 476q-21 0 -34 -23.5
t-13 -63.5q0 -43 15 -72.5t37 -29.5q15 0 26.5 11t11.5 28q0 13 -9 28.5t-9 36.5q0 16 4.5 28t4.5 24q0 33 -34 33zM1101 1209q-90 0 -167.5 -47.5t-125.5 -125t-48 -166.5q0 -82 39.5 -162.5t105.5 -146.5t147 -105.5t163 -39.5q89 0 166.5 47.5t125 124.5t47.5 165
q0 86 -38.5 167.5t-103 146.5t-145.5 103.5t-166 38.5zM443 195l-183 -225l72 -72l225 183zM2231 1978l-458 -457l109 -110l458 457z" />
</svg>