<?xml version="1.0" standalone="no"?>
<!DOCTYPE svg PUBLIC "-//W3C//DTD SVG 1.1//EN" "http://www.w3.org/Graphics/SVG/1.1/DTD/svg11.dtd">
<svg xmlns="http://www.w3.org/2000/svg" xmlns:xlink="http://www.w3.org/1999/xlink" version="1.1"
   viewBox="94 -151 2414 2169">
   <path fill="currentColor"
      d="M1323 1978q-140 0 -198.5 -91.5t-58.5 -302.5q-179 -11 -317.5 -110.5t-217 -268t-78.5 -385.5q0 -191 67.5 -294t189.5 -103q103 0 150 74.5t47 206.5q0 64 -6 131.5t-6 129.5q0 97 41 147.5t116 61.5v-151q0 -61 -7 -144t-16.5 -173.5t-16.5 -173.5t-7 -144
q0 -200 85 -300t233 -100q139 0 217 86t78 261q0 52 -3.5 130t-9.5 165.5t-12 169t-11 141.5q15 9 34.5 13.5t34.5 4.5q34 0 55 -23t21 -60q0 -80 -6.5 -147.5t-6.5 -145.5q0 -237 206 -237q120 0 171.5 87t51.5 282q0 185 -58 328.5t-161 224.5t-237 81q-49 0 -100 -12v267
q0 197 -62 285.5t-202 88.5zM592 1420q-17 0 -17 -25q0 -18 8 -39q-12 5 -22 7t-18 2q-24 0 -24 -17q0 -11 14 -25q25 -25 72 -25q8 0 16.5 1t16.5 3q3 12 3 27q0 33 -13.5 62t-35.5 29zM1025 1798q-33 0 -33 -19q0 -20 44 -40q-43 -20 -43 -40q0 -19 32 -19q23 0 48 16.5
t41 42.5q-16 26 -41 42.5t-48 16.5zM441 1084q-32 0 -32 -19q0 -20 44 -40q-44 -20 -44 -40q0 -19 32 -19q23 0 48 16t41 42q-16 27 -41 43.5t-48 16.5zM466 750q-47 0 -72 -25q-14 -14 -14 -25q0 -17 24 -17q8 0 18 2t22 7q-8 -21 -8 -39q0 -25 17 -25q22 0 35.5 29
t13.5 62q0 15 -3 27q-8 2 -16.5 3t-16.5 1zM645 910q-47 0 -72 -25q-14 -14 -14 -25q0 -17 24 -17q8 0 18 2t22 7q-8 -21 -8 -39q0 -25 17 -25q22 0 35.5 29t13.5 62q0 15 -3 27q-8 2 -16.5 3t-16.5 1zM1621 1798q-22 0 -47 -16.5t-42 -42.5q17 -26 42 -42.5t47 -16.5
q32 0 32 19q0 20 -43 40q44 20 44 40q0 19 -33 19zM1109 1410q-232 0 -349.5 -143.5t-117.5 -425.5q0 -168 42 -384l58 12q-41 217 -41 375q0 254 102 379.5t307 125.5q61 0 124 -10l8 60q-74 11 -133 11zM1022 1068q-32 0 -32 -19q0 -20 44 -40q-44 -20 -44 -40
q0 -19 32 -19q23 0 48 16.5t41 42.5q-16 26 -41 42.5t-48 16.5zM1641 1548q-22 0 -47 -16.5t-42 -42.5q17 -26 42 -42.5t47 -16.5q32 0 32 19q0 20 -43 40q44 20 44 40q0 19 -33 19zM1218 1920q0 -316 -5 -560t-12 -437q-4 -128 -7 -236.5t-3 -202.5q0 -134 7.5 -248.5
t28.5 -223.5l59 11q-20 106 -28 217.5t-8 242.5q0 94 3 201t7 235q7 192 12.5 437.5t5.5 563.5h-60zM712 476q-26 -16 -42.5 -41t-16.5 -48q0 -33 19 -33q20 0 40 44q20 -44 40 -44q19 0 19 33q0 23 -16.5 48t-42.5 41zM1323 1898q101 0 142.5 -64t41.5 -230v-381
q99 46 180 46q110 0 195 -70.5t133 -195.5t48 -288q0 -165 -31.5 -227t-111.5 -62q-67 0 -96.5 36t-29.5 121q0 76 6.5 146.5t6.5 146.5q0 70 -44.5 116.5t-111.5 46.5q-86 0 -149 -58q4 -51 10 -140t12 -189t10 -186t4 -131q0 -143 -55.5 -205t-159.5 -62q-111 0 -174.5 76
t-63.5 244q0 58 7 140.5t16.5 173t16.5 174.5t7 147v231q-10 1 -20.5 1.5t-20.5 0.5q-130 0 -203 -74.5t-73 -216.5q0 -31 3 -83t6 -102.5t3 -75.5q0 -101 -26 -151t-91 -50q-84 0 -130.5 79t-46.5 238q0 204 75.5 358t213 240.5t324.5 86.5v79q0 121 16.5 189.5t55.5 96.5
t105 28zM1350 1920q0 -317 5.5 -561t12.5 -435q5 -131 7.5 -241t2.5 -205q0 -131 -8 -241t-28 -215l59 -11q21 111 28.5 225.5t7.5 251.5q0 93 -2 200t-7 233q-7 192 -12.5 437t-5.5 562h-60zM962 358q-32 0 -32 -19q0 -20 44 -40q-44 -20 -44 -40q0 -19 32 -19
q23 0 48 16.5t41 42.5q-16 26 -41 42.5t-48 16.5zM1265 630q-8 0 -16.5 -1t-16.5 -3q-3 -12 -3 -27q0 -33 13.5 -62t35.5 -29q17 0 17 25q0 18 -8 39q12 -5 22 -7t18 -2q24 0 24 17q0 11 -14 25q-25 25 -72 25zM1975 1326q-22 0 -36 -32t-14 -61q0 -19 4 -32q40 0 80 13
t40 40q0 8 -8.5 12.5t-18.5 4.5q-14 0 -38 -9q8 21 8 38q0 10 -3.5 18t-13.5 8zM1660 1200q-68 0 -136 -29.5t-143 -83.5l36 -48q67 48 125 74t116 26q116 0 185.5 -104.5t69.5 -301.5q0 -84 -13 -165t-44 -181l58 -14q31 102 44.5 184t13.5 169q0 224 -86 349t-226 125z
M2160 1014q-23 0 -48 -16.5t-42 -43.5q17 -26 42 -42t48 -16q31 0 31 18q0 21 -43 41q44 20 44 40q0 19 -32 19zM1322 32q-28 -17 -46.5 -45t-18.5 -53q0 -36 21 -36q23 0 44 48q21 -48 44 -48q21 0 21 36q0 25 -18 53t-47 45zM1606 230q-8 0 -16.5 -1t-16.5 -3
q-4 -13 -4 -31q0 -30 15 -58.5t35 -28.5q17 0 17 25q0 18 -8 39q12 -5 22 -7t18 -2q24 0 24 17q0 22 -28.5 36t-57.5 14zM2134 630q-8 0 -16.5 -1t-16.5 -3q-3 -12 -3 -27q0 -33 13.5 -62t35.5 -29q17 0 17 25q0 18 -8 39q12 -5 22 -7t18 -2q24 0 24 17q0 11 -14 25
q-25 25 -72 25zM1924 386q-26 -16 -42.5 -41t-16.5 -48q0 -33 19 -33q20 0 40 44q20 -44 40 -44q19 0 19 33q0 23 -16.5 48t-42.5 41z" />
</svg>