<?xml version="1.0" standalone="no"?>
<!DOCTYPE svg PUBLIC "-//W3C//DTD SVG 1.1//EN" "http://www.w3.org/Graphics/SVG/1.1/DTD/svg11.dtd">
<svg xmlns="http://www.w3.org/2000/svg" xmlns:xlink="http://www.w3.org/1999/xlink" version="1.1"
   viewBox="94 -151 2414 2169">
   <path fill="currentColor"
      d="M1276 1978q-310 0 -545.5 -128t-386.5 -383q-22 -39 -10.5 -71t42 -47t62.5 -2q70 26 145.5 39t161.5 13q140 0 242.5 -23t127.5 -58q8 -11 10 -22q7 -34 30 -52q9 -8 22.5 -15t24.5 -10q12 -3 21 -8.5t9 -14.5t-27.5 -29.5t-55 -54t-27.5 -82.5q0 -46 27 -74t85 -41
q132 -29 205.5 -124.5t73.5 -244.5q0 -81 -27 -174t-75.5 -181t-111.5 -154q-41 -44 -19 -91.5t93 -47.5q143 0 276 56t246 156.5t197 235.5t131 294.5t47 332.5q0 219 -73 402.5t-206.5 318.5t-315.5 209.5t-399 74.5zM1322 1425q-92 0 -179 -85l57 -56q32 31 61.5 46
t60.5 15q82 0 164 -44l38 70q-99 54 -202 54zM1276 1898q201 0 368 -68t289.5 -192t189.5 -293.5t67 -371.5q0 -160 -44 -307.5t-122 -272.5t-180.5 -218t-220.5 -145t-242 -52q-12 0 -15 8t7 19q59 59 109 151.5t80.5 195.5t30.5 194q0 177 -91 294.5t-251 152.5
q-27 6 -39 16t-12 29q0 35 28 58t56 45.5t28 54.5q0 34 -26 63.5t-64 37.5q-7 1 -13 7q-4 4 -7 12q-11 32 -21 46q-41 57 -157 87t-279 30q-61 0 -118.5 -5.5t-106.5 -17t-86 -27.5q-9 -4 -14.5 2.5t-1.5 13.5q138 218 353 335.5t505 117.5zM1744 1004q-40 0 -63.5 -26.5
t-23.5 -67.5q0 -49 31.5 -79t81.5 -30q62 0 103 43t56 123l-48 11q-12 -34 -23 -51t-25 -17q-11 0 -11 18q0 28 -17 52t-61 24z" />
</svg>