<?xml version="1.0" standalone="no"?>
<!DOCTYPE svg PUBLIC "-//W3C//DTD SVG 1.1//EN" "http://www.w3.org/Graphics/SVG/1.1/DTD/svg11.dtd">
<svg xmlns="http://www.w3.org/2000/svg" xmlns:xlink="http://www.w3.org/1999/xlink" version="1.1"
   viewBox="94 -151 2414 2169">
   <path fill="currentColor"
      d="M434 1978q-70 0 -122 -51.5t-52 -121.5v-1734q0 -71 51.5 -122t121.5 -51h1734q71 0 122 51t51 122v1733q0 71 -51 122.5t-122 51.5h-1733zM586 1158v-201h60v201h-60zM1304 1404q-107 -99 -241 -99q-50 0 -115.5 15.5t-145.5 59.5q-86 -107 -169.5 -153t-178.5 -46
q-61 0 -118 14l-19 -78q70 -16 137 -16q104 0 193.5 43.5t174.5 135.5q61 -27 122 -41t119 -14q194 0 346 172zM812 1287v-152h60v152h-60zM943 1285v-526h60v526h-60zM1073 1285v-328h60v328h-60zM757 1903q92 -261 277.5 -392t440.5 -131h14.5t22.5 1q116 -179 259 -269
t313 -90q101 0 204 34l-25 76q-46 -15 -89 -22.5t-90 -7.5q-162 0 -292 91.5t-237 268.5q-40 -2 -54.5 -2h-25.5q-226 0 -390.5 115.5t-241.5 327.5h-86zM1333 1431v-622l60 -60v682h-60zM1203 1319v-768h60v768h-60zM434 1898h1733q38 0 65.5 -28t27.5 -66v-1733
q0 -38 -27.5 -65.5t-65.5 -27.5h-1734q-37 0 -65 27.5t-28 65.5v1734q0 37 28.5 65t65.5 28zM327 1044v-68q83 0 194.5 -38.5t235.5 -104.5t245 -149.5t224.5 -174.5t174 -180t91.5 -165h68q12 26 34 68.5t50.5 86.5t58.5 77q57 61 132 126.5t157 127.5t161.5 112.5
t145.5 81.5l-24 67q-76 -36 -176.5 -107.5t-209 -166t-209.5 -199.5q-39 -41 -83 -96t-68 -92q-40 81 -120 170.5t-186 179t-226 169t-241.5 142t-232 98t-196.5 35.5zM688 1215l-88 -46q147 -44 300.5 -121t297.5 -177.5t264 -217t199 -237.5q50 -77 68 -124.5t18 -111.5
l76 -15q91 130 216.5 244t270.5 216l-33 66q-142 -102 -259.5 -217.5t-210.5 -243.5q-12 39 -39.5 92t-76.5 128q-77 120 -189 235t-246 217t-279 182.5t-289 130.5zM1553 949h203v-259h-203v259zM1473 1425v-825h18v-438h110v68q39 6 56 6q27 0 52 -7t38 -20v-44h76v432h13
v487l-80 100v-145h-203v309zM1947 1062v-383h60v383h-60zM1566 600h182v-259h-182v259zM2087 1062v-532h60v532h-60zM1528 166q0 -55 30 -55t30 55h-60zM1760 166q0 -55 29 -55q28 0 28 55h-57z" />
</svg>