<?xml version="1.0" standalone="no"?>
<!DOCTYPE svg PUBLIC "-//W3C//DTD SVG 1.1//EN" "http://www.w3.org/Graphics/SVG/1.1/DTD/svg11.dtd">
<svg xmlns="http://www.w3.org/2000/svg" xmlns:xlink="http://www.w3.org/1999/xlink" version="1.1"
   viewBox="94 -151 2414 2169">
   <path fill="currentColor"
      d="M1301 1450q-142 0 -258.5 -69.5t-186 -186.5t-69.5 -259t69.5 -258.5t186 -186t258.5 -69.5q143 0 259.5 69.5t186 186t69.5 258.5t-69.5 259t-186 186.5t-259.5 69.5zM700 558l-177 -92l27 -54l177 92zM711 670q67 0 122.5 -30.5t89 -83t33.5 -118.5q0 -44 -8.5 -80.5
t-33 -77.5t-70.5 -96.5t-121 -136.5q-29 47 -76 84q-37 28 -78.5 39.5t-77 21t-56.5 34.5q-20 24 -24.5 56.5t-8 68t-23.5 69.5q-14 25 -31.5 47.5t-45.5 48.5q66 26 133.5 62.5t136.5 64t139 27.5zM960 1255l-56 -56q323 -325 368 -748l80 8q-48 454 -392 796zM705 750
q-85 0 -173.5 -37.5t-179.5 -85t-184 -76.5q50 -54 89.5 -99t55.5 -79q15 -30 18.5 -67t11 -72.5t33.5 -60.5q29 -27 67.5 -41t77 -25.5t66.5 -30.5q29 -19 49.5 -44t40 -58t43.5 -76q50 84 104.5 146.5t103 118t78.5 116.5t30 143q0 90 -46 164.5t-121.5 119t-163.5 44.5z
M1873 1627l-107 -169l51 -32l107 169zM1301 1370q122 0 220.5 -59t156.5 -158t58 -218t-58 -217.5t-156.5 -157.5t-220.5 -59q-121 0 -219.5 59t-156.5 157.5t-58 217.5t58 218t156.5 158t219.5 59zM1206 1413l-52 -60q112 -97 197 -225t137 -273t64 -293l80 6
q-13 158 -69 313t-147 291.5t-210 240.5zM783 450l-107 -169l51 -32l107 169zM1880 1978q-49 -84 -104 -146.5t-103.5 -118t-78.5 -116.5t-30 -143q0 -90 46 -164.5t121.5 -119t163.5 -44.5q85 0 173.5 37.5t179.5 85t184 76.5q-49 54 -88.5 99t-56.5 79q-14 30 -17.5 67
t-11 72.5t-34.5 60.5q-29 27 -67.5 41t-76.5 25.5t-67 30.5q-28 19 -49 44t-40 58t-44 76zM1877 1829q29 -47 76 -84q38 -29 79 -40t77 -21t56 -34q21 -25 25 -57t8 -67.5t23 -69.5q14 -26 31.5 -48.5t45.5 -47.5q-65 -26 -133 -62.5t-137 -64t-139 -27.5q-67 0 -122.5 30.5
t-89 82.5t-33.5 119q0 43 8.5 80t33 78t70.5 96.5t121 136.5zM2050 1464l-177 -92l27 -54l177 92z" />
</svg>