<?xml version="1.0" standalone="no"?>
<!DOCTYPE svg PUBLIC "-//W3C//DTD SVG 1.1//EN" "http://www.w3.org/Graphics/SVG/1.1/DTD/svg11.dtd">
<svg xmlns="http://www.w3.org/2000/svg" xmlns:xlink="http://www.w3.org/1999/xlink" version="1.1"
   viewBox="94 -151 2414 2169">
   <path fill="currentColor"
      d="M339 1978q-31 0 -50 -15t-19 -43q0 -14 11 -33.5t36 -57.5q91 -137 138 -238t47 -148h1596q0 48 47 148.5t138 237.5q26 38 36.5 57.5t10.5 33.5q0 28 -18.5 43t-50.5 15h-1922zM452 1907h17q19 0 24 -18t5 -50q0 -79 -24 -79q-8 0 -29.5 26t-40 55.5t-18.5 40.5
q0 12 17.5 18.5t48.5 6.5zM584 1903q23 0 37 -11.5t20 -26.5q0 -31 -19.5 -49.5t-36.5 -18.5q-51 0 -51 36q0 24 16 47t34 23zM698 1907q26 0 48.5 -11.5t22.5 -25.5q0 -11 -19 -24.5t-33 -13.5q-13 0 -26 21.5t-13 38.5q0 15 20 15zM576 1765q44 0 57 -12t13 -51
q0 -8 -2 -20q-4 -8 -20 -23t-23 -19q-25 2 -51.5 11.5t-37.5 20.5q-1 8 -1 18q0 49 11.5 62t53.5 13zM513 1614q30 0 64.5 -13t34.5 -27q0 -9 -8.5 -13.5t-15.5 -11.5l-38 -39zM837 1913h91q35 0 35 -27q0 -9 -21 -23.5t-47 -25.5t-41 -11q-22 0 -37 19t-15 36q0 11 7 21.5
t28 10.5zM745 1818q15 0 25.5 -9.5t17.5 -9.5q6 0 17.5 5.5t20.5 5.5q21 0 34.5 -23.5t20.5 -54.5t7 -55q0 -65 -60 -65q-31 0 -51.5 5.5t-30.5 17.5q-17 21 -38.5 62t-21.5 64q0 16 21.5 36.5t37.5 20.5zM698 1643q28 0 36 -51q3 -6 3 -14q0 -12 -17 -19t-41 -7
q-30 0 -30 31q0 22 15.5 41t33.5 19zM657 1533q13 0 26 -8t17 -21h-80q1 11 12.5 20t24.5 9zM956 1834q8 0 20.5 -16.5t23 -36.5t10.5 -30q0 -16 -19 -32.5t-37 -16.5q-13 0 -32.5 32.5t-19.5 50.5q0 11 21 30t33 19zM1008 1913h169q17 0 17 -14q0 -8 -6.5 -19.5
t-20.5 -31.5q-19 -27 -35 -39.5t-33 -12.5q-20 0 -45 18t-43 42.5t-18 43.5q0 13 15 13zM952 1685q10 0 20.5 -15t10.5 -28q0 -12 -17.5 -23t-34.5 -11q-18 0 -18 34q0 18 11.5 30.5t27.5 12.5zM837 1578q42 0 57.5 -2t21.5 -5q5 -8 7 -25.5t2 -42.5h-156q0 29 7 38
q3 17 19.5 27t41.5 10zM1058 1777q5 0 18.5 -5.5t21.5 -10.5q29 0 41 -4.5t12 -17.5q0 -20 -19 -51t-32 -31q-22 0 -49 25t-27 46q0 10 13 29.5t21 19.5zM1040 1642q15 0 15 -25q0 -12 -1.5 -22.5t-1.5 -16.5q0 -5 8.5 -16.5t8.5 -21.5q0 -18 -33 -18q-20 0 -47.5 19
t-27.5 34q0 10 15 26t34 28.5t30 12.5zM1257 1875q10 0 16 -1q42 -35 42 -52q0 -11 -7.5 -32t-15.5 -32q-15 -10 -32.5 -18t-32.5 -8q-13 0 -23.5 10.5t-11.5 22.5q-10 17 -10 33q0 26 24.5 51.5t50.5 25.5zM1286 1913h106l-33 -26q-6 -16 -22 -16q-10 0 -26.5 14.5
t-24.5 27.5zM808 1393v-75h66v75h-66zM1153 1634q12 0 20.5 -3.5t12.5 -10.5q13 -22 13 -36q0 -27 -21 -44t-26 -17q-16 0 -39 30t-23 50q0 10 21.5 20.5t41.5 10.5zM1264 1715q21 0 34 -18t13 -44q-4 -13 -24 -19.5t-36 -6.5q-29 0 -56 17.5t-27 36.5q0 11 6 16.5t11 5.5
q19 -6 35 -6q11 0 21.5 9t22.5 9zM1444 1902q12 0 22 -13t10 -26q0 -12 -17 -33.5t-29 -33.5q-11 -11 -26 -18t-26 -7q-7 0 -14 4q-9 7 -9 28q0 22 12 39q14 19 40 39.5t37 20.5zM944 1393v-75h66v75h-66zM1341 1754q9 0 20 -9.5t21 -25.5q8 -5 20 -16.5t12 -21.5
q0 -8 -10 -11t-24 -3q-25 0 -32 4q-10 4 -22 22t-12 28q0 14 7 23.5t20 9.5zM1555 1913q9 0 22.5 -16.5t24 -37t10.5 -32.5q0 -6 -11 -18.5t-19 -12.5q-16 0 -38 29.5t-22 49.5q0 15 10 26.5t23 11.5zM1518 1813q10 0 17 -8.5t7 -20.5q0 -14 -14 -33.5t-32 -35t-31 -15.5
q-10 0 -28 13t-18 22q0 18 47 47q8 8 23.5 19.5t28.5 11.5zM1266 1580q20 0 46 -23t26 -41q0 -13 -11 -13h-112q-8 0 -8 9q0 6 7 16q5 7 18.5 29.5t33.5 22.5zM1599 1913h88q-1 -17 -14 -37t-24 -20t-25.5 16.5t-24.5 40.5zM1459 1654q6 0 26.5 -12.5t20.5 -33.5
q0 -26 -39 -49.5t-79 -23.5q-8 0 -25.5 16t-32 33t-14.5 21q0 14 19.5 27.5t39.5 13.5h22q18 0 35.5 1.5t26.5 6.5zM1581 1768q23 0 42 -29.5t19 -45.5q0 -17 -14 -29.5t-34 -12.5q-12 0 -21 3q-10 1 -30 10t-20 22q0 7 10 22.5t17 24.5q10 35 31 35zM1199 1393v-75h66v75
h-66zM1754 1898q26 0 51.5 -29.5t25.5 -60.5q0 -26 -15.5 -39.5t-47.5 -14.5q-10 -11 -33.5 -27.5t-35.5 -16.5q-19 0 -36.5 20t-17.5 42q0 25 18 54.5t43.5 50.5t47.5 21zM1554 1638q27 0 27 -30q0 -21 -12 -21q-11 0 -26.5 14.5t-15.5 25.5q0 5 10 8t17 3zM1814 1913h101
q-16 -51 -49 -51q-11 0 -26.5 15t-25.5 36zM1540 1566q23 0 37.5 -20t26.5 -43h-153q10 18 38 40.5t51 22.5zM1335 1393v-75h66v75h-66zM499 1482v-150l-127 -98q-42 -32 -61.5 -56.5t-19.5 -49.5q0 -35 30.5 -51.5t76.5 -16.5q37 0 67 -14.5t43 -27.5l59 -56h1466l59 56
q14 13 43.5 27.5t66.5 14.5q47 0 77 16.5t30 51.5q0 25 -19.5 49.5t-61.5 56.5l-127 98v150h-80v-216h-1442v216h-80zM1680 1641q13 0 33.5 -21.5t20.5 -33.5q0 -8 -21 -29.5t-30 -28.5q-6 -1 -13.5 -1.5t-15.5 -0.5t-13.5 1t-10.5 3q-3 4 -12.5 27.5t-9.5 37.5
q0 13 27 29.5t45 16.5zM1974 1913h50q33 0 33 -23q0 -19 -17.5 -42t-32.5 -23t-41.5 24t-26.5 38q0 10 10.5 18t24.5 8zM1819 1736q26 0 50.5 -20.5t24.5 -41.5q0 -13 -12.5 -22t-29.5 -9q-26 0 -42 -6.5t-28 -13.5q-22 0 -33.5 14t-11.5 31q0 25 26 46.5t56 21.5z
M1914 1840q11 0 32.5 -14t39 -31.5t17.5 -25.5q0 -17 -14.5 -45.5t-25.5 -28.5q-14 0 -36 14.5t-31 25.5q-10 22 -17 43t-7 30q0 7 16.5 19.5t25.5 12.5zM511 1188h1598q20 0 47.5 -9.5t52.5 -19.5q9 -4 7 -12t-11 -9q-37 -3 -75 -11.5t-59 -26.5l-71 -60h-1400l-56 48
q-28 24 -69.5 37t-79.5 13q-9 0 -11 8t7 13q24 12 58 20.5t62 8.5zM1764 1586q13 0 31 -16t18 -28q0 -10 -18 -15t-41 -5q-16 0 -16 22q0 42 26 42zM1192 989v-88h38v88h-38zM1590 1393v-75h66v75h-66zM2101 1906q31 0 65 -1t65 -6q-4 -10 -12 -22.5t-16 -22.5
q-17 3 -51.5 10.5t-48.5 15.5q-9 7 -9 17q0 9 7 9zM1863 1610q17 0 36.5 -20.5t19.5 -38.5q0 -8 -13.5 -16.5t-25.5 -8.5q-7 0 -22.5 12.5t-28 27t-12.5 22.5q0 22 46 22zM2096 1845q15 0 45 -7t43 -13l-37 -64q-10 -2 -15.5 -2h-10.5q-16 0 -46 13.5t-30 27.5
q0 16 16.5 30.5t34.5 14.5zM1993 1662q11 -14 19.5 -28t8.5 -18q0 -7 -3.5 -15.5t-7.5 -11.5q-13 -7 -32.5 -12.5t-25.5 -5.5q-13 7 -22.5 19t-9.5 20q0 15 7.5 29t15.5 20q14 1 25 2t25 1zM1280 989v-88h40v88h-40zM2054 1752q14 0 35 -16.5t35 -38.5l-30 -56
q-2 -5 -13.5 -8.5t-18.5 -3.5q-15 0 -31.5 22.5t-16.5 42.5q0 22 12 40t28 18zM1726 1393v-75h66v75h-66zM1370 989v-88h38v88h-38zM2012 1556q14 0 27 -14t13 -28q0 -11 -9 -11h-112q0 19 27.5 36t53.5 17zM859 986q110 -80 187.5 -142t139.5 -130l30 -33q33 -37 50 -49
t34 -12t34 12t50 49l30 33q62 68 139.5 130t187.5 142h-124q-42 -25 -106 -78.5t-129 -117.5l-82 -81l-82 81q-65 64 -129 117.5t-106 78.5h-124zM730 993v-89l-132 -94q-37 -27 -56.5 -51t-19.5 -49q0 -35 30 -56.5t76 -21.5q59 0 95 -27t71 -77h1012q35 50 71.5 77
t94.5 27q47 0 76.5 21.5t29.5 56.5q0 25 -19 49t-57 51l-132 94v89h-80v-149h-329v-78h397q21 0 48.5 -8.5t55.5 -20.5q14 -6 12.5 -15t-15.5 -10q-57 -6 -111.5 -38t-76.5 -68h-942q-22 36 -76.5 68t-111.5 38q-14 1 -15.5 10t12.5 15q28 12 55.5 20.5t48.5 8.5h397v78
h-329v149h-80zM1145 477v-60h63v60h-63zM1268 477v-60h64v60h-64zM975 150q-28 0 -47 -20.5t-19 -51.5q0 -36 1.5 -58.5t1.5 -35.5q0 -18 -10 -30t-22 -16q2 -17 15 -28.5t32 -11.5q27 0 41 24q13 -24 39 -24q19 0 32.5 10.5t14.5 26.5q-35 12 -35 58q0 22 10.5 42t10.5 43
q0 31 -19 51.5t-46 20.5zM1392 477v-60h63v60h-63zM892 578v-111l-146 -93q-32 -20 -49.5 -40.5t-17.5 -45.5q0 -35 30.5 -56.5t76.5 -21.5q32 0 55.5 -11t38.5 -33l78 -119h684l78 119q15 22 39 33t55 11q47 0 77 21.5t30 56.5q0 25 -17.5 45.5t-49.5 40.5l-146 93v111h-80
v-163h-57q-24 0 -36.5 -6t-35.5 -25l-80 -68h-238l-80 68q-22 19 -35 25t-37 6h-57v163h-80zM899 340h78q32 0 45 -2.5t23 -11.5l101 -88h308l101 88q11 9 23.5 11.5t44.5 2.5h78q21 0 50.5 -7.5t56.5 -15.5q14 -5 13 -18t-17 -16q-49 -10 -84 -23t-55 -42l-65 -93h-600
l-65 93q-20 29 -54.5 42t-84.5 23q-16 3 -17 16t13 18q27 8 56.5 15.5t50.5 7.5zM1626 150q-27 0 -46 -20.5t-19 -51.5q0 -23 10.5 -43t10.5 -42q0 -46 -35 -58q2 -16 15 -26.5t32 -10.5q26 0 39 24q14 -24 41 -24q19 0 32.5 11.5t14.5 28.5q-12 4 -22 16t-10 30
q0 13 1.5 35.5t1.5 58.5q0 31 -19 51.5t-47 20.5z" />
</svg>