<?xml version="1.0" standalone="no"?>
<!DOCTYPE svg PUBLIC "-//W3C//DTD SVG 1.1//EN" "http://www.w3.org/Graphics/SVG/1.1/DTD/svg11.dtd">
<svg xmlns="http://www.w3.org/2000/svg" xmlns:xlink="http://www.w3.org/1999/xlink" version="1.1"
   viewBox="94 -151 2414 2169">
   <path fill="currentColor"
      d="M1318 1878q-243 0 -440.5 -77t-340 -216.5t-219 -328.5t-76.5 -414q0 -173 43 -337.5t117 -297t166 -209.5l1768 788q22 128 22 252q0 180 -55 333t-177 267t-321 177t-487 63zM1024 1769q18 -35 39 -60t48.5 -41t63.5 -23q36 -8 60 -20.5t31 -26.5l-190 8
q-44 21 -81.5 55t-68.5 79q22 13 49 20.5t49 8.5zM1331 1820q11 0 21 -1.5t20 -2.5q17 -98 153 -168q56 -29 91.5 -71.5t51.5 -104.5l-91 37q-15 21 -36.5 37.5t-52.5 34.5q-90 54 -135.5 106t-64.5 129q19 4 43 4zM967 913q-17 0 -31.5 -15t-14.5 -33q0 -34 38 -66.5
t77 -32.5q24 0 24 27q0 41 -30.5 80.5t-62.5 39.5zM812 653q-19 0 -33 -14t-14 -34q0 -29 28.5 -49.5t68.5 -20.5q56 0 56 24q0 18 -18 40t-42.5 38t-45.5 16zM1288 1030q-22 0 -37.5 -21t-15.5 -51q0 -31 20.5 -63.5t38.5 -32.5q16 0 32 29.5t16 60.5q0 33 -15.5 55.5
t-38.5 22.5zM1688 1784q19 -2 39.5 -7.5t44.5 -12.5q11 -50 50 -92t103 -75q50 -26 81 -57.5t48 -81t23 -128.5t6 -199l-63 55q0 119 -10 181.5t-38 96t-84 66.5q-83 49 -132.5 109.5t-67.5 144.5zM1100 1564q208 0 410 -82t384.5 -246.5t329.5 -411.5l-1634 -725
q-75 91 -126 200.5t-77 231t-26 250.5q0 242 88.5 418t254 270.5t396.5 94.5zM1127 1441q-203 0 -349 -83.5t-224 -239t-78 -372.5q0 -183 58.5 -345.5t170.5 -293.5l61 52q-104 121 -157 269t-53 318q0 292 150 453.5t421 161.5q272 0 517.5 -167t431.5 -477l68 41
q-195 327 -459.5 505t-557.5 178zM1608 959q-30 0 -53.5 -33.5t-23.5 -74.5q0 -45 25 -45q32 0 65.5 34t33.5 68q0 21 -14 36t-33 15zM2255 1340q20 -54 34 -108.5t19 -110.5q-6 -48 -23 -98.5t-40 -107.5l-46 58q32 63 44 146.5t12 220.5z" />
</svg>