<?xml version="1.0" standalone="no"?>
<!DOCTYPE svg PUBLIC "-//W3C//DTD SVG 1.1//EN" "http://www.w3.org/Graphics/SVG/1.1/DTD/svg11.dtd">
<svg xmlns="http://www.w3.org/2000/svg" xmlns:xlink="http://www.w3.org/1999/xlink" version="1.1"
   viewBox="94 -151 2414 2169">
   <path fill="currentColor"
      d="M1547 1978l-1007 -1007l136 -683l684 -138l1007 1008zM1547 1865l707 -707l-920 -921l-590 119l-117 589zM933 526q32 -44 49.5 -96.5t17.5 -108.5q0 -95 -46.5 -172.5t-124 -124t-172.5 -46.5t-173 46.5t-124.5 124t-46.5 172.5q0 92 43.5 168.5t118.5 123.5t167 51
l-19 79q-110 -9 -198.5 -67.5t-140 -151.5t-51.5 -203q0 -117 57.5 -213t153.5 -153t213 -57t213 57t153 153t57 213q0 75 -25 143t-70 123zM973 686q-43 0 -74 -31t-31 -74t31 -74t74 -31q44 0 74.5 31t30.5 74t-30.5 74t-74.5 31z" />
</svg>