<?xml version="1.0" standalone="no"?>
<!DOCTYPE svg PUBLIC "-//W3C//DTD SVG 1.1//EN" "http://www.w3.org/Graphics/SVG/1.1/DTD/svg11.dtd">
<svg xmlns="http://www.w3.org/2000/svg" xmlns:xlink="http://www.w3.org/1999/xlink" version="1.1"
   viewBox="94 -151 2414 2169">
   <path fill="currentColor"
      d="M1300 1928q-183 0 -359 -13t-330 -38t-271 -59.5t-183.5 -77.5t-66.5 -92q0 -36 47.5 -105t132.5 -168l18 -21q90 -105 153 -170t105 -65q36 0 110 50.5t180 130.5l-29 84q-97 -75 -171 -130.5t-91 -55.5q-13 0 -47.5 34.5t-78 87t-87.5 106.5q-43 54 -72.5 95t-44 68.5
t-14.5 39.5q25 -6 73.5 -11t110 -7.5t126.5 -2.5q32 0 80 -27t134 -85q30 -20 72.5 -34t91.5 -21q44 -18 89.5 -32.5t91.5 -26.5l163 -176q40 -43 62 -64.5t37 -30t34 -13.5l35 -9l234 -168l47 -133q31 -86 53.5 -118.5t53.5 -32.5q29 0 55 21.5t86 92.5l194 321
q32 20 65.5 67.5t89.5 148.5q25 44 50.5 80t47.5 66q22 0 53.5 39t55.5 89t24 84q0 50 -68.5 93t-188 78t-274.5 59.5t-329 38t-350 13.5zM482 1491l-134 -130l44 -53l99 94l217 -157l45 49zM1375 1436l-199 -102l33 -64l159 81l205 -153l216 114l140 -75l89 -150
q17 0 52.5 9t59.5 24l-5 74q-29 -20 -70 -28l-74 125l-192 103l-209 -111zM1452 1854q24 -127 41.5 -199t31 -102t26.5 -30q29 0 60.5 90t55.5 241h-215zM1405 1835q159 0 314 -13t290.5 -36t238 -54t156.5 -67q-24 -38 -61 -96t-75.5 -121.5t-67.5 -115.5q-37 -68 -62 -108
t-43 -59.5t-35 -24.5l-200 -350q-16 -19 -32.5 -31.5t-30.5 -12.5q-17 0 -30.5 32.5t-27.5 77.5l-37 115l-270 195l-48 15q-12 4 -33 20t-62 61l-174 189q-90 20 -171.5 45t-152 64t-127.5 102q111 90 289 131.5t452 41.5zM1145 973q0 -105 -9 -187t-29 -159
q-45 -50 -83 -102t-75 -109l61 -51q17 27 46.5 68.5t63 84.5t62.5 78q23 87 33.5 174.5t10.5 202.5h-81zM1982 1793q11 -164 30 -264t36 -100q13 0 30.5 48.5t34 128.5t27.5 177zM620 1183l-69 -40q94 -161 164 -307.5t131 -305.5q21 -55 40 -91t44.5 -66.5t66.5 -70.5
l116 -114q51 -98 97.5 -169t99.5 -71q31 0 62.5 25.5t80 98t129 213t207.5 371.5l-67 45q-118 -213 -194 -345.5t-120 -204t-66 -97.5t-32 -26q-7 0 -38.5 44.5t-93.5 163.5l-125 123q-39 38 -61 64.5t-37 56.5t-34 79q-64 165 -136 315t-165 309zM1131 697l19 -113
l190 -141l158 130l109 -125l56 51l-159 182l-165 -138zM2453 1547l-152 -164q43 -204 66 -204q13 0 29.5 57t32.5 142t24 169zM1028 1446l-265 122l-43 -2q19 -96 42.5 -177.5t45.5 -131.5t34 -50q11 0 24 42.5t30 132.5q14 -67 29 -104.5t27 -37.5q9 0 23.5 30.5t29 77.5
t23.5 98z" />
</svg>