<?xml version="1.0" standalone="no"?>
<!DOCTYPE svg PUBLIC "-//W3C//DTD SVG 1.1//EN" "http://www.w3.org/Graphics/SVG/1.1/DTD/svg11.dtd">
<svg xmlns="http://www.w3.org/2000/svg" xmlns:xlink="http://www.w3.org/1999/xlink" version="1.1"
   viewBox="94 -151 2414 2169">
   <path fill="currentColor"
      d="M657 730v-283q-31 -50 -50 -125t-19 -152q0 -76 30 -137.5t81 -98t113 -36.5q43 0 75.5 11.5t60.5 33.5l-47 97q-37 -16 -76 -16q-61 0 -97 43t-36 117q0 45 15.5 97.5t40.5 94.5l298 105l-29 95l-260 -90v222zM666 1507q-77 0 -140.5 -38t-101.5 -102t-38 -140
q0 -78 41.5 -146t117.5 -110l37 70q-55 31 -85.5 80t-30.5 105q0 81 58.5 141t141.5 60q80 0 141.5 -52t61.5 -149q0 -22 -5 -41.5t-11 -32.5l72 -33q11 21 17.5 49t6.5 59q0 80 -37 143.5t-101 100t-145 36.5zM1090 1759q-81 0 -144.5 -36.5t-100 -100.5t-36.5 -144
q0 -101 57.5 -174t154.5 -98l19 77q-64 16 -107.5 72.5t-43.5 122.5q0 87 57 144t144 57t144 -57t57 -144q0 -51 -21 -91l70 -36q31 58 31 127q0 80 -36.5 144t-100 100.5t-144.5 36.5zM910 1302l-20 -145l107 -47l10 153zM1522 1978q-80 0 -143.5 -38t-100.5 -102t-37 -141
q0 -73 31.5 -132.5t91.5 -100.5l46 65q-40 28 -64.5 72.5t-24.5 93.5q0 84 57.5 143.5t143.5 59.5q83 0 142 -57.5t59 -145.5q0 -54 -29 -104l69 -38q40 68 40 144q0 80 -38 144t-101.5 100.5t-141.5 36.5zM812 1213q-77 0 -141 -38t-102 -102t-38 -141q0 -78 38 -141.5
t102 -101.5t141 -38q78 0 141.5 38t101.5 101.5t38 141.5q0 77 -38 141t-101.5 102t-141.5 38zM812 1133q83 0 142 -59.5t59 -141.5q0 -83 -59 -142t-142 -59q-82 0 -141.5 59t-59.5 142q0 82 59.5 141.5t141.5 59.5zM1244 1430q-77 0 -141 -38t-102 -102t-38 -141
q0 -78 38 -141.5t102 -101.5t141 -38q78 0 141.5 38t101.5 101.5t38 141.5q0 77 -38 141t-101.5 102t-141.5 38zM1244 1350q83 0 142 -59.5t59 -141.5q0 -83 -59 -142t-142 -59q-82 0 -141.5 59t-59.5 142q0 82 59.5 141.5t141.5 59.5zM1592 1661q-80 0 -144 -36.5
t-100.5 -100.5t-36.5 -144l81 -2q0 53 28 98.5t73.5 73.5t98.5 28t98.5 -28t73.5 -73.5t28 -98.5q0 -49 -26 -95t-70 -77l44 -67q66 44 99.5 105.5t33.5 135.5q0 80 -36.5 144t-100 100.5t-144.5 36.5zM1049 994v-145l126 62zM1933 1959q-73 0 -134 -33t-102 -96l66 -44
q29 42 71.5 67.5t96.5 25.5q82 0 142.5 -55.5t60.5 -145.5q0 -65 -35 -115.5t-100 -72.5l27 -76q86 28 137 101t51 163q0 79 -37.5 142.5t-101 101t-142.5 37.5zM1447 995l-151 -91l144 -88zM1222 944q-77 0 -141 -38t-102 -102t-38 -141q0 -78 38 -141.5t102 -101.5
t141 -38q78 0 141.5 38t101.5 101.5t38 141.5q0 77 -38 141t-101.5 102t-141.5 38zM1222 864q83 0 142 -59.5t59 -141.5q0 -83 -59 -142t-142 -59q-82 0 -141.5 59t-59.5 142q0 82 59.5 141.5t141.5 59.5zM1874 1549q-27 0 -50.5 -5t-46.5 -13l17 -75q36 13 73 13
q89 0 149 -59t60 -142q0 -86 -60.5 -145t-139.5 -59l7 -77q74 0 136 37.5t99.5 101t37.5 142.5q0 77 -38 141t-102 102t-142 38zM1680 1211q-77 0 -141 -38t-102 -102t-38 -141q0 -78 38 -141.5t102 -101.5t141 -38q78 0 141.5 38t101.5 101.5t38 141.5q0 77 -38 141
t-101.5 102t-141.5 38zM1680 1131q83 0 142 -59.5t59 -141.5q0 -83 -59 -142t-142 -59q-82 0 -141.5 59t-59.5 142q0 82 59.5 141.5t141.5 59.5zM1745 718l-86 -34q37 -17 65 -64t28 -102q0 -88 -57 -145t-143 -57q-55 0 -106.5 33.5t-86.5 93.5l-70 -38
q44 -78 115.5 -123.5t148.5 -45.5q79 0 142 37t100 100.5t37 142.5q0 61 -22.5 111.5t-64.5 90.5z" />
</svg>