<?xml version="1.0" standalone="no"?>
<!DOCTYPE svg PUBLIC "-//W3C//DTD SVG 1.1//EN" "http://www.w3.org/Graphics/SVG/1.1/DTD/svg11.dtd">
<svg xmlns="http://www.w3.org/2000/svg" xmlns:xlink="http://www.w3.org/1999/xlink" version="1.1"
   viewBox="94 -151 2414 2169">
   <path fill="currentColor"
      d="M1060 1275q-114 -14 -209.5 -64t-166.5 -129t-110 -179t-39 -214q0 -123 47 -230.5t129.5 -188.5t191.5 -126.5t232 -45.5t230.5 45.5t188.5 126.5t126.5 188.5t45.5 230.5q0 39 -7 89t-26 105l-79 17q26 -64 34 -120t8 -91q0 -146 -70 -264t-188 -187.5t-263 -69.5
t-265.5 69.5t-192.5 187.5t-72 264q0 132 59 242.5t161.5 183t234.5 90.5v70zM687 1778q-39 0 -86 -64q-35 -49 -35 -86q0 -20 23.5 -35.5t80.5 -31.5q35 -11 59.5 -27t49.5 -46q20 -24 42 -24q23 0 36.5 12.5t13.5 35.5q0 22 -8.5 33t-22.5 24q-18 16 -29 33.5t-24 48.5
q-25 60 -52 93.5t-48 33.5zM862 1529l-54 -44q37 -45 60 -77t42 -71.5t43 -103.5l66 24q-26 68 -48 111.5t-47 79t-62 81.5zM767 1151l-402 -334q-57 -5 -108.5 -37t-51.5 -86q0 -24 11 -51t34 -55q56 -70 125 -70q51 0 83.5 47t41.5 98l84 78l-9 88l-142 -133
q-4 -51 -20 -79.5t-38 -28.5q-13 0 -33 10.5t-38 33.5q-29 37 -29 59q0 14 13.5 26.5t39.5 20.5t64 10l275 225zM1591 1748q-21 0 -48 -33.5t-52 -93.5q-13 -31 -24 -48.5t-29 -33.5q-14 -13 -22.5 -24t-8.5 -33q0 -23 13.5 -35.5t36.5 -12.5q22 0 42 24q25 31 49.5 46.5
t59.5 26.5q57 17 80.5 32t23.5 35q0 37 -35 86q-47 64 -86 64zM1026 1376q-38 0 -55.5 -55.5t-17.5 -191.5q0 -137 17 -192t51 -55q23 0 36 22t22 54q6 -33 23 -54.5t42 -21.5q26 0 42.5 20.5t18.5 55.5q8 -39 23.5 -57.5t34.5 -18.5q38 0 55 55t17 192q0 136 -16.5 191.5
t-51.5 55.5q-22 0 -35.5 -22t-21.5 -54q-6 33 -23 54.5t-43 21.5q-25 0 -41.5 -21t-19.5 -55q-7 38 -22.5 57t-34.5 19zM1414 1499q-46 -67 -72 -119t-40 -116l68 -14q13 57 35.5 102t66.5 107zM1136 1037q-97 0 -176 -46.5t-125.5 -125.5t-46.5 -176t46.5 -176
t125.5 -125.5t176 -46.5t176 46.5t126 125.5t47 176t-47 176t-126 125.5t-176 46.5zM1136 967q78 0 141.5 -37t100.5 -100.5t37 -140.5q0 -78 -37 -141t-100.5 -100t-141.5 -37t-141 37t-100 100t-37 141t37 141t100 100t141 37zM774 431q-11 -9 -12 -21t11 -25
q24 -27 55.5 -52.5t68.5 -44.5q16 -8 29.5 -7t18.5 15q9 23 -28 43q-29 16 -53.5 37t-44.5 41q-10 11 -21.5 17t-23.5 -3zM1273 1281v-70q47 -5 95 -13.5t109 -26t147 -47.5q117 -41 212.5 -67t165.5 -26q60 0 133 13t144 42v12q-44 -26 -94.5 -81t-100 -126t-91 -147.5
t-69.5 -147t-34 -122.5h13q0 118 -44.5 220.5t-124.5 180.5t-188 124t-236 52l-4 -70q88 -4 166 -29.5t142.5 -69.5t112.5 -104t75.5 -134t30.5 -159q3 -77 20 -114.5t63 -37.5q65 0 149.5 82.5t170.5 224.5q41 67 77 148t59 156.5t23 128.5q0 42 -19.5 69t-55.5 27
q-20 0 -46.5 -9t-43.5 -16q-52 -20 -108.5 -31.5t-119.5 -11.5q-45 0 -100.5 11t-119 31t-134.5 47q-89 33 -154.5 51t-118 26.5t-102.5 13.5z" />
</svg>