<?xml version="1.0" standalone="no"?>
<!DOCTYPE svg PUBLIC "-//W3C//DTD SVG 1.1//EN" "http://www.w3.org/Graphics/SVG/1.1/DTD/svg11.dtd">
<svg xmlns="http://www.w3.org/2000/svg" xmlns:xlink="http://www.w3.org/1999/xlink" version="1.1"
   viewBox="94 -151 2414 2169">
   <path fill="currentColor"
      d="M1300 1978q-226 0 -426 -30.5t-346 -87.5l-253 -1443l79 -14l246 1398q137 47 317.5 72t382.5 25q203 0 383.5 -25t316.5 -72l246 -1398l79 14l-253 1443q-145 57 -345 87.5t-427 30.5zM400 1253q-36 0 -62.5 -27.5t-40.5 -74.5t-14 -106q0 -53 21 -83.5t52 -30.5
q30 0 51.5 33.5t33.5 88.5t12 122q0 47 -12.5 62.5t-40.5 15.5zM828 1371q-45 0 -79.5 -42t-34.5 -98q0 -42 23.5 -69t59.5 -27q39 0 62.5 42t23.5 112q0 40 -14.5 61t-40.5 21zM1300 1674q-461 0 -812 -136l30 -76q331 131 782 131t782 -131l30 76q-351 136 -812 136z
M1300 1455q-72 0 -121.5 -55t-49.5 -137q0 -81 49 -136.5t122 -55.5t122 55.5t49 136.5q0 82 -49.5 137t-121.5 55zM334 445q-56 0 -102.5 -27.5t-74 -74t-27.5 -102.5q0 -57 27.5 -103t74 -73.5t102.5 -27.5q57 0 103 27.5t73.5 73.5t27.5 103q0 56 -27.5 102.5t-73.5 74
t-103 27.5zM334 385q60 0 102 -42.5t42 -101.5q0 -60 -42 -102t-102 -42q-59 0 -101.5 42t-42.5 102q0 59 42.5 101.5t101.5 42.5zM892 1008q-173 0 -306.5 -155t-207.5 -454l77 -14q68 267 182 405t255 138q74 0 126.5 -47.5t88 -123t56 -160t29.5 -157.5l75 35
q-10 79 -35.5 171t-69.5 174.5t-110.5 135t-159.5 52.5zM872 963q-114 0 -206.5 -85t-137.5 -220q74 -14 131.5 -76.5t90.5 -161.5t33 -220l123 -8q24 119 62.5 202.5t94 138t129.5 87.5q-10 100 -55 177.5t-114 121.5t-151 44zM1772 1371q-26 0 -40.5 -21t-14.5 -61
q0 -70 23.5 -112t62.5 -42q36 0 59.5 27t23.5 69q0 56 -34.5 98t-79.5 42zM828 231q-69 0 -117.5 -48.5t-48.5 -117.5t48.5 -118t117.5 -49t118 49t49 118t-49 117.5t-118 48.5zM1300 525q-56 0 -102.5 -27.5t-74 -74t-27.5 -102.5q0 -57 27.5 -103t74 -73.5t102.5 -27.5
t102.5 27.5t74 73.5t27.5 103q0 56 -27.5 102.5t-74 74t-102.5 27.5zM1300 465q59 0 101.5 -42.5t42.5 -101.5q0 -60 -42.5 -102t-101.5 -42t-101.5 42t-42.5 102q0 59 42.5 101.5t101.5 42.5zM1708 1008q-93 0 -159.5 -52.5t-110.5 -135t-69 -174.5t-36 -171l75 -35
q9 73 29.5 157.5t56 160t88 123t126.5 47.5q141 0 255 -138t182 -405l77 14q-74 299 -207.5 454t-306.5 155zM2200 1253q-28 0 -40.5 -15.5t-12.5 -62.5q0 -67 12 -122t34 -88.5t51 -33.5q32 0 52.5 30.5t20.5 83.5q0 59 -14 106t-40 74.5t-63 27.5zM1728 963
q-82 0 -151 -44t-113.5 -121.5t-55.5 -177.5q74 -33 129.5 -87.5t94 -138t62.5 -202.5l123 8q0 121 33 220t91 161.5t131 76.5q-45 135 -137.5 220t-206.5 85zM1772 231q-69 0 -118 -48.5t-49 -117.5t49 -118t118 -49t117.5 49t48.5 118t-48.5 117.5t-117.5 48.5zM2266 445
q-56 0 -102.5 -27.5t-74 -74t-27.5 -102.5q0 -57 27.5 -103t74 -73.5t102.5 -27.5t102.5 27.5t74 73.5t27.5 103q0 56 -27.5 102.5t-74 74t-102.5 27.5zM2266 385q59 0 101.5 -42.5t42.5 -101.5q0 -60 -42.5 -102t-101.5 -42q-60 0 -102 42t-42 102q0 59 42 101.5t102 42.5z
" />
</svg>