<?xml version="1.0" standalone="no"?>
<!DOCTYPE svg PUBLIC "-//W3C//DTD SVG 1.1//EN" "http://www.w3.org/Graphics/SVG/1.1/DTD/svg11.dtd">
<svg xmlns="http://www.w3.org/2000/svg" xmlns:xlink="http://www.w3.org/1999/xlink" version="1.1"
   viewBox="94 -151 2414 2169">
   <path fill="currentColor"
      d="M1934 1674q-180 -125 -353 -204t-353.5 -115.5t-385.5 -36.5h-277q-94 0 -172.5 -69.5t-125.5 -185t-47 -252.5q0 -144 45.5 -259.5t124 -183t175.5 -67.5h277q192 0 378.5 -39.5t365.5 -118t348 -195.5l42 46q-161 124 -348 210.5t-388.5 131.5t-408.5 45h-266
q-78 0 -137.5 54.5t-93.5 151t-34 224.5q0 125 33.5 219t93 146t138.5 52h266q320 0 601 98t544 301zM1009 1978q-100 0 -162.5 -18t-101 -63t-66.5 -124l-179 -504h82l169 477q22 62 50 95.5t76.5 46t131.5 12.5q98 0 146.5 -30.5t48.5 -88.5q0 -29 -10.5 -54.5
t-30.5 -62.5l-68 -128h89l53 101q24 46 34.5 79t10.5 64q0 96 -70 147t-203 51zM1129 1579q-101 0 -148 -33t-65 -121l-31 -152h79l31 141q12 56 36.5 72t97.5 16q54 0 80.5 -14.5t26.5 -41.5q0 -11 -7.5 -28t-19.5 -42l-41 -84h85l29 54q17 32 24.5 54t7.5 43
q0 67 -47.5 101.5t-137.5 34.5zM803 1275q-37 -96 -58.5 -219.5t-21.5 -246.5t21.5 -246.5t58.5 -220.5h84q-39 95 -61.5 220t-22.5 247t22.5 246.5t61.5 219.5h-84zM1779 1003l291 -49q50 -8 76.5 -52.5t26.5 -111.5q0 -68 -26.5 -111.5t-76.5 -51.5l-291 -48
q-7 31 -12 88.5t-5 122.5q0 67 4.5 124t12.5 89zM2031 1725q-71 0 -134 -73.5t-111.5 -201t-76 -292.5t-27.5 -348t27.5 -347.5t75.5 -291.5t111 -200t135 -73t135 72.5t111.5 199t75.5 291t27 349.5q0 186 -27 351t-75.5 292t-111.5 199.5t-135 72.5z" />
</svg>