<?xml version="1.0" standalone="no"?>
<!DOCTYPE svg PUBLIC "-//W3C//DTD SVG 1.1//EN" "http://www.w3.org/Graphics/SVG/1.1/DTD/svg11.dtd">
<svg xmlns="http://www.w3.org/2000/svg" xmlns:xlink="http://www.w3.org/1999/xlink" version="1.1"
   viewBox="94 -151 2414 2169">
   <path fill="currentColor"
      d="M663 1837v-176h-174l87 -176h-133l70 -132h-235l339 -474v-981h1366v981l339 474h-235l70 132h-133l87 176h-174v176h-1274zM311 1978q-78 0 -127 -92t-49 -250q0 -73 21.5 -138.5t63.5 -129.5l207 -314l80 79l-180 292q-30 49 -47 95.5t-17 99.5q0 67 8.5 119.5t26 82.5
t43.5 30q17 0 37 -10t53 -36l260 -207l46 101l-276 223q-30 25 -64.5 40t-85.5 15zM743 1757h1114v-96h-1114v96zM505 1139q-90 -19 -139 -95t-49 -197q0 -139 63 -217.5t175 -78.5q71 0 137 24v95q-74 49 -74 177q0 64 20 115l-75 29q-25 -70 -25 -144q0 -42 9 -84
t29.5 -79.5t53.5 -63.5l-13 17q-18 -4 -32.5 -5t-29.5 -1q-76 0 -117 54.5t-41 161.5q0 188 124 214zM617 1581h1366l-48 -96h-1270zM573 1413h1455l-33 -60h-1390zM988 1008q-18 0 -31 -13.5t-13 -32.5v-166q0 -20 12.5 -32.5t31.5 -12.5q20 0 33 12.5t13 32.5v166
q0 19 -13 32.5t-33 13.5zM436 1287h1728l-251 -368h-1226zM2289 1978q-51 0 -85.5 -15t-64.5 -40l-276 -223l46 -101l260 207q33 26 53.5 36t36.5 10q27 0 44 -30t25.5 -82.5t8.5 -119.5q0 -53 -17 -99.5t-47 -95.5l-180 -292l80 -79l207 314q42 64 63.5 129.5t21.5 138.5
q0 158 -49 250t-127 92zM852 518v-380h306v380h-306zM1612 1008q-19 0 -32.5 -13.5t-13.5 -32.5v-166q0 -20 13.5 -32.5t32.5 -12.5t31.5 12.5t12.5 32.5v166q0 19 -13 32.5t-31 13.5zM1308 618v-80h222v80h-222zM697 839h1206v-861h-1206v861zM1308 418v-80h322v80h-322z
M2095 1139l-16 -78q124 -26 124 -214q0 -107 -40.5 -161.5t-117.5 -54.5q-15 0 -29.5 1t-32.5 5l-13 -17q34 26 54 63.5t29 79.5t9 84q0 74 -25 144l-75 -29q20 -51 20 -115q0 -128 -74 -177v-95q66 -24 137 -24q113 0 175.5 78.5t62.5 217.5q0 121 -49 197t-139 95z
M1308 218v-80h422v80h-422z" />
</svg>