<?xml version="1.0" standalone="no"?>
<!DOCTYPE svg PUBLIC "-//W3C//DTD SVG 1.1//EN" "http://www.w3.org/Graphics/SVG/1.1/DTD/svg11.dtd">
<svg xmlns="http://www.w3.org/2000/svg" xmlns:xlink="http://www.w3.org/1999/xlink" version="1.1"
   viewBox="94 -151 2414 2169">
   <path fill="currentColor"
      d="M1250 1978q-103 0 -164 -24t-114 -53q-54 -30 -104 -45t-115 -26q-49 -9 -106.5 -23.5t-106.5 -36t-75 -51.5q32 -98 72.5 -210t84 -221.5t84.5 -201t72 -148.5q53 -95 91.5 -168t63.5 -122q-17 -77 -33.5 -174.5t-30.5 -198t-23 -188.5t-11 -147q65 -17 131.5 -27.5
t131.5 -14.5l39 252q20 16 48.5 41.5t55.5 51.5q27 -26 55.5 -51.5t48.5 -41.5l39 -252q65 4 132 14.5t131 27.5q-2 59 -11 147t-23 188.5t-30.5 198t-33.5 174.5q29 44 58.5 97t66.5 127.5t88 185.5q68 145 160.5 269t212.5 224q-32 158 -140.5 223t-277.5 77
q-65 4 -115 22.5t-93 41.5q-47 25 -104 44t-155 19zM971 1843l-80 -8q12 -116 25 -211.5t29.5 -187.5t37 -193t47.5 -227l79 17q-27 126 -47.5 226t-36.5 191t-29 185t-25 208zM1559 1852q-67 -151 -109.5 -312.5t-50.5 -303.5l80 -5q8 136 48.5 290.5t103.5 298.5z
M1250 1898q78 0 129.5 -15t94.5 -37q50 -26 106 -48t132 -27q121 -8 210 -45.5t124 -145.5q-117 -104 -203.5 -225t-152.5 -265q-73 -160 -124.5 -259.5t-101.5 -174.5q15 -62 31 -146.5t30 -177t24.5 -179t14.5 -151.5q-28 -6 -56.5 -10.5t-57.5 -8.5l-26 176q-4 26 -21 47
t-54 54q-40 36 -62.5 49.5t-45.5 13.5q-22 0 -45 -13.5t-63 -49.5q-37 -33 -54 -54t-21 -47l-26 -176q-29 4 -57.5 8.5t-56.5 10.5q4 65 14.5 151.5t24.5 179t30 177t31 146.5q-22 49 -63.5 129.5t-104.5 192.5q-34 60 -73.5 148.5t-79.5 189t-76 198.5t-63 177
q37 21 90.5 34.5t110.5 23.5q63 10 125.5 28.5t116.5 47.5q47 25 105.5 49t143.5 24zM1241 739q-97 0 -174.5 -8.5t-111.5 -15.5l11 -145q35 5 110.5 12t164.5 7q90 0 165.5 -7t110.5 -12l11 145q-34 7 -111.5 15.5t-175.5 8.5z" />
</svg>