<?xml version="1.0" standalone="no"?>
<!DOCTYPE svg PUBLIC "-//W3C//DTD SVG 1.1//EN" "http://www.w3.org/Graphics/SVG/1.1/DTD/svg11.dtd">
<svg xmlns="http://www.w3.org/2000/svg" xmlns:xlink="http://www.w3.org/1999/xlink" version="1.1"
   viewBox="94 -151 2414 2169">
   <path fill="currentColor"
      d="M1626 1978q-153 0 -271 -11t-185.5 -42.5t-67.5 -92.5q0 -12 8 -63t21.5 -125.5t30.5 -158t34 -159.5q-59 8 -113 11.5t-111 3.5q-24 0 -48 -0.5t-50 -2.5q-76 61 -153 94.5t-149 33.5q-112 0 -183 -71t-71 -186q0 -98 56 -176t166 -151q98 -120 179 -207t178 -175l91 26
q-75 66 -137 128t-123 131t-132 158q-109 70 -153.5 131.5t-44.5 134.5q0 82 47 129.5t127 47.5q135 0 275 -131q32 4 63 5t62 1q132 0 224.5 -14.5t154.5 -47.5t102.5 -89t67.5 -139l76 26q-46 137 -122.5 210t-193.5 104q-19 86 -37 173.5t-32 162.5t-22 125t-8 60
q0 16 48 31t146.5 25t249.5 10q161 0 264 -9.5t152 -23.5t49 -28q0 -167 -36 -355.5t-96.5 -373t-137 -342.5t-159 -267t-160.5 -143q2 -10 3 -23.5t1 -25.5q0 -45 -13.5 -99.5t-35 -105t-45 -82.5t-43.5 -32q-18 0 -39.5 27t-41.5 66.5t-34 77.5h-85q19 -59 55 -119
t76 -101t70 -41q29 0 66 42.5t71 107t56.5 134t22.5 123.5q0 7 -0.5 14.5t-1.5 15.5q90 62 175.5 181t160 275.5t131 334.5t88.5 360t32 351q0 61 -70 91t-193 40t-282 10zM666 1205q-14 0 -19 -20q-3 -12 -4.5 -26.5t-8.5 -27.5q-10 -20 -15.5 -34t-5.5 -24q0 -31 36 -31
q25 0 43 22.5t18 55.5q0 31 -13.5 58t-30.5 27zM1173 881q-31 0 -53.5 -27.5t-22.5 -66.5q0 -38 22.5 -65.5t53.5 -27.5t53 27.5t22 65.5q0 39 -22 66.5t-53 27.5zM1014 551q-75 0 -143 -37.5t-111.5 -96.5t-43.5 -124q0 -26 18 -26q23 0 50.5 25t66.5 25q45 0 91 -29
t92.5 -67.5t93.5 -67.5t95 -29q15 0 25.5 3t15.5 5q-10 34 -14.5 65.5t-4.5 60.5q0 57 10.5 91t35.5 63q-11 22 -47.5 55t-95 58.5t-134.5 25.5zM2114 1885l-26 -426l-43 -216l-135 -392l-190 -342l-178 -181l-30 -118l85 30q80 28 157.5 38.5t140 21.5t99.5 40t37 96
q0 49 -16.5 87.5t-33.5 69t-17 57.5q0 28 26 48t64 38.5t76 43t64 61.5t26 94q0 58 -24 101.5t-48 75.5t-24 56t24 43.5t55 40t55 47.5t24 66q0 43 -20.5 83t-41.5 79.5t-21 79.5q0 31 13 63.5t13 71.5q0 57 -32.5 100t-78.5 43z" />
</svg>