<?xml version="1.0" standalone="no"?>
<!DOCTYPE svg PUBLIC "-//W3C//DTD SVG 1.1//EN" "http://www.w3.org/Graphics/SVG/1.1/DTD/svg11.dtd">
<svg xmlns="http://www.w3.org/2000/svg" xmlns:xlink="http://www.w3.org/1999/xlink" version="1.1"
   viewBox="94 -151 2414 2169">
   <path fill="currentColor"
      d="M339 1828q-57 -43 -80.5 -106t-28.5 -129.5t-5 -121.5v-1423h1967v95h183v1328q0 55 -4.5 121.5t-28.5 129.5t-81 106h-1922zM502 1752q-22 -22 -25.5 -53t-3.5 -62v-430h929v430q0 28 3.5 59t23.5 56h-927zM475 1005v-220h380v220h-380zM1607 1589v-70h380v70h-380z
M1035 1010v-70h380v70h-380zM371 1753h1790q-37 -65 -43 -142.5t-6 -139.5v-1343h-1807v1343q0 76 8.5 154t57.5 128zM1607 1429v-70h380v70h-380zM1035 850v-70h380v70h-380zM1607 1269v-70h380v70h-380zM1607 1010v-70h380v70h-380zM1607 850v-70h380v70h-380zM2245 1728
q38 -50 44 -119.5t6 -137.5v-1253h-103v1253q0 66 6.5 135t46.5 122zM1230 610q68 0 118.5 -50.5t50.5 -118.5q0 -69 -50 -119.5t-119 -50.5t-119 50t-50 120q0 69 50 119t119 50zM475 590h502v-279h-502v279zM1985 590v-279h-502v279h502z" />
</svg>