<?xml version="1.0" standalone="no"?>
<!DOCTYPE svg PUBLIC "-//W3C//DTD SVG 1.1//EN" "http://www.w3.org/Graphics/SVG/1.1/DTD/svg11.dtd">
<svg xmlns="http://www.w3.org/2000/svg" xmlns:xlink="http://www.w3.org/1999/xlink" version="1.1"
   viewBox="94 -151 2414 2169">
   <path fill="currentColor"
      d="M1816 1978q-172 0 -303.5 -11.5t-231 -45t-173.5 -99t-130.5 -172.5t-103.5 -266q-21 -73 -44 -137t-45.5 -118.5t-44.5 -95.5l27 -23q-16 76 -25.5 191.5t-13 242t-3.5 235.5q-22 11 -64 16.5t-72 5.5q-29 0 -57 -5.5t-48 -15.5q0 -165 -3.5 -292.5t-14 -232t-31 -197
t-54.5 -186.5q-30 -83 -48 -142.5t-18 -115.5q0 -57 13 -116.5t41 -123.5t73 -133q74 -115 140.5 -179t121.5 -64q53 0 127.5 43.5t158.5 124.5t166.5 192t151.5 246q73 144 133 257t120 206t130.5 175.5t164 164t221.5 172.5q104 73 156 146.5t52 141.5q0 63 -58.5 110.5
t-163.5 74t-247 26.5zM1815 1898q122 0 209.5 -15t134 -44t46.5 -72q0 -45 -42.5 -103t-138.5 -125q-103 -73 -184 -141t-146 -136h26q-43 18 -94.5 35.5t-102.5 29.5t-92 12q-57 0 -110.5 -21t-102.5 -82t-94 -178t-85 -310q-33 -159 -90.5 -282t-116.5 -220
q-47 -80 -80 -153.5t-39 -139.5l47 40q-12 -8 -27.5 -11.5t-23.5 -3.5q-45 0 -90 53.5t-110 153.5q-64 98 -89 177t-25 153q0 44 17 99.5t43 126.5q68 186 87 394t19 483q8 1 14 2t12 1t25.5 -1t29.5 -2q0 -108 5.5 -227t18.5 -232t37 -201l17 45q-17 -20 -39.5 -37.5
t-63.5 -36.5l35 -75q70 36 118 90.5t89.5 153t91.5 266.5q57 190 126 298t166.5 158.5t236.5 64t335 13.5z" />
</svg>