<?xml version="1.0" standalone="no"?>
<!DOCTYPE svg PUBLIC "-//W3C//DTD SVG 1.1//EN" "http://www.w3.org/Graphics/SVG/1.1/DTD/svg11.dtd">
<svg xmlns="http://www.w3.org/2000/svg" xmlns:xlink="http://www.w3.org/1999/xlink" version="1.1"
   viewBox="94 -151 2414 2169">
   <path fill="currentColor"
      d="M1300 1928q-209 0 -380 -61t-294.5 -172.5t-190.5 -265.5t-67 -340q0 -147 43 -276q-79 -236 -79 -449q0 -188 53 -302t150 -114q58 0 131.5 45t153 124t154.5 181q76 -22 158 -32.5t168 -10.5t168 10.5t158 32.5q75 -102 154.5 -181t153.5 -124t131 -45q97 0 150 114
t53 302q0 213 -79 449q43 129 43 276q0 186 -67 340t-190.5 265.5t-294.5 172.5t-380 61zM312 1682l-62 -52q46 -51 111 -90t138.5 -61.5t142.5 -22.5v80q-59 0 -120.5 19t-116.5 52t-93 75zM195 1413l-28 -75q65 -26 142 -40.5t147 -14.5q37 0 70 4.5t59 12.5l-21 74
q-22 -6 -48 -9t-55 -3q-64 0 -135.5 13.5t-130.5 37.5zM535 1211q-70 -29 -165 -44t-210 -16v-80q124 1 228 18t181 50zM845 1203q-51 0 -87 -44t-36 -107t36 -107t87 -44t87 44t36 107t-36 107t-87 44zM1153 1530q-52 0 -100.5 -20.5t-83.5 -54.5l57 -56q26 25 59.5 38
t67.5 13q59 0 86.5 -29t27.5 -90h66q0 61 28 90t86 29q34 0 68 -13t59 -38l57 56q-35 34 -83.5 54.5t-100.5 20.5q-91 0 -147 -64q-56 64 -147 64zM1300 1365q-35 0 -70.5 -20.5t-59 -50t-23.5 -56.5q0 -35 41 -55t112 -20t112 20t41 55q0 27 -23.5 56.5t-58.5 50t-71 20.5z
M587 655q-24 -62 -36 -146.5t-12 -157.5q0 -63 9 -105.5t27 -42.5q17 0 54.5 34.5t85.5 91t94 121.5q-56 31 -117 90t-105 115zM1300 1848q257 0 448.5 -96t297.5 -267t106 -396q0 -149 -47 -276q29 -82 47 -157t27 -147.5t9 -144.5q0 -152 -34.5 -244t-88.5 -92
q-45 0 -114.5 48.5t-146 130.5t-146.5 184q-82 -28 -171.5 -42t-186.5 -14t-186.5 14t-171.5 42q-69 -102 -146.5 -184t-146 -130.5t-114.5 -48.5q-54 0 -88.5 92t-34.5 244q0 72 9 144.5t27.5 147.5t46.5 157q-47 127 -47 276q0 225 106 396t297.5 267t448.5 96zM2288 1682
q-38 -42 -93 -75t-116.5 -52t-120.5 -19v-80q70 0 143 22.5t138.5 61.5t110.5 90zM1167 631q-36 0 -80 -58t-91 -214l257 -39q2 24 2.5 47t0.5 44q0 99 -23.5 159.5t-65.5 60.5zM1755 1203q-51 0 -87 -44t-36 -107t36 -107t87 -44t87 44t36 107t-36 107t-87 44zM2405 1413
q-58 -24 -129.5 -37.5t-136.5 -13.5q-29 0 -55 3t-48 9l-21 -74q26 -8 59 -12.5t70 -4.5q70 0 147 14.5t142 40.5zM1433 631q-42 0 -65.5 -60.5t-23.5 -159.5q0 -21 0.5 -44t2.5 -47l257 39q-47 156 -91 214t-80 58zM2065 1211l-34 -72q77 -33 181 -50t228 -18v80
q-115 1 -209.5 16t-165.5 44zM2013 655q-44 -56 -105 -115t-117 -90q46 -65 94 -121.5t86 -91t54 -34.5q18 0 27 42.5t9 105.5q0 73 -12 157.5t-36 146.5z" />
</svg>