<?xml version="1.0" standalone="no"?>
<!DOCTYPE svg PUBLIC "-//W3C//DTD SVG 1.1//EN" "http://www.w3.org/Graphics/SVG/1.1/DTD/svg11.dtd">
<svg xmlns="http://www.w3.org/2000/svg" xmlns:xlink="http://www.w3.org/1999/xlink" version="1.1"
   viewBox="94 -151 2414 2169">
   <path fill="currentColor"
      d="M714 1978q-85 0 -137.5 -75.5t-76 -242.5t-23.5 -440q0 -274 23.5 -440.5t76 -242t137.5 -75.5h1484q86 0 138 75.5t75.5 242t23.5 440.5q0 273 -23.5 440t-75.5 242.5t-138 75.5h-1484zM277 1490q-25 0 -45.5 -16.5t-28.5 -42.5q-10 -38 -24 -140.5t-14 -294.5
q0 -163 11.5 -253t24.5 -125q9 -25 29 -38.5t44 -13.5h295v80h-269q-26 0 -32 25q-8 35 -15.5 111t-7.5 214q0 157 9.5 250.5t17.5 138.5q5 25 32 25h216v80h-243zM745 746q-22 0 -36.5 -14.5t-14.5 -36.5t14.5 -36.5t36.5 -14.5t36.5 14.5t14.5 36.5t-14.5 36.5t-36.5 14.5
zM1116 1698q-75 0 -117.5 -42.5t-42.5 -117.5v-93h-194v-80h274v173q0 80 80 80h833q80 0 80 -80v-604q0 -80 -80 -80h-833q-80 0 -80 80v173h-274v-80h194v-93q0 -75 42.5 -117.5t117.5 -42.5h833q75 0 117.5 42.5t42.5 117.5v604q0 75 -42.5 117.5t-117.5 42.5h-833z
M714 1898h1484q58 0 92 -65.5t49.5 -214t15.5 -398.5q0 -251 -15.5 -399.5t-49.5 -213.5t-92 -65h-1484q-57 0 -91.5 65t-50 213.5t-15.5 399.5q0 250 15.5 398.5t50 214t91.5 65.5zM1065 505l614 -461l48 64l-529 397h-133zM1554 505l307 -230l48 64l-222 166h-133z
M1855 357q-5 -29 -23 -63.5t-61 -94.5q-31 -44 -56 -64t-67 -39l68 -147q11 -25 31 -38t42 -13q43 0 96.5 40.5t99.5 102.5q32 43 57 100.5t25 95.5q0 27 -14 49t-43 30zM1906 260l53 -12q14 -3 18.5 -10.5t4.5 -17.5q0 -22 -20.5 -64t-40.5 -69q-15 -20 -38.5 -43.5
t-45.5 -40.5t-34 -17q-7 0 -13.5 4t-11.5 15l-27 57q23 16 43.5 37.5t42.5 53.5q23 31 39.5 57.5t29.5 49.5zM1868 458q0 -23 22 -38.5t53 -15.5t52 15.5t21 38.5q0 11 -23 16.5t-51 5.5t-51 -5.5t-23 -16.5zM2054 458q0 -23 22 -38.5t53 -15.5t52.5 15.5t21.5 38.5
q0 11 -23 16.5t-51 5.5t-51.5 -5.5t-23.5 -16.5z" />
</svg>