<?xml version="1.0" standalone="no"?>
<!DOCTYPE svg PUBLIC "-//W3C//DTD SVG 1.1//EN" "http://www.w3.org/Graphics/SVG/1.1/DTD/svg11.dtd">
<svg xmlns="http://www.w3.org/2000/svg" xmlns:xlink="http://www.w3.org/1999/xlink" version="1.1"
   viewBox="94 -151 2414 2169">
   <path fill="currentColor"
      d="M1388 1978q-166 0 -316.5 -42t-272.5 -120q-49 43 -121.5 67.5t-161.5 24.5q-111 0 -191 -34t-80 -101q0 -44 43 -69.5t122 -46.5q39 -11 79 -24t75 -34q-37 -48 -81 -107.5t-81 -118.5q-34 -56 -60.5 -97t-43.5 -59q-70 -77 -107.5 -126t-51.5 -89.5t-14 -89.5
q0 -145 97.5 -223t264.5 -78q49 0 115.5 6.5t136 17.5t125.5 25q81 -66 181 -66q94 0 193 62q39 -21 96 -21q77 0 138 38t115.5 88t111.5 88t127 38q20 0 34 -3.5t27 -10.5q-3 -18 -3 -32q0 -33 20 -64.5t52 -49.5q0 -88 -19.5 -156t-66.5 -140q-86 26 -165 26
q-86 0 -152.5 -38.5t-66.5 -90.5q0 -23 13 -37t47 -24q32 -9 51 -19.5t41 -27.5q23 -17 56.5 -36.5t79.5 -19.5h12.5t12.5 1q3 -17 8.5 -31.5t12.5 -25.5q24 -37 53 -60t55.5 -43t42.5 -48q18 -32 30.5 -45.5t34.5 -13.5q43 0 78.5 48.5t35.5 125.5q0 96 -58 190
q191 165 279 339.5t88 371.5q0 158 -45.5 298.5t-112.5 239.5q84 13 129 53.5t45 91.5q0 56 -50.5 104t-135 77t-187.5 29q-86 0 -155 -20q-118 68 -262.5 100t-296.5 32zM1388 1898q164 0 304 -36t245 -104q71 28 165 28q77 0 144 -20t108 -50t41 -60q0 -34 -60 -65
t-176 -33q40 -32 79 -92t71 -139.5t51 -170t19 -183.5q0 -198 -95.5 -366t-298.5 -330q47 -63 66 -109t19 -116q0 -20 -4.5 -38t-16.5 -18q-16 0 -34 29t-52 53q-59 43 -82 68t-25 72q-7 -2 -14 -3t-15 -1q-32 0 -65.5 19t-74.5 50q-20 15 -48.5 26t-49.5 19t-21 16
q0 11 28.5 18.5t62 11t46.5 3.5q44 0 96 -9t98 -29q51 68 82 133t45 136t14 157q-34 8 -58.5 35t-24.5 61q0 13 5 27t12 26q-31 25 -67.5 39t-80.5 14q-80 0 -143 -38t-118.5 -88t-110.5 -88t-120 -38q-33 0 -52.5 7t-46.5 26q-106 -74 -190 -74q-44 0 -86.5 18t-92.5 53
q-51 -14 -119 -26t-137 -20t-123 -8q-138 0 -210 57t-72 164q0 36 10.5 66t43.5 71.5t98 113.5q20 22 49.5 67t63.5 101q116 190 246.5 316t294.5 188.5t377 62.5zM1094 1932q-123 -30 -217 -113.5t-147 -208.5t-53 -279l61 -6q0 147 45.5 259.5t129 185t195.5 99.5z
M1360 1941q-64 -65 -123 -107.5t-109 -84t-89.5 -100t-65.5 -155.5l65 -16q17 82 60 139.5t101 104.5t122 95t124 113zM1134 1271q-88 0 -191.5 -53t-211.5 -117q-86 -52 -175 -99.5t-180.5 -78t-186.5 -30.5v-80q106 0 207 33.5t195.5 83.5t180.5 102q72 43 136.5 79
t121 58t104.5 22v80zM1806 1894q-58 -60 -116 -92t-115 -53.5t-112 -48t-107 -72.5t-100 -129l61 -33q42 74 91 115t102.5 64.5t110.5 45.5t116 56.5t118 99.5zM1434 1283q-29 0 -49.5 -20.5t-20.5 -49.5t20.5 -49t49.5 -20t49.5 20t20.5 49t-20.5 49.5t-49.5 20.5z" />
</svg>