<?xml version="1.0" standalone="no"?>
<!DOCTYPE svg PUBLIC "-//W3C//DTD SVG 1.1//EN" "http://www.w3.org/Graphics/SVG/1.1/DTD/svg11.dtd">
<svg xmlns="http://www.w3.org/2000/svg" xmlns:xlink="http://www.w3.org/1999/xlink" version="1.1"
   viewBox="94 -151 2414 2169">
   <path fill="currentColor"
      d="M913 1978q-74 0 -127.5 -54t-53.5 -128v-1715q0 -76 53.5 -129.5t127.5 -53.5h773q75 0 128 53.5t53 129.5v1714q0 76 -53 129.5t-128 53.5h-773zM1031 1657h100v-90h-100v90zM495 1703l-179 -300l145 -240l-146 -233l146 -233l-145 -240l173 -291l69 42l-149 249
l145 240l-144 233l144 233l-145 240l154 258zM1250 1657h100v-90h-100v90zM1469 1657h100v-90h-100v90zM1031 965h100v-90h-100v90zM951 1750v-1428h698v1428h-698zM913 1898h773q42 0 71.5 -30t29.5 -73v-1714q0 -43 -29.5 -73t-71.5 -30h-773q-41 0 -71 30t-30 73v1715
q0 41 30 71.5t71 30.5zM1250 965h100v-90h-100v90zM1031 735h100v-90h-100v90zM1250 735h100v-90h-100v90zM1031 505h100v-90h-100v90zM1469 735h100v-90h-100v90zM1250 505h100v-90h-100v90zM1469 505h100v-90h-100v90zM1141 168v-60h318v60h-318zM2105 1703l-69 -42
l154 -258l-145 -240l144 -233l-144 -233l145 -240l-148 -249l68 -42l174 291l-145 240l146 233l-146 233l145 240z" />
</svg>