<?xml version="1.0" standalone="no"?>
<!DOCTYPE svg PUBLIC "-//W3C//DTD SVG 1.1//EN" "http://www.w3.org/Graphics/SVG/1.1/DTD/svg11.dtd">
<svg xmlns="http://www.w3.org/2000/svg" xmlns:xlink="http://www.w3.org/1999/xlink" version="1.1"
   viewBox="94 -151 2414 2169">
   <path fill="currentColor"
      d="M1300 1928q-349 0 -606 -96t-397.5 -272t-140.5 -416q0 -168 66.5 -338t181.5 -323.5t262.5 -273t310.5 -189t323 -69.5t323 69.5t310.5 189t262.5 273t181.5 323.5t66.5 338q0 240 -140.5 416t-397 272t-606.5 96zM1155 1595q-55 0 -106 -22.5t-83 -59.5l59 -57
q26 28 60 43.5t70 15.5q52 0 82 -33.5t30 -93.5h66q0 60 30 93.5t82 33.5q36 0 70.5 -15.5t59.5 -43.5l59 57q-32 37 -82.5 59.5t-106.5 22.5q-45 0 -81 -18.5t-64 -55.5q-28 37 -64 55.5t-81 18.5zM726 1347q-101 0 -163 -68.5t-62 -183.5q0 -65 29.5 -113t75 -96.5
t92.5 -111.5q68 -91 137 -138t141 -47q79 0 138.5 52t59.5 128q0 56 -30.5 119t-68.5 118.5t-63 89.5q-36 50 -71.5 109t-85 100.5t-129.5 41.5zM873 1103q63 0 109 -48t46 -121q0 -74 -46 -121.5t-109 -47.5t-109 47.5t-46 121.5q0 73 46 121t109 48zM873 1043
q-40 0 -67.5 -32t-27.5 -77q0 -44 27.5 -76t67.5 -32q39 0 66.5 32t27.5 76q0 45 -27.5 77t-66.5 32zM1300 1450q-49 0 -97 -27.5t-80 -67.5t-32 -77q0 -47 56 -73.5t153 -26.5t153 26.5t56 73.5q0 37 -32 77t-80 67.5t-97 27.5zM376 560q-54 -59 -79.5 -126t-25.5 -134
q0 -92 40.5 -172t115 -130t177.5 -50q161 0 280 148l-267 198zM1300 1848q328 0 566.5 -86t368 -244t129.5 -374q0 -154 -62.5 -312t-170.5 -301.5t-245 -256t-288 -178t-298 -65.5t-298 65.5t-288 178t-245 256t-170.5 301t-62.5 312.5q0 216 129.5 374t368 244t566.5 86z
M1727 1103q63 0 109 -48t46 -121q0 -74 -46 -121.5t-109 -47.5t-109 47.5t-46 121.5q0 73 46 121t109 48zM1727 1043q-39 0 -66.5 -32t-27.5 -77q0 -44 27.5 -76t66.5 -32q40 0 67.5 32t27.5 76q0 45 -27.5 77t-67.5 32zM1874 1347q-79 0 -129 -41.5t-85 -100.5t-72 -109
q-24 -34 -62.5 -89.5t-69 -118.5t-30.5 -119q0 -76 59.5 -128t138.5 -52q72 0 141.5 47t136.5 138q48 63 93 111.5t74.5 96.5t29.5 113q0 115 -62 183.5t-163 68.5zM2224 560l-241 -266l-267 -198q119 -148 280 -148q103 0 177.5 50t115 130t40.5 172q0 67 -25.5 134
t-79.5 126z" />
</svg>