<?xml version="1.0" standalone="no"?>
<!DOCTYPE svg PUBLIC "-//W3C//DTD SVG 1.1//EN" "http://www.w3.org/Graphics/SVG/1.1/DTD/svg11.dtd">
<svg xmlns="http://www.w3.org/2000/svg" xmlns:xlink="http://www.w3.org/1999/xlink" version="1.1"
   viewBox="94 -151 2414 2169">
   <path fill="currentColor"
      d="M1195 1552h213q27 0 27 -25q0 -26 -27 -26h-213q-26 0 -26 26q0 25 26 25zM1301 1683q-70 0 -143.5 -6.5t-127.5 -16.5q-61 -12 -86 -41.5t-25 -88.5v-1184q0 -59 25 -88t86 -42q54 -12 127.5 -17.5t143.5 -5.5t143.5 5.5t127.5 17.5q61 13 86 42t25 88v1184
q0 59 -25 88.5t-86 41.5q-54 10 -127.5 16.5t-143.5 6.5zM1066 1416h470q59 0 59 -60v-836q0 -60 -59 -60h-470q-59 0 -59 60v836q0 60 59 60zM1136 374q30 0 30 -29q0 -30 -30 -30q-29 0 -29 30q0 29 29 29zM1275 368h196q27 0 27 -25q0 -26 -27 -26h-196q-26 0 -26 26
q0 25 26 25zM1984 1665l-1417 -1405l49 -49l1417 1405zM2250 938q0 -198 -74 -371.5t-205 -306t-303 -207.5t-368 -75t-368 75t-303 207.5t-205 306t-74 371.5t74 371.5t205 306t303 207.5t368 75t368 -75t303 -207.5t205 -306t74 -371.5zM2330 938q0 214 -80.5 402.5
t-222.5 332t-328.5 224.5t-398.5 81t-398.5 -81t-328.5 -224.5t-222.5 -332t-80.5 -402.5t80.5 -402.5t222.5 -332t328.5 -224.5t398.5 -81t398.5 81t328.5 224.5t222.5 332t80.5 402.5z" />
</svg>