<?xml version="1.0" standalone="no"?>
<!DOCTYPE svg PUBLIC "-//W3C//DTD SVG 1.1//EN" "http://www.w3.org/Graphics/SVG/1.1/DTD/svg11.dtd">
<svg xmlns="http://www.w3.org/2000/svg" xmlns:xlink="http://www.w3.org/1999/xlink" version="1.1"
   viewBox="94 -151 2414 2169">
   <path fill="currentColor"
      d="M1156 1978q-110 0 -176 -90q-8 1 -25 1q-59 0 -108.5 -30t-78.5 -80.5t-29 -111.5q0 -46 -22.5 -73t-99.5 -71l-26 -15q-149 -85 -149 -277q0 -59 23 -120q-16 -83 -22.5 -167t-6.5 -154q0 -195 63 -358.5t178.5 -283t273.5 -185t348 -65.5t348.5 65.5t274 185t179 283
t63.5 358.5q0 70 -6 154t-23 167q23 61 23 120q0 192 -149 277l-26 15q-77 44 -99.5 71t-22.5 73q0 61 -29 111.5t-78 80.5t-109 30q-17 0 -25 -1q-66 90 -176 90q-81 0 -144 -52q-63 52 -144 52zM1036 1879l-75 -40l28 -176q7 -46 43 -46q20 0 30.5 14.5t7.5 34.5z
M1260 1909v-246q0 -23 11.5 -34.5t28.5 -11.5t28.5 11.5t11.5 34.5v246h-80zM1564 1879l-34 -213q-3 -20 8 -34.5t30 -14.5q36 0 43 46l28 176zM894 1150q-77 0 -130.5 -58t-53.5 -142q0 -59 26.5 -108.5t72.5 -79.5t102 -30q77 0 131 58t54 143q0 57 -27 106.5t-72.5 80
t-102.5 30.5zM1230 1377q-22 0 -36 -16.5t-14 -49.5q0 -40 15.5 -95.5t42.5 -98t62 -42.5q36 0 63 42.5t42 98t15 95.5q0 33 -14 49.5t-36 16.5q-30 0 -70 -32q-40 32 -70 32zM1156 1898q41 0 81.5 -16.5t62.5 -41.5q23 25 63.5 41.5t80.5 16.5q46 0 84 -28.5t54 -75.5
q21 10 33 12.5t30 2.5q56 0 96 -41.5t40 -100.5q0 -71 34 -115.5t128 -98.5l26 -15q58 -32 83.5 -80.5t25.5 -126.5q0 -57 -26 -112q18 -85 25 -171.5t7 -157.5q0 -179 -57 -327.5t-162 -257t-248.5 -168t-317.5 -59.5t-317.5 59.5t-247.5 168t-161 257t-57 327.5
q0 71 7 157.5t25 171.5q-26 55 -26 112q0 78 25.5 126.5t83.5 80.5l26 15q95 54 128.5 98.5t33.5 115.5q0 59 40 100.5t96 41.5q18 0 30 -2.5t33 -12.5q17 47 54.5 75.5t83.5 28.5zM1706 1150q-57 0 -102.5 -30.5t-72.5 -80t-27 -106.5q0 -85 54.5 -143t130.5 -58
q57 0 102.5 30t72 79.5t26.5 108.5q0 84 -53.5 142t-130.5 58z" />
</svg>