<?xml version="1.0" standalone="no"?>
<!DOCTYPE svg PUBLIC "-//W3C//DTD SVG 1.1//EN" "http://www.w3.org/Graphics/SVG/1.1/DTD/svg11.dtd">
<svg xmlns="http://www.w3.org/2000/svg" xmlns:xlink="http://www.w3.org/1999/xlink" version="1.1"
   viewBox="94 -151 2414 2169">
   <path fill="currentColor"
      d="M1300 1978q-99 0 -208.5 -53t-218.5 -145.5t-206.5 -211t-173.5 -250.5t-119.5 -265t-43.5 -252q0 -143 51 -276.5t142 -247.5t213 -199t265.5 -132.5t298.5 -47.5t298.5 47.5t265.5 132.5t213 199t142 247.5t51 276.5q0 119 -43.5 252t-119.5 265t-173.5 250.5
t-206.5 211t-218.5 145.5t-208.5 53zM1300 1613q-65 0 -132.5 -24.5t-113 -61t-45.5 -73.5t34 -37q17 0 49.5 14t83.5 28t124 14t124 -14t83.5 -28t49.5 -14q34 0 34 37t-45.5 73.5t-112.5 61t-133 24.5zM997 1265q-129 0 -232.5 -60t-163.5 -163.5t-60 -233.5
q0 -88 34.5 -123.5t121.5 -35.5q135 0 238.5 58.5t162.5 160.5t59 235q0 90 -35.5 126t-124.5 36zM1300 1898q88 0 187.5 -50.5t199 -137.5t190 -198.5t161 -234.5t111.5 -245.5t41 -230.5q0 -162 -71.5 -310t-196.5 -263.5t-285 -182.5t-337 -67t-337 67t-285 182.5
t-196.5 263.5t-71.5 310q0 108 41 230.5t111.5 245.5t161 234.5t190 198.5t199 137.5t187.5 50.5zM1603 1265q-89 0 -124.5 -36t-35.5 -126q0 -133 59 -235t163 -160.5t238 -58.5q87 0 121.5 35.5t34.5 123.5q0 130 -60 233.5t-163 163.5t-233 60z" />
</svg>