<?xml version="1.0" standalone="no"?>
<!DOCTYPE svg PUBLIC "-//W3C//DTD SVG 1.1//EN" "http://www.w3.org/Graphics/SVG/1.1/DTD/svg11.dtd">
<svg xmlns="http://www.w3.org/2000/svg" xmlns:xlink="http://www.w3.org/1999/xlink" version="1.1"
   viewBox="94 -151 2414 2169">
   <path fill="currentColor"
      d="M1354 1878q-157 0 -293 -61t-238.5 -169.5t-160 -252.5t-57.5 -310q0 -203 90 -388l72 35q-82 170 -82 353q0 150 51.5 279.5t143 227t213 152t261.5 54.5q179 0 314.5 -82t212 -228t76.5 -338q0 -161 -57.5 -300.5t-161.5 -243t-246 -155.5l28 -75q158 58 274 173
t179.5 269.5t63.5 331.5q0 214 -87 378t-241 257t-355 93zM587 1978l-58 -55l168 -190l-178 -234l156 -159l55 59l-108 107l179 232zM270 1436l-33 -75l227 -94v-410l209 3l-51 77h-78v382zM1207 1606q-47 0 -80 -35t-33 -83q0 -46 31 -80.5t76 -34.5q48 0 82 33t34 81
q0 51 -32.5 85t-77.5 34zM752 1120q-37 0 -62.5 -28.5t-25.5 -71.5q0 -41 25.5 -71t62.5 -30q38 0 64 30t26 71q0 43 -26 71.5t-64 28.5zM1095 1261q-55 0 -94.5 -39.5t-39.5 -94.5t39.5 -94t94.5 -39t94 39t39 94t-39 94.5t-94 39.5zM714 809l-246 -154l19 -234l-100 -61
l44 -68l138 88l-17 236l214 130zM1556 1786q-75 -251 -166 -510.5t-200 -528.5l71 -38q110 271 203 533t167 516zM1705 1427q-43 0 -71.5 -35t-28.5 -82t33 -77.5t76 -30.5q44 0 72 35.5t28 82.5q0 46 -32.5 76.5t-76.5 30.5zM850 413q-6 -52 -39.5 -80t-79.5 -44
t-90.5 -31.5t-74.5 -40t-30 -70.5q0 -5 2 -17l67 15q0 24 31 39.5t76.5 30t91 35.5t76.5 54t31 87zM902 505q29 0 51 -19.5t22 -44.5q0 -20 -13.5 -32t-34.5 -12q-28 0 -51.5 20t-23.5 45q0 19 14.5 31t35.5 12zM1585 1099q-50 0 -85.5 -35.5t-35.5 -85.5t35.5 -85.5
t85.5 -35.5t85.5 35.5t35.5 85.5t-35.5 85.5t-85.5 35.5zM1245 789q-133 -16 -277 -22t-284 -6q8 -46 36 -89t82 -71q-4 -38 -5.5 -75.5t-1.5 -53.5q0 -28 23 -61t57.5 -64.5t69.5 -54t59 -29.5q20 -6 51.5 -8.5t65.5 -2.5q51 0 89 4.5t63 12.5q25 7 51.5 35t48.5 64
q11 -3 31 -3q50 0 105 16.5t83 42.5q-50 35 -116.5 97t-129 133t-101.5 135zM1209 396q25 0 42 -14t17 -35t-19 -36t-46 -15q-25 0 -42 14t-17 34q0 22 19 37t46 15zM2330 1520l-230 -119l-117 -418l71 -17l108 376l201 106zM1760 808q-43 0 -72.5 -32.5t-29.5 -71.5
q0 -35 23.5 -60.5t57.5 -25.5q42 0 72 32.5t30 75.5q0 38 -24 60t-57 22zM1143 283q0 -61 19.5 -106.5t45 -81t45 -65t19.5 -58.5q0 -15 -15 -31l50 -43q17 21 24.5 41t7.5 40q0 37 -19 71.5t-43.5 70.5t-43.5 75.5t-19 86.5h-71zM1462 479l-64 -48l140 -190l-103 -194
l97 -84l52 58l-52 47l97 184zM2045 777l-174 -253l-79 53l-59 -65l159 -99l186 271l188 -49l21 77z" />
</svg>