<?xml version="1.0" standalone="no"?>
<!DOCTYPE svg PUBLIC "-//W3C//DTD SVG 1.1//EN" "http://www.w3.org/Graphics/SVG/1.1/DTD/svg11.dtd">
<svg xmlns="http://www.w3.org/2000/svg" xmlns:xlink="http://www.w3.org/1999/xlink" version="1.1"
   viewBox="94 -151 2414 2169">
   <path fill="currentColor"
      d="M310 1978v-2080h274v93q0 19 -15 27q-50 27 -50 87q0 42 29.5 71.5t69.5 29.5q41 0 70 -29.5t29 -71.5q0 -60 -50 -87q-15 -8 -15 -27v-93h1296v93q0 19 -15 27q-50 27 -50 87q0 42 29.5 71.5t69.5 29.5q41 0 70 -29.5t29 -71.5q0 -60 -50 -87q-15 -8 -15 -27v-93h274
v2080h-1980zM795 1674v-96h160v-506h-131v-74q52 -10 90.5 -23.5t70.5 -32.5h88v636h142v96h-420zM390 1898h1820v-1170h-1820v1170zM1504 1674q6 -134 26 -240t62 -201t112 -193h-343v-98h473v70q-86 107 -129 204t-59.5 206t-22.5 252h-119zM863 490q58 0 84 -36t26 -87
v-262h-61v257q0 41 -14 58.5t-42 17.5q-37 0 -62 -42l-42 31q36 63 111 63zM1145 490q29 0 51.5 -13.5t41.5 -35.5h2l5 42h50v-286h-60v199q-34 42 -68 42q-47 0 -47 -67v-174h-60v181q0 54 20 83t65 29zM1443 490q21 0 33 -5l-7 -45q-6 1 -10 1q-15 0 -15 -22v-344h-60v341
q0 34 13.5 54t45.5 20zM1554 598q45 0 70.5 -27t41.5 -73l105 -301h-59l-45 146q-6 19 -11.5 39t-10.5 41h-3q-6 -21 -12.5 -41t-13.5 -39l-51 -146h-62l113 283l-6 19q-15 50 -59 50q-13 0 -21 -3l-12 46q15 6 36 6z" />
</svg>