<?xml version="1.0" standalone="no"?>
<!DOCTYPE svg PUBLIC "-//W3C//DTD SVG 1.1//EN" "http://www.w3.org/Graphics/SVG/1.1/DTD/svg11.dtd">
<svg xmlns="http://www.w3.org/2000/svg" xmlns:xlink="http://www.w3.org/1999/xlink" version="1.1"
   viewBox="94 -151 2414 2169">
   <path fill="currentColor"
      d="M2184 1219l-72 -70q50 0 96 -17.5t76 -42.5t30 -47q0 -13 -20 -28t-67 -43q-64 -39 -150 -105.5t-178 -187.5q14 -26 21 -73.5t7 -101.5q0 -149 -73.5 -268t-201 -189t-290.5 -70q-172 0 -296 76t-190.5 216.5t-66.5 335.5q-130 149 -232.5 229.5t-179.5 123.5
q-76 43 -93.5 63.5t-17.5 37.5q0 26 47.5 45t141.5 19v78q-114 0 -191.5 -34t-77.5 -106q0 -43 33 -81t119 -87q71 -41 166 -113t209 -202q0 -205 79.5 -357.5t221.5 -237t328 -84.5q184 0 330 79t230.5 216t84.5 310q0 43 -5 84.5t-16 78.5q71 85 151.5 145.5t130.5 91.5
q64 39 95 66.5t31 72.5q0 59 -58 108t-152 69zM1200 1693q-51 0 -110 -25t-114 -63q-73 -51 -124 -116t-51 -120q0 -13 9.5 -22t24.5 -9q24 0 36 29q23 49 60.5 94t83.5 80q91 69 192 83q33 5 33 35q0 15 -11.5 24.5t-28.5 9.5zM1333 1900q160 0 298.5 -51.5t244.5 -144.5
t170 -217t74 -269l-121 -94l-146 107l-261 -184l-280 166l-270 -171l-250 164l-162 -121l-127 78q6 154 71 287.5t177.5 234.5t261 158t320.5 57zM1333 1978q-195 0 -361 -65.5t-289 -182.5t-191.5 -273t-68.5 -337l216 -129l156 117l247 -161l271 173l283 -167l256 178
l151 -110l198 160q0 168 -66.5 312.5t-184.5 253.5t-276 170t-341 61zM1129 424q-28 0 -48 -26t-20 -62t20 -62t48 -26t48 26t20 62t-20 62t-48 26zM1348 679q-10 0 -20.5 -14t-29.5 -45l-12 -21q-9 -15 -19.5 -31.5t-22.5 -34.5q23 -11 40.5 -20t32.5 -19l24 -15
q25 -15 39.5 -20.5t21.5 -5.5q11 0 22.5 12.5t30.5 46.5l12 21q8 14 18.5 30t23.5 33q-23 10 -41.5 20t-35.5 21l-23 14q-25 15 -38.5 21.5t-22.5 6.5zM1683 534q-28 0 -45.5 -25t-17.5 -55q0 -37 22.5 -66.5t52.5 -29.5q28 0 45.5 25t17.5 55q0 37 -22.5 66.5t-52.5 29.5z
" />
</svg>