<?xml version="1.0" standalone="no"?>
<!DOCTYPE svg PUBLIC "-//W3C//DTD SVG 1.1//EN" "http://www.w3.org/Graphics/SVG/1.1/DTD/svg11.dtd">
<svg xmlns="http://www.w3.org/2000/svg" xmlns:xlink="http://www.w3.org/1999/xlink" version="1.1"
   viewBox="94 -151 2414 2169">
   <path fill="currentColor"
      d="M1589 370l342 798h-1262l342 -798h578zM1537 450h-474l-272 638h1018zM1445 1898v-189h-290v189h290zM1525 1978h-450v-349h450v349zM1598 530l-15 -100h-566l-15 100h-159v-200h914v200h-159zM562 199v1430h1476v-1430l-119 -221h-1238zM482 179l151 -281h1334l151 281
v1530h-1636v-1530zM758 1158l-39 -70l606 -346l-313 -300l57 -56l386 373zM1177 903l28 -75l669 249l-27 75zM1538 378l45 67l-317 212l-44 -67zM522 229v-80h1553v80h-1553z" />
</svg>