<?xml version="1.0" standalone="no"?>
<!DOCTYPE svg PUBLIC "-//W3C//DTD SVG 1.1//EN" "http://www.w3.org/Graphics/SVG/1.1/DTD/svg11.dtd">
<svg xmlns="http://www.w3.org/2000/svg" xmlns:xlink="http://www.w3.org/1999/xlink" version="1.1"
   viewBox="94 -151 2414 2169">
   <path fill="currentColor"
      d="M1676 1778q-58 0 -120.5 -7t-117.5 -19.5t-92 -29.5q-45 4 -93 8t-100 4q-365 0 -609 -104t-359 -302l74 -29q116 179 338.5 267t555.5 88q344 0 587 -138.5t360 -367.5q-135 -232 -285 -380t-330 -219t-405 -71q-197 0 -364 68.5t-296.5 201.5t-216.5 328l-77 -24
q81 -187 202.5 -325.5t277.5 -221t341 -100.5q32 -67 74 -129t86.5 -109.5t81.5 -68.5q157 63 325 201.5t328 332t292 422.5q36 -52 92 -114.5t115 -119.5t106.5 -93.5t67.5 -36.5q13 0 13 22q0 82 -34.5 168.5t-91 159t-121.5 114.5q108 69 174 164t66 208q0 36 -13 36
q-25 0 -75 -31.5t-108 -80.5t-109.5 -102.5t-80.5 -98.5q-50 80 -115 149.5t-138 122.5t-146 86q56 32 85.5 61t29.5 58q0 28 -37 40t-138 12zM173 1355q-17 0 -31.5 -10t-14.5 -28q0 -21 33.5 -44t142.5 -70q-90 -34 -140 -56.5t-70.5 -40.5t-20.5 -37q0 -14 12.5 -27
t30.5 -13q19 0 61.5 19.5t89.5 47.5t80 55.5t33 43.5q0 17 -22.5 43.5t-56 53.5t-68.5 45t-59 18zM637 1062q-32 0 -54.5 -22.5t-22.5 -54.5t22.5 -54.5t54.5 -22.5t54.5 22.5t22.5 54.5q0 31 -22.5 54t-54.5 23zM818 1340l-64 -49l119 -163l-10 -138l80 -6l12 167z
M1469 1449q-96 0 -183 -40t-142.5 -109t-55.5 -155q100 0 202 33.5t191.5 93.5t153.5 140q-78 37 -166 37zM2120 1191q-228 -69 -483 -115.5t-531 -50.5v-80q282 4 543.5 51.5t494.5 118.5z" />
</svg>