<?xml version="1.0" standalone="no"?>
<!DOCTYPE svg PUBLIC "-//W3C//DTD SVG 1.1//EN" "http://www.w3.org/Graphics/SVG/1.1/DTD/svg11.dtd">
<svg xmlns="http://www.w3.org/2000/svg" xmlns:xlink="http://www.w3.org/1999/xlink" version="1.1"
   viewBox="94 -151 2414 2169">
   <path fill="currentColor"
      d="M1722 1828q-54 0 -89.5 -39.5t-35.5 -100.5q0 -82 43 -150.5t116 -109.5t161 -41q76 0 142.5 30t108 79t41.5 106q0 56 -41 85t-112 29q-67 0 -114 17t-83 39t-68.5 39t-68.5 17zM1397 1593q-42 0 -79 -27t-60.5 -69t-23.5 -86t24 -73t67 -29q44 0 81.5 26.5t60.5 68
t23 87.5t-26 74t-67 28zM482 622q-39 0 -74 -25t-57 -65.5t-22 -84.5q0 -49 28 -80.5t71 -31.5q38 0 74.5 24t60 64t23.5 87q0 48 -29 80t-75 32zM751 906q-61 0 -86.5 -36t-25.5 -88q0 -72 44 -142t116 -116t156 -46q66 0 134.5 29t115 78t46.5 108q0 119 -179 119
q-75 0 -120 14t-75 33t-58 33t-68 14zM1587 1348q-41 0 -77 -26t-58 -67t-22 -84q0 -51 29.5 -83.5t74.5 -32.5q42 0 77.5 26t57.5 66.5t22 84.5q0 48 -28.5 82t-75.5 34zM711 417q-53 0 -95 -55t-42 -128q0 -60 30 -99.5t75 -39.5q36 0 67.5 26t51 68t19.5 90
q0 58 -30.5 98t-75.5 40zM1859 1235q-53 0 -87 -51.5t-34 -112.5q0 -55 28 -99.5t78 -44.5q54 0 87.5 52t33.5 113q0 55 -28 99t-78 44zM1008 353q-52 0 -88.5 -46t-36.5 -112q0 -61 31.5 -104t75.5 -43q52 0 88.5 46t36.5 111q0 61 -31.5 104.5t-75.5 43.5zM1286 447
q-47 0 -79 -40t-32 -98q0 -62 36 -107t85 -45q47 0 79 40t32 98q0 62 -35.5 107t-85.5 45zM2163 1279q-53 0 -87 -45.5t-34 -102.5q0 -56 32.5 -97.5t81.5 -41.5q52 0 84 45.5t32 102.5q0 55 -31 97t-78 42z" />
</svg>