<?xml version="1.0" standalone="no"?>
<!DOCTYPE svg PUBLIC "-//W3C//DTD SVG 1.1//EN" "http://www.w3.org/Graphics/SVG/1.1/DTD/svg11.dtd">
<svg xmlns="http://www.w3.org/2000/svg" xmlns:xlink="http://www.w3.org/1999/xlink" version="1.1"
   viewBox="94 -151 2414 2169">
   <path fill="currentColor"
      d="M139 1878q-13 -42 -18.5 -72.5t-5.5 -53.5q0 -101 81 -180.5t220.5 -130.5t315.5 -67v38q-121 -48 -211.5 -153.5t-140 -250.5t-49.5 -311q0 -208 74 -365t207 -245.5t309 -88.5t309 88.5t207 245.5t74 365q0 171 -51.5 319.5t-142 252.5t-207.5 144v-39q176 16 315.5 67
t220.5 130.5t81 180.5q0 23 -5.5 53.5t-18.5 72.5h-1564zM200 1798h1442q4 -18 4.5 -27.5t0.5 -18.5q0 -78 -78 -142t-217.5 -107t-326.5 -55v-89q125 -39 216 -135t140.5 -232t49.5 -295q0 -186 -63.5 -325t-178 -216.5t-268.5 -77.5q-153 0 -268 77.5t-178.5 216.5
t-63.5 325q0 164 51.5 303.5t143.5 233.5t211 124v89q-193 16 -332.5 59.5t-214.5 106.5t-75 139q0 9 0.5 18.5t4.5 27.5zM1681 1878l-6 -128l-54 -175l-361 -150l176 -47q-43 -27 -79 -61.5t-67 -73.5l172 -359l-6 -417l-180 -299q77 -78 180.5 -124t222.5 -46
q176 0 309 88.5t207 245.5t74 365q0 167 -49.5 313.5t-134.5 251t-192 148.5v-40q172 18 305.5 71t210 133t76.5 178q0 23 -5.5 53.5t-18.5 72.5h-780z" />
</svg>