<?xml version="1.0" standalone="no"?>
<!DOCTYPE svg PUBLIC "-//W3C//DTD SVG 1.1//EN" "http://www.w3.org/Graphics/SVG/1.1/DTD/svg11.dtd">
<svg xmlns="http://www.w3.org/2000/svg" xmlns:xlink="http://www.w3.org/1999/xlink" version="1.1"
   viewBox="94 -151 2414 2169">
   <path fill="currentColor"
      d="M1300 1978q-230 0 -418 -67t-322.5 -190.5t-207 -294t-72.5 -377.5q0 -216 54 -429.5t154 -400.5t237 -321l291 478l284 -470l285 470l290 -478q138 134 237.5 321t153.5 400.5t54 429.5q0 207 -72.5 377.5t-207 294t-322.5 190.5t-418 67zM609 1328h1384q19 0 33 -15
t14 -34v-400q0 -20 -14 -35t-33 -15h-1384q-20 0 -34.5 15t-14.5 35v400q0 19 15 34t34 15z" />
</svg>