<?xml version="1.0" standalone="no"?>
<!DOCTYPE svg PUBLIC "-//W3C//DTD SVG 1.1//EN" "http://www.w3.org/Graphics/SVG/1.1/DTD/svg11.dtd">
<svg xmlns="http://www.w3.org/2000/svg" xmlns:xlink="http://www.w3.org/1999/xlink" version="1.1"
   viewBox="94 -151 2414 2169">
   <path fill="currentColor"
      d="M1969 1977q-73 0 -139 -30.5t-125.5 -61t-114.5 -30.5q-509 0 -763.5 -242.5t-254.5 -720.5v-197q0 -14 -24 -24t-59 -24t-70.5 -39t-59.5 -67.5t-24 -109.5q0 -102 53 -179.5t145.5 -121t209.5 -43.5q200 0 304.5 130.5t104.5 380.5v363q0 112 42.5 168t145.5 82
l551 138q180 45 277 140t97 229q0 73 -40.5 131.5t-108 93t-147.5 34.5zM784 1710q-32 0 -55 -23t-23 -55t23 -55t55 -23t55 23t23 55t-23 55t-55 23zM634 1460q-32 0 -55 -23t-23 -55t23 -55t55 -23t55 23t23 55t-23 55t-55 23zM1054 1870q-32 0 -55 -23t-23 -55t23 -55
t55 -23t55 23t23 55t-23 55t-55 23zM554 1193q-34 0 -56 -23t-22 -55t23 -55t55 -23t55 23t23 55t-23 55t-55 23zM1394 1950q-32 0 -55 -23t-23 -55t23 -55t55 -23t55 23t23 55t-23 55t-55 23zM1064 1446q-19 0 -33.5 -14.5t-14.5 -33.5q0 -20 14.5 -34t33.5 -14q20 0 34 14
t14 34q0 19 -14 33.5t-34 14.5zM544 923q-32 0 -55 -23t-23 -55t23 -55t55 -23t55 23t23 55t-23 55t-55 23zM838 1322v-60q40 -2 91 -24t100 -58t83 -79l46 38q-40 49 -96.5 90t-115.5 66t-108 27zM887 1146q-19 0 -33.5 -14.5t-14.5 -33.5q0 -20 14.5 -34t33.5 -14
q20 0 34 14t14 34q0 19 -14 33.5t-34 14.5zM1188 1596l-39 -47q71 -62 105 -131t34 -151h60q0 94 -40 176t-120 153zM1714 1978q-32 0 -55 -23t-23 -55t23 -55t55 -23t55 23t23 55t-23 55t-55 23zM1394 1586q-19 0 -33.5 -14.5t-14.5 -33.5q0 -20 14.5 -34t33.5 -14
q20 0 34 14t14 34q0 19 -14 33.5t-34 14.5zM751 973v-60q101 0 178.5 -21.5t147.5 -69.5l34 50q-150 101 -360 101zM1542 1670l-48 -36q40 -59 62 -138.5t22 -167.5h60q0 96 -25.5 185.5t-70.5 156.5zM847 826q-19 0 -33.5 -14.5t-14.5 -33.5q0 -20 14.5 -34t33.5 -14
q20 0 34 14t14 34q0 19 -14 33.5t-34 14.5zM1704 1676q-19 0 -33.5 -14.5t-14.5 -33.5q0 -20 14.5 -34t33.5 -14q20 0 34 14t14 34q0 19 -14 33.5t-34 14.5zM1832 1757l-48 -36q40 -59 62 -139t22 -169h60q0 97 -25.5 187.5t-70.5 156.5zM1969 1897q87 0 151.5 -51.5
t64.5 -127.5q0 -106 -79.5 -179t-234.5 -112l-551 -138q-130 -32 -189 -110.5t-59 -217.5v-363q0 -218 -82 -324.5t-247 -106.5q-96 0 -170 33t-116 92.5t-42 138.5q0 54 24 85t59.5 48t70.5 30.5t59 31t24 49.5v217q0 444 230.5 663.5t707.5 219.5q66 0 131 30.5t127.5 61
t120.5 30.5zM2004 1776q-19 0 -33.5 -14.5t-14.5 -33.5q0 -20 14.5 -34t33.5 -14q20 0 34 14t14 34q0 19 -14 33.5t-34 14.5zM732 407q-22 0 -38.5 -16.5t-16.5 -38.5t16.5 -38t38.5 -16t38 16t16 38t-16 38.5t-38 16.5zM992 199l-57 -18q6 -21 6 -39q0 -50 -50.5 -98.5
t-144.5 -85.5l27 -54q109 43 168.5 105t59.5 133q0 27 -9 57zM1080 292l-48 -36q53 -68 53 -143q0 -96 -61 -185l52 -30q69 104 69 215q0 96 -65 179z" />
</svg>