<?xml version="1.0" standalone="no"?>
<!DOCTYPE svg PUBLIC "-//W3C//DTD SVG 1.1//EN" "http://www.w3.org/Graphics/SVG/1.1/DTD/svg11.dtd">
<svg xmlns="http://www.w3.org/2000/svg" xmlns:xlink="http://www.w3.org/1999/xlink" version="1.1"
   viewBox="94 -151 2414 2169">
   <path fill="currentColor"
      d="M1496 1978q-179 0 -179 -163q-46 52 -131 52q-81 0 -113.5 -42t-32.5 -139q0 -47 4.5 -80.5t1.5 -73.5l-3 -36q-3 -31 -16.5 -60t-30 -68t-29 -98t-12.5 -149h80q0 88 12 144.5t27.5 93t29 65.5t16.5 64l3 36q2 24 -2 53t-4 50q0 33 18.5 48t63.5 15q98 0 107 -75
l15 -121q3 -27 11.5 -42t25.5 -15q20 0 27 27.5t7 91.5q0 15 -2.5 53.5t-5 80t-2.5 65.5q0 22 27 35.5t82 13.5q49 0 76 -14t27 -49q0 -187 7 -296t34.5 -155.5t86.5 -46.5q49 0 77 38t28 101q0 50 -7 84.5t-7 57.5q0 27 20 43t68 16q50 0 73 -21t23 -85v-308
q0 -110 -5 -182t-19.5 -120.5t-42.5 -86t-74 -78.5q35 -48 61 -105.5t26 -109.5t-21 -83t-62 -31q-15 0 -23.5 8.5t-8.5 31.5q0 68 -33.5 133.5t-86.5 113.5q-39 0 -95.5 4.5t-114.5 13.5t-103.5 22t-62.5 30q0 -26 -0.5 -42.5t-5.5 -48.5q80 -26 173 -40t176 -14
q33 -40 53 -81.5t20 -90.5q0 -62 20.5 -91t75.5 -29q80 0 129.5 53.5t49.5 140.5q0 55 -20.5 110.5t-52.5 96.5q54 48 81 107.5t36.5 147t9.5 220.5v357q0 118 -46 176t-141 58q-78 0 -118 -44.5t-40 -121.5q0 -44 7.5 -101.5t7.5 -108.5q0 -29 -8.5 -39.5t-17.5 -10.5
q-10 0 -19 15.5t-15.5 63.5t-10 142t-3.5 252q0 88 -42.5 129.5t-134.5 41.5zM783 1264q-10 0 -13 -11t-6.5 -22t-15.5 -11q-19 0 -20.5 18t-16.5 18q-18 0 -18 -26q0 -33 -16 -63l-7 -14q-22 -43 -29.5 -70.5t-7.5 -63.5q0 -23 3 -54h169q0 29 15.5 60t31.5 72.5t16 103.5
q0 16 -3 35.5t-13 19.5q-11 0 -15.5 -15.5t-19.5 -15.5q-12 0 -15.5 10t-6 19.5t-12.5 9.5zM796 907q-52 0 -84 -32q-19 13 -41 13q-37 0 -59 -32l37 -27q9 11 21 11q20 0 22 -17l5 -48l-45 -45q-19 -19 -19 -31q0 -23 25 -23q12 0 22 10l47 45l68 -36q9 -5 17 -5
q10 0 16.5 8t6.5 16q0 13 -13 21l-75 45l-5 49q-1 13 16 21t39 8q26 0 40 -8l26 38q-30 19 -67 19zM1027 733q-22 0 -37 -15t-15 -37t15 -37t37 -15t37 15t15 37t-15 37t-37 15zM999 1152q-55 0 -111 -12.5t-114 -39.5l-23 -58q-71 0 -122.5 -36t-78.5 -90.5t-27 -111.5
q0 -60 26.5 -104t56 -84.5t39.5 -86.5q-38 -26 -63.5 -71.5t-25.5 -81.5q0 -29 19.5 -48t64.5 -19h50q33 0 65.5 -12.5t96.5 -48.5q20 10 39.5 32t32.5 55q39 -21 81.5 -32t90.5 -11q140 0 291 88h94q17 0 48.5 -11.5t62.5 -11.5q28 0 45.5 15t17.5 49q0 55 -20 109.5
t-63.5 91t-116.5 36.5q-33 0 -58 -7q2 22 3.5 44t1.5 44q0 121 -54.5 214t-146 146t-202.5 53zM995 1077q98 0 172.5 -46.5t117 -132t42.5 -202.5q0 -27 -3.5 -55.5t-10.5 -59.5q23 7 40 9.5t39 2.5q86 0 141 -39t55 -118q0 -10 -10 -10q-19 0 -50 11t-47 11h-116
q-70 -48 -138 -67t-131 -19q-67 0 -129 22.5t-108 64.5q0 -39 -4.5 -70.5t-12.5 -51.5q-46 24 -83 38t-88 14q-19 0 -27 7.5t-8 19.5q0 13 16 34t38 40t40 28q-3 45 -23 82t-44.5 71t-43 68.5t-18.5 74.5q0 59 30.5 98.5t73 58.5t78.5 19l12 48q58 27 106.5 38t93.5 11z
M908 381l-59 -102q0 -33 19.5 -95t58.5 -128t97 -112t135 -46q32 0 32 15q0 14 -14 27.5t-38 44t-53.5 95t-59.5 181.5l63 11q68 -149 152.5 -219.5t188.5 -70.5q56 0 85 13.5t29 28.5q0 17 -26.5 29.5t-67.5 34.5t-85 65.5t-79 123.5l-32 72l-189 -30z" />
</svg>