<?xml version="1.0" standalone="no"?>
<!DOCTYPE svg PUBLIC "-//W3C//DTD SVG 1.1//EN" "http://www.w3.org/Graphics/SVG/1.1/DTD/svg11.dtd">
<svg xmlns="http://www.w3.org/2000/svg" xmlns:xlink="http://www.w3.org/1999/xlink" version="1.1"
   viewBox="94 -151 2414 2169">
   <path fill="currentColor"
      d="M1027 1521q-223 0 -399 -93.5t-254 -268.5q-39 -88 -48.5 -176.5t-29.5 -167.5l-66 -270q-11 -47 -16 -86.5t-5 -72.5q0 -142 68 -252t181.5 -173t251.5 -63q114 0 210.5 44t170.5 124.5t120 190.5l38 91q44 103 100.5 151.5t111.5 48.5t113.5 -66.5t152.5 -243.5
q293 0 483.5 80.5t301.5 251.5l-643 443q47 23 66.5 48.5t19.5 63.5q0 43 -22.5 70.5t-67.5 43.5q-26 49 -62 73.5t-91 30.5l-31 36q-47 55 -106 81t-133 26q-59 0 -115 -17q-75 22 -150.5 37t-149.5 15zM854 1833q-43 0 -62 -9t-19 -31q0 -40 64 -47q80 -9 115 -37t35 -74
q0 -22 -7.5 -56t-25.5 -92l88 -16q17 46 26.5 99t9.5 88q0 85 -57 130t-167 45zM1093 1978q-52 0 -52 -37q0 -22 31.5 -46t72 -53.5t72 -67.5t31.5 -86q0 -18 -4 -55.5t-10.5 -83.5t-14.5 -87l93 -27l34 307q3 23 -23 62t-67 79t-85 67.5t-78 27.5zM262 656q-40 0 -80 -10.5
t-67 -26.5t-27 -31q0 -18 23.5 -49.5t58 -64t67.5 -55.5t52 -23q28 0 58 33.5t51 82t21 92.5q0 22 -45 37t-112 15zM692 505q-34 0 -58 -27t-24 -66q0 -38 24 -65t58 -27t58 27t24 65q0 39 -24 66t-58 27zM1027 1441q49 0 98.5 -7t98.5 -19q-101 -62 -199.5 -173.5
t-195.5 -274.5l68 -40q95 157 190 263.5t185 161t170 54.5q56 0 99 -20t80 -60l54 -60q58 -2 84 -20.5t49 -73.5q42 -10 54.5 -19t12.5 -28q0 -11 -7.5 -25.5t-36.5 -37.5t-92 -59l658 -450q-37 -68 -128.5 -120t-219.5 -82.5t-275 -32.5q-91 169 -161 239.5t-152 70.5
q-81 0 -156.5 -61t-127.5 -185l-38 -91q-41 -99 -104 -169t-144.5 -107t-180.5 -37q-118 0 -213.5 52t-151.5 144t-56 212q0 28 4.5 62.5t14.5 78.5l66 270q17 67 28.5 159.5t45.5 170.5q68 153 223.5 233.5t355.5 80.5z" />
</svg>