<?xml version="1.0" standalone="no"?>
<!DOCTYPE svg PUBLIC "-//W3C//DTD SVG 1.1//EN" "http://www.w3.org/Graphics/SVG/1.1/DTD/svg11.dtd">
<svg xmlns="http://www.w3.org/2000/svg" xmlns:xlink="http://www.w3.org/1999/xlink" version="1.1"
   viewBox="94 -151 2414 2169">
   <path fill="currentColor"
      d="M692 1978q-93 0 -177 -40.5t-149.5 -111.5t-103 -162t-37.5 -192q0 -107 34 -218.5t112 -265.5l74 31q-76 150 -108 252.5t-32 200.5q0 112 54.5 209.5t143 157t189.5 59.5h1216q102 0 190 -59.5t142.5 -157t54.5 -209.5q0 -98 -31.5 -200.5t-108.5 -252.5l74 -31
q78 154 112 265.5t34 218.5q0 101 -37.5 192t-103 162t-149.5 111.5t-177 40.5h-1216zM999 1075l-65 -45l288 -408l65 46zM1260 1141v-510h80v510h-80zM331 1071v-386q0 -155 75 -230.5t228 -75.5h1332q153 0 228 75.5t75 230.5v386q-140 0 -225 -77t-103 -230
q-5 -44 -25.5 -62t-65.5 -18h-1100q-45 0 -65.5 18t-25.5 62q-18 153 -103 230t-225 77zM411 981q49 -13 82.5 -41t54.5 -74.5t31 -113.5q11 -74 53.5 -111t116.5 -37h1102q74 0 116.5 37t53.5 111q10 67 31 113.5t54.5 74.5t82.5 41v-296q0 -122 -51.5 -174t-171.5 -52
h-1332q-120 0 -171.5 52t-51.5 174v296zM1601 1075l-288 -407l65 -46l288 408zM1174 426l-50 -201l80 -9l52 210h-82zM1135 273q-77 0 -132 -54.5t-55 -133.5q0 -77 55 -132t132 -55q78 0 133 55t55 132q0 79 -54.5 133.5t-133.5 54.5zM1135 193q46 0 77 -31t31 -77
q0 -44 -31.5 -75.5t-76.5 -31.5t-76 31t-31 76t31 76.5t76 31.5zM1348 426l53 -213l79 11l-50 202h-82zM1466 273q-78 0 -133 -54.5t-55 -133.5q0 -49 26.5 -91.5t69.5 -69t92 -26.5q79 0 133 54.5t54 132.5q0 79 -54.5 133.5t-132.5 54.5zM1466 193q45 0 76 -31t31 -77
t-30.5 -76.5t-76.5 -30.5q-41 0 -74.5 33t-33.5 74q0 46 31 77t77 31z" />
</svg>