<?xml version="1.0" standalone="no"?>
<!DOCTYPE svg PUBLIC "-//W3C//DTD SVG 1.1//EN" "http://www.w3.org/Graphics/SVG/1.1/DTD/svg11.dtd">
<svg xmlns="http://www.w3.org/2000/svg" xmlns:xlink="http://www.w3.org/1999/xlink" version="1.1"
   viewBox="94 -151 2414 2169">
   <path fill="currentColor"
      d="M750 1795q-20 0 -33 -17.5t-13 -45.5q0 -11 2 -21q-12 5 -32 5q-25 0 -42 -17t-33 -59q-29 0 -43.5 19.5t-25 39.5t-29.5 20q-9 0 -16 -5.5t-7 -15.5q0 -17 15.5 -34t15.5 -28t-10 -11q-8 0 -16 9t-27 9q-28 0 -28 -26q0 -20 17 -30t34 -16.5t17 -17.5t-16 -14t-32.5 -8
t-16.5 -22q0 -28 47 -28q49 0 83 23t65 46.5t68 23.5l88 123v64q0 15 -8.5 24.5t-23.5 9.5zM889 1779l-45 -39l91 -106l45 39zM724 1580l-20 -57l142 -50l20 57zM838 1361l-150 -2v-60l150 2v60zM667 1287l-115 -72q-22 10 -42 15.5t-35 5.5q-49 0 -68.5 -8.5t-19.5 -27.5
q0 -29 39 -29q31 0 49.5 -10t18.5 -26q0 -7 -1.5 -16t-1.5 -16q0 -23 15.5 -41t30.5 -33t15 -29q0 -17 -24 -32t-48 -31t-24 -36q0 -26 37 -26q38 0 58.5 21.5t33 43.5t24.5 22q13 0 13 -13q0 -27 -15 -45.5t-30.5 -33t-15.5 -29.5q0 -10 7.5 -16t17.5 -6q19 0 38.5 18
t33 42.5t13.5 44.5q0 15 13 15q14 0 14 -20q0 -30 -15.5 -48t-15.5 -37q0 -17 18 -17q24 0 48.5 33.5t24.5 64.5q0 32 -30.5 82.5t-83.5 113.5l62 42zM864 1207l-132 -78l33 -50l132 78zM959 1078l-91 -110l47 -37l92 111zM1098 978l-70 -123l53 -30l70 124zM1906 1735
q-15 0 -19 -15t-7 -29.5t-15 -14.5q-11 0 -15 12.5t-9.5 25t-21.5 12.5q-22 0 -22 -26q0 -11 2.5 -18t2.5 -17q0 -11 -10 -11q-11 0 -15.5 12t-9.5 24.5t-20 12.5q-19 0 -19 -37q0 -43 39 -80t130 -77l-13 -61l117 -20l17 65q32 0 65 21.5t33 52.5q0 33 -20 33
q-11 0 -23 -14t-30 -14q-13 0 -23 12t-42 32q-34 21 -48 26t-14 19q0 13 7.5 24.5t7.5 25.5q0 24 -25 24zM707 341q-25 0 -25 -24t25 -24q24 0 24 24t-24 24zM785 703q43 0 81 -20t74 -20h66q92 0 137 -19t62 -68q37 -20 61.5 -49t24.5 -50q0 -14 -9 -24.5t-23 -10.5
q-8 0 -13.5 3.5t-10.5 3.5q-7 0 -7 -9q0 -5 1.5 -16t1.5 -25q0 -26 -15 -43t-30.5 -29.5t-15.5 -24.5t33 -12q32 0 32 -23q0 -30 -54 -30q-6 0 -12 1.5t-11 1.5t-5 -3q0 -5 10 -6.5t10 -12.5q0 -19 -39 -19t-64 11.5t-38 11.5q-7 0 -7 -5q1 -8 19.5 -17.5t18.5 -18.5
q0 -11 -26 -11q-23 0 -54.5 21t-63 54.5t-55.5 72.5h-89q-19 -35 -47 -52t-44 -17q-13 0 -26.5 26.5t-13.5 66.5q0 42 26.5 63.5t82.5 21.5q14 0 42.5 -2t54.5 -3.5t32 -1.5q46 0 76 21t30 60q0 37 -27 61t-67 24q-22 0 -41.5 14t-33.5 30t-26.5 26.5t-31.5 10.5
q-26 0 -44 -16q18 52 68 52zM1007 361q24 0 24 -24t-24 -24q-25 0 -25 24t25 24zM1003 392q-23 0 -39.5 -16t-16.5 -38q0 -51 65 -51h95q-6 38 -38 71.5t-66 33.5zM1340 782q-49 0 -114 -6.5t-122.5 -18t-87.5 -24.5h-76q-29 0 -72 19t-94 19q-65 0 -100 -41t-35 -99
q0 -35 17.5 -57t47.5 -22q20 0 33.5 10.5t22.5 29.5q26 -37 63 -56.5t71 -19.5q24 0 24 -18q0 -9 -7.5 -13.5t-23.5 -4.5q-12 0 -57.5 8.5t-76.5 8.5q-88 0 -138.5 -39t-50.5 -116q0 -72 35 -117.5t85 -45.5q35 0 72.5 22.5t65.5 58.5q65 -90 123.5 -127t128.5 -37
q46 0 76.5 10t67 20.5t98.5 10.5q55 0 122 -12t155 -12q41 0 60 7t19 18q0 19 -22.5 26.5t-45.5 15t-23 26.5q0 11 11.5 17t27.5 6q24 0 41.5 -6.5t42.5 -6.5q43 0 43 22q0 21 -24 31.5t-55.5 16.5t-55.5 14t-24 25q0 13 11 18.5t26 5.5q29 0 65.5 -10t66.5 -10q34 0 34 22
t-26.5 33t-62 17t-62 13.5t-26.5 23.5q0 9 8.5 14t19.5 5q20 0 43.5 -6t47.5 -6q41 0 41 27q0 25 -26.5 33t-53.5 12.5t-27 20.5t26 17t51.5 5t25.5 30q0 18 -25 32t-55 14q-23 0 -58.5 -6t-70 -14.5t-55.5 -13.5l-140 45q0 14 16 21.5t37.5 14t37.5 17t16 30.5q0 24 -30 38
t-103 14zM667 221q-23 -23 -33.5 -50.5t-10.5 -55.5q0 -55 33.5 -89.5t85.5 -34.5q33 0 55.5 11l45 22t52.5 11q64 0 64 -46q0 -41 -40 -41q-17 0 -29 10t-12 25h-50q0 -36 27 -60.5t64 -24.5q39 0 64.5 26.5t25.5 64.5q0 43 -31.5 69.5t-82.5 26.5t-85 -22t-68 -22
t-51.5 21t-17.5 53q0 42 29 74zM1252 161l-89 -40q8 -8 13 -15t7 -15q9 -32 23.5 -56t32.5 -38t37 -14q28 0 28 32q0 16 -17 30.5t-34 28.5t-17 31t19 17q18 0 37 -21t39.5 -48.5t42 -48.5t43.5 -21q14 0 20.5 10t6.5 24q0 33 -29 63.5t-73.5 52t-89.5 28.5zM2092 877
q69 109 95 170.5t26 118.5q0 83 -42.5 152.5t-114 111.5t-158.5 42q-27 0 -66.5 -3.5t-76.5 -6.5t-57 -3q-25 0 -42 23.5t-27 80.5q-20 123 -85.5 194.5t-160.5 71.5q-10 13 -34 22.5t-51 14.5q9 14 19 37.5t10 38.5q0 16 -7 25t-24 9q-21 0 -31 -16.5t-15 -32.5t-13 -16
q-7 0 -8.5 16.5t-8 33.5t-29.5 17q-25 0 -29.5 -18.5t-3.5 -36.5t-10 -18q-10 0 -15.5 13.5t-13 27.5t-22.5 14q-13 0 -21 -13t-8 -35q0 -18 6 -36q-122 -14 -219 -85t-153 -182t-56 -244q0 -86 23 -160.5t72.5 -143.5t129.5 -135.5t194 -135.5q113 -68 161 -116t48 -91
l275 -88q35 25 53 79.5t18 130.5q0 107 -52 194.5t-167 154.5l-240 140q-62 36 -100 91t-38 115q0 58 37.5 93t98.5 35q53 0 88 -30.5t69 -105.5l35 -77q48 -105 116 -152t159 -47q42 0 95.5 7t99.5 14t65 7q15 0 26 -6t11 -24q0 -11 -10.5 -37t-36.5 -67
q-49 -77 -72.5 -139t-23.5 -111q0 -63 33.5 -129t82.5 -111t95 -45q29 0 45 19t16 60q0 43 -12.5 73t-12.5 70q0 77 65 180zM1897 1392q99 0 167.5 -67t68.5 -164q0 -46 -20.5 -95.5t-76.5 -137.5q-46 -73 -65.5 -123.5t-19.5 -96.5q0 -18 3 -41.5t9 -48.5t15 -47
q-39 22 -65.5 54t-39.5 68t-13 71q0 43 19.5 92.5t57.5 110.5q42 67 53 94.5t11 60.5q0 46 -34 74t-76 28q-52 0 -127.5 -14t-137.5 -14q-81 0 -127.5 44t-87.5 135l-27 60q-41 91 -96 132t-129 41q-95 0 -155.5 -58.5t-60.5 -145.5q0 -84 46.5 -157t127.5 -120l237 -138
q95 -56 140.5 -124t45.5 -160q0 -22 -1.5 -43.5t-4.5 -37.5q-26 0 -66.5 7.5t-79 18t-58.5 20.5q-25 46 -82 92.5t-163 108.5q-121 70 -200.5 147t-119 163t-39.5 184q0 119 52.5 218t141 158t196.5 59q53 -32 100 -46.5t99 -14.5q18 0 38 1.5t42 5.5q58 0 96.5 -51
t60.5 -155q20 -95 50 -128t88 -33q52 0 111 6.5t96 6.5z" />
</svg>