<?xml version="1.0" standalone="no"?>
<!DOCTYPE svg PUBLIC "-//W3C//DTD SVG 1.1//EN" "http://www.w3.org/Graphics/SVG/1.1/DTD/svg11.dtd">
<svg xmlns="http://www.w3.org/2000/svg" xmlns:xlink="http://www.w3.org/1999/xlink" version="1.1"
   viewBox="94 -151 2414 2169">
   <path fill="currentColor"
      d="M1880 1828q-123 0 -233 -71.5t-195 -195.5t-133.5 -284.5t-48.5 -338.5t48.5 -338.5t133.5 -284.5t195 -195.5t233 -71.5t233 71.5t195 195.5t133.5 284.5t48.5 338.5t-48.5 338.5t-133.5 284.5t-195 195.5t-233 71.5zM540 1262q-62 0 -114 -41.5t-82.5 -112
t-30.5 -155.5q0 -86 30.5 -156t82.5 -111.5t114 -41.5q42 0 82 21q-27 19 -42.5 51.5t-15.5 67.5q0 49 27.5 81.5t70.5 32.5q52 0 92 -49q13 46 13 104q0 85 -30.5 155.5t-82 112t-114.5 41.5zM720 1828q-123 0 -233 -71.5t-195 -195.5t-133.5 -284.5t-48.5 -338.5
t48.5 -338.5t133.5 -284.5t195 -195.5t233 -71.5t233 71.5t195 195.5t133.5 284.5t48.5 338.5t-48.5 338.5t-133.5 284.5t-195 195.5t-233 71.5zM720 1748q105 0 200.5 -65t169.5 -178.5t117 -259.5t43 -307t-43 -307t-117 -259.5t-169.5 -178.5t-200.5 -65t-200.5 65
t-169.5 178.5t-117 259.5t-43 307t43 307t117 259.5t169.5 178.5t200.5 65zM1700 1262q-62 0 -114 -41.5t-82.5 -112t-30.5 -155.5q0 -86 30.5 -156t82.5 -111.5t114 -41.5q42 0 82 21q-27 19 -42.5 51.5t-15.5 67.5q0 49 27.5 81.5t70.5 32.5q52 0 92 -49q13 46 13 104
q0 85 -30.5 155.5t-82 112t-114.5 41.5zM1880 1748q105 0 200.5 -65t169.5 -178.5t117 -259.5t43 -307t-43 -307t-117 -259.5t-169.5 -178.5t-200.5 -65t-200.5 65t-169.5 178.5t-117 259.5t-43 307t43 307t117 259.5t169.5 178.5t200.5 65z" />
</svg>