<?xml version="1.0" standalone="no"?>
<!DOCTYPE svg PUBLIC "-//W3C//DTD SVG 1.1//EN" "http://www.w3.org/Graphics/SVG/1.1/DTD/svg11.dtd">
<svg xmlns="http://www.w3.org/2000/svg" xmlns:xlink="http://www.w3.org/1999/xlink" version="1.1"
   viewBox="94 -151 2414 2169">
   <path fill="currentColor"
      d="M1405 1799q-85 0 -153 -46q-78 33 -167 33q-126 0 -233 -65.5t-166 -175.5q-93 -7 -168 -55.5t-118.5 -126t-43.5 -171.5q0 -71 27 -134q-96 -93 -96 -226q0 -80 37.5 -148.5t100.5 -111.5q-62 -87 -62 -190q0 -90 43 -161t117 -112.5t166 -41.5q51 -78 137 -123.5
t174 -45.5q110 0 200.5 59.5t135.5 156.5q7 -1 21 -1q54 0 100 26.5t74 70.5q38 -16 83 -16q67 0 121 36.5t77 94.5q23 -3 46 -3q94 0 171.5 46.5t123.5 124t46 171.5q0 41 -7 77q57 61 89 140.5t32 165.5q0 115 -57.5 214.5t-163.5 151.5q-22 120 -113 192t-207 72
q-62 0 -123 -22q-36 65 -101 104.5t-143 39.5zM862 1897q-44 0 -72 -20t-31 -59l-21 -257l215 143v115q0 34 -23.5 56t-67.5 22zM1207 1978q-61 0 -82.5 -34t-21.5 -56v-161l204 -15v176q0 9 -7 30.5t-28.5 40.5t-64.5 19zM856 1061q35 0 72 -25l-30 -41q-23 13 -43 13
q-37 0 -40 -47q44 -7 74.5 -30t30.5 -46q0 -17 -19 -17q-13 0 -35.5 8t-60.5 24q-22 -24 -49.5 -42.5t-41.5 -18.5q-15 0 -15 17q0 22 25 53.5t54 46.5q-16 26 -39 26t-48 -22l-31 37q39 39 81 39q26 0 43 -17q27 42 72 42zM1619 1884q-55 0 -90 -29.5t-35 -87.5l112 -125
l120 9v168q0 17 -27 41t-80 24zM706 706q26 4 47 -13.5t27 -46.5t-8.5 -53.5t-40.5 -28.5q-25 -5 -46.5 13t-27.5 47t8.5 53t40.5 29zM869 1174q-133 0 -219 -67t-86 -170q0 -52 20 -110t20 -107q0 -17 -5 -33t-13 -25q-14 5 -28 8t-30 3q-46 0 -89 -26t-70 -61.5t-27 -63.5
q0 -29 29 -29q30 0 76.5 14.5t86.5 14.5q60 0 114 -22.5t94 -60.5q19 64 75 106.5t129 42.5q60 0 110.5 -31.5t75.5 -80.5q12 45 52 75.5t92 30.5q34 0 63 -14t49 -37q28 41 78.5 64.5t84.5 25.5q41 2 41 29q0 22 -58.5 49.5t-198.5 27.5q-33 0 -69 21t-53 52
q-23 41 -33.5 105t-28.5 108q-31 76 -105 118.5t-177 42.5zM1955 1880q-45 0 -73.5 -22.5t-28.5 -48.5v-187l118 -66l105 -116v372q0 28 -36.5 48t-84.5 20zM1065 772q28 5 51.5 -14.5t29.5 -50.5q6 -32 -9.5 -58t-44.5 -31q-28 -5 -51.5 14t-29.5 51q-6 31 10 57.5t44 31.5
zM1405 1721q71 0 129.5 -45t87.5 -118q41 21 76 31t74 10q101 0 173.5 -69.5t82.5 -178.5q61 -19 107 -61t72 -104t26 -139q0 -80 -34 -156.5t-100 -124.5q13 -28 16.5 -51.5t3.5 -50.5q0 -72 -35 -132t-94.5 -96t-131.5 -36q-14 0 -39.5 3.5t-57.5 13.5q-1 -43 -22.5 -75.5
t-54.5 -51t-70 -18.5q-25 0 -55.5 10.5t-58.5 27.5q-14 -53 -55 -86t-88 -33q-8 0 -28.5 2t-43.5 10q-19 -70 -61.5 -121t-100 -78.5t-123.5 -27.5q-54 0 -105.5 22t-92.5 61.5t-64 92.5q-13 -5 -25 -6t-23 -1q-71 0 -127 31t-88 84.5t-32 121.5q0 56 25 108.5t69 101.5
q-76 32 -123 97.5t-47 142.5q0 62 28.5 115.5t77.5 79.5q-17 47 -27 84.5t-10 80.5q0 75 37.5 137t96.5 99.5t124 37.5q15 0 24.5 -1t18.5 -2q28 74 81 129.5t122 85.5t145 30q50 0 94 -12.5t84 -37.5q29 31 65 47t77 16z" />
</svg>