<?xml version="1.0" standalone="no"?>
<!DOCTYPE svg PUBLIC "-//W3C//DTD SVG 1.1//EN" "http://www.w3.org/Graphics/SVG/1.1/DTD/svg11.dtd">
<svg xmlns="http://www.w3.org/2000/svg" xmlns:xlink="http://www.w3.org/1999/xlink" version="1.1"
   viewBox="94 -151 2414 2169">
   <path fill="currentColor"
      d="M1300 1025q-313 -247 -463.5 -439t-150.5 -359q0 -93 42.5 -167.5t115 -118t163.5 -43.5t167 44t126 127q50 -83 126 -127t167 -44t163.5 43.5t115 118t42.5 167.5q0 167 -150.5 359t-463.5 439zM671 1978q-304 0 -450 -70t-146 -216q0 -251 74 -428t207.5 -270.5
t314.5 -93.5t314.5 93.5t207.5 270.5t74 428q0 146 -146 216t-450 70zM671 1898q266 0 391 -49t125 -157q0 -230 -63.5 -389t-179 -241t-273.5 -82q-157 0 -273 82t-179.5 241t-63.5 389q0 108 125.5 157t390.5 49zM565 1304q-91 0 -137 -71l50 -33q28 44 87 44q75 0 96 -73
l58 16q-15 53 -57 85t-97 32zM998 1706l-29 -54q64 -34 64 -84q0 -20 -15.5 -32.5t-47.5 -12.5l-17 -50q31 -18 39.5 -31.5t8.5 -26.5q0 -15 -19.5 -25.5t-47.5 -10.5v-60q53 0 90 26.5t37 67.5q0 17 -6 32t-20 33q58 31 58 89q0 87 -95 139zM948 1242q-77 0 -129 -65
l46 -38q35 43 83 43q53 0 71 -52l57 19q-14 43 -49 68t-79 25zM1602 1706q-95 -52 -95 -139q0 -58 58 -89q-14 -18 -20 -33t-6 -32q0 -41 37 -67.5t90 -26.5v60q-28 0 -47.5 10.5t-19.5 25.5q0 13 8.5 26.5t39.5 31.5l-17 50q-32 0 -47.5 12.5t-15.5 32.5q0 50 64 84z
M1652 1242q-44 0 -79 -25t-49 -68l57 -19q18 52 71 52q48 0 83 -43l46 38q-52 65 -129 65zM1929 1978q-304 0 -450 -70t-146 -216q0 -251 74 -428t208 -270.5t314 -93.5q181 0 314.5 93.5t207.5 270.5t74 428q0 146 -145.5 216t-450.5 70zM1929 1898q266 0 391 -49t125 -157
q0 -230 -63.5 -389t-179 -241t-273.5 -82q-157 0 -273 82t-179.5 241t-63.5 389q0 108 125.5 157t390.5 49zM2035 1304q-55 0 -97 -32t-57 -85l58 -16q21 73 96 73q59 0 87 -44l50 33q-46 71 -137 71zM1300 936q278 -224 411 -395.5t133 -313.5q0 -112 -71.5 -185.5
t-179.5 -73.5q-90 0 -169.5 61.5t-123.5 162.5q-45 -101 -124 -162.5t-169 -61.5q-108 0 -179.5 73.5t-71.5 185.5q0 142 132.5 313.5t411.5 395.5z" />
</svg>