<?xml version="1.0" standalone="no"?>
<!DOCTYPE svg PUBLIC "-//W3C//DTD SVG 1.1//EN" "http://www.w3.org/Graphics/SVG/1.1/DTD/svg11.dtd">
<svg xmlns="http://www.w3.org/2000/svg" xmlns:xlink="http://www.w3.org/1999/xlink" version="1.1"
   viewBox="94 -151 2414 2169">
   <path fill="currentColor"
      d="M871 1978q-79 0 -135 -56t-56 -134v-1700q0 -78 56 -134t135 -56h858q79 0 135 55.5t56 134.5v1701q0 77 -56 133t-135 56h-858zM930 1709v-140h140v140h-140zM1130 1709v-140h140v140h-140zM1330 1709v-140h140v140h-140zM1530 1709v-140h140v140h-140zM930 1068v-140
h140v140h-140zM930 868v-140h140v140h-140zM1130 1068v-140h140v140h-140zM891 1898h818q54 0 92.5 -39t38.5 -92v-1495q0 -53 -38.5 -91t-92.5 -38h-818q-54 0 -92.5 38t-38.5 91v1495q0 53 38.5 92t92.5 39zM930 668v-140h140v140h-140zM1130 868v-140h140v140h-140z
M930 468v-140h140v140h-140zM1130 668v-140h140v140h-140zM1330 868v-140h140v140h-140zM1130 468v-140h140v140h-140zM1330 668v-140h140v140h-140zM1530 868v-140h140v140h-140zM1330 468v-140h140v140h-140zM1530 668v-140h140v140h-140zM1530 468v-140h140v140h-140z
M1088 63h424v-85h-424v85z" />
</svg>