<?xml version="1.0" standalone="no"?>
<!DOCTYPE svg PUBLIC "-//W3C//DTD SVG 1.1//EN" "http://www.w3.org/Graphics/SVG/1.1/DTD/svg11.dtd">
<svg xmlns="http://www.w3.org/2000/svg" xmlns:xlink="http://www.w3.org/1999/xlink" version="1.1"
   viewBox="94 -151 2414 2169">
   <path fill="currentColor"
      d="M1334 1528q-25 -13 -77.5 -56t-121 -106.5t-142.5 -137.5t-137.5 -142.5t-106.5 -121t-56 -77.5l54 -55q34 -34 87 -38t129 22l682 -682l442 442l-682 682q26 76 22 129t-38 87zM741 1875q-10 10 -45.5 -9t-86 -59t-104.5 -94q-54 -55 -94.5 -105t-59 -85.5t-8.5 -45.5
l49 -49q10 -10 46 9t86 59.5t103 93.5q54 53 94 103.5t59 86.5t9 46zM699 1798l-281 -281l480 -475l281 281zM692 1693l395 -391l-168 -168l-395 390zM1261 1091l176 -175l-138 -138l-176 175q17 13 44.5 39t54 53.5t39.5 45.5zM1258 1161q-21 -30 -58 -69t-76.5 -76.5
t-70.5 -59.5l288 -288l205 205zM1325 1431q32 -32 31 -80t-34 -122l657 -657l-331 -329l-656 656q-74 -33 -122 -34t-80 31q19 26 58.5 72t90.5 100.5t105 108.5q54 53 108.5 104.5t100.5 91t72 58.5zM1891 418l-95 -95l82 -82q63 -63 110 -16q48 48 -15 111zM1966 295
l-48 -48l251 -249h91z" />
</svg>