<?xml version="1.0" standalone="no"?>
<!DOCTYPE svg PUBLIC "-//W3C//DTD SVG 1.1//EN" "http://www.w3.org/Graphics/SVG/1.1/DTD/svg11.dtd">
<svg xmlns="http://www.w3.org/2000/svg" xmlns:xlink="http://www.w3.org/1999/xlink" version="1.1"
   viewBox="94 -151 2414 2169">
   <path fill="currentColor"
      d="M1300 1918q-228 0 -409 -65t-304.5 -189t-181.5 -301q-124 -38 -197 -132.5t-73 -219.5q0 -88 36 -159.5t98.5 -117t143.5 -54.5q62 -229 189 -392.5t305 -251.5t393 -88q216 0 393.5 88t304.5 251.5t189 392.5q81 9 144 54.5t98.5 117t35.5 159.5q0 125 -72.5 219.5
t-197.5 132.5q-57 177 -181 301t-305 189t-409 65zM454 1216q-56 -11 -92.5 -68.5t-36.5 -133.5q0 -75 37.5 -128.5t90.5 -53.5q-7 43 -13 91.5t-6 101.5q0 54 5 101.5t15 89.5zM1300 1479q-106 0 -198.5 -24.5t-149 -63.5t-56.5 -83q0 -56 105.5 -87.5t298.5 -31.5
q194 0 299 31.5t105 87.5q0 44 -56.5 83t-148.5 63.5t-199 24.5zM1006 1008q-48 0 -81.5 -41.5t-33.5 -98.5q0 -58 33.5 -98.5t81.5 -40.5t81.5 40.5t33.5 98.5q0 57 -33.5 98.5t-81.5 41.5zM1300 1114q-35 0 -66 -25t-31 -53q0 -36 97 -36t97 36q0 28 -31 53t-66 25z
M1300 1700q-205 0 -358.5 -53.5t-238.5 -149.5t-85 -223q0 -57 14 -102t30 -82q14 -34 23 -62t9 -59q0 -27 -7 -58t-17 -67q-10 -39 -19.5 -81.5t-9.5 -84.5q0 -84 37.5 -149.5t102.5 -102.5t149 -37q71 0 129 25.5t104 51.5q40 22 73 37t64 15q32 0 64.5 -15t72.5 -37
q47 -26 105 -51.5t128 -25.5q84 0 149.5 37t102.5 102.5t37 149.5q0 42 -9 84.5t-20 81.5q-10 36 -17 67t-7 58q0 31 9 59t23 62q16 37 30 82t14 102q0 127 -85 223t-238.5 149.5t-358.5 53.5zM1300 1620q183 0 318.5 -43t209.5 -121t74 -182q0 -44 -11.5 -80.5t-26.5 -73.5
q-13 -34 -25.5 -71.5t-12.5 -79.5q0 -35 8 -72.5t18 -73.5q11 -38 19 -74.5t8 -70.5q0 -93 -58 -151t-151 -58q-55 0 -101.5 20t-93.5 47q-40 22 -84 42t-91 20t-91 -20t-84 -42q-47 -27 -93.5 -47t-101.5 -20q-93 0 -151 58t-58 151q0 34 8.5 70.5t18.5 74.5q10 36 18 73.5
t8 72.5q0 42 -12 79.5t-26 71.5q-15 37 -26.5 73.5t-11.5 80.5q0 104 74 182t209.5 121t318.5 43zM1300 1838q331 0 547.5 -141.5t284.5 -400.5q117 -23 185 -100.5t68 -184.5q0 -110 -67 -181.5t-170 -71.5h-12t-12 1q-51 -229 -167 -392.5t-283.5 -251t-373.5 -87.5
t-373.5 87.5t-283.5 251t-167 392.5q-6 -1 -12 -1h-12q-103 0 -170 71.5t-67 181.5q0 107 68 184.5t185 100.5q68 259 284.5 400.5t547.5 141.5zM1594 1008q-48 0 -81.5 -41.5t-33.5 -98.5q0 -58 33.5 -98.5t81.5 -40.5t81.5 40.5t33.5 98.5q0 57 -33.5 98.5t-81.5 41.5z
M2146 1216q10 -42 15 -89.5t5 -101.5q0 -53 -4.5 -101t-14.5 -92q53 0 90.5 53.5t37.5 128.5q0 76 -36.5 133.5t-92.5 68.5z" />
</svg>