<?xml version="1.0" standalone="no"?>
<!DOCTYPE svg PUBLIC "-//W3C//DTD SVG 1.1//EN" "http://www.w3.org/Graphics/SVG/1.1/DTD/svg11.dtd">
<svg xmlns="http://www.w3.org/2000/svg" xmlns:xlink="http://www.w3.org/1999/xlink" version="1.1"
   viewBox="94 -151 2414 2169">
   <path fill="currentColor"
      d="M1250 1978q-293 0 -462.5 -87.5t-185.5 -244.5q-8 -83 -13.5 -160.5t-8 -166t-3.5 -202t-1 -267.5h80q0 153 0.5 267t3.5 202.5t8 165t14 155.5q14 117 164.5 187.5t403.5 70.5q355 0 541.5 -70.5t186.5 -185.5q0 -26 -8 -50.5t-21 -50.5q-15 -31 -26.5 -66.5
t-11.5 -79.5q0 -80 12 -176t27 -194t22 -185h79q-7 89 -21.5 185.5t-26.5 191.5t-12 178q0 43 11.5 76t25.5 63q13 26 21.5 52t8.5 56q0 154 -205.5 245t-602.5 91zM876 1182q0 -68 27 -116.5t78 -82.5l29 39q-41 29 -62.5 66.5t-21.5 93.5h-50zM1291 1238q-84 0 -155 -33
t-125 -99l51 -44q45 56 102 82t127 26q71 0 127 -26t102 -82l52 44q-55 66 -126 99t-155 33zM1020 903q-38 0 -63 -28t-25 -68t25 -68.5t63 -28.5t63.5 28.5t25.5 68.5t-25.5 68t-63.5 28zM1656 1182q0 -56 -21 -93.5t-63 -66.5l30 -39q50 34 77 82.5t27 116.5h-50z
M1570 903q-38 0 -63.5 -28t-25.5 -68t25.5 -68.5t63.5 -28.5t63 28.5t25 68.5t-25 68t-63 28zM579 937q-28 -74 -46 -148t-18 -147q0 -156 58 -291t163.5 -236.5t248.5 -159t314 -57.5q170 0 313.5 57t249.5 159t164.5 237t58.5 290q0 64 -12 129.5t-35 133.5h-57
q-80 -46 -157 -137.5t-136.5 -204t-87.5 -220.5q-100 79 -206.5 117.5t-214.5 68.5q-106 29 -205.5 68.5t-184.5 117t-147 223.5h-63zM622 815q70 -120 156.5 -187.5t182.5 -105t194 -65.5q83 -24 162.5 -51.5t160.5 -72.5t167 -118q22 116 73.5 233.5t121 214.5t143.5 152
q13 -45 17.5 -88t4.5 -84q0 -140 -52.5 -261t-147.5 -211.5t-224 -141.5t-282 -51t-281.5 50.5t-223.5 140.5t-147 211t-52 262q0 43 8.5 88.5t18.5 84.5z" />
</svg>