<?xml version="1.0" standalone="no"?>
<!DOCTYPE svg PUBLIC "-//W3C//DTD SVG 1.1//EN" "http://www.w3.org/Graphics/SVG/1.1/DTD/svg11.dtd">
<svg xmlns="http://www.w3.org/2000/svg" xmlns:xlink="http://www.w3.org/1999/xlink" version="1.1"
   viewBox="94 -151 2414 2169">
   <path fill="currentColor"
      d="M260 1978v-2080h2080v2080h-2080zM570 1949v-1173h295v1173h-295zM282 1640v-53h2036v53h-2036zM1153 1949v-843h295v843h-295zM282 1302v-53h2036v53h-2036zM313 1925h1974v-1974h-1974v1974zM282 964v-52h2036v52h-2036zM282 627v-53h2036v53h-2036zM1735 1949v-1697
h295v1697h-295zM283 289v-53h2036v53h-2036z" />
</svg>