<?xml version="1.0" standalone="no"?>
<!DOCTYPE svg PUBLIC "-//W3C//DTD SVG 1.1//EN" "http://www.w3.org/Graphics/SVG/1.1/DTD/svg11.dtd">
<svg xmlns="http://www.w3.org/2000/svg" xmlns:xlink="http://www.w3.org/1999/xlink" version="1.1"
   viewBox="94 -151 2414 2169">
   <path fill="currentColor"
      d="M2065 1138q-468 -2 -839.5 -49.5t-690.5 -147.5q45 -154 104.5 -267.5t135.5 -205t172 -178.5l51 -8q41 62 81.5 131t77.5 139.5t69 138.5t56 130t38 114q58 -101 137 -197.5t170.5 -176t184.5 -127.5l49 12q82 159 126 278.5t61 218t17 195.5zM774 1587q-28 0 -48 -20
t-20 -48t20 -47.5t48 -19.5t48 19.5t20 47.5t-20 48t-48 20zM982 1771q-28 0 -48 -20t-20 -48t20 -48t48 -20t48 20t20 48t-20 48t-48 20zM1223 1731q-28 0 -48 -20t-20 -48t20 -48t48 -20t48 20t20 48t-20 48t-48 20zM1398 1894q-28 0 -48 -20t-20 -48t20 -47.5t48 -19.5
t48 19.5t20 47.5t-20 48t-48 20zM1069 1557q-28 0 -48 -19.5t-20 -47.5t20 -48t48 -20t48 20t20 48t-20 47.5t-48 19.5zM1302 1903q95 0 172 -77q21 -21 72 -64.5t115.5 -96t129.5 -102.5t114 -85l-9 -170q-99 16 -227 28t-265.5 20.5t-268 14.5t-236 8.5t-167.5 2.5v155
l402 306q39 30 81 45t87 15zM1302 1978q-55 0 -110.5 -20t-102.5 -55l-433 -328v-268q85 0 212 -2.5t275.5 -8.5t300 -16t287 -25t235.5 -36l16 297q-44 30 -112 81.5t-139 108.5t-127 104t-77 68q-98 100 -225 100zM1508 1665q-28 0 -48 -20t-20 -48t20 -48t48 -20
q27 0 47.5 20t20.5 48t-20 48t-48 20zM1326 1458q-28 0 -48 -19.5t-20 -47.5t20 -48t48 -20t48 20t20 48t-19.5 47.5t-48.5 19.5zM810 880q-28 0 -48 -19.5t-20 -47.5t20 -48t48 -20t48 20t20 48t-20 47.5t-48 19.5zM1779 1603q-28 0 -48 -19.5t-20 -47.5t20 -48t48 -20
t48 20t20 48t-20 47.5t-48 19.5zM1626 1430q-28 0 -48 -19.5t-20 -47.5t20 -48t48 -20t48 20t20 48t-20 47.5t-48 19.5zM833 625q-28 0 -48 -19.5t-20 -47.5t20 -48t48 -20t48 20t20 48t-19.5 47.5t-48.5 19.5zM1171 937q-28 0 -48 -19.5t-20 -47.5t20 -48t48 -20t48 20
t20 48t-20 47.5t-48 19.5zM1011 756q-28 0 -48 -19.5t-20 -47.5t20 -48t48 -20t48 20t20 48t-20 47.5t-48 19.5zM1981 1061q0 -52 -18 -135.5t-55 -188.5t-95 -221q-130 77 -260.5 222.5t-228.5 323.5l-43 -5q-29 -112 -73 -223.5t-103.5 -226t-135.5 -234.5
q-81 77 -144.5 153.5t-111 164t-82.5 199.5q273 81 611.5 123.5t738.5 47.5zM1650 1084q-28 0 -48 -19.5t-20 -47.5t20 -48t48 -20t48 20t20 48t-20 47.5t-48 19.5zM1500 896q-28 0 -48.5 -20t-20.5 -48t20.5 -47.5t48.5 -19.5t47.5 19.5t19.5 47.5t-19.5 48t-47.5 20z
M1731 857q-28 0 -48 -19.5t-20 -47.5t20 -48t48 -20t48 20t20 48t-20 47.5t-48 19.5zM1932 997q-28 0 -48 -19.5t-20 -47.5t20 -48t48 -20t48 20t20 48t-20 47.5t-48 19.5zM1261 472q-48 0 -79.5 -29t-31.5 -73t22 -84.5t65 -76.5t104 -64q77 -36 120 -75t43 -71
q0 -31 -38 -31q-36 0 -56 27.5t-20 80.5q0 17 2.5 37t8.5 44q7 28 8.5 51t1.5 44q0 96 -42 158t-108 62zM1864 485l-75 -14q5 -21 7 -42t2 -43q0 -95 -41 -145t-118 -50q-59 0 -106 9.5t-109 9.5q-80 0 -131 -18.5t-94.5 -36.5t-101.5 -18q-46 0 -73.5 27.5t-27.5 73.5
q0 35 18 79l-70 22q-12 -24 -18 -49.5t-6 -51.5q0 -76 49.5 -126t125.5 -50q54 0 92.5 11.5t72.5 27t73 27t93 11.5t105.5 -11t115.5 -11q103 0 165.5 74.5t62.5 196.5q0 23 -3 47t-8 50zM1572 397q-96 -25 -160 -84.5t-70 -128.5l72 -14q0 43 52 89t126 66zM1847 689
q-28 0 -48 -19.5t-20 -47.5t20 -48t48 -20t48 20t20 48t-20 47.5t-48 19.5zM1261 402q32 0 54.5 -43t22.5 -106q0 -20 -2 -41t-7 -41q-6 -26 -8.5 -49.5t-2.5 -45.5q0 -83 40.5 -130.5t110.5 -47.5q47 0 77 27.5t30 70.5q0 54 -54.5 110t-152.5 101q-70 32 -109 74t-39 84
q0 37 40 37z" />
</svg>