<?xml version="1.0" standalone="no"?>
<!DOCTYPE svg PUBLIC "-//W3C//DTD SVG 1.1//EN" "http://www.w3.org/Graphics/SVG/1.1/DTD/svg11.dtd">
<svg xmlns="http://www.w3.org/2000/svg" xmlns:xlink="http://www.w3.org/1999/xlink" version="1.1"
   viewBox="94 -151 2414 2169">
   <path fill="currentColor"
      d="M1300 1978q-215 0 -403.5 -80.5t-331.5 -223.5t-224 -331.5t-81 -404.5q0 -215 80.5 -403.5t223.5 -331.5t331.5 -224t404.5 -81q215 0 403.5 80.5t331.5 223.5t224 331.5t81 404.5q0 215 -80.5 403.5t-223.5 331.5t-331.5 224t-404.5 81zM1719 1782q220 -104 358 -306
l-404 -270q-67 87 -159 138zM1300 1330q108 0 197.5 -53t142.5 -142t53 -197t-53 -197.5t-142.5 -142.5t-197.5 -53t-197 53t-142 142.5t-53 197.5t53 197t142 142t197 53zM1300 1159q-91 0 -156 -65t-65 -156q0 -92 65 -156.5t156 -64.5q92 0 156.5 64.5t64.5 156.5
q0 91 -64.5 156t-156.5 65zM927 669q67 -85 159 -138l-205 -437q-219 104 -358 305z" />
</svg>