<?xml version="1.0" standalone="no"?>
<!DOCTYPE svg PUBLIC "-//W3C//DTD SVG 1.1//EN" "http://www.w3.org/Graphics/SVG/1.1/DTD/svg11.dtd">
<svg xmlns="http://www.w3.org/2000/svg" xmlns:xlink="http://www.w3.org/1999/xlink" version="1.1"
   viewBox="94 -151 2414 2169">
   <path fill="currentColor"
      d="M1300 1978q206 0 376.5 -21t311.5 -64q-45 -225 -68.5 -473.5t-23.5 -468.5q0 -60 1.5 -117t5.5 -109l173 196q117 -59 213 -135.5t161 -164.5q-63 -110 -156 -219.5t-206.5 -207.5t-238.5 -175t-251 -121q-50 20 -92 30.5t-90 14.5t-116 4t-116.5 -4t-90 -15t-91.5 -30
q-126 44 -251 121t-238.5 175t-206.5 207.5t-156 219.5q65 88 161 164.5t213 135.5l173 -196q4 52 5.5 109t1.5 117q0 220 -23.5 468.5t-68.5 473.5q141 43 312 64t376 21zM622 757l44 -61q-101 -62 -182.5 -124t-156.5 -133l-50 61q74 68 159 131.5t186 125.5zM1300 1898
q-186 0 -330.5 -15.5t-264.5 -47.5q26 -138 43.5 -287t26 -297.5t8.5 -285.5q0 -90 -3 -173t-11 -155l-66 -40l-195 226q-75 -41 -143.5 -95.5t-118.5 -111.5q48 -76 125.5 -166.5t177 -181t217 -166.5t246.5 -124q41 17 79 27t87.5 13.5t121.5 3.5q73 0 122 -3.5
t87.5 -13.5t78.5 -27q129 48 246.5 124t217 166.5t177 181t125.5 166.5q-49 57 -118 111.5t-144 95.5l-195 -226l-66 40q-7 72 -10.5 155t-3.5 173q0 137 8.5 285.5t26 297.5t43.5 287q-120 32 -264.5 47.5t-330.5 15.5zM1055 474q53 0 88 -26.5t63 -55.5q23 -23 45 -41
t49 -18t49.5 18t44.5 41q29 29 64 55.5t87 26.5q68 0 128 -52t106.5 -147.5t71.5 -225.5l-74 -14q-35 166 -98.5 265t-133.5 99q-37 0 -62 -20t-48 -45q-25 -29 -55.5 -52.5t-79.5 -23.5t-79 23.5t-56 52.5q-22 25 -47 45t-63 20q-70 0 -133.5 -99t-98.5 -265l-74 14
q26 130 72 225.5t106 147.5t128 52zM1300 183q112 0 194.5 -60t104.5 -177q-82 24 -158.5 35.5t-140.5 11.5t-140 -11.5t-159 -35.5q23 117 105 177t194 60zM1978 757q101 -62 186 -125.5t159 -131.5l-50 -61q-75 71 -156.5 133t-182.5 124z" />
</svg>