<?xml version="1.0" standalone="no"?>
<!DOCTYPE svg PUBLIC "-//W3C//DTD SVG 1.1//EN" "http://www.w3.org/Graphics/SVG/1.1/DTD/svg11.dtd">
<svg xmlns="http://www.w3.org/2000/svg" xmlns:xlink="http://www.w3.org/1999/xlink" version="1.1"
   viewBox="94 -151 2414 2169">
   <path fill="currentColor"
      d="M1394 1708q-180 0 -363 -45.5t-348.5 -125t-295 -181.5t-204.5 -216t-75 -228q0 -145 95.5 -223.5t261.5 -78.5q88 0 166.5 8.5t136.5 17.5t83 9q32 0 57 -12.5t53 -24.5t67 -12q37 0 70.5 7t60.5 18q84 -55 154 -55q81 0 166 38t169 87t164 87t150 38q71 0 98.5 -21.5
t27.5 -88.5q0 -51 -11 -82q-48 -11 -116 -29.5t-138.5 -40t-126.5 -40.5q-41 -14 -62 -43.5t-21 -61.5q0 -29 17 -56.5t54 -41.5l196 -76q35 -14 81 -13t92 12q15 -36 36.5 -64.5t48.5 -47.5l161 -112q32 -21 67 -21q50 0 88 35.5t38 90.5q0 40 -20.5 105.5t-53.5 140.5
t-71 144q51 106 79 235t28 242q0 187 -75.5 317.5t-214 215.5t-326.5 136l-21 -75q194 -53 317 -134t181.5 -195t58.5 -265q0 -120 -32 -250t-86 -229q44 -75 79 -152.5t56 -143t21 -102.5q0 -16 -13 -27t-30 -11q-15 0 -26 8l-161 112q-64 44 -87 147q-59 -24 -108 -29.5
t-78 5.5l-196 76q-21 7 -21 23q0 8 8 16t22 13q47 16 106.5 34.5t120 35.5t111 30t78.5 18q11 15 20.5 60.5t9.5 89.5q0 100 -50 145t-156 45q-59 0 -126 -25.5t-137 -62.5t-138.5 -74.5t-131 -62.5t-113.5 -25q-38 0 -71 16t-75 49q-77 -38 -141 -38q-44 0 -70 12
t-48.5 24.5t-59.5 12.5q-23 0 -85 -8.5t-141 -17t-155 -8.5q-138 0 -210 58t-72 168q0 97 70.5 198.5t192.5 194t277.5 165.5t327 115.5t338.5 42.5q29 0 60 -1t62 -3l51 74q-42 4 -85.5 6t-87.5 2zM1186 1978q-98 0 -155.5 -100.5t-57.5 -261.5l335 45q0 114 -5.5 184
t-31 101.5t-85.5 31.5zM1124 1683q-77 -23 -145.5 -92t-99.5 -154l65 -23q26 74 79.5 129t120.5 75zM1078 1147q-104 0 -210 -39t-216.5 -89.5t-229.5 -89.5t-250 -39v-80q127 0 250 39t238.5 89.5t221 89.5t196.5 39v80zM1344 1704q-77 -23 -143.5 -88.5t-100.5 -158.5
l64 -23q29 78 84 131t116 73zM1819 1943q-75 0 -161 -70t-168 -194.5t-147 -287.5l19 22q-165 -14 -336 -40t-329 -61t-287 -75t-210 -81l36 -69q90 45 226.5 86t298.5 74t330.5 56.5t323.5 34.5q50 150 123.5 268.5t149 187.5t131.5 69q17 0 21 -4t4 -16
q0 -54 -24.5 -133.5t-71 -174.5t-113.5 -194h41q103 0 206 -6.5t193.5 -19.5t156.5 -32t94 -44l29 63q-23 25 -86.5 46.5t-153 37t-193.5 25t-209 11.5l52 -27q95 170 127 278.5t32 169.5q0 48 -29 74t-76 26zM1178 1044q-29 0 -50 -21t-21 -50t21 -49.5t50 -20.5t50 20.5
t21 49.5t-21 50t-50 21zM809 311q-15 0 -26 -11t-11 -26q0 -14 11 -25t26 -11q14 0 25 11t11 25q0 15 -11 26t-25 11zM712 138q-17 0 -29 -12t-12 -29t12 -28.5t29 -11.5t28.5 11.5t11.5 28.5t-11.5 29t-28.5 12zM757 -3q-21 0 -36 -14.5t-15 -35.5q0 -20 15 -34.5t36 -14.5
q20 0 35 14.5t15 34.5q0 21 -15 35.5t-35 14.5zM1162 542q-19 0 -28.5 -29.5t-15.5 -70.5t-11.5 -77t-15.5 -48q-17 -21 -48 -35t-56 -30.5t-25 -45.5q0 -33 36 -33q20 0 44 11.5t49 30.5q0 -35 -9 -54.5t-61 -34.5l-55 -16q-34 -10 -58 -28t-24 -54q0 -31 23.5 -48.5
t60.5 -17.5q53 0 100 33t94 96q47 -63 94.5 -96t99.5 -33q38 0 61 17.5t23 48.5q0 36 -23.5 54t-58.5 28l-55 16q-52 15 -61 34.5t-9 54.5q25 -19 49.5 -30.5t43.5 -11.5q36 0 36 33q0 29 -25 45.5t-56 30t-48 35.5q-10 13 -15.5 48.5t-11.5 76.5t-15.5 70.5t-28.5 29.5z
M1547 168q-33 0 -33 -32q0 -13 10 -22.5t23 -9.5t22.5 9.5t9.5 22.5t-9.5 22.5t-22.5 9.5zM1554 -1q-18 0 -30.5 -12.5t-12.5 -30.5q0 -17 12.5 -29.5t30.5 -12.5q17 0 29.5 12.5t12.5 29.5q0 18 -12.5 30.5t-29.5 12.5z" />
</svg>