<?xml version="1.0" standalone="no"?>
<!DOCTYPE svg PUBLIC "-//W3C//DTD SVG 1.1//EN" "http://www.w3.org/Graphics/SVG/1.1/DTD/svg11.dtd">
<svg xmlns="http://www.w3.org/2000/svg" xmlns:xlink="http://www.w3.org/1999/xlink" version="1.1"
   viewBox="94 -151 2414 2169">
   <path fill="currentColor"
      d="M1481 1928q-29 0 -62.5 -15t-81 -48.5t-119.5 -89.5q-28 -22 -61.5 -47t-70.5 -51t-76 -51.5t-78 -48.5q-15 -9 -61 -24t-101 -33t-98.5 -35.5t-54.5 -29.5l146 -20q25 7 48.5 14.5t44.5 14.5q40 13 70 24.5t44 19.5q36 22 77.5 49t82.5 56t78 56.5t65 49.5
q71 56 121.5 92.5t72.5 36.5q19 0 28 -17t12 -56l18 -222q74 43 145 78.5t125.5 56.5t78.5 21q23 0 31.5 -24.5t8.5 -52.5q0 -51 -5.5 -100.5t-22.5 -105.5q77 49 139.5 76t98.5 27q28 0 40.5 -18t12.5 -57t-10.5 -102.5t-26 -129.5t-31.5 -112q47 21 84 32t57 11
q24 0 24 -14q0 -41 -57 -129t-160 -209q77 11 117 15.5t54 4.5q21 0 27 -6.5t6 -13.5q0 -19 -35 -55t-83.5 -73.5t-91.5 -60.5l-209 -322q11 -33 11 -69q0 -62 -41 -94q24 -34 24 -60q0 -39 -42 -39q-40 0 -92 25t-106.5 68t-101 97.5t-76.5 113.5q-124 0 -201.5 9t-133 39
t-113.5 92.5t-143 170.5l-34 43q-73 93 -135.5 148.5t-107.5 64.5l-80 16l-45 -73l109 -21q28 -5 79.5 -54.5t115.5 -129.5l34 -43q88 -111 153 -179t127 -103.5t139.5 -47.5t191.5 -12q42 -78 117.5 -147.5t159 -113t146.5 -43.5q56 0 86.5 29t30.5 73q0 31 -18 66
q38 38 38 98q0 13 -1.5 28.5t-6.5 30.5l183 284q102 62 167 127t65 116q0 40 -27.5 69t-66.5 29h-5.5t-6.5 -1q61 80 91.5 146t30.5 119q0 30 -24 51t-58 21q-13 0 -26 -1t-25 -3q14 56 23.5 116.5t9.5 107.5q0 82 -30.5 119t-96.5 37q-36 0 -69.5 -11.5t-74.5 -33.5
q5 26 6.5 45t1.5 39q0 55 -31 96t-75 41q-39 0 -120 -28.5t-173 -74.5l-12 100q-7 59 -33.5 102t-68.5 43zM407 1349q-45 0 -82.5 -38.5t-59.5 -102t-22 -137.5q0 -105 45 -171t122 -66q57 0 104.5 36.5t75.5 98.5t28 141q0 71 -26 125t-73.5 84t-111.5 30zM429 1269
q39 0 74 -42t35 -117q0 -84 -40 -140t-88 -56q-43 0 -65 46t-22 111q0 46 12 92t36 76t58 30zM427 1137q-13 0 -23.5 -19t-10.5 -45t10 -44.5t24 -18.5t24 18.5t10 44.5t-10 45t-24 19zM665 1462q-127 0 -222 -44t-115 -132l85 -13q13 42 75.5 75.5t180.5 33.5q48 0 97 -8.5
t95 -24.5q-10 -34 -17.5 -89t-7.5 -95q0 -70 21 -119t50 -49q39 0 69 128q9 39 23.5 64t40.5 54l61 66q-49 45 -121.5 79.5t-154.5 54t-160 19.5zM466 872q-10 -12 -15 -37t-5 -66q0 -26 6 -60t18 -59.5t30 -25.5q20 0 33.5 20.5t23.5 46t16 41.5q8 19 22 42t21 30l-50 67z
M1630 1293q-30 0 -61 -15t-51.5 -37.5t-20.5 -44.5q0 -20 16.5 -38t35.5 -18q21 0 45 21.5t41 51.5t17 56q0 24 -22 24zM1251 913q-32 0 -55 -31t-23 -74t23 -73.5t55 -30.5t55 30.5t23 73.5t-23 74t-55 31zM1916 1281q-42 0 -83.5 -24t-41.5 -55q0 -19 14.5 -35.5
t33.5 -16.5q20 0 43 18.5t39.5 44.5t16.5 50q0 18 -22 18zM1744 1029q-55 0 -90 -18.5t-35 -52.5q0 -23 14 -39t36 -16q24 0 53.5 17.5t51 41t21.5 43.5q0 12 -11 18t-40 6zM1755 766q-25 0 -41 -12.5t-16 -31.5q0 -21 29.5 -41t67.5 -41t67.5 -46t29.5 -57q0 -26 -19 -43
t-51 -17q-41 0 -77 26t-69.5 60.5t-67 60.5t-68.5 26q-25 0 -45 -17t-20 -50q0 -49 43.5 -102t119.5 -102.5t173 -89t205.5 -63t216.5 -23.5q51 0 51 40q0 61 -32.5 132t-87.5 140t-123.5 126t-142.5 91t-143 34z" />
</svg>