<?xml version="1.0" standalone="no"?>
<!DOCTYPE svg PUBLIC "-//W3C//DTD SVG 1.1//EN" "http://www.w3.org/Graphics/SVG/1.1/DTD/svg11.dtd">
<svg xmlns="http://www.w3.org/2000/svg" xmlns:xlink="http://www.w3.org/1999/xlink" version="1.1"
   viewBox="94 -151 2414 2169">
   <path fill="currentColor"
      d="M1300 1978q-209 0 -365.5 -54t-243 -157.5t-86.5 -253.5q0 -98 43 -198.5t122 -214.5q32 -47 50.5 -86t18.5 -71q0 -43 -24 -104.5t-56 -142.5t-56 -183.5t-24 -227.5q0 -115 37 -202t101 -136t144 -49q105 0 165 95t70 279q9 156 28 255.5t53 178.5h10.5h12.5h13h10
q35 -79 53.5 -178.5t27.5 -255.5q11 -184 70.5 -279t164.5 -95q81 0 144.5 49t100.5 136t37 202q0 125 -24 227.5t-56 183.5t-56 142.5t-24 104.5q0 32 18.5 71t50.5 86q80 114 122.5 214.5t42.5 198.5q0 150 -86.5 253.5t-242.5 157.5t-366 54zM658 1799l-55 -37
q21 -32 57.5 -63t77.5 -53.5t73 -28.5l11 58q-24 4 -56.5 24t-62 47t-45.5 53zM524 1606l-28 -58q47 -23 110.5 -34t124.5 -11q62 0 100 14l-21 61q-29 -10 -80 -10q-52 0 -109 9t-97 29zM801 1466q-102 -48 -279 -48v-66q189 0 307 56zM1260 1797q-67 0 -112 -70.5
t-45 -170.5q0 -14 1 -23l72 40q3 64 29.5 109t57.5 45q14 0 37 -11q23 11 37 11q32 0 58 -45t29 -109l72 -40q1 9 1 23q0 100 -44.5 170.5t-112.5 70.5q-19 0 -40 -6q-21 6 -40 6zM1153 1605q-25 0 -51 -6t-55 -20l28 -72q43 17 78 17q53 0 83.5 -27.5t30.5 -85.5h66
q0 58 30.5 85.5t83.5 27.5q35 0 78 -17l28 72q-28 14 -54.5 20t-51.5 6q-55 0 -96 -24.5t-70 -70.5h38q-29 46 -70 70.5t-96 24.5zM1073 1251q-28 0 -48.5 -31t-20.5 -74q0 -44 20.5 -74.5t48.5 -30.5q29 0 49 30.5t20 74.5q0 43 -20 74t-49 31zM1300 1424q-57 -9 -87 -41
t-30 -69q0 -25 30 -25q47 0 87 76q40 -76 87 -76q30 0 30 25q0 37 -30 69t-87 41zM1942 1799q-16 -26 -45.5 -53t-62 -47t-56.5 -24l11 -58q33 6 73.5 28.5t77 53.5t57.5 63zM1300 1898q293 0 454 -102t161 -283q0 -80 -35.5 -168t-114.5 -199q-40 -56 -62 -106.5t-22 -96.5
q0 -60 24 -123.5t56 -140t56 -173t24 -221.5q0 -137 -58 -222t-144 -85q-66 0 -106 73t-49 226q-7 121 -20.5 212.5t-35.5 164.5t-55 140q-22 -5 -39 -6.5t-34 -1.5t-33.5 1.5t-39.5 6.5q-32 -67 -54.5 -140t-36 -164.5t-20.5 -212.5q-9 -153 -49 -226t-106 -73
q-86 0 -144 85t-58 222q0 125 24 221.5t56 173t56 140t24 123.5q0 46 -22 96.5t-62 106.5q-79 111 -114.5 199t-35.5 168q0 181 161.5 283t453.5 102zM2076 1606q-40 -20 -96.5 -29t-109.5 -9q-51 0 -80 10l-21 -61q38 -14 100 -14q61 0 124.5 11t110.5 34zM1527 1251
q-28 0 -48.5 -31t-20.5 -74q0 -44 20.5 -74.5t48.5 -30.5q29 0 49 30.5t20 74.5q0 43 -20 74t-49 31zM1799 1466l-28 -58q118 -56 307 -56v66q-177 0 -279 48zM1044 777q-28 0 -59 -45.5t-57.5 -119.5t-43 -160t-16.5 -166q0 -77 25 -126t66 -49q35 0 54 54.5t19 151.5
q0 35 5.5 85.5t13.5 101t15 88.5t11 49q5 13 11 40t6 51q0 45 -50 45zM1556 777q-50 0 -50 -45q0 -24 6.5 -51t10.5 -40q4 -11 11 -49t15 -88.5t13.5 -101t5.5 -85.5q0 -97 19.5 -151.5t53.5 -54.5q41 0 66 49t25 126q0 80 -16.5 166t-43 160t-57 119.5t-59.5 45.5z" />
</svg>