<?xml version="1.0" standalone="no"?>
<!DOCTYPE svg PUBLIC "-//W3C//DTD SVG 1.1//EN" "http://www.w3.org/Graphics/SVG/1.1/DTD/svg11.dtd">
<svg xmlns="http://www.w3.org/2000/svg" xmlns:xlink="http://www.w3.org/1999/xlink" version="1.1"
   viewBox="94 -151 2414 2169">
   <path fill="currentColor"
      d="M2008 1462q-120 0 -281 -54t-339.5 -151.5t-353.5 -227.5q-208 -156 -367 -323t-248 -320.5t-89 -268.5q0 -78 39 -129q69 -90 228 -90q112 0 256 47.5t303.5 131t318.5 193t301.5 234.5t254 254.5t175.5 254t64 231.5t-72 162.5t-190 55.5zM1175 1978q-421 0 -658 -137
q2 -84 65.5 -142.5t204.5 -107.5l-2 87q-73 28 -115.5 56t-56.5 65q100 49 240.5 74t321.5 25q149 0 256 -12t182 -33.5t126 -49.5q-15 -42 -70 -74.5t-129 -57.5v-91q132 41 211.5 109t82.5 148q-94 74 -252 107.5t-407 33.5zM1204 1796l-440 -108l36 -442q6 -73 49 -116.5
t110 -43.5t112 45t56 124zM1106 1700l-57 -431q-7 -54 -30.5 -78.5t-59.5 -24.5q-34 0 -54.5 22t-24.5 64l-32 377zM958 1333q-15 0 -25 -14.5t-10 -33.5q0 -20 10 -34.5t25 -14.5q14 0 24.5 14.5t10.5 34.5q0 19 -10.5 33.5t-24.5 14.5zM1204 1796l-46 -260l132 -14
l22 -125l229 32l49 261zM843 1225q-69 -59 -140.5 -155t-137.5 -214.5t-118.5 -246.5t-83.5 -252t-33 -229l75 4q2 108 40.5 246.5t103 281t145 267.5t165.5 206zM1830 1511q-114 0 -240 -17.5t-250 -49.5t-233 -73l-2 -84q106 45 229.5 78t249 50.5t237.5 17.5
q94 0 174 -18t128 -50l40 64q-58 39 -145 60.5t-188 21.5zM2008 1383q89 0 134.5 -32t45.5 -104q0 -91 -59.5 -203t-163 -233.5t-237 -241t-283.5 -226t-302.5 -188.5t-293.5 -129.5t-255 -47.5q-61 0 -100 14.5t-62 42.5q-23 29 -23 82q0 76 49.5 176t139.5 213t213 230.5
t270 227.5q168 125 339.5 219.5t324 147t263.5 52.5zM677 671l-32 -73l1106 -504l32 74zM1704 1346l-80 -8l152 -1185l80 8zM1383 718l-64 -48l461 -561l60 54zM1805 194l-59 -51q-13 -12 -15 -29t10 -30l117 -136q12 -14 28 -15t29 10l59 49q13 10 14 27t-10 31l-116 138
q-12 14 -28 15t-29 -9z" />
</svg>