<?xml version="1.0" standalone="no"?>
<!DOCTYPE svg PUBLIC "-//W3C//DTD SVG 1.1//EN" "http://www.w3.org/Graphics/SVG/1.1/DTD/svg11.dtd">
<svg xmlns="http://www.w3.org/2000/svg" xmlns:xlink="http://www.w3.org/1999/xlink" version="1.1"
   viewBox="94 -151 2414 2169">
   <path fill="currentColor"
      d="M1386 1978q-76 0 -120.5 -23.5t-44.5 -63.5q0 -27 12 -47.5t26 -39t19 -38.5l50 -213q5 -21 3 -55t-9 -69t-17 -58q-26 4 -60.5 7t-101.5 3q-259 0 -390 -147.5t-131 -440.5v-135q-46 -18 -74.5 -32.5t-53.5 -32.5q-21 9 -49 17t-78 8q-54 0 -99 -29.5t-71.5 -79
t-26.5 -109.5q0 -93 68 -170.5t168 -98.5l149 -31q9 -2 42 -31t87 -60.5t123 -40.5q15 -35 41.5 -52.5t60.5 -17.5q39 0 65 21.5t35 59.5q34 12 69 42q23 -6 43 -6q52 0 88 38.5t36 96.5q0 41 -21.5 78t-59.5 65q-4 88 -33 163t-73 122q-5 24 -7.5 44t-2.5 43q0 60 18.5 91
t61.5 40q14 -74 64.5 -142t120.5 -109q28 -155 61 -260.5t77 -168.5t103 -90.5t139 -27.5q75 0 131 28t100 94t81.5 179t74.5 283q137 34 202.5 158t65.5 356q0 43 20.5 98t41 105t20.5 78q0 27 -23.5 46t-71.5 19q-44 0 -87 -26t-72 -61q10 36 19.5 80t16 81.5t5.5 56.5
q-1 17 -11.5 66t-24 102.5t-25.5 85.5q-25 70 -66 97t-119 27q-55 0 -91.5 -26t-36.5 -64q0 -34 16 -59t33 -44t20 -34l36 -154q5 -19 -4 -54t-25 -73t-34 -64q-55 19 -130.5 31t-158.5 14v39q0 25 5 61.5t5 56.5q0 14 -4.5 36t-17.5 69l-26 96q-7 25 -6 43.5t1 35.5
q0 61 -39 89t-128 28zM1046 1916q-52 0 -85.5 -15t-33.5 -38q0 -26 28 -48.5t34 -44.5l44 -169q3 -11 1 -51t-7.5 -95.5t-12.5 -110.5l199 5q7 62 11 122.5t4 104t-6 57.5l-74 187q-4 12 -3.5 33.5t-6.5 36.5q-5 11 -31 18.5t-61 7.5zM320 402q-31 -8 -59.5 -36t-28.5 -49
q0 -15 14 -15q11 0 38 14.5t46 31.5q58 -23 76 -23t18 17q0 19 -29 35.5t-75 24.5zM1711 1844q-86 0 -86 -44q0 -24 14 -50t25 -41q6 -8 15 -40t16 -67t7 -50q0 -18 -7 -64.5t-19 -100.5l163 -36q17 73 27 127t5 71l-47 186q-16 66 -38.5 87.5t-74.5 21.5zM1386 1903
q38 0 62 -12t24 -30q0 -24 -1.5 -41.5t3.5 -36.5l34 -123q11 -40 14 -53.5t3 -26.5q0 -32 -4.5 -65.5t-4.5 -51.5v-118h37q101 0 200.5 -14t178.5 -42q28 48 51.5 106.5t37 107.5t8.5 70l-40 175q-5 23 -21.5 35.5t-31 23t-14.5 28.5q0 16 20 28.5t45 12.5q29 0 52.5 -13.5
t32.5 -35.5q7 -17 18 -52.5t21.5 -76t18 -72.5t7.5 -42q0 -59 -18 -155.5t-78 -274.5l70 -37q24 58 62 113.5t77.5 91.5t65.5 36t26 -31q0 -13 -18.5 -51.5t-37 -86.5t-18.5 -87q0 -148 -25 -242.5t-81.5 -148t-151.5 -76.5q-40 -202 -85 -321.5t-101 -172.5t-131 -53
q-81 0 -140 52.5t-100 166t-69 297.5q-50 15 -93 58.5t-70 102t-31 117.5q-104 -2 -163 -49t-59 -168q0 -35 5.5 -67.5t15.5 -69.5q30 -20 51 -60.5t32.5 -97t11.5 -124.5q41 -18 61 -44t20 -52q0 -29 -19 -45.5t-54 -16.5q-26 0 -57 14q-24 -43 -73 -56q-3 -26 -18 -47
t-35 -21q-19 0 -37.5 18.5t-29.5 46.5q-57 6 -99 23.5t-81 52.5q-28 25 -47.5 39.5t-39.5 19.5l-149 31q-75 16 -125.5 71t-50.5 120q0 59 36 98.5t91 39.5q58 0 134 -35q33 30 74.5 52.5t116.5 42.5v195q0 259 107.5 383.5t333.5 124.5q52 0 113 -4.5t105 -11.5
q19 41 31.5 96t17 107t-3.5 85l-53 224q-4 17 -25 34t-21 35q0 17 21 27t58 10zM793 388q-14 0 -14 -11q0 -10 15 -24t22 -29q-11 0 -17 -2q-11 16 -30.5 29t-33.5 13q-17 0 -17 -15q0 -9 19.5 -17t30.5 -21q-6 -3 -12 -7q-30 25 -57 25q-21 0 -21 -14t18 -16t39 -21
q-5 -10 -5 -15q0 -22 60 -22q90 0 90 37q0 17 -27 34q-7 31 -24.5 53.5t-35.5 22.5zM1790 373q-28 0 -41.5 -19t-20.5 -67q-4 -34 -16 -47t-31 -13t-31.5 15t-16.5 54q-4 41 -13.5 57.5t-35.5 16.5q-47 0 -47 -49q0 -21 9 -42t9 -38q0 -11 -6.5 -19t-17.5 -8q-24 0 -44 20.5
t-36 41.5t-29 21l85 -217l235 -56l169 119l43 164q-14 0 -26.5 -27t-29 -53.5t-43.5 -26.5q-13 0 -20.5 10t-7.5 25q0 19 4.5 42.5t4.5 46.5q0 49 -46 49z" />
</svg>