<?xml version="1.0" standalone="no"?>
<!DOCTYPE svg PUBLIC "-//W3C//DTD SVG 1.1//EN" "http://www.w3.org/Graphics/SVG/1.1/DTD/svg11.dtd">
<svg xmlns="http://www.w3.org/2000/svg" xmlns:xlink="http://www.w3.org/1999/xlink" version="1.1"
   viewBox="94 -151 2414 2169">
   <path fill="currentColor"
      d="M875 1897q-39 0 -74 -52.5t-46 -137.5q-22 4 -47.5 6.5t-51.5 2.5q-79 0 -107.5 -29t-28.5 -108q0 -57 11 -126.5t31.5 -142.5t47.5 -138q-92 -53 -172 -122.5t-129 -137t-49 -112.5q0 -30 21 -57.5t54.5 -49t68.5 -33.5q-25 -45 -40.5 -94t-15.5 -72q0 -49 54.5 -83
t158.5 -52t250 -18q14 0 27 0.5t25 1.5q16 -71 48.5 -148t73 -145t81 -110t71.5 -42q23 0 72.5 32t90.5 73q41 -41 91 -73t72 -32q32 0 72 42t80.5 110t73 145t48.5 148q12 -1 25.5 -1.5t26.5 -0.5q147 0 250.5 18t158 52t54.5 83q0 23 -15.5 72t-40.5 94q36 12 69 33.5
t54 49t21 57.5q0 45 -49 112.5t-128.5 137t-172.5 122.5q27 65 47 138t31.5 142.5t11.5 126.5q0 79 -28.5 108t-107.5 29q-25 0 -51 -2.5t-48 -6.5q-10 85 -45.5 137.5t-74.5 52.5q-33 0 -102.5 -37t-155 -97.5t-167.5 -132.5q-81 72 -167 132.5t-155.5 97.5t-102.5 37z
M561 1523l-268 -119l112 -155l-161 -81l155 -215l64 46l-99 139l161 81l-110 151l178 79zM1160 1978l-131 -189l66 -45l79 114l126 -118l126 118l79 -114l66 45l-131 189l-140 -128zM1300 1348q-30 0 -51.5 -21.5t-21.5 -51.5t21.5 -51.5t51.5 -21.5t51.5 21.5t21.5 51.5
t-21.5 51.5t-51.5 21.5zM1060 1088q-30 0 -51.5 -21.5t-21.5 -51.5t21.5 -51.5t51.5 -21.5t51.5 21.5t21.5 51.5t-21.5 51.5t-51.5 21.5zM1300 1088q-30 0 -51.5 -21.5t-21.5 -51.5t21.5 -51.5t51.5 -21.5t51.5 21.5t21.5 51.5t-21.5 51.5t-51.5 21.5zM1060 828
q-30 0 -51.5 -21.5t-21.5 -51.5t21.5 -51.5t51.5 -21.5t51.5 21.5t21.5 51.5t-21.5 51.5t-51.5 21.5zM881 1817q17 0 64.5 -27.5t111 -72t128 -95.5t115.5 -98q51 47 115.5 98t128 95.5t111.5 72t64 27.5q23 0 38.5 -56t26.5 -141q25 6 73.5 12.5t88.5 6.5q33 0 45 -8.5
t12 -31.5q0 -47 -10.5 -113.5t-27.5 -136.5t-37 -128t-39 -87q57 -24 121.5 -67.5t121 -93.5t92 -94.5t35.5 -71.5q0 -22 -24 -45t-64 -41.5t-89 -26.5q21 -27 42.5 -64t36 -70.5t14.5 -47.5q0 -28 -55 -50.5t-147 -36.5t-202 -14q-22 0 -46 2t-41 4q-13 -46 -43 -119
t-66.5 -146.5t-68 -123.5t-47.5 -50q-8 0 -35 17.5t-60.5 45t-63.5 57.5q-29 -30 -63 -57.5t-60.5 -45t-35.5 -17.5q-16 0 -47.5 50t-68 123.5t-66.5 146.5t-43 119q-17 -2 -40.5 -4t-46.5 -2q-110 0 -202 14t-147 36.5t-55 50.5q0 14 14.5 47.5t36.5 70.5t42 64
q-48 8 -88.5 26.5t-64.5 41.5t-24 45q0 27 35.5 72t92 94.5t121 93t121.5 67.5q-19 29 -39 87t-37 128t-27.5 136.5t-10.5 113.5q0 23 12 31.5t45 8.5q40 0 88.5 -6.5t73.5 -12.5q11 85 27 141t38 56zM1540 1088q-30 0 -51.5 -21.5t-21.5 -51.5t21.5 -51.5t51.5 -21.5
t51.5 21.5t21.5 51.5t-21.5 51.5t-51.5 21.5zM1300 828q-30 0 -51.5 -21.5t-21.5 -51.5t21.5 -51.5t51.5 -21.5t51.5 21.5t21.5 51.5t-21.5 51.5t-51.5 21.5zM566 402v-265l179 30v-190l286 60l-16 78l-190 -40v186l-179 -30v171h-80zM1540 828q-30 0 -51.5 -21.5
t-21.5 -51.5t21.5 -51.5t51.5 -21.5t51.5 21.5t21.5 51.5t-21.5 51.5t-51.5 21.5zM2039 1523l-32 -74l178 -79l-110 -151l161 -81l-99 -139l64 -46l155 215l-161 81l112 155zM1954 402v-171l-179 30v-186l-190 40l-16 -78l286 -60v190l179 -30v265h-80z" />
</svg>