<?xml version="1.0" standalone="no"?>
<!DOCTYPE svg PUBLIC "-//W3C//DTD SVG 1.1//EN" "http://www.w3.org/Graphics/SVG/1.1/DTD/svg11.dtd">
<svg xmlns="http://www.w3.org/2000/svg" xmlns:xlink="http://www.w3.org/1999/xlink" version="1.1"
   viewBox="94 -151 2414 2169">
   <path fill="currentColor"
      d="M289 1978q-88 0 -151 -63t-63 -151v-1091q0 -88 63 -150t151 -62h2022q89 0 151.5 62t62.5 150v1091q0 88 -62.5 151t-151.5 63h-2022zM332 1729v-80h619v80h-619zM332 1549v-80h619v80h-619zM332 1369v-80h619v80h-619zM332 1189v-80h619v80h-619zM332 1009v-80h619v80
h-619zM332 829v-80h619v80h-619zM1460 1814q-59 0 -109 -30t-80 -79.5t-30 -107.5q0 -60 30 -109.5t80 -79.5t109 -30q60 0 110 29.5t79.5 79.5t29.5 110q0 59 -30 108.5t-79.5 79t-109.5 29.5zM1460 1747q63 0 107.5 -44.5t44.5 -105.5q0 -63 -44.5 -107.5t-107.5 -44.5
q-62 0 -107 45t-45 107q0 61 45.5 105.5t106.5 44.5zM1460 1605q-15 0 -26 -11t-11 -26v-144h74v144q0 15 -11 26t-26 11zM289 1898h2022q55 0 94.5 -39.5t39.5 -94.5v-1091q0 -54 -39 -93t-95 -39h-2022q-55 0 -94.5 39t-39.5 93v1091q0 55 39.5 94.5t94.5 39.5zM1336 1171
h71v-66h-71v66zM75 1538v-829q0 -86 15.5 -143t55.5 -103t115 -98q91 -63 154 -88.5t131 -25.5h1508q70 0 133 25.5t154 88.5q74 51 114 96.5t55 103t15 144.5v829h-80v-829q0 -74 -11 -119.5t-42.5 -81t-94.5 -77.5q-82 -56 -135 -78t-108 -22h-1508q-53 0 -105.5 22
t-135.5 78q-63 43 -95 78.5t-43.5 81t-11.5 118.5v829h-80zM1247 910h112v-66h-112v66zM1582 1171h70v-66h-70v66zM2090 1814q-59 0 -109 -30t-80 -79.5t-30 -107.5q0 -60 30 -109.5t80 -79.5t109 -30q60 0 109.5 29.5t79.5 79.5t30 110q0 59 -30 108.5t-79.5 79
t-109.5 29.5zM2090 1747q63 0 107.5 -44.5t44.5 -105.5q0 -63 -44.5 -107.5t-107.5 -44.5q-62 0 -107 45t-45 107q0 61 45.5 105.5t106.5 44.5zM2071 1613q-15 0 -26 -11l-102 -102l51 -51l102 102q11 11 11 26q0 13 -10 24.5t-26 11.5zM1808 1171h70v-66h-70v66zM1228 1290
q-39 0 -69 -30t-30 -70v-364q0 -41 30 -70t69 -29h1028q41 0 70 29t29 70v364q0 40 -29 70t-70 30h-1028zM1469 1230h50v-198h776v-50h-776v-195h-50v195h-280v50h280v198zM1674 910h112v-66h-112v66zM2034 1171h69v-66h-69v66zM1888 910h112v-66h-112v66zM454 263
l1453 -365l25 90l-1017 274zM2103 910h112v-66h-112v66z" />
</svg>