<?xml version="1.0" standalone="no"?>
<!DOCTYPE svg PUBLIC "-//W3C//DTD SVG 1.1//EN" "http://www.w3.org/Graphics/SVG/1.1/DTD/svg11.dtd">
<svg xmlns="http://www.w3.org/2000/svg" xmlns:xlink="http://www.w3.org/1999/xlink" version="1.1"
   viewBox="94 -151 2414 2169">
   <path fill="currentColor"
      d="M2048 1488v-1279q0 -55 -21.5 -108t-54 -88t-65.5 -35h-1335v-80h1335q56 0 106.5 45t82.5 116t32 150v1279h-80zM609 1814q-51 0 -87 -36t-36 -88t36 -88.5t87 -36.5q50 0 86.5 37t36.5 88t-36.5 87.5t-86.5 36.5zM609 1734q18 0 30.5 -13.5t12.5 -30.5
q0 -18 -12.5 -31.5t-30.5 -13.5t-30.5 13t-12.5 32q0 18 12.5 31t30.5 13zM750 1910q-52 0 -93 -37t-59 -98l74 -31q10 37 31.5 61.5t46.5 24.5q35 0 60 -41.5t25 -98.5t-25 -98.5t-60 -41.5q-27 0 -49 26.5t-32 67.5l-71 -42q20 -59 60 -95.5t92 -36.5q70 0 117.5 64
t47.5 156t-47.5 156t-117.5 64zM848 1978q-56 0 -103 -34t-75 -89l99 6q35 37 79 37q55 0 95 -57t40 -139t-40 -139t-95 -57q-31 0 -58 19l-95 -15q29 -39 68 -61.5t85 -22.5q60 0 109 37t77.5 99.5t28.5 139.5t-28.5 139.5t-77.5 99.5t-109 37zM711 1503v-1329h80v1329h-80
zM848 1978v-80h1323q54 0 94.5 -58t40.5 -138t-40.5 -137.5t-94.5 -57.5l-1323 -1v-80l1323 1q60 0 108.5 37.5t77.5 99.5t29 138t-29 138.5t-77.5 100t-108.5 37.5h-1323zM337 286q-51 0 -87 -36t-36 -88t36 -88.5t87 -36.5q50 0 86.5 37t36.5 88t-36.5 87.5t-86.5 36.5z
M337 206q18 0 30.5 -13.5t12.5 -30.5q0 -18 -12.5 -31.5t-30.5 -13.5t-30.5 13t-12.5 32q0 18 12.5 31t30.5 13zM573 451v-80h175v80h-175zM478 382q-52 0 -93 -37t-59 -98l74 -31q10 37 31.5 61.5t46.5 24.5q35 0 60 -41.5t25 -98.5t-25 -98.5t-60 -41.5q-27 0 -49 26.5
t-32 67.5l-71 -42q20 -59 60 -95.5t92 -36.5q70 0 117.5 64t47.5 156t-47.5 156t-117.5 64zM576 450q-56 0 -103 -34t-75 -89l99 6q35 37 79 37q55 0 95 -57t40 -139t-40 -139t-95 -57q-31 0 -58 19l-95 -15q29 -39 68 -61.5t85 -22.5q60 0 109 37t77.5 99.5t28.5 139.5
t-28.5 139.5t-77.5 99.5t-109 37zM1258 1308l-22 -6l-37 4l-6 -64l47 -4l26 6l58 -1l57 -17l81 13l60 3l59 -15l39 11l37 1l-2 64l-45 -1l-31 -9l-51 13l-72 -3l-71 -11l-51 15zM1043 1128l-66 -6l6 -64l56 6l58 -11l42 3l59 2l153 -5l72 6h34l30 -15l96 10h58l71 -5l102 11
l-6 64l-98 -11l-67 5h-64l-80 -8l-28 13h-52l-70 -6l-151 5l-63 -2l-34 -3zM1742 943l-126 -9l-79 8l-72 -20l-61 21l-66 -9l-110 7l-58 -5l-70 -8l-50 10h-59v-64h53l52 -12l80 10l54 5l110 -7l58 7l65 -23l80 22l73 -6l130 9zM1151 764l-57 -22h-20l-77 10l-8 -64l80 -10
h37l53 20l82 -11l78 2l77 -11l76 11l-10 64l-66 -11l-73 11l-78 -2zM1180 388l-46 -9l-40 -4l-47 -2l-54 5l-6 -64l58 -5l54 2l45 4l31 7l37 -13l94 5l-4 64l-80 -5zM1388 580l-66 -16l-127 11l-92 -23l-57 20l-56 1l-2 -64l46 -1l65 -24l100 27l127 -11l58 12l64 -26l93 25
l78 -20l133 15l-6 64l-123 -13l-82 20l-88 -23zM1086 202l-71 -16l-29 9l-21 -61l46 -16l75 18l93 -22l29 15l-27 57l-10 -4zM1642 751v-64h43l37 -22l77 22l48 -1l2 64l-60 1l-57 -18l-29 18h-61zM1661 387l-75 -21l-56 12l-14 -62l72 -16l75 21l92 -20l85 15l-10 62
l-73 -11zM1349 197l-10 -64l84 -12l85 -1l88 8l53 -4l46 -10l118 9l-4 64l-110 -9l-40 10l-63 4l-92 -8l-77 1z" />
</svg>