<?xml version="1.0" standalone="no"?>
<!DOCTYPE svg PUBLIC "-//W3C//DTD SVG 1.1//EN" "http://www.w3.org/Graphics/SVG/1.1/DTD/svg11.dtd">
<svg xmlns="http://www.w3.org/2000/svg" xmlns:xlink="http://www.w3.org/1999/xlink" version="1.1"
   viewBox="94 -151 2414 2169">
   <path fill="currentColor"
      d="M1165 1978q-77 0 -118 -26.5t-41 -75.5q0 -35 15.5 -81t15.5 -76v-148q-103 -67 -162 -163.5t-59 -239.5q0 -22 2.5 -64t9.5 -93l-170 -122q-73 -53 -110.5 -100.5t-33.5 -95.5l18 -191q3 -32 22.5 -46.5t44.5 -22t47 -15t30 -23.5q36 -75 90.5 -126t127 -76.5
t162.5 -25.5h17.5t18.5 2q62 -116 130 -193.5t117 -77.5q43 0 78 50t61.5 132.5t42 182t18.5 199.5q11 29 17.5 69t6.5 79q0 76 -30 137.5t-71 115.5q50 -18 87 -26.5t79 -8.5q52 0 110.5 13t101.5 33q71 -10 110.5 -49t39.5 -88q0 -36 -26 -59t-59.5 -44t-59.5 -49.5
t-26 -74.5q0 -47 34 -80t102 -33q79 0 153.5 42t123 118.5t48.5 180.5q0 90 -41 173t-110 142.5t-155 81.5q8 46 8 83q0 59 -16 102.5t-32 75t-16 56.5v379q0 64 -50 97.5t-132 33.5q-70 0 -109 -26.5t-39 -81.5q0 -35 11 -57.5t21.5 -47t10.5 -64.5q0 -29 -9.5 -73.5
t-21.5 -85.5q-52 15 -114 21t-139 8v289q0 61 -41 97.5t-141 36.5zM926 1880q-47 0 -66 -9t-19 -34q0 -21 14 -48t27.5 -52t13.5 -40v-281l185 167l-18 264q-39 33 -137 33zM403 797l-32 -50q44 -24 90 -44t94 -39l16 59q-45 17 -87 35.5t-81 38.5zM339 680l-19 -51
q53 -17 109.5 -30t119.5 -23l12 55q-60 7 -115 19.5t-107 29.5zM1532 1867q-30 0 -48.5 -9t-18.5 -31q0 -17 12.5 -37t25 -45t12.5 -56q0 -86 -3.5 -131.5t-8.5 -69.5l106 -23l52 177l-45 195q-13 14 -34 22t-50 8zM543 547q-37 -5 -74.5 -7t-75.5 -2h-31t-24 1v-55
q9 -1 24 -1h31q38 0 89 3t88 8zM586 787l-2 -61q56 0 94.5 -13t67.5 -44l43 41q-34 40 -89.5 58.5t-113.5 18.5zM594 680q-12 -35 -12 -73q0 -30 7.5 -51t28.5 -47q46 11 85 30t39 42q0 15 -22.5 26t-51.5 21.5t-51.5 22.5t-22.5 29zM1059 885q-21 -51 -52 -103.5
t-72 -104.5l29 -47q43 42 78.5 96.5t72.5 134.5zM1181 794q-49 -38 -109 -66.5t-124 -44.5l16 -53q71 16 131.5 43.5t118.5 69.5zM895 579q-22 0 -34.5 -16.5t-12.5 -38.5q0 -33 24.5 -62.5t54.5 -29.5q22 0 34.5 16.5t12.5 38.5q0 35 -24 63.5t-55 28.5zM983 682l-19 -52
q57 -19 125 -31t114 -12l3 60q-55 0 -117 9.5t-106 25.5zM1165 1898q61 0 81.5 -12.5t20.5 -40.5v-370q8 1 17 1h22q118 0 211.5 -13.5t139.5 -35.5q21 59 32.5 125t11.5 116q0 55 -10.5 86.5t-21.5 50.5t-11 37q0 24 23 32t55 8q44 0 73 -10.5t29 -30.5v-399
q0 -26 16 -56.5t32 -74t16 -107.5q0 -27 -4.5 -58t-15.5 -67q96 -16 167.5 -65t111 -120.5t39.5 -155.5q0 -78 -34 -137t-88.5 -91.5t-114.5 -32.5q-31 0 -47.5 12t-16.5 27q0 21 26 40t59.5 42.5t59.5 56.5t26 82q0 55 -30.5 103.5t-84.5 79.5t-126 36q-36 -20 -93 -34
t-110 -14q-52 0 -98 16t-87 34q-34 15 -55.5 22.5t-40.5 7.5q-24 0 -39 -13.5t-15 -35.5q0 -19 11.5 -35t36.5 -35q53 -40 84.5 -81t45.5 -85t14 -93q0 -29 -4.5 -61t-18.5 -78q0 -70 -12.5 -154.5t-31.5 -161.5t-40.5 -127t-39.5 -50q-10 0 -36 28t-57 71t-59 90t-42 85
q-24 -2 -49.5 -3.5t-44.5 -1.5q-107 0 -183.5 46.5t-123.5 144.5q-14 29 -44.5 37t-57 19t-30.5 48l-15 151q-4 35 34.5 69.5t116.5 90.5l161 115q-5 46 -7.5 109t-2.5 91q0 94 26 153.5t71.5 98t104.5 70.5l21 229q4 37 -19.5 73t-23.5 59q0 26 20 36.5t69 10.5zM1489 1148
q-19 0 -29.5 -12.5t-10.5 -31.5v-212h80v212q0 19 -10.5 31.5t-29.5 12.5zM1679 1128q-19 0 -29.5 -12.5t-10.5 -31.5v-212h80v212q0 19 -10.5 31.5t-29.5 12.5zM781 313q-10 -14 -14.5 -41.5t-4.5 -62.5q0 -62 12.5 -132t34 -119.5t48.5 -49.5q31 0 85.5 74.5t112.5 218.5
l-152 37zM1343 422q-12 0 -33.5 -19t-44.5 -39q-22 -20 -41 -33.5t-19 -23.5q0 -12 13 -40t31.5 -59.5t35 -53.5t23.5 -22q12 0 24.5 36t21 86t8.5 93q0 75 -19 75z" />
</svg>