<?xml version="1.0" standalone="no"?>
<!DOCTYPE svg PUBLIC "-//W3C//DTD SVG 1.1//EN" "http://www.w3.org/Graphics/SVG/1.1/DTD/svg11.dtd">
<svg xmlns="http://www.w3.org/2000/svg" xmlns:xlink="http://www.w3.org/1999/xlink" version="1.1"
   viewBox="94 -151 2414 2169">
   <path fill="currentColor"
      d="M438 1728q-71 0 -128.5 -33.5t-91 -91t-33.5 -128.5v-1074q0 -72 33.5 -129.5t91 -90.5t128.5 -33h1724q72 0 129.5 33.5t90.5 90.5t33 129v1074q0 71 -33.5 128.5t-90.5 91t-129 33.5h-1724zM438 1648h1724q74 0 123.5 -49.5t49.5 -123.5v-1074q0 -74 -49.5 -123.5
t-123.5 -49.5h-1724q-74 0 -123.5 49.5t-49.5 123.5v1074q0 74 49.5 123.5t123.5 49.5zM217 818v-310h2151v310h-2151zM464 1353v-380h1672v380h-1672zM522 1295h1557v-265h-1557v265zM734 1173q-5 -23 -14.5 -37.5t-20.5 -14.5q-18 0 -27.5 18.5t-15.5 53.5l-35 -5
q9 -49 27.5 -75.5t50.5 -26.5t54 38t22 93q0 38 -29 38q-37 0 -37 -36q0 -44 34.5 -86t71.5 -42q24 0 40 17.5t27 42.5q15 32 27 32q13 0 33 -20q11 -11 23.5 -19.5t28.5 -8.5q11 0 23 4.5t24 12.5q26 15 47 15q12 0 25 -5t26 -14q17 -11 31 -17t29 -6q23 0 36 11.5t23 26.5
q8 11 19 21t26 10t29.5 -4.5t31.5 -13.5q20 -11 44 -19t54 -8q29 0 68 10l-9 34q-30 -9 -59 -9q-28 0 -46.5 6.5t-36.5 16.5q-19 10 -37.5 16t-38.5 6q-25 0 -40 -13t-26 -28q-8 -11 -17 -19.5t-21 -8.5q-15 0 -41 18q-14 10 -30.5 17t-39.5 7q-22 0 -36.5 -6t-25.5 -13
q-20 -13 -35 -13q-18 0 -37 22q-9 10 -20 18t-25 8q-21 0 -34.5 -16.5t-21.5 -35.5q-7 -19 -17 -29.5t-21 -10.5q-31 0 -57 47h-24z" />
</svg>