<?xml version="1.0" standalone="no"?>
<!DOCTYPE svg PUBLIC "-//W3C//DTD SVG 1.1//EN" "http://www.w3.org/Graphics/SVG/1.1/DTD/svg11.dtd">
<svg xmlns="http://www.w3.org/2000/svg" xmlns:xlink="http://www.w3.org/1999/xlink" version="1.1"
   viewBox="94 -151 2414 2169">
   <path fill="currentColor"
      d="M616 1190q-113 0 -184.5 -72.5t-71.5 -196.5q0 -68 23.5 -134t57.5 -119q17 -27 26.5 -56.5t11.5 -57.5q6 -73 20 -125.5t45 -88.5q27 -31 49.5 -48t43 -33t40.5 -43t38 -67t48 -83t86 -79q68 -44 128.5 -65t131.5 -21q62 0 99 8.5t64.5 17t57.5 8.5q38 0 81 -18.5
t115 -18.5q83 0 155.5 36.5t135.5 103.5q40 42 64.5 85t49 83t65.5 73q59 47 85 91.5t26 101.5q0 71 15.5 115t43.5 87q34 51 54 109t20 151q0 105 -69 164t-190 59q-251 0 -251 -244q0 -39 10 -84.5t10 -94.5q0 -139 -69 -168q-120 -49 -168 -183q-97 59 -202 59
q-26 0 -59 -3.5t-55 -3.5q-34 0 -49.5 10.5t-24.5 41.5q-17 58 -65 107.5t-116 84.5q-47 24 -66.5 67t-19.5 113q0 22 2.5 50.5t2.5 57.5q0 106 -64.5 164.5t-180.5 58.5zM1309 1978q-327 0 -488.5 -90t-177.5 -247q-8 -79 -13 -152.5t-8 -155.5t-4 -187h80q2 158 7 267
t18 222q9 78 73.5 137t191.5 92.5t321 33.5q191 0 335 -33.5t224 -92.5t80 -135q0 -26 -8 -50.5t-21 -50.5q-15 -31 -26.5 -66.5t-11.5 -79.5q0 -59 7.5 -128t17.5 -140h79q-10 70 -17 138t-7 130q0 43 11.5 76t25.5 63q13 26 21.5 52t8.5 56q0 103 -88.5 179.5t-250 119
t-380.5 42.5zM906 1232q0 -68 27 -116.5t77 -82.5l30 39q-42 29 -63 66.5t-21 93.5h-50zM1301 1288q-77 0 -143 -27.5t-119 -82.5l50 -44q43 44 95.5 65t116.5 21q65 0 117 -21t95 -65l50 44q-52 55 -118 82.5t-144 27.5zM1030 983q-38 0 -63 -28t-25 -68t25 -68.5t63 -28.5
t63.5 28.5t25.5 68.5t-25.5 68t-63.5 28zM1647 1232q0 -56 -21.5 -93.5t-62.5 -66.5l29 -39q51 34 78 82.5t27 116.5h-50zM1560 983q-38 0 -63.5 -28t-25.5 -68t25.5 -68.5t63.5 -28.5t63 28.5t25 68.5t-25 68t-63 28zM616 1115q170 0 170 -148q0 -26 -2.5 -53t-2.5 -55
q0 -182 127 -248q116 -61 143 -146q17 -54 51 -79.5t95 -25.5q23 0 59 3.5t55 3.5q52 0 107 -20t136 -71q23 87 61.5 142.5t93.5 77.5q56 22 86.5 85t30.5 153q0 51 -10 102t-10 77q0 90 40.5 129t134.5 39q184 0 184 -147q0 -70 -16.5 -118.5t-48.5 -96.5
q-33 -50 -50.5 -104.5t-17.5 -142.5q0 -40 -18 -68.5t-64 -65.5q-45 -36 -74.5 -80.5t-55 -88.5t-58.5 -79q-52 -56 -110 -86.5t-126 -30.5q-46 0 -76.5 9t-57 18.5t-62.5 9.5q-35 0 -65.5 -8.5t-66.5 -17t-89 -8.5q-61 0 -110.5 18.5t-111.5 57.5q-43 27 -67.5 63.5
t-41.5 74.5t-41 70q-24 33 -49 50.5t-49.5 34t-45.5 47.5q-17 25 -26.5 69t-14.5 120q-2 33 -16.5 66t-30.5 60q-29 49 -49.5 104.5t-20.5 109.5q0 92 50 143t131 51z" />
</svg>