<?xml version="1.0" standalone="no"?>
<!DOCTYPE svg PUBLIC "-//W3C//DTD SVG 1.1//EN" "http://www.w3.org/Graphics/SVG/1.1/DTD/svg11.dtd">
<svg xmlns="http://www.w3.org/2000/svg" xmlns:xlink="http://www.w3.org/1999/xlink" version="1.1"
   viewBox="94 -151 2414 2169">
   <path fill="currentColor"
      d="M379 1250q-141 -40 -220 -152t-79 -246q0 -96 33 -173t88.5 -122.5t124.5 -45.5q43 0 65 34.5t22 94.5q0 25 -6 68t-6 67q0 60 40.5 88.5t119.5 28.5q27 0 41 -0.5t29 -1.5l-36 13q-67 -83 -103.5 -200.5t-49.5 -289.5q-5 -71 -12.5 -119t-18.5 -67q-28 -52 -69.5 -81.5
t-74 -55t-32.5 -63.5t34 -67t85.5 -45.5t102.5 -16.5q95 0 169.5 60t119.5 156t48 203h-14q44 -91 117 -140.5t175 -49.5q89 0 159 37q131 -68 253.5 -97t244.5 -29q86 0 174.5 11.5t182.5 31.5l-36 74q-85 -17 -167.5 -27t-161.5 -10q-125 0 -246 30.5t-246 108.5
q-29 -26 -70.5 -38t-86.5 -12q-74 0 -127.5 35.5t-82.5 96t-29 136.5q0 52 17 92.5t46 73.5q-23 10 -42 10q-67 0 -85 -59t-29 -183q-6 -67 -26 -163q-24 -114 -95 -191t-152 -77q-40 0 -64 15t-24 35q0 19 31 37t71.5 46t67.5 78q17 30 26 88.5t13 128.5q5 90 18.5 162.5
t50.5 163.5q25 61 67 112t106 81q-20 8 -70.5 18t-108.5 17t-103 7q-100 0 -161.5 -42.5t-61.5 -129.5q0 -36 7.5 -83t7.5 -64q0 -20 -8.5 -29.5t-19.5 -9.5q-26 0 -50 32.5t-38.5 81.5t-14.5 99q0 88 47 154.5t128 103.5t182 37zM513 1656q21 0 35.5 -11.5t14.5 -27.5
q0 -15 -14.5 -26.5t-35.5 -11.5q-20 0 -34.5 11.5t-14.5 26.5q0 16 14.5 27.5t34.5 11.5zM314 1151q12 -11 12 -29t-14 -33q-12 -14 -29.5 -17t-28.5 5q-12 10 -12.5 28t12.5 33q14 15 32 19t28 -6zM764 1591q17 -10 24 -27t-1 -32q-7 -14 -25.5 -15.5t-37.5 8.5
q-16 9 -23 25.5t0 30.5q8 15 26.5 17.5t36.5 -7.5zM174 985q16 -2 25 -18t4 -36q-4 -18 -17.5 -29.5t-27.5 -9.5q-16 2 -25 17.5t-5 35.5q5 19 18 30.5t28 9.5zM1023 1764q14 -5 20.5 -22.5t-1.5 -36.5q-7 -20 -23 -29.5t-31 -4.5q-16 5 -21.5 22.5t1.5 36.5t23 29.5t32 4.5
zM1254 1937q21 0 35.5 -11.5t14.5 -27.5q0 -15 -14.5 -26.5t-35.5 -11.5q-20 0 -34.5 11.5t-14.5 26.5q0 16 14.5 27.5t34.5 11.5zM1261 1978q-94 0 -174.5 -55t-133 -152t-62.5 -223q-76 75 -161.5 113.5t-170.5 38.5q-88 0 -158 -37t-110.5 -101.5t-40.5 -146.5
q0 -89 51 -156t125.5 -104.5t142.5 -37.5q57 0 92.5 34.5t35.5 91.5q0 49 -31 93.5t-81 66.5l-36 -53q34 -16 51.5 -42t17.5 -49q0 -36 -17 -50t-47 -14q-71 0 -125 52t-54 138q0 69 49.5 114.5t134.5 45.5q81 0 186 -67t251 -211q0 274 72 415.5t193 141.5q81 0 135 -52
t54 -134q0 -64 -27.5 -103t-64.5 -39q-34 0 -55.5 30t-21.5 71h-78q0 -79 46.5 -129.5t120.5 -50.5q56 0 103.5 29t76.5 78t29 108q0 95 -43 173.5t-115 125.5t-160 47zM153 785q16 3 29.5 -9.5t16.5 -31.5t-5.5 -34t-22.5 -18q-16 -3 -30.5 9t-16.5 31t6 34.5t23 18.5z
M1451 1814q12 7 27.5 1.5t24.5 -21.5q10 -17 8 -34t-15 -24q-12 -7 -28.5 -0.5t-24.5 22.5t-6 32t14 24zM559 685q15 -3 23.5 -18.5t5.5 -35.5q-3 -18 -16 -30t-29 -9t-25 18t-5 35q4 19 17 31t29 9zM1747 1688q20 7 36 1t22 -20q7 -17 -3 -31.5t-30 -22.5q-18 -8 -35 -2
t-23 20q-7 16 3.5 32t29.5 23zM512 446q16 0 27 -14t11 -34t-11 -33.5t-27 -13.5t-26.5 13.5t-10.5 33.5t10.5 34t26.5 14zM470 233q17 0 24 -11.5t7 -24.5q0 -23 -15 -39t-32 -16q-14 0 -22.5 11t-8.5 26q0 22 15 38t32 16zM2046 1721q21 0 35.5 -11.5t14.5 -27.5
q0 -15 -14.5 -26.5t-35.5 -11.5q-20 0 -34.5 11.5t-14.5 26.5q0 16 14.5 27.5t34.5 11.5zM1592 1131q-26 0 -43 -18.5t-17 -46.5q0 -34 22 -60.5t55 -26.5q29 0 45.5 20t16.5 45q0 36 -24.5 61.5t-54.5 25.5zM1358 750q-34 0 -58.5 -29.5t-24.5 -70.5t24.5 -70.5t58.5 -29.5
q35 0 58.5 29t23.5 71t-23.5 71t-58.5 29zM1086 759q-21 -56 -21 -114q0 -84 40 -152.5t108 -109t151 -40.5q23 0 47 3.5t47 11.5l-23 72q-19 -6 -37 -8t-37 -2q-60 0 -109 30t-78 81t-29 114q0 45 15 85zM2333 1626q17 -10 25 -27.5t-1 -32.5q-8 -14 -26.5 -16t-35.5 9
q-17 10 -24.5 27t1.5 32q8 13 25.5 15.5t35.5 -7.5zM2176 1155q13 8 29 1t26 -23q11 -17 8 -35t-17 -25q-13 -8 -29 -1.5t-26 23.5t-7 34.5t16 25.5zM1994 1764q-99 0 -223 -26.5t-269 -81.5v-159q151 56 273 83.5t219 27.5q122 0 217.5 -35.5t150.5 -96.5t55 -137
q0 -19 -9 -30.5t-27 -11.5q-13 0 -25.5 12t-37.5 41q-43 52 -107.5 77t-138.5 25q-90 0 -164 -44t-127 -129q197 0 304.5 -126t107.5 -346v-179q0 -103 0.5 -161.5t4.5 -110.5q6 -81 41 -159.5t90 -126.5q13 -11 22.5 -22t9.5 -24t-11.5 -21t-34.5 -8q-75 0 -137 58
t-106 170q-25 61 -37.5 141.5t-17 206.5t-4.5 324q-1 124 -78 189t-193 65q16 -35 23 -65.5t7 -55.5q0 -47 -19 -79t-48 -47l34 -57q44 24 83.5 34.5t110.5 12.5q0 -206 5.5 -337t20.5 -216.5t42 -152.5q54 -132 134 -201.5t180 -69.5q40 0 86.5 14t80 40t33.5 63
q0 54 -55 104q-42 38 -70.5 102.5t-36.5 129.5q-5 44 -6 94t-1 142q0 43 1.5 97t1.5 124q0 193 -91.5 328.5t-264.5 202.5q19 8 38.5 12t40.5 4q50 0 97 -13.5t99 -68.5q38 -40 69.5 -55t60.5 -15q46 0 72.5 36.5t26.5 99.5q0 116 -64 208.5t-177 146t-262 53.5zM2267 802
q16 0 27 -14t11 -34t-11 -33.5t-27 -13.5t-26.5 13.5t-10.5 33.5t10.5 34t26.5 14zM2263 457q15 2 28 -9.5t17 -30.5q4 -20 -4.5 -35.5t-25.5 -17.5q-14 -2 -28 9.5t-16 29.5q-2 20 5.5 36t23.5 18zM2318 871l5 -106q61 -49 89 -110t28 -133q0 -218 -191 -325l45 -65
q107 62 166.5 162.5t59.5 227.5q0 109 -51 196t-151 153z" />
</svg>