<?xml version="1.0" standalone="no"?>
<!DOCTYPE svg PUBLIC "-//W3C//DTD SVG 1.1//EN" "http://www.w3.org/Graphics/SVG/1.1/DTD/svg11.dtd">
<svg xmlns="http://www.w3.org/2000/svg" xmlns:xlink="http://www.w3.org/1999/xlink" version="1.1"
   viewBox="94 -151 2414 2169">
   <path fill="currentColor"
      d="M454 1390q-67 0 -126 -25t-96 -69.5t-37 -102.5q0 -56 54.5 -110.5t128.5 -113.5q73 -59 147 -128t117 -156q-4 -19 -5.5 -42t-1.5 -48q0 -74 21 -166.5t68 -185.5t124 -171t189 -126t263 -48t263 48t189 126t124 171t68 185.5t21 166.5q0 25 -1.5 48t-5.5 42
q43 87 117 156t147 128q74 59 128.5 113.5t54.5 110.5q0 58 -37 102.5t-96 69.5t-126 25q-319 0 -478 -356l73 -33q71 160 169.5 235.5t235.5 75.5q75 0 127 -35.5t52 -83.5q0 -20 -32 -55t-113 -100q-124 -101 -196.5 -177t-110.5 -170q12 -26 12 -96t-18 -153.5
t-58.5 -165.5t-108.5 -150t-166.5 -109t-233.5 -41t-233.5 41t-166.5 109t-108.5 150t-58.5 165.5t-18 153.5t12 96q-38 94 -110 170.5t-197 176.5q-81 65 -113 100t-32 55q0 48 52 83.5t127 35.5q137 0 235.5 -75.5t169.5 -235.5l73 33q-159 356 -478 356zM950 1978
q-45 0 -74.5 -16.5t-29.5 -45.5q0 -25 14 -43.5t49 -22.5l133 -16v-167h110v218q0 37 -58.5 65t-143.5 28zM1650 1978q-85 0 -143.5 -28t-58.5 -65v-218h110v167l133 16q35 4 49 22.5t14 43.5q0 29 -29.5 45.5t-74.5 16.5zM1300 1750q-153 0 -291 -54.5t-244.5 -153.5
t-165.5 -231l73 -32q52 118 147.5 206.5t219.5 137.5t261 49q138 0 261.5 -49t219 -137.5t147.5 -206.5l73 32q-58 132 -165 231t-245 153.5t-291 54.5zM1004 549q-31 0 -53.5 -27t-22.5 -65t22.5 -64.5t53.5 -26.5t53 26.5t22 64.5t-22 65t-53 27zM1300 770
q-24 0 -61.5 -27t-66.5 -62t-29 -58q0 -36 49.5 -68t107.5 -32t107.5 32t49.5 68q0 23 -29 58t-66 62t-62 27zM1596 549q-31 0 -53 -27t-22 -65t22 -64.5t53 -26.5q32 0 54 26.5t22 64.5t-22 65t-54 27z" />
</svg>