<?xml version="1.0" standalone="no"?>
<!DOCTYPE svg PUBLIC "-//W3C//DTD SVG 1.1//EN" "http://www.w3.org/Graphics/SVG/1.1/DTD/svg11.dtd">
<svg xmlns="http://www.w3.org/2000/svg" xmlns:xlink="http://www.w3.org/1999/xlink" version="1.1"
   viewBox="94 -151 2414 2169">
   <path fill="currentColor"
      d="M1711 1978q-83 0 -143 -57.5t-60 -145.5q0 -65 29 -127.5t57.5 -123.5t28.5 -121q0 -49 -19 -90t-43.5 -83t-43.5 -92t-19 -117q0 -98 43 -173.5t117 -119t167 -43.5q160 0 258 121.5t98 344.5q0 154 -40 301t-107.5 266t-151 189.5t-171.5 70.5zM889 1457
q-88 0 -171.5 -70.5t-151 -189.5t-107.5 -266t-40 -301q0 -223 98.5 -344.5t257.5 -121.5q94 0 168 43.5t116.5 119t42.5 173.5q0 67 -19 117t-43.5 92t-43.5 83t-19 90q0 60 29 121t57.5 123.5t28.5 127.5q0 87 -59.5 145t-143.5 58zM396 271q-34 0 -65 -20.5t-31 -48.5
q0 -17 13 -34t32 -17q25 0 52.5 26.5t27.5 56.5q0 15 -7.5 26t-21.5 11zM505 159q-21 0 -45.5 -16.5t-42 -40t-17.5 -43.5q0 -25 23 -46t45 -21q30 0 49.5 36.5t19.5 80.5q0 50 -32 50zM674 97q-17 0 -40.5 -20t-40.5 -48t-17 -51q0 -29 27 -47.5t63 -18.5q56 0 56 76
q0 39 -12.5 74t-35.5 35zM1490 735q-39 0 -79.5 -26t-68 -64.5t-27.5 -75.5q0 -50 44.5 -84.5t94.5 -34.5q57 0 85 45.5t28 119.5q0 120 -77 120zM880 108q-25 0 -43 -36.5t-18 -85.5q0 -88 79 -88q38 0 60 19.5t22 54.5q0 28 -16 59.5t-39.5 54t-44.5 22.5zM1110 214
q-76 0 -76 -120q0 -74 28 -119.5t85 -45.5q50 0 94.5 34.5t44.5 84.5q0 37 -27.5 75.5t-68 64.5t-80.5 26zM1720 629q-21 0 -44 -22.5t-39.5 -54t-16.5 -59.5q0 -35 22.5 -54.5t59.5 -19.5q79 0 79 88q0 49 -18 85.5t-43 36.5zM1927 618q-22 0 -35.5 -35t-13.5 -74
q0 -76 57 -76q35 0 62 18.5t27 47.5q0 23 -17 51t-40 48t-40 20zM2204 792q-13 0 -21 -11t-8 -26q0 -30 28 -56.5t53 -26.5q20 0 32 17t12 34q0 28 -30.5 48.5t-65.5 20.5zM2096 680q-32 0 -32 -50q0 -44 19 -80.5t49 -36.5q23 0 46 21t23 46q0 20 -17.5 43.5t-41.5 40
t-46 16.5z" />
</svg>