<?xml version="1.0" standalone="no"?>
<!DOCTYPE svg PUBLIC "-//W3C//DTD SVG 1.1//EN" "http://www.w3.org/Graphics/SVG/1.1/DTD/svg11.dtd">
<svg xmlns="http://www.w3.org/2000/svg" xmlns:xlink="http://www.w3.org/1999/xlink" version="1.1"
   viewBox="94 -151 2414 2169">
   <path fill="currentColor"
      d="M826 1978q-73 0 -113 -37.5t-40 -110.5v-628q0 -120 49 -214t134.5 -148t194.5 -54h660q109 0 194.5 54t134.5 148t49 214v38h-80v-35q0 -116 -42 -191t-110.5 -111.5t-148.5 -36.5h-654q-80 0 -148.5 36.5t-110.5 111.5t-42 191v602q0 91 86 91h1084q86 0 86 -91v-261
h80v274q0 73 -40.5 115.5t-112.5 42.5h-1110zM456 975q-18 -21 -34 -42t-30 -43q-14 -23 -25 -48.5t-17 -50.5q-3 -13 5 -22.5t21 -10.5l203 -15q26 -2 37 17t-4 41l-114 168q-8 12 -20.5 14t-21.5 -8zM472 912l78 -113l-138 10q6 13 12 27t14 28q8 13 16 25t18 23zM519 875
q-40 -46 -57 -106l112 18zM746 1093q-28 1 -55 -2t-53 -12q-13 -5 -18 -16t1 -24l88 -183q11 -23 33.5 -22.5t33.5 23.5l47 98l-37 46l-44 -91l-59 124q41 8 78 5zM742 980q-32 0 -59 -6l61 -98l42 101q-14 1 -24.5 2t-19.5 1zM1184 1800q-85 0 -139.5 -54t-54.5 -138v-427
q0 -84 55.5 -139.5t138.5 -55.5h494q83 0 138.5 55.5t55.5 139.5v427q0 84 -54.5 138t-139.5 54h-494zM1194 1720h474q60 0 92 -32t32 -90v-407q0 -59 -32.5 -92t-91.5 -33h-474q-59 0 -91.5 33t-32.5 92v407q0 58 32 90t92 32zM715 1230q-143 -7 -260 -81.5t-186 -195
t-69 -265.5q0 -112 42 -210.5t116.5 -173t173 -116.5t210.5 -42t210.5 42t173 116.5t116.5 173t42 210.5q0 35 -4 69t-13 66h-69q20 -66 20 -135q0 -132 -64 -240t-172 -172t-240 -64q-131 0 -239.5 64t-172.5 172t-64 240q0 126 60 231.5t162 171t227 72.5v67zM822 926
l-72 -76q-41 -44 -73 -81.5t-32 -79.5q0 -33 24 -58t61 -25q36 0 70.5 19t80.5 60l128 113l-42 52l-154 -135q-32 -28 -47 -37t-28 -9q-11 0 -19 8t-8 19t19.5 36t65.5 72q11 10 22 21.5t22 22.5l31 32zM1110 857l-57 -9l17 -38l-122 -10l-43 -57l203 15q14 1 22 10.5
t4 22.5q-5 18 -11 34.5t-13 31.5zM744 500l-61 -98q27 -6 59 -6q35 0 73 10zM709 520l-88 -183q-6 -13 -1 -24.5t18 -15.5q50 -14 103 -14t105 14q14 4 19 15.5t-1 24.5l-88 182q-11 23 -33.5 23t-33.5 -22zM742 466l60 -124q-57 -12 -119 -1zM1022 607l-112 -18l55 -88
q40 46 57 106zM934 577l138 -10l-12 -28t-14 -27t-16 -25t-18 -23zM905 633q-25 2 -36.5 -17t3.5 -41l114 -168q8 -12 20.5 -14.5t21.5 8.5q18 21 34.5 42t29.5 43q14 23 25 48t17 51q3 13 -4.5 22.5t-21.5 10.5zM1849 1511h321q25 0 35 -28.5t10 -92.5q0 -69 -10 -102
t-35 -33h-321v256zM1849 1591v-416h338q43 0 66 28.5t32.5 77.5t9.5 109q0 57 -9.5 102.5t-33 72t-65.5 26.5h-338zM1572 727q-18 -21 -34 -42t-30 -43q-14 -23 -25 -48.5t-17 -50.5q-3 -13 5 -22.5t21 -10.5l203 -15q26 -2 37 17t-4 41l-114 168q-8 12 -20.5 14t-21.5 -8z
M1588 664l78 -113l-138 10q6 13 12 27t14 28q8 13 16 25t18 23zM1635 627q-40 -46 -57 -106l112 18zM1674 839l-62 -25l136 -340q18 -46 42 -79.5t68 -33.5q98 0 98 106q0 33 -13 87.5t-35 128.5l-52 177l-64 -18l51 -177q28 -95 37.5 -136t9.5 -62q0 -40 -30 -40
q-12 0 -23 16t-27 56zM1838 845l-8 -54q21 2 43 0.5t44 -5.5l-56 -117l30 -61l88 183q6 13 1.5 24.5t-18.5 15.5q-62 17 -124 14zM1861 732l-1 -98l57 92q-13 3 -27 4t-29 2zM1666 329l-78 -113q-18 20 -34 48q-7 13 -13.5 27t-12.5 28zM1695 385l-203 -15q-13 -1 -21 -10.5
t-5 -22.5q6 -26 17.5 -51t24.5 -48q14 -23 29.5 -45t34.5 -40q11 -10 22.5 -8t19.5 14l114 168q15 22 4 41t-37 17zM1988 967l-56 -58q114 -17 205 -83.5t144 -167t53 -218.5q0 -132 -64 -240t-172 -172t-240 -64q-131 0 -239.5 64t-172.5 172t-64 240q0 112 48.5 209.5
t133.5 164.5l-97 1q-71 -74 -111 -170.5t-40 -204.5q0 -112 42 -210.5t116.5 -173t173 -116.5t210.5 -42t210.5 42t173 116.5t116.5 173t42 210.5q0 127 -53.5 236t-146.5 185t-212 106zM2144 727q-10 10 -22 8t-20 -14l-114 -168q-15 -22 -3.5 -41t36.5 -17l203 15
q14 1 21.5 10.5t4.5 22.5q-6 25 -17 50t-25 49q-13 22 -28.5 43.5t-35.5 41.5zM2081 627l-55 -88l112 -18q-17 60 -57 106zM1856 252l-71 -94q38 -10 73 -10q32 0 59 6zM1891 272q-11 22 -33.5 22t-33.5 -23l-88 -182q-6 -13 -1 -24.5t19 -15.5q108 -33 208 0
q14 4 18.5 15.5t-1.5 24.5zM1858 218l59 -125q-62 -11 -119 1zM2138 359l-112 -18l55 -88q40 46 57 106zM2050 329l138 -10l-12 -28t-14 -27t-16 -25t-18 -23zM2021 385q-25 2 -36.5 -17t3.5 -41l114 -168q8 -12 20.5 -14.5t21.5 8.5q18 21 34.5 42t29.5 43q14 23 25 48
t17 51q3 13 -4.5 22.5t-21.5 10.5zM462 607q17 -60 57 -106l55 88zM579 633l-203 -15q-13 -1 -21 -10.5t-5 -22.5q6 -26 17.5 -50.5t24.5 -48.5q13 -23 28.5 -44t35.5 -41q10 -10 22 -8t20 14l114 168q15 22 4 41t-37 17zM550 577l-78 -113q-10 11 -18 23t-16 25t-14 27
l-12 28zM1578 359q17 -60 57 -106l55 88zM2128 664q10 -11 18 -23t16 -25q8 -14 14 -28t12 -27l-138 -10z" />
</svg>