<?xml version="1.0" standalone="no"?>
<!DOCTYPE svg PUBLIC "-//W3C//DTD SVG 1.1//EN" "http://www.w3.org/Graphics/SVG/1.1/DTD/svg11.dtd">
<svg xmlns="http://www.w3.org/2000/svg" xmlns:xlink="http://www.w3.org/1999/xlink" version="1.1"
   viewBox="94 -151 2414 2169">
   <path fill="currentColor"
      d="M1179 1628q-30 0 -51.5 -9t-21.5 -22q0 -15 11.5 -36.5t41.5 -61.5v-223q0 -46 -20 -95t-20 -116q0 -41 8 -82t8 -69q0 -45 -27 -45q-20 0 -39.5 30t-32.5 73.5t-13 86.5q0 55 -15.5 77.5t-45.5 22.5q-52 0 -52 -59q0 -134 54 -240t143 -168t193 -62q105 0 193.5 62
t142.5 168t54 240q0 59 -52 59q-30 0 -45.5 -22.5t-15.5 -77.5q0 -43 -12.5 -86.5t-32 -73.5t-40.5 -30q-27 0 -27 45q0 28 8 69t8 82q0 67 -20 116t-20 95v223q30 40 41.5 61.5t11.5 36.5q0 13 -21.5 22t-51.5 9q-40 0 -63.5 -13.5t-23.5 -46.5v-291q0 -43 -34 -43t-34 43
v291q0 33 -23 46.5t-64 13.5zM1300 645q-82 0 -140.5 -58t-58.5 -141q0 -82 58.5 -140t140.5 -58q83 0 141 58t58 140q0 83 -58 141t-141 58z" />
</svg>