<?xml version="1.0" standalone="no"?>
<!DOCTYPE svg PUBLIC "-//W3C//DTD SVG 1.1//EN" "http://www.w3.org/Graphics/SVG/1.1/DTD/svg11.dtd">
<svg xmlns="http://www.w3.org/2000/svg" xmlns:xlink="http://www.w3.org/1999/xlink" version="1.1"
   viewBox="94 -151 2414 2169">
   <path fill="currentColor"
      d="M1300 1978q-127 0 -237 -15.5t-190 -44.5v-1422q73 -12 140 -18t136.5 -8t150.5 -2t150.5 2t136.5 8t140 18v1422q-80 29 -189.5 44.5t-237.5 15.5zM569 1193q-16 -2 -20 -19.5t-3 -30.5q-14 3 -30.5 -1t-20.5 -17t10 -23.5t27 -12.5q-7 -13 -7 -28t10 -21
q12 -7 25.5 2.5t20.5 19.5q10 -10 24.5 -16t24.5 4q11 10 5.5 25t-12.5 24q12 7 22.5 19t4.5 24q-7 13 -22 13t-28 -4q-1 14 -9 29t-22 13zM465 940q-14 -2 -18 -17.5t-3 -26.5q-12 3 -26.5 -0.5t-17.5 -15.5q-3 -11 9 -20t23 -11q-7 -11 -7 -24t10 -19q11 -6 22.5 2.5
t17.5 16.5q8 -8 21.5 -13.5t21.5 3.5q8 8 4 21.5t-10 21.5q11 6 20 16.5t4 20.5q-5 11 -19 11.5t-25 -3.5q-1 13 -8.5 25.5t-18.5 11.5zM1289 1749q-18 -10 -18.5 -37.5t12.5 -50.5q-22 -4 -47 -22.5t-19 -42.5t36 -30.5t55 -1.5q-1 -23 6.5 -54.5t34.5 -34.5q25 -3 40.5 23
t16.5 52q23 -8 50.5 -7.5t37.5 23.5q9 22 -8 44t-40 33q14 16 24 45t-9 45t-45.5 5.5t-43.5 -28.5q-12 18 -36 34.5t-47 4.5zM1174 1430q-10 -5 -10.5 -19.5t6.5 -26.5q-11 -2 -23 -11.5t-10 -22.5q2 -14 17.5 -16.5t28.5 0.5q-1 -12 3.5 -29t18.5 -17q12 0 20.5 12.5
t9.5 26.5q11 -5 26 -4.5t19 12.5q5 11 -4 22.5t-21 16.5q7 10 12 24.5t-5 22.5t-23.5 3t-21.5 -14q-7 9 -19.5 17t-23.5 3zM1300 1898q68 0 134.5 -5.5t122.5 -14.5t90 -21v-903l19 27q-59 -3 -128 -5t-132 -3t-106 -1q-42 0 -105.5 1t-132.5 3t-128 5l19 -27v903
q35 12 90.5 21t122.5 14.5t134 5.5zM797 1521q-148 0 -263 -9.5t-199 -25.5q-25 -85 -42 -208t-25 -266.5t-8 -287.5q0 -140 7.5 -262t23.5 -221q74 -3 170.5 -22.5t200.5 -51t205 -70.5t184 -82l-3 89q-66 32 -152 66t-180 64t-186 51.5t-169 29.5q-10 85 -15.5 192
t-5.5 222q0 130 6.5 259t20 239.5t33.5 186.5q40 7 92.5 12.5t110.5 9t112 3.5q0 -104 11.5 -224t35 -239.5t59.5 -226t84 -183.5l19 152q-41 83 -69.5 206.5t-43 275t-14.5 321.5zM609 658q-26 -2 -33.5 -33.5t-6.5 -53.5q-25 6 -54.5 -1t-34.5 -29q-5 -23 18.5 -41
t45.5 -21q-11 -23 -11 -49.5t17 -37.5q20 -14 44.5 3.5t36.5 34.5q17 -17 42 -27t44 5q18 15 8 43t-23 45q23 10 39 31.5t8 41.5q-9 23 -36.5 23t-48.5 -7q-2 25 -17 50t-38 23zM1324 1245q-10 -6 -10.5 -22t6.5 -29q-13 -2 -27 -13t-11 -25t20.5 -18t32.5 -1
q-1 -14 3.5 -32.5t20.5 -19.5q14 -2 23.5 13.5t10.5 30.5q13 -5 29 -5t22 14q5 13 -5 26t-24 19q8 10 14 26.5t-5 26.5q-10 10 -25.5 3t-25.5 -17q-7 10 -21 20t-28 3zM952 938l-24 -28q57 -2 124 -4t132.5 -3t115.5 -1t115.5 1t133 3t123.5 4l-24 28v-381q-66 -11 -149 -15
t-199 -4q-115 0 -198.5 4t-149.5 15v381zM938 748v-49q57 -2 150 -4t210 -2q119 0 210.5 2t151.5 4v49q-61 -2 -152 -4.5t-209 -2.5t-210 2.5t-151 4.5zM1305 780q-30 0 -52 -19t-22 -47q0 -27 18.5 -46.5t45.5 -19.5q28 0 42.5 18.5t14.5 47.5h26q0 28 -21.5 47t-51.5 19z
M901 562q-54 -57 -54 -119q0 -65 53.5 -106.5t136.5 -41.5q47 0 123 11.5t140 37.5q65 -26 140.5 -37.5t122.5 -11.5q83 0 136.5 41t53.5 106q0 63 -54 120l-58 -49q36 -35 36 -70q0 -32 -31 -52t-83 -20q-67 0 -139 15.5t-124 43.5q-60 -31 -135 -45t-128 -14q-52 0 -83 20
t-31 52q0 34 36 70zM2031 1193q-14 1 -22 -13.5t-9 -28.5q-13 4 -28 4t-22 -13q-6 -12 4.5 -24t22.5 -19q-7 -9 -12 -24t5 -25t24.5 -4t24.5 16q7 -10 20.5 -19.5t25.5 -2.5q11 6 11 21t-8 28q13 2 27 12.5t10 23.5t-20.5 17t-30.5 1q2 13 -2.5 31t-20.5 19zM1358 387
l-80 -31l244 -248q10 -11 10 -22q0 -13 -8 -28t-25 -31l-49 -49h71l-365 391l-71 -36l205 -217l-12 90l-208 -228h82l-51 49q-17 17 -25 31.5t-8 28.5q0 10 10 21l148 152l-55 54l-155 -158q-28 -30 -28 -68q0 -29 20 -59t48 -58l36 -37q40 -17 88.5 -26.5t119.5 -9.5
t120 9.5t89 26.5l36 37q27 28 47 58t20 59q0 38 -28 68zM1803 1521q0 -170 -14.5 -321.5t-43 -275t-69.5 -206.5l19 -152q48 77 84 183.5t59.5 226t35 239.5t11.5 224q55 0 112.5 -3.5t110.5 -9t92 -12.5q20 -76 33.5 -186.5t20 -239.5t6.5 -259q0 -115 -5 -222t-16 -192
q-77 -8 -169 -29.5t-186 -51.5t-180 -64t-152 -66l-3 -89q83 43 184 82t205 70.5t200.5 51t170.5 22.5q16 99 23.5 221t7.5 262q0 144 -8 287.5t-24.5 266.5t-42.5 208q-84 16 -198.5 25.5t-263.5 9.5zM2135 940q-11 1 -18.5 -11.5t-8.5 -25.5q-11 4 -25 3.5t-19 -11.5
q-4 -10 5 -20.5t19 -16.5q-6 -8 -9.5 -21.5t3.5 -21.5q8 -9 21.5 -3.5t21.5 13.5q6 -8 18 -16.5t22 -2.5t10 19t-7 24q11 2 23 11t9 20q-3 12 -17.5 15.5t-26.5 0.5q1 11 -3 26.5t-18 17.5zM1991 658q-23 2 -38 -23t-17 -50q-21 7 -48.5 7t-36.5 -23q-8 -20 8.5 -41.5
t38.5 -31.5q-13 -17 -23 -45t8 -43q19 -15 44.5 -5t41.5 27q12 -17 36.5 -34.5t44.5 -3.5q17 11 17 37.5t-11 49.5q22 3 45.5 21t18.5 41q-5 22 -34.5 29t-54.5 1q2 22 -6 53.5t-34 33.5z" />
</svg>