<?xml version="1.0" standalone="no"?>
<!DOCTYPE svg PUBLIC "-//W3C//DTD SVG 1.1//EN" "http://www.w3.org/Graphics/SVG/1.1/DTD/svg11.dtd">
<svg xmlns="http://www.w3.org/2000/svg" xmlns:xlink="http://www.w3.org/1999/xlink" version="1.1"
   viewBox="94 -151 2414 2169">
   <path fill="currentColor"
      d="M1300 1636q132 -91 266.5 -205t247 -243.5t181.5 -265.5t69 -271q0 -127 -50.5 -220t-137 -143.5t-194.5 -50.5q-136 0 -234 70t-148 191q-50 -121 -148 -191t-234 -70q-108 0 -194.5 50.5t-137 143.5t-50.5 220q0 135 69 271t181.5 265.5t247 243.5t266.5 205zM425 1978
q-67 0 -116 -49t-49 -116v-1750q0 -68 49 -116.5t116 -48.5h1750q68 0 116.5 48.5t48.5 116.5v1750q0 67 -48.5 116t-116.5 49h-1750z" />
</svg>