<?xml version="1.0" standalone="no"?>
<!DOCTYPE svg PUBLIC "-//W3C//DTD SVG 1.1//EN" "http://www.w3.org/Graphics/SVG/1.1/DTD/svg11.dtd">
<svg xmlns="http://www.w3.org/2000/svg" xmlns:xlink="http://www.w3.org/1999/xlink" version="1.1"
   viewBox="94 -151 2414 2169">
   <path fill="currentColor"
      d="M658 1942q-67 0 -112 -18.5t-45 -67.5q0 -47 66 -91.5t148 -71.5q-26 -66 -45 -146.5t-19 -132.5q0 -71 36.5 -115.5t88.5 -56.5l447 -104q5 -64 50 -107t82 -43q77 0 139 68t102 189.5t51 283.5q125 -13 180 -92.5t55 -241.5q0 -138 -34 -270t-79 -253.5t-79 -229
t-34 -195.5q0 -95 45.5 -174.5t121.5 -127t165 -47.5q85 0 161.5 42.5t125.5 110.5t49 147q0 63 -40 101t-99 38q-48 0 -76.5 -23.5t-46.5 -55t-35 -55t-43 -23.5q-29 0 -29 88q0 101 34 196.5t79 200.5t79 232.5t34 294.5q0 313 -143 471.5t-425 168.5q-23 48 -83.5 79
t-128.5 31q-58 0 -105.5 -25.5t-94.5 -82.5q-27 49 -53 72.5t-63 23.5q-38 0 -91.5 -26.5t-93.5 -65t-40 -73.5l-65 8l-97 70v99h-40zM870 1978q-89 0 -147 -14t-58 -69q0 -52 64.5 -92t167.5 -77l-14 37q-35 8 -75.5 25t-69.5 36t-29 33q0 20 38.5 31.5t132.5 11.5
q69 0 114.5 -9t61.5 -26l58 57q-32 29 -92 42.5t-152 13.5zM520 912q-41 0 -68 -26t-27 -63q0 -26 14.5 -39t43.5 -18q7 47 14.5 78t22.5 68zM790 778q-26 0 -47 -25t-21 -56q0 -28 16.5 -46.5t40.5 -18.5q28 0 48 23.5t20 56.5q0 28 -16 47t-41 19zM925 1007q-46 0 -90 -15
t-44 -41q0 -24 40 -48.5t99 -45t120 -33t103 -12.5q33 0 54.5 9t21.5 31q0 34 -57 76.5t-139 65.5q-28 7 -55.5 10t-52.5 3zM917 1174q-129 0 -206.5 -61t-77.5 -157q0 -23 3 -49.5t3 -39.5q0 -32 -19.5 -65t-39.5 -72t-20 -87q0 -74 54 -125.5t130 -51.5q43 0 90 12t71 12
q20 0 39.5 -12t47.5 -40l18 -18q30 -30 64.5 -45.5t70.5 -15.5q53 0 99.5 37t61.5 96q10 39 9.5 88.5t6.5 73.5q3 11 12 27t25 39l11 16q25 37 34 63.5t9 63.5q0 74 -46 131.5t-120.5 97.5t-161 61t-168.5 21zM917 1114q69 0 144.5 -18t142 -51t108 -79t41.5 -103
q0 -20 -9 -44t-26 -46l-10 -14q-15 -20 -25.5 -41.5t-17.5 -43.5q-12 -41 -10.5 -84.5t-6.5 -80.5q-9 -40 -37.5 -65t-65.5 -25q-51 0 -102 51l-16 16q-34 34 -62 49t-60 15q-37 0 -82.5 -12t-78.5 -12q-52 0 -88 36.5t-36 80.5q0 35 20 64.5t39.5 66t19.5 93.5q0 23 -3 45
t-3 44q0 80 58.5 119t165.5 39zM970 796q-19 0 -35 -10.5t-16 -23.5q0 -12 27.5 -24t52.5 -12q23 0 23 21q0 19 -16 34t-36 15zM923 1238q-133 0 -242.5 -36.5t-179.5 -142.5q-98 -9 -161.5 -75t-63.5 -160q0 -64 31.5 -115.5t83.5 -76.5q7 -167 81 -291t201.5 -192.5
t296.5 -68.5q146 0 265.5 70.5t200.5 201.5h7.5h7.5q61 0 109 33.5t75.5 86.5t27.5 112q0 120 -110 194q-5 93 -42.5 168t-99.5 131l-72 -47q62 -50 99 -118t37 -153v-13.5t-1 -13.5q109 -54 109 -148q0 -57 -37.5 -104.5t-94.5 -47.5q-7 0 -22.5 3.5t-38.5 9.5
q-64 -135 -170 -210t-250 -75q-149 0 -261.5 60t-175.5 169.5t-63 259.5v21t1 22q-52 4 -83.5 41.5t-31.5 90.5q0 64 44.5 110.5t112.5 46.5q7 0 13.5 -0.5t15.5 -1.5q32 63 81.5 102.5t123 58t176.5 18.5q95 0 182 -20t159 -59l-21 98q-72 31 -154.5 46t-165.5 15z
M1111 691q-26 0 -47 -25t-21 -56q0 -28 16.5 -46.5t40.5 -18.5q28 0 48 23.5t20 56.5q0 28 -16 47t-41 19zM1401 1864q50 0 98.5 -30t73.5 -79q267 0 397.5 -135t130.5 -428q0 -154 -34 -279.5t-79 -233.5t-79 -208t-34 -203q0 -79 28.5 -122.5t83.5 -43.5q45 0 71 23.5
t43.5 55t35.5 55t48 23.5q59 0 59 -62q0 -55 -38 -105.5t-97.5 -83t-124.5 -32.5q-67 0 -123.5 37.5t-90.5 99t-34 134.5q0 87 34 190.5t79 222t79 252.5t34 283q0 207 -89.5 310t-262.5 103q-10 0 -19.5 -0.5t-19.5 -1.5q0 -90 -14.5 -183t-42 -172t-68 -127t-92.5 -48
q-37 0 -56 22.5t-19 64.5q0 15 3 30t11 38h-166q-33 0 -46.5 15t-13.5 33t6 31.5t16 24.5l-51 47q-15 -12 -25 -36.5t-10 -47.5q0 -17 3 -33t12 -29q-48 0 -92 40t-71.5 101t-27.5 125q0 31 12 52t39 21q23 0 43 -23t51 -84l18 -35q25 -49 67 -86.5t109 -37.5q89 0 170 58
t151 178l-67 41q-121 -199 -244 -199q-41 0 -73 27t-71.5 103.5t-103.5 227.5q37 51 78.5 79t68.5 28q29 0 56.5 -27t69.5 -87q71 72 111 99t89 27zM1466 655q-5 -41 -15 -72t-27 -74q23 -7 30 -7q29 0 45 25.5t16 49.5q0 26 -16 47t-33 31z" />
</svg>