<?xml version="1.0" standalone="no"?>
<!DOCTYPE svg PUBLIC "-//W3C//DTD SVG 1.1//EN" "http://www.w3.org/Graphics/SVG/1.1/DTD/svg11.dtd">
<svg xmlns="http://www.w3.org/2000/svg" xmlns:xlink="http://www.w3.org/1999/xlink" version="1.1"
   viewBox="94 -151 2414 2169">
   <path fill="currentColor"
      d="M1305 1978q-292 0 -462.5 -90t-187.5 -247q-11 -112 -19.5 -229.5t-12.5 -263.5t-4 -342l80 27q0 185 4.5 326t13 255t18.5 220q12 118 158 191t412 73q200 0 344.5 -34.5t222 -94t77.5 -132.5q0 -20 -6 -39.5t-19 -45.5q-19 -40 -30.5 -79.5t-11.5 -82.5v-539l80 -27
v566q0 42 10 77t28 71q14 27 21.5 49.5t7.5 49.5q0 102 -87.5 178.5t-249.5 119.5t-387 43zM1300 1551q-85 0 -155 -33.5t-125 -100.5l51 -44q47 57 102.5 82.5t126.5 25.5q72 0 128 -25.5t102 -82.5l51 44q-55 67 -125.5 100.5t-155.5 33.5zM1022 1243q-38 0 -63 -28
t-25 -68t25 -68.5t63 -28.5t63.5 28.5t25.5 68.5t-25.5 68t-63.5 28zM1552 1243q-38 0 -63 -28t-25 -68t25 -68.5t63 -28.5t63.5 28.5t25.5 68.5t-25.5 68t-63.5 28zM1300 918q-234 0 -388.5 -10.5t-245 -34.5t-128.5 -65t-38 -102q0 -59 53 -91q0 -151 75.5 -280.5
t205 -221.5t291.5 -127v83q-147 36 -256.5 116t-170 192.5t-60.5 248.5v12.5t1 11.5q-28 7 -43.5 20.5t-15.5 36.5q0 50 68 79t226 40.5t426 11.5q269 0 426.5 -11.5t225.5 -40.5t68 -79q0 -23 -15.5 -36.5t-43.5 -20.5q1 -6 1 -11.5v-12.5q0 -136 -60.5 -248.5t-170 -192.5
t-256.5 -116v-83q162 35 291.5 127t205 221.5t75.5 280.5q53 32 53 91q0 61 -38 102t-128.5 65t-245 34.5t-388.5 10.5zM1085 358q-13 -101 -37.5 -171t-59.5 -116l67 -44q18 23 33 51.5t27 62.5h-28v-123q0 -50 35 -85t85 -35h186q50 0 85 35t35 85v123h-28
q12 -34 27 -62.5t33 -51.5l67 44q-34 46 -59 116t-38 171l-76 -4v-326q0 -20 -14.5 -35t-35.5 -15h-178q-21 0 -35.5 15t-14.5 35v326z" />
</svg>