<?xml version="1.0" standalone="no"?>
<!DOCTYPE svg PUBLIC "-//W3C//DTD SVG 1.1//EN" "http://www.w3.org/Graphics/SVG/1.1/DTD/svg11.dtd">
<svg xmlns="http://www.w3.org/2000/svg" xmlns:xlink="http://www.w3.org/1999/xlink" version="1.1"
   viewBox="94 -151 2414 2169">
   <path fill="currentColor"
      d="M1683 1739q-114 0 -210 -27t-161 -73q-79 24 -160 24q-141 0 -248 -71t-148 -192l76 -25q32 95 118.5 151.5t201.5 56.5q90 0 176 -34q55 52 148.5 81t206.5 29q163 0 285 -56.5t190.5 -158t68.5 -235.5q0 -127 -64.5 -213.5t-187.5 -125.5l55 -58q133 45 205 147.5
t72 249.5q0 160 -81 279t-221.5 185t-321.5 66zM621 1840l-31 -72q123 -48 202.5 -106t121.5 -129l69 45q-49 81 -140 146.5t-222 115.5zM428 1604l-4 -80q114 -7 207 -25t175 -49l28 74q-176 68 -406 80zM992 1968l-66 -42q54 -86 87 -169.5t48 -168.5l79 14
q-30 182 -148 366zM372 1174q-39 0 -96 -16l20 -76q50 12 75 12q21 0 41 -7t52 -24l36 67q-73 44 -128 44zM1348 1978l-80 -6q3 -50 3 -102q0 -61 -3.5 -126t-11.5 -132l80 -12q8 72 11.5 139.5t3.5 131.5q0 28 -0.5 54.5t-2.5 52.5zM260 831q-41 -6 -67.5 -41.5
t-26.5 -86.5q0 -56 36 -94.5t90 -38.5q39 0 71 30zM976 1612l-169 -222l150 -62l128 -108l72 -200q84 166 133.5 328t49.5 277zM687 1449q-140 0 -248.5 -65t-170 -182.5t-61.5 -275.5q0 -163 63.5 -292t178.5 -204.5t269 -75.5q142 0 260 67.5t188.5 186t70.5 271.5
q0 160 -71 289t-195 205t-284 76zM687 1369q135 0 241 -64t167.5 -175t61.5 -251q0 -127 -58 -227.5t-157 -159t-224 -58.5q-127 0 -224.5 62.5t-152 173t-54.5 256.5q0 133 50 233t140 155t210 55zM737 971q-66 0 -113 -47t-47 -113q0 -65 47 -112t113 -47q65 0 112 47
t47 112q0 66 -47 113t-112 47zM1570 1708q-7 -164 -63.5 -338.5t-143.5 -313.5l180 -56q58 80 105 197t75 246t28 244zM590 432q-46 -124 -82.5 -197.5t-77.5 -111t-99.5 -53t-148.5 -23.5l8 -80q108 10 177 30t117 64.5t88.5 125.5t91.5 212zM885 450q0 -175 -21 -271
t-76.5 -140t-160.5 -62l14 -79q130 24 200 80t97.5 167t27.5 302zM1960 1643q-19 -458 -252 -658l170 -78q125 124 187 279t62 345zM1214 1021q142 0 279.5 -27.5t258.5 -77t213.5 -115.5t145 -143t52.5 -160q0 -50 -20 -110t-52 -114t-69.5 -88.5t-73.5 -34.5
q-17 0 -43.5 17t-74 64t-125.5 135t-198 229t-293 347v78zM1200 1100v-267q110 -117 205.5 -230t168.5 -213.5t114 -179.5t41 -127q0 -42 -61 -74.5t-156 -32.5q-92 0 -173.5 34.5t-132 89.5t-48.5 116l16 446l-82 -69l-14 -373q-3 -84 57.5 -157.5t160.5 -119t216 -45.5
q81 0 148 24t106.5 63.5t39.5 85.5q0 28 -15.5 62.5t-50.5 99.5l-1 -10q70 -79 118 -114.5t91 -35.5q49 0 100.5 39.5t95.5 103.5t71.5 138t27.5 144q0 120 -84 228.5t-229.5 192.5t-333.5 132.5t-396 48.5zM2285 1172l-93 -234l242 23z" />
</svg>