<?xml version="1.0" standalone="no"?>
<!DOCTYPE svg PUBLIC "-//W3C//DTD SVG 1.1//EN" "http://www.w3.org/Graphics/SVG/1.1/DTD/svg11.dtd">
<svg xmlns="http://www.w3.org/2000/svg" xmlns:xlink="http://www.w3.org/1999/xlink" version="1.1"
   viewBox="94 -151 2414 2169">
   <path fill="currentColor"
      d="M1442 1073q16 17 41 17q20 0 35 -15q16 -15 16 -38t-16 -38l-728 -738q-53 -53 -126 -53t-126 53q-52 52 -52 126t52 126l1053 1064q91 91 216 91q59 0 115.5 -23.5t100.5 -67.5q45 -45 68 -101.5t23 -116.5q0 -59 -23 -115t-67 -100l-825 -835l219 -219l825 835
q89 91 135 204t46 232q0 120 -45.5 233t-135.5 203t-203 135.5t-233 45.5t-233.5 -45.5t-202.5 -135.5l-1053 -1064q-70 -72 -106 -162t-36 -184q0 -95 36 -185.5t106 -160.5q71 -71 161 -107t185 -36q96 0 186 35.5t160 107.5l728 738q53 53 80 120t27 138t-27 138t-80 120
q-52 52 -119.5 79t-138.5 27t-138 -26.5t-120 -80.5l-498 -509l219 -220zM1386 1130l-443 -452l-106 107l442 453q41 42 93.5 63t107.5 21t107.5 -21.5t93.5 -62.5t62 -93.5t21 -107.5q0 -56 -21 -108t-62 -93l-728 -738q-58 -59 -133.5 -89.5t-155.5 -30.5
q-79 0 -154.5 30.5t-134.5 89.5t-89.5 134t-30.5 155q0 79 30 154.5t90 134.5l1053 1064q77 78 176 118t203 40t202.5 -40t176.5 -118q78 -77 118 -176.5t40 -202.5q0 -104 -40.5 -202t-117.5 -177l-768 -779l-106 106l769 778q56 57 85 127.5t29 144.5q0 76 -29.5 147
t-85.5 128q-55 55 -126.5 84t-146.5 29q-76 0 -146.5 -29t-126.5 -84l-1053 -1064q-38 -38 -57 -85.5t-19 -97.5t19.5 -98t56.5 -85q38 -38 85.5 -57t97.5 -19t97.5 19t85.5 57l728 738q39 39 39 95t-39 95q-38 38 -92 38q-26 0 -51.5 -10t-45.5 -30z" />
</svg>