<?xml version="1.0" standalone="no"?>
<!DOCTYPE svg PUBLIC "-//W3C//DTD SVG 1.1//EN" "http://www.w3.org/Graphics/SVG/1.1/DTD/svg11.dtd">
<svg xmlns="http://www.w3.org/2000/svg" xmlns:xlink="http://www.w3.org/1999/xlink" version="1.1"
   viewBox="94 -151 2414 2169">
   <path fill="currentColor"
      d="M605 1978v-267h80v187h1340v-1740h-176v-80h256v1900h-1500zM666 1358v-80h454v80h-454zM666 1118v-80h868v80h-868zM666 878v-80h868v80h-868zM385 1738v-1840h1500v1840h-1500zM466 1658h1339v-1680h-1339v1680zM666 638v-80h868v80h-868zM1836 1488v-208h379v208h-379
zM666 398v-80h868v80h-868zM1730 1164l-104 -104l104 -104h485v208h-485zM1836 841v-208h379v208h-379zM1730 517l-104 -104l104 -104h485v208h-485z" />
</svg>