<?xml version="1.0" standalone="no"?>
<!DOCTYPE svg PUBLIC "-//W3C//DTD SVG 1.1//EN" "http://www.w3.org/Graphics/SVG/1.1/DTD/svg11.dtd">
<svg xmlns="http://www.w3.org/2000/svg" xmlns:xlink="http://www.w3.org/1999/xlink" version="1.1"
   viewBox="94 -151 2414 2169">
   <path fill="currentColor"
      d="M1157 1978q-103 0 -133 -65q-43 19 -90 19q-63 0 -103 -27.5t-40 -70.5q0 -34 17 -66t17 -87q0 -50 -21.5 -100.5t-43.5 -111t-22 -141.5q0 -45 10 -101q-76 -24 -119 -80.5t-43 -132.5q0 -62 30 -123.5t85 -111.5q85 -209 230 -269q-18 -62 -32.5 -127.5t-14.5 -129.5
q0 -106 29.5 -186t79 -124.5t108.5 -44.5q84 0 145 95.5t61 255.5v32t-2 33q96 -121 207 -195.5t212 -74.5q82 0 135.5 57.5t53.5 146.5q0 96 -64 195t-165 183.5t-213 140.5q17 46 22 83t5 81q87 22 165.5 71t131.5 126q42 -17 89 -17q119 0 196.5 75t77.5 188
q0 116 -79 189t-199 73q-13 63 -30.5 109.5t-37.5 71.5q-31 38 -85.5 71t-120.5 53.5t-132 20.5q-64 0 -108.5 -17.5t-63.5 -48.5q-28 43 -61.5 62.5t-83.5 19.5zM476 1086l-34 -44q20 -15 59 -35.5t79 -36.5q-38 0 -70 3t-52 7l-12 -54q77 -15 153 -15q14 0 28.5 1t27.5 3
l6 60q-51 14 -95.5 44.5t-89.5 66.5zM846 1090q-20 0 -36.5 -15t-21.5 -37l17 -1q-2 38 -35 38q-30 0 -58 -34l26 -27q12 11 26 11q24 0 24 -34h25q0 48 30 48q12 0 27 -9l24 40q-22 20 -48 20zM795 1010q-26 -30 -36 -46.5t-10 -34.5q0 -16 13 -16q14 0 25 13.5t18 28.5
q35 -29 60 -29q16 0 16 15q0 32 -86 69zM1129 1140q-47 -38 -94.5 -70.5t-99.5 -47.5l9 -47q20 -2 39 -3t38 -1q74 0 139 13l-12 60q-25 -5 -49 -8.5t-50 -3.5l4 -12q31 16 58.5 34t55.5 38zM1139 923q-22 0 -38 -22.5t-16 -54.5q0 -31 16 -53t38 -22q23 0 38 22t15 53
q0 32 -15 54.5t-38 22.5zM1157 1898q36 0 62.5 -15t43.5 -50q21 -42 34.5 -77t53.5 -64l38 -28q-26 -61 -26 -110q0 -78 48 -141t139 -76l14 78q-62 7 -93 47t-31 104q0 30 7 63t20 68q-58 33 -85 62.5t-27 66.5q0 22 25 39t94 17q50 0 105 -16t101.5 -42.5t69.5 -57.5
q13 -17 31 -65.5t34 -153.5q17 5 33.5 7t32.5 2q88 0 142.5 -50.5t54.5 -131.5q0 -80 -54.5 -131.5t-139.5 -51.5q-30 0 -59 7q26 71 37.5 131t11.5 107h-70q0 -53 -17 -114t-49 -125q-27 -54 -78.5 -99.5t-115 -73t-126.5 -27.5q0 -75 -9.5 -142.5t-38.5 -130.5
q72 -18 152 -68.5t151 -119.5t115.5 -144.5t44.5 -143.5q0 -56 -30.5 -90t-78.5 -34q-51 0 -116 32t-134 93.5t-134 150t-117 201.5l-45 -13q22 -72 35.5 -157t13.5 -182q0 -118 -38 -194.5t-88 -76.5q-54 0 -96 78.5t-42 196.5q0 56 15 125t48 173q-81 19 -145.5 84
t-112.5 192q-49 40 -76 89t-27 98q0 63 41 108.5t120 45.5q38 0 80 -11q41 16 84 23t92 7q108 0 206 -59l36 62q-114 67 -242 67q-92 0 -177 -36q-16 3 -35 5.5t-45 2.5q-4 25 -5.5 44.5t-1.5 54.5q0 52 15 101t29 87q14 37 27.5 80.5t13.5 87.5q0 43 -16.5 81t-16.5 55
q0 14 16.5 23t47.5 9q28 0 47 -17.5t40.5 -61t54.5 -121.5l57 24q-25 52 -39.5 93.5t-14.5 76.5q0 27 20 39.5t58 12.5zM1415 596q-33 0 -33 -29q0 -31 32.5 -81.5t80 -102t94 -87t74.5 -35.5q33 0 33 29q0 31 -32.5 81.5t-80 102t-94 87t-74.5 35.5z" />
</svg>