<?xml version="1.0" standalone="no"?>
<!DOCTYPE svg PUBLIC "-//W3C//DTD SVG 1.1//EN" "http://www.w3.org/Graphics/SVG/1.1/DTD/svg11.dtd">
<svg xmlns="http://www.w3.org/2000/svg" xmlns:xlink="http://www.w3.org/1999/xlink" version="1.1"
   viewBox="94 -151 2414 2169">
   <path fill="currentColor"
      d="M1300 1928q-187 0 -341.5 -54t-266.5 -150.5t-172.5 -224.5t-60.5 -276q0 -75 17.5 -166.5t48.5 -172.5q-101 -21 -180 -84t-124 -158.5t-45 -212.5q0 -137 63 -246t170 -172t239 -63q138 0 244.5 62t167 169t60.5 241q42 -14 89.5 -20.5t90.5 -6.5q44 0 91 6.5t89 20.5
q0 -134 60.5 -241t167.5 -169t244 -62q133 0 239.5 63t169.5 172t63 246q0 117 -45 212.5t-123.5 158.5t-180.5 84q31 81 48.5 172.5t17.5 166.5q0 148 -60.5 276t-172.5 224.5t-266 150.5t-342 54zM405 1629l-23 -74l333 -109l24 76zM323 1395v-78h374v78h-374zM693 1261
l-376 -74l17 -77l376 74zM1261 1687q-67 0 -91.5 -70.5t-24.5 -182.5l68 3q0 73 8.5 127.5t39.5 54.5q20 0 39 -10q19 10 39 10q31 0 39.5 -54.5t8.5 -127.5l68 -3q0 112 -24 182.5t-92 70.5q-18 0 -39 -8q-21 8 -39 8zM953 1253q-37 0 -64 -34t-27 -81t27 -80.5t64 -33.5
t63.5 33.5t26.5 80.5t-26.5 81t-63.5 34zM1209 1493q-72 0 -132 -60l45 -49q21 19 39.5 29t47.5 10q31 0 50 -11.5t19 -41.5h44q0 30 19 41.5t50 11.5q29 0 47.5 -10t39.5 -29l45 49q-60 60 -132 60q-27 0 -50 -10t-41 -35q-18 25 -41 35t-50 10zM1300 1379
q-40 0 -68.5 -33.5t-28.5 -81.5q0 -47 28.5 -80.5t68.5 -33.5q41 0 69 33.5t28 80.5q0 48 -28 81.5t-69 33.5zM647 618q-79 0 -134.5 -55.5t-55.5 -134.5t55.5 -134.5t134.5 -55.5t134.5 55t55.5 135q0 79 -55.5 134.5t-134.5 55.5zM1300 1848q165 0 304 -46.5t241.5 -130.5
t159 -198t56.5 -250q0 -95 -28.5 -206.5t-73.5 -200.5h5h5q120 0 203.5 -53.5t127.5 -142t44 -191.5q0 -113 -51 -203.5t-139.5 -144t-201.5 -53.5q-116 0 -207 53.5t-143 145t-52 204.5q0 25 2.5 50t9.5 51q-88 -33 -148 -46t-114 -13t-113.5 13t-148.5 46q7 -26 9.5 -51
t2.5 -50q0 -113 -52 -204.5t-142.5 -145t-207.5 -53.5q-112 0 -201 53.5t-140 144t-51 203.5q0 103 44 191.5t128 142t203 53.5h5h5q-45 89 -73.5 200.5t-28.5 206.5q0 136 56.5 250t159 198t241.5 130.5t304 46.5zM2195 1629l-334 -107l24 -76l333 109zM1647 1253
q-37 0 -63.5 -34t-26.5 -81t26.5 -80.5t63.5 -33.5q38 0 64.5 33.5t26.5 80.5t-26.5 81t-64.5 34zM1903 1395v-78h374v78h-374zM1907 1261l-17 -77l376 -74l17 77zM1953 618q-79 0 -134.5 -55.5t-55.5 -134.5q0 -80 55.5 -135t134.5 -55t134.5 55.5t55.5 134.5t-55.5 134.5
t-134.5 55.5z" />
</svg>