<?xml version="1.0" standalone="no"?>
<!DOCTYPE svg PUBLIC "-//W3C//DTD SVG 1.1//EN" "http://www.w3.org/Graphics/SVG/1.1/DTD/svg11.dtd">
<svg xmlns="http://www.w3.org/2000/svg" xmlns:xlink="http://www.w3.org/1999/xlink" version="1.1"
   viewBox="94 -151 2414 2169">
   <path fill="currentColor"
      d="M1294 1978q-189 0 -342.5 -83t-269.5 -250q-6 49 -12.5 94.5t-16.5 98.5q-83 -94 -133 -176t-72 -167.5t-22 -190.5v-42q-73 -100 -109.5 -247.5t-36.5 -318.5q0 -86 7 -172t25 -187q32 36 69.5 59t78.5 31q-25 -80 -56 -154t-99 -153q68 22 125 52t118 83q0 -30 -12 -70
t-50 -83l-13 -15q-63 -72 -84 -102t-21 -58q30 9 61 12.5t62 3.5q72 0 136.5 -11t134.5 -11q93 0 185.5 48.5t164.5 185.5q0 -68 -11.5 -132.5t-45.5 -124.5q170 0 279 42.5t178 176.5q36 -67 90.5 -104.5t147 -53t240.5 -15.5q43 0 75.5 -10t63.5 -32q0 56 -5.5 112
t-20.5 106q53 -22 98.5 -55.5t83.5 -89.5q5 36 8 69t3 63q0 80 -26.5 148.5t-67.5 123t-85 95.5q53 -4 104 -16.5t94 -29.5q3 46 4 84t1 80q0 235 -42.5 402.5t-115.5 267.5v42q0 105 -22 190.5t-71.5 167.5t-133.5 176q-10 -53 -16.5 -98.5t-12.5 -94.5
q-116 167 -269.5 250t-342.5 83zM833 1290q-29 0 -65.5 -15t-63.5 -39.5t-27 -54.5q0 -55 65 -55q29 0 66 15t64.5 39.5t27.5 54.5q0 24 -18.5 39.5t-48.5 15.5zM514 1210q2 -53 9 -102t16 -94q11 -53 17.5 -98.5t6.5 -86.5q0 -34 -16 -78t-38 -84.5t-40 -64.5
q-11 -15 -19 -15q-11 0 -11 25q0 19 -2.5 47.5t-7.5 64.5q-6 49 -11.5 108t-5.5 118q0 84 26.5 147t75.5 113zM1090 1771q-46 0 -98 -36.5t-97 -94.5t-73.5 -125t-28.5 -127q0 -13 1 -25.5t4 -23.5q140 44 259 65.5t237 21.5q119 0 237.5 -21.5t258.5 -65.5q3 11 4 23.5
t1 25.5q0 60 -28.5 127t-73.5 125t-96.5 94.5t-98.5 36.5q-64 0 -106.5 -11t-97.5 -11t-97 11t-107 11zM965 1016q-28 0 -47.5 -19.5t-19.5 -47.5t19.5 -47.5t47.5 -19.5t47.5 19.5t19.5 47.5t-19.5 47.5t-47.5 19.5zM963 1089q68 0 116 -45t48 -109t-48 -109t-116 -45
q-67 0 -115 45t-48 109t48 109t115 45zM961 1139q-66 0 -118.5 -36.5t-83 -95t-30.5 -123.5q0 -74 61 -119t174 -45q107 0 168.5 43.5t61.5 128.5q0 63 -30.5 119.5t-83 92t-119.5 35.5zM1294 1328q-32 0 -49.5 -10.5t-37.5 -41.5l-14 -21q-10 -16 -22 -24t-27 -8
q-12 0 -22 10t-10 22q0 21 16 27q-11 5 -27 5q-28 0 -47 -21.5t-19 -49.5q0 -26 18.5 -44t46.5 -18q22 0 35 9t29 9t33 -20.5t35 -63.5l5 -12q30 -71 57 -71t57 71l5 12q18 43 35 63.5t33 20.5t29 -9t35 -9q29 0 47 18t18 44q0 28 -19 49.5t-47 21.5q-16 0 -27 -5
q16 -6 16 -27q0 -12 -10 -22t-22 -10q-15 0 -26.5 8t-22.5 24l-14 21q-20 31 -37.5 41.5t-49.5 10.5zM1294 1898q149 0 273 -58t215 -164t141 -250.5t50 -316.5q0 -110 -27.5 -245.5t-74.5 -283.5q-15 28 -39 42t-58 14q-64 0 -113.5 -32t-77.5 -86t-28 -120
q-65 22 -128 36.5t-133 14.5q-68 0 -132 -14.5t-129 -36.5q0 66 -28 120t-77.5 86t-113.5 32q-34 0 -58 -14t-39 -42q-47 148 -74.5 283.5t-27.5 245.5q0 172 50 316.5t141 250.5t215.5 164t272.5 58zM818 568q50 0 89 -37.5t46 -110.5q-74 -62 -114 -146t-54 -202
q-4 -33 -11 -50t-17 -17q-16 0 -31.5 59t-15.5 133q0 105 20 200.5t48 167.5q29 3 40 3zM1755 1290q-30 0 -48.5 -15.5t-18.5 -39.5q0 -30 27.5 -54.5t64.5 -39.5t66 -15q65 0 65 55q0 30 -27 54.5t-63.5 39.5t-65.5 15zM1623 1016q-28 0 -47.5 -19.5t-19.5 -47.5
t19.5 -47.5t47.5 -19.5t47.5 19.5t19.5 47.5t-19.5 47.5t-47.5 19.5zM1627 1139q-66 0 -119 -35.5t-83.5 -92t-30.5 -119.5q0 -85 61.5 -128.5t168.5 -43.5q113 0 174 45t61 119q0 65 -30.5 123.5t-83 95t-118.5 36.5zM1625 1089q68 0 115.5 -45t47.5 -109t-47.5 -109
t-115.5 -45t-116 45t-48 109t48 109t116 45zM2074 1210q50 -50 76 -113t26 -147q0 -59 -5.5 -118t-11.5 -108q-4 -36 -7 -64.5t-3 -47.5q0 -25 -11 -25q-8 0 -19 15q-17 24 -39.5 64.5t-38.5 84.5t-16 78q0 41 7 86.5t17 98.5q9 45 16 94t9 102zM1770 568q12 0 40 -3
q29 -72 48.5 -167.5t19.5 -200.5q0 -74 -15 -133t-32 -59q-10 0 -17 17t-11 50q-13 118 -53.5 202t-114.5 146q8 73 46.5 110.5t88.5 37.5zM1088 1717q20 0 41 -2t51 -6v-59q0 -37 -46 -37t-46 37v67zM932 1580q25 0 52 -18.5t46 -46t20 -52.5q-30 -5 -58.5 -11.5
t-57.5 -13.5q4 9 4 28q0 36 -14.5 57t-14.5 37q0 20 23 20zM1141 1565q32 0 37 -30l9 -54q-22 -2 -44.5 -5t-45.5 -7l-9 49q-4 21 11.5 34t41.5 13zM1248 1699q20 -4 46 -4q11 0 23 1t23 3v-50q0 -37 -46 -37t-46 37v50zM1294 1574q46 0 46 -37v-54q-11 1 -23 1h-23h-22.5
t-23.5 -1v54q0 37 46 37zM1500 1717v-67q0 -37 -46 -37t-46 37v59q30 4 51.5 6t40.5 2zM1447 1565q26 0 41.5 -13t11.5 -34l-9 -49q-22 4 -44.5 7t-45.5 5l9 54q5 30 37 30zM1656 1580q23 0 23 -20q0 -16 -14.5 -37t-14.5 -57q0 -19 4 -28q-29 7 -57.5 13.5t-58.5 11.5
q1 25 20 52.5t46 46t52 18.5z" />
</svg>