<?xml version="1.0" standalone="no"?>
<!DOCTYPE svg PUBLIC "-//W3C//DTD SVG 1.1//EN" "http://www.w3.org/Graphics/SVG/1.1/DTD/svg11.dtd">
<svg xmlns="http://www.w3.org/2000/svg" xmlns:xlink="http://www.w3.org/1999/xlink" version="1.1"
   viewBox="94 -151 2414 2169">
   <path fill="currentColor"
      d="M1300 1678q-178 0 -321.5 -34t-274 -112t-271.5 -208q-48 -44 -103 -88t-117 -82q-70 -43 -70 -110q0 -22 10 -46.5t36.5 -66t75.5 -112.5q215 -311 406.5 -466t362.5 -155q64 0 134.5 20.5t131.5 57.5q61 -37 131.5 -57.5t134.5 -20.5q170 0 362 155t407 466
q50 71 76 112.5t36 66t10 46.5q0 67 -70 110q-61 38 -116.5 82t-103.5 88q-141 130 -271.5 208t-273.5 112t-322 34zM1300 1396q-56 0 -114.5 -6t-129.5 -18q-17 -3 -25 -14t-8 -24q0 -17 13 -31t36 -9q55 10 114 16t114 6t114 -6t114 -16q23 -5 36 9t13 31q0 13 -8 24
t-25 14q-70 12 -129 18t-115 6zM1300 1598q168 0 303.5 -32.5t258 -105.5t251.5 -194q50 -47 108 -93.5t122 -85.5q34 -21 34 -43q0 -10 -9 -28t-32.5 -54t-66.5 -97q-208 -297 -381.5 -442t-321.5 -145q-65 0 -136.5 25t-129.5 69q-58 -44 -129.5 -69t-136.5 -25
q-147 0 -321 145t-382 442q-43 61 -66.5 97t-32.5 54t-9 28q0 22 34 43q64 39 122 85.5t108 93.5q130 121 252 194t257.5 105.5t303.5 32.5zM1300 1174q-109 0 -235 -13t-248 -34.5t-219 -49t-147 -55.5q77 -97 178.5 -179.5t216.5 -143.5t231.5 -95t222.5 -34t222.5 34
t231.5 95t217 143.5t178 179.5q-50 28 -147 55.5t-219 49t-248 34.5t-235 13zM1300 885q143 0 256.5 -25t192.5 -73q-129 -70 -238.5 -103.5t-210.5 -33.5q-100 0 -210 33.5t-239 103.5q79 48 193 73t256 25z" />
</svg>