<?xml version="1.0" standalone="no"?>
<!DOCTYPE svg PUBLIC "-//W3C//DTD SVG 1.1//EN" "http://www.w3.org/Graphics/SVG/1.1/DTD/svg11.dtd">
<svg xmlns="http://www.w3.org/2000/svg" xmlns:xlink="http://www.w3.org/1999/xlink" version="1.1"
   viewBox="94 -151 2414 2169">
   <path fill="currentColor"
      d="M1801 1448q-134 0 -231 -21.5t-171 -61.5t-140 -95.5t-138 -123.5q-69 -65 -125 -110.5t-111 -78.5t-120 -58t-152 -47q-54 -14 -112 -32.5t-108 -46.5t-81.5 -68.5t-31.5 -96.5q0 -58 44.5 -93t115.5 -51t151 -16q124 0 259 35.5t268.5 98t252.5 144.5q38 25 76.5 49.5
t79.5 45.5q108 55 223 81t229 44q101 16 177.5 43.5t120 77t43.5 133.5q0 64 -42 106t-110 72q-82 36 -183 53t-184 17zM773 1140q-113 -1 -203.5 -18.5t-161.5 -49.5t-128 -78v-386l80 21v322q61 48 160 77.5t213 31.5l-22 34v-239l177 80zM1801 1368q84 0 174 -14t160 -45
q51 -23 78 -49.5t27 -66.5q0 -56 -38 -88t-103.5 -50.5t-148.5 -33.5q-124 -23 -246.5 -53t-224.5 -83q-36 -19 -76 -44t-75 -49q-116 -79 -242.5 -138.5t-252.5 -92.5t-242 -33q-109 0 -167.5 23.5t-58.5 67.5q0 39 34 66.5t92.5 47.5t129.5 39q95 24 165 51t129.5 62
t121 84t137.5 119q68 62 132 113.5t134.5 88.5t158 57.5t202.5 20.5zM1707 1389q-58 -3 -123 -18t-125.5 -39.5t-106.5 -54.5q-17 -82 -17 -143q0 -123 52.5 -216t146 -145t217.5 -52q30 0 66 7.5t70 23.5l218 100q35 16 49 37t14 56q0 13 -2 29.5t-6 36.5l-290 -51
q-80 55 -123.5 142.5t-43.5 201.5q0 12 1 29.5t3 55.5z" />
</svg>