<?xml version="1.0" standalone="no"?>
<!DOCTYPE svg PUBLIC "-//W3C//DTD SVG 1.1//EN" "http://www.w3.org/Graphics/SVG/1.1/DTD/svg11.dtd">
<svg xmlns="http://www.w3.org/2000/svg" xmlns:xlink="http://www.w3.org/1999/xlink" version="1.1"
   viewBox="94 -151 2414 2169">
   <path fill="currentColor"
      d="M902 1978q-232 -182 -377 -331t-212.5 -279t-67.5 -252q0 -102 44 -181.5t121 -125t175 -45.5q64 0 124 23t110 64.5t81 96.5q32 -55 82 -96.5t111 -64.5t125 -23q99 0 175.5 45.5t120.5 125t44 181.5q0 126 -68 256t-213 278t-375 328zM902 1889q303 -241 439.5 -426
t136.5 -347q0 -120 -73.5 -196t-189.5 -76q-95 0 -178.5 63.5t-136.5 170.5q-54 -111 -135 -172.5t-176 -61.5q-117 0 -190.5 76t-73.5 196q0 162 136.5 346.5t440.5 426.5zM1262 368q-22 -3 -46 -4t-49 -1q-241 0 -430 86t-287 244h-60q12 -144 83.5 -267.5t189 -215.5
t270.5 -144.5t329 -54.5v50q-155 0 -294.5 45t-251 126.5t-183.5 190.5t-91 238l-21 -16q116 -167 310 -249.5t436 -82.5q26 0 50 1t45 4v50zM1333 1755v-49h9h7q206 0 367.5 -76.5t273 -215.5t169.5 -329t58 -416h26q-40 171 -131.5 303t-215 207.5t-260.5 77.5v-51
q126 -2 240.5 -72.5t201.5 -198.5t129 -302h57q0 350 -111 601.5t-316 386t-488 134.5h-7.5h-8.5zM1847 844q-270 -212 -389.5 -369.5t-119.5 -300.5q0 -80 34.5 -142.5t95 -98t137.5 -35.5q71 0 137.5 36.5t104.5 96.5q38 -60 104.5 -96.5t137.5 -36.5q77 0 137 36t94.5 98
t34.5 142q0 145 -121 303t-387 367zM1847 752q227 -180 330 -318t103 -259q0 -91 -54 -146.5t-141 -55.5q-76 0 -139 52t-99 137q-37 -89 -100 -139t-138 -50q-86 0 -141 56.5t-55 145.5q0 121 103 258.5t331 318.5z" />
</svg>