<?xml version="1.0" standalone="no"?>
<!DOCTYPE svg PUBLIC "-//W3C//DTD SVG 1.1//EN" "http://www.w3.org/Graphics/SVG/1.1/DTD/svg11.dtd">
<svg xmlns="http://www.w3.org/2000/svg" xmlns:xlink="http://www.w3.org/1999/xlink" version="1.1"
   viewBox="94 -151 2414 2169">
   <path fill="currentColor"
      d="M1300 1978l-1190 -1275l384 -585l415 -220h782l415 220l384 585zM1202 1754l-301 -691l-605 -272zM874 970l-131 -469l-483 198zM1300 1803l311 -731h-622zM256 622l455 -187l-187 -222zM947 958l284 -361l-413 -98zM1014 998h573l-287 -362zM1398 1754l906 -963
l-605 272zM1653 958l129 -459l-413 98zM1300 539l505 -121l216 -259l-352 -188h-738l-351 188l215 259zM1726 970l614 -271l-483 -198zM2345 622l-268 -409l-187 222z" />
</svg>