<?xml version="1.0" standalone="no"?>
<!DOCTYPE svg PUBLIC "-//W3C//DTD SVG 1.1//EN" "http://www.w3.org/Graphics/SVG/1.1/DTD/svg11.dtd">
<svg xmlns="http://www.w3.org/2000/svg" xmlns:xlink="http://www.w3.org/1999/xlink" version="1.1"
   viewBox="94 -151 2414 2169">
   <path fill="currentColor"
      d="M1406 1800q-84 0 -153 -48q-78 34 -168 34q-125 0 -233.5 -66t-166.5 -177q-93 -7 -168 -55t-118.5 -125t-43.5 -170q0 -73 26 -135q-95 -92 -95 -225q0 -80 37.5 -149t101.5 -112q-63 -85 -63 -190q0 -88 43 -159.5t117 -114t167 -42.5q50 -78 132.5 -123t176.5 -45
q113 0 212 61.5t140 153.5l-57 77q-19 -69 -64 -116.5t-105.5 -71.5t-125.5 -24q-57 0 -109 21t-93 59.5t-65 91.5q-15 -5 -30 -6.5t-29 -1.5q-105 0 -167.5 69.5t-62.5 170.5q0 54 19.5 99t63.5 92q-67 41 -113 115t-46 145q0 64 28.5 123.5t76.5 84.5q-36 66 -36 152
q0 72 37 134t96 99.5t123 37.5q26 0 46 -4q20 76 73.5 131t125.5 85t149 30q50 0 95.5 -11t87.5 -38q28 34 63.5 48.5t74.5 14.5q75 0 135.5 -47.5t86.5 -115.5q42 23 76 31t68 8q69 0 122.5 -32t87 -88t41.5 -128q65 -21 112.5 -65t73 -105t25.5 -131q0 -80 -34 -153.5
t-98 -127.5q19 -61 19 -102q0 -72 -33 -132.5t-86 -99.5t-113 -48l-9 -81q90 6 163 58t115.5 132t42.5 171q0 38 -9 77q59 62 90.5 141.5t31.5 164.5q0 116 -57 215.5t-164 151.5q-22 119 -113.5 190.5t-207.5 71.5q-32 0 -62.5 -6.5t-59.5 -17.5q-34 67 -100.5 107.5
t-143.5 40.5zM857 1897q-42 0 -68.5 -20t-29.5 -58l-19 -234l212 143v92q0 34 -24 55.5t-71 21.5zM1207 1978q-58 0 -80.5 -34t-22.5 -56v-136l203 -15v151q0 9 -6.5 30.5t-27.5 40.5t-66 19zM1623 1884q-52 0 -89.5 -30t-37.5 -97l110 -126l118 9v180q0 17 -24 40.5
t-77 23.5zM886 1061q35 0 72 -25l-30 -41q-23 13 -43 13q-37 0 -40 -47q44 -7 74.5 -30t30.5 -46q0 -17 -19 -17q-13 0 -35.5 8t-60.5 24q-22 -24 -49.5 -42.5t-41.5 -18.5q-15 0 -15 17q0 22 25 53.5t54 46.5q-16 26 -39 26t-48 -22l-31 37q39 39 81 39q26 0 43 -17
q27 42 72 42zM339 828q-46 -1 -87 -47t-66.5 -121t-25.5 -163q0 -90 28.5 -179t81.5 -162t125 -116.5t159 -43.5q81 0 129.5 37.5t48.5 99.5l-118 -20l-116 40l-103 219l56 195l-80 139zM885 1173q-157 0 -230.5 -56t-73.5 -180q0 -55 15 -98.5t29.5 -88t14.5 -102.5
q0 -25 -3.5 -58t-13.5 -74q85 -19 138 -74q19 64 75.5 106.5t128.5 42.5q46 0 86.5 -17.5t75.5 -48.5q45 58 92 58q-18 69 -29 152.5t-20 158.5t-20 119q-18 71 -61 105.5t-97.5 44.5t-106.5 10zM745 717q27 0 46.5 -23t19.5 -53q0 -29 -16.5 -48.5t-42.5 -19.5
q-27 0 -47 22.5t-20 54.5q0 28 17.5 47.5t42.5 19.5zM1961 1880q-49 0 -77.5 -22t-28.5 -48v-161l119 -82l104 -110v356q0 28 -36 47.5t-81 19.5zM1066 773q29 0 50 -24.5t21 -57.5q0 -32 -18.5 -53t-47.5 -21t-50 24.5t-21 57.5q0 31 19 52.5t47 21.5zM1588 1033
q-90 0 -165 -41.5t-119.5 -110t-44.5 -148.5q0 -92 34 -149.5t85.5 -84.5t103.5 -27q71 0 117 37.5t46 92.5q0 36 -19 61t-48 25q-25 0 -37.5 -15.5t-20 -31.5t-21.5 -16q-13 0 -22 14.5t-9 38.5q0 36 31.5 59.5t74.5 23.5q61 0 100.5 -43.5t39.5 -118.5q0 -95 -75 -148
t-221 -53q-76 0 -117.5 -33.5t-41.5 -94.5q0 -91 74.5 -146t195.5 -55q133 0 237.5 63.5t164.5 174t60 251.5q0 134 -53.5 241.5t-144.5 170.5t-205 63zM2341 888q-52 0 -109.5 -37.5t-99.5 -87.5l43 -168q28 0 56 28t56.5 65.5t58 65.5t59.5 28q13 0 24 7.5t11 24.5
q0 30 -30.5 52t-68.5 22z" />
</svg>