<?xml version="1.0" standalone="no"?>
<!DOCTYPE svg PUBLIC "-//W3C//DTD SVG 1.1//EN" "http://www.w3.org/Graphics/SVG/1.1/DTD/svg11.dtd">
<svg xmlns="http://www.w3.org/2000/svg" xmlns:xlink="http://www.w3.org/1999/xlink" version="1.1"
   viewBox="94 -151 2414 2169">
   <path fill="currentColor"
      d="M793 1678q-122 0 -172 -85l-219 -379q-42 -73 -42 -149q0 -197 78 -356.5t222 -273.5t343.5 -175.5t441.5 -61.5t441.5 61.5t343.5 175.5t222 273.5t78 356.5q0 76 -42 149l-219 379q-50 85 -172 85h-1304zM210 1626l-85 -40q-43 -20 -53 -52t28 -64l153 -129l69 38
l-15 203q-3 38 -32 49.5t-65 -5.5zM330 1409q-49 0 -84 -35.5t-35 -84.5q0 -50 35 -85t84 -35q50 0 85 35t35 85q0 49 -35 84.5t-85 35.5zM330 1349q24 0 42 -18t18 -42q0 -25 -17.5 -42.5t-42.5 -17.5t-42 17.5t-17 42.5t17.5 42.5t41.5 17.5zM793 1598h1304q44 0 66 -10
t36 -35l219 -379q32 -54 32 -109q0 -239 -126 -415.5t-352 -274t-527 -97.5t-527 97.5t-352 274t-126 415.5q0 55 32 109l219 379q14 25 36.5 35t65.5 10zM446 1173l-72 -34q158 -344 431 -518t640 -174q368 0 641 174t430 518l-72 34q-148 -323 -401 -484.5t-598 -161.5
t-598 161.5t-401 484.5z" />
</svg>