<?xml version="1.0" standalone="no"?>
<!DOCTYPE svg PUBLIC "-//W3C//DTD SVG 1.1//EN" "http://www.w3.org/Graphics/SVG/1.1/DTD/svg11.dtd">
<svg xmlns="http://www.w3.org/2000/svg" xmlns:xlink="http://www.w3.org/1999/xlink" version="1.1"
   viewBox="94 -151 2414 2169">
   <path fill="currentColor"
      d="M305 1978q-60 0 -95 -35t-35 -95v-1327q0 -60 35 -95t95 -35h1990q60 0 95 35t35 95v1327q0 60 -35 95t-95 35h-1990zM573 1128q19 0 31 -13t15 -34l6 -36t5 -35q7 -49 -29 -57q-19 -4 -34.5 5.5t-20.5 28.5q-11 41 -13 88q-1 23 10.5 38t29.5 15zM1153 1768
q-210 0 -347.5 -7.5t-219 -35.5t-120.5 -89.5t-51 -168.5t-12 -273t12 -275t52 -173.5t121.5 -95.5t219 -40.5t345.5 -9.5q206 0 341 9.5t215.5 40.5t120 95.5t51.5 173.5t12 275t-11.5 273t-50.5 168.5t-119.5 89.5t-216 35.5t-342.5 7.5zM709 864q52 -23 118 -40t129 -22
q20 -2 33 -15t13 -32q0 -18 -14.5 -30t-37.5 -10q-73 7 -150 27.5t-137 48.5q-18 8 -22.5 25.5t4.5 33.5q11 17 28 20t36 -6zM305 1898h1990q28 0 39 -11.5t11 -38.5v-1327q0 -28 -11.5 -39t-38.5 -11h-1990q-28 0 -39 11.5t-11 38.5v1327q0 28 11.5 39t38.5 11zM2085 1782
q-88 0 -88 -88v-280q0 -88 88 -88h60q88 0 88 88v280q0 88 -88 88h-60zM1192 349l-326 -406l50 -45l354 416zM931 419q3 -52 53.5 -89.5t136.5 -58t192 -20.5q107 0 192.5 20.5t136.5 58t53 89.5h-764zM2115 1203q-49 0 -83.5 -34.5t-34.5 -83.5t34.5 -83.5t83.5 -34.5
t83.5 34.5t34.5 83.5t-34.5 83.5t-83.5 34.5zM2164 1160l25 -24l-51 -74l-74 -51l-24 25l51 73zM2115 883q-49 0 -83.5 -34.5t-34.5 -83.5t34.5 -83.5t83.5 -34.5t83.5 34.5t34.5 83.5t-34.5 83.5t-83.5 34.5zM2097 853h34l17 -88l-17 -88h-34l-16 88zM1434 349l-78 -35
l354 -416l50 45z" />
</svg>