<?xml version="1.0" standalone="no"?>
<!DOCTYPE svg PUBLIC "-//W3C//DTD SVG 1.1//EN" "http://www.w3.org/Graphics/SVG/1.1/DTD/svg11.dtd">
<svg xmlns="http://www.w3.org/2000/svg" xmlns:xlink="http://www.w3.org/1999/xlink" version="1.1"
   viewBox="94 -151 2414 2169">
   <path fill="currentColor"
      d="M1158 1978q-38 0 -63.5 -25t-25.5 -64q0 -32 12.5 -64.5t12.5 -92.5q0 -54 13 -102t37 -90q-25 -30 -48 -66.5t-47 -86.5q-25 -53 -47.5 -89.5t-22.5 -71.5q0 -36 38.5 -59.5t101.5 -23.5q103 0 185.5 54t128.5 150q29 -15 59 -38.5t51 -53.5q7 -38 10.5 -67t3.5 -55
q0 -131 -92 -196.5t-281 -65.5q-43 0 -85.5 2t-100.5 6q-188 112 -312.5 165.5t-195.5 53.5q-75 0 -127.5 -48.5t-52.5 -118.5q0 -40 20.5 -75.5t47 -64.5t47 -49.5t20.5 -30.5q0 -15 -14.5 -42.5t-29 -70.5t-14.5 -102q0 -120 62 -227.5t170.5 -191t248.5 -131.5t295 -48
q158 0 321.5 48t314.5 138q29 -7 67 -10t70 -3q91 0 172 29t131.5 76t50.5 101q0 39 -26.5 70.5t-67.5 42.5q-54 15 -77.5 41.5t-23.5 63.5q0 47 5.5 81.5t12.5 70.5q7 34 11.5 74.5t4.5 100.5q0 188 -79 349t-221.5 281.5t-334.5 186.5q-32 103 -85.5 179t-118 118
t-132.5 42zM379 1003l-23 -56q150 -53 272.5 -130t227.5 -183l42 42q-109 110 -236.5 190.5t-282.5 136.5zM1362 1100q-71 0 -142.5 -39t-122.5 -100t-63 -125h299q0 42 4.5 79t14.5 62q14 37 32.5 58t18.5 42q0 23 -41 23zM1188 1886q33 0 70.5 -28t72.5 -73.5t61 -100.5
t37 -109q194 -59 332.5 -171t213 -261.5t74.5 -320.5q0 -56 -4.5 -94.5t-12.5 -74.5q-7 -33 -12 -70.5t-5 -87.5q0 -65 40.5 -110.5t118.5 -70.5q36 -11 36 -37q0 -27 -41 -56t-104 -49.5t-129 -20.5q-32 0 -69 4.5t-79 14.5q-160 -97 -314 -144.5t-311 -47.5
q-138 0 -263.5 42t-223 114.5t-153.5 165.5t-56 196q0 48 14.5 88t29 71.5t14.5 55.5q0 31 -20.5 58t-47 53t-47 52.5t-20.5 56.5q0 36 28.5 61.5t71.5 25.5q60 0 179 -53.5t314 -165.5q28 -2 66 -4t75 -3t60 -1q221 0 337 87.5t116 254.5q0 28 -4.5 62t-18.5 95
q-19 35 -59.5 69.5t-86 59.5t-79.5 32q-28 -107 -102 -167.5t-168 -60.5q-49 0 -49 23q0 20 18 43.5t34 58.5q18 36 34.5 67.5t37 60t49.5 55.5q-27 39 -48 88t-21 113q0 35 -9.5 62t-9.5 50q0 42 33 42zM847 528q-35 0 -60.5 -26t-25.5 -62q0 -33 22.5 -56t53.5 -23
q35 0 60 26t25 62q0 34 -21.5 56.5t-53.5 22.5zM1411 676l-25 -71q59 -22 126.5 -54t151.5 -80q61 -35 85 -53.5t24 -31.5q0 -16 -32 -31.5t-80 -26t-95 -10.5q-197 0 -337 123l-52 -60q77 -68 179.5 -105.5t209.5 -37.5q122 0 204.5 42.5t82.5 105.5q0 40 -31.5 73
t-117.5 82q-87 49 -157 81.5t-136 53.5z" />
</svg>