<?xml version="1.0" standalone="no"?>
<!DOCTYPE svg PUBLIC "-//W3C//DTD SVG 1.1//EN" "http://www.w3.org/Graphics/SVG/1.1/DTD/svg11.dtd">
<svg xmlns="http://www.w3.org/2000/svg" xmlns:xlink="http://www.w3.org/1999/xlink" version="1.1"
   viewBox="94 -151 2414 2169">
   <path fill="currentColor"
      d="M1300 1978l-950 -522v-1080l950 -528l950 528v1080zM683 1476l-178 -98v-43l178 98v43zM557 1324l-36 -20v-126l36 19v127zM927 1611l-178 -99v-43l178 99v43zM668 1385l-36 -20v-126l36 19v127zM583 1224l-87 -48l44 -38zM859 1557l-36 -23v-137l36 17v143zM694 1286
l-87 -49l44 -38zM897 1443q-62 0 -104 -56.5t-42 -138.5l211 111q0 40 -16.5 62t-48.5 22zM1260 1865v-937l-830 -460v940zM1340 1865l830 -457v-940l-257 143l-36 -72l250 -139l-827 -461l-827 461l827 458l240 -133l39 71l-239 132v937zM1529 1234v-472l-874 -515l78 -45
l876 514v329l47 -65l90 27l77 -115l46 15v-326l-892 -522l79 -46l893 522v480l-92 -29l-74 114l-107 -31z" />
</svg>