<?xml version="1.0" standalone="no"?>
<!DOCTYPE svg PUBLIC "-//W3C//DTD SVG 1.1//EN" "http://www.w3.org/Graphics/SVG/1.1/DTD/svg11.dtd">
<svg xmlns="http://www.w3.org/2000/svg" xmlns:xlink="http://www.w3.org/1999/xlink" version="1.1"
   viewBox="94 -151 2414 2169">
   <path fill="currentColor"
      d="M1329 1978q-223 0 -398.5 -77t-276.5 -215t-101 -321q0 -121 47.5 -256.5t141.5 -276.5q64 -96 84.5 -132t20.5 -51q0 -36 -55 -44q-113 -18 -188.5 -99t-75.5 -196q0 -114 69.5 -207.5t184.5 -149t251 -55.5q140 0 253.5 60.5t180.5 165t67 235.5q0 91 -26.5 182
t-84.5 196t-155 238q-66 91 -103.5 152t-53 104.5t-15.5 82.5q0 85 56.5 135.5t141.5 50.5q17 0 34 -3t33 -7q-31 -17 -48 -43.5t-17 -57.5q0 -50 34.5 -85.5t83.5 -35.5q51 0 86 34.5t35 90.5q0 88 -70.5 136t-178.5 48q-80 0 -141 -34t-95 -91.5t-34 -129.5q0 -47 17 -99
t54.5 -118.5t100.5 -155.5q80 -113 132 -196t81 -148.5t41 -123.5t12 -122q0 -107 -55.5 -194t-151 -138t-214.5 -51q-116 0 -212.5 46.5t-154.5 122.5t-58 165q0 82 54 143t142 75q54 9 88.5 38.5t34.5 82.5q0 25 -13 55.5t-39.5 72t-65.5 99.5q-88 130 -132 254.5
t-44 234.5q0 157 88 277.5t245 189t363 68.5q176 0 302.5 -49t194.5 -139.5t68 -214.5q0 -135 -57 -235t-160 -155.5t-242 -55.5q-97 0 -159.5 17.5t-121.5 45.5l83 -113q59 -14 105.5 -21t92.5 -7q146 0 268.5 60t196.5 177t74 287q0 162 -87.5 268.5t-234 159.5t-323.5 53
zM879 1399v-79q40 0 90.5 -6t90.5 -13l16 77q-44 8 -99 14.5t-98 6.5zM305 717q45 -41 81.5 -76.5t91.5 -93.5q-31 7 -63 11t-65 4q-30 0 -62 -2.5t-58 -8.5q138 -38 223.5 -75.5t149.5 -88.5l87 119q-83 73 -181.5 126.5t-203.5 84.5zM1122 1145q-47 -2 -93 -17t-93 -44
l43 -66q74 45 143 48v79zM1278 930q-91 -32 -185 -98l48 -63q40 29 79 49.5t83 37.5zM1781 1856l69 -92q142 0 242.5 -42t154 -124t53.5 -200q0 -18 -9 -18q-6 0 -10.5 6.5t-9.5 17.5q-36 74 -82.5 100t-105.5 26q-33 0 -70.5 -6t-77.5 -17l22 -77q37 10 68 15t58 5
q36 0 62 -16t56 -61q22 -32 41 -51.5t45 -19.5q41 0 62 31.5t21 76.5q0 217 -160 331.5t-429 114.5zM1023 280q-30 0 -49.5 -16.5t-19.5 -41.5q0 -35 32.5 -63.5t72.5 -28.5q30 0 49.5 16t19.5 42q0 35 -32 63.5t-73 28.5z" />
</svg>