<?xml version="1.0" standalone="no"?>
<!DOCTYPE svg PUBLIC "-//W3C//DTD SVG 1.1//EN" "http://www.w3.org/Graphics/SVG/1.1/DTD/svg11.dtd">
<svg xmlns="http://www.w3.org/2000/svg" xmlns:xlink="http://www.w3.org/1999/xlink" version="1.1"
   viewBox="94 -151 2414 2169">
   <path fill="currentColor"
      d="M1166 1710q-183 0 -343.5 -60t-283 -166t-191.5 -245t-69 -298q0 -119 34 -223t83 -173l-85 -283l282 91q19 -14 37.5 -27t38.5 -26l23 -305l224 198q19 -5 39.5 -9.5t40.5 -8.5l122 -277l131 266q20 0 41.5 2.5t40.5 6.5l196 -211l35 278q47 15 84 41l209 -142l-34 266
q23 22 48 49t43 53l165 -194q32 41 44.5 97.5t12.5 130.5l185 -100l171 321l-169 305l-146 -86q11 26 16 49.5t5 46.5q0 98 -78 197l-107 -94q-77 173 -201 291t-287 178.5t-357 60.5zM312 1552l136 -202l137 143zM651 1867l24 -328l231 102zM371 1201l-261 -44l202 -171z
M1168 1978l-155 -308h262zM305 843q-37 0 -66.5 -26t-29.5 -63q0 -39 38 -63q-19 -26 -19 -53q0 -33 26.5 -50t60.5 -17q44 0 84 27t40 81q0 78 -39.5 121t-94.5 43zM838 1446l28 -268q33 -12 74 2t73 42.5t37 62.5zM571 1072l146 -194q31 4 53 33.5t34 67t12 67.5z
M1656 1790l-198 -151l185 -87zM1166 1630q168 0 314 -52.5t256.5 -145.5t172.5 -216.5t62 -264.5q-124 -105 -275.5 -171.5t-318.5 -93.5q0 -72 -21.5 -138t-52.5 -90q-70 0 -136.5 38t-114 88.5t-63.5 89.5q-159 16 -318.5 66t-308.5 134q-3 31 -3 64q0 144 62.5 270
t173 220.5t257 148t314.5 53.5zM1545 1436l-212 -161q5 -34 37 -62.5t73.5 -42.5t73.5 -2zM1180 1168l-114 -270q18 -23 50.5 -34t67.5 -11t67 11t51 32zM736 609q58 0 95 -33.5t37 -83.5t-37 -83.5t-95 -33.5t-95 33.5t-37 83.5t37 83.5t95 33.5zM736 551q-29 0 -48 -17
t-19 -42q0 -26 19 -42.5t48 -16.5t48.5 16.5t19.5 42.5q0 25 -19.5 42t-48.5 17zM2006 1558l-256 -76l138 -156zM1756 1117l-230 -88q0 -32 23.5 -63t56.5 -52t59 -21zM1454 404v-186l-133 125q25 25 57 40.5t76 20.5zM1717 707l73 -224l-210 99q20 39 53 70.5t84 54.5z
M2281 942q46 0 46 -15q0 -16 -37.5 -35t-91.5 -33t-104 -14q-40 0 -40 11q0 15 36.5 35.5t89.5 35.5t101 15zM2126 796q67 0 128.5 -13t100.5 -31.5t39 -35.5q0 -8 -22 -13.5t-60 -5.5q-67 0 -128.5 13t-100.5 31.5t-39 35.5q0 8 22.5 13.5t59.5 5.5zM2051 695
q28 0 70 -15.5t83 -39t69 -47.5t28 -41q0 -7 -14 -7q-27 0 -68 16t-82 39.5t-69 48t-28 41.5q0 5 11 5z" />
</svg>