<?xml version="1.0" standalone="no"?>
<!DOCTYPE svg PUBLIC "-//W3C//DTD SVG 1.1//EN" "http://www.w3.org/Graphics/SVG/1.1/DTD/svg11.dtd">
<svg xmlns="http://www.w3.org/2000/svg" xmlns:xlink="http://www.w3.org/1999/xlink" version="1.1"
   viewBox="94 -151 2414 2169">
   <path fill="currentColor"
      d="M1290 1978q-289 0 -453 -90.5t-179 -245.5q-11 -117 -18.5 -250t-10.5 -301.5t-3 -388.5h80q0 219 3 387t10 300t19 246q13 121 152 192t400 71q201 0 344 -33.5t219.5 -92t76.5 -134.5q0 -19 -4.5 -37.5t-17.5 -44.5q-20 -41 -31 -81t-11 -84v-706h80v706q0 42 10.5 77
t28.5 73q14 28 19.5 49.5t5.5 47.5q0 101 -87.5 177.5t-249 119.5t-383.5 43zM1285 1296q-84 0 -153.5 -32.5t-123.5 -98.5l45 -39q47 57 103.5 83t128.5 26q73 0 130 -26t103 -83l46 39q-55 66 -124.5 98.5t-154.5 32.5zM1009 991q-37 0 -62 -27.5t-25 -66.5t25 -66.5
t62 -27.5t61.5 27.5t24.5 66.5t-24.5 66.5t-61.5 27.5zM1538 991q-37 0 -61.5 -27.5t-24.5 -66.5t24.5 -66.5t61.5 -27.5q38 0 62 27.5t24 66.5t-24 66.5t-62 27.5zM662 965q-22 0 -38 -41t-25 -111.5t-9 -157.5q0 -232 81.5 -402t237.5 -262.5t379 -92.5q222 0 377 92.5
t236 262.5t81 402q0 87 -9 157.5t-25 111.5t-38 41q-37 0 -53.5 -39.5t-25.5 -98t-22.5 -117t-43 -98t-88.5 -39.5q-48 0 -108 10.5t-131 21.5t-154 11q-81 0 -151.5 -11t-129.5 -21.5t-108 -10.5q-58 0 -88 39.5t-43.5 98t-22.5 117t-25.5 98t-53.5 39.5z" />
</svg>