<?xml version="1.0" standalone="no"?>
<!DOCTYPE svg PUBLIC "-//W3C//DTD SVG 1.1//EN" "http://www.w3.org/Graphics/SVG/1.1/DTD/svg11.dtd">
<svg xmlns="http://www.w3.org/2000/svg" xmlns:xlink="http://www.w3.org/1999/xlink" version="1.1"
   viewBox="94 -151 2414 2169">
   <path fill="currentColor"
      d="M319 1878q-65 0 -112 -47.5t-47 -113.5v-1416q0 -66 47 -113.5t112 -47.5h1962q65 0 112 47.5t47 113.5v1416q0 66 -47 113.5t-112 47.5h-1962zM1483 1817q-126 0 -237 -47.5t-194.5 -131t-131 -194.5t-47.5 -237q0 -127 47 -237.5t131 -194.5t194.5 -131.5t237.5 -47.5
q117 0 226 48t196 132.5t137.5 195t50.5 235.5q0 126 -47 237t-131 194.5t-194.5 131t-237.5 47.5zM1483 1695q135 0 246.5 -66t177.5 -177t66 -245q0 -135 -66 -246t-177.5 -177t-246.5 -66q-134 0 -245.5 66t-178 177t-66.5 246q0 134 66.5 245t178 177t245.5 66z
M1483 1548q-93 0 -170 -46.5t-123 -124t-46 -170.5q0 -94 46 -171t123 -123.5t170 -46.5q97 0 173.5 43.5t121.5 120.5t45 177q0 94 -45.5 171.5t-122.5 123.5t-172 46zM319 1798h1962q33 0 56 -23.5t23 -57.5v-66h-503v-80h503v-845h-706v-80h706v-345q0 -34 -23 -57.5
t-56 -23.5h-1962q-33 0 -56 23.5t-23 57.5v345h1030v80h-1030v845h854v80h-854v66q0 34 23 57.5t56 23.5zM395 188v-110q0 -80 80 -80h297q80 0 80 80v110h-457zM1393 520q-22 0 -38 -16t-16 -38v-99q0 -23 16 -38.5t38 -15.5h180q23 0 38.5 15.5t15.5 38.5v99
q0 22 -15.5 38t-38.5 16h-180zM1927 550q-24 0 -41 -17t-17 -40v-120q0 -23 17 -40t41 -17h222q24 0 41 17t17 40v120q0 23 -17 40t-41 17h-222z" />
</svg>