<?xml version="1.0" standalone="no"?>
<!DOCTYPE svg PUBLIC "-//W3C//DTD SVG 1.1//EN" "http://www.w3.org/Graphics/SVG/1.1/DTD/svg11.dtd">
<svg xmlns="http://www.w3.org/2000/svg" xmlns:xlink="http://www.w3.org/1999/xlink" version="1.1"
   viewBox="94 -151 2414 2169">
   <path fill="currentColor"
      d="M222 1978v-2080h1617v309l-80 83v-312h-1457v1920h1457v-717l80 -68v865h-1617zM996 1720q-76 0 -117.5 -17.5t-83.5 -17.5q-27 0 -50 13t-61 13q-23 0 -60 -12.5t-60 -12.5q-28 0 -53 14l-23 -45q37 -19 76 -19q26 0 63.5 12.5t56.5 12.5q23 0 50.5 -13t60.5 -13
q50 0 94 17.5t107 17.5q26 0 65 -9t68 -19l17 46q-37 14 -79.5 23t-70.5 9zM722 1383q-37 0 -76.5 -12t-62.5 -12q-30 0 -56 13l-23 -45q36 -18 79 -18q28 0 68 12t71 12q32 0 83 -17t93 -18v50q-24 1 -57 9.5t-65 17t-54 8.5zM1182 1670l-100 -69l46 -227q20 93 60.5 135.5
t110.5 42.5q19 0 44 -1.5t58 -4.5zM523 1135l-23 -45q37 -18 76 -18q23 0 46.5 5.5t39.5 5.5q23 0 57 -16t68 -16q46 0 92.5 8.5t111.5 8.5q55 0 124.5 -6t120.5 -15l10 48q-53 10 -125.5 16.5t-129.5 6.5q-72 0 -119 -8.5t-85 -8.5q-26 0 -57.5 16t-67.5 16q-23 0 -43 -5.5
t-43 -5.5q-27 0 -53 13zM687 886q-47 0 -64 -16t-40 -16q-30 0 -56 13l-23 -45q36 -18 79 -18q32 0 53.5 16t50.5 16q21 0 55.5 -13t65.5 -13q41 0 83 22l-25 43q-28 -15 -58 -15q-27 0 -56.5 13t-64.5 13zM1145 1690q-34 0 -59 -22t-25 -55q0 -7 2 -17l80 -396
q5 -23 13 -47.5t21 -44.5l50 49q-6 13 -11 26.5t-8 29.5l-65 324l65 56l317 -177q21 -11 37.5 -23.5t23.5 -21.5l48 47q-17 25 -76 58l-374 205q-17 9 -39 9zM687 640q-47 0 -64 -16t-40 -16q-30 0 -56 13l-23 -45q36 -18 79 -18q32 0 53.5 16t50.5 16q23 0 61 -13t70 -13
q41 0 67.5 10.5t60.5 10.5q55 0 106 -18l19 47q-55 21 -125 21q-49 0 -71 -10.5t-57 -10.5q-28 0 -62.5 13t-68.5 13zM1281 886q-47 0 -64 -16t-40 -16q-30 0 -56 13l-23 -45q36 -18 79 -18q32 0 53.5 16t50.5 16q20 0 54 -12.5t72 -13.5v50q-33 1 -62.5 13.5t-63.5 12.5z
M902 327q-48 0 -78.5 -18.5t-65.5 -18.5q-28 0 -47.5 11t-57.5 11q-25 0 -43 -6.5t-41 -6.5q-27 0 -53 13l-23 -45q37 -18 76 -18q24 0 48.5 6.5t35.5 6.5q21 0 47 -11t58 -11q41 0 77.5 18.5t66.5 18.5q35 0 75.5 -23.5t101.5 -23.5q53 0 115.5 12.5t111.5 2.5l11 48
q-59 13 -117.5 0t-120.5 -13q-37 0 -63.5 11.5t-52 23.5t-61.5 12zM1559 1438q-35 0 -61.5 -18.5t-37.5 -47.5q-16 3 -28 5t-22 2q-39 0 -75 -23q-49 -31 -55 -101q-55 1 -85 -23t-30 -67q0 -26 12 -57l471 -655l55 39l-465 647q-3 7 -3 14q0 16 12.5 27.5t29.5 11.5
q16 0 28 -9l439 -614l54 39l-453 632q1 34 18 52.5t47 18.5q8 0 18 -2t22 -5l454 -634l55 39l-430 601q-5 10 -5 21q0 16 12.5 27.5t29.5 11.5q16 0 28 -9l463 -648l55 38l-478 667q-39 20 -75 20zM2135 773q-79 -2 -146.5 -26.5t-155.5 -81.5q-87 -57 -134.5 -109
t-78.5 -122l159 -214l61 6l-10 68l-17 -3l-115 151q26 46 64.5 83.5t108.5 83.5q71 46 123 67.5t109 26.5l112 -149q-3 -6 -4 -8.5t-3 -4.5l59 -34l25 54zM2215 593q-63 -9 -122 -34t-127 -71q-76 -51 -120.5 -95t-73.5 -95l46 -60q24 55 65 98t120 96q76 51 133 72.5
t125 24.5zM2229 592l-54 -41l116 -153q18 -24 18 -50q0 -54 -99 -117l-82 -52q-67 -43 -117 -43q-45 0 -72 36l-118 160l-54 -40l118 -160q47 -63 125 -63q72 0 154 54l81 53q133 86 133 176q0 44 -32 86zM2327 408q-57 -11 -112.5 -36t-120.5 -68q-60 -41 -100.5 -77
t-69.5 -75l45 -55q25 39 62.5 74t100.5 78q64 43 114 64t102 29z" />
</svg>