<?xml version="1.0" standalone="no"?>
<!DOCTYPE svg PUBLIC "-//W3C//DTD SVG 1.1//EN" "http://www.w3.org/Graphics/SVG/1.1/DTD/svg11.dtd">
<svg xmlns="http://www.w3.org/2000/svg" xmlns:xlink="http://www.w3.org/1999/xlink" version="1.1"
   viewBox="94 -151 2414 2169">
   <path fill="currentColor"
      d="M1296 1978q-444 0 -680 -152t-236 -456q0 -164 62 -311.5t177 -268t277 -203t361 -114.5q0 -53 46.5 -81t137.5 -28q71 0 135 16t113.5 44.5t78 66t28.5 80.5q0 22 -11 40q89 83 136 194.5t57 259.5q103 76 172.5 189t69.5 244q0 144 -111 252t-318 168t-495 60z
M1124 1717l-108 -32q13 -41 26.5 -83.5t29.5 -89.5l108 33q-13 35 -26 75t-30 97zM1234 1604q-92 0 -167 -36t-119 -97.5t-44 -136.5h120q0 68 62 119t145 51q63 0 100 -30.5t37 -82.5q0 -45 -33 -83t-113 -87l-23 -14q-96 -59 -133.5 -106t-37.5 -109q0 -94 66 -148.5
t181 -54.5q84 0 153 28.5t113.5 79t53.5 116.5l-117 20l-5 -22q-13 -56 -65.5 -89t-126.5 -33q-64 0 -101 25.5t-37 70.5q0 34 30.5 67.5t104.5 80.5l62 39q76 48 109.5 99.5t33.5 119.5q0 98 -66.5 155.5t-182.5 57.5zM1296 1901q260 0 449 -50.5t292 -141t103 -211.5
q0 -108 -54 -204.5t-151 -170t-227 -111.5l19 -67q48 14 89 31.5t78 38.5q-36 -241 -169 -355.5t-375 -114.5q-114 0 -231.5 33t-228.5 96q-136 77 -232.5 187t-147 240t-50.5 269q0 265 215 398t621 133zM1431 855l-107 -32q12 -37 24.5 -69.5t26.5 -65.5l104 37
q-10 25 -22 56t-26 74zM1301 414q-24 -55 -39 -112t-15 -117q0 -89 44.5 -157t142.5 -68q50 0 94.5 26.5t78.5 61.5l-54 46q-22 -24 -53.5 -44t-66.5 -20q-64 0 -87.5 50t-23.5 105q0 52 13.5 102t33.5 97zM1754 559l-15 -74q141 -26 211 -67.5t70 -103.5q0 -34 -21.5 -67
t-58.5 -43q8 -24 13.5 -47.5t5.5 -44.5q0 -65 -38.5 -103t-111.5 -38q-75 0 -124.5 38.5t-81.5 103t-53 143.5l-72 -20q21 -91 62 -168t107.5 -123.5t161.5 -46.5q98 0 164 50t66 132q0 21 -4.5 47t-12.5 42q41 28 59.5 66.5t18.5 82.5q0 87 -78 145.5t-268 95.5z" />
</svg>