<?xml version="1.0" standalone="no"?>
<!DOCTYPE svg PUBLIC "-//W3C//DTD SVG 1.1//EN" "http://www.w3.org/Graphics/SVG/1.1/DTD/svg11.dtd">
<svg xmlns="http://www.w3.org/2000/svg" xmlns:xlink="http://www.w3.org/1999/xlink" version="1.1"
   viewBox="94 -151 2414 2169">
   <path fill="currentColor"
      d="M1300 1978q-202 0 -365 -3t-288 -10q-110 -6 -180 -18t-108.5 -43.5t-53.5 -93.5t-15 -167q0 -123 11.5 -277.5t33.5 -313.5t51 -293q20 -92 41.5 -156.5t56.5 -106.5t95.5 -64.5t159.5 -30.5q61 -5 139 -8t181.5 -4.5t240.5 -1.5q138 0 241.5 1.5t181.5 4.5t138 8
q99 8 159.5 30.5t96 64.5t56.5 106.5t41 156.5q29 134 50.5 293t33.5 313.5t12 277.5q0 105 -15 167t-53.5 93.5t-108.5 43.5t-180 18q-124 6 -287.5 9.5t-365.5 3.5zM1300 1763q-108 0 -226.5 -7t-234.5 -17q-4 -96 -40 -168t-98 -113.5t-144 -44.5q6 -158 18 -292t31 -243
t45 -191q96 -8 201.5 -13.5t218 -8.5t229.5 -3t229.5 3t218.5 8.5t201 13.5q27 82 46 191t31 243t17 292q-81 3 -143.5 44.5t-98.5 113.5t-40 168q-115 10 -234 17t-227 7zM1300 1687q107 0 208.5 -5.5t181.5 -11.5q9 -84 47.5 -152.5t98 -113t130.5 -54.5
q-6 -112 -16.5 -224t-25 -208t-33.5 -160q-103 -8 -253 -14t-338 -6t-338 6t-253 14q-19 64 -33.5 160t-25 208t-16.5 224q72 10 131 54.5t97.5 113t47.5 152.5q80 6 182 11.5t208 5.5zM1300 1898q194 0 357 -3.5t290 -9.5q96 -5 152.5 -12.5t84.5 -29.5t37 -69t9 -131
q0 -119 -11 -269.5t-32 -307t-52 -293.5q-19 -83 -36 -137t-43.5 -86t-74 -47.5t-127.5 -21.5q-60 -5 -137 -8t-178.5 -4.5t-238.5 -1.5q-136 0 -238 1.5t-178.5 4.5t-137.5 8q-80 6 -127.5 21.5t-74 47.5t-43.5 86t-36 137q-31 137 -52 293.5t-32 307t-11 269.5q0 84 9 131
t37 69t85 29.5t153 12.5q126 6 289.5 9.5t356.5 3.5zM1289 1051l-83 -83q-10 -11 0 -21l83 -83q11 -11 22 0l83 83q11 10 0 21l-83 83q-11 11 -22 0zM941 1180l-105 -5q-26 -2 -34 -10.5t-7 -29.5l10 -210q3 -43 27 -62t32 -49.5t17 -104.5l20 -160q29 -230 78 -373.5
t127 -210.5t194 -67t194 67t127.5 210.5t77.5 373.5l20 160q9 74 17 104.5t32 49.5t27 62l10 210q1 21 -7 29.5t-34 10.5l-105 5q-21 1 -30 -8.5t-10 -31.5l-6 -210q-1 -18 2.5 -40.5t10.5 -38.5t12 -37t5 -48q0 -12 -1.5 -26.5t-3.5 -31.5l-20 -160q-25 -202 -64.5 -327.5
t-101 -184t-152.5 -58.5t-152.5 58.5t-101 184t-64.5 327.5l-20 160q-2 17 -3.5 31.5t-1.5 26.5q0 27 5 48t12 37t10.5 38.5t2.5 40.5l-6 210q-1 22 -10 31.5t-30 8.5z" />
</svg>