<?xml version="1.0" standalone="no"?>
<!DOCTYPE svg PUBLIC "-//W3C//DTD SVG 1.1//EN" "http://www.w3.org/Graphics/SVG/1.1/DTD/svg11.dtd">
<svg xmlns="http://www.w3.org/2000/svg" xmlns:xlink="http://www.w3.org/1999/xlink" version="1.1"
   viewBox="94 -151 2414 2169">
   <path fill="currentColor"
      d="M675 1778q47 -122 70.5 -203t23.5 -117q0 -34 -21.5 -63t-88.5 -79q-54 -41 -113 -100t-100 -154.5t-41 -247.5q0 -223 108 -383.5t309 -246.5t479 -86q428 0 661 193t233 549q0 147 -65 269t-184 211t-282.5 137t-360.5 48q-16 0 -58 -1t-76 -5q-73 126 -184 191
t-310 88zM852 908q-43 0 -73.5 -30t-30.5 -73t30.5 -72.5t73.5 -29.5t72.5 29.5t29.5 72.5t-29.5 73t-72.5 30zM796 1676q117 -20 190 -80t140 -184q25 4 55 7t62 4.5t60 1.5q241 0 423.5 -74.5t285.5 -206.5t103 -304q0 -321 -209.5 -491.5t-604.5 -170.5q-256 0 -439 76
t-280 218t-97 342q0 132 33.5 213t85 132t105.5 93q79 61 109.5 105.5t30.5 100.5q0 40 -13.5 96.5t-39.5 121.5zM1306 908q-43 0 -72.5 -30t-29.5 -73t29.5 -72.5t72.5 -29.5q44 0 73.5 29.5t29.5 72.5t-29.5 73t-73.5 30zM1761 908q-42 0 -72 -30t-30 -73t30 -72.5
t72 -29.5q44 0 74 29.5t30 72.5t-30 73t-74 30z" />
</svg>