<?xml version="1.0" standalone="no"?>
<!DOCTYPE svg PUBLIC "-//W3C//DTD SVG 1.1//EN" "http://www.w3.org/Graphics/SVG/1.1/DTD/svg11.dtd">
<svg xmlns="http://www.w3.org/2000/svg" xmlns:xlink="http://www.w3.org/1999/xlink" version="1.1"
   viewBox="94 -151 2414 2169">
   <path fill="currentColor"
      d="M624 1842q-20 0 -36 -18.5t-16 -52.5q0 -47 31.5 -72.5t78 -38.5t93.5 -22t78.5 -22t31.5 -38v-40l123 49v60q0 25 -25 38.5t-57 21.5t-57 17t-25 27q0 45 -6.5 62.5t-19.5 17.5q-21 0 -33 -16.5t-22 -33t-25 -16.5t-33 19t-38.5 38.5t-42.5 19.5zM1022 1978
q-70 0 -70 -33q0 -24 43 -42t143 -38q20 -4 44 -35.5t24 -89.5q0 -38 -18.5 -76t-32.5 -57l138 -53l45 132q7 21 0.5 58.5t-15.5 71t-9 43.5q0 16 23.5 23t46.5 16.5t23 34.5q0 28 -22.5 36.5t-64.5 8.5q-26 0 -58 -3t-68 -3q-57 0 -98.5 3t-73.5 3zM501 869
q-37 0 -64.5 -27.5t-27.5 -76.5q0 -40 20 -85t73 -87t152 -71q0 -62 -7.5 -103.5t-25.5 -70.5q30 -42 83.5 -67t107.5 -25q93 0 147 53t54 143q0 73 -37.5 129.5t-103 88t-151.5 31.5q-31 60 -73.5 97t-82.5 54t-64 17zM1218 1351q-151 0 -238.5 -82t-87.5 -209
q0 -96 49.5 -167t130.5 -125.5t175 -102.5l143 155q57 1 103 27.5t46 59.5q0 18 -15 41t-38 40q66 26 66 61q0 54 -67 94q28 19 28 53q0 41 -41.5 76.5t-108.5 57t-145 21.5zM721 622q96 0 154 -46.5t58 -125.5q0 -54 -34 -87t-93 -33q-61 0 -110 45q11 43 18 111t7 136z
M1383 830l-128 -57l-49 -84q-40 -69 -57 -143t-34 -126q-21 -67 -87 -108.5t-143 -41.5q-64 0 -116.5 21.5t-99.5 86.5q-118 0 -167.5 31.5t-49.5 111.5h219v65h-305q0 -149 59 -213.5t207 -64.5q110 -116 253 -116q106 0 189 52.5t114 142.5q22 63 35 129.5t47 123.5z
M639 345q-18 -50 -27 -91t-9 -71q0 -65 30 -102t76 -37q33 0 62 19q0 -65 49 -115t111 -50q73 0 73 88q44 -47 83 -67.5t76 -20.5q47 0 72.5 30.5t25.5 77.5q0 68 -59 148.5t-145 130.5l-80 -36l-141 -2zM807 495q-17 0 -29 -17t-12 -41q0 -23 12 -40t29 -17t29 17t12 40
q0 24 -12 41t-29 17zM1811 266q126 0 221 49t148.5 134t53.5 193q0 52 -22 76.5t-57 24.5q-13 0 -24 -5q22 83 22 137q0 44 -19.5 71.5t-60.5 27.5q-17 0 -45 -5q3 22 5 44t2 43q0 54 -16.5 93t-53.5 39t-70.5 -24t-60 -57.5t-43.5 -61.5q-106 299 -262.5 442t-378.5 143
q-123 0 -241 -51t-213 -137.5t-151 -193.5t-56 -219q0 -167 129 -305l121 117l116 -105l143 117l-22 96l-120 -110l-108 105l-123 -97q-28 43 -42 89t-14 93q0 96 50 189t134 168.5t187.5 120.5t209.5 45q146 0 259.5 -67.5t202 -211t158.5 -369.5q42 64 75 109.5t57 70
t39 24.5q11 0 13 -12t2 -29q0 -49 -5 -96.5t-12 -78.5q22 4 41 7t37 3q31 0 43.5 -18t12.5 -49q0 -19 -3.5 -59.5t-10 -82t-15.5 -62.5q22 11 45 19t42 8q22 0 22 -21q0 -84 -43.5 -150.5t-120.5 -104.5t-178 -38q-169 0 -259 117.5t-104 366.5l-80 -5q16 -281 129 -419
t314 -138z" />
</svg>