<?xml version="1.0" standalone="no"?>
<!DOCTYPE svg PUBLIC "-//W3C//DTD SVG 1.1//EN" "http://www.w3.org/Graphics/SVG/1.1/DTD/svg11.dtd">
<svg xmlns="http://www.w3.org/2000/svg" xmlns:xlink="http://www.w3.org/1999/xlink" version="1.1"
   viewBox="94 -151 2414 2169">
   <path fill="currentColor"
      d="M1301 1978q-297 0 -467.5 -92.5t-187.5 -249.5q-7 -69 -12 -146.5t-7.5 -180t-3.5 -246.5t-1 -345h80q0 199 1 342.5t3.5 247t7 180t12.5 142.5q14 121 166 194.5t409 73.5q203 0 350.5 -37t227.5 -99.5t80 -139.5q0 -26 -8.5 -50.5t-21.5 -50.5q-15 -31 -26.5 -66.5
t-11.5 -79.5v-657h80v657q0 43 11.5 76t25.5 63q13 26 22 52t9 56q0 101 -88 182t-253.5 127.5t-396.5 46.5zM458 1275q-91 0 -160 -44.5t-80 -127.5q33 -3 49 -22.5t26 -48t23 -58t39 -51.5l-7 144l313 -164v317q-42 25 -96.5 40t-106.5 15zM333 1096l7 -171l-130 -74
l172 -82v28q-34 -36 -47.5 -65t-13.5 -64q0 -40 15.5 -76.5t43.5 -67.5q33 -38 80 -61t107 -23v59q-49 0 -83.5 18t-60.5 47q-20 23 -31.5 49t-11.5 55q0 28 15.5 53.5t54.5 64.5l-132 68l73 43l-5 117l275 -147l28 47zM1300 1315q-84 0 -155 -33t-125 -99l51 -44
q46 56 102.5 82t126.5 26q71 0 127.5 -26t101.5 -82l52 44q-55 66 -126 99t-155 33zM1040 1003q-38 0 -63.5 -28t-25.5 -68t25.5 -68.5t63.5 -28.5t63 28.5t25 68.5t-25 68t-63 28zM1562 1003q-38 0 -63.5 -28t-25.5 -68t25.5 -68.5t63.5 -28.5t63 28.5t25 68.5t-25 68
t-63 28zM636 913q-36 -54 -58.5 -125t-33 -141t-10.5 -119q0 -122 55.5 -234t157 -200t242 -139.5t310.5 -51.5t310.5 51.5t242 139.5t157 200t55.5 234q0 49 -10 119t-32.5 141t-59.5 125q-52 0 -89.5 -42t-60 -104.5t-29.5 -123.5l-35 24q-23 16 -45 26t-43 10t-42 -9.5
t-46 -26.5l-34 -24l-35 24q-23 16 -45 26t-42 10q-21 0 -43.5 -8.5t-45.5 -27.5l-28 -24l-28 24q-23 19 -45.5 27.5t-42.5 8.5t-42 -10t-46 -26l-34 -24l-34 24q-25 17 -46 26.5t-43 9.5q-20 0 -42 -10t-45 -26l-35 -24q-7 61 -29.5 123.5t-60 104.5t-90.5 42zM2142 1275
q-52 0 -106.5 -15t-96.5 -40v-317l312 164l-6 -144q26 22 39 51.5t23 58t26 48t49 22.5q-11 83 -80 127.5t-160 44.5zM2267 1096l-357 -182l28 -47l275 147l-4 -117l73 -43l-132 -68q39 -39 54 -64.5t15 -53.5q0 -29 -11.5 -54.5t-31.5 -49.5q-25 -29 -60 -47t-83 -18v-59
q60 0 106.5 23t79.5 61q28 31 43.5 67.5t15.5 76.5q0 35 -13.5 64t-47.5 65v-28l173 82l-131 74z" />
</svg>