<?xml version="1.0" standalone="no"?>
<!DOCTYPE svg PUBLIC "-//W3C//DTD SVG 1.1//EN" "http://www.w3.org/Graphics/SVG/1.1/DTD/svg11.dtd">
<svg xmlns="http://www.w3.org/2000/svg" xmlns:xlink="http://www.w3.org/1999/xlink" version="1.1"
   viewBox="94 -151 2414 2169">
   <path fill="currentColor"
      d="M1611 1978l-225 -168l-170 149h-50l-183 -225l-162 151h-64q-27 -77 -39.5 -168.5t-12.5 -201.5q0 -26 1.5 -52t2.5 -51q-64 -12 -110.5 -64.5t-46.5 -146.5q0 -54 9 -94t28 -81l190 -30q160 0 274 -35t175 -97t61 -143q0 -93 -62.5 -143.5t-150.5 -50.5q-57 0 -113 22.5
t-101.5 60.5t-72.5 86q-115 -44 -169 -116t-54 -154q0 -91 59 -144t157 -63q84 -9 113.5 -34t37.5 -67q20 -104 78.5 -140t119.5 -36q64 0 101.5 23.5t65 47t58.5 23.5q29 0 49 -21t43 -48t57.5 -48t91.5 -21q91 0 153.5 62t62.5 173q0 85 -41.5 154t-131.5 140
q296 169 465 491.5t235 813.5l-40 38l-202 -51l-82 182l-55 10l-164 -119l-139 181zM260 1054q0 -105 59 -198t177 -155.5t295 -73.5q38 46 52.5 94.5t14.5 119.5q0 106 -25 159.5t-81 53.5h-492zM341 979h419q10 -31 14.5 -64.5t4.5 -73.5t-4.5 -73.5t-14.5 -64.5
q-101 0 -191.5 37.5t-151.5 100t-76 138.5zM1244 1316q-12 -54 -25 -99.5t-27 -88.5l70 -22q17 44 30.5 91.5t25.5 102.5zM1571 1434q-30 -100 -70 -181l67 -32q20 38 37.5 82.5t37.5 107.5zM1626 1901l158 -207l188 136l85 -198l198 50q-33 -278 -119.5 -510t-214.5 -402
t-287 -263t-336 -93q-52 0 -107.5 9t-83.5 24q69 2 127.5 38t94 96.5t35.5 139.5q0 90 -52.5 154t-134 104t-168.5 59q2 17 4 38.5t2 41.5q0 73 -22.5 138t-73 107.5t-135.5 50.5q-2 28 -3.5 56t-1.5 57q0 85 6 152t19 123l179 -171l215 249l189 -165zM1826 1252
q-18 -41 -38.5 -82t-49.5 -95l65 -34q26 45 48 88.5t43 93.5zM1581 978q-25 -49 -50 -90t-53 -81l64 -40q29 41 54.5 84t50.5 93zM1042 818q-34 0 -55.5 -21.5t-21.5 -55.5t21.5 -55.5t55.5 -21.5t55.5 21.5t21.5 55.5t-21.5 55.5t-55.5 21.5z" />
</svg>