<?xml version="1.0" standalone="no"?>
<!DOCTYPE svg PUBLIC "-//W3C//DTD SVG 1.1//EN" "http://www.w3.org/Graphics/SVG/1.1/DTD/svg11.dtd">
<svg xmlns="http://www.w3.org/2000/svg" xmlns:xlink="http://www.w3.org/1999/xlink" version="1.1"
   viewBox="94 -151 2414 2169">
   <path fill="currentColor"
      d="M1300 1978q-181 0 -300 -63t-142 -171q-68 -62 -68 -154q0 -51 27.5 -96t87.5 -94h790q60 49 87.5 94t27.5 96q0 92 -68 154q-22 108 -141 171t-301 63zM1300 1898q166 0 265 -54t104 -147q32 -18 46.5 -47t14.5 -60q0 -26 -16 -55.5t-45 -54.5h-738q-28 25 -44.5 54.5
t-16.5 55.5q0 31 14.5 60t46.5 47q5 93 104 147t265 54zM875 1740v-80h850v80h-850zM904 1464v-1052h80v1052h-80zM1102 1475l551 -387v228l-235 159h-316zM947 1314v-271l706 -481v263zM947 781v-235l179 -102h320zM1616 1464v-1052h80v1052h-80zM910 476
q-64 -50 -92 -94.5t-28 -95.5q0 -92 68 -154q23 -108 142 -171t300 -63q182 0 301 63t141 171q68 62 68 154q0 51 -27.5 95.5t-87.5 94.5h-785zM936 396h733q29 -26 45 -55t16 -55q0 -31 -14.5 -60t-46.5 -47q-5 -93 -104 -147t-265 -54t-265 54t-104 147q-32 18 -46.5 47
t-14.5 60q0 26 17 55t49 55zM866 248l-10 -80q110 -15 221 -23t223 -8t223 8t221 23l-10 80q-108 -15 -216.5 -23t-217.5 -8t-217.5 8t-216.5 23z" />
</svg>