<?xml version="1.0" standalone="no"?>
<!DOCTYPE svg PUBLIC "-//W3C//DTD SVG 1.1//EN" "http://www.w3.org/Graphics/SVG/1.1/DTD/svg11.dtd">
<svg xmlns="http://www.w3.org/2000/svg" xmlns:xlink="http://www.w3.org/1999/xlink" version="1.1"
   viewBox="94 -151 2414 2169">
   <path fill="currentColor"
      d="M436 1978q-13 -41 -19.5 -78t-6.5 -62q0 -111 91.5 -198.5t247.5 -143t351 -67.5l3 35q-137 -52 -239.5 -167t-159 -276t-56.5 -349q0 -227 81 -401.5t228 -273.5t343 -99q197 0 343.5 99t227.5 273.5t81 401.5q0 188 -56.5 349t-158.5 276t-239 167l2 -35
q196 12 352 67.5t247 143t91 198.5q0 25 -5.5 62t-19.5 78h-1729zM492 1898h1616q4 -13 5.5 -29t1.5 -31q0 -89 -86.5 -162.5t-242 -120.5t-361.5 -59v-85q139 -45 239 -149t154 -255t54 -335q0 -211 -70.5 -367t-199 -241.5t-302.5 -85.5q-173 0 -302 85.5t-199.5 241.5
t-70.5 367q0 184 54 335t154.5 255t238.5 149v85q-205 12 -360.5 59t-242.5 120.5t-87 162.5q0 15 2 31t5 29z" />
</svg>