<?xml version="1.0" standalone="no"?>
<!DOCTYPE svg PUBLIC "-//W3C//DTD SVG 1.1//EN" "http://www.w3.org/Graphics/SVG/1.1/DTD/svg11.dtd">
<svg xmlns="http://www.w3.org/2000/svg" xmlns:xlink="http://www.w3.org/1999/xlink" version="1.1"
   viewBox="94 -151 2414 2169">
   <path fill="currentColor"
      d="M1483 1978q-64 0 -94 -31t-30 -76q0 -17 2 -47.5t4.5 -64.5t2.5 -61q0 -70 -15 -185t-56 -269q0 49 -13.5 109t-27.5 123.5t-14 123.5q0 21 1.5 66.5t2.5 87.5t1 53q0 49 -28.5 71t-100.5 22q-36 0 -61.5 -10.5t-25.5 -43.5q0 -22 5 -66.5t10 -92t5 -78.5
q0 -100 -23.5 -179.5t-59.5 -145.5t-74 -126.5t-67 -122t-38 -131.5l-415 -156q-24 12 -50.5 14.5t-48.5 2.5q-51 0 -103 -38t-87 -90t-35 -94q0 -35 18.5 -66t55.5 -55q42 -27 73.5 -50.5t60.5 -49.5t61 -61q127 -137 232.5 -205t189.5 -68q66 0 108 14.5t82 52.5
q58 -33 114.5 -48t126.5 -15q47 0 74.5 23t27.5 65q0 53 -41.5 117t-97.5 105q20 5 42.5 8t45.5 3h873q109 0 197 32t139.5 99t51.5 171q0 22 -1.5 64t-3 92t-1.5 97q0 62 2 109t6 95q15 10 29.5 42.5t24.5 71.5t10 72q0 34 -5 73t-12.5 66.5t-17.5 27.5q-13 0 -28 -23.5
t-29 -39.5q-46 -56 -59.5 -85t-13.5 -64q0 -50 7.5 -79.5t17.5 -40.5q-1 -8 -4 -31t-6 -50.5t-5 -49.5q-64 146 -103.5 259t-57 207t-17.5 186q0 133 -42 204t-154 71q-54 0 -90 -26.5t-36 -71.5q-10 1 -21.5 2t-20.5 1q-52 0 -85.5 -30.5t-33.5 -76.5q0 -27 2 -71t2 -74
q0 -15 -3 -50.5t-6 -77t-3 -74.5h46q0 36 18 94.5t18 107.5q0 39 -2.5 71t-2.5 57q0 20 15 35t46 15q46 0 57.5 -56t11.5 -153q0 -62 -7.5 -128.5t-15.5 -121.5q-43 16 -108 24t-104 8q-16 57 -32.5 110.5t-36.5 100.5q0 97 12.5 187.5t12.5 142.5q0 72 -46 108t-125 36z
M349 733l-165 -19l-112 -153l81 -131l176 -118q47 50 68 119.5t21 128.5q0 57 -17.5 107.5t-51.5 65.5zM251 566q26 0 45.5 -19.5t19.5 -44.5q0 -17 -13.5 -22t-51.5 -5t-51.5 5t-13.5 22q0 25 19.5 44.5t45.5 19.5zM1489 1898q44 0 68.5 -16t24.5 -48q0 -22 -6.5 -77
t-13 -127.5t-6.5 -144.5q26 -62 48.5 -124.5t43.5 -144.5q44 0 99 -5t106.5 -15.5t83.5 -24.5q22 52 35.5 119t20 131.5t6.5 110.5q0 54 -10 100.5t-20 81t-10 51.5q0 20 19 32t43 12q73 0 94.5 -46t21.5 -149q0 -91 19.5 -188.5t61.5 -218.5t111 -280q-63 -46 -85 -90
t-22 -102q0 -61 30 -132.5t83 -138.5q-25 -26 -68 -42t-90.5 -23.5t-86.5 -7.5q-29 40 -48 85.5t-19 91.5q0 167 -50 258t-142 91q-57 0 -127 -32.5t-140 -88t-129.5 -124t-97.5 -141t-43 -138.5h-71q-26 0 -52.5 -7.5t-48.5 -17.5q26 47 41 83t15 50q0 22 -20 55.5
t-49.5 67.5t-59 57t-49.5 23q-15 0 -46 -13t-65.5 -32t-62.5 -39t-39 -34q-6 -9 -12.5 -45t-10.5 -81.5t-4 -82.5q0 -67 17 -126.5t47.5 -97t70.5 -37.5q-20 -20 -55.5 -34t-88.5 -14q-49 0 -99.5 21.5t-117 75t-165.5 149.5l-99 96q-76 24 -108 65.5t-32 67.5
q0 29 24.5 62.5t58.5 56.5t62 23q20 0 46 -5t42 -21l483 182q8 33 22.5 72t25.5 65q131 0 229 36t165.5 111t105.5 192q25 76 37 171t12 210q0 31 -5.5 79t-5.5 75t13 36.5t44 9.5zM621 385q-25 0 -44 -20.5t-19 -48.5q-22 0 -29.5 -23t-7.5 -35l100 -10q26 1 44.5 20.5
t18.5 47.5t-18.5 48.5t-44.5 20.5zM1829 1525q-16 0 -30 -29t-14 -63q-50 -18 -84 -47.5t-57 -62.5l32 -68l252 -44l38 146q0 76 -7.5 113t-27.5 37q-15 0 -33 -23t-27 -54q0 35 -11.5 65t-30.5 30zM1449 1120q-43 0 -80 -39t-37 -94q0 -27 10 -57.5t27.5 -51.5t39.5 -21
q25 0 48.5 24t45.5 52q17 22 38 35.5t21 43.5q0 38 -36 73t-77 35zM546 92q22 -33 38 -61t26 -50q37 -83 62 -83q30 0 30 55q0 54 -24 99zM967 291q26 0 59.5 -19.5t64.5 -49.5t51.5 -62.5t20.5 -58.5q-65 0 -123 20t-94.5 52t-36.5 67q0 22 16.5 36.5t41.5 14.5zM921 83
l-136 -61q14 -26 44 -39q25 -37 51.5 -61t41.5 -24q14 0 20.5 18.5t6.5 47.5t-7 61t-21 58zM2075 1127q-31 0 -57.5 -26.5t-26.5 -54.5q0 -23 16 -34t32 -31q13 -17 30 -34t37 -17q25 0 41 33.5t16 63.5q0 42 -27.5 71t-60.5 29z" />
</svg>