<?xml version="1.0" standalone="no"?>
<!DOCTYPE svg PUBLIC "-//W3C//DTD SVG 1.1//EN" "http://www.w3.org/Graphics/SVG/1.1/DTD/svg11.dtd">
<svg xmlns="http://www.w3.org/2000/svg" xmlns:xlink="http://www.w3.org/1999/xlink" version="1.1"
   viewBox="94 -151 2414 2169">
   <path fill="currentColor"
      d="M968 1978q-225 0 -364 -81.5t-202.5 -265t-63.5 -489.5q-86 -2 -137 -46.5t-51 -114.5q0 -57 34.5 -97.5t97.5 -61.5q52 -17 80 -48t50 -68t53 -73l-33 -509q-6 -98 51.5 -162t150.5 -64q46 0 82 19.5t58 54.5q30 -38 68.5 -56t87.5 -18q95 0 142.5 67t36.5 165l-60 515
q20 25 40.5 54.5t39.5 67.5q20 37 41 55.5t56 27.5q56 14 89.5 44t33.5 88q0 46 -28.5 84t-73.5 60.5t-94 22.5h-16.5t-16.5 -1q7 144 31 226.5t69.5 116.5t114.5 34q130 0 224 -10.5t160 -42t110 -93.5q23 -33 35 -74.5t26.5 -93t45.5 -114.5q0 -62 72.5 -107t194.5 -45
q100 0 173.5 37.5t73.5 107.5q0 42 -28.5 85.5t-63.5 72.5q-49 40 -68.5 71t-36 61t-59.5 67q-23 20 -59.5 36t-69 27.5t-43.5 18.5q-24 15 -49 52.5t-59.5 78.5t-90.5 68q-71 34 -134.5 47.5t-118.5 38.5q-136 61 -234.5 97t-184 51.5t-183.5 15.5zM813 1039q-49 0 -85 -39
q-33 30 -77 30q-31 0 -60 -16.5t-46 -44.5l50 -32q15 19 28.5 26t31.5 7q41 0 79 -38q36 47 75 47q17 0 29.5 -5t28.5 -21l35 39q-17 20 -40 33.5t-49 13.5zM968 1898q66 0 124.5 -7t121.5 -24.5t141 -48t182 -77.5q49 -22 86.5 -32t76 -20t89.5 -33q47 -21 80 -59.5
t60.5 -77t56.5 -60.5q16 -12 45.5 -22t60.5 -22t49 -28q36 -32 52 -60.5t38.5 -62t75.5 -78.5q26 -23 44.5 -50t18.5 -46q0 -27 -46.5 -46t-120.5 -19q-26 0 -59 4t-54 10q-70 220 -181.5 347t-256.5 180t-317 53q-104 0 -169 -60t-94.5 -185.5t-29.5 -320.5q17 9 42.5 14
t68.5 5q45 0 80.5 -28.5t35.5 -61.5q0 -29 -21.5 -45t-55 -31t-71 -40.5t-69.5 -74.5l-80 -121l58 -550q5 -43 -4.5 -75.5t-33 -50.5t-62.5 -18q-38 0 -63.5 13.5t-38 39t-13.5 62.5l-15 519q-16 -2 -32 -2.5t-32 -0.5l-1 -517q0 -56 -25.5 -85t-75.5 -29q-43 0 -71 18
t-40.5 50t-10.5 75l35 546q-32 31 -51.5 64.5t-40.5 66t-56.5 59.5t-100.5 46q-68 20 -68 81q0 39 28.5 61t80.5 22q38 0 83 -8q-1 22 -2.5 44t-1.5 44q0 282 52.5 446.5t173.5 235.5t324 71zM629 202q-37 0 -37 -67t37 -67t37 67t-37 67zM1742 1393v-78
q-107 0 -190.5 -53.5t-131.5 -146t-48 -210.5q0 -101 34.5 -179.5t95 -123.5t137.5 -45q110 0 181 81t71 206q0 89 -38 152t-100 63q-46 0 -79 -41t-33 -90q0 -32 13.5 -68.5t35.5 -56.5l-55 -60q-33 33 -53.5 83.5t-20.5 101.5q0 87 57.5 148t138.5 61q94 0 154 -82.5
t60 -210.5q0 -107 -43.5 -189.5t-118.5 -129t-170 -46.5q-100 0 -178.5 54t-123.5 150t-45 222q0 142 59 252.5t161 173t230 62.5zM1365 1579l-229 -104l-71 -383l110 4l97 -24l5 -133l-163 -103l-113 -192l53 -404q35 -31 126 -57.5t199 -26.5q156 0 291 59.5t236.5 164
t158.5 241.5t57 292q0 45 -28 116t-73 150t-96 149.5t-97 115.5l-110 56zM919 202q-37 0 -37 -67t37 -67t37 67t-37 67zM1248 348q18 0 53 -10t78 -10q35 0 57 5t36 5q17 0 28.5 -11t11.5 -28q0 -51 -133 -51q-81 0 -126 17.5t-45 46.5q0 15 12 25.5t28 10.5z" />
</svg>