<?xml version="1.0" standalone="no"?>
<!DOCTYPE svg PUBLIC "-//W3C//DTD SVG 1.1//EN" "http://www.w3.org/Graphics/SVG/1.1/DTD/svg11.dtd">
<svg xmlns="http://www.w3.org/2000/svg" xmlns:xlink="http://www.w3.org/1999/xlink" version="1.1"
   viewBox="94 -151 2414 2169">
   <path fill="currentColor"
      d="M1300 1928q-115 0 -202 -29.5t-153 -71.5t-118.5 -82t-98.5 -61l-214 -98q-128 -59 -191 -169t-63 -275q0 -134 41 -280t119 -288q-41 -62 -63 -131.5t-22 -139.5q0 -105 45 -185t125 -125t185 -45q71 0 135.5 21t109.5 59q71 -22 172 -35.5t193 -13.5t193 13.5t172 35.5
q45 -38 109.5 -59t135.5 -21q106 0 185.5 45t124.5 125t45 185q0 70 -22 139.5t-63 131.5q78 142 119 288t41 280q0 165 -63 275t-191 169l-214 98q-46 21 -98.5 61t-118.5 82t-153 71.5t-202 29.5zM637 1287q-50 0 -96.5 -32.5t-76 -84.5t-29.5 -111q0 -49 26 -49q6 0 15 8
t28.5 35t58.5 83q20 28 47.5 50t49 40.5t21.5 36.5q0 24 -44 24zM642 1095q-27 0 -50 -37.5t-33 -74.5q-39 -33 -69.5 -73t-48 -81.5t-17.5 -76.5q0 -36 12 -78.5t33 -73t46 -30.5q9 0 15 8t6 19q0 16 -12 47t-12 65q0 27 10 55t29.5 52.5t45.5 43.5q22 -38 45 -38
q22 0 22 21q0 15 -16 43t-16 69q0 35 15 74.5t15 45.5q0 20 -20 20zM936 1424q-61 -21 -108.5 -66.5t-74.5 -106.5t-27 -128q0 -81 40.5 -147.5t111.5 -106t162 -39.5v80q-104 0 -169 62t-65 151q0 44 16.5 86.5t46 76t67.5 52.5v86zM1300 1587l-161 -53q24 -65 24 -121
t-24 -112l161 -108l161 108q-24 56 -24 112t24 121zM1300 1533q107 0 197.5 -43.5t148.5 -114.5q-123 -10 -215.5 -45t-130.5 -91q-39 56 -131 91t-215 45q59 71 149 114.5t197 43.5zM1300 1613q-158 0 -273.5 -69t-186.5 -199l34 -44q118 -3 204.5 -27t134 -61t47.5 -77
v-235h80v235q0 40 47.5 77t134 61t204.5 27l34 44q-71 130 -186.5 199t-273.5 69zM701 625q-41 0 -68.5 -27t-27.5 -71q0 -38 21.5 -67.5t49.5 -29.5q11 0 16.5 7.5t5.5 16.5q0 13 -9 29t-9 33q0 22 16.5 31l33 18t16.5 31q0 29 -45 29zM901 665q-41 0 -69.5 -29t-28.5 -70
t28.5 -69.5t69.5 -28.5t69.5 28.5t28.5 69.5t-28.5 70t-69.5 29zM1300 1848q107 0 181.5 -25.5t131.5 -63.5t109.5 -78t115.5 -69l214 -98q107 -49 157.5 -139.5t50.5 -232.5q0 -135 -44.5 -281t-130.5 -291q100 -124 100 -267q0 -125 -75 -200t-200 -75q-73 0 -133.5 25
t-89.5 68q-38 -18 -103 -32t-139.5 -22t-144.5 -8q-69 0 -144 8t-139.5 22t-103.5 32q-29 -43 -89.5 -68t-133.5 -25q-124 0 -199.5 75t-75.5 200q0 143 100 267q-86 145 -130.5 291t-44.5 281q0 142 50.5 232.5t157.5 139.5l214 98q63 29 115.5 69t109.5 78t131.5 63.5
t181.5 25.5zM563 418q-16 -11 -28.5 -46.5t-12.5 -70.5q0 -46 25 -85t65.5 -63.5t86.5 -24.5q72 0 119 56q-46 27 -95 67t-91.5 84t-68.5 83zM1300 1008q-76 0 -152 -30t-126 -74.5t-50 -89.5q0 -47 66 -47q32 0 78 9.5t95 19.5t89 10q41 0 89.5 -10t94.5 -19.5t78 -9.5
q66 0 66 47q0 45 -50 89.5t-125.5 74.5t-152.5 30zM1664 1424v-86q39 -19 68 -52.5t45.5 -76t16.5 -86.5q0 -89 -65 -151t-169 -62v-80q92 0 162.5 39.5t111 106t40.5 147.5q0 67 -27 128t-74.5 106.5t-108.5 66.5zM1963 1287q-44 0 -44 -24q0 -18 21 -36.5t49 -40.5t48 -50
q40 -56 59.5 -82.5t28 -35t14.5 -8.5q26 0 26 49q0 59 -29.5 111t-75.5 84.5t-97 32.5zM1163 410q-37 0 -61.5 -14.5t-24.5 -39.5q0 -17 13.5 -28.5t48.5 -20.5l36 -9q31 -8 54 -28t40.5 -37.5t30.5 -17.5t30.5 17.5t41 37.5t53.5 28l36 9q35 9 48.5 20.5t13.5 28.5
q0 25 -24 39.5t-62 14.5q-42 0 -70.5 -20.5t-44.5 -40.5t-22 -20q-5 0 -21.5 20t-45 40.5t-70.5 20.5zM1699 665q-41 0 -69.5 -29t-28.5 -70t28.5 -69.5t69.5 -28.5t69.5 28.5t28.5 69.5t-28.5 70t-69.5 29zM1080 250q-75 0 -75 -53q0 -44 48 -53q94 -18 126.5 -54.5
t32.5 -67.5h176q0 31 32.5 67.5t126.5 54.5q48 9 48 53q0 53 -75 53q-51 0 -88.5 -18.5t-63.5 -43t-42.5 -43t-25.5 -18.5t-25.5 18.5t-42.5 43t-63.5 43t-88.5 18.5zM1958 1095q-20 0 -20 -20q0 -6 15 -45.5t15 -74.5q0 -41 -16 -69t-16 -43q0 -21 22 -21q23 0 45 38
q27 -19 46 -43.5t29 -52.5t10 -55q0 -34 -12 -65t-12 -47q0 -11 6 -19t15 -8q26 0 46.5 30.5t32.5 73t12 78.5q0 35 -17.5 76.5t-47.5 81.5t-70 73q-10 37 -33 74.5t-50 37.5zM1899 625q-45 0 -45 -29q0 -22 16.5 -31l33 -18t16.5 -31q0 -17 -9 -33t-9 -29q0 -9 6 -16.5
t16 -7.5q29 0 50 29.5t21 67.5q0 44 -27.5 71t-68.5 27zM2037 418q-26 -39 -68.5 -83t-91.5 -84t-95 -67q47 -56 119 -56q47 0 87 24.5t65 63.5t25 85q0 35 -12 70.5t-29 46.5z" />
</svg>