<?xml version="1.0" standalone="no"?>
<!DOCTYPE svg PUBLIC "-//W3C//DTD SVG 1.1//EN" "http://www.w3.org/Graphics/SVG/1.1/DTD/svg11.dtd">
<svg xmlns="http://www.w3.org/2000/svg" xmlns:xlink="http://www.w3.org/1999/xlink" version="1.1"
   viewBox="94 -151 2414 2169">
   <path fill="currentColor"
      d="M1275 1632q-61 0 -161 -17.5t-207 -46.5t-191 -61q-56 -22 -75 -80q-74 -229 -115 -463.5t-41 -499.5q0 -98 3 -195.5t19 -210.5q8 -55 42.5 -89t97.5 -39q164 -14 329.5 -23t296.5 -9q59 0 88.5 20.5t46.5 52.5q29 54 44 108.5t15 104.5q0 47 -14.5 91.5t-41.5 91.5
l24 198q68 108 102.5 198.5t34.5 198.5q99 0 183 12.5t183 38.5q43 11 67.5 41t35 93t10.5 173q0 36 -15 61.5t-60 45.5q-78 35 -180.5 71t-206.5 66.5t-188 49t-126 18.5zM1256 1978q-9 0 -14 -1l-511 -91q-46 -9 -46 -45v-8q0 -45 132 -45q80 0 164.5 14.5t156 37.5
t115.5 49.5t44 49.5v8q0 12 -12 21.5t-29 9.5zM912 1850v-298h100v298h-100zM1338 1568q0 -99 -18 -155t-62.5 -83t-124.5 -37l-413 -51l9 -69l413 51q148 18 207 94.5t59 249.5h-70zM2018 1724l-375 -67q-36 -7 -38 -53l-3 -76l173 -47q0 63 62.5 89.5t194.5 47.5
q48 8 48 51v8q0 25 -18.5 38t-43.5 9zM801 981l-80 -10q8 -46 12 -93t4 -91q0 -98 -12.5 -183.5t-29.5 -142.5q36 -117 36 -222q0 -65 -13.5 -131t-40.5 -139l76 -30q29 81 43.5 153.5t14.5 145.5q0 100 -34 215q17 58 28.5 146.5t11.5 189.5q0 47 -4 96t-12 96zM1198 1110
l-67 -57l448 -77l74 58zM1289 1555q61 -11 147 -33t179.5 -50t181 -58.5t151.5 -58.5q11 -5 17.5 -16t6.5 -24q0 -89 -6.5 -135.5t-21 -66.5t-39.5 -26q-65 -17 -168 -36t-197 -19l-28 -38q0 -66 -21 -131.5t-56 -132.5t-76 -136l-32 -267q35 -26 51 -59.5t16 -80.5
q0 -46 -19.5 -96t-42.5 -97q-7 -14 -22 -18t-35 -4q-155 2 -311 10.5t-311 21.5q-64 6 -71 62q-10 82 -13.5 187t-3.5 211q0 95 6.5 195.5t22.5 255.5q141 10 295.5 31t299.5 55q82 19 82 82q0 27 -18.5 44.5t-50.5 16.5l-474 -27l17 101q11 65 66.5 93.5t182.5 38.5
q93 7 149.5 25.5t84 59.5t33.5 117zM717 461l8 -79l645 -62l8 78zM1699 1029l-152 -15l-37 -274q162 0 296.5 11t243.5 34q33 7 49 25t16 39q0 26 -22.5 47t-64.5 20l-285 -11q-35 -2 -49 17t-14 45q0 36 19 62z" />
</svg>