<?xml version="1.0" standalone="no"?>
<!DOCTYPE svg PUBLIC "-//W3C//DTD SVG 1.1//EN" "http://www.w3.org/Graphics/SVG/1.1/DTD/svg11.dtd">
<svg xmlns="http://www.w3.org/2000/svg" xmlns:xlink="http://www.w3.org/1999/xlink" version="1.1"
   viewBox="94 -151 2414 2169">
   <path fill="currentColor"
      d="M788 1978q-55 0 -91.5 -38t-36.5 -96v-166l26 53q-55 -14 -85 -57t-30 -115v-1482q0 -91 47 -135t131 -44h1059q63 0 100.5 21t57.5 68h91q58 0 96 36.5t38 91.5v1658q0 105 -53 155t-151 50h-1199zM704 1758q-151 -15 -223 -72t-72 -142q0 -87 74.5 -143t184.5 -56
q59 0 107 17l-22 67q-19 -5 -40.5 -9.5t-44.5 -4.5q-78 0 -133.5 36.5t-55.5 93.5q0 36 42 78t148 47zM580 1432q-86 -26 -128.5 -73.5t-42.5 -114.5q0 -87 74.5 -143t184.5 -56q59 0 107 17l-22 67q-19 -5 -40.5 -9.5t-44.5 -4.5q-78 0 -133.5 36.5t-55.5 93.5
q0 34 25.5 63.5t75.5 37.5v86zM788 1469q-31 0 -52.5 -22t-21.5 -53t22 -53t52 -22q32 0 53.5 22t21.5 53t-21.5 53t-53.5 22zM580 1132q-86 -26 -128.5 -73.5t-42.5 -114.5q0 -87 74.5 -143t184.5 -56q59 0 107 17l-22 67q-19 -5 -40.5 -9.5t-44.5 -4.5q-78 0 -133.5 36.5
t-55.5 93.5q0 34 25.5 63.5t75.5 37.5v86zM788 1169q-31 0 -52.5 -22t-21.5 -53t22 -53t52 -22q32 0 53.5 22t21.5 53t-21.5 53t-53.5 22zM580 832q-86 -26 -128.5 -73.5t-42.5 -114.5q0 -87 74.5 -143t184.5 -56q59 0 107 17l-22 67q-19 -5 -40.5 -9.5t-44.5 -4.5
q-78 0 -133.5 36.5t-55.5 93.5q0 34 25.5 63.5t75.5 37.5v86zM788 869q-31 0 -52.5 -22t-21.5 -53t22 -53t52 -22q32 0 53.5 22t21.5 53t-21.5 53t-53.5 22zM580 532q-86 -26 -128.5 -73.5t-42.5 -114.5q0 -87 74.5 -143t184.5 -56q59 0 107 17l-22 67q-19 -5 -40.5 -9.5
t-44.5 -4.5q-78 0 -133.5 36.5t-55.5 93.5q0 34 25.5 63.5t75.5 37.5v86zM788 569q-31 0 -52.5 -22t-21.5 -53t22 -53t52 -22q32 0 53.5 22t21.5 53t-21.5 53t-53.5 22zM2118 1878q-51 -11 -97 -39.5t-75.5 -81t-31.5 -134.5l76 -84q0 98 21.5 151t56 75t73.5 29zM817 1898
h1170q124 0 124 -123v-1651q-22 -4 -57.5 -20.5t-64.5 -35.5q2 7 2 16.5v22.5v1426q0 105 -53 155t-151 50h-1064q36 81 94 160zM761 1658h1026q124 0 124 -123v-1449q0 -108 -109 -108h-1041q-109 0 -109 108v1464q0 108 109 108zM788 269q-31 0 -52.5 -22t-21.5 -53
t22 -53t52 -22q32 0 53.5 22t21.5 53t-21.5 53t-53.5 22z" />
</svg>