<?xml version="1.0" standalone="no"?>
<!DOCTYPE svg PUBLIC "-//W3C//DTD SVG 1.1//EN" "http://www.w3.org/Graphics/SVG/1.1/DTD/svg11.dtd">
<svg xmlns="http://www.w3.org/2000/svg" xmlns:xlink="http://www.w3.org/1999/xlink" version="1.1"
   viewBox="94 -151 2414 2169">
   <path fill="currentColor"
      d="M1297 1978q-40 0 -84 -7.5t-74 -19t-30 -23.5q0 -24 21.5 -61.5t56 -74.5t72.5 -58q0 -41 43 -84.5t104 -54.5l49 -48q0 -50 23.5 -92t84.5 -84q11 -41 13.5 -80t2.5 -76q0 -20 1 -40.5t2 -48.5q-113 106 -227.5 154.5t-254.5 54.5q-91 79 -166.5 134t-128.5 85l22 37
q14 -6 44 -10.5t41 -4.5q37 0 72.5 28t58.5 73t23 98q0 55 -53.5 69t-128.5 14q-112 0 -195 -46.5t-104 -167.5q-5 -30 -26 -65t-21 -89q0 -42 23.5 -82.5t69.5 -88.5l96 -99q-61 -41 -96 -101.5t-35 -139.5q0 -120 77 -212l-14 -80q-23 12 -48.5 19.5t-50.5 10.5l-52 59
q0 64 -56 111.5t-133 47.5q-93 0 -153.5 -65.5t-60.5 -164.5q0 -55 29 -121.5t73 -115.5v-100q97 -20 171 -72.5t98 -147.5q-5 -18 -7.5 -34t-2.5 -30q0 -36 19.5 -79.5t46 -75t47.5 -31.5t48 33.5t46.5 80t19.5 85.5v1q133 55 243 145t202 218q82 26 150 94q20 2 38 3.5
t35 1.5q64 0 114.5 -16.5t100.5 -33t112 -16.5q122 0 224.5 59.5t164 162t61.5 233.5q0 107 -42.5 214t-152.5 196q-34 27 -73 60t-65 61q0 49 -10.5 85.5t-36.5 70.5t-72.5 74.5t-117.5 99.5q-25 20 -38 46t-52 39q0 46 -39 64.5t-142 18.5zM376 1682q-20 0 -49.5 -25
t-49.5 -49q-45 -32 -75.5 -80.5t-30.5 -87.5q0 -40 20.5 -86.5t66.5 -113.5q17 -24 18.5 -55t6 -61.5t28.5 -53.5q37 -35 92.5 -39.5t128.5 -10.5q10 -1 32.5 -13t70.5 -56l4 123l110 145h-236q-63 0 -100 35t-37 95v92q35 0 50 18.5t15 70.5q0 69 -18 110.5t-47 41.5z
M293 768q-16 0 -31.5 -20t-15.5 -40q0 -29 23 -29q17 0 32 20t15 40q0 29 -23 29zM1100 1665q-17 0 -22 -12t-5 -34q0 -56 12.5 -77.5t35.5 -39.5q-4 -11 -4 -30q0 -89 127 -112l38 -7q64 -12 87.5 -45.5t23.5 -85.5l205 -131v199q0 48 -28 75.5t-67.5 44.5t-76 32t-54.5 39
q-13 18 -42 30.5t-49 12.5q-22 0 -22 39q0 52 -51.5 77t-107.5 25zM471 473q-17 0 -29.5 -12.5t-12.5 -29.5t12.5 -29t29.5 -12t29 12t12 29t-12 29.5t-29 12.5zM1414 1898q11 -18 11 -46q35 -8 44.5 -31t31.5 -41q97 -77 148 -121.5t71 -72.5q17 -24 25.5 -55t8.5 -80
q35 -42 83 -88.5t83 -75.5q81 -68 109.5 -153.5t28.5 -184.5q0 -106 -49 -190.5t-132.5 -134.5t-188.5 -50q-50 0 -100 16t-105 32t-122 16q-57 0 -122 -12q-60 -68 -151 -95q-97 -138 -211 -235.5t-241 -138.5q2 -9 2.5 -18t0.5 -18q0 -47 -17.5 -81t-46.5 -62
q-25 37 -39 66.5t-14 73.5q0 32 8 59q-23 89 -86 151.5t-158 97.5v64q-45 43 -73 104.5t-28 115.5q0 62 39 103.5t96 41.5q50 0 83.5 -34t33.5 -85l87 -99q91 -2 141.5 -40.5t50.5 -111.5q0 -54 -29 -138l66 -24q16 46 24.5 86.5t8.5 75.5q0 39 -16 71.5t-43 60.5l34 183
q-39 28 -62 78t-23 100q0 66 48.5 134t106.5 100l-158 165q-34 37 -51 63.5t-17 55.5q0 38 19.5 65.5t23.5 54.5q14 94 74.5 135t194.5 41q4 -21 4 -45q0 -75 -50 -122q-15 4 -34 9t-26 5q-20 0 -36.5 -28t-40.5 -86q53 -26 102.5 -58.5t108 -80.5t139.5 -119
q114 -5 223.5 -51t200.5 -124t147 -179l59 30q-24 45 -43 108t-19 137q0 57 -4.5 116.5t-26.5 100.5q-50 37 -79 87t-29 106l-67 59q-52 3 -86.5 33t-34.5 73q-24 6 -50 25q82 20 139 110zM1220 562l-83 -65l-135 -168l-245 -179l-107 -57q39 0 69.5 -20t57.5 -46t55.5 -46
t62.5 -20q37 0 60 23.5t23 57.5t-16 61.5t-16 56.5q0 10 8 16t20 6q17 0 49 -20.5t66 -20.5t59.5 25t25.5 59q0 27 -15.5 53.5t-31 48.5t-15.5 37q0 25 33 25q15 0 38 -5t44 -5q32 0 49.5 20.5t17.5 48.5t-19.5 57t-54.5 57zM2249 1305q-60 0 -116.5 -25t-91.5 -73l73 -217
v-178q34 0 51 29.5t26 72.5t20 86t32.5 72.5t63.5 29.5q67 0 102 -17.5t61 -17.5q25 0 25 39q0 42 -31.5 88.5t-86.5 78.5t-128 32zM456 53q26 0 51 6v126l-106 135l-173 115q-50 0 -82 -13t-32 -35q0 -18 15.5 -24t34.5 -7.5t27 -5.5q9 -5 15 -20.5t13 -52.5
q21 -116 78 -170q-8 -40 -8 -72q0 -34 7.5 -58t20.5 -24q21 0 48 29t49 73q10 -1 20.5 -1.5t21.5 -0.5z" />
</svg>