<?xml version="1.0" standalone="no"?>
<!DOCTYPE svg PUBLIC "-//W3C//DTD SVG 1.1//EN" "http://www.w3.org/Graphics/SVG/1.1/DTD/svg11.dtd">
<svg xmlns="http://www.w3.org/2000/svg" xmlns:xlink="http://www.w3.org/1999/xlink" version="1.1"
   viewBox="94 -151 2414 2169">
   <path fill="currentColor"
      d="M1427 1928q-71 0 -112 -18t-76 -59q-21 -25 -28 -88.5t-7 -148.5l-353 -22q3 22 3 40q0 98 -55 144.5t-180 46.5q-65 0 -122 -19t-91.5 -56.5t-34.5 -92.5q0 -54 18 -103.5t35 -86.5q-141 -80 -217.5 -207t-76.5 -280t72 -274t197.5 -191t286.5 -70q198 0 334 107.5
t197 308.5l39 129q23 76 74.5 131t154.5 55q194 0 329 -55t218.5 -138t121.5 -169.5t38 -150.5q0 -134 -57.5 -252.5t-161 -209t-244 -142t-306.5 -51.5q-272 0 -457 116t-292 358l-97 9q119 -280 328.5 -420.5t517.5 -140.5q169 0 321.5 52t271.5 149t187.5 233t68.5 304
q0 84 -47.5 185t-144 192.5t-245 150t-350.5 58.5q-121 0 -195 -62.5t-109 -177.5l-40 -129q-55 -179 -170.5 -269.5t-284.5 -90.5q-138 0 -245.5 59t-169 161.5t-61.5 234.5q0 147 82.5 265.5t236.5 186.5q-43 87 -60.5 135.5t-17.5 89.5q0 39 47.5 63.5t120.5 24.5
q93 0 124 -25t31 -86q0 -30 -1.5 -62t-5.5 -63l514 35q0 85 3.5 144.5t9.5 106.5q23 28 50.5 41.5t82.5 13.5q97 0 143.5 -35t46.5 -89q0 -43 -8.5 -102t-28.5 -143q32 -9 92 -35t125 -61.5t111 -73.5q29 52 63 81.5t95 29.5q71 0 114.5 -28t43.5 -69q0 -32 -6.5 -80
t-15.5 -88q-13 -59 -20 -108.5t-7 -83.5q49 -49 88.5 -93.5t68 -82t43.5 -67t15 -48.5q0 -5 -2.5 -8t-10.5 -3q-27 0 -63.5 10.5t-71.5 29.5l-38 -70q44 -24 91.5 -37t84.5 -13q39 0 64.5 29t25.5 68q0 54 -58 134t-158 183q3 38 15.5 98.5t23.5 122.5t11 107q0 79 -68 128
t-170 49q-67 0 -108.5 -24t-66.5 -57q-47 31 -109 61.5t-109 47.5q13 62 18.5 111t5.5 85q0 92 -71 148t-199 56zM633 1141q-24 0 -59.5 -22t-63 -50t-27.5 -47q0 -8 6.5 -14.5t13.5 -6.5q13 0 39 20t52.5 40t38.5 20q18 0 40 -13t77 -53q17 -12 29.5 0.5t3.5 27.5
q-15 24 -43.5 46.5t-58.5 37t-48 14.5zM468 935q-36 0 -61.5 -29.5t-25.5 -70.5t25.5 -70.5t61.5 -29.5q35 0 60.5 29.5t25.5 70.5t-25.5 70.5t-60.5 29.5zM808 935q-36 0 -61.5 -29.5t-25.5 -70.5t25.5 -70.5t61.5 -29.5q35 0 60.5 29.5t25.5 70.5t-25.5 70.5t-60.5 29.5z
M1444 1012q-16 -164 -42.5 -309t-52.5 -239q-65 -26 -154.5 -47t-235.5 -49q-28 29 -46.5 64.5t-36.5 77.5l-84 -39q28 -36 54 -80.5t37 -81.5q-10 -20 -31.5 -46.5t-41.5 -45.5l69 -56q24 42 55.5 70.5t84.5 50.5t140.5 43t223.5 47q101 -38 194 -79t172 -80q12 -24 23 -65
t15 -76l81 40q-6 34 -15 65t-23 60q64 107 140 218.5t157 207.5l-67 90q-62 -104 -112 -180t-95.5 -138t-95.5 -122q-88 28 -157.5 57.5t-149.5 83.5q20 143 46 279t58 271zM1471 1054q-74 0 -144 -14t-129 -45l39 -69q40 25 102 37.5t132 12.5q113 0 223.5 -35t208 -97.5
t170.5 -146.5t110 -181l67 39q-40 111 -122 202.5t-190 158t-229 102.5t-238 36z" />
</svg>