<?xml version="1.0" standalone="no"?>
<!DOCTYPE svg PUBLIC "-//W3C//DTD SVG 1.1//EN" "http://www.w3.org/Graphics/SVG/1.1/DTD/svg11.dtd">
<svg xmlns="http://www.w3.org/2000/svg" xmlns:xlink="http://www.w3.org/1999/xlink" version="1.1"
   viewBox="94 -151 2414 2169">
   <path fill="currentColor"
      d="M407 1628q-107 0 -167 -60t-60 -167v-926q0 -107 60 -167t167 -60h1786q107 0 167 60t60 167v926q0 107 -60 167t-167 60h-1786zM584 1209h108q-55 -53 -86.5 -122.5t-31.5 -148.5t32 -149.5t87 -122.5h-109q-22 0 -55 39t-58 101.5t-25 131.5t25 131t57.5 101t55.5 39z
M1018 1209h564q16 0 27 -11t11 -27v-466q0 -17 -11 -28t-27 -11h-564q-16 0 -27 11t-11 28v466q0 16 11 27t27 11zM960 936v-129h680v129h-680zM391 1487h1819v-64h-1819v64zM391 1379h1819v-64h-1819v64zM391 463v142h1819v-142h-1819zM921 1079v-282q-50 9 -83.5 48.5
t-33.5 92.5q0 52 33.5 92t83.5 49zM2016 1209q23 0 55.5 -39t57.5 -101t25 -131t-25 -131.5t-57.5 -101.5t-55.5 -39h-109q56 52 87.5 122.5t31.5 149.5t-31 148.5t-87 122.5h108zM817 1209h66q16 0 27 -11t11 -27v-44l32 41q-64 1 -117.5 -30t-85.5 -84t-32 -116t32 -116
t85.5 -84.5t117.5 -29.5l-32 39v-42q0 -17 -11 -28t-27 -11h-65q-79 36 -127.5 109.5t-48.5 162.5q0 88 48.5 161.5t126.5 109.5zM1679 1079q50 -9 83.5 -49t33.5 -92q0 -53 -33.5 -92.5t-83.5 -48.5v282zM1783 1209q78 -36 126.5 -109.5t48.5 -161.5q0 -89 -48.5 -162.5
t-127.5 -109.5h-65q-16 0 -27 11t-11 28v42l-32 -39q65 -2 118 29.5t85 84.5t32 116t-32 116t-85 84t-118 30l32 -41v44q0 16 11 27t27 11h66zM1962 938l32 -296h62l-31 296h-63z" />
</svg>