<?xml version="1.0" standalone="no"?>
<!DOCTYPE svg PUBLIC "-//W3C//DTD SVG 1.1//EN" "http://www.w3.org/Graphics/SVG/1.1/DTD/svg11.dtd">
<svg xmlns="http://www.w3.org/2000/svg" xmlns:xlink="http://www.w3.org/1999/xlink" version="1.1"
   viewBox="94 -151 2414 2169">
   <path fill="currentColor"
      d="M1301 945q-144 0 -263 -70.5t-190 -189.5t-71 -264q0 -144 70.5 -263t189.5 -189.5t264 -70.5q144 0 263 70.5t189.5 189t70.5 263.5t-70.5 264t-189.5 189.5t-263 70.5zM1226 1978l-61 -415v-779h80v775l52 339h8l52 -339v-775h80v779l-61 415h-150zM964 453
q20 0 33.5 -13.5t16.5 -33.5q6 -39 19 -73.5t32 -68.5q9 -16 9 -28q0 -14 -5.5 -24t-13.5 -17q-11 -11 -28 -11q-23 0 -40 23q-30 40 -45.5 89t-22.5 103q-3 23 11 38.5t34 15.5zM1138 174q16 0 31 -9q9 -5 18.5 -10t19.5 -9q34 -16 34 -46q0 -22 -13 -35t-32 -13
q-11 0 -19 3q-14 6 -29 13.5t-29 15.5q-25 15 -25 40q0 13 9 28q12 22 35 22z" />
</svg>