<?xml version="1.0" standalone="no"?>
<!DOCTYPE svg PUBLIC "-//W3C//DTD SVG 1.1//EN" "http://www.w3.org/Graphics/SVG/1.1/DTD/svg11.dtd">
<svg xmlns="http://www.w3.org/2000/svg" xmlns:xlink="http://www.w3.org/1999/xlink" version="1.1"
   viewBox="94 -151 2414 2169">
   <path fill="currentColor"
      d="M1300 1928q-241 0 -417 -62t-271.5 -177.5t-95.5 -274.5q0 -96 20.5 -171t42 -135t24.5 -111l22 -327q-7 1 -14 1h-14q-100 0 -182.5 -54.5t-138.5 -154t-78 -234.5q60 -56 139 -85.5t164 -29.5q190 0 348 128q86 -54 205 -84.5t246 -30.5t246 30.5t205 84.5
q158 -128 348 -128q86 0 164.5 29.5t138.5 85.5q-21 135 -77.5 234.5t-138.5 154t-183 54.5h-13.5t-14.5 -1l22 327q4 51 25 111t41.5 135t20.5 171q0 159 -95.5 274.5t-271 177.5t-417.5 62zM1105 1513q-27 0 -41 -12t-26 -30t-36 -34q-22 -16 -48.5 -25t-45.5 -24t-19 -48
q0 -32 20.5 -51.5t58.5 -19.5q49 0 95 27.5t76 69t30 83.5q0 64 -64 64zM1300 1848q220 0 377.5 -52.5t242 -150t84.5 -231.5q0 -104 -42.5 -184.5t-117 -126.5t-171.5 -46q-59 0 -116.5 14.5t-120 29t-136.5 14.5t-136.5 -14.5t-119.5 -29t-117 -14.5q-98 0 -172.5 46.5
t-116.5 127t-42 183.5q0 134 84.5 231.5t242.5 150t377 52.5zM614 496q-45 0 -88.5 -24.5t-74.5 -67t-39 -95.5q26 -9 54.5 -14.5t57.5 -5.5q81 0 135 32t54 85q0 37 -27.5 63.5t-71.5 26.5zM1495 1513q-64 0 -64 -64q0 -42 30 -83.5t76.5 -69t94.5 -27.5q38 0 58.5 19.5
t20.5 51.5q0 33 -19 48t-45 24t-49 25t-35.5 34t-26 30t-41.5 12zM1030 892q37 0 63 -36t26 -87q0 -50 -26 -86t-63 -36t-63 36t-26 86q0 51 26 87t63 36zM629 1134l41 -412q8 -62 33 -142t68 -154.5t105.5 -123t145.5 -48.5q96 0 168.5 54.5t112.5 142.5t40 191
q0 122 -52 208t-138.5 131t-192.5 45l-189 31zM673 1065q52 -41 116.5 -64.5t137.5 -23.5q65 0 126.5 14.5t122.5 29t124 14.5q64 0 124.5 -14.5t122 -29t126.5 -14.5q73 0 137.5 23.5t116.5 64.5q-4 -14 -6.5 -30t-3.5 -32l-29 -433q66 21 115 21q111 0 194 -88.5
t117 -242.5q-93 -67 -215 -67q-93 0 -182 39t-160 112q-76 -65 -198 -101.5t-259 -36.5q-136 0 -258.5 36.5t-198.5 101.5q-71 -73 -160 -112t-182 -39q-122 0 -215 67q34 154 117 242.5t194 88.5q49 0 115 -21l-29 433q-1 16 -3.5 32t-6.5 30zM1570 892q-37 0 -63 -36
t-26 -87q0 -50 26 -86t63 -36t63 36t26 86q0 51 -26 87t-63 36zM892 276q-15 -38 -22 -83.5t-7 -87.5q0 -67 18 -112t54 -45q27 0 63.5 27.5t72 74.5t58.5 107zM1708 276l-237 -119q24 -60 59 -107t71.5 -74.5t63.5 -27.5q36 0 54 45t18 112q0 42 -7 87.5t-22 83.5z
M1986 496q-43 0 -71 -26.5t-28 -63.5q0 -53 54 -85t135 -32q29 0 57.5 5.5t54.5 14.5q-8 53 -39 95.5t-74 67t-89 24.5z" />
</svg>