<?xml version="1.0" standalone="no"?>
<!DOCTYPE svg PUBLIC "-//W3C//DTD SVG 1.1//EN" "http://www.w3.org/Graphics/SVG/1.1/DTD/svg11.dtd">
<svg xmlns="http://www.w3.org/2000/svg" xmlns:xlink="http://www.w3.org/1999/xlink" version="1.1"
   viewBox="94 -151 2414 2169">
   <path fill="currentColor"
      d="M1291 1978q-59 0 -89 -27.5t-49.5 -66t-45.5 -74.5t-77 -52q-59 -19 -126.5 -66t-130 -115.5t-109.5 -154t-67 -181.5l30 14q-26 33 -65 51t-76 18q-50 0 -86.5 -36t-36.5 -90q0 -59 30 -110t70 -93t71 -74t32 -53q11 -151 59.5 -289t127.5 -247.5t181 -174.5l76 40
q-103 51 -181.5 154t-126.5 241t-58 294q-2 32 -32.5 66t-70 71.5t-69 80.5t-29.5 94q0 24 14 37.5t35 13.5q30 0 64.5 -19t74.5 -63l30 16q22 127 85.5 230.5t145.5 173.5t158 96q66 23 99 58.5t50 71.5t35.5 60.5t56.5 24.5q44 0 67.5 -30.5t23.5 -87.5q0 -17 -1.5 -36.5
t-6.5 -40.5q127 -36 219 -128q65 38 104.5 74t66.5 59t56 23q25 0 42 -24t17 -64q0 -44 -27 -84.5t-95 -101.5q40 -84 40 -185q0 -31 -6 -66.5t-24 -87.5l30 -22q48 67 75 88t52 21q23 0 37.5 -18.5t14.5 -42.5q0 -32 -27.5 -78.5t-73 -99t-100.5 -103.5
q-31 -237 -135.5 -412t-251.5 -250l65 -48q102 60 183.5 161t137 232.5t77.5 283.5q85 81 144.5 163.5t59.5 156.5q0 53 -32.5 94t-86.5 41q-64 0 -99 -60l29 -4q8 24 9.5 36t1.5 22q0 46 -10 95t-28 96l-20 -44q67 61 96.5 112.5t29.5 107.5q0 67 -37.5 113.5t-87.5 46.5
q-42 0 -74.5 -25.5t-66.5 -59t-82 -56.5q-36 30 -73 51t-78 37q2 10 2 19v19q0 82 -42 134.5t-115 52.5zM610 652q-34 0 -61.5 -14.5t-36.5 -37.5q-24 9 -53 9q-47 0 -79.5 -19.5t-37.5 -52.5q-56 0 -94 -21.5t-38 -57.5q0 -19 12 -35t43 -42l215 -182q47 -39 105.5 -29.5
t103.5 53.5l128 124l-40 46l-130 -127q-29 -29 -64.5 -36.5t-63.5 16.5l-215 182l-17.5 14t-15.5 13q8 11 24 16t33 5q50 0 100.5 -32t102.5 -98l42 34q-41 54 -80.5 85t-98.5 58q9 13 27 19.5t38 6.5q51 0 93.5 -31.5t82.5 -81.5l42 32q-24 34 -50.5 59.5t-51.5 42.5l-12 8
q8 9 22 13t27 4q17 0 35 -7.5t31 -26.5l-10 77q-30 14 -58 14zM958 753q-38 0 -78.5 -20t-66.5 -53l51 -41q39 49 94 49q52 0 79 -45l56 33q-20 35 -57 56t-78 21zM1190 979q-45 0 -92.5 -20.5t-72.5 -51.5l50 -41q17 20 50.5 34t64.5 14q32 0 65.5 -14t49.5 -34l50 41
q-25 31 -72 51.5t-93 20.5zM1396 753q-91 0 -136 -77l56 -33q26 45 80 45q53 0 94 -49l49 42q-59 72 -143 72zM1201 266q-138 0 -253 -25t-184 -66t-69 -90q0 -50 69 -92.5t184 -68.5t253 -26q74 0 161 12t165.5 35.5t129 58.5t50.5 81q0 49 -69 90t-183.5 66t-253.5 25z
M1201 136q134 0 224 -24.5t90 -60.5q0 -37 -90 -61t-224 -24q-133 0 -223.5 24t-90.5 61q0 36 90.5 60.5t223.5 24.5zM1855 691q-17 0 -30.5 -2.5t-25.5 -6.5l-20 -76q25 13 39.5 18t33.5 5q9 0 20 -3t21 -10q-13 -9 -32 -26t-40 -45l40 -32q30 39 62 58t75 20q9 0 20.5 -3
t18.5 -10l-12 -8q-25 -17 -51.5 -42.5t-50.5 -59.5l43 -34q41 52 82 83.5t93 31.5q20 0 38 -5.5t23 -16.5q-55 -31 -94.5 -62.5t-80.5 -84.5l43 -34q51 66 103.5 98t98.5 32q18 0 34.5 -5t23.5 -16q-9 -7 -16 -12.5t-17 -14.5l-206 -174q-35 -30 -72 -23.5t-66 35.5
l-235 228l-35 -49l228 -222q46 -44 106 -52.5t113 36.5l206 174q30 26 42 42t12 35q0 36 -38 57.5t-94 21.5q-4 33 -36.5 52.5t-80.5 19.5q-27 0 -53 -9q-8 23 -35.5 37.5t-62.5 14.5q-10 0 -20.5 -1t-18.5 -5q-11 20 -37.5 32.5t-58.5 12.5z" />
</svg>