<?xml version="1.0" standalone="no"?>
<!DOCTYPE svg PUBLIC "-//W3C//DTD SVG 1.1//EN" "http://www.w3.org/Graphics/SVG/1.1/DTD/svg11.dtd">
<svg xmlns="http://www.w3.org/2000/svg" xmlns:xlink="http://www.w3.org/1999/xlink" version="1.1"
   viewBox="94 -151 2414 2169">
   <path fill="currentColor"
      d="M1260 1978q-294 0 -453.5 -144t-159.5 -403q0 -75 13.5 -165t37 -185.5t52.5 -186.5q40 -126 77.5 -234t76.5 -202q86 -209 223.5 -329.5t312.5 -120.5q156 0 271 73t178.5 209t63.5 327q0 103 -2.5 191.5t-8.5 175.5t-17 187q-45 413 -205.5 610t-459.5 197zM1127 1222
q-89 -80 -174.5 -171t-163.5 -188l34 -88q83 108 174 206.5t187 184.5zM1260 1898q266 0 407.5 -177t182.5 -554q11 -101 17 -189.5t8.5 -176t2.5 -185.5q0 -263 -118 -395.5t-320 -132.5q-150 0 -268.5 102.5t-198.5 296.5q-38 91 -76 198t-77 234q-26 87 -48.5 178.5
t-36 177.5t-13.5 156q0 226 139 346.5t399 120.5zM707 1287v-81q399 -7 692 -124.5t492 -347.5l55 57q-210 241 -517.5 365t-721.5 131zM1193 879q-85 0 -143.5 -37.5t-58.5 -110.5t58.5 -110.5t143.5 -37.5q51 0 68.5 12t17.5 26q0 13 -8 16.5t-19 3.5q-10 0 -24 -1.5
t-40 -1.5q-56 0 -96 21.5t-40 71.5t40 72t96 22q26 0 40 -1.5t24 -1.5q11 0 19 3.5t8 15.5q0 13 -17.5 25.5t-68.5 12.5zM1267 984q-64 0 -126 -41.5t-89 -114.5l56 2q21 46 64.5 72.5t94.5 26.5q83 0 140.5 -56.5t57.5 -138.5q0 -80 -58.5 -135t-141.5 -55q-108 0 -160 96
l-46 -19q35 -68 89.5 -100.5t118.5 -32.5q71 0 129.5 33.5t93.5 89t35 123.5q0 70 -34 127t-92.5 90t-131.5 33zM1240 423q-40 0 -78 -23.5t-55 -61.5l51 -22q11 23 34 38t48 15q24 0 40 -7t29 -20l38 38q-34 43 -107 43zM1579 513q-41 0 -79 -23.5t-54 -61.5l51 -23
q11 24 34 38.5t48 14.5q23 0 40 -6.5t29 -19.5l39 38q-37 43 -108 43zM1438 197q-76 0 -107.5 -42.5t-31.5 -83.5q0 -102 169 -117q94 -9 94 -46q0 -7 -1 -10q30 3 39 22t13 40q4 19 14.5 48t40.5 50q-11 47 -33 67.5t-51 20.5q-19 0 -34.5 -5t-30.5 -12q-13 -6 -26 -10
t-27 -4q-34 0 -34 29q0 11 10 23t34 24q-7 2 -17.5 4t-20.5 2z" />
</svg>