<?xml version="1.0" standalone="no"?>
<!DOCTYPE svg PUBLIC "-//W3C//DTD SVG 1.1//EN" "http://www.w3.org/Graphics/SVG/1.1/DTD/svg11.dtd">
<svg xmlns="http://www.w3.org/2000/svg" xmlns:xlink="http://www.w3.org/1999/xlink" version="1.1"
   viewBox="94 -151 2414 2169">
   <path fill="currentColor"
      d="M1300 1978q-208 0 -360.5 -82t-236 -232.5t-83.5 -354.5q0 -182 72 -371.5t201 -394.5l407 -645l407 645q129 205 201 394.5t72 371.5q0 204 -83.5 354.5t-236 232.5t-360.5 82zM1315 1725q-130 0 -233.5 -56.5t-163 -156.5t-59.5 -232q0 -19 11 -31t29 -12
q17 0 28.5 11.5t11.5 28.5q0 166 108 261.5t272 106.5q17 1 28 12t11 28t-12 28.5t-31 11.5zM1300 1898q186 0 320.5 -71t207 -203.5t72.5 -314.5q0 -172 -68 -348.5t-192 -373.5l-340 -542l-340 542q-124 197 -192 373.5t-68 348.5q0 182 72.5 314.5t207 203.5t320.5 71z
" />
</svg>