<?xml version="1.0" standalone="no"?>
<!DOCTYPE svg PUBLIC "-//W3C//DTD SVG 1.1//EN" "http://www.w3.org/Graphics/SVG/1.1/DTD/svg11.dtd">
<svg xmlns="http://www.w3.org/2000/svg" xmlns:xlink="http://www.w3.org/1999/xlink" version="1.1"
   viewBox="94 -151 2414 2169">
   <path fill="currentColor"
      d="M1013 1978q-120 0 -199.5 -69t-132.5 -217l76 -26q44 124 104 178t152 54q66 0 133.5 -35t154 -121t210.5 -239q120 -148 201.5 -265.5t130.5 -215.5t70.5 -187t21.5 -179q0 -143 -51 -266t-141 -215.5t-209.5 -144.5t-256.5 -52q-130 0 -241 46.5t-194.5 130t-130 196.5
t-46.5 247h-80q0 -150 52.5 -278t147 -222.5t220.5 -147t272 -52.5q154 0 288 58t235 162t158 241.5t57 296.5q0 130 -42 259t-139 281.5t-261 356.5q-131 162 -226 255t-173.5 131.5t-160.5 38.5zM1020 1501q-70 0 -113 -38.5t-43 -105.5q0 -47 23 -78.5t44 -52.5
q29 -29 37.5 -45t8.5 -35q0 -18 -11.5 -30.5t-49.5 -34.5q-47 -29 -70 -56.5t-23 -73.5h80q0 19 10 30.5t44 31.5q52 31 76 59.5t24 73.5q0 49 -23.5 81.5t-45.5 54.5q-27 27 -35.5 42t-8.5 33q0 33 19.5 48.5t56.5 15.5q23 0 47 -14t60 -52.5t94 -111.5q73 -91 114.5 -157
t59.5 -118.5t18 -104.5q0 -79 -39.5 -146.5t-104.5 -108.5t-141 -41v-80q99 0 182 52t133 137.5t50 186.5q0 91 -47 187.5t-163 242.5q-64 81 -108 126.5t-79.5 63.5t-75.5 18zM1697 1011l-72 -34q36 -75 54 -149.5t18 -147.5q0 -138 -54 -242.5t-150 -163.5t-222 -59
q-108 0 -191 42.5t-130 118t-47 173.5q0 103 52 175t160 100l-20 78q-134 -35 -203 -129t-69 -224q0 -121 58 -214t159.5 -146.5t230.5 -53.5q149 0 263 70t178.5 193t64.5 282q0 81 -20.5 165.5t-59.5 165.5z" />
</svg>