<?xml version="1.0" standalone="no"?>
<!DOCTYPE svg PUBLIC "-//W3C//DTD SVG 1.1//EN" "http://www.w3.org/Graphics/SVG/1.1/DTD/svg11.dtd">
<svg xmlns="http://www.w3.org/2000/svg" xmlns:xlink="http://www.w3.org/1999/xlink" version="1.1"
   viewBox="94 -151 2414 2169">
   <path fill="currentColor"
      d="M676 1660q-123 7 -198.5 -44t-132.5 -181q-24 -54 -36.5 -111.5t-12.5 -110.5q0 -50 10 -85t38.5 -69t83.5 -80l1234 -1050l52 60l-1236 1052q-45 38 -67 62t-28.5 47.5t-6.5 62.5q0 44 11 93t32 97q46 105 101 144t150 33l1610 -96l6 80zM519 1793q-82 0 -155 -44
t-129 -120.5t-88 -177t-32 -212.5q0 -141 63 -220.5t175 -79.5q64 0 129 35l-55 62q-39 -17 -74 -17q-77 0 -117.5 56t-40.5 164q0 127 45 235t119 173.5t160 65.5q56 0 89.5 -24t60.5 -82l81 18q-38 87 -93 127.5t-138 40.5zM1327 1978q-121 0 -193.5 -37t-104.5 -131
l-75 -221l77 -7l68 205q23 69 76 92.5t150 23.5h287q68 0 107 -39t39 -102q0 -29 -15 -74l-51 -150l77 -6l48 141q16 48 16 87q0 94 -60.5 156t-158.5 62h-287zM1303 1790q-38 0 -62 -13.5t-33 -42.5l-50 -159l76 -6l42 133q4 13 27 13l218 -2q14 0 14 -12q0 -3 -3 -12
l-39 -136l75 -8l43 144q4 15 4 30q0 31 -20 50t-52 19zM615 1176q-14 10 -29.5 8t-26.5 -15t-8 -29.5t16 -26.5l604 -466q14 -11 30 -9t26 16q11 13 8.5 29t-16.5 27zM2266 1566q-76 0 -159 -57.5t-165 -158t-155 -230t-129.5 -274.5t-89 -291.5t-32.5 -279.5
q0 -109 28 -194t77 -134t112 -49q75 0 158 58.5t165 159.5t155.5 231t130.5 275.5t90 291t33 277.5q0 178 -57.5 276.5t-161.5 98.5z" />
</svg>