<?xml version="1.0" standalone="no"?>
<!DOCTYPE svg PUBLIC "-//W3C//DTD SVG 1.1//EN" "http://www.w3.org/Graphics/SVG/1.1/DTD/svg11.dtd">
<svg xmlns="http://www.w3.org/2000/svg" xmlns:xlink="http://www.w3.org/1999/xlink" version="1.1"
   viewBox="94 -151 2414 2169">
   <path fill="currentColor"
      d="M1151 1978q-148 0 -278 -56t-228.5 -155t-154 -229.5t-55.5 -279.5q0 -148 55.5 -278t154.5 -229t229 -155t279 -56q121 0 231.5 37t188.5 100q32 26 73 26q28 0 55 -11.5t48 -22.5l41 -22q26 -14 52 -14q42 0 81 28t70.5 73.5t50 98t18.5 101.5q0 31 -13.5 55t-34.5 36
q-57 32 -99.5 77.5t-42.5 112.5v43q0 148 -56 278.5t-155 229.5t-230 155.5t-280 56.5zM622 1223q21 0 38 -12.5t22 -40.5q9 -48 30 -90t46 -81q15 -24 15 -43q0 -21 -17 -38t-40 -17q-30 0 -47 22q-39 49 -63.5 107t-35.5 123q-2 12 -2 17q0 25 16.5 39t37.5 14zM863 858
q21 0 39 -11q11 -7 23.5 -13t25.5 -10q40 -15 40 -56q0 -27 -17 -41t-40 -14q-16 0 -44 11.5t-48 24.5q-30 19 -30 50q0 22 15 40.5t36 18.5zM1944 949q50 0 50 -75q0 -42 -20.5 -79.5t-51 -61t-61.5 -23.5q-50 0 -50 77q0 41 20.5 78t51.5 60.5t61 23.5zM1926 859
q-18 0 -31 -16t-13 -34q0 -22 15 -25q40 -8 80.5 -34.5t68 -68t27.5 -92.5q0 -63 -42.5 -94t-149.5 -56q-64 -15 -132 -48.5t-97 -62.5q-4 -5 -7 -11t-3 -19q0 -14 14 -27.5t28 -13.5q20 0 29 12q4 4 50.5 36t137.5 52q79 17 136.5 43t88.5 70t31 116q0 52 -23.5 101
t-60 87.5t-76 61.5t-71.5 23zM1630 611l-73 -195l-448 5l383 -213l-87 -310l248 188l246 -185l-66 259l332 34l-172 65l-248 -29l37 -140l-124 94l-117 -89l44 156l-174 97l203 -3l68 176z" />
</svg>