<?xml version="1.0" standalone="no"?>
<!DOCTYPE svg PUBLIC "-//W3C//DTD SVG 1.1//EN" "http://www.w3.org/Graphics/SVG/1.1/DTD/svg11.dtd">
<svg xmlns="http://www.w3.org/2000/svg" xmlns:xlink="http://www.w3.org/1999/xlink" version="1.1"
   viewBox="94 -151 2414 2169">
   <path fill="currentColor"
      d="M1300 1978q-222 0 -408.5 -50t-323.5 -140.5t-212.5 -214t-75.5 -270.5q0 -146 82 -242.5t230 -146.5q-7 -46 -7 -89q0 -144 71 -240.5t206 -136.5v-10v-9q0 -141 39.5 -237t135 -165t263.5 -129q0 111 15.5 176.5t56 98t114.5 47.5l51 10q176 34 254.5 105t78.5 193
q0 22 -4.5 50t-11.5 54q98 39 151.5 112.5t59.5 186.5q120 58 187.5 155t67.5 217q0 147 -75.5 270.5t-213 214t-324 140.5t-407.5 50zM1300 1721q71 0 139.5 -24.5t123.5 -65.5t87.5 -91.5t32.5 -101.5q0 -27 -12.5 -43t-41.5 -12q-103 13 -176 19t-153 6q-79 0 -152.5 -6
t-176.5 -19q-29 -4 -41.5 12t-12.5 43q0 51 32.5 101.5t87.5 91.5t123.5 65.5t139.5 24.5zM1015 1257q62 0 112.5 -30.5t81 -81.5t30.5 -112q0 -62 -30.5 -112.5t-81 -81t-112.5 -30.5q-61 0 -112 30.5t-81.5 81t-30.5 112.5q0 61 30.5 112t81.5 81.5t112 30.5zM1015 1137
q-43 0 -73.5 -30.5t-30.5 -73.5t30.5 -73.5t73.5 -30.5t73.5 30.5t30.5 73.5t-31 73.5t-73 30.5zM1585 1257q62 0 112.5 -30.5t81 -81.5t30.5 -112q0 -62 -30.5 -112.5t-81 -81t-112.5 -30.5q-61 0 -112 30.5t-81.5 81t-30.5 112.5q0 61 30.5 112t81.5 81.5t112 30.5z
M1585 1137q-42 0 -73 -30.5t-31 -73.5t30.5 -73.5t73.5 -30.5t73.5 30.5t30.5 73.5t-30.5 73.5t-73.5 30.5z" />
</svg>