<?xml version="1.0" standalone="no"?>
<!DOCTYPE svg PUBLIC "-//W3C//DTD SVG 1.1//EN" "http://www.w3.org/Graphics/SVG/1.1/DTD/svg11.dtd">
<svg xmlns="http://www.w3.org/2000/svg" xmlns:xlink="http://www.w3.org/1999/xlink" version="1.1"
   viewBox="94 -151 2414 2169">
   <path fill="currentColor"
      d="M1606 1593q-259 -12 -488 -80.5t-416.5 -180t-323.5 -255.5t-209.5 -307t-73.5 -333q0 -108 45 -183.5t124.5 -115t181.5 -39.5q80 0 173 23t192 73q110 -79 211 -113t222 -34q154 0 284 70.5t220.5 207.5t124.5 335l-65 92q-35 -231 -119.5 -368t-200.5 -197t-244 -60
q-121 0 -212.5 35.5t-206.5 121.5q-119 -57 -211.5 -82t-166.5 -25q-121 0 -196.5 67t-75.5 192q0 156 70 307.5t199 285.5t307 238.5t395.5 169t463.5 75.5zM1045 1323q-20 -4 -40.5 -13t-32.5 -18l55 -90q10 5 23 10t25 9zM1041 1142q-20 -4 -40.5 -13t-32.5 -18l55 -90
q10 5 23 10t25 9zM1288 999q-157 -65 -279.5 -159.5t-192 -203.5t-69.5 -216q0 -99 63 -184l79 -14q-20 39 -20 86q0 76 52 160.5t146.5 165.5t220.5 147v218zM1358 1088l65 -19q-14 -35 -21 -73.5t-7 -75.5q0 -89 33 -149l-56 -36q-47 75 -47 185q0 42 8.5 84.5t24.5 83.5z
M1764 1577l-10 -80q110 -12 200.5 -38t163.5 -66l69 52q-102 60 -204.5 89t-218.5 43zM1537 1778q0 -118 11.5 -237.5t33 -227.5t51.5 -189l304 -96q136 96 280 179.5t288 147.5l-133 80l6 150q-114 -67 -220 -140t-194.5 -149.5t-151.5 -151.5l34 -15q-11 82 -20 161
t-13.5 155.5t-4.5 151.5q0 43 2 87t6 88l-142 -64zM1255 557q-19 -5 -39 -15.5t-31 -20.5l62 -86q9 6 21.5 12t24.5 11zM1691 1031l55 -22q-12 -27 -12 -58q0 -30 9 -48l-53 -27q-17 34 -17 75q0 44 18 80zM1461 1297q-59 0 -99 -48.5t-64 -120t-34.5 -143t-10.5 -117.5
q0 -102 34.5 -154.5t96.5 -52.5q56 0 120 40t166 120l113 -25q0 -129 45 -199t121 -70q77 0 134.5 64t89.5 171.5t32 239.5q0 66 -34.5 105t-97.5 39q-59 0 -117.5 -22t-113.5 -48l-74 26q-57 88 -138.5 141.5t-168.5 53.5zM1539 624q-20 0 -41.5 -4.5t-35.5 -11.5l36 -99
q11 4 24.5 6t26.5 4zM1331 394q-19 -5 -39 -15.5t-31 -20.5l62 -86q9 6 21.5 12t24.5 11zM1570 468q-20 0 -41.5 -4.5t-35.5 -11.5l36 -99q11 4 24.5 6t26.5 4zM1895 938l62 -26q-14 -31 -21 -63.5t-7 -64.5q0 -47 12.5 -88.5t34.5 -69.5l-51 -36q-31 36 -48 88t-17 108
q0 39 8.5 78t26.5 74zM2368 1328l-72 -36q35 -53 43.5 -85.5t8.5 -58.5q0 -156 -193 -247v-93q141 70 207 154.5t66 185.5q0 34 -11 77t-49 103z" />
</svg>