<?xml version="1.0" standalone="no"?>
<!DOCTYPE svg PUBLIC "-//W3C//DTD SVG 1.1//EN" "http://www.w3.org/Graphics/SVG/1.1/DTD/svg11.dtd">
<svg xmlns="http://www.w3.org/2000/svg" xmlns:xlink="http://www.w3.org/1999/xlink" version="1.1"
   viewBox="94 -151 2414 2169">
   <path fill="currentColor"
      d="M1426 385l56 56l-236 238q-101 -99 -301 -99q-92 0 -133 27t-41 88q0 82 64.5 195.5t185.5 244.5q144 155 285 246t239 91q60 0 87 -41t27 -133q0 -201 -97 -303l231 -232l56 56l-182 184q72 118 72 295q0 254 -194 254q-118 0 -272 -96.5t-312 -266.5
q-132 -143 -201 -268.5t-69 -225.5q0 -97 65 -146t189 -49q177 0 294 73zM2256 579q0 -68 -62 -172t-161 -203q-102 -102 -206 -164t-170 -62q-53 0 -53 53q0 65 62 169t164 208q98 100 203.5 163.5t171.5 63.5q51 0 51 -56zM264 1870l254 -339l421 -420l56 56l-417 418
l-208 278l9 9l278 -208l418 -417l56 56l-420 421l-339 254zM1339 217q0 -61 37 -98l185 -185q36 -36 96 -36q83 0 200 67.5t232 180.5q113 110 180 228.5t67 204.5q0 28 -8 53t-26 43l-186 188q-38 38 -96 38q-84 0 -202 -69t-231 -182q-113 -115 -180.5 -232.5
t-67.5 -200.5zM1419 217q0 66 62.5 169.5t163.5 207.5q98 100 203.5 163.5t171.5 63.5q26 0 40 -14l97 -97q-82 -17 -185.5 -82.5t-199.5 -163.5q-99 -101 -162.5 -203t-80.5 -183l-97 97q-13 13 -13 42z" />
</svg>