<?xml version="1.0" standalone="no"?>
<!DOCTYPE svg PUBLIC "-//W3C//DTD SVG 1.1//EN" "http://www.w3.org/Graphics/SVG/1.1/DTD/svg11.dtd">
<svg xmlns="http://www.w3.org/2000/svg" xmlns:xlink="http://www.w3.org/1999/xlink" version="1.1"
   viewBox="94 -151 2414 2169">
   <path fill="currentColor"
      d="M1419 1900l-132 -530l204 -334l-266 -378l244 -613q173 -147 398 -147q165 0 292 77.5t199 213t72 309.5q0 602 -1011 1402zM1274 1978q-556 -429 -830 -800.5t-274 -696.5q0 -165 74 -297t202 -209t288 -77q112 0 202 33.5t156 81t105.5 92t50.5 66.5l-207 502l255 369
l-185 303zM1138 1769l-113 -436l175 -289l-249 -361l207 -504q-29 -37 -86.5 -84t-142 -82t-195.5 -35q-138 0 -247.5 66.5t-173 180t-63.5 256.5q0 276 220.5 595.5t667.5 692.5zM1467 1759q883 -728 883 -1261q0 -152 -61.5 -269.5t-170.5 -184t-251 -66.5
q-97 0 -176.5 27.5t-155.5 88.5l-220 554l272 384l-214 352z" />
</svg>