<?xml version="1.0" standalone="no"?>
<!DOCTYPE svg PUBLIC "-//W3C//DTD SVG 1.1//EN" "http://www.w3.org/Graphics/SVG/1.1/DTD/svg11.dtd">
<svg xmlns="http://www.w3.org/2000/svg" xmlns:xlink="http://www.w3.org/1999/xlink" version="1.1"
   viewBox="94 -151 2414 2169">
   <path fill="currentColor"
      d="M582 1678q-122 0 -190 -35t-95 -100.5t-27 -158.5v-892q0 -93 27 -159t95 -100.5t190 -34.5h1436q123 0 190.5 34.5t94.5 100.5t27 159v892q0 93 -27 158.5t-94.5 100.5t-190.5 35h-1436zM599 1443q-44 0 -68.5 -31t-24.5 -80q0 -50 24 -81t69 -31h145q45 0 69.5 31
t24.5 81q0 46 -25 78.5t-69 32.5h-145zM672 1398q27 0 46 -19.5t19 -46.5t-19 -46t-46 -19t-46.5 19t-19.5 46q0 28 19 47t47 19zM1121 1395v-125l-103 62zM1018 1443q-44 0 -68.5 -32.5t-24.5 -78.5q0 -50 24 -81t69 -31h145q45 0 69.5 31t24.5 81q0 49 -24.5 80t-69.5 31
h-145zM1437 1443q-44 0 -68.5 -31t-24.5 -80q0 -50 24 -81t69 -31h145q45 0 69.5 31t24.5 81q0 46 -25 78.5t-69 32.5h-145zM1479 1395l104 -63l-104 -62v125zM582 1598h1436q134 0 183 -45.5t49 -168.5v-892q0 -123 -50 -168.5t-182 -45.5h-1436q-133 0 -182.5 45.5
t-49.5 168.5v892q0 123 49.5 168.5t182.5 45.5zM643 1056q-53 0 -90 -37t-37 -89v-359q0 -52 37.5 -88.5t89.5 -36.5h1313q53 0 90 36t37 89v359q0 52 -37 89t-90 37h-1313zM1856 1443q-44 0 -68.5 -31t-24.5 -80q0 -50 24 -81t69 -31h145q45 0 69.5 31t24.5 81
q0 46 -25 78.5t-69 32.5h-145zM1866 1367h125q15 0 22.5 -10.5t7.5 -24.5q0 -34 -30 -34h-125q-30 0 -30 34q0 14 7.5 24.5t22.5 10.5zM1760 612h73l33 -32l-33 -34h-73l-32 34zM1669 633v73l32 32l34 -32v-73l-34 -33zM1925 633l-33 -33l-33 33v73l33 32l33 -32v-73z
M1760 792h73l33 -32l-33 -34h-73l-32 34zM1669 813v73l32 32l34 -32v-73l-34 -33zM1925 813l-33 -33l-33 33v73l33 32l33 -32v-73zM1760 906l-32 33l32 33h73l33 -33l-33 -33h-73zM1440 612h73l33 -32l-33 -34h-73l-32 34zM1349 633v73l32 32l34 -32v-73l-34 -33zM1605 633
l-33 -33l-33 33v73l33 32l33 -32v-73zM1440 792h73l33 -32l-33 -34h-73l-32 34zM1605 813l-33 -33l-33 33v73l33 32l33 -32v-73zM1440 906l-32 33l32 33h73l33 -33l-33 -33h-73zM1120 612h73l33 -32l-33 -34h-73l-32 34zM1029 633v73l32 32l34 -32v-73l-34 -33zM1285 633
l-33 -33l-33 33v73l33 32l33 -32v-73zM1120 792h73l33 -32l-33 -34h-73l-32 34zM1285 813l-33 -33l-33 33v73l33 32l33 -32v-73zM1120 906l-32 33l32 33h73l33 -33l-33 -33h-73zM965 633l-33 -33l-33 33v73l33 32l33 -32v-73zM965 813l-33 -33l-33 33v73l33 32l33 -32v-73z
" />
</svg>