<?xml version="1.0" standalone="no"?>
<!DOCTYPE svg PUBLIC "-//W3C//DTD SVG 1.1//EN" "http://www.w3.org/Graphics/SVG/1.1/DTD/svg11.dtd">
<svg xmlns="http://www.w3.org/2000/svg" xmlns:xlink="http://www.w3.org/1999/xlink" version="1.1"
   viewBox="94 -151 2414 2169">
   <path fill="currentColor"
      d="M601 1978q-67 0 -114 -47.5t-47 -114.5q0 -66 47 -112t114 -46h1155q124 0 124 -123v-1449q0 -108 -109 -108h-1240v1765l-91 73v-1746q0 -88 45 -130t126 -42h1166q63 0 100.5 21t57.5 68h91q58 0 96 36.5t38 91.5v1658q0 105 -53 155t-151 50h-1355zM1212 1706
l-524 -524v-112l636 636h-112zM501 1728v-1767h203v1767h-203zM1673 1700l-985 -985v-112l1097 1097h-112zM2087 1878q-51 -11 -97 -39.5t-75.5 -81t-31.5 -134.5l76 -84q0 98 21.5 151t56 75t73.5 29zM601 1898h1355q124 0 124 -123v-1651q-22 -4 -57.5 -20.5t-64.5 -35.5
q2 7 2 16.5v22.5v1426q0 105 -53 155t-151 50h-1155q-33 0 -56.5 23.5t-23.5 56.5q0 34 23 57t57 23zM1916 1476l-1227 -1227v-112l1227 1227v112zM1916 1010l-1051 -1051h112l939 939v112zM1916 542l-602 -602h112l490 490v112z" />
</svg>