<?xml version="1.0" standalone="no"?>
<!DOCTYPE svg PUBLIC "-//W3C//DTD SVG 1.1//EN" "http://www.w3.org/Graphics/SVG/1.1/DTD/svg11.dtd">
<svg xmlns="http://www.w3.org/2000/svg" xmlns:xlink="http://www.w3.org/1999/xlink" version="1.1"
   viewBox="94 -151 2414 2169">
   <path fill="currentColor"
      d="M1312 1477q-53 0 -102 -20.5t-90 -57.5q-79 67 -202 67q-62 0 -120.5 -24.5t-96.5 -67t-38 -95.5q0 -33 16 -65q-56 -51 -56 -118q0 -29 12 -49.5t35 -43.5q-23 -20 -35 -42.5t-12 -52.5q0 -57 35 -98.5t93 -64t125 -22.5q43 0 83 10t82 33l88 121q-56 -35 -91.5 -53
t-70 -24.5t-88.5 -6.5q-76 0 -126 28t-50 81q0 28 17 56t42 37q-29 12 -44 40t-15 51q0 25 18 56.5t49 42.5q-15 14 -21 32t-6 38q0 48 48.5 84.5t126.5 36.5q67 0 121 -23t84 -60q40 45 88 69.5t101 24.5q88 0 142 -47.5t54 -122.5q0 -18 -2 -31.5t-6 -29.5l101 -101
q22 29 49 42.5t61 13.5q62 0 108 -63.5t46 -154.5q0 -46 -12 -86q13 -46 13 -81q0 -64 -31 -116.5t-83.5 -84t-116.5 -31.5q-59 0 -111.5 30t-87.5 83l-65 -46q44 -66 113 -106.5t151 -40.5q87 0 157.5 42.5t112 113t41.5 156.5q0 38 -10 81q9 40 9 86q0 82 -31.5 149.5
t-84.5 108t-118 40.5q-28 0 -55 -9t-50 -23l-19 21q1 8 1 17v20q0 115 -81.5 182.5t-194.5 67.5zM930 1978q-52 0 -77 -25.5t-25 -65.5q0 -29 4.5 -48.5t11.5 -38.5l64 22q-12 29 -12 55q0 19 10 28t26 9q34 0 50 -26.5t16 -83.5h68q0 83 -35.5 128.5t-100.5 45.5zM962 1862
q-85 0 -142.5 -54.5t-57.5 -138.5q0 -58 37 -108.5t106 -58.5l3 63q-40 11 -58 43t-18 61q0 48 35.5 86t94.5 38q57 0 92 -36.5t35 -84.5q0 -28 -14 -57t-46 -53v-66q68 19 99.5 66.5t31.5 100.5q0 49 -24 95t-68.5 75t-105.5 29zM1285 1977q-61 0 -78.5 -32.5t-17.5 -54.5
q0 -13 3 -32.5t7 -41.5l67 13q-9 36 -9 50q0 34 36 34q39 0 56 -24.5t27 -89.5l67 11q-14 88 -51.5 127.5t-106.5 39.5zM965 1660q-37 0 -63 -17t-31 -50l-27 -175l71 -11l27 166q2 15 23 15q26 0 27 -14l21 -181l72 8l-23 196q-3 26 -31 44.5t-66 18.5zM1317 1862
q-84 0 -139.5 -55.5t-55.5 -140.5q0 -57 31.5 -99.5t90.5 -59.5l3 60q-55 44 -55 102q0 51 36.5 87t88.5 36q53 0 90.5 -35.5t37.5 -87.5q0 -68 -68 -112l-8 -65q68 13 107 60t39 112q0 83 -56.5 140.5t-141.5 57.5zM1311 1660q-37 0 -61 -17t-29 -50l-26 -173l71 -11
l26 165q2 14 19 14q14 0 20.5 -2.5t7.5 -8.5l24 -184l71 9l-25 195q-3 26 -31 44.5t-67 18.5zM426 718q-23 0 -40 -14.5t-17 -36.5q0 -27 21 -49l66 -67l94 65l-72 72q-30 30 -52 30zM424 464l-25 -132l126 -13q0 66 -19 102.5t-82 42.5zM804 742q-1 -8 -4.5 -17t-10.5 -16
q-14 -14 -40.5 -22t-64.5 -14q-175 -28 -254.5 -100t-79.5 -202q0 -53 40.5 -76t132.5 -23q61 0 121.5 -2t105.5 -5.5t58 -6.5l72 54q-22 13 -80.5 19.5t-133 8.5t-143.5 2q-60 0 -81.5 12t-21.5 47q0 79 65 128t213 73q78 13 131 40.5t53 78.5q0 10 -1 15zM1892 1667
q-96 0 -96 -150h68q0 54 7.5 70.5t20.5 16.5q23 0 32.5 -19t9.5 -81h68q0 86 -26.5 124.5t-83.5 38.5zM799 513q-20 0 -35 -15t-15 -35t15 -35t35 -15t35 15t15 35t-15 35t-35 15zM1896 1557q-85 0 -141.5 -53t-56.5 -136q0 -80 52 -156l58 55q-21 26 -30.5 53.5t-9.5 50.5
q0 55 36 85.5t89 30.5q51 0 86 -32.5t35 -87.5q0 -44 -29.5 -80t-79.5 -56l-37 -63q96 6 156 64.5t60 144.5q0 71 -52.5 125.5t-135.5 54.5zM1129 887q-59 -46 -92 -107t-51 -128t-32.5 -132t-35.5 -120t-62 -91l91 33q45 47 63 113t32 135.5t45.5 130t104.5 96.5
q68 -20 119 -72t60 -98q-57 -25 -84 -60.5t-42 -79.5t-35 -92.5t-62 -98.5l56 -40q40 43 62 96t40 100.5t45.5 78.5t77.5 31q11 0 23 -2q0 79 -47 149t-121 114t-155 44zM1850 1350q-16 0 -35.5 -7.5t-45.5 -41.5l-100 -131l61 -45l105 138q8 11 15 11q9 0 12.5 -6t1.5 -12
l-58 -138l70 -29l61 145q17 40 -9.5 78t-77.5 38zM1308 769q-72 -10 -110 -47t-56.5 -88.5t-31 -107.5t-31.5 -105t-60 -79l73 9q38 40 55 87t28 93t27 86.5t50.5 68t101.5 36.5zM1050 376q-91 0 -166 -32t-119.5 -86.5t-44.5 -120.5q0 -67 44.5 -121t119.5 -86t166 -32
t166 32t120 86t45 121q0 66 -45 120.5t-120 86.5t-166 32zM1050 298q69 0 126 -23t91 -60t34 -78q0 -42 -34 -79t-90.5 -59.5t-126.5 -22.5q-105 0 -177.5 48.5t-72.5 112.5q0 42 33.5 79t90.5 59.5t126 22.5zM1870 595l-79 -78q35 -14 53 -47t18 -87l98 34q0 31 -13.5 66.5
t-34 66t-42.5 45.5zM2009 491q-66 0 -121 -32.5t-87.5 -87t-32.5 -120.5t32.5 -120.5t87.5 -87t121 -32.5q67 0 121.5 32.5t87 87t32.5 120.5t-32.5 120.5t-87 87t-121.5 32.5zM2009 411q67 0 114 -47t47 -113t-47 -113t-114 -47t-114 47t-47 113t47 113t114 47z" />
</svg>