<?xml version="1.0" standalone="no"?>
<!DOCTYPE svg PUBLIC "-//W3C//DTD SVG 1.1//EN" "http://www.w3.org/Graphics/SVG/1.1/DTD/svg11.dtd">
<svg xmlns="http://www.w3.org/2000/svg" xmlns:xlink="http://www.w3.org/1999/xlink" version="1.1"
   viewBox="94 -151 2414 2169">
   <path fill="currentColor"
      d="M1386 1978q-76 0 -120.5 -23.5t-44.5 -63.5q0 -27 12 -47.5t26 -39t19 -38.5l50 -213q5 -21 3 -55t-9 -69t-17 -58q-26 4 -60.5 7t-101.5 3q-259 0 -390 -147.5t-131 -440.5v-135q-46 -18 -74.5 -32.5t-53.5 -32.5q-21 8 -49 16.5t-78 8.5q-82 0 -139.5 -64t-57.5 -154
q0 -93 64 -170t172 -99l149 -31l252 -132q15 -35 41.5 -52.5t60.5 -17.5q39 0 65 21.5t35 59.5q34 12 69 42q23 -6 43 -6q52 0 88 38.5t36 96.5q0 41 -21.5 78t-59.5 65q-4 88 -33 163t-73 122q-5 24 -7.5 44t-2.5 43q0 60 18.5 91t61.5 40q12 -63 43.5 -106.5t83.5 -80.5
q-7 -40 -10.5 -76.5t-3.5 -71.5q0 -130 35 -238t95.5 -173t136.5 -65q53 0 98.5 37t79.5 96q31 -54 76.5 -91t98.5 -37q82 0 143.5 73.5t98 207t42.5 315.5q98 72 150.5 190.5t52.5 319.5q0 43 20.5 98t41 105t20.5 78q0 27 -23.5 46t-71.5 19q-44 0 -87 -26t-72 -61
q10 36 19.5 80t16 81.5t5.5 56.5q-1 17 -11.5 66t-24 102.5t-25.5 85.5q-25 70 -66 97t-119 27q-55 0 -91.5 -26t-36.5 -64q0 -34 16 -59t33 -44t20 -34l36 -154q5 -19 -4 -54t-25 -73t-34 -64q-55 19 -130.5 31t-158.5 14v39q0 25 5 61.5t5 56.5q0 14 -4.5 36t-17.5 69
l-26 96q-7 25 -6 43.5t1 35.5q0 61 -39 89t-128 28zM1046 1916q-52 0 -85.5 -15t-33.5 -38q0 -26 28 -48.5t34 -44.5l44 -169q3 -11 1 -51t-7.5 -95.5t-12.5 -110.5l199 5q7 62 11 122.5t4 104t-6 57.5l-74 187q-4 12 -3.5 33.5t-6.5 36.5q-5 11 -31 18.5t-61 7.5z
M1056 1510q-49 0 -99 -17.5t-96 -56.5q-72 0 -145.5 -22.5t-122.5 -81t-49 -167.5q-77 -52 -106 -107t-29 -105q0 -59 26.5 -110.5t53 -85.5t26.5 -39q0 -16 -18 -65t-18 -103l29 -12l162 84l13 365l101 214l248 118l270 19q0 42 -34 81.5t-90 65t-122 25.5zM330 402
q-31 -8 -59.5 -36t-28.5 -49q0 -15 14 -15q11 0 38 14.5t46 31.5q58 -23 76 -23t18 17q0 19 -29 35.5t-75 24.5zM1711 1844q-86 0 -86 -44q0 -24 14 -50t25 -41q6 -8 15 -40t16 -67t7 -50q0 -18 -7 -64.5t-19 -100.5l163 -36q17 73 27 127t5 71l-47 186q-16 66 -38.5 87.5
t-74.5 21.5zM1386 1903q38 0 62 -12t24 -30q0 -24 -1.5 -41.5t3.5 -36.5l34 -123q11 -40 14 -53.5t3 -26.5q0 -32 -4.5 -65.5t-4.5 -51.5v-118h37q101 0 200.5 -14t178.5 -42q28 48 51.5 106.5t37 107.5t8.5 70l-40 175q-5 23 -21.5 35.5t-31 23t-14.5 28.5q0 16 20 28.5
t45 12.5q29 0 52.5 -13.5t32.5 -35.5q7 -17 18 -52.5t21.5 -76t18 -72.5t7.5 -42q0 -59 -18 -155.5t-78 -274.5l71 -35q24 57 62 112t77 91t65 36t26 -31q0 -13 -18.5 -51.5t-37 -86.5t-18.5 -87q0 -132 -21.5 -221t-66.5 -150.5t-115 -109.5q0 -162 -30.5 -286.5
t-77.5 -194.5t-96 -70q-38 0 -74 47.5t-58 123.5l-81 -6q-30 -79 -66.5 -124.5t-73.5 -45.5q-42 0 -85.5 58t-72.5 148.5t-29 189.5q0 52 6.5 100t12.5 83q-66 33 -105.5 94.5t-44.5 143.5q-104 -2 -163 -49t-59 -168q0 -35 5.5 -67.5t15.5 -69.5q44 -30 69.5 -105
t25.5 -177q41 -18 61 -44t20 -52q0 -29 -19 -45.5t-54 -16.5q-33 0 -64 14q-8 -15 -31.5 -24t-61.5 -9l-273 61q-28 22 -47.5 32.5t-39.5 15.5l-149 31q-83 17 -129.5 71.5t-46.5 119.5q0 59 36 98.5t91 39.5q58 0 134 -35q33 30 74.5 52.5t116.5 42.5v195
q0 259 107.5 383.5t333.5 124.5q52 0 113 -4.5t105 -11.5q19 41 31.5 96t17 107t-3.5 85l-53 224q-4 17 -25 34t-21 35q0 17 21 27t58 10zM793 388q-14 0 -14 -11q0 -10 15 -24t22 -29q-11 0 -17 -2q-11 16 -30.5 29t-33.5 13q-17 0 -17 -15q0 -9 19.5 -17t30.5 -21
q-6 -3 -12 -7q-30 25 -57 25q-21 0 -21 -14t18 -16t39 -21q-5 -10 -5 -15q0 -22 60 -22q90 0 90 37q0 17 -27 34q-7 31 -24.5 53.5t-35.5 22.5zM639 236q-40 0 -63.5 -28t-23.5 -75q-22 12 -45 12q-37 0 -64 -28.5t-27 -73.5q0 -62 62.5 -101t162.5 -39q98 0 177.5 37.5
t110.5 98.5q-76 94 -152.5 145.5t-137.5 51.5zM1699 554q-29 0 -42 -27.5t-20.5 -63t-19 -63t-37.5 -27.5q-24 0 -33.5 26t-20 52t-38.5 26q-23 0 -32.5 -19.5t-14 -44.5t-13.5 -44.5t-30 -19.5q-25 0 -42.5 19.5t-33.5 39t-38 19.5l93 -319l179 -86l154 181l133 -188
l195 148l47 235q-21 0 -35 -21.5l-28 -43t-35 -21.5q-14 0 -22 18.5t-8 71.5q0 37 -5.5 53t-23.5 16q-26 0 -40.5 -24.5t-32.5 -48.5t-54 -24q-25 0 -33.5 27t-13 63t-15.5 63t-40 27z" />
</svg>