<?xml version="1.0" standalone="no"?>
<!DOCTYPE svg PUBLIC "-//W3C//DTD SVG 1.1//EN" "http://www.w3.org/Graphics/SVG/1.1/DTD/svg11.dtd">
<svg xmlns="http://www.w3.org/2000/svg" xmlns:xlink="http://www.w3.org/1999/xlink" version="1.1"
   viewBox="94 -151 2414 2169">
   <path fill="currentColor"
      d="M1322 1978q-88 0 -148.5 -35t-60.5 -98q0 -41 7 -67t7 -53v-244q0 -38 -6 -52.5t-22 -14.5q-15 0 -22 14t-7 46v237q0 109 -55 162t-169 53q-84 0 -133 -35.5t-49 -97.5q0 -32 15.5 -60.5t31 -50t15.5 -34.5v-247q-32 -70 -52.5 -163t-20.5 -169q0 -49 8.5 -93.5
t24.5 -75.5l72 36q-12 22 -18.5 57t-6.5 76q0 76 21 164t52 150v265q0 27 -15.5 51.5t-31 47t-15.5 46.5q0 53 102 53q80 0 112 -30t32 -105v-237q0 -66 29 -103t77 -37q52 0 81.5 40.5t29.5 106.5v244q0 31 -7 55t-7 65q0 21 36 37t93 16q40 0 76 -16t36 -44
q0 -33 -14.5 -90.5t-3.5 -117.5l44 -228q62 -12 122 -35.5t141 -69.5v237q0 28 -25.5 56t-25.5 58q0 18 20.5 31t53.5 13q71 0 115 -44t44 -114q0 -14 -2 -55.5t-4 -86.5t-2 -67q0 -21 2.5 -64t7.5 -92t12 -87q59 0 115.5 -17.5t93 -45.5t36.5 -58q0 -21 -15 -21
q-17 0 -58.5 19t-80.5 19q-43 0 -77.5 -28t-57.5 -68q-31 -55 -69 -90t-90 -54.5t-127 -27.5l8 -68q102 14 166 44t101.5 66t60.5 70t43 55.5t50 21.5q34 0 63 -14t56 -27.5t54 -13.5q30 0 46 19t16 57q0 91 -71 154t-189 80q-6 33 -11 72.5t-5 98.5q0 53 4 116t4 93
q0 69 -31 123t-85 84.5t-123 30.5q-65 0 -108 -28.5t-43 -81.5q0 -32 24 -70.5t24 -57.5v-110q-52 29 -115 45l-34 177q-8 43 6 99t14 93q0 56 -59.5 98t-132.5 42zM834 1871l-50 -5q-3 -15 -3 -35q0 -29 7 -56l49 10q-6 25 -6 48q0 20 3 38zM886 1871q-10 -26 -10 -56
q0 -8 0.5 -16t1.5 -16l49 5q-1 7 -1 13v12q0 28 10 53zM1286 1918l-50 -5l8 -107l50 5zM1345 1918l-8 -107l50 -5l8 107zM1102 1234q-71 0 -119.5 -53t-53.5 -130h338q-7 83 -52.5 133t-112.5 50zM1721 1695l-49 -5q-1 -8 -2 -17t-1 -17q0 -29 10 -58l50 12q-11 30 -11 55
q0 12 3 30zM1812 1704l-48 -5q-1 -8 -2 -17.5t-1 -16.5q0 -25 11 -58l48 12q-11 30 -11 55q0 12 3 30zM494 638q-147 0 -147 -465q0 -54 39.5 -101t105 -76t143.5 -29q64 0 98.5 19t46.5 50q-26 23 -43 75t-30 135q-28 184 -86 288t-127 104zM1031 905q-71 0 -133 -96
l42 -27q48 73 91 73q21 0 34.5 -20t13.5 -58h54q0 38 13.5 58t34.5 20q43 0 91 -73l42 27q-62 96 -133 96q-43 0 -75 -40q-32 40 -75 40zM1466 1225q-24 0 -41 -17t-17 -41t17 -41t41 -17t41 17t17 41t-17 41t-41 17zM853 634q-28 0 -48 -23.5t-20 -57.5t20 -57.5t48 -23.5
t48 23.5t20 57.5t-20 57.5t-48 23.5zM1106 795q-52 0 -84.5 -20t-32.5 -54q0 -33 32.5 -53t84.5 -20q53 0 85 20t32 53q0 34 -32 54t-85 20zM1096 1115q-121 0 -225 -50.5t-181.5 -142t-120.5 -213.5t-43 -265q0 -260 140 -403t396 -143q179 0 312 70.5t207 198t74 297.5
q0 138 -42.5 256.5t-118.5 207t-177.5 138t-220.5 49.5zM1096 1035q136 0 244 -75t171.5 -204.5t63.5 -291.5q0 -148 -63 -257t-178 -169t-272 -60q-223 0 -339.5 119.5t-116.5 346.5q0 168 64.5 302t175.5 211.5t250 77.5zM1714 1051q-88 0 -150 -60t-62 -147
q15 -8 35.5 -39t36 -67t15.5 -55q129 11 200.5 69t71.5 151q0 68 -39.5 108t-107.5 40zM1333 604q-28 0 -48 -23.5t-20 -57.5t20 -57.5t48 -23.5t48 23.5t20 57.5t-20 57.5t-48 23.5zM1668 542q-73 0 -128.5 -75t-106.5 -248q-24 -81 -48.5 -130t-54.5 -68
q14 -53 71.5 -72.5t115.5 -19.5q120 0 180 44.5t80 129.5t20 207q0 232 -129 232z" />
</svg>