<?xml version="1.0" standalone="no"?>
<!DOCTYPE svg PUBLIC "-//W3C//DTD SVG 1.1//EN" "http://www.w3.org/Graphics/SVG/1.1/DTD/svg11.dtd">
<svg xmlns="http://www.w3.org/2000/svg" xmlns:xlink="http://www.w3.org/1999/xlink" version="1.1"
   viewBox="94 -151 2414 2169">
   <path fill="currentColor"
      d="M1300 1928q-331 0 -568 -92t-364 -264t-127 -412q0 -113 9.5 -194t36.5 -161t77 -190q-91 -128 -132.5 -199.5t-41.5 -106.5q0 -32 34.5 -77.5t90 -95t118.5 -92t121.5 -69.5t98.5 -27q53 0 110.5 35.5t93.5 94.5q68 -26 182 -52t261 -26t261 26t182 52
q36 -59 93.5 -94.5t110.5 -35.5q40 0 98.5 27t121.5 69.5t118.5 92t90 95t34.5 77.5q0 35 -41.5 106.5t-132.5 199.5q51 110 77.5 190t36 161t9.5 194q0 240 -127 412t-364 264t-568 92zM1300 1658q-136 0 -264 -44.5t-232 -127.5l47 -65q96 76 210.5 116.5t238.5 40.5
q125 0 239 -40.5t210 -116.5l47 65q-103 83 -231.5 127.5t-264.5 44.5zM816 1105q-49 0 -84.5 -41t-35.5 -99q0 -59 35.5 -99.5t84.5 -40.5q50 0 85 40.5t35 99.5q0 58 -35 99t-85 41zM1176 1368q28 0 45 -38t17 -96t-17 -96t-45 -38t-45 38t-17 96t17 96t45 38zM343 761
l56 -117l-179 -316q27 -15 57 -15q33 0 68 21t74.5 48t83.5 48t94 21q89 -192 145 -192q34 0 34 70q0 66 -37.5 140.5t-96.5 141t-126.5 108.5t-127.5 42h-45zM1300 1493q-172 0 -274 -70t-102 -191q0 -83 48 -146.5t133 -99.5t195 -36q111 0 195.5 36t132.5 99.5t48 146.5
q0 121 -101.5 191t-274.5 70zM1424 1368q28 0 45 -38t17 -96t-17 -96t-45 -38t-45 38t-17 96t17 96t45 38zM1300 1848q309 0 528 -82t335 -236t116 -370q0 -87 -5 -149.5t-19 -118.5t-41 -123t-71 -163q97 -131 141.5 -205.5t44.5 -91.5t-31 -50.5t-79 -73t-101 -75.5
t-99 -59t-72 -23q-33 0 -70.5 25t-66 59.5t-34.5 65.5q-27 -18 -79.5 -35.5t-120.5 -31.5t-139.5 -22.5t-136.5 -8.5q-64 0 -136 8.5t-140 22.5t-120.5 31.5t-79.5 35.5q-6 -31 -34.5 -65.5t-66 -59.5t-70.5 -25q-25 0 -71.5 23t-99.5 59t-101 75.5t-79 73t-31 50.5
t44.5 91.5t141.5 205.5q-44 96 -71 163t-41 123t-19 118.5t-5 149.5q0 216 116 370t335 236t528 82zM1784 1105q-49 0 -84.5 -41t-35.5 -99q0 -59 35.5 -99.5t84.5 -40.5q50 0 85 40.5t35 99.5q0 58 -35 99t-85 41zM2212 761q-60 0 -127.5 -42t-126.5 -108.5t-96.5 -141
t-37.5 -140.5q0 -70 34 -70q56 0 145 192q50 0 94 -21t83.5 -48t74.5 -48t68 -21q30 0 57 15l-179 316l56 117h-45z" />
</svg>