<?xml version="1.0" standalone="no"?>
<!DOCTYPE svg PUBLIC "-//W3C//DTD SVG 1.1//EN" "http://www.w3.org/Graphics/SVG/1.1/DTD/svg11.dtd">
<svg xmlns="http://www.w3.org/2000/svg" xmlns:xlink="http://www.w3.org/1999/xlink" version="1.1"
   viewBox="94 -151 2414 2169">
   <path fill="currentColor"
      d="M601 1978q-67 0 -114 -47.5t-47 -114.5q0 -66 47 -112t114 -46h1155q124 0 124 -123v-1449q0 -108 -109 -108h-1240v1765l-91 73v-1746q0 -88 45 -130t126 -42h1166q63 0 100.5 21t57.5 68h91q58 0 96 36.5t38 91.5v1658q0 105 -53 155t-151 50h-1355zM681 1622v-82
q13 -24 36.5 -19.5t20.5 32.5q-9 21 -4.5 26t14.5 7q7 1 14 3t13 8q14 18 4 29t-25 8t-17 -26q-3 -8 -8 -5l-10 6q-9 6 -18 11t-20 2zM792 1529q-7 -2 -9.5 -8t-4.5 -13q-1 -2 0.5 -5.5t2.5 -5.5q2 -5 3.5 -8.5t-2.5 -7.5q-6 -6 -16 -8t-15 -9q-9 -16 -11 -33q0 -10 -4 -21
t-16 -9q-9 6 -18.5 11t-20.5 7v-86q11 -9 23 -16q9 -6 26.5 -5t26.5 8.5t-7 21.5q-4 2 -8.5 5.5t-5.5 8.5q-1 9 5.5 14t13.5 12l3 2q29 29 25 62q-6 17 11 23q28 9 30 36q1 11 -9.5 19.5t-22.5 4.5zM878 1590q-14 -8 -13.5 -16t4.5 -19q1 -2 2.5 -4.5t2.5 -6.5q4 -9 4.5 -17
t11.5 -12q22 -7 30 8t5 36t-15.5 33t-31.5 -2zM1010 1625q-7 16 -21.5 10.5t-13.5 -21.5q1 -8 5 -27.5t17 -14.5q14 4 15 25t-2 28zM681 1280v-84q18 -11 36 10.5t-5 41.5q-7 6 -15 17t-16 15zM1137 1636q-10 10 -30 6.5t-15 -22.5q6 -17 0.5 -21.5t-14.5 -6.5
q-6 -2 -11.5 -3.5t-10.5 -5.5q-16 -23 3 -42q16 -16 31 0q6 7 5 17t8 18q5 4 12 5t13 4q15 7 19 23t-10 28zM1015 1498q-6 -2 -11 -8t-10 -8q-6 -2 -11 -1.5t-9 0.5t-7 0.5t-7 0.5q-8 0 -21.5 -11.5t-6.5 -21.5q5 -8 26 -2q14 3 20 2q8 -2 15.5 -4t15.5 -3q17 -2 32 13t4 33
q-10 17 -30 10zM892 1414q-6 0 -12 -3q-12 -6 -27 -2q-19 8 -23 -17q-2 -9 -3 -30.5t5 -37.5t23 -7q13 6 13 26q0 1 -2 7t-3.5 11t4.5 10q4 3 9 2t10 -1l6 -2q29 -2 32 21t-32 23zM1173 1565q-5 -3 -8 -5.5t-8 -5.5q-12 -8 -23.5 -26t19.5 -21q15 -2 24.5 9t15.5 22
q8 13 2 24.5t-22 2.5zM855 1277q-13 -17 -11.5 -32.5t23.5 -24.5q16 -6 41 0.5t11 30.5q-3 5 -9 13q-12 16 -24 27t-31 -14zM1312 1672q-10 0 -18.5 -5.5t-19.5 -10.5q-4 -2 -8 -5t-9 -5q-17 -9 -13 -23.5t21 -18.5q14 -4 35 -2.5t32 14.5t4.5 33.5t-24.5 22.5zM744 1118
q-13 6 -20.5 -1.5t-12.5 -18.5q-6 -14 -13 -18q-9 -4 -17 -6v-68q25 -1 37 14q7 9 17 13q4 1 7.5 1h7.5q10 0 15 1q15 3 20 20q4 13 -16 12t-27 -5q-2 6 0.5 12.5t3.5 12.5l4 16t-6 15zM1133 1458q-18 0 -26 -17t-11 -31v-1q0 -5 -2 -10t1 -10t6.5 -8.5t4.5 -8.5
q2 -9 -7.5 -15t-17.5 -3q-9 3 -15 10.5t-11 14.5q-12 20 -31 19t-23 -26q-1 -12 4 -18.5t12 -13.5q8 -8 10 -13q4 -8 -2 -16.5t-15 -10.5q-5 -2 -13 -1l-16 2q-10 1 -21 2t-18 -6t-3 -14.5t10 -12.5q21 -20 37 -4q2 1 3 1t2 2q8 8 24 2l9 -3q5 -2 8.5 -3.5t8.5 -0.5
q11 1 16 14t11 23q16 27 47 24q22 -5 29 -1.5t11 26.5q1 5 8 14q5 7 9 12.5t1 11.5q-5 11 -22 12t-17 13q0 5 8 13q2 2 4 5l4 6q5 6 -2 13.5t-15 7.5zM813 1227q-17 13 -39 2t2 -31q1 0 1.5 -0.5t1.5 -0.5q15 0 26 -12t9 -29q-4 -13 -2 -26t17 -19q6 -2 11.5 1t9.5 5
q12 6 17 3q7 -3 6 -14t-3 -23q-1 -6 -1 -19q0 -7 -2 -10t-6.5 -4t-8.5 -2q-9 -4 -13 -13t3 -16q8 -11 25 -9.5t26 14.5q7 10 6.5 21t-2.5 23q-3 20 1 38q1 3 3.5 7t4.5 8q6 10 10.5 21t-3.5 21q-10 8 -26 3q-5 -2 -9.5 -1.5t-9.5 0.5q-22 0 -30 25t-25 37zM501 1728v-1767
h203v1767h-203zM1279 1564q-8 -5 -10.5 -14t-7.5 -16q-5 -3 -16 -3q-10 0 -14 -2q-7 -4 -9.5 -12.5t3.5 -14.5q10 -10 30 -10q10 0 15 -1q13 -4 9 -19q-3 -10 -15 -13t-22 -8q-17 -9 -14.5 -23t18.5 -15q7 -1 13 -3t13 -2q-1 0 5 -3t13.5 -5t12.5 8q3 5 1.5 10.5t-2.5 10.5
q-1 4 -2 9t0 9q2 6 5 10.5t6 9.5q4 6 8 10.5t4 10.5q0 10 -8.5 16t-15.5 14q-7 7 -5.5 15t1.5 16q0 3 3 9q-1 4 -7.5 6.5t-11.5 -0.5zM1374 1697l13 -13t10 -13t5.5 -14.5t4.5 -14.5q10 -17 30 -20.5t35.5 6t9.5 32.5q-3 12 11 14q14 5 28.5 7.5t25.5 10.5l-67 7
q-8 -5 -32 -3t-24 1q0 -15 -9 -10zM1015 1189q-13 8 -32.5 6.5t-27.5 -12t12 -27.5q13 -11 10.5 -18t-9.5 -14q-13 -13 -7 -26q9 -20 32.5 -11.5t23.5 27.5q0 8 -3 14q-1 1 -1.5 4t-2.5 5q-6 8 1 14.5t11 13.5q2 2 2 3.5t1 2.5q4 12 -10 18zM1119 1248q-2 2 -12 -1
q-16 -4 -31.5 -19.5t-14.5 -34.5q2 -18 15.5 -16.5t22.5 15.5q4 6 6 12t5 12t5 8q5 4 7 11.5t-3 12.5zM838 971q-32 -2 -52 -16q-9 -9 -10.5 -25.5t8.5 -26.5q13 -11 29 -1t29 21q8 6 9 7q27 16 20.5 27.5t-33.5 13.5zM1404 1576q-4 -4 -5 -9t-4 -9q-4 -5 -11.5 -6t-12.5 -2
q-21 -6 -21 -28t16 -32q11 -7 21 -7q3 0 5 1.5t4 2.5q11 4 15 2q5 -3 5 -8.5v-11.5q0 -8 1 -15.5t11 -8.5q18 -2 18 11q0 3 -1 5.5t-2 5.5t-1 9q1 10 7.5 18t10.5 16q8 10 13 13q6 4 15 4t14 6q10 16 -9 24t-32 3q-9 -4 -15.5 -12t-15.5 -11q-7 -2 -9 2.5t0 9.5q5 11 0 21.5
t-17 5.5zM1236 1360q-7 -4 -8 -11.5t-5 -14.5q-5 -10 -14 -11t-15 -7q-7 -8 -4.5 -10.5t10.5 -6.5q18 -10 38.5 -3.5t36.5 17.5q11 4 21 5.5t17 10.5q10 12 0 18q-7 4 -17 4h-9q-7 0 -19 6q-8 4 -16 5.5t-16 -2.5zM1618 1676q-10 -4 -20.5 -10.5t-21.5 -13.5
q-28 -25 -13.5 -35t44 -9t44.5 9q25 10 24 27t-17.5 28.5t-39.5 3.5zM1341 1374q0 -24 13 -25.5t26 5.5l13 7q11 25 -3 36t-31.5 6t-17.5 -29zM1173 1171q-17 7 -37.5 -10t-26.5 -34q-7 -20 19 -24q10 -2 17 4.5t14 13.5q3 3 5.5 6t6.5 6q14 6 15 18.5t-13 19.5zM1014 1014
q-7 -7 -13 -16t-17 -13q-6 -2 -18 5q-11 7 -19 4q-19 -7 -15.5 -31.5t13.5 -32.5q8 -7 12.5 -3.5t10.5 9.5q5 5 11.5 10.5t16.5 3.5l11 -3q12 -3 23 -2q25 3 29 29t-8.5 43.5t-36.5 -3.5zM1562 1549q-8 -8 -13.5 -26t5.5 -27q6 -5 16 -5q18 0 26.5 15.5t6.5 30.5
q-3 18 -16 21t-25 -9zM744 809q-31 -22 -33.5 -64t21.5 -69q11 -12 33 -21t38 -4q14 4 27 21.5t-12 23.5q-4 1 -14 1q-9 0 -18 2t-13 11q0 -1 3 5q13 4 23 18t-5 25q-7 5 -24 -1q-9 -3 -17 -2t-8 12q2 5 8 9.5t10 11.5q5 9 -1.5 17t-17.5 4zM1292 1247q-6 1 -12 -0.5
t-12 -1.5q-3 0 -11 -2q-6 -2 -11.5 -1t-11.5 1q-15 0 -29 -1.5t-25 -12.5q-5 -6 -6 -16.5t7 -14.5q8 -2 17.5 0.5t17.5 5.5q11 4 22 6t21 -5q4 -3 6.5 -5.5t6.5 -4.5q17 -10 46 -5v-6q0 -9 2 -19.5t15 -4.5q11 5 9 24q-1 9 3 18q3 6 7 9q10 6 8 17q-2 10 -11.5 10.5
t-19.5 0.5h-10q-7 0 -14 3.5t-15 4.5zM1017 909q-14 -1 -23 -24q-11 -25 -29 -22q-9 1 -16 8q-4 4 -9 5.5t-16 -3.5q-8 -4 -13 -4q-4 0 -6 1q-10 5 -25.5 4.5t-22.5 -13.5q-4 -18 14 -27t33 -4q7 2 13.5 7t13.5 7q20 4 23 -9q1 -4 0 -6.5t-1 -4.5q0 -3 -2 -5q-10 -10 5 -22
t28 -7q11 4 19 12.5t18 13.5q35 14 24 59q-1 12 -7.5 23.5t-20.5 10.5zM1264 1159q-13 -2 -20 -14.5t-7 -25.5q0 -2 3 -11q6 -15 0 -24q-5 -8 -14.5 -8.5t-18.5 -0.5q-1 0 -3.5 1t-4.5 1q-29 0 -22.5 -21.5t28.5 -23.5q21 -2 31 -12q2 -2 3.5 -5.5t5.5 -4.5q8 -4 17 5
q6 9 7.5 19.5t1.5 21.5q0 9 2 17.5t2 16.5q0 1 0.5 1.5t0.5 1.5q0 4 3 7.5t1 7.5q-1 2 -3 5t-4 5q-7 9 -6 12q1 4 3 6t3 5q2 3 4.5 5t2.5 6q0 5 -5.5 6.5t-10.5 0.5zM1467 1364q-16 -2 -35.5 -25.5t-24.5 -39.5q-7 -23 3.5 -45.5t41.5 -14.5q4 1 9 8q2 4 0.5 7.5t-3.5 8.5
q-1 4 -3 7.5t1 8.5q2 3 6.5 4.5t6.5 5.5q5 6 2 11t-7 10q-6 8 -6 12q0 13 5 20q8 12 4 22zM681 615v-44q13 1 23 -17q8 -14 26.5 -21.5t29.5 9.5q5 7 2.5 16.5t-12.5 11.5q-3 1 -7 0.5t-8 1.5q-8 3 -10.5 11.5t-4.5 16.5q-8 43 -39 15zM1798 1608q-5 10 -15 7.5t-12 -14.5
q-2 -7 0 -13q1 -5 1 -12q-13 -14 -28 9q-9 13 -18 14q-17 2 -19 -18q-2 -19 7 -28q3 -3 0 -6q-10 -11 -18.5 -5.5t-15.5 12.5t-11 9q-23 11 -23.5 -10t7.5 -34q10 -14 32 -19.5t39 -2.5q37 7 61 41t13 70zM1599 1451q-10 -8 -17 -20t-20 -17q-5 -2 -17 -4q-4 -1 -9 -1
t-10 -2q-15 -7 -13 -28q1 -13 17 -20q4 -2 1 -2q4 0 5.5 -5t-3.5 -12q-4 -6 -3 -5q-6 -6 -8 -10t10 -9q11 -5 21 9q4 6 5.5 11.5t6.5 10.5q8 7 18 8.5t17 8.5q9 7 7 16l-4 18q-1 6 -3 12.5t-1 12.5q1 1 1.5 2l1.5 3q5 4 5.5 13t-8.5 10zM1137 1029q-15 7 -24 -8
q-7 -12 -5 -22t8 -21q12 -23 9 -37q-1 -6 -5.5 -15t-8.5 -16q-1 -2 -7 -8q-5 -5 -8.5 -10t4.5 -10q20 -13 41 4t21 38v4q0 8 2 17t12 15q2 1 4 0.5t3 -0.5q5 0 7 1q16 8 9 22q-7 13 -22 16.5t-24 12.5q-4 4 -7.5 9.5t-8.5 7.5zM942 740q-14 18 -34 20t-30.5 -11t2.5 -37
q8 -14 20 -25.5t25 -19.5q20 -13 31 -3.5t5 32.5q-3 11 -7 22.5t-12 21.5zM1878 1652q-12 -11 -18 -24t6 -25q6 -6 10.5 -6.5t11.5 -0.5q2 0 6.5 0.5t10.5 -0.5zM878 643q-16 4 -30 -13t-14 -30q0 -20 17 -26.5t30 9.5q11 12 12 32t-15 28zM2087 1878q-51 -11 -97 -39.5
t-75.5 -81t-31.5 -134.5l76 -84q0 98 21.5 151t56 75t73.5 29zM1535 1266q-7 0 -16 -1t-14 -8q-13 -19 9 -31.5t37 -3.5q18 11 16 28q-1 11 -11 13.5t-21 2.5zM601 1898h1355q124 0 124 -123v-1651q-22 -4 -57.5 -20.5t-64.5 -35.5q2 7 2 16.5v22.5v1426q0 105 -53 155
t-151 50h-1155q-33 0 -56.5 23.5t-23.5 56.5q0 34 23 57t57 23zM827 558q-8 4 -10.5 -3.5t-6.5 -12.5q-1 -2 -1 -3.5t-1 -2.5q-3 -6 -8 -9.5t-10 -7.5q-9 -7 -15 -13t-5 -16q3 -10 10 -17t7 -17t-1 -14q-2 -8 -2 -11q0 -18 10 -20q12 -3 12 9q0 7 2 10q6 6 12 7q18 4 29 12
q15 10 7 31q-3 8 -11.5 13t-12.5 14q-6 12 -4 28q2 14 -1 23zM1148 811q-11 10 -29 7t-22 -21q-1 -4 -1 -7t-1 -6q-1 -5 -7 -7.5t-9 -5.5q-4 -5 -6 -11.5t3 -8.5q2 -1 1 -2t0 -1q7 0 2 -10q-1 -3 -5 -3.5t-7 -1.5q-5 -3 -3.5 -9.5t5.5 -8.5q16 -5 32 9.5t17 29.5v1q0 4 2 8
q1 2 12 2q1 0 1.5 -0.5t1.5 -0.5q20 0 22 18.5t-9 28.5zM1747 1425q-8 5 -15.5 1t-15.5 -11q-7 -6 -14 -10.5t-15 -2.5q-4 1 -7 4t-8 4q-21 4 -23 -17q-1 -19 17 -24.5t33 1.5q20 9 31 -1.5t6 -30.5q-11 -42 -47 -19q-21 10 -40 -3t-20 -30t31 -17q20 0 37.5 7.5t36.5 10.5
q5 1 9.5 -1.5t10.5 -4.5q14 -5 24 -5.5t10 19.5q0 2 -0.5 5t-0.5 6q0 4 -1.5 8t-1.5 9q0 4 3.5 10t5.5 11q4 9 8 15.5t-1 13.5q-7 10 -20.5 13t-20.5 12q-4 6 -5 14t-7 13zM1354 1092q-13 -8 -19 -21t4 -26l0.5 -0.5t0.5 -1.5q0 -17 9.5 -25.5t-17.5 -6.5q-16 -3 -18 -19
t-5 -29q-10 -18 -1.5 -30t29.5 -10h12q17 0 22 2q8 3 6.5 11t-9.5 10q-11 3 -16.5 15.5t-1.5 23.5q3 9 10.5 8t12.5 -6q6 -12 12 -14q13 -5 27 15.5t3 29.5q-4 3 -8.5 4.5t-9.5 3.5q-15 5 -15 22v14q0 5 1 10t-1 10q-2 7 -11 10.5t-17 -0.5zM1491 1178q-6 -2 -10.5 -8.5
t-10.5 -10.5q-20 -13 -41 2q-15 16 -32.5 6t-11.5 -30q5 -15 15.5 -17t20.5 -1q11 1 19.5 -1t8.5 -17q0 -6 -1 -14t-3 -16q-4 -25 -4 -48.5t27 -28.5q21 -4 27 16q2 7 -2 23q-1 4 -3 8.5t-1 9.5q1 6 4 11.5t7 11.5q4 7 7.5 13.5t2.5 14.5q-1 6 -5 11.5t-5 12.5q-1 5 2 9.5
t5 9.5q2 4 5 8.5t3 9.5q0 9 -8 13.5t-16 1.5zM702 386q-12 -14 -4 -31q8 -15 32 -19t26 19q1 8 -6 14t-13 12l-1 1q-9 6 -17.5 9.5t-16.5 -5.5zM1908 1518q-11 4 -19 -0.5t-18 -10.5q-4 -2 -7.5 -5.5t-7.5 -4.5q-5 -2 -9.5 -2.5t-9.5 -2.5q-13 -7 -13.5 -16t12.5 -15
q5 -2 11 -5t9 -7q6 -9 7 -20.5t9 -15.5t20 -3t17 9zM928 545q-13 -5 -23.5 -27.5t14.5 -22.5q10 1 17 7t13 13q11 13 3.5 25.5t-24.5 4.5zM1678 1226q-20 11 -42 -4t-27 -36q-1 -7 -3 -15t-8 -11q-3 -2 -6 -2t-5 -1q-1 -1 -3.5 -0.5t-4.5 0.5q-16 0 -19.5 -21.5t11.5 -27.5
q17 -7 26 8.5t12 25.5q1 2 2 3.5l1 1.5q11 -1 22 0t19 9q8 7 10 17t9 18q4 4 7.5 6.5t5.5 7.5q7 13 -7 21zM1263 899q-8 3 -18 1t-11 -12q0 -9 7 -14t9 -12q6 -14 0 -27q-1 -4 -1 -7v-7q0 -10 -4 -15q-2 -4 -6.5 -6.5t-8.5 -6.5q-4 -5 -1 -11.5t8 -8.5q9 -4 14.5 0.5
t10.5 11.5q4 4 7.5 9t7.5 4q6 -1 9 -8t7 -10q14 -9 21 -9q19 -1 33.5 16.5t0.5 32.5q-5 6 -9.5 10.5t-4.5 11.5q0 6 1 9q3 8 2 11q-4 14 -17 5q-7 -3 -9 -11t-8 -12q-9 -1 -11 6.5t-5 15.5q-2 5 -2.5 10t-2.5 8q-8 11 -19 15zM1172 720q-12 -5 -18 -19.5t3 -24.5
q6 -5 18.5 2t16.5 12q10 13 3 25t-23 5zM852 417q-10 -5 -9.5 -19.5t-10.5 -20.5q-4 -2 -8 -3.5t-9 -2.5q-12 -3 -12 -13q0 -2 2 -8q3 -5 1 -7q-7 -7 -13.5 -11t-9.5 -12q-1 -4 3 -10q18 -27 40.5 -15t32.5 33q7 15 5.5 46t-12.5 43zM890 399l2 -6q4 -19 20 -24.5t29 10.5
q11 20 0.5 34.5t-27 13t-24.5 -27.5zM703 270q-8 -11 -6.5 -26t-15.5 -19v-103q11 14 19 31.5t17 27.5q10 10 17.5 7.5t14.5 -9.5q9 -9 17.5 -13t21.5 5q18 13 11 30.5t-29 14.5q-26 0 -35 22q-2 5 -2 12q0 12 -2 16q-4 8 -13 9.5t-15 -5.5zM1858 1326q-12 -6 -17 -22t2 -29
q6 -11 19 -13q16 -2 22.5 11t7.5 25q5 15 -7 25t-27 3zM1559 1025q-17 -16 -5 -33t46 -12.5t49 16.5q4 2 5 7t-4 7q-9 6 -20.5 6t-22.5 2q-3 1 -6 3t-6 3q-10 2 -18 5.5t-18 -4.5zM1301 730q-15 9 -24 -4q-8 -11 -1.5 -23t15.5 -21q4 -4 7 -8h52q-9 10 -21 16.5t-17 18.5
l-4 12t-7 9zM1431 801q-7 16 -19.5 10.5t-14.5 -19.5q-3 -14 -3.5 -29.5t13.5 -25.5q7 -5 17.5 -2.5t14.5 10.5q4 6 2.5 13t-3.5 15q-2 6 -2 9q0 5 -1.5 10t-3.5 9zM1554 945q-43 7 -47.5 -14t-3.5 -38q1 -9 0 -13.5t-10 2.5q-10 11 -28.5 17t-31.5 -10q-16 -20 7 -32
q11 -5 22 -5.5t21 -7.5q2 -2 4.5 -4t5.5 -4q8 -6 17 -11t24 0q-5 -20 12.5 -28t27.5 12q2 5 0 10.5t-4 10.5l-3 10q-3 9 -3 18t-8 14q-5 3 -16 3q-7 0 -13.5 1t-9.5 8q5 16 19 18.5t29.5 3.5t24.5 12q5 5 4.5 12.5t-7.5 10.5q-8 2 -16.5 2t-16.5 2zM740 117q-7 -5 -11 -12.5
t-9 -13.5q-7 -8 -18 -8.5t-21 3.5v-52q29 10 24.5 -10.5t-24.5 -22.5v-41q8 -5 18.5 -5.5t15.5 7.5q10 22 22 42q6 18 -2 28l-3 3q-4 4 -10 9.5t4 10.5q11 6 25.5 7.5t20.5 15.5q4 16 -4.5 32t-27.5 7zM1843 1207q-7 1 -12.5 -2.5t-12.5 -6.5q-4 -2 -7.5 -5t-8.5 -4t-20 -1
h-7q-19 0 -24.5 -13t8.5 -25q9 -11 22.5 -14t23.5 -11q3 -6 3 -19q0 -9 1 -13q5 -21 27.5 -18t41.5 16.5t14 25.5t-14.5 20.5t-14.5 19.5q-4 12 -4.5 28.5t-15.5 21.5zM850 245q-5 -4 -3 -17q1 -5 -1 -11q-4 -11 -14 -23q-12 -14 -5 -24q10 -14 23 -3q5 4 6 9t5 8
q11 9 21.5 3t18.5 -14q1 -1 1.5 -1h0.5q10 -6 22.5 -6.5t21.5 -7.5q7 -6 12 -19q4 -10 9.5 -17t17.5 -4q11 3 9 18q-3 22 -21 33t-32 25q-6 6 -12 13t-14 12q-6 4 -13.5 5.5t-14.5 5.5q-4 2 -8.5 6t-9.5 9q-10 8 -20 0zM962 311q-11 0 -11 -16q0 -11 12 -23q5 -5 8 -13
q6 -18 18.5 -33t32.5 -22q9 -3 11.5 -2t2.5 11q0 4 -1.5 7t-3.5 6q-2 4 -4.5 8.5t-1.5 10.5l3 11q2 4 3.5 8t0.5 9q-3 16 -18.5 18t-28.5 7q-2 1 -3.5 2t-3.5 2q-4 2 -7.5 5.5t-8.5 3.5zM1731 1118q-13 1 -18.5 -10t-4.5 -21q1 -8 10 -17q11 -11 11 -19q0 -10 -6 -20t-8 -20
q-2 -18 -5.5 -31t-14.5 -29q-9 -12 -8 -30.5t21 -19.5q8 1 14 6.5t14 6.5q6 1 11.5 -2t11.5 -5q7 -2 12 -5.5t11 -1.5q9 2 12.5 12t-1.5 18t-14.5 9.5t-18.5 1.5q-1 0 -1 -1v-1q-7 -2 -10 0q-4 4 -3.5 14t4.5 13q8 7 25 3l6 -2t6 -1q20 0 26.5 18.5t-13.5 26.5q-6 2 -13 1.5
t-12 4.5q-4 4 -4.5 10.5t-2.5 11.5q-1 3 -3.5 5.5t-4.5 5.5q-2 4 -5 7t-3 7q0 5 3 9t4 9q0 11 -9 22.5t-19 13.5zM867 136q-2 -1 -2 -13q0 -11 -1 -12q-4 -6 -11 -6.5t-13 -3.5q-7 -3 -9 -16q-3 -19 -18.5 -33.5t-17.5 -34.5q0 -10 11 -14q6 -2 9 1q1 1 5 1q8 0 14.5 -4.5
t13.5 -4.5q2 0 3 -1q11 -11 26 -4t20.5 19t-13.5 18l-7 3q-22 11 -21 27q1 10 9 15t15 11q10 8 11.5 23t-7.5 24t-17 5zM764 5q-18 -14 -13.5 -32.5t19 -28t25.5 5.5q8 16 -2 31.5t-21 23.5q-4 4 -8 0zM1542 769q-16 9 -33.5 -3t-19.5 -29q-1 -16 16.5 -30.5t30.5 -19.5
q17 -7 30 2t3 27q-7 13 -11 28t-16 25zM1051 694q-44 0 -75.5 -31.5t-31.5 -74.5v-202q0 -44 31.5 -75.5t75.5 -31.5h487q44 0 75 31.5t31 75.5v202q0 44 -31 75t-75 31h-487zM1051 628h487q16 0 27.5 -12t11.5 -28v-202q0 -17 -11 -29t-28 -12h-487q-16 0 -28 12t-12 29
v202q0 16 12 28t28 12zM1673 865q-13 -6 -17 -22q-1 -6 1.5 -10.5t4.5 -7.5q6 -10 6 -16q0 -10 -9.5 -14t-17.5 -8q-11 -7 -10 -16.5t2 -19.5q1 -5 2 -9t1 -8q-1 -8 -7 -19q-4 -9 -7.5 -18t5.5 -16q13 -5 22 3.5t16 19.5q3 4 6 7l6 6q8 8 12 19t5 22q5 22 22.5 24.5
t24.5 17.5q5 13 -6 32.5t-28.5 30.5t-33.5 2zM963 86q-15 3 -21.5 -8t-0.5 -24q3 -12 3.5 -25.5t12.5 -21.5q20 -15 29 5q8 16 1.5 43t-24.5 31zM1863 979q-12 -3 -16 -21t0.5 -34t19.5 -12l8 2q21 7 16 36.5t-28 28.5zM1174 288q-6 5 -15 3t-11 -9q-1 -5 -1 -14
q0 -12 -2 -14q-5 -5 -10 -3.5t-12 3.5q-6 2 -12.5 4t-11.5 -1q-8 -4 -8 -23q0 -8 -2 -18q-11 -20 -7.5 -27.5t23.5 -16.5q30 -15 23 -46l-3 -14q-1 -8 -2.5 -16.5t3.5 -15.5q5 -6 11.5 -6.5t12.5 -4.5q14 -9 21 -21q12 -20 30 -19q8 1 16 4.5t7 12.5q-1 16 -22 24.5
t-29 19.5q-5 7 -5.5 17t7.5 14q13 5 26 5.5t23 13.5q16 22 -3 36q-9 7 -18.5 6t-20.5 -5q-19 -6 -32 -2q-9 3 -12.5 13.5t3.5 15.5q5 3 10.5 4t9.5 3q8 3 12 17t9.5 31t-8.5 29zM1054 114q-12 -1 -12 -22q0 -6 -1 -8q-1 -7 -3.5 -13t-3.5 -13q-1 -16 9.5 -26t23.5 4
q14 14 7.5 34t-11.5 37q-2 7 -9 7zM1818 870q-23 -4 -20 -22q2 -11 14 -11.5t22 2.5q-22 -22 -6 -54q-15 -5 -29 -15t-10 -27q4 -16 20 -21t25 9q3 4 4 9t4 9q6 7 20 15q18 10 24 31t-2 40q-7 17 -26.5 28t-39.5 7zM1742 726q-18 3 -28 -22q-4 -11 -6.5 -24.5t9.5 -22.5
q24 -18 35 -1.5t9 40.5t-19 30zM1316 303q2 -2 3.5 -5.5t2.5 -5.5q12 -27 31.5 -18t24.5 29h-62zM1262 259q-17 -9 -15.5 -29t15.5 -29q7 -5 14.5 -7.5t14.5 -6.5q5 -3 14 -13q14 -17 22 -16q14 2 9.5 20.5t-10.5 24.5t-14 9t-12 10q-4 6 -4 13t-4 13q-12 20 -30 11zM1099 5
q-17 4 -20 -7v-7q0 -8 -1 -15t-8 -14q-4 -5 -9.5 -8t-9.5 -8q-6 -6 -6 -16h50q0 7 3.5 12.5t18.5 6.5q27 1 26.5 14.5t-15 26.5t-29.5 15zM1908 765q-17 -31 -46 -53q-16 -12 -15 -24q6 -17 25 -22t34 0zM1458 238q-7 23 -24 21.5t-32 -15.5t-18.5 -31t17.5 -26q16 -7 24 6
q2 3 8 7l9 5q10 6 16 12t0 21zM1674 626q-10 -4 -11.5 -16t7.5 -19q5 -4 10.5 -6.5t8.5 -8.5q2 -3 0 -6.5t-2 -6.5q0 -1 -0.5 -1.5t-0.5 -1.5q0 -32 21.5 -45.5t46 -11.5t36 17t-8.5 41q-7 10 -17.5 11t-20.5 -2q-3 -1 -8 -1q-6 -4 -6 4v8q0 4 0.5 8t-1.5 9q-3 6 -14 15
q-9 7 -19 12t-21 1zM1682 475q-16 16 -22.5 -4.5t0.5 -32.5l5 -8q11 -10 27.5 -15.5t29.5 2.5q14 16 -5.5 30.5t-30.5 25.5q-1 1 -2 1t-2 1zM1229 1q-4 -2 -8 -3.5t-7 -2.5q-27 -7 -10.5 -28.5t32.5 -26.5q23 -7 33.5 4.5t10.5 32.5q0 31 -15.5 31t-35.5 -7zM1489 294
q-2 -2 0 -8q4 -11 18 -24.5t35 -20.5q20 -7 20 13t-31 32l-1 2q-5 8 -18 8.5t-23 -2.5zM1337 108q-16 16 -28.5 10.5t-13.5 -20.5t15 -25q5 -3 11.5 -5.5t7.5 -8.5q2 -14 -12 -18l-6 -3q-15 -15 -6 -29q11 -18 25 -8.5t26.5 27.5t16.5 26q10 21 -9 27q-8 4 -13.5 11.5
t-13.5 15.5zM1834 639q-12 2 -22.5 2.5t-18.5 -6.5q-8 -11 2.5 -20.5t24.5 -17.5q18 -11 22 -16q11 -14 4 -41q-1 -4 -1 -14q0 -13 6 -22.5t22 -4.5q28 10 23.5 38.5t-11.5 54.5q-1 6 -3 11t-3 10q-3 24 -26 24q-7 0 -19 2zM1700 365q-4 -10 -8.5 -18.5t-17.5 -11.5
q-4 -1 -13 -1q-14 0 -25 -8q-4 -4 -4 -10.5t1 -13.5q2 -14 -2 -22q-5 -10 -15.5 -15t-12.5 -15q-1 -11 5 -14.5t13 -3.5q2 0 3.5 -0.5t2.5 -0.5q7 0 12 -4.5t12 -7.5q14 -6 24 2.5t3 25.5q-1 4 -3 6.5t-4 5.5q-3 7 -7 13t-2 14q4 15 19 11l11 -8q7 -5 15.5 -9.5t16.5 -2.5
t12 10t-1 15q-4 7 -11 11t-8 12q0 5 2 13q2 6 3.5 11t-2.5 10q-10 12 -19 6zM1488 139q-4 11 -18.5 10t-22.5 -11q-7 -10 -6 -23.5t7 -23.5q10 -13 -5 -24q-12 -12 -22 -31.5t3 -32.5q1 -1 1 -3q0 -8 2 -17t-4 -15q-3 -3 -17 -3q-9 0 -16 -2.5t-5 -14.5q2 -5 5 -9.5t7 -8.5
h89l20.5 16t12.5 31q-6 12 -16 14t-20 2q-13 0 -19 1q-11 5 -7.5 16.5t10.5 18.5q5 7 8.5 15.5t3.5 18.5q0 22 -13 31q13 10 20 19q8 11 2 26zM1544 182q1 -13 14 -26q7 -5 7 -12t-7 -10q-4 -2 -7 -4.5t-7 -4.5q-10 -6 -9.5 -20.5t9.5 -21.5q14 -11 31 -6t30 13l28 27
q7 7 4.5 17t-10.5 15q-17 9 -36 8q-5 -2 -9 2t-3 9q14 20 4 31.5t-24.5 8.5t-14.5 -26zM1867 456q-5 0 -9 -4.5t-9 -7.5q-10 -7 -27.5 -8.5t-23.5 -15.5q-2 -5 -1 -10t2 -11q1 -5 2.5 -10t-0.5 -9q-2 -8 -7.5 -14t-9.5 -13q-7 -14 0.5 -22t14.5 -18q4 -5 8 -8.5t5 -7.5
q4 -12 4 -20q0 -10 3 -18t20 -3q27 7 34.5 34.5t-12.5 47.5q-3 3 -5.5 5t-3.5 6q-1 7 4 15q6 11 7 13q1 8 -7 16t-5 17q4 9 13.5 14t13.5 15q2 5 -1.5 11t-9.5 6zM1717 203q-15 4 -22 -2q-13 -11 -3.5 -24t25.5 -10q22 4 19 -17q-1 -5 2.5 -9.5t6.5 -8.5q4 -5 7 -9.5t2 -9.5
q-1 -11 -5.5 -9t-6.5 7t-5 5q-7 4 -14.5 -1.5t-6.5 -12.5q8 -23 -17 -26q-2 0 -5.5 -0.5t-6.5 -0.5q-14 0 -28 -3t-20 -18q-4 -10 2.5 -19.5t16.5 -9.5q14 2 26 11t25 14q12 8 18 -2q14 -21 31 -17.5t28.5 20t5.5 35.5q-2 7 -7 13.5t-7 14.5q-4 13 -1 35q3 17 0 32t-22 22
q-8 2 -15 -1q-4 -2 -12 0q-2 1 -4.5 0.5t-6.5 0.5zM1686 -2q-18 -2 -36.5 -1.5t-35.5 -5.5q-11 -4 -12 -9q-2 -11 9.5 -16t18.5 -6q4 -1 9 -1.5t10 -1.5q5 -2 9 -4.5t9 -3.5q15 -5 30.5 5.5t13.5 27.5q-1 9 -9 13t-16 3zM1860 210q-8 -2 -17 -11t-16 -14q-13 -14 -8.5 -26
t19.5 -19q8 -5 17.5 -9.5t13.5 -12.5l3 -9q2 -5 4 -10.5t9 -4.5q10 1 10 16q0 46 -19 84q-8 16 -16 16zM1860 54q-9 10 -19.5 6t-11.5 -17q-1 -5 -1.5 -11t-2.5 -11q-1 -2 -3.5 -5.5t-4.5 -7.5q-7 -11 -9 -18.5t20 5.5q13 7 28.5 26t3.5 33z" />
</svg>