<?xml version="1.0" standalone="no"?>
<!DOCTYPE svg PUBLIC "-//W3C//DTD SVG 1.1//EN" "http://www.w3.org/Graphics/SVG/1.1/DTD/svg11.dtd">
<svg xmlns="http://www.w3.org/2000/svg" xmlns:xlink="http://www.w3.org/1999/xlink" version="1.1"
   viewBox="94 -151 2414 2169">
   <path fill="currentColor"
      d="M1300 1978q-216 0 -404.5 -80.5t-331.5 -223.5t-223.5 -331.5t-80.5 -404.5q0 -95 16.5 -186.5t47.5 -178.5q-69 -167 -101.5 -310.5t-32.5 -280.5q0 -59 23 -96.5t63 -37.5q53 0 110 69q53 64 124 115t150 85q132 -103 295.5 -161t344.5 -58t344.5 58t295.5 161
q80 -34 151 -85t123 -115q57 -69 110 -69q40 0 63 37.5t23 96.5q0 137 -32.5 280.5t-101.5 310.5q31 87 47.5 178.5t16.5 186.5q0 216 -81 404.5t-224 331.5t-331.5 223.5t-403.5 80.5zM973 1584l-50 -62q196 -161 377 -161t377 161l-50 62q-174 -143 -327 -143t-327 143z
M986 1179q-53 0 -90 -42.5t-37 -102.5q0 -38 15.5 -70t40.5 -51q-52 -29 -88.5 -45t-71.5 -27l26 -76q106 35 202.5 89.5t184.5 125.5l-55 65q-1 7 -1.5 13.5t-2.5 13.5q-10 46 -44 76.5t-79 30.5zM1300 1898q199 0 373 -74.5t306 -206.5t206.5 -306t74.5 -373
q0 -98 -19 -191.5t-54 -181.5q69 -156 106 -300t37 -283q0 -17 -3.5 -30.5t-12.5 -13.5q-13 0 -41 33q-61 69 -149 131t-198 109q-126 -109 -285.5 -171t-340.5 -62t-340.5 62t-285.5 171q-109 -47 -197 -109t-150 -131q-28 -33 -41 -33q-9 0 -12.5 13.5t-3.5 30.5
q0 139 37 283t106 300q-35 88 -54 181.5t-19 191.5q0 199 74.5 373t206.5 306t306 206.5t373 74.5zM1614 1179q-45 0 -78.5 -30.5t-44.5 -76.5q-1 -7 -2 -13.5t-2 -13.5l-55 -65q88 -71 184.5 -125.5t202.5 -89.5l26 76q-34 11 -70.5 27t-89.5 45q26 19 41 51t15 70
q0 60 -37 102.5t-90 42.5z" />
</svg>