<?xml version="1.0" standalone="no"?>
<!DOCTYPE svg PUBLIC "-//W3C//DTD SVG 1.1//EN" "http://www.w3.org/Graphics/SVG/1.1/DTD/svg11.dtd">
<svg xmlns="http://www.w3.org/2000/svg" xmlns:xlink="http://www.w3.org/1999/xlink" version="1.1"
   viewBox="94 -151 2414 2169">
   <path fill="currentColor"
      d="M750 1358q-159 0 -252.5 -26.5t-142.5 -90.5t-75 -178l-32 -142q-7 -32 -21 -48t-50 -36l-42 -24v-216q149 -40 291 -59.5t292 -19.5q147 0 247.5 22.5t159 68.5t78.5 117q20 -20 44.5 -29t52.5 -9q29 0 53 9t44 29q20 -71 78.5 -117t159.5 -68.5t247 -22.5
q150 0 292 19.5t291 59.5v216l-42 24q-36 20 -50 36t-21 48l-32 142q-26 114 -75 178t-142.5 90.5t-252.5 26.5q-152 0 -247 -37.5t-143.5 -119t-61.5 -212.5l-14 -139q-4 -39 -26.5 -62t-57.5 -23t-57.5 23t-26.5 62l-14 139q-13 131 -61.5 212.5t-143.5 119t-247 37.5z
M754 1278q149 0 231 -39.5t114.5 -136.5t32.5 -271q0 -103 -50 -152.5t-142.5 -65t-222.5 -15.5q-154 0 -240 17t-120.5 57.5t-34.5 111.5q0 65 8.5 121t18.5 112q20 104 58.5 161t119.5 78.5t227 21.5zM1846 1278q147 0 227.5 -21.5t119 -78.5t58.5 -161q11 -56 19 -112
t8 -121q0 -71 -34.5 -111.5t-120.5 -57.5t-240 -17q-129 0 -222 15.5t-143 65t-50 152.5q0 174 32.5 271t114.5 136.5t231 39.5z" />
</svg>