<?xml version="1.0" standalone="no"?>
<!DOCTYPE svg PUBLIC "-//W3C//DTD SVG 1.1//EN" "http://www.w3.org/Graphics/SVG/1.1/DTD/svg11.dtd">
<svg xmlns="http://www.w3.org/2000/svg" xmlns:xlink="http://www.w3.org/1999/xlink" version="1.1"
   viewBox="94 -151 2414 2169">
   <path fill="currentColor"
      d="M1383 1802q-109 0 -214.5 -47.5t-189 -129.5t-126.5 -183q-7 37 -16.5 50.5t-23.5 13.5q-43 0 -72.5 -55t-44 -146.5t-14.5 -201.5q0 -103 12.5 -212t37 -210t60 -179.5t80.5 -119.5q0 -35 2.5 -67t7.5 -62l123 -22l61 -123l-103 -68q102 -142 304 -142
q204 0 317.5 142.5t113.5 387.5v43q134 207 197 484.5t63 671.5q19 17 28 35.5t9 31.5q0 22 -17 34.5t-43 12.5q-36 0 -62 -25q-12 4 -60 18t-118.5 29.5t-151.5 27t-160 11.5zM1137 1937q-12 0 -22.5 -9.5t-10.5 -25.5q-36 25 -72 25q-37 0 -37 -41q-19 6 -33 6
q-31 0 -31 -20q0 -14 15.5 -28t38.5 -26l156 -82l157 52q-15 31 -45.5 66t-62.5 59t-53 24zM1494 1978q-18 0 -18 -17q0 -7 3 -14q-16 10 -42 16.5t-43 6.5q-25 0 -25 -15q0 -9 7 -19q-6 2 -19 3.5t-25 1.5q-26 0 -26 -16q0 -10 12 -23t31 -27l112 -84l200 -31q4 8 4 27
q0 34 -30.5 79t-71 78.5t-69.5 33.5zM1411 1725q61 0 125.5 -8.5t119.5 -20.5t85 -24q-38 -36 -72 -82.5t-58 -94.5t-34 -87q-4 35 -20.5 57.5t-36.5 22.5q-34 0 -69 -50.5t-64.5 -131.5t-48 -175.5t-18.5 -182.5q0 -64 10 -138t26 -136.5t32 -88.5q38 40 94 40
q65 0 109.5 -56t44.5 -135q0 -78 -44.5 -133t-109.5 -55q-64 0 -109.5 57.5t-45.5 137.5q0 5 0.5 10t1.5 10q-99 68 -212 68q-61 0 -102.5 -19t-101.5 -66q-61 103 -90 225t-29 268q0 167 45.5 310.5t128.5 250.5t195.5 167t247.5 60zM964 300q-39 0 -85.5 -17.5
t-84.5 -17.5q-21 0 -51.5 2t-50.5 2q-34 0 -60.5 -17.5t-26.5 -49.5q0 -33 32 -71t83 -71.5t108 -54.5t108 -21q65 0 117 44t52 108q0 38 -21.5 76t-54 63t-65.5 25zM964 220q22 0 41.5 -23t19.5 -51q0 -36 -24.5 -59t-64.5 -23q-33 0 -77.5 15.5t-87 38.5t-71.5 48
q-7 6 -4 14.5t14 7.5q23 -2 46 -2.5t32 -0.5q27 0 56.5 7t50.5 14q28 9 43.5 11.5t25.5 2.5zM1263 246q29 0 50 -24.5t21 -58.5q0 -33 -21 -57t-50 -24q-31 0 -52 23.5t-21 57.5t21 58.5t52 24.5z" />
</svg>