<?xml version="1.0" standalone="no"?>
<!DOCTYPE svg PUBLIC "-//W3C//DTD SVG 1.1//EN" "http://www.w3.org/Graphics/SVG/1.1/DTD/svg11.dtd">
<svg xmlns="http://www.w3.org/2000/svg" xmlns:xlink="http://www.w3.org/1999/xlink" version="1.1"
   viewBox="94 -151 2414 2169">
   <path fill="currentColor"
      d="M1367 1878q-134 0 -278.5 -35.5t-282.5 -97.5t-255.5 -142.5t-200 -172t-114.5 -184.5l47 -32q-30 -20 -44.5 -39t-14.5 -46q0 -25 25.5 -51.5t85.5 -63.5l53 -141q106 -281 312.5 -476t499.5 -297t656 -102q89 0 175.5 8.5t143.5 31t57 64.5q0 31 -33.5 45t-83.5 20
t-99.5 13.5t-83 26t-33.5 56.5q0 21 20.5 72t41 119t20.5 140q0 22 -1.5 43.5t-7.5 42.5q29 -22 55 -66.5t45 -85.5q28 -59 65 -105.5t77 -46.5q53 0 89 69t54.5 176t18.5 221q0 136 -7.5 245.5t-33 173t-78.5 63.5q-31 0 -60.5 -29.5t-56.5 -62.5q-21 -26 -41 -46.5
t-37 -20.5q14 41 26 90.5t12 91.5q0 207 -121.5 324t-338.5 117q-52 0 -112.5 -0.5t-125.5 -4.5q14 21 14 43t-14 37t-35 15zM717 1154q28 0 47.5 -19.5t19.5 -47.5t-19.5 -47.5t-47.5 -19.5t-47.5 19.5t-19.5 47.5t19.5 47.5t47.5 19.5zM743 1325q-59 0 -105 -83
t-72.5 -226.5t-26.5 -322.5l206 -275q9 160 25 285t42.5 228t65.5 199q0 37 -19.5 77.5t-50 72.5t-65.5 45zM1047 1543l-52 -12q56 -206 56 -390q0 -352 -194 -653l63 -48q265 305 265 629q0 232 -138 474zM1346 1800l-39 -79q-5 -11 1 -17t23 -4q35 2 86.5 4.5t110 4
t112.5 1.5q184 0 282 -94.5t98 -268.5q0 -47 -14 -129.5t-49 -170.5q68 6 113 30t74 55t49 57q17 21 30.5 35t27.5 14q5 0 12.5 -26t15 -76.5t12.5 -124.5t5 -169q0 -74 -9 -143.5t-22.5 -124.5t-27.5 -87.5t-25 -32.5t-35.5 36.5t-49.5 85.5q-22 43 -46.5 84t-55.5 67
t-75 26q-35 0 -70 -15q11 -40 16 -73.5t5 -60.5q0 -76 -20.5 -139t-41 -114t-20.5 -90q0 -54 35.5 -86.5t97 -49t139.5 -23.5q21 -2 21 -7t-12 -6q-33 -5 -94 -9t-150 -4q-348 0 -626 96.5t-472.5 280.5t-294.5 448l-61 162q-18 9 -47 28t-29 33q0 9 9 17q21 16 35.5 33
t14.5 31q0 20 -11.5 35.5t-40.5 30.5q42 78 123 154.5t187.5 144t227 119.5t242.5 81.5t233 29.5zM1252 1570l-50 -21q138 -215 138 -522q0 -176 -47 -356.5t-134 -339.5l71 -37q126 147 194 323.5t68 355.5q0 343 -240 597zM1588 1443l-52 -12q123 -304 123 -543
q0 -222 -102 -400l63 -48q156 191 156 453q0 145 -49.5 290t-138.5 260z" />
</svg>