<?xml version="1.0" standalone="no"?>
<!DOCTYPE svg PUBLIC "-//W3C//DTD SVG 1.1//EN" "http://www.w3.org/Graphics/SVG/1.1/DTD/svg11.dtd">
<svg xmlns="http://www.w3.org/2000/svg" xmlns:xlink="http://www.w3.org/1999/xlink" version="1.1"
   viewBox="94 -151 2414 2169">
   <path fill="currentColor"
      d="M427 1978q-77 0 -114.5 -37.5t-37.5 -116.5v-1306q0 -77 44.5 -126.5t143.5 -85.5l146 -53v86l-118 42q-76 27 -106 56t-30 82v1301q0 45 17.5 61.5t64.5 16.5h1726q47 0 64.5 -16.5t17.5 -61.5v-1301q0 -53 -29.5 -82t-106.5 -56l-119 -42v-86l147 53q99 36 143.5 85.5
t44.5 126.5v1306q0 79 -37.5 116.5t-114.5 37.5h-1746zM1522 1860q0 -17 -0.5 -36t-2.5 -35l-427 -253q-1 16 -1.5 34t-0.5 35zM1512 1624q-1 -16 -2.5 -35t-3.5 -37l-385 -228q-4 15 -6.5 33.5t-3.5 32.5zM1002 1921q0 -36 1.5 -101.5t4.5 -140.5t7.5 -143t9.5 -109
q16 -120 55.5 -205t84.5 -132q-31 -61 -48.5 -114t-28.5 -125q32 -45 74 -87t80 -69t58 -27t58.5 27t80.5 69t74 87q-10 72 -27.5 125t-49.5 114q45 47 85 132t55 205q5 41 9.5 109t7.5 143t4.5 140.5t1.5 101.5h-597zM1485 1389q-1 -18 -4.5 -40.5t-8.5 -37.5l-268 -163
q-5 10 -13 27t-13 28zM1411 970l12.5 -25t11.5 -26l-234 -141q-6 8 -16 21t-18 22zM911 1028q-39 0 -64 -18.5t-46 -62.5l-198 -424q-17 -36 -32 -77t-15 -87q0 -47 22 -103.5t63 -113.5q47 -65 108.5 -117.5t116.5 -76.5q64 -28 172.5 -39t261.5 -11t261.5 11t172.5 39
q56 24 117 76.5t108 117.5q41 57 63 113.5t22 103.5q0 46 -15 87t-32 77l-198 424q-21 44 -46 62.5t-64 18.5q-35 0 -74.5 -23t-81.5 -63.5t-86.5 -94t-90.5 -114.5h-112q-46 61 -90.5 114.5t-86.5 94t-81.5 63.5t-74.5 23zM914 948q20 0 46 -20q34 -26 80 -72.5
t92.5 -100.5t84.5 -102t56 -77q-61 -50 -128 -106.5t-132 -121.5q-37 -38 -53.5 -63t-16.5 -46q0 -25 27 -43.5t73 -27.5q26 -5 71 -9t95 -6.5t91 -2.5t91 2.5t95 6.5t71 9q47 9 73.5 27.5t26.5 43.5q0 21 -16 46t-54 63q-64 65 -131 121.5t-129 106.5q18 29 56 77t85 101.5
t92.5 100.5t79.5 73q26 20 46 20q13 0 22 -11t17 -29l197 -422q17 -35 29 -67t12 -63q0 -39 -19.5 -82t-52.5 -89q-38 -53 -88.5 -96t-96.5 -66q-48 -24 -149.5 -34.5t-256.5 -10.5t-256.5 10.5t-149.5 34.5q-46 23 -96.5 66t-88.5 96q-33 46 -52.5 89t-19.5 82
q0 31 12.5 63t28.5 67l197 422q8 18 17 29t22 11z" />
</svg>