<?xml version="1.0" standalone="no"?>
<!DOCTYPE svg PUBLIC "-//W3C//DTD SVG 1.1//EN" "http://www.w3.org/Graphics/SVG/1.1/DTD/svg11.dtd">
<svg xmlns="http://www.w3.org/2000/svg" xmlns:xlink="http://www.w3.org/1999/xlink" version="1.1"
   viewBox="94 -151 2414 2169">
   <path fill="currentColor"
      d="M1063 1550q-66 0 -120 -34t-54 -88q0 -44 23.5 -74.5t49 -66t31.5 -91.5q-75 -56 -133.5 -121.5t-90.5 -132.5q-152 -5 -274 -54.5t-193 -131t-71 -181.5q0 -23 10.5 -39.5t45 -34.5t104.5 -47q45 -19 96.5 -55.5t113 -75.5t137.5 -66.5t170 -27.5q53 0 98 16
q29 -79 95 -126.5t151 -47.5q68 0 122 34.5t85.5 92t31.5 128.5q0 70 -36 137q141 -44 263 -44q172 0 301.5 78t202.5 215t73 314q0 145 -48 254t-132 169.5t-194 60.5q-91 0 -177 -40t-154.5 -108.5t-108.5 -154.5t-40 -177q0 -106 55 -196t149 -133l31 67
q-72 34 -113.5 107.5t-41.5 154.5q0 74 34 145.5t91.5 129.5t129 92.5t145.5 34.5q89 0 155 -50t102.5 -141t36.5 -215q0 -160 -62.5 -278.5t-174.5 -184.5t-260 -66q-101 0 -190.5 21t-172.5 64l-29 -36q51 -63 68 -114t17 -100q0 -77 -46 -130t-113 -53q-74 0 -127 49
t-80 129q-50 -14 -79.5 -16t-57.5 -2q-87 0 -166.5 30.5t-191.5 112.5q-34 25 -69 44.5t-68 33.5q-37 16 -57 27t-27.5 21t-7.5 23q0 73 70 136t185.5 101t251.5 38q22 68 87.5 144t162.5 139q0 55 -17 106t-58 100q-22 27 -30.5 41.5t-8.5 24.5q0 16 21 31t48 15
q52 0 105 -18t99.5 -46.5t79 -61t44.5 -62.5q42 15 94 23t101 8q51 0 94 -5l11 76q-23 4 -51 5.5t-58 1.5q-49 0 -87 -5t-85 -18q-35 48 -89 88t-114 63.5t-114 23.5zM170 850l-40 -44q44 -38 88.5 -70.5t88.5 -60.5l32 51q-43 28 -85.5 58t-83.5 66zM100 712l-20 -56
q53 -20 104 -34t100 -24l14 58q-49 10 -98 23.5t-100 32.5zM885 1596q-30 0 -43.5 -11t-13.5 -25q-12 6 -34 6q-21 0 -35.5 -11.5t-14.5 -24.5q0 -14 16 -35t39 -40q0 -22 20 -37.5t39.5 -40t19.5 -73.5v-245l159 120l-72 210l-52 67l124 86q-13 21 -63.5 37.5t-88.5 16.5z
M274 574q-47 -8 -93 -11.5t-89 -3.5v-60q45 0 94 4t99 12zM327 680l-17 -70l22 -74q41 0 76.5 10.5t35.5 33.5q0 15 -16.5 39t-43.5 42.5t-57 18.5zM2015 1928q-111 0 -210 -25t-188.5 -58t-171 -58t-156.5 -25q-70 0 -124 21t-93 48.5t-63 48.5t-34 21q-7 0 -7 -12
q0 -54 49.5 -105.5t132.5 -85.5t184 -34q81 0 166.5 20t173 46.5t176.5 46.5t177 20q170 0 261.5 -70t91.5 -166q0 -67 -50.5 -129.5t-142.5 -110.5l39 -146q137 55 215.5 151t78.5 212q0 100 -60 189t-172.5 145t-272.5 56zM785 613q-16 0 -26 -14.5t-10 -33.5
q0 -31 20.5 -56t45.5 -25q17 0 26.5 14t9.5 34q0 30 -20.5 55.5t-45.5 25.5zM1944 1582q-52 0 -107.5 -7.5t-135.5 -7.5q-40 0 -79.5 3t-72.5 3q-30 0 -49.5 -5.5t-19.5 -20.5q0 -14 14.5 -29.5t60 -34.5t137.5 -42l97 -24l126 49l111 6q0 36 -14 73t-68 37zM708 313
q-8 -48 -8 -94q0 -24 11.5 -68.5t41 -91t81 -79t130.5 -32.5q65 0 111 48t55 125l-103 147h-123zM1203 463q-34 0 -53.5 -24.5t-19.5 -60.5q0 -50 36 -93t84 -43q34 0 54 23.5t20 58.5q0 51 -36 95t-85 44z" />
</svg>