<?xml version="1.0" standalone="no"?>
<!DOCTYPE svg PUBLIC "-//W3C//DTD SVG 1.1//EN" "http://www.w3.org/Graphics/SVG/1.1/DTD/svg11.dtd">
<svg xmlns="http://www.w3.org/2000/svg" xmlns:xlink="http://www.w3.org/1999/xlink" version="1.1"
   viewBox="94 -151 2414 2169">
   <path fill="currentColor"
      d="M2070 1978q-61 0 -108.5 -24.5t-90 -56t-87 -56t-101.5 -24.5t-134.5 22.5t-167.5 45t-187 22.5q-193 0 -344.5 -97.5t-250.5 -273.5t-137 -411q-65 -88 -105 -185t-58 -218t-18 -281q-17 -67 -32 -148.5t-15 -170.5q0 -68 6.5 -106.5t26.5 -64.5q21 -28 67.5 -40.5
t95.5 -12.5q48 0 102.5 10t105.5 27q50 -10 106 -10q86 0 167.5 26t138.5 70q97 3 183 35.5t148 85.5t87 117q58 -24 117.5 -37t119.5 -13q203 0 351 88.5t229 251.5t81 385q0 61 -8.5 122.5t-27.5 142t-51 198.5q-15 54 -23.5 98.5t-8.5 77.5q0 34 18 82.5t18 116.5
q0 91 -63 148.5t-150 57.5zM541 1235l-61 -80q0 -185 63.5 -380t178.5 -386t271 -365l60 53q-235 262 -366.5 554.5t-145.5 603.5zM354 578l-46 -100q53 -164 121 -289.5t159 -230.5l67 41q-67 80 -121 167.5t-98 189t-82 222.5zM2070 1900q58 0 95.5 -37t37.5 -91
q0 -58 -18 -107t-18 -92q0 -36 9 -85t26 -112q30 -110 57 -226t27 -216q0 -201 -70 -346t-200.5 -223t-310.5 -78q-141 0 -295 93q7 -20 7 -43q0 -62 -58 -116t-149 -88t-190 -34q-46 -44 -121 -70t-155 -26q-30 0 -57.5 4t-53.5 11q-106 -40 -203 -40q-54 0 -78.5 11.5
t-31 42.5t-6.5 90q0 45 5 92.5t15.5 100.5t26.5 117q0 154 16 268.5t52.5 204.5t96.5 172l15 35q36 223 126.5 383t225 246t301.5 86q94 0 180.5 -22.5t164 -45t144.5 -22.5q68 0 119.5 24.5t95 57t85 57t87.5 24.5zM786 194q-44 -34 -111 -34v-80q93 0 161 50zM1991 1529
q-360 -86 -545 -289.5t-185 -480.5q0 -120 35.5 -238t113.5 -246l66 46q-54 89 -85.5 171t-44.5 162l-16 -12q118 -47 229 -47q223 0 340.5 174.5t117.5 501.5q0 47 -2 82.5t-7.5 75t-16.5 100.5zM1224 362q-74 -68 -164 -90l18 -78q115 29 201 109zM1910 526
q-126 -52 -228 -52q-52 0 -105 14l-20 -78q61 -16 123 -16q120 0 261 58z" />
</svg>