<?xml version="1.0" standalone="no"?>
<!DOCTYPE svg PUBLIC "-//W3C//DTD SVG 1.1//EN" "http://www.w3.org/Graphics/SVG/1.1/DTD/svg11.dtd">
<svg xmlns="http://www.w3.org/2000/svg" xmlns:xlink="http://www.w3.org/1999/xlink" version="1.1"
   viewBox="94 -151 2414 2169">
   <path fill="currentColor"
      d="M1156 1978q-297 0 -465.5 -90t-186.5 -247q-6 -55 -10.5 -127t-7 -157.5t-4 -183.5t-2 -206.5t-0.5 -224.5h80q0 114 0.5 221.5t2 205t4 183t7 155.5t10.5 123q14 121 164 194.5t408 73.5q203 0 349 -33t224.5 -92t78.5 -136q0 -26 -8 -50.5t-21 -50.5
q-15 -31 -26.5 -66.5t-11.5 -79.5v-639h80v639q0 43 11 76t25 63q13 26 22 52t9 56q0 101 -86.5 178t-250.5 120t-395 43zM895 1033q-38 0 -63 -28.5t-25 -68.5t25 -68t63 -28t63.5 28t25.5 68t-25.5 68.5t-63.5 28.5zM1168 1295q-84 0 -155 -33t-126 -99l52 -44
q46 56 102.5 82t126.5 26q71 0 127 -26t102 -82l51 44q-54 66 -125 99t-155 33zM1938 1259q-37 0 -69 -4.5t-67 -11.5v-369l-267 -170l-3 41q-1 22 -15 28t-31 -10l-154 -147l-202 118q-14 8 -26 2.5t-12 -27.5v-102l-221 136q-15 9 -26.5 3t-11.5 -28v-106l-353 273
q-9 -69 -12 -130t-3 -77q150 -77 332 -119t369 -42q128 0 263.5 24t261.5 70.5t226 114.5t159 156t59 195q0 82 -57 132t-140 50zM1415 1033q-38 0 -63 -28.5t-25 -68.5t25 -68t63 -28t63.5 28t25.5 68t-25.5 68.5t-63.5 28.5zM751 602q10 -204 64 -357t145.5 -238
t211.5 -85v54q-92 0 -166 80t-120.5 221t-55.5 325h-79zM1806 730q0 -258 -73 -425t-214.5 -248t-346.5 -81q-300 0 -463.5 178.5t-163.5 521.5l-80 2q0 -252 85.5 -426t244 -264t377.5 -90q224 0 384 91.5t245 276.5t85 466zM1515 601q-9 -184 -55.5 -324.5t-120.5 -220.5
t-167 -80v-54q121 0 212.5 85t145.5 238t64 356h-79z" />
</svg>