<?xml version="1.0" standalone="no"?>
<!DOCTYPE svg PUBLIC "-//W3C//DTD SVG 1.1//EN" "http://www.w3.org/Graphics/SVG/1.1/DTD/svg11.dtd">
<svg xmlns="http://www.w3.org/2000/svg" xmlns:xlink="http://www.w3.org/1999/xlink" version="1.1"
   viewBox="94 -151 2414 2169">
   <path fill="currentColor"
      d="M419 1978q-110 0 -178 -58t-84 -164q-8 -59 -14.5 -159.5t-9.5 -221t-3 -238.5q0 -173 6.5 -340t19.5 -303q11 -122 78.5 -188.5t180.5 -66.5h1770q113 0 181 66.5t78 188.5q12 136 19 303t7 340q0 118 -3.5 238.5t-9.5 221t-14 159.5q-14 106 -83 164t-179 58h-1762z
M1125 1373h350v-170h-350v170zM1045 1453v-580h510v580h-510zM419 1898h1762q160 0 183 -154q9 -62 15 -165.5t8.5 -221t2.5 -220.5q0 -89 -2 -176t-6 -169q-40 105 -136 185.5t-274 129.5t-466 63v-79q235 -10 399 -47.5t265 -107.5t147.5 -177.5t46.5 -258.5
q0 -90 -48.5 -135.5t-130.5 -45.5h-1770q-82 0 -130.5 45.5t-48.5 135.5q0 151 46.5 259t148 178t265 107t397.5 47v79q-287 -14 -465 -63t-274 -129.5t-136 -185.5q-4 82 -6 169t-2 176q0 103 3 220.5t8.5 221t14.5 165.5q23 154 183 154zM1125 1123h350v-170h-350v170z
M970 263v-227h80v227h-80zM1002 121q-23 0 -38 -17t-15 -44q0 -69 100.5 -115.5t251.5 -46.5t250.5 46.5t99.5 115.5q0 27 -15 44t-38 17q-14 0 -34 -10q-64 -32 -122 -45.5t-141 -13.5q-85 0 -142.5 13.5t-122.5 45.5q-20 10 -34 10zM1550 263v-227h80v227h-80z" />
</svg>