<?xml version="1.0" standalone="no"?>
<!DOCTYPE svg PUBLIC "-//W3C//DTD SVG 1.1//EN" "http://www.w3.org/Graphics/SVG/1.1/DTD/svg11.dtd">
<svg xmlns="http://www.w3.org/2000/svg" xmlns:xlink="http://www.w3.org/1999/xlink" version="1.1"
   viewBox="94 -151 2414 2169">
   <path fill="currentColor"
      d="M1300 1978q395 -303 644.5 -558t367.5 -480t118 -438q0 -126 -42.5 -235.5t-119 -192.5t-179 -129.5t-221.5 -46.5q-121 0 -234 46.5t-200.5 127t-133.5 183.5q-45 -103 -133 -183.5t-201 -127t-234 -46.5q-119 0 -221.5 46.5t-179 129.5t-119 192.5t-42.5 235.5
q0 213 118 438t367.5 480t644.5 558zM1034 899l-57 -278q-2 -11 -11 -10.5t-11 10.5l-57 278q-15 72 -55 117.5t-105 66.5l-130 42q-9 3 -9.5 13.5t9.5 14.5l131 45q67 23 106 68t53 114l54 262l24 15l58 -277q14 -68 53.5 -114t105.5 -68l130 -45q10 -4 10 -15t-10 -14
l-130 -42q-65 -21 -104.5 -66t-54.5 -117zM1467 1400q-22 0 -38 -16t-16 -38q0 -23 16 -39t38 -16q23 0 39 16t16 39q0 22 -16 38t-39 16zM557 635q0 25 -10 39.5t-30 14.5q-27 0 -33.5 -23.5t-6.5 -55.5q0 -98 33 -184.5t94 -147.5t143 -81q24 -6 37 6.5t13 32.5
q0 30 -32 38q-100 26 -154 125t-54 236zM1300 1883q-365 -283 -597 -524.5t-342.5 -453t-110.5 -403.5q0 -147 63.5 -265.5t172.5 -188.5t246 -70q128 0 237 53t193.5 151t137.5 232q53 -134 137.5 -232t194 -151t236.5 -53q137 0 246 70t172.5 188.5t63.5 265.5
q0 192 -110.5 403.5t-342.5 453t-597 524.5zM1734 1216l-108 -107l108 -109l108 109zM1527 675q-27 0 -46 -19.5t-19 -46.5t19 -46.5t46 -19.5t46.5 19.5t19.5 46.5t-19.5 46.5t-46.5 19.5zM1864 701q2 9 10 8.5t9 -8.5l34 -182q10 -53 41 -86t91 -52l106 -35q8 -2 8 -9.5
t-8 -9.5l-97 -31q-77 -25 -100.5 -58.5t-34.5 -89.5l-40 -204h-20l-28 202q-8 59 -41.5 90t-79.5 49l-111 43q-7 2 -7 8.5t7 8.5l112 36q49 16 80.5 52t39.5 86z" />
</svg>