<?xml version="1.0" standalone="no"?>
<!DOCTYPE svg PUBLIC "-//W3C//DTD SVG 1.1//EN" "http://www.w3.org/Graphics/SVG/1.1/DTD/svg11.dtd">
<svg xmlns="http://www.w3.org/2000/svg" xmlns:xlink="http://www.w3.org/1999/xlink" version="1.1"
   viewBox="94 -151 2414 2169">
   <path fill="currentColor"
      d="M443 1978q-76 0 -130.5 -54.5t-54.5 -130.5v-1710q0 -77 54.5 -131t130.5 -54h1493q115 0 185 86l167 203q54 64 54 152v1454q0 76 -54 130.5t-131 54.5h-1714zM808 1628v-80h984v80h-984zM588 1898h1424v-828q0 -40 -26 -66t-66 -26h-1240q-40 0 -66 26t-26 66v828z
M808 1328v-80h984v80h-984zM638 718h1204v-740h-1204v740zM1352 566v-468h260v468h-260z" />
</svg>