<?xml version="1.0" standalone="no"?>
<!DOCTYPE svg PUBLIC "-//W3C//DTD SVG 1.1//EN" "http://www.w3.org/Graphics/SVG/1.1/DTD/svg11.dtd">
<svg xmlns="http://www.w3.org/2000/svg" xmlns:xlink="http://www.w3.org/1999/xlink" version="1.1"
   viewBox="94 -151 2414 2169">
   <path fill="currentColor"
      d="M1300 1928q-444 0 -680 -197t-236 -567q0 -236 71 -442t197 -362.5t292 -244.5t356 -88t356 88t292 244.5t197 362.5t71 442q0 370 -236 567t-680 197zM1300 1635q-58 0 -112 -8.5t-98 -29.5l33 -66q29 10 75 18t102 8t102.5 -8t74.5 -18l33 66q-43 21 -97 29.5t-113 8.5
zM1247 1361q20 0 20 -13q0 -6 -16.5 -17.5t-33.5 -21.5q-22 -14 -32.5 -23t-18.5 -9q-10 0 -10 12q0 19 33.5 45.5t57.5 26.5zM885 1101q-49 0 -84 -44.5t-35 -106.5t35 -106.5t84 -44.5t83.5 44.5t34.5 106.5t-34.5 106.5t-83.5 44.5zM445 1177q-10 -39 -24 -66t-28 -27
q-30 0 -42.5 13.5t-35.5 13.5q-26 0 -42.5 -28t-26.5 -69t-18 -82t-18 -69t-26 -28q-13 0 -25 5t-23 5q-20 0 -34.5 -35t-14.5 -85q0 -74 23 -126t23 -77q0 -28 -22 -28q-11 0 -21 2.5t-20 2.5q-13 0 -13 -26q0 -52 25.5 -95t58.5 -77t58.5 -58.5t25.5 -40.5q0 -8 -6 -19.5
t-6 -24.5q0 -26 33.5 -50.5t84.5 -40.5t102 -16q53 0 100 11.5t72 11.5q23 0 23 -18q0 -11 -8 -29.5t-8 -30.5q0 -21 32.5 -34.5t87.5 -13.5q46 0 98 16t97.5 41t74 52t28.5 50l-274 166q-32 0 -49.5 -4.5t-36.5 -9t-56 -4.5q-77 0 -134.5 38.5t-88.5 100.5t-31 133
q0 158 135 281q-28 80 -39 160.5t-11 208.5zM1353 1361q24 0 57.5 -26.5t33.5 -45.5q0 -12 -10 -12q-8 0 -18.5 9t-32.5 23q-17 10 -33.5 21.5t-16.5 17.5q0 13 20 13zM1300 1455q-106 0 -162.5 -66t-56.5 -190q0 -387 219 -387t219 387q0 124 -56 190t-163 66zM1300 1850
q413 0 625 -175.5t212 -510.5q0 -219 -65 -411t-180.5 -337.5t-267 -228t-324.5 -82.5t-324.5 82.5t-267 228t-180.5 337.5t-65 411q0 335 212.5 510.5t624.5 175.5zM1715 1101q-49 0 -83.5 -44.5t-34.5 -106.5t34.5 -106.5t83.5 -44.5q50 0 84.5 44.5t34.5 106.5
t-34.5 106.5t-84.5 44.5zM2155 1177q0 -128 -11 -208.5t-39 -160.5q135 -123 135 -281q0 -71 -31 -133t-88 -100.5t-135 -38.5q-37 0 -56 4.5t-36 9t-50 4.5l-274 -166q0 -23 28.5 -50t74 -52t97.5 -41t98 -16q56 0 88 13.5t32 34.5q0 12 -8 30.5t-8 29.5q0 18 23 18
q25 0 72 -11.5t100 -11.5q52 0 102.5 16t84 40.5t33.5 50.5q0 13 -6 24.5t-6 19.5q0 16 25.5 40.5t58.5 58.5t58.5 77t25.5 95q0 26 -13 26q-10 0 -20 -2.5t-21 -2.5q-22 0 -22 28q0 25 23 77t23 126q0 50 -14.5 85t-34.5 35q-11 0 -23 -5t-25 -5q-16 0 -26 28t-18 69
t-18 82t-26.5 69t-42.5 28q-22 0 -35 -13.5t-43 -13.5q-13 0 -27.5 27t-24.5 66z" />
</svg>