<?xml version="1.0" standalone="no"?>
<!DOCTYPE svg PUBLIC "-//W3C//DTD SVG 1.1//EN" "http://www.w3.org/Graphics/SVG/1.1/DTD/svg11.dtd">
<svg xmlns="http://www.w3.org/2000/svg" xmlns:xlink="http://www.w3.org/1999/xlink" version="1.1"
   viewBox="94 -151 2414 2169">
   <path fill="currentColor"
      d="M711 890q49 17 94 27t97 10q206 0 350 -171l61 51q-79 92 -179 146t-221 54q-43 0 -104.5 -8t-120.5 -39zM1141 1669q-37 0 -79 -17t-60 -47q-13 9 -42 18t-52 9q-39 0 -63 -15t-24 -38q0 -62 133 -73l117 79l220 -34q0 51 -38 84.5t-112 33.5zM325 972l-38 -46
q45 -41 91.5 -74t91.5 -61l28 55q-45 28 -88.5 57.5t-84.5 68.5zM257 832l-20 -56q59 -24 117 -39t113 -26l3 60q-53 11 -106 25t-107 36zM460 698q-52 -11 -104 -15t-105 -4v-61q58 0 115.5 5.5t115.5 16.5zM491 800q-8 -27 -8 -59q0 -35 13 -83q53 0 97.5 10t44.5 33
q0 15 -18 38.5t-50.5 42t-78.5 18.5zM1128 1622q-45 0 -73.5 -6.5t-50.5 -18.5q-49 -5 -86.5 -40.5t-37.5 -76.5q0 -33 12.5 -53t24.5 -35.5t12 -32.5q0 -7 -3.5 -33.5t-9 -59.5t-11.5 -59q-22 -36 -44 -101t-30 -113h76q14 54 34.5 104.5t37.5 76.5q11 48 20 104.5t9 70.5
q0 28 -24 60t-24 55q0 37 27 48t46 13q8 8 31.5 14t63.5 6q71 0 122.5 -20.5t85.5 -53.5h184l91 78h-260q-73 73 -223 73zM1097 1978q-9 0 -13 -7.5t-4 -16.5q0 -63 50 -116t131.5 -85t176.5 -32q39 0 157 7t300 7q164 0 246 -46t82 -162q0 -63 -36.5 -110.5t-122.5 -79.5
l29 -161q131 41 200.5 133.5t69.5 212.5q0 161 -112 248t-318 87q-122 0 -258 -21.5t-255 -21.5q-115 0 -174 25t-84 57t-36 57t-29 25zM1484 1635q-16 0 -22.5 -9t-6.5 -19q0 -20 20.5 -41t51.5 -34l213 13l256 -69q0 61 -28.5 96.5t-78.5 35.5h-255q-45 0 -85.5 13.5
t-64.5 13.5zM884 675q-22 0 -36.5 -15t-14.5 -37q0 -28 21.5 -49.5t49.5 -21.5q23 0 37.5 15t14.5 38q0 27 -21.5 48.5t-50.5 21.5zM772 346q-37 -34 -58.5 -81t-21.5 -100q0 -74 36 -134.5t97 -96.5t135 -36q76 0 134.5 37t87.5 92l-112 105l-61 130zM1339 419
q-52 0 -89.5 -37.5t-37.5 -89.5t37.5 -89t89.5 -37q53 0 90 37t37 89t-37 89.5t-90 37.5zM864 864q-51 54 -112.5 84.5t-114.5 30.5q-55 0 -106 -32.5t-83 -85t-32 -112.5q0 -80 53 -166t139.5 -162.5t190 -130t203.5 -66.5q15 -79 63.5 -141.5t119.5 -99t154 -36.5
q94 0 171.5 49t123.5 128.5t46 173.5q0 66 -29 125.5t-80 112.5q293 21 443.5 165t150.5 389q0 150 -55 261.5t-150.5 173t-217.5 61.5q-142 0 -225 -89.5t-83 -229.5q0 -94 44 -167.5t119.5 -116t169.5 -42.5v78q-116 0 -184.5 70t-68.5 178q0 112 61.5 176t166.5 64
q151 0 247 -110t96 -307q0 -248 -155.5 -366.5t-478.5 -122.5l-8 -51q45 -20 80.5 -58t56 -88.5t20.5 -105.5q0 -76 -35.5 -137.5t-94.5 -98.5t-131 -37q-81 0 -139.5 34t-91.5 93.5t-40 136.5q-102 4 -203 51t-184.5 117.5t-134 148t-50.5 143.5q0 58 42 105t99 47
q35 0 78.5 -22t96.5 -73z" />
</svg>