<?xml version="1.0" standalone="no"?>
<!DOCTYPE svg PUBLIC "-//W3C//DTD SVG 1.1//EN" "http://www.w3.org/Graphics/SVG/1.1/DTD/svg11.dtd">
<svg xmlns="http://www.w3.org/2000/svg" xmlns:xlink="http://www.w3.org/1999/xlink" version="1.1"
   viewBox="94 -151 2414 2169">
   <path fill="currentColor"
      d="M1226 1978v-253q-104 -4 -210 -30t-193 -68v-301q83 55 191.5 97.5t211.5 47.5v-454q-140 -56 -232 -122.5t-136.5 -155t-44.5 -209.5q0 -193 114.5 -306t298.5 -136v-190h160v188q92 6 187 33t182 75l-77 251q-69 -38 -143.5 -60.5t-148.5 -31.5v435q138 53 226.5 114.5
t131.5 144t43 201.5q0 180 -104 306.5t-297 162.5v261h-160zM1386 1450q69 -21 102.5 -69t33.5 -110q0 -65 -34 -109t-102 -78v366zM1226 719v-362q-75 15 -108 62t-33 117q0 64 33 104.5t108 78.5z" />
</svg>