<?xml version="1.0" standalone="no"?>
<!DOCTYPE svg PUBLIC "-//W3C//DTD SVG 1.1//EN" "http://www.w3.org/Graphics/SVG/1.1/DTD/svg11.dtd">
<svg xmlns="http://www.w3.org/2000/svg" xmlns:xlink="http://www.w3.org/1999/xlink" version="1.1"
   viewBox="94 -151 2414 2169">
   <path fill="currentColor"
      d="M2117 1711q-457 0 -726 -418q-64 25 -140.5 40t-132.5 15q-100 0 -190 -45.5t-158 -126.5q-31 11 -73 17t-86 6q-139 0 -251 -56t-177.5 -151.5t-65.5 -214.5q0 -124 61.5 -224.5t165.5 -160.5t231 -60q117 0 214 48t161.5 132t82.5 193q52 -19 103 -19q64 0 121 30
t98 84q71 -111 189 -175t251 -64q135 0 259.5 64.5t223 174.5t155.5 250t57 291q0 88 -14 178t-36 149q-81 21 -164.5 32t-158.5 11zM370 1698l-26 -76q54 -19 100.5 -32.5t89.5 -23.5l92 -322l169 -135l65 50l-164 131l-98 344q-50 10 -105 25t-123 39zM610 1903l-42 -68
q52 -31 97 -56.5t84 -43.5l61 -290l100 -240l67 46l-91 218l-67 325q-42 14 -93 42.5t-116 66.5zM1174 1978q-36 -59 -63 -90.5t-59 -54.5l11 -298l-9 -260l80 7l9 253l-9 261q26 25 51.5 57.5t56.5 82.5zM176 648q-66 -30 -66 -92q0 -44 29.5 -78t68.5 -34q40 0 68 41z
M1586 1933q-55 -55 -89 -83.5t-59 -40.5l-21 -28q-59 -291 -216 -498l73 -36q155 210 217 500q29 17 64.5 47.5t86.5 82.5zM545 767q47 0 78 -35.5t31 -88.5q0 -44 -24.5 -69t-66.5 -25q-46 0 -77.5 35.5t-31.5 88.5q0 43 24.5 68.5t66.5 25.5zM506 371q3 -14 4 -30t1 -32
q0 -85 -22 -157.5t-60.5 -119t-89.5 -51.5q-4 30 -30.5 52t-61.5 22q-28 0 -46 -17.5t-18 -45.5q0 -41 38 -67.5t96 -26.5q82 0 143.5 54t96 147t34.5 210q0 34 -4 62h-81zM878 495l-62 -53q29 -47 46 -111t17 -128q0 -70 -21 -122.5t-57 -74.5q-11 19 -35 31.5t-53 12.5
t-49 -18.5t-20 -46.5q0 -34 28 -54t74 -20q95 0 154 80.5t59 211.5q0 160 -81 292zM1743 1533q180 -121 307.5 -288t189.5 -363q-13 -19 -29 -36t-34 -33q-56 205 -184.5 377t-322.5 295q31 25 73 48zM2001 1623q88 -61 160 -129t129.5 -144.5t99.5 -160.5q-6 -29 -15 -57
t-20 -53q-73 165 -183.5 289.5t-279.5 230.5q27 9 54 14.5t55 9.5zM1791 875q89 0 129.5 -19t40.5 -59q0 -49 -49.5 -82t-120.5 -33q-70 0 -120 33t-50 82q0 40 41 59t129 19z" />
</svg>