<?xml version="1.0" standalone="no"?>
<!DOCTYPE svg PUBLIC "-//W3C//DTD SVG 1.1//EN" "http://www.w3.org/Graphics/SVG/1.1/DTD/svg11.dtd">
<svg xmlns="http://www.w3.org/2000/svg" xmlns:xlink="http://www.w3.org/1999/xlink" version="1.1"
   viewBox="94 -151 2414 2169">
   <path fill="currentColor"
      d="M1099 1928q-71 0 -123 -33.5t-54 -89.5l-8 -209q-32 0 -61.5 -2t-58.5 -6v174q0 53 -54 85.5t-122 32.5t-115 -32.5t-49 -87.5l-13 -290q-136 -80 -208.5 -199t-72.5 -264q0 -215 143 -387q-22 -17 -36 -40t-14 -49q0 -54 30.5 -117t79 -118.5t103 -91t102.5 -35.5
q35 0 64.5 14t49.5 40q66 -40 160.5 -75t203.5 -62t220 -42t210 -15q170 0 313.5 50.5t249.5 142t164.5 215t58.5 269.5q0 95 -20 177.5t-46 158t-46 150t-20 155.5v193q0 67 -57 106.5t-148 39.5q-74 0 -121 -36.5t-47 -100.5v-71q0 -49 -12.5 -60.5t-60.5 -11.5
q-82 0 -177.5 43.5t-223.5 87.5v260q0 58 -55 94.5t-129 36.5zM545 1179q18 -4 27.5 -25.5t4.5 -49.5q-4 -26 -20.5 -43.5t-33.5 -14.5q-19 3 -28.5 25t-5.5 49t21 45t35 14zM669 1290q-64 0 -129 -24.5t-108 -66.5t-43 -96q0 -64 61.5 -96.5t134.5 -32.5q65 0 129.5 24
t107.5 66.5t43 96.5q0 64 -61.5 96.5t-134.5 32.5zM691 1206q17 0 30 -19t13 -47q0 -27 -13 -46t-30 -19q-18 0 -31 19t-13 46q0 28 13 47t31 19zM523 880q-28 0 -49 -24.5t-21 -58.5q0 -35 21 -59t49 -24q29 0 49.5 24t20.5 59q0 34 -20.5 58.5t-49.5 24.5zM1506 1715
q-61 0 -92 -26.5t-31 -70.5v-139l277 -120q6 69 6 121q0 127 -38.5 181t-121.5 54zM1055 993q-28 0 -49 -24.5t-21 -58.5q0 -35 21 -59t49 -24q29 0 49.5 24t20.5 59q0 34 -20.5 58.5t-49.5 24.5zM1099 1848q44 0 74 -16.5t30 -34.5v-312q39 -12 101.5 -38t133 -54
t136 -47.5t110.5 -19.5q83 0 118 34.5t35 117.5v71q0 57 88 57q60 0 92.5 -19t32.5 -47v-193q0 -97 20 -174.5t46 -149t46 -148t20 -169.5q0 -173 -91.5 -308t-250.5 -212t-364 -77q-105 0 -221 17.5t-228 47.5t-205 66.5t-151 74.5q-27 -36 -50 -51t-53 -15q-32 0 -72 29
t-77 73.5t-61 92.5t-24 87q0 20 14.5 44.5t55.5 35.5q-46 45 -83.5 109t-59 137.5t-21.5 149.5q0 133 71.5 239.5t207.5 174.5l15 336q1 17 22.5 30t61.5 13q38 0 67 -14t29 -24v-269q80 16 141.5 19t135.5 3l11 287q1 16 27.5 31t69.5 15zM1373 859q-62 0 -119.5 -37
t-93.5 -95.5t-36 -121.5q0 -108 97 -165l40 70q-57 33 -57 95q0 41 25.5 81.5t64.5 66.5t79 26q37 0 61 -35t24 -94q0 -42 -11 -76l77 -23q8 25 11 50.5t3 48.5q0 88 -45 148.5t-120 60.5zM2301 351q-63 0 -102.5 -43t-39.5 -111q0 -67 38 -123.5t101.5 -91t141.5 -34.5v78
q-56 0 -102 24t-73.5 62.5t-27.5 84.5q0 34 16.5 55t47.5 21q26 0 40.5 -16.5t14.5 -39.5q0 -44 -46 -71t-111 -27t-112 31.5t-69 90.5l-66 -48q32 -73 97 -112.5t150 -39.5q102 0 169 51.5t67 130.5q0 56 -37.5 92t-96.5 36z" />
</svg>