<?xml version="1.0" standalone="no"?>
<!DOCTYPE svg PUBLIC "-//W3C//DTD SVG 1.1//EN" "http://www.w3.org/Graphics/SVG/1.1/DTD/svg11.dtd">
<svg xmlns="http://www.w3.org/2000/svg" xmlns:xlink="http://www.w3.org/1999/xlink" version="1.1"
   viewBox="94 -151 2414 2169">
   <path fill="currentColor"
      d="M1300 1928q-337 0 -571.5 -93.5t-356.5 -271.5t-122 -432q0 -183 53 -352t149.5 -312t227.5 -249.5t288.5 -165.5t331.5 -59t331.5 59t288.5 165.5t227.5 249.5t149.5 312t53 352q0 254 -122 432t-356.5 271.5t-571.5 93.5zM1300 1549q-68 0 -131 -27.5t-107 -70.5
l59 -55q30 31 78.5 52t100.5 21t100.5 -21t78.5 -52l59 55q-44 43 -107 70.5t-131 27.5zM872 984q48 0 77 -35.5t29 -93.5q0 -59 -29 -94t-77 -35t-77.5 35.5t-29.5 93.5t29.5 93.5t77.5 35.5zM1300 1677q209 0 320 -84.5t111 -244.5q0 -93 -35 -178t-95.5 -151.5
t-138 -104.5t-162.5 -38t-162.5 38t-138 104.5t-95.5 151.5t-35 178q0 160 111 244.5t320 84.5zM1300 1309q-79 0 -124.5 -37t-45.5 -101q0 -63 42.5 -94t127.5 -31q86 0 128 31t42 94q0 64 -45 101t-125 37zM460 570q-73 -44 -117.5 -120.5t-44.5 -167.5q0 -92 45 -168
t121 -121t168 -45q90 0 165.5 44t119.5 115l-106 58q-28 -44 -75.5 -70.5t-103.5 -26.5q-88 0 -151 62.5t-63 151.5q0 55 25.5 102t68.5 76zM1728 984q48 0 77.5 -35.5t29.5 -93.5t-29.5 -93.5t-77.5 -35.5t-77 35t-29 94q0 58 29 93.5t77 35.5zM2140 570l-52 -110
q43 -29 68.5 -76t25.5 -102q0 -89 -62.5 -151.5t-151.5 -62.5q-56 0 -103 26.5t-76 70.5l-106 -58q44 -71 119.5 -115t165.5 -44q92 0 168 45t121 121t45 168q0 91 -44.5 167.5t-117.5 120.5z" />
</svg>