<?xml version="1.0" standalone="no"?>
<!DOCTYPE svg PUBLIC "-//W3C//DTD SVG 1.1//EN" "http://www.w3.org/Graphics/SVG/1.1/DTD/svg11.dtd">
<svg xmlns="http://www.w3.org/2000/svg" xmlns:xlink="http://www.w3.org/1999/xlink" version="1.1"
   viewBox="94 -151 2414 2169">
   <path fill="currentColor"
      d="M1343 1541q-255 0 -447 -103t-298.5 -288.5t-106.5 -432.5q0 -41 -10.5 -74.5t-21.5 -74t-11 -102.5q0 -173 70 -300.5t197.5 -197.5t301.5 -70q206 0 354 103t227 300l806 320q1 9 1 14.5v13.5q0 181 -84 342t-231.5 285t-339 194.5t-407.5 70.5zM1036 1838
q-46 0 -70.5 -16t-24.5 -46q0 -27 13 -40.5t41 -17.5l141 -18v-204h95v245q0 40 -57 68.5t-138 28.5zM1306 1978q-43 0 -61.5 -12t-18.5 -37q0 -46 59 -61l139 -36v-322l95 -12v375q0 27 -31 51t-79.5 39t-102.5 15zM492 632q-121 -49 -185 -77.5t-88 -46t-24 -32.5
t24 -32.5t88 -46t185 -77.5v312zM810 501q-34 0 -58.5 -24.5t-24.5 -58.5t24.5 -58t58.5 -24t58 24t24 58t-24 58.5t-58 24.5zM1522 1211q-100 0 -217 -37.5t-237 -110.5l40 -69q113 68 220 102.5t194 34.5q130 0 230 -72t161 -200l-483 -176l28 -75l560 204
q-64 187 -194.5 293t-301.5 106zM1343 1461q195 0 369 -62t309.5 -171t215.5 -251t87 -301l-789 -314q-66 -188 -196.5 -286t-321.5 -98q-226 0 -357.5 131.5t-131.5 356.5q0 48 11 86.5t21.5 77t10.5 87.5q0 225 95.5 392.5t269.5 259.5t407 92z" />
</svg>