<?xml version="1.0" standalone="no"?>
<!DOCTYPE svg PUBLIC "-//W3C//DTD SVG 1.1//EN" "http://www.w3.org/Graphics/SVG/1.1/DTD/svg11.dtd">
<svg xmlns="http://www.w3.org/2000/svg" xmlns:xlink="http://www.w3.org/1999/xlink" version="1.1"
   viewBox="94 -151 2414 2169">
   <path fill="currentColor"
      d="M1300 1256q-64 0 -120 -14.5t-90 -36.5t-34 -43q0 -11 17 -31q45 -51 72 -116.5t27 -116.5q0 -42 -26 -42q-16 0 -25 19t-17 47q-9 32 -24 73.5t-32 78.5t-32 58q-21 30 -57 30q-19 0 -34 -13.5t-15 -33.5q0 -17 8.5 -31.5t25.5 -33.5q19 -21 40.5 -56.5t41.5 -96.5
q52 -158 110 -227.5t164 -69.5q107 0 164.5 69.5t109.5 227.5q20 61 42 96.5t40 56.5q17 19 25.5 33.5t8.5 31.5q0 20 -14.5 33.5t-34.5 13.5q-19 0 -32 -6t-25 -24q-14 -21 -30.5 -58t-31.5 -78.5t-25 -73.5q-8 -28 -17.5 -47t-25.5 -19q-26 0 -26 42q0 51 26.5 117
t72.5 116q17 19 17 31q0 21 -34 43t-89.5 36.5t-120.5 14.5zM1200 1628q-30 0 -48 -7.5t-18 -20.5t11 -28.5t42 -40.5v-330h226v330q31 25 42 40.5t11 28.5t-18 20.5t-48 7.5q-31 0 -48.5 -10t-17.5 -35v-286q0 -37 -34 -37t-34 37v286q0 25 -17 35t-49 10zM1300 607
q-74 0 -127 -52t-53 -127t53 -127.5t127 -52.5t127.5 52.5t53.5 127.5t-53.5 127t-127.5 52z" />
</svg>