<?xml version="1.0" standalone="no"?>
<!DOCTYPE svg PUBLIC "-//W3C//DTD SVG 1.1//EN" "http://www.w3.org/Graphics/SVG/1.1/DTD/svg11.dtd">
<svg xmlns="http://www.w3.org/2000/svg" xmlns:xlink="http://www.w3.org/1999/xlink" version="1.1"
   viewBox="94 -151 2414 2169">
   <path fill="currentColor"
      d="M1314 1978q-318 -245 -549 -472.5t-369 -434.5l69 -37q125 184 335 398t514 449q359 -277 589 -519.5t341 -460.5t111 -422q0 -143 -62.5 -256t-172 -179t-250.5 -66q-124 0 -237 52.5t-197 147.5t-122 223q-37 -128 -121.5 -223t-197 -147.5t-237.5 -52.5
q-140 0 -250 66t-172.5 179t-62.5 256q0 22 1.5 46t5.5 50l-77 37q-5 -37 -7.5 -70t-2.5 -63q0 -165 73.5 -296.5t201.5 -208t290 -76.5q115 0 222.5 41.5t194.5 117.5t139 179q53 -103 139.5 -179t194.5 -117.5t222 -41.5q163 0 290.5 76.5t201 208t73.5 296.5
q0 221 -119 453.5t-366.5 490t-635.5 555.5zM646 1505l-89 -153l-141 12q47 -62 85 -143t60 -166t22 -160l185 -9q0 182 -27.5 345t-94.5 274zM289 906l53 -15q-15 -41 -22.5 -83t-7.5 -82q0 -95 40 -164l-47 -26q-24 40 -35.5 89.5t-11.5 102.5q0 90 31 178zM1143 1374
q-120 -51 -245.5 -165t-229.5 -273l163 -98q48 64 118.5 120t148.5 98t146 63l-118 78zM651 845l50 -20q-11 -25 -11 -52t13 -55l-50 -22q-18 36 -18 76q0 37 16 73zM381 1139q-60 0 -101.5 -47.5t-66.5 -120.5t-36.5 -152.5t-11.5 -142.5q0 -105 35 -163.5t97 -58.5
q59 0 132 41.5t200 134.5l96 -19q33 -93 66 -166.5t73.5 -116t95.5 -42.5q53 0 104 47.5t92 123t65.5 161.5t24.5 164q0 92 -54.5 139.5t-149.5 47.5q-54 0 -113.5 -18t-128.5 -52l-84 28q-61 95 -152 153.5t-183 58.5zM873 742l52 -20q-16 -38 -23.5 -75t-7.5 -72
q0 -47 14 -90t41 -77l-45 -32q-34 38 -50 90t-16 108q0 43 9.5 85.5t25.5 82.5zM1068 932v-280h1305l-85 280h-1220z" />
</svg>