<?xml version="1.0" standalone="no"?>
<!DOCTYPE svg PUBLIC "-//W3C//DTD SVG 1.1//EN" "http://www.w3.org/Graphics/SVG/1.1/DTD/svg11.dtd">
<svg xmlns="http://www.w3.org/2000/svg" xmlns:xlink="http://www.w3.org/1999/xlink" version="1.1"
   viewBox="94 -151 2414 2169">
   <path fill="currentColor"
      d="M1300 1778q-244 0 -467 -102.5t-402 -291.5t-291 -446q113 -259 291.5 -447.5t401 -290.5t467.5 -102q246 0 468 101.5t400.5 290t291.5 448.5q-112 258 -291 446.5t-402 291t-467 102.5zM1300 1698q224 0 430 -93t372.5 -264t269.5 -403q-169 -220 -337 -357.5
t-348 -202.5t-387 -65t-387.5 65t-347.5 202.5t-337 357.5q104 232 269.5 403t372 264t430.5 93zM1300 1603q-138 0 -258.5 -51.5t-212 -143t-143 -212t-51.5 -258.5t52 -258.5t143.5 -212t212 -143t257.5 -51.5t257.5 52t212 143.5t143.5 212t52 257.5q0 138 -51.5 258.5
t-143 212t-212 143t-258.5 51.5zM1300 1523q121 0 227 -45.5t186.5 -126t126 -186.5t45.5 -227t-45.5 -227t-126 -186.5t-186.5 -126t-227 -45.5t-227 45.5t-186.5 126t-126 186.5t-45.5 227t45.5 227.5t125.5 186.5t186.5 125.5t227.5 45.5zM1300 1215q-77 0 -140 -37
t-100 -100t-37 -140t37 -139.5t100 -99.5t140 -37t139.5 37t99.5 99.5t37 139.5t-37 140t-99.5 100t-139.5 37z" />
</svg>