<?xml version="1.0" standalone="no"?>
<!DOCTYPE svg PUBLIC "-//W3C//DTD SVG 1.1//EN" "http://www.w3.org/Graphics/SVG/1.1/DTD/svg11.dtd">
<svg xmlns="http://www.w3.org/2000/svg" xmlns:xlink="http://www.w3.org/1999/xlink" version="1.1"
   viewBox="94 -151 2414 2169">
   <path fill="currentColor"
      d="M986 1928q-190 0 -337 -81t-230.5 -226t-83.5 -336q0 -123 42 -254t115.5 -258.5t169.5 -240.5t204 -199.5t219 -136t215 -49.5t215 49.5t219 136t204 199.5t169.5 240.5t115.5 258.5t42 254q0 191 -83.5 336t-230 226t-337.5 81q-98 0 -172 -13.5t-142 -42.5
q-68 29 -142 42.5t-172 13.5zM431 1862l-62 -46q42 -56 101.5 -111.5t132.5 -108.5l43 64q-68 50 -122 101t-93 101zM301 1650l-51 -62q99 -84 189 -136.5t176 -74.5l21 77q-77 19 -158.5 67.5t-176.5 128.5zM1237 1849q-64 0 -88 -80.5t-24 -263.5l82 36q0 124 11 184.5
t25 60.5q11 0 27.5 -13t29.5 -31q14 18 30.5 31t26.5 13q14 0 25 -60.5t11 -184.5l82 -36q0 183 -23.5 263.5t-88.5 80.5q-35 0 -63 -22q-28 22 -63 22zM1155 1564q-55 0 -105.5 -23t-82.5 -59l55 -50q23 27 59.5 40.5t73.5 13.5q56 0 89 -34.5t33 -94.5h46q0 60 33 94.5
t89 34.5q37 0 73.5 -13.5t59.5 -40.5l55 50q-31 36 -81.5 59t-106.5 23q-87 0 -145 -64q-58 64 -145 64zM1300 1435q-55 0 -105.5 -29t-50.5 -70q0 -33 43 -53.5t113 -20.5q71 0 113.5 20.5t42.5 53.5q0 41 -50.5 70t-105.5 29zM929 1064q-34 0 -57.5 -33t-23.5 -79
t23.5 -78.5t57.5 -32.5q33 0 56.5 32.5t23.5 78.5t-23.5 79t-56.5 33zM1035 1846q55 0 110 -13t92 -30h126q37 17 92 30t110 13q60 0 108.5 -41.5t77 -109.5t28.5 -146q0 -107 -53.5 -192t-166.5 -151l-135 -79v-353q0 -118 -30.5 -168t-93.5 -50t-93.5 50t-30.5 168v353
l-135 79q-113 66 -166.5 151t-53.5 192q0 78 28.5 146t77 109.5t108.5 41.5zM852 1835q-51 -50 -81 -124.5t-30 -161.5q0 -129 64.5 -232t194.5 -179l96 -56v-308q0 -296 204 -296t204 296v308l96 56q131 76 195 179t64 232q0 87 -30 161.5t-81 124.5q133 -26 231 -101
t152 -190t54 -259q0 -134 -55.5 -280.5t-149 -285t-209.5 -250t-238 -178t-233 -66.5t-233 66.5t-238 178t-209.5 250t-149 285t-55.5 280.5q0 144 54 259t152.5 190t230.5 101zM597 701q-89 -18 -160.5 -71t-113 -130.5t-41.5 -167.5q0 -105 53.5 -192.5t142.5 -139.5
t195 -52q89 0 168 39t135 106.5t76 152.5l-78 19q-24 -102 -110 -169.5t-191 -67.5q-84 0 -155 41.5t-113.5 110.5t-42.5 152q0 104 71 186t180 105zM670 471q-60 0 -102.5 -42.5t-42.5 -102.5t42.5 -102.5t102.5 -42.5t102.5 42.5t42.5 102.5t-42.5 102.5t-102.5 42.5z
M2169 1862q-39 -50 -93 -101t-122 -101l43 -64q73 53 132.5 108.5t101.5 111.5zM2299 1650q-95 -80 -176.5 -128.5t-158.5 -67.5l21 -77q86 22 176 74.5t189 136.5zM1671 1064q-33 0 -56.5 -33t-23.5 -79t23.5 -78.5t56.5 -32.5q34 0 57.5 32.5t23.5 78.5t-23.5 79t-57.5 33
zM1930 471q-60 0 -102.5 -42.5t-42.5 -102.5t42.5 -102.5t102.5 -42.5t102.5 42.5t42.5 102.5t-42.5 102.5t-102.5 42.5zM2003 701l-16 -78q109 -23 180 -105t71 -186q0 -83 -42.5 -152t-113 -110.5t-155.5 -41.5q-105 0 -191 67.5t-110 169.5l-78 -19q21 -85 76.5 -152.5
t134.5 -106.5t168 -39q107 0 195.5 52t142 139.5t53.5 192.5q0 90 -41.5 167.5t-112.5 130.5t-161 71z" />
</svg>