<?xml version="1.0" standalone="no"?>
<!DOCTYPE svg PUBLIC "-//W3C//DTD SVG 1.1//EN" "http://www.w3.org/Graphics/SVG/1.1/DTD/svg11.dtd">
<svg xmlns="http://www.w3.org/2000/svg" xmlns:xlink="http://www.w3.org/1999/xlink" version="1.1"
   viewBox="94 -151 2414 2169">
   <path fill="currentColor"
      d="M1669 1578q-142 0 -277.5 -27.5t-268.5 -78.5q-111 -43 -191 -69.5t-148 -42t-142 -25.5t-173 -19q-95 -9 -139 -45.5t-44 -101.5q0 -55 14.5 -91t44.5 -69q14 32 43 55t85 37.5t152 21.5q72 5 143.5 26t157 63t199.5 111q146 88 285 131.5t263 43.5q160 0 293.5 -44.5
t213.5 -118t80 -160.5q0 -21 -13.5 -41t-51.5 -48.5t-112 -74.5l-864 -541q-36 -101 -86 -146.5t-105 -45.5q-76 0 -130.5 64t-69.5 185q-60 37 -101.5 53.5t-86.5 16.5q-67 0 -128.5 -29t-104.5 -78t-55 -109h50q-33 58 -47.5 144t-14.5 219q0 72 14.5 156t60.5 222h-86
q-37 -128 -53 -216t-16 -161q0 -81 9 -165.5t31 -156.5t61 -116.5t100 -44.5q41 0 76.5 20t68.5 47q41 34 74 49t67 15q21 0 42.5 -5t64.5 -18l-98 95q35 -131 108.5 -199t164.5 -68q75 0 142 54.5t110 172.5l835 523q105 65 164.5 114.5t59.5 114.5q0 81 -53 153.5
t-146 128.5t-214 87.5t-258 31.5zM1476 1128q-39 0 -81 -16t-87 -48l-192 -136q-91 -65 -144.5 -94.5t-107.5 -29.5q-46 0 -85 16t-77 37q-43 23 -91 41.5t-111 20.5v-81q48 0 87 -16t77 -37q42 -23 89 -42t111 -19q77 0 144 38t156 102l192 136q34 24 63.5 35t56.5 11
q40 0 81 -26.5t91 -84.5q38 -44 86 -81t104 -37q35 0 57 9l25 70q-11 -10 -20.5 -11.5t-21.5 -1.5q-42 0 -86 31t-85 75q-43 46 -100 92.5t-131 46.5zM1714 1352q-217 0 -319 -55.5t-102 -173.5q0 -41 14 -97l76 33q-8 38 -8 63q0 79 79 114.5t260 35.5q73 0 147 -18
t136.5 -47.5t100.5 -64t38 -67.5q0 -20 -8 -33.5t-30 -26.5l53 -29q62 42 62 101q0 50 -41.5 97.5t-112.5 85.5t-160.5 60t-184.5 22zM1531 937l-63 -31q32 -60 66.5 -119t81.5 -117l36 32q-82 38 -158 80t-139 83l-55 -37q23 -66 63.5 -145.5t81.5 -140.5l41 30
q-88 41 -174.5 86.5t-146.5 86.5l-50 -35q27 -71 66.5 -149.5t80.5 -139.5l33 30q-62 35 -142.5 85t-133.5 86l-51 -49q29 -21 89.5 -59.5t128 -78.5t116.5 -66l51 35q-39 56 -84.5 141.5t-73.5 156.5l-34 -34q42 -27 96.5 -57t114 -60t114.5 -56l49 34q-26 38 -56.5 90.5
t-58 107t-45.5 99.5l-37 -30q74 -50 158 -95.5t167 -81.5l51 35q-58 70 -102 142t-81 141z" />
</svg>