<?xml version="1.0" standalone="no"?>
<!DOCTYPE svg PUBLIC "-//W3C//DTD SVG 1.1//EN" "http://www.w3.org/Graphics/SVG/1.1/DTD/svg11.dtd">
<svg xmlns="http://www.w3.org/2000/svg" xmlns:xlink="http://www.w3.org/1999/xlink" version="1.1"
   viewBox="94 -151 2414 2169">
   <path fill="currentColor"
      d="M1300 1978q-170 0 -319.5 -64t-262.5 -178t-177 -263.5t-64 -320.5q0 -172 67 -325t187 -269t279 -176l-196 -235l166 -249h640l166 249l-196 235q160 60 279.5 176t186.5 269t67 325q0 171 -64 320.5t-177 263.5t-262.5 178t-319.5 64zM1300 1898q154 0 288.5 -58
t236.5 -160.5t160 -238t58 -289.5q0 -160 -64 -301.5t-178 -247t-266 -156.5l-115 138q132 28 236 109.5t164.5 200t60.5 258.5q0 120 -45 225.5t-125 185.5t-185.5 125.5t-225.5 45.5t-225.5 -45.5t-185.5 -125.5t-125 -185.5t-45 -225.5q0 -140 60.5 -258.5t165 -200
t235.5 -109.5l-115 -138q-151 51 -265.5 156.5t-178.5 247t-64 301.5q0 154 58 289.5t160 238t236.5 160.5t288.5 58zM1300 1655q138 0 251.5 -68t181.5 -182t68 -252t-67.5 -251.5t-181 -181t-252.5 -67.5q-138 0 -252 67.5t-181.5 181t-67.5 251.5t68 252t181.5 182
t251.5 68zM1231 553l-147 -378h-169zM1300 565l151 -390h-302zM907 115h175l45 -157h-115zM1369 553l316 -378h-169zM1145 115h310l-45 -157h-220zM1518 115h175l-105 -157h-115z" />
</svg>