<?xml version="1.0" standalone="no"?>
<!DOCTYPE svg PUBLIC "-//W3C//DTD SVG 1.1//EN" "http://www.w3.org/Graphics/SVG/1.1/DTD/svg11.dtd">
<svg xmlns="http://www.w3.org/2000/svg" xmlns:xlink="http://www.w3.org/1999/xlink" version="1.1"
   viewBox="94 -151 2414 2169">
   <path fill="currentColor"
      d="M292 1978l-52 -61l782 -646q126 -104 179 -174t53 -128q0 -49 -28 -89.5t-70 -65.5t-86 -25q-33 0 -61 16l-727 443l-42 -68l727 -443q47 -28 103 -28q65 0 125.5 35t99.5 94t39 131q0 81 -61 164.5t-201 199.5zM1111 1973l-60 -52l313 -351q64 -71 87.5 -122.5
t23.5 -112.5q0 -15 -1 -23l68 -69q13 36 13 92q0 76 -29.5 141t-101.5 146zM701 990l-52 -60q136 -118 136 -213q0 -46 -30 -83.5t-76 -60.5t-95 -23q-43 0 -78 19l-228 124l-38 -70l228 -124q27 -15 56.5 -22t59.5 -7q70 0 134.5 33t105.5 89t41 125q0 65 -42 135t-122 138
zM545 782q-67 0 -118.5 -39t-51.5 -91q0 -35 33.5 -78.5t85.5 -83.5t108.5 -66t102.5 -26q36 0 70.5 26.5t56.5 67t22 83.5q0 48 -47 95.5t-118.5 79.5t-143.5 32zM1272 1445q-64 0 -113.5 -34t-49.5 -89q0 -34 28.5 -79.5t73 -89t95 -72t94.5 -28.5q35 0 70.5 22.5
t59.5 58.5t24 76q0 47 -42 102t-106.5 94t-133.5 39zM996 1062q-67 0 -114.5 -41t-47.5 -99q0 -35 33.5 -78.5t85.5 -83.5t108 -65.5t102 -25.5q36 0 70.5 26.5t56.5 66.5t22 82q0 49 -48 99.5t-121 84.5t-147 34zM1657 987q-90 0 -127.5 -38t-37.5 -76q0 -50 35 -63
q62 -24 115.5 -51t80.5 -66q62 0 80.5 28t18.5 57q0 46 -27.5 94.5t-66 81.5t-71.5 33zM1762 782q0 -31 24 -67t53 -55l86 -233q7 -19 -4.5 -32.5t-27.5 -13.5q-22 0 -32 26l-89 230q2 14 2 21q0 24 -9.5 45.5t-26.5 41.5h-71q19 -13 34 -40t15 -52q0 -13 -6 -22l118 -303
l173 66l-112 305q-15 4 -30.5 19t-26 32.5t-10.5 31.5h-60zM2065 559q-38 0 -70.5 -5t-75.5 -15l51 -137l-119 -42l-56 139q-136 -61 -191 -121t-26 -116l190 -364h592l-109 567q-10 50 -57 72t-129 22zM2174 440l89 -462h-446l-160 306q164 0 292 39.5t225 116.5z" />
</svg>