<?xml version="1.0" standalone="no"?>
<!DOCTYPE svg PUBLIC "-//W3C//DTD SVG 1.1//EN" "http://www.w3.org/Graphics/SVG/1.1/DTD/svg11.dtd">
<svg xmlns="http://www.w3.org/2000/svg" xmlns:xlink="http://www.w3.org/1999/xlink" version="1.1"
   viewBox="94 -151 2414 2169">
   <path fill="currentColor"
      d="M538 1978v-1777h1524v1777h-1524zM836 1638v-80h454v80h-454zM836 1395v-81h928v81h-928zM618 1898h1364v-1617h-1364v1617zM836 1151v-80h928v80h-928zM836 908v-81h928v81h-928zM836 664v-80h928v80h-928zM914 359q-15 0 -25.5 -10.5t-10.5 -26.5v-33q0 -68 48 -116.5
t116 -48.5h36q34 0 57 -24.5t23 -58.5v-1q0 -58 42 -100t100 -42t100 42t42 100v1q0 34 23 58.5t57 24.5h36q68 0 116 48.5t48 116.5v33q0 16 -10.5 26.5t-25.5 10.5h-772zM1300 111q29 0 49.5 -20.5t20.5 -48.5q0 -29 -20.5 -49.5t-49.5 -20.5t-49.5 20.5t-20.5 49.5
q0 28 21 48.5t49 20.5z" />
</svg>