<?xml version="1.0" standalone="no"?>
<!DOCTYPE svg PUBLIC "-//W3C//DTD SVG 1.1//EN" "http://www.w3.org/Graphics/SVG/1.1/DTD/svg11.dtd">
<svg xmlns="http://www.w3.org/2000/svg" xmlns:xlink="http://www.w3.org/1999/xlink" version="1.1"
   viewBox="94 -151 2414 2169">
   <path fill="currentColor"
      d="M486 1978q-118 -320 -172 -547t-54 -399q0 -174 57.5 -308.5t159.5 -211t234 -76.5q96 0 174 39t134.5 104.5t87 145t30.5 159.5v8v8q49 -29 109.5 -43.5t118.5 -14.5q122 0 218.5 53.5t152.5 146t56 208.5q0 289 -320.5 466.5t-985.5 261.5zM541 1891q593 -81 882 -239
t289 -402q0 -94 -45.5 -168t-123.5 -117t-178 -43q-72 0 -151.5 24t-150.5 74q2 -20 3.5 -39.5t1.5 -38.5q0 -122 -45.5 -218t-126 -152t-185.5 -56q-109 0 -192.5 66t-131 182t-47.5 268q0 157 49.5 368.5t151.5 490.5zM1995 904q-144 -65 -267 -133t-215 -142.5t-143 -158
t-51 -180.5q0 -78 35 -139.5t96 -96.5t138 -35q54 0 108 20t94 55q26 -84 104 -140t172 -56q79 0 141 40.5t97.5 111t35.5 160.5q0 129 -82.5 293t-262.5 401zM1975 818q155 -206 225 -351.5t70 -256.5q0 -108 -56 -175t-148 -67q-66 0 -121 36t-87.5 95t-32.5 129
q-30 -59 -96 -99t-141 -40q-89 0 -144 55.5t-55 145.5q0 81 44 152t123.5 135.5t186.5 124t232 116.5z" />
</svg>