<?xml version="1.0" standalone="no"?>
<!DOCTYPE svg PUBLIC "-//W3C//DTD SVG 1.1//EN" "http://www.w3.org/Graphics/SVG/1.1/DTD/svg11.dtd">
<svg xmlns="http://www.w3.org/2000/svg" xmlns:xlink="http://www.w3.org/1999/xlink" version="1.1"
   viewBox="94 -151 2414 2169">
   <path fill="currentColor"
      d="M426 1978q-68 0 -117 -48.5t-49 -115.5v-1751q0 -68 49 -116.5t116 -48.5h1750q68 0 116.5 48.5t48.5 116.5v1750q0 67 -48.5 116t-116.5 49h-1749zM939 1606q-26 0 -26 -25q0 -24 26 -24h236q25 0 25 24q0 25 -25 25h-236zM1044 1743q97 0 177.5 -6t137.5 -18
q63 -14 89 -43.5t26 -90.5v-304h-93v116q0 60 -59 60h-534q-59 0 -59 -60v-918q0 -60 59 -60h534q59 0 59 60v116h93v-303q0 -62 -26.5 -93t-88.5 -42q-61 -11 -141.5 -17t-173.5 -6q-85 0 -161.5 6t-131.5 17q-63 12 -89 42.5t-26 92.5v1293q0 61 26.5 91.5t88.5 42.5
q57 11 134 17.5t159 6.5zM1077 1170q110 0 162 -64t52 -167q0 -104 -52 -167t-161 -63t-161.5 63t-52.5 167q0 103 52 167t161 64zM1077 1090q-60 0 -86.5 -40t-26.5 -111t26.5 -110.5t87.5 -39.5q60 0 86.5 39.5t26.5 110.5t-26.5 111t-87.5 40zM1381 1164h93v-177h152v-78
h-152v-115h163v-78h-256v448zM875 325q-29 0 -29 -29t29 -29t29 29t-29 29zM1027 318q-25 0 -25 -24q0 -25 25 -25h218q26 0 26 25q0 24 -26 24h-218zM1718 1164h93v-177h152v-78h-152v-115h163v-78h-256v448z" />
</svg>