<?xml version="1.0" standalone="no"?>
<!DOCTYPE svg PUBLIC "-//W3C//DTD SVG 1.1//EN" "http://www.w3.org/Graphics/SVG/1.1/DTD/svg11.dtd">
<svg xmlns="http://www.w3.org/2000/svg" xmlns:xlink="http://www.w3.org/1999/xlink" version="1.1"
   viewBox="94 -151 2414 2169">
   <path fill="currentColor"
      d="M1921 554v-80h216q68 0 106.5 35t45.5 98l100 883q11 93 -37.5 142.5t-149.5 49.5h-1804q-100 0 -147.5 -48.5t-39.5 -141.5l75 -857q7 -78 50 -119.5t127 -41.5h88v80h-87q-53 0 -73.5 20.5t-24.5 66.5l-75 857q-5 58 18.5 81t88.5 23h1804q65 0 89 -23.5t18 -78.5
l-100 -883q-3 -27 -22.5 -45t-51.5 -18h-214zM391 1180l76 13q-14 106 2.5 160t75.5 95q17 11 60 14.5t92.5 -8t88.5 -44.5t48 -94q8 -58 13 -140.5t7 -173t2.5 -174.5t0.5 -146v-85q0 -53 -29 -88.5t-89 -37.5v-79q97 6 147.5 62.5t50.5 142.5v85.5t-0.5 147.5t-3 177.5
t-7.5 177t-14 143.5q-11 75 -56.5 121.5t-108.5 67.5t-127 21q-94 0 -150.5 -46t-75.5 -127t-3 -185zM623 1415q44 0 82.5 -20.5t58.5 -54.5t25 -79t-8 -77q-3 -12 -10 -19q-11 -14 -18.5 -25t-7.5 -25q0 -52 4.5 -119.5t11 -131.5t11 -106.5t4.5 -43.5q0 -34 23 -51
q32 -24 32 -83q0 -44 -26.5 -77t-81.5 -33q-73 0 -114 40.5t-61 143.5q-25 127 -40 259t-37 263q-19 117 19.5 178t132.5 61zM623 1495q-133 0 -193.5 -89.5t-36.5 -241.5q9 -56 16.5 -112t14.5 -111q11 -76 20.5 -151.5t24.5 -151.5q26 -131 88.5 -189.5t165.5 -58.5
q84 0 136 56.5t52 133.5q0 48 -14 84.5t-31 44.5q-4 2 -7 7.5t-5 21.5q-3 19 -7.5 64t-9.5 102t-8.5 113t-3.5 98q0 6 -3 -5.5t0 -7.5q13 13 20.5 26t13.5 27q20 48 13 111.5t-36 113.5q-30 52 -87.5 83.5t-122.5 31.5zM2012 1324q17 0 30 -13t13 -30t-13 -30t-30 -13h-204
q-17 0 -30 13t-13 30q0 18 13 30.5t30 12.5h204zM1051 973q0 21 17.5 36.5t42.5 15.5t42.5 -15.5t17.5 -36.5q0 -22 -17.5 -37t-42.5 -15t-42.5 15t-17.5 37zM1268 973q0 21 17.5 36.5t42.5 15.5q24 0 42 -15.5t18 -36.5q0 -22 -17.5 -37t-42.5 -15t-42.5 15t-17.5 37z
M1484 973q0 21 18 36.5t42 15.5q25 0 43 -15.5t18 -36.5q0 -22 -18 -37t-43 -15t-42.5 15t-17.5 37zM1037 1135q0 21 17.5 36.5t42.5 15.5t42.5 -15.5t17.5 -36.5q0 -22 -17.5 -37.5t-42.5 -15.5t-42.5 15.5t-17.5 37.5zM1268 1135q0 21 17.5 36.5t42.5 15.5q24 0 42 -15.5
t18 -36.5q0 -22 -18 -37.5t-42 -15.5q-25 0 -42.5 15.5t-17.5 37.5zM1498 1135q0 21 17.5 36.5t42.5 15.5t42.5 -15.5t17.5 -36.5q0 -22 -17.5 -37.5t-42.5 -15.5t-42.5 15.5t-17.5 37.5zM1023 1296q0 22 18 37.5t43 15.5q24 0 42 -15.5t18 -37.5q0 -21 -18 -36.5t-42 -15.5
q-25 0 -43 15.5t-18 36.5zM1268 1296q0 22 17.5 37.5t42.5 15.5q24 0 42 -15.5t18 -37.5q0 -21 -18 -36.5t-42 -15.5q-25 0 -42.5 15.5t-17.5 36.5zM1512 1296q0 22 17.5 37.5t42.5 15.5t42.5 -15.5t17.5 -37.5q0 -21 -17.5 -36.5t-42.5 -15.5t-42.5 15.5t-17.5 36.5z
M1010 1458q0 22 17.5 37t42.5 15t42.5 -15t17.5 -37q0 -21 -17.5 -36.5t-42.5 -15.5t-42.5 15.5t-17.5 36.5zM1268 1458q0 22 17.5 37t42.5 15t42.5 -15t17.5 -37q0 -21 -18 -36.5t-42 -15.5q-25 0 -42.5 15.5t-17.5 36.5zM1525 1458q0 22 17.5 37t42.5 15t42.5 -15
t17.5 -37q0 -21 -17.5 -36.5t-42.5 -15.5q-24 0 -42 15.5t-18 36.5zM1841 1448q0 25 21.5 44t50.5 19t50 -19t21 -44q0 -26 -21 -44t-50 -18t-50.5 18t-21.5 44zM1930 1760h-1035v76h1035v-76zM211 1492l79 62q-19 172 3.5 258t104.5 86h1804q81 0 104 -88t4 -272l79 -48
q9 96 8 184t-18.5 156.5t-60 108t-116.5 39.5h-1804q-75 0 -117.5 -38t-60 -105t-18 -155t8.5 -188zM902 -22q16 63 26 110t15 98t5 127q0 33 -1 73t-3 88h940q8 -57 12 -104.5t4 -89.5q0 -79 -13.5 -149.5t-41.5 -152.5h-943zM792 -102h1108q41 100 60.5 190t19.5 196
q0 58 -6 124.5t-17 145.5h-1096q4 -60 5.5 -113t1.5 -101q0 -143 -17.5 -241t-58.5 -201zM1054 782q0 30 18.5 45.5t45.5 15.5h436q27 0 45.5 -15.5t18.5 -45.5q0 -31 -18.5 -47t-45.5 -16h-436q-27 0 -45.5 16t-18.5 47zM1751 117h-695l7 66h695zM1765 267h-695v66h695v-66
zM1775 800q-18 0 -30.5 -12.5t-12.5 -30.5t12.5 -30.5t30.5 -12.5t30.5 12.5t12.5 30.5t-12.5 30.5t-30.5 12.5zM1905 800q-18 0 -30.5 -12.5t-12.5 -30.5t12.5 -30.5t30.5 -12.5t30.5 12.5t12.5 30.5t-12.5 30.5t-30.5 12.5zM2035 800q-18 0 -30.5 -12.5t-12.5 -30.5
t12.5 -30.5t30.5 -12.5t30.5 12.5t12.5 30.5t-12.5 30.5t-30.5 12.5zM1785 930q-18 0 -30.5 -12.5t-12.5 -30.5t12.5 -30.5t30.5 -12.5t30.5 12.5t12.5 30.5t-12.5 30.5t-30.5 12.5zM1915 930q-18 0 -30.5 -12.5t-12.5 -30.5t12.5 -30.5t30.5 -12.5t30.5 12.5t12.5 30.5
t-12.5 30.5t-30.5 12.5zM2045 930q-18 0 -30.5 -12.5t-12.5 -30.5t12.5 -30.5t30.5 -12.5t30.5 12.5t12.5 30.5t-12.5 30.5t-30.5 12.5zM2004 1163q17 0 30 -13t13 -30t-13 -30t-30 -13h-204q-17 0 -30 13t-13 30q0 18 13 30.5t30 12.5h204z" />
</svg>