<?xml version="1.0" standalone="no"?>
<!DOCTYPE svg PUBLIC "-//W3C//DTD SVG 1.1//EN" "http://www.w3.org/Graphics/SVG/1.1/DTD/svg11.dtd">
<svg xmlns="http://www.w3.org/2000/svg" xmlns:xlink="http://www.w3.org/1999/xlink" version="1.1"
   viewBox="94 -151 2414 2169">
   <path fill="currentColor"
      d="M920 1928q-81 0 -127 -36.5t-46 -91.5q0 -52 35 -92t82 -52q5 -26 9 -54t4 -44q0 -81 -12 -91q-57 -49 -90 -80t-51 -51.5t-32 -39.5q-29 -40 -50.5 -112.5t-33.5 -124.5q-7 -30 -10 -41.5t-5 -14.5q-6 -12 -26 -40t-45 -61t-47.5 -60.5t-34.5 -38.5q-35 5 -75 5
q-114 0 -178.5 -49.5t-64.5 -140.5q0 -36 -18.5 -79.5t-18.5 -131.5q0 -54 28 -82t68 -41.5t77 -25.5t56 -34q21 -25 54 -57t82 -56.5t116 -24.5q41 0 79 13q71 -84 116.5 -107.5t86.5 -23.5q128 0 128 198q0 41 -5.5 84t-14.5 85q30 103 103 161t152 58q21 0 73.5 -3.5
t110.5 -6.5t97 -3q126 0 246 43.5t213 125.5t137 198l55 143q14 36 33.5 57t47.5 21q30 0 52 -17.5t42.5 -41t44.5 -41t59 -17.5q41 0 67 32t26 76q0 66 -45.5 133.5t-114.5 113t-139 45.5q-33 0 -76 -11.5t-84 -31t-70 -43.5l-22 22q8 14 14 35.5t6 43.5q0 23 -4.5 68
t-9 95.5t-4.5 88.5q0 249 -229 249q-164 0 -164 -124q0 -34 10.5 -58.5t24.5 -52t24.5 -69t10.5 -108.5q0 -21 -1.5 -37.5t-4.5 -37.5q-9 -19 -32.5 -46t-52 -53.5t-52.5 -41.5l-207 69q-8 19 -23 72.5t-32 124.5t-32 145q-19 96 -98.5 156.5t-187.5 60.5zM478 1639
q-54 0 -91 -32.5t-37 -93.5q0 -54 38.5 -130.5t120.5 -191.5q38 -53 65 -101.5t27 -73.5l88 202l116 123q-21 0 -55 19.5t-68 47.5t-57.5 55t-23.5 42q0 59 -31 96.5t-92 37.5zM922 1288q-31 -6 -49 -34t-12 -61q5 -24 15 -22t26 12.5t36 14.5q21 3 38.5 -1.5t27.5 -2.5
t6 26q-5 32 -31.5 53t-56.5 15zM562 910l-83 -116q20 -41 45.5 -52.5t47.5 2.5q23 13 24.5 49.5t-34.5 116.5zM157 559l-30 -154h152q30 0 30 24q0 22 -23 53t-58 54t-71 23zM824 969q-31 0 -53.5 -24t-22.5 -64q0 -37 16.5 -66t50.5 -29q37 0 37 23q0 11 -17.5 14.5t-35 9
t-17.5 24.5q0 13 14.5 17t28.5 4q23 0 37 -8t24 -8q13 0 13 24q0 32 -20 57.5t-55 25.5zM1488 1665q-95 0 -95 -46q0 -29 21.5 -68.5t54.5 -75.5q4 -20 5 -56.5t1 -76.5q0 -48 -3 -61l90 9l144 130l-57 237q-42 8 -161 8zM1200 1168q-30 6 -56.5 -15.5t-32.5 -56.5
q-3 -22 6.5 -23t27.5 3.5t38 1.5q21 -4 36.5 -14.5t26 -13.5t14.5 19q8 36 -10.5 64.5t-49.5 34.5zM479 470q-16 0 -26 -8t-10 -19q0 -20 25 -34q-12 -9 -12 -25q0 -23 20 -46t47 -23q12 0 22 7.5t10 25.5q21 -23 42 -23q19 0 19 17q0 24 -23 54t-55 52t-59 22zM827 671
q-31 0 -54.5 -26t-23.5 -57q0 -12 14 -12q11 0 26.5 6.5t32.5 6.5q21 0 37.5 -18t26.5 -18q11 0 13 13t2 23q0 32 -21 57t-53 25zM1098 919q-31 0 -50.5 -22.5t-19.5 -53.5q0 -25 12 -45q12 -19 20.5 -13t19.5 21.5t29 25.5q19 9 37.5 10t27.5 4.5t-1 22.5q-26 50 -75 50z
M920 1850q80 0 137.5 -43.5t70.5 -111.5q15 -75 33 -150t37 -138.5t36 -102.5l270 -90q21 4 54 28t66.5 58t59 67t31.5 54q5 34 6.5 57t1.5 49q0 76 -17.5 122.5t-35 81t-17.5 75.5q0 21 16 31.5t68 10.5q79 0 114 -39t35 -130q0 -40 4.5 -89t9 -93t4.5 -70q0 -24 -4 -44.5
t-21 -40.5q31 -22 53 -48.5t32 -59.5q60 52 136 76t116 24q32 0 68 -15.5t67.5 -43.5t51.5 -67l-60 -61q-26 31 -55 46.5t-64 15.5q-55 0 -94 -36t-62 -94l-55 -142q-36 -94 -114 -165t-183 -111t-224 -40q-18 0 -57 2t-85 4.5t-84.5 4.5t-54.5 2q-78 0 -147 -38t-119 -105
t-71 -154q11 -49 16.5 -91.5t5.5 -79.5q0 -65 -15 -91.5t-48 -26.5q-34 0 -75.5 29.5t-92.5 121.5q-39 -21 -56 -27t-43 -6q-73 0 -120.5 35t-78.5 73q-17 21 -29 31t-32 21q-13 7 -47.5 16t-64 23t-29.5 36q0 47 9.5 85.5t18.5 70.5t9 61q0 54 39.5 82t123.5 28q26 0 51 -3
t46 -8q11 7 40 38.5t63.5 73t62.5 80t37 58.5q5 10 10.5 30t10.5 44q18 82 36 133t34 74q16 22 35 43t49 48t76 67q20 17 30.5 57t10.5 101q0 35 -9.5 73t-20.5 70q-39 11 -69.5 34.5t-30.5 58.5q0 20 23.5 35t69.5 15zM1450 1011q-26 15 -57.5 3t-46.5 -42
q-11 -22 -2.5 -26.5t27.5 -5t37 -10.5q19 -10 30 -25.5t20.5 -20.5t20.5 17q16 30 7.5 62t-36.5 48zM1331 892q-20 -44 24 -69q21 -12 41 -11t31 20q10 16 3 19.5t-21 4t-27 8.5q-20 12 -30.5 31t-20.5 -3zM813 287l-92 -53q30 -53 51.5 -73.5t40.5 -20.5q18 0 18 41
q0 21 -5 46.5t-13 59.5zM510 130q0 -42 18.5 -84t47 -70t57.5 -28q33 0 50.5 32.5t17.5 76.5l-58 73h-133zM1780 1171q-27 14 -58.5 2.5t-45.5 -39.5q-10 -21 -1.5 -26t27 -6t36.5 -10q19 -10 30 -25.5t20.5 -20.5t20.5 17q15 28 7 60.5t-36 47.5zM1371 701q-36 5 -66 -20.5
t-36 -66.5l174 -24q7 43 -15 74.5t-57 36.5zM1751 896q-20 11 -44 2t-35 -31q-12 -24 7 -23t40 -9q14 -7 22 -18.5t15 -15t16 12.5q12 22 5.5 46.5t-26.5 35.5z" />
</svg>