<?xml version="1.0" standalone="no"?>
<!DOCTYPE svg PUBLIC "-//W3C//DTD SVG 1.1//EN" "http://www.w3.org/Graphics/SVG/1.1/DTD/svg11.dtd">
<svg xmlns="http://www.w3.org/2000/svg" xmlns:xlink="http://www.w3.org/1999/xlink" version="1.1"
   viewBox="94 -151 2414 2169">
   <path fill="currentColor"
      d="M1117 1978q-100 0 -211.5 -9.5t-206.5 -21.5q-86 -11 -132 -25.5t-63 -36t-17 -52.5q0 -26 11 -47t36 -40l23 36q-55 50 -98.5 74t-80.5 24q-32 0 -54 -14t-33 -41t-11 -65q0 -25 3.5 -52.5t10.5 -66.5q10 -52 17.5 -140t7.5 -168q0 -44 -2 -83.5t-5 -82.5
q-4 -50 -5.5 -93t-1.5 -80q0 -92 20.5 -171.5t58.5 -141.5q57 -92 145 -139.5t227 -58.5q46 -4 64.5 -7.5t27.5 -11.5q14 -13 18.5 -34.5t8.5 -66.5q10 -98 27 -166.5t69 -127.5q68 -79 185.5 -121.5t266.5 -42.5q49 0 102.5 3.5t117.5 11.5q42 5 92 9.5t102 4.5q41 0 90 -4
t89 -12q42 -9 76.5 -14.5t63.5 -5.5q57 0 88 23t31 67q0 31 -11.5 63.5t-39.5 64.5q-25 30 -58.5 64t-65.5 66l-29 -22q17 -19 44.5 -29.5t57.5 -10.5q61 0 95.5 47t43.5 151q5 61 6.5 123t1.5 134q0 47 -1.5 96t-3.5 105q-6 143 -25.5 270t-69.5 241.5t-149 223.5
q-117 129 -266.5 219t-323.5 137t-364 47zM1145 1735q-21 0 -33.5 -10.5t-12.5 -29.5q0 -17 12.5 -28.5t33.5 -11.5q109 0 187.5 -16t166.5 -47q17 -6 33 1t20 24q10 35 -22 50q-91 43 -183.5 55.5t-201.5 12.5zM1117 1898q179 0 343 -44.5t305.5 -130t250.5 -207.5
q91 -101 136 -206t61.5 -220t21.5 -244q2 -57 3.5 -108t1.5 -99q0 -64 -1.5 -127t-6.5 -125q-4 -53 -21.5 -83.5t-43.5 -30.5q-24 0 -48.5 13t-45.5 38q-69 81 -120.5 154t-94.5 154.5t-88 186.5q-40 96 -87.5 182.5t-135.5 169.5q-76 72 -183.5 137.5t-253.5 132.5
q-43 19 -85.5 40.5t-84.5 46.5q-59 35 -105.5 65.5t-88.5 62t-90 70.5q-52 43 -67 62t-15 35q0 18 24 27t111 19q98 11 209 20t199 9zM388 1790q14 0 28 -7t40 -28q60 -48 122 -125.5t118 -170t97 -183.5q20 -45 41.5 -88t40.5 -65q29 -33 71 -52.5t90 -36.5
q65 -23 127.5 -60t105.5 -79q45 -44 81 -98.5t59 -115.5q15 -40 30.5 -76.5t33 -67.5t39.5 -51q25 -23 66 -45t120 -54q51 -21 122 -58t152 -93.5t160 -135.5q23 -23 42 -49.5t19 -43.5q0 -29 -49 -29q-24 0 -52.5 5t-63.5 14q-46 12 -98.5 14.5t-92.5 2.5q-46 0 -97.5 -3.5
t-104.5 -10.5q-58 -8 -110 -11.5t-102 -3.5q-86 0 -162 17t-135.5 48t-96.5 74q-33 38 -50.5 98t-25.5 154q-4 58 -17.5 95t-36.5 57q-16 14 -44 21t-83 12q-127 10 -199 48t-122 115q-34 52 -50 118t-16 152q0 43 2 85t6 85q4 42 5 84.5t1 84.5q0 82 -4.5 168.5
t-18.5 148.5q-7 31 -10 54.5t-3 42.5q0 23 6 33t19 10zM1132 315q-13 -12 -12.5 -28.5t13.5 -29.5q35 -35 89.5 -62.5t122.5 -43.5t144 -16q18 0 30.5 11t12.5 30q0 16 -10.5 27.5t-27.5 12.5q-70 3 -128.5 16t-103 33.5t-72.5 48.5q-13 13 -29.5 12.5t-28.5 -11.5z" />
</svg>