<?xml version="1.0" standalone="no"?>
<!DOCTYPE svg PUBLIC "-//W3C//DTD SVG 1.1//EN" "http://www.w3.org/Graphics/SVG/1.1/DTD/svg11.dtd">
<svg xmlns="http://www.w3.org/2000/svg" xmlns:xlink="http://www.w3.org/1999/xlink" version="1.1"
   viewBox="94 -151 2414 2169">
   <path fill="currentColor"
      d="M838 1353q-116 -10 -202.5 -88t-133.5 -208t-47 -294q0 -185 65.5 -342.5t182.5 -274.5t271 -182.5t331 -65.5q176 0 328.5 65t267.5 182.5t179.5 275t64.5 342.5q0 164 -48 294t-134 208t-202 88q42 -104 65.5 -231t23.5 -253q0 -24 -1 -48.5t-3 -46.5
q-58 -31 -120.5 -86.5t-118 -124.5t-93.5 -138q-146 99 -338.5 164t-401.5 92q-14 50 -20 98.5t-6 100.5q0 87 13 175.5t34 165.5t43 132zM1289 1978q-293 0 -461.5 -92.5t-187.5 -250.5q-16 -142 -20.5 -283.5t-4.5 -283.5h80q0 141 3.5 284.5t21.5 277.5q16 118 166 193
t403 75q189 0 329 -35.5t216.5 -96t76.5 -134.5q0 -26 -8 -50.5t-21 -50.5q-15 -31 -26.5 -66.5t-11.5 -79.5v-128h80v128q0 43 11.5 76t25.5 63q13 26 21.5 52t8.5 56q0 101 -85 179t-242.5 122.5t-374.5 44.5zM1284 1295q-84 0 -155 -32.5t-125 -98.5l51 -44
q46 56 102.5 82t126.5 26q71 0 127.5 -26t101.5 -82l52 44q-55 66 -126 98.5t-155 32.5zM1011 973q-38 0 -63 -28t-25 -68t25 -68.5t63 -28.5t63.5 28.5t25.5 68.5t-25.5 68t-63.5 28zM1531 973q-38 0 -63 -28t-25 -68t25 -68.5t63 -28.5t63.5 28.5t25.5 68.5t-25.5 68
t-63.5 28z" />
</svg>