<?xml version="1.0" standalone="no"?>
<!DOCTYPE svg PUBLIC "-//W3C//DTD SVG 1.1//EN" "http://www.w3.org/Graphics/SVG/1.1/DTD/svg11.dtd">
<svg xmlns="http://www.w3.org/2000/svg" xmlns:xlink="http://www.w3.org/1999/xlink" version="1.1"
   viewBox="94 -151 2414 2169">
   <path fill="currentColor"
      d="M1372 1753q-295 -235 -479.5 -426.5t-270 -358t-85.5 -323.5q0 -129 55 -229t152 -156.5t222 -56.5q83 0 161.5 31t142.5 86.5t102 129.5q39 -74 102.5 -129.5t142 -86.5t161.5 -31q125 0 222 56.5t152 156.5t55 229q0 157 -85.5 323.5t-269.5 358t-480 426.5zM774 655
q16 -64 60.5 -121t91.5 -87q15 -9 27 -9q16 0 26 13t10 25q0 19 -18 32q-40 28 -74 73.5t-49 92.5q-9 31 -37 31q-23 0 -32 -16t-5 -34zM2219 1904l-895 -863l56 -56l895 863zM1285 1151q-17 -5 -25 -21t-1 -33q26 -61 72.5 -113.5t99.5 -81.5q15 -8 31 -2t23 22
q15 30 -16 49q-46 28 -81.5 69t-55.5 87q-7 15 -19.5 21.5t-27.5 2.5zM390 272q-45 0 -71.5 -37.5t-34.5 -110.5l-24 -226l226 21q71 7 110 33t39 72q0 34 -33 61t-78 27q-15 0 -35 -4l-20 19q4 15 4 35q0 45 -24 77.5t-59 32.5zM2032 1978q-53 0 -109.5 -47t-95 -126
t-38.5 -176q0 -44 8 -85.5t27 -81.5q40 -18 83 -28t85 -10q97 0 176 39t125.5 95.5t46.5 109.5q0 37 -24.5 53t-68.5 16q-52 0 -106 -14.5t-65 -20.5l-13 12q7 15 22 67t15 105q0 44 -16 68t-52 24zM683 377l-336 -333l56 -56l336 332zM1372 1651q265 -211 431.5 -385.5
t245 -326t78.5 -292.5q0 -107 -44.5 -189t-123 -128.5t-181.5 -46.5q-133 0 -237.5 84.5t-168.5 245.5q-64 -161 -168 -245.5t-238 -84.5q-103 0 -181.5 46.5t-123 128.5t-44.5 189q0 141 78.5 292.5t245 326t431.5 385.5z" />
</svg>