<?xml version="1.0" standalone="no"?>
<!DOCTYPE svg PUBLIC "-//W3C//DTD SVG 1.1//EN" "http://www.w3.org/Graphics/SVG/1.1/DTD/svg11.dtd">
<svg xmlns="http://www.w3.org/2000/svg" xmlns:xlink="http://www.w3.org/1999/xlink" version="1.1"
   viewBox="94 -151 2414 2169">
   <path fill="currentColor"
      d="M1303 1978q-290 0 -461.5 -90t-186.5 -247q-9 -89 -15.5 -182.5t-11 -207.5t-7 -263t-2.5 -348l80 90q0 220 4 379.5t12.5 284.5t19.5 240q12 118 157.5 191t410.5 73q199 0 343 -34.5t221.5 -94t77.5 -132.5q0 -20 -6 -39.5t-19 -45.5q-19 -40 -30.5 -79.5t-11.5 -82.5
v-712l80 -38v750q0 42 10 77t28 71q14 27 21.5 49.5t7.5 49.5q0 102 -87.5 178.5t-249 119.5t-385.5 43zM1151 802q16 1 26 -9t10 -24q0 -33 -34 -35q-71 -3 -139 -19.5t-135 -44.5q-32 -14 -45 16q-13 31 16 45q142 65 301 71zM1300 803q22 0 45 -1.5t47 -3.5
q17 -2 26.5 -12.5t7.5 -25.5q-3 -35 -38 -31q-20 2 -42.5 4t-46.5 2q-34 0 -34 34t35 34zM1288 923q-139 0 -260 -22.5t-213 -61.5t-144 -90t-52 -109q0 -63 62.5 -118.5t173.5 -96t254 -56.5l77 208l108 9l97 -16l53 -205q149 15 265 56t182.5 97.5t66.5 121.5
q0 58 -52 109t-144.5 90t-214 61.5t-259.5 22.5zM1936 601l-77 -33q35 -63 49 -104.5t14 -81.5q0 -113 -83.5 -204.5t-226 -145.5t-321.5 -54t-321.5 54t-225.5 145.5t-83 204.5q0 40 14 81.5t48 103.5l-77 33q-38 -68 -54.5 -118.5t-16.5 -99.5q0 -100 54 -188
t151.5 -154.5t228 -104t282.5 -37.5t282 38t228 104.5t152.5 154.5t54.5 187q0 49 -16.5 100t-55.5 119zM1292 626q-83 0 -137 -62t-54 -162q0 -79 38 -141l58 36q8 6 16 6q11 0 34 -19q20 -15 44 -15q25 0 44 15q14 11 21 15t13 4q9 0 16 -6l58 -36q38 62 38 141
q0 100 -53.5 162t-135.5 62zM1292 564q55 0 91 -46.5t36 -115.5q0 -23 -7 -51q-17 14 -44 14q-17 0 -27.5 -5.5t-18.5 -13.5q-7 -7 -13.5 -11t-17.5 -4q-10 0 -17 4t-14 11q-8 8 -18.5 13.5t-27.5 5.5q-27 0 -44 -14q-7 28 -7 51q0 69 36.5 115.5t92.5 46.5zM1291 1379
q-85 0 -154.5 -33.5t-124.5 -100.5l51 -44q47 57 102 82.5t126 25.5q72 0 127.5 -25.5t101.5 -82.5l51 44q-55 67 -125 100.5t-155 33.5zM1035 1074q-38 0 -63 -28t-25 -68t25 -68.5t63 -28.5t63.5 28.5t25.5 68.5t-25.5 68t-63.5 28zM1543 1074q-38 0 -63 -28t-25 -68
t25 -68.5t63 -28.5t63.5 28.5t25.5 68.5t-25.5 68t-63.5 28z" />
</svg>