<?xml version="1.0" standalone="no"?>
<!DOCTYPE svg PUBLIC "-//W3C//DTD SVG 1.1//EN" "http://www.w3.org/Graphics/SVG/1.1/DTD/svg11.dtd">
<svg xmlns="http://www.w3.org/2000/svg" xmlns:xlink="http://www.w3.org/1999/xlink" version="1.1"
   viewBox="94 -151 2414 2169">
   <path fill="currentColor"
      d="M1820 1978q-109 0 -205.5 -41t-176.5 -122l-998 -1014q-91 -93 -135.5 -195t-44.5 -209q0 -141 68 -254t184 -179t259 -66q110 0 209.5 44.5t190.5 137.5l1006 1022q78 79 120.5 178t42.5 203q0 138 -70 250.5t-188 178.5t-262 66zM993 1252l619 -613l-496 -504
q-81 -83 -165.5 -121t-179.5 -38q-121 0 -219 55t-155 150t-57 216q0 92 37.5 179.5t114.5 166.5zM2144 1563q24 0 34.5 -25.5t10.5 -71.5q0 -125 -128 -256l-308 -316q-14 -14 -31.5 -15.5t-29.5 10.5t-11 29t14 31l316 324q43 43 70.5 92t27.5 86q0 14 -1 29t-3 29
q-3 24 7 39t32 15z" />
</svg>