<?xml version="1.0" standalone="no"?>
<!DOCTYPE svg PUBLIC "-//W3C//DTD SVG 1.1//EN" "http://www.w3.org/Graphics/SVG/1.1/DTD/svg11.dtd">
<svg xmlns="http://www.w3.org/2000/svg" xmlns:xlink="http://www.w3.org/1999/xlink" version="1.1"
   viewBox="94 -151 2414 2169">
   <path fill="currentColor"
      d="M435 1978v-217h80v137h1760v-1750h-133v-80h213v1910h-1920zM245 1808v-1171l80 -8v1099h953v80h-1033zM729 1517v-90h147v-466h-120v-67q47 -9 82.5 -22t65.5 -31h81v586h131v90h-387zM1382 1517q6 -123 24 -221t56.5 -185.5t103.5 -177.5h-316v-92h436v66
q-79 98 -118.5 187.5t-54.5 189.5t-21 233h-110zM1243 1808v-80h452v-371h390v-421h80v500l-394 372h-528zM519 228q46 0 78.5 -33t32.5 -79t-32.5 -78.5t-78.5 -32.5t-79 32.5t-33 78.5t33 79t79 33zM769 490q58 0 84 -36t26 -87v-262h-61v257q0 41 -14 58.5t-42 17.5
q-37 0 -62 -42l-42 31q36 63 111 63zM1051 490q29 0 51.5 -13.5t41.5 -35.5h2l5 42h50v-286h-60v199q-34 42 -68 42q-47 0 -47 -67v-174h-60v181q0 54 20 83t65 29zM245 678v-780h1920v780h-1920zM1349 490q21 0 33 -5l-7 -45q-6 1 -10 1q-15 0 -15 -22v-344h-60v341
q0 34 13.5 54t45.5 20zM1460 598q45 0 70.5 -27t41.5 -73l105 -301h-59l-45 146q-6 19 -11.5 39t-10.5 41h-3q-6 -21 -12.5 -41t-13.5 -39l-51 -146h-62l113 283l-6 19q-15 50 -59 50q-13 0 -21 -3l-12 46q15 6 36 6zM2085 1043v-405h80v405h-80zM1891 228q47 0 79.5 -33
t32.5 -79t-32.5 -78.5t-79.5 -32.5q-46 0 -78.5 32.5t-32.5 78.5t32.5 79t78.5 33z" />
</svg>