<?xml version="1.0" standalone="no"?>
<!DOCTYPE svg PUBLIC "-//W3C//DTD SVG 1.1//EN" "http://www.w3.org/Graphics/SVG/1.1/DTD/svg11.dtd">
<svg xmlns="http://www.w3.org/2000/svg" xmlns:xlink="http://www.w3.org/1999/xlink" version="1.1"
   viewBox="94 -151 2414 2169">
   <path fill="currentColor"
      d="M839 1928q-220 0 -378 -98t-243 -276t-85 -419q0 -217 75.5 -388t237.5 -312t421 -268q75 -37 128 -75.5t98 -71t93.5 -52.5t113.5 -20t114 20.5t94.5 53t98.5 71t126 74.5q260 127 421.5 268t237 312t75.5 388q0 241 -85 419t-243 276t-378 98q-84 0 -171 -13.5
t-163 -37t-127 -52.5q-50 29 -126.5 52.5t-163.5 37t-171 13.5zM858 1324q-126 0 -185.5 -74.5t-59.5 -232.5t59.5 -232t185.5 -74t185.5 74t59.5 232t-59.5 232.5t-185.5 74.5zM839 1848q88 0 174 -14t160 -40t127 -62q54 37 128.5 63t160.5 39.5t172 13.5q198 0 338 -87
t214 -247t74 -379q0 -200 -69.5 -357.5t-221 -288t-399.5 -250.5q-85 -41 -137 -79t-89 -67.5t-75 -47t-96 -17.5t-93.5 16t-70 44.5t-87.5 67t-146 83.5q-247 120 -399 250.5t-221.5 288t-69.5 357.5q0 219 74 379t214.5 247t337.5 87zM1742 1324q-126 0 -185.5 -74.5
t-59.5 -232.5t59.5 -232t185.5 -74t185.5 74t59.5 232t-59.5 232.5t-185.5 74.5z" />
</svg>