<?xml version="1.0" standalone="no"?>
<!DOCTYPE svg PUBLIC "-//W3C//DTD SVG 1.1//EN" "http://www.w3.org/Graphics/SVG/1.1/DTD/svg11.dtd">
<svg xmlns="http://www.w3.org/2000/svg" xmlns:xlink="http://www.w3.org/1999/xlink" version="1.1"
   viewBox="94 -151 2414 2169">
   <path fill="currentColor"
      d="M1380 1239l-1130 -622v-61l89 -36q6 -20 6 -41q0 -28 -9.5 -62.5t-32.5 -78.5l82 43q27 46 27 103q0 31 -8 62.5t-23 61.5l981 545l-44 5q36 -66 36 -146q0 -26 -4.5 -50.5t-15.5 -43.5l-1084 -586v-62l734 -347q53 -25 100 -25t89 23l993 533q76 40 117 86.5t41 118.5
q0 61 -37 108t-105 80zM877 1396l-596 -323v-62l283 -136l27 61l-219 106l505 274v80zM1411 1978l-1130 -620v-61l89 -36q6 -20 6 -41q0 -28 -9.5 -62.5t-32.5 -78.5l82 43q14 23 20.5 49t6.5 54q0 31 -8 62.5t-23 61.5l981 543l-44 5q36 -66 36 -144q0 -26 -4.5 -50.5
t-15.5 -43.5l-269 -145l104 -24l213 114l697 -328q55 -26 106 -26q65 0 99.5 44t34.5 106q0 122 -183 211zM1071 1539q-128 0 -175 -70l-401 -607q-40 -59 -40 -130q0 -11 1.5 -20.5t2.5 -19.5l329 167l242 385l1146 -234l-131 -128l51 -45l165 162v61l-1216 248
q-51 10 -75 34t-24 60q0 40 32.5 56.5t84.5 16.5q29 0 63.5 -4.5t70.5 -12.5l987 -217l-84 -119l42 -45l119 155v61l-1048 229q-40 9 -75.5 13t-66.5 4zM1431 1895l706 -344q77 -38 113 -74t36 -75q0 -35 -18.5 -61t-53.5 -26q-16 0 -35 5t-41 16l-698 332q8 22 11 46t3 47
q0 38 -7.5 73t-15.5 61zM1382 863l644 -304l-1056 -556l-628 298zM2124 1295q-43 -96 -43 -166q0 -14 1.5 -27.5t5.5 -26.5l67 -7q-9 49 -9 73q0 34 11.5 65.5t34.5 71.5zM1404 1153l747 -365q54 -26 81 -58.5t27 -70.5q0 -35 -17 -61.5t-52 -26.5q-33 0 -83 24l-698 332
q8 22 10.5 44.5t2.5 45.5q0 38 -6 73.5t-12 62.5z" />
</svg>