<?xml version="1.0" standalone="no"?>
<!DOCTYPE svg PUBLIC "-//W3C//DTD SVG 1.1//EN" "http://www.w3.org/Graphics/SVG/1.1/DTD/svg11.dtd">
<svg xmlns="http://www.w3.org/2000/svg" xmlns:xlink="http://www.w3.org/1999/xlink" version="1.1"
   viewBox="94 -151 2414 2169">
   <path fill="currentColor"
      d="M993 1978q59 0 113.5 -4t114.5 -11q0 -208 5.5 -393t15.5 -341t23 -278.5t27.5 -206.5t29.5 -125h-44q15 41 29.5 125t27.5 206.5t23 278.5t15.5 340.5t5.5 393.5q60 7 115 11t113 4q55 0 124 -5t124 -13q5 -109 8 -243t5 -301t2 -373q0 -153 -1 -329t-4 -379.5
t-11 -436.5q-117 4 -258 6.5t-296 2.5t-296 -2.5t-258 -6.5q-7 233 -10.5 436.5t-4.5 379.5t-1 329q0 206 2 373t5.5 301t7.5 243q56 8 124.5 13t123.5 5zM981 1750q71 0 128.5 -4t96.5 -12l-17 -80q-35 7 -88 11.5t-120 4.5t-118.5 -4.5t-85.5 -11.5l-16 80q82 16 220 16z
M1619 1750q138 0 220 -16l-16 -80q-34 7 -85.5 11.5t-118.5 4.5t-120 -4.5t-88 -11.5l-17 80q39 8 97 12t128 4zM993 1898q-43 0 -89.5 -2t-80.5 -6q-3 -72 -5 -160t-4 -193t-3 -229t-1 -269q0 -86 0.5 -183t1.5 -203t2.5 -218t4.5 -227.5t7 -232.5q118 4 239 5.5t235 1.5
t235 -1.5t239 -5.5q4 117 7 232.5t4.5 227.5t2.5 218t1.5 203t0.5 183q0 145 -1 269t-3 229t-4 193t-5 160q-34 4 -80.5 6t-89.5 2q-39 0 -75.5 -1.5t-72.5 -5.5q0 -233 -9 -444t-24 -384.5t-34 -297.5t-40 -183h-104q-21 59 -40 183t-34 297.5t-24 384.5t-9 444
q-36 4 -72.5 5.5t-75.5 1.5zM775 404q92 -3 163 -43t111.5 -110.5t40.5 -162.5h-75q0 109 -66.5 173t-173.5 67v76zM1300 145q107 0 209.5 -1.5t186.5 -4.5t134 -7l-3 -75q-50 4 -133.5 7t-185.5 4.5t-208 1.5t-208 -1.5t-185.5 -4.5t-133.5 -7l-3 75q50 4 134 7t187 4.5
t209 1.5zM1825 404v-76q-106 -3 -173 -67t-67 -173h-75q0 92 40.5 162.5t111.5 110.5t163 43z" />
</svg>