<?xml version="1.0" standalone="no"?>
<!DOCTYPE svg PUBLIC "-//W3C//DTD SVG 1.1//EN" "http://www.w3.org/Graphics/SVG/1.1/DTD/svg11.dtd">
<svg xmlns="http://www.w3.org/2000/svg" xmlns:xlink="http://www.w3.org/1999/xlink" version="1.1"
   viewBox="94 -151 2414 2169">
   <path fill="currentColor"
      d="M251 1978v-683h80v605h1967v-605h80v683h-2127zM226 1978q-39 0 -53 -7.5t-14 -31.5q0 -57 49 -102.5t119 -45.5q35 0 79.5 13.5t71.5 36.5q22 -5 37 -7t26 -2q42 0 69.5 30.5t27.5 77.5q0 23 -15 30.5t-59 7.5h-338zM500 1904v-545h60v545h-60zM659 1656
q-29 -27 -29 -61q0 -28 25 -55q29 26 29 59q0 32 -25 57zM808 1781v-85h49v85h-49zM603 1563q-4 -38 17 -65q19 -23 55 -28q5 43 -16 65q-22 24 -56 28zM715 1906v-231q0 -71 48 -119t118 -48t118 48.5t48 118.5v231h-332zM767 1867h228v-192q0 -49 -33 -82t-81 -33
q-49 0 -81.5 32.5t-32.5 82.5v192zM905 1781v-85h49v85h-49zM680 1527q-23 -31 -18 -65q4 -28 34 -51q24 32 19 63q-4 28 -35 53zM629 1440q7 -39 37 -56q26 -15 61 -6q-4 20 -12.5 34t-22.5 21q-30 14 -63 7zM1114 1978q-48 0 -64 -7.5t-16 -31.5q0 -51 47 -89.5t114 -38.5
q41 0 75 20q45 -34 100 -34q59 0 101.5 41t42.5 100q0 25 -14 32.5t-56 7.5h-330zM738 1438q-33 0 -33 -32q0 -19 26 -32q-26 -14 -26 -33q0 -33 33 -33q19 0 32 26q13 -26 32 -26q33 0 33 33q0 18 -25 33q25 13 25 32q0 32 -32 32q-19 0 -33 -26q-13 26 -32 26zM770 1401
q27 0 27 -27t-27 -27t-27 27t27 27zM1105 1655q-29 -27 -29 -60q0 -31 25 -56q29 26 29 59q0 32 -25 57zM849 1388q-33 0 -33 -32q0 -19 26 -32q-26 -14 -26 -33q0 -33 33 -33q19 0 32 26q13 -26 32 -26q33 0 33 33q0 18 -25 33q25 13 25 32q0 32 -32 32q-19 0 -33 -26
q-13 26 -32 26zM881 1351q27 0 27 -27t-27 -27t-27 27t27 27zM1052 1517q-31 -25 -35 -53q-5 -31 19 -63q30 24 34 51q5 34 -18 65zM1201 1904v-545h60v545h-60zM1146 1557q-36 -5 -56 -28q-21 -24 -16 -65q39 5 55 27q21 30 17 66zM956 1438q-33 0 -33 -32q0 -19 26 -32
q-26 -14 -26 -33q0 -33 33 -33q19 0 32 26q13 -26 32 -26q33 0 33 33q0 18 -25 33q25 13 25 32q0 32 -32 32q-19 0 -33 -26q-13 26 -32 26zM988 1401q27 0 27 -27t-27 -27t-27 27t27 27zM467 1450l-53 -60l467 -413l466 413l-53 60l-413 -366zM1127 1440q-33 7 -63 -7
q-13 -7 -22 -21t-13 -34q33 -9 61 6q29 15 37 56zM1515 1794v-267q0 -43 30 -73t73 -30q42 0 72 30t30 73v267h-205zM872 871q17 0 28.5 -12t11.5 -28v-3t-1 -2h14q48 0 73.5 -6.5t25.5 -19.5q0 -8 -7 -16t-21 -18q-32 4 -70 4q-50 0 -96.5 -7.5t-81.5 -22.5q-10 8 -16 16
t-6 21t29 24t78 19q-1 2 -1 5v6q0 16 12 28t28 12zM258 1354l-114 -114l233 -297h1846l233 297l-114 114h-1081l-80 -78h1128l40 -42l-165 -211h-1768l-165 211l40 42h310l-90 78h-253zM697 956v-250q0 -84 53 -150.5t129 -87.5q74 21 126 87.5t52 150.5v250h-360zM589 970
h583v-457h-583v457zM509 1000v-567h743v567h-743zM928 710q35 0 63 -4q1 -17 1.5 -33.5t0.5 -26.5q0 -31 -16.5 -57t-44.5 -39q-3 -33 -33 -33q-25 0 -33 25q-34 7 -60 38t-29 71q-1 10 -2 19t-3 16q62 24 156 24zM1860 1794v-267q0 -43 30 -73t73 -30q42 0 72 30t30 73v267
h-205zM553 567q-49 0 -88 -23.5t-39 -54.5q0 -29 21 -51t55 -48q23 -17 34 -29t19 -26l181 -307q35 -59 68 -94.5t77 -35.5t77.5 35.5t67.5 94.5l181 307q8 14 19.5 26t33.5 29q35 26 55.5 48t20.5 51q0 31 -39 54.5t-88 23.5v-113q-26 -21 -42.5 -39.5t-28.5 -39.5
l-181 -307q-31 -53 -48 -71.5t-28 -18.5q-10 0 -27.5 18.5t-48.5 71.5l-181 307q-12 21 -28.5 39.5t-42.5 39.5v113zM1532 870q-156 -171 -156 -263q0 -43 30.5 -73t73.5 -30q41 0 71.5 28t32.5 70q10 -32 37 -51.5t58 -19.5q42 0 70.5 28.5t28.5 69.5q0 45 -33 92
t-88.5 86.5t-124.5 62.5zM1912 553q-252 -276 -252 -427q0 -70 50 -119.5t120 -49.5q66 0 115.5 44t53.5 111q8 -22 26.5 -48t49.5 -44.5t76 -18.5q68 0 114.5 46t46.5 114q0 73 -53.5 150t-144 141.5t-202.5 100.5z" />
</svg>