<?xml version="1.0" standalone="no"?>
<!DOCTYPE svg PUBLIC "-//W3C//DTD SVG 1.1//EN" "http://www.w3.org/Graphics/SVG/1.1/DTD/svg11.dtd">
<svg xmlns="http://www.w3.org/2000/svg" xmlns:xlink="http://www.w3.org/1999/xlink" version="1.1"
   viewBox="94 -151 2414 2169">
   <path fill="currentColor"
      d="M1250 1978q-301 0 -494.5 -23.5t-301.5 -82.5t-151 -166t-43 -273q0 -180 39.5 -363t111 -355t167.5 -320t211 -259.5t241 -174.5t256 -63q44 0 83.5 20.5t59.5 54.5l110 185q27 47 27 98q0 76 -64.5 109.5t-183.5 33.5q-112 0 -172.5 -39t-60.5 -100q0 -58 43.5 -87.5
t107.5 -29.5q14 0 28.5 1.5t30.5 3.5l-10 80q-15 -3 -27 -4t-22 -1q-40 0 -55.5 11t-15.5 25q0 27 39.5 43.5t113.5 16.5q89 0 128.5 -14.5t39.5 -48.5q0 -17 -4.5 -31t-12.5 -27l-101 -171q-12 -21 -35.5 -35t-46.5 -14q-117 0 -232.5 60t-221.5 166.5t-195.5 247.5
t-156 304t-103.5 335.5t-37 341.5q0 145 37.5 236t135 141t276 69t461.5 19h307q239 0 395 -50t232 -153.5t76 -261.5q0 -105 -44 -193t-122 -152t-181 -99t-221 -35q-106 0 -212.5 39.5t-195.5 108t-144 156.5q-25 -2 -47.5 -3.5t-41.5 -1.5q-111 0 -177.5 69t-66.5 177
q0 33 4 67t14 82l-78 16q-11 -51 -15.5 -89.5t-4.5 -75.5q0 -94 41 -167.5t114 -116t169 -42.5h22t30 1q76 -91 165.5 -158.5t195.5 -104.5t228 -37q135 0 252.5 41t206.5 116t139 177t50 225q0 183 -87.5 304t-261.5 181t-434 60h-307zM1622 1768q-131 0 -239.5 -46
t-178 -127.5t-85.5 -187.5l80 -10q13 85 71 151t149.5 103t202.5 37q85 0 161.5 -23.5t132 -64t78.5 -90.5l75 27q-28 67 -95 119t-158.5 82t-193.5 30zM830 1270q20 -51 33.5 -128.5t13.5 -144.5q0 -30 -3 -55q-4 -40 -6 -73t-2 -62q0 -119 32 -214.5t90 -148.5l61 52
q-48 40 -75.5 122t-27.5 189q0 27 2 58t6 69q2 15 2.5 31t0.5 32q0 56 -9 121t-24 121zM1208 538q-139 0 -229.5 -44.5t-116.5 -126.5l74 -32q17 58 87 90.5t185 32.5q80 0 118 -13t38 -33q0 -15 -12 -15v-73q38 0 65 24t27 64q0 68 -64.5 97t-171.5 29z" />
</svg>