<?xml version="1.0" standalone="no"?>
<!DOCTYPE svg PUBLIC "-//W3C//DTD SVG 1.1//EN" "http://www.w3.org/Graphics/SVG/1.1/DTD/svg11.dtd">
<svg xmlns="http://www.w3.org/2000/svg" xmlns:xlink="http://www.w3.org/1999/xlink" version="1.1"
   viewBox="94 -151 2414 2169">
   <path fill="currentColor"
      d="M1300 1978q175 0 341 -28t297 -80v-1131l198 136q116 -89 205.5 -217t133.5 -263q-124 -106 -220.5 -181.5t-177 -129.5t-157.5 -94q-19 -10 -60.5 -24t-91.5 -28t-96.5 -25t-77.5 -15q-159 55 -294 55t-294 -55q-31 4 -77.5 15t-96.5 25t-91 28t-61 24q-76 40 -156.5 94
t-177 129.5t-221.5 181.5q44 135 133.5 263t205.5 217l198 -136v1131q131 52 297 80t341 28zM613 734l56 -57q-111 -91 -189 -199.5t-122 -229.5l-68 42q47 124 128.5 236t194.5 208zM1300 1898q-149 0 -294 -22t-264 -62v-1153l-44 -43l-229 157q-85 -74 -151 -168
t-98 -188q163 -137 281 -222t215 -135q26 -14 77.5 -29.5t109.5 -30t102 -23.5q66 26 141.5 40t153.5 14t153.5 -14t141.5 -40q45 9 102.5 23.5t109 30t77.5 29.5q97 50 215 135t281 222q-32 94 -97.5 188t-151.5 168l-229 -157l-44 43v1153q-118 40 -263.5 62t-294.5 22z
M1300 401q130 0 235.5 -57.5t169.5 -157t69 -225.5l-76 -22q-4 111 -56.5 197.5t-141 135.5t-200.5 49q-111 0 -200 -49t-141.5 -135.5t-56.5 -197.5l-76 22q5 126 69 225.5t169.5 157t235.5 57.5zM1300 216q80 0 146.5 -38t108.5 -99.5t48 -130.5l-303 40l-303 -40
q7 69 48.5 130.5t108 99.5t146.5 38zM1987 734q113 -96 194.5 -208t128.5 -236l-68 -42q-43 121 -121.5 229.5t-189.5 199.5z" />
</svg>