<?xml version="1.0" standalone="no"?>
<!DOCTYPE svg PUBLIC "-//W3C//DTD SVG 1.1//EN" "http://www.w3.org/Graphics/SVG/1.1/DTD/svg11.dtd">
<svg xmlns="http://www.w3.org/2000/svg" xmlns:xlink="http://www.w3.org/1999/xlink" version="1.1"
   viewBox="94 -151 2414 2169">
   <path fill="currentColor"
      d="M1677 1699v-162h-203v-130h203v-101h-203v-131h161l-277 -548h232l191 441l194 -441h230l-282 548h164v131h-201v101h201v130h-201v162h-209zM1213 1978q-142 0 -262.5 -56t-212.5 -165l-149 169l41 -427l439 8l-201 141q185 211 462 211q48 0 99 -6t108 -17
q-18 38 -68 70.5t-117 52t-139 19.5zM762 938q45 -14 65.5 -44.5t20.5 -70.5t-21 -67.5t-65 -49.5v232zM659 1277v-151q-67 -3 -134 -19.5t-123 -42.5v-193q54 34 122.5 62t134.5 30v-290q-134 -54 -199 -124.5t-65 -187.5q0 -124 74.5 -196t189.5 -86v-121h104v120
q122 6 236 69l-50 160q-44 -25 -91 -40t-95 -20v280q131 51 193.5 115.5t62.5 177.5q0 117 -66.5 197t-189.5 103v157h-104zM660 476v-230q-46 10 -68 40t-22 73t22 67.5t68 49.5zM2034 377l-439 -8l201 -141q-186 -211 -465 -211q-44 0 -94.5 6t-109.5 18
q19 -39 68.5 -71.5t117 -52t138.5 -19.5q143 0 263.5 55.5t211.5 165.5l149 -169z" />
</svg>