<?xml version="1.0" standalone="no"?>
<!DOCTYPE svg PUBLIC "-//W3C//DTD SVG 1.1//EN" "http://www.w3.org/Graphics/SVG/1.1/DTD/svg11.dtd">
<svg xmlns="http://www.w3.org/2000/svg" xmlns:xlink="http://www.w3.org/1999/xlink" version="1.1"
   viewBox="94 -151 2414 2169">
   <path fill="currentColor"
      d="M1673 1978q-200 0 -377.5 -68t-316.5 -190t-226 -286t-108 -356q-19 17 -48 38t-63 36t-70 15q-58 0 -91 -40t-33 -109q0 -97 41.5 -179.5t110.5 -133t149 -50.5q7 0 13.5 0.5t13.5 1.5q59 -230 183.5 -400.5t297.5 -264.5t376 -94q161 0 295.5 61t233 172t152.5 262.5
t54 331.5q0 130 -37.5 257t-127.5 303q-36 70 -56.5 117t-29 80.5t-8.5 63.5q0 70 47.5 122.5t140.5 82.5q-17 67 -90.5 118.5t-184.5 80t-241 28.5zM1063 1234q38 0 66.5 -29.5t38.5 -81.5l5 -25q12 -59 38.5 -93t70.5 -40q-7 -22 -29 -36t-48 -14q-28 0 -53 16.5t-40 44.5
l-52 -28q17 -32 49 -56.5t69 -31.5q-15 -7 -31 -10t-36 -3q-69 0 -115.5 58.5t-46.5 149.5q0 77 31.5 128t82.5 51zM1063 1304q-82 0 -133 -69t-51 -180q0 -86 28 -144t77 -89q-1 -7 -1.5 -13.5t-0.5 -13.5q0 -41 11 -86.5t43 -98.5q82 108 207.5 158t288.5 50q0 52 -29 93
t-71 69.5t-82.5 43.5t-63.5 15q-13 0 -25 18t-20 59l-5 24q-16 79 -63.5 121.5t-109.5 42.5zM1673 1898q129 0 237.5 -30.5t162.5 -79.5q-152 -87 -152 -242q0 -37 9.5 -77t32 -93t61.5 -128q86 -167 121 -284.5t35 -238.5q0 -164 -48 -301t-135.5 -237t-207.5 -154.5
t-264 -54.5q-195 0 -359.5 96.5t-278.5 271t-159 409.5q-31 -11 -50.5 -15.5t-36.5 -4.5q-57 0 -107.5 39.5t-82 104t-31.5 139.5q0 37 11.5 53t32.5 16q27 0 53 -12t71 -52q25 -23 43.5 -36.5t37.5 -13.5q24 0 37.5 17t14.5 41q12 184 90 342t208 276t297 183.5t357 65.5z
M1534 1477q-58 0 -90.5 -40t-32.5 -109q0 -97 41.5 -179.5t110 -133t148.5 -50.5q58 0 122 31l-34 72q-46 -23 -88 -23q-57 0 -107.5 39.5t-81.5 104t-31 139.5q0 37 11 53t32 16q27 0 52 -21t52 -49t60.5 -49t76.5 -21q28 0 51 10l-28 74q-12 -4 -23 -4q-28 0 -52 21
t-50 49t-59.5 49t-79.5 21zM1185 552q-65 -94 -172 -131q17 -80 57 -127t91 -47q46 0 77 36.5t31 89.5q0 87 -84 179zM1691 786q-53 -63 -125.5 -98t-145.5 -35q-25 0 -53 5l-31 -50q74 -62 155 -93.5t172 -31.5q42 0 93 8l-15 78q-16 -3 -32 -4t-33 -1q-37 0 -73 7t-69 21
q66 20 123.5 56t98.5 83z" />
</svg>