<?xml version="1.0" standalone="no"?>
<!DOCTYPE svg PUBLIC "-//W3C//DTD SVG 1.1//EN" "http://www.w3.org/Graphics/SVG/1.1/DTD/svg11.dtd">
<svg xmlns="http://www.w3.org/2000/svg" xmlns:xlink="http://www.w3.org/1999/xlink" version="1.1"
   viewBox="94 -151 2414 2169">
   <path fill="currentColor"
      d="M178 1270q0 -29 13 -50t39 -21q37 0 63.5 43t26.5 84q0 30 -14.5 50t-37.5 20q-37 0 -63.5 -42t-26.5 -84zM555 1562q-46 0 -98.5 -28.5t-98.5 -73t-75 -95t-29 -95.5q0 -62 43.5 -107.5t103.5 -45.5q30 0 60 13t76 47l-58 28q-46 -28 -77 -28q-35 0 -62 28t-27 65
q0 31 24.5 70.5t62 76.5t78.5 61t73 24q35 0 61.5 -26t26.5 -66l51 -41q5 9 7.5 19.5t2.5 25.5q0 60 -43 104t-102 44zM371 846q0 54 -18.5 98.5t-50.5 75.5l-67 -47q27 -25 41.5 -53.5t14.5 -65.5q0 -23 -5 -50.5t-24 -60.5l45 -92q28 43 46 95t18 100zM598 729
q-40 0 -68 -28t-28 -68t28 -68t68 -28q39 0 66.5 28t27.5 68t-27.5 68t-66.5 28zM994 1898q14 0 61.5 -3t107 -7t114.5 -7t84 -3q78 0 120.5 -7t59 -22.5t16.5 -40.5q0 -18 -3.5 -46t-8.5 -49q80 18 136.5 26t103 9.5t97.5 1.5q136 0 239 -55t161 -154.5t58 -233.5
q0 -74 -18 -147.5t-63 -185.5q-36 -89 -50 -141t-14 -97q0 -67 22 -108.5t53.5 -66.5t60.5 -42q52 -31 70.5 -51t18.5 -46q0 -48 -59.5 -89t-142.5 -41q-99 0 -175 51t-119 134.5t-43 181.5q0 59 18.5 123.5t66.5 177.5q50 118 70 190t20 137q0 122 -70 190.5t-186 68.5
q-24 0 -48 -3q11 -45 16 -120t5 -217q0 -104 -39.5 -201.5t-107 -175.5t-152.5 -124t-177 -46q-130 0 -204.5 -77.5t-74.5 -216.5q17 -28 32 -83t15 -112q0 -86 -19 -130.5t-45 -44.5q-31 0 -80.5 34t-89 105.5t-39.5 184.5q-139 0 -224.5 44t-132.5 110t-69.5 133
t-33.5 115.5t-27 55.5l-125 58q0 36 42 73t106.5 62t132.5 25q44 0 102.5 -13t123.5 -43q13 42 27.5 76t36 69t54.5 83l-34 58h-209q-46 0 -68 16.5t-22 44.5q0 22 67 46t239 24q128 0 213.5 -57t122.5 -201l78 20q-13 45 -20 91t-7 91q0 117 37 218t117 205q-41 19 -92 19
q-59 0 -113 -17.5t-97.5 -44t-70.5 -54.5q-58 48 -85.5 89t-27.5 85q0 52 38 75t123 23zM1553 1225q-30 -39 -52 -62t-57 -55l53 -58q36 33 61 60.5t56 66.5zM1447 950q-29 -38 -51 -61t-57 -56l53 -58q36 34 61 61.5t56 66.5zM727 44q18 0 36.5 1t37.5 4q41 -58 97.5 -96
t102.5 -38q71 0 107.5 67.5t36.5 191.5q0 57 -15 117t-32 95q0 96 54 144.5t145 48.5q108 0 208 52t178.5 141t124 201.5t45.5 232.5q0 87 -1.5 149t-6.5 107q61 -11 96 -55t35 -120q0 -56 -18 -118.5t-65 -171.5q-52 -120 -72 -194.5t-20 -143.5q0 -120 54 -221.5
t148 -163.5t215 -62q78 0 142 28.5t102 76t38 103.5q0 50 -27.5 87.5t-95.5 80.5q-57 35 -79.5 67t-22.5 79q0 37 12 80.5t49 133.5q46 112 65 194.5t19 164.5q0 156 -68.5 274t-190 183.5t-279.5 65.5q-67 0 -135 -8.5t-121 -16.5q2 13 2.5 24.5t0.5 28.5q0 44 -26 65.5
t-83 28t-150 6.5q-39 0 -92 3t-107.5 7t-99.5 7t-68 3q-112 0 -156.5 -17.5t-68.5 -74.5q-41 3 -86 5t-83 2q-73 0 -114 -16.5t-41 -62.5q0 -29 18 -60t48 -61q28 -28 69 -37.5t129 -9.5q33 0 57 -1.5t41 -3.5q-89 -98 -102 -208q-153 -8 -237.5 -41.5t-84.5 -105.5
q0 -56 53.5 -91.5t137.5 -35.5q8 -25 24 -54.5t41 -63.5q-39 15 -91 24.5t-96 9.5q-85 0 -168 -35t-138 -90t-55 -115q0 -33 12.5 -54t29.5 -40t29.5 -44t12.5 -65q0 -123 42 -230t116.5 -187.5t173 -125.5t211.5 -45zM906 349q-22 0 -30.5 -18.5t-8.5 -37.5
q0 -44 28 -102.5t74 -91.5q8 19 10.5 40.5t2.5 44.5q0 61 -21.5 113t-54.5 52zM618 -102q50 0 86 46t43 120l-75 13q-7 -53 -20.5 -78.5t-39.5 -25.5q-33 0 -56 39t-23 101l-70 35q0 -69 21 -125.5t56 -90.5t78 -34z" />
</svg>