<?xml version="1.0" standalone="no"?>
<!DOCTYPE svg PUBLIC "-//W3C//DTD SVG 1.1//EN" "http://www.w3.org/Graphics/SVG/1.1/DTD/svg11.dtd">
<svg xmlns="http://www.w3.org/2000/svg" xmlns:xlink="http://www.w3.org/1999/xlink" version="1.1"
   viewBox="94 -151 2414 2169">
   <path fill="currentColor"
      d="M1300 1978q395 -303 644.5 -558t367.5 -480t118 -438q0 -126 -42.5 -235.5t-119 -192.5t-179 -129.5t-221.5 -46.5q-121 0 -234 46.5t-200.5 127t-133.5 183.5q-45 -103 -135.5 -183.5t-206 -127t-236.5 -46.5q-159 0 -283.5 81t-196.5 218t-72 305q0 213 118 438
t367.5 480t644.5 558zM762 1402q20 0 33 -13t13 -32t-13 -32.5t-33 -13.5q-17 0 -31.5 13.5t-14.5 32.5t14.5 32t31.5 13zM652 1195q-19 0 -32.5 -13t-13.5 -32t13.5 -32.5t32.5 -13.5q18 0 31.5 13.5t13.5 32.5t-13.5 32t-31.5 13zM1303 1802q-19 0 -32.5 -13.5
t-13.5 -32.5t13.5 -32.5t32.5 -13.5t32.5 13.5t13.5 32.5t-13.5 32.5t-32.5 13.5zM1124 1615q-19 0 -32 -13.5t-13 -32.5t13 -32t32 -13q20 0 33 13t13 32t-13 32.5t-33 13.5zM512 982q-19 0 -33 -13.5t-14 -32.5q0 -20 14 -33.5t33 -13.5q20 0 33 13.5t13 33.5
q0 19 -13 32.5t-33 13.5zM983 1402q-18 0 -32 -13t-14 -32t14 -32.5t32 -13.5q19 0 32.5 13.5t13.5 32.5t-13.5 32t-32.5 13zM419 781q-18 0 -31.5 -13.5t-13.5 -32.5q0 -20 13.5 -33t31.5 -13q20 0 33 13t13 33q0 19 -13 32.5t-33 13.5zM867 1195q-19 0 -31.5 -13
t-12.5 -32t12.5 -32.5t31.5 -13.5q18 0 31.5 13.5t13.5 32.5t-13.5 32t-31.5 13zM1303 1615q-19 0 -32.5 -13.5t-13.5 -32.5t13.5 -32t32.5 -13t32.5 13t13.5 32t-13.5 32.5t-32.5 13.5zM275 567q20 0 33.5 -13.5t13.5 -32.5q0 -18 -13.5 -31t-33.5 -13q-19 0 -32 13t-13 31
q0 19 13 32.5t32 13.5zM739 982q-20 0 -33.5 -13.5t-13.5 -32.5q0 -20 13.5 -33.5t33.5 -13.5q18 0 31.5 13.5t13.5 33.5q0 19 -13.5 32.5t-31.5 13.5zM1203 1402q-19 0 -32.5 -13t-13.5 -32t13.5 -32.5t32.5 -13.5q20 0 33 13.5t13 32.5t-13 32t-33 13zM641 781
q-19 0 -32.5 -13.5t-13.5 -32.5q0 -20 13.5 -33t32.5 -13t32.5 13t13.5 33q0 19 -13.5 32.5t-32.5 13.5zM1482 1615q-19 0 -32 -13.5t-13 -32.5t13 -32t32 -13t32 13t13 32t-13 32.5t-32 13.5zM1086 1195q-19 0 -33 -13t-14 -32t14 -32.5t33 -13.5q18 0 32 13.5t14 32.5
t-14 32t-32 13zM503 567q-19 0 -32.5 -13.5t-13.5 -32.5q0 -18 13.5 -31t32.5 -13q20 0 33.5 13t13.5 31q0 19 -13.5 32.5t-33.5 13.5zM964 982q-17 0 -31.5 -13.5t-14.5 -32.5q0 -20 14.5 -33.5t31.5 -13.5q20 0 33 13.5t13 33.5q0 19 -13 32.5t-33 13.5zM376 369
q-19 0 -32.5 -13.5t-13.5 -32.5q0 -20 13.5 -33.5t32.5 -13.5t32.5 13.5t13.5 33.5q0 19 -13.5 32.5t-32.5 13.5zM1423 1402q-19 0 -32.5 -13t-13.5 -32t13.5 -32.5t32.5 -13.5q20 0 33 13.5t13 32.5t-13 32t-33 13zM862 781q-19 0 -32.5 -13.5t-13.5 -32.5q0 -20 13.5 -33
t32.5 -13q18 0 31 13t13 33q0 19 -13 32.5t-31 13.5zM1303 1195q-19 0 -32.5 -13t-13.5 -32t13.5 -32.5t32.5 -13.5t32.5 13.5t13.5 32.5t-13.5 32t-32.5 13zM733 567q-20 0 -33.5 -13.5t-13.5 -32.5q0 -18 13.5 -31t33.5 -13q19 0 32.5 13t13.5 31q0 19 -13.5 32.5
t-32.5 13.5zM1191 982q-19 0 -32.5 -13.5t-13.5 -32.5q0 -20 13.5 -33.5t32.5 -13.5q18 0 31.5 13.5t13.5 33.5q0 19 -13.5 32.5t-31.5 13.5zM1644 1402q-19 0 -32.5 -13t-13.5 -32t13.5 -32.5t32.5 -13.5q17 0 31.5 13.5t14.5 32.5t-14.5 32t-31.5 13zM641 369
q-19 0 -32.5 -13.5t-13.5 -32.5q0 -20 13.5 -33.5t32.5 -13.5t32.5 13.5t13.5 33.5q0 19 -13.5 32.5t-32.5 13.5zM1082 781q-19 0 -33 -13.5t-14 -32.5q0 -20 14 -33t33 -13t33 13t14 33q0 19 -14 32.5t-33 13.5zM1300 1883q-365 -283 -597 -524.5t-342.5 -453
t-110.5 -403.5q0 -147 63.5 -265.5t172.5 -188.5t246 -70q128 0 237 53t193.5 151t137.5 232q53 -134 137.5 -232t194 -151t236.5 -53q137 0 246 70t172.5 188.5t63.5 265.5q0 192 -110.5 403.5t-342.5 453t-597 524.5zM1520 1195q-18 0 -32 -13t-14 -32t14 -32.5t32 -13.5
q20 0 33.5 13.5t13.5 32.5t-13.5 32t-33.5 13zM512 169q18 0 32 -13.5t14 -32.5q0 -20 -14 -33t-32 -13q-19 0 -33 13t-14 33q0 19 14 32.5t33 13.5zM961 567q-17 0 -31.5 -13.5t-14.5 -32.5q0 -18 14.5 -31t31.5 -13q20 0 33.5 13t13.5 31q0 19 -13.5 32.5t-33.5 13.5z
M1416 982q-19 0 -32.5 -13.5t-13.5 -32.5q0 -20 13.5 -33.5t32.5 -13.5t32 13.5t13 33.5q0 19 -13 32.5t-32 13.5zM1865 1402q17 0 31 -13t14 -32t-14 -32.5t-31 -13.5q-19 0 -33 13.5t-14 32.5t14 32t33 13zM1303 781q-19 0 -32.5 -13.5t-13.5 -32.5q0 -20 13.5 -33
t32.5 -13t32.5 13t13.5 33q0 19 -13.5 32.5t-32.5 13.5zM906 368q-19 0 -32.5 -13.5t-13.5 -32.5q0 -20 13.5 -33t32.5 -13q17 0 30.5 13t13.5 33q0 19 -13.5 32.5t-30.5 13.5zM1739 1195q-18 0 -31.5 -13t-13.5 -32t13.5 -32.5t31.5 -13.5q19 0 31.5 13.5t12.5 32.5
t-12.5 32t-31.5 13zM762 169q-19 0 -32.5 -13.5t-13.5 -32.5q0 -20 13.5 -33t32.5 -13q20 0 33 13t13 33q0 19 -13 32.5t-33 13.5zM1190 567q-19 0 -32.5 -13.5t-13.5 -32.5q0 -18 13.5 -31t32.5 -13q18 0 31.5 13t13.5 31q0 19 -13.5 32.5t-31.5 13.5zM1642 982
q-19 0 -32.5 -13.5t-13.5 -32.5q0 -20 13.5 -33.5t32.5 -13.5q17 0 31.5 13.5t14.5 33.5q0 19 -14.5 32.5t-31.5 13.5zM1524 781q-19 0 -33 -13.5t-14 -32.5q0 -20 14 -33t33 -13q20 0 33.5 13t13.5 33q0 19 -13.5 32.5t-33.5 13.5zM1954 1195q-18 0 -31.5 -13t-13.5 -32
t13.5 -32.5t31.5 -13.5q20 0 33 13.5t13 32.5t-13 32t-33 13zM1170 368q-19 0 -33 -13.5t-14 -32.5q0 -20 14 -33t33 -13t32.5 13t13.5 33q0 19 -13.5 32.5t-32.5 13.5zM1012 169q20 0 33 -13.5t13 -32.5q0 -20 -13 -33t-33 -13q-19 0 -32.5 13t-13.5 33q0 19 13.5 32.5
t32.5 13.5zM1416 567q-18 0 -31.5 -13.5t-13.5 -32.5q0 -18 13.5 -31t31.5 -13q20 0 33 13t13 31q0 19 -13 32.5t-33 13.5zM1867 982q-18 0 -31.5 -13.5t-13.5 -32.5q0 -20 13.5 -33.5t31.5 -13.5q20 0 33.5 13.5t13.5 33.5q0 19 -13.5 32.5t-33.5 13.5zM1745 781
q-17 0 -30.5 -13.5t-13.5 -32.5q0 -20 13.5 -33t30.5 -13q20 0 33 13t13 33q0 19 -13 32.5t-33 13.5zM1437 368q-19 0 -33 -13.5t-14 -32.5q0 -20 14 -33t33 -13q18 0 32 13t14 33q0 19 -14 32.5t-32 13.5zM1646 567q-19 0 -32.5 -13.5t-13.5 -32.5q0 -18 13.5 -31t32.5 -13
q17 0 31.5 13t14.5 31q0 19 -14.5 32.5t-31.5 13.5zM2094 982q-19 0 -32 -13.5t-13 -32.5q0 -20 13 -33.5t32 -13.5q20 0 33 13.5t13 33.5q0 19 -13 32.5t-33 13.5zM1966 781q-19 0 -33 -13.5t-14 -32.5q0 -20 14 -33t33 -13q18 0 31.5 13t13.5 33q0 19 -13.5 32.5
t-31.5 13.5zM1873 567q-19 0 -32.5 -13.5t-13.5 -32.5q0 -18 13.5 -31t32.5 -13q20 0 33.5 13t13.5 31q0 19 -13.5 32.5t-33.5 13.5zM1701 368q-18 0 -31.5 -13.5t-13.5 -32.5q0 -20 13.5 -33t31.5 -13q19 0 32 13t13 33q0 19 -13 32.5t-32 13.5zM2187 781q-19 0 -33 -13.5
t-14 -32.5q0 -20 14 -33t33 -13t32 13t13 33q0 19 -13 32.5t-32 13.5zM1579 169q18 0 32 -13.5t14 -32.5q0 -20 -14 -33t-32 -13q-19 0 -32 13t-13 33q0 19 13 32.5t32 13.5zM2103 567q-20 0 -33.5 -13.5t-13.5 -32.5q0 -18 13.5 -31t33.5 -13q19 0 32.5 13t13.5 31
q0 19 -13.5 32.5t-32.5 13.5zM1966 369q-19 0 -33 -13.5t-14 -32.5q0 -20 14 -33.5t33 -13.5q18 0 31.5 13.5t13.5 33.5q0 19 -13.5 32.5t-31.5 13.5zM1829 169q-19 0 -32.5 -13.5t-13.5 -32.5q0 -20 13.5 -33t32.5 -13q20 0 33.5 13t13.5 33q0 19 -13.5 32.5t-33.5 13.5z
M2332 567q19 0 32 -13.5t13 -32.5q0 -18 -13 -31t-32 -13t-33 13t-14 31q0 19 14 32.5t33 13.5zM2231 369q-19 0 -33 -13.5t-14 -32.5q0 -20 14 -33.5t33 -13.5q18 0 31.5 13.5t13.5 33.5q0 19 -13.5 32.5t-31.5 13.5zM2080 169q20 0 33 -13.5t13 -32.5q0 -20 -13 -33
t-33 -13q-19 0 -33 13t-14 33q0 19 14 32.5t33 13.5z" />
</svg>