<?xml version="1.0" standalone="no"?>
<!DOCTYPE svg PUBLIC "-//W3C//DTD SVG 1.1//EN" "http://www.w3.org/Graphics/SVG/1.1/DTD/svg11.dtd">
<svg xmlns="http://www.w3.org/2000/svg" xmlns:xlink="http://www.w3.org/1999/xlink" version="1.1"
   viewBox="94 -151 2414 2169">
   <path fill="currentColor"
      d="M532 1314q35 0 71.5 -24t82 -48t106.5 -24q-6 -35 -23.5 -60t-34.5 -25q-10 0 -19 9.5t-12 29.5q-41 12 -74 28.5t-71 45.5q-11 -33 -38 -33q-15 0 -25 15.5t-13 46.5q8 15 23 27t27 12zM565 1135q11 0 25.5 -9t18.5 -24q40 -8 80 -10.5t87 -2.5q0 16 10 29t26 13
q40 0 65 -83q-22 -15 -57.5 -23t-72.5 -8q-44 0 -89.5 5.5t-81 11t-50.5 5.5q0 49 10 72.5t29 23.5zM450 863q-20 0 -20 -14q0 -11 15 -21t15 -26q0 -19 -22.5 -30.5t-22.5 -27.5q0 -22 30 -22q28 0 49.5 20.5t21.5 49.5q0 28 -20 49.5t-46 21.5zM975 848q22 0 38 -16
t16 -38t-16 -37.5t-38 -15.5q-23 0 -39.5 15.5t-16.5 37.5t16.5 38t39.5 16zM962 898q-46 0 -76 -29t-30 -75q0 -49 33 -75t92 -26h192q-9 52 -41.5 99t-77.5 76.5t-92 29.5zM369 590q-21 -13 -40.5 -50.5t-32 -85.5t-12.5 -90q0 -100 64 -166.5t159 -66.5q38 0 76 12t83 37
q29 16 64.5 25t70.5 9q52 0 89.5 -24t37.5 -70q0 -41 -26 -66.5t-62 -25.5q-34 0 -60.5 21.5t-26.5 45.5h-79q0 -59 49 -103t117 -44q71 0 119.5 49t48.5 123q0 80 -60.5 127t-146.5 47q-46 0 -90.5 -12t-87.5 -34q-36 -19 -64 -28t-52 -9q-64 0 -103.5 44.5t-39.5 108.5
q0 47 22.5 108t50.5 88zM1930 1154q40 0 80.5 -7t68.5 -25t28 -50q0 -34 -35 -50.5t-86.5 -22.5t-103 -8.5t-86.5 -9t-35 -24.5q0 -17 27 -25t67 -12.5t80 -12t67 -22.5t27 -44q0 -38 -26.5 -55t-61.5 -17q-36 0 -111.5 9t-168 18t-179.5 9q13 28 19.5 59.5t6.5 58.5
q44 0 77.5 43t33.5 95q0 16 -3 34t-8 34q75 0 126 6t96 12.5t100 6.5zM1481 459l-173 -57q19 -17 37 -40t22 -42q20 -84 69.5 -143t104.5 -59q26 0 38.5 14t12.5 39q0 32 -31 62t-62.5 58t-31.5 55q0 32 34 32q32 0 68.5 -39.5t75 -90.5t79.5 -90.5t82 -39.5q25 0 37.5 18.5
t12.5 50.5q0 40 -34 84t-89.5 83.5t-121.5 67.5t-130 37zM2488 831q0 42 -33 64t-82 32.5t-98.5 16.5t-82.5 16t-33 32q0 14 9.5 21.5t31.5 7.5q38 0 95 -11.5t94 -11.5q68 0 68 50q0 40 -30.5 58.5t-70.5 27t-70.5 17.5t-30.5 29q0 22 29 27t67 7.5t67 13.5t29 44
q0 40 -40.5 71t-97.5 31q-44 0 -101.5 -16.5t-126.5 -32.5t-148 -16q-64 0 -119.5 14.5t-89 35.5t-33.5 40q0 21 29 32t66.5 22.5t66.5 32t29 59.5q0 31 -20 53.5t-76 33.5q57 46 87.5 93t30.5 85q0 25 -13.5 42.5t-42.5 17.5q-49 0 -86.5 -22.5t-75.5 -52.5t-88 -52.5
t-125 -22.5q-43 0 -75 11t-32 41q0 25 21.5 32.5t49.5 9t49.5 7.5t21.5 29q0 17 -21 28t-60 11q-141 0 -236 -25t-151.5 -49.5t-84.5 -24.5q-15 0 -24.5 8t-9.5 21q0 20 23.5 32t54 20t54 15.5t23.5 18.5q0 12 -18.5 17.5t-54.5 5.5q-64 0 -145 -25.5t-157.5 -69.5
t-130 -100.5t-63.5 -118.5q-90 -22 -148 -95.5t-58 -163.5q0 -54 -28 -54q-16 0 -31 21t-33.5 42.5t-45.5 21.5t-39 -19.5t-12 -56.5q0 -57 37.5 -93.5t93 -59.5t110.5 -39.5t92.5 -34t37.5 -42.5v-5q-131 0 -206 -62.5t-75 -172.5q0 -76 28 -135t73 -93.5t95 -34.5
q65 0 127 28t119 74q119 -135 232 -200t255 -65q64 0 111 6.5t92.5 15t104.5 15t147 6.5q103 0 238.5 -25t301.5 -25q87 0 114 17t27 43q0 28 -25.5 44.5t-59.5 27.5t-59.5 23.5t-25.5 33.5q0 11 13.5 19.5t47.5 8.5q45 0 86.5 -11.5t89.5 -11.5q74 0 74 48q0 38 -30 59.5
t-74 33t-88.5 20.5t-74.5 21t-30 35q0 15 14.5 24t41.5 9q55 0 126.5 -18.5t126.5 -18.5q32 0 50 14t18 42zM381 1362q0 48 26 88.5t68.5 65.5t92.5 25q58 0 100 -13t85 -29.5t101 -29.5t149 -13q174 0 259.5 -55.5t117.5 -148.5q72 -39 115.5 -89.5t43.5 -97.5
q0 -27 -14 -46t-36 -19q-16 0 -31.5 4t-23.5 4q-13 0 -13 -17q0 -10 3 -34.5t3 -51.5q0 -49 -29.5 -77t-58.5 -48t-29 -43q0 -17 16.5 -22.5t56.5 -5.5q23 0 37 -11t14 -27q0 -22 -25.5 -36.5t-66.5 -14.5q-14 0 -30 2t-26 2q-11 0 -11 -6q0 -10 20 -16t20 -23
q0 -14 -14.5 -23.5t-47.5 -9.5q-73 0 -120 20t-79 20q-12 0 -12 -10t17.5 -23.5t35 -29.5t17.5 -33q0 -15 -14 -23t-40 -8q-74 0 -179.5 73t-221.5 214q-68 -59 -137 -93.5t-122 -34.5q-54 0 -85 59t-31 124q0 82 56.5 120t179.5 38q31 0 86.5 -5t105 -10t60.5 -5
q86 0 133.5 50.5t47.5 120.5q0 75 -39.5 123t-119.5 48q-56 0 -93 23t-71.5 46t-84.5 23q-32 0 -51 -15.5t-34 -31t-37 -15.5q-19 0 -29.5 14.5t-10.5 36.5z" />
</svg>