<?xml version="1.0" standalone="no"?>
<!DOCTYPE svg PUBLIC "-//W3C//DTD SVG 1.1//EN" "http://www.w3.org/Graphics/SVG/1.1/DTD/svg11.dtd">
<svg xmlns="http://www.w3.org/2000/svg" xmlns:xlink="http://www.w3.org/1999/xlink" version="1.1"
   viewBox="94 -151 2414 2169">
   <path fill="currentColor"
      d="M926 1928q-115 0 -173 -41.5t-58 -103.5q0 -35 22.5 -71.5t57.5 -59.5q2 -27 3 -58.5t1 -65.5q0 -83 -5.5 -163.5t-12.5 -109.5q-42 -101 -74.5 -158.5t-67.5 -82t-86 -24.5h-81q-101 0 -182 -50.5t-128 -134t-47 -183.5q0 -57 25 -91t60 -57t66 -45t43 -55
q53 -149 136.5 -227.5t193.5 -78.5h25t26 2q29 -54 92.5 -88t123.5 -34q95 0 144 70.5t49 180.5q0 59 -7 87q31 22 63.5 55.5t58.5 70.5q77 -6 143 -8.5t115 -2.5q156 0 264.5 20.5t182 69.5t122 134.5t83.5 216.5q23 87 50.5 125t64.5 38q29 0 48.5 -17.5t37 -40.5
t40.5 -40.5t59 -17.5q50 0 75.5 47t25.5 127q0 101 -37 181.5t-99.5 127.5t-139.5 47q-55 0 -117.5 -27.5t-109.5 -70.5q-17 60 -38 93v231q0 136 -56 209t-174 73q-104 0 -163 -52t-59 -117q0 -38 18 -75t51 -84l4 -98q-40 -41 -70 -93.5t-61 -114.5q-94 0 -136.5 9.5
t-80.5 26.5q-9 20 -15.5 79.5t-12.5 129.5q-16 204 -83.5 297t-199.5 93zM470 1681q-70 0 -110.5 -39.5t-40.5 -110.5q0 -38 14 -77t49.5 -93t98.5 -136q61 -78 95.5 -143.5t47.5 -125.5l127 141l67 151l-206 218q10 29 10 57q0 65 -34.5 111.5t-117.5 46.5zM844 1470
l-40 -69q41 -23 86.5 -35t87.5 -12v78q-69 0 -134 38zM172 756l-51 -118l57 -91q71 0 122 13.5t51 36.5q0 18 -29 49.5t-70.5 62t-79.5 47.5zM844 1292l-41 -70q41 -23 86.5 -34.5t87.5 -11.5v78q-32 0 -65 9t-68 29zM1444 1800q-62 0 -98 -10t-36 -41q0 -26 17.5 -51.5
t34.5 -60t17 -86.5q0 -44 -16 -79t-32 -76.5t-16 -105.5l177 -33l113 280l-31 245q-30 11 -54.5 14.5t-75.5 3.5zM546 585q-24 0 -42 -22t-18 -53q0 -32 18 -53.5t42 -21.5t42 21.5t18 53.5q0 31 -18 53t-42 22zM906 1052l-54 -58q35 -35 85.5 -51.5t101.5 -16.5h13.5
t13.5 1l-18 21q-1 -8 -1 -15.5v-15.5q0 -34 3.5 -67.5t11.5 -58.5l75 26q-11 36 -11 88q0 14 1.5 28.5t3.5 28.5l-50 47q-8 -2 -17.5 -3t-19.5 -1q-37 0 -76 12.5t-62 34.5zM649 739l-49 -64q62 -45 84.5 -72t22.5 -73q0 -17 -2 -38t-6 -48l80 -13q4 28 6 52.5t2 45.5
q0 69 -30.5 109.5t-107.5 100.5zM1283 1300l-64 -49q32 -40 59 -109t32 -122l79 5q-4 64 -36 144.5t-70 130.5zM802 866l-43 -68q63 -40 94 -74t41 -81.5t10 -126.5l80 -6q0 72 -3.5 121.5t-20 86.5t-54 71.5t-104.5 76.5zM485 331q-9 -69 -59 -125l60 -53q68 79 78 168z
M926 1848q63 0 104.5 -30.5t65.5 -100t33 -186.5q10 -120 22 -183t25 -79q47 -24 87.5 -35.5t95 -15.5t142.5 -4q51 111 84 161.5t75 88.5v145q0 16 -11 33.5t-25 35.5q-15 19 -27.5 39t-12.5 41q0 39 41.5 64t108.5 25q78 0 114 -46.5t36 -155.5v-258q26 -20 49.5 -74.5
t44.5 -112.5q25 36 67.5 67.5t91 51.5t92.5 20q45 0 84 -26.5t67 -73t39 -106.5q-32 -25 -65.5 -41t-65.5 -24q-31 17 -69 17q-75 0 -119.5 -59.5t-72.5 -162.5q-31 -115 -71 -189.5t-103 -116.5t-160 -59t-241 -17q-65 0 -142.5 3.5t-156.5 11.5q-16 -28 -37 -55
t-44.5 -50.5t-47 -42t-43.5 -29.5q11 -36 14.5 -65t3.5 -55q0 -85 -30 -128t-83 -43q-55 0 -106 37.5t-71 89.5q-15 -4 -39.5 -5.5t-50.5 -1.5q-81 0 -144 64.5t-116 201.5q-13 35 -43 59.5t-62.5 45t-55.5 44.5t-23 59q0 80 37 145.5t100 104t140 38.5h81q73 0 123 31.5
t93 103t94 190.5q3 16 6.5 63.5t6.5 109t3 120.5q0 57 -2.5 98t-7.5 70q-30 6 -52 36t-22 51q0 27 38 46t113 19zM1556 1388l-13 -78q80 -15 132 -34.5t88 -51.5l50 53q-43 42 -106 68t-151 43zM1506 1261l-70 -41q38 -45 58 -95.5t26 -106.5l80 8q-7 64 -30.5 124.5
t-63.5 110.5zM697 346q0 -25 -10.5 -64t-26.5 -77t-32 -60l66 -44q21 28 40 73.5t31 92t12 79.5h-80zM403 196q0 -116 37.5 -182t107.5 -66q51 0 91.5 37t59.5 94l-139 35zM1234 839q0 -116 -27 -202.5t-56 -144.5l62 -48q41 67 71 167t30 228h-80zM924 271
q-33 -25 -69 -44.5t-74 -31.5q16 -35 40 -57t49 -22q32 0 45 30.5t13 68.5q0 16 -1 31t-3 25zM1519 844l-79 -8q5 -44 7.5 -83.5t2.5 -76.5q0 -47 -4 -95.5t-12 -104.5l78 -14q8 60 13 112.5t5 105.5q0 38 -3 79t-8 85zM1692 860l-76 -20q20 -78 28.5 -134t8.5 -106
q0 -28 -3 -56t-9 -58l78 -14q6 33 10 64.5t4 62.5q0 56 -10 118t-31 143zM2203 1192q-19 0 -39 -16q0 -29 -4.5 -60.5t-18.5 -64.5l72 -30q16 40 24 78.5t11 76.5q-23 16 -45 16zM2052 1109q-38 -18 -59 -44q19 -66 30.5 -122.5t11.5 -138.5l66 157q-9 44 -21 80t-28 68z
M1828 916l-58 -53q52 -61 77.5 -105t34 -86.5t8.5 -96.5h80q0 65 -11 118t-41.5 105t-89.5 118z" />
</svg>