<?xml version="1.0" standalone="no"?>
<!DOCTYPE svg PUBLIC "-//W3C//DTD SVG 1.1//EN" "http://www.w3.org/Graphics/SVG/1.1/DTD/svg11.dtd">
<svg xmlns="http://www.w3.org/2000/svg" xmlns:xlink="http://www.w3.org/1999/xlink" version="1.1"
   viewBox="94 -151 2414 2169">
   <path fill="currentColor"
      d="M1300 1928q-240 0 -449 -67t-366.5 -185.5t-246 -276.5t-88.5 -339q0 -128 45.5 -255t128.5 -249q-10 -47 -17 -106t-7 -104q0 -116 52.5 -205.5t143 -141t203.5 -51.5q91 0 174.5 33t150.5 91t106 135q31 3 77.5 5t92.5 2q47 0 93 -2t77 -5q40 -77 107.5 -135.5
t151.5 -91t172 -32.5q116 0 206 51.5t141.5 141t51.5 205.5q0 45 -6.5 104t-17.5 106q83 122 128.5 249t45.5 255q0 181 -88.5 339t-246 276.5t-366.5 185.5t-449 67zM1035 889q-27 0 -46.5 -22.5t-19.5 -53.5q0 -32 19.5 -54t46.5 -22t46.5 22t19.5 54q0 31 -19.5 53.5
t-46.5 22.5zM749 604q-56 0 -95.5 -47t-39.5 -114q0 -66 39.5 -113t95.5 -47t95 47t39 113q0 67 -39 114t-95 47zM1300 1848q224 0 418 -60.5t340.5 -168.5t229 -251t82.5 -308q0 -120 -44.5 -239t-135.5 -252q8 -27 15 -67t11 -81.5t4 -74.5q0 -94 -41 -165.5t-112.5 -112
t-165.5 -40.5q-81 0 -157 33t-134 89.5t-85 129.5q-10 5 -78 9.5t-147 4.5t-147 -4.5t-78 -9.5q-27 -73 -84 -129.5t-133 -89.5t-159 -33q-91 0 -163.5 40.5t-114 112t-41.5 165.5q0 33 4 74.5t11 81.5t15 67q-91 133 -135.5 252t-44.5 239q0 165 82.5 308t229 251
t341 168.5t417.5 60.5zM1565 889q-27 0 -46.5 -22.5t-19.5 -53.5q0 -32 19.5 -54t46.5 -22t46.5 22t19.5 54q0 31 -19.5 53.5t-46.5 22.5zM1851 604q-55 0 -94.5 -47t-39.5 -114q0 -66 39.5 -113t94.5 -47q56 0 95.5 47t39.5 113q0 67 -39.5 114t-95.5 47zM1988 954
q47 0 81.5 39.5t34.5 83.5q0 55 -48.5 108.5t-131 101.5t-187 85t-217.5 58t-220 21t-220 -21t-217.5 -58t-187 -85t-131 -101.5t-48.5 -108.5q0 -44 35 -83.5t81 -39.5q32 0 88 19.5t139.5 44.5t197.5 44.5t263 19.5t263 -19.5t197.5 -44.5t139.5 -44.5t88 -19.5zM686 1208
q123 73 287 118t327 45t327 -45t287 -118q-47 -71 -112 -116q-122 34 -250 52t-252 18t-252 -18t-250 -52q-65 45 -112 116z" />
</svg>