<?xml version="1.0" standalone="no"?>
<!DOCTYPE svg PUBLIC "-//W3C//DTD SVG 1.1//EN" "http://www.w3.org/Graphics/SVG/1.1/DTD/svg11.dtd">
<svg xmlns="http://www.w3.org/2000/svg" xmlns:xlink="http://www.w3.org/1999/xlink" version="1.1"
   viewBox="94 -151 2414 2169">
   <path fill="currentColor"
      d="M1889 1978l-1631 -1628l454 -452l1630 1627zM1889 1866l340 -341l-1517 -1514l-341 339zM804 295l-44 -44l114 -114l44 44zM908 495l-51 -51l160 -160l51 51zM1102 591l-46 -43l115 -114l44 44zM1205 791l-51 -51l160 -160l51 51zM1398 889l-44 -44l114 -114l44 44z
M1502 1089l-51 -51l160 -160l51 50zM1695 1185l-44 -44l114 -113l44 44zM1799 1385l-51 -50l160 -160l52 51zM1992 1483l-44 -45l114 -113l44 44z" />
</svg>