<?xml version="1.0" standalone="no"?>
<!DOCTYPE svg PUBLIC "-//W3C//DTD SVG 1.1//EN" "http://www.w3.org/Graphics/SVG/1.1/DTD/svg11.dtd">
<svg xmlns="http://www.w3.org/2000/svg" xmlns:xlink="http://www.w3.org/1999/xlink" version="1.1"
   viewBox="94 -151 2414 2169">
   <path fill="currentColor"
      d="M1300 1928q-202 0 -367 -74.5t-283.5 -213.5t-182 -332t-63.5 -430q0 -298 104 -505.5t304 -316t488 -108.5t488 108.5t304 316t104 505.5q0 237 -63.5 430t-182 332t-283 213.5t-367.5 74.5zM1300 1734q-77 0 -109.5 -55t-32.5 -174l142 -92l142 92q0 119 -32.5 174
t-109.5 55zM1263 1321h74q0 67 25.5 93t83.5 26q84 0 138 -63l57 56q-33 39 -85.5 63t-109.5 24q-46 0 -82.5 -18t-63.5 -49q-27 31 -63.5 49t-82.5 18q-57 0 -109.5 -24t-85.5 -63l57 -56q54 63 138 63q58 0 83.5 -26t25.5 -93zM906 1138q-49 0 -84 -44t-35 -106t35 -106
t84 -44t84 44t35 106t-35 106t-84 44zM405 1143q-161 0 -228 -216t-67 -625q0 -61 43.5 -118.5t117.5 -104t168 -74t194 -27.5q96 0 149.5 23.5t76.5 77.5q-81 73 -120 339q-22 149 -55.5 280.5t-77 231.5t-94.5 156.5t-107 56.5zM1300 1350q-59 0 -102.5 -35t-43.5 -77
q0 -40 41.5 -65t104.5 -25t104.5 25t41.5 65q0 42 -43.5 77t-102.5 35zM1300 1848q247 0 430.5 -120t284.5 -337.5t101 -512.5q0 -414 -209 -632t-607 -218q-397 0 -606.5 218t-209.5 632q0 295 101 512.5t284.5 337.5t430.5 120zM1694 1205q71 0 127.5 -59t56.5 -158
t-56.5 -158t-127.5 -59t-127.5 59t-56.5 158t56.5 158t127.5 59zM1694 1138q-49 0 -84 -44t-35 -106t35 -106t84 -44t84 44t35 106t-35 106t-84 44zM1703 1296q-124 0 -201.5 -99t-77.5 -278q0 -173 81 -265t254 -92q59 0 110.5 39.5t90 102.5t60.5 135.5t22 139.5
q0 81 -32.5 140.5t-84.5 98.5t-110.5 58.5t-111.5 19.5zM2195 1143q-56 0 -107 -56.5t-94.5 -156.5t-77 -231.5t-55.5 -280.5q-39 -266 -120 -339q23 -54 76.5 -77.5t149.5 -23.5q101 0 194.5 27.5t167.5 74t117.5 104t43.5 118.5q0 409 -67 625t-228 216z" />
</svg>