<?xml version="1.0" standalone="no"?>
<!DOCTYPE svg PUBLIC "-//W3C//DTD SVG 1.1//EN" "http://www.w3.org/Graphics/SVG/1.1/DTD/svg11.dtd">
<svg xmlns="http://www.w3.org/2000/svg" xmlns:xlink="http://www.w3.org/1999/xlink" version="1.1"
   viewBox="94 -151 2414 2169">
   <path fill="currentColor"
      d="M716 1978q-113 0 -176.5 -45t-71.5 -128q-31 -24 -49.5 -64t-18.5 -83q0 -65 43.5 -101t129.5 -36q53 0 101 -24t120 -87q5 -97 59.5 -155.5t140.5 -58.5q26 0 45 3.5t50 17.5l121 -389q-45 -2 -83.5 -21.5t-61.5 -52t-23 -71.5q0 -74 75.5 -135t203.5 -95q29 -28 29 -77
q0 -102 -109 -102q-61 0 -111 29.5t-97.5 72.5t-99 86t-115 72.5t-146.5 29.5q-59 0 -98 -22t-39 -56q0 -32 27 -64t100 -70q56 -29 84 -54t43 -48l52 -82q40 -63 103.5 -125t156.5 -103.5t220 -41.5q136 0 256 54t212 149t144 219.5t52 265.5q75 31 115.5 111t40.5 182
q0 93 -39.5 142.5t-121.5 49.5q-43 0 -73 -15q0 57 -14 115t-40 126q85 7 139.5 36.5t54.5 86.5q0 48 -35 92t-90 72t-115 28q-32 0 -63.5 -6.5t-59.5 -17.5q-40 43 -98.5 80t-142.5 72q-62 75 -144.5 105.5t-225.5 30.5q-77 46 -174 74t-183 28zM558 1690q-25 0 -25 -25
t25 -25t25 25t-25 25zM681 1703q-26 0 -26 -26t26 -26t26 26t-26 26zM664 1854q-16 0 -24 -1q-4 -29 -17.5 -50t-25.5 -21t-30 15.5t-26 37.5q-13 -12 -24.5 -28t-11.5 -38q85 0 172 -19t186 -58q8 18 25 30.5t31 12.5q18 0 31.5 -21.5t16.5 -63.5q63 -30 113 -44.5
t79 -14.5q36 0 36 20q0 11 -16 23.5t-53 26.5q-28 -32 -51 -32q-30 0 -41 77l-53 30q-38 22 -81.5 43.5t-90.5 40.5q-1 -18 -15 -33.5t-25 -15.5q-13 0 -29 23.5t-20 52.5q-15 4 -28 5.5t-28 1.5zM805 1502q-90 -14 -135.5 -37t-45.5 -55q0 -25 16 -33.5t39.5 -16.5t48 -29
t41.5 -72l12 -36q23 -68 64.5 -99.5t103.5 -31.5q44 0 95.5 12t100.5 32l-33 150l-129 -46l-113 70zM1208 1524q-26 0 -44.5 -19t-18.5 -44q0 -26 19 -44t44 -18q26 0 44 18t18 44t-18 44.5t-44 18.5zM1252 1267q-11 -29 -11 -61q0 -72 67 -117l32 51q-40 27 -40 66
q0 16 8 40zM1849 1859q-46 0 -72.5 -10t-26.5 -31q0 -23 20 -50.5t20 -58.5q0 -29 -24 -49.5t-56 -36t-58.5 -28t-31.5 -24.5l313 -10l73 -167q15 7 28 16t13 17v174q0 131 -45.5 194.5t-152.5 63.5zM1492 1357q-11 -29 -11 -61q0 -72 67 -117l32 51q-40 27 -40 66
q0 16 8 40zM1098 1004q-37 0 -51.5 -7.5t-14.5 -25.5q0 -19 18 -34t18 -29t-18 -58.5t-18 -97.5q0 -49 20.5 -70t32.5 -21l44 97l122 34l-56 191q-31 12 -55 16.5t-42 4.5zM716 1898q80 0 172 -28t174 -74q93 0 153 -11t101.5 -37.5t76.5 -73.5q80 -32 129 -63.5t83 -65.5
q-35 -34 -35 -69h76q0 14 24 27t61 21t76 8q38 0 76.5 -13t64 -34.5t25.5 -46.5q0 -32 -48.5 -47.5t-125.5 -15.5q-15 0 -31.5 0.5t-34.5 2.5q53 -109 72.5 -184.5t19.5 -148.5q0 -26 -3.5 -78t-10.5 -121h78q0 58 21 101.5t70 43.5q45 0 63 -25t18 -87q0 -55 -16.5 -108.5
t-49.5 -93.5t-84 -53q0 -136 -46 -253.5t-127 -205.5t-188 -137.5t-229 -49.5q-114 0 -194.5 33.5t-135 88t-92.5 116.5l-34 56q-25 40 -66.5 78t-102.5 68q-56 28 -67.5 37.5t-11.5 16.5q0 5 15 8.5t40 3.5q69 0 124 -29.5t104.5 -72.5t100 -86t109 -72.5t131.5 -29.5
q90 0 139.5 48.5t49.5 133.5q0 96 -71 150q-107 26 -172 70t-65 87q0 27 31.5 46t66.5 19q23 0 48.5 -4t48.5 -8l-192 591q-29 -24 -59.5 -37.5t-62.5 -13.5q-45 0 -89 44.5t-44 128.5q-95 85 -160.5 118.5t-136.5 33.5q-52 0 -75 14t-23 43q0 36 20 71t46 52
q0 58 37.5 87.5t137.5 29.5zM1362 936q-11 -29 -11 -61q0 -72 67 -117l32 51q-40 27 -40 66q0 16 8 40zM1602 1025q-11 -29 -11 -61q0 -72 67 -117l32 51q-40 27 -40 66q0 16 8 40zM1478 641q-24 -42 -24 -82q0 -58 48 -103l41 45q-30 28 -30 59q0 21 16 51zM2072 1260
q-42 0 -66.5 -25.5t-24.5 -65.5q0 -17 4 -33q-36 0 -73 -30.5t-37 -74.5l17 -27l164 19l80 -177q4 20 5.5 41.5t1.5 41.5q0 30 -2 53t-2 28q0 14 15.5 32.5t30.5 41t15 50.5q0 31 -19.5 60t-48.5 47.5t-60 18.5zM1708 711q-24 -42 -24 -82q0 -58 48 -103l41 45
q-30 28 -30 59q0 21 16 51zM1363 137q-31 -30 -63 -30q-22 0 -48 17l-33 -50q41 -26 82 -26q53 0 104 46zM1657 326l-59 -7q1 -5 1 -7.5v-6.5q0 -61 -59 -81l19 -57q99 37 99 139v10t-1 10z" />
</svg>