<?xml version="1.0" standalone="no"?>
<!DOCTYPE svg PUBLIC "-//W3C//DTD SVG 1.1//EN" "http://www.w3.org/Graphics/SVG/1.1/DTD/svg11.dtd">
<svg xmlns="http://www.w3.org/2000/svg" xmlns:xlink="http://www.w3.org/1999/xlink" version="1.1"
   viewBox="94 -151 2414 2169">
   <path fill="currentColor"
      d="M1331 1978q-84 0 -123 -32.5t-39 -54.5q0 -18 3.5 -68.5t6.5 -104.5t3 -82q0 -100 -19 -176q-105 -6 -208 -39t-187 -86t-134 -118h-15q-115 0 -203.5 -40.5t-139.5 -113.5t-51 -171q0 -68 18.5 -116.5t42 -87t42 -78t18.5 -89.5q0 -269 150.5 -412.5t427.5 -146.5
q89 -35 155.5 -49.5t135.5 -14.5q178 0 343.5 90.5t355.5 296.5q269 35 378.5 184.5t109.5 435.5q0 40 -8 97t-19 116t-19 109.5t-8 79.5v307q0 34 -48.5 60t-113.5 26q-61 0 -105 -23.5t-44 -63.5q0 -46 7.5 -86t7.5 -94q0 -39 -30 -67.5t-72 -28.5q-19 0 -54 22t-90 52
t-132 55t-180 31q-4 44 -6 88.5t-2 58.5q0 23 2.5 61t5 74.5t2.5 54.5q0 62 -47.5 103t-117.5 41zM893 1802q-40 0 -75 -12t-35 -34q0 -16 14.5 -43t29 -63.5t14.5 -81.5q0 -71 -6 -112.5t-22 -72t-47 -67.5l303 89q-15 45 -22.5 80t-7.5 72q0 27 -2 65t-4 68.5t-2 37.5
q0 28 -38 51t-100 23zM451 997q19 0 30 -12.5t11 -31.5q0 -38 -33 -74t-68 -36q-19 0 -30 12t-11 32q0 37 33.5 73.5t67.5 36.5zM646 1192q-102 0 -195 -37t-152 -95t-59 -121q0 -64 46.5 -119t121.5 -89t163 -34q103 0 192.5 35.5t145 93.5t55.5 124t-43.5 121t-115.5 88
t-159 33zM684 1022q41 0 76.5 -26.5t35.5 -57.5q0 -19 -14.5 -29.5t-39.5 -10.5q-41 0 -77 26t-36 57q0 19 15 30t40 11zM481 604q-19 0 -34 -25t-15 -59q0 -35 15 -59.5t34 -24.5q20 0 34.5 24.5t14.5 59.5q0 34 -14.5 59t-34.5 25zM921 1069l-2 -78q122 -5 188 -47.5
t103 -141.5l75 25q-46 123 -132 180t-232 62zM327 412q-106 0 -174.5 -73t-68.5 -186q0 -101 47.5 -165t119.5 -64q40 0 40 14q0 7 -16.5 21t-33.5 39t-17 64q0 31 23 53t62 22q51 0 84.5 -33t66 -76t80 -76t126.5 -33q95 0 144 57l-276 161l-126 262q-44 13 -81 13z
M1775 1651q-36 0 -64.5 -9.5t-28.5 -25.5q0 -18 19 -42.5t19 -73.5q0 -10 -1.5 -33t-6.5 -45l203 -114v266q0 31 -39 54t-101 23zM907 663q-22 0 -38 -27.5t-16 -65.5t16 -65.5t38 -27.5t38 27.5t16 65.5t-16 65.5t-38 27.5zM1340 1898q32 0 54 -16t22 -39q0 -31 -2.5 -69
t-5 -73.5t-2.5 -56.5q0 -11 1 -39t3 -63t5.5 -68.5t9.5 -54.5q117 0 204 -24.5t149 -56.5t103.5 -56.5t68.5 -24.5q74 0 128 51t54 125q0 18 -4 49t-7.5 60.5t-3.5 45.5q0 17 20 24.5t49 7.5q31 0 56.5 -7t25.5 -29v-277q0 -49 13.5 -117t27 -143t13.5 -142q0 -181 -42 -294
t-138.5 -172t-259.5 -77q-131 -140 -240.5 -224t-212.5 -122t-214 -38q-67 0 -129 14.5t-151 50.5q-252 0 -380.5 119.5t-128.5 358.5q0 70 -18.5 114t-42 78.5t-42 75t-18.5 103.5q0 110 86 177.5t228 67.5q14 0 28 -0.5t27 -3.5q14 38 64.5 81.5t127 82t167.5 62.5t184 24
q13 16 23 57t16 93t6 103q0 38 -5 89t-5 130q0 22 30 32.5t58 10.5zM1428 534q-116 0 -220.5 -35t-185 -94.5t-127 -134.5t-46.5 -156q0 -83 51.5 -121.5t132.5 -38.5q72 0 124 31.5t94.5 78.5t83.5 94t90.5 78.5t116.5 31.5q88 0 138 -51t50 -114q0 -28 -7.5 -62t-15.5 -63
t-8 -42q0 -22 26 -22q30 0 60 35t50 95.5t20 137.5q0 158 -113.5 255t-313.5 97zM2472 1320q-49 0 -83 -19.5t-54 -50.5l57 -286q6 -2 9 -2q35 0 62.5 27t27.5 70q0 41 -15.5 81.5t-15.5 71.5q0 27 14 42t28 23.5t14 18.5q0 24 -44 24z" />
</svg>