<?xml version="1.0" standalone="no"?>
<!DOCTYPE svg PUBLIC "-//W3C//DTD SVG 1.1//EN" "http://www.w3.org/Graphics/SVG/1.1/DTD/svg11.dtd">
<svg xmlns="http://www.w3.org/2000/svg" xmlns:xlink="http://www.w3.org/1999/xlink" version="1.1"
   viewBox="94 -151 2414 2169">
   <path fill="currentColor"
      d="M1300 483q-146 0 -267 -51t-215 -146.5t-160 -229.5q-13 -27 -19.5 -53t-6.5 -47q0 -26 8.5 -42t24.5 -16q21 0 38 17t49 71q85 142 223.5 217.5t324.5 75.5t324.5 -75.5t223.5 -217.5q32 -54 49 -71t38 -17q16 0 24.5 16t8.5 42q0 21 -6 47t-20 53q-67 133 -161 229
t-214.5 147t-266.5 51zM665 1978q-16 0 -24.5 -16t-8.5 -42q0 -21 6.5 -47t19.5 -53q66 -134 160 -229.5t215 -146.5t267 -51t266.5 51t214.5 146.5t161 229.5q14 27 20 53t6 47q0 26 -8.5 42t-24.5 16q-21 0 -38 -17t-49 -71q-85 -143 -223.5 -218t-324.5 -75t-324.5 75
t-223.5 218q-32 54 -49 71t-38 17zM326 1606q-25 0 -40.5 -8.5t-15.5 -24.5q0 -21 16.5 -37.5t70.5 -48.5q143 -86 218.5 -224t75.5 -325t-75.5 -325.5t-218.5 -223.5q-54 -32 -70.5 -48.5t-16.5 -37.5q0 -16 15.5 -24.5t40.5 -8.5q21 0 47 6t54 20q134 66 230 160
t147 214.5t51 267.5q0 146 -51 267t-146.5 215t-230.5 160q-28 13 -54 19.5t-47 6.5zM2274 1606q-21 0 -47 -6.5t-54 -19.5q-134 -66 -230 -160t-147 -215t-51 -267q0 -147 51 -267.5t147 -214.5t230 -160q28 -14 54 -20t47 -6q25 0 40.5 8.5t15.5 24.5q0 21 -16.5 37.5
t-70.5 48.5q-142 85 -218 223.5t-76 325.5t76 325t218 224q54 32 70.5 48.5t16.5 37.5q0 16 -15.5 24.5t-40.5 8.5z" />
</svg>