<?xml version="1.0" standalone="no"?>
<!DOCTYPE svg PUBLIC "-//W3C//DTD SVG 1.1//EN" "http://www.w3.org/Graphics/SVG/1.1/DTD/svg11.dtd">
<svg xmlns="http://www.w3.org/2000/svg" xmlns:xlink="http://www.w3.org/1999/xlink" version="1.1"
   viewBox="94 -151 2414 2169">
   <path fill="currentColor"
      d="M1216 1978q-80 0 -120.5 -26t-40.5 -85q0 -22 9.5 -76t18.5 -114.5t9 -99.5q0 -24 -6 -74.5t-17 -78.5q-206 -40 -311.5 -155.5t-117.5 -312.5q-45 -10 -90.5 -39t-71.5 -64q-91 -4 -164 -37.5t-116 -86t-43 -111.5q0 -53 34 -106t74 -78l85 -87q5 -17 16.5 -39t31.5 -45
q24 -28 46.5 -38t42 -18.5t33.5 -30.5q26 -39 55 -62t75 -23q41 0 80.5 12.5t73.5 25t56 12.5q42 0 101.5 19t99.5 45l265 171q30 19 120 32t197 13q29 0 77.5 -5t93 -10.5t60.5 -5.5q60 0 123 30.5t116.5 80.5t86.5 108.5t33 114.5q0 50 -11.5 112.5t-45.5 176.5
q-30 100 -41.5 156t-11.5 100q0 37 6.5 63.5t31.5 58.5q20 24 31 42.5t11 37.5q0 20 -6.5 54.5t-13.5 70.5t-7 59q0 69 -1 117t-1 74q0 32 -58 55.5t-125 23.5q-64 0 -98.5 -25t-34.5 -62q0 -36 9.5 -64.5t18.5 -59.5t9 -73q0 -49 -26 -110t-57 -126t-47 -126
q-85 37 -166.5 58t-186.5 24q-13 41 -25 93t-19.5 99t-7.5 74q0 20 8 67t16 93t8 63q0 58 -41.5 88t-132.5 30zM833 1864q-52 0 -84.5 -12t-32.5 -37q0 -12 7.5 -24.5t15.5 -21.5q12 -13 20.5 -45t13.5 -71t5 -72q0 -39 -7.5 -101t-19.5 -131t-26 -128l266 156
q-13 54 -19.5 104t-6.5 98q0 36 2.5 84.5t5 88t2.5 50.5q0 27 -37 44.5t-105 17.5zM238 641q-16 0 -16 -14t20.5 -15t47.5 -33q20 -24 34 -24q11 0 18 8.5t7 17.5q0 23 -23 36q-15 9 -38 16.5t-50 7.5zM1056 1397q-31 -61 -47 -124.5t-16 -128.5q0 -127 65 -250l70 38
q-28 53 -41.5 105t-13.5 107q0 54 13.5 105t41.5 105zM1658 1818q-59 0 -82.5 -6.5t-23.5 -19.5q0 -29 17.5 -88.5t17.5 -126.5q0 -29 -4.5 -66.5t-11.5 -70t-15 -46.5l-51 39q-59 -36 -95 -52.5t-71 -16.5l446 -95q-12 50 -19.5 90.5t-7.5 81.5q0 40 6.5 96t12.5 112.5
t6 101.5q0 34 -45 50.5t-80 16.5zM1216 1898q60 0 77 -10.5t17 -31.5q0 -9 -5 -39t-11 -66.5t-11 -68.5t-5 -45q0 -37 11.5 -104.5t29.5 -135.5t35 -105q90 0 163 -11.5t143.5 -40t154.5 -78.5q14 98 52.5 184t72 161t33.5 144q0 42 -9 75.5t-18.5 58t-9.5 38.5
q0 18 25.5 25t45.5 7q33 0 59.5 -13.5t26.5 -33.5q0 -23 0.5 -59.5t0.5 -83.5q0 -17 5 -51.5t12 -71.5l13 -65q-37 -50 -60 -93.5t-23 -104.5q0 -50 12.5 -112.5t43.5 -166.5q31 -103 42.5 -160.5t11.5 -105.5q0 -39 -26.5 -83t-69.5 -83t-91 -63.5t-92 -24.5
q-26 0 -68.5 5.5t-87 10.5t-75.5 5q-122 0 -220.5 -15.5t-139.5 -42.5l-265 -171q-31 -20 -79 -35.5t-79 -15.5q-44 0 -99.5 -25t-110.5 -25q-17 0 -30 10t-33 39q-19 28 -44.5 44t-48.5 27t-36 25q-27 28 -36 72l-108 110q-29 14 -53 52t-24 68q0 41 40 76.5t100.5 57
t120.5 21.5q32 45 92 82t126 63q11 195 110 299t304 137q20 36 32 94.5t12 116.5q0 50 -9 108.5t-18.5 110.5t-9.5 83q0 16 13 23.5t68 7.5zM616 487q-23 0 -40 -19.5t-17 -47.5q0 -24 14.5 -41t34.5 -17q23 0 39.5 19.5t16.5 46.5q0 25 -14 42t-34 17zM400 336
q-106 -94 -148.5 -156.5t-42.5 -132.5q0 -40 29 -69.5t69 -29.5q26 0 48 9.5t22 21.5q0 13 -11.5 19.5t-11.5 32.5q0 36 50 79.5t135 81.5zM833 782l-16 -72q55 -8 84.5 -21.5t29.5 -31.5q0 -111 -3 -201l79 -23q2 49 3 105.5t1 118.5q0 46 -49 80.5t-129 44.5zM823 285
q-52 0 -92 -32t-40 -85q0 -57 -35 -108t-94 -66q-40 -11 -56 -18.5t-16 -18.5q0 -23 47.5 -41t93.5 -18q77 0 144.5 37t109 96.5t41.5 127.5q0 44 -26.5 85t-76.5 41zM1062 476q-123 0 -223 -28l17 -74q46 13 87 19.5t81 6.5q0 -72 -40.5 -122t-95.5 -56v-76q57 3 106.5 38
t79.5 89.5t30 116.5q0 23 -1.5 44.5t-4.5 40.5q-9 1 -18 1h-18zM2404 1593q-10 0 -25 -24t-29 -40q-50 -61 -65.5 -92t-15.5 -70q0 -55 10.5 -86.5t17.5 -44.5q-25 -18 -59 -56.5t-59.5 -95t-25.5 -127.5l71 -196q0 66 17.5 151.5t45.5 166.5t59 134q50 24 74.5 90t24.5 119
q0 32 -6 72t-15 69.5t-20 29.5z" />
</svg>