<?xml version="1.0" standalone="no"?>
<!DOCTYPE svg PUBLIC "-//W3C//DTD SVG 1.1//EN" "http://www.w3.org/Graphics/SVG/1.1/DTD/svg11.dtd">
<svg xmlns="http://www.w3.org/2000/svg" xmlns:xlink="http://www.w3.org/1999/xlink" version="1.1"
   viewBox="94 -151 2414 2169">
   <path fill="currentColor"
      d="M1471 162l-58 400l-493 494l-400 57l-263 -264l58 -401l494 -493l399 -57zM1385 190l-205 -206l-334 47l-455 454l-48 336l205 206l335 -47l454 -455zM1154 -58l78 12l-53 373l-493 494l-378 53l-11 -79l352 -50l454 -455zM1112 336l58 -56l231 233l-57 56zM638 810
l58 -56l231 233l-57 56zM906 1011l54 -58l314 275q20 17 57.5 6t82.5 -42t85 -74q35 -38 61.5 -81t37.5 -78.5t-3 -49.5l-285 -307l57 -53l286 306q27 28 27 76q0 51 -32.5 114t-90.5 126q-63 68 -131 105.5t-124 37.5q-49 0 -81 -28zM1196 1221l-16 17l-44 312l184 185
l311 -43l422 -423l44 -311l-184 -185l-310 43l-12 12l-52 -62l27 -26l375 -53l242 243l-54 376l-461 462l-376 53l-242 -243l54 -377l30 -31zM1887 729l79 12l-51 350l-461 462l-352 50l-12 -79l327 -47l422 -423zM1848 1100l58 -56l211 213l-58 56zM1406 1542l58 -56
l211 214l-58 56zM1642 1699l51 -59l287 252q16 14 48.5 4t72 -36.5t74.5 -63.5q29 -30 52.5 -67.5t34 -68.5t-0.5 -43l-260 -277l57 -53l261 277q24 25 24 68q0 46 -28.5 104t-81.5 114q-58 61 -118 94.5t-111 33.5q-45 0 -74 -26zM1516 783q-1 53 -18 104t-45 108
q-12 25 -27 47.5t-32 44.5q-19 24 -46 7q-13 -8 -14.5 -23.5t8.5 -31.5l24 -38t23 -41q29 -56 44 -112.5t14 -111.5zM1365 651q-5 64 -22 116.5t-46 111.5q-12 25 -27 47.5t-32 44.5q-19 24 -46 7q-13 -8 -14.5 -23.5t8.5 -31.5q12 -19 24.5 -38t22.5 -41q27 -56 44 -115
t27 -141zM2199 1474q-1 40 -15 85.5t-39 95.5q-13 27 -28 49t-33 45q-18 24 -43 7q-13 -8 -14 -23t9 -30q11 -17 22.5 -36t22.5 -40q28 -53 41 -104.5t11 -84.5zM2074 1352q-4 52 -20.5 102t-45.5 106q-12 23 -26 45t-31 44q-16 20 -43 5q-13 -8 -14.5 -22.5t8.5 -28.5
q14 -20 24.5 -38.5t20.5 -37.5q17 -33 30 -68.5t22 -77.5z" />
</svg>