<?xml version="1.0" standalone="no"?>
<!DOCTYPE svg PUBLIC "-//W3C//DTD SVG 1.1//EN" "http://www.w3.org/Graphics/SVG/1.1/DTD/svg11.dtd">
<svg xmlns="http://www.w3.org/2000/svg" xmlns:xlink="http://www.w3.org/1999/xlink" version="1.1"
   viewBox="94 -151 2414 2169">
   <path fill="currentColor"
      d="M1300 1978q-150 0 -272.5 -36.5t-195 -100t-72.5 -142.5v-1476q0 -92 72.5 -165.5t195.5 -116.5t272 -43q150 0 272.5 43t195 116.5t72.5 165.5v1476q0 79 -72.5 142.5t-194.5 100t-273 36.5zM1300 1898q125 0 229.5 -28t167.5 -73.5t63 -97.5v-1324q-68 65 -190 104.5
t-270 39.5q-147 0 -269.5 -39.5t-190.5 -104.5v1324q0 52 63 97.5t168 73.5t229 28zM1300 439q122 0 227 -28t169 -77t64 -111t-63 -118t-167.5 -91.5t-229.5 -35.5q-124 0 -229 35.5t-168 91.5t-63 118t64.5 111t169.5 77t226 28zM1300 1683q-129 0 -216 -38v-81
q87 38 216 38t216 -38v81q-87 38 -216 38zM1300 237q-88 0 -150.5 -35t-62.5 -91v-43q0 -59 63.5 -95.5t149.5 -36.5t149.5 36.5t63.5 95.5v43q0 56 -62 91t-151 35zM1300 137q62 0 96.5 -20t34.5 -50q0 -33 -37.5 -51.5t-93.5 -18.5q-55 0 -92.5 19t-37.5 51q0 30 34.5 50
t95.5 20zM1084 925v-80q34 8 86.5 12t89.5 4v-160q9 1 18.5 1.5t21.5 0.5t21.5 -0.5t18.5 -1.5v160q38 0 90 -4t86 -12v80q-34 8 -86 12t-90 4v165q-9 1 -18.5 1.5t-21.5 0.5t-21.5 -0.5t-18.5 -1.5v-165q-38 0 -90 -4t-86 -12z" />
</svg>