<?xml version="1.0" standalone="no"?>
<!DOCTYPE svg PUBLIC "-//W3C//DTD SVG 1.1//EN" "http://www.w3.org/Graphics/SVG/1.1/DTD/svg11.dtd">
<svg xmlns="http://www.w3.org/2000/svg" xmlns:xlink="http://www.w3.org/1999/xlink" version="1.1"
   viewBox="94 -151 2414 2169">
   <path fill="currentColor"
      d="M1300 1528q-219 0 -410 -45.5t-334.5 -126.5t-224.5 -188t-81 -230t81 -230t224.5 -188t334.5 -126.5t410 -45.5t410 45.5t334.5 126.5t224.5 188t81 230t-81 230t-224.5 188t-334.5 126.5t-410 45.5zM1300 1348q-183 0 -345 -34t-286.5 -95.5t-197.5 -143.5
q38 -93 117.5 -166t189.5 -123.5t243 -77t279 -26.5q148 0 281.5 27t243.5 78t188.5 123.5t115.5 164.5q-72 82 -197 143.5t-286.5 95.5t-345.5 34zM1300 1448q201 0 377 -40.5t309.5 -111.5t208.5 -163t75 -195t-75 -195t-208.5 -163t-309.5 -111.5t-377 -40.5t-377 40.5
t-309 111.5t-208 163t-75 195t75 195t208 163t309 111.5t377 40.5z" />
</svg>