<?xml version="1.0" standalone="no"?>
<!DOCTYPE svg PUBLIC "-//W3C//DTD SVG 1.1//EN" "http://www.w3.org/Graphics/SVG/1.1/DTD/svg11.dtd">
<svg xmlns="http://www.w3.org/2000/svg" xmlns:xlink="http://www.w3.org/1999/xlink" version="1.1"
   viewBox="94 -151 2414 2169">
   <path fill="currentColor"
      d="M882 1607q93 0 147 -44.5t54 -121.5q0 -49 -23.5 -82.5t-67.5 -49.5q35 -19 54.5 -52.5t19.5 -73.5q0 -65 -44.5 -103.5t-121.5 -38.5q-50 0 -95.5 16t-86.5 49l38 57q36 -29 70.5 -43t71.5 -14q96 0 96 83q0 45 -31.5 69t-92.5 24h-72v67h72q71 0 104.5 21.5t33.5 68.5
q0 50 -33 76t-96 26q-40 0 -84 -12t-75 -31v74q76 35 162 35zM1515 1404l164 -237v237h-164zM1679 1598h73v-128h82v-66h-82v-354h-66l-262 369v51h255v128zM913 782h73v-549h-56l-166 125l43 52l106 -83v455zM1443 782h359v-68h-251v-5l103 -100q60 -58 93 -108t33 -121
q0 -70 -45 -112.5t-117 -42.5q-46 0 -89 17.5t-81 52.5l40 54q30 -28 62.5 -42.5t65.5 -14.5q43 0 66.5 23.5t23.5 67.5q0 52 -24 90t-80 94l-159 160v55zM426 1978q-68 0 -117 -48.5t-49 -115.5v-1751q0 -68 49 -116.5t116 -48.5h1750q68 0 116.5 48.5t48.5 116.5v1750
q0 67 -48.5 116t-116.5 49h-1749z" />
</svg>