<?xml version="1.0" standalone="no"?>
<!DOCTYPE svg PUBLIC "-//W3C//DTD SVG 1.1//EN" "http://www.w3.org/Graphics/SVG/1.1/DTD/svg11.dtd">
<svg xmlns="http://www.w3.org/2000/svg" xmlns:xlink="http://www.w3.org/1999/xlink" version="1.1"
   viewBox="94 -151 2414 2169">
   <path fill="currentColor"
      d="M1300 1978q-165 0 -297.5 -29.5t-214 -81.5t-93.5 -118l-265 -1492l88 84l46 255l106 -111l-141 -140l-37 36l-54 -49l39 -39l-93 -93l39 -66l108 109l140 -140l-91 -90l98 -15l47 47l65 -62l132 -26l-144 145l139 138l139 -138l-142 -144l94 -10l100 101l112 -111
l110 -5l-169 169l139 139l139 -139l-169 -169l110 5l112 111l100 -101l94 10l-142 144l139 138l139 -138l-144 -145l132 26l65 62l47 -47l98 15l-91 90l140 140l109 -109l38 66l-93 93l39 39l-130 23l138 -98l-264 1492q-12 66 -93.5 118t-214 81.5t-298.5 29.5zM943 1751
l112 -112l-139 -140l-143 140l107 105zM738 1574l125 -127l-140 -140l-28 30zM1208 1792l-102 -100l-77 77q45 8 90 15t89 8zM680 1316l-58 -12l45 -49l-51 -53l41 -26zM782 1820l-29 -186q38 70 185 110.5t362 40.5q216 0 363 -40.5t184 -110.5l-29 186q-518 156 -1036 0z
M1106 1587l140 -140l-140 -140l-139 140zM916 1394l138 -139l-138 -140l-140 140zM1300 1779l145 -140l-145 -140l-145 140zM723 1203l140 -138l-140 -139l-84 87l21 125zM1392 1792q44 -1 89 -8t90 -15l-77 -77zM620 920l50 -47l-73 -72zM1106 1203l140 -138l-140 -140
l-139 140zM1300 1395l141 -140l-141 -141l-141 141zM1494 1587l139 -140l-139 -140l-140 140zM1657 1751l63 -7l107 -105l-143 -140l-139 140zM1863 1574l43 -237l-29 -30l-140 140zM1106 820l140 -140l-140 -140l-140 140zM1300 1012l141 -139l-141 -141l-141 141z
M1494 1203l139 -138l-139 -140l-140 140zM1684 1394l140 -139l-140 -140l-138 140zM1920 1316l23 -139l42 25l-50 54l43 48zM1877 1203l63 -65l22 -125l-85 -87l-140 139zM1684 1011l139 -138l-139 -140l-138 140zM1494 820l140 -140l-140 -140l-140 140zM1108 434l139 -141
l-139 -138l-138 138zM1300 628l147 -144l83 -11l154 154l140 -141l-41 -46l81 -24l15 16l139 -139l-139 -141l-143 141l154 149l-82 24l-125 -120l-152 153h-79l-152 -152l-152 152h-79l-152 -153l-125 120l-82 -24l154 -149l-143 -141l-139 141l139 139l15 -16l81 24
l-41 46l140 141l154 -154l83 11zM1300 554q-197 0 -368.5 -25.5t-301 -72t-202.5 -108.5t-73 -135q0 -98 113.5 -168.5t325.5 -108.5t506 -38t506 38t325.5 108.5t113.5 168.5q0 73 -73 135t-202.5 108.5t-301 72t-368.5 25.5zM1300 455q174 0 327 -19t270 -52.5t183 -78
t66 -94.5q0 -64 -107.5 -112t-298.5 -75.5t-440 -27.5t-440 27.5t-298.5 76t-107.5 111.5q0 50 66 94.5t183 78t270 52.5t327 19zM1981 920l22 -119l-73 72zM1877 820l139 -140l-139 -139l-140 139zM1492 434l138 -141l-138 -138l-139 138zM2037 596l43 -242l-9 -9l-141 140
zM916 1011l138 -138l-138 -140l-139 140zM723 820l140 -140l-140 -139l-139 139z" />
</svg>