<?xml version="1.0" standalone="no"?>
<!DOCTYPE svg PUBLIC "-//W3C//DTD SVG 1.1//EN" "http://www.w3.org/Graphics/SVG/1.1/DTD/svg11.dtd">
<svg xmlns="http://www.w3.org/2000/svg" xmlns:xlink="http://www.w3.org/1999/xlink" version="1.1"
   viewBox="94 -151 2414 2169">
   <path fill="currentColor"
      d="M264 1978l395 -763l-279 -54l181 -227l-321 -139l273 -203l-113 -199l251 -58l-31 -297l356 127l197 -267l239 244l212 -171l116 228l319 -93l-45 301l247 103l-170 258l269 273l-342 105l103 349l-397 -90l-112 238l-221 -182l-211 189l-165 -195zM448 1768l583 -419
l157 187l201 -181l195 160l94 -202l327 74l-87 -295l292 -89l-219 -223l152 -232l-217 -91l35 -239l-263 77l-100 -200l-190 153l-227 -232l-179 243l-290 -103l25 241l-215 50l95 167l-221 163l293 127l-163 203l251 50z" />
</svg>