<?xml version="1.0" standalone="no"?>
<!DOCTYPE svg PUBLIC "-//W3C//DTD SVG 1.1//EN" "http://www.w3.org/Graphics/SVG/1.1/DTD/svg11.dtd">
<svg xmlns="http://www.w3.org/2000/svg" xmlns:xlink="http://www.w3.org/1999/xlink" version="1.1"
   viewBox="94 -151 2414 2169">
   <path fill="currentColor"
      d="M1300 1978q-105 0 -165 -16t-115 -47v-186q-334 -47 -519.5 -194t-185.5 -365q0 -105 42 -217t141 -271l-165 9l310 -749q51 63 97 167t75.5 221t29.5 221q0 85 -25 164.5t-53 149.5q-21 52 -36 98t-15 85q0 109 82.5 170t269.5 89l80 -729l-161 14l313 -694l313 694
l-161 -14l80 729q187 -28 269.5 -89t82.5 -170q0 -39 -15 -85t-36 -98q-28 -70 -53 -149.5t-25 -164.5q0 -104 29.5 -221t76 -221t96.5 -167l310 749l-165 -9q99 159 141 271t42 217q0 219 -185 365.5t-520 193.5v186q-55 31 -115 47t-165 16zM1300 1898q71 0 115.5 -7.5
t84.5 -24.5v-209q335 -35 520 -163t185 -324q0 -55 -13 -111.5t-42 -122.5t-77.5 -148.5t-120.5 -189.5l194 9l-203 -513q-30 62 -54.5 143t-39 164t-14.5 150q0 83 23 153t49 133q23 54 40 106t17 105q0 155 -120.5 238t-383.5 110l-98 -903l121 12l-183 -436l-183 436
l121 -12l-98 903q-262 -27 -383 -110t-121 -238q0 -53 17.5 -105t39.5 -106q26 -63 49 -133t23 -153q0 -68 -14.5 -151t-38.5 -164t-55 -142l-203 513l194 -9q-72 107 -120.5 189.5t-77.5 148.5t-42 122.5t-13 111.5q0 196 185.5 324t519.5 163v209q40 17 85 24.5t115 7.5z
" />
</svg>