<?xml version="1.0" standalone="no"?>
<!DOCTYPE svg PUBLIC "-//W3C//DTD SVG 1.1//EN" "http://www.w3.org/Graphics/SVG/1.1/DTD/svg11.dtd">
<svg xmlns="http://www.w3.org/2000/svg" xmlns:xlink="http://www.w3.org/1999/xlink" version="1.1"
   viewBox="94 -151 2414 2169">
   <path fill="currentColor"
      d="M1607 1250h66v554q0 56 -50.5 95t-135.5 59t-190 20q-104 0 -189 -20t-135.5 -59t-50.5 -95v-405h66v405q0 29 41.5 53.5t111.5 39t156 14.5q87 0 157 -14.5t111.5 -39t41.5 -53.5v-554zM1104 1001q3 85 14 163t11 170q0 48 -35 85t-89 37q-58 0 -99.5 -44.5
t-41.5 -104.5q0 -29 6.5 -59t19.5 -61l12 27q-27 -8 -37 -30.5t-10 -50.5q0 -33 11.5 -57l23 -48t11.5 -55q0 -83 -4.5 -130.5t-4.5 -84.5q0 -88 27 -123t107 -35q40 0 104 15t140.5 30.5t152.5 15.5q140 0 209.5 47t69.5 148q0 31 -2.5 66t-2.5 61q0 35 24 84.5t24 108.5
q0 52 -29 93.5t-75 41.5q-49 0 -73.5 -33t-28.5 -89l29 -29q8 44 21.5 91t13.5 86q0 33 -16.5 61t-48.5 40l5 -17q10 17 12.5 44t2.5 41q0 61 -28 101t-81 40q-52 0 -79 -38t-27 -99q0 -40 6 -94.5t6 -105.5q0 -110 -4.5 -167.5t-16 -78t-34.5 -20.5q-27 0 -47 19.5
t-58 19.5t-67 -23.5t-45 -57.5zM978 684q0 34 98 77t276 88l-17 58q-127 -36 -205 -63.5t-121.5 -52t-65.5 -52.5l16 -5q0 32 4 104t4 135q0 49 -23 85.5t-23 74.5q0 19 12.5 34t32.5 19q-36 69 -36 121q0 40 22 61.5t53 21.5q35 0 48 -25.5t13 -63.5q0 -37 -7.5 -95
t-15 -123.5t-7.5 -122.5q0 -31 9.5 -45.5t28.5 -14.5q28 0 40 17.5t19 41t19.5 41t42.5 17.5q20 0 36 -10t33.5 -19.5t40.5 -9.5q50 0 74.5 35.5t33 109t8.5 187.5q0 24 -3 65t-6 79.5t-3 55.5q0 34 10.5 52.5t29.5 18.5q21 0 32 -20t11 -55q0 -30 -7.5 -69t-5.5 -67
q11 7 24 7q18 0 26 -12.5t8 -27.5q0 -42 -20.5 -91t-20.5 -110q0 -31 12 -50t32 -19q28 0 41 28t13 68q0 42 13 62t34 20q20 0 29 -21.5t9 -47.5q0 -57 -24 -101.5t-24 -82.5q0 -18 2.5 -49t2.5 -87q0 -73 -51 -101t-167 -28q-61 0 -121 -12.5t-96 -23.5
q-84 -26 -132.5 -32.5t-69.5 1.5t-21 24zM1331 757l-71 -3q-18 -45 -21.5 -78.5t-3.5 -62.5t10 -66t10 -59q0 -15 -1.5 -25.5t-3.5 -17.5l59 -30q6 13 9 30t3 32q0 31 -10 65t-10 71q0 26 5 59t25 85zM1052 370q0 -89 44.5 -183.5t119 -172.5t162.5 -116q-4 16 -9 39t-5 55
q0 55 23 104t53 96t53 97.5t23 109.5q0 86 -66 143t-161 57q-103 0 -170 -63.5t-67 -165.5zM1118 370q0 75 47.5 119t123.5 44q68 0 114.5 -37.5t46.5 -96.5q0 -46 -20.5 -87.5t-48 -84t-50 -92.5t-26.5 -113q-51 41 -93.5 100t-68 124t-25.5 124z" />
</svg>