<?xml version="1.0" standalone="no"?>
<!DOCTYPE svg PUBLIC "-//W3C//DTD SVG 1.1//EN" "http://www.w3.org/Graphics/SVG/1.1/DTD/svg11.dtd">
<svg xmlns="http://www.w3.org/2000/svg" xmlns:xlink="http://www.w3.org/1999/xlink" version="1.1"
   viewBox="94 -151 2414 2169">
   <path fill="currentColor"
      d="M1878 1978q-130 0 -234.5 -80.5t-140.5 -210.5l-60 -218l-188 53l-18 -74l24 15q-70 141 -189 214.5t-255 73.5q-119 0 -218.5 -51.5t-167 -138.5t-92 -196.5t6.5 -225.5l208 -785l190 52l59 -217q36 -131 139.5 -211t233.5 -80q124 0 223.5 69.5t142.5 179.5l-34 -22
q111 -2 209.5 42.5t170 126t100.5 191.5l268 1000q26 94 6 182.5t-74 158.5t-134 111t-176 41zM819 1478q71 0 129 -44t76 -114l36 -139q-69 43 -150 43q-82 0 -152 -42t-109 -115l-38 141q-18 68 6.5 130t78.5 101t123 39zM818 1671q134 0 240 -83.5t151 -218.5l3 -9
l-58 -218l-53 198q-26 97 -105.5 158t-176.5 61q-94 0 -168 -54.5t-108 -139.5t-9 -177l188 -705l-111 -30l-188 706q-26 98 -6 190t76.5 164.5t140.5 115t184 42.5zM1312 1422l110 -30l-188 -705q-10 -40 -8.5 -84.5t11.5 -81.5l54 -202q4 -14 4 -32t-13 -43l30 14
q-79 48 -129.5 122t-66.5 161.5t7 174.5zM1873 1711q39 0 69 -23.5t44.5 -59t4.5 -72.5l-59 -218l-174 48l-118 -430q-4 -13 -11.5 -21.5t-18.5 -8.5q-18 0 -24.5 14t-2.5 28l171 651q11 43 42 67.5t77 24.5zM910 956q11 0 19 -8.5t11 -20.5l101 -365l-8 102
q-2 -14 -2.5 -27t-0.5 -26q0 -132 67.5 -247t182.5 -179l-7 39q-13 -29 -41.5 -44.5t-63.5 -15.5q-46 0 -74 26t-40 73l-171 652q-4 15 3 28t24 13zM911 1144q60 0 117.5 -34t76.5 -100l7 -25l-56 -212l-48 175q-10 37 -37.5 59t-62.5 22q-52 0 -80 -41.5t-14 -94.5
l174 -655q18 -68 71.5 -107.5t118.5 -39.5q66 0 114.5 37.5t70 94.5t5.5 117l-58 220q-6 24 -6 53t7 55l44 162l-22 10q13 -27 26.5 -48.5t38.5 -51.5l-35 56l115 -426q27 -100 -8 -189.5t-113 -146t-181 -56.5t-185.5 63.5t-110.5 167.5l-182 676q-18 66 9 125t82.5 96.5
t121.5 37.5zM1876 1898q104 0 182 -57.5t112.5 -147.5t8.5 -188l-268 -1000q-34 -125 -130.5 -206t-220.5 -93q9 42 9 83v15.5t-2 18.5q83 14 147 71t86 143l267 998q17 62 -6.5 119t-73.5 93.5t-114 36.5t-116 -40t-70 -107l-174 -655q-14 -54 14 -94.5t80 -40.5
q35 0 62 21.5t37 59.5l98 361l107 -29l-104 -389q-19 -72 -77.5 -105t-120.5 -33q-69 0 -123 39t-79 99.5t-8 126.5l180 669q28 103 111 167t186 64zM1465 727l-11 -27q27 -20 72 -33.5t85 -13.5q82 0 150 45l-37 -141q-16 -62 -63 -103.5t-108 -51.5z" />
</svg>