<?xml version="1.0" standalone="no"?>
<!DOCTYPE svg PUBLIC "-//W3C//DTD SVG 1.1//EN" "http://www.w3.org/Graphics/SVG/1.1/DTD/svg11.dtd">
<svg xmlns="http://www.w3.org/2000/svg" xmlns:xlink="http://www.w3.org/1999/xlink" version="1.1"
   viewBox="94 -151 2414 2169">
   <path fill="currentColor"
      d="M1051 638l1027 1237q18 23 47 23q22 0 42 -17l112 -96q22 -19 22 -47q0 -25 -15 -40l-1109 -1169zM951 642l239 -215l1154 1215q37 40 37 96q0 61 -51 107l-111 98q-40 35 -94 35q-68 0 -109 -51zM548 1052q-25 0 -52 -11t-58 -30q-51 -32 -104.5 -93t-89.5 -135
q-12 -25 -18.5 -46.5t-6.5 -41.5q0 -24 9 -44.5t31 -38.5l115 -93q49 -40 88 -40q17 0 34.5 5.5t39.5 17.5l21 12q13 7 23 7t22 -12l11 -11q17 -17 17 -31q0 -7 -2 -16.5t-6 -22.5l-5 -20q-6 -26 -6 -38q0 -41 24 -78.5t69 -75.5l172 -146q81 -69 151.5 -106t157 -51.5
t212.5 -14.5q77 0 111 23t34 76q0 44 -37.5 65.5t-126.5 46.5q-52 14 -98 34t-74.5 40t-28.5 36q0 20 28 41q32 24 50.5 53t18.5 63q0 71 -65 128l-201 174q-25 21 -45.5 32t-43.5 11q-16 0 -43 -9l-29 -10q-36 -13 -45 -13q-11 0 -26 12l-15 13q-11 10 -11 23q0 4 1.5 9
t3.5 10l9 22q19 46 15.5 82.5t-40.5 66.5l-114 93q-39 32 -77 32zM542 972q14 0 29 -12l103 -82q23 -18 19.5 -42.5t-18.5 -63.5l-8 -21q-8 -22 -1 -41.5t24 -34.5l37 -32q18 -15 35.5 -22t38.5 -7q14 0 30 4t36 10l29 9q11 3 19 3q15 0 41 -22l203 -174q35 -31 35 -68
q0 -26 -33 -48q-64 -43 -64 -115q0 -57 72 -99.5t189 -74.5q66 -18 85 -27t19 -22q0 -11 -12.5 -15t-52.5 -4q-116 0 -193 13.5t-140 48.5t-137 98l-172 147q-30 26 -47 47t-17 50q0 5 1 11.5t2 11.5l5 20q5 21 7.5 36.5t2.5 27.5q0 32 -32 61l-38 35q-24 22 -46.5 28.5
t-45.5 -7.5l-21 -13q-20 -13 -33 -17.5t-27 -4.5q-20 0 -38 15l-115 93q-13 12 -13 29q0 18 14 43q39 69 82.5 121t83.5 78q20 13 35 21t27 8z" />
</svg>