<?xml version="1.0" standalone="no"?>
<!DOCTYPE svg PUBLIC "-//W3C//DTD SVG 1.1//EN" "http://www.w3.org/Graphics/SVG/1.1/DTD/svg11.dtd">
<svg xmlns="http://www.w3.org/2000/svg" xmlns:xlink="http://www.w3.org/1999/xlink" version="1.1"
   viewBox="94 -151 2414 2169">
   <path fill="currentColor"
      d="M1349 1978l-979 -419v-447l822 -344v87l-707 295l866 376l768 -385l-706 -293v-87l817 339v446zM830 1191q-50 0 -79 -14.5t-29 -39.5q0 -26 29 -40t79 -14t79 14t29 40q0 25 -29 39.5t-79 14.5zM1300 1268q-131 0 -201 -37t-70 -92q0 -69 40 -116.5t107 -56.5
q49 46 124 46t124 -46q67 9 106.5 56.5t39.5 116.5q0 55 -69.5 92t-200.5 37zM1147 1074v-427h80v427h-80zM1367 1074v-424h80v424h-80zM1152 334q-16 -1 -26.5 -16.5t-5.5 -36.5q11 -48 42.5 -93.5t68.5 -68.5q23 -14 41 -8.5t25 21.5q5 13 3 26t-14 21q-33 21 -58 55
t-32 66q-4 19 -17 27t-27 7zM1297 713q-113 0 -206.5 -55t-148.5 -147.5t-55 -205.5t55 -205t148.5 -147t206.5 -55t205.5 55t147.5 147t55 205t-55 205.5t-147.5 147.5t-205.5 55zM1297 633q91 0 165 -44.5t118.5 -119t44.5 -164.5q0 -91 -44.5 -165t-118.5 -118t-165 -44
t-166 44t-119.5 118t-44.5 165t44.5 165.5t119.5 118.5t166 44z" />
</svg>