<?xml version="1.0" standalone="no"?>
<!DOCTYPE svg PUBLIC "-//W3C//DTD SVG 1.1//EN" "http://www.w3.org/Graphics/SVG/1.1/DTD/svg11.dtd">
<svg xmlns="http://www.w3.org/2000/svg" xmlns:xlink="http://www.w3.org/1999/xlink" version="1.1"
   viewBox="94 -151 2414 2169">
   <path fill="currentColor"
      d="M265 1562v-522q0 -21 4.5 -44t11.5 -46l125 -421q21 -71 71 -112t113 -41h78l57 -187q14 -47 24.5 -70.5t24 -33.5t34.5 -13q-5 -50 -12.5 -95t-16.5 -79h935q8 34 14.5 76.5t12.5 95.5h25q32 0 50 8t30.5 33t28.5 78l57 187h78q63 0 113 41t71 112l125 421q7 23 11.5 46
t4.5 44v522q0 78 -55.5 133.5t-133.5 55.5h-71l69 227h-1688l69 -227h-71q-78 0 -133.5 -55.5t-55.5 -133.5zM345 1562q0 45 32 77t77 32h95l92 -304h1318l92 304h95q45 0 77 -32t32 -77v-485q0 -32 -21.5 -53.5t-53.5 -21.5h-233v91q0 65 -46 111t-111 46h-344
q-6 19 -22 32t-38 13h-172q-22 0 -38 -13t-22 -32h-344q-65 0 -111 -46t-46 -111v-91h-233q-31 0 -53 21.5t-22 53.5v485zM370 930q13 -5 23.5 -6.5t26.5 -1.5h244l135 -466h-209q-36 0 -65 25.5t-43 71.5zM564 1898h1472l-137 -451h-1198zM733 1093q0 32 22.5 54.5
t54.5 22.5h344q5 -20 21.5 -33.5t38.5 -13.5h172q23 0 39.5 13.5t20.5 33.5h344q32 0 54.5 -22.5t22.5 -54.5v-91h-1134v91zM747 922h1106l-135 -466h-836zM878 -22q14 84 22 181.5t8 216.5h772q0 -125 -9 -224t-22 -174h-771zM1801 456l135 466h244q17 0 27 1.5t23 6.5
l-112 -377q-13 -46 -42.5 -71.5t-65.5 -25.5h-209zM2066 1253q-22 0 -36.5 -14.5t-14.5 -36.5t14.5 -37t36.5 -15t37 15t15 37t-15 36.5t-37 14.5zM810 1771l13 -51h954l13 51h-980zM842 1609l13 -51h890l13 51h-916z" />
</svg>