<?xml version="1.0" standalone="no"?>
<!DOCTYPE svg PUBLIC "-//W3C//DTD SVG 1.1//EN" "http://www.w3.org/Graphics/SVG/1.1/DTD/svg11.dtd">
<svg xmlns="http://www.w3.org/2000/svg" xmlns:xlink="http://www.w3.org/1999/xlink" version="1.1"
   viewBox="94 -151 2414 2169">
   <path fill="currentColor"
      d="M1256 1502q-117 0 -213 -50.5t-152.5 -136t-56.5 -190.5q0 -89 44 -168t120 -132q-101 -157 -101 -356q0 -160 64 -289t172.5 -205.5t242.5 -76.5q133 0 240.5 76.5t171.5 205.5t64 289q0 149 -58 279t-161 210q45 78 45 167q0 104 -56.5 190t-152 136.5t-213.5 50.5z
M684 1871l-74 -31q56 -134 92 -276.5t59 -318.5l121 -32l21 78l-70 18q-23 162 -59.5 298t-89.5 264zM199 1542l-49 -62l117 -89l290 -438l344 107l-26 76l-283 -90l-266 401zM134 1073l-44 -67l154 -101l282 -281l455 237l-37 71l-403 -210l-246 245zM1720 1978
q-39 -104 -65 -187.5t-42.5 -165.5t-29.5 -180l-125 -60l34 -72l164 78q15 108 31 194t41.5 171t65.5 191zM998 1061q22 0 38 -19.5t16 -45.5q0 -23 -11.5 -37.5t-30.5 -14.5q-22 0 -38 19.5t-16 45.5q0 22 11.5 37t30.5 15zM1144 1172q30 0 51 -27t21 -65q0 -32 -17 -54.5
t-43 -22.5q-30 0 -51 26.5t-21 64.5q0 31 18 54.5t42 23.5zM1004 797l-306 -428l-219 131l-41 -69l282 -168l349 487zM1356 1187q28 0 47 -25t19 -60t-19 -59.5t-47 -24.5t-47 24.5t-19 59.5t19 60t47 25zM1530 1120q21 0 35 -18t14 -43q0 -27 -16.5 -47.5t-38.5 -20.5
q-21 0 -35 17.5t-14 42.5q0 28 16.5 48.5t38.5 20.5zM2224 1825l-134 -113l-305 -535l-129 16l-27 -76l199 -26l321 563l129 112zM1145 602q29 -6 24 -38l-10 -61q-2 -13 -12 -21t-22 -6q-29 4 -24 36l9 63q2 13 12 21.5t23 5.5zM1342 598q30 2 33 -30l7 -61q2 -14 -6 -24
t-22 -11q-29 -2 -32 27l-8 62q-5 35 28 37zM2455 1338l-138 -71l-368 -351l-319 113l-26 -76l365 -129l394 377l127 65zM1534 653q28 15 42 -15l33 -72q13 -27 -14 -40q-26 -12 -39 15l-36 70q-14 27 14 42zM1239 317q29 0 29 -34l-1 -54q0 -14 -8.5 -22.5t-20.5 -7.5
q-30 2 -30 31v54q0 33 31 33zM1497 350q31 7 38 -24l17 -74q7 -31 -22 -37q-27 -6 -35 23l-19 73q-4 13 2.5 24.5t18.5 14.5zM2367 930l-422 -279l-261 217l-46 -66l302 -251l454 301h116v78h-143z" />
</svg>