<?xml version="1.0" standalone="no"?>
<!DOCTYPE svg PUBLIC "-//W3C//DTD SVG 1.1//EN" "http://www.w3.org/Graphics/SVG/1.1/DTD/svg11.dtd">
<svg xmlns="http://www.w3.org/2000/svg" xmlns:xlink="http://www.w3.org/1999/xlink" version="1.1"
   viewBox="94 -151 2414 2169">
   <path fill="currentColor"
      d="M1300 1578q-174 0 -326 -65.5t-267.5 -181t-181 -267.5t-65.5 -326t65.5 -326.5t181 -268t267.5 -180.5t326 -65t326.5 65t268 180.5t180.5 268t65 326.5t-65 326t-180.5 267.5t-268 181t-326.5 65.5zM1300 1978q-120 0 -236.5 -32.5t-205 -87t-124.5 -119.5l116 -390
l72 37l-101 340q46 51 122 90t169 61.5t188 22.5q96 0 188.5 -22.5t169 -61.5t121.5 -90l-101 -340l73 -36l116 390q-36 65 -124.5 119t-205.5 86.5t-237 32.5zM1290 1368h10q13 -88 34.5 -136.5t65 -73.5t120.5 -40v-10q-77 -15 -120.5 -40t-65 -74t-34.5 -136h-10
q-12 87 -34 136t-65 74t-121 40v10q78 15 121 40t65 73.5t34 136.5zM731 735q17 0 29 -11t13 -32q6 -88 41.5 -171.5t90.5 -143.5q14 -16 17 -33.5t-9 -30.5q-11 -12 -29.5 -11.5t-32.5 16.5q-65 72 -111.5 168t-46.5 200q0 23 10.5 36t27.5 13zM1099 239q24 -11 50.5 -18
t54.5 -11q20 -3 32.5 -15t12.5 -29t-14 -28t-38 -8q-75 9 -133 37q-21 10 -28 27.5t2 32.5t25.5 18t35.5 -6zM1591 960h10q15 -110 34.5 -179.5t53.5 -111t92 -66t150 -43.5v-10q-92 -19 -150 -43.5t-92 -66t-53.5 -111t-34.5 -179.5h-10q-15 110 -34 179.5t-53.5 111
t-92.5 66t-150 43.5v10q92 19 150 43.5t92.5 66t53.5 111t34 179.5z" />
</svg>