<?xml version="1.0" standalone="no"?>
<!DOCTYPE svg PUBLIC "-//W3C//DTD SVG 1.1//EN" "http://www.w3.org/Graphics/SVG/1.1/DTD/svg11.dtd">
<svg xmlns="http://www.w3.org/2000/svg" xmlns:xlink="http://www.w3.org/1999/xlink" version="1.1"
   viewBox="94 -151 2414 2169">
   <path fill="currentColor"
      d="M2075 1978q-75 0 -124.5 -20.5t-86 -55t-73.5 -76.5l-855 -978q-84 28 -178 28q-135 0 -242 -63t-169 -171t-62 -242q0 -61 15 -124l341 197q66 -29 105 -88.5t39 -129.5v-15t-2 -14l-323 -179q32 -77 117.5 -113t197.5 -36q136 0 246.5 66.5t176.5 177.5t66 247
q0 110 -46 205l969 892q69 63 98.5 119.5t29.5 123.5t-33 123.5t-87.5 91t-119.5 34.5zM2075 1898q64 0 112 -51t48 -118q0 -50 -23 -90.5t-79 -92.5l-1017 -937q68 -97 68 -220q0 -115 -56 -208t-153 -148t-220 -55q-37 0 -86 12t-75 38l260 147q11 39 11 80q0 106 -64 191
t-168 114l-267 -153q1 110 52.5 198.5t140 139.5t199.5 51q57 0 103 -10t98 -33l892 1021q37 42 66 69.5t65 41t93 13.5zM2028 1780q33 0 56.5 -23.5t23.5 -56.5t-23.5 -56.5t-56.5 -23.5t-56.5 23.5t-23.5 56.5t23.5 56.5t56.5 23.5z" />
</svg>