<?xml version="1.0" standalone="no"?>
<!DOCTYPE svg PUBLIC "-//W3C//DTD SVG 1.1//EN" "http://www.w3.org/Graphics/SVG/1.1/DTD/svg11.dtd">
<svg xmlns="http://www.w3.org/2000/svg" xmlns:xlink="http://www.w3.org/1999/xlink" version="1.1"
   viewBox="94 -151 2414 2169">
   <path fill="currentColor"
      d="M1702 1978q-295 -123 -533 -286.5t-419.5 -345.5t-307.5 -363t-198 -340l751 -602q56 112 157 238.5t236 256.5t292 254t325.5 232.5t336.5 191.5l-640 190v574zM1622 1856v-512l511 -150q-180 -104 -355 -230t-330 -263t-277.5 -274.5t-198.5 -263.5l-629 502
q89 177 219.5 348t296 326t358.5 286.5t405 230.5zM511 506q-76 -25 -142.5 -70t-111.5 -109l-17 -24q-6 -8 -4.5 -21t11.5 -20l36 -26q11 -8 22.5 -6t18.5 11l18 26q47 68 113.5 104.5t154.5 47.5zM1309 1271l-58 -103l-117 -10l80 -87l-26 -115l107 48l101 -60l-14 118
l89 77l-115 23zM830 749q-59 0 -101 -42t-42 -101q0 -58 42.5 -99t100.5 -41q57 0 98.5 41.5t41.5 98.5q0 58 -41 100.5t-99 42.5zM830 678q28 0 48.5 -21.5t20.5 -50.5q0 -28 -20.5 -48.5t-48.5 -20.5q-29 0 -50.5 20.5t-21.5 48.5q0 29 21.5 50.5t50.5 21.5zM749 610
q-13 0 -24 -13t-21 -35q-28 -65 -65 -101t-91 -44q3 -46 29 -76t90 -54q74 38 119 99t45 118q0 36 -27.5 71t-54.5 35zM613 360q-40 -106 -112 -200t-165 -156l-24 -16q-10 -6 -12 -19t6 -24l25 -34q18 -25 42 -8l23 16q105 73 186.5 178.5t127.5 224.5z" />
</svg>