<?xml version="1.0" standalone="no"?>
<!DOCTYPE svg PUBLIC "-//W3C//DTD SVG 1.1//EN" "http://www.w3.org/Graphics/SVG/1.1/DTD/svg11.dtd">
<svg xmlns="http://www.w3.org/2000/svg" xmlns:xlink="http://www.w3.org/1999/xlink" version="1.1"
   viewBox="94 -151 2414 2169">
   <path fill="currentColor"
      d="M1300 1978q-129 0 -267.5 -54t-268 -157t-233 -250t-164.5 -333.5t-61 -406.5q0 -142 61 -277.5t163 -244t227.5 -172.5t253.5 -63l-22 72q-82 -3 -167 36.5t-163 109t-139.5 159t-97.5 187.5t-36 193q0 209 55.5 384t150 311.5t213 231.5t246.5 144.5t249 49.5
t249 -49.5t246.5 -144.5t213 -231.5t150 -311.5t55.5 -384q0 -95 -36 -193t-97.5 -187.5t-139.5 -159t-163 -109t-167 -36.5l-22 -72q128 -1 253.5 63t227.5 172.5t163 244t61 277.5q0 220 -61 406.5t-164.5 333.5t-233 250t-268 157t-267.5 54zM752 1430q-21 0 -36 -17
q-110 -124 -179.5 -279.5t-69.5 -319.5q0 -67 16 -129.5t45 -103.5t68 -41q20 0 34 14t21 49q9 45 39 125t95 180.5t178 207.5q15 13 15 35q0 16 -10 29l-178 231q-14 19 -38 19zM1300 857q-179 0 -319.5 -59.5t-221 -161.5t-80.5 -229q0 -86 41.5 -159t111 -122t152.5 -63
l11 42q-60 11 -114 57.5t-88 111.5t-34 133q0 103 69.5 187t192 133.5t279.5 49.5q158 0 280 -49.5t191.5 -133.5t69.5 -187q0 -68 -34 -133t-88 -111.5t-114 -57.5l11 -42q83 14 152.5 63t111 122t41.5 159q0 127 -80.5 229t-220.5 161.5t-320 59.5zM1848 1430
q-24 0 -38 -19l-178 -231q-10 -13 -10 -29q0 -22 15 -35q113 -107 178 -207.5t95.5 -180.5t38.5 -125q7 -35 21 -49t34 -14q39 0 68 41t45 103.5t16 129.5q0 164 -69.5 319.5t-179.5 279.5q-15 17 -36 17zM1300 657q-114 0 -207 -32t-151 -89t-70 -130q0 -144 51.5 -259
t147.5 -182t229 -67q134 0 229.5 67t147 182t51.5 259q-11 73 -69.5 130t-151 89t-207.5 32zM1021 296q37 0 46 -44q7 -35 22 -66.5t39 -57.5q17 -20 17 -35q0 -16 -14 -29t-30 -13q-18 0 -36 18q-69 76 -85 182q-6 45 41 45zM1221 63q8 0 12 -1l38 -8q17 -4 24.5 -14.5
t7.5 -23.5q0 -21 -10.5 -34.5t-30.5 -13.5q-7 0 -11 1l-38 8q-17 4 -24.5 14t-7.5 23q0 22 10.5 35.5t29.5 13.5z" />
</svg>