<?xml version="1.0" standalone="no"?>
<!DOCTYPE svg PUBLIC "-//W3C//DTD SVG 1.1//EN" "http://www.w3.org/Graphics/SVG/1.1/DTD/svg11.dtd">
<svg xmlns="http://www.w3.org/2000/svg" xmlns:xlink="http://www.w3.org/1999/xlink" version="1.1"
   viewBox="94 -151 2414 2169">
   <path fill="currentColor"
      d="M1935 839q-93 0 -155.5 -64t-62.5 -158q0 -17 -11.5 -29.5t-28.5 -15.5q-79 -14 -130 -73.5t-51 -138.5q0 -63 31 -115t83 -83t114 -31q92 0 155.5 63.5t63.5 155.5q0 17 12 30t30 17q79 16 129 75.5t50 136.5q0 63 -31 115.5t-83 83.5t-115 31zM1935 759q62 0 105.5 -44
t43.5 -106q0 -49 -32 -87t-83 -47q-46 -8 -76 -43.5t-30 -81.5q0 -59 -40 -99t-99 -40q-61 0 -104.5 44t-43.5 105q0 50 32.5 88t82.5 46q46 7 76 42t30 81q0 61 39 101.5t99 40.5zM1671 861q109 131 279 131q100 0 182 -49.5t131.5 -132.5t49.5 -183q0 -133 -85 -233
l-239 -286q-52 -63 -124.5 -96.5t-155.5 -33.5q-100 0 -182.5 49t-131.5 131.5t-49 183.5q0 132 85 232zM1610 913l-240 -286q-104 -124 -104 -285q0 -123 59.5 -223.5t160.5 -160.5t223 -60q100 0 189 41t152 116l239 286q104 126 104 286q0 122 -60 223.5t-160.5 161.5
t-222.5 60q-100 0 -188 -41.5t-152 -117.5zM1434 706l-122 101l-99 -53l-73 58l38 107l-859 720l105 128l862 -723l97 56l70 -60l-35 -106l122 -103zM1445 594l208 247l-143 120l34 105l-151 132l-99 -56l-880 738l-207 -251l877 -736l-38 -108l159 -127l97 53zM684 1651
l180 214l126 -110l-108 -129l111 -95l110 130l126 -107l-179 -213zM574 1645l489 -412l278 330l-247 211l-110 -130l10 -9l108 130l-248 213z" />
</svg>