<?xml version="1.0" standalone="no"?>
<!DOCTYPE svg PUBLIC "-//W3C//DTD SVG 1.1//EN" "http://www.w3.org/Graphics/SVG/1.1/DTD/svg11.dtd">
<svg xmlns="http://www.w3.org/2000/svg" xmlns:xlink="http://www.w3.org/1999/xlink" version="1.1"
   viewBox="94 -151 2414 2169">
   <path fill="currentColor"
      d="M155 1852q0 -171 10 -299.5t46 -223t114 -162.5q26 -23 51.5 -51.5t46.5 -74t33.5 -120t12.5 -188.5q0 -173 64.5 -324t178.5 -266t265 -180t324 -65t323.5 65t264 180t178 266t64.5 324q0 114 12.5 188.5t33.5 120t46.5 74t51.5 51.5q78 68 114 162.5t46 223t10 299.5
h-2290zM338 1978q-16 0 -27 -11t-11 -27v-109h411v109q0 16 -10 27t-27 11h-336zM196 1607v-80h2208v80h-2208zM1066 1195l-44 -26l61 -105l44 26zM870 1017l-24 -44l106 -60l24 44zM1274 1251v-122h52v122h-52zM806 767v-50h122v50h-122zM1926 1978q-16 0 -26.5 -11
t-10.5 -27v-109h411v109q0 16 -10.5 27t-27.5 11h-336zM1534 1195l-61 -105l44 -26l61 105zM965 579l-105 -61l26 -44l105 61zM236 1772h2128q0 -129 -11 -231t-42 -180.5t-92 -134.5q-31 -29 -73.5 -82.5t-69.5 -141.5h31q-24 89 -69.5 164.5t-106.5 129.5t-133 79l-26 -76
q116 -40 197.5 -175t81.5 -391q0 -156 -58 -292.5t-161 -240.5t-239 -163t-292 -59q-157 0 -293.5 59t-239.5 163t-161 240.5t-58 292.5q0 256 82 391t197 175l-26 76q-72 -25 -133 -79t-106.5 -129.5t-69.5 -164.5h31q-27 88 -69.5 141.5t-73.5 82.5q-61 56 -92 134.5
t-42 180.5t-11 231zM1257 763l-170 -106l37 -58l170 106zM1300 1379q-132 0 -247 -49.5t-202.5 -137t-137 -202.5t-49.5 -247t49.5 -247t137 -202.5t202.5 -137t247 -49.5t247 49.5t202.5 137t137 202.5t49.5 247t-49.5 247t-137 202.5t-202.5 137t-247 49.5zM1300 1299
q115 0 216 -43t177.5 -119.5t119.5 -177.5t43 -216t-43 -216t-119.5 -177.5t-177.5 -119.5t-216 -43t-216 43t-177.5 119.5t-119.5 177.5t-43 216t43 216t119.5 177.5t177.5 119.5t216 43zM1300 813q-29 0 -49.5 -20.5t-20.5 -49.5t20.5 -49.5t49.5 -20.5t49.5 20.5
t20.5 49.5t-20.5 49.5t-49.5 20.5zM1092 434l-61 -105l44 -26l61 105zM1730 1017l-106 -60l24 -44l106 60zM1342 752l-22 -38l250 -150l22 38zM1672 767v-50h122v50h-122zM1274 357v-122h52v122h-52zM1635 579l-26 -44l105 -61l26 44zM1508 434l-44 -26l61 -105l44 26z" />
</svg>