<?xml version="1.0" standalone="no"?>
<!DOCTYPE svg PUBLIC "-//W3C//DTD SVG 1.1//EN" "http://www.w3.org/Graphics/SVG/1.1/DTD/svg11.dtd">
<svg xmlns="http://www.w3.org/2000/svg" xmlns:xlink="http://www.w3.org/1999/xlink" version="1.1"
   viewBox="94 -151 2414 2169">
   <path fill="currentColor"
      d="M383 1978v-275h563q59 0 95.5 -24.5t61 -59.5t47.5 -66q27 -38 58.5 -76.5t74.5 -68.5q99 -69 210 -69q8 0 15 0.5t14 1.5l-25 16q44 -74 67 -141t23 -127q0 -141 -143 -249l97 -13q59 56 89.5 123.5t30.5 138.5q0 144 -119 331q-55 -15 -110.5 -2.5t-109.5 50.5
q-45 32 -77.5 83.5t-67 103t-84.5 87t-129 35.5h-507v127h1686v-127h-146l-133 -126q25 -67 43 -132t27.5 -146t9.5 -194q0 -331 -274 -532l-49 -121q397 231 397 653q0 163 -21 269.5t-53 195.5l-2 -20l85 79h190v275h-1834zM677 1728q-18 -30 -25 -53t-7 -46
q0 -24 5.5 -47t14.5 -45l93 38q1 48 25 82.5t71 62.5zM882 1627q-59 0 -169 -40q-76 -27 -126.5 -61.5t-39.5 -57.5l20 -45q6 -14 33 -14q32 0 87.5 16t112.5 40t96 49.5t39 44.5q0 7 -2 12l-15 34q-9 22 -36 22zM1173 1566l-579 -332l59 -100l481 278l-24 41l97 58z
M1477 1818q-61 0 -103.5 -42.5t-42.5 -103.5t42.5 -103.5t103.5 -42.5t103.5 42.5t42.5 103.5t-42.5 103.5t-103.5 42.5zM1477 1745q32 0 52.5 -21t20.5 -52q0 -32 -20.5 -52.5t-52.5 -20.5q-31 0 -52 20.5t-21 52.5q0 31 21 52t52 21zM970 1208q-28 3 -53 -15t-36 -42
l83 -158l128 84zM776 979q-23 -16 -30 -45.5t0 -54.5l191 -76q41 19 50 65.5t-19 76.5zM1200 1237l-83 -189q13 -28 39.5 -41.5t55 -11t47.5 21.5l43 188q-17 25 -49 34.5t-53 -2.5zM1158 1054q43 0 77 -15t53 -45q-8 -60 -64 -112.5t-132 -84.5t-144 -31q-29 26 -29 74
q0 55 34 104t89 79.5t116 30.5zM1158 1128q-82 0 -153.5 -40.5t-115.5 -106.5t-44 -141q0 -50 23 -91q11 -19 27.5 -36.5t34.5 -27.5q88 -3 180.5 32.5t163.5 101t92 152.5q5 8 0.5 25.5t-12.5 32.5q-26 45 -79 72t-117 27zM1354 1029l-26 -99l91 -147l64 37zM1527 865
q-76 0 -129.5 -53.5t-53.5 -129.5t53.5 -129.5t129.5 -53.5t129.5 53t53.5 130q0 76 -53 129.5t-130 53.5zM1527 789q46 0 76.5 -30.5t30.5 -76.5t-30.5 -76.5t-76.5 -30.5t-76.5 30.5t-30.5 76.5t30.5 76.5t76.5 30.5zM868 749l297 -515q34 -58 83 -71t110.5 6.5
t131.5 59.5q62 35 112 77t66.5 93t-20.5 113l-36 60l-64 -37l40 -67q15 -24 -3 -56t-54 -64t-77 -55q-45 -25 -91.5 -40.5t-82 -14.5t-49.5 25l-260 454zM1391 226l-66 -31l140 -255l67 32zM1616 348l-66 -31l145 -257l67 32zM1704 144l9 -14q6 -6 -10 -27t-42 -44.5
t-50 -36.5q-34 -19 -70 -30t-62 -10l-23 22q-16 -2 -27.5 -17.5t-11.5 -34.5q0 -23 21 -38.5t51 -15.5q45 0 97 17.5t98.5 47.5t76 67t29.5 76q0 22 -16 37t-39 15q-9 0 -19 -3.5t-12 -10.5z" />
</svg>