<?xml version="1.0" standalone="no"?>
<!DOCTYPE svg PUBLIC "-//W3C//DTD SVG 1.1//EN" "http://www.w3.org/Graphics/SVG/1.1/DTD/svg11.dtd">
<svg xmlns="http://www.w3.org/2000/svg" xmlns:xlink="http://www.w3.org/1999/xlink" version="1.1"
   viewBox="94 -151 2414 2169">
   <path fill="currentColor"
      d="M750 1358q-124 0 -220 -17.5t-159 -71.5t-88 -162l-38 -165q-10 -47 -23.5 -66.5t-38.5 -33.5l-53 -30v-210q36 -18 107.5 -33.5t159 -26.5t173.5 -17.5t149 -6.5q140 0 245 23t212 79q29 -2 67 -3t57 -1q20 0 57.5 1t66.5 3q107 -56 212.5 -79t244.5 -23q63 0 149 6.5
t173.5 17.5t159 26.5t107.5 33.5v210l-53 30q-25 14 -38 33.5t-24 66.5l-38 165q-25 108 -88 162t-159 71.5t-220 17.5q-114 0 -197.5 -19t-140.5 -71.5t-91 -150.5l-52 -151q-13 -38 -28.5 -53t-40.5 -15t-40.5 15t-28.5 53l-52 151q-34 98 -91 150.5t-140.5 71.5
t-197.5 19zM564 878l31 -15.5t30 -15.5q17 -9 24 -22.5t2 -28.5q-6 -17 -24 -23t-35 1q-14 5 -34 16t-33 19q-21 13 -25 30t6 32q9 13 24 15t34 -8zM767 1203q-145 0 -223 -24t-108 -94t-30 -209q0 -83 27.5 -125.5t98 -57.5t200.5 -15q129 0 202 18t103.5 60t30.5 115
q0 69 -11.5 123t-33.5 97q-30 59 -89.5 85.5t-166.5 26.5zM750 1278q102 0 169.5 -12t111 -52.5t72.5 -123.5l56 -159q21 -59 54.5 -85.5t86.5 -26.5t86.5 26.5t54.5 85.5l56 159q30 83 73 123.5t110.5 52.5t169.5 12q117 0 197 -14t127.5 -55t65.5 -121l37 -166
q9 -41 22 -68t34.5 -47.5t56.5 -39.5v-111q-38 -13 -103.5 -23.5t-141 -18.5t-146 -12t-118.5 -4q-87 0 -158.5 9.5t-141 31.5t-152.5 62q-34 -2 -66.5 -3.5t-62.5 -1.5t-62 1.5t-67 3.5q-83 -40 -152.5 -62t-140.5 -31.5t-159 -9.5q-48 0 -118.5 4t-146 12t-141 18.5
t-103.5 23.5v111q35 19 56.5 39.5t34.5 47.5t22 68l37 166q18 80 65.5 121t127.5 55t197 14zM1691 878l31 -15.5t30 -15.5q17 -9 24 -22.5t2 -28.5q-6 -17 -24 -23t-35 1q-14 5 -34 16t-33 19q-21 13 -25 30t6 32q9 13 24 15t34 -8zM1833 1203q-107 0 -166.5 -26.5
t-89.5 -85.5q-22 -43 -33.5 -97t-11.5 -123q0 -73 30.5 -115t104 -60t201.5 -18q130 0 200.5 15t98 57.5t27.5 125.5q0 139 -30 209t-108 94t-223 24z" />
</svg>