<?xml version="1.0" standalone="no"?>
<!DOCTYPE svg PUBLIC "-//W3C//DTD SVG 1.1//EN" "http://www.w3.org/Graphics/SVG/1.1/DTD/svg11.dtd">
<svg xmlns="http://www.w3.org/2000/svg" xmlns:xlink="http://www.w3.org/1999/xlink" version="1.1"
   viewBox="94 -151 2414 2169">
   <path fill="currentColor"
      d="M1300 1978q-213 0 -401 -81.5t-332 -225t-225.5 -332t-81.5 -402.5q0 -213 81.5 -401t225.5 -331.5t332 -225t401 -81.5t401.5 81.5t332 225t225 331.5t81.5 401q0 214 -81.5 402.5t-225 332t-332 225t-401.5 81.5zM1300 1898q197 0 370.5 -75.5t306 -208t208 -306.5
t75.5 -371t-75.5 -370.5t-208 -306t-306 -207.5t-370.5 -75t-370.5 75t-306 207.5t-208 306t-75.5 370.5t75.5 371t208 306.5t306.5 208t370 75.5zM1300 1489q-114 0 -214 -42.5t-176 -118.5t-118.5 -176t-42.5 -215q0 -114 42.5 -213.5t118.5 -175.5t176 -118.5t214 -42.5
t214 42.5t176 118.5t118.5 175.5t42.5 213.5q0 115 -42.5 215t-118.5 176t-176 118.5t-214 42.5z" />
</svg>