<?xml version="1.0" standalone="no"?>
<!DOCTYPE svg PUBLIC "-//W3C//DTD SVG 1.1//EN" "http://www.w3.org/Graphics/SVG/1.1/DTD/svg11.dtd">
<svg xmlns="http://www.w3.org/2000/svg" xmlns:xlink="http://www.w3.org/1999/xlink" version="1.1"
   viewBox="94 -151 2414 2169">
   <path fill="currentColor"
      d="M1300 1978q-226 -267 -418 -385t-379 -118q-64 0 -127 12q65 -149 97.5 -283.5t32.5 -265.5t-32.5 -265.5t-97.5 -282.5q63 12 127 12q187 0 379 -118.5t418 -385.5q227 267 418.5 385.5t378.5 118.5q64 0 127 -12q-65 148 -97.5 282.5t-32.5 265.5t32.5 265.5
t97.5 283.5q-63 -12 -127 -12q-187 0 -378.5 118t-418.5 385zM1300 1475q-121 -105 -231.5 -173.5t-219.5 -104.5q21 -132 21 -262q0 -66 -5 -131t-16 -132q109 -35 219.5 -93.5t231.5 -163.5q122 105 232 163.5t219 93.5q-10 67 -15.5 132t-5.5 131q0 130 21 262
q-109 36 -219 104.5t-232 173.5zM1300 1373q192 -156 365 -227q-6 -53 -9 -106t-3 -105q0 -53 3 -105t9 -105q-98 -38 -188 -89t-177 -120q-87 69 -177 120t-188 89q6 53 9 105t3 105q0 52 -3 105t-9 106q173 71 365 227zM1300 1856q142 -158 274 -260t261.5 -151.5
t261.5 -49.5h2h2q-87 -239 -87 -457q0 -219 87 -456h-2h-2q-131 0 -260.5 -49.5t-262 -152t-274.5 -260.5q-142 158 -274.5 260.5t-261.5 152t-261 49.5h-2h-2q87 237 87 456q0 218 -87 457h2h2q132 0 261.5 49.5t262 151.5t273.5 260zM520 1436l-40 -69l1600 -926l40 69z
M2080 1436l-1600 -926l40 -69l1600 926zM1260 1865v-1853h80v1853h-80z" />
</svg>