<?xml version="1.0" standalone="no"?>
<!DOCTYPE svg PUBLIC "-//W3C//DTD SVG 1.1//EN" "http://www.w3.org/Graphics/SVG/1.1/DTD/svg11.dtd">
<svg xmlns="http://www.w3.org/2000/svg" xmlns:xlink="http://www.w3.org/1999/xlink" version="1.1"
   viewBox="94 -151 2414 2169">
   <path fill="currentColor"
      d="M1300 1978q-177 0 -323.5 -61t-253.5 -172.5t-165 -263.5t-58 -334q0 -139 36.5 -264t102.5 -220t155 -145q-7 37 -12 93t-5 96q0 88 25 143t80 100q0 -112 33.5 -192.5t82.5 -144t98 -123.5t82.5 -129.5t33.5 -163.5q0 -83 -28.5 -148.5t-87.5 -129.5q23 -11 50.5 -16
t59.5 -5q102 0 191 47.5t156.5 132t106 197t38.5 242.5q0 106 -18.5 175.5t-18.5 127.5q0 70 38 116t102 46q48 0 90.5 -27.5t62.5 -75.5q45 44 78 107t50.5 136t17.5 149q0 148 -61 276t-170 225t-254.5 151.5t-314.5 54.5zM1300 1870q119 0 214 -43t150.5 -121.5
t55.5 -182.5q0 -82 -31 -139t-76.5 -104.5t-91.5 -98.5t-77 -119.5t-31 -168.5q0 -52 9.5 -113t25.5 -117t37 -93q-128 58 -221.5 145t-144.5 186t-51 195q0 61 16.5 104.5t33 74.5t16.5 57q0 19 -12.5 33.5t-37.5 14.5q-40 0 -63.5 -43t-31.5 -122q-28 24 -53 70t-40.5 104
t-15.5 118q0 108 53 189.5t148 127.5t219 46z" />
</svg>