<?xml version="1.0" standalone="no"?>
<!DOCTYPE svg PUBLIC "-//W3C//DTD SVG 1.1//EN" "http://www.w3.org/Graphics/SVG/1.1/DTD/svg11.dtd">
<svg xmlns="http://www.w3.org/2000/svg" xmlns:xlink="http://www.w3.org/1999/xlink" version="1.1"
   viewBox="94 -151 2414 2169">
   <path fill="currentColor"
      d="M522 1778v-1680h1556v1680h-1556zM601 1699h1398v-721h-1398v721zM601 898h1398v-720h-1398v720zM1194 1282h212v-96h-212v96zM1127 1349v-230h346v230h-346zM1194 482h212v-96h-212v96zM1127 549v-230h346v230h-346zM283 1978v-2080h2034v2080h-2034zM2238 -22h-1876
v1921h1876v-1921zM1127 1450v-34h346v34q0 59 -38.5 97.5t-97.5 38.5h-74q-58 0 -97 -38.5t-39 -97.5zM1127 650v-34h346v34q0 59 -38.5 97.5t-97.5 38.5h-74q-58 0 -97 -38.5t-39 -97.5z" />
</svg>