<?xml version="1.0" standalone="no"?>
<!DOCTYPE svg PUBLIC "-//W3C//DTD SVG 1.1//EN" "http://www.w3.org/Graphics/SVG/1.1/DTD/svg11.dtd">
<svg xmlns="http://www.w3.org/2000/svg" xmlns:xlink="http://www.w3.org/1999/xlink" version="1.1"
   viewBox="94 -151 2414 2169">
   <path fill="currentColor"
      d="M1300 1978q69 0 121 -52l859 -866q50 -50 50 -122t-50 -122l-859 -866q-52 -52 -121 -52t-121 52l-859 866q-50 50 -50 122t50 122l859 866q52 52 121 52zM604 1276v-643h-80v606zM1528 1745l56 -56l-1038 -1038l-56 56zM946 1613v-1346l-80 41v1265zM1300 1898
q-37 0 -65 -28l-859 -866q-13 -14 -19.5 -30.5t-6.5 -35.5q0 -40 26 -66l859 -866q28 -28 65 -28t65 28l859 866q26 26 26 66q0 19 -6 35.5t-20 30.5l-859 866q-28 28 -65 28zM1785 1484l56 -56l-1038 -1038l-56 56zM1260 1928h80v-1976h-80v1976zM1653 1616l80 -47v-1275
l-80 -40v1362zM2054 1225l56 -56l-1038 -1038l-56 56zM1996 1259l80 -10v-624h-80v634z" />
</svg>