<?xml version="1.0" standalone="no"?>
<!DOCTYPE svg PUBLIC "-//W3C//DTD SVG 1.1//EN" "http://www.w3.org/Graphics/SVG/1.1/DTD/svg11.dtd">
<svg xmlns="http://www.w3.org/2000/svg" xmlns:xlink="http://www.w3.org/1999/xlink" version="1.1"
   viewBox="94 -151 2414 2169">
   <path fill="currentColor"
      d="M791 1218q-64 -17 -103 -104.5t-39 -240.5q51 -144 149 -248t227 -160t272 -56q110 0 216 33t190.5 88t133 122.5t43.5 137.5l-137 270l-71 -36l128 -254q-3 -50 -48 -100t-117.5 -91.5t-160.5 -66.5t-177 -25q-127 0 -239 49.5t-197.5 139t-131.5 211.5q0 110 25 177.5
t57 75.5zM947 1871q-149 -51 -229.5 -137.5t-80.5 -200.5q0 -62 17.5 -136.5t48.5 -146.5t69 -124l49 18q-12 25 -20 54t-8 53q0 61 37 104t89 43l81 172q0 78 -15 161t-38 140zM1225 1524v-50h175v50h-175zM740 851l-380 -266l6 -10l438 150zM1276 1736
q-196 0 -304.5 -149.5t-108.5 -411.5h80q0 232 87 357.5t246 125.5q160 0 244 -121t84 -356q0 -104 -28 -191l76 -24q17 52 24.5 106t7.5 109q0 265 -105.5 410t-302.5 145zM911 1005l-87 -103q5 -13 9.5 -25.5t11.5 -23.5l101 120zM1227 1264v-65q-38 26 -93 26
q-35 0 -66 -25t-42 -63l-13 -44q74 -23 133 -23q61 0 96 22t35 60v108zM1533 1878q-55 -120 -55 -236l162 -249l91 -31q32 34 45.5 86.5t13.5 95.5q0 68 -34.5 135.5t-93 120.5t-129.5 78zM964 911l-75 -129q8 -10 16 -20.5t18 -20.5l84 145zM1321 1404q-47 0 -65.5 -9
t-18.5 -21t19.5 -17t64.5 -5q33 0 33 -30v-149q0 -55 39.5 -84.5t103.5 -29.5q29 0 61 4t66 13l-14 51q-15 55 -42.5 77t-67.5 22q-41 0 -73 -19t-37 -47l14 -17v211q0 20 -17 35t-66 15zM829 678l-251 -374l7 -7l345 277zM866 1230q-23 0 -40.5 -18.5t-17.5 -53.5
q0 -134 68.5 -224.5t182.5 -136.5t252 -46q165 0 272 58t124 157q-26 13 -68.5 21.5t-81.5 8.5q-75 0 -143 -39t-103 -101q-48 74 -130.5 116t-182.5 44q0 54 -19 103t-49 80t-64 31zM1047 845l-60 -163q10 -8 20.5 -15.5t21.5 -14.5l65 175zM1645 1449v-70q26 0 51.5 -39
t25.5 -85q0 -32 -14 -62.5t-40 -55.5l48 -51q76 73 76 169q0 50 -20.5 94.5t-54 72t-72.5 27.5zM1156 795l-33 -188q12 -4 27 -8t28 -7l33 194zM1277 772v-194h30.5t29.5 2v192h-60zM1683 1163q-22 0 -43 -23q-2 -29 -7 -69t-13 -77q8 -18 25 -33.5t38 -15.5q29 0 49.5 31.5
t20.5 75.5q0 46 -20.5 78.5t-49.5 32.5zM995 546l-147 -439l9 -5l265 378zM1458 795l-55 -9l33 -189q13 3 28.5 7t25.5 7zM1557 845l-47 -18l66 -179q24 11 44 24zM1630 911l-40 -25l96 -164q18 23 24 48zM1220 466l80 -468h12l70 468h-162zM1593 518l-138 -50l267 -387
l10 5zM1835 809l-30 -116l429 -115l6 16zM1755 635l-114 -80l406 -276l8 12z" />
</svg>