<?xml version="1.0" standalone="no"?>
<!DOCTYPE svg PUBLIC "-//W3C//DTD SVG 1.1//EN" "http://www.w3.org/Graphics/SVG/1.1/DTD/svg11.dtd">
<svg xmlns="http://www.w3.org/2000/svg" xmlns:xlink="http://www.w3.org/1999/xlink" version="1.1"
   viewBox="94 -151 2414 2169">
   <path fill="currentColor"
      d="M1925 1778q-199 -23 -310 -88t-184 -191q-34 4 -76 5t-58 1q-197 0 -360.5 -48t-282.5 -137t-184 -211t-65 -269q0 -356 233.5 -549t660.5 -193q278 0 479 86t309 246.5t108 383.5q0 152 -41 247.5t-99.5 154.5t-113.5 100q-67 50 -88.5 79t-21.5 63q0 36 24 117t70 203z
M1804 1676q-25 -65 -39 -121.5t-14 -96.5q0 -56 30.5 -100.5t109.5 -105.5q54 -42 105.5 -93t85 -132t33.5 -213q0 -200 -97 -342t-279.5 -218t-439.5 -76q-395 0 -604.5 170.5t-209.5 491.5q0 172 103 304t286 206.5t423 74.5q29 0 60.5 -1.5t62 -4.5t54.5 -7
q67 124 140 184t190 80z" />
</svg>