<?xml version="1.0" standalone="no"?>
<!DOCTYPE svg PUBLIC "-//W3C//DTD SVG 1.1//EN" "http://www.w3.org/Graphics/SVG/1.1/DTD/svg11.dtd">
<svg xmlns="http://www.w3.org/2000/svg" xmlns:xlink="http://www.w3.org/1999/xlink" version="1.1"
   viewBox="94 -151 2414 2169">
   <path fill="currentColor"
      d="M251 1978v-412l784 -779q-35 -102 -35 -215q0 -140 52.5 -262t145 -214.5t215 -145t261.5 -52.5q140 0 262.5 52.5t215 145t145 214.5t52.5 262q0 139 -52.5 261.5t-145 215t-214.5 145t-262 52.5q-113 0 -217 -36l-189 189h-165l-60 209l-217 13l-14 228l-128 129h-434z
M332 1898h320l84 -84l17 -269l230 -13l61 -213h192l202 -203q113 50 237 50q123 0 230.5 -46t189.5 -128t128 -189.5t46 -230.5t-46 -231t-127.5 -189.5t-189.5 -127.5t-232 -46q-123 0 -230.5 46t-189.5 128t-128 189.5t-46 230.5q0 125 48 235l-797 792v218l937 -931
l41 41zM1775 684q-58 0 -106.5 -28.5t-77.5 -77t-29 -106.5q0 -59 29 -107t77.5 -77t106.5 -29q59 0 107 29t77 77t29 107q0 58 -28.5 106.5t-77 77t-107.5 28.5zM1775 604q56 0 94.5 -38.5t38.5 -93.5q0 -54 -39.5 -93.5t-93.5 -39.5t-93.5 39.5t-39.5 93.5q0 55 39 93.5
t94 38.5z" />
</svg>