<?xml version="1.0" standalone="no"?>
<!DOCTYPE svg PUBLIC "-//W3C//DTD SVG 1.1//EN" "http://www.w3.org/Graphics/SVG/1.1/DTD/svg11.dtd">
<svg xmlns="http://www.w3.org/2000/svg" xmlns:xlink="http://www.w3.org/1999/xlink" version="1.1"
   viewBox="94 -151 2414 2169">
   <path fill="currentColor"
      d="M245 1978v-1905h1576l32 -126q13 -49 63 -49h367q31 0 51.5 20.5t20.5 51.5v2008h-2110zM325 1898h1950v-1080h-1950v1080zM789 738h1486v-237h-1950v77h378q25 0 43.5 15t22.5 40zM1566 435h709v-281h-1950v267h711l18 -129q4 -26 22.5 -41.5t44.5 -15.5h359
q26 0 44.5 16.5t22.5 42.5z" />
</svg>