<?xml version="1.0" standalone="no"?>
<!DOCTYPE svg PUBLIC "-//W3C//DTD SVG 1.1//EN" "http://www.w3.org/Graphics/SVG/1.1/DTD/svg11.dtd">
<svg xmlns="http://www.w3.org/2000/svg" xmlns:xlink="http://www.w3.org/1999/xlink" version="1.1"
   viewBox="94 -151 2414 2169">
   <path fill="currentColor"
      d="M426 1978q-68 0 -117 -48.5t-49 -115.5v-1751q0 -68 49 -116.5t116 -48.5h1750q68 0 116.5 48.5t48.5 116.5v1750q0 67 -48.5 116t-116.5 49h-1749zM839 1506q-37 0 -61.5 -19t-24.5 -52q0 -23 12 -41.5t34 -34.5l125 124q-18 11 -39 17t-46 6zM831 1602q48 0 88.5 -13.5
t73.5 -36.5l43 43h142l-113 -110q35 -44 57 -93t34 -92h-120q-7 29 -18.5 58t-27.5 55l-107 -104q47 -27 78.5 -63t31.5 -89q0 -57 -43.5 -88t-110.5 -31q-70 0 -115 34t-45 93q0 33 12 62t42 64q-48 27 -74.5 61.5t-26.5 93.5q0 70 52.5 113t146.5 43zM820 1245
q-16 -18 -25.5 -36t-9.5 -37q0 -26 17.5 -36t36.5 -10q17 0 32.5 10t15.5 33t-17.5 41t-49.5 35zM844 795h116v-302h149v-97h-415v97h150v302zM1493 1339q62 0 106.5 -42.5t44.5 -106.5t-44.5 -106.5t-106.5 -42.5q-61 0 -106 42.5t-45 106.5t45 106.5t106 42.5zM1493 1249
q-24 0 -40.5 -16.5t-16.5 -42.5t16.5 -42.5t40.5 -16.5t40.5 16.5t16.5 42.5t-16.5 42.5t-40.5 16.5zM1466 1595h100l374 -550h-100zM1912 1599q62 0 106.5 -42.5t44.5 -106.5t-44.5 -106.5t-106.5 -42.5q-61 0 -106 42.5t-45 106.5t45 106.5t106 42.5zM1912 1509
q-24 0 -40.5 -16.5t-16.5 -42.5t16.5 -42.5t40.5 -16.5t40.5 16.5t16.5 42.5t-16.5 42.5t-40.5 16.5zM694 342h415v-97h-415v97zM1629 814q53 0 90.5 -29.5t37.5 -71.5v-342l144 -47v-149l-234 67v371q-9 -2 -18 -3t-20 -1q-53 0 -91 29.5t-38 72.5t38 73t91 30z" />
</svg>