<?xml version="1.0" standalone="no"?>
<!DOCTYPE svg PUBLIC "-//W3C//DTD SVG 1.1//EN" "http://www.w3.org/Graphics/SVG/1.1/DTD/svg11.dtd">
<svg xmlns="http://www.w3.org/2000/svg" xmlns:xlink="http://www.w3.org/1999/xlink" version="1.1"
   viewBox="94 -151 2414 2169">
   <path fill="currentColor"
      d="M2118 1124l-652 -514l-18 -46l-349 -509q-28 -41 -79 -59t-116 -18q-85 0 -180 30t-186 84t-164 125t-113 153l693 593l-53 59l-736 -631q37 -104 117 -194t185 -157t219.5 -104.5t219.5 -37.5q86 0 151.5 25t103.5 82l360 532l55 62l637 500zM1373 1852l-70 -155l48 -66
l77 159zM898 1025l-588 -83l12 -206l80 5l-9 137l524 68zM898 1025l-677 -338l99 -177l70 38l-62 110l611 298zM1770 1888l-180 -210l42 -64l159 186zM1285 1352l-158 -312q5 -5 11.5 -12.5t13.5 -14.5l158 309zM1982 1978q-138 0 -203.5 -77.5t-65.5 -222.5
q0 -60 10.5 -131t32.5 -152q15 -56 52.5 -102.5t74.5 -46.5q53 0 87.5 52.5t34.5 117.5q0 29 -3.5 65t-8.5 70q-5 35 -8 58.5t-3 40.5q0 29 9.5 39t33.5 10q46 0 84 -34.5t60.5 -89t22.5 -113.5q0 -89 -53 -143.5t-128 -54.5q-49 0 -104 29t-117 91q-176 176 -219 556
l-198 -88q19 -109 53.5 -223.5t87 -218t122.5 -179.5l47 47q-64 69 -109 160t-76 188t-53 186l73 29q28 -164 85 -293t139 -212q142 -142 270 -142q69 0 125 35t89 95.5t33 137.5t-31 147.5t-84 115t-119 44.5q-59 0 -85.5 -33t-26.5 -88q0 -22 3.5 -45t10.5 -63
q6 -32 7 -63.5t1 -56.5q0 -50 -16 -76.5t-35 -26.5q-20 0 -36.5 27.5t-27.5 67.5q-19 81 -28 147.5t-9 120.5q0 116 46.5 172t152.5 56q81 0 150.5 -39t122 -105t81.5 -147t29 -165q0 -101 -46.5 -181.5t-145.5 -117.5q-68 -25 -137 -25q-116 0 -220 57.5t-198 154.5
t-178.5 215.5t-161.5 241.5l-331 -713l19 -128l321 680q81 -125 170 -230.5t183.5 -183.5t190.5 -121.5t191 -43.5q47 0 96 10.5t95 31.5q114 50 168 145t54 211q0 97 -34.5 190t-96 168.5t-144 120t-178.5 44.5zM1384 1233l-171 -283q5 -7 11.5 -13.5t13.5 -12.5l168 279
q-5 7 -11 14.5t-11 15.5zM757 642l-284 -266q30 -40 73.5 -87.5t97.5 -87t113 -55.5l226 254q-84 65 -139.5 130t-86.5 112zM1869 1665q-12 -20 -16.5 -46t-4.5 -51q0 -87 30 -180q5 18 9.5 51t4.5 67t-5 74.5t-18 84.5zM1528 605q-51 7 -128.5 30.5t-165.5 81.5
q-109 71 -168 145.5t-84.5 134t-34.5 87.5l-49 -59q1 -20 19.5 -78.5t78.5 -137.5t184 -160q84 -55 169 -79t137 -30zM1480 1133l-188 -266l53 -42l212 259q-18 6 -39 19.5t-38 29.5zM1642 1048l-231 -255l36 -11l231 255zM1050 354l-209 -237l49 -18l207 235zM1784 1010
l-264 -239q13 -2 26 -2t24 1l256 233zM1169 321l-180 -223l55 2l178 221h-53z" />
</svg>