<?xml version="1.0" standalone="no"?>
<!DOCTYPE svg PUBLIC "-//W3C//DTD SVG 1.1//EN" "http://www.w3.org/Graphics/SVG/1.1/DTD/svg11.dtd">
<svg xmlns="http://www.w3.org/2000/svg" xmlns:xlink="http://www.w3.org/1999/xlink" version="1.1"
   viewBox="94 -151 2414 2169">
   <path fill="currentColor"
      d="M543 1144q-61 0 -112 -30t-81 -81t-30 -112v-800q0 -62 30 -112.5t81 -80.5t112 -30h1514q62 0 112.5 30t80.5 80.5t30 112.5v800q0 61 -30 112t-80.5 81t-112.5 30h-1514zM548 1733l12 -36h96l-11 36h-97zM573 1673l14 -36h200l-15 36h-199zM593 1614l13 -36h151l-15 36
h-149zM741 1733l13 -36h96l-11 36h-98zM615 1554l12 -31h98l-13 31h-97zM829 1673l15 -36h97l-15 36h-97zM798 1614l15 -36h99l-14 36h-100zM774 1554l10 -31h101l-13 31h-98zM381 1978v-165h73v99h1692v-99h73v165h-1838zM1019 1673l13 -36h94l-8 36h-99zM976 1614l15 -36
h95l-12 36h-98zM924 1554l14 -31h97l-12 31h-99zM956 1733l15 -36h656l15 36h-686zM1075 1554l14 -31h94l-11 31h-97zM1134 1614l9 -36h95l-6 36h-98zM1200 1673l7 -36h89l2 36h-98zM381 1838v-59l153 -361h1532l153 361v59h-1838zM466 1772h1668l-115 -288h-1436z
M1221 1554l9 -31h82l9 31h-100zM1280 1614l4 -36h82l11 36h-97zM1391 1673l-9 -36h94l12 36h-97zM1424 1614l-12 -36h93l16 36h-97zM1373 1554l-11 -31h94l14 31h-97zM1072 1315v-203h80v203h-80zM1551 1673l-15 -36h98l16 36h-99zM930 1344v-80h740v80h-740zM1527 1554
l-17 -31h97l18 31h-98zM1587 1614l-16 -36h99l14 36h-97zM1766 1733l-18 -36h96l18 36h-96zM1676 1554l-16 -31h98l17 31h-99zM1739 1614l-18 -36h96l18 36h-96zM1723 1673l-16 -36h306l14 36h-304zM1448 1315v-203h80v203h-80zM1955 1733l-18 -36h103l12 36h-97zM1904 1614
l-18 -36h108l13 36h-103zM1827 1554l-15 -31h161l12 31h-158zM543 1064h1514q59 0 101 -42t42 -101v-800q0 -59 -42 -101t-101 -42h-1514q-59 0 -101 42t-42 101v800q0 59 42 101t101 42zM560 944q-16 0 -28 -12t-12 -28v-766q0 -17 12 -28.5t28 -11.5h1480q17 0 28.5 11.5
t11.5 28.5v768q0 16 -11.5 27t-28.5 11h-1480z" />
</svg>