<?xml version="1.0" standalone="no"?>
<!DOCTYPE svg PUBLIC "-//W3C//DTD SVG 1.1//EN" "http://www.w3.org/Graphics/SVG/1.1/DTD/svg11.dtd">
<svg xmlns="http://www.w3.org/2000/svg" xmlns:xlink="http://www.w3.org/1999/xlink" version="1.1"
   viewBox="94 -151 2414 2169">
   <path fill="currentColor"
      d="M802 1437l-270 -270l993 -993l271 270zM785 933l84 -85l-416 -416l-84 85zM760 1022l-505 -505l198 -199l508 508zM802 1323l880 -879l-157 -156l-879 879zM2098 1978q-23 0 -47.5 -12t-55.5 -34l-275 -203l53 -60l270 199q21 16 34 23t21 7q19 0 40 -21l107 -106
q20 -19 20 -39q0 -8 -7 -21t-23 -34l-198 -272l60 -53l202 277q23 31 34.5 55.5t11.5 47.5q0 55 -44 97l-107 106q-43 43 -96 43zM1763 1738q-85 33 -148.5 5t-131.5 -130q-119 -2 -217.5 -30.5t-195.5 -91.5t-212 -170l53 -60q101 95 182 150t151.5 81.5t139 34t143.5 6.5
q64 103 104.5 129.5t101.5 1.5q23 -9 68 -48t95 -89t88.5 -95.5t47.5 -67.5q24 -61 -2 -101.5t-129 -104.5q1 -75 -6.5 -143.5t-34 -138.5t-81.5 -151t-150 -182l60 -54q107 115 170.5 212t91.5 195.5t30 217.5q102 68 130 131t-5 149q-12 31 -54.5 83t-97.5 107.5
t-107 98.5t-84 55zM1205 512l85 -84l-416 -416l-85 84zM1185 606l-510 -510l199 -198l512 512z" />
</svg>