<?xml version="1.0" standalone="no"?>
<!DOCTYPE svg PUBLIC "-//W3C//DTD SVG 1.1//EN" "http://www.w3.org/Graphics/SVG/1.1/DTD/svg11.dtd">
<svg xmlns="http://www.w3.org/2000/svg" xmlns:xlink="http://www.w3.org/1999/xlink" version="1.1"
   viewBox="94 -151 2414 2169">
   <path fill="currentColor"
      d="M652 1978q-14 0 -14 -14q0 -11 20 -34.5t63 -76.5t111 -149q75 -106 136 -225.5t104 -251.5l47 -145h362l47 145q43 132 104 251.5t136 225.5q69 96 111.5 149t62.5 76.5t20 34.5q0 14 -14 14h-346q-52 -154 -123.5 -222.5t-178.5 -68.5q-106 0 -177.5 68.5t-124.5 222.5
h-346zM750 1930l-41 -22h240q59 -149 144 -220t207 -71t207.5 71t143.5 220h240l-41 22q-34 -41 -66.5 -85.5t-64.5 -89.5q-83 -116 -149 -244t-109 -262l-51 -161h-220l-51 161q-42 133 -108.5 261.5t-149.5 244.5q-32 45 -64.5 89.5t-66.5 85.5zM958 1941l-72 -276
l77 -119l259 -89l-156 -71l36 -106l140 -53l-107 -86l35 -46l101 81v-111h58v111l99 -79l44 39l-114 91l159 61l31 91l-170 78l282 97l56 105l-74 277l-43 -62l62 -236l-213 49l-60 -46l207 -48l-266 -91v163h-58v-163l-267 92l213 49l-46 48l-232 -53l63 237zM1265 1408
v-121l-142 55zM1117 1091l-166 -258h698l-166 258h-366zM1156 1021h288l78 -118h-444zM1335 1408l142 -66l-142 -55v121zM1234 788h132l-12 -150h-108zM1244 547h112l-6 -149h-100zM1155 885q26 -126 38 -270.5t12 -290.5h40v-360q0 -66 55 -66t55 66v360h40
q0 146 12.5 290.5t37.5 270.5h-290zM1275 193h50v-159h-50v159z" />
</svg>