<?xml version="1.0" standalone="no"?>
<!DOCTYPE svg PUBLIC "-//W3C//DTD SVG 1.1//EN" "http://www.w3.org/Graphics/SVG/1.1/DTD/svg11.dtd">
<svg xmlns="http://www.w3.org/2000/svg" xmlns:xlink="http://www.w3.org/1999/xlink" version="1.1"
   viewBox="94 -151 2414 2169">
   <path fill="currentColor"
      d="M404 1778q-97 0 -177.5 -47t-128.5 -126t-48 -176q0 -100 54 -181.5t137 -125.5q76 -87 140 -160.5t131 -151t150 -176t197 -234.5q96 -114 156 -180t100.5 -94t76.5 -28q41 0 78 26q17 12 30 12q8 0 13 -2.5t17 -10.5q36 -25 65 -25q30 0 64 21t90 78t148.5 163.5
t238.5 276.5l54 63q43 50 84 95.5t92.5 98t127.5 125.5q110 41 183 140t73 225q0 109 -54 198.5t-144.5 142.5t-198.5 53h-1749zM423 1698h1710q92 0 168.5 -39t122.5 -108.5t46 -160.5q0 -88 -40.5 -157t-110 -109.5t-156.5 -40.5q-97 0 -177.5 54t-110.5 143
q-103 -127 -266 -127q-107 0 -195 60t-127 161q-82 -41 -164 -41q-18 0 -40.5 2.5t-57.5 9.5q-31 -74 -96.5 -118t-145.5 -44q-110 0 -191 81q-37 -44 -88.5 -67.5t-110.5 -23.5q-112 0 -187.5 74.5t-75.5 187.5q0 79 40 138t106.5 92t146.5 33zM1228 803q68 0 105.5 -23
t64.5 -45.5t63 -22.5q20 0 51 5.5t44 5.5q23 0 38.5 -20.5t28.5 -41t28 -20.5q16 0 36.5 20.5t40.5 41.5t36 21q34 0 46 -3.5t12 -10.5q0 -17 -25.5 -44t-51.5 -54t-26 -44t37 -17q-145 -179 -236.5 -281t-119.5 -102q-11 0 -23 11.5t-29 23t-45 11.5q-43 0 -69.5 -23
t-47.5 -23q-17 0 -58 40.5t-93 102t-104 124.5l-130 159q-19 22 -19.5 38t18.5 16q11 0 20 -4.5t25 -4.5q30 0 43.5 24t22 55t20 55t36.5 24q30 0 55.5 -32.5t51.5 -75.5t55 -75.5t65 -32.5q31 0 31 28q0 25 -26 49t-52 49.5t-26 56.5q0 20 31.5 29.5t75.5 9.5z" />
</svg>