<?xml version="1.0" standalone="no"?>
<!DOCTYPE svg PUBLIC "-//W3C//DTD SVG 1.1//EN" "http://www.w3.org/Graphics/SVG/1.1/DTD/svg11.dtd">
<svg xmlns="http://www.w3.org/2000/svg" xmlns:xlink="http://www.w3.org/1999/xlink" version="1.1"
   viewBox="94 -151 2414 2169">
   <path fill="currentColor"
      d="M859 1425q-88 0 -160.5 -43.5t-116 -117t-43.5 -161.5t43.5 -160.5t116 -116t160.5 -43.5q89 0 161.5 43t116 115.5t43.5 161.5t-43.5 162t-116 116.5t-161.5 43.5zM859 1365q72 0 131 -35.5t94.5 -95t35.5 -131.5t-35.5 -131t-94.5 -94t-131 -35q-71 0 -130.5 35
t-94.5 94t-35 131t35 131.5t94.5 95t130.5 35.5zM887 1114l-56 -22l182 -455l56 22zM1984 1665l-1417 -1405l49 -49l1417 1405zM1754 1148h-310v-60h230l-109 -375h-390q-89 0 -138 -40.5t-49 -114.5q0 -72 56 -111t162 -43l2 60q-82 4 -121 27t-39 67q0 48 31 71.5t96 23.5
h434zM1722 1425q-88 0 -161 -43.5t-116.5 -116.5t-43.5 -162t43.5 -161.5t116.5 -115.5t161 -43t160.5 43.5t116 116t43.5 160.5t-43.5 161.5t-116 117t-160.5 43.5zM1722 1365q72 0 131 -35.5t94 -95t35 -131.5t-35 -131t-94 -94t-131 -35t-131.5 35t-94.5 94t-35 131
t35 131.5t94.5 95t131.5 35.5zM1356 1022l-48 -44l205 -486l56 24zM1401 534v-60h235v60h-235zM2250 938q0 -198 -74 -371.5t-205 -306t-303 -207.5t-368 -75t-368 75t-303 207.5t-205 306t-74 371.5t74 371.5t205 306t303 207.5t368 75t368 -75t303 -207.5t205 -306
t74 -371.5zM2330 938q0 214 -80.5 402.5t-222.5 332t-328.5 224.5t-398.5 81t-398.5 -81t-328.5 -224.5t-222.5 -332t-80.5 -402.5t80.5 -402.5t222.5 -332t328.5 -224.5t398.5 -81t398.5 81t328.5 224.5t222.5 332t80.5 402.5z" />
</svg>