<?xml version="1.0" standalone="no"?>
<!DOCTYPE svg PUBLIC "-//W3C//DTD SVG 1.1//EN" "http://www.w3.org/Graphics/SVG/1.1/DTD/svg11.dtd">
<svg xmlns="http://www.w3.org/2000/svg" xmlns:xlink="http://www.w3.org/1999/xlink" version="1.1"
   viewBox="94 -151 2414 2169">
   <path fill="currentColor"
      d="M205 1621q-64 0 -98 -33.5t-31 -105.5l17 -434q2 -62 46.5 -115t118.5 -70l309 -73l188 -217q82 -95 175 -143.5t215 -65t290 -16.5q236 0 388.5 55.5t245.5 179.5l144 191l171 52q57 17 87 60t41.5 95.5t11.5 99.5q0 111 -6 222.5t-15 219.5q-4 43 -35.5 70.5
t-86.5 27.5h-138v-80h178q11 -134 17 -247t6 -213q0 -74 -22.5 -120t-63.5 -59l-193 -59l-160 -212q-53 -71 -130 -115.5t-185 -66t-255 -21.5q-132 0 -227 9.5t-165 31.5t-123.5 60.5t-103.5 95.5l-205 237l-334 79q-46 10 -74 41t-30 69l-19 490h307v80h-256zM650 1878
q-74 0 -135.5 -36.5t-97.5 -97.5t-36 -136t36 -136t97.5 -97t135.5 -36q75 0 136.5 36t97.5 97t36 136t-36 136t-97.5 97.5t-136.5 36.5zM650 1788q75 0 127.5 -52.5t52.5 -127.5t-52.5 -127t-127.5 -52q-74 0 -126.5 52.5t-52.5 126.5q0 75 52 127.5t127 52.5zM145 1346
v-68h185l42 -139q3 -10 -2 -16.5t-15 -6.5h-200v-68h237q31 0 47 25.5t6 58.5l-65 214h-235zM873 1621l-39 -89h1044l-31 89h-974zM144 1567l-25 -254l219 -21l90 -162h1819l38 153h170v284h-160l-82 -100l-217 -89l-173 189h-949l-92 -152l-248 -17l-115 169h-275z
M1382 1503q71 0 118 -56.5t47 -141.5q0 -38 -5 -66.5t-15 -38.5l-36 23q-13 9 -30 9q-16 0 -32 -11l-18 -13q-13 -10 -28 -10q-16 0 -29 10l-18 13q-16 11 -32 11t-30 -9l-36 -23q-10 11 -15 39.5t-5 65.5q0 86 46.5 142t117.5 56zM868 894h529v-280q-128 0 -207.5 12.5
t-131 41.5t-96.5 79l-101 112q-10 11 -8 23t15 12zM2060 1878q-74 0 -135.5 -36.5t-97.5 -97.5t-36 -136t36 -136t97.5 -97t135.5 -36q75 0 136.5 36t97.5 97t36 136t-36 136t-97.5 97.5t-136.5 36.5zM2060 1788q75 0 127.5 -52.5t52.5 -127.5t-52.5 -127t-127.5 -52
q-74 0 -126.5 52.5t-52.5 126.5q0 75 52 127.5t127 52.5zM708 972q-19 0 -23 -13t11 -30l204 -230q58 -65 122.5 -100.5t161 -49t250.5 -13.5q98 0 166 4.5t119 20.5t97 51t99 95.5t127 153.5l-136 111h-1198zM924 339l-24 -54l159 -71l24 54zM1059 123l-159 -71l24 -54
l159 72zM1296 417l-69 -14l18 -159l69 14zM1475 894h406l51 -43q-59 -79 -103.5 -126.5t-90.5 -71t-107.5 -31.5t-155.5 -8v280zM1210 216h202v-121h-202v121zM2320 1306l-69 -2l-22 -274h248v68h-172zM1578 417l-18 -159l69 -14l18 159zM1160 266v-221h553v221h-553z
M1462 216h201v-121h-201v121zM1950 339l-160 -72l24 -53l159 71zM1815 123l-24 -53l160 -72l23 54z" />
</svg>