<?xml version="1.0" standalone="no"?>
<!DOCTYPE svg PUBLIC "-//W3C//DTD SVG 1.1//EN" "http://www.w3.org/Graphics/SVG/1.1/DTD/svg11.dtd">
<svg xmlns="http://www.w3.org/2000/svg" xmlns:xlink="http://www.w3.org/1999/xlink" version="1.1"
   viewBox="94 -151 2414 2169">
   <path fill="currentColor"
      d="M155 1728v-1580h289l354 156v241q86 8 161.5 49.5t124.5 107.5q50 -14 104 -14h882q174 0 274.5 132t100.5 375v533h-301l-97 -273h-1491l-97 273h-304zM475 1129h341q5 -56 15 -104.5t25 -89.5h-381v194zM545 895q-38 -17 -63 -35.5t-42 -39.5l34 -42v93l100 -9z
M764 855h129q45 -78 115 -119q-45 -53 -111 -83t-139 -30q-83 0 -153.5 33.5t-117.5 95.5q26 46 101.5 74.5t175.5 28.5zM898 1129h217q5 -122 45 -214t108 -147h-80q-127 0 -200 91.5t-90 269.5zM475 649q103 -94 243 -104v-189l-243 -106v399zM235 1648h160v-279h1813v279
h157v-439h-1970v-981h-160v1420zM1199 1129h1161q-16 -177 -89 -269t-201 -92h-593q-82 0 -140.5 44t-93 125t-44.5 192z" />
</svg>