<?xml version="1.0" standalone="no"?>
<!DOCTYPE svg PUBLIC "-//W3C//DTD SVG 1.1//EN" "http://www.w3.org/Graphics/SVG/1.1/DTD/svg11.dtd">
<svg xmlns="http://www.w3.org/2000/svg" xmlns:xlink="http://www.w3.org/1999/xlink" version="1.1"
   viewBox="94 -151 2414 2169">
   <path fill="currentColor"
      d="M426 1978q-68 0 -117 -48.5t-49 -115.5v-1751q0 -68 49 -116.5t116 -48.5h1750q68 0 116.5 48.5t48.5 116.5v1750q0 67 -48.5 116t-116.5 49h-1749zM763 1628q27 0 46.5 -20t19.5 -48v-494q0 -28 26 -28t26 28v494q0 28 19.5 48t46.5 20t46.5 -20t19.5 -48v-790h9l86 271
q7 21 26 31t39 3q21 -8 31 -28t2 -41l-141 -417q-15 -44 -74.5 -72.5t-135.5 -28.5t-135.5 28.5t-74.5 72.5l-141 417q-7 22 2.5 42t30.5 27t39.5 -3t25.5 -31l86 -271h9v790q0 28 19.5 48t46.5 20zM855 455q64 0 109 -44.5t45 -108.5t-45 -109t-109 -45t-108.5 45
t-44.5 109q0 63 45 108t108 45zM1642 1628q27 0 46.5 -20t19.5 -48v-236q0 -28 26 -28t26 28v236q0 28 19.5 48t46.5 20t46.5 -20t19.5 -48v-264h93l-103 -432v-95h10l85 273q6 20 25.5 30t40.5 3t31 -27t2 -42l-141 -417q-15 -44 -72 -72.5t-129 -28.5t-129 28.5t-72 72.5
l-141 417q-7 22 2.5 41.5t30.5 27.5q20 7 39.5 -2.5t26.5 -30.5l85 -273h10v95l-103 432h93v264q0 28 19.5 48t46.5 20zM1735 455q63 0 108 -45t45 -108q0 -64 -44.5 -109t-108.5 -45q-63 0 -108.5 45.5t-45.5 108.5q0 64 45 108.5t109 44.5z" />
</svg>