<?xml version="1.0" standalone="no"?>
<!DOCTYPE svg PUBLIC "-//W3C//DTD SVG 1.1//EN" "http://www.w3.org/Graphics/SVG/1.1/DTD/svg11.dtd">
<svg xmlns="http://www.w3.org/2000/svg" xmlns:xlink="http://www.w3.org/1999/xlink" version="1.1"
   viewBox="94 -151 2414 2169">
   <path fill="currentColor"
      d="M1300 1782q-172 0 -353.5 -10.5t-363.5 -33.5q-89 -11 -149.5 -71t-74.5 -150q-14 -87 -14 -200q0 -135 18.5 -267.5t46.5 -217.5l5 -35l224 -391q38 -67 100.5 -108.5t156.5 -50.5q101 -10 204 -15t200 -5q98 0 201 5t203 15q95 9 157 50.5t100 108.5l224 391l5 35
q29 85 47 217.5t18 267.5q0 113 -14 200q-14 90 -74.5 150t-149.5 71q-182 23 -363.5 33.5t-353.5 10.5zM469 1978q-26 0 -43.5 -17.5t-17.5 -43.5v-332l259 148v184q0 26 -17.5 43.5t-43.5 17.5h-137zM473 1320h262q31 0 49 -22t10 -50l-17 -61q-11 -42 -52 -42h-252v175z
M263 839q-31 0 -51 -19.5t-20 -49.5v-40q0 -31 20 -51t51 -20h98q31 0 51 20t20 51v27h82l-16 82h-235zM1003 1353h594q41 0 70 -24t39 -65l18 -70q8 -32 -12.5 -57t-57.5 -27q-96 -6 -188 -9t-166 -3q-73 0 -165.5 3t-188.5 9q-37 2 -57.5 27t-12.5 57l18 70q11 41 40 65
t69 24zM1300 1521q-210 0 -348.5 -6t-233 -18.5t-168 -31.5t-152.5 -46l-5 -395l111 -209q21 62 223 102.5t573 40.5t573 -40.5t223 -102.5l111 209l-5 395q-79 27 -152.5 46t-168 31.5t-233 18.5t-348.5 6zM1994 1978q-26 0 -43.5 -17.5t-17.5 -43.5v-184l259 -148v332
q0 26 -17.5 43.5t-43.5 17.5h-137zM1300 1702q182 0 360 -10.5t347 -32.5q62 -8 103 -49.5t52 -105.5q7 -40 10 -87t3 -100q0 -125 -17.5 -250.5t-46.5 -207.5l-5 -37l-211 -370q-26 -47 -78.5 -83.5t-124.5 -43.5q-97 -11 -197 -15.5t-195 -4.5q-94 0 -194 4.5t-198 15.5
q-72 7 -124.5 43.5t-78.5 83.5l-211 370l-5 37q-28 82 -46 207.5t-18 250.5q0 53 3 100t10 87q11 64 52 105.5t103 49.5q169 22 347.5 32.5t359.5 10.5zM814 656l12 -106q3 -26 20.5 -41.5t42.5 -15.5h111q26 0 43 15.5t20 41.5l12 106h-261zM583 253l-27 -51l152 -86l29 51
zM456 79v-60h158v60h-158zM495 822l7 -169h1596l7 169h-1610zM707 -14l-152 -86l27 -52l154 87zM1865 1320h262v-175h-252q-41 0 -52 42l-17 61q-7 28 10.5 50t48.5 22zM1109 282l-79 -14l20 -174l79 14zM889 68h371v-90h-371v90zM1525 656l12 -106q3 -26 20.5 -41.5
t42.5 -15.5h111q26 0 43 15.5t20 41.5l12 106h-261zM829 128v-210h942v210h-942zM1491 282l-20 -174l79 -14l20 174zM1340 68h371v-90h-371v90zM2102 839l-16 -82h82v-27q0 -31 20 -51t51 -20h98q31 0 51 20t20 51v40q0 30 -20 49.5t-51 19.5h-235zM2017 253l-154 -86
l29 -51l152 86zM1986 79v-60h158v60h-158zM1893 -14l-29 -51l154 -87l27 52z" />
</svg>