<?xml version="1.0" standalone="no"?>
<!DOCTYPE svg PUBLIC "-//W3C//DTD SVG 1.1//EN" "http://www.w3.org/Graphics/SVG/1.1/DTD/svg11.dtd">
<svg xmlns="http://www.w3.org/2000/svg" xmlns:xlink="http://www.w3.org/1999/xlink" version="1.1"
   viewBox="94 -151 2414 2169">
   <path fill="currentColor"
      d="M1300 1778q-342 0 -592.5 -55.5t-386.5 -164t-136 -266.5q0 -67 30 -143.5t82.5 -157t118.5 -158.5q39 -47 64.5 -82.5t55.5 -85.5q77 -130 150.5 -234.5t158 -179t194.5 -114t261 -39.5t261.5 39.5t195 114t157.5 179t150 234.5q30 50 56 85.5t65 82.5q66 79 118 159
t82 156.5t30 143.5q0 158 -136 266.5t-386 164t-593 55.5zM1038 1111l-39 -59q138 -89 301 -89q164 0 302 89l-39 59q-120 -78 -263 -78t-262 78zM1005 789q-100 0 -189 -37l27 -65q76 32 162 32q85 0 163 -32l27 65q-91 37 -190 37zM1300 1698q316 0 548.5 -46.5
t359.5 -137t127 -222.5q0 -83 -55 -188.5t-153 -222.5q-39 -47 -65 -82.5t-61 -93.5q-77 -126 -145 -223.5t-144 -165.5t-175 -103t-237 -35t-236.5 35t-174.5 103t-144.5 166t-145.5 223q-35 58 -60.5 93.5t-64.5 82.5q-98 117 -153.5 222.5t-55.5 188.5q0 132 127.5 222.5
t360 137t547.5 46.5zM1595 789q-100 0 -189 -37l27 -65q76 32 162 32q85 0 163 -32l27 65q-91 37 -190 37z" />
</svg>