<?xml version="1.0" standalone="no"?>
<!DOCTYPE svg PUBLIC "-//W3C//DTD SVG 1.1//EN" "http://www.w3.org/Graphics/SVG/1.1/DTD/svg11.dtd">
<svg xmlns="http://www.w3.org/2000/svg" xmlns:xlink="http://www.w3.org/1999/xlink" version="1.1"
   viewBox="94 -151 2414 2169">
   <path fill="currentColor"
      d="M1300 1978q-216 0 -404.5 -80.5t-331.5 -223.5t-223.5 -331.5t-80.5 -404.5t80.5 -404.5t223.5 -331.5t331.5 -223.5t404.5 -80.5q215 0 403.5 80.5t331.5 223.5t224 331.5t81 404.5t-81 404.5t-224 331.5t-331.5 223.5t-403.5 80.5zM965 1542l-45 -60q197 -166 380 -166
q186 0 380 166l-44 60q-180 -151 -336 -151q-155 0 -335 151zM968 1038q-52 0 -89 -44t-37 -106t37 -106.5t89 -44.5t89 44.5t37 106.5q0 61 -36.5 105.5t-89.5 44.5zM1300 1898q199 0 373 -74.5t306 -206.5t206.5 -306t74.5 -373t-74.5 -373t-206.5 -306t-306 -206.5
t-373 -74.5t-373 74.5t-306 206.5t-206.5 306t-74.5 373t74.5 373t206.5 306t306 206.5t373 74.5zM653 534l-18 -67q116 -32 185.5 -74t110.5 -106l59 39q-49 74 -129.5 124t-207.5 84zM1632 1038q-52 0 -89 -44.5t-37 -105.5q0 -62 37 -106.5t89 -44.5t89 44.5t37 106.5
q0 61 -36.5 105.5t-89.5 44.5zM1947 534q-126 -34 -206.5 -84t-129.5 -124l58 -39q42 64 111.5 106t184.5 74z" />
</svg>