<?xml version="1.0" standalone="no"?>
<!DOCTYPE svg PUBLIC "-//W3C//DTD SVG 1.1//EN" "http://www.w3.org/Graphics/SVG/1.1/DTD/svg11.dtd">
<svg xmlns="http://www.w3.org/2000/svg" xmlns:xlink="http://www.w3.org/1999/xlink" version="1.1"
   viewBox="94 -151 2414 2169">
   <path fill="currentColor"
      d="M886 1621q-48 0 -82 -33t-34 -96q0 -137 69.5 -243t189.5 -166t271 -60t271 60t190 166t70 243q0 63 -34.5 96t-82.5 33q-45 0 -111 -25.5t-143.5 -50.5t-159.5 -25q-81 0 -159 25t-144 50.5t-111 25.5zM894 1272h810q-62 -90 -168 -139.5t-236 -49.5q-131 0 -237.5 49.5
t-168.5 139.5zM778 974l-44 -54q125 -112 274 -160q-73 -37 -149.5 -61.5t-156.5 -34.5l9 -69q218 29 424 155l-12 56q-187 28 -345 168zM743 449l-12 -69q116 -20 189.5 -56t121.5 -97l55 43q-56 71 -141 114t-213 65zM1822 974q-158 -140 -345 -168l-11 -56
q106 -64 211.5 -102.5t211.5 -52.5l10 69q-82 11 -159 35.5t-148 60.5q152 49 274 160zM1857 449q-127 -22 -212 -65t-141 -114l55 -43q47 61 120.5 97t189.5 56zM1300 1978q-216 0 -404.5 -80.5t-331.5 -223.5t-223.5 -331.5t-80.5 -404.5t80.5 -404.5t223.5 -331.5
t331.5 -223.5t404.5 -80.5q215 0 403.5 80.5t331.5 223.5t224 331.5t81 404.5t-81 404.5t-224 331.5t-331.5 223.5t-403.5 80.5zM1300 1898q199 0 373 -74.5t306 -206.5t206.5 -306t74.5 -373t-74.5 -373t-206.5 -306t-306 -206.5t-373 -74.5t-373 74.5t-306 206.5
t-206.5 306t-74.5 373t74.5 373t206.5 306t306 206.5t373 74.5z" />
</svg>