<?xml version="1.0" standalone="no"?>
<!DOCTYPE svg PUBLIC "-//W3C//DTD SVG 1.1//EN" "http://www.w3.org/Graphics/SVG/1.1/DTD/svg11.dtd">
<svg xmlns="http://www.w3.org/2000/svg" xmlns:xlink="http://www.w3.org/1999/xlink" version="1.1"
   viewBox="94 -151 2414 2169">
   <path fill="currentColor"
      d="M1047 1947q-170 -42 -313.5 -136t-250 -228t-165 -298t-58.5 -347q0 -216 80.5 -404.5t223.5 -331.5t331.5 -223.5t404.5 -80.5q215 0 403.5 80.5t331.5 223.5t224 331.5t81 404.5q0 183 -58.5 347t-165 298t-250 228t-313.5 136l38 -94q146 -46 268 -134t212 -208.5
t139.5 -266t49.5 -306.5q0 -199 -74.5 -373t-206.5 -306t-306 -206.5t-373 -74.5t-373 74.5t-306 206.5t-206.5 306t-74.5 373q0 161 49.5 306.5t139.5 266t212.5 208.5t267.5 134zM1293 2028q-171 0 -275 -88.5t-104 -234.5v-463q101 14 195 21t191 7q98 0 191.5 -7
t194.5 -21v463q0 146 -104 234.5t-275 88.5h-14zM1293 1948h14q137 0 218 -65.5t81 -177.5v-405q-85 12 -162.5 18.5t-143.5 6.5t-143.5 -6.5t-162.5 -18.5v405q0 112 81 177.5t218 65.5zM1270 1708v-392h60v392h-60zM969 1669q-97 -46 -177 -111t-128 -140t-48 -150
q0 -50 28 -68.5t65 -18.5q44 0 132.5 16t207 32t251.5 16t251.5 -16t207.5 -32t132 -16q37 0 65 18.5t28 68.5q0 75 -48 150t-128 140t-177 111v-386h-662v386zM624 966l-30 -62q64 -48 135.5 -77t154.5 -29q23 0 40.5 2.5t34.5 7.5q-39 -33 -88.5 -61t-107 -54.5
t-122.5 -52.5l28 -64q76 28 153.5 67t149 87t127.5 103l-27 57q-44 -11 -83 -17t-74 -6q-88 0 -157.5 26t-133.5 73zM1659 1065q-82 0 -150 -40.5t-108.5 -108.5t-40.5 -150q0 -83 40.5 -151t108.5 -108t150 -40q83 0 151 40t108 108t40 151q0 82 -40 150t-108 108.5
t-151 40.5zM1659 1005q67 0 121 -32.5t86 -86.5t32 -120q0 -67 -32 -121t-86 -86t-121 -32q-66 0 -120.5 32t-86.5 86t-32 121q0 66 32 120t86.5 86.5t120.5 32.5zM1659 869q-43 0 -73 -30t-30 -73t30 -73.5t73 -30.5t73.5 30.5t30.5 73.5t-30.5 73t-73.5 30z" />
</svg>