<?xml version="1.0" standalone="no"?>
<!DOCTYPE svg PUBLIC "-//W3C//DTD SVG 1.1//EN" "http://www.w3.org/Graphics/SVG/1.1/DTD/svg11.dtd">
<svg xmlns="http://www.w3.org/2000/svg" xmlns:xlink="http://www.w3.org/1999/xlink" version="1.1"
   viewBox="94 -151 2414 2169">
   <path fill="currentColor"
      d="M426 1978q-68 0 -117 -48.5t-49 -115.5v-1751q0 -68 49 -116.5t116 -48.5h1750q68 0 116.5 48.5t48.5 116.5v1750q0 67 -48.5 116t-116.5 49h-1749zM1122 1658q31 0 52.5 -21.5t21.5 -51.5q0 -40 -31 -70l-135 -134l55 -52l-94 -123l-115 111q-32 31 -32 68q0 32 31 64
l171 172q36 37 76 37zM1203 1369h194l182 -240v-79h-558v79zM1478 1658q40 0 77 -37l171 -172q30 -32 30 -64q0 -37 -31 -68l-116 -111l-94 123l56 52l-135 134q-32 31 -32 70q0 30 21.5 51.5t52.5 21.5zM1048 985h504v-121l145 61q14 6 24.5 8.5t21.5 2.5q22 0 47 -18
l171 -126q31 -23 31 -60q0 -31 -22 -53t-54 -22q-24 0 -48 17l-137 98l-266 -113q-31 -13 -73 -19t-92 -6q-49 0 -91 6t-73 19l-266 113l-138 -98q-24 -17 -48 -17q-31 0 -53.5 22t-22.5 53q0 37 32 60l170 126q25 18 47 18q11 0 22 -2.5t24 -8.5l145 -61v121zM1300 582
q65 0 118 -31.5t84.5 -85t31.5 -118.5t-31.5 -118t-84.5 -84.5t-118 -31.5q-64 0 -117.5 31.5t-85 84.5t-31.5 118t31.5 118.5t84.5 85t118 31.5z" />
</svg>