<?xml version="1.0" standalone="no"?>
<!DOCTYPE svg PUBLIC "-//W3C//DTD SVG 1.1//EN" "http://www.w3.org/Graphics/SVG/1.1/DTD/svg11.dtd">
<svg xmlns="http://www.w3.org/2000/svg" xmlns:xlink="http://www.w3.org/1999/xlink" version="1.1"
   viewBox="94 -151 2414 2169">
   <path fill="currentColor"
      d="M1138 1978q-110 0 -189 -45t-121 -129.5t-42 -202.5v-484q0 -71 39.5 -102.5t128.5 -31.5h804q89 0 128.5 31.5t39.5 102.5v484q0 118 -42 202.5t-121 129.5t-189 45h-436zM833 1708l-8 -70h181v-350h-181v-70h251v490h-243zM1176 1933v-765h360v765h-80v-695h-200v695
h-80zM1138 1898h436q133 0 202.5 -76t69.5 -221v-459q0 -48 -17 -63.5t-71 -15.5h-804q-54 0 -71 15.5t-17 63.5v459q0 143 70.5 220t201.5 77zM1636 1708v-490h251v70h-181v350h181l-8 70h-243zM977 1000q14 -33 66 -48.5t128 -15.5h370q76 0 128 15.5t66 48.5h-758z
M1150 965q-16 0 -27 -11t-11 -26v-29q0 -16 11 -26.5t27 -10.5h412q16 0 27 10.5t11 26.5v29q0 15 -11 26t-27 11h-412zM1402 911q-113 -57 -182 -158t-69 -211q0 -47 9.5 -91.5t36.5 -108.5q23 -53 31.5 -88.5t8.5 -72.5h80q0 44 -11 85.5t-39 113.5q-19 50 -27.5 87
t-8.5 75q0 79 34 135.5t122 121.5q50 37 68 60.5t18 51.5h-71zM880 137q-37 0 -62.5 -25.5t-25.5 -62.5t25.5 -62.5t62.5 -25.5t62.5 25.5t25.5 62.5t-25.5 62.5t-62.5 25.5zM1065 175q-37 0 -62.5 -25.5t-25.5 -62.5t25.5 -62.5t62.5 -25.5t62.5 25.5t25.5 62.5t-25.5 62.5
t-62.5 25.5zM1329 287l-125 -25q-34 -6 -36 -46q-3 -70 -22 -106l295 64q-34 26 -62 87q-15 33 -50 26zM2330 423l-2060 -453v-72l2060 453v72zM1841 256l-1030 -215q-27 -5 -39 -26.5t-12 -49.5v-44q0 -11 8 -17.5t18 -4.5l1029 206q20 4 36.5 24t16.5 48v57q0 11 -8 17.5
t-19 4.5zM1540 277q-37 0 -62.5 -25.5t-25.5 -62.5t25.5 -62.5t62.5 -25.5t62.5 25.5t25.5 62.5t-25.5 62.5t-62.5 25.5zM1725 315q-37 0 -62.5 -25.5t-25.5 -62.5t25.5 -62.5t62.5 -25.5t62.5 25.5t25.5 62.5t-25.5 62.5t-62.5 25.5z" />
</svg>