<?xml version="1.0" standalone="no"?>
<!DOCTYPE svg PUBLIC "-//W3C//DTD SVG 1.1//EN" "http://www.w3.org/Graphics/SVG/1.1/DTD/svg11.dtd">
<svg xmlns="http://www.w3.org/2000/svg" xmlns:xlink="http://www.w3.org/1999/xlink" version="1.1"
   viewBox="94 -151 2414 2169">
   <path fill="currentColor"
      d="M1300 1641q-149 0 -286 -6.5t-245 -19t-170 -30.5v-109l52 -120v-1002h80v1019l-52 120v28q98 19 261.5 29.5t359.5 10.5t359.5 -10.5t261.5 -29.5v-28l-52 -120v-1019h80v1002l52 120v109q-62 18 -170 30.5t-244.5 19t-286.5 6.5zM307 1978l386 -441l179 19l-209 422
h-356zM1003 1978l117 -391h360l117 391h-594zM842 1801q-17 0 -29 -12t-12 -29v-189h998v189q0 17 -12 29t-29 12h-98q-17 0 -28.5 -12t-11.5 -29v-100q-96 4 -171 6t-149 2t-149 -2t-171 -6v100q0 17 -11.5 29t-28.5 12h-98zM1000 1373q-35 0 -60.5 -25.5t-25.5 -60.5
t25.5 -60.5t60.5 -25.5t60.5 25.5t25.5 60.5t-25.5 60.5t-60.5 25.5zM897 1016l9 -92q3 -27 21.5 -44t45.5 -17h20q34 0 51 30l20 34l20 -34q17 -30 51 -30h20q27 0 45.5 17t21.5 44l9 92h-334zM1937 1978l-209 -422l179 -19l386 441h-356zM1600 1373q-35 0 -60.5 -25.5
t-25.5 -60.5t25.5 -60.5t60.5 -25.5t60.5 25.5t25.5 60.5t-25.5 60.5t-60.5 25.5zM1300 1085q-70 0 -143 -5.5t-145.5 -15.5t-142.5 -21v-539q99 -17 169 -25.5t131 -11t131 -2.5q71 0 131.5 2.5t130.5 11t169 25.5v539q-69 11 -142 21t-145.5 15.5t-143.5 5.5zM1300 1005
q50 0 105 -3.5t116.5 -10t129.5 -16.5v-403q-74 -12 -130.5 -17.5t-108 -7.5t-112.5 -2t-112.5 2t-107.5 7.5t-131 17.5v403q69 10 130 16.5t116 10t105 3.5zM1275 1012v-478h50v478h-50zM1369 1016l9 -92q3 -27 21.5 -44t45.5 -17h20q34 0 51 30l20 34l20 -34
q17 -30 51 -30h20q27 0 45.5 17t21.5 44l9 92h-334zM657 407l-41 -48q23 -57 60.5 -104.5t109 -83t195 -54.5t319.5 -19t319.5 19t195 54.5t109 83t60.5 104.5l-41 48q-198 -43 -350.5 -63t-292.5 -20q-139 0 -292 20t-351 63zM1209 265h182q17 0 28.5 -12t11.5 -28v-33
q0 -17 -11.5 -29t-28.5 -12h-182q-16 0 -28 12t-12 29v33q0 16 12 28t28 12zM1158 139l-30 -206l60 -8l29 214h-59zM1114 105q-20 0 -20 -19q0 -20 20 -20h372q20 0 20 20q0 19 -20 19h-372zM1075 11l-47 -35q28 -40 54 -59t51 -19h334q26 0 51.5 19t53.5 59l-47 35
q-18 -26 -32 -34.5t-26 -8.5h-334q-12 0 -26 8.5t-32 34.5zM1383 139l29 -214l60 8l-30 206h-59z" />
</svg>