<?xml version="1.0" standalone="no"?>
<!DOCTYPE svg PUBLIC "-//W3C//DTD SVG 1.1//EN" "http://www.w3.org/Graphics/SVG/1.1/DTD/svg11.dtd">
<svg xmlns="http://www.w3.org/2000/svg" xmlns:xlink="http://www.w3.org/1999/xlink" version="1.1"
   viewBox="94 -151 2414 2169">
   <path fill="currentColor"
      d="M1294 1978q-216 0 -404.5 -80.5t-331.5 -223.5t-223.5 -331.5t-80.5 -404.5t80.5 -404.5t223.5 -331.5t331.5 -223.5t404.5 -80.5q109 0 212.5 21.5t197.5 62.5l-34 72q-87 -37 -181.5 -56.5t-194.5 -19.5q-199 0 -373 74.5t-306 206.5t-206.5 306t-74.5 373t74.5 373
t206.5 306t306 206.5t373 74.5t373 -74.5t306 -206.5t206.5 -306t74.5 -373q0 -146 -41.5 -279.5t-115.5 -246.5l70 -39q80 122 123.5 265.5t43.5 299.5q0 216 -81 404.5t-224 331.5t-331.5 223.5t-403.5 80.5zM1125 1595q-46 0 -73 -27.5t-27 -71.5q0 -52 38.5 -99t100 -77
t130.5 -30q70 0 131.5 30t100 77t38.5 99q0 44 -27 71.5t-73 27.5q-36 0 -80.5 -12.5t-89.5 -12.5t-89.5 12.5t-79.5 12.5zM892 962q-64 0 -125.5 -29.5t-110.5 -87.5l53 -46q79 93 183 93q105 0 184 -93l53 46q-49 58 -110.5 87.5t-126.5 29.5zM1696 962
q-64 0 -125.5 -29.5t-110.5 -87.5l53 -46q79 93 183 93q105 0 184 -93l53 46q-49 58 -110.5 87.5t-126.5 29.5zM1478 568l-217 -70l15 -48l218 -153l2 30l-156 -50l18 -57l204 65l-15 49l-213 153l-8 -32l172 54zM1875 439l-226 -31l7 -51l189 -190l8 33l-165 -22l9 -60
l212 28l-7 51l-183 188l-6 -30l171 22zM2278 293l-256 -59l12 -55l240 -205l5 38l-188 -43l15 -65l240 54l-12 56l-240 207l-4 -40l204 45z" />
</svg>