<?xml version="1.0" standalone="no"?>
<!DOCTYPE svg PUBLIC "-//W3C//DTD SVG 1.1//EN" "http://www.w3.org/Graphics/SVG/1.1/DTD/svg11.dtd">
<svg xmlns="http://www.w3.org/2000/svg" xmlns:xlink="http://www.w3.org/1999/xlink" version="1.1"
   viewBox="94 -151 2414 2169">
   <path fill="currentColor"
      d="M323 1978q-35 0 -58.5 -23.5t-23.5 -58.5v-798q0 -35 23.5 -57.5t58.5 -22.5h1954q35 0 58.5 22.5t23.5 57.5v798q0 35 -23.5 58.5t-58.5 23.5h-1954zM302 1781v-80h1025v80h-1025zM476 1592v-324h270v324h-270zM537 1531h148v-202h-148v202zM876 1592v-324h270v324h-270
zM937 1531h148v-202h-148v202zM353 1900h1894q32 0 32 -32v-742q0 -30 -32 -30h-1894q-32 0 -32 30v742q0 32 32 32zM1289 1927v-553q0 -56 36.5 -93t91.5 -37h164q55 0 92 37t37 93v553h-68v-553q0 -28 -17 -45t-44 -17h-164q-27 0 -43.5 17t-16.5 45v553h-68zM1453 1652
q-17 0 -17 -17v-212q0 -18 17 -18h93q17 0 17 18v212q0 17 -17 17h-93zM712 917v-535q0 -40 -21.5 -55.5t-70.5 -15.5q4 5 4 15q0 26 -24 26q-25 0 -25 -31q0 -38 51 -58t151 -20t151 20t51 58q0 31 -25 31q-24 0 -24 -26q0 -10 3 -15q-48 0 -69.5 16t-21.5 55v535h-130z
M1664 1781v-80h634v80h-634zM605 497q-76 0 -128 -52.5t-52 -127.5t52.5 -127t127.5 -52q74 0 126.5 52.5t52.5 126.5t-52.5 127t-126.5 53zM605 407q36 0 62.5 -26.5t26.5 -63.5t-26 -63t-63 -26q-38 0 -64 25.5t-26 63.5t26 64t64 26zM323 1034v-34q0 -23 17.5 -38
t43.5 -15h1832q26 0 43.5 15t17.5 38v34h-1954zM526 224l-232 -255l56 -57l232 255zM401 975q0 -42 49 -77.5t113 -35.5h1474q65 0 113.5 35.5t48.5 77.5h-1798zM1854 1592v-324h270v324h-270zM1915 1531h148v-202h-148v202zM953 497q-76 0 -128 -52.5t-52 -127.5t52.5 -127
t127.5 -52q74 0 126.5 52.5t52.5 126.5t-52.5 127t-126.5 53zM953 407q36 0 62.5 -26.5t26.5 -63.5t-26 -63t-63 -26q-38 0 -64 25.5t-26 63.5t26 64t64 26zM302 519v-78h1996v78h-1996zM240 756v-858h2120v858h-2120zM320 678h1960v-702h-1960v702zM1079 235l-62 -50
l197 -244l95 9zM1758 917v-535q0 -40 -21.5 -55.5t-70.5 -15.5q4 5 4 15q0 26 -24 26q-25 0 -25 -31q0 -38 51 -58t151 -20t151 20t51 58q0 31 -25 31q-24 0 -24 -26q0 -10 3 -15q-48 0 -69.5 16t-21.5 55v535h-130zM1648 497q-76 0 -128 -52.5t-52 -127.5t52.5 -127
t127.5 -52q74 0 126.5 52.5t52.5 126.5t-52.5 127t-126.5 53zM1648 407q36 0 62.5 -26.5t26.5 -63.5t-26 -63t-63 -26q-38 0 -64 25.5t-26 63.5t26 64t64 26zM1521 235l-232 -285l96 -9l198 244zM1996 497q-76 0 -128 -52.5t-52 -127.5t52.5 -127t127.5 -52q74 0 126.5 52.5
t52.5 126.5t-52.5 127t-126.5 53zM1996 407q36 0 62.5 -26.5t26.5 -63.5t-26 -63t-63 -26q-38 0 -64 25.5t-26 63.5t26 64t64 26zM2074 224l-56 -57l232 -255l56 57z" />
</svg>