<?xml version="1.0" standalone="no"?>
<!DOCTYPE svg PUBLIC "-//W3C//DTD SVG 1.1//EN" "http://www.w3.org/Graphics/SVG/1.1/DTD/svg11.dtd">
<svg xmlns="http://www.w3.org/2000/svg" xmlns:xlink="http://www.w3.org/1999/xlink" version="1.1"
   viewBox="94 -151 2414 2169">
   <path fill="currentColor"
      d="M426 1978q-68 0 -117 -48.5t-49 -115.5v-1751q0 -68 49 -116.5t116 -48.5h1750q68 0 116.5 48.5t48.5 116.5v1750q0 67 -48.5 116t-116.5 49h-1749zM632 1658q36 0 61 -25.5t25 -60.5t-25 -60.5t-61 -25.5q-34 0 -60 25.5t-26 60.5q0 34 26 60t60 26zM967 1658
q35 0 60.5 -25.5t25.5 -60.5t-25.5 -60.5t-60.5 -25.5t-60.5 25.5t-25.5 60.5q0 34 25.5 60t60.5 26zM1300 1658q35 0 60.5 -26t25.5 -60q0 -35 -25.5 -60.5t-60.5 -25.5t-60.5 25.5t-25.5 60.5t25.5 60.5t60.5 25.5zM664 1329h136v-977h-136q-43 0 -75 32t-32 76v763
q0 44 32 75t75 31zM1634 1658q35 0 60.5 -26t25.5 -60q0 -35 -25.5 -60.5t-60.5 -25.5q-36 0 -61 25.5t-25 60.5t25 60.5t61 25.5zM1968 1658q35 0 60.5 -26t25.5 -60q0 -35 -25.5 -60.5t-60.5 -25.5t-60.5 25.5t-25.5 60.5t25.5 60.5t60.5 25.5zM920 1329h760v-977h-120
v-62q0 -74 -32 -108.5t-101 -34.5h-254q-68 0 -100.5 34.5t-32.5 108.5v62h-120v977zM1115 352v-62q0 -41 12 -54.5t46 -13.5h254q35 0 46.5 13.5t11.5 54.5v62h-370zM1800 1329h136q44 0 75.5 -31t31.5 -75v-763q0 -44 -31.5 -76t-75.5 -32h-136v977z" />
</svg>