<?xml version="1.0" standalone="no"?>
<!DOCTYPE svg PUBLIC "-//W3C//DTD SVG 1.1//EN" "http://www.w3.org/Graphics/SVG/1.1/DTD/svg11.dtd">
<svg xmlns="http://www.w3.org/2000/svg" xmlns:xlink="http://www.w3.org/1999/xlink" version="1.1"
   viewBox="94 -151 2414 2169">
   <path fill="currentColor"
      d="M133 1776q-17 0 -29 -12t-12 -29v-263q0 -17 12 -28.5t29 -11.5h24v-247l118 -136l52 -541q6 -62 71 -62h1559q78 0 78 77v40h231q100 0 100 93v775h142v345h-411v-78h331v-189h-142v-849q0 -8 -5 -13.5t-15 -5.5h-311v-89q0 -28 -28 -28h-1494q-26 0 -29 25l-52 533
l-115 133v287h-65v196h404v78h-443zM404 1716v-206h-262v-78h342v284h-80zM342 1501v-228h-126v-70h196v298h-70zM768 1978q-70 0 -127 -34t-90.5 -91t-33.5 -126t33.5 -125.5t90.5 -90t127 -33.5q69 0 125.5 33.5t90 90t33.5 125.5t-33.5 126t-90 91t-125.5 34zM768 1878
q62 0 105.5 -44t43.5 -107q0 -62 -43.5 -105.5t-105.5 -43.5q-63 0 -107 43.5t-44 105.5q0 63 44 107t107 44zM277 1165l-20 -73l236 -104v-207q0 -11 -9.5 -19t-20.5 -8h-86v-70h111q34 0 57.5 22.5t23.5 56.5v263zM970 1776v-78h733v78h-733zM693 1064q-16 0 -28.5 -11.5
t-12.5 -27.5v-295q0 -17 12 -29.5t28 -12.5h307q17 0 29 12.5t12 29.5v295q0 16 -12.5 27.5t-29.5 11.5h-305zM737 994h218q15 0 15 -15v-206q0 -15 -15 -15h-218q-15 0 -15 15v206q0 15 15 15zM1186 1721v-1216h68v1216h-68zM768 1556v-78h591l225 -291h722v78h-683
l-225 291h-630zM1907 1978q-70 0 -127 -34t-90.5 -91t-33.5 -126t33.5 -125.5t90.5 -90t127 -33.5q69 0 125.5 33.5t90 90t33.5 125.5t-33.5 126t-90 91t-125.5 34zM1907 1878q62 0 105.5 -44t43.5 -107q0 -62 -43.5 -105.5t-105.5 -43.5q-63 0 -107 43.5t-44 105.5
q0 63 44 107t107 44zM569 378h75l-35 -57l35 -57h-75l-56 57zM470 452v-156q0 -35 23 -57t57 -22h215q35 0 57.5 22t22.5 57v156h-375zM679 378h75l56 -57l-56 -57h-75l35 57zM1092 305l170 -200h-170v200zM1153 322h169v-199zM1382 305l170 -200h-170v200zM1032 372v-317
h930v317h-930zM1443 322h169v-199zM2213 602v-593q0 -19 -8 -27t-25 -8h-1204q-19 0 -27 8t-8 27v489h-76v-509q0 -38 26.5 -64.5t64.5 -26.5h1244q37 0 63 26.5t26 64.5v613h-76zM1672 305l170 -200h-170v200zM1733 322h169v-199z" />
</svg>