<?xml version="1.0" standalone="no"?>
<!DOCTYPE svg PUBLIC "-//W3C//DTD SVG 1.1//EN" "http://www.w3.org/Graphics/SVG/1.1/DTD/svg11.dtd">
<svg xmlns="http://www.w3.org/2000/svg" xmlns:xlink="http://www.w3.org/1999/xlink" version="1.1"
   viewBox="94 -151 2414 2169">
   <path fill="currentColor"
      d="M1330 1978q-212 0 -399.5 -79.5t-327.5 -217.5l74 -38q134 122 301.5 188.5t351.5 66.5q199 0 373 -74.5t306 -206.5t206.5 -306t74.5 -373t-74.5 -373t-206.5 -306t-306 -206.5t-373 -74.5t-373 74.5t-306 206.5t-206.5 306t-74.5 373q0 76 12 150l-61 103
q-31 -126 -31 -253q0 -216 80.5 -404.5t223.5 -331.5t331.5 -223.5t404.5 -80.5q215 0 403.5 80.5t331.5 223.5t224 331.5t81 404.5t-81 404.5t-224 331.5t-331.5 223.5t-403.5 80.5zM541 1643q105 0 168 -61.5t63 -164.5q0 -134 -103 -294l-128 -199l-128 199
q-103 160 -103 294q0 103 63 164.5t168 61.5zM541 1723q-138 0 -224.5 -85t-86.5 -221q0 -159 115 -338l196 -303l196 303q115 179 115 338q0 136 -86.5 221t-224.5 85zM1124 1636q-68 0 -116 -47.5t-48 -115.5q0 -98 102.5 -154.5t267.5 -56.5t267.5 56.5t102.5 154.5
q0 68 -48 115.5t-116 47.5q-48 0 -94 -18t-112 -18t-112 18t-94 18zM435 586v-168h50v168h-50zM978 1018q-52 0 -88.5 -44.5t-36.5 -105.5q0 -62 37 -106t88 -44q52 0 88.5 44t36.5 106q0 61 -36.5 105.5t-88.5 44.5zM580 586v-358h50v358h-50zM654 564l-14 -78
q122 -23 189.5 -56.5t118.5 -95.5l62 50q-61 73 -141.5 114t-214.5 66zM725 586v-488h50v488h-50zM870 586v-568h50v568h-50zM1015 586v-598h50v598h-50zM1682 1018q-52 0 -88.5 -44.5t-36.5 -105.5q0 -62 37 -106t88 -44q52 0 88.5 44t36.5 106q0 61 -36.5 105.5
t-88.5 44.5zM1160 586v-638h50v638h-50zM1305 586v-638h50v638h-50zM1450 586v-638h50v638h-50zM1595 586v-598h50v598h-50zM2006 564q-134 -25 -214.5 -66t-141.5 -114l62 -50q51 62 119 95.5t189 56.5zM1740 586v-568h50v568h-50zM1885 586v-488h50v488h-50zM2030 586
v-358h50v358h-50zM2175 586v-168h50v168h-50z" />
</svg>