<?xml version="1.0" standalone="no"?>
<!DOCTYPE svg PUBLIC "-//W3C//DTD SVG 1.1//EN" "http://www.w3.org/Graphics/SVG/1.1/DTD/svg11.dtd">
<svg xmlns="http://www.w3.org/2000/svg" xmlns:xlink="http://www.w3.org/1999/xlink" version="1.1"
   viewBox="94 -151 2414 2169">
   <path fill="currentColor"
      d="M498 1463q-183 0 -262 -69.5t-79 -230.5q0 -132 18 -214.5t62.5 -131.5t123.5 -82l315 -132l154 -164q75 -80 134.5 -128t126 -72.5t160 -32.5t236.5 -8q129 0 216 10.5t156 43.5t140.5 98.5t168.5 175.5l165 110q52 34 75 61t29 67.5t6 118.5v455q0 55 -36.5 89.5
t-91.5 34.5h-91v-80h77q29 0 45.5 -13.5t16.5 -41.5v-444q0 -58 -10 -92.5t-31 -57.5t-55 -45l-151 -101q-78 -88 -135.5 -145t-107 -90t-102.5 -49t-121 -20.5t-163 -4.5q-135 0 -220.5 6.5t-144.5 27.5t-111 64t-120 115l-169 180l-344 144q-55 23 -85.5 61t-43 106
t-12.5 181q0 127 55.5 173.5t205.5 46.5v80zM715 1678q-81 0 -139.5 -35.5t-90 -94.5t-31.5 -131q0 -71 35.5 -130t95 -94t130.5 -35t130 35t94.5 94t35.5 130q0 72 -39.5 131t-99 94.5t-121.5 35.5zM715 1580q66 0 113 -48t47 -115q0 -65 -47 -113t-113 -48q-67 0 -114 48
t-47 113q0 67 47 115t114 48zM183 1206l20 -82l169 -60l60 -123q8 -17 2.5 -27.5t-25.5 -10.5l-169 2l39 -72h167q47 0 65.5 32.5t-2.5 76.5l-86 178zM915 1463v-80h888v80h-888zM2001 1678q-71 0 -130.5 -35.5t-95 -94.5t-35.5 -131q0 -71 35.5 -130t95 -94t130.5 -35
t130 35t94.5 94t35.5 130q0 72 -35.5 131t-94.5 94.5t-130 35.5zM2001 1580q66 0 113 -48t47 -115q0 -65 -47 -113t-113 -48q-67 0 -114 48t-47 113q0 67 47 115t114 48zM1006 678h437v-215q-89 0 -147.5 4.5t-99 17.5t-74 38t-72.5 66l-53 56q-10 11 -7 22t16 11zM927 758
q-55 0 -65 -38.5t34 -84.5l78 -82q55 -58 98.5 -92t94.5 -51t126 -22t194 -5q111 0 181 6.5t121 30.5t103.5 74.5t127.5 138.5l-114 125h-979zM1523 678h348l42 -46q-48 -56 -85 -89.5t-76 -50.5t-92.5 -23t-136.5 -6v215zM2381 1186q-49 -60 -87.5 -110.5t-71 -97
t-64.5 -93.5q-7 -10 -5.5 -23t8.5 -23q32 -44 75.5 -81t93.5 -67l45 55q-31 17 -62.5 41.5t-59.5 53.5q-23 24 -10 44q25 38 61 88t77 99v114z" />
</svg>