<?xml version="1.0" standalone="no"?>
<!DOCTYPE svg PUBLIC "-//W3C//DTD SVG 1.1//EN" "http://www.w3.org/Graphics/SVG/1.1/DTD/svg11.dtd">
<svg xmlns="http://www.w3.org/2000/svg" xmlns:xlink="http://www.w3.org/1999/xlink" version="1.1"
   viewBox="94 -151 2414 2169">
   <path fill="currentColor"
      d="M1300 1978q-216 0 -404.5 -80.5t-331.5 -223.5t-223.5 -331.5t-80.5 -404.5t80.5 -404.5t223.5 -331.5t331.5 -223.5t404.5 -80.5q215 0 403.5 80.5t331.5 223.5t224 331.5t81 404.5t-81 404.5t-224 331.5t-331.5 223.5t-403.5 80.5zM1300 1769q-59 0 -108 -29.5
t-78 -78.5t-29 -107v-237q0 -59 29 -107.5t78 -78t108 -29.5q60 0 108.5 29.5t77.5 78t29 107.5v237q0 58 -29 107t-77.5 78.5t-108.5 29.5zM1155 1323h290q0 -68 -41 -109.5t-104 -41.5t-104 41.5t-41 109.5zM948 925q-51 0 -88 -47.5t-37 -129.5t37 -129.5t88 -47.5
t88 47.5t37 129.5t-37 129.5t-88 47.5zM1300 1898q199 0 373 -74.5t306 -206.5t206.5 -306t74.5 -373t-74.5 -373t-206.5 -306t-306 -206.5t-373 -74.5t-373 74.5t-306 206.5t-206.5 306t-74.5 373t74.5 373t206.5 306t306 206.5t373 74.5zM676 415l-54 -60
q75 -68 170.5 -102t212.5 -34v80q-103 0 -183.5 28.5t-145.5 87.5zM1652 925q-51 0 -88 -47.5t-37 -129.5t37 -129.5t88 -47.5t88 47.5t37 129.5t-37 129.5t-88 47.5zM1924 415q-64 -59 -145 -87.5t-184 -28.5v-80q117 0 212.5 34t170.5 102z" />
</svg>