<?xml version="1.0" standalone="no"?>
<!DOCTYPE svg PUBLIC "-//W3C//DTD SVG 1.1//EN" "http://www.w3.org/Graphics/SVG/1.1/DTD/svg11.dtd">
<svg xmlns="http://www.w3.org/2000/svg" xmlns:xlink="http://www.w3.org/1999/xlink" version="1.1"
   viewBox="94 -151 2414 2169">
   <path fill="currentColor"
      d="M1300 1494q-182 0 -320 -48t-215 -134t-77 -200q0 -55 17 -102t33.5 -88.5t16.5 -80.5q0 -52 -24 -122.5t-24 -134.5q0 -73 35.5 -131.5t95.5 -93.5t134 -35q63 0 115 22.5t94 46.5q47 26 72 35.5t47 9.5q21 0 46.5 -9.5t72.5 -35.5q43 -24 94.5 -46.5t114.5 -22.5
q74 0 134 35t95.5 93.5t35.5 131.5q0 42 -12 89t-24 90.5t-12 77.5q0 39 17 80.5t33.5 88.5t16.5 102q0 114 -76.5 200t-214.5 134t-321 48zM520 1928q-120 0 -217.5 -55t-155 -149t-57.5 -210q0 -85 22.5 -165t52.5 -150.5t52.5 -128t22.5 -98.5q0 -25 -15.5 -70t-15.5 -90
q0 -95 34.5 -169t94 -117t135.5 -43q71 0 117.5 38t46.5 95q0 49 -17.5 94.5t-17.5 101.5q0 55 17.5 102t17.5 94q0 78 -32.5 136t-75.5 105t-75.5 92.5t-32.5 97.5q0 47 29.5 78.5t72.5 31.5q40 0 76.5 -24.5t82.5 -82.5l51 64q-55 65 -104 94t-106 29q-79 0 -132 -54.5
t-53 -135.5q0 -66 33 -119t75.5 -101t75.5 -99t33 -112q0 -33 -17.5 -85.5t-17.5 -110.5q0 -59 17.5 -112t17.5 -84q0 -24 -22 -38.5t-60 -14.5q-80 0 -130.5 69.5t-50.5 179.5q0 32 15.5 78.5t15.5 81.5q0 54 -22.5 116.5t-52.5 131.5t-52.5 143t-22.5 151q0 93 46.5 168.5
t125.5 120.5t175 45q119 0 226 -69t180 -193l70 39q-87 146 -210 224.5t-266 78.5zM1300 1695q-319 0 -528 -125t-290 -361l60 -74q65 235 256 357.5t502 122.5t502.5 -122.5t255.5 -357.5l60 74q-81 236 -290 361t-528 125zM1300 1293q-84 0 -157 -20t-118 -52t-45 -67
q0 -47 83 -72.5t237 -25.5q153 0 237 25.5t84 72.5q0 35 -45 67t-118 52t-158 20zM1033 859q-39 0 -66.5 -33.5t-27.5 -79.5q0 -47 27.5 -79.5t66.5 -32.5q38 0 65.5 32.5t27.5 79.5q0 46 -27.5 79.5t-65.5 33.5zM1300 980q-29 0 -55.5 -21.5t-26.5 -44.5q0 -34 82 -34
t82 34q0 23 -26.5 44.5t-55.5 21.5zM1300 1414q158 0 276.5 -38t184.5 -106t66 -158q0 -49 -16.5 -89.5t-33.5 -83.5t-17 -98q0 -64 24 -131.5t24 -125.5q0 -77 -51.5 -128.5t-128.5 -51.5q-45 0 -84.5 17t-77.5 39q-39 22 -79 40t-87 18q-46 0 -86 -18t-79 -40
q-38 -22 -78 -39t-85 -17q-76 0 -128 51.5t-52 128.5q0 58 24 125.5t24 131.5q0 55 -16.5 98t-33.5 83.5t-17 89.5q0 90 66 158t185 106t276 38zM1567 859q-38 0 -65.5 -33.5t-27.5 -79.5q0 -47 27.5 -79.5t65.5 -32.5q39 0 66.5 32.5t27.5 79.5q0 46 -27.5 79.5t-66.5 33.5
zM2080 1928q-143 0 -266 -78.5t-209 -224.5l69 -39q74 124 181 193t225 69q97 0 176 -45t125.5 -120.5t46.5 -168.5q0 -77 -22.5 -151t-52.5 -143t-52.5 -131.5t-22.5 -116.5q0 -35 15.5 -81.5t15.5 -78.5q0 -110 -51 -179.5t-131 -69.5q-37 0 -59 14.5t-22 38.5
q0 31 17.5 84t17.5 112q0 58 -17.5 110.5t-17.5 85.5q0 61 32.5 112t75.5 99t75.5 101t32.5 119q0 81 -53 135.5t-132 54.5q-57 0 -106.5 -29.5t-102.5 -93.5l50 -64q46 58 82.5 82.5t76.5 24.5q44 0 73.5 -31.5t29.5 -78.5q0 -52 -33 -97.5t-75.5 -92.5t-75.5 -105
t-33 -136q0 -47 17.5 -94t17.5 -102q0 -56 -17.5 -101.5t-17.5 -94.5q0 -57 47 -95t117 -38q76 0 135.5 42.5t94 117t34.5 169.5q0 45 -15.5 90t-15.5 70q0 41 22.5 98.5t52.5 128t52.5 150.5t22.5 165q0 116 -57.5 210t-154.5 149t-218 55zM560 548l-72 -38
q68 -175 188.5 -300.5t280 -193.5t343.5 -68q185 0 344.5 67.5t280 193.5t187.5 301l-71 38q-60 -162 -170 -278.5t-255.5 -179t-315.5 -62.5q-169 0 -315 62.5t-255.5 179t-169.5 278.5z" />
</svg>