<?xml version="1.0" standalone="no"?>
<!DOCTYPE svg PUBLIC "-//W3C//DTD SVG 1.1//EN" "http://www.w3.org/Graphics/SVG/1.1/DTD/svg11.dtd">
<svg xmlns="http://www.w3.org/2000/svg" xmlns:xlink="http://www.w3.org/1999/xlink" version="1.1"
   viewBox="94 -151 2414 2169">
   <path fill="currentColor"
      d="M504 1179l113 -615q-47 -27 -76 -70.5t-29 -96.5q0 -61 41 -102t102 -43l529 -22l353 106l19 214l588 87l-10 247l149 15l-17 400l-79 2l13 -334l-148 -15l9 -247l-579 -88l-17 -219l-293 -91l-522 25q-24 1 -41 19.5t-17 46.5q0 44 34 73.5t82 43.5l-127 685zM554 1433
q-27 0 -46 -19t-19 -46t19 -46t46 -19t46 19t19 46t-19 46t-46 19zM777 1436q-25 0 -42.5 -17.5t-17.5 -42.5t17.5 -42.5t42.5 -17.5t42.5 17.5t17.5 42.5t-17.5 42.5t-42.5 17.5zM459 1905l-108 -189l-42 -181q485 7 989.5 54t998.5 104l-109 212h-1729zM985 1439
q-22 0 -38.5 -17t-16.5 -40t16.5 -39.5t38.5 -16.5q23 0 39 16.5t16 39.5t-16 40t-39 17zM663 1978q-133 0 -226.5 -81t-113.5 -214l-80 -550h209q330 0 635 18.5t614.5 54.5t655.5 88q0 129 -5 223.5t-16.5 170t-33.5 148.5q-19 63 -68.5 102.5t-114.5 39.5h-1456z
M663 1898h1456q37 0 65.5 -23t40.5 -62q28 -90 40 -195.5t12 -256.5q-329 -49 -625.5 -82t-589.5 -50.5t-610 -17.5h-117l67 460q15 103 86 165t175 62zM1008 1051l-284 -6l24 -137h273zM1267 1477q-56 -5 -79 -31.5t-34 -62t-31 -71.5t-67.5 -62t-145.5 -31v-75
q105 6 165 33t90.5 63t45 71t27 59.5t37.5 26.5l582 56q16 2 30.5 -17.5t31.5 -48.5t40 -58t55.5 -49t78.5 -20q6 0 16.5 0.5t20.5 1.5l-5 75q-7 -1 -14.5 -1.5t-14.5 -0.5q-42 0 -67.5 21t-43.5 51.5t-36.5 60.5t-45.5 48.5t-71 14.5zM774 773l26 -144l245 -12l-13 148z
M1178 1194l-79 -10l63 -739l79 10zM1410 1066l-80 -8l11 -166l80 8zM635 558l-4 -78l566 -24v78zM1571 1081l-80 -8l10 -164l80 8zM2120 1517q-19 0 -33.5 -14.5t-14.5 -33.5t14.5 -33t33.5 -14t33 14t14 33t-14 33.5t-33 14.5zM1355 749q-22 0 -38.5 -17t-16.5 -40
t16.5 -39.5t38.5 -16.5q23 0 39 16.5t16 39.5t-16 40t-39 17zM1731 1096l-80 -8l10 -161l80 8zM2200 1008l-1040 -109l10 -77l1040 108zM1891 1111l-80 -8l10 -158l80 8zM1573 786l-80 -9l11 -171l80 8zM1539 537l-338 -50q-46 -7 -69.5 -36t-23.5 -68q0 -69 76 -82l337 105
zM2051 1124l-80 -8l10 -155l80 8zM1733 804l-80 -9l10 -153l80 8zM1268 200l-41 -7q-37 -7 -56.5 -35.5t-9.5 -64.5l3 -10l120 20zM1893 821l-80 -8l10 -155l80 8zM1330 303l-111 -30l99 -375l51 7zM1305 32q-86 -16 -73 -71l3 -11l84 14zM2046 634l-212 -22l94 -284
q7 -20 22.5 -29.5t34.5 -6.5l131 21l5 63l-44 14q-13 4 -22 21t-9 37v186z" />
</svg>