<?xml version="1.0" standalone="no"?>
<!DOCTYPE svg PUBLIC "-//W3C//DTD SVG 1.1//EN" "http://www.w3.org/Graphics/SVG/1.1/DTD/svg11.dtd">
<svg xmlns="http://www.w3.org/2000/svg" xmlns:xlink="http://www.w3.org/1999/xlink" version="1.1"
   viewBox="94 -151 2414 2169">
   <path fill="currentColor"
      d="M707 1721h445q36 0 62 -26.5t26 -63.5v-60h-620v60q0 37 25.5 63.5t61.5 26.5zM558 1571h62v-622h-62q-37 0 -63 25.5t-26 62.5v445q0 37 26 63t63 26zM1398 1719h430v-111h-430v111zM1395 1337l426 -522h-321q-36 0 -63 9t-47 29l-259 253q-28 27 -67 27h-216
q-36 0 -57 20t-21 55t20.5 55.5t57.5 20.5h301q31 0 54 -24l192 -195v272zM1960 1719q30 0 51 -22t21 -53v-585q0 -59 -27.5 -114t-77.5 -98l-529 653v28h430v-453h60v569q0 31 21 53t51 22zM1664 718q66 0 119.5 -32t85.5 -86t32 -120v-122h-484q-9 0 -18 1t-17 5l-68 31
q-15 7 -15 23q0 7 5.5 13.5t16.5 6.5h105v42q0 66 32 120t86 86t120 32zM1434 278h467v-130h-541q-18 0 -28.5 9t-10.5 23q0 11 5.5 21.5t15.5 21.5l25 25q15 15 32 22.5t35 7.5zM426 1978q-68 0 -117 -48.5t-49 -115.5v-1751q0 -68 49 -116.5t116 -48.5h1750
q68 0 116.5 48.5t48.5 116.5v1750q0 67 -48.5 116t-116.5 49h-1749z" />
</svg>