<?xml version="1.0" standalone="no"?>
<!DOCTYPE svg PUBLIC "-//W3C//DTD SVG 1.1//EN" "http://www.w3.org/Graphics/SVG/1.1/DTD/svg11.dtd">
<svg xmlns="http://www.w3.org/2000/svg" xmlns:xlink="http://www.w3.org/1999/xlink" version="1.1"
   viewBox="94 -151 2414 2169">
   <path fill="currentColor"
      d="M2287 1349l-76 -11l27 -320l-176 -27l39 -443l-879 -131l-559 32q-5 123 -21 245.5t-46 221.5t-78 153v148h-80v-147q50 -76 82 -185.5t47.5 -240t15.5 -267.5l644 -40l961 143l-40 445l177 26zM656 1978q-140 0 -246 -101.5t-165 -281.5t-59 -415q124 -8 239 -11t269 -3
q193 0 409.5 13t441.5 37.5t446 59t423 76.5q0 326 -69 476t-221 150h-1468zM2261 1590q9 -39 12 -79q-457 -59 -947 -89t-1012 -30q0 19 4 38.5t10 39.5q1015 0 1933 120zM503 1046v-78h615v78h-615zM562 846v-78h616v78h-616zM1238 1065l-79 -11l9 -77l78 10zM1399 1089
l-83 -12l8 -77l83 11zM646 632l-4 -77l556 -14l4 78zM1046 1217v-171q67 -107 103 -262.5t36 -377.5h80q0 215 -34 379t-105 283v149h-80zM1559 1113l-82 -11l8 -78l82 11zM1312 868l-78 -11l9 -77l77 10zM1719 1137l-82 -11l8 -78l82 11zM1479 893l-83 -12l8 -77l83 11z
M1336 639l-71 -9l9 -77l72 10zM1879 1161l-82 -11l8 -78l82 11zM1639 917l-82 -11l8 -78l82 11zM1499 665l-83 -12l8 -77l83 11zM2039 1184l-82 -11l8 -78l82 11zM1799 941l-82 -11l8 -78l82 11zM1659 689l-82 -11l8 -78l82 11zM2205 1210l-88 -13l8 -78l88 13zM1959 965
l-82 -11l8 -78l82 11zM1061 388v-460q75 -30 156 -30q87 0 168 32v458h-324zM1819 713l-82 -11l8 -78l82 11zM1300 58v-74q-38 -10 -87 -10q-19 0 -36.5 2t-30.5 6v73q36 -3 68 -3q22 0 43.5 1.5t42.5 4.5zM1979 737l-82 -11l8 -78l82 11zM1914 503l-302 -48v-379
q37 -15 71.5 -22.5t74.5 -7.5q41 0 77.5 8t78.5 24v425zM1829 207v-75q-35 -8 -77 -8q-32 0 -59 5v75q15 -2 30 -2h30q20 0 38.5 1t37.5 4z" />
</svg>