<?xml version="1.0" standalone="no"?>
<!DOCTYPE svg PUBLIC "-//W3C//DTD SVG 1.1//EN" "http://www.w3.org/Graphics/SVG/1.1/DTD/svg11.dtd">
<svg xmlns="http://www.w3.org/2000/svg" xmlns:xlink="http://www.w3.org/1999/xlink" version="1.1"
   viewBox="94 -151 2414 2169">
   <path fill="currentColor"
      d="M678 1739q-147 -111 -228.5 -278t-81.5 -372q0 -147 43 -276q-40 -121 -60.5 -230.5t-20.5 -218.5q0 -126 32 -219.5t85.5 -145t117.5 -51.5q56 0 90 32.5t68 85.5t86 115.5t143 122.5q80 -25 168 -37t180 -12q86 0 171 11.5t177 37.5q91 -60 143 -122.5t86 -115.5
t68.5 -85.5t89.5 -32.5q65 0 118 51.5t85 145t32 219.5q0 109 -20 218.5t-61 230.5q43 129 43 276q0 205 -81.5 372t-228.5 278l-8 -97q114 -100 176 -241.5t62 -311.5q0 -149 -47 -276q29 -82 47.5 -157t28 -147.5t9.5 -144.5q0 -101 -23.5 -176.5t-59.5 -117.5t-72 -42
q-31 0 -55.5 31.5t-59 84t-94.5 117t-163 131.5q-85 -29 -175.5 -43t-187.5 -14q-91 0 -178 13.5t-185 43.5q-103 -67 -163 -131.5t-94.5 -117t-58.5 -84t-56 -31.5q-36 0 -71.5 42t-59.5 117.5t-24 176.5q0 72 9.5 144.5t28.5 147.5t47 157q-47 127 -47 276q0 171 62 312
t176 241zM227 1497l-26 -76l358 -124l26 76zM554 1234l-394 -61l12 -79l394 61zM554 1928q56 -108 75 -163t19 -109t-7.5 -105.5t-15 -101.5t-7.5 -98q0 -112 59.5 -177t161.5 -65q115 0 190 76t75 192q0 24 -7.5 69.5t-20 103t-29.5 117.5l-71 261h-85l78 -283
q16 -56 28 -110t19.5 -96t7.5 -62q0 -83 -52 -135.5t-133 -52.5q-69 0 -105 41.5t-36 120.5q0 61 15 144.5t15 160.5q0 61 -18 119t-66 153h-90zM534 1091l-353 -165l34 -72l353 165zM1300 1928q-95 0 -183 -12.5t-168 -37.5l21 -78q74 23 157 35.5t173 12.5t173 -12.5
t157 -35.5l21 78q-79 25 -167.5 37.5t-183.5 12.5zM1300 1711q-67 0 -106 -52.5t-39 -126.5q0 -55 22 -105.5t50.5 -96t50.5 -85.5t22 -74q0 34 22 74t50.5 85.5t50 96t21.5 105.5q0 73 -38 126t-106 53zM913 1058q-61 0 -112 -30t-81.5 -81t-30.5 -112q0 -92 65.5 -157.5
t158.5 -65.5q61 0 111.5 30.5t81 81t30.5 111.5t-30.5 111.5t-81 81t-111.5 30.5zM913 978q59 0 101 -42.5t42 -100.5q0 -59 -42 -101t-101 -42q-60 0 -102 42t-42 101t42.5 101t101.5 42zM1260 1315v-270h80v270h-80zM594 658q-24 -61 -36 -146t-12 -158q0 -64 8.5 -106
t27.5 -42q17 0 39.5 33t67.5 88.5t127 125.5q-56 31 -117 90t-105 115zM1624 1928l-71 -261q-16 -60 -29 -117.5t-20.5 -103t-7.5 -69.5q0 -116 75 -192t190 -76q102 0 161.5 65t59.5 177q0 48 -7.5 98t-15 101.5t-7.5 105.5t19 109t75 163h-90q-48 -95 -66 -153t-18 -119
q0 -77 15 -160.5t15 -144.5q0 -79 -36 -120.5t-105 -41.5q-81 0 -133 52.5t-52 135.5q0 20 7.5 62t20 96t27.5 110l78 283h-85zM1300 1099q-40 0 -77.5 -31.5t-37.5 -62.5q0 -27 31 -41.5t84 -14.5q54 0 84.5 14t30.5 42q0 32 -38 63t-77 31zM1167 631q-36 0 -80 -58
t-91 -214l257 -39q2 24 2.5 47t0.5 44q0 99 -23.5 159.5t-65.5 60.5zM2373 1497l-358 -124l26 -76l358 124zM1687 1058q-61 0 -111.5 -30.5t-81 -81t-30.5 -111.5t30.5 -111.5t81 -81t111.5 -30.5q93 0 158.5 65.5t65.5 157.5q0 61 -30.5 112t-81 81t-112.5 30zM1687 978
q59 0 101.5 -42t42.5 -101t-42 -101t-102 -42q-58 0 -100.5 42t-42.5 101q0 58 42.5 100.5t100.5 42.5zM1433 631q-41 0 -65 -61.5t-24 -158.5q0 -21 0.5 -44t2.5 -47l257 39q-47 156 -91 214t-80 58zM2046 1234l-12 -79l394 -61l12 79zM2066 1091l-34 -72l353 -165l34 72z
M2006 658q-44 -56 -105 -115t-117 -90q83 -70 127.5 -125.5t67.5 -88.5t39 -33q19 0 27.5 42t8.5 106q0 73 -12 158t-36 146z" />
</svg>