<?xml version="1.0" standalone="no"?>
<!DOCTYPE svg PUBLIC "-//W3C//DTD SVG 1.1//EN" "http://www.w3.org/Graphics/SVG/1.1/DTD/svg11.dtd">
<svg xmlns="http://www.w3.org/2000/svg" xmlns:xlink="http://www.w3.org/1999/xlink" version="1.1"
   viewBox="94 -151 2414 2169">
   <path fill="currentColor"
      d="M1300 1978q-216 0 -404.5 -80.5t-331.5 -223.5t-223.5 -331.5t-80.5 -404.5t80.5 -404.5t223.5 -331.5t331.5 -223.5t404.5 -80.5q215 0 403.5 80.5t331.5 223.5t224 331.5t81 404.5t-81 404.5t-224 331.5t-331.5 223.5t-403.5 80.5zM790 845l-55 -44q91 -138 223 -138
q131 0 224 138l-55 44q-69 -107 -169 -107q-99 0 -168 107zM1300 1898q199 0 373 -74.5t306 -206.5t206.5 -306t74.5 -373t-74.5 -373t-206.5 -306t-306 -206.5t-373 -74.5t-373 74.5t-306 206.5t-206.5 306t-74.5 373t74.5 373t206.5 306t306 206.5t373 74.5zM1474 845
l-55 -44q93 -138 223 -138q131 0 224 138l-55 44q-70 -107 -169 -107t-168 107zM1300 1581q136 0 256 -46q-130 -71 -256 -71t-256 71q120 46 256 46zM1300 1636q-125 0 -246.5 -40t-220 -107t-157.5 -149.5t-59 -166.5q0 -41 18 -58.5t49 -17.5q23 0 51 4.5t64 12.5
q96 22 229.5 38t271.5 16t271.5 -16t230.5 -38q36 -8 64 -12.5t50 -4.5q32 0 50 17.5t18 58.5q0 84 -59 166.5t-158 149.5t-220.5 107t-246.5 40zM1300 1303q94 0 201 -7.5t214 -24t200 -41.5v-55q0 -14 -9.5 -17.5t-22.5 -0.5q-80 19 -182 34t-206.5 23.5t-194.5 8.5
q-89 0 -194 -8.5t-206.5 -23.5t-182.5 -34q-13 -3 -22.5 0.5t-9.5 17.5v55q93 25 200 41.5t214.5 24t200.5 7.5z" />
</svg>