<?xml version="1.0" standalone="no"?>
<!DOCTYPE svg PUBLIC "-//W3C//DTD SVG 1.1//EN" "http://www.w3.org/Graphics/SVG/1.1/DTD/svg11.dtd">
<svg xmlns="http://www.w3.org/2000/svg" xmlns:xlink="http://www.w3.org/1999/xlink" version="1.1"
   viewBox="94 -151 2414 2169">
   <path fill="currentColor"
      d="M270 1804v-88l38 -103v-921q0 -78 40.5 -138.5t107 -95t143.5 -34.5h1401q78 0 144 35t106 95.5t40 137.5v921l38 103v88h-2058zM663 1978q-67 0 -113.5 -47t-46.5 -113q0 -48 26 -89h268q26 41 26 89q0 66 -46.5 113t-113.5 47zM663 1893q32 0 53.5 -22t21.5 -53
q0 -32 -21.5 -53.5t-53.5 -21.5q-31 0 -53 21.5t-22 53.5q0 31 22 53t53 22zM982 1909l-44 -128h723l-44 128h-635zM543 1237v-254h234v254h-234zM603 1177h114v-134h-114v134zM1074 1332q-17 0 -17 -17v-212q0 -18 17 -18h93q17 0 17 18v212q0 17 -17 17h-93zM1264 1745
v-821h70v821h-70zM908 1749v-758q0 -56 36 -91t91 -35h528q55 0 91 35t36 91v758h-70v-758q0 -26 -15 -41t-42 -15h-528q-27 0 -42 15t-15 41v758h-70zM356 1726h1886l-32 -92v-862h-1822v862zM1936 1978q-67 0 -113.5 -47t-46.5 -113q0 -48 26 -89h268q26 41 26 89
q0 66 -46.5 113t-113.5 47zM1936 1893q32 0 53.5 -22t21.5 -53q0 -32 -21.5 -53.5t-53.5 -21.5q-31 0 -53 21.5t-22 53.5q0 31 22 53t53 22zM1431 1332q-17 0 -17 -17v-212q0 -18 17 -18h93q17 0 17 18v212q0 17 -17 17h-93zM885 456v-78h270v78h-270zM820 387
q-16 0 -26 -10t-10 -25t10 -25t26 -10h400q16 0 26 10t10 25t-10 25t-26 10h-400zM984 395l-168 -170q-14 -14 -14.5 -33.5t14.5 -34.5l162 -161h86l162 161q15 15 14.5 34.5t-14.5 33.5l-168 170q-15 16 -37 16t-37 -16zM1021 330l132 -129v-21l-132 -131l-132 131v21z
M1821 1237v-254h234v254h-234zM1881 1177h114v-134h-114v134zM906 71v-173h229v173h-229zM271 16v-80h2059v80h-2059z" />
</svg>