<?xml version="1.0" standalone="no"?>
<!DOCTYPE svg PUBLIC "-//W3C//DTD SVG 1.1//EN" "http://www.w3.org/Graphics/SVG/1.1/DTD/svg11.dtd">
<svg xmlns="http://www.w3.org/2000/svg" xmlns:xlink="http://www.w3.org/1999/xlink" version="1.1"
   viewBox="94 -151 2414 2169">
   <path fill="currentColor"
      d="M1300 1978q-216 0 -404.5 -80.5t-331.5 -223.5t-223.5 -331.5t-80.5 -404.5q0 -164 48 -313t133 -274l-30 223q-34 84 -52.5 175.5t-18.5 188.5q0 199 74.5 373t206.5 306t306 206.5t373 74.5t373 -74.5t306 -206.5t206.5 -306t74.5 -373t-74.5 -373t-206.5 -306
t-306 -206.5t-373 -74.5q-143 0 -274.5 40t-244.5 112l-47 -65q122 -80 265.5 -123.5t300.5 -43.5q215 0 403.5 80.5t331.5 223.5t224 331.5t81 404.5t-81 404.5t-224 331.5t-331.5 223.5t-403.5 80.5zM1008 1607l-46 -66q170 -120 338 -120q169 0 338 120l-46 66
q-148 -106 -292 -106t-292 106zM677 1162l-30 -74q123 -48 246 -48t246 48l-30 74q-108 -42 -216 -42t-216 42zM675 773q105 0 168 -61.5t63 -164.5q0 -134 -103 -294l-128 -199l-128 199q-103 160 -103 294q0 103 63 164.5t168 61.5zM675 853q-138 0 -224.5 -85t-86.5 -221
q0 -159 115 -338l196 -303l196 303q115 179 115 338q0 136 -86.5 221t-224.5 85zM1491 1162l-30 -74q123 -48 246 -48t246 48l-30 74q-108 -42 -216 -42t-216 42z" />
</svg>