<?xml version="1.0" standalone="no"?>
<!DOCTYPE svg PUBLIC "-//W3C//DTD SVG 1.1//EN" "http://www.w3.org/Graphics/SVG/1.1/DTD/svg11.dtd">
<svg xmlns="http://www.w3.org/2000/svg" xmlns:xlink="http://www.w3.org/1999/xlink" version="1.1"
   viewBox="94 -151 2414 2169">
   <path fill="currentColor"
      d="M1300 1978q-203 -69 -363 -222t-272 -378t-171 -511t-59 -620v-70q305 -21 528 -94t337 -185q114 112 337 185t528 94v70q0 334 -59 620t-171 511t-272 378t-363 222zM1300 1894q183 -69 328.5 -216.5t247 -360.5t155.5 -482.5t54 -583.5q-244 -20 -450 -84t-335 -163
q-129 99 -334.5 163t-450.5 84q0 314 53.5 583.5t155.5 482.5t247.5 360.5t328.5 216.5zM1300 1700q-147 -61 -261 -186t-193 -299.5t-120.5 -383.5t-43.5 -438q204 -22 355 -69.5t263 -132.5q113 85 263.5 132.5t354.5 69.5q-1 229 -42.5 438t-120.5 383.5t-193.5 299.5
t-261.5 186zM1300 1623v-1345q-104 69 -237.5 111t-308.5 66q8 282 77 519t189 405t280 244z" />
</svg>