<?xml version="1.0" standalone="no"?>
<!DOCTYPE svg PUBLIC "-//W3C//DTD SVG 1.1//EN" "http://www.w3.org/Graphics/SVG/1.1/DTD/svg11.dtd">
<svg xmlns="http://www.w3.org/2000/svg" xmlns:xlink="http://www.w3.org/1999/xlink" version="1.1"
   viewBox="94 -151 2414 2169">
   <path fill="currentColor"
      d="M1300 1778q-178 0 -348.5 -10.5t-337.5 -30.5q-82 -10 -139 -64.5t-68 -138.5q-7 -53 -10.5 -105.5t-3.5 -105.5q0 -85 7 -171.5t19.5 -161.5t27.5 -123l57 -30l192 -421q29 -62 85 -101.5t124 -46.5q98 -10 198 -14t197 -4q98 0 197.5 4t197.5 14q68 7 124.5 46.5
t84.5 101.5l192 421l57 30q16 48 28 123t19 161.5t7 171.5q0 53 -3.5 105.5t-10.5 105.5q-10 84 -67.5 138.5t-139.5 64.5q-167 20 -337 30.5t-349 10.5zM509 1978q-24 0 -40 -16t-16 -40v-330l238 128v202q0 24 -16 40t-40 16h-126zM461 1362v-70h317q-9 -26 -21 -51.5
t-26 -49.5h-270v-70h309q32 48 60 112t41 129h-410zM340 864q-28 0 -46.5 -18t-18.5 -45v-41q0 -28 18.5 -44.5t46.5 -16.5h87q29 0 47 18.5t18 46.5v29h79l5 71h-236zM1300 1560q-204 0 -339.5 -4t-226.5 -12t-160.5 -20.5t-142.5 -29.5l26 -74q72 17 138.5 29t153.5 19
t218.5 10.5t332.5 3.5t332.5 -3.5t218.5 -10.5t153.5 -19t138.5 -29l26 74q-73 17 -142.5 29.5t-160.5 20.5t-226.5 12t-339.5 4zM1015 1361q-31 0 -53.5 -19t-36.5 -56l-33 -93q-8 -23 7.5 -41t48.5 -24q81 -15 172.5 -22.5t179.5 -7.5t179.5 7.5t172.5 22.5q33 6 48.5 24
t7.5 41l-33 93q-13 37 -36 56t-54 19h-570zM1965 1978q-24 0 -40 -16t-16 -40v-202l238 -128v330q0 24 -16 40t-40 16h-126zM1300 1700q173 0 340.5 -9t335.5 -31q57 -8 94 -44.5t44 -91.5q7 -53 10 -102.5t3 -98.5q0 -108 -11.5 -219.5t-30.5 -190.5l-53 -27l-201 -437
q-20 -44 -58 -71t-86 -32q-88 -10 -185 -14t-202 -4t-201.5 4t-185.5 14q-48 5 -86 32t-58 71l-201 437l-53 27q-19 79 -30.5 190.5t-11.5 219.5q0 49 3 98.5t10 102.5q8 55 44.5 91.5t93.5 44.5q168 22 336 31t340 9zM826 673l11 -94q3 -23 19 -37.5t39 -14.5h102
q51 0 57 52l11 94h-239zM598 801v-150h1404v150h-1404zM1729 1362q13 -65 41.5 -129t59.5 -112h309v70h-270q-14 24 -26 49.5t-21 51.5h317v70h-410zM1535 673l11 -94q7 -52 57 -52h102q23 0 39 14.5t19 37.5l11 94h-239zM994 306v-262l183 -146h246l183 146v262h-80v-223
l-131 -105h-190l-131 105v223h-80zM2024 864l5 -71h79v-29q0 -28 18.5 -46.5t46.5 -18.5h87q29 0 47 16.5t18 44.5v41q0 27 -18 45t-47 18h-236zM1118 203v-73h73v73h-73zM1191 130v-72h72v72h-72zM1263 203v-73h74v73h-74zM1409 203v-73h73v73h-73zM1337 130v-72h72v72h-72
z" />
</svg>