<?xml version="1.0" standalone="no"?>
<!DOCTYPE svg PUBLIC "-//W3C//DTD SVG 1.1//EN" "http://www.w3.org/Graphics/SVG/1.1/DTD/svg11.dtd">
<svg xmlns="http://www.w3.org/2000/svg" xmlns:xlink="http://www.w3.org/1999/xlink" version="1.1"
   viewBox="94 -151 2414 2169">
   <path fill="currentColor"
      d="M424 1978q-70 0 -117 -46.5t-47 -116.5v-1754q0 -71 46.5 -117t116.5 -46h1754q71 0 117 46t46 117v1753q0 71 -46 117.5t-117 46.5h-1753zM456 1906q0 -62 7 -113.5t25 -88.5q13 -27 31.5 -50t52.5 -51q21 -17 33 -33t22 -32q10 -17 16.5 -35t14.5 -46q17 -59 32 -94
t35 -60t52 -52q15 -13 26.5 -24.5t21.5 -25.5q7 -10 12.5 -23.5t11.5 -31.5q7 -21 17 -44t22 -41t27.5 -33.5t34.5 -31.5l12 -10q14 -12 18.5 -28t15.5 -38h84q-30 25 -34 46t-20 46t-34 38.5t-36 32.5t-36 64l-8 20q-8 21 -16 40.5t-16 30.5q-10 16 -24.5 30.5t-35.5 32.5
q-19 17 -33 31.5t-23 31.5q-10 19 -20.5 44.5t-22.5 66.5q-10 34 -18 55t-19 41q-15 25 -32 45.5t-38 37.5q-27 22 -41 39t-26 40q-16 31 -20.5 73.5t-4.5 95.5zM645 1813q-24 0 -24 -32q0 -43 34.5 -83.5t69.5 -40.5h1150q35 0 69.5 40.5t34.5 83.5q0 32 -24 32h-1310z
M776 1907l447 -987h55l-390 987h-112zM793 1567q-17 0 -17 -23q0 -34 26 -70.5t51 -36.5h894q25 0 51 36.5t26 70.5q0 23 -17 23h-1014zM919 1357q-11 0 -11 -16q0 -26 19.5 -55t36.5 -29h672q17 0 36.5 29t19.5 55q0 16 -11 16h-762zM1105 939q-8 -17 -33 -32t-57 -19
l-28 -4q-52 -8 -110 -55t-138 -134l-38 -41q-79 -86 -136.5 -129t-115 -58t-137.5 -15v-76q90 0 157.5 17.5t134 66t153.5 142.5l38 41q78 85 124.5 123t79.5 43l27 4q53 7 94 34.5t57 63.5zM1014 1187q-7 0 -7 -10q0 -20 14 -41t27 -21h504q13 0 27 21t14 41q0 10 -7 10
h-572zM1712 1907l-390 -987h55l447 987h-112zM1085 1055q-4 0 -4 -6q0 -14 10.5 -30t19.5 -16h378q9 0 19.5 16t10.5 30q0 6 -4 6h-430zM424 1898h1753q38 0 60.5 -23t22.5 -61v-1753q0 -38 -22.5 -60.5t-60.5 -22.5h-1754q-37 0 -60 22.5t-23 60.5v1754q0 37 23.5 60
t60.5 23zM319 939v-78h1959v78h-1959zM2144 1906l-66 -4q0 -53 -4.5 -95.5t-20.5 -73.5q-12 -23 -26 -40t-41 -39q-21 -17 -38 -37.5t-32 -45.5q-11 -20 -18.5 -41t-18.5 -55q-12 -41 -22.5 -66.5t-20.5 -44.5q-9 -17 -22.5 -31.5t-33.5 -31.5q-21 -18 -35 -32.5t-25 -30.5
q-7 -11 -15.5 -30.5t-16.5 -40.5l-8 -20q-17 -45 -35.5 -64t-36 -32.5t-34.5 -38.5q-16 -25 -20 -46t-34 -46h84q11 22 15.5 38t18.5 28l12 10q20 16 35 31.5t27 33.5t22 41t17 44q6 18 11.5 31.5t12.5 23.5q10 14 21.5 25.5t26.5 24.5q32 27 52 52t35 60t32 94
q8 28 14.5 46t16.5 35q10 16 22 32t33 33q34 28 52.5 51t31.5 50q18 37 25 88.5t7 113.5zM1595 907l-91 -41q41 -22 94 -37t120 -19l34 -2q38 -2 63.5 -10t55.5 -32.5t80 -74.5l25 -25q98 -98 176 -155.5t136 -57.5v76q-31 0 -94 45t-164 146l-25 25q-58 58 -96.5 87
t-72.5 39t-80 13l-34 2q-38 2 -69.5 7t-57.5 14zM2099 1316q-90 0 -90 -39q0 -16 6 -32q-12 2 -23.5 2.5t-21.5 0.5q-28 0 -51.5 -5.5t-23.5 -9.5q0 -23 14 -58t31.5 -62.5t27.5 -27.5q12 0 32 28t33 68q31 -113 46 -154t26 -41q12 0 26.5 30.5t27 79t20.5 104t8 104.5
q0 5 -22 8.5t-66 3.5zM1763 1006q-77 0 -77 -31q0 -46 13.5 -102.5t31.5 -97.5t32 -41t32 41t31.5 97.5t13.5 102.5q0 31 -77 31zM688 1056q-85 0 -85 -35q0 -51 15 -113t35 -107t35 -45q16 0 35.5 45t34.5 107t15 113q0 35 -85 35zM494 1325q-63 0 -85 -19q-39 17 -110 17
v-539q22 5 47 53t48.5 119.5t37.5 148.5q15 -47 32 -79.5t30 -32.5t29 29.5t31 75.5t24.5 96t9.5 91q0 40 -94 40z" />
</svg>