<?xml version="1.0" standalone="no"?>
<!DOCTYPE svg PUBLIC "-//W3C//DTD SVG 1.1//EN" "http://www.w3.org/Graphics/SVG/1.1/DTD/svg11.dtd">
<svg xmlns="http://www.w3.org/2000/svg" xmlns:xlink="http://www.w3.org/1999/xlink" version="1.1"
   viewBox="94 -151 2414 2169">
   <path fill="currentColor"
      d="M200 1620q-64 0 -89.5 -34t-25.5 -104v-464q0 -38 20.5 -80.5t57.5 -75.5t86 -42l377 -70l109 -151q68 -94 135.5 -157.5t149.5 -101t190 -54t257 -16.5q147 0 257.5 19t198 64t164.5 122t157 193l219 144q29 19 40.5 38t11.5 51v582q0 57 -36 97t-105 40h-99v-80h99
q61 0 61 -57v-580q0 -8 -4.5 -14t-12.5 -11l-231 -152q-76 -112 -147 -185t-150.5 -115t-181.5 -59t-241 -17q-136 0 -234 13.5t-172 46.5t-135.5 90.5t-125.5 145.5l-128 177l-408 76q-24 4 -47 23.5t-37.5 45t-14.5 50.5v465q0 28 6 42.5t29 14.5h281v80h-281zM674 1778
q-71 0 -130 -35t-94 -94t-35 -131q0 -71 35 -129t94 -93t130 -35q72 0 131 35t94 93t35 129q0 72 -35 131t-94 94t-131 35zM674 1688q71 0 120.5 -50t49.5 -120q0 -68 -50 -117.5t-120 -49.5t-119.5 49.5t-49.5 117.5q0 70 49.5 120t119.5 50zM148 1264v-68h149l41 -136
q2 -8 -2.5 -15t-13.5 -7h-184v-68h222q30 0 45.5 24.5t6.5 55.5l-64 214h-200zM930 1288v-122h122v122h-122zM870 1620v-78h973v78h-973zM1052 1166v-122h122v122h-122zM1174 1288v-122h122v122h-122zM1296 1166v-122h122v122h-122zM1418 1288v-122h122v122h-122zM989 839
h444v-303q-120 0 -201 16t-137.5 54.5t-105.5 106.5l-28 39q-29 41 -22 64t50 23zM1540 1166v-122h122v122h-122zM1662 1288v-122h122v122h-122zM2063 1778q-71 0 -130 -35t-94 -94t-35 -131q0 -71 35 -129t94 -93t130 -35q72 0 131 35t94 93t35 129q0 72 -35 131t-94 94
t-131 35zM2063 1688q71 0 120.5 -50t49.5 -120q0 -68 -50 -117.5t-120 -49.5t-119.5 49.5t-49.5 117.5q0 70 49.5 120t119.5 50zM960 911q-87 0 -108 -54.5t35 -136.5l24 -35q62 -90 130.5 -139t169 -68.5t256.5 -19.5q118 0 202 12.5t149.5 45t125 91.5t128.5 152l-96 152
h-1016zM1503 839h428l45 -72q-56 -81 -117 -132t-145.5 -75t-210.5 -24v303zM1469 332l-276 -6l77 -228h447l79 228zM2337 1205v-230h149v230h-149z" />
</svg>