<?xml version="1.0" standalone="no"?>
<!DOCTYPE svg PUBLIC "-//W3C//DTD SVG 1.1//EN" "http://www.w3.org/Graphics/SVG/1.1/DTD/svg11.dtd">
<svg xmlns="http://www.w3.org/2000/svg" xmlns:xlink="http://www.w3.org/1999/xlink" version="1.1"
   viewBox="94 -151 2414 2169">
   <path fill="currentColor"
      d="M1300 1978q-216 0 -404.5 -80.5t-331.5 -223.5t-223.5 -331.5t-80.5 -404.5t80.5 -404.5t223.5 -331.5t331.5 -223.5t404.5 -80.5q215 0 403.5 80.5t331.5 223.5t224 331.5t81 404.5t-81 404.5t-224 331.5t-331.5 223.5t-403.5 80.5zM1036 1563v-80h528v80h-528z
M888 1137q-67 0 -129.5 -31t-110.5 -87l60 -53q79 91 180 91q102 0 179 -92l60 53q-47 58 -109.5 88.5t-129.5 30.5zM575 718l-21 -77q111 -29 180 -71t112 -106l67 43q-49 76 -129.5 126.5t-208.5 84.5zM1300 1898q199 0 373 -74.5t306 -206.5t206.5 -306t74.5 -373
t-74.5 -373t-206.5 -306t-306 -206.5t-373 -74.5t-373 74.5t-306 206.5t-206.5 306t-74.5 373t74.5 373t206.5 306t306 206.5t373 74.5zM1712 1137q-67 0 -129.5 -30.5t-109.5 -88.5l60 -53q77 92 179 92q101 0 180 -91l60 53q-48 56 -110.5 87t-129.5 31zM2025 718
q-127 -34 -207.5 -84.5t-130.5 -126.5l67 -43q43 64 112 106t180 71z" />
</svg>