<?xml version="1.0" standalone="no"?>
<!DOCTYPE svg PUBLIC "-//W3C//DTD SVG 1.1//EN" "http://www.w3.org/Graphics/SVG/1.1/DTD/svg11.dtd">
<svg xmlns="http://www.w3.org/2000/svg" xmlns:xlink="http://www.w3.org/1999/xlink" version="1.1"
   viewBox="94 -151 2414 2169">
   <path fill="currentColor"
      d="M1300 1439q-292 0 -497.5 -28t-313.5 -80.5t-108 -125.5q0 -71 93 -118q0 -163 63.5 -299.5t176.5 -236.5t263 -155t323 -55t323 55t263 155t176.5 236.5t63.5 299.5q93 47 93 118q0 73 -108 125.5t-313 80.5t-498 28zM1300 1928q-169 0 -339 -15t-320.5 -40.5t-262 -59
t-164.5 -70.5q11 -232 83 -333.5t226 -101.5q43 0 98 13l-20 78q-21 -5 -40.5 -8t-37.5 -3q-74 0 -121 30t-71.5 98t-33.5 184q53 28 160 54.5t247.5 47.5t294.5 33.5t301 12.5t301 -12.5t294.5 -33.5t247.5 -47.5t160 -54.5q-9 -116 -33.5 -184t-71 -98t-121.5 -30
q-18 0 -37.5 3t-40.5 8l-20 -78q55 -13 98 -13q154 0 226 101.5t83 333.5q-52 37 -164 70.5t-262.5 59t-320.5 40.5t-339 15zM1300 1239q-271 0 -481 -27.5t-321 -76.5l32 -74q104 47 305 72.5t465 25.5v80zM1300 1545q-184 0 -345 -11.5t-283 -31.5t-190.5 -45.5
t-68.5 -54.5q0 -15 34 -22.5t119 -9.5t237 -2l497 38l497 -38q152 0 237 2t119 9.5t34 22.5q0 29 -68.5 54.5t-190.5 45.5t-282.5 31.5t-345.5 11.5zM825 910q-10 27 -31.5 29t-36.5 -13.5t-7 -39.5q31 -86 81 -147t116 -103q24 -15 42 -2t21 35t-21 36q-55 32 -96.5 82
t-67.5 123zM1300 1359q165 0 316 -13t269 -34.5t186 -49t68 -57.5t-92 -65v-11v-35q0 -146 -56 -269t-157.5 -213.5t-237.5 -140.5t-296 -50t-296 50t-237.5 140.5t-157.5 213.5t-56 269v35v11q-92 35 -92 65t68 57.5t186 49t269 34.5t316 13zM1235 381v-186h130v186h-130z
M1300 240q-89 0 -153 -13.5t-100 -31.5l-8 -91q23 -65 99 -110.5t162 -45.5t162 45.5t99 110.5l-8 91q-36 18 -100 31.5t-153 13.5zM1300 150q61 0 110.5 -7t81.5 -20q-13 -38 -69.5 -71.5t-122.5 -33.5t-122.5 33.5t-69.5 71.5q32 13 81.5 20t110.5 7z" />
</svg>