<?xml version="1.0" standalone="no"?>
<!DOCTYPE svg PUBLIC "-//W3C//DTD SVG 1.1//EN" "http://www.w3.org/Graphics/SVG/1.1/DTD/svg11.dtd">
<svg xmlns="http://www.w3.org/2000/svg" xmlns:xlink="http://www.w3.org/1999/xlink" version="1.1"
   viewBox="94 -151 2414 2169">
   <path fill="currentColor"
      d="M1233 1274q-26 0 -43.5 -17.5t-17.5 -43.5v-1183q0 -35 23.5 -58.5t58.5 -23.5h1156q35 0 58.5 23.5t23.5 58.5v1183q0 26 -17.5 43.5t-43.5 17.5h-1198zM687 1928q-68 0 -124.5 -33t-89.5 -89t-33 -124q0 -69 33 -125t89.5 -89t124.5 -33q69 0 125 33t89 89t33 125
q0 68 -33 124t-89 89t-125 33zM687 1828q62 0 104.5 -42.5t42.5 -103.5q0 -62 -42.5 -104.5t-104.5 -42.5q-61 0 -104 42.5t-43 104.5q0 61 43 103.5t104 42.5zM156 1315v-70h146v-90h-146v-70h216v230h-216zM142 1583v-137h217l172 -231h662v365l-293 -2l-219 -98l-204 103
h-335zM215 1639q-53 0 -80 -34.5t-27 -87.5v-476q0 -58 51 -88l84 -50l273 -417q31 -48 98 -48h582v80h-567q-23 0 -36 8t-28 31l-265 406l-112 66v530h412l-88 80h-297zM448 1041q-19 0 -22.5 -13.5t10.5 -34.5l209 -320q17 -26 46 -40.5t65 -14.5h230q17 0 29 13t12 30
v339q0 17 -12.5 29t-29.5 12h-537zM584 961h337q26 0 26 -25v-213q0 -25 -26 -25h-148q-25 0 -42.5 9.5t-31.5 29.5l-128 196q-19 28 13 28zM1727 1742q-24 0 -37 -17.5t-6 -40.5l44 -150h-192l-7 105h-662l-73 -80h378v-388h80v388h204l4 -105h899q21 0 37 -16t16 -37v-225
h80v215q0 70 -40 106.5t-96 36.5h-38l43 150q7 23 -6 40.5t-37 17.5h-99l-86 -259h-202l-106 259h-98zM2024 1928q-68 0 -124.5 -33t-89.5 -89t-33 -124q0 -67 32.5 -122.5t84.5 -87.5h260q53 32 85 87.5t32 122.5q0 68 -33 124t-89 89t-125 33zM2024 1828q62 0 104.5 -42.5
t42.5 -103.5q0 -62 -42.5 -104.5t-104.5 -42.5q-61 0 -104 42.5t-43 104.5q0 61 43 103.5t104 42.5zM1293 1194h199v-1166h-199q-17 0 -29 12t-12 29v1084q0 17 12 29t29 12zM1572 1194h220v-1166h-220v1166zM1872 1194h220v-1166h-220v1166zM2172 1194h199q17 0 29 -10
t12 -31v-1084q0 -17 -12 -29t-29 -12h-199v1166z" />
</svg>