<?xml version="1.0" standalone="no"?>
<!DOCTYPE svg PUBLIC "-//W3C//DTD SVG 1.1//EN" "http://www.w3.org/Graphics/SVG/1.1/DTD/svg11.dtd">
<svg xmlns="http://www.w3.org/2000/svg" xmlns:xlink="http://www.w3.org/1999/xlink" version="1.1"
   viewBox="94 -151 2414 2169">
   <path fill="currentColor"
      d="M1300 1978q-216 0 -404.5 -80.5t-331.5 -223.5t-223.5 -331.5t-80.5 -404.5t80.5 -404.5t223.5 -331.5t331.5 -223.5t404.5 -80.5q215 0 403.5 80.5t331.5 223.5t224 331.5t81 404.5t-81 404.5t-224 331.5t-331.5 223.5t-403.5 80.5zM1300 1685q-89 0 -152 -63.5
t-63 -152.5q0 -60 29 -108.5t78 -77.5t108 -29q60 0 109 29t78 77.5t29 108.5q0 89 -63 152.5t-153 63.5zM898 968q-52 0 -89 -44t-37 -106t37 -106.5t89 -44.5t89 44.5t37 106.5q0 61 -36.5 105.5t-89.5 44.5zM1300 1898q199 0 373 -74.5t306 -206.5t206.5 -306t74.5 -373
t-74.5 -373t-206.5 -306t-306 -206.5t-373 -74.5t-373 74.5t-306 206.5t-206.5 306t-74.5 373t74.5 373t206.5 306t306 206.5t373 74.5zM652 471l-46 -52q72 -65 164 -100t215 -35v70q-112 0 -191 30.5t-142 86.5zM1702 968q-52 0 -89 -44.5t-37 -105.5q0 -62 37 -106.5
t89 -44.5t89 44.5t37 106.5q0 61 -36.5 105.5t-89.5 44.5zM1948 471q-62 -56 -141.5 -86.5t-191.5 -30.5v-70q124 0 216 35t163 100z" />
</svg>