<?xml version="1.0" standalone="no"?>
<!DOCTYPE svg PUBLIC "-//W3C//DTD SVG 1.1//EN" "http://www.w3.org/Graphics/SVG/1.1/DTD/svg11.dtd">
<svg xmlns="http://www.w3.org/2000/svg" xmlns:xlink="http://www.w3.org/1999/xlink" version="1.1"
   viewBox="94 -151 2414 2169">
   <path fill="currentColor"
      d="M1300 1978q-216 0 -404.5 -80.5t-331.5 -223.5t-223.5 -331.5t-80.5 -404.5t80.5 -404.5t223.5 -331.5t331.5 -223.5t404.5 -80.5q215 0 403.5 80.5t331.5 223.5t224 331.5t81 404.5t-81 404.5t-224 331.5t-331.5 223.5t-403.5 80.5zM636 1404q-22 -11 -12 -34l56 -114
q10 -24 33 -13q24 11 12 33l-55 115q-12 23 -34 13zM746 1432q-9 -5 -13 -14.5t1 -19.5l82 -170q12 -24 33 -13q10 4 14 13.5t-1 19.5l-83 171q-11 23 -33 13zM882 1404q-22 -11 -12 -34l56 -114q10 -24 33 -13q24 11 12 33l-55 115q-12 23 -34 13zM1128 1585v-80h344v80
h-344zM831 1165q-82 0 -150 -40.5t-108.5 -108.5t-40.5 -150q0 -83 40.5 -151t108.5 -108t150 -40q83 0 151 40t108 108t40 151q0 82 -40 150t-108 108.5t-151 40.5zM831 1105q67 0 121 -32.5t86 -86.5t32 -120q0 -67 -32 -121t-86 -86t-121 -32q-66 0 -120 32t-86.5 86
t-32.5 121q0 66 32.5 120t86.5 86.5t120 32.5zM831 969q-43 0 -73 -30t-30 -73t30 -73.5t73 -30.5t73.5 30.5t30.5 73.5t-30.5 73t-73.5 30zM1641 1404q-22 -11 -12 -34l56 -114q10 -24 33 -13q24 11 12 33l-55 115q-12 23 -34 13zM1300 1898q199 0 373 -74.5t306 -206.5
t206.5 -306t74.5 -373t-74.5 -373t-206.5 -306t-306 -206.5t-373 -74.5t-373 74.5t-306 206.5t-206.5 306t-74.5 373t74.5 373t206.5 306t306 206.5t373 74.5zM1751 1432q-9 -5 -13 -14.5t1 -19.5l82 -170q12 -24 33 -13q10 4 14 13.5t-1 19.5l-83 171q-11 23 -33 13z
M695 381l-31 -62q44 -23 91.5 -33t100.5 -10q47 0 97.5 8t105.5 22l-18 68q-49 -14 -95.5 -21t-88.5 -7q-46 0 -86 8.5t-76 26.5zM1887 1404q-22 -11 -12 -34l56 -114q10 -24 33 -13q24 11 12 33l-55 115q-12 23 -34 13zM1769 1165q-82 0 -150 -40.5t-108.5 -108.5
t-40.5 -150q0 -83 40.5 -151t108.5 -108t150 -40q83 0 151 40t108 108t40 151q0 82 -40 150t-108 108.5t-151 40.5zM1769 1105q67 0 121 -32.5t86 -86.5t32 -120q0 -67 -32 -121t-86 -86t-121 -32q-66 0 -120.5 32t-86.5 86t-32 121q0 66 32 120t86.5 86.5t120.5 32.5z
M1769 969q-43 0 -73 -30t-30 -73t30 -73.5t73 -30.5t73.5 30.5t30.5 73.5t-30.5 73t-73.5 30zM1905 381q-36 -18 -75.5 -26.5t-85.5 -8.5q-43 0 -89 7t-96 21l-18 -68q55 -14 106 -22t97 -8q53 0 101 10t91 33z" />
</svg>