<?xml version="1.0" standalone="no"?>
<!DOCTYPE svg PUBLIC "-//W3C//DTD SVG 1.1//EN" "http://www.w3.org/Graphics/SVG/1.1/DTD/svg11.dtd">
<svg xmlns="http://www.w3.org/2000/svg" xmlns:xlink="http://www.w3.org/1999/xlink" version="1.1"
   viewBox="94 -151 2414 2169">
   <path fill="currentColor"
      d="M1300 1978q-216 0 -404.5 -80.5t-331.5 -223.5t-223.5 -331.5t-80.5 -404.5t80.5 -404.5t223.5 -331.5t331.5 -223.5t404.5 -80.5q215 0 403.5 80.5t331.5 223.5t224 331.5t81 404.5t-81 404.5t-224 331.5t-331.5 223.5t-403.5 80.5zM1300 1466q-118 0 -231 -41
t-223 -115l44 -67q102 68 202 105.5t208 37.5t208 -37.5t202 -105.5l44 67q-110 74 -222.5 115t-231.5 41zM948 968q-51 0 -88 -44.5t-37 -105.5q0 -62 37 -106t88 -44t88 44t37 106q0 61 -37 105.5t-88 44.5zM1300 1898q199 0 373 -74.5t306 -206.5t206.5 -306t74.5 -373
t-74.5 -373t-206.5 -306t-306 -206.5t-373 -74.5t-373 74.5t-306 206.5t-206.5 306t-74.5 373t74.5 373t206.5 306t306 206.5t373 74.5zM715 586l-70 -38q46 -83 121.5 -139.5t197.5 -100.5l28 76q-111 40 -175 86.5t-102 115.5zM1863 990q-65 -32 -133.5 -47.5
t-139.5 -15.5q-18 0 -36 1t-41 4l-35 -77q91 -82 182.5 -142t182.5 -96l30 74q-58 23 -120 59t-143 97h6h6q69 0 140 20t135 51z" />
</svg>