<?xml version="1.0" standalone="no"?>
<!DOCTYPE svg PUBLIC "-//W3C//DTD SVG 1.1//EN" "http://www.w3.org/Graphics/SVG/1.1/DTD/svg11.dtd">
<svg xmlns="http://www.w3.org/2000/svg" xmlns:xlink="http://www.w3.org/1999/xlink" version="1.1"
   viewBox="94 -151 2414 2169">
   <path fill="currentColor"
      d="M1300 1978q-216 0 -404.5 -80.5t-331.5 -223.5t-223.5 -331.5t-80.5 -404.5t80.5 -404.5t223.5 -331.5t331.5 -223.5t404.5 -80.5q215 0 403.5 80.5t331.5 223.5t224 331.5t81 404.5t-81 404.5t-224 331.5t-331.5 223.5t-403.5 80.5zM830 1482h60v-400h-60v400z
M1050 1482h60v-400h-60v400zM862 1518h876q102 0 168.5 -66.5t66.5 -168.5t-66.5 -168.5t-168.5 -66.5h-876q-102 0 -168.5 66.5t-66.5 168.5t66.5 168.5t168.5 66.5zM862 1448q-73 0 -119 -46t-46 -119q0 -74 46 -119.5t119 -45.5h876q74 0 119.5 45.5t45.5 119.5
q0 73 -45.5 119t-119.5 46h-876zM672 1313h1256v-60h-1256v60zM1270 1482h60v-400h-60v400zM948 858q-52 0 -89 -42.5t-37 -107.5t37 -108t89 -43t89 43t37 108q0 64 -36.5 107t-89.5 43zM1490 1482h60v-400h-60v400zM1300 1898q199 0 373 -74.5t306 -206.5t206.5 -306
t74.5 -373t-74.5 -373t-206.5 -306t-306 -206.5t-373 -74.5t-373 74.5t-306 206.5t-206.5 306t-74.5 373t74.5 373t206.5 306t306 206.5t373 74.5zM1710 1482h60v-400h-60v400zM1652 858q-52 0 -89 -42.5t-37 -107.5t37 -108t89 -43t89 43t37 108q0 64 -36.5 107t-89.5 43z
" />
</svg>