<?xml version="1.0" standalone="no"?>
<!DOCTYPE svg PUBLIC "-//W3C//DTD SVG 1.1//EN" "http://www.w3.org/Graphics/SVG/1.1/DTD/svg11.dtd">
<svg xmlns="http://www.w3.org/2000/svg" xmlns:xlink="http://www.w3.org/1999/xlink" version="1.1"
   viewBox="94 -151 2414 2169">
   <path fill="currentColor"
      d="M185 1633q-45 0 -75 -29t-30 -73q0 -150 18 -290t45 -250q14 -58 56.5 -94t99.5 -52l114 -32l255 -482q-31 -62 -31 -128q0 -91 65 -148t169 -57h1271q51 0 90.5 32.5t53.5 85.5q92 337 147.5 675t85.5 671q7 74 -40.5 122.5t-121.5 48.5h-155v-80h155q40 0 62.5 -23.5
t19.5 -60.5q-29 -362 -89 -693.5t-141 -638.5q-7 -29 -25.5 -45t-41.5 -16h-1271q-72 0 -113 35t-41 92q0 59 42 127l-291 551l-148 41q-41 11 -66 33.5t-33 54.5q-32 124 -46.5 265.5t-14.5 277.5h206v80h-181zM532 1878q-64 0 -117.5 -31.5t-85.5 -85t-32 -118.5t32 -118
t85.5 -84.5t117.5 -31.5t117 31.5t85 84.5t32 118t-32 118.5t-85 85t-117 31.5zM532 1778q56 0 95 -40t39 -95t-39.5 -94.5t-94.5 -39.5t-95 39.5t-40 94.5q0 56 39.5 95.5t95.5 39.5zM124 1352v-70h71q58 0 94.5 -17t51.5 -46l37 -73q11 -21 -1 -34.5t-29 -13.5h-162v-70
h162q34 0 61 21t38 52.5t-4 63.5l-38 83q-24 52 -80 78t-130 26h-71zM740 1633l-68 -113l-127 -93l-128 59l-68 85h-224l11 -188h398q54 0 85.5 7.5t57.5 28.5t62 62h1066q42 -50 82.5 -74t85.5 -24h309l71 51l96 21l-8 116h-192l-96 -76l-148 -53l-119 80l-70 111h-1076z
M338 1311l81 -138h1861v138h-1942zM670 886q-19 0 -20 -13.5t10 -33.5l189 -351q16 -29 47 -46.5t64 -17.5h174q17 0 29 13t12 30v378q0 17 -12.5 29t-29.5 12h-463zM798 808h283q16 0 16 -16v-274q0 -16 -16 -16h-121q-13 0 -25.5 7t-17.5 18l-136 252q-6 11 -0.5 20
t17.5 9zM2034 1878q-64 0 -117.5 -31.5t-85.5 -85t-32 -118.5t32 -118t85.5 -84.5t117.5 -31.5t117 31.5t85 84.5t32 118t-32 118.5t-85 85t-117 31.5zM2034 1778q56 0 95 -40t39 -95t-39.5 -94.5t-94.5 -39.5t-95 39.5t-40 94.5q0 56 39.5 95.5t95.5 39.5zM1371 808h703
q9 0 15 -6.5t4 -15.5l-54 -271q-3 -13 -16 -13h-652q-17 0 -17 17v272q0 17 17 17zM1318 886q-17 0 -29.5 -12t-12.5 -29v-378q0 -17 12 -30t29 -13h750q17 0 27 13t14 30l72 359q6 28 -9.5 44t-42.5 16h-810zM2377 1478q-54 0 -93 -39t-39 -95v-168q0 -57 37.5 -94.5
t92.5 -37.5h40v70h-40q-26 0 -43 17t-17 45v168q0 26 18.5 45t43.5 19h75v70h-75z" />
</svg>