<?xml version="1.0" standalone="no"?>
<!DOCTYPE svg PUBLIC "-//W3C//DTD SVG 1.1//EN" "http://www.w3.org/Graphics/SVG/1.1/DTD/svg11.dtd">
<svg xmlns="http://www.w3.org/2000/svg" xmlns:xlink="http://www.w3.org/1999/xlink" version="1.1"
   viewBox="94 -151 2414 2169">
   <path fill="currentColor"
      d="M1512 1978l-384 -153l71 -344v-689l60 5v691l-49 292l308 122l696 -102l-64 -385v-657h75v652l75 450zM755 1798l-187 -464l53 -56l199 504zM404 1660l-52 -28l221 -333v-945h60v966zM801 1827l-76 -1440h76l77 1435zM755 1854l-455 -186l88 -441v-931l75 14v924l-75 386
l378 154l425 -60l8 77zM1486 1958l-152 -406l53 -54l162 435zM1225 1831l-57 -37l179 -272v-680h60v705zM1527 1959l-50 -1063l60 -2l51 1060zM731 466l-141 -89l-162 -15l-40 -66l1064 -117l76 71l212 18v85zM697 346q-36 -96 -36 -185q0 -119 60.5 -191t161.5 -72
q119 0 189.5 87t101.5 271l-76 16q-28 -159 -78.5 -228.5t-137.5 -69.5q-67 0 -106.5 50.5t-39.5 136.5q0 76 33 162zM1491 932l-112 -79l-128 -10l-52 -51l787 -95l239 61v72zM916 407q-32 -90 -32 -177q0 -119 57.5 -191t152.5 -72q111 0 182 86t101 256l-76 16
q-25 -145 -76 -213.5t-131 -68.5q-61 0 -97.5 51t-36.5 138q0 75 27 155zM1415 832q-29 -81 -29 -150q0 -94 49 -151t130 -57q94 0 151 69.5t82 214.5l-73 15q-22 -122 -59.5 -175t-101.5 -53q-49 0 -78 37.5t-29 101.5q0 55 26 125zM1584 878q-26 -75 -26 -142
q0 -94 47 -151t123 -57q89 0 145.5 68.5t79.5 203.5l-71 14q-19 -111 -57 -163t-98 -52q-45 0 -71.5 37.5t-26.5 101.5q0 29 6 60.5t17 60.5zM1662 590v-320l78 -2v320z" />
</svg>