<?xml version="1.0" standalone="no"?>
<!DOCTYPE svg PUBLIC "-//W3C//DTD SVG 1.1//EN" "http://www.w3.org/Graphics/SVG/1.1/DTD/svg11.dtd">
<svg xmlns="http://www.w3.org/2000/svg" xmlns:xlink="http://www.w3.org/1999/xlink" version="1.1"
   viewBox="94 -151 2414 2169">
   <path fill="currentColor"
      d="M351 1317l-78 -7l33 -404q3 -41 36.5 -87t109 -87t205 -69t324.5 -32l85 -2l235 -581l91 -10l-285 667l-143 4q-171 5 -300.5 37t-203 77t-77.5 90zM297 1593l-169 -46q-54 -15 -54 -70v-140q0 -55 54 -70l169 -45v371zM557 1928l-16 -60q-34 -6 -61 -16l-44 44l-86 -51
l16 -58q-12 -11 -23 -22t-22 -23l-60 16l-51 -88l44 -44q-5 -14 -9 -28.5t-7 -30.5l-59 -16v-102l59 -16q3 -14 7 -29t9 -30l-44 -44l51 -88l60 16q11 -12 22 -23t23 -21l-16 -59l86 -51l44 44q27 -10 61 -16l16 -60h100l16 60q34 6 61 16l44 -44l86 51l-16 59
q12 10 23.5 21t21.5 23l60 -16l49 88l-42 44q5 15 9 30t7 29l58 16v102l-58 16q-7 35 -16 59l42 44l-49 88l-60 -16q-10 12 -21.5 23t-23.5 22l16 58l-86 51l-44 -44q-27 10 -61 16l-16 60h-100zM607 1785q79 0 143.5 -38.5t103 -103.5t38.5 -144t-38.5 -143.5t-103 -102.5
t-143.5 -38t-143.5 38t-103 102.5t-38.5 143.5t38.5 144t103 103.5t143.5 38.5zM607 1654q-63 0 -108 -45t-45 -109q0 -63 45 -108t108 -45t108 45t45 108q0 64 -45 109t-108 45zM1143 1597q0 -291 -121 -429t-394 -138v-76q304 0 449.5 158t145.5 485h-80zM907 1643v-78
h719v78h-719zM1953 1928l-16 -58q-25 -4 -49.5 -11t-46.5 -16l-44 44l-87 -52l14 -58q-39 -32 -69 -70l-59 15l-51 -87l43 -44q-18 -46 -26 -96l-58 -16v-101l58 -16q4 -25 10.5 -49t15.5 -47l-43 -44l51 -87l59 16q15 -20 33 -37.5t37 -32.5l-15 -59l87 -52l44 45
q23 -9 47 -16t49 -11l16 -58h100l16 58q26 4 50 11t46 16l44 -44l87 52l-15 58q20 15 37.5 33t31.5 38l60 -16l51 87l-43 44q17 44 25 96l59 16v101l-59 16q-7 48 -26 95l44 45l-51 87l-60 -16q-30 38 -69 70l15 59l-87 52l-44 -45q-22 9 -46 16t-50 11l-16 58h-100z
M2007 1778q97 0 176.5 -47t126.5 -126.5t47 -176.5t-47 -175.5t-126.5 -125.5t-176.5 -47t-176.5 47t-126.5 125.5t-47 175.5t47 176.5t126.5 126.5t176.5 47zM2007 1623q-80 0 -137 -57t-57 -137t57 -137t137 -57t137 57t57 137t-57 137t-137 57zM862 656v-450h40
q0 -99 -14 -136.5t-44 -68.5l43 -53q45 35 65 93t20 165v450h-110zM1099 705v-78h368v78h-368zM1354 1341l-68 -42l243 -395q37 -60 99.5 -88.5t146.5 -28.5h427q63 0 121.5 19.5t98.5 63.5l104 112l-217 207l-55 -58l160 -152l-51 -55q-52 -57 -161 -57h-427
q-130 0 -178 79zM1458 1125q-27 0 -42 -29t-15 -69q0 -186 32.5 -351t86 -322.5t116.5 -319.5l63 33l-68 171l-17 -48l103 45l-72 284h-114l24 -22q-22 87 -36.5 156t-24.5 137t-18.5 147.5t-17.5 187.5zM1863 826l-36 -760l80 -4l37 764h-81zM1253 89q-13 0 -23 -6.5
t-10 -20.5q0 -48 116 -72t392 -24q281 0 397.5 24t116.5 72q0 14 -12 20.5t-28 6.5h-949zM2217 830l-89 -773l80 -10l89 783h-80z" />
</svg>