<?xml version="1.0" standalone="no"?>
<!DOCTYPE svg PUBLIC "-//W3C//DTD SVG 1.1//EN" "http://www.w3.org/Graphics/SVG/1.1/DTD/svg11.dtd">
<svg xmlns="http://www.w3.org/2000/svg" xmlns:xlink="http://www.w3.org/1999/xlink" version="1.1"
   viewBox="94 -151 2414 2169">
   <path fill="currentColor"
      d="M448 1822q-68 0 -106.5 -39.5t-30.5 -109.5l95 -815q21 -182 78.5 -279.5t159.5 -134.5t255 -37l63 68h1240q140 0 142 130l14 1104q1 49 -31.5 81t-82.5 32h-157v-80h157q17 0 25.5 -8.5t8.5 -23.5l-14 -1104q0 -29 -12 -40t-50 -11h-1275l-63 -68q-130 3 -207.5 38
t-116 116.5t-55.5 225.5l-95 815q-4 32 9.5 46t48.5 14h85v80h-85zM686 1978q-78 0 -133.5 -55.5t-55.5 -133.5q0 -80 55.5 -134.5t133.5 -54.5t133.5 54.5t55.5 134.5q0 78 -55.5 133.5t-133.5 55.5zM686 1888q41 0 70 -29.5t29 -69.5q0 -41 -29 -70t-70 -29t-70 29t-29 70
q0 40 29.5 69.5t69.5 29.5zM850 1822v-78h925v78h-925zM242 1027v-240q0 -55 36.5 -85.5t100.5 -30.5h433v61h-433q-34 0 -50.5 15.5t-16.5 39.5v240h-70zM684 1167h79l151 -28q35 -7 35 -43v-294q0 -19 -13.5 -32.5t-33.5 -13.5h-182q-37 0 -57.5 20.5t-28.5 65.5l-29 155
q-4 22 -4.5 42.5t-0.5 37.5q0 48 20 69t64 21zM381 1446v-78l310 -6l331 -63h1316v78h-1308l-328 63zM1075 1127h227q20 0 33 -13.5t13 -32.5v-279q0 -20 -13 -33t-33 -13h-227q-19 0 -32.5 13t-13.5 33v279q0 19 13.5 32.5t32.5 13.5zM419 1277l84 -606h1772l31 540h-1281
l-345 63zM1474 1127h227q20 0 33 -13.5t13 -32.5v-279q0 -20 -13 -33t-33 -13h-227q-19 0 -32.5 13t-13.5 33v279q0 19 13.5 32.5t32.5 13.5zM1146 515l23 -124q7 -40 45 -40h455q40 0 47 40l23 124h-593zM1873 1127h222q20 0 33 -13.5t13 -32.5v-279q0 -20 -13 -33t-33 -13
h-222q-19 0 -32.5 13t-13.5 33v279q0 19 13.5 32.5t32.5 13.5zM1545 418q-34 0 -58.5 -24.5t-24.5 -58.5q0 -35 24.5 -59t58.5 -24q35 0 59 24t24 59q0 34 -24 58.5t-59 24.5zM292 -12v-90h2062v90h-2062zM1608 348l-57 -50q126 -147 283.5 -248t316.5 -144l17 68
q-148 40 -295 138.5t-265 235.5zM1946 1978q-78 0 -133.5 -55.5t-55.5 -133.5q0 -80 55.5 -134.5t133.5 -54.5t133.5 54.5t55.5 134.5q0 78 -55.5 133.5t-133.5 55.5zM1946 1888q41 0 70 -29.5t29 -69.5q0 -41 -29 -70t-70 -29t-70 29t-29 70q0 40 29.5 69.5t69.5 29.5z" />
</svg>