<?xml version="1.0" standalone="no"?>
<!DOCTYPE svg PUBLIC "-//W3C//DTD SVG 1.1//EN" "http://www.w3.org/Graphics/SVG/1.1/DTD/svg11.dtd">
<svg xmlns="http://www.w3.org/2000/svg" xmlns:xlink="http://www.w3.org/1999/xlink" version="1.1"
   viewBox="94 -151 2414 2169">
   <path fill="currentColor"
      d="M130 1618v-712l211 -527q22 -56 67 -56h229q39 -122 139 -196.5t254 -78.5v1420h587v150h-92l-154 -100l-117 100h-544l-36 -90h276v-1392q-58 5 -111 39t-90.5 92t-49.5 136h-243q-39 0 -52 34l-194 486v615h287l-29 80h-338zM300 1578v-363h-136v-70h206v433h-70z
M594 1828q-77 0 -131.5 -54.5t-54.5 -130.5q0 -77 54.5 -131.5t131.5 -54.5t131 54.5t54 131.5t-54 131t-131 54zM594 1726q34 0 58.5 -24.5t24.5 -58.5q0 -35 -24.5 -59.5t-58.5 -24.5t-59 24.5t-25 59.5q0 34 25 58.5t59 24.5zM175 1551v-163h145l50 -117h620v280h-815z
M1374 1828q-77 0 -131.5 -54.5t-54.5 -130.5q0 -77 54.5 -131.5t131.5 -54.5t131 54.5t54 131.5t-54 131t-131 54zM1374 1726q34 0 58.5 -24.5t24.5 -58.5q0 -35 -24.5 -59.5t-58.5 -24.5t-59 24.5t-25 59.5q0 34 25 58.5t59 24.5zM341 947q-36 0 -16 -48l137 -335
q11 -28 39 -44.5t64 -16.5h140q17 0 29 13t12 30v360q0 17 -12.5 29t-29.5 12h-363zM450 867h190q26 0 26 -25v-234q0 -25 -26 -25h-53q-47 0 -65 44l-85 212q-12 28 13 28zM1263 1549v-213h210v213h-210zM1884 1828q-77 0 -131.5 -54.5t-54.5 -130.5q0 -77 54.5 -131.5
t131.5 -54.5t131 54.5t54 131.5t-54 131t-131 54zM1884 1726q34 0 58.5 -24.5t24.5 -58.5q0 -35 -24.5 -59.5t-58.5 -24.5t-59 24.5t-25 59.5q0 34 25 58.5t59 24.5zM2244 1828q-77 0 -131.5 -54.5t-54.5 -130.5q0 -77 54.5 -131.5t131.5 -54.5t131 54.5t54 131.5t-54 131
t-131 54zM2244 1726q34 0 58.5 -24.5t24.5 -58.5q0 -35 -24.5 -59.5t-58.5 -24.5t-59 24.5t-25 59.5q0 34 25 58.5t59 24.5zM2019 1630l-73 -60l-181 -49v-185h598v185l-177 48l-73 61h-94zM1192 1116v-100h1244v100h-1244zM1150 1376v-1328h1320v1328h-1320zM1230 1296
h1160v-1168h-1160v1168zM1192 398v-100h1244v100h-1244z" />
</svg>