<?xml version="1.0" standalone="no"?>
<!DOCTYPE svg PUBLIC "-//W3C//DTD SVG 1.1//EN" "http://www.w3.org/Graphics/SVG/1.1/DTD/svg11.dtd">
<svg xmlns="http://www.w3.org/2000/svg" xmlns:xlink="http://www.w3.org/1999/xlink" version="1.1"
   viewBox="94 -151 2414 2169">
   <path fill="currentColor"
      d="M1300 1978q-216 0 -404.5 -80.5t-331.5 -223.5t-223.5 -331.5t-80.5 -404.5t80.5 -404.5t223.5 -331.5t331.5 -223.5t404.5 -80.5q215 0 403.5 80.5t331.5 223.5t224 331.5t81 404.5t-81 404.5t-224 331.5t-331.5 223.5t-403.5 80.5zM1300 1573q-85 0 -170 -40t-165 -110
l49 -56q70 61 142 96t144 35q73 0 144.5 -35t141.5 -96l50 56q-80 70 -165 110t-171 40zM898 982q-63 0 -123 -29.5t-113 -87.5l52 -46q84 93 184 93q101 0 184 -93l52 46q-52 58 -112.5 87.5t-123.5 29.5zM649 614l-54 -43q129 -160 354 -182l12 69q-197 18 -312 156z
M1300 1898q199 0 373 -74.5t306 -206.5t206.5 -306t74.5 -373t-74.5 -373t-206.5 -306t-306 -206.5t-373 -74.5t-373 74.5t-306 206.5t-206.5 306t-74.5 373t74.5 373t206.5 306t306 206.5t373 74.5zM1702 982q-127 0 -236 -117l52 -46q84 93 184 93q101 0 184 -93l52 46
q-52 58 -112.5 87.5t-123.5 29.5zM1951 614q-115 -138 -312 -156l12 -69q225 22 354 182z" />
</svg>