<?xml version="1.0" standalone="no"?>
<!DOCTYPE svg PUBLIC "-//W3C//DTD SVG 1.1//EN" "http://www.w3.org/Graphics/SVG/1.1/DTD/svg11.dtd">
<svg xmlns="http://www.w3.org/2000/svg" xmlns:xlink="http://www.w3.org/1999/xlink" version="1.1"
   viewBox="94 -151 2414 2169">
   <path fill="currentColor"
      d="M631 1978q-64 0 -119 -34.5t-88 -91t-33 -123.5q0 -68 29.5 -124.5t98.5 -118.5l1066 -969q-39 -86 -39 -180q0 -122 59 -221.5t158.5 -158.5t219.5 -59q105 0 170.5 36.5t86.5 111.5l-259 150q-2 9 -2 23q0 60 33.5 111t89.5 76l306 -176q17 63 17 120q0 115 -57 211.5
t-153.5 154t-216.5 57.5q-80 0 -154 -24l-929 1077q-36 42 -73 76.5t-86 55t-125 20.5zM678 1779q-32 0 -55.5 -23.5t-23.5 -55.5t23.5 -55.5t55.5 -23.5t55.5 23.5t23.5 55.5t-23.5 55.5t-55.5 23.5zM2081 1978q-68 0 -109 -51l-586 -706l52 -62l596 716q18 23 47 23
q24 0 42 -17l112 -96q22 -19 22 -47q0 -25 -15 -40l-666 -702l52 -62l672 708q37 40 37 96q0 61 -51 107l-111 98q-40 35 -94 35zM631 1898q58 0 93.5 -13.5t65 -41t65.5 -69.5l965 -1120q47 21 87.5 30t90.5 9q96 0 172 -43.5t121.5 -118.5t48.5 -169l-230 132
q-94 -26 -152.5 -103t-58.5 -172q0 -34 10 -74l211 -122q-42 -45 -137 -45q-98 0 -179.5 48.5t-129.5 130t-48 180.5q0 108 61 197l-1114 1012q-57 52 -79.5 92.5t-22.5 90.5q0 67 48 118t112 51zM1169 957l-262 -315l239 -215l276 289l-58 56l-231 -243l-125 111l219 262z
M504 1052q-25 0 -52 -11t-58 -30q-51 -32 -104.5 -93t-89.5 -135q-12 -25 -18.5 -46.5t-6.5 -41.5q0 -24 9 -44.5t31 -38.5l115 -93q49 -40 88 -40q17 0 34.5 5.5t39.5 17.5l21 12q13 7 23 7t22 -12l11 -11q17 -17 17 -31q0 -7 -2 -16.5t-6 -22.5l-5 -20q-6 -26 -6 -38
q0 -41 24 -78.5t69 -75.5l172 -146q81 -69 151.5 -106t157 -51.5t212.5 -14.5q77 0 111 23t34 76q0 44 -37.5 65.5t-126.5 46.5q-52 14 -98 34t-74.5 40t-28.5 36q0 20 28 41q32 24 50.5 53t18.5 63q0 71 -65 128l-201 174q-25 21 -45.5 32t-43.5 11q-16 0 -43 -9l-29 -10
q-36 -13 -45 -13q-11 0 -26 12l-15 13q-11 10 -11 23q0 4 1.5 9t3.5 10l9 22q19 46 15.5 82.5t-40.5 66.5l-114 93q-39 32 -77 32zM498 972q14 0 29 -12l103 -82q23 -18 19.5 -42.5t-18.5 -63.5l-8 -21q-8 -22 -1.5 -41.5t24.5 -34.5l37 -32q18 -15 35.5 -22t38.5 -7
q14 0 30 4t36 10l29 9q11 3 19 3q15 0 41 -22l203 -174q35 -31 35 -68q0 -26 -33 -48q-64 -43 -64 -115q0 -57 72 -99.5t189 -74.5q66 -18 85 -27t19 -22q0 -11 -12.5 -15t-52.5 -4q-116 0 -193 13.5t-140 48.5t-137 98l-172 147q-30 26 -47 47t-17 50q0 5 1 11.5t2 11.5
l5 20q5 21 7.5 36.5t2.5 27.5q0 32 -32 61l-38 35q-24 22 -46.5 28.5t-45.5 -7.5l-21 -13q-20 -13 -33 -17.5t-27 -4.5q-20 0 -38 15l-115 93q-13 12 -13 29q0 18 14 43q39 69 82.5 121t83.5 78q20 13 35 21t27 8z" />
</svg>