<?xml version="1.0" standalone="no"?>
<!DOCTYPE svg PUBLIC "-//W3C//DTD SVG 1.1//EN" "http://www.w3.org/Graphics/SVG/1.1/DTD/svg11.dtd">
<svg xmlns="http://www.w3.org/2000/svg" xmlns:xlink="http://www.w3.org/1999/xlink" version="1.1"
   viewBox="94 -151 2414 2169">
   <path fill="currentColor"
      d="M1300 1978q-216 0 -404.5 -80.5t-331.5 -223.5t-223.5 -331.5t-80.5 -404.5t80.5 -404.5t223.5 -331.5t331.5 -223.5t404.5 -80.5q215 0 403.5 80.5t331.5 223.5t224 331.5t81 404.5t-81 404.5t-224 331.5t-331.5 223.5t-403.5 80.5zM548 780q32 0 37 -35q10 -69 62 -94
q26 -11 26 -35q0 -15 -9.5 -25t-23.5 -10q-29 0 -58 25t-48 63t-19 77q0 34 33 34zM1300 1475q-230 0 -453 -157l44 -65q203 142 409 142t409 -142l44 65q-223 157 -453 157zM1300 1898q199 0 373 -74.5t306 -206.5t206.5 -306t74.5 -373t-74.5 -373t-206.5 -306
t-306 -206.5t-373 -74.5t-373 74.5t-306 206.5t-206.5 306t-74.5 373t74.5 373t206.5 306t306 206.5t373 74.5zM730 1154q-156 0 -248.5 -42.5t-133 -139t-40.5 -258.5q0 -47 -17 -70.5t-59 -30.5v-129q98 -12 204 -17t194 -5q200 0 363.5 15t306.5 15q98 0 201.5 -7.5
t219.5 -15t249 -7.5q88 0 194.5 5t203.5 17v129q-41 7 -58.5 30.5t-17.5 70.5q0 162 -40.5 258.5t-132.5 139t-249 42.5t-260.5 -66t-139.5 -189l-10 -34q-37 -128 -70.5 -173t-89.5 -45t-88.5 45t-70.5 173l-10 34q-36 123 -139.5 189t-261.5 66zM1609 780q32 0 37 -35
q10 -71 61 -94q27 -11 27 -35q0 -15 -9.5 -25t-23.5 -10q-29 0 -58 25t-48 63t-19 77q0 34 33 34z" />
</svg>