<?xml version="1.0" standalone="no"?>
<!DOCTYPE svg PUBLIC "-//W3C//DTD SVG 1.1//EN" "http://www.w3.org/Graphics/SVG/1.1/DTD/svg11.dtd">
<svg xmlns="http://www.w3.org/2000/svg" xmlns:xlink="http://www.w3.org/1999/xlink" version="1.1"
   viewBox="94 -151 2414 2169">
   <path fill="currentColor"
      d="M297 1213q-18 -66 -27.5 -135t-9.5 -140q0 -216 80.5 -404.5t223.5 -331.5t331.5 -223.5t404.5 -80.5q215 0 403.5 80.5t331.5 223.5t224 331.5t81 404.5q0 71 -9.5 140t-27.5 135l-67 -60q24 -104 24 -215q0 -199 -74.5 -373t-206.5 -306t-306 -206.5t-373 -74.5
t-373 74.5t-306 206.5t-206.5 306t-74.5 373q0 111 24 215zM678 1709q54 0 91.5 -37.5t37.5 -91.5q0 -77 -68 -114l133 -319l-317 118q-13 -41 -47 -64t-75 -23q-54 0 -91.5 38t-37.5 92q0 39 20.5 71t55.5 55q-47 18 -75.5 54.5t-28.5 82.5q0 53 38 91t91 38q43 0 78 -24.5
t57 -66.5q20 46 57 73t81 27zM678 1789q-81 0 -142 -55q-59 46 -131 46q-86 0 -147.5 -61.5t-61.5 -147.5q0 -87 62 -149q-34 -51 -34 -114q0 -87 61 -148.5t148 -61.5q93 0 156 69l427 -160l-181 434q52 60 52 139q0 87 -61 148t-148 61zM1300 1978q-182 0 -348 -60
t-300 -166l99 -26q117 81 257 126.5t292 45.5q153 0 292.5 -45.5t256.5 -126.5l99 26q-133 106 -298.5 166t-349.5 60zM1018 1409l-46 -66q171 -120 328 -120t328 120l-46 66q-152 -106 -282 -106t-282 106zM946 841q-113 0 -238 -64l36 -72q109 56 202 56q101 0 201 -55
l38 70q-118 65 -239 65zM1922 1789q-87 0 -148 -61t-61 -148q0 -79 52 -139l-181 -434l427 160q63 -69 156 -69q87 0 148 61.5t61 148.5q0 63 -34 114q62 62 62 149q0 86 -61.5 147.5t-147.5 61.5q-72 0 -131 -46q-61 55 -142 55zM1922 1709q44 0 81 -27t57 -73
q22 42 57 66.5t78 24.5q53 0 91 -38t38 -91q0 -46 -28.5 -82.5t-75.5 -54.5q35 -23 55.5 -55t20.5 -71q0 -54 -37.5 -92t-91.5 -38q-41 0 -74.5 23t-47.5 64l-317 -118l133 319q-68 37 -68 114q0 54 37.5 91.5t91.5 37.5zM1096 485q-37 -74 -111.5 -127t-169.5 -74l18 -78
q111 24 200 88.5t135 154.5zM1654 841q-121 0 -239 -65l38 -70q100 55 201 55q93 0 202 -56l36 72q-125 64 -238 64zM1504 485l-72 -36q47 -90 135.5 -154.5t199.5 -88.5l18 78q-94 21 -168.5 74t-112.5 127z" />
</svg>