<?xml version="1.0" standalone="no"?>
<!DOCTYPE svg PUBLIC "-//W3C//DTD SVG 1.1//EN" "http://www.w3.org/Graphics/SVG/1.1/DTD/svg11.dtd">
<svg xmlns="http://www.w3.org/2000/svg" xmlns:xlink="http://www.w3.org/1999/xlink" version="1.1"
   viewBox="94 -151 2414 2169">
   <path fill="currentColor"
      d="M596 1419q-46 -56 -80 -127t-54 -152q-113 -5 -188.5 -83.5t-75.5 -197.5t78 -198t194 -83q54 -189 173 -330.5t287.5 -220.5t369.5 -79q202 0 370.5 79t287.5 220.5t172 330.5q117 4 195 83t78 198t-76 197.5t-189 83.5q-19 81 -53.5 152t-79.5 127l-67 -37
q44 -52 78 -125.5t58 -194.5q19 3 27.5 3.5t18.5 0.5q90 0 149 -57.5t59 -149.5t-59.5 -149.5t-148.5 -57.5h-53q-41 -188 -148.5 -328.5t-266 -218t-352.5 -77.5q-195 0 -353.5 78t-265.5 218t-148 328h-53q-88 0 -147.5 57.5t-59.5 149.5t59 149.5t148 57.5
q11 0 19.5 -0.5t27.5 -3.5q24 121 58 194.5t77 125.5zM482 971q-51 0 -83.5 -29t-32.5 -83q0 -53 33 -82t81 -29h50q-5 34 -6.5 61.5t-1.5 62.5q0 28 1 47t4 45q-22 7 -45 7zM1300 1720q-93 0 -178 -9.5t-162 -28.5l96 -60q54 10 117 16t127 6q65 0 127.5 -6t116.5 -16
l96 60q-76 19 -161.5 28.5t-178.5 9.5zM526 1928q-115 0 -184.5 -66t-69.5 -167q0 -147 144 -224l260 -139q27 -14 63 -47.5t97 -97.5q57 -59 115 -107.5t116 -77.5t113 -29q53 0 86 24.5t33 65.5q17 -7 34 -10.5t41 -3.5q57 0 106.5 34t79.5 91.5t30 128.5q0 79 -38 146
t-101.5 107t-142.5 40v-74q89 0 147 -63t58 -156q0 -80 -44.5 -129.5t-114.5 -49.5q-34 0 -65.5 7.5t-61.5 21.5q13 -33 13 -56q0 -20 -15.5 -34.5t-44.5 -14.5q-43 0 -91.5 27t-102.5 75.5t-117 111.5q-56 56 -92 88t-67 49l-260 139q-98 53 -98 157q0 70 46 111.5
t128 41.5q69 0 132.5 -33t130 -81.5t142 -97t168 -81.5t209.5 -33t209 33t167.5 81.5t141.5 97t130 81.5t134 33q75 0 124.5 -41t49.5 -112q0 -104 -98 -157l-260 -139q-31 -17 -67 -49t-92 -88q-62 -63 -104.5 -102.5t-76 -58t-69.5 -18.5q-25 0 -51 8t-48 26l-44 -60
q33 -25 70 -37t73 -12q70 0 137 47.5t146 131.5q61 64 97 97.5t63 47.5l260 139q144 77 144 224q0 102 -73.5 167.5t-180.5 65.5q-80 0 -147.5 -33.5t-133 -82.5t-137.5 -98.5t-160.5 -83t-203.5 -33.5t-203.5 33.5t-161 82.5t-138 98.5t-133 83t-146.5 33.5zM1034 849
q-37 0 -64 -33t-27 -77q0 -46 27 -78t64 -32q38 0 64.5 32t26.5 78q0 45 -27 77.5t-64 32.5zM1300 956q-28 0 -53 -20.5t-25 -42.5q0 -32 78 -32q79 0 79 32q0 22 -25 42.5t-54 20.5zM786 1286q-39 -45 -58 -91.5t-19 -98.5q0 -56 16.5 -101t32.5 -84.5t16 -78.5
q0 -32 -11.5 -75t-23 -89.5t-11.5 -87.5q0 -71 33.5 -127.5t91 -90t127.5 -33.5q62 0 120.5 27.5t109.5 55.5t90 28q40 0 91 -28t109.5 -55.5t119.5 -27.5q71 0 128 33.5t90.5 90t33.5 127.5q0 41 -11.5 87.5t-23 89.5t-11.5 75q0 39 16.5 78.5t32.5 84.5t16 101
q0 52 -17.5 97.5t-52.5 85.5l-60 -43q55 -61 55 -140q0 -50 -16 -90t-32.5 -81t-16.5 -93q0 -65 23 -130t23 -122q0 -76 -51 -128.5t-126 -52.5q-57 0 -107.5 27.5t-101.5 55.5t-111 28t-111 -28t-101 -55.5t-108 -27.5q-74 0 -125.5 52.5t-51.5 128.5q0 57 23 122t23 130
q0 52 -16 93t-32.5 81t-16.5 90q0 39 15 75.5t46 71.5zM1566 849q-37 0 -64 -32.5t-27 -77.5q0 -46 27 -78t64 -32q38 0 64.5 32t26.5 78q0 44 -26.5 77t-64.5 33zM2119 971q-22 0 -46 -7q3 -26 4.5 -45t1.5 -47q0 -35 -1.5 -62.5t-7.5 -61.5h51q48 0 80.5 29t32.5 82
q0 54 -32 83t-83 29z" />
</svg>