<?xml version="1.0" standalone="no"?>
<!DOCTYPE svg PUBLIC "-//W3C//DTD SVG 1.1//EN" "http://www.w3.org/Graphics/SVG/1.1/DTD/svg11.dtd">
<svg xmlns="http://www.w3.org/2000/svg" xmlns:xlink="http://www.w3.org/1999/xlink" version="1.1"
   viewBox="94 -151 2414 2169">
   <path fill="currentColor"
      d="M1863 1353q-73 3 -162.5 -48t-198.5 -143.5t-243 -215.5q-99 -92 -182 -173t-144 -153t-94 -135t-33 -118q0 -35 16.5 -69t50.5 -59q73 -55 206 -8q144 -75 308 -75q149 0 284 63l51 -51q43 -43 116 -32l55 -48q79 -69 148 -109t148.5 -57.5t190.5 -18.5v294
q-71 2 -130 26t-139 94l-51 44q8 69 -35 112l-47 47q69 138 69 293q0 67 -14.5 134.5t-43.5 130.5q29 65 31 116.5t-25 87.5q-25 34 -60 51.5t-72 19.5zM320 1978q-39 0 -69.5 -32t-30.5 -72q0 -45 35 -78q39 -38 124 -58l105 -24l-25 105q-20 83 -59 122q-37 37 -80 37z
M522 1482q-37 0 -69.5 -31.5t-32.5 -71.5q0 -42 35 -79q39 -41 122 -58l105 -23l-23 104q-19 83 -58 122q-37 37 -79 37zM823 1780q-40 0 -71 -32.5t-31 -71.5q0 -42 35 -79q39 -41 122 -58l105 -23l-23 104q-19 84 -58 123q-37 37 -79 37zM1019 1285q-38 0 -70.5 -31.5
t-32.5 -71.5q0 -41 35 -78q37 -39 122 -58l104 -23l-23 104q-19 84 -57 122q-36 36 -78 36zM706 989q-40 0 -68 -28t-28 -68q0 -48 35 -85q17 -18 42 -31.5t69.5 -26.5t120.5 -29q-17 75 -30.5 120t-26.5 70t-29 41q-37 37 -85 37zM1316 1587q-38 0 -70.5 -31.5t-32.5 -71.5
q0 -41 35 -78q37 -39 122 -58l104 -23l-23 104q-19 84 -57 122q-36 36 -78 36zM1845 1270q12 -16 -12.5 -59t-81.5 -108.5t-140.5 -149.5t-189.5 -181q-104 -95 -193 -172t-158.5 -129.5t-115 -75t-62.5 -8.5t7.5 57.5t83 109.5t144 150.5t188.5 181.5q101 94 191 172.5
t161 132.5t117 76t61 3zM1910 1251q37 -23 24.5 -83t-65 -144t-137 -181.5t-192.5 -196.5q-111 -102 -212 -178t-185 -120.5t-144 -52t-87 27.5q62 1 148.5 52t192 138t223.5 199q121 113 217.5 213t154.5 182.5t62 143.5zM1937 983q28 -84 28 -175q0 -112 -43 -217
t-124 -186q-82 -83 -189 -125.5t-220 -42.5q-108 0 -210 39q88 46 192.5 124.5t223.5 187.5q114 103 202 204.5t140 190.5zM1938 448l31 -31q17 -17 10.5 -42.5t-24.5 -51.5t-37 -46q-30 -32 -72.5 -53.5t-66.5 2.5l-34 33q40 28 65 47.5t46 41.5q19 19 38 41.5t44 58.5z
M2025 282l33 -27q76 -62 131 -91t110 -36v-145q-97 4 -177.5 42.5t-175.5 122.5l-27 24q26 20 38 30t19 18q10 10 21 23.5t28 38.5z" />
</svg>