<?xml version="1.0" standalone="no"?>
<!DOCTYPE svg PUBLIC "-//W3C//DTD SVG 1.1//EN" "http://www.w3.org/Graphics/SVG/1.1/DTD/svg11.dtd">
<svg xmlns="http://www.w3.org/2000/svg" xmlns:xlink="http://www.w3.org/1999/xlink" version="1.1"
   viewBox="94 -151 2414 2169">
   <path fill="currentColor"
      d="M1002 1978q-192 0 -192 -192v-1696q0 -192 192 -192h596q192 0 192 192v1696q0 192 -192 192h-596zM1300 1856q-92 0 -157 -65t-65 -157t65.5 -157t156.5 -65q92 0 157 65t65 157t-65 157t-157 65zM1300 1786q63 0 107.5 -44.5t44.5 -107.5t-44.5 -107.5t-107.5 -44.5
t-107.5 44.5t-44.5 107.5t44.5 107.5t107.5 44.5zM1098 1444l-50 -48q103 -109 252 -109t252 109l-50 48q-84 -87 -202 -87t-202 87zM1300 1227q-92 0 -157 -65t-65 -157t65.5 -157t156.5 -65q92 0 157 65t65 157t-65 157t-157 65zM1300 1157q63 0 107.5 -44.5t44.5 -107.5
t-44.5 -107.5t-107.5 -44.5t-107.5 44.5t-44.5 107.5t44.5 107.5t107.5 44.5zM1002 1898h596q65 0 88.5 -24t23.5 -88v-1696q0 -65 -23.5 -88.5t-88.5 -23.5h-596q-62 0 -87 25t-25 87v1696q0 65 24 88.5t88 23.5zM1098 815l-50 -48q103 -109 252 -109t252 109l-50 48
q-84 -87 -202 -87t-202 87zM1300 598q-92 0 -157 -65t-65 -157t65.5 -157t156.5 -65q92 0 157 65t65 157t-65 157t-157 65zM1300 528q63 0 107.5 -44.5t44.5 -107.5t-44.5 -107.5t-107.5 -44.5t-107.5 44.5t-44.5 107.5t44.5 107.5t107.5 44.5zM1098 186l-50 -48
q49 -52 115 -80.5t137 -28.5q149 0 252 109l-50 48q-84 -87 -202 -87t-202 87z" />
</svg>