<?xml version="1.0" standalone="no"?>
<!DOCTYPE svg PUBLIC "-//W3C//DTD SVG 1.1//EN" "http://www.w3.org/Graphics/SVG/1.1/DTD/svg11.dtd">
<svg xmlns="http://www.w3.org/2000/svg" xmlns:xlink="http://www.w3.org/1999/xlink" version="1.1"
   viewBox="94 -151 2414 2169">
   <path fill="currentColor"
      d="M1300 1928q-117 0 -223 -20t-199 -57l79 -56q77 26 163 39.5t180 13.5q257 0 448.5 -96t297.5 -267t106 -396q0 -98 -25 -195.5t-64 -184.5q38 -72 78 -158t67.5 -174t27.5 -165q0 -71 -21.5 -102.5t-69.5 -31.5q-50 0 -137.5 34t-181.5 88t-166 114l-70 58
q-50 -13 -98 -21t-95.5 -12t-96.5 -4t-96.5 4t-95 12t-98.5 21l-70 -58q-72 -60 -166 -114t-181 -88t-138 -34q-48 0 -69.5 31.5t-21.5 102.5q0 85 42 205.5t131 291.5q-39 87 -64 184.5t-25 195.5q0 140 55 285.5t161 246.5l-19 91q-90 -76 -151.5 -180t-93.5 -219
t-32 -224q0 -67 11 -132t30 -126.5t42 -119.5q-86 -171 -126.5 -292.5t-40.5 -206.5q0 -110 41.5 -162t129.5 -52q56 0 147 34t191.5 89t183.5 120l54 42q43 -10 87 -16t90 -9t92 -3q47 0 92.5 3t90 9t86.5 16l54 -42q83 -65 183.5 -120t192 -89t146.5 -34q88 0 129.5 52
t41.5 162q0 78 -27 166.5t-66 174t-74 155.5q24 58 42.5 120.5t29.5 128t11 132.5q0 186 -67 340t-190.5 265.5t-294.5 172.5t-380 61zM427 1669l-78 -16q13 -63 49.5 -127.5t89.5 -120.5t114 -92l40 69q-51 31 -96 78.5t-76.5 102t-42.5 106.5zM270 1435l-64 -49
q48 -62 106.5 -112.5t123.5 -86t130 -51.5l21 75q-55 14 -114 47t-112 79t-91 98zM826 1819q68 0 100 -32.5t32 -102.5q0 -41 -14 -81.5t-61 -130.5l-93 -178h72l-93 178q-47 90 -61 130.5t-14 81.5q0 70 32.5 102.5t99.5 32.5zM826 1899q-100 0 -156 -55.5t-56 -159.5
q0 -36 8 -70.5t28 -80.5t57 -116l119 -225l119 225q37 70 57 116t28 80.5t8 70.5q0 104 -55.5 159.5t-156.5 55.5zM200 1169l-40 -69q110 -59 206 -92.5t178 -43.5l10 79q-148 16 -354 126zM1135 1542l-64 -47q121 -162 229 -162t229 162l-64 47q-96 -129 -165 -129
t-165 129zM913 1012q-47 0 -79.5 -28.5t-32.5 -69.5q0 -26 12 -47t38 -32q38 -17 83 -35t58 -18q11 0 21 30.5t10 63.5q0 58 -32.5 97t-77.5 39zM1260 1373v-220h80v220h-80zM1300 1207q-40 0 -77.5 -31.5t-37.5 -62.5q0 -27 31 -41.5t84 -14.5t84 14.5t31 41.5
q0 31 -37 62.5t-78 31.5zM625 588q-53 -91 -89 -183.5t-36 -141.5q0 -32 26 -32q24 0 76 24t115 62.5t120 83.5q-58 34 -114.5 83.5t-97.5 103.5zM2173 1669q-11 -52 -42.5 -106.5t-76 -102t-96.5 -78.5l40 -69q61 36 114 92t90 120.5t49 127.5zM1167 631q-36 0 -79.5 -58
t-91.5 -214l257 -39q2 24 2.5 47t0.5 44q0 99 -23.5 159.5t-65.5 60.5zM1687 1012q-45 0 -77.5 -39t-32.5 -97q0 -33 10 -63.5t21 -30.5q13 0 58.5 18t82.5 35q26 11 38 32t12 47q0 41 -32.5 69.5t-79.5 28.5zM2330 1435q-37 -52 -90 -98t-112 -79t-115 -47l21 -75
q66 16 130.5 51.5t123.5 86t106 112.5zM1433 631q-42 0 -65.5 -60.5t-23.5 -159.5q0 -21 0.5 -44t2.5 -47l257 39q-47 156 -91 214t-80 58zM2400 1169q-206 -110 -354 -126l10 -79q83 10 179 43.5t205 92.5zM1975 588q-41 -54 -97.5 -103.5t-114.5 -83.5q58 -45 120.5 -83.5
t114.5 -62.5t76 -24q26 0 26 32q0 49 -36 141.5t-89 183.5z" />
</svg>