<?xml version="1.0" standalone="no"?>
<!DOCTYPE svg PUBLIC "-//W3C//DTD SVG 1.1//EN" "http://www.w3.org/Graphics/SVG/1.1/DTD/svg11.dtd">
<svg xmlns="http://www.w3.org/2000/svg" xmlns:xlink="http://www.w3.org/1999/xlink" version="1.1"
   viewBox="94 -151 2414 2169">
   <path fill="currentColor"
      d="M1300 1978q-215 0 -403.5 -80.5t-331.5 -223.5t-224 -331.5t-81 -404.5t81 -404.5t224 -331.5t331.5 -223.5t403.5 -80.5q216 0 404.5 80.5t331.5 223.5t223.5 331.5t80.5 404.5t-80.5 404.5t-223.5 331.5t-331.5 223.5t-404.5 80.5zM1300 1610q-136 0 -219.5 -54.5
t-83.5 -142.5q0 -66 43.5 -124.5t113 -95.5t146.5 -37q78 0 147 37t112.5 95.5t43.5 124.5q0 88 -83 142.5t-220 54.5zM749 1071l-60 -54l399 -439l60 54zM1137 1022l-484 -341l46 -66l484 341zM1300 1898q199 0 373 -74.5t306 -206.5t206.5 -306t74.5 -373t-74.5 -373
t-206.5 -306t-306 -206.5t-373 -74.5t-373 74.5t-306 206.5t-206.5 306t-74.5 373t74.5 373t206.5 306t306 206.5t373 74.5zM703 485l-54 -60q149 -136 383 -136v80q-203 0 -329 116zM1851 1071l-399 -439l60 -54l399 439zM1463 1022l-46 -66l484 -341l46 66zM1897 485
q-126 -116 -329 -116v-80q234 0 383 136z" />
</svg>