<?xml version="1.0" standalone="no"?>
<!DOCTYPE svg PUBLIC "-//W3C//DTD SVG 1.1//EN" "http://www.w3.org/Graphics/SVG/1.1/DTD/svg11.dtd">
<svg xmlns="http://www.w3.org/2000/svg" xmlns:xlink="http://www.w3.org/1999/xlink" version="1.1"
   viewBox="94 -151 2414 2169">
   <path fill="currentColor"
      d="M426 1978q-68 0 -117 -48.5t-49 -115.5v-1751q0 -68 49 -116.5t116 -48.5h1750q68 0 116.5 48.5t48.5 116.5v1750q0 67 -48.5 116t-116.5 49h-1749zM684 1291h171l96 -372q6 -21 13 -52t13 -62.5t8 -54.5q3 23 8.5 55t12 63t11.5 50l97 373h172l181 -714h-148l-92 392
l-12.5 57.5t-13.5 69t-9 58.5q-3 -23 -9 -57.5t-12.5 -67.5t-11.5 -51l-103 -401h-143l-103 401q-5 18 -11.5 50.5t-12.5 66.5t-10 59q-3 -23 -9 -58t-13 -69.5t-13 -57.5l-90 -392h-149zM1837 1301q56 0 101 -8.5t93 -27.5v-127q-51 18 -94.5 28t-87.5 10q-92 0 -135 -63
t-43 -176t46.5 -177.5t131.5 -64.5q39 0 80.5 14.5t81.5 32.5l47 -124q-48 -23 -101.5 -36t-107.5 -13q-161 0 -247.5 103t-86.5 264q0 165 78 265t244 100z" />
</svg>