<?xml version="1.0" standalone="no"?>
<!DOCTYPE svg PUBLIC "-//W3C//DTD SVG 1.1//EN" "http://www.w3.org/Graphics/SVG/1.1/DTD/svg11.dtd">
<svg xmlns="http://www.w3.org/2000/svg" xmlns:xlink="http://www.w3.org/1999/xlink" version="1.1"
   viewBox="94 -151 2414 2169">
   <path fill="currentColor"
      d="M780 1033v-461l-303 -49v416zM1398 1719h430v-111h-430v111zM860 908l70 -7v-476l-317 32v11l247 41v399zM1395 1337l426 -522h-321q-36 0 -63 9t-47 29l-259 253q-28 27 -67 27h-356q-36 0 -57 20t-21 55t20.5 55.5t57.5 20.5h441q31 0 54 -24l192 -195v272zM1960 1719
q30 0 51 -22t21 -53v-585q0 -59 -27.5 -114t-77.5 -98l-529 653v28h430v-453h60v569q0 31 21 53t51 22zM1664 718q66 0 119.5 -32t85.5 -86t32 -120v-122h-484q-9 0 -18 1t-17 5l-68 31q-15 7 -15 23q0 7 5.5 13.5t16.5 6.5h105v42q0 66 32 120t86 86t120 32zM1434 278h467
v-130h-541q-18 0 -28.5 9t-10.5 23q0 11 5.5 21.5t15.5 21.5l25 25q15 15 32 22.5t35 7.5zM425 1978q-67 0 -116 -49t-49 -116v-1750q0 -68 49 -116.5t116 -48.5h1749q68 0 117 48t49 116v1751q0 67 -48.5 116t-116.5 49h-1750z" />
</svg>