<?xml version="1.0" standalone="no"?>
<!DOCTYPE svg PUBLIC "-//W3C//DTD SVG 1.1//EN" "http://www.w3.org/Graphics/SVG/1.1/DTD/svg11.dtd">
<svg xmlns="http://www.w3.org/2000/svg" xmlns:xlink="http://www.w3.org/1999/xlink" version="1.1"
   viewBox="94 -151 2414 2169">
   <path fill="currentColor"
      d="M205 1726q-52 0 -83.5 -45.5t-31.5 -121.5q0 -73 29 -127.5t79 -76.5v-221q0 -54 17.5 -88t63.5 -71l150 -120l335 -576h187v-212h1328q68 0 102.5 30t34.5 88q0 30 -2.5 58.5t-7.5 65.5q48 211 76 445.5t28 445.5q0 130 -2.5 234t-10.5 196q-4 47 -21 71.5t-46 24.5
h-114l-42 -100h145q6 -82 8.5 -186t2.5 -240q0 -184 -23 -405.5t-71 -435.5h-1526l-319 548l-144 114q-28 22 -48.5 43.5t-20.5 49.5v418l207 94l-38 100h-242zM633 1978q-61 0 -111 -29.5t-79.5 -79.5t-29.5 -111q0 -60 30 -110t80 -80t110 -30q61 0 110.5 30t79.5 80
t30 110t-29.5 110t-79 80t-111.5 30zM633 1878q50 0 85 -35t35 -85t-35 -85t-85 -35t-85 35t-35 85t35 85t85 35zM819 1673l-15 -37h-555v-190h409q119 0 208 57t121 170h-168zM266 1338v-60h140q88 0 130 -32t42 -109q0 -39 -39 -39h-291l30 -70h281q44 0 65.5 25t21.5 84
q0 111 -63 156t-177 45h-140zM804 1726l-27 -80h1247l-23 80h-1197zM230 1343l358 -83v-137h1886v220h-2244zM693 917q-19 0 -21.5 -13.5t9.5 -34.5l203 -354q17 -29 47.5 -45t63.5 -16h319q17 0 29 13t12 30v379q0 17 -12.5 29t-29.5 12h-620zM814 837h435q26 0 26 -25
v-253q0 -25 -26 -25h-232q-21 0 -42 10.5t-35 33.5l-132 231q-16 28 6 28zM1799 1712q31 -143 105 -204.5t221 -61.5h316v190h-238l-99 -33l-147 109h-158zM2122 1978q-61 0 -111 -29.5t-79.5 -79.5t-29.5 -111q0 -60 30 -110t80 -80t110 -30q61 0 110.5 30t79.5 80t30 110
t-29.5 110t-79 80t-111.5 30zM2122 1878q50 0 85 -35t35 -85t-35 -85t-85 -35t-85 35t-35 85t35 85t85 35zM752 312q0 -128 51.5 -186.5t154.5 -58.5v80q-75 0 -100.5 38.5t-25.5 126.5h-80zM1681 922l-61 -105l497 -287l61 105zM2117 922l-497 -287l61 -105l497 287z
M1838 1013v-574h122v574h-122zM1174 63h71l-35 -56l35 -56h-71l-56 56zM1051 131v-151q0 -38 19.5 -60t52.5 -22h283q33 0 52.5 22t19.5 60v151h-427zM1285 63h71l56 -56l-56 -56h-71l35 56zM1031 279h1298q3 -17 5 -36.5t2 -42.5q0 -53 -63 -53h-1242v132z" />
</svg>