<?xml version="1.0" standalone="no"?>
<!DOCTYPE svg PUBLIC "-//W3C//DTD SVG 1.1//EN" "http://www.w3.org/Graphics/SVG/1.1/DTD/svg11.dtd">
<svg xmlns="http://www.w3.org/2000/svg" xmlns:xlink="http://www.w3.org/1999/xlink" version="1.1"
   viewBox="94 -151 2414 2169">
   <path fill="currentColor"
      d="M1300 1978q-216 0 -404.5 -80.5t-331.5 -223.5t-223.5 -331.5t-80.5 -404.5t80.5 -404.5t223.5 -331.5t331.5 -223.5t404.5 -80.5q215 0 403.5 80.5t331.5 223.5t224 331.5t81 404.5t-81 404.5t-224 331.5t-331.5 223.5t-403.5 80.5zM987 1611v-80h357q146 0 214 -51
t101 -187l78 18q-38 161 -128 230.5t-265 69.5h-357zM954 1045q-50 0 -85 -35t-35 -86q0 -26 13 -45q-31 4 -69 15.5t-73 27.5l-24 -66q54 -29 113 -44t114 -15q73 0 120.5 32.5t47.5 95.5q0 50 -36.5 85t-85.5 35zM576 710l-53 -46q58 -68 144 -108t215 -58l10 70
q-118 16 -192 49.5t-124 92.5zM1300 1898q199 0 373 -74.5t306 -206.5t206.5 -306t74.5 -373t-74.5 -373t-206.5 -306t-306 -206.5t-373 -74.5t-373 74.5t-306 206.5t-206.5 306t-74.5 373t74.5 373t206.5 306t306 206.5t373 74.5zM1809 1045q-49 0 -84.5 -35t-35.5 -86
q0 -26 14 -45q-31 4 -69 15.5t-73 27.5l-24 -66q54 -29 113 -44t113 -15q73 0 120.5 32.5t47.5 95.5q0 50 -36 85t-86 35zM2025 710q-50 -59 -124 -92.5t-193 -49.5l10 -70q129 18 215.5 58t144.5 108z" />
</svg>