<?xml version="1.0" standalone="no"?>
<!DOCTYPE svg PUBLIC "-//W3C//DTD SVG 1.1//EN" "http://www.w3.org/Graphics/SVG/1.1/DTD/svg11.dtd">
<svg xmlns="http://www.w3.org/2000/svg" xmlns:xlink="http://www.w3.org/1999/xlink" version="1.1"
   viewBox="94 -151 2414 2169">
   <path fill="currentColor"
      d="M272 1096q-12 -78 -12 -158q0 -216 80.5 -404.5t223.5 -331.5t331.5 -223.5t404.5 -80.5q215 0 403.5 80.5t331.5 223.5t224 331.5t81 404.5q0 80 -12 158l-74 -54q3 -26 4.5 -52t1.5 -52q0 -199 -74.5 -373t-206.5 -306t-306 -206.5t-373 -74.5t-373 74.5t-306 206.5
t-206.5 306t-74.5 373q0 26 1.5 52t4.5 52zM776 2028q-119 0 -235 -64.5t-210 -173t-150.5 -244t-56.5 -276.5q0 -79 28.5 -124.5t80.5 -45.5q22 0 55 14l-21 78q-17 -12 -32 -12q-11 0 -21 22.5t-10 67.5q0 124 50.5 245t133.5 218.5t184.5 156t203.5 58.5q92 0 149 -48
t57 -124q0 -46 -25.5 -94t-85.5 -110t-164 -150q-46 -39 -78.5 -85t-57.5 -85q-35 -56 -52 -76.5t-28 -20.5q-18 0 -18 41q0 50 36 132.5t103 173.5l-55 44q-74 -101 -114 -193.5t-40 -156.5q0 -50 22.5 -85.5t65.5 -35.5q44 0 77.5 39.5t66.5 89.5q26 40 56.5 82t67.5 74
q113 95 179.5 166t95 130t28.5 120q0 111 -80.5 181.5t-205.5 70.5zM385 1586q-70 -110 -111.5 -217.5t-41.5 -194.5q0 -71 25 -114.5t78 -43.5q46 0 87 33.5t59 84.5l-69 37q-16 -41 -36.5 -58t-40.5 -17q-12 0 -22.5 18.5t-10.5 59.5q0 77 38 173t102 199zM1300 1978
q-164 0 -317 -49l18 -78q71 22 146 34.5t153 12.5t153.5 -12.5t145.5 -34.5l18 78q-153 49 -317 49zM1300 1746q-79 0 -131 -56.5t-52 -143.5q0 -101 26 -187.5t67.5 -140t89.5 -53.5t90 53.5t67.5 140t25.5 187.5q0 87 -51.5 143.5t-131.5 56.5zM405 586v-168h50v168h-50z
M844 1144q-74 0 -134.5 -40.5t-95.5 -109t-35 -151.5q0 -90 39.5 -165.5t106 -121t145.5 -45.5q75 0 135 40t95 108t35 152q0 90 -39.5 166t-105.5 121.5t-146 45.5zM844 1064q57 0 105 -34.5t77 -92.5t29 -126q0 -93 -54 -156.5t-131 -63.5q-56 0 -104.5 34.5t-77.5 92
t-29 125.5q0 93 54 157t131 64zM550 586v-358h50v358h-50zM695 601v-503h50v488zM1824 2028q-124 0 -205 -70.5t-81 -181.5q0 -61 28.5 -120t95 -130t179.5 -166q38 -32 68 -74t56 -82q33 -50 66.5 -89.5t77.5 -39.5t66 35.5t22 85.5q0 64 -40 156.5t-114 193.5l-55 -44
q67 -91 103 -173.5t36 -132.5q0 -41 -18 -41q-10 0 -27.5 20.5t-52.5 76.5q-25 39 -57.5 85t-78.5 85q-103 88 -163.5 150t-86 110t-25.5 94q0 76 57 124t149 48q102 0 203.5 -58.5t184.5 -156t133.5 -218.5t50.5 -245q0 -45 -10 -67.5t-21 -22.5q-15 0 -32 12l-21 -78
q33 -14 55 -14q53 0 81 45.5t28 124.5q0 141 -56.5 276.5t-150.5 244t-210 173t-235 64.5zM840 569v-551h50v551h-50zM1035 600l-50 -14v-598h50v612zM1130 586v-638h50v638h-50zM1756 1144q-79 0 -145.5 -45.5t-106 -121.5t-39.5 -166q0 -84 35 -152t95.5 -108t134.5 -40
q80 0 146 45.5t105.5 121t39.5 165.5q0 83 -35 151.5t-95 109t-135 40.5zM1756 1064q77 0 131 -64t54 -157q0 -68 -29 -125.5t-77 -92t-105 -34.5q-77 0 -131 63.5t-54 156.5q0 68 29 126t77.5 92.5t104.5 34.5zM2215 1586l-57 -40q65 -103 102.5 -199t37.5 -173
q0 -41 -10.5 -59.5t-22.5 -18.5q-19 0 -39.5 17t-37.5 58l-69 -37q18 -51 59 -84.5t87 -33.5q53 0 78 43.5t25 114.5q0 87 -41 194.5t-112 217.5zM1275 586v-638h50v638h-50zM1420 586v-638h50v638h-50zM1565 600v-612h50v598zM1710 569v-551h50v551h-50zM1905 601l-50 -15
v-488h50v503zM2000 586v-358h50v358h-50zM2145 586v-168h50v168h-50z" />
</svg>