<?xml version="1.0" standalone="no"?>
<!DOCTYPE svg PUBLIC "-//W3C//DTD SVG 1.1//EN" "http://www.w3.org/Graphics/SVG/1.1/DTD/svg11.dtd">
<svg xmlns="http://www.w3.org/2000/svg" xmlns:xlink="http://www.w3.org/1999/xlink" version="1.1"
   viewBox="94 -151 2414 2169">
   <path fill="currentColor"
      d="M1300 1978q-200 0 -361.5 -43.5t-256 -117.5t-94.5 -166q0 -49 29 -98v-271q-29 -44 -29 -96t29 -99v-290q-29 -46 -29 -98q0 -50 29 -97v-299h80v330q-29 35 -29 66t29 66v355q-29 33 -29 66q0 32 29 65v334q-29 36 -29 66q0 67 87 124t230.5 91t314.5 34q58 0 111 -4.5
t104 -11.5q-13 -8 -22.5 -25.5t-9.5 -44.5v-203q0 -31 -25 -50t-58 -19q-106 0 -167 -2t-93 -6t-53 -9v-74q92 12 180 12q124 0 242.5 -24t214 -64.5t152 -90t56.5 -100.5q0 -24 -6 -42.5t-26 -43.5q-25 56 -85.5 101t-137.5 71t-151 26q-18 0 -31.5 -11.5t-13.5 -31.5v-134
q0 -31 -24.5 -50t-56.5 -19q-106 0 -167 -2t-93 -6t-53 -8v-75q92 12 180 12q124 0 242.5 -23.5t214 -62.5t152 -87.5t56.5 -98.5q0 -36 -28 -74q-19 49 -78.5 90t-137.5 66t-154 25q-21 0 -37 -11.5t-16 -32.5v-165q0 -33 -21.5 -53.5t-45.5 -20.5l337 -85l233 -150v317
q28 45 28 94t-28 96v295q28 48 28 96t-28 95v275q28 47 28 95q0 71 -56 130.5t-154 103.5t-227 68.5t-275 24.5zM1034 213q-42 0 -71.5 -13t-29.5 -30v-44q0 -14 31 -25.5t70 -11.5t70 11.5t31 25.5v44q0 17 -29 30t-72 13zM1300 541q-113 0 -237 -19.5t-232 -59.5
t-175.5 -100.5t-67.5 -142.5q0 -91 94.5 -163.5t256 -115t361.5 -42.5q202 0 363 42.5t255 115.5t94 163q0 83 -68 144t-176.5 100.5t-232.5 58.5t-235 19zM1300 461q128 0 242.5 -20t202 -54.5t137.5 -78t50 -89.5q0 -61 -85.5 -116t-229 -90t-317.5 -35t-317.5 35t-229 90
t-85.5 116q0 46 50.5 89.5t138 78t202 54.5t241.5 20zM1564 309q-46 0 -79 -13.5t-33 -32.5v-50q0 -15 34.5 -27.5t77.5 -12.5q44 0 78 12.5t34 27.5v50q0 19 -33 32.5t-79 13.5z" />
</svg>