<?xml version="1.0" standalone="no"?>
<!DOCTYPE svg PUBLIC "-//W3C//DTD SVG 1.1//EN" "http://www.w3.org/Graphics/SVG/1.1/DTD/svg11.dtd">
<svg xmlns="http://www.w3.org/2000/svg" xmlns:xlink="http://www.w3.org/1999/xlink" version="1.1"
   viewBox="94 -151 2414 2169">
   <path fill="currentColor"
      d="M255 1034q-32 -35 -47 -81t-15 -94q0 -118 79 -196t194 -85q55 -188 175 -330t289 -221t370 -79q202 0 370.5 79t289 221t174.5 330q115 7 194 85t79 196q0 48 -15 94t-47 81l-49 -65q16 -20 23.5 -49.5t7.5 -60.5q0 -92 -60.5 -149.5t-149.5 -57.5h-45
q-44 -190 -152.5 -330t-267 -217t-352.5 -77q-193 0 -352 77t-267.5 217t-152.5 330h-45q-88 0 -149 57.5t-61 149.5q0 31 7.5 60.5t23.5 49.5zM511 1928q-131 0 -228 -58t-150 -164.5t-53 -251.5q0 -102 30 -201t96 -208t172 -242l20 -25q94 -117 166.5 -196t131 -126.5
t109.5 -68t102 -20.5q39 0 68 19.5t29 56.5q0 10 -1 13q8 -1 26.5 -2t34.5 -1q63 0 117.5 30t88.5 88t34 141q0 71 -29.5 128.5t-87.5 100.5t-143 70q-77 25 -145.5 51t-151.5 59q-164 66 -250 146t-86 172q0 48 28.5 78.5t73.5 30.5q39 0 77 -24t81 -78l53 62
q-52 61 -103.5 90.5t-107.5 29.5q-79 0 -132 -54t-53 -135q0 -120 100 -220t288 -173q83 -32 158 -59.5t151 -51.5q66 -21 110.5 -51.5t66.5 -72t22 -93.5q0 -80 -45.5 -127t-119.5 -47q-37 0 -66.5 10.5t-53.5 21t-46 10.5q-35 0 -35 -29q0 -18 18 -33t36 -29t18 -27
q0 -17 -39 -17q-67 0 -172.5 92.5t-251.5 280.5l-21 27q-104 134 -166.5 236.5t-90 190t-27.5 176.5q0 181 95 287.5t254 106.5q86 0 162 -35t138.5 -94.5t105.5 -132.5l69 40q-55 94 -130.5 162t-163 104t-181.5 36zM1300 1693q-310 0 -514 -114.5t-296 -337.5l63 -53
q156 425 747 425t747 -425l63 53q-91 223 -295.5 337.5t-514.5 114.5zM1300 1508q-185 0 -322 -46t-212 -129.5t-75 -196.5q0 -11 1 -23.5t4 -26.5l93 -29q-9 28 -12.5 45t-3.5 34q0 133 143 212.5t384 79.5t384 -79.5t143 -212.5q0 -17 -3.5 -34t-12.5 -45l93 29
q3 14 4 26.5t1 23.5q0 113 -75 196.5t-212 129.5t-322 46zM1300 1313q-84 0 -157 -20t-118 -52t-45 -67q0 -47 83 -72.5t237 -25.5t237 25.5t83 72.5q0 35 -45 67t-117.5 52t-157.5 20zM1300 1022q-28 0 -53 -20.5t-25 -43.5q0 -32 78 -32q79 0 79 32q0 23 -25 43.5
t-54 20.5zM2089 1928q-93 0 -181 -36t-163 -104t-131 -162l69 -40q43 73 105.5 132.5t139 94.5t161.5 35q159 0 254 -106.5t95 -287.5q0 -89 -27.5 -176.5t-90 -190t-166.5 -236.5l-21 -27q-146 -188 -251 -280.5t-173 -92.5q-39 0 -39 17q0 13 18 27t36 29t18 33
q0 29 -35 29q-21 0 -45.5 -10.5t-53.5 -21t-67 -10.5q-73 0 -119 47t-46 127q0 52 22 93.5t66.5 72t110.5 51.5q76 24 151 51.5t158 59.5q188 73 288 173t100 220q0 81 -52.5 135t-132.5 54q-55 0 -106.5 -29.5t-104.5 -90.5l53 -62q44 54 81.5 78t76.5 24q45 0 73.5 -30.5
t28.5 -78.5q0 -92 -86 -172t-250 -146q-82 -33 -151 -59t-146 -51q-85 -27 -143 -70t-87.5 -100.5t-29.5 -128.5q0 -83 35 -141t91 -88t118 -30q17 0 33.5 1t23.5 2q-1 -3 -1 -13q0 -37 29 -56.5t68 -19.5q51 0 102 20.5t109.5 68t131 126.5t166.5 196l20 25
q107 133 172.5 242t95.5 208t30 201q0 145 -53 251.5t-149.5 164.5t-228.5 58zM1300 520q-92 0 -156 -18.5t-113 -36.5t-97 -18h-133q27 -37 71.5 -54t98.5 -17q64 0 122.5 18.5t110.5 37t96 18.5q45 0 96.5 -18.5t110 -37t122.5 -18.5q54 0 98.5 17t71.5 54h-133
q-47 0 -96.5 18t-113.5 36.5t-156 18.5z" />
</svg>