<?xml version="1.0" standalone="no"?>
<!DOCTYPE svg PUBLIC "-//W3C//DTD SVG 1.1//EN" "http://www.w3.org/Graphics/SVG/1.1/DTD/svg11.dtd">
<svg xmlns="http://www.w3.org/2000/svg" xmlns:xlink="http://www.w3.org/1999/xlink" version="1.1"
   viewBox="94 -151 2414 2169">
   <path fill="currentColor"
      d="M1096 1526q-82 0 -156 -48t-134 -127.5t-100.5 -176t-56.5 -192.5l-414 -157v-627l798 303l357 -172l415 149l99 414l-92 -46l-80 -308l-337 -126l-328 161l-3 9q100 40 174 119t115.5 187t41.5 235q0 182 -83.5 292.5t-215.5 110.5zM499 1365q-33 0 -56.5 -23.5
t-23.5 -56.5t23.5 -56.5t56.5 -23.5t56.5 23.5t23.5 56.5t-23.5 56.5t-56.5 23.5zM559 1296l-37 -71l478 -247q34 18 37 70zM1096 1448q55 0 91.5 -68t36.5 -188q0 -95 -31.5 -191t-83 -176.5t-112.5 -129.5t-119 -49q-67 0 -112 62t-45 172q0 100 34 200t89.5 183.5
t121.5 134t130 50.5zM449 823l390 -314l-520 -196v461zM1265 1315l14 -92l249 -94l17 78zM2365 1678l-850 -323v-631l850 323v631zM1864 1403l385 -313l-654 -251v462zM1399 620q-35 0 -69.5 -16t-34.5 -30q0 -29 16 -49.5t47 -30.5l16 -214h50l16 214q62 17 62 80
q0 14 -34 30t-69 16zM1850 701l-61 -192l-90 -27q0 -47 18.5 -82t53.5 -35q44 0 81 36.5t59 89t22 101.5q0 47 -21 78t-62 31z" />
</svg>