<?xml version="1.0" standalone="no"?>
<!DOCTYPE svg PUBLIC "-//W3C//DTD SVG 1.1//EN" "http://www.w3.org/Graphics/SVG/1.1/DTD/svg11.dtd">
<svg xmlns="http://www.w3.org/2000/svg" xmlns:xlink="http://www.w3.org/1999/xlink" version="1.1"
   viewBox="94 -151 2414 2169">
   <path fill="currentColor"
      d="M120 1632v-90h50v-1274q0 -102 50.5 -161t138.5 -59h1882q88 0 138.5 59t50.5 161v1274h50v90h-2360zM489 1828q-73 0 -123.5 -51.5t-50.5 -122.5q0 -74 50.5 -124t123.5 -50t123.5 50.5t50.5 123.5t-50.5 123.5t-123.5 50.5zM489 1744q38 0 64 -26.5t26 -63.5
q0 -38 -26 -64t-64 -26q-37 0 -63.5 26t-26.5 64q0 37 26.5 63.5t63.5 26.5zM967 1828q-73 0 -123.5 -50.5t-50.5 -123.5t50.5 -123.5t123.5 -50.5t123.5 50.5t50.5 123.5t-50.5 123.5t-123.5 50.5zM967 1744q38 0 64 -26.5t26 -63.5q0 -38 -26 -64t-64 -26q-37 0 -63.5 26
t-26.5 64q0 37 26.5 63.5t63.5 26.5zM415 973v-366h330v366h-330zM485 903h190v-226h-190v226zM1633 1828q-73 0 -123.5 -50.5t-50.5 -123.5t50.5 -123.5t123.5 -50.5t123.5 50.5t50.5 123.5t-50.5 123.5t-123.5 50.5zM1633 1744q38 0 64 -26.5t26 -63.5q0 -38 -26 -64
t-64 -26q-37 0 -63.5 26t-26.5 64q0 37 26.5 63.5t63.5 26.5zM210 1247v-80h2180v80h-2180zM895 973v-366h330v366h-330zM965 903h190v-226h-190v226zM250 1472h2100v-1204h-2100v1204zM2111 1828q-73 0 -123.5 -50.5t-50.5 -123.5t50.5 -123.5t123.5 -50.5t123.5 50.5
t50.5 123.5t-50.5 123.5t-123.5 50.5zM2111 1744q38 0 64 -26.5t26 -63.5q0 -38 -26 -64t-64 -26q-37 0 -63.5 26t-26.5 64q0 37 26.5 63.5t63.5 26.5zM1375 973v-366h330v366h-330zM1445 903h190v-226h-190v226zM1855 973v-366h330v366h-330zM1925 903h190v-226h-190v226z
" />
</svg>