<?xml version="1.0" standalone="no"?>
<!DOCTYPE svg PUBLIC "-//W3C//DTD SVG 1.1//EN" "http://www.w3.org/Graphics/SVG/1.1/DTD/svg11.dtd">
<svg xmlns="http://www.w3.org/2000/svg" xmlns:xlink="http://www.w3.org/1999/xlink" version="1.1"
   viewBox="94 -151 2414 2169">
   <path fill="currentColor"
      d="M1888 1978l-1176 -2v-2078l1176 2v2078zM948 1757v-668h704v668h-704zM1018 1687h564v-528h-564v528zM950 1042q-33 0 -57 -23.5t-24 -57.5q0 -33 24 -56.5t57 -23.5t56.5 23.5t23.5 56.5q0 34 -23.5 57.5t-56.5 23.5zM1808 1898v-1918l-1016 -2v1918zM948 820v-701h704
v701h-704zM1018 750h564v-561h-564v561z" />
</svg>