<?xml version="1.0" standalone="no"?>
<!DOCTYPE svg PUBLIC "-//W3C//DTD SVG 1.1//EN" "http://www.w3.org/Graphics/SVG/1.1/DTD/svg11.dtd">
<svg xmlns="http://www.w3.org/2000/svg" xmlns:xlink="http://www.w3.org/1999/xlink" version="1.1"
   viewBox="94 -151 2414 2169">
   <path fill="currentColor"
      d="M1300 1928q-209 0 -380 -61t-294.5 -172.5t-190.5 -265.5t-67 -340q0 -147 43 -276q-40 -121 -60.5 -230.5t-20.5 -218.5q0 -188 54 -302t151 -114q58 0 131.5 45t153 124t154.5 181q76 -22 158 -32.5t168 -10.5t168 10.5t158 32.5q75 -102 154.5 -181t153.5 -124
t131 -45q97 0 151 114t54 302q0 109 -20 218.5t-61 230.5q43 129 43 276q0 186 -67 340t-190.5 265.5t-294.5 172.5t-380 61zM325 1618l-62 -50q41 -50 105 -90t138.5 -64.5t146.5 -27.5v80q-60 3 -123 23.5t-117 54t-88 74.5zM193 1345l-33 -74q63 -29 144 -45t157 -16
q38 0 72.5 4.5t65.5 13.5l-21 74q-27 -7 -53.5 -10t-58.5 -3q-71 0 -145.5 15t-127.5 41zM552 1136q-140 -55 -380 -55v-80q126 0 229 15.5t181 45.5zM1300 1568q-84 0 -151 -50t-110 -144l69 -36q33 72 83 111t109 39t109 -39t83 -111l69 36q-43 94 -110 144t-151 50z
M962 1142q-168 -37 -261 -117t-93 -186q0 -68 43 -113t107 -45q45 0 99 27q30 -41 67.5 -64.5t78.5 -23.5q65 0 108.5 52.5t43.5 129.5q0 160 -193 340zM1101 1400q-58 0 -108.5 -19t-92.5 -56l52 -60q29 26 68.5 40.5t80.5 14.5q59 0 112.5 -34t53.5 -95h66q0 61 54 95
t112 34q41 0 80.5 -14.5t68.5 -40.5l52 60q-42 37 -92.5 56t-108.5 19q-57 0 -112 -24t-87 -62q-32 38 -87 62t-112 24zM1300 1249q-40 0 -77.5 -31.5t-37.5 -62.5q0 -27 31 -41.5t84 -14.5t84 14.5t31 41.5q0 31 -37 62.5t-78 31.5zM587 655q-24 -62 -36 -146.5t-12 -157.5
q0 -63 9 -105.5t27 -42.5q17 0 54.5 34.5t85.5 91t94 121.5q-56 31 -117 90t-105 115zM1300 1848q257 0 448.5 -96t297.5 -267t106 -396q0 -149 -47 -276q29 -82 47.5 -157t28 -147.5t9.5 -144.5q0 -152 -35.5 -244t-89.5 -92q-45 0 -114.5 48.5t-146 130.5t-146.5 184
q-82 -28 -171.5 -42t-186.5 -14q-89 0 -175 13t-183 43q-69 -102 -146.5 -184t-146 -130.5t-114.5 -48.5q-54 0 -89.5 92t-35.5 244q0 72 9.5 144.5t28.5 147.5t47 157q-47 127 -47 276q0 225 106 396t297.5 267t448.5 96zM2275 1618q-33 -41 -87.5 -74.5t-117 -54
t-123.5 -23.5v-80q72 3 146.5 27.5t138.5 64.5t105 90zM1167 584q-34 0 -76 -56.5t-88 -212.5l246 -38q2 23 3 45t1 43q0 101 -22.5 160t-63.5 59zM1638 1142q-193 -180 -193 -340q0 -77 43.5 -129.5t108.5 -52.5q84 0 146 88q54 -27 99 -27q65 0 107.5 45t42.5 113
q0 106 -93 186t-261 117zM2407 1345q-52 -26 -127 -41t-146 -15q-32 0 -58.5 3t-53.5 10l-21 -74q32 -9 66 -13.5t72 -4.5q76 0 157 16t144 45zM1433 584q-40 0 -63 -59t-23 -160q0 -21 1 -43t3 -45l246 38q-46 156 -88 212.5t-76 56.5zM2048 1136l-30 -74q78 -30 181 -45.5
t229 -15.5v80q-240 0 -380 55zM2013 655q-44 -56 -105 -115t-117 -90q46 -65 94 -121.5t86 -91t54 -34.5q18 0 27 42.5t9 105.5q0 73 -12 157.5t-36 146.5z" />
</svg>