<?xml version="1.0" standalone="no"?>
<!DOCTYPE svg PUBLIC "-//W3C//DTD SVG 1.1//EN" "http://www.w3.org/Graphics/SVG/1.1/DTD/svg11.dtd">
<svg xmlns="http://www.w3.org/2000/svg" xmlns:xlink="http://www.w3.org/1999/xlink" version="1.1"
   viewBox="94 -151 2414 2169">
   <path fill="currentColor"
      d="M1300 1978q-216 0 -404.5 -80.5t-331.5 -223.5t-223.5 -331.5t-80.5 -404.5t80.5 -404.5t223.5 -331.5t331.5 -223.5t404.5 -80.5q215 0 403.5 80.5t331.5 223.5t224 331.5t81 404.5t-81 404.5t-224 331.5t-331.5 223.5t-403.5 80.5zM1007 1536l-44 -61
q168 -120 337 -120q174 0 337 120l-44 61q-145 -106 -293 -106q-145 0 -293 106zM948 1040q-49 0 -87 -36t-38 -88q0 -11 3 -23.5t11 -24.5q-36 2 -79 15t-80 29l-24 -66q58 -29 120.5 -44.5t113.5 -15.5q78 0 130 32.5t52 97.5q0 52 -35.5 88t-86.5 36zM592 710l-46 -52
q68 -59 159 -86.5t220 -27.5v70q-118 0 -196 23t-137 73zM1300 1898q199 0 373 -74.5t306 -206.5t206.5 -306t74.5 -373t-74.5 -373t-206.5 -306t-306 -206.5t-373 -74.5t-373 74.5t-306 206.5t-206.5 306t-74.5 373t74.5 373t206.5 306t306 206.5t373 74.5zM1826 1040
q-49 0 -87 -36t-38 -88q0 -11 3.5 -23.5t10.5 -24.5q-35 2 -78.5 15t-80.5 29l-24 -66q59 -29 121.5 -44.5t112.5 -15.5q78 0 130.5 32.5t52.5 97.5q0 52 -35.5 88t-87.5 36zM2008 710q-58 -50 -136 -73t-197 -23v-70q130 0 221 27.5t158 86.5z" />
</svg>