<?xml version="1.0" standalone="no"?>
<!DOCTYPE svg PUBLIC "-//W3C//DTD SVG 1.1//EN" "http://www.w3.org/Graphics/SVG/1.1/DTD/svg11.dtd">
<svg xmlns="http://www.w3.org/2000/svg" xmlns:xlink="http://www.w3.org/1999/xlink" version="1.1"
   viewBox="94 -151 2414 2169">
   <path fill="currentColor"
      d="M444 1700q-70 -53 -110 -102.5t-40 -116.5q0 -339 72.5 -573.5t200.5 -356t294 -121.5h1479v1270h-1896zM477 1462q24 0 44.5 -26.5t20.5 -57.5q0 -23 -12 -38t-29 -15q-25 0 -44.5 26t-19.5 59q0 22 11.5 37t28.5 15zM312 1978q-35 0 -47.5 -25.5t9.5 -52.5l230 -273
l59 51l-159 187q-8 10 -2 21.5t19 11.5h1839v-202h80v282h-2028zM351 1559l13 -268h46q79 0 140.5 -40.5t100.5 -113.5l181 -339h-379l136 -208h373q37 0 53 27.5t-1 59.5l-394 739q-36 67 -96 105t-134 38h-39zM531 729h228q13 0 21.5 -10t8.5 -25t-8.5 -24.5t-21.5 -9.5
h-183zM1076 1206h233q17 0 29 -12t12 -29v-321q0 -26 -24 -26q-41 0 -90 36t-94 90.5t-74 113.5t-29 106q0 42 37 42zM463 1622h1797v-338h-1178q-61 0 -92.5 -28t-31.5 -81q0 -66 35.5 -142t91.5 -143.5t120 -110.5t121 -43h934v-228h-1399q-146 0 -256 117.5t-171.5 335.5
t-61.5 520q0 49 19.5 74.5t71.5 66.5zM1469 1206h351q16 0 27.5 -12t11.5 -29v-311q0 -17 -11.5 -28.5t-27.5 -11.5h-351q-17 0 -29 11.5t-12 28.5v311q0 17 12 29t29 12zM1193 437v-79h270v79h-270zM1130 367q-16 0 -27 -10t-11 -25t11 -25t27 -10h396q16 0 27 10t11 25
t-11 25t-27 10h-396zM1980 1206h280v-392h-280q-17 0 -29 11.5t-12 28.5v311q0 17 12 29t29 12zM1294 394l-168 -169q-15 -16 -15.5 -34.5t15.5 -34.5l160 -160h84l161 160q16 16 15.5 34.5t-15.5 34.5l-167 169q-14 15 -35 15t-35 -15zM1297 298h65l75 -77v-66l-108 -109
l-112 111v63zM280 14v-78h2060v78h-2060zM1213 86v-188h231v188h-231z" />
</svg>