<?xml version="1.0" standalone="no"?>
<!DOCTYPE svg PUBLIC "-//W3C//DTD SVG 1.1//EN" "http://www.w3.org/Graphics/SVG/1.1/DTD/svg11.dtd">
<svg xmlns="http://www.w3.org/2000/svg" xmlns:xlink="http://www.w3.org/1999/xlink" version="1.1"
   viewBox="94 -151 2414 2169">
   <path fill="currentColor"
      d="M1300 1300q-123 0 -206.5 -0.5t-151 -3t-141.5 -7t-180 -11.5l60 -1297q125 -31 225.5 -49t194.5 -26t199 -8t199 8t195 26t225 49l60 1297q-106 7 -180 11.5t-141.5 7t-151 3t-206.5 0.5zM574 1978q-32 0 -43 -23t7 -49l60 -88h160l-72 160h-112zM726 1743
q-33 0 -43.5 -23.5t5.5 -50.5l50 -82h123l-71 156h-64zM872 1978l58 -160h740l58 160h-856zM954 1743l55 -156h582l55 156h-692zM1300 1642q-151 0 -298.5 -11.5t-275.5 -36.5q-27 -5 -43.5 -26t-16.5 -49v-255h1268v255q0 28 -16.5 49t-43.5 26q-127 25 -274.5 36.5
t-299.5 11.5zM1300 1572q152 0 291.5 -11.5t257.5 -33.5q15 -3 15 -19v-174h-1128v174q0 16 12 18q118 23 258 34.5t294 11.5zM915 1081q-37 0 -64 -27t-27 -64q0 -38 27 -64.5t64 -26.5q38 0 64.5 26.5t26.5 64.5q0 37 -26.5 64t-64.5 27zM1914 1978l-72 -160h160l60 88
q18 26 7 49t-43 23h-112zM1810 1743l-71 -156h123l50 82q17 27 6 50.5t-44 23.5h-64zM1018 655q-27 0 -46.5 -19.5t-19.5 -47.5q0 -27 19.5 -46.5t46.5 -19.5t46.5 19.5t19.5 46.5q0 28 -19.5 47.5t-46.5 19.5zM1300 896l-605 -116l5 -80l600 117l600 -117l5 80zM1300 1220
q111 0 188.5 -0.5t139.5 -2t124 -5t143 -8.5l-53 -1159q-106 -25 -194 -39.5t-171.5 -21t-176.5 -6.5t-176.5 6.5t-171 21t-194.5 39.5l-53 1159q81 5 143 8.5t124 5t139.5 2t188.5 0.5zM1685 1081q-37 0 -64 -27t-27 -64q0 -38 27 -64.5t64 -26.5q38 0 64.5 26.5t26.5 64.5
q0 37 -26.5 64t-64.5 27zM949 415q-17 0 -28 -12t-9 -29l23 -198q3 -31 34 -31h235q15 0 25.5 10.5t10.5 25.5v198q0 15 -10.5 25.5t-25.5 10.5h-255zM1582 655q-27 0 -46.5 -19.5t-19.5 -47.5q0 -27 19.5 -46.5t46.5 -19.5t46.5 19.5t19.5 46.5q0 28 -19.5 47.5t-46.5 19.5
zM1396 415q-15 0 -25.5 -10.5t-10.5 -25.5v-198q0 -15 10.5 -25.5t25.5 -10.5h235q31 0 34 31l23 198q2 17 -9 29t-28 12h-255z" />
</svg>