<?xml version="1.0" standalone="no"?>
<!DOCTYPE svg PUBLIC "-//W3C//DTD SVG 1.1//EN" "http://www.w3.org/Graphics/SVG/1.1/DTD/svg11.dtd">
<svg xmlns="http://www.w3.org/2000/svg" xmlns:xlink="http://www.w3.org/1999/xlink" version="1.1"
   viewBox="94 -151 2414 2169">
   <path fill="currentColor"
      d="M255 1545q-58 0 -93 -38.5t-35 -108.5q0 -54 10.5 -110.5t37.5 -128.5q15 -254 33 -423t52.5 -271t98 -153.5t168 -68.5t263.5 -17q23 0 33 6.5t20 26.5l20 38h1335q92 0 145 23t76.5 81t26.5 164l27 853q2 64 -32.5 95.5t-92.5 31.5h-251v-80h234q33 0 48.5 -17.5
t13.5 -58.5l-32 -992h-1967q-24 55 -48.5 143t-45 194.5t-33 220.5t-12.5 221q-20 45 -34 103t-14 103q0 35 14 59t45 24h173v80h-184zM171 1400v-70h118l17 -106q3 -20 -8.5 -32t-47.5 -12h-37v-70h37q74 0 105 29.5t23 79.5l-28 181h-179zM576 1728q-85 0 -145 -60.5
t-60 -145.5t60 -145t145 -60t145 60t60 145t-60 145.5t-145 60.5zM576 1623q42 0 71 -29.5t29 -71.5q0 -41 -29 -70.5t-71 -29.5t-71 29.5t-29 70.5q0 42 29 71.5t71 29.5zM717 1545v-80h1095v80h-1095zM433 990h317v-543h-239q-88 0 -124 107t-36 352q0 40 19.5 62t62.5 22
zM830 1335h170v-838h-170v838zM750 1505v-435h-534l142 -703h2024l30 626h-1332v512h-330zM1956 1728q-85 0 -145 -60.5t-60 -145.5t60 -145t145 -60t145 60t60 145t-60 145.5t-145 60.5zM1956 1623q42 0 71 -29.5t29 -71.5q0 -41 -29 -70.5t-71 -29.5t-71 29.5t-29 70.5
q0 42 29 71.5t71 29.5zM1080 913h548v-466h-548v466zM2148 1323q-28 0 -28 -25t28 -25h87q28 0 28 25t-28 25h-87zM2148 1213q-28 0 -28 -25t28 -25h87q28 0 28 25t-28 25h-87zM1005 323l20 -112q5 -28 23 -45.5t46 -17.5h514q28 0 47 17.5t23 45.5l19 112h-692zM2148 1103
q-28 0 -28 -25t28 -25h87q28 0 28 25t-28 25h-87zM2321 1356v-214h104l8 214h-112zM1708 913h531q29 0 43.5 -17.5t12.5 -49.5l-13 -331q-1 -33 -25 -50.5t-65 -17.5h-484v466z" />
</svg>