<?xml version="1.0" standalone="no"?>
<!DOCTYPE svg PUBLIC "-//W3C//DTD SVG 1.1//EN" "http://www.w3.org/Graphics/SVG/1.1/DTD/svg11.dtd">
<svg xmlns="http://www.w3.org/2000/svg" xmlns:xlink="http://www.w3.org/1999/xlink" version="1.1"
   viewBox="94 -151 2414 2169">
   <path fill="currentColor"
      d="M1002 1640q-148 0 -284.5 -6.5t-244 -19t-168.5 -29.5v-112l51 -119v-1001h80v1017l-51 119v32q98 18 261 28.5t356 10.5q194 0 357.5 -10.5t261.5 -28.5v-31l-52 -119v-1018h80v1001l52 119v112q-61 17 -169 29.5t-244.5 19t-285.5 6.5zM198 1978v-667h203l-50 230
l140 59l-102 378h-191zM701 1978l54 -349l469 -8l108 357h-631zM545 1800q-16 0 -28 -11.5t-12 -28.5v-190h993v190q0 17 -11.5 28.5t-28.5 11.5h-94q-17 0 -29 -11.5t-12 -28.5v-142q-91 4 -167 6t-152 2q-75 0 -154 -2t-170 -6v142q0 17 -12 28.5t-29 11.5h-94zM702 1373
q-35 0 -60.5 -25.5t-25.5 -60.5t25.5 -60.5t60.5 -25.5t60.5 25.5t25.5 60.5t-25.5 60.5t-60.5 25.5zM599 1016l9 -92q3 -27 21.5 -44t45.5 -17h20q34 0 51 30l20 34l20 -34q17 -30 51 -30h20q27 0 45.5 17t21.5 44l9 92h-334zM1302 1373q-35 0 -60.5 -25.5t-25.5 -60.5
t25.5 -60.5t60.5 -25.5t60.5 25.5t25.5 60.5t-25.5 60.5t-60.5 25.5zM1675 1978l-197 -393l155 -53l732 446h-690zM1001 1083q-105 0 -214 -13t-213 -30v-536q99 -17 168 -25.5t129 -11.5t130 -3q71 0 131.5 3t129.5 11.5t167 25.5v539q-98 17 -167.5 25.5t-129.5 11.5
t-131 3zM1001 1003q61 0 112 -2t106.5 -8t129.5 -18v-403q-73 -12 -128.5 -18t-107 -8t-112.5 -2q-60 0 -111 2t-106.5 8t-129.5 18v400q107 16 190.5 23.5t156.5 7.5zM977 1010v-476h50v476h-50zM1071 1016l9 -92q3 -27 21.5 -44t45.5 -17h20q34 0 51 30l20 34l20 -34
q17 -30 51 -30h20q27 0 45.5 17t21.5 44l9 92h-334zM2346 1758l-760 -365l-8 -82h770v78h-589l587 282v87zM359 405l-39 -42q23 -60 60.5 -109t109 -83.5t195 -53.5t319.5 -19q195 0 318.5 19t195 53.5t108.5 83.5t60 109l-40 42q-199 -42 -351.5 -61.5t-292.5 -19.5
q-139 0 -291.5 19.5t-351.5 61.5zM911 265h182q17 0 28.5 -12t11.5 -28v-33q0 -17 -11.5 -29t-28.5 -12h-182q-16 0 -28 12t-12 29v33q0 16 12 28t28 12zM833 110q-17 0 -17 -20t17 -20h343q17 0 17 20t-17 20h-343zM859 138l-29 -206l59 -8l31 214h-61zM791 22l-59 -47
q30 -38 56 -57.5t54 -19.5h336q26 0 52.5 19.5t57.5 57.5l-59 48q-21 -26 -35 -37.5t-16 -11.5h-336q-3 0 -16 10.5t-35 37.5zM1094 138l31 -214l59 8l-29 206h-61zM2322 1978v-1640q22 -8 41 -8q18 0 39 8v1640h-80zM1775 763v-427h419v427h-419zM1843 695h283v-291h-283
v291zM1802 572v-69h352v69h-352zM2160 691v-80h178v80h-178zM2160 491v-80h178v80h-178z" />
</svg>