<?xml version="1.0" standalone="no"?>
<!DOCTYPE svg PUBLIC "-//W3C//DTD SVG 1.1//EN" "http://www.w3.org/Graphics/SVG/1.1/DTD/svg11.dtd">
<svg xmlns="http://www.w3.org/2000/svg" xmlns:xlink="http://www.w3.org/1999/xlink" version="1.1"
   viewBox="94 -151 2414 2169">
   <path fill="currentColor"
      d="M434 1978q-71 0 -122.5 -51t-51.5 -121v-1735q0 -71 51 -122t122 -51h1734q71 0 122 51t51 122v1735q0 70 -51.5 121t-122.5 51h-1732zM949 1876h133l40 -237h-112zM605 1923h138l358 -891h-60zM544 967h-201v-13v-7q0 -56 16 -96t37 -40q22 0 37.5 40.5t15.5 99.5
q20 -70 47 -70q15 0 28 22.5t20 63.5zM1029 1563h106l34 -202h-89zM312 1032v-70h740l-20 70h-720zM1518 1876h133l-61 -237h-112zM662 967q16 -56 40 -56q15 0 28 23q17 -53 42 -53q15 0 28 22.5t20 63.5h-158zM535 1239v-999h80v999h-80zM1020 1017q-69 -69 -131 -109
t-129.5 -57.5t-155.5 -18.5l-37 -12q-66 -50 -122.5 -70t-127.5 -20v-68q80 0 148.5 23.5t146.5 78.5q92 1 166.5 20.5t144 64t145.5 120.5zM464 1928l576 -966h520l576 966h-1672zM1096 1299h83l24 -144h-70zM1465 1563h106l-51 -202h-89zM470 589v-78h375v78h-375z
M1143 1117h66l14 -83h-59zM1421 1299h83l-37 -144h-70zM1857 1923h138l-436 -891h-60zM1391 1117h66l-21 -83h-59zM834 532l-272 -271l53 -59l273 270zM434 1898h1732q38 0 66 -27.5t28 -64.5v-1735q0 -38 -27.5 -65.5t-65.5 -27.5h-1734q-38 0 -65.5 27.5t-27.5 65.5v1735
q0 37 28.5 64.5t65.5 27.5zM470 280v-89h375v89h-375zM987 468l110 110l110 -110h-83v-61h-54v61h-83zM1097 367q32 0 53.5 -22t21.5 -53q0 -32 -21.5 -53.5t-53.5 -21.5q-31 0 -53 21.5t-22 53.5q0 31 22 53t53 22zM824 709v-623h952v623h-952zM904 631h792v-467h-792v467z
M1568 1032l-20 -70h741v70h-721zM1393 468l110 110l110 -110h-83v-61h-54v61h-83zM1611 1022l-53 -43q87 -107 186.5 -155.5t223.5 -48.5h20q63 -53 137 -86t159 -44l9 67q-161 22 -280 131h-45q-110 0 -195 42.5t-162 136.5zM2279 968h-392q7 -32 41 -51t80 -19
q16 0 30.5 2.5t27.5 7.5q25 -18 54 -18q52 0 78 48q5 -26 15 -43t23 -17q17 0 30 25t13 60v5zM1406 350h194v-116h-194v116zM1985 1239v-999h80v999h-80zM1755 589v-78h375v78h-375zM1766 532l-54 -60l273 -270l53 59zM1755 280v-89h375v89h-375z" />
</svg>