<?xml version="1.0" standalone="no"?>
<!DOCTYPE svg PUBLIC "-//W3C//DTD SVG 1.1//EN" "http://www.w3.org/Graphics/SVG/1.1/DTD/svg11.dtd">
<svg xmlns="http://www.w3.org/2000/svg" xmlns:xlink="http://www.w3.org/1999/xlink" version="1.1"
   viewBox="94 -151 2414 2169">
   <path fill="currentColor"
      d="M530 1978v-157h-174q-63 0 -104.5 -41.5t-41.5 -103.5v-513q0 -63 42.5 -104.5t106.5 -41.5h254v-194q0 -62 42 -104t104 -42h1082q62 0 104 42t42 104v194h254q65 0 107 41.5t42 104.5v513q0 62 -41.5 103.5t-104.5 41.5h-174v157h-226v-157h-1088v157h-226zM505 1328
l108 -130v-101h-124q16 30 16 66v165zM505 1557h755v-136h-755v136zM598 1341h662v-85h-591zM356 1741h1888q30 0 48 -18t18 -47v-513q0 -31 -18.5 -48.5t-50.5 -17.5q-30 0 -48 18t-18 48v474h-1750v-474q0 -30 -18 -48t-48 -18q-31 0 -50 17.5t-19 48.5v513q0 29 18 47
t48 18zM693 1176h567v-419h-501q-30 0 -48 18t-18 48v353zM1340 1557h755v-136h-755v136zM1340 1341h662l-71 -85h-591v85zM1340 1176h567v-353q0 -30 -18 -48t-48 -18h-501v419zM2095 1328v-165q0 -36 16 -66h-124v101zM1625 714v-470h74v470h-74zM1662 471
q-96 0 -169.5 -12t-115.5 -42t-42 -83t41.5 -83t115.5 -42t170 -12q97 0 170.5 12t115 42t41.5 83t-41.5 83t-115.5 42t-170 12zM1662 403q129 0 192 -17t63 -52t-62.5 -52t-192.5 -17t-192.5 17t-62.5 52t63 52t192 17zM1337 321l67 -308q13 -59 78 -87t180 -28t180 28
t78 87l67 308l-87 -53l-53 -240q-6 -27 -52.5 -41.5t-132.5 -14.5t-132.5 14.5t-52.5 41.5l-52 237z" />
</svg>