<?xml version="1.0" standalone="no"?>
<!DOCTYPE svg PUBLIC "-//W3C//DTD SVG 1.1//EN" "http://www.w3.org/Graphics/SVG/1.1/DTD/svg11.dtd">
<svg xmlns="http://www.w3.org/2000/svg" xmlns:xlink="http://www.w3.org/1999/xlink" version="1.1"
   viewBox="94 -151 2414 2169">
   <path fill="currentColor"
      d="M2024 1198l-353 -650l49 -147l-87 -24l-52 153h-634l91 -302h-93l-250 831l-97 126l-77 -14l110 -145l241 -798h-263q-67 0 -108.5 30.5t-41.5 83.5q0 38 25 58.5t77 20.5v80q-85 0 -133.5 -43t-48.5 -116q0 -86 65 -140t165 -54h526l-94 312h490l58 -174l218 75l-60 180
l341 628zM312 1581l-36 -35l239 -239l35 36zM570 1688v-337h50v337h-50zM170 1287v-50h337v50h-337zM515 1218l-238 -239l36 -35l238 238zM878 1580l-238 -238l35 -35l239 238zM596 1728q-128 0 -235 -63.5t-170.5 -170t-63.5 -235.5t63.5 -235.5t170.5 -170t235 -63.5
q73 0 139 21l-35 115q-53 -16 -104 -16q-95 0 -174.5 47.5t-127 126.5t-47.5 175q0 95 47.5 174.5t127 127t174.5 47.5q96 0 175 -47.5t126.5 -127t47.5 -174.5q0 -77 -32 -144.5t-86 -115.5l42 -120q89 64 142.5 163.5t53.5 216.5q0 129 -63.5 235.5t-170 170t-235.5 63.5z
M596 1385q-52 0 -88.5 -37t-36.5 -89q0 -51 36.5 -88t88.5 -37t88.5 37t36.5 88q0 52 -36.5 89t-88.5 37zM562 1318h68l34 -59l-34 -58h-68l-34 58zM683 1287v-50h337v50h-337zM570 1174v-337h50v337h-50zM1149 1589q-19 0 -19 -20v-100q0 -20 19 -20h138q19 0 19 20v100
q0 20 -19 20h-138zM1269 1506l-46 -40l139 -163q22 -27 46 -8q23 19 -1 48zM705 1296l-42 -61l101 -132l100 -334l414 427l-29 71l-352 -364l-70 234zM1396 1417q-67 0 -113.5 -46.5t-46.5 -113.5q0 -65 46.5 -112t113.5 -47q66 0 113 47t47 112q0 67 -47 113.5t-113 46.5z
M1396 1337q33 0 56.5 -23t23.5 -57q0 -32 -23.5 -55.5t-56.5 -23.5t-56.5 23.5t-23.5 55.5q0 34 23.5 57t56.5 23zM1334 1125l-432 -446l17 -59h630l-170 494zM1452 1397l62 -72l435 -15l41 69zM1336 1026l116 -336h-442zM1815 1643l-43 -25l168 -292l43 25zM2091 1679
l-87 -326l49 -13l87 326zM1542 1178q16 -89 63 -164t115 -127l59 106q-41 35 -70.5 82.5t-43.5 102.5h-123zM1533 1166l285 -11l-174 -325zM2004 1385q-52 0 -88.5 -37t-36.5 -89q0 -51 36.5 -88t88.5 -37t88.5 37t36.5 88q0 52 -36.5 89t-88.5 37zM1538 1236l-68 -103
l159 -479l304 566zM1970 1318h68l34 -59l-34 -58h-68l-34 58zM2004 1728q-112 0 -208.5 -49.5t-162.5 -134.5t-88 -191h123q32 109 125 182t211 73q96 0 175 -47.5t126.5 -127t47.5 -174.5q0 -96 -47.5 -175t-126.5 -126.5t-175 -47.5q-22 0 -44 3t-43 8l-59 -108
q71 -23 146 -23q129 0 235.5 63.5t170 170t63.5 235.5t-63.5 235.5t-170 170t-235.5 63.5zM2361 1496l-292 -168l25 -43l292 168zM2098 1263l-13 -48l325 -88l14 49zM2072 1198l-43 -25l168 -292l43 25zM1768 409l-82 -81l-94 43q-85 -26 -127.5 -49.5t-42.5 -45.5
q0 -14 16.5 -23t44.5 -9h380q77 0 77 31q0 25 -47.5 61.5t-124.5 72.5z" />
</svg>