<?xml version="1.0" standalone="no"?>
<!DOCTYPE svg PUBLIC "-//W3C//DTD SVG 1.1//EN" "http://www.w3.org/Graphics/SVG/1.1/DTD/svg11.dtd">
<svg xmlns="http://www.w3.org/2000/svg" xmlns:xlink="http://www.w3.org/1999/xlink" version="1.1"
   viewBox="94 -151 2414 2169">
   <path fill="currentColor"
      d="M1320 1978q-216 0 -406 -82t-331 -224l83 -31q128 120 296 188.5t358 68.5q199 0 373 -74.5t306 -206.5t206.5 -306t74.5 -373t-74.5 -373t-206.5 -306t-306 -206.5t-373 -74.5t-373 74.5t-306 206.5t-206.5 306t-74.5 373q0 95 18 185l-56 109q-20 -70 -31 -144
t-11 -150q0 -216 80.5 -404.5t223.5 -331.5t331.5 -223.5t404.5 -80.5q215 0 403.5 80.5t331.5 223.5t224 331.5t81 404.5t-81 404.5t-224 331.5t-331.5 223.5t-403.5 80.5zM551 1643q105 0 168 -61.5t63 -164.5q0 -134 -103 -294l-128 -199l-128 199q-103 160 -103 294
q0 103 63 164.5t168 61.5zM551 1723q-138 0 -224.5 -85t-86.5 -221q0 -80 28.5 -164t86.5 -174l196 -303l196 303q115 179 115 338q0 136 -86.5 221t-224.5 85zM1024 1665l-62 -52q164 -192 358 -192q195 0 358 192l-62 52q-138 -164 -296 -164t-296 164zM968 1118
q-51 0 -88 -44.5t-37 -105.5q0 -62 37 -106t88 -44t88 44t37 106q0 61 -37 105.5t-88 44.5zM644 594l-14 -78q116 -21 189.5 -57t117.5 -94l64 48q-55 71 -141 114.5t-216 66.5zM1672 1118q-51 0 -88 -44.5t-37 -105.5q0 -62 37 -106t88 -44t88 44t37 106q0 61 -37 105.5
t-88 44.5zM1996 594q-130 -23 -216 -66.5t-141 -114.5l64 -48q44 58 117.5 94t189.5 57z" />
</svg>