<?xml version="1.0" standalone="no"?>
<!DOCTYPE svg PUBLIC "-//W3C//DTD SVG 1.1//EN" "http://www.w3.org/Graphics/SVG/1.1/DTD/svg11.dtd">
<svg xmlns="http://www.w3.org/2000/svg" xmlns:xlink="http://www.w3.org/1999/xlink" version="1.1"
   viewBox="94 -151 2414 2169">
   <path fill="currentColor"
      d="M1300 1978q-216 0 -404.5 -80.5t-331.5 -223.5t-223.5 -331.5t-80.5 -404.5t80.5 -404.5t223.5 -331.5t331.5 -223.5t404.5 -80.5q215 0 403.5 80.5t331.5 223.5t224 331.5t81 404.5q0 49 -4.5 98t-13.5 96q-37 -29 -74 -39q6 -38 9 -76.5t3 -78.5q0 -199 -74.5 -373
t-206.5 -306t-306 -206.5t-373 -74.5t-373 74.5t-306 206.5t-206.5 306t-74.5 373t74.5 373t206.5 306t306 206.5t373 74.5q173 0 328 -57t279 -158q31 0 62 -1t61 -3q-141 139 -329 219t-401 80zM1270 1603v-80q68 0 112 -26.5t44 -67.5q0 -32 -27.5 -52t-73.5 -20v-80
q45 0 69 -19.5t24 -44.5q0 -32 -37.5 -46.5t-110.5 -14.5v-80q119 0 173.5 39.5t54.5 101.5q0 59 -46 103q26 23 40 51.5t14 61.5q0 73 -64.5 123.5t-171.5 50.5zM938 858q-51 0 -88 -44.5t-37 -105.5q0 -62 37 -106t88 -44t88 44t37 106q0 61 -37 105.5t-88 44.5zM685 556
l-70 -38q46 -83 121.5 -139.5t197.5 -100.5l28 76q-111 40 -175 86.5t-102 115.5zM1949 1602q-129 0 -262 -48q35 -28 50.5 -59t15.5 -62q0 -43 -16 -90.5t-16 -120.5q0 -108 48.5 -168.5t127.5 -60.5q72 0 124.5 49.5t52.5 126.5q22 -6 42.5 -9t38.5 -3q81 0 127 47t46 127
t-48 141t-133.5 95.5t-197.5 34.5zM1853 880q-65 -32 -133.5 -47.5t-139.5 -15.5q-18 0 -36 1t-41 4l-35 -77q91 -82 182.5 -142t182.5 -96l30 74q-58 23 -120 59t-143 97h6h6q69 4 140 22t135 49z" />
</svg>