<?xml version="1.0" standalone="no"?>
<!DOCTYPE svg PUBLIC "-//W3C//DTD SVG 1.1//EN" "http://www.w3.org/Graphics/SVG/1.1/DTD/svg11.dtd">
<svg xmlns="http://www.w3.org/2000/svg" xmlns:xlink="http://www.w3.org/1999/xlink" version="1.1"
   viewBox="94 -151 2414 2169">
   <path fill="currentColor"
      d="M606 1713q-159 -143 -252.5 -343.5t-93.5 -431.5q0 -216 80.5 -404.5t223.5 -331.5t331.5 -223.5t404.5 -80.5t404.5 80.5t331.5 223.5t223.5 331.5t80.5 404.5q0 231 -93.5 431.5t-252.5 343.5l-75 -41q157 -132 249 -322.5t92 -411.5q0 -199 -74.5 -373t-206.5 -306
t-306 -206.5t-373 -74.5t-373 74.5t-306 206.5t-206.5 306t-74.5 373q0 221 92 411.5t249 322.5zM1300 1978q-52 0 -104 -5t-102 -15l-17 -86q109 26 223 26t223 -26l-17 86q-50 10 -101.5 15t-104.5 5zM837 2028q-146 0 -230.5 -44t-80.5 -118q-81 -28 -81 -85
q0 -47 59 -77t171 -43l40 -1015l79 -3l-41 1082q-97 6 -160 23t-63 35q0 10 23 19.5t66 14.5q-13 22 -13 40q0 43 60 67t171 24q70 0 121.5 -8t80.5 -21.5t29 -31.5q0 -19 -24 -32.5t-56 -29.5t-56 -42.5t-24 -71.5v-1079l79 13v1039q0 40 25.5 61.5t59 37.5t59 40t25.5 68
q0 39 -42 70t-114.5 49t-162.5 18zM940 1602v-470q71 -56 162.5 -86t197.5 -30t198 30t162 86v470q-70 -31 -161 -60t-199 -29q-107 0 -198 29t-162 60zM963 1299h675v-81q-62 -59 -147.5 -90.5t-190.5 -31.5q-104 0 -189.5 31.5t-147.5 90.5v81zM654 787l-58 -51
q44 -64 111.5 -101t140.5 -37t141 37t111 101l-58 51q-31 -49 -85 -79t-109 -30t-109 30t-85 79zM585 605l-68 -45q58 -86 141.5 -142t195.5 -87l20 78q-98 26 -168 73t-121 123zM1763 2028q-90 0 -162 -18t-114.5 -49t-42.5 -70q0 -44 25.5 -68t59 -40t59 -37.5t25.5 -61.5
v-1039l79 -13v1079q0 45 -24 71.5t-56 42.5t-56 29.5t-24 32.5q0 18 29 31.5t81 21.5t121 8q111 0 171 -24t60 -67q0 -18 -13 -40q44 -5 66.5 -14.5t22.5 -19.5q0 -18 -62.5 -35t-160.5 -23l-41 -1082l79 3l40 1015q113 13 171.5 43t58.5 77q0 57 -81 85q5 74 -80 118
t-231 44zM1558 787l-58 -51q44 -64 111.5 -101t140.5 -37t141 37t111 101l-58 51q-31 -49 -85 -79t-109 -30t-109 30t-85 79zM2015 605q-51 -76 -121 -123t-168 -73l20 -78q113 31 196 87t141 142z" />
</svg>