<?xml version="1.0" standalone="no"?>
<!DOCTYPE svg PUBLIC "-//W3C//DTD SVG 1.1//EN" "http://www.w3.org/Graphics/SVG/1.1/DTD/svg11.dtd">
<svg xmlns="http://www.w3.org/2000/svg" xmlns:xlink="http://www.w3.org/1999/xlink" version="1.1"
   viewBox="94 -151 2414 2169">
   <path fill="currentColor"
      d="M693 1978q-102 0 -182 -46t-125.5 -125.5t-45.5 -182.5v-503q0 -71 42 -106.5t116 -35.5h1564q75 0 116.5 35.5t41.5 106.5v503q0 103 -45.5 182.5t-125 125.5t-182.5 46h-1174zM401 1708l-7 -70h312v-350h-312v-70h382v490h-375zM1245 1962v-769h70v769h-70zM905 1923
v-755h750v755h-80v-685h-590v685h-80zM693 1900h1174q121 0 197 -77.5t76 -198.5v-503q0 -34 -16 -49t-62 -15h-1564q-45 0 -61.5 15t-16.5 49v503q0 121 76 198.5t197 77.5zM529 983q16 -33 72 -49t139 -16h1082q83 0 139 16t72 49h-1504zM868 955q-15 0 -25.5 -10.5
t-10.5 -25.5v-31q0 -14 10.5 -24.5t25.5 -10.5h824q15 0 25.5 10.5t10.5 24.5v31q0 15 -10.5 25.5t-25.5 10.5h-824zM1785 1708v-490h382v70h-312v350h312l-7 70h-375zM1019 858q50 -38 85 -120.5t58 -190.5t33.5 -225t10.5 -225h151q0 108 10.5 225t33.5 225t58.5 190.5
t84.5 120.5h-525zM889 141q-38 0 -65 -27t-27 -65t27 -65t65 -27t65 27t27 65t-27 65t-65 27zM1074 179q-38 0 -65 -27t-27 -65t27 -65t65 -27t65 27t27 65t-27 65t-65 27zM1342 291l-137 -28q-34 -7 -36 -45q-1 -32 -5 -60t-15 -50l305 66q-16 14 -31.5 36t-30.5 55
q-7 16 -20 23t-30 3zM2318 421l-2036 -448v-72l2036 448v72zM1854 249l-1030 -213q-26 -5 -42.5 -26.5t-16.5 -48.5v-41q0 -11 8 -17.5t18 -4.5l1027 203q28 5 45.5 25.5t17.5 48.5v52q0 11 -8 17.5t-19 4.5zM1549 271q-38 0 -65 -27t-27 -65t27 -65t65 -27t65 27t27 65
t-27 65t-65 27zM1734 309q-38 0 -65 -27t-27 -65t27 -65t65 -27t65 27t27 65t-27 65t-65 27z" />
</svg>