<?xml version="1.0" standalone="no"?>
<!DOCTYPE svg PUBLIC "-//W3C//DTD SVG 1.1//EN" "http://www.w3.org/Graphics/SVG/1.1/DTD/svg11.dtd">
<svg xmlns="http://www.w3.org/2000/svg" xmlns:xlink="http://www.w3.org/1999/xlink" version="1.1"
   viewBox="94 -151 2414 2169">
   <path fill="currentColor"
      d="M1300 1978q-216 0 -404.5 -80.5t-331.5 -223.5t-223.5 -331.5t-80.5 -404.5t80.5 -404.5t223.5 -331.5t331.5 -223.5t404.5 -80.5q215 0 403.5 80.5t331.5 223.5t224 331.5t81 404.5t-81 404.5t-224 331.5t-331.5 223.5t-403.5 80.5zM1067 1632q-52 0 -90 -37t-38 -93
q0 -66 46.5 -117t128.5 -80t186 -29q105 0 186.5 29t128 80t46.5 117q0 56 -37.5 93t-90.5 37q-37 0 -102 -18t-131 -18t-130.5 18t-102.5 18zM948 1028q-51 0 -88 -44.5t-37 -105.5q0 -62 37 -106t88 -44t88 44t37 106q0 61 -37 105.5t-88 44.5zM1300 1898q199 0 373 -74.5
t306 -206.5t206.5 -306t74.5 -373t-74.5 -373t-206.5 -306t-306 -206.5t-373 -74.5t-373 74.5t-306 206.5t-206.5 306t-74.5 373t74.5 373t206.5 306t306 206.5t373 74.5zM1652 1028q-51 0 -88 -44.5t-37 -105.5q0 -62 37 -106t88 -44t88 44t37 106q0 61 -37 105.5t-88 44.5
z" />
</svg>