<?xml version="1.0" standalone="no"?>
<!DOCTYPE svg PUBLIC "-//W3C//DTD SVG 1.1//EN" "http://www.w3.org/Graphics/SVG/1.1/DTD/svg11.dtd">
<svg xmlns="http://www.w3.org/2000/svg" xmlns:xlink="http://www.w3.org/1999/xlink" version="1.1"
   viewBox="94 -151 2414 2169">
   <path fill="currentColor"
      d="M1300 1978q-216 0 -404.5 -80.5t-331.5 -223.5t-223.5 -331.5t-80.5 -404.5t80.5 -404.5t223.5 -331.5t331.5 -223.5t404.5 -80.5q215 0 403.5 80.5t331.5 223.5t224 331.5t81 404.5q0 148 -39.5 284t-110.5 254l-45 -81q55 -102 85 -217.5t30 -239.5q0 -199 -74.5 -373
t-206.5 -306t-306 -206.5t-373 -74.5t-373 74.5t-306 206.5t-206.5 306t-74.5 373t74.5 373t206.5 306t306 206.5t373 74.5q101 0 197 -20.5t184 -58.5l64 59q-101 48 -213.5 74t-231.5 26zM1300 1625q-176 0 -332.5 -66.5t-279 -189.5t-198.5 -293l74 -32q69 155 180 267.5
t253.5 173t302.5 60.5q161 0 303 -60.5t253.5 -173t179.5 -267.5l74 32q-76 170 -198.5 293t-278.5 189.5t-333 66.5zM742 805l-66 -44q94 -140 232 -140t232 140l-66 44q-71 -104 -166 -104t-166 104zM1923 1981q-146 0 -269 -120l-263 -254l56 -58l263 254q101 98 213 98
q71 0 130 -38t94.5 -100.5t35.5 -137.5q0 -128 -107 -232l-131 -129l56 -58l131 129q131 128 131 290q0 97 -46 177.5t-123.5 129.5t-170.5 49zM1861 1630l-142 -142l56 -56l142 142zM1526 805l-66 -44q94 -140 232 -140t232 140l-66 44q-71 -104 -166 -104t-166 104z" />
</svg>