<?xml version="1.0" standalone="no"?>
<!DOCTYPE svg PUBLIC "-//W3C//DTD SVG 1.1//EN" "http://www.w3.org/Graphics/SVG/1.1/DTD/svg11.dtd">
<svg xmlns="http://www.w3.org/2000/svg" xmlns:xlink="http://www.w3.org/1999/xlink" version="1.1"
   viewBox="94 -151 2414 2169">
   <path fill="currentColor"
      d="M426 1978q-68 0 -117 -48.5t-49 -115.5v-1751q0 -68 49 -116.5t116 -48.5h1750q68 0 116.5 48.5t48.5 116.5v1750q0 67 -48.5 116t-116.5 49h-1749zM788 1536h125v-688h-125q-34 0 -59 24.5t-25 59.5v522q0 34 25 58t59 24zM636 1723h1328q71 0 113.5 -42.5t42.5 -113.5
v-876q0 -71 -42.5 -113.5t-113.5 -42.5h-1328q-71 0 -113.5 42t-42.5 114v876q0 72 42.5 114t113.5 42zM636 1663q-96 0 -96 -96v-876q0 -96 96 -96h1328q96 0 96 96v876q0 96 -96 96h-1328zM1016 1536h568v-688h-96v-53q0 -108 -100 -108h-176q-99 0 -99 108v53h-97v688z
M1173 848v-52q0 -31 9.5 -40t34.5 -9h166q26 0 35.5 9t9.5 40v52h-255zM1687 1536h125q35 0 59.5 -24t24.5 -58v-522q0 -35 -24.5 -59.5t-59.5 -24.5h-125v688zM1075 363q-45 0 -77 -32t-32 -77q0 -46 32 -77.5t77 -31.5q46 0 77.5 31.5t31.5 77.5q0 45 -31.5 77t-77.5 32z
M1075 423q62 0 109 -40t58 -99h124v102h60v-102h83v102h60v-162h-327q-11 -60 -58 -99.5t-109 -39.5q-70 0 -119.5 49t-49.5 120q0 70 49.5 119.5t119.5 49.5z" />
</svg>