<?xml version="1.0" standalone="no"?>
<!DOCTYPE svg PUBLIC "-//W3C//DTD SVG 1.1//EN" "http://www.w3.org/Graphics/SVG/1.1/DTD/svg11.dtd">
<svg xmlns="http://www.w3.org/2000/svg" xmlns:xlink="http://www.w3.org/1999/xlink" version="1.1"
   viewBox="94 -151 2414 2169">
   <path fill="currentColor"
      d="M1300 1978q-216 0 -404.5 -80.5t-331.5 -223.5t-223.5 -331.5t-80.5 -404.5t80.5 -404.5t223.5 -331.5t331.5 -223.5t404.5 -80.5q215 0 403.5 80.5t331.5 223.5t224 331.5t81 404.5t-81 404.5t-224 331.5t-331.5 223.5t-403.5 80.5zM1095 1646q-60 0 -99 -40t-39 -99
q0 -65 46.5 -118.5t124.5 -85t172 -31.5t172 31.5t124.5 85t46.5 118.5q0 59 -39 99t-99 40q-41 0 -90 -13.5t-115 -13.5t-115 13.5t-90 13.5zM948 1018q-52 0 -88.5 -44.5t-36.5 -105.5q0 -62 37 -106t88 -44q52 0 88.5 44t36.5 106q0 61 -36.5 105.5t-88.5 44.5z
M1300 1898q199 0 373 -74.5t306 -206.5t206.5 -306t74.5 -373t-74.5 -373t-206.5 -306t-306 -206.5t-373 -74.5t-373 74.5t-306 206.5t-206.5 306t-74.5 373t74.5 373t206.5 306t306 206.5t373 74.5zM657 476l-53 -60q68 -63 156 -100t212 -37v80q-96 0 -171.5 27.5
t-143.5 89.5zM1652 1018q-52 0 -88.5 -44.5t-36.5 -105.5q0 -62 37 -106t88 -44q52 0 88.5 44t36.5 106q0 61 -36.5 105.5t-88.5 44.5zM1943 476q-67 -62 -143 -89.5t-172 -27.5v-80q124 0 212.5 37t155.5 100zM405 586v-168h50v168h-50zM550 586v-358h50v358h-50zM695 586
v-488h50v488h-50zM840 586v-568h50v568h-50zM985 586v-598h50v598h-50zM1130 586v-638h50v638h-50zM1275 586v-638h50v638h-50zM1420 586v-638h50v638h-50zM1565 586v-598h50v598h-50zM1710 586v-568h50v568h-50zM1855 586v-488h50v488h-50zM2000 586v-358h50v358h-50z
M2145 586v-168h50v168h-50z" />
</svg>