<?xml version="1.0" standalone="no"?>
<!DOCTYPE svg PUBLIC "-//W3C//DTD SVG 1.1//EN" "http://www.w3.org/Graphics/SVG/1.1/DTD/svg11.dtd">
<svg xmlns="http://www.w3.org/2000/svg" xmlns:xlink="http://www.w3.org/1999/xlink" version="1.1"
   viewBox="94 -151 2414 2169">
   <path fill="currentColor"
      d="M1300 1978q-212 0 -398.5 -81t-328.5 -224.5t-222.5 -332t-80.5 -402.5t80.5 -402.5t222.5 -332t328.5 -224.5t398.5 -81t398.5 81t328.5 224.5t222.5 332t80.5 402.5t-80.5 402.5t-222.5 332t-328.5 224.5t-398.5 81zM1632 1660q-33 0 -54 -32l-193 -279
q-16 -23 -25.5 -45.5t-11.5 -55.5l-5 -124h-73l-131 166l66 282q2 14 2 20q0 25 -16.5 41t-44.5 16q-42 0 -56 -57l-66 -268q-2 -11 -3.5 -20t-1.5 -17q0 -38 26 -68l130 -157v-239l-27 -33l-53 97q-14 24 -43 33l-213 62q-25 7 -44 -8t-19 -40q0 -40 37 -50l202 -57
l116 -208q23 -41 69 -63t110 -22q31 0 73.5 11t103.5 35l155 60q29 11 42 26t13 40q0 8 -1.5 17t-4.5 20l-58 193q-4 16 -17 24.5t-31 8.5q-22 0 -36 -12.5t-14 -31.5q0 -5 2 -17l56 -180l-131 -50v575l217 314q11 16 11 35q0 23 -17.5 40.5t-40.5 17.5zM1300 1898
q196 0 368 -75t303 -207.5t205 -306t74 -371.5t-74 -371.5t-205 -306t-303 -207.5t-368 -75t-368 75t-303 207.5t-205 306t-74 371.5t74 371.5t205 306t303 207.5t368 75zM1984 1665l-1417 -1405l49 -49l1417 1405zM1305 474q-55 0 -94.5 -39.5t-39.5 -94.5
q0 -56 39.5 -95.5t94.5 -39.5q56 0 96 39.5t40 95.5q0 55 -40 94.5t-96 39.5z" />
</svg>