<?xml version="1.0" standalone="no"?>
<!DOCTYPE svg PUBLIC "-//W3C//DTD SVG 1.1//EN" "http://www.w3.org/Graphics/SVG/1.1/DTD/svg11.dtd">
<svg xmlns="http://www.w3.org/2000/svg" xmlns:xlink="http://www.w3.org/1999/xlink" version="1.1"
   viewBox="94 -151 2414 2169">
   <path fill="currentColor"
      d="M1300 1978q-216 0 -404.5 -80.5t-331.5 -223.5t-223.5 -331.5t-80.5 -404.5t80.5 -404.5t223.5 -331.5t331.5 -223.5t404.5 -80.5q215 0 403.5 80.5t331.5 223.5t224 331.5t81 404.5t-81 404.5t-224 331.5t-331.5 223.5t-403.5 80.5zM886 1621q-48 0 -82 -33t-34 -96
q0 -137 69.5 -243t189.5 -166t271 -60t271 60t190 166t70 243q0 63 -34.5 96t-82.5 33q-45 0 -111 -25.5t-143.5 -50.5t-159.5 -25q-81 0 -159 25t-144 50.5t-111 25.5zM894 1272h810q-62 -90 -168 -139.5t-236 -49.5q-131 0 -237.5 49.5t-168.5 139.5zM846 876
q-52 0 -109 -10l12 -74q56 9 99 9q98 0 148 -46.5t62 -145.5l75 10q-32 257 -287 257zM1300 1898q199 0 373 -74.5t306 -206.5t206.5 -306t74.5 -373t-74.5 -373t-206.5 -306t-306 -206.5t-373 -74.5t-373 74.5t-306 206.5t-206.5 306t-74.5 373t74.5 373t206.5 306
t306 206.5t373 74.5zM841 512l-36 -61q105 -53 167.5 -111.5t96.5 -135.5l63 26q-37 88 -107 155.5t-184 126.5zM1754 876q-256 0 -286 -257l74 -10q12 99 63 145.5t148 46.5q43 0 98 -9l12 74q-57 10 -109 10zM1760 512q-114 -59 -184 -126.5t-108 -155.5l64 -26
q34 77 96.5 135.5t167.5 111.5z" />
</svg>