<?xml version="1.0" standalone="no"?>
<!DOCTYPE svg PUBLIC "-//W3C//DTD SVG 1.1//EN" "http://www.w3.org/Graphics/SVG/1.1/DTD/svg11.dtd">
<svg xmlns="http://www.w3.org/2000/svg" xmlns:xlink="http://www.w3.org/1999/xlink" version="1.1"
   viewBox="94 -151 2414 2169">
   <path fill="currentColor"
      d="M1300 1725q-204 0 -396.5 -12t-383.5 -34q-94 -11 -158.5 -73.5t-76.5 -157.5q-7 -59 -11.5 -119.5t-4.5 -119.5q0 -146 34.5 -274t85.5 -210l223 -612q26 -71 94 -104t144 -40q113 -11 225.5 -16t224.5 -5t225 5t225 16q77 7 144.5 40t93.5 104l223 612q51 82 85.5 210
t34.5 274q0 59 -4 119.5t-12 119.5q-12 95 -76.5 157.5t-158.5 73.5q-190 22 -383 34t-397 12zM407 1928q-27 0 -45 -18t-18 -46v-300l262 114v186q0 28 -18.5 46t-44.5 18h-136zM286 701q-90 0 -133 -13.5t-43 -41.5q0 -64 42 -106.5t103 -42.5h40q29 0 48 20t19 52v32h84
l15 83q-43 9 -87 13t-88 4zM642 1075q-59 0 -98.5 -39.5t-39.5 -98.5v-113l390 2v249h-252zM642 1005h182v-109l-250 -2v43q0 30 19 49t49 19zM1300 1518q-187 0 -321 -4.5t-231 -13t-170 -21.5t-135.5 -31t-128.5 -41l26 -62q65 23 125 40t130.5 29t164.5 19.5t225 11
t315 3.5t315 -3.5t225 -11t164.5 -19.5t130.5 -29t125 -40l26 62q-66 23 -128.5 41t-135.5 31t-170 21.5t-231 13t-321 4.5zM1082 1378q-36 0 -52 -10.5t-27 -39.5l-62 -167q-17 -47 62 -67t297 -20t297 20t62 67l-62 167q-10 29 -26.5 39.5t-52.5 10.5h-436zM2057 1928
q-26 0 -44.5 -18t-18.5 -46v-186l262 -114v300q0 28 -18 46t-45 18h-136zM1300 1647q195 0 385.5 -12.5t385.5 -34.5q68 -8 112 -51.5t53 -110.5q8 -59 11.5 -117t3.5 -112q0 -128 -30 -248.5t-82 -199.5l-226 -620q-13 -38 -56.5 -61.5t-114.5 -30.5q-103 -10 -213 -15.5
t-229 -5.5q-118 0 -228.5 5.5t-213.5 15.5q-143 14 -171 92l-226 620q-52 79 -82 199.5t-30 248.5q0 54 3.5 112t11.5 117q9 67 53.5 110.5t111.5 51.5q195 22 385.5 34.5t385.5 12.5zM754 493l14 -129q4 -32 26 -52t54 -20h139q32 0 54 19.5t26 52.5l15 129h-328zM1300 694
q-205 0 -408 -9t-408 -28l70 -179h1492l70 179q-205 19 -408 28t-408 9zM1706 1075v-249l390 -2v113q0 59 -39.5 98.5t-98.5 39.5h-252zM1776 1005h182q30 0 49 -19t19 -49v-43l-250 2v109zM1518 493l15 -129q4 -33 26 -52.5t54 -19.5h139q32 0 54 20t26 52l14 129h-328z
M2314 701q-44 0 -87.5 -4t-87.5 -13l15 -83h84v-32q0 -32 19 -52t48 -20h40q62 0 103.5 42.5t41.5 106.5q0 55 -176 55z" />
</svg>