<?xml version="1.0" standalone="no"?>
<!DOCTYPE svg PUBLIC "-//W3C//DTD SVG 1.1//EN" "http://www.w3.org/Graphics/SVG/1.1/DTD/svg11.dtd">
<svg xmlns="http://www.w3.org/2000/svg" xmlns:xlink="http://www.w3.org/1999/xlink" version="1.1"
   viewBox="94 -151 2414 2169">
   <path fill="currentColor"
      d="M1300 1978q-75 0 -123 -50l-867 -871q-50 -50 -50 -118q0 -31 12.5 -63t37.5 -57l867 -871q48 -50 123 -50t123 50l867 871q25 25 37.5 57t12.5 63q0 68 -50 118l-867 871q-48 50 -123 50zM900 1379q-13 18 -32.5 14.5t-29 -20t4.5 -36.5l99 -137v-320h-25l-38 34
l-49 113q-10 22 -30 22q-21 0 -31.5 -15.5t-1.5 -34.5l52 -114q6 -14 18 -24l111 -82q29 -22 85 -22q48 0 73.5 14t50.5 54l40 63l78 -17l-48 -108q-4 -10 -4 -16q0 -16 13 -30l124 -134q20 -21 48.5 -31t69.5 -10q44 0 70 12.5t41 39.5l71 130q8 16 18 24l142 113
q19 15 14 34t-23 27.5t-38 -7.5l-148 -120q-7 -6 -10.5 -10.5t-5.5 -8.5l-27 -52v193q0 14 1.5 26.5t5.5 23.5l141 367q12 30 -6 47t-43.5 15t-36.5 -29l-142 -368q-8 -20 -30 -20q-30 0 -30 30l-1 123q0 18 -8 34l-107 206q-13 25 -38 23.5t-41.5 -20.5t-2.5 -46l104 -202
l5 -201l-162 31q-24 4 -36 -12l-32 -40v163l109 280q9 22 -6 35t-34.5 11t-27.5 -24l-84 -231q-10 -24 -32 -24q-34 0 -34 35v53q0 20 -6 27zM1300 1898q43 0 67 -26l865 -871q28 -28 28 -64q0 -34 -28 -62l-865 -871q-24 -26 -67 -26t-67 26l-865 871q-28 28 -28 62
q0 36 28 64l865 871q24 26 67 26zM1032 731q-43 0 -73 -30t-30 -72q0 -43 30 -72.5t73 -29.5q42 0 71.5 29.5t29.5 72.5q0 42 -30 72t-71 30zM1352 870v-177l-53 57zM1466 520q-42 0 -73 -30.5t-31 -71.5q0 -43 30.5 -73t73.5 -30q42 0 72 30t30 73q0 41 -30.5 71.5
t-71.5 30.5z" />
</svg>