<?xml version="1.0" standalone="no"?>
<!DOCTYPE svg PUBLIC "-//W3C//DTD SVG 1.1//EN" "http://www.w3.org/Graphics/SVG/1.1/DTD/svg11.dtd">
<svg xmlns="http://www.w3.org/2000/svg" xmlns:xlink="http://www.w3.org/1999/xlink" version="1.1"
   viewBox="94 -151 2414 2169">
   <path fill="currentColor"
      d="M1300 1978q-216 0 -404.5 -80.5t-331.5 -223.5t-223.5 -331.5t-80.5 -404.5t80.5 -404.5t223.5 -331.5t331.5 -223.5t404.5 -80.5q215 0 403.5 80.5t331.5 223.5t224 331.5t81 404.5t-81 404.5t-224 331.5t-331.5 223.5t-403.5 80.5zM973 1634l-50 -62q196 -161 377 -161
t377 161l-50 62q-174 -143 -327 -143t-327 143zM986 1279q-53 0 -90 -42.5t-37 -102.5q0 -38 15.5 -70t40.5 -51q-52 -29 -88.5 -45t-71.5 -27l26 -76q106 35 202.5 89.5t184.5 125.5l-55 65q-1 7 -1.5 13.5t-2.5 13.5q-11 46 -44.5 76.5t-78.5 30.5zM1300 1898
q199 0 373 -74.5t306 -206.5t206.5 -306t74.5 -373t-74.5 -373t-206.5 -306t-306 -206.5t-373 -74.5t-373 74.5t-306 206.5t-206.5 306t-74.5 373t74.5 373t206.5 306t306 206.5t373 74.5zM1614 1279q-45 0 -78.5 -30.5t-44.5 -76.5q-1 -7 -2 -13.5t-2 -13.5l-55 -65
q88 -71 184.5 -125.5t202.5 -89.5l26 76q-34 11 -70.5 27t-89.5 45q26 19 41 51t15 70q0 60 -37 102.5t-90 42.5z" />
</svg>