<?xml version="1.0" standalone="no"?>
<!DOCTYPE svg PUBLIC "-//W3C//DTD SVG 1.1//EN" "http://www.w3.org/Graphics/SVG/1.1/DTD/svg11.dtd">
<svg xmlns="http://www.w3.org/2000/svg" xmlns:xlink="http://www.w3.org/1999/xlink" version="1.1"
   viewBox="94 -151 2414 2169">
   <path fill="currentColor"
      d="M260 935q0 -213 81 -400.5t224 -331t331.5 -224.5t403.5 -81t403.5 81t331.5 224.5t224 331t81 400.5l-81 -26q0 -178 -73.5 -344.5t-205 -299t-305.5 -210t-375 -77.5t-375 77.5t-305.5 210t-205 299t-73.5 344.5zM268 1333q69 0 109 -53t69 -185q13 -58 24 -96.5
t24 -72.5q-170 20 -265.5 90.5t-95.5 176.5q0 66 35.5 103t99.5 37zM266 1406q-95 0 -150.5 -56.5t-55.5 -153.5q0 -157 139.5 -247t398.5 -101q-28 67 -46 123.5t-37 136.5q-37 160 -95 229t-154 69zM1300 1978q-215 0 -403.5 -81t-331.5 -223.5t-223 -328.5l73 -35
q73 173 205 305.5t306.5 207.5t373.5 75q200 0 374 -75t306.5 -207.5t204.5 -305.5l73 35q-79 186 -222.5 328.5t-332 223.5t-403.5 81zM715 807l-53 -46q89 -135 226 -135q136 0 227 135l-53 46q-70 -106 -174 -106q-102 0 -173 106zM601 613l-61 -33q92 -170 317 -237
l24 66q-101 30 -169.5 80t-110.5 124zM1538 807l-53 -46q91 -135 227 -135q137 0 226 135l-53 46q-71 -106 -173 -106q-104 0 -174 106zM2334 1406q-96 0 -153.5 -69t-95.5 -229q-19 -80 -37 -136.5t-46 -123.5q260 11 399 101t139 247q0 97 -55.5 153.5t-150.5 56.5z
M2332 1333q64 0 99.5 -37t35.5 -103q0 -106 -95.5 -176.5t-265.5 -90.5q13 34 24 72.5t24 96.5q29 132 69 185t109 53zM1999 613q-42 -74 -110.5 -124t-169.5 -80l24 -66q225 67 317 237zM1300 1581q136 0 256 -46q-130 -71 -256 -71t-256 71q120 46 256 46zM1300 1636
q-125 0 -246.5 -40t-220 -107t-157.5 -149.5t-59 -166.5q0 -41 18 -58.5t49 -17.5q23 0 51 4.5t64 12.5q96 22 229.5 38t271.5 16t271.5 -16t230.5 -38q36 -8 64 -12.5t50 -4.5q32 0 50 17.5t18 58.5q0 84 -59 166.5t-158 149.5t-220.5 107t-246.5 40zM1300 1303
q94 0 201 -7.5t214 -24t200 -41.5v-55q0 -14 -9.5 -17.5t-22.5 -0.5q-80 19 -182 34t-206.5 23.5t-194.5 8.5q-89 0 -194 -8.5t-206.5 -23.5t-182.5 -34q-13 -3 -22.5 0.5t-9.5 17.5v55q93 25 200 41.5t214.5 24t200.5 7.5z" />
</svg>