<?xml version="1.0" standalone="no"?>
<!DOCTYPE svg PUBLIC "-//W3C//DTD SVG 1.1//EN" "http://www.w3.org/Graphics/SVG/1.1/DTD/svg11.dtd">
<svg xmlns="http://www.w3.org/2000/svg" xmlns:xlink="http://www.w3.org/1999/xlink" version="1.1"
   viewBox="94 -151 2414 2169">
   <path fill="currentColor"
      d="M1820 724q-114 0 -208 -56t-150 -149.5t-56 -207.5t56 -208t150 -149.5t208 -55.5t208 55.5t150 149.5t56 208t-56 207.5t-150 149.5t-208 56zM1169 1978v-376h140v376h-140zM1056 1476v-118h141v118h-141zM1056 1281v-118h141v118h-141zM1281 1476v-118h141v118h-141z
M874 1642v-840h730v840h-730zM954 1562h570v-680h-570v680zM1056 1086v-118h141v118h-141zM1281 1281v-118h141v118h-141zM446 559h523v-130h-523v130zM1281 1086v-118h141v118h-141zM366 639v-640h683v640h-683zM446 369h523v-100h-523v100zM446 209h523v-130h-523v130z
M1169 842v-944h140v944h-140zM1009 360v-90h439v90h-439zM1721 403h59v-28q0 -31 -31 -31h-59v28q0 31 31 31zM1820 644q93 0 168.5 -44.5t120.5 -120.5t45 -168q0 -93 -45 -168.5t-120.5 -120t-168.5 -44.5t-169 44.5t-120.5 120t-44.5 168.5q0 92 45 168t121 120.5
t168 44.5zM1684 504q-19 0 -28 -11t-9 -24v-300q0 -32 38 -50.5t135 -18.5q98 0 135.5 18.5t37.5 50.5v300q0 35 -37 35q-17 0 -25.5 -11t-8.5 -24v-26h-204v26q0 13 -8.5 24t-25.5 11zM1860 403h59q31 0 31 -31v-28h-59q-31 0 -31 31v28zM1813 310h15q55 0 89.5 -18.5
t34.5 -46.5v-89h-264v89q0 28 35 46.5t90 18.5z" />
</svg>