<?xml version="1.0" standalone="no"?>
<!DOCTYPE svg PUBLIC "-//W3C//DTD SVG 1.1//EN" "http://www.w3.org/Graphics/SVG/1.1/DTD/svg11.dtd">
<svg xmlns="http://www.w3.org/2000/svg" xmlns:xlink="http://www.w3.org/1999/xlink" version="1.1"
   viewBox="94 -151 2414 2169">
   <path fill="currentColor"
      d="M1300 1978q-207 0 -381.5 -72t-303 -201.5t-199.5 -304t-71 -378.5t71 -378t199.5 -303.5t303 -201.5t381.5 -72t381.5 72t303 201.5t199.5 304t71 378.5t-71 378t-199.5 303.5t-303 201.5t-381.5 72zM1300 1493q-221 0 -416 -132l46 -64q173 118 370 118t370 -118l46 64
q-195 132 -416 132zM810 955l-56 -47q42 -59 96 -91t112 -32q120 0 207 123l-54 47q-64 -92 -153 -92q-88 0 -152 92zM1300 1898q189 0 348.5 -65t278 -183.5t183.5 -278t65 -348.5t-65 -349t-183 -278t-278 -183.5t-349 -65.5t-348.5 65t-278 183.5t-183.5 278t-65 348.5
t65 349t183 278t278 183.5t349 65.5zM1486 955l-56 -47q89 -123 208 -123q58 0 112 32t95 91l-54 47q-64 -92 -153 -92t-152 92zM1300 543q-198 0 -374.5 -26.5t-311.5 -73t-212 -107t-77 -128.5q0 -66 73 -120.5t204.5 -95t309.5 -62.5t388 -22t388.5 22t310 62.5t204.5 95
t73 120.5q0 68 -77 128.5t-212.5 107t-312 73t-374.5 26.5zM1300 369q225 0 391.5 -21.5t258.5 -61t92 -91.5q0 -41 -59.5 -77.5t-163.5 -65t-237.5 -45t-281.5 -16.5t-281.5 16.5t-237 45t-163 65t-59.5 77.5q0 52 91.5 91.5t258.5 61t391 21.5z" />
</svg>