<?xml version="1.0" standalone="no"?>
<!DOCTYPE svg PUBLIC "-//W3C//DTD SVG 1.1//EN" "http://www.w3.org/Graphics/SVG/1.1/DTD/svg11.dtd">
<svg xmlns="http://www.w3.org/2000/svg" xmlns:xlink="http://www.w3.org/1999/xlink" version="1.1"
   viewBox="94 -151 2414 2169">
   <path fill="currentColor"
      d="M251 1528q-191 0 -191 -191v-799q0 -98 46.5 -144t144.5 -46h2098q98 0 144.5 46t46.5 144v799q0 191 -191 191h-2098zM542 1265q-78 0 -142.5 -38.5t-103 -103t-38.5 -142.5q0 -79 38.5 -143t103 -102.5t142.5 -38.5q79 0 143 38.5t102.5 102.5t38.5 143
q0 78 -38.5 142.5t-102.5 103t-143 38.5zM542 1185q57 0 103 -27.5t73.5 -74t27.5 -102.5q0 -57 -27.5 -103t-73.5 -73.5t-103 -27.5q-56 0 -102.5 27.5t-74 73.5t-27.5 103q0 56 27.5 102.5t74 74t102.5 27.5zM281 734l-50 -48q61 -65 142 -99.5t169 -34.5q89 0 169.5 34.5
t141.5 99.5l-50 48q-106 -112 -261 -112t-261 112zM1300 1265q-78 0 -142.5 -38.5t-103 -103t-38.5 -142.5q0 -79 38.5 -143t103 -102.5t142.5 -38.5q79 0 143 38.5t102.5 102.5t38.5 143q0 78 -38.5 142.5t-102.5 103t-143 38.5zM1300 1185q57 0 103 -27.5t73.5 -74
t27.5 -102.5q0 -57 -27.5 -103t-73.5 -73.5t-103 -27.5q-56 0 -102.5 27.5t-74 73.5t-27.5 103q0 56 27.5 102.5t74 74t102.5 27.5zM251 1448h2098q65 0 88 -23.5t23 -87.5v-799q0 -64 -23 -87t-88 -23h-2098q-65 0 -88 23t-23 87v799q0 64 23.5 87.5t87.5 23.5zM1039 734
l-50 -48q61 -65 142 -99.5t169 -34.5q89 0 169.5 34.5t141.5 99.5l-50 48q-106 -112 -261 -112t-261 112zM2058 1265q-78 0 -142.5 -38.5t-103 -103t-38.5 -142.5q0 -79 38.5 -143t103 -102.5t142.5 -38.5q79 0 143 38.5t102.5 102.5t38.5 143q0 78 -38.5 142.5t-102.5 103
t-143 38.5zM2058 1185q57 0 103 -27.5t73.5 -74t27.5 -102.5q0 -57 -27.5 -103t-73.5 -73.5t-103 -27.5q-56 0 -102.5 27.5t-74 73.5t-27.5 103q0 56 27.5 102.5t74 74t102.5 27.5zM1797 734l-50 -48q61 -65 142 -99.5t169 -34.5q89 0 169.5 34.5t141.5 99.5l-50 48
q-106 -112 -261 -112t-261 112z" />
</svg>