<?xml version="1.0" standalone="no"?>
<!DOCTYPE svg PUBLIC "-//W3C//DTD SVG 1.1//EN" "http://www.w3.org/Graphics/SVG/1.1/DTD/svg11.dtd">
<svg xmlns="http://www.w3.org/2000/svg" xmlns:xlink="http://www.w3.org/1999/xlink" version="1.1"
   viewBox="94 -151 2414 2169">
   <path fill="currentColor"
      d="M2376 1528q-686 0 -1172 -106t-769 -300t-361 -457q170 -68 350.5 -104t351.5 -36h126l50 80h-176q-148 0 -300.5 27t-299.5 80q101 233 387.5 398t733.5 251.5t1028 86.5q31 0 38 -28l79 -366l-15 -43l-496 -368q-151 -10 -266 -16t-212 -10l-68 -80q147 4 290 11.5
t284 16.5l534 396l33 84l-95 438q-10 45 -55 45zM2460 1307q-254 0 -451 -7t-350 -21.5t-276 -37.5l110 -84q-278 -22 -495.5 -58t-386.5 -83t-303 -101l-68 -74q298 100 665 169t820 91l-143 90q196 12 377.5 16t350.5 4q44 0 87.5 -1t86.5 -2zM2447 1077
q-353 -23 -635.5 -48.5t-512.5 -54t-424 -61t-369 -71t-350 -83.5l20 -66q173 45 347 83t367 70t421 60.5t507.5 53t628.5 47.5v70zM1543 833q-255 -51 -429.5 -129.5t-245.5 -178.5l262 -177q124 30 229.5 99t171.5 157.5t71 177.5zM1515 747q-17 -62 -71 -123.5
t-132 -111.5t-168 -77l-154 104q75 61 208.5 114.5t316.5 93.5zM2021 862l-478 -29l-28 -123l313 15zM2366 880l-221 -89l25 -199q11 -84 142 -84q77 0 121.5 29t39.5 79l-18 168q-6 57 -31.5 83t-57.5 13z" />
</svg>