<?xml version="1.0" standalone="no"?>
<!DOCTYPE svg PUBLIC "-//W3C//DTD SVG 1.1//EN" "http://www.w3.org/Graphics/SVG/1.1/DTD/svg11.dtd">
<svg xmlns="http://www.w3.org/2000/svg" xmlns:xlink="http://www.w3.org/1999/xlink" version="1.1"
   viewBox="94 -151 2414 2169">
   <path fill="currentColor"
      d="M1300 1978q-216 0 -404.5 -80.5t-331.5 -223.5t-223.5 -331.5t-80.5 -404.5t80.5 -404.5t223.5 -331.5t331.5 -223.5t404.5 -80.5q215 0 403.5 80.5t331.5 223.5t224 331.5t81 404.5t-81 404.5t-224 331.5t-331.5 223.5t-403.5 80.5zM1260 1623v-80q68 0 112 -26.5
t44 -67.5q0 -32 -27.5 -52t-73.5 -20v-80q45 0 69 -19.5t24 -44.5q0 -32 -37.5 -46.5t-110.5 -14.5v-80q119 0 173.5 39.5t54.5 101.5q0 59 -46 103q26 23 40 51.5t14 61.5q0 73 -64.5 123.5t-171.5 50.5zM818 868l-78 -16q20 -96 73.5 -147t135.5 -51t136 51t73 147l-78 16
q-28 -134 -131 -134t-131 134zM1300 1898q199 0 373 -74.5t306 -206.5t206.5 -306t74.5 -373t-74.5 -373t-206.5 -306t-306 -206.5t-373 -74.5t-373 74.5t-306 206.5t-206.5 306t-74.5 373t74.5 373t206.5 306t306 206.5t373 74.5zM1520 868l-78 -16q20 -96 73.5 -147
t135.5 -51t136 51t73 147l-78 16q-28 -134 -131 -134t-131 134z" />
</svg>