<?xml version="1.0" standalone="no"?>
<!DOCTYPE svg PUBLIC "-//W3C//DTD SVG 1.1//EN" "http://www.w3.org/Graphics/SVG/1.1/DTD/svg11.dtd">
<svg xmlns="http://www.w3.org/2000/svg" xmlns:xlink="http://www.w3.org/1999/xlink" version="1.1"
   viewBox="94 -151 2414 2169">
   <path fill="currentColor"
      d="M434 1978q-71 0 -122.5 -51t-51.5 -121v-1734q0 -71 51 -122.5t122 -51.5h1734q71 0 122 51.5t51 122.5v1734q0 70 -51.5 121t-122.5 51h-1732zM346 1909l-46 -114h128v114h-82zM558 1909v-114h190v114h-190zM694 1746q-54 0 -91 -37.5t-37 -89.5q0 -53 37 -90t91 -37
q53 0 89.5 37t36.5 90q0 52 -36.5 89.5t-89.5 37.5zM694 1676q23 0 39.5 -16.5t16.5 -40.5t-16 -40.5t-40 -16.5q-25 0 -41.5 16t-16.5 41q0 24 16.5 40.5t41.5 16.5zM878 1909v-114h190v114h-190zM1044 1746q-54 0 -91 -37.5t-37 -89.5q0 -53 37 -90t91 -37q53 0 89.5 37
t36.5 90q0 52 -36.5 89.5t-89.5 37.5zM1044 1676q23 0 39.5 -16.5t16.5 -40.5t-16 -40.5t-40 -16.5q-25 0 -41.5 16t-16.5 41q0 24 16.5 40.5t41.5 16.5zM1208 1909v-114h190v114h-190zM310 1799v-78h1980v78h-1980zM1528 1909v-114h190v114h-190zM620 1134v-310h280v310
h-280zM680 1074h160v-190h-160v190zM1559 1746q-54 0 -91 -37.5t-37 -89.5q0 -53 37 -90t91 -37q53 0 89.5 37t36.5 90q0 52 -36.5 89.5t-89.5 37.5zM1559 1676q23 0 39.5 -16.5t16.5 -40.5t-16 -40.5t-40 -16.5q-25 0 -41.5 16t-16.5 41q0 24 16.5 40.5t41.5 16.5z
M471 1327v-88h1657v88h-1657zM1848 1909v-114h190v114h-190zM980 1134v-310h280v310h-280zM1040 1074h160v-190h-160v190zM418 1614v-86h35v-919h80v878h1534v-878h80v919h35v86h-1764zM1907 1746q-54 0 -91 -37.5t-37 -89.5q0 -53 37 -90t91 -37q53 0 89.5 37t36.5 90
q0 52 -36.5 89.5t-89.5 37.5zM1907 1676q23 0 39.5 -16.5t16.5 -40.5t-16 -40.5t-40 -16.5q-25 0 -41.5 16t-16.5 41q0 24 16.5 40.5t41.5 16.5zM434 1898h1732q38 0 66 -27.5t28 -64.5v-1734q0 -38 -27.5 -66t-65.5 -28h-1734q-37 0 -65 28t-28 66v1734q0 37 28 64.5
t66 27.5zM2168 1909v-114h113l-28 114h-85zM1340 1134v-310h280v310h-280zM1400 1074h160v-190h-160v190zM1460 597l-174 -189q-54 -60 -101 -89.5t-104 -39.5t-144 -10l-122 -108q-53 -46 -105 -46q-63 0 -127 48l-272 202v-99l225 -167q87 -64 174 -64q44 0 82.5 16.5
t75.5 49.5l99 88q90 0 155.5 14t120.5 50t112 102l161 185zM453 613v-18q0 -58 43.5 -98.5t107.5 -40.5h1392q65 0 108 40.5t43 98.5v18h-1694zM1700 1134v-310h280v310h-280zM1760 1074h160v-190h-160v190zM2308 471q-42 -20 -90.5 -28.5t-70.5 -8.5q-79 -91 -137 -147.5
t-96 -82.5t-60 -26q-23 0 -64.5 41.5t-82.5 115.5q-55 4 -99.5 11.5t-103 25.5t-155.5 53l-27 -75q85 -31 142.5 -49.5t102.5 -28t92 -13.5q45 -73 95.5 -117t99.5 -44q53 0 128 56.5t201 199.5q32 3 69.5 11.5t55.5 16.5v89z" />
</svg>