<?xml version="1.0" standalone="no"?>
<!DOCTYPE svg PUBLIC "-//W3C//DTD SVG 1.1//EN" "http://www.w3.org/Graphics/SVG/1.1/DTD/svg11.dtd">
<svg xmlns="http://www.w3.org/2000/svg" xmlns:xlink="http://www.w3.org/1999/xlink" version="1.1"
   viewBox="94 -151 2414 2169">
   <path fill="currentColor"
      d="M2421 1678l-114 -59l-7 -167l-61 -2l-73 82h-1088q-180 0 -312.5 -29.5t-237.5 -98t-203 -185.5q-99 -119 -160 -235.5t-61 -185.5h141q269 0 548.5 14t547 40t503.5 62t418 80l8 73q38 -15 100 -15q60 0 102.5 16t42.5 42v155l-103 155l93 60v54h-84v144zM178 843
q-18 -44 -25.5 -89t-7.5 -100l69 12q0 40 6.5 78t22.5 77zM409 872q-18 -41 -26.5 -90t-8.5 -98l70 2q0 40 5.5 79t21.5 77zM738 737l-653 -72l12 -78l653 74zM646 881q-16 -41 -24 -90t-8 -98l70 2q0 40 6.5 79t19.5 76zM1078 1454h1063l68 -75h60q11 0 17 -18t6 -38
q0 -18 -6 -33t-17 -16l-54 -3l-32 -216q-460 -91 -943 -135t-995 -44h-41q27 66 66 129.5t99 138.5q94 118 191.5 185.5t221 96t296.5 28.5zM2243 1240q-382 -59 -717 -96.5t-644 -55.5t-615 -18v-69q309 0 620.5 17.5t648 55t719.5 97.5zM1262 919l-64 -49l196 -383h91z
M1912 985l-162 -475l63 29l-411 -34h-260l36 -15l-264 388l-64 -46l273 -405h284l547 47q28 2 28 29q0 24 -38.5 42t-94.5 18l148 422h-85zM1503 793q-22 3 -38 -13t-7 -34l63 -120l160 14l31 96q5 13 -2.5 23t-20.5 12zM1372 434l-68 -4l7 -171l68 4zM1190 441l-70 -6
l9 -154q2 -35 28 -59t62 -24q30 0 123 8l338 27l-6 78l-436 -35q-16 -2 -28.5 9.5t-13.5 31.5zM1553 454l-68 -4l7 -191l68 4z" />
</svg>