<?xml version="1.0" standalone="no"?>
<!DOCTYPE svg PUBLIC "-//W3C//DTD SVG 1.1//EN" "http://www.w3.org/Graphics/SVG/1.1/DTD/svg11.dtd">
<svg xmlns="http://www.w3.org/2000/svg" xmlns:xlink="http://www.w3.org/1999/xlink" version="1.1"
   viewBox="94 -151 2414 2169">
   <path fill="currentColor"
      d="M1300 1978q-115 0 -223 -24t-196 -68l210 -227q-60 -5 -110.5 -18t-106.5 -35l-192 171q-126 -94 -220.5 -224t-147 -286.5t-52.5 -329.5q0 -215 80.5 -403.5t223.5 -331.5t331 -223.5t403 -80.5t403.5 80.5t331 223.5t223 331.5t80.5 403.5q0 173 -52.5 329.5
t-147 286.5t-220.5 224l-192 -171q-55 22 -106 35t-111 18l210 227q-88 44 -195.5 68t-223.5 24zM860 1210q-28 0 -49 -21t-21 -49q0 -29 21 -49.5t49 -20.5q29 0 49.5 20.5t20.5 49.5q0 28 -20.5 49t-49.5 21zM802 1544h997q68 0 91 -23t23 -91v-86h-432v86h-361v-86h-433
v86q0 68 24 91t91 23zM759 986v-550q0 -52 33 -103t88.5 -85t122.5 -34h42v772h-286zM828 918h149v-633q-32 0 -67 23t-58.5 56t-23.5 64v490zM1136 1196v-748h328v748h-328zM1196 906h208v-398h-208v398zM1741 1210q-28 0 -49 -21t-21 -49q0 -29 21 -49.5t49 -20.5
q29 0 49.5 20.5t20.5 49.5q0 28 -20.5 49t-49.5 21zM667 1285h1266v-831q0 -104 -52.5 -184t-166 -126t-297.5 -46h-233q-184 0 -298 46t-166.5 126t-52.5 184v831zM1187 298h90v-60h-90v60zM1182 328q-45 0 -45 -60t45 -60h237q45 0 45 60t-45 60h-237zM1555 986v-772h42
q68 0 123 34t88 85t33 103v550h-286zM1623 918h149v-490q0 -31 -23.5 -64t-58 -56t-67.5 -23v633zM1377 298h50v-60h-50v60z" />
</svg>