<?xml version="1.0" standalone="no"?>
<!DOCTYPE svg PUBLIC "-//W3C//DTD SVG 1.1//EN" "http://www.w3.org/Graphics/SVG/1.1/DTD/svg11.dtd">
<svg xmlns="http://www.w3.org/2000/svg" xmlns:xlink="http://www.w3.org/1999/xlink" version="1.1"
   viewBox="94 -151 2414 2169">
   <path fill="currentColor"
      d="M842 1510q-312 0 -482 -75t-170 -214q0 -40 20 -85t55.5 -84.5t81.5 -59.5l32 73q-42 19 -75.5 67t-33.5 89q0 95 148 153t424 58h68q287 0 452 -79.5t223 -239.5l189 -193l372 7l83 244h106l-61 -268l132 -438h-125l-111 296l-582 -27l4 -78l523 24l110 -293h289
l-157 519l78 343h-264l-83 -245l-280 -5l-154 157q-71 178 -255 266t-489 88h-68zM706 1838l-76 -25l122 -363l76 25zM490 1878q-64 0 -127.5 -27t-112.5 -76l60 -54q76 79 180 79h1161v78h-1161zM563 1315q-28 0 -52 -26.5t-24 -56.5q0 -35 30 -59.5t72 -24.5q26 0 26 13
q0 23 -10 59.5t-22.5 65.5t-19.5 29zM1303 1833l-113 -405l77 -22l113 405zM784 1082q-7 0 -12 -5t-2 -14l70 -238q6 -17 17 -17h112q8 0 12.5 4t3.5 9l-30 244q-2 17 -16 17h-155zM538 1077q-46 0 -87.5 -3.5t-71.5 -8.5l-54 -61q77 -143 218.5 -229.5t331.5 -123.5
l15 -261l645 23q23 42 39 105t25.5 120.5t12.5 83.5l-96 76q-98 -49 -215 -67t-236 -18q-177 0 -326 57l-99 300q-23 4 -49.5 5.5t-52.5 1.5zM1094 1082q-18 0 -16 -15l20 -244q1 -8 16 -11.5t50 -3.5q62 0 110 14t48 31l3 214q0 15 -16 15h-215zM1508 702q0 -33 -4.5 -73.5
t-12.5 -78.5t-17 -62l-186 -6q-67 -2 -116.5 41t-66.5 111q116 0 222.5 21t180.5 47zM1028 451v-372h80v372h-80zM464 374l-24 -74l629 -195l669 193l-23 75l-646 -185zM90 232l-4 -79q323 -17 676 -25.5t711 -8.5q154 0 306 1.5t291 4.5v78q-139 -3 -292 -4.5t-307 -1.5
q-357 0 -708.5 8.5t-672.5 26.5zM920 150q0 -29 43 -55.5t104 -26.5q60 0 101.5 26.5t41.5 55.5h-290zM922 77q0 -26 42.5 -52.5t102.5 -26.5q59 0 100 26.5t41 52.5h-286z" />
</svg>