<?xml version="1.0" standalone="no"?>
<!DOCTYPE svg PUBLIC "-//W3C//DTD SVG 1.1//EN" "http://www.w3.org/Graphics/SVG/1.1/DTD/svg11.dtd">
<svg xmlns="http://www.w3.org/2000/svg" xmlns:xlink="http://www.w3.org/1999/xlink" version="1.1"
   viewBox="94 -151 2414 2169">
   <path fill="currentColor"
      d="M999 889q-51 0 -113 -1.5t-147 -9t-207 -24.5v-94q94 -77 232 -170t298.5 -190t324.5 -186.5t312 -161t261 -113t169 -41.5q48 0 92 15.5t78 54.5q75 0 114.5 29.5t39.5 80.5q0 47 -58.5 113.5t-159 143.5t-228 155t-267.5 149.5t-277.5 128t-257.5 89t-206 32.5z
M980 1588l141 -42l-125 -28l-148 37zM1204 1648l134 -49l-139 -30l-136 44zM1559 1978l-1183 -343l745 -204l1149 254zM532 854l-229 -31q-17 -2 -29 -8t-12 -16q0 -24 35 -29l429 -52q11 -2 19 8.5t8 24.5q0 13 -15 35.5t-62 42t-144 25.5zM1414 1709l145 -55l-149 -31
l-131 51zM1583 1918l550 -219l-340 -70l-97 36l220 54l-92 37l-212 -58l-109 42l211 59l-104 41l-217 -57l-117 46zM703 700l-197 -377l75 -52l331 308zM930 726q-23 0 -23 -31t23 -31q22 0 22 31t-22 31zM1246 755q-54 0 -83.5 -27.5t-29.5 -73.5q0 -20 7 -35h-11
q-152 0 -276 -2t-235 -5.5t-223 -9.5t-240 -14q-55 -3 -55 -69q0 -16 2.5 -47.5t5.5 -50.5l24 -3l59 91q220 -24 467.5 -45.5t498.5 -35t481 -13.5q33 0 33 19q0 12 -16 22l-170 102q3 15 3 30q0 42 -34.5 80.5t-89.5 62.5t-118 24zM1393 636q18 0 31 -14t13 -36
q0 -36 -23 -66t-50 -30q-19 0 -32 14t-13 35q0 37 23.5 67t50.5 30zM999 811q72 0 181.5 -31t238.5 -84t262.5 -119.5t257 -138.5t221.5 -141t155.5 -126.5t57.5 -94.5q0 -19 -17 -34t-68 -15q-10 0 -20.5 0.5t-22.5 2.5q-11 -27 -43.5 -40.5t-72.5 -13.5q-45 0 -144.5 37.5
t-234 102t-287 147t-306 173.5t-291.5 181.5t-241 170.5q138 16 222 19.5t152 3.5zM1550 374q-23 0 -23 -31t23 -31q22 0 22 31t-22 31zM1680 303q-23 0 -23 -31t23 -31q22 0 22 31t-22 31zM1800 243q-23 0 -23 -31t23 -31q22 0 22 31t-22 31zM2009 693q-54 0 -74.5 -33
t-20.5 -77q0 -13 5 -31q-31 4 -61 7t-59 5l208 -163l396 -39l4 -63l41 -21l37 59q15 24 15 43q0 23 -54.5 46.5t-185.5 60.5q4 12 4 30q0 41 -43.5 82t-103.5 67.5t-108 26.5zM2181 568q46 0 46 -52q0 -36 -22.5 -65.5t-50.5 -29.5q-21 0 -34 14t-13 37q0 34 23.5 65
t50.5 31zM1920 184q-23 0 -23 -31t23 -31q22 0 22 31t-22 31zM2122 108q-19 16 -37 -2q-17 -17 3 -35q41 -38 79.5 -59t84.5 -37l15 47q-43 15 -75 35t-70 51z" />
</svg>