<?xml version="1.0" standalone="no"?>
<!DOCTYPE svg PUBLIC "-//W3C//DTD SVG 1.1//EN" "http://www.w3.org/Graphics/SVG/1.1/DTD/svg11.dtd">
<svg xmlns="http://www.w3.org/2000/svg" xmlns:xlink="http://www.w3.org/1999/xlink" version="1.1"
   viewBox="94 -151 2414 2169">
   <path fill="currentColor"
      d="M697 1569q-223 0 -330 -48t-107 -149q0 -100 73 -223.5t201.5 -258t297 -268.5t361 -256t393 -221t393.5 -164t361 -83v1671h-1643zM1813 1978q-112 0 -183 -83l-1229 2q-53 0 -74 -42t7 -87l169 -273l56 56l-153 249q-5 8 -2 13.5t10 5.5l1005 -2q64 -68 114 -105.5
t110 -37.5h617v-113l80 -70v404h-345q-34 40 -81.5 61.5t-100.5 21.5zM689 1168q-21 0 -35.5 -14.5t-14.5 -35.5q0 -31 28.5 -69t67 -66.5t68.5 -28.5q48 0 48 49q0 32 -27 71t-65 66.5t-70 27.5zM1813 1913q71 0 120.5 -49.5t49.5 -119.5h-110q0 25 -17.5 42t-42.5 17
t-42.5 -17t-17.5 -42h-110q0 70 50 119.5t120 49.5zM462 1452q-38 0 -90.5 -6.5t-98.5 -19.5l30 -125q40 11 84 16t75 5q61 0 127.5 -21.5t183.5 -67.5q249 -97 483.5 -147t472.5 -50h575v128h-575q-230 0 -453.5 44.5t-465.5 145.5q-91 38 -151.5 59.5t-105.5 30t-91 8.5z
M697 1491h1563v-1501q-159 29 -339 97t-365.5 164.5t-362.5 211t-331 237.5t-271.5 244.5t-184 231t-66.5 196.5q0 56 84 87.5t273 31.5zM700 842l-8 -80q145 -15 301 -59.5t309 -114t289 -160.5t242 -201t168 -234l72 36q-74 150 -216 286.5t-329 247t-399.5 183.5
t-428.5 96z" />
</svg>