<?xml version="1.0" standalone="no"?>
<!DOCTYPE svg PUBLIC "-//W3C//DTD SVG 1.1//EN" "http://www.w3.org/Graphics/SVG/1.1/DTD/svg11.dtd">
<svg xmlns="http://www.w3.org/2000/svg" xmlns:xlink="http://www.w3.org/1999/xlink" version="1.1"
   viewBox="94 -151 2414 2169">
   <path fill="currentColor"
      d="M1300 1928q-209 0 -380 -61t-294.5 -172.5t-190.5 -265.5t-67 -340q0 -74 11 -143.5t32 -132.5q-40 -121 -60.5 -230.5t-20.5 -218.5q0 -126 32 -219.5t85.5 -145t117.5 -51.5q56 0 90 32.5t68 85.5t86 115.5t143 122.5q80 -25 168 -37t180 -12t180 12t168 37
q91 -60 143 -122.5t86 -115.5t68.5 -85.5t89.5 -32.5q65 0 118 51.5t85 145t32 219.5q0 109 -20 218.5t-61 230.5q21 63 32 132.5t11 143.5q0 186 -67 340t-190.5 265.5t-294.5 172.5t-380 61zM227 1497l-26 -76l358 -124l26 76zM554 1234l-394 -61l12 -79l394 61zM534 1091
l-353 -165l34 -72l353 165zM1015 1572l-52 -62q166 -133 337 -133q86 0 170.5 33.5t166.5 99.5l-52 62q-142 -115 -285 -115t-285 115zM919 1070q-45 0 -77.5 -40t-32.5 -95q0 -44 14 -82.5t29 -38.5q14 0 59 31t94 73q18 15 18 40q0 36 -31.5 74t-72.5 38zM1260 1415v-220
h80v220h-80zM1300 1249q-40 0 -77.5 -31.5t-37.5 -62.5q0 -27 31 -41.5t84 -14.5t84 14.5t31 41.5q0 31 -37 62.5t-78 31.5zM463 712q28 -49 64.5 -91.5t79.5 -76.5q-84 -152 -84 -312q0 -88 21 -200q-33 11 -63.5 55t-50.5 114.5t-20 162.5q0 85 13 170.5t40 177.5z
M1300 1848q257 0 448.5 -95.5t297.5 -266.5t106 -396q0 -173 -70 -311t-195 -216q59 -90 84.5 -165.5t25.5 -165.5q0 -39 -4.5 -81t-12.5 -91q-26 30 -60 83t-94 117.5t-163 131.5q-98 -30 -182 -43.5t-181 -13.5q-91 0 -178 13.5t-185 43.5q-103 -67 -163 -131.5
t-94 -117.5t-60 -83q-8 49 -12.5 91t-4.5 81q0 90 25.5 165.5t84.5 165.5q-124 78 -194.5 216t-70.5 311q0 225 106 396t297.5 266.5t448.5 95.5zM1167 631q-36 0 -80 -58t-91 -214l257 -39q2 24 2.5 47t0.5 44q0 99 -23.5 159.5t-65.5 60.5zM1681 1070q-41 0 -72.5 -38
t-31.5 -74q0 -25 18 -40q49 -42 94.5 -73t58.5 -31q15 0 29 38.5t14 82.5q0 55 -32.5 95t-77.5 40zM2373 1497l-358 -124l26 -76l358 124zM1433 631q-41 0 -65 -61.5t-24 -158.5q0 -21 0.5 -44t2.5 -47l257 39q-47 156 -91 214t-80 58zM2046 1234l-12 -79l394 -61l12 79z
M2066 1091l-34 -72l353 -165l34 72zM2137 712q27 -92 40 -177.5t13 -170.5q0 -92 -20 -162.5t-50.5 -114.5t-63.5 -55q21 112 21 200q0 160 -84 312q44 34 80 76.5t64 91.5z" />
</svg>