<?xml version="1.0" standalone="no"?>
<!DOCTYPE svg PUBLIC "-//W3C//DTD SVG 1.1//EN" "http://www.w3.org/Graphics/SVG/1.1/DTD/svg11.dtd">
<svg xmlns="http://www.w3.org/2000/svg" xmlns:xlink="http://www.w3.org/1999/xlink" version="1.1"
   viewBox="94 -151 2414 2169">
   <path fill="currentColor"
      d="M1300 1978q-216 0 -404.5 -80.5t-331.5 -223.5t-223.5 -331.5t-80.5 -404.5t80.5 -404.5t223.5 -331.5t331.5 -223.5t404.5 -80.5q215 0 403.5 80.5t331.5 223.5t224 331.5t81 404.5t-81 404.5t-224 331.5t-331.5 223.5t-403.5 80.5zM990 1585v-472h-60v467zM1270 1645
h60v-501h-60v501zM1300 1689q131 0 258.5 -44.5t230.5 -119t164.5 -166.5t61.5 -188q0 -59 -34 -90.5t-95 -31.5q-45 0 -135 17t-207 34.5t-244 17.5t-244 -17.5t-206.5 -34.5t-135.5 -17q-61 0 -95 31.5t-34 90.5q0 96 61.5 188t165 166.5t230.5 119t258 44.5zM1300 1619
q-116 0 -230.5 -39.5t-208 -104.5t-150 -144.5t-56.5 -159.5q0 -28 13.5 -40t45.5 -12q33 0 98.5 10.5t148.5 24t171.5 24t167.5 10.5q81 0 169 -10.5t170.5 -24t147.5 -24t99 -10.5q33 0 46 12t13 40q0 80 -56 159.5t-150 144.5t-208 104.5t-231 39.5zM1304 1430
q347 0 689 -168l-17 -59q-339 167 -675 167t-676 -167l-17 59q348 168 696 168zM816 847l-74 -14q19 -94 72.5 -145.5t134.5 -51.5q82 0 135.5 51.5t71.5 145.5l-74 14q-26 -136 -133 -136q-106 0 -133 136zM1610 1585l60 -5v-466h-60v471zM1300 1898q199 0 373 -74.5
t306 -206.5t206.5 -306t74.5 -373t-74.5 -373t-206.5 -306t-306 -206.5t-373 -74.5t-373 74.5t-306 206.5t-206.5 306t-74.5 373t74.5 373t206.5 306t306 206.5t373 74.5zM1518 847l-74 -14q19 -94 72.5 -145.5t134.5 -51.5q82 0 135.5 51.5t71.5 145.5l-74 14
q-26 -136 -133 -136q-106 0 -133 136z" />
</svg>