<?xml version="1.0" standalone="no"?>
<!DOCTYPE svg PUBLIC "-//W3C//DTD SVG 1.1//EN" "http://www.w3.org/Graphics/SVG/1.1/DTD/svg11.dtd">
<svg xmlns="http://www.w3.org/2000/svg" xmlns:xlink="http://www.w3.org/1999/xlink" version="1.1"
   viewBox="94 -151 2414 2169">
   <path fill="currentColor"
      d="M1275 1978q-216 0 -404.5 -80.5t-331.5 -223.5t-223.5 -331.5t-80.5 -404.5t80.5 -404.5t223.5 -331.5t331.5 -223.5t404.5 -80.5q215 0 403.5 80.5t331.5 223.5t224 331.5t81 404.5q0 79 -11.5 154.5t-32.5 147.5l-66 -61q14 -58 22 -118.5t8 -122.5q0 -199 -74.5 -373
t-206.5 -306t-306 -206.5t-373 -74.5t-373 74.5t-306 206.5t-206.5 306t-74.5 373t74.5 373t206.5 306t306 206.5t373 74.5q195 0 367 -73t302 -199l91 22q-142 152 -338.5 241t-421.5 89zM1106 1595q-46 0 -73 -27.5t-27 -71.5q0 -52 38.5 -99t100 -77t130.5 -30
q70 0 131.5 30t100 77t38.5 99q0 44 -27 71.5t-73 27.5q-36 0 -80.5 -12.5t-89.5 -12.5t-89.5 12.5t-79.5 12.5zM863 962q-64 0 -125.5 -29.5t-110.5 -87.5l53 -46q79 93 183 93q105 0 184 -93l53 46q-49 58 -110.5 87.5t-126.5 29.5zM546 674l-58 -38q47 -75 128 -125.5
t207 -84.5l19 68q-115 31 -185 73.5t-111 106.5zM2076 1691q-90 0 -153.5 -36.5t-111 -93.5t-90.5 -119q-43 -63 -81 -108t-81 -73t-103 -39q87 -90 195.5 -137t230.5 -47q134 0 243.5 51t174.5 137.5t65 193.5q0 119 -80.5 195t-208.5 76zM2076 1621q97 0 158 -55.5
t61 -145.5q0 -87 -55.5 -157.5t-149 -112.5t-208.5 -42q-165 0 -292 90q44 27 85 71.5t98 127.5q41 59 82.5 110t94.5 82.5t126 31.5zM1687 962q-64 0 -125.5 -29.5t-110.5 -87.5l53 -46q79 93 183 93q105 0 184 -93l53 46q-49 58 -110.5 87.5t-126.5 29.5zM2005 674
q-41 -64 -110.5 -106.5t-185.5 -73.5l18 -68q126 34 207.5 84.5t128.5 125.5z" />
</svg>