<?xml version="1.0" standalone="no"?>
<!DOCTYPE svg PUBLIC "-//W3C//DTD SVG 1.1//EN" "http://www.w3.org/Graphics/SVG/1.1/DTD/svg11.dtd">
<svg xmlns="http://www.w3.org/2000/svg" xmlns:xlink="http://www.w3.org/1999/xlink" version="1.1"
   viewBox="94 -151 2414 2169">
   <path fill="currentColor"
      d="M508 1853q-44 0 -73 -28.5t-29 -72.5v-1492q0 -71 45 -120.5t116 -55.5q183 -16 366 -22.5t367 -6.5t367 6.5t366 22.5q71 6 116 55.5t45 120.5v1492q0 44 -29 72.5t-73 28.5h-1584zM627 1978q-43 0 -71.5 -29t-28.5 -73v-63h288v104q0 26 -17 43.5t-42 17.5h-129z
M631 1514q-31 0 -52.5 -21.5t-21.5 -52.5t21.5 -52.5t52.5 -21.5t52.5 21.5t21.5 52.5t-21.5 52.5t-52.5 21.5zM850 1536q-35 0 -60 -25t-25 -60t25 -60t60 -25t60 25t25 60t-25 60t-60 25zM231 772q-26 0 -43.5 -17.5t-17.5 -43.5v-159q0 -26 17.5 -42.5t43.5 -16.5h42
q26 0 43 16.5t17 42.5v159q0 26 -17 43.5t-43 17.5h-42zM1300 1671q-172 0 -337 -2.5t-294.5 -7.5t-195.5 -13v-80q48 7 164.5 13t286.5 9t376 3q205 0 374 -3t286 -9t166 -13v80q-66 8 -195.5 13t-294 7.5t-336.5 2.5zM223 509v-24q0 -62 49 -101.5t121 -39.5h33v78h-33
q-48 0 -69 17t-21 46v24h-80zM1844 1978q-25 0 -42 -17.5t-17 -43.5v-104h288v63q0 44 -28 73t-72 29h-129zM1300 1307q-289 0 -507 -16t-319 -45v-84q37 19 154 34.5t291 24t381 8.5q203 0 374.5 -8.5t289 -23t157.5 -33.5v83q-102 28 -318.5 44t-502.5 16zM749 1025h303
v-496h-280q-24 0 -31.5 9.5t-8.5 28.5l-24 414q-1 21 7 32.5t34 11.5zM1750 1536q-35 0 -60 -25t-25 -60t25 -60t60 -25t60 25t25 60t-25 60t-60 25zM508 1775h1584q11 0 16.5 -5.5t5.5 -15.5v-1494q0 -41 -24 -67.5t-64 -30.5q-168 -16 -348 -22.5t-378 -6.5t-378 6.5
t-348 22.5q-40 4 -64 30.5t-24 67.5v1494q0 10 5.5 15.5t16.5 5.5zM687 1103q-29 0 -47 -19t-17 -47l33 -530q2 -25 18.5 -40.5t41.5 -15.5h1169q25 0 42 15.5t18 40.5l32 530q2 28 -16 47t-47 19h-1227zM1132 1025h336v-496h-336v496zM1969 1514q-31 0 -52.5 -21.5
t-21.5 -52.5t21.5 -52.5t52.5 -21.5t52.5 21.5t21.5 52.5t-21.5 52.5t-52.5 21.5zM1548 1025h347l-25 -458q-1 -19 -8.5 -28.5t-31.5 -9.5h-282v496zM1546 1036v-54q0 -44 26 -63.5t78 -19.5v-84q0 -20 13 -32.5t33 -12.5h51q20 0 32.5 12.5t12.5 32.5v84h111l5 137h-362z
M684 370v-9q0 -38 33 -68t85 -30h996q52 0 85 30t33 68v9h-1232zM2174 1181v-78h33q48 0 69 -17.5t21 -45.5v-24h80v24q0 62 -49 101.5t-121 39.5h-33zM622 112v-97l54 -79q25 -38 72 -38h1104q47 0 72 38l54 79v97h-1356zM2327 1032q-26 0 -43 -16.5t-17 -42.5v-159
q0 -26 17 -43.5t43 -17.5h42q26 0 43.5 17.5t17.5 43.5v159q0 26 -17.5 42.5t-43.5 16.5h-42z" />
</svg>