<?xml version="1.0" standalone="no"?>
<!DOCTYPE svg PUBLIC "-//W3C//DTD SVG 1.1//EN" "http://www.w3.org/Graphics/SVG/1.1/DTD/svg11.dtd">
<svg xmlns="http://www.w3.org/2000/svg" xmlns:xlink="http://www.w3.org/1999/xlink" version="1.1"
   viewBox="94 -151 2414 2169">
   <path fill="currentColor"
      d="M837 1814q-98 0 -166 -28.5t-116 -100t-86 -199t-77 -325.5q-7 -35 -20.5 -68t-27.5 -58l63 -31q13 25 29.5 63t24.5 82q36 195 70 313.5t74.5 179.5t96.5 81.5t135 20.5h1101q88 0 140 -33t79 -89t38.5 -124.5t18.5 -139.5q5 -56 10 -87t13 -66l68 17q-7 32 -11.5 61
t-9.5 82q-7 71 -21 149.5t-48 146.5t-100 110.5t-177 42.5h-1101zM677 1978q-87 0 -110.5 -11.5t-23.5 -33.5q0 -23 19.5 -38t72.5 -40q29 -14 47.5 -31.5t18.5 -39.5t-6 -38.5t-27 -32.5q-17 -14 -28.5 -26t-11.5 -28q0 -14 9.5 -25t29.5 -11q17 0 32 7.5t34 27.5
q0 -27 12.5 -47t41.5 -20q26 0 38.5 14.5t12.5 31.5q0 8 -2 19t-11 30q14 -10 30 -14.5t30 -4.5q56 0 56 48q0 11 -5.5 20t-20.5 9q-58 0 -82 31t-24 104q0 61 -26.5 80t-105.5 19zM777 878q40 0 68.5 -29.5t28.5 -69.5q0 -41 -28 -69.5t-69 -28.5t-70 28.5t-29 69.5t29 70
t70 29zM862 917l-225 -52q-23 -41 -23 -86q0 -68 47.5 -115t115.5 -47q67 0 114 47t47 115q0 43 -20.5 79.5t-55.5 58.5zM2067 1978q-79 0 -105.5 -19t-26.5 -80q0 -73 -23.5 -104t-82.5 -31q-15 0 -20.5 -9t-5.5 -20q0 -48 56 -48q14 0 30 4.5t30 14.5q-9 -19 -11 -30
t-2 -19q0 -17 13 -31.5t38 -14.5q29 0 41.5 20t12.5 47q19 -20 34 -27.5t32 -7.5q20 0 29.5 11t9.5 25q0 16 -11.5 28t-28.5 26q-21 16 -27 32.5t-6 38.5t18.5 39.5t47.5 31.5q53 25 72.5 40t19.5 38q0 22 -23.5 33.5t-110.5 11.5zM1704 1298q-181 0 -349.5 -28t-325.5 -86
q-131 -49 -228 -80t-173.5 -46.5t-148.5 -15.5q-16 0 -43.5 3t-52 6.5t-33.5 3.5q-46 0 -78.5 -33t-32.5 -79q0 -39 24.5 -69t61.5 -39q74 -18 158 -18q137 0 283 41.5t344 117.5q190 73 340 86t236 13q215 0 329 -12t169 -21q51 -8 67 -8q45 0 77.5 33t32.5 78
q0 40 -24.5 70t-63.5 39q-142 33 -285.5 38.5t-283.5 5.5zM1704 1228q140 0 278 -7t276 -35q33 -7 33 -41q0 -17 -12 -30t-29 -11q-151 20 -279.5 30.5t-284.5 10.5q-57 0 -147 -4.5t-205 -26.5t-248 -72q-198 -76 -336 -115.5t-267 -39.5q-77 0 -139 15q-35 8 -35 41
q0 18 12 30t29 12q20 0 60.5 -6.5t68.5 -6.5q115 0 245.5 36.5t327.5 108.5q303 111 652 111zM1306 1087l-252 -96q-38 -58 -38 -123q0 -70 39.5 -127t102.5 -82l8 67q-38 20 -62 58.5t-24 83.5q0 67 48.5 115.5t115.5 48.5q68 0 116 -48.5t48 -115.5q0 -41 -20 -76.5
t-54 -57.5l31 -57q49 30 78 80.5t29 110.5q0 77 -46.5 138t-119.5 81zM976 608q-58 0 -98 -40t-40 -98t40 -98t98 -40q57 0 97 40t40 98t-40 98t-97 40zM976 544q30 0 51.5 -22t21.5 -52t-21.5 -52t-51.5 -22q-31 0 -52.5 21.5t-21.5 52.5t21.5 52.5t52.5 21.5zM1257 797
q-53 0 -90.5 -37.5t-37.5 -91.5q0 -53 37.5 -90t90.5 -37t90 37t37 90t-37 91t-90 38zM1257 733q26 0 44.5 -19.5t18.5 -45.5t-18.5 -44.5t-44.5 -18.5t-45 18.5t-19 44.5q0 27 19 46t45 19zM1723 1133q-66 0 -112 -46t-46 -111q0 -66 46 -112t112 -46q65 0 111 46t46 112
q0 65 -46 111t-111 46zM1723 1069q38 0 65.5 -27.5t27.5 -65.5q0 -39 -27.5 -66.5t-65.5 -27.5q-39 0 -66.5 27.5t-27.5 66.5q0 38 27.5 65.5t66.5 27.5zM1657 865q-10 -46 -47.5 -76t-85.5 -30q-45 0 -85 29l-22 -62q50 -31 107 -31q69 0 123.5 42t71.5 107zM1846 1108
v-367h70v367h-70zM1618 531q-67 0 -147 -28.5t-153 -75.5t-119.5 -102.5t-46.5 -110.5q0 -42 34 -74t76 -32q43 0 70 32q13 15 46 44.5t98 65.5q55 30 102.5 50t75.5 25q35 5 56 32.5t21 62.5q0 49 -31.5 80t-81.5 31zM1618 461q43 0 43 -41q0 -23 -18 -26
q-23 -5 -73.5 -22.5t-127.5 -60.5q-73 -41 -109 -72.5t-47 -44.5q-12 -16 -26 -16q-16 0 -27 11.5t-11 29.5q0 42 46 85t113 78.5t132.5 57t104.5 21.5zM1826 788q-58 0 -98 -40t-40 -98t40 -98t98 -40q57 0 97 40t40 98t-40 98t-97 40zM1826 724q30 0 51.5 -22t21.5 -52
t-21.5 -52t-51.5 -22q-31 0 -52.5 21.5t-21.5 52.5t21.5 52.5t52.5 21.5zM2149 1040q35 0 59.5 -25t24.5 -59q0 -35 -24.5 -59.5t-59.5 -24.5q-34 0 -59 24.5t-25 59.5q0 34 25 59t59 25zM2149 1104q-82 0 -124 -68v-160q42 -68 124 -68q62 0 105 43t43 105q0 61 -43 104.5
t-105 43.5zM1717 410l-61 -36q14 -42 14 -79q0 -89 -56 -150.5t-139 -61.5q-108 0 -177 83l-63 -33q41 -56 105.5 -88t134.5 -32q75 0 135 37.5t95 101t35 143.5q0 58 -23 115zM2005 1100v-853q0 -120 -71 -199.5t-181 -79.5q-52 0 -97.5 24t-78.5 66l-82 -4
q42 -73 110.5 -114.5t147.5 -41.5q93 0 165.5 46t114.5 124.5t42 178.5v616l-30 102l30 62v73h-70zM1846 558v-308q0 -54 -25 -87t-65 -33q-36 0 -65 37l-34 -65q42 -42 99 -42q71 0 115.5 53.5t44.5 136.5v308h-70z" />
</svg>