<?xml version="1.0" standalone="no"?>
<!DOCTYPE svg PUBLIC "-//W3C//DTD SVG 1.1//EN" "http://www.w3.org/Graphics/SVG/1.1/DTD/svg11.dtd">
<svg xmlns="http://www.w3.org/2000/svg" xmlns:xlink="http://www.w3.org/1999/xlink" version="1.1"
   viewBox="94 -151 2414 2169">
   <path fill="currentColor"
      d="M1300 1928q-209 0 -380 -61t-294.5 -172.5t-190.5 -265.5t-67 -340q0 -147 43 -276q-40 -121 -60.5 -230.5t-20.5 -218.5q0 -188 54 -302t151 -114q58 0 131.5 45t153 124t154.5 181q76 -22 158 -32.5t168 -10.5t168 10.5t158 32.5q75 -102 154.5 -181t153.5 -124
t131 -45q97 0 151 114t54 302q0 109 -20 218.5t-61 230.5q43 129 43 276q0 186 -67 340t-190.5 265.5t-294.5 172.5t-380 61zM1300 1848q257 0 448.5 -96t297.5 -267t106 -396q0 -149 -47 -276q29 -82 47.5 -157t28 -147.5t9.5 -144.5q0 -152 -35.5 -244t-89.5 -92
q-45 0 -114.5 48.5t-146 130.5t-146.5 184q-82 -28 -171.5 -42t-186.5 -14q-89 0 -175 13t-183 43q-69 -102 -146.5 -184t-146 -130.5t-114.5 -48.5q-54 0 -89.5 92t-35.5 244q0 72 9.5 144.5t28.5 147.5t47 157q-47 127 -47 276q0 225 106 396t297.5 267t448.5 96z
M227 1497l-26 -76l358 -124l26 76zM554 1234l-394 -61l12 -79l394 61zM534 1091l-353 -165l34 -72l353 165zM935 1585v-227h50v227h-50zM1105 1645v-277h50v277h-50zM1300 1620q112 0 207.5 -29t154 -76t58.5 -102q0 -12 -10.5 -22.5t-26.5 -10.5q-10 0 -28 4.5t-40 12.5
q-29 11 -66.5 22t-82.5 11q-59 0 -103.5 -29.5t-62.5 -77.5q-18 48 -62.5 77.5t-103.5 29.5q-45 0 -82.5 -11t-66.5 -22q-22 -8 -40 -12.5t-28 -4.5q-16 0 -26.5 10.5t-10.5 22.5q0 55 58.5 102t154.5 76t207 29zM1300 1700q-138 0 -251.5 -38t-181 -103.5t-67.5 -145.5
q0 -47 34 -80t83 -33q25 0 50 7.5t48 15.5q29 10 58.5 18.5t62.5 8.5q39 0 69 -25t30 -57v-98h130v98q0 32 30 57t69 25q33 0 62.5 -8.5t58.5 -18.5q23 -8 48 -15.5t50 -7.5q49 0 83 33t34 80q0 80 -67.5 145.5t-181 103.5t-251.5 38zM1275 1645v-420h50v420h-50zM1445 1645
v-277h50v277h-50zM1300 1249q-40 0 -77.5 -31.5t-37.5 -62.5q0 -27 31 -41.5t84 -14.5t84 14.5t31 41.5q0 31 -37 62.5t-78 31.5zM1615 1585v-227h50v227h-50zM587 655q-24 -62 -36 -146.5t-12 -157.5q0 -63 9 -105.5t27 -42.5q17 0 54.5 34.5t85.5 91t94 121.5
q-56 31 -117 90t-105 115zM1167 631q-36 0 -80 -58t-91 -214l257 -39q2 24 2.5 47t0.5 44q0 99 -23.5 159.5t-65.5 60.5zM2373 1497l-358 -124l26 -76l358 124zM1433 631q-41 0 -65 -61.5t-24 -158.5q0 -21 0.5 -44t2.5 -47l257 39q-47 156 -91 214t-80 58zM2046 1234
l-12 -79l394 -61l12 79zM2066 1091l-34 -72l353 -165l34 72zM2013 655q-44 -56 -105 -115t-117 -90q46 -65 94 -121.5t86 -91t54 -34.5q18 0 27 42.5t9 105.5q0 73 -12 157.5t-36 146.5zM763 1049l-66 -44q45 -69 99.5 -106.5t111.5 -37.5t111.5 37.5t99.5 106.5l-66 44
q-71 -108 -145 -108t-145 108zM1547 1049l-66 -44q45 -69 99.5 -106.5t111.5 -37.5t111.5 37.5t99.5 106.5l-66 44q-71 -108 -145 -108t-145 108z" />
</svg>