<?xml version="1.0" standalone="no"?>
<!DOCTYPE svg PUBLIC "-//W3C//DTD SVG 1.1//EN" "http://www.w3.org/Graphics/SVG/1.1/DTD/svg11.dtd">
<svg xmlns="http://www.w3.org/2000/svg" xmlns:xlink="http://www.w3.org/1999/xlink" version="1.1"
   viewBox="94 -151 2414 2169">
   <path fill="currentColor"
      d="M1300 1978q-216 0 -404.5 -80.5t-331.5 -223.5t-223.5 -331.5t-80.5 -404.5t80.5 -404.5t223.5 -331.5t331.5 -223.5t404.5 -80.5q215 0 403.5 80.5t331.5 223.5t224 331.5t81 404.5t-81 404.5t-224 331.5t-331.5 223.5t-403.5 80.5zM1315 1582q-79 0 -150.5 -31.5
t-116 -83t-44.5 -110.5q0 -48 31.5 -82t84.5 -34q41 0 92 15t103 15t103 -15t92 -15q53 0 84.5 34t31.5 82q0 59 -44.5 110.5t-115.5 83t-151 31.5zM928 1036q-202 -44 -314.5 -140.5t-112.5 -225.5q0 -83 51.5 -137t129.5 -54q56 0 120 33q74 -106 176 -106q80 0 132 63
t52 157t-58 198t-176 212zM1300 1898q199 0 373 -74.5t306 -206.5t206.5 -306t74.5 -373t-74.5 -373t-206.5 -306t-306 -206.5t-373 -74.5t-373 74.5t-306 206.5t-206.5 306t-74.5 373t74.5 373t206.5 306t306 206.5t373 74.5zM1672 1036q-118 -108 -176 -212t-58 -198
t52.5 -157t131.5 -63q102 0 176 106q64 -33 120 -33q78 0 129.5 54t51.5 137q0 129 -112 225.5t-315 140.5z" />
</svg>