<?xml version="1.0" standalone="no"?>
<!DOCTYPE svg PUBLIC "-//W3C//DTD SVG 1.1//EN" "http://www.w3.org/Graphics/SVG/1.1/DTD/svg11.dtd">
<svg xmlns="http://www.w3.org/2000/svg" xmlns:xlink="http://www.w3.org/1999/xlink" version="1.1"
   viewBox="94 -151 2414 2169">
   <path fill="currentColor"
      d="M1300 1978q-216 0 -404.5 -80.5t-331.5 -223.5t-223.5 -331.5t-80.5 -404.5t80.5 -404.5t223.5 -331.5t331.5 -223.5t404.5 -80.5q215 0 403.5 80.5t331.5 223.5t224 331.5t81 404.5t-81 404.5t-224 331.5t-331.5 223.5t-403.5 80.5zM1007 1535l-44 -61
q174 -139 337 -139t338 139l-44 61q-155 -125 -294 -125q-140 0 -293 125zM681 1192l-34 -60q103 -58 201 -93t182 -45q-66 -48 -136.5 -84.5t-144.5 -58.5l21 -67q204 64 392 223l-24 49h-22q-91 0 -205 35.5t-230 100.5zM653 644l-18 -67q115 -31 184 -73t112 -107l59 38
q-51 77 -131 127t-206 82zM1300 1898q199 0 373 -74.5t306 -206.5t206.5 -306t74.5 -373t-74.5 -373t-206.5 -306t-306 -206.5t-373 -74.5t-373 74.5t-306 206.5t-206.5 306t-74.5 373t74.5 373t206.5 306t306 206.5t373 74.5zM1919 1192q-116 -65 -229.5 -100.5
t-205.5 -35.5h-22l-23 -49q189 -160 392 -223l20 67q-73 22 -144 58.5t-137 84.5q85 10 183 45t201 93zM1947 644q-126 -33 -206 -83t-130 -126l58 -38q43 65 112 107t184 73z" />
</svg>