<?xml version="1.0" standalone="no"?>
<!DOCTYPE svg PUBLIC "-//W3C//DTD SVG 1.1//EN" "http://www.w3.org/Graphics/SVG/1.1/DTD/svg11.dtd">
<svg xmlns="http://www.w3.org/2000/svg" xmlns:xlink="http://www.w3.org/1999/xlink" version="1.1"
   viewBox="94 -151 2414 2169">
   <path fill="currentColor"
      d="M1300 1978q-216 0 -404.5 -80.5t-331.5 -223.5t-223.5 -331.5t-80.5 -404.5t80.5 -404.5t223.5 -331.5t331.5 -223.5t404.5 -80.5q215 0 403.5 80.5t331.5 223.5t224 331.5t81 404.5t-81 404.5t-224 331.5t-331.5 223.5t-403.5 80.5zM636 1164q-22 -11 -12 -34l55 -115
q11 -24 34 -12q23 11 12 34l-55 115q-11 24 -34 12zM746 1192q-23 -12 -12 -34l81 -171q11 -24 34 -12t12 34l-81 171q-11 24 -34 12zM882 1164q-22 -11 -12 -34l55 -115q11 -24 34 -12q23 11 12 34l-55 115q-11 24 -34 12zM1260 1623v-80q68 0 112 -26.5t44 -67.5
q0 -32 -27.5 -52t-73.5 -20v-80q45 0 69 -19.5t24 -44.5q0 -32 -37.5 -46.5t-110.5 -14.5v-80q119 0 173.5 39.5t54.5 101.5q0 59 -46 103q26 23 40 51.5t14 61.5q0 73 -64.5 123.5t-171.5 50.5zM738 849l-60 -52q103 -118 240 -118t240 118l-60 52q-79 -90 -180 -90
q-100 0 -180 90zM1300 1898q199 0 373 -74.5t306 -206.5t206.5 -306t74.5 -373t-74.5 -373t-206.5 -306t-306 -206.5t-373 -74.5t-373 74.5t-306 206.5t-206.5 306t-74.5 373t74.5 373t206.5 306t306 206.5t373 74.5zM696 495l-54 -60q128 -116 383 -116v80
q-118 0 -196.5 23t-132.5 73zM1641 1164q-22 -11 -12 -34l55 -115q11 -24 34 -12q23 11 12 34l-55 115q-11 24 -34 12zM1751 1192q-23 -12 -12 -34l81 -171q11 -24 34 -12t12 34l-81 171q-11 24 -34 12zM1887 1164q-22 -11 -12 -34l55 -115q11 -24 34 -12q23 11 12 34
l-55 115q-11 24 -34 12zM1502 849l-60 -52q103 -118 240 -118t240 118l-60 52q-79 -90 -180 -90q-100 0 -180 90zM1904 495q-54 -50 -132.5 -73t-196.5 -23v-80q255 0 383 116z" />
</svg>