<?xml version="1.0" standalone="no"?>
<!DOCTYPE svg PUBLIC "-//W3C//DTD SVG 1.1//EN" "http://www.w3.org/Graphics/SVG/1.1/DTD/svg11.dtd">
<svg xmlns="http://www.w3.org/2000/svg" xmlns:xlink="http://www.w3.org/1999/xlink" version="1.1"
   viewBox="94 -151 2414 2169">
   <path fill="currentColor"
      d="M1126 1978l-103 -258l115 -254q-91 -5 -168 -53.5t-124.5 -126.5t-51.5 -170l-268 149l-224 -91l-12 -88l261 -247l369 -63q77 -118 186 -236.5t237.5 -224.5t261.5 -189t259 -130.5t230 -47.5t160 54t56 157q0 95 -47.5 215t-129.5 250.5t-187 258.5t-221 239.5
t-230 192.5l-53 398l-233 265h-83zM547 1859l6 -90q-60 8 -110.5 12.5t-99.5 4.5q32 -59 53 -111.5t38 -104.5t40.5 -90.5t60.5 -75.5q48 -48 118 -74.5t136 -27.5v80q-55 1 -108.5 23t-88.5 56q-31 31 -49 60.5t-33 73.5q-8 25 -17 50.5t-20 52.5q28 -3 65 -9.5t86 -17.5
l10 81q50 -19 91 -46.5t81 -68.5q50 -52 77 -144l77 22q-16 54 -39 98t-58 80q-73 75 -147 110.5t-169 55.5zM1001 1568q-43 -2 -95.5 -33t-100.5 -79t-79 -100.5t-33 -95.5q45 -61 106 -106l129 189l180 119q-22 31 -48.5 57.5t-58.5 48.5zM519 1177l283 -157
q11 -38 26.5 -76.5t37.5 -76.5l-278 45l-217 207zM1179 1893l188 -215l39 -302q-96 62 -174 78l-124 266zM1477 1291q-66 -4 -150 -52t-171 -124q-52 -46 -95 -109t-70 -128.5t-31 -115.5l67 -48q2 40 25 101.5t63.5 126t94.5 114.5q81 75 165 119.5t145 48.5zM1544 875
q-70 0 -120 -50t-50 -120q0 -71 50 -120.5t120 -49.5q71 0 120.5 49.5t49.5 120.5q0 70 -49.5 120t-120.5 50zM1149 1391q72 0 164.5 -48t195.5 -130.5t205.5 -189t195 -224t165 -235t114 -222.5t41.5 -186q0 -57 -31 -93.5t-108 -36.5q-98 0 -225.5 53.5t-265 144.5
t-267 204.5t-234.5 235.5t-167 237t-62 207q0 75 40 139.5t104 104t135 39.5zM2093 630q-78 -5 -161.5 -44.5t-151.5 -106.5q-65 -64 -105.5 -150.5t-45.5 -174.5l80 -4q3 55 31.5 130.5t95.5 140.5q66 64 136 95t125 34z" />
</svg>