<?xml version="1.0" standalone="no"?>
<!DOCTYPE svg PUBLIC "-//W3C//DTD SVG 1.1//EN" "http://www.w3.org/Graphics/SVG/1.1/DTD/svg11.dtd">
<svg xmlns="http://www.w3.org/2000/svg" xmlns:xlink="http://www.w3.org/1999/xlink" version="1.1"
   viewBox="94 -151 2414 2169">
   <path fill="currentColor"
      d="M998 1204q-79 0 -131.5 -33.5t-96.5 -111.5l-86 -151l-215 -102q-37 -18 -52 -32.5t-15 -44.5q0 -66 29 -163.5t75.5 -200t100.5 -188t103 -128.5q97 -83 194 -117t214 -34h1220v1306h-1340zM387 1977v-220l-125 -152v-661h524v78h-444v554l125 152v171h277v-176
l172 -204l61 51l-153 182v225h-437zM340 1196v-70h766v70h-766zM328 1583v-80h1960v80h-1960zM601 581q20 0 38.5 -20.5t18.5 -42.5q0 -14 -8.5 -22.5t-21.5 -8.5q-19 0 -38.5 20.5t-19.5 41.5q0 13 9 22.5t22 9.5zM487 617l43 -149q64 0 104 -8t68.5 -31t58.5 -66
q43 -62 84.5 -113.5t88.5 -103.5q7 -8 4 -16.5t-14 -8.5h-199l56 -50h267q11 0 15 12.5t-5 20.5q-58 53 -104 105t-93 117t-108 157q-37 55 -72.5 84t-81 39.5t-112.5 10.5zM1778 1978v-220l-148 -184l62 -50l166 206v170h278v-172l122 -149v-514h80v543l-122 149v221h-438z
M891 820q-109 0 -188.5 -6t-145 -20t-133.5 -36l-11 -67h290q107 0 169 -42.5t101 -130.5h212q-6 30 -6 54q0 55 33.5 87t110.5 32h947v129h-1379zM1056 453h140q20 0 33 -13.5t13 -32.5v-199q0 -23 -17 -23t-49.5 30t-66.5 72.5t-57.5 81.5t-23.5 56q0 28 28 28zM998 1124
h1260v-1148h-1140q-109 0 -191 31.5t-165 102.5q-41 35 -88 109t-89.5 164.5t-70.5 177.5t-32 149v7v7l259 123l99 172q35 60 68.5 82.5t89.5 22.5zM1358 453h224q20 0 33 -13.5t13 -32.5v-176q0 -20 -13 -33t-33 -13h-224q-19 0 -32.5 13t-13.5 33v176q0 19 13.5 32.5
t32.5 13.5zM977 521q-18 0 -33 -8.5t-15 -30.5q0 -23 20.5 -67t54.5 -95t74.5 -97.5t81 -76.5t74.5 -30h1033v405h-1290zM1744 453h224q20 0 33 -13.5t13 -32.5v-176q0 -20 -13 -33t-33 -13h-224q-19 0 -32.5 13t-13.5 33v176q0 19 13.5 32.5t32.5 13.5zM2130 453h128v-268
h-128q-19 0 -32.5 13t-13.5 33v176q0 19 13.5 32.5t32.5 13.5z" />
</svg>