<?xml version="1.0" standalone="no"?>
<!DOCTYPE svg PUBLIC "-//W3C//DTD SVG 1.1//EN" "http://www.w3.org/Graphics/SVG/1.1/DTD/svg11.dtd">
<svg xmlns="http://www.w3.org/2000/svg" xmlns:xlink="http://www.w3.org/1999/xlink" version="1.1"
   viewBox="94 -151 2414 2169">
   <path fill="currentColor"
      d="M1343 1978q-117 0 -220 -43.5t-182 -120t-123.5 -176.5t-44.5 -213q0 -129 60 -242t165 -191t238 -103l9 78q-114 23 -202.5 89.5t-139 162t-50.5 205.5q0 129 66.5 237t178 172.5t245.5 64.5q135 0 246.5 -64.5t178.5 -172.5t67 -237q0 -110 -51 -205.5t-140 -162.5
t-204 -89l11 -78q133 24 238 102t165.5 191t60.5 243q0 113 -44.5 213t-123.5 176.5t-182.5 120t-221.5 43.5zM1323 1734q-48 0 -88.5 -7t-77.5 -25v-70q38 19 82 29.5t85 10.5q82 0 118 -32t36 -88t-45 -81.5t-125 -25.5h-59v-64h60q75 0 113 -31.5t38 -83.5q0 -44 -29 -68
t-80 -24q-49 0 -84.5 14t-69.5 37l-37 -51q32 -26 80.5 -44.5t109.5 -18.5q95 0 141 42.5t46 107.5q0 61 -34 99t-91 49q68 10 106 46t38 98q0 80 -56.5 130.5t-176.5 50.5zM1306 941q30 0 30 -32v-69q0 -31 -30 -31t-30 31v69q0 32 30 32zM1344 990q-76 0 -133 -27v-199
q0 -30 33 -30h200q33 0 33 30v199q-57 27 -133 27zM1241 892l-296 -143v-203h796v203l-297 143l-17 -83l228 -111v-72h-624v72l227 111zM1021 594l-381 -694h598l309 687l-82 14l-278 -621h-412l331 602zM1513 599l-186 -420l150 -281h483l-390 701h-57z" />
</svg>