<?xml version="1.0" standalone="no"?>
<!DOCTYPE svg PUBLIC "-//W3C//DTD SVG 1.1//EN" "http://www.w3.org/Graphics/SVG/1.1/DTD/svg11.dtd">
<svg xmlns="http://www.w3.org/2000/svg" xmlns:xlink="http://www.w3.org/1999/xlink" version="1.1"
   viewBox="94 -151 2414 2169">
   <path fill="currentColor"
      d="M1696 1978q-185 0 -326 -16.5t-217 -63.5q8 -110 15.5 -185.5t17.5 -147.5t27 -169q-73 35 -154.5 53.5t-173.5 18.5q-16 0 -32 -0.5t-33 -1.5q-46 52 -123.5 85t-150.5 33t-135 -35t-99 -96t-37 -140q0 -64 19 -119t65 -115.5t126 -140.5l63 -84q27 -37 59 -77.5
t57 -68.5l275 -305q29 -33 79 -54.5t109 -28.5q17 -76 61.5 -148.5t100.5 -119.5t104 -47q58 0 105.5 62.5t75.5 168t28 235.5q172 108 295.5 239.5t202.5 301t116.5 388.5t37.5 501q-82 41 -213 59t-345 18zM531 1366q18 0 33 -26t15 -65q0 -40 -21.5 -59.5t-53.5 -19.5
q-19 0 -35.5 7.5t-16.5 21.5q0 23 20 28t33 25q6 9 7 23.5t1 28.5q0 36 18 36zM1064 1380q-1 -142 -36.5 -209.5t-109.5 -67.5q-89 0 -222 97l-56 -57q80 -72 155 -109.5t139 -37.5q106 0 165.5 101t60.5 283h-96zM751 1142l-65 -69q79 -77 117.5 -181t38.5 -199
q0 -22 -2 -44.5t-4 -43.5l95 -93q9 60 9 125q0 89 -21.5 183t-63.5 178t-104 144zM1383 1950l-32 -70q178 -66 308 -159t237.5 -208.5t214.5 -248.5l60 52q-108 135 -218 253.5t-246 215t-324 165.5zM1321 1362l-85 -29q27 -71 27 -140q0 -39 -8 -82.5t-25 -100.5
q-13 -41 -23.5 -86t-10.5 -95q0 -38 7 -74t22 -73l84 31q-12 31 -18 59.5t-6 57.5q0 40 9 78t22 79q36 114 36 207q0 79 -31 168zM1061 890q-28 0 -48.5 -25t-20.5 -60t20.5 -59.5t48.5 -24.5q29 0 49 24.5t20 59.5t-20 60t-49 25zM1235 1743l-37 -68q553 -270 828 -661
l69 41q-142 204 -357.5 376t-502.5 312zM1940 1944l-80 -35q39 -40 84 -99.5t88 -126t77 -128.5t50 -107l26 102q-40 100 -109.5 208t-135.5 186zM1696 1898q178 0 291.5 -12t186.5 -38q0 -258 -37.5 -461t-116 -362t-202 -284.5t-295.5 -228.5q0 -111 -18.5 -208.5
t-48 -158t-63.5 -60.5q-24 0 -57.5 32t-66.5 81.5t-55 102.5t-22 94q-58 0 -113 16.5t-80 44.5l-276 306q-14 16 -33 39t-41 52q39 8 79 41t40 83q0 33 -15.5 69.5t-31 67.5t-15.5 48q0 27 25.5 44t50.5 42.5t25 77.5q0 16 -2 30.5t-6 28.5q24 1 45.5 2t40.5 1
q127 0 230.5 -34t203.5 -91q-19 104 -32 176.5t-21.5 132.5t-15 124.5t-13.5 153.5q63 24 175.5 36t283.5 12zM1281 1421l-18 -86q154 -57 327.5 -172t356.5 -287l45 61q-111 101 -235 198t-246 173t-230 113zM1150 602l-84 -31q11 -29 16.5 -67t5.5 -80q0 -19 -1.5 -38.5
t-3.5 -38.5l88 -12q6 42 6 89q0 51 -7 97t-20 81zM2216 1780l-22 -171q25 -75 38 -169t13 -195q0 -289 -73 -522.5t-209.5 -400t-327.5 -255.5t-428 -89q-130 0 -222.5 13.5t-141 33t-48.5 39.5q0 9 32 41.5t79 76t92 84.5l117 106l-77 35l-94 -82q-117 -102 -174.5 -165
t-57.5 -93q0 -40 43.5 -71.5t116 -53t160 -33t175.5 -11.5q270 0 478 102.5t350.5 285.5t216 428.5t73.5 530.5q0 148 -28.5 287t-80.5 248zM1523 1027q-27 0 -37 -18t-10 -40q0 -62 49 -166.5t134 -230.5l79 59q-31 24 -61.5 63t-50 79t-19.5 66q0 31 26 31q29 0 87.5 -38
t131.5 -99l43 64q-53 50 -125.5 103.5t-140 90t-106.5 36.5zM1462 756l-87 -28q24 -73 61 -138.5t88 -125.5l70 55q-90 108 -132 237zM2186 1318l-41 -77l143 -64l9 121zM1209 292l-217 -323l165 -26l102 238zM1359 476q-50 0 -50 -93q0 -66 23.5 -118.5t49.5 -52.5
q12 0 24 35.5t12 78.5q0 150 -59 150zM2077 1110l-43 -78l224 -126l51 104zM1983 908l-54 -85l234 -159l51 113zM1669 551l-89 -62l253 -322l101 97zM1857 713l-81 -68l250 -253l79 115zM1565 272l-51 -107l72 -140l120 75z" />
</svg>