<?xml version="1.0" standalone="no"?>
<!DOCTYPE svg PUBLIC "-//W3C//DTD SVG 1.1//EN" "http://www.w3.org/Graphics/SVG/1.1/DTD/svg11.dtd">
<svg xmlns="http://www.w3.org/2000/svg" xmlns:xlink="http://www.w3.org/1999/xlink" version="1.1"
   viewBox="94 -151 2414 2169">
   <path fill="currentColor"
      d="M1280 1794q-88 0 -146.5 -35t-58.5 -88q0 -52 28 -94.5t75 -68.5t102 -26t101.5 26t75 68.5t28.5 94.5q0 53 -58 88t-147 35zM436 896q-51 0 -87 -34t-36 -82t36 -82t87 -34t87.5 34t36.5 82t-36.5 82t-87.5 34zM436 841q29 0 49 -18t20 -43t-20 -43t-49 -18
q-28 0 -48 18t-20 43t20 43t48 18zM871 1465q-82 0 -150 -40.5t-108.5 -108.5t-40.5 -150q0 -83 40.5 -151t108.5 -108t150 -40q83 0 151 40t108 108t40 151q0 82 -40 150t-108 108.5t-151 40.5zM871 1405q67 0 121 -32.5t86 -86.5t32 -120q0 -67 -32 -121t-86 -86t-121 -32
q-66 0 -120 32t-86.5 86t-32.5 121q0 66 32.5 120t86.5 86.5t120 32.5zM871 1267q-41 0 -71 -30t-30 -71q0 -42 30 -71.5t71 -29.5q42 0 71.5 29.5t29.5 71.5q0 41 -29.5 71t-71.5 30zM1014 960v-155h60v155h-60zM1170 1061v-99q0 -14 8.5 -22.5t21.5 -8.5t21.5 8.5
t8.5 22.5v99h-60zM1128 1105l-39 -75h380l-35 75h-306zM417 266q-51 0 -87 -34t-36 -82t36 -82t87 -34t87.5 34t36.5 82t-36.5 82t-87.5 34zM417 211q29 0 49 -18t20 -43t-20 -43t-49 -18q-28 0 -48 18t-20 43t20 43t48 18zM1290 1051v-111q0 -14 8.5 -22.5t21.5 -8.5
t21.5 8.5t8.5 22.5v111h-60zM1689 1465q-82 0 -150 -40.5t-108.5 -108.5t-40.5 -150q0 -83 40.5 -151t108.5 -108t150 -40q83 0 151 40t108 108t40 151q0 82 -40 150t-108 108.5t-151 40.5zM1689 1405q67 0 121 -32.5t86 -86.5t32 -120q0 -67 -32 -121t-86 -86t-121 -32
q-66 0 -120.5 32t-86.5 86t-32 121q0 66 32 120t86.5 86.5t120.5 32.5zM1689 1267q-41 0 -71 -30t-30 -71q0 -42 30 -71.5t71 -29.5q42 0 71.5 29.5t29.5 71.5q0 41 -29.5 71t-71.5 30zM1400 1046v-265h60v265h-60zM1184 881q-179 0 -316 -126q-18 4 -39 7t-42 3
q-96 0 -162.5 -65t-66.5 -159q0 -46 19 -89t53 -77q-5 -20 -8.5 -41.5t-3.5 -40.5q0 -76 37.5 -138t100 -99.5t138.5 -37.5q22 0 43.5 3t38.5 9q35 -83 108 -132.5t160 -49.5q77 0 143 39t103 106q30 -13 63.5 -19.5t70.5 -6.5q95 0 172.5 46t123.5 123.5t46 172.5
q0 35 -5 56q85 66 85 176q0 94 -65 159t-159 65q-7 0 -14.5 -0.5t-14.5 -1.5q-83 96 -209 96q-40 0 -80 -12.5t-75 -36.5q-113 71 -245 71zM1184 801q105 0 191.5 -50.5t139.5 -137.5t56 -194h80q-4 103 -42.5 188.5t-109.5 150.5q22 10 42.5 15.5t42.5 5.5q56 0 102 -30
t77 -76q32 12 59 12q61 0 102.5 -41.5t41.5 -102.5q0 -45 -23 -81t-70 -57q8 -30 10.5 -51t2.5 -43q0 -73 -35.5 -132t-94.5 -94.5t-132 -35.5q-45 0 -87 11t-80 33q-25 -71 -84.5 -117t-128.5 -46q-78 0 -142.5 54t-85.5 137q-25 -9 -64.5 -15t-57.5 -6q-81 0 -138.5 57.5
t-57.5 137.5q0 28 7 55.5t23 54.5q-41 22 -65.5 58t-24.5 80q0 65 46 104.5t122 39.5h3q-16 -25 -28.5 -47t-25.5 -49l76 -29q45 110 141 175.5t212 65.5zM2260 966q-34 0 -62 -20q-50 0 -79 -28.5t-29 -71.5q0 -32 18 -57t48 -37q25 -66 94 -66q41 0 70.5 29.5t29.5 70.5
q0 11 -5 28q15 24 15 52q0 42 -29 71t-71 29zM2260 911q19 0 32 -13t13 -32t-21 -43q11 -25 11 -37q0 -19 -12.5 -32t-32.5 -13q-21 0 -33.5 15.5t-14.5 41.5q-26 2 -41.5 15t-15.5 33q0 19 13 32t32 13q14 0 26 -4q18 24 44 24zM2224 476q-51 0 -87 -34t-36 -82t36 -82
t87 -34t87.5 34t36.5 82t-36.5 82t-87.5 34zM2224 421q29 0 49 -18t20 -43t-20 -43t-49 -18q-28 0 -48 18t-20 43t20 43t48 18zM2120 153q-60 0 -85 -54q-31 -8 -50.5 -33t-19.5 -58q0 -40 27.5 -67.5t67.5 -27.5q59 0 86 54q31 8 50 33t19 58q0 40 -27.5 67.5t-67.5 27.5z
M2120 103q19 0 32 -13t13 -32q0 -23 -17.5 -36.5t-40.5 -8.5q1 -21 -13 -35.5t-34 -14.5q-19 0 -32 13t-13 32q0 22 17 36.5t39 8.5q2 22 16 36t33 14zM240 1032h397l-24 80h-287q26 171 108 315t209 249.5t289 163.5t348 58t348.5 -58t290.5 -163.5t211 -249.5t109 -315
h-292l-23 -80h402q-13 202 -97.5 374.5t-225.5 300.5t-325.5 199.5t-397.5 71.5t-396.5 -71.5t-323 -199.5t-223.5 -300.5t-97 -374.5z" />
</svg>