<?xml version="1.0" standalone="no"?>
<!DOCTYPE svg PUBLIC "-//W3C//DTD SVG 1.1//EN" "http://www.w3.org/Graphics/SVG/1.1/DTD/svg11.dtd">
<svg xmlns="http://www.w3.org/2000/svg" xmlns:xlink="http://www.w3.org/1999/xlink" version="1.1"
   viewBox="94 -151 2414 2169">
   <path fill="currentColor"
      d="M1300 1978q-110 0 -217 -23l147 -59q17 1 35 1.5t35 0.5q199 0 373 -74.5t306 -206.5t206.5 -306t74.5 -373t-74.5 -373t-206.5 -306t-306 -206.5t-373 -74.5t-373 74.5t-306 206.5t-206.5 306t-74.5 373q0 208 82.5 390t223.5 314l53 145q-133 -94 -231.5 -225.5
t-153 -290t-54.5 -333.5q0 -216 80.5 -404.5t223.5 -331.5t331.5 -223.5t404.5 -80.5q215 0 403.5 80.5t331.5 223.5t224 331.5t81 404.5t-81 404.5t-224 331.5t-331.5 223.5t-403.5 80.5zM1072 1970q-133 0 -245.5 -60t-180 -163t-67.5 -231q0 -103 43.5 -186t122.5 -181
q50 -61 83 -106.5t59 -95.5q44 -86 84 -121.5t91 -35.5q56 0 85.5 44t29.5 107q0 21 -5 43.5t-13 45.5q36 -11 75 -27.5t78 -36.5l61 -32q62 -33 100.5 -51t63 -25.5t43.5 -7.5q48 0 80.5 26t32.5 67q0 16 -7 39q26 -19 53.5 -29.5t51.5 -10.5q47 0 78 29t31 76q0 28 -15 61
t-42 68q34 7 54.5 34t20.5 62t-26.5 76.5t-73.5 82.5q20 7 32.5 29t12.5 48q0 51 -55.5 112.5t-146 123t-197 113t-209.5 82.5t-183 31zM1072 1900q72 0 166 -29t191 -75t179.5 -99.5t133.5 -103.5t51 -85q0 -13 -8 -20t-20 -7q-21 0 -54.5 21t-82 50t-114.5 54l-25 -60
q45 -18 106 -51t119 -73t96 -79.5t38 -70.5q0 -34 -33 -34q-12 0 -27.5 6.5t-38.5 23.5q-77 59 -154.5 104t-179.5 93l-28 -59q64 -29 140.5 -73t145.5 -94t113 -99.5t44 -90.5q0 -38 -43 -38q-22 0 -55.5 17t-95.5 70q-29 25 -72 55.5t-92.5 61.5t-98.5 58.5t-90 45.5
l-28 -59q48 -23 112 -59t124.5 -78t100 -84t39.5 -77q0 -19 -13.5 -30.5t-36.5 -11.5q-25 0 -59.5 15t-94.5 49q-61 34 -112 58.5t-105.5 43.5t-128.5 39l-20 -37l23 -49q12 -26 17.5 -52t5.5 -48q0 -34 -12 -56.5t-34 -22.5q-27 0 -52 25t-60 94q-34 67 -72.5 118
t-79.5 101q-75 90 -111.5 160t-36.5 158q0 109 59.5 196t156.5 137.5t207 50.5zM787 699l-61 -53q44 -65 105 -100.5t127 -35.5t127 35.5t105 100.5l-61 53q-71 -109 -171 -109t-171 109zM1471 699l-61 -53q44 -65 105 -100.5t127 -35.5t127 35.5t105 100.5l-61 53
q-71 -109 -171 -109t-171 109z" />
</svg>