<?xml version="1.0" standalone="no"?>
<!DOCTYPE svg PUBLIC "-//W3C//DTD SVG 1.1//EN" "http://www.w3.org/Graphics/SVG/1.1/DTD/svg11.dtd">
<svg xmlns="http://www.w3.org/2000/svg" xmlns:xlink="http://www.w3.org/1999/xlink" version="1.1"
   viewBox="94 -151 2414 2169">
   <path fill="currentColor"
      d="M1307 1978q-347 0 -510.5 -199.5t-163.5 -623.5l-72 -716q-5 -56 21 -102t75 -73t111 -27q79 0 130 44t58 113l59 584l-76 46l-62 -612q-5 -50 -32.5 -72.5t-74.5 -22.5q-60 0 -96.5 32.5t-32.5 82.5l74 767q0 361 143 530t449 169q293 0 455 -142t162 -385
q0 -161 -86 -243.5t-255 -82.5q-183 0 -292 15.5t-157.5 49.5t-48.5 92q0 60 53 87t172 29q109 1 175.5 15.5t114.5 52.5t103 111l-65 47q-45 -62 -82.5 -92.5t-93 -41t-154.5 -12.5q-154 -3 -228.5 -51t-74.5 -145q0 -65 31.5 -110t100.5 -73t180 -41t271 -13q131 0 224 47
t142.5 137.5t49.5 222.5q0 185 -83.5 321t-239.5 210.5t-374 74.5zM1444 1665l-74 -10q11 -89 58 -162t125 -111l39 63q-64 30 -100.5 90.5t-47.5 129.5zM1047 1229q-51 -17 -74 -53t-30 -109l-22 -234q-11 -117 42.5 -183t157.5 -66q92 0 146 53t62 153l19 230h-80
l-18 -216q-6 -72 -37.5 -106t-91.5 -34q-67 0 -97 42.5t-22 127.5l21 215q5 44 14.5 68t29.5 36zM1556 1012l14 -156q8 -87 -14.5 -139.5t-101.5 -52.5q-49 0 -84.5 35t-41.5 100l-72 -45q20 -83 66.5 -126.5t130.5 -43.5q110 0 159.5 73.5t37.5 207.5l-13 147h-81z
M1925 1156l-74 -58l109 -986q6 -56 -22 -95t-86 -39q-53 0 -86.5 29.5t-40.5 93.5l-73 682l-71 -91l65 -606q9 -85 64.5 -136.5t143.5 -51.5q62 0 105.5 30.5t65 81.5t14.5 112z" />
</svg>