<?xml version="1.0" standalone="no"?>
<!DOCTYPE svg PUBLIC "-//W3C//DTD SVG 1.1//EN" "http://www.w3.org/Graphics/SVG/1.1/DTD/svg11.dtd">
<svg xmlns="http://www.w3.org/2000/svg" xmlns:xlink="http://www.w3.org/1999/xlink" version="1.1"
   viewBox="94 -151 2414 2169">
   <path fill="currentColor"
      d="M1287 1978q-57 -72 -95.5 -103t-68.5 -49t-63 -49v74q-30 0 -96 -58.5t-121 -179.5l-16 84q-78 -41 -140.5 -121.5t-94.5 -186.5q-20 25 -37 37t-40 12q4 -19 4 -39q0 -47 -21 -100t-21 -137q0 -53 11 -116l-92 83q-4 -18 -5.5 -38t-1.5 -43q0 -61 11 -130t33.5 -132.5
t58.5 -107.5l-116 18q0 -161 50.5 -241.5t135.5 -109.5q-31 -30 -55 -72t-24 -80q0 -20 10 -40q44 17 109.5 23.5t120.5 6.5q-37 -38 -57.5 -69.5t-20.5 -62.5q0 -22 8 -46q65 28 139 41.5t131 13.5q-31 -29 -44.5 -57t-13.5 -56q0 -27 7 -49q51 42 106.5 50t110.5 10.5
t105.5 23t92.5 87.5q29 -58 75.5 -103.5t127.5 -57.5q-11 21 -29.5 62.5t-18.5 73.5q63 -58 129.5 -89.5t137.5 -31.5q48 0 100 15q-37 54 -62.5 105.5t-37.5 103.5l281 -122q-13 51 -34 92t-50 81q44 -14 87.5 -34.5t83.5 -45.5q4 18 5 34t1 30q0 45 -20.5 76.5t-46.5 57.5
q61 16 107.5 67.5t73 122t26.5 144.5v13t-1 14q-30 -10 -59 -15t-67 -5q42 58 69 136.5t59 143.5q-26 0 -49 -12.5t-50 -37.5q12 71 18.5 125t6.5 101q0 55 -9 102t-24 94l-60 -73q-12 76 -34.5 155t-49 144t-52.5 101l-55 -107q0 26 -35.5 75t-97.5 111.5t-144 130.5
q-13 -10 -13 -33q0 -32 27 -71q-139 73 -207 127t-109 109zM1105 1278v-60q70 0 101.5 -16.5t60.5 -54.5h40q29 38 60.5 54.5t101.5 16.5v60q-64 0 -106.5 -16t-75.5 -52q-33 36 -75 52t-107 16zM701 640q-23 -23 -43.5 -53.5t-20.5 -58.5q0 -29 19.5 -44.5t41.5 -15.5
q25 0 53.5 14.5t48.5 30.5q-31 26 -56 58t-43 69zM1287 1173q-31 0 -66.5 -32t-60.5 -78.5t-25 -87.5q0 -27 26.5 -34.5t125.5 -7.5t125.5 7.5t26.5 34.5q0 41 -25 87.5t-60 78.5t-67 32zM1287 1622q74 0 135.5 -38.5t98 -103t36.5 -142.5q168 -100 266 -237.5t98 -274.5
q0 -56 -14 -107q58 -50 92.5 -110t34.5 -109q0 -56 -42 -95t-104 -39q-45 0 -100.5 26.5t-96.5 67.5q-37 -17 -77 -26t-83 -9q-67 0 -139.5 27t-104.5 68q-32 -41 -104 -68t-140 -27q-43 0 -83 9t-77 26q-41 -41 -96.5 -67.5t-100.5 -26.5q-62 0 -104 39t-42 95
q0 49 34.5 109t92.5 110q-14 51 -14 107q0 137 98 274.5t266 237.5q0 78 36.5 142.5t98 103t135.5 38.5zM1027 793q-32 0 -55.5 -23.5t-23.5 -55.5t23.5 -55.5t55.5 -23.5t55.5 23.5t23.5 55.5t-23.5 55.5t-55.5 23.5zM1547 793q-32 0 -55.5 -23.5t-23.5 -55.5t23.5 -55.5
t55.5 -23.5t55.5 23.5t23.5 55.5t-23.5 55.5t-55.5 23.5zM1873 640q-18 -37 -43 -69t-56 -58q20 -16 48.5 -30.5t53.5 -14.5q22 0 41.5 15.5t19.5 44.5q0 28 -20.5 58.5t-43.5 53.5z" />
</svg>