<?xml version="1.0" standalone="no"?>
<!DOCTYPE svg PUBLIC "-//W3C//DTD SVG 1.1//EN" "http://www.w3.org/Graphics/SVG/1.1/DTD/svg11.dtd">
<svg xmlns="http://www.w3.org/2000/svg" xmlns:xlink="http://www.w3.org/1999/xlink" version="1.1"
   viewBox="94 -151 2414 2169">
   <path fill="currentColor"
      d="M1300 1978q157 0 321.5 -42t339.5 -153l-147 -417q-16 -48 -27.5 -87t-11.5 -74q0 -41 12.5 -75.5t24.5 -70t12 -76.5v-265q25 36 58 85t65.5 100t56.5 94q-22 85 -51 181t-66 194q38 19 100.5 40.5t131.5 41t126 31.5q17 -55 40 -130.5t47 -157.5q22 -76 40 -152.5
t18 -152.5q0 -31 -21.5 -92t-55.5 -136t-74 -149.5t-78 -132.5q-64 -100 -151.5 -187.5t-167.5 -124.5q-41 -20 -87 -32t-90 -19q-27 -62 -77.5 -91.5t-99.5 -29.5q-43 0 -93 15.5t-95 34.5q-45 -19 -95 -34.5t-93 -15.5q-49 0 -99.5 29.5t-77.5 91.5q-44 7 -90 19t-87 32
q-79 37 -166.5 124.5t-152.5 187.5q-37 58 -77.5 132.5t-74.5 149.5t-55.5 136t-21.5 92q0 76 18 152.5t40 152.5q24 82 47 157.5t40 130.5q57 -12 126 -31.5t132 -41t100 -40.5q-37 -98 -66 -194t-51 -181q24 -43 56.5 -94t65.5 -100t58 -85v265q0 41 12.5 76.5t24.5 70
t12 75.5q0 35 -11 74t-28 87l-147 417q175 111 339.5 153t321.5 42zM333 1294q84 -17 151.5 -35.5t137.5 -43.5l-25 -77q-68 27 -134.5 45t-149.5 33zM545 1019l28 -75q-31 -9 -64 -25t-52 -29l-42 69q23 14 60 32t70 28zM1151 1727q14 -80 39.5 -178t61.5 -164q11 6 25 9
t23 3t23.5 -3t24.5 -9q36 66 61.5 164t39.5 178q43 0 96 -4t95 -11q-11 -53 -35 -127t-55.5 -149t-63.5 -130q41 0 103 -9t120 -23t86 -29q13 -7 17 -24.5t4 -63.5q0 -33 -14 -33q-4 0 -13 1t-23 5q-89 25 -179.5 37t-171.5 17q-31 -36 -60 -51.5t-55 -15.5t-55 15.5
t-60 51.5q-81 -5 -171.5 -17t-179.5 -37q-13 -4 -22 -5t-14 -1q-14 1 -14 33q0 46 4 63.5t17 24.5q28 15 86 29t120 23t103 9q-32 55 -63.5 130t-55.5 149t-35 127q42 7 95 11t96 4zM791 709l65 -45q-41 -35 -76.5 -73.5t-65.5 -83.5l-69 42q32 50 66.5 86t79.5 74z
M1300 1898q-97 0 -196.5 -17t-192.5 -50.5t-174 -84.5l125 -357q17 -47 30 -94t13 -90q0 -45 -12 -82t-24.5 -71t-12.5 -69v-319l-115 -28q-21 25 -57 76t-73.5 108.5t-65.5 104t-34 63.5q20 83 44.5 168t56.5 173q-46 18 -95 33t-107 29q-15 -46 -30 -95t-35 -119
q-22 -75 -38 -144.5t-16 -139.5q0 -25 20.5 -80.5t53.5 -125t70.5 -139t71.5 -122.5q61 -96 134.5 -171t146.5 -111q43 -21 84 -30t120 -19q19 -68 50 -89.5t70 -21.5l188 46l188 -46q39 0 70 21.5t50 89.5q79 10 120 19t84 30q74 36 147 111t134 171q34 53 71.5 122.5
t70.5 139t53.5 125t20.5 80.5q0 70 -16 139.5t-38 144.5q-20 70 -35 119t-30 95q-58 -14 -107 -29t-95 -33q32 -88 57 -173t44 -168q-6 -17 -34 -63.5t-65.5 -104t-73.5 -108.5t-57 -76l-115 28v319q0 35 -12 69t-24.5 71t-12.5 82q0 43 13.5 90t29.5 94l125 357
q-80 51 -173.5 84.5t-192.5 50.5t-197 17zM781 419l53 -60q-34 -30 -65.5 -91t-43.5 -128l-68 31q3 69 43.5 141t80.5 107zM880 1138l222 -309q89 -123 164 -238.5t131 -223.5t89 -207.5t39 -191.5l-75 -18q-5 82 -34.5 173t-82 193t-127.5 218.5t-171 250.5l-219 306z
M1047 1205l210 -294q89 -124 164 -236.5t131.5 -216t90.5 -201t41 -192.5l-83 -16q-8 91 -37.5 182t-82 189.5t-127 211.5t-172.5 248l-220 304zM1173 634l54 -60q-85 -102 -153.5 -239t-80.5 -289l-77 19q12 159 86.5 307.5t170.5 261.5zM2267 1294l20 -78
q-83 -15 -149.5 -33t-134.5 -45l-25 77q70 25 137.5 43.5t151.5 35.5zM1294 462l37 -46q-73 -92 -133 -213.5t-71 -250.5l-61 4q8 92 41 183.5t82.5 174t104.5 148.5zM1307 429l113 -200l83 -270h-408l75 267zM2055 1019q33 -10 70.5 -28t59.5 -32l-42 -69q-19 13 -52 29
t-64 25zM1809 709q45 -38 80 -74t66 -86l-69 -42q-30 45 -65.5 83.5t-76.5 73.5zM1819 419q41 -35 81 -107t43 -141l-68 -31q-12 67 -43.5 128t-65.5 91z" />
</svg>