<?xml version="1.0" standalone="no"?>
<!DOCTYPE svg PUBLIC "-//W3C//DTD SVG 1.1//EN" "http://www.w3.org/Graphics/SVG/1.1/DTD/svg11.dtd">
<svg xmlns="http://www.w3.org/2000/svg" xmlns:xlink="http://www.w3.org/1999/xlink" version="1.1"
   viewBox="94 -151 2414 2169">
   <path fill="currentColor"
      d="M1397 1834q-133 0 -196 -85.5t-63 -258.5q0 -89 14 -197.5t49 -262.5q-62 85 -141.5 162t-165.5 135.5t-166.5 92.5t-143.5 34q-77 0 -143.5 -73t-107 -192t-40.5 -257q0 -129 44 -245t125 -201q55 -57 148 -105.5t198 -96t194 -101.5q72 -44 139.5 -93t133 -93
t132 -71.5t135.5 -27.5q75 0 141 43.5t122.5 129.5t101.5 214q187 94 288 250t101 350q0 137 -59.5 284t-168.5 277l-60 -53q98 -118 153 -252t55 -256q0 -178 -96.5 -318t-278.5 -227q-57 -176 -134 -269t-165 -93q-57 0 -122 30t-131.5 74.5t-129 90.5t-115.5 78
q-43 26 -117 61.5t-156 75.5t-150.5 79t-100.5 73q-70 75 -108.5 177t-38.5 215q0 117 29.5 217.5t77.5 162.5t104 62t131.5 -34.5t157 -93.5t157 -135t130.5 -158q42 -63 73 -142.5t56 -160.5t49.5 -149t53.5 -110t68 -42q42 0 42 66q0 61 -28.5 144t-68.5 172t-75 169
t-48 134q-21 91 -35.5 171.5t-21.5 151t-7 133.5q0 143 41 203.5t138 60.5q66 0 142 -24t155 -70l45 67q-91 52 -178.5 79.5t-163.5 27.5zM1847 1978l-336 -532l71 -37l277 436q51 -53 128.5 -114t186.5 -127l-355 -340l72 -42l416 397q-118 66 -202.5 125.5t-146 116.5
t-111.5 117zM1488 1542q-54 0 -54 -37q0 -67 140.5 -175t444.5 -275l39 30q-29 49 -67 100t-83 99l-37 -29q-25 13 -66.5 37.5t-86.5 52.5t-82.5 53t-54.5 40l33 64q-48 23 -76 31.5t-50 8.5z" />
</svg>