<?xml version="1.0" standalone="no"?>
<!DOCTYPE svg PUBLIC "-//W3C//DTD SVG 1.1//EN" "http://www.w3.org/Graphics/SVG/1.1/DTD/svg11.dtd">
<svg xmlns="http://www.w3.org/2000/svg" xmlns:xlink="http://www.w3.org/1999/xlink" version="1.1"
   viewBox="94 -151 2414 2169">
   <path fill="currentColor"
      d="M1300 1928q-205 0 -384.5 -77t-315.5 -213t-213 -315.5t-77 -384.5t77 -384.5t213 -315.5t315.5 -213t384.5 -77t384.5 77t315.5 213t213 315.5t77 384.5t-77 384.5t-213 315.5t-315.5 213t-384.5 77zM1966 1909q-77 0 -143 -66l-65 -66l56 -56l64 65q45 47 91 47
q31 0 69 -23t73.5 -58.5t58.5 -73.5t23 -69q0 -24 -11.5 -46.5t-34.5 -45.5l-64 -65l56 -56l65 65q66 66 66 145q0 51 -29 104t-75 98t-99 73t-101 28zM1300 1770q173 0 323.5 -64.5t265.5 -179t179.5 -265.5t64.5 -323q0 -173 -64.5 -323.5t-179.5 -265t-265.5 -179
t-323.5 -64.5q-172 0 -323 64.5t-266 179t-179.5 265t-64.5 323.5q0 172 64.5 323t179.5 265.5t266 179t323 64.5zM461 480l-65 -65q-66 -66 -66 -145q0 -51 29 -104t75 -98t99 -73t101 -28q77 0 143 66l65 66l-56 56l-64 -65q-45 -47 -91 -47q-31 0 -69 23t-73.5 58.5
t-58.5 73.5t-23 69q0 24 12 46.5t34 45.5l64 65zM995 1550q-15 0 -30 -9q-7 -26 -19 -53.5t-26 -57.5q0 -14 13 -21.5t28 -7.5q30 0 54 28t24 63q0 20 -10 39t-34 19zM801 1223q-53 0 -75 -12t-22 -49q0 -32 16 -54.5t51 -22.5q31 0 65 13t58 33t24 42t-30 36t-87 14z
M1065 1331q-22 0 -31 -18.5t-9 -38.5q0 -57 48 -57q21 0 42 13t21 36q0 25 -24 45t-47 20zM680 962q-41 0 -41 -127q0 -94 23 -149.5t60 -55.5q31 0 33 29q-28 61 -41 106t-13 116q0 16 0.5 31.5t1.5 31.5q-7 18 -23 18zM1354 1505q-32 0 -71 -18t-39 -68q0 -27 18 -52
q16 -34 32.5 -53t62.5 -19q49 0 76 22.5t27 72.5q0 54 -29 84.5t-77 30.5zM895 999q-28 0 -37.5 -17.5t-9.5 -40.5q0 -31 14.5 -44t33.5 -13q29 0 45.5 20.5t16.5 42.5q0 25 -20 38.5t-43 13.5zM1601 1560q-22 0 -33 -16t-11 -35q0 -23 16 -35t35 -12q23 0 37 13.5t14 33.5
q0 22 -19 36.5t-39 14.5zM1301 1138q-109 0 -197 -53q0 -63 25 -97.5t86 -34.5q43 0 83 16.5t66 44.5t26 62q0 62 -89 62zM1084 889q-24 0 -63.5 -28.5t-76.5 -70t-57 -79.5q4 -26 24 -43t47 -17q18 28 47.5 70t60.5 82.5t51 62.5q-3 11 -13 17t-20 6zM1764 1369
q-42 0 -90.5 -14.5t-83 -35.5t-34.5 -39q0 -24 32 -24q107 40 220 60q6 10 6 21q0 18 -15 25t-35 7zM903 535q-25 -13 -30 -36q23 -59 57 -101.5t67 -42.5q15 0 33 10.5t28 30.5q-15 54 -56 90t-99 49zM1577 1045q-87 -126 -256 -256q0 -23 18 -36.5t39 -13.5q31 0 68 26.5
t70 67.5t54.5 85.5t21.5 80.5q0 20 -2 33t-13 13zM1759 1200q-43 0 -71 -35.5t-28 -90.5q0 -34 15 -47t37 -13q34 0 59.5 22t40 52t14.5 55q0 34 -22 45.5t-45 11.5zM1164 736q-34 0 -34 -31q0 -71 20 -131.5t53 -97.5t71 -37q28 0 59 17t52.5 41t21.5 46q0 13 -31 44
t-74.5 65.5t-82.5 59t-55 24.5zM1211 362q-20 0 -34 -14t-14 -33q0 -29 20.5 -51t45.5 -22q22 0 38 16t16 38q0 24 -22.5 45t-49.5 21zM1948 1083q-17 0 -31.5 -11t-14.5 -41q0 -22 10 -41t29 -19q17 0 37.5 17t20.5 44q0 18 -12.5 34.5t-38.5 16.5zM1824 924
q-25 0 -36.5 -13t-11.5 -50q0 -29 8 -45t38 -16q21 0 32.5 11.5t11.5 44.5q0 38 -9.5 53t-32.5 15zM1519 582q-12 0 -15 -10q0 -36 -4 -69.5t-12 -58.5q-17 -51 -22.5 -74t-5.5 -34q0 -25 18 -25q19 0 36 26t28.5 65.5t11.5 81.5q0 35 -7.5 66.5t-27.5 31.5zM1699 708
q-55 0 -58 -51q29 -26 61 -50t65 -46q72 0 72 38q0 24 -22.5 49t-54.5 42.5t-63 17.5z" />
</svg>