<?xml version="1.0" standalone="no"?>
<!DOCTYPE svg PUBLIC "-//W3C//DTD SVG 1.1//EN" "http://www.w3.org/Graphics/SVG/1.1/DTD/svg11.dtd">
<svg xmlns="http://www.w3.org/2000/svg" xmlns:xlink="http://www.w3.org/1999/xlink" version="1.1"
   viewBox="94 -151 2414 2169">
   <path fill="currentColor"
      d="M2117 1978q-117 0 -269.5 -23t-323 -64.5t-342 -96t-328 -118t-280.5 -130.5h-264v-823l247 -2q30 -39 80 -79.5t106 -81.5q77 -56 149 -119t119 -138.5t47 -168.5q0 -41 -0.5 -76.5t-0.5 -71.5q0 -62 35.5 -100t97.5 -38q69 0 121 43t81 118.5t29 175.5q0 144 -78 310
h186q80 0 168.5 31.5t165 82.5t124.5 110t48 115q0 51 -32 98q40 30 61.5 73t21.5 90q0 89 -68 151q11 24 17 53t6 57q0 83 -55.5 140t-173.5 57l258 98q118 45 169 87t51 103t-48 99t-125 38zM2117 1898q44 0 68.5 -16t24.5 -41q0 -27 -36.5 -54t-131.5 -62l-489 -183v-58
q40 2 75.5 3.5t66.5 1.5q145 0 205.5 -30t60.5 -103q0 -44 -17 -80q-90 -31 -178 -43t-207 -12v-80q124 0 216 12.5t180 40.5q23 -21 37 -47.5t14 -51.5q0 -56 -63.5 -105t-166 -80.5t-219.5 -33.5v-80q86 1 186 26t190 68q22 -25 22 -56q0 -41 -41.5 -86t-107 -84t-139 -64
t-138.5 -25h-319q69 -119 100 -210.5t31 -179.5q0 -116 -42.5 -186.5t-108.5 -70.5q-53 0 -53 58q0 34 0.5 76t0.5 72q0 113 -55 202.5t-135 160t-157 127.5q-72 53 -123 96t-65 81l-213 2v663h204q119 66 273 129.5t324 118t339 96t320.5 65t266.5 23.5z" />
</svg>