<?xml version="1.0" standalone="no"?>
<!DOCTYPE svg PUBLIC "-//W3C//DTD SVG 1.1//EN" "http://www.w3.org/Graphics/SVG/1.1/DTD/svg11.dtd">
<svg xmlns="http://www.w3.org/2000/svg" xmlns:xlink="http://www.w3.org/1999/xlink" version="1.1"
   viewBox="94 -151 2414 2169">
   <path fill="currentColor"
      d="M1342 1928q-246 0 -447.5 -74t-346.5 -210t-223 -325t-78 -418q0 -87 3.5 -129.5t16.5 -62.5q16 25 57.5 78t118 116.5t197 122t293.5 96t409 37.5t409 -37.5t293.5 -96t197 -122t118 -116.5t57.5 -78q14 20 17 62.5t3 129.5q0 229 -78 418t-223 325t-346.5 210
t-447.5 74zM557 897q-17 -73 -49.5 -130.5t-71 -91.5t-74.5 -34q-18 0 -30 21.5t-12 65.5q0 41 11 85l-78 18q-13 -55 -13 -103q0 -74 32.5 -120.5t89.5 -46.5q58 0 112.5 42t97 113.5t63.5 162.5zM841 1033q-15 0 -25.5 -17.5t-10.5 -41.5t10.5 -41.5t25.5 -17.5
q14 0 24.5 17.5t10.5 41.5t-10.5 41.5t-24.5 17.5zM1342 1850q227 0 414 -67t322 -193t208 -303.5t73 -398.5v-9v-8l14 25q-87 74 -186 136.5t-220.5 108.5t-274.5 71t-350 25q-196 0 -349.5 -25t-275 -71t-220.5 -108.5t-186 -136.5l14 -25v16.5v11.5q0 219 73.5 395
t208.5 300t322 190t413 66zM998 978q-14 6 -30.5 -5.5t-26.5 -32.5q-10 -23 -8 -43.5t15 -26.5q14 -6 30 5.5t26 32.5q11 23 9.5 43.5t-15.5 26.5zM633 890q8 -23 15 -49.5t14 -62.5q24 -114 61 -171t108 -97l35 65q-56 32 -79.5 74.5t-46.5 137.5l-13 52zM673 736
q0 -120 -84 -210l54 -54q49 55 73 121.5t24 140.5zM594 1080q-31 -37 -53.5 -81t-34.5 -95l694 -368q61 85 86.5 167.5t25.5 140.5l-83 -32q0 -79 -56 -171l-570 302q34 72 96 137h-105zM293 901q-74 -84 -113.5 -168t-39.5 -157q0 -97 65.5 -160.5t156.5 -63.5q32 0 69 9
q26 -86 103 -132t174 -46q81 0 137 27q27 -28 67.5 -41.5t79.5 -13.5q98 0 166 75.5t112 223t70 365.5h-60q-42 -206 -87 -334.5t-98.5 -189t-122.5 -60.5q-40 0 -74 17.5t-50 44.5q-27 -16 -60.5 -25t-79.5 -9q-88 0 -153 53t-81 127q-25 -7 -47 -9t-48 -2q-67 0 -113 41
t-46 103q0 122 133 272zM1127 878q-10 12 -30 8.5t-37 -18.5q-19 -17 -26 -36.5t2 -29.5q10 -11 30 -8t37 18q20 17 26.5 36t-2.5 30zM1726 1148q-37 -1 -93 -16t-115.5 -37.5t-110.5 -45.5t-80 -40l42 -72q29 18 76.5 40.5t102.5 44.5t104.5 37.5t81.5 19.5zM1549 1085
q-18 -42 -18 -97q0 -56 17 -111l77 25q-6 23 -10 44.5t-4 40.5q0 18 3.5 34.5t10.5 30.5zM486 277q0 -97 42 -169.5t111.5 -113t149.5 -40.5q44 0 90.5 14t89.5 44l-45 66q-63 -44 -135 -44q-63 0 -113.5 31.5t-80 86.5t-29.5 125h-80zM1054 1177l-74 -31l45 -108
q52 -125 119.5 -187.5t155.5 -74.5q21 -85 75 -132t124 -47q53 0 105 26q20 -20 44.5 -28.5t49.5 -8.5q70 0 119 47q19 -10 39.5 -16t41.5 -6q58 0 117 28.5t102 77.5q32 36 92 52t170 16l-55 80q-56 0 -106 -10t-90.5 -31t-70.5 -54q-32 -37 -75 -58t-84 -21q-19 0 -44 5.5
t-48 21.5q-25 -28 -51.5 -40t-56.5 -12q-25 0 -43 9t-38 25q-16 -13 -47 -18t-55 -5q-59 0 -100.5 42.5t-46.5 126.5q-60 0 -107.5 19.5t-86.5 68t-75 135.5zM1732 1182l-79 -14q19 -103 60.5 -184.5t97.5 -128.5t117 -47q65 0 100 52.5t35 135.5q0 22 -3 47t-8 53l-78 -17
q9 -51 9 -83q0 -53 -15 -80.5t-40 -27.5q-38 0 -77.5 38.5t-71.5 105t-47 150.5zM1456 676l-78 -18q16 -60 16 -120q0 -126 -74 -244l-91 60l-90 -36l200 -137q135 164 135 359q0 67 -18 136zM825 220q35 -125 108.5 -198.5t200.5 -73.5q81 0 153 39q56 -25 113 -25
q89 0 154 57.5t84 139.5l-40 108q-24 -2 -36.5 -30t-17.5 -64q-8 -56 -48 -93.5t-96 -37.5q-29 0 -55.5 8.5t-61.5 28.5q-37 -26 -72.5 -38.5t-76.5 -12.5q-88 0 -144 50.5t-88 163.5zM1809 588q-10 -11 -3.5 -30t25.5 -35t40 -19.5t29 7.5q9 12 3 31t-25 35t-39 18.5
t-30 -7.5zM1995 649l-65 -30q11 -22 28 -33.5t31 -4.5q12 6 14.5 26t-8.5 42zM2094 743q-14 0 -24.5 -17.5t-10.5 -41.5t10.5 -41.5t24.5 -17.5q15 0 25.5 17.5t10.5 41.5t-10.5 41.5t-25.5 17.5zM2435 848l-77 -20q11 -46 16.5 -79t5.5 -60q0 -60 -27 -99t-87 -64
q-55 -23 -87.5 -52t-46.5 -90q-15 -64 -69 -92t-126 -29q0 -36 -26.5 -64.5t-69 -45t-91.5 -16.5q-60 0 -85.5 30t-25.5 100q0 26 -20.5 35.5t-59.5 9.5q-40 0 -69.5 7t-69.5 24l-29 -78q53 -21 92 -27t77 -6q8 -85 56.5 -130t133.5 -45q81 0 144.5 34t96.5 96
q83 10 143.5 63t77.5 121q8 33 26 48.5t59 32.5q163 68 163 237q0 34 -6.5 73t-18.5 86zM2214 797q42 -20 65 -51t50 -89l-566 -302q-29 57 -43 123t-14 151h-80q0 -113 25 -205.5t84 -174.5l691 369q-24 101 -88 175zM2406 564l-74 -30q23 -56 23 -101q0 -62 -30 -111.5
t-81.5 -79t-115.5 -29.5q-62 0 -109 40l-51 -62q70 -58 160 -58q86 0 155.5 40t110.5 108t41 152q0 31 -7.5 64.5t-21.5 66.5z" />
</svg>