<?xml version="1.0" standalone="no"?>
<!DOCTYPE svg PUBLIC "-//W3C//DTD SVG 1.1//EN" "http://www.w3.org/Graphics/SVG/1.1/DTD/svg11.dtd">
<svg xmlns="http://www.w3.org/2000/svg" xmlns:xlink="http://www.w3.org/1999/xlink" version="1.1"
   viewBox="94 -151 2414 2169">
   <path fill="currentColor"
      d="M1855 1978q13 -53 41 -111.5t62 -105.5q-24 3 -47.5 5t-49.5 2q-58 0 -124 -19q35 -140 153.5 -241t277.5 -146q-2 -68 -27 -125.5t-69 -91.5q-148 61 -309.5 97t-322.5 36q-224 0 -419 -58.5t-339 -165.5t-217 -252q-140 -41 -203 -80t-63 -76q0 -31 27 -54
q-67 -44 -111.5 -84.5t-44.5 -77.5q0 -28 21 -47t53 -23q-23 -38 -34 -73.5t-11 -72.5q0 -35 20.5 -58.5t50.5 -23.5q26 0 53 21.5t79 74.5q98 98 164 152.5t121 74.5q83 -15 161 -22t151 -7q417 0 609 254q225 -136 422 -136q146 0 251.5 63t151.5 176q96 61 146.5 162
t50.5 232q0 133 -61 267q11 44 11 91q0 124 -77.5 224.5t-218 159.5t-329.5 59zM467 1544l-71 -40l185 -317l155 -171l59 51l-146 165zM726 1738l-80 -2v-183l106 -296l208 -133l43 66l-184 118l-93 263v167zM325 1152l-34 -73l314 -144l35 72zM992 1839l-25 -255l53 -305
l217 -69l79 60l-227 70l-44 248l25 243zM786 727q-31 0 -53 -22t-22 -53t22 -53t53 -22t53 22t22 53t-22 53t-53 22zM1973 1891q128 -17 224 -66.5t149.5 -124t53.5 -165.5q0 -26 -4.5 -52t-12.5 -45q36 -72 51.5 -132.5t15.5 -128.5q0 -120 -46.5 -206.5t-135.5 -133.5
q-31 -101 -119.5 -157t-218.5 -56q-103 0 -210.5 40t-235.5 126q-79 -141 -224.5 -212.5t-360.5 -71.5q-77 0 -155.5 7.5t-161.5 23.5q-49 -15 -104 -49t-125 -99.5t-165 -171.5q-2 -2 -4.5 -3.5t-4.5 -1.5q-10 0 -10 12q0 14 11.5 44t31 66t42.5 68q-33 0 -68.5 7t-35.5 21
q0 9 19.5 29.5t59.5 48t100 59.5q-29 15 -45.5 30.5t-16.5 34.5q0 13 26.5 28.5t67.5 30.5t84.5 27.5t77.5 19.5q69 143 202.5 246.5t316.5 158.5t398 55q154 0 314.5 -36.5t322.5 -106.5q88 43 129.5 136.5t41.5 224.5q-94 21 -172.5 61t-137 94t-92.5 117q12 1 24.5 1.5
t25.5 0.5q47 0 100.5 -6t106.5 -13q-38 55 -71 110t-59 110zM1567 1241l-74 -36q20 -48 30.5 -97t10.5 -97q0 -89 -32 -177t-96 -158l51 -49q77 80 116.5 178.5t39.5 205.5q0 56 -11 114.5t-35 115.5zM2462 1478q-15 0 -52.5 -4t-83 -12.5t-87.5 -23.5t-66 -37l45 -56
q28 22 71.5 35t85.5 18.5t66 5.5zM1878 1203l-72 -32q39 -96 39 -194q0 -89 -33 -173t-98 -154l56 -60q76 81 115 181t39 206q0 115 -46 226zM422 414l-52 -55q113 -110 227 -184.5t243.5 -119t289 -64t363.5 -19.5q128 0 215 -3t147 -11t106 -22.5t93 -37.5l40 72
q-52 24 -103.5 40t-117 24.5t-157.5 12t-226 3.5q-196 0 -347.5 18t-274.5 59.5t-230.5 112t-215.5 174.5zM653 498l-88 -29q154 -124 295 -189t272 -89t253 -24q148 0 291 19.5t275 19.5q76 0 150.5 -11.5t148.5 -41.5l33 72q-84 34 -168.5 46.5t-167.5 12.5
q-133 0 -279 -19.5t-287 -19.5q-109 0 -226 20.5t-242 75.5t-260 157zM2060 1143l-36 -63q107 -64 165 -139t65 -157l80 8q-11 100 -80.5 189t-193.5 162zM1881 1164q22 42 39.5 56.5t41.5 14.5q32 0 54 -15.5t22 -37.5q0 -17 -7 -27.5t-15 -16.5l26 -29q17 0 31.5 26.5
t14.5 46.5q0 48 -39.5 75.5t-86.5 27.5q-30 0 -57 -13t-43 -41q-13 55 -54.5 81t-87.5 26q-45 0 -79.5 -26t-34.5 -73h50q0 22 17.5 35.5t46.5 13.5q42 0 70.5 -29.5t40.5 -84.5z" />
</svg>