<?xml version="1.0" standalone="no"?>
<!DOCTYPE svg PUBLIC "-//W3C//DTD SVG 1.1//EN" "http://www.w3.org/Graphics/SVG/1.1/DTD/svg11.dtd">
<svg xmlns="http://www.w3.org/2000/svg" xmlns:xlink="http://www.w3.org/1999/xlink" version="1.1"
   viewBox="94 -151 2414 2169">
   <path fill="currentColor"
      d="M1284 1928q-250 0 -456 -72t-355 -205t-229.5 -318t-80.5 -411v-141q0 -49 92 -94t250 -80.5t359.5 -56t419.5 -20.5q101 0 198.5 4.5t183.5 13.5l-330 387l291 12l326 -362q200 34 326 87t126 109v141q0 226 -80.5 411t-229.5 318t-355 205t-456 72zM779 1539
q-21 0 -54.5 -30t-71 -77.5t-71 -101.5t-54.5 -102.5t-21 -79.5q0 -21 10.5 -32.5t23.5 -11.5q27 0 39 32q37 97 88 180t133 152q17 14 17 34q0 15 -11 26t-28 11zM1284 1848q234 0 425.5 -65.5t329.5 -188.5t212 -294.5t74 -382.5v-63q-110 44 -269.5 75t-355 47.5
t-416.5 16.5q-220 0 -416 -16.5t-355 -47.5t-270 -75v63q0 211 74 382.5t212 294.5t329.5 188.5t425.5 65.5zM1660 961l-367 -16l505 -621q93 -114 152 -184.5t93.5 -109t52 -56t27.5 -26.5q164 0 239 32t75 102q0 30 -16 59.5t-50 65.5zM1423 911q28 0 58 -1t61.5 -2.5
t61.5 -3.5l703 -746q27 -29 38.5 -45t11.5 -29q0 -26 -55.5 -40.5t-153.5 -14.5q-11 11 -41 46t-88.5 106t-156.5 191zM2128 176q-10 0 -16.5 -7t-6.5 -17q0 -15 22.5 -34t53.5 -33t54 -14q29 0 29 24q0 23 -26 26q-24 3 -42 12.5t-44 31.5q-13 11 -24 11z" />
</svg>