<?xml version="1.0" standalone="no"?>
<!DOCTYPE svg PUBLIC "-//W3C//DTD SVG 1.1//EN" "http://www.w3.org/Graphics/SVG/1.1/DTD/svg11.dtd">
<svg xmlns="http://www.w3.org/2000/svg" xmlns:xlink="http://www.w3.org/1999/xlink" version="1.1"
   viewBox="94 -151 2414 2169">
   <path fill="currentColor"
      d="M1344 1973q-82 0 -160.5 -11.5t-152.5 -33.5l72 -59q57 14 118 21.5t123 7.5q203 0 377.5 -73t305.5 -204t204 -305.5t73 -377.5t-73 -378.5t-204 -307t-305.5 -205.5t-377.5 -74q-202 0 -377 74t-305.5 205.5t-204 307t-73.5 378.5q0 81 12.5 158t35.5 150l-79 13
q-49 -155 -49 -321q0 -219 79.5 -408t221 -331t330.5 -221.5t409 -79.5t409 79.5t330.5 221.5t221 331t79.5 408q0 218 -79.5 406.5t-221 329.5t-330.5 220t-409 79zM696 1934l-48 -64q126 -87 233.5 -185t205.5 -215l62 50q-100 121 -211 223t-242 191zM905 2028
q-101 0 -210 -86q-12 1 -23.5 1.5t-23.5 0.5q-152 0 -242 -72.5t-90 -194.5q0 -37 9 -86q-55 -68 -80 -140t-29 -169q175 -37 327 -77.5t295.5 -89t290.5 -109.5q62 -26 102 -38t70 -12q83 0 120.5 54t37.5 175q0 117 -32.5 237t-88.5 228.5t-127.5 193.5t-150 134.5
t-155.5 49.5zM905 1948q63 0 129.5 -46t128 -125t110.5 -178t77.5 -206t28.5 -208q0 -87 -16 -118t-62 -31q-19 0 -49.5 9t-91.5 35q-134 56 -270.5 103t-282 86.5t-307.5 74.5q8 60 33.5 113.5t77.5 112.5q-15 64 -15 107q0 88 66.5 137.5t185.5 49.5q17 0 39 -1.5t33 -2.5
q99 88 185 88zM378 1602l-19 -77q184 -50 321 -98.5t244 -101.5t200 -117l45 64q-96 66 -208 122t-254 106.5t-329 101.5zM783 953l-24 -71l296 -102l-299 -134l30 -68l385 172v70zM1505 1668l-152 -179l23 -88l109 129l92 -206l193 91l20 -214l304 64l-15 74l-222 -47
l-23 236l-220 -103zM1905 953l-388 -133v-70l385 -172l30 68l-299 134l296 102z" />
</svg>