<?xml version="1.0" standalone="no"?>
<!DOCTYPE svg PUBLIC "-//W3C//DTD SVG 1.1//EN" "http://www.w3.org/Graphics/SVG/1.1/DTD/svg11.dtd">
<svg xmlns="http://www.w3.org/2000/svg" xmlns:xlink="http://www.w3.org/1999/xlink" version="1.1"
   viewBox="94 -151 2414 2169">
   <path fill="currentColor"
      d="M978 1778q-106 0 -182.5 -60t-93.5 -153l-239 44q-99 18 -167 -43.5t-72 -170.5l-26 -755q-3 -84 27.5 -145.5t109.5 -110.5t220 -94.5t359 -96.5q85 -20 211 -37t274 -30t300.5 -20.5t291.5 -7.5h353l58 1047h-228q-76 0 -134.5 10t-112.5 35.5t-115.5 72.5t-142.5 121
l-188 173q-122 112 -246 166.5t-257 54.5zM978 1698q118 0 227 -49t222 -152l188 -171q86 -78 153.5 -129t128.5 -80t127 -40.5t150 -11.5h144l-50 -887h-277q-136 0 -285.5 7t-295 20t-270 29.5t-208.5 36.5q-201 46 -330 85t-200.5 79t-98.5 88.5t-25 114.5l26 755
q2 73 42.5 111.5t102.5 26.5l273 -51q228 -155 333.5 -277t105.5 -225q0 -62 -25 -88t-82 -26q-83 0 -183 47.5t-195 132.5l-54 -60q105 -94 219.5 -147t212.5 -53q53 0 92 17q-61 -99 -221 -139l20 -78q149 37 232.5 126.5t83.5 213.5q0 144 -118.5 295t-363.5 320
q8 69 63.5 114t135.5 45z" />
</svg>