<?xml version="1.0" standalone="no"?>
<!DOCTYPE svg PUBLIC "-//W3C//DTD SVG 1.1//EN" "http://www.w3.org/Graphics/SVG/1.1/DTD/svg11.dtd">
<svg xmlns="http://www.w3.org/2000/svg" xmlns:xlink="http://www.w3.org/1999/xlink" version="1.1"
   viewBox="94 -151 2414 2169">
   <path fill="currentColor"
      d="M651 1878q-110 0 -196 -46.5t-135.5 -128t-49.5 -184.5q0 -86 42 -166.5t142 -175t274 -218.5q87 -62 168.5 -125t163.5 -139q-1 -6 -1.5 -12.5t-0.5 -13.5q0 -50 24.5 -91.5t66.5 -66t92 -24.5q14 0 21 1q137 -163 249 -272t213 -163.5t204 -54.5q110 0 201.5 47
t146 129t54.5 186q0 91 -54.5 201t-167.5 255q8 29 8 54q0 76 -53 129t-129 53q-7 0 -14.5 -0.5t-15.5 -1.5q-32 34 -62.5 65t-60.5 60q-85 83 -170.5 159t-169.5 143.5t-167 127.5q0 45 -26 85.5t-67 66t-87 25.5q-20 0 -40 -4.5t-38 -12.5q-105 55 -198 84t-167 29z
M834 1597l-42 -68q89 -55 160 -102.5t140.5 -99.5t151.5 -118l50 62q-83 67 -153.5 120t-143 101.5t-163.5 104.5zM1405 1223q-67 0 -67 -83t67 -83t67 83t-67 83zM515 1530q8 -51 38.5 -99t97 -106.5t181.5 -142.5q80 -58 141 -105t109 -87.5t87 -78t73 -75.5l26 -29
q144 -161 241 -265t161 -166t108.5 -93.5t83.5 -46.5l27 76q-33 13 -72.5 41.5t-99.5 87.5t-153.5 160t-235.5 260l-26 29q-48 53 -105 106t-135 114.5t-189 141.5q-100 72 -157.5 120.5t-84 84.5t-34.5 73h-82zM651 1798q147 0 365 -124q21 16 38.5 22t39.5 6
q43 0 72.5 -29.5t29.5 -72.5q0 -6 -0.5 -14.5t-2.5 -20.5q125 -87 259 -201t273 -247q38 -36 76 -74.5t78 -81.5q32 11 55 11q43 0 72.5 -29.5t29.5 -72.5q0 -12 -3.5 -28t-14.5 -40q122 -153 177 -257t55 -185q0 -82 -44 -145.5t-117 -100t-161 -36.5q-61 0 -123 24
t-135 80t-165 152.5t-212 242.5q-19 -5 -30.5 -7.5t-21.5 -2.5q-43 0 -73 30t-30 72q0 19 13 51l-47 41q-58 50 -114.5 97t-112.5 90.5t-114 84.5q-161 115 -251 198t-126 150.5t-36 137.5q0 123 84.5 201t216.5 78zM1577 1046l-55 -57q159 -161 280 -319.5t219 -333.5
l69 41q-101 179 -225.5 342t-287.5 327z" />
</svg>