<?xml version="1.0" standalone="no"?>
<!DOCTYPE svg PUBLIC "-//W3C//DTD SVG 1.1//EN" "http://www.w3.org/Graphics/SVG/1.1/DTD/svg11.dtd">
<svg xmlns="http://www.w3.org/2000/svg" xmlns:xlink="http://www.w3.org/1999/xlink" version="1.1"
   viewBox="94 -151 2414 2169">
   <path fill="currentColor"
      d="M1107 1978q-188 0 -342 -61t-264.5 -173.5t-170.5 -269t-60 -347.5q0 -146 40.5 -274t121.5 -241q68 -95 165.5 -162t210.5 -118t228 -96t217 -96l149 -74q180 -89 297 -128.5t200 -39.5q130 0 227 53t150.5 148.5t53.5 225.5q0 79 -23.5 165.5t-73.5 193.5l-32 68
q-38 81 -57 152.5t-34.5 146.5t-41.5 166t-79 213q-73 169 -204.5 292t-304.5 189.5t-373 66.5zM915 1048q18 0 28.5 -15t10.5 -37q0 -56 32 -99.5t72 -59.5q28 -10 28 -39q0 -36 -41 -36q-37 0 -77 36t-67.5 88t-27.5 101q0 61 42 61zM1093 1289q-87 0 -158 -42
t-113.5 -113.5t-42.5 -158.5q0 -101 62.5 -179.5t161.5 -124t208 -45.5q68 0 122.5 16t78.5 39q49 49 49 161q0 82 -29 161.5t-80 144t-117.5 103t-141.5 38.5zM1077 1666q142 0 270 -43.5t233.5 -126.5t180.5 -200q61 -95 98.5 -198t70.5 -206.5t77 -198.5l58 -124
q65 -139 93.5 -224.5t28.5 -139.5q0 -65 -38.5 -116t-103.5 -81t-146 -30q-72 0 -177.5 36.5t-277.5 120.5l-159 78q-99 48 -210.5 92.5t-220 92t-198.5 106.5t-145 136q-58 82 -88 185t-30 217q0 136 50.5 250t142.5 198t217 130t274 46z" />
</svg>