<?xml version="1.0" standalone="no"?>
<!DOCTYPE svg PUBLIC "-//W3C//DTD SVG 1.1//EN" "http://www.w3.org/Graphics/SVG/1.1/DTD/svg11.dtd">
<svg xmlns="http://www.w3.org/2000/svg" xmlns:xlink="http://www.w3.org/1999/xlink" version="1.1"
   viewBox="94 -151 2414 2169">
   <path fill="currentColor"
      d="M1380 1978q-204 0 -342.5 -38.5t-227 -124.5t-143.5 -229l-19 -50q-29 -76 -45 -161t-23.5 -167.5t-11.5 -150.5t-9 -110q-6 -53 -16 -102.5t-10 -83.5q0 -51 39.5 -82.5t97.5 -31.5q82 0 137 55t95 182l21 66h-9v-683q0 -71 52.5 -121.5t124.5 -50.5t122.5 50.5
t50.5 122.5h-80q0 -39 -27 -66t-66 -27t-68 28t-29 66v880l-88 12l-66 -206q-40 -126 -77 -177t-93 -51q-27 0 -42 13.5t-15 34.5q0 18 5 44.5t11.5 57t9.5 60.5q5 46 10 116.5t13 152t22 160.5t38 142l19 50q48 125 125 200t201 107.5t313 32.5q296 0 427 -94.5t139 -295.5
l41 -1008q2 -50 -23.5 -87.5t-72.5 -37.5q-38 0 -65 27t-27 66h-80q0 -72 50.5 -122.5t121.5 -50.5q80 0 130 62.5t46 146.5l-41 1008q-10 236 -165 351t-481 115zM1136 1209q-16 0 -26.5 -18.5t-10.5 -68.5q0 -44 11.5 -66.5t27.5 -22.5q14 0 25.5 24.5t11.5 64.5
q0 39 -12 63t-27 24zM1376 1218q-16 0 -26.5 -19.5t-10.5 -76.5q0 -50 11.5 -74t27.5 -24q14 0 25.5 25.5t11.5 72.5q0 46 -12 71t-27 25zM1622 1209q-16 0 -26.5 -18.5t-10.5 -68.5q0 -44 11.5 -66.5t27.5 -22.5q14 0 25.5 24.5t11.5 64.5q0 39 -12 63t-27 24zM1838 1199
q-16 0 -26.5 -17t-10.5 -60q0 -36 11.5 -57.5t27.5 -21.5q14 0 25.5 23.5t11.5 55.5q0 31 -12 54t-27 23zM1184 889v-819q0 -72 52 -122t124 -50q75 0 126 50.5t51 122.5v818h-80v-818q0 -39 -27.5 -66t-69.5 -27q-38 0 -67 27t-29 65v819h-80zM1719 889v-627q0 -39 -25 -66
t-64 -27q-37 0 -65 27.5t-28 65.5h-80q0 -71 51.5 -122t121.5 -51q72 0 120.5 50.5t48.5 122.5v627h-80z" />
</svg>