<?xml version="1.0" standalone="no"?>
<!DOCTYPE svg PUBLIC "-//W3C//DTD SVG 1.1//EN" "http://www.w3.org/Graphics/SVG/1.1/DTD/svg11.dtd">
<svg xmlns="http://www.w3.org/2000/svg" xmlns:xlink="http://www.w3.org/1999/xlink" version="1.1"
   viewBox="94 -151 2414 2169">
   <path fill="currentColor"
      d="M1300 1978q-216 0 -404.5 -80.5t-331.5 -223.5t-223.5 -331.5t-80.5 -404.5t80.5 -404.5t223.5 -331.5t331.5 -223.5t404.5 -80.5q215 0 403.5 80.5t331.5 223.5t224 331.5t81 404.5t-81 404.5t-224 331.5t-331.5 223.5t-403.5 80.5zM1722 1599q-186 -159 -435 -159
q-106 0 -218 31l-20 -78q123 -33 238 -33q276 0 487 177zM346 1222l-46 -66q120 -83 266 -171t296 -170t282.5 -146.5t224.5 -99.5l60 62q-102 39 -239 105t-287 148t-295 169.5t-262 168.5zM948 1098q-51 0 -88 -44.5t-37 -105.5q0 -62 37 -106t88 -44t88 44t37 106
q0 61 -37 105.5t-88 44.5zM1300 1898q199 0 373 -74.5t306 -206.5t206.5 -306t74.5 -373t-74.5 -373t-206.5 -306t-306 -206.5t-373 -74.5t-373 74.5t-306 206.5t-206.5 306t-74.5 373t74.5 373t206.5 306t306 206.5t373 74.5zM298 764l10 -80q495 -62 971.5 -109t932.5 -81
l6 80q-455 33 -933 80.5t-987 109.5zM1652 1098q-51 0 -88 -44.5t-37 -105.5q0 -62 37 -106t88 -44t88 44t37 106q0 61 -37 105.5t-88 44.5zM520 337l36 -86q338 -38 688 -73t693 -63l6 80q-342 28 -697 63t-726 79zM1195 260l-38 -70q118 -63 236 -119.5t248 -105.5l36 71
q-130 49 -247 105.5t-235 118.5z" />
</svg>