<?xml version="1.0" standalone="no"?>
<!DOCTYPE svg PUBLIC "-//W3C//DTD SVG 1.1//EN" "http://www.w3.org/Graphics/SVG/1.1/DTD/svg11.dtd">
<svg xmlns="http://www.w3.org/2000/svg" xmlns:xlink="http://www.w3.org/1999/xlink" version="1.1"
   viewBox="94 -151 2414 2169">
   <path fill="currentColor"
      d="M1069 1978q-194 0 -352 -68.5t-271.5 -194t-174.5 -299.5t-61 -384q0 -197 75.5 -340.5t216.5 -223.5q88 -50 187 -72t199.5 -31t193.5 -20.5t169 -41.5t141 -79.5t127.5 -105.5t130 -106t148 -82t182.5 -32q194 0 302 162t108 452q0 229 -66 445t-187 401t-286 324.5
t-363 217.5t-419 78zM924 1214q-116 0 -207.5 -32.5t-143.5 -89t-52 -129.5q0 -52 24.5 -116t63.5 -119t80 -79q47 -28 154.5 -52t259 -39t327.5 -15q0 47 18 97.5t47.5 92t62.5 63.5q-108 208 -270.5 313t-363.5 105zM1132 1595q-61 0 -90.5 -29t-29.5 -70q0 -43 31 -70
t82 -49t113 -48.5t124 -66.5q74 -48 145 -119.5t135.5 -141.5t117.5 -113q57 -46 106.5 -65.5t92.5 -19.5q57 0 84 28t27 69q0 44 -38 112t-106.5 146.5t-158.5 155.5t-195 140.5t-217 102t-223 38.5zM1104 1745q134 0 274.5 -47.5t276 -133.5t253.5 -202t208.5 -254.5
t142 -290.5t51.5 -308q0 -247 -85 -389t-250 -142q-58 0 -98.5 26.5t-77.5 69t-84.5 92.5t-121.5 97q-103 65 -216 99t-228.5 50t-225.5 28t-207 32.5t-174 64.5q-105 60 -158.5 173t-53.5 255q0 129 49 217t133 140t188 75q91 19 133 45t42 82q0 75 35 124t87.5 73
t106.5 24zM1715 697q-62 0 -106 -44t-44 -106t43.5 -106t106.5 -44q62 0 106 44t44 106t-44 106t-106 44zM2109 632q-34 0 -66 -8t-66 -33q7 -25 7 -59q0 -61 -25 -120.5t-68 -82.5q14 -77 52.5 -121.5t80.5 -44.5q47 0 80.5 46.5t52 123.5t18.5 171q0 52 -15.5 90t-50.5 38
z" />
</svg>