<?xml version="1.0" standalone="no"?>
<!DOCTYPE svg PUBLIC "-//W3C//DTD SVG 1.1//EN" "http://www.w3.org/Graphics/SVG/1.1/DTD/svg11.dtd">
<svg xmlns="http://www.w3.org/2000/svg" xmlns:xlink="http://www.w3.org/1999/xlink" version="1.1"
   viewBox="94 -151 2414 2169">
   <path fill="currentColor"
      d="M1300 1927q-340 0 -517 -162.5t-177 -475.5q0 -123 49.5 -195t165 -102.5t312.5 -30.5h334q198 0 313 30.5t164.5 102.5t49.5 195q0 313 -176.5 475.5t-517.5 162.5zM423 1978q5 -89 11.5 -148t16.5 -102.5t24 -84.5q32 -17 93.5 -38t112.5 -35l35 65q-40 19 -90 37
t-79 23q-10 27 -20.5 76t-17 104.5t-6.5 102.5h-80zM311 1712l-76 -26q16 -50 37.5 -102t43.5 -96.5t41 -70.5q21 -5 64 -9.5t93 -7.5t92.5 -5t61.5 -2l27 80q-21 0 -70 2t-107.5 5.5t-111.5 9.5q-27 46 -54 111t-41 111zM203 1426l-63 -48q41 -54 77.5 -97t68.5 -73.5
t57 -48.5q24 2 67 11t91.5 20.5t90 22.5t61.5 19v84q-34 -12 -86 -26.5t-106 -27t-96 -19.5q-31 29 -54 53.5t-47.5 54t-60.5 75.5zM650 1150l-213 -129q-58 23 -100.5 47t-82.5 53l-47 -66q43 -30 89 -55.5t86.5 -43t65.5 -21.5l236 141zM1300 1847q302 0 458 -142
t156 -416q0 -98 -38.5 -151.5t-135.5 -75t-273 -21.5h-334q-175 0 -272.5 21.5t-136 75t-38.5 151.5q0 274 156 416t458 142zM2097 1978q0 -47 -6.5 -102.5t-16.5 -104.5t-21 -76q-29 -5 -79 -21.5t-90 -38.5l35 -65q51 14 112.5 35t93.5 38q15 41 24.5 84.5t16 102.5
t11.5 148h-80zM646 1134q-29 -49 -58 -106.5t-49 -113t-24 -96.5q-17 -28 -27.5 -71.5t-10.5 -86.5q0 -66 25 -133q-9 -35 -9 -74q0 -104 49 -202.5t131.5 -178.5t184 -127t207.5 -47q65 0 96 19.5t31 70.5q0 31 -19 74.5t-44 73.5q26 -10 59 -10q30 0 48 21.5t18 56.5
q0 72 -59 155.5t-157.5 162.5t-219.5 141q2 12 3.5 23.5t1.5 23.5q0 15 -0.5 30t-4.5 30q30 33 65.5 85t70.5 123l-80 22q-36 -72 -75 -135t-65 -97q-19 -5 -41.5 -6.5t-29.5 -1.5q-38 0 -72 23q0 32 16 83t43.5 107.5t59.5 107.5zM1133 818q21 0 36 -18.5t15 -44.5
t-15 -44.5t-36 -18.5t-36 18.5t-15 44.5t15 44.5t36 18.5zM2289 1712q-14 -46 -41 -111t-54 -111q-52 -6 -111 -9.5t-107.5 -5.5t-70.5 -2l27 -80q19 0 61.5 2t92.5 5t93 7.5t64 9.5q19 26 41.5 70.5t43.5 96.5t37 102zM704 605q11 0 33.5 -4t41.5 -8q105 -50 194.5 -122
t144.5 -141.5t55 -111.5q0 -29 -36 -29q-23 0 -57 11.5t-59 27.5l-37 -59q138 -87 138 -162q0 -34 -56 -34q-88 0 -175.5 41.5t-159 110.5t-115 154.5t-43.5 173.5q0 72 27.5 112t103.5 40zM1532 1001h-130q0 -59 -7 -92t-16 -55t-16 -43.5t-7 -55.5q0 -63 27.5 -96.5
t83.5 -33.5t83.5 33.5t27.5 96.5q0 34 -7 55.5t-16 43.5t-16 55t-7 92zM1467 818q21 0 36 -18.5t15 -44.5t-15 -44.5t-36 -18.5t-36 18.5t-15 44.5t15 44.5t36 18.5zM2397 1426q-36 -46 -60.5 -75.5t-47.5 -54t-54 -53.5q-41 7 -95.5 19.5t-106 27t-86.5 26.5v-84
q20 -8 61.5 -19t90 -22.5t91.5 -20.5t67 -11q26 18 57.5 48.5t68 73.5t77.5 97zM1950 1150l-34 -74l236 -141q26 4 66 21.5t86.5 43t88.5 55.5l-47 66q-40 -29 -82.5 -53t-100.5 -47zM1954 1134l-64 -53q33 -51 60 -107.5t43 -107.5t16 -83q-34 -23 -72 -23q-7 0 -29 1.5
t-42 6.5q-26 34 -65 97t-75 135l-80 -22q35 -71 70.5 -123t65.5 -85q-4 -15 -4.5 -30t-0.5 -30q0 -12 1.5 -23.5t3.5 -23.5q-120 -62 -219 -141t-158 -162.5t-59 -155.5q0 -35 18 -56.5t48 -21.5q33 0 59 10q-25 -30 -44 -73.5t-19 -74.5q0 -51 31.5 -70.5t95.5 -19.5
q106 0 207.5 47t184 127t131.5 178.5t49 202.5q0 39 -9 74q25 67 25 133q0 43 -10.5 86.5t-27.5 71.5q-3 41 -23.5 96.5t-49.5 113t-58 106.5zM1896 605q77 0 104 -40t27 -112q0 -88 -43.5 -173.5t-115 -154.5t-159 -110.5t-175.5 -41.5q-56 0 -56 34q0 75 138 162l-37 59
q-25 -16 -59 -27.5t-57 -11.5q-36 0 -36 29q0 42 55 111.5t145 141.5t194 122q19 4 41.5 8t33.5 4zM1198 1001h-130q0 -59 -7 -92t-16 -55t-16 -43.5t-7 -55.5q0 -63 27.5 -96.5t83.5 -33.5t83.5 33.5t27.5 96.5q0 34 -7 55.5t-16 43.5t-16 55t-7 92z" />
</svg>