<?xml version="1.0" standalone="no"?>
<!DOCTYPE svg PUBLIC "-//W3C//DTD SVG 1.1//EN" "http://www.w3.org/Graphics/SVG/1.1/DTD/svg11.dtd">
<svg xmlns="http://www.w3.org/2000/svg" xmlns:xlink="http://www.w3.org/1999/xlink" version="1.1"
   viewBox="94 -151 2414 2169">
   <path fill="currentColor"
      d="M1361 1565q-105 0 -197.5 -40t-149.5 -115.5t-57 -183.5q0 -104 49.5 -178.5t134.5 -126.5q24 -15 38.5 -32t34 -61t56.5 -137q48 -121 108 -195.5t124 -74.5l29 66q-64 19 -106.5 78.5t-82.5 163.5q-22 57 -39 92.5t-37 61.5l-4 -8q23 -3 44 -5t40 -2q110 0 188 45
t129 144l-14 7q5 -59 18.5 -99t29 -75.5t27 -78t11.5 -105.5q0 -32 -4 -77.5t-12 -77.5l61 -6q15 40 25 82.5t10 76.5q0 84 -16.5 138t-35 102.5t-24.5 117.5q-11 144 -51.5 258t-119.5 179.5t-207 65.5zM691 1884q-25 -29 -43.5 -70t-29 -87.5t-10.5 -90.5q0 -20 1.5 -31.5
t4.5 -25.5q17 28 53.5 56.5t81.5 48t87 19.5q17 0 33 -3l-3 28l-143 -252q42 -29 66.5 -85.5t24.5 -117.5q0 -80 -36 -138.5t-107 -58.5q-61 0 -113.5 33.5t-92.5 89t-62.5 121.5t-22.5 132q0 88 34 176t108 155t193 92zM749 1949q-129 0 -230.5 -68t-160 -181t-58.5 -246
q0 -85 28.5 -166t78.5 -146.5t117 -104.5t143 -39q108 0 167.5 68t59.5 172q0 62 -22.5 125.5t-69.5 112.5l168 296q-26 20 -78 20q-53 0 -108 -18t-103 -49q19 71 51.5 122t66.5 96q-22 6 -50 6zM854 1382v-170l-23 -91l-76 -52h-176q29 -31 73 -49.5t94 -18.5q47 0 98 21
t80 52q22 -9 48 -14t58 -5l-36 105v149q-23 0 -45 -11q-32 53 -95 84zM1324 1410q-50 0 -78 -58q-24 19 -49 19q-22 0 -46 -18.5t-24 -35.5q0 -22 22 -22q17 0 23.5 14t31.5 14q28 0 47 -27q12 -17 20 -17q14 0 14 17q0 32 10 49t30 17t27.5 -11t21.5 -11q22 0 22 23
q0 16 -23 31.5t-49 15.5zM1184 1224q-23 0 -39 -16t-16 -39t16 -38.5t39 -15.5t38.5 15.5t15.5 38.5t-15.5 39t-38.5 16zM1361 1485q122 0 198 -74.5t76 -193.5q0 -81 -38 -144t-101.5 -99t-142.5 -36q-85 0 -157 41t-115.5 106.5t-43.5 140.5q0 115 90.5 187t233.5 72z
M1423 1293q-23 0 -39 -16t-16 -39t16 -38.5t39 -15.5t38.5 15.5t15.5 38.5t-15.5 39t-38.5 16zM1102 979q-19 -26 -48.5 -60.5t-56.5 -34.5q-43 0 -74.5 14t-87.5 14q-52 0 -104 -14t-52 -28q0 -8 33.5 -10.5t127.5 -2.5q38 0 80.5 -24t79.5 -24q26 0 48.5 21t41.5 21
q14 0 14 -15q0 -5 -3.5 -14t-14.5 -18q-25 -21 -49.5 -36.5t-50.5 -15.5q-40 0 -90 26t-109 26q-40 0 -85.5 -12t-45.5 -25q0 -9 31 -14t114 -10q33 -2 70.5 -22.5t72 -40t58.5 -19.5q28 0 63 25t67.5 49.5t52.5 24.5q14 0 17 -14t-8 -32l-54 -94q-8 -15 -33 -29t-46.5 -27
t-21.5 -25q0 -10 34 -10q31 0 66 10t45 30l108 198l-97 149zM1664 1936l36 -55q21 10 41 13.5t41 3.5q87 0 166 -37.5t140 -102.5t96.5 -148.5t35.5 -175.5q0 -117 -62.5 -173.5t-143.5 -56.5q-73 0 -125.5 59t-52.5 157q0 54 25 98l-250 169l-22 -21q21 16 56.5 22.5
t78.5 6.5q42 0 82.5 -7.5t80.5 -29.5q-4 52 -26.5 100.5t-114.5 116.5zM1782 1978q-55 0 -107.5 -15.5t-105.5 -48.5l237 -177l8 19q-43 10 -74 13.5t-48 3.5q-68 0 -120.5 -21t-90.5 -66l301 -205q-9 -24 -16 -49.5t-7 -50.5q0 -80 31.5 -137t87.5 -87.5t128 -30.5
q76 0 143 36.5t109 105t42 166.5q0 113 -43.5 212t-117 173.5t-166 116.5t-191.5 42zM1824 1426q-61 -31 -90 -92q-39 -8 -66 -44t-27 -82q0 -53 33.5 -89.5t79.5 -36.5q13 0 24.5 2.5t22.5 6.5q58 -32 110 -32q48 0 91 22t84 63l-152 2l-71 50l-29 104zM1701 879
q-46 -79 -115.5 -122t-148.5 -43q-23 0 -54.5 5t-75.5 20l-22 -56q53 -19 89 -24t63 -5q96 0 180 51.5t138 145.5zM2259 1160q-42 0 -84 -28t-81.5 -65.5t-74 -65.5t-62.5 -28q-19 0 -61.5 19t-92 43.5t-90.5 42.5l5 -88l24 -78l12 -257q85 -95 116.5 -125.5t46.5 -30.5
q24 0 50 23.5t75 23.5q32 0 44.5 4t12.5 14t-23.5 19t-53.5 9q-27 0 -46.5 -5.5t-51.5 -19.5l-125 185q51 -50 87 -80.5t49 -30.5q12 0 36.5 25.5t55.5 59t59 59.5q56 50 93 73.5t55.5 34.5t18.5 25q0 15 -19 15q-30 0 -73.5 -27.5t-89 -63.5t-81.5 -63.5t-50 -27.5
q-8 0 -34 24t-55.5 56.5t-48.5 59.5q-8 11 -8 21q0 7 5.5 15t18.5 8q15 0 43 -15t57.5 -30t46.5 -15t47 27t69 67.5t84 81.5t93 69q16 10 16 25t-15 15zM1687 566q-97 0 -147 -41t-50 -116q0 -31 12.5 -60.5t32.5 -45.5q-3 -17 -3 -36q-47 0 -99 -17.5t-70 -31.5
q-29 22 -51.5 30.5t-38.5 11.5l-31 -57q20 -8 51 -26.5t52 -36.5q46 36 115 47t147 13q0 19 2 48.5t8 47.5q-25 29 -40 63t-15 54q0 43 36 63t81 20q53 0 74 -22.5t21 -76.5q0 -45 -16 -88q27 -44 27 -87q0 -53 -25 -95.5t-63 -44.5q-16 -48 -79 -80.5t-134 -32.5
q-52 0 -91 21q-21 -8 -44.5 -11.5t-51.5 -3.5q-70 0 -108 31.5t-70 105.5q-40 14 -69.5 58t-29.5 91q0 56 40 96t105 40q14 0 27.5 3t24.5 11q15 11 24 11t9 -11q0 -92 -47 -164t-107 -140l34 -60q60 67 101 124t62.5 122t21.5 156q0 36 -13 57.5t-39 21.5q-20 0 -34 -13
t-28 -25.5t-36 -12.5q-98 0 -161.5 -62t-63.5 -154q0 -57 30 -108.5t73 -83.5q34 -84 103 -127.5t151 -43.5q51 0 94 23q26 -12 55.5 -17.5t59.5 -5.5q75 0 139.5 31.5t85.5 82.5q61 14 97.5 81.5t36.5 135.5q0 57 -24 104q10 34 10 72q0 80 -37.5 120.5t-126.5 40.5z
M1389 187l-64 -30q43 -61 43 -138q0 -24 -5 -59l70 -9q5 37 5 64q0 95 -49 172zM1794 358q-58 0 -114.5 -6.5t-104.5 -24.5l22 -68q44 17 92.5 23t100.5 6zM1563 260l-35 -53q115 -56 141 -189l68 14q-16 84 -59.5 138t-114.5 90z" />
</svg>