<?xml version="1.0" standalone="no"?>
<!DOCTYPE svg PUBLIC "-//W3C//DTD SVG 1.1//EN" "http://www.w3.org/Graphics/SVG/1.1/DTD/svg11.dtd">
<svg xmlns="http://www.w3.org/2000/svg" xmlns:xlink="http://www.w3.org/1999/xlink" version="1.1"
   viewBox="94 -151 2414 2169">
   <path fill="currentColor"
      d="M688 1404q-79 -62 -128.5 -151t-49.5 -186q0 -89 37.5 -153.5t98.5 -88.5q-19 -51 -30 -86.5t-15.5 -67t-4.5 -68.5q0 -273 180.5 -430.5t523.5 -157.5t523.5 157.5t180.5 430.5q0 37 -4.5 68.5t-15.5 67t-30 86.5q62 24 99 88.5t37 153.5q0 97 -49.5 186t-128.5 151
l11 -252l-80 -267q43 -79 62 -147t19 -135q0 -245 -161 -376.5t-463 -131.5t-463 131.5t-161 376.5q0 67 19 135t62 147l-80 267zM870 1904q-124 0 -124 -38q0 -23 22.5 -45t52.5 -47t52.5 -57t22.5 -75l97 89zM973 1978q-168 0 -168 -82q0 -18 23 -42.5t53 -50t53 -46.5
t23 -32h83q0 39 -27.5 67.5t-66.5 58.5l-44 34q10 10 30 12.5t36 2.5q61 0 113.5 -13.5t105.5 -27t113 -13.5t113 13.5l106 27t113 13.5q17 0 36.5 -2.5t29.5 -12.5l-44 -34q-39 -30 -66.5 -58.5t-27.5 -67.5h83q0 11 23 32.5t53 47t53 49.5t23 42q0 82 -168 82
q-65 0 -119 -13t-104.5 -26t-103.5 -13t-103 13t-104.5 26t-119.5 13zM1179 1477q-30 0 -62 -12.5t-61 -40.5l56 -58q17 16 34 23.5t33 7.5q28 0 67 -26l49 65q-29 22 -58 31.5t-58 9.5zM999 1237q-30 0 -62 -12.5t-61 -40.5l56 -58q17 16 34 23.5t33 7.5q28 0 67 -26l49 65
q-29 22 -58 31.5t-58 9.5zM1300 1848q-194 0 -340.5 -90.5t-228.5 -247.5t-82 -358q0 -303 232 -303q63 0 138.5 24t149 65t131.5 93q58 -52 131.5 -93t149 -65t138.5 -24q232 0 232 303q0 201 -82 358t-228.5 247.5t-340.5 90.5zM1300 1768q169 0 297.5 -78t201 -217
t72.5 -321q0 -119 -37 -171t-115 -52q-67 0 -149.5 30t-155.5 80.5t-114 110.5q-41 -60 -114 -110.5t-155 -80.5t-150 -30q-78 0 -115 52t-37 171q0 182 72.5 321t201 217t297.5 78zM1730 1904l-123 -173l97 -89q0 43 22.5 75t52.5 57t52.5 47t22.5 45q0 38 -124 38z
M1570 1447q-30 0 -62 -12.5t-61 -40.5l56 -58q17 16 34 23.5t33 7.5q28 0 67 -26l49 65q-29 22 -58 31.5t-58 9.5zM1589 1237q-30 0 -62 -12.5t-61 -40.5l56 -58q17 16 34 23.5t33 7.5q28 0 67 -26l49 65q-29 22 -58 31.5t-58 9.5zM1008 762q-64 0 -116.5 -31.5t-84 -84.5
t-31.5 -117q0 -65 31.5 -117.5t84 -84t116.5 -31.5t116.5 31.5t83.5 84.5t31 117t-31 117t-83 84.5t-117 31.5zM1024 692q70 0 117 -46t47 -118t-47 -118t-117 -46t-117 46t-47 118t47 118t117 46zM1024 619q-38 0 -64.5 -26t-26.5 -65t26.5 -65t64.5 -26t64.5 26t26.5 65
t-26.5 65t-64.5 26zM1300 935q-21 0 -40 -31t-31.5 -72.5t-12.5 -72.5v-115h168v115q0 31 -12.5 72.5t-31.5 72.5t-40 31zM733 287q-55 -56 -88.5 -121.5t-33.5 -134.5q0 -23 5 -51q31 0 75.5 35t78.5 86q-44 -100 -44 -203q46 0 98 35t89 82.5t37 85.5l-116 59zM1300 685
q-61 0 -93.5 -12t-32.5 -52q0 -45 39.5 -84.5t86.5 -39.5t86.5 39.5t39.5 84.5q0 40 -32 52t-94 12zM1300 635q53 0 64.5 -4t11.5 -10q0 -25 -25 -49.5t-51 -24.5q-25 0 -50.5 24.5t-25.5 49.5q0 6 11.5 10t64.5 4zM1234 534q0 -68 -31 -131t-84 -113t-119.5 -79t-138.5 -29
l344 -138h190l344 138q-72 0 -138.5 29t-119.5 79t-84 113t-31 131h-132zM1576 692q70 0 117 -46t47 -118t-47 -118t-117 -46t-117 46t-47 118t47 118t117 46zM1576 619q-38 0 -64.5 -26t-26.5 -65t26.5 -65t64.5 -26t64.5 26t26.5 65t-26.5 65t-64.5 26zM1592 762
q-64 0 -116.5 -31.5t-83.5 -84.5t-31 -117t31 -117t83.5 -84.5t116.5 -31.5t116.5 31.5t84 84t31.5 117.5q0 64 -31.5 117t-84 84.5t-116.5 31.5zM1867 287l-101 -127l-116 -59q0 -38 37 -85.5t89 -82.5t98 -35q0 103 -44 203q35 -51 79 -86t75 -35q5 28 5 51
q0 69 -33.5 134.5t-88.5 121.5z" />
</svg>