<?xml version="1.0" standalone="no"?>
<!DOCTYPE svg PUBLIC "-//W3C//DTD SVG 1.1//EN" "http://www.w3.org/Graphics/SVG/1.1/DTD/svg11.dtd">
<svg xmlns="http://www.w3.org/2000/svg" xmlns:xlink="http://www.w3.org/1999/xlink" version="1.1"
   viewBox="94 -151 2414 2169">
   <path fill="currentColor"
      d="M1271 1978q-83 0 -188 -8t-206.5 -21.5t-176.5 -29.5q-171 -37 -250.5 -116.5t-79.5 -215.5q0 -148 88.5 -230.5t242.5 -82.5q36 0 75 4.5t81 13.5l458 100l517 -299l49 31q-22 37 -29.5 64.5t-7.5 52.5q0 59 26 91.5t60 32.5q31 0 64.5 -20.5t61.5 -61.5
q53 -77 83.5 -145.5t30.5 -144.5q0 -68 -14.5 -143.5t-32 -135t-27.5 -79.5q-22 -45 -78 -91t-109 -65q-52 -19 -99 -29.5t-79 -10.5q-33 0 -33 15q0 7 9.5 13.5t48.5 20.5q37 13 82 37t86 53t65 58l-22 36q-54 -20 -97 -27t-96 -7q-82 0 -132.5 6t-50.5 32q0 11 8.5 18
t30.5 10l-10 51q-84 -12 -84 -79q0 -43 31.5 -62.5t82.5 -25t107 -5.5q23 0 45.5 1.5t45.5 6.5q-29 -17 -57 -30t-54 -22q-51 -19 -75 -36.5t-24 -50.5t25.5 -53t72.5 -20q38 0 87 11.5t105 31.5q41 14 85.5 45t81.5 69t55 74q12 22 31 86.5t34 144.5t15 152q0 90 -39 170.5
t-98 175.5l-7 -29q13 10 13 31q0 70 -36.5 133.5t-100.5 123t-145 120.5q-114 85 -202 143t-169.5 87.5t-174.5 29.5zM1271 1898q84 0 158.5 -26t157 -78.5t188.5 -131.5q119 -89 173.5 -148t71.5 -114q-18 16 -41.5 28t-50.5 12q-66 0 -115 -53t-49 -125q0 -11 0.5 -20.5
t3.5 -22.5l-442 257l-484 -105q-80 -17 -143 -17q-124 0 -186.5 58.5t-62.5 174.5q0 109 58.5 165t205.5 88q73 15 172.5 28.5t201.5 21.5t183 8zM1212 1689q0 -184 82 -278l53 46q-65 74 -65 232h-70zM2011 1186q-40 -5 -78.5 -15t-88.5 -30l-247 -100q-22 -9 -33 -26
t-11 -35q0 -27 20.5 -50t57.5 -23q19 0 42 5.5t52 14.5q31 10 62 15.5t56 5.5q13 0 13 -8q0 -6 -17 -15t-40 -17q-49 -18 -86.5 -25.5t-95.5 -13.5q-84 -10 -84 -83q0 -49 45 -68t109 -19q35 0 72.5 3.5t61.5 8.5q31 7 69.5 24.5t58.5 29.5l-29 46q-16 -10 -50.5 -24.5
t-60.5 -21.5q-20 -5 -54 -8t-68 -3q-32 0 -63 6t-31 28t34 26q54 5 96.5 14t94.5 28q51 18 80.5 40.5t29.5 53.5q0 22 -18 36.5t-50 14.5q-31 0 -70 -8t-77 -18q-27 -8 -47.5 -11.5t-34.5 -3.5q-21 0 -21 16q0 11 14 17l242 98q45 18 80.5 27.5t69.5 12.5zM1576 1015
l-100 -48q-57 -27 -71 -51.5t-10 -79.5l59 -818q5 -62 39 -91t89 -29q33 0 70 9l308 79q46 12 70.5 43t21.5 78l-28 396l-67 -36l25 -363q2 -26 -7 -37.5t-33 -17.5l-307 -79q-25 -7 -49 -7q-58 0 -62 59l-59 818q-2 34 5 44.5t40 26.5l93 45zM1641 153q-22 0 -38.5 -17.5
t-16.5 -42.5q0 -24 16.5 -41.5t38.5 -17.5q23 0 39 17.5t16 41.5q0 25 -16 42.5t-39 17.5z" />
</svg>