<?xml version="1.0" standalone="no"?>
<!DOCTYPE svg PUBLIC "-//W3C//DTD SVG 1.1//EN" "http://www.w3.org/Graphics/SVG/1.1/DTD/svg11.dtd">
<svg xmlns="http://www.w3.org/2000/svg" xmlns:xlink="http://www.w3.org/1999/xlink" version="1.1"
   viewBox="94 -151 2414 2169">
   <path fill="currentColor"
      d="M1300 1717q-142 0 -297.5 -23.5t-301.5 -68.5t-264 -109t-187.5 -145.5t-69.5 -177.5q0 -72 47.5 -117t116.5 -45q72 0 112 48.5t42 114.5q5 -1 17 -1q152 0 237 141q26 -11 59 -18t68 -7q65 0 121.5 31.5t111.5 90.5q35 -39 83.5 -62t104.5 -23t105 23t83 62
q55 -59 111.5 -90.5t121.5 -31.5q35 0 68 7t59 18q85 -141 237 -141q12 0 17 1q2 -66 42 -114.5t112 -48.5q69 0 116.5 45t47.5 117q0 96 -69.5 177.5t-187.5 145.5t-264 109t-301 68.5t-298 23.5zM1300 1978q-287 0 -482.5 -45.5t-302.5 -120.5t-128 -165l-59 -253l92 44
l45 191q19 78 128 139.5t290.5 96.5t416.5 35q236 0 417 -35t290.5 -96.5t127.5 -139.5l45 -191l92 -44l-59 253q-21 90 -128 165t-302.5 120.5t-482.5 45.5zM1300 1639q198 0 383.5 -38t334 -102t235.5 -143.5t87 -162.5q0 -37 -24.5 -60.5t-59.5 -23.5q-40 0 -65.5 43.5
t-30.5 112.5q-25 -3 -48 -3q-82 0 -138 37t-88 119q-35 -16 -67 -23t-67 -7q-79 0 -133.5 29t-116.5 94q-44 -38 -92.5 -62.5t-109.5 -24.5t-109.5 24.5t-92.5 62.5q-61 -65 -115.5 -94t-134.5 -29q-35 0 -67 7t-67 23q-32 -82 -88 -119t-138 -37q-22 0 -48 3
q-5 -69 -30 -112.5t-66 -43.5q-35 0 -59.5 23.5t-24.5 60.5q0 83 87 162.5t235.5 143.5t334 102t383.5 38zM884 1061l-47 -51q117 -108 294 -168l23 66q-163 55 -270 153zM1265 1141v-257h70v257h-70zM409 1104l-67 -44q170 -200 399.5 -291t558.5 -91t558.5 91t399.5 291
l-67 44q-157 -182 -369.5 -265t-521.5 -83t-521 83t-370 265zM1716 1061q-107 -98 -270 -153l23 -66q177 60 294 168zM1286 594q-115 0 -188 -59.5t-73 -158.5q0 -76 58 -139.5t215 -131.5l60 -26q87 -38 119 -60.5t32 -47.5q0 -35 -33 -73q115 0 188 59.5t73 158.5
q0 76 -58 139.5t-215 131.5l-60 26q-87 37 -119 60t-32 48q0 35 33 73zM1185 490q0 -39 42.5 -72.5t142.5 -76.5l60 -26q130 -56 178.5 -101t48.5 -100q0 -43 -22.5 -73.5t-57.5 -38.5q0 39 -42.5 72.5t-142.5 76.5l-60 26q-130 56 -178.5 101t-48.5 100q0 43 23 73.5
t57 38.5z" />
</svg>