<?xml version="1.0" standalone="no"?>
<!DOCTYPE svg PUBLIC "-//W3C//DTD SVG 1.1//EN" "http://www.w3.org/Graphics/SVG/1.1/DTD/svg11.dtd">
<svg xmlns="http://www.w3.org/2000/svg" xmlns:xlink="http://www.w3.org/1999/xlink" version="1.1"
   viewBox="94 -151 2414 2169">
   <path fill="currentColor"
      d="M686 1792q-205 -143 -315.5 -367t-110.5 -487q0 -224 77.5 -413.5t218 -330t330 -218.5t414.5 -78t414.5 78t330 218.5t218 330t77.5 413.5q0 256 -104 475t-298 364l-99 -39q197 -130 304 -340t107 -460q0 -206 -70.5 -380t-199 -303t-301.5 -200.5t-379 -71.5
q-205 0 -378.5 71.5t-302 200.5t-199 303t-70.5 380q0 250 106 459t301 339zM436 1842q-30 0 -56.5 -17t-26.5 -40q0 -17 16 -24.5t32 -7.5q31 0 56.5 17.5t25.5 40.5q0 18 -16 24.5t-31 6.5zM1208 1878q-17 0 -29 -19t-12 -46q0 -26 12 -45t29 -19t28.5 19t11.5 45
q0 27 -11.5 46t-28.5 19zM1097 1669q-11 0 -19 -12t-8 -29t8 -29t19 -12t18.5 12t7.5 29t-7.5 29t-18.5 12zM1838 2028q-65 0 -136.5 -9t-145.5 -22q-130 13 -250 20.5t-228 7.5q-206 0 -320 -13.5t-159 -42.5t-45 -73q0 -29 26 -49.5t76 -29.5q-6 -14 -6 -30q0 -38 45 -60
t125 -22q19 0 54.5 2t56.5 5v-346h70v420q-43 -11 -91 -15.5t-86 -4.5q-45 0 -79 9t-34 32q0 25 72 49q-83 3 -121 13.5t-38 26.5q0 20 55 33t156.5 19.5t242.5 6.5q222 0 481 -30q180 36 279 36q71 0 98.5 -11t27.5 -26q0 -23 -57 -42q37 -7 59 -19.5t22 -29.5
q0 -29 -98.5 -46.5t-272.5 -17.5v-403h70v334q105 2 189.5 17t133.5 42.5t49 68.5q0 16 -6 27.5t-22 23.5q19 8 31.5 22.5t12.5 33.5q0 33 -30 53.5t-83 30t-124 9.5zM1248 1597q-17 0 -29 -19t-12 -45q0 -27 12 -46t29 -19t28.5 19t11.5 46q0 26 -11.5 45t-28.5 19z
M1488 1788q-28 0 -47 -31t-19 -74q0 -44 19 -74.5t47 -30.5t46.5 30.5t18.5 74.5q0 43 -18.5 74t-46.5 31zM881 1631q-46 0 -75 -33t-29 -99q0 -133 68 -236.5t186 -162.5t269 -59q152 0 270 59t185.5 162.5t67.5 236.5q0 66 -28.5 99t-75.5 33q-15 0 -32.5 -3.5t-29.5 -7.5
l-10 -206h-674l-8 202q-16 6 -41 10.5t-43 4.5zM890 1334h821q-61 -113 -168.5 -168t-242.5 -55q-134 0 -241.5 55t-168.5 168zM751 1026l-27 -80l282 -97l-286 -128l34 -78l392 176v73zM2200 1856q-16 0 -28 -7t-12 -21q0 -20 24.5 -34.5t46.5 -14.5q16 0 28.5 7.5
t12.5 21.5q0 19 -24.5 33.5t-47.5 14.5zM714 494l-14 -79q114 -20 187.5 -55t120.5 -96l62 50q-58 72 -144 115.5t-212 64.5zM1849 1026l-395 -134v-73l392 -176l34 78l-286 128l282 97zM1886 494q-126 -21 -212 -64.5t-144 -115.5l62 -50q47 61 120.5 96t187.5 55z" />
</svg>