<?xml version="1.0" standalone="no"?>
<!DOCTYPE svg PUBLIC "-//W3C//DTD SVG 1.1//EN" "http://www.w3.org/Graphics/SVG/1.1/DTD/svg11.dtd">
<svg xmlns="http://www.w3.org/2000/svg" xmlns:xlink="http://www.w3.org/1999/xlink" version="1.1"
   viewBox="94 -151 2414 2169">
   <path fill="currentColor"
      d="M1305 1978q-292 0 -463 -90t-187 -247q-8 -81 -14 -162.5t-9 -159.5q-41 -2 -67 -10.5t-44 -21.5q63 -23 58.5 -83.5t-55.5 -146.5q-43 24 -63 44q-3 -9 -3 -20q0 -32 15 -64.5t15 -50.5q0 -20 -27 -47q-16 -16 -23.5 -36.5t-7.5 -39.5q0 -41 12.5 -72.5t35.5 -59.5
q-19 -17 -32.5 -40t-20.5 -54q31 14 61 14q34 0 55.5 -19t21.5 -59q0 -39 10 -88t59 -67q-38 0 -72.5 -28t-45.5 -65q28 11 47 11q43 0 77 -69q16 -32 44.5 -62t80.5 -30q18 0 31.5 2t25.5 7q-37 -27 -53.5 -61t-16.5 -70q0 -69 60 -135q6 68 45.5 111t112.5 43
q-13 -30 -13 -56q0 -48 36 -84q6 28 27.5 50t60.5 22q35 0 81 -21t114.5 -41.5t168.5 -20.5q85 0 152 25.5t105.5 74t38.5 117.5q43 -11 94 9.5t92.5 59.5t53.5 85l58 -61q6 13 10.5 30t4.5 38q0 29 -11 65.5t-33 64.5q64 31 101 80.5t37 120.5q0 9 -0.5 18t-2.5 19
q-7 -3 -17 -6t-20 -3q-19 0 -38 11q2 17 6.5 37t11.5 40q10 29 46 29q15 0 25 -2.5t18 -6.5q0 50 -19 79t-48 34q-8 72 -27 138t-57 127q18 4 45.5 21.5t42.5 64.5q-22 -9 -44 -9q-36 0 -62 21q0 25 18.5 49t44.5 39q-33 15 -65 15q-8 0 -21.5 -1t-20.5 -3v69q0 42 10 77
t28 71q14 27 21.5 49.5t7.5 49.5q0 102 -87.5 178.5t-249.5 119.5t-387 43zM975 1739q-24 0 -49.5 -20t-43.5 -48.5t-18 -53.5q0 -52 52 -52q25 0 58.5 16t59 39t25.5 45q0 25 -26.5 49.5t-57.5 24.5zM1103 1773q-10 0 -20 -9.5t-10 -23.5q0 -13 21 -32.5t34 -19.5
q17 0 17 23t-9.5 42.5t-32.5 19.5zM1287 1330q-85 0 -135.5 -13.5t-50.5 -51.5q0 -30 26.5 -61.5t69 -53t90.5 -21.5q49 0 91 21.5t68.5 53t26.5 61.5q0 38 -50 51.5t-136 13.5zM1730 1718q-14 0 -22 -5t-8 -20q0 -22 11.5 -52t29 -53.5t35.5 -23.5q17 0 29.5 15t12.5 37
q0 47 -22 74.5t-66 27.5zM970 1127q-55 0 -104 -35l29 -51q31 24 75 24q48 0 88 -37t61 -87q-23 27 -54.5 41.5t-64.5 14.5q-56 0 -93.5 -42t-37.5 -105q0 -56 27.5 -101.5t71 -72.5t91.5 -27q59 0 93.5 47.5t34.5 132.5q0 81 -30 148.5t-79.5 108.5t-107.5 41zM1305 1898
q200 0 344.5 -34.5t222 -94t77.5 -132.5q0 -20 -6 -39.5t-19 -45.5q-19 -40 -30.5 -80t-11.5 -83v-468q0 -150 -28.5 -256t-84.5 -162t-139 -56q-7 0 -15.5 0.5t-16.5 2.5q-9 -49 -44 -73t-115 -24q-62 0 -122 28.5t-121.5 71t-126.5 85t-136.5 71.5t-153.5 31
q0 82 -19.5 182.5t-57.5 193.5q0 64 4 170t11.5 225t17.5 223q12 118 158 191t412 73zM1009 935q47 0 81.5 -38t34.5 -94q0 -42 -20.5 -66.5t-55.5 -24.5q-47 0 -82 38t-35 91q0 40 21.5 67t55.5 27zM1667 1293q-29 0 -60.5 -21t-31.5 -43q0 -16 28.5 -34t65.5 -31t62 -13
q49 0 49 51q0 31 -39 61t-74 30zM1591 1127q-58 0 -107.5 -41t-79.5 -108.5t-30 -148.5q0 -85 34.5 -132.5t93.5 -47.5q49 0 92 27t70.5 72.5t27.5 101.5q0 63 -37.5 105t-93.5 42q-32 0 -63.5 -14t-54.5 -40q23 55 62 88.5t86 33.5q44 0 75 -24l29 51q-49 35 -104 35z
M1552 935q35 0 56 -27t21 -67q0 -53 -35 -91t-82 -38q-35 0 -55.5 24.5t-20.5 66.5q0 56 35 94t81 38z" />
</svg>