<?xml version="1.0" standalone="no"?>
<!DOCTYPE svg PUBLIC "-//W3C//DTD SVG 1.1//EN" "http://www.w3.org/Graphics/SVG/1.1/DTD/svg11.dtd">
<svg xmlns="http://www.w3.org/2000/svg" xmlns:xlink="http://www.w3.org/1999/xlink" version="1.1"
   viewBox="94 -151 2414 2169">
   <path fill="currentColor"
      d="M1173 1978q-83 0 -161 -25.5t-140 -69.5t-98 -99t-36 -114q0 -72 45.5 -162t112.5 -164q-36 5 -65.5 7.5t-58.5 2.5q-78 0 -144.5 -34t-136 -115.5t-157.5 -222.5q-74 -120 -119 -202t-65 -136t-20 -88q0 -49 36 -69.5t121 -20.5q100 0 238 29t289.5 85.5t297 138.5
t260.5 187l-42 44q-102 -93 -239 -168.5t-282.5 -129t-276 -82.5t-220.5 -29q-49 0 -70 13.5t-21 38.5q0 20 14 54t52 101t111 185q67 108 116 175.5t91 103t87 49t104 13.5q74 0 132.5 -5t124.5 -12q-89 108 -140.5 184.5t-73 130t-21.5 92.5q0 61 49 114.5t129 86.5
t171 33q86 0 135.5 -27t80.5 -102.5t59 -220.5l34 75q-15 185 -87.5 270t-215.5 85zM884 1694q-12 0 -20.5 -8.5t-8.5 -20.5t8.5 -20.5t20.5 -8.5t20.5 8.5t8.5 20.5t-8.5 20.5t-20.5 8.5zM1057 1816q-12 0 -20.5 -8.5t-8.5 -20.5t8.5 -20.5t20.5 -8.5t20.5 8.5t8.5 20.5
t-8.5 20.5t-20.5 8.5zM935 1574q-12 0 -20.5 -8.5t-8.5 -20.5t8.5 -20.5t20.5 -8.5t20.5 8.5t8.5 20.5t-8.5 20.5t-20.5 8.5zM1021 1697q-18 0 -33 -13t-15 -33q0 -33 36.5 -74t94.5 -66q0 85 -24.5 135.5t-58.5 50.5zM1206 1809q-34 0 -56.5 -21t-22.5 -56
q0 -38 27.5 -77.5t79.5 -56.5q26 25 38 56.5t12 60.5q0 38 -20 66t-58 28zM380 770q-12 0 -20.5 -8.5t-8.5 -20.5t8.5 -20.5t20.5 -8.5t20.5 8.5t8.5 20.5t-8.5 20.5t-20.5 8.5zM338 677q-17 0 -29 -12t-12 -29t12 -29t29 -12t29 12t12 29t-12 29t-29 12zM661 1039
q-50 9 -80 -5t-30 -55q0 -40 38.5 -57t80.5 -17q43 0 91 21t128 73zM546 860q-40 7 -67.5 -4t-27.5 -48q0 -27 19 -40.5t47 -13.5q36 0 78 21.5t69 63.5zM1057 1456q-13 0 -22.5 -9t-9.5 -24q0 -35 49 -87.5t128 -91.5q-42 101 -78.5 156.5t-66.5 55.5zM1343 1663
q-17 0 -26 -30.5t-9 -69.5q0 -33 6.5 -65t20.5 -51q19 29 28 69t9 75q0 24 -6 48t-23 24zM473 676q-13 0 -23 -10t-10 -23q0 -14 10 -23.5t23 -9.5q14 0 23.5 9.5t9.5 23.5q0 13 -9.5 23t-23.5 10zM894 1201q-79 10 -124 -1.5t-45 -42.5q0 -32 33 -52.5t79 -30t86 -9.5
q69 0 147.5 24.5t160.5 67.5zM1205 1526q-22 0 -33 -15t-11 -38q0 -46 37 -114.5t99 -128.5q2 16 2.5 32t0.5 31q0 100 -27.5 166.5t-67.5 66.5zM592 710q-12 0 -20.5 -8.5t-8.5 -20.5t8.5 -20.5t20.5 -8.5t20.5 8.5t8.5 20.5t-8.5 20.5t-20.5 8.5zM1561 1861
q-24 0 -56.5 -64.5t-64 -174.5t-55.5 -248q-14 -84 -22.5 -161t-12.5 -141l138 -24q20 61 37.5 136.5t32.5 158.5q19 106 28.5 199.5t9.5 164.5q0 69 -9 111.5t-26 42.5zM1218 1050l-296 -136q-86 -40 -145 -87.5t-59 -77.5q0 -13 10.5 -18.5t26.5 -5.5q40 0 96.5 21
t117 56.5t115 78t91 87t43.5 82.5zM1697 1604q-17 0 -32.5 -24.5t-25.5 -62.5t-10 -76q0 -11 1 -22t3 -21q22 14 40 45t29.5 66t11.5 61q0 34 -17 34zM1851 1698q-37 0 -62 -36.5t-25 -84.5q0 -38 16 -73q66 0 109 37.5t43 80.5q0 32 -26 54t-55 22zM1766 1429
q-43 0 -93.5 -70t-78.5 -179q60 27 109 64.5t77.5 75t28.5 66.5q0 20 -13.5 31.5t-29.5 11.5zM2014 1644q-12 0 -20.5 -8.5t-8.5 -20.5t8.5 -20.5t20.5 -8.5t20.5 8.5t8.5 20.5t-8.5 20.5t-20.5 8.5zM1413 1110q-47 0 -76 -33.5t-42 -84.5t-13 -102q0 -131 112 -131
q46 0 74.5 34t42 84.5t13.5 100.5q0 62 -27.5 97t-83.5 35zM1998 1526q-30 0 -65 -39t-63 -109q72 4 123 35.5t51 66.5q0 18 -14 32t-32 14zM1884 1310q-31 0 -80.5 -39t-116.5 -111q64 7 116 26.5t83.5 44.5t31.5 48q0 10 -8 20q-9 11 -26 11zM1263 697q18 0 30.5 -13
t12.5 -34q0 -17 -8.5 -28.5t-25.5 -11.5q-21 0 -32 14.5t-11 31.5q0 16 9.5 28.5t24.5 12.5zM1346 861q-75 0 -118 -54t-43 -125q0 -75 53.5 -118t125.5 -43q74 0 117.5 52.5t43.5 125.5q0 75 -53 118.5t-126 43.5zM2125 1479q-12 0 -20.5 -8.5t-8.5 -20.5t8.5 -20.5
t20.5 -8.5t20.5 8.5t8.5 20.5t-8.5 20.5t-20.5 8.5zM2042 1379q-12 0 -20.5 -8.5t-8.5 -20.5t8.5 -20.5t20.5 -8.5t20.5 8.5t8.5 20.5t-8.5 20.5t-20.5 8.5zM1248 590q-10 -84 -47.5 -166.5t-92.5 -149.5t-117.5 -107t-122.5 -40v8v9q0 38 -21 62.5t-53 24.5q-39 0 -62 -23
t-23 -60q0 -45 40.5 -74t104.5 -29q73 0 148 43t140.5 116t111 165t59.5 190zM1428 667q35 0 35 -36q0 -18 -12.5 -33t-32.5 -15q-15 0 -26 10t-11 27q0 22 15.5 34.5t31.5 12.5zM1633 1087q104 -113 198 -164t197 -51q82 0 82 51q0 27 -38.5 51t-106.5 39zM1843 1864
q-88 0 -157.5 -58.5t-124.5 -179.5l15 -82q63 98 103.5 150t74 71t72.5 19q62 0 127.5 -28.5t121.5 -74.5t90.5 -100t34.5 -105t-41.5 -108t-125 -119.5t-209.5 -131.5q116 -28 195 -54t130 -60t84 -86t56.5 -131.5t47.5 -195.5q26 -123 40 -203t14 -125q0 -38 -16 -60
t-40 -22q-57 0 -147.5 48.5t-196 129.5t-209.5 180t-188.5 201.5t-131.5 191.5l-49 -33q56 -107 147.5 -220t203 -217t227 -186.5t219 -131t178.5 -48.5q41 0 61.5 32.5t20.5 106.5q0 61 -14 153t-41 223q-32 156 -62 252t-71.5 151t-107.5 85.5t-171 54.5q76 29 138.5 81.5
t100 114t37.5 118.5q0 68 -39.5 138t-103.5 128.5t-141 94.5t-152 36zM1608 982q-1 -10 -1.5 -14.5t-0.5 -8.5q0 -62 47.5 -148t135.5 -180q50 -54 94 -85.5t69 -31.5t25 27q0 34 -39 94t-98 119zM1899 820q52 -68 91 -106.5t74.5 -54t76.5 -15.5q75 0 75 67q0 54 -89 69z
M1430 553l-72 -3q-4 -41 -7 -71.5t-3 -58.5q0 -91 24.5 -183t69 -169t106 -123.5t134.5 -46.5q51 0 78.5 23t27.5 67q0 38 -23.5 58.5t-58.5 20.5t-55.5 -21t-28.5 -55q-57 13 -103 81.5t-73.5 162.5t-27.5 186q0 29 3 60t9 72zM2057 592q12 -54 55 -95t87 -41
q23 0 37.5 15.5t14.5 41.5q0 47 -76 59zM2072 451q-12 0 -20.5 -8.5t-8.5 -20.5t8.5 -20.5t20.5 -8.5t20.5 8.5t8.5 20.5t-8.5 20.5t-20.5 8.5zM2170 377q-13 0 -23 -10t-10 -23q0 -14 10 -23.5t23 -9.5q14 0 23.5 9.5t9.5 23.5q0 13 -9.5 23t-23.5 10zM2290 431
q-12 0 -20.5 -8.5t-8.5 -20.5t8.5 -20.5t20.5 -8.5t20.5 8.5t8.5 20.5t-8.5 20.5t-20.5 8.5zM2295 329q-17 0 -29 -12t-12 -29t12 -29t29 -12t29 12t12 29t-12 29t-29 12z" />
</svg>