<?xml version="1.0" standalone="no"?>
<!DOCTYPE svg PUBLIC "-//W3C//DTD SVG 1.1//EN" "http://www.w3.org/Graphics/SVG/1.1/DTD/svg11.dtd">
<svg xmlns="http://www.w3.org/2000/svg" xmlns:xlink="http://www.w3.org/1999/xlink" version="1.1"
   viewBox="94 -151 2414 2169">
   <path fill="currentColor"
      d="M1300 1978q-216 0 -404.5 -80.5t-331.5 -223.5t-223.5 -331.5t-80.5 -404.5t80.5 -404.5t223.5 -331.5t331.5 -223.5t404.5 -80.5q215 0 403.5 80.5t331.5 223.5t224 331.5t81 404.5t-81 404.5t-224 331.5t-331.5 223.5t-403.5 80.5zM1098 1694l-80 -10q3 -18 4 -32
t1 -27q0 -157 -144 -252l44 -66q180 121 180 318q0 15 -1.5 32t-3.5 37zM1033 1507l-42 -68q153 -73 309 -73q154 0 309 72l-41 69q-131 -61 -268 -61q-135 0 -267 61zM925 1126q-54 0 -92 -44t-38 -107q0 -13 21.5 -29t70.5 -38l20 -9q58 -26 71.5 -30.5t29.5 -4.5
q55 0 55 97q0 67 -41 116t-97 49zM1502 1694q-2 -20 -3.5 -37t-1.5 -32q0 -194 182 -316l42 64q-144 95 -144 252q0 13 1 27t4 32zM653 814l-18 -67q116 -32 185.5 -74t110.5 -106l59 39q-49 74 -129.5 124t-207.5 84zM1300 1898q199 0 373 -74.5t306 -206.5t206.5 -306
t74.5 -373t-74.5 -373t-206.5 -306t-306 -206.5t-373 -74.5t-373 74.5t-306 206.5t-206.5 306t-74.5 373t74.5 373t206.5 306t306 206.5t373 74.5zM1676 1126q-57 0 -98 -49t-41 -116q0 -97 56 -97q16 0 29.5 4.5t70.5 30.5l20 9q50 22 71 38t21 29q0 63 -37.5 107t-91.5 44
zM1947 684q-126 -35 -206.5 -84.5t-129.5 -123.5l58 -39q42 64 111.5 106t184.5 74z" />
</svg>