<?xml version="1.0" standalone="no"?>
<!DOCTYPE svg PUBLIC "-//W3C//DTD SVG 1.1//EN" "http://www.w3.org/Graphics/SVG/1.1/DTD/svg11.dtd">
<svg xmlns="http://www.w3.org/2000/svg" xmlns:xlink="http://www.w3.org/1999/xlink" version="1.1"
   viewBox="94 -151 2414 2169">
   <path fill="currentColor"
      d="M80 1778v-1370q0 -154 78 -232t231 -78h1822q153 0 231 78t78 232v1370h-282v-1370q0 -27 -7.5 -35t-33.5 -8h-1794q-25 0 -33 8t-8 35v1370h-282zM556 1634v-1016h80v1016h-80zM362 1778l-29 -76l256 -119h1422l256 119l-29 76l-241 -113h-1394zM819 1643
q-13 -167 -19.5 -285t-6.5 -226t6.5 -226t19.5 -284q-20 -88 -28 -159t-8 -128h38q0 54 7.5 124.5t28.5 162.5q-13 166 -19.5 284t-6.5 225q0 108 6.5 225.5t19.5 284.5zM1300 1410q-166 0 -351.5 -17.5t-353.5 -59.5q-87 6 -153 7t-118 1v-38q53 0 118.5 -1t152.5 -7
q149 37 330.5 57t373.5 20t375 -20t331 -57q87 6 153 7t118 1v38q-52 0 -118 -1t-153 -7q-168 42 -353 59.5t-352 17.5zM1056 1643q-13 -167 -19.5 -285t-6.5 -226t6.5 -226t19.5 -284q-20 -88 -28 -160t-8 -127h38q0 54 7.5 124.5t28.5 162.5q-13 166 -19.5 284t-6.5 225
q0 108 6.5 225.5t19.5 284.5zM1300 1137q-166 0 -351.5 -17.5t-353.5 -59.5q-87 6 -153 7t-118 1v-38q53 0 118.5 -1t152.5 -7q149 37 330.5 57t373.5 20t375 -20t331 -57q87 6 153 7t118 1v38q-52 0 -118 -1t-153 -7q-168 42 -353 59.5t-352 17.5zM1283 1642v-1019
q-22 -95 -31 -165.5t-9 -122.5h38q0 52 10.5 127.5t29.5 155.5v1024h-38zM160 1698h122v-1290q0 -71 24.5 -97t96.5 -26h1794q72 0 96.5 26t24.5 97v1290h122v-1290q0 -120 -55 -175t-174 -55h-1822q-119 0 -174 55t-55 175v1290zM1300 884q-166 0 -351.5 -17.5
t-353.5 -59.5q-87 5 -153 6t-118 1v-38q53 0 118.5 -1t152.5 -6q149 37 330.5 57t373.5 20t375 -20t331 -57q87 5 153 6t118 1v38q-52 0 -118 -1t-153 -6q-168 42 -353 59.5t-352 17.5zM1506 1641q13 -167 19.5 -284.5t6.5 -225.5q0 -107 -6.5 -225t-19.5 -284
q21 -92 28.5 -162.5t7.5 -124.5h38q0 55 -8 127t-28 160q13 166 19.5 284t6.5 226t-6.5 226t-19.5 285zM1743 1641q13 -167 19.5 -284.5t6.5 -225.5q0 -107 -6.5 -225t-19.5 -284q21 -92 28.5 -162.5t7.5 -124.5h38q0 57 -8 128t-28 159q13 166 19.5 284t6.5 226t-6.5 226
t-19.5 285zM578 670l-277 -297l62 -56l251 271h1372l251 -271l62 56l-277 297h-1444zM1964 1634v-1016h80v1016h-80z" />
</svg>