<?xml version="1.0" standalone="no"?>
<!DOCTYPE svg PUBLIC "-//W3C//DTD SVG 1.1//EN" "http://www.w3.org/Graphics/SVG/1.1/DTD/svg11.dtd">
<svg xmlns="http://www.w3.org/2000/svg" xmlns:xlink="http://www.w3.org/1999/xlink" version="1.1"
   viewBox="94 -151 2414 2169">
   <path fill="currentColor"
      d="M596 1878q-46 -19 -106.5 -63.5t-123 -104t-118 -123.5t-94 -122.5t-49.5 -100.5q130 -12 222 -31t153.5 -54t99 -94t58.5 -150q26 -116 68.5 -180t104 -90t143.5 -26q110 0 172.5 -22t97 -85t58.5 -185q20 -104 54.5 -142.5t92.5 -38.5q37 0 80.5 12t85.5 24.5t75 12.5
q60 0 101.5 -44.5t65.5 -117t28 -155.5q112 0 227.5 35t219.5 95t183 136q-43 146 -100 245.5t-142 163t-214 102.5q-63 19 -101 35.5t-62 40t-44.5 62.5t-49.5 102q-32 71 -70.5 115t-94.5 68t-143 37q-85 12 -143.5 31.5t-102.5 52.5t-84 86.5t-87 134.5q-57 97 -104 158
t-96.5 96.5t-111.5 54t-149 29.5zM476 1730l-74 -65q70 -17 141.5 -46.5t131.5 -65t97 -69.5t37 -60q0 -8 -7.5 -14.5t-18.5 -6.5q-12 0 -34.5 11.5t-55.5 31.5q-55 32 -125.5 61.5t-140.5 48.5t-124 20l-37 -70q49 -4 121 -22.5t141 -43.5t108 -46q45 -25 88.5 -54t77 -74
t45.5 -115q15 -85 47 -130.5t104.5 -64.5t206.5 -23q123 -4 185.5 -24.5t88.5 -71t38 -144.5q11 -83 69 -127t172 -49q114 -6 190.5 -50.5t123.5 -138t74 -246.5l117 64q-51 166 -108 265.5t-131 145t-178 51.5q-210 12 -232 163q-12 84 -31 135t-55 78.5t-99.5 39.5
t-164.5 18q-116 7 -178 28.5t-90.5 71t-44.5 142.5q-30 174 -148 282.5t-327 163.5zM604 1796q71 -10 121 -25.5t91 -47t83.5 -88.5t97.5 -150q52 -89 98 -147t97 -94t116.5 -56t156.5 -33q78 -11 121.5 -28.5t72 -53.5t58.5 -104q32 -70 58.5 -114.5t58 -72t78 -47.5
t116.5 -41q111 -34 180.5 -85.5t115.5 -128.5t86 -185q-91 -86 -221 -141t-258 -74q-9 85 -43 157t-86.5 115t-119.5 43q-38 0 -84.5 -12.5t-90 -24.5t-72.5 -12q-32 0 -47 29.5t-30 98.5q-23 105 -52.5 171t-73 103t-108.5 52t-158 18q-85 2 -132 24t-73 75t-48 150
q-27 120 -86 192.5t-157 111.5t-243 60q35 55 97.5 123.5t136.5 133t143 108.5z" />
</svg>