<?xml version="1.0" standalone="no"?>
<!DOCTYPE svg PUBLIC "-//W3C//DTD SVG 1.1//EN" "http://www.w3.org/Graphics/SVG/1.1/DTD/svg11.dtd">
<svg xmlns="http://www.w3.org/2000/svg" xmlns:xlink="http://www.w3.org/1999/xlink" version="1.1"
   viewBox="94 -151 2414 2169">
   <path fill="currentColor"
      d="M522 1978v-2080l758 2l126 215l-246 309l15 62l-73 149l76 200l-92 146l22 202l57 112l100 683h-743zM592 1908h592l-86 -592l-58 -112l-27 -240l87 -136l-75 -196l76 -154l-17 -71l237 -298l-80 -139l-649 -2v1940zM1191 1393q-38 0 -71 -40l-55 -67q-40 -49 -40 -91
q0 -28 18 -45t45 -17q29 0 57.5 21.5t53.5 56.5h-30q0 -137 49 -222.5t122.5 -125.5t146.5 -40q32 0 107.5 6t152.5 17l-36 213q-50 -19 -109 -28.5t-95 -9.5q-71 0 -124 34.5t-82 91.5t-29 125q0 55 -22 88t-59 33zM1523 1888q-31 0 -48.5 -17t-17.5 -43q0 -38 37 -69.5
t77 -41.5q-29 -59 -59 -129.5t-50.5 -141.5t-20.5 -128q0 -44 17 -91t59 -115t118 -175l57 203q-40 -8 -68.5 -54t-43.5 -121t-15 -167q0 -99 17 -175.5t49.5 -120.5t76.5 -44q46 0 84 47t60.5 125t22.5 172q0 143 -28.5 233.5t-108.5 164.5q-40 37 -75.5 78.5t-35.5 91.5
t17.5 106.5t41 109.5t41 94t17.5 61q0 19 -14 39.5t-50 40.5l-76 43q-42 24 -81 24zM1479 720q-45 0 -105 -12.5t-117.5 -37.5t-95 -61t-37.5 -82q0 -31 23.5 -54.5t46.5 -23.5q20 0 39 11.5t44 34.5q32 29 79.5 59t121.5 30q47 0 97 -9.5t90 -29.5l23 138q-36 12 -99 24.5
t-110 12.5zM1784 999q-69 -9 -151 -60.5t-161.5 -142t-143 -217.5t-95.5 -286l41 -52q27 162 85.5 289.5t133 217.5t152 141t142.5 60zM1634 577q-60 -14 -113.5 -59t-94.5 -108t-64 -132.5t-23 -132.5q0 -107 77 -107q30 0 48 19t18 55q0 98 13.5 163.5t59.5 112.5t142 88z
M1743 454q45 -18 68.5 -41.5t44.5 -57.5q-10 -7 -21 -9.5t-22 -2.5q-10 0 -22 -1t-29 -8q-7 22 -18.5 48t-24.5 51zM1806 502q-91 0 -155.5 -64.5t-64.5 -155.5q0 -39 13 -71q-28 -13 -28 -31q0 -8 8 -23q35 -64 99 -100.5t140 -36.5q112 0 186 71.5t74 178.5
q0 139 -130 224q-23 0 -49 -13q-42 21 -93 21zM1940 437q88 -61 88 -167q0 -88 -59 -144t-151 -56q-61 0 -114.5 25.5t-73.5 73.5q29 9 54 19t39 20q26 18 33.5 44t18.5 35q8 6 22 8.5t33 2.5q43 0 59.5 16t16.5 47q0 14 -2 25t-2 21q0 13 7.5 20.5t30.5 9.5z" />
</svg>