<?xml version="1.0" standalone="no"?>
<!DOCTYPE svg PUBLIC "-//W3C//DTD SVG 1.1//EN" "http://www.w3.org/Graphics/SVG/1.1/DTD/svg11.dtd">
<svg xmlns="http://www.w3.org/2000/svg" xmlns:xlink="http://www.w3.org/1999/xlink" version="1.1"
   viewBox="94 -151 2414 2169">
   <path fill="currentColor"
      d="M577 1978q-61 0 -101.5 -40.5t-40.5 -101.5v-1256q0 -61 40.5 -101.5t101.5 -40.5h1446q61 0 101.5 40.5t40.5 101.5v1256q0 61 -40.5 101.5t-101.5 40.5h-1446zM372 1698q-61 0 -101.5 -40.5t-40.5 -101.5v-693q0 -61 40.5 -101.5t101.5 -40.5h103v80h-103q-28 0 -45 17
t-17 45v693q0 28 17 45t45 17h103v80h-103zM970 1666v-230h60v230h-60zM1120 1666v-230h60v230h-60zM960 1706q-67 0 -109.5 -43t-42.5 -112q0 -70 42 -112.5t110 -42.5h680q68 0 110 42.5t42 112.5q0 69 -42 112t-110 43h-680zM960 1626h680q35 0 53.5 -19.5t18.5 -55.5
q0 -37 -18.5 -56t-53.5 -19h-680q-35 0 -53.5 19t-18.5 56q0 36 19 55.5t53 19.5zM1270 1666v-230h60v230h-60zM1420 1666v-230h60v230h-60zM943 1215q-64 0 -117.5 -31.5t-85 -85t-31.5 -117.5t31.5 -117t85 -84.5t117.5 -31.5q65 0 118 31.5t84.5 84.5t31.5 117
t-31.5 117.5t-84.5 85t-118 31.5zM943 1135q64 0 109 -45t45 -109q0 -63 -45 -108t-109 -45t-109 45t-45 108q0 64 45 109t109 45zM1570 1666v-230h60v230h-60zM577 1898h1446q28 0 45 -17t17 -45v-1256q0 -28 -17 -45t-45 -17h-1446q-28 0 -45 17t-17 45v1256q0 28 17 45
t45 17zM1176 1322q-8 0 -11.5 -8t0.5 -15l118 -208q7 -12 17 -12t17 12l118 208q5 7 1 15t-12 8h-248zM1657 1215q-64 0 -117.5 -31.5t-85 -85t-31.5 -117.5t31.5 -117t85 -84.5t117.5 -31.5q65 0 118 31.5t84.5 84.5t31.5 117t-31.5 117.5t-84.5 85t-118 31.5zM1657 1135
q64 0 109 -45t45 -109q0 -63 -45 -108t-109 -45t-109 45t-45 108q0 64 45 109t109 45zM1250 478v-167h100v167h-100zM2125 1698v-80h103q28 0 45 -17t17 -45v-693q0 -28 -17 -45t-45 -17h-103v-80h103q61 0 101.5 40.5t40.5 101.5v693q0 61 -40.5 101.5t-101.5 40.5h-103z
M1300 351q-62 0 -114 -30.5t-82.5 -82t-30.5 -113.5q0 -63 30.5 -114.5t82.5 -82t114 -30.5t113 31t81.5 82.5t30.5 113.5t-30.5 113.5t-81.5 82t-113 30.5zM1300 271q59 0 102 -43t43 -103t-43 -103.5t-102 -43.5q-61 0 -104 43t-43 104q0 60 43 103t104 43zM1299 177
q21 0 36.5 -15.5t15.5 -36.5t-15.5 -36.5t-36.5 -15.5t-36.5 15.5t-15.5 36.5t15.5 36.5t36.5 15.5z" />
</svg>