<?xml version="1.0" standalone="no"?>
<!DOCTYPE svg PUBLIC "-//W3C//DTD SVG 1.1//EN" "http://www.w3.org/Graphics/SVG/1.1/DTD/svg11.dtd">
<svg xmlns="http://www.w3.org/2000/svg" xmlns:xlink="http://www.w3.org/1999/xlink" version="1.1"
   viewBox="94 -151 2414 2169">
   <path fill="currentColor"
      d="M2187 1491l-33 -91q134 -174 200 -368.5t66 -414.5q0 -178 -74.5 -311t-209 -207t-313.5 -74q-204 0 -358.5 77.5t-241 213.5t-86.5 313q0 49 9 97.5t29 98.5l-66 57q-29 -61 -40.5 -125t-11.5 -128q0 -151 57 -275.5t160.5 -215.5t243.5 -140.5t305 -49.5
q200 0 352.5 85t238.5 236t86 348q0 247 -78.5 465t-234.5 409zM532 1265q-19 0 -34.5 -12t-15.5 -28q0 -15 19.5 -36.5t33.5 -21.5q9 0 26.5 18.5t17.5 28.5q0 51 -47 51zM406 1129q-8 0 -26 -18.5t-33 -40.5t-15 -32q8 -5 27.5 -14t38.5 -16.5t25 -7.5q8 0 8 15
q0 14 -5 41.5t-11 50t-9 22.5zM329 832q-52 0 -52 -35t10 -50t34 -15q50 0 50 50q0 20 -12.5 35t-29.5 15zM1358 1928q-158 0 -278 -31.5t-233 -101.5l52 -64q101 66 208.5 92.5t250.5 26.5q134 0 260.5 -38.5t235.5 -111.5l62 59q-121 79 -263.5 124t-294.5 45zM688 1926
q-91 0 -158 -63t-67 -158q0 -38 12 -78t36 -78q64 -100 153 -216.5t192.5 -230t210 -207t205.5 -149.5t179 -56q104 0 165.5 68t61.5 163q0 65 -33.5 115.5t-91.5 85.5q-184 111 -345 285.5t-310 391.5q-42 61 -94 94t-116 33zM688 1846q41 0 76 -22t68 -70
q171 -251 339 -423t341 -278q86 -53 86 -132q0 -67 -41 -109t-106 -42q-55 0 -134 43.5t-173 121.5t-193.5 182t-195 225t-176.5 250q-36 57 -36 113q0 59 42 100t103 41zM1048 1280q-24 0 -40 -23.5t-16 -42.5q0 -18 19 -34t41 -16q14 0 33 19t19 37t-17.5 39t-38.5 21z
M1358 1579q-153 0 -287 -68l62 -56q104 46 225 46t225 -46l62 56q-134 68 -287 68zM539 1584q-217 -193 -328 -408t-111 -472q0 -212 92 -373.5t257.5 -252.5t386.5 -91q131 0 251 42.5t237 135.5l-54 61q-103 -83 -209 -122t-225 -39q-195 0 -343 77.5t-230.5 220.5
t-82.5 341q0 237 100 434.5t305 379.5zM775 1292q-287 -274 -287 -568q0 -109 46.5 -193.5t130 -133t195.5 -48.5q71 0 139 19.5t135 62.5l-22 88q-59 -47 -116.5 -69.5t-136.5 -22.5q-133 0 -212 84.5t-79 212.5q0 119 57 236.5t182 233.5zM407 459q-49 0 -49 -10
q0 -12 11 -38.5t24 -49.5t19 -23q9 0 22 20t22.5 46.5t9.5 44.5q0 4 -16.5 7t-42.5 3zM1343 1039q-7 0 -20 -17.5t-23.5 -40t-10.5 -35.5q0 -8 21.5 -13.5t52.5 -5.5q37 0 37 8q0 10 -11 35.5t-24.5 47t-21.5 21.5zM1984 1840q-51 0 -98.5 -28t-90.5 -78
q-118 -139 -234.5 -261t-226.5 -225l66 -48q105 100 217 219t225 248q41 46 75 69.5t72 23.5q74 0 129.5 -52t55.5 -128q0 -38 -17 -78.5t-64 -84.5q-122 -114 -250 -207t-253 -177l42 -71q131 87 266 187.5t259 219.5q51 48 74 103t23 109q0 73 -37.5 132t-99 93t-133.5 34
zM1884 1512q-10 0 -25 -23t-15 -44q0 -5 2.5 -13t4.5 -11q31 0 58.5 6t27.5 12q0 10 -10 27.5t-22.5 31.5t-20.5 14zM677 265q-7 0 -24.5 -15t-32 -32.5t-14.5 -24.5q0 -8 29 -14t57 -6q11 0 17.5 2.5t9.5 5.5q0 11 -8 31.5t-18 36.5t-16 16zM942 259q-10 0 -26 -8t-39 -27
q0 -21 17.5 -38t37.5 -17q16 0 28 17t12 39q0 13 -7.5 23.5t-22.5 10.5zM1372 607q-8 0 -25.5 -19t-32 -41.5t-14.5 -32.5q0 -6 15.5 -15.5t35 -17t30.5 -7.5q15 0 15 29q0 27 -8 61t-16 43zM1956 1237l-80 -29q95 -131 136 -265.5t41 -276.5q0 -126 -65 -190.5t-165 -64.5
q-125 0 -199 71t-74 222v17l-75 -28q-1 -7 -1.5 -14.5t-0.5 -14.5q0 -110 46 -184t125 -111.5t177 -37.5q145 0 228.5 91.5t83.5 243.5q0 148 -45 291.5t-132 279.5zM2188 1111q-10 0 -22.5 -27t-12.5 -48q0 -8 19.5 -15.5t38.5 -7.5q17 0 17 13q0 19 -15.5 52t-24.5 33z
M1528 291q-20 0 -46 -25.5t-26 -47.5q0 -8 22.5 -16t45.5 -8q18 0 22 9q0 37 -5 62.5t-13 25.5zM2276 822q-36 0 -36 -54q0 -44 44 -44t44 46q0 16 -16 34t-36 18zM1867 258q-25 0 -49 -12t-24 -24q0 -13 11 -32.5t25 -35t23 -15.5q7 7 15 29t14 45.5t6 38.5q-10 6 -21 6z
M2224 476q-22 0 -48 -8t-37 -17q0 -9 15 -26.5t32.5 -32t26.5 -14.5t22.5 33.5t13.5 57.5q-9 7 -25 7zM2081 277q-14 0 -33 -17t-19 -30q0 -52 71 -52q18 19 18 74q-24 25 -37 25z" />
</svg>