<?xml version="1.0" standalone="no"?>
<!DOCTYPE svg PUBLIC "-//W3C//DTD SVG 1.1//EN" "http://www.w3.org/Graphics/SVG/1.1/DTD/svg11.dtd">
<svg xmlns="http://www.w3.org/2000/svg" xmlns:xlink="http://www.w3.org/1999/xlink" version="1.1"
   viewBox="94 -151 2414 2169">
   <path fill="currentColor"
      d="M1841 1978q-60 0 -113.5 -29t-53.5 -86q0 -26 11.5 -55.5t28.5 -56.5q2 -13 3 -27.5t1 -24.5q0 -20 -2 -60t-5 -81.5t-5 -66.5q-14 -31 -28.5 -56.5t-40.5 -59.5t-76 -92q-49 35 -89.5 54.5t-93.5 28.5q-8 39 -18.5 94.5t-20.5 114t-17 109t-9 80.5q6 18 9.5 37.5
t3.5 36.5q0 63 -46 96t-116 33q-43 0 -74.5 -14t-53.5 -39q-15 6 -45 10.5t-53 4.5q-64 0 -105.5 -31t-41.5 -78q0 -45 26 -71q32 -131 49 -226t17 -156q0 -26 -0.5 -49.5t-1.5 -45.5q-60 -77 -83.5 -152t-23.5 -181q0 -31 3.5 -56t10.5 -56h-15q-59 0 -101.5 -31.5
t-65.5 -79t-23 -95.5q0 -37 18 -67.5t42 -46.5l20 -13q18 -12 32 -32q-73 -76 -106 -128.5t-33 -95.5q0 -54 35 -89.5t89 -35.5q77 0 149.5 46.5t115.5 113.5q23 -6 44 -9.5t41 -3.5q41 0 86 17q60 -83 130.5 -118t181.5 -35q68 0 116.5 26t48.5 79q0 37 -20 64.5t-31 56.5
q-29 75 -58 123t-65 77.5t-87 50.5q-5 27 -12.5 60t-18.5 65q96 -28 166.5 -41t122.5 -13q67 0 118.5 20.5t107.5 81.5q27 -23 58 -38t57 -15q59 0 86 49.5t27 113.5q0 73 -31 127t-89 80q-1 11 -1 24v27q0 36 18.5 86t37.5 104t19 103q0 33 -1.5 65t-1.5 67q0 22 3 63.5
t6 88.5t3 84q0 175 -166 175zM1497 1933q-43 0 -73 -14t-30 -33q0 -16 8 -33.5t21 -38.5q12 -20 22 -70t15.5 -102t5.5 -78q0 -41 -33.5 -101.5t-113.5 -133.5l276 -88q-2 15 -3.5 34t-1.5 45q0 51 15.5 88t31.5 65.5t16 54.5q0 19 -8.5 44t-15.5 57q-10 52 -17 106.5
t-7 71.5q0 73 -26 99.5t-82 26.5zM1841 1897q49 0 66.5 -22.5t17.5 -71.5q0 -20 -3 -65t-6 -93.5t-3 -78.5q0 -20 2.5 -52t2.5 -90q0 -31 -19 -78.5t-37.5 -102.5t-18.5 -109q0 -23 2.5 -48t8.5 -50q54 -6 82 -49t28 -103q0 -32 -8 -57.5t-25 -25.5q-18 0 -53 25t-68 67
q-64 -82 -109.5 -111.5t-110.5 -29.5q-64 0 -173.5 27t-251.5 71q50 -108 66.5 -178t16.5 -122q57 0 95 -29t64 -72.5t45 -87t37 -71.5q11 -17 16.5 -33t5.5 -25q0 -15 -19.5 -21t-63.5 -6q-69 0 -121 10t-94 44t-81 107q-49 -38 -121 -38q-48 0 -85 20q-20 -40 -60.5 -75.5
t-89.5 -57.5t-96 -22q-21 0 -32 11.5t-11 34.5q0 47 39 111t109 121q-8 13 -17.5 23t-20.5 18l-17 11q-15 10 -29 21.5t-22 22.5q26 0 48 9t22 29q0 19 -18 36.5t-53 36.5q14 26 40.5 47.5t62.5 21.5q35 0 68 -4t58 -9q-25 55 -39 103t-14 102q0 95 21.5 160.5t84.5 142.5
q2 28 2.5 59t0.5 66q0 70 -22 172t-50 200q-11 16 -18 35t-7 33q0 42 79 42q49 0 70 -13t21 -43q0 -11 -2.5 -28t-12.5 -33q17 -60 30.5 -140t21.5 -161t8 -140q23 4 38 5.5t42 1.5q0 43 -5.5 105.5t-15 131t-21.5 131t-24 105.5q-9 16 -15.5 38t-6.5 35q0 19 20.5 31
t66.5 12q35 0 61.5 -12.5t26.5 -39.5q0 -13 -3.5 -30t-9.5 -29q0 -32 7.5 -100t19.5 -145.5t24 -142.5t21 -92q42 0 97 -14.5t107 -37t82 -46.5q74 85 115 140t58.5 89.5t19.5 58.5q3 23 5.5 62t4.5 78.5t2 62.5q0 58 -21.5 97t-21.5 77q0 19 31.5 26.5t54.5 7.5zM841 412
q-24 0 -56.5 -27.5t-57 -64t-24.5 -63.5q32 0 68 22t61 53.5t25 59.5q0 20 -16 20zM1021 568q-18 0 -30.5 -14.5t-12.5 -33.5q0 -20 12.5 -34t30.5 -14t30.5 14t12.5 34q0 19 -12.5 33.5t-30.5 14.5zM927 279l-194 -94l-90 -199l67 -16l49 111l7 -88l72 7l-15 173l36 52
l4 -103l71 13zM668 13q-23 0 -40.5 -18t-17.5 -43q0 -23 15 -38.5t36 -15.5q23 0 40.5 18t17.5 44q0 22 -14.5 37.5t-36.5 15.5zM901 169q-19 0 -31 -15.5t-12 -36.5t12 -36.5t31 -15.5t30.5 15.5t11.5 36.5t-12 36.5t-30 15.5zM805 23q-19 0 -32.5 -15.5t-13.5 -36.5
q0 -20 13.5 -35.5t32.5 -15.5t32.5 15.5t13.5 35.5q0 21 -13.5 36.5t-32.5 15.5zM1249 483q-21 0 -38 -15t-17 -39q0 -34 31.5 -69.5t79.5 -60t97 -26.5q-18 85 -63 147.5t-90 62.5zM1156 149q-18 0 -30.5 -15t-12.5 -37t12.5 -37t30.5 -15t30 15t12 37t-12 37t-30 15z
M1125 409l-53 -25l36 -105l13 -169h70l-12 117l46 -38l17 -200l68 -7l-4 121l63 -136l70 7l-103 227q-59 15 -121 68.5t-90 139.5zM1273 38q-17 0 -29 -14.5t-12 -34.5q0 -23 13 -39t32 -16q17 0 28.5 14t11.5 35q0 22 -12.5 38.5t-31.5 16.5zM1403 8q-18 0 -30 -14t-12 -34
q0 -23 16.5 -42t37.5 -19q18 0 30 14t12 34q0 23 -16.5 42t-37.5 19z" />
</svg>