<?xml version="1.0" standalone="no"?>
<!DOCTYPE svg PUBLIC "-//W3C//DTD SVG 1.1//EN" "http://www.w3.org/Graphics/SVG/1.1/DTD/svg11.dtd">
<svg xmlns="http://www.w3.org/2000/svg" xmlns:xlink="http://www.w3.org/1999/xlink" version="1.1"
   viewBox="94 -151 2414 2169">
   <path fill="currentColor"
      d="M1047 1947q-170 -42 -313.5 -136t-250 -228t-165 -298t-58.5 -347q0 -216 80.5 -404.5t223.5 -331.5t331.5 -223.5t404.5 -80.5q215 0 403.5 80.5t331.5 223.5t224 331.5t81 404.5q0 183 -58.5 347t-165 298t-250 228t-313.5 136l38 -94q146 -46 268 -134t212 -208.5
t139.5 -266t49.5 -306.5q0 -199 -74.5 -373t-206.5 -306t-306 -206.5t-373 -74.5t-373 74.5t-306 206.5t-206.5 306t-74.5 373q0 161 49.5 306.5t139.5 266t212.5 208.5t267.5 134zM1286 1886v-67l38 -3v70h-38zM1286 1787v-133l38 17v111zM1294 1831q-22 0 -51 -7t-54 -22
v-62q26 17 55 25.5t51 8.5h16q22 0 35.5 -11t13.5 -34q0 -14 -10.5 -27t-38.5 -25l-14 -6q-55 -23 -81 -50t-26 -67q0 -48 33 -72t81 -24q23 0 48.5 6t49.5 20l-14 54q-19 -11 -39 -17t-39 -6h-11q-52 0 -52 38q0 17 12 29t40 25l11 5q58 26 80.5 52.5t22.5 63.5
q0 47 -30.5 75t-77.5 28h-11zM1293 2028q-171 0 -275 -88.5t-104 -234.5v-463q101 14 195 21t191 7q98 0 191.5 -7t194.5 -21v463q0 146 -104 234.5t-275 88.5h-14zM1293 1948h14q137 0 218 -65.5t81 -177.5v-405q-85 12 -162.5 18.5t-143.5 6.5t-143.5 -6.5t-162.5 -18.5
v405q0 112 81 177.5t218 65.5zM1324 1654l-39 -19v-220h39v239zM969 1669q-97 -46 -177 -111t-128 -140t-48 -150q0 -50 28 -68.5t65 -18.5q44 0 132.5 16t207 32t251.5 16t251.5 -16t207.5 -32t132 -16q37 0 65 18.5t28 68.5q0 75 -48 150t-128 140t-177 111v-386h-662v386
zM907 1042v-83l45 -4v87h-45zM907 919v-161l45 22v133zM917 974q-28 0 -60 -9t-62 -27v-74q31 22 63.5 32.5t60.5 10.5h19q61 0 61 -54q0 -37 -55 -64l-18 -9q-67 -34 -99.5 -62.5t-32.5 -76.5q0 -60 38.5 -90.5t96.5 -30.5q29 0 60 7.5t61 25.5l-17 62q-23 -14 -47 -21
t-43 -7h-20q-30 0 -46.5 13t-16.5 36q0 22 13.5 37t44.5 29l13 6q73 34 100.5 66.5t27.5 76.5q0 55 -35.5 89t-93.5 34h-13zM952 758l-45 -22v-268h45v290zM736 401l-48 -64q154 -114 356 -114v80q-91 0 -165.5 23.5t-142.5 74.5zM1656 1042v-83l45 -4v87h-45zM1656 919
v-161l45 22v133zM1666 974q-28 0 -60 -9t-62 -27v-74q31 22 63.5 32.5t60.5 10.5h19q61 0 61 -54q0 -37 -55 -64l-18 -9q-67 -34 -99.5 -62.5t-32.5 -76.5q0 -60 38.5 -90.5t96.5 -30.5q29 0 60 7.5t61 25.5l-17 62q-23 -14 -47 -21t-43 -7h-20q-30 0 -46.5 13t-16.5 36
q0 22 13.5 37t44.5 29l13 6q73 34 100.5 66.5t27.5 76.5q0 55 -35.5 89t-93.5 34h-13zM1701 758l-45 -22v-268h45v290zM1864 401q-68 -51 -142 -74.5t-166 -23.5v-80q202 0 356 114z" />
</svg>