<?xml version="1.0" standalone="no"?>
<!DOCTYPE svg PUBLIC "-//W3C//DTD SVG 1.1//EN" "http://www.w3.org/Graphics/SVG/1.1/DTD/svg11.dtd">
<svg xmlns="http://www.w3.org/2000/svg" xmlns:xlink="http://www.w3.org/1999/xlink" version="1.1"
   viewBox="94 -151 2414 2169">
   <path fill="currentColor"
      d="M1343 1978q-117 0 -220 -43t-182 -119t-123.5 -176t-44.5 -213q0 -129 60 -242t165 -191t238 -103l9 78q-114 23 -202.5 89.5t-139 162t-50.5 205.5q0 129 66.5 236.5t178 171.5t245.5 64q135 0 246.5 -64t178.5 -171.5t67 -236.5q0 -110 -51 -205.5t-140 -162.5
t-204 -89l11 -78q133 24 238 102t165.5 191t60.5 243q0 113 -44.5 213t-123.5 176t-182.5 119t-221.5 43zM1334 1724v-399q0 -43 1 -66t2 -48q-30 27 -70 57l-66 51l-50 -61l193 -150h70v616h-80zM1306 941q30 0 30 -32v-69q0 -31 -30 -31t-30 31v69q0 32 30 32zM1344 990
q-76 0 -133 -27v-199q0 -30 33 -30h200q33 0 33 30v199q-57 27 -133 27zM1241 892l-296 -143v-203h796v203l-297 143l-17 -83l228 -111v-72h-624v72l227 111zM1021 594l-381 -694h598l309 687l-82 14l-278 -621h-412l331 602zM1513 599l-186 -420l150 -281h483l-390 701h-57
z" />
</svg>