<?xml version="1.0" standalone="no"?>
<!DOCTYPE svg PUBLIC "-//W3C//DTD SVG 1.1//EN" "http://www.w3.org/Graphics/SVG/1.1/DTD/svg11.dtd">
<svg xmlns="http://www.w3.org/2000/svg" xmlns:xlink="http://www.w3.org/1999/xlink" version="1.1"
   viewBox="94 -151 2414 2169">
   <path fill="currentColor"
      d="M2147 1978q-40 0 -73 -35q-73 -77 -172 -192.5t-211 -246.5t-226 -257t-218.5 -227t-188.5 -153q-24 -8 -62.5 -9.5t-86.5 -1.5q-127 0 -244 -56.5t-208 -154.5t-144 -224t-53 -266q0 -125 66.5 -191t190.5 -66q140 0 266.5 53t224.5 145t154.5 209t56.5 246q0 47 1.5 87
t9.5 64q52 83 153 186.5t228 215.5t258 222t246 208.5t191 174.5q34 34 34 74q0 38 -31.5 84t-76 78.5t-85.5 32.5zM807 676q24 5 40 -8t16 -34q0 -42 -42 -52q-69 -17 -133.5 -77.5t-111 -147t-61.5 -181.5q-7 -43 -47 -43q-24 0 -37.5 18t-9.5 43q22 117 80 220t138 173
t168 89z" />
</svg>