<?xml version="1.0" standalone="no"?>
<!DOCTYPE svg PUBLIC "-//W3C//DTD SVG 1.1//EN" "http://www.w3.org/Graphics/SVG/1.1/DTD/svg11.dtd">
<svg xmlns="http://www.w3.org/2000/svg" xmlns:xlink="http://www.w3.org/1999/xlink" version="1.1"
   viewBox="94 -151 2414 2169">
   <path fill="currentColor"
      d="M319 1878q-44 0 -74.5 -26.5t-30.5 -66.5q0 -26 11 -50.5t30 -47.5l392 -455q147 -171 248 -281t172.5 -172t127 -87t110.5 -25q86 0 161 46.5t122 122t47 161.5q0 71 -43 138.5t-140.5 144.5t-262.5 178l-105 64q-174 106 -329 186t-269.5 125t-166.5 45zM513 1613
q-15 -24 -32.5 -37.5t-45.5 -25.5l51 -67q25 14 51 37t45 52zM837 1463q-24 -54 -81 -85l38 -70q86 48 119 128zM319 1798q43 0 152 -44.5t258.5 -122.5t312.5 -177l105 -64q152 -93 241.5 -161.5t128 -124t38.5 -107.5q0 -64 -36 -121t-93 -93t-121 -36q-42 0 -88.5 23.5
t-111 82.5t-160 164t-236.5 267l-394 455q-21 25 -21 46q0 13 25 13zM972 1193q-29 -47 -63 -77t-64 -49l52 -62q36 24 73 59.5t68 83.5zM1314 1102q-29 -47 -58.5 -83.5t-66.5 -65.5l53 -60q35 30 69.5 70t69.5 96zM1972 930q-48 0 -90.5 -19.5t-77.5 -53.5l-63 -63
l-143 129l-38 -74l147 -132q20 -17 37.5 -17t32.5 16l84 85q47 49 111 49q59 0 104.5 -38.5t45.5 -87.5q0 -53 -37 -90t-93 -37v-80q59 0 106.5 28t75.5 75t28 104q0 55 -32 102t-84.5 75.5t-113.5 28.5zM2166 770l-8 -80q59 -5 103.5 -48t44.5 -102q0 -71 -56.5 -120
t-130.5 -49q8 -26 10.5 -47t2.5 -37q0 -87 -64.5 -148t-151.5 -61q-55 0 -103 27t-77 77q-26 -16 -47 -22.5t-46 -6.5q-67 0 -109 42t-42 110q0 47 20.5 84t48 68t48 60t20.5 60q0 40 -34.5 75t-100.5 85l-16 12l-82 -38q59 -41 106 -78t47 -56q0 -14 -20.5 -37t-48 -56
t-48 -77.5t-20.5 -101.5q0 -67 30 -119.5t82.5 -82.5t118.5 -30q37 0 68 10q41 -41 94 -63t111 -22q80 0 147.5 39t108 104.5t40.5 145.5q0 7 -0.5 14t-1.5 15q75 19 125.5 81.5t50.5 142.5q0 60 -30 110t-80 82t-110 38z" />
</svg>