<?xml version="1.0" standalone="no"?>
<!DOCTYPE svg PUBLIC "-//W3C//DTD SVG 1.1//EN" "http://www.w3.org/Graphics/SVG/1.1/DTD/svg11.dtd">
<svg xmlns="http://www.w3.org/2000/svg" xmlns:xlink="http://www.w3.org/1999/xlink" version="1.1"
   viewBox="94 -151 2414 2169">
   <path fill="currentColor"
      d="M1062 1978l-78 -21q26 -160 39.5 -284t13.5 -234q0 -182 -25 -319t-58.5 -250t-58.5 -221.5t-25 -232.5q0 -142 43.5 -249.5t122 -168.5t182.5 -61q83 0 150.5 25.5t131.5 81.5l-58 60q-54 -49 -104.5 -69t-119.5 -20q-121 0 -194.5 109.5t-73.5 291.5q0 111 25 217.5
t58.5 224t58.5 259t25 322.5q0 115 -14 244.5t-41 294.5zM505 1399q-52 -69 -77 -141t-25 -142q0 -130 80 -231.5t199 -153.5q99 139 99 287q0 131 -77 228.5t-199 152.5zM530 1303q86 -52 131.5 -125t45.5 -160q0 -97 -51 -190q-84 50 -131.5 126t-47.5 162q0 95 53 187z
M1496 1619q-121 -38 -198 -126t-77 -212q0 -54 17 -110.5t48 -111.5q120 37 198.5 130.5t78.5 210.5q0 102 -67 219zM1458 1520q27 -65 27 -120q0 -74 -43.5 -138.5t-117.5 -103.5q-25 62 -25 123q0 77 41.5 139t117.5 100zM707 804l-75 -30q34 -77 90.5 -116.5t132.5 -39.5
q39 0 89 11l-17 78q-43 -9 -72 -9q-50 0 -87 25.5t-61 80.5zM1284 1142q-25 -71 -57.5 -105t-67.5 -34q-46 0 -107 39l-44 -67q41 -26 78.5 -39t72.5 -13q65 0 116 49.5t84 142.5zM1906 1809q-57 0 -115.5 -41.5t-98.5 -103.5t-40 -121q0 -28 12 -52t26 -24q11 0 19.5 18.5
t24.5 34.5q21 19 58.5 33.5t70.5 50.5q27 29 39.5 55.5t29.5 50.5q15 21 29 34.5t14 26.5q0 14 -20 26t-49 12zM1491 1016q-61 0 -111 -49.5t-50 -117.5q0 -34 6 -72.5t6 -87.5t-6 -84t-13.5 -69.5t-13.5 -80.5t-6 -118l82 16q0 72 9.5 119t18.5 94.5t9 122.5q0 44 -6 87.5
t-6 72.5q0 31 18.5 59.5t51.5 42.5l26 64q-4 1 -7.5 1h-7.5zM1976 1368q-38 0 -34.5 -18.5t19.5 -51.5t16 -78t-16 -86t-19.5 -67.5t34.5 -26.5q55 0 90.5 48t35.5 116q0 67 -35.5 115.5t-90.5 48.5zM1595 1067q-54 0 -88.5 -35.5t-34.5 -83.5q0 -57 18.5 -99t42.5 -81.5
t42.5 -88t18.5 -117.5l71 74q-5 61 -32.5 112t-53.5 94.5t-26 82.5q0 26 11 45t31 19q38 0 64 -53.5t26 -142.5h80q0 122 -46.5 198t-123.5 76zM1787 1006q-50 0 -98 -23l35 -72q32 15 63 15q56 0 96 -32.5t52 -87.5l78 17q-17 82 -78.5 132.5t-147.5 50.5zM1876 857
q-61 0 -134.5 -14.5t-153.5 -44.5v-74q89 30 160 43t124 13q115 0 165.5 -37.5t50.5 -84.5h80q0 84 -77 141.5t-215 57.5zM1625 437q-20 0 -45.5 -36.5t-52.5 -77.5t-51 -56q-16 42 -49 74.5t-73.5 51t-77.5 18.5q-54 0 -71 -34q47 -22 75 -49t28 -52q-23 4 -45 4
q-43 0 -61.5 -20.5t-18.5 -46.5q192 0 183 -108l-9 -104l92 26q20 5 37 7.5t28 2.5q44 0 73.5 -37.5t29.5 -101.5q38 0 57.5 32.5t19.5 68.5q0 24 -12 49.5t-29 39.5q22 18 71 18q60 0 129 -44q8 27 8 48q0 47 -45 76t-111 29q-22 0 -47 -4t-51 -14q23 42 33.5 90t10.5 88
q0 26 -6 44t-20 18zM1943 729q-92 0 -179 -36.5t-220 -116.5l41 -69q67 46 129.5 78t117 49t96.5 17q101 0 146 -17.5t45 -46.5q0 -9 -8.5 -24.5t-50.5 -43.5q-31 -21 -74.5 -55t-96.5 -87l-35 -35q-52 -52 -82.5 -81.5t-51.5 -48.5t-47 -38l48 -62q27 21 50 41t54.5 50.5
t83.5 83.5l35 35q62 62 109 97t79 57.5t48.5 46.5t16.5 64q0 75 -70.5 108.5t-183.5 33.5z" />
</svg>