<?xml version="1.0" standalone="no"?>
<!DOCTYPE svg PUBLIC "-//W3C//DTD SVG 1.1//EN" "http://www.w3.org/Graphics/SVG/1.1/DTD/svg11.dtd">
<svg xmlns="http://www.w3.org/2000/svg" xmlns:xlink="http://www.w3.org/1999/xlink" version="1.1"
   viewBox="94 -151 2414 2169">
   <path fill="currentColor"
      d="M1319 1978q-169 0 -325 -52l45 -69q135 41 280 41q199 0 373 -74.5t306 -206.5t206.5 -306t74.5 -373t-74.5 -373t-206.5 -306t-306 -206.5t-373 -74.5t-373 74.5t-306 206.5t-206.5 306t-74.5 373q0 100 20 198l-77 20q-11 -53 -17 -107.5t-6 -110.5q0 -216 80.5 -404.5
t223.5 -331.5t331.5 -223.5t404.5 -80.5q215 0 403.5 80.5t331.5 223.5t224 331.5t81 404.5t-81 404.5t-224 331.5t-331.5 223.5t-403.5 80.5zM694 2028q-191 0 -289.5 -101.5t-98.5 -276.5q0 -47 9 -89.5t9 -76.5q0 -44 -14 -80.5t-30 -69.5t-27.5 -65t-11.5 -65
q0 -54 34 -88t94 -34q62 0 113 36t79 96l8 17q20 43 32.5 59.5t33.5 16.5q17 0 40 -9t56 -28q43 -24 108 -51.5t150.5 -46.5t187.5 -19q83 0 129.5 27.5t46.5 82.5q0 33 -17 58t-64 47t-137 49l-24 7q-63 19 -122.5 48.5t-135.5 93.5l-41 -49q82 -74 151 -109t131 -51l19 -5
q92 -24 131 -41.5t39 -40.5q0 -24 -26.5 -35.5t-79.5 -11.5q-130 0 -234.5 34.5t-178.5 73.5q-48 25 -79.5 36t-57.5 11q-37 0 -63 -24.5t-58 -93.5l-8 -17q-19 -42 -51.5 -67t-69.5 -25q-28 0 -47 16t-19 47q0 21 9.5 46.5t22.5 51.5q18 37 34.5 80t16.5 92q0 46 -9 84
t-9 84q0 139 82 222.5t236 83.5q70 0 143 -16t122.5 -42t49.5 -56q0 -12 -2 -21t-10 -21l45 -53q37 38 37 95q0 42 -33 75.5t-89 58t-124 37.5t-139 13zM916 1844l-9 -60q107 -21 107 -80q0 -31 -19 -50l34 -57q22 16 36 46t14 61q0 55 -41 90.5t-122 49.5zM894 1713
l-10 -60q58 -9 86.5 -31.5t28.5 -50.5q0 -27 -18.5 -45t-53.5 -25l15 -60q51 6 86.5 43t35.5 87q0 55 -44 92.5t-126 49.5zM1563 1075q-163 -160 -362 -160q-131 0 -275 67l-34 -72q162 -75 310 -75q230 0 417 182zM1001 518q-52 0 -89 -44t-37 -106t37 -106.5t89 -44.5
t89 44.5t37 106.5q0 61 -36.5 105.5t-89.5 44.5zM1247 151q-83 -83 -167.5 -117t-198.5 -34v-80q130 0 230 40.5t192 134.5zM1631 688q-52 0 -89 -44t-37 -106t37 -106.5t89 -44.5t89 44.5t37 106.5q0 61 -36.5 105.5t-89.5 44.5zM1849 330q-127 -73 -264 -73
q-35 0 -66.5 3.5t-60.5 10.5l-18 -78q36 -8 72 -12t73 -4q160 0 304 84z" />
</svg>