<?xml version="1.0" standalone="no"?>
<!DOCTYPE svg PUBLIC "-//W3C//DTD SVG 1.1//EN" "http://www.w3.org/Graphics/SVG/1.1/DTD/svg11.dtd">
<svg xmlns="http://www.w3.org/2000/svg" xmlns:xlink="http://www.w3.org/1999/xlink" version="1.1"
   viewBox="94 -151 2414 2169">
   <path fill="currentColor"
      d="M989 1978q-250 0 -434 -96.5t-284.5 -271t-100.5 -409.5q0 -269 144.5 -445t442.5 -312q72 -33 144.5 -98t152 -141.5t172.5 -146.5t204.5 -115t249.5 -45q158 0 294 63t238.5 175.5t160 261t57.5 319.5q0 194 -80.5 378.5t-221 344.5t-324.5 281t-392.5 189t-422.5 68z
M989 1898q205 0 402.5 -65t370.5 -180t305.5 -265.5t207.5 -322t75 -348.5q0 -155 -51.5 -289t-143 -235t-213.5 -158t-262 -57q-129 0 -232 42.5t-188.5 110t-162 142t-151 140.5t-156.5 104q-193 91 -312 189.5t-173.5 218.5t-54.5 276q0 214 90 370.5t256 241.5t393 85z
M775 1727q-32 0 -63.5 -32t-31.5 -63q0 -19 15.5 -32.5t35.5 -13.5q32 0 63.5 31.5t31.5 62.5q0 19 -15.5 33t-35.5 14zM530 1417q-54 0 -69 -18q-4 -12 -7.5 -34.5t-3.5 -39.5q0 -46 33 -46q17 0 43 21t46.5 47t20.5 42q0 28 -63 28zM1231 1413q0 -13 20.5 -40.5t47 -51
t45.5 -23.5q22 0 53 18.5t55 40t24 29.5q0 14 -27.5 25t-66.5 16.5t-74 5.5q-30 0 -53.5 -5t-23.5 -15zM676 1169q-22 0 -38.5 -15t-16.5 -37q0 -33 35.5 -68t70.5 -35q21 0 38 15.5t17 36.5q0 34 -35.5 68.5t-70.5 34.5zM1684 1459q-17 0 -24.5 -15t-7.5 -49
q0 -37 20 -61.5t53 -24.5q55 0 55 47q0 18 -17.5 42.5t-40 42.5t-38.5 18zM1724 587q-43 0 -80.5 -26t-37.5 -63q0 -20 13 -36.5t32 -16.5q13 0 28.5 8.5t37.5 25.5q23 17 51.5 25t28.5 33q0 19 -20.5 34.5t-52.5 15.5zM2124 727q-23 0 -44 -16.5t-21 -40.5q0 -34 20 -65.5
t38 -31.5q23 0 35.5 35.5t12.5 59.5q0 34 -10 46.5t-31 12.5zM1013 735q-40 0 -40 -18q0 -26 15 -60t35 -59.5t35 -25.5q17 0 30 21.5t13 44.5q0 45 -23 71t-65 26zM1306 437q-15 0 -25 -11t-10 -26q0 -23 27 -48q60 -57 130 -99.5t143.5 -66.5t140.5 -24q32 0 69.5 5.5
t68.5 14.5q20 6 28.5 16.5t8.5 23.5q0 17 -16.5 28.5t-46.5 4.5q-25 -6 -56 -9.5t-56 -3.5q-87 0 -185 47.5t-176 123.5q-24 24 -45 24z" />
</svg>