<?xml version="1.0" standalone="no"?>
<!DOCTYPE svg PUBLIC "-//W3C//DTD SVG 1.1//EN" "http://www.w3.org/Graphics/SVG/1.1/DTD/svg11.dtd">
<svg xmlns="http://www.w3.org/2000/svg" xmlns:xlink="http://www.w3.org/1999/xlink" version="1.1"
   viewBox="94 -151 2414 2169">
   <path fill="currentColor"
      d="M1300 1978q-216 0 -404.5 -80.5t-331.5 -223.5t-223.5 -331.5t-80.5 -404.5t80.5 -404.5t223.5 -331.5t331.5 -223.5t404.5 -80.5q215 0 403.5 80.5t331.5 223.5t224 331.5t81 404.5q0 174 -53.5 331.5t-151.5 288.5t-230.5 226.5t-290.5 145.5l20 -92
q183 -68 324.5 -201.5t221.5 -313t80 -385.5q0 -199 -74.5 -373t-206.5 -306t-306 -206.5t-373 -74.5t-373 74.5t-306 206.5t-206.5 306t-74.5 373t74.5 373t206.5 306t306 206.5t373 74.5q16 0 31 -0.5t30 -1.5l33 78q-23 2 -46.5 3t-47.5 1zM1485 2028q-43 0 -86.5 -20.5
t-73 -61t-29.5 -100.5q0 -56 16 -103.5t16 -93.5q0 -39 -14.5 -66.5t-70.5 -43.5q-105 -31 -212.5 -83t-195.5 -122l49 -83q96 50 204.5 75t211.5 25q104 0 212 -25t204 -75l49 83q-88 70 -118 119.5t-30 111.5q0 40 10 73t20 59l20 52q16 41 16 86q0 73 -47.5 133
t-150.5 60zM1485 1948q54 0 85 -27t31 -79q0 -42 -20 -93l-18 -48q-12 -33 -19 -68.5t-7 -70.5q0 -43 16.5 -91.5t34.5 -78.5q-29 0 -55.5 12t-50 24.5t-44.5 12.5q-12 0 -37.5 -4.5t-57.5 -4.5q-34 0 -61.5 7t-63.5 24q84 4 136.5 44t52.5 126q0 62 -15.5 111.5t-15.5 90.5
q0 47 27 80t82 33zM708 897l-44 -66q92 -62 197.5 -92t230.5 -30v80q-222 0 -384 108zM682 615l-64 -48q140 -183 336 -219l14 78q-164 31 -286 189zM1892 897q-162 -108 -384 -108v-80q125 0 231 30t197 92zM1857 464q-122 -158 -286 -189l14 -78q196 36 336 219z" />
</svg>