<?xml version="1.0" standalone="no"?>
<!DOCTYPE svg PUBLIC "-//W3C//DTD SVG 1.1//EN" "http://www.w3.org/Graphics/SVG/1.1/DTD/svg11.dtd">
<svg xmlns="http://www.w3.org/2000/svg" xmlns:xlink="http://www.w3.org/1999/xlink" version="1.1"
   viewBox="94 -151 2414 2169">
   <path fill="currentColor"
      d="M337 1878q-67 0 -100.5 -43t-33.5 -88v-803l669 -498q51 45 107 45q38 0 64.5 -18t26.5 -40q0 -19 -17 -39t-55 -44l618 -352q105 13 225 62.5t233 121.5t199.5 153.5t123.5 159.5v835q0 48 -27 89t-84 53l-1854 395q-33 7 -53 9t-42 2zM677 1529q-48 0 -81.5 -33.5
t-33.5 -81.5q0 -47 33.5 -80.5t81.5 -33.5q51 0 82.5 32.5t31.5 81.5q0 48 -33.5 81.5t-80.5 33.5zM701 988q-46 0 -78 -18t-32 -49l-4 -14q0 -33 27.5 -59.5t69 -41.5t82.5 -15q46 0 80 18t41 50q0 36 -29 65.5t-72 46.5t-85 17zM1337 1356q-75 0 -128.5 -53.5
t-53.5 -129.5q0 -74 53.5 -127.5t128.5 -53.5q74 0 127.5 53.5t53.5 127.5q0 76 -53.5 129.5t-127.5 53.5zM349 1798q14 0 31 -3t39 -7l1837 -391q27 -6 44 -26t17 -48v-809q-37 -65 -113.5 -134.5t-174.5 -132t-202 -107t-195 -59.5l-502 285q20 32 20 67q0 58 -50.5 98
t-120.5 40q-51 0 -105 -27l-591 440v735q0 42 17 60.5t49 18.5zM257 1015v-80q41 0 140 -16.5t239 -45.5t304.5 -66t338.5 -77.5t341 -81t311 -76t250 -63t155 -41.5l22 77q-50 14 -156 42t-251.5 64t-313.5 76.5t-343.5 81.5t-342 78t-308 66t-242.5 45.5t-144 16.5z
M2022 1261q-49 0 -84 -35t-35 -84t35 -84t84 -35t84 35t35 84t-35 84t-84 35zM1694 827q-73 0 -127 -31t-54 -79q-14 -59 22.5 -108.5t100.5 -80t131 -30.5q68 0 120 29.5t64 79.5q0 65 -35.5 114.5t-93.5 77.5t-128 28zM1636 328q-48 0 -77 -18.5t-29 -43.5q0 -26 29 -44.5
t77 -18.5q47 0 76 18.5t29 44.5q0 25 -29 43.5t-76 18.5z" />
</svg>