<?xml version="1.0" standalone="no"?>
<!DOCTYPE svg PUBLIC "-//W3C//DTD SVG 1.1//EN" "http://www.w3.org/Graphics/SVG/1.1/DTD/svg11.dtd">
<svg xmlns="http://www.w3.org/2000/svg" xmlns:xlink="http://www.w3.org/1999/xlink" version="1.1"
   viewBox="94 -151 2414 2169">
   <path fill="currentColor"
      d="M2156 1978q-50 0 -112.5 -17.5t-119.5 -50.5q15 -14 40 -26.5t49 -12.5q-20 -13 -48.5 -42.5t-69.5 -78.5l-66 -78q-46 -54 -46 -111q0 -64 49.5 -121.5t149.5 -120.5q53 -34 75.5 -73.5t22.5 -70.5q0 -29 -20 -45t-55 -16q-54 0 -107.5 30.5t-117 100t-148.5 188.5
l-25 35q-141 197 -289 287.5t-347 90.5q-193 0 -342.5 -100.5t-248 -287t-140.5 -444.5l105 115q34 178 120 322.5t215 229.5t291 85q114 0 210.5 -35t185.5 -113t181 -206l25 -35q89 -125 160.5 -200t138 -109t138.5 -34q71 0 110.5 36t39.5 95q0 25 -9 53.5t-35 62.5
q89 -29 136.5 -87.5t47.5 -131.5q0 -66 -35 -116t-94 -78.5t-131 -28.5q-123 0 -237.5 67t-254.5 222l-10 11q-79 87 -136.5 125t-110.5 38q-42 0 -74.5 -18.5t-50.5 -50.5l71 -53q14 42 59 42q34 0 75.5 -32.5t112.5 -109.5l12 -13q149 -161 278.5 -234.5t265.5 -73.5
q94 0 172.5 38t125.5 106t47 159q0 115 -83 196.5t-274 129.5q-53 13 -95.5 39.5t-67 60t-24.5 67.5q0 24 14 46t30 35l48 37q44 34 72 34q14 0 27.5 -6.5t27.5 -17.5l56 -46l-12 -26q-8 -19 5 -32l38 -38q7 -7 14 -4.5t8 11.5l10 53q3 15 -12 26l-22 17l27 66q18 43 113 56
l140 19q-24 62 -57 96t-78 34q-20 0 -43 -6.5t-47 -22.5q-42 15 -91 15q23 16 33.5 37t13.5 40zM506 860q-75 -49 -101 -138l65 -19q11 33 29 57.5t45 42.5zM801 689q-54 0 -99.5 -38.5t-67.5 -100.5l66 -21q14 40 42 65.5t59 25.5q27 0 57 -16t49 -38l54 42q-28 35 -72 58
t-88 23zM1018 1315q-64 0 -116 -37.5t-80 -93.5l81 -25q38 76 115 76q59 0 120 -40.5t102 -102t41 -124.5q0 -25 -7 -49t-23 -41q56 -87 78.5 -176t22.5 -194q0 -151 -65.5 -270.5t-177 -189.5t-249.5 -70q-179 0 -314 89.5t-210.5 250.5t-75.5 375q0 150 43 268.5t117 187
t168 68.5q131 0 254.5 -61t225.5 -165q36 17 62 17q44 0 65 -25t21 -59q0 -38 -28.5 -68t-84.5 -30q-49 0 -119.5 33.5t-198.5 115.5q-4 62 -54.5 106t-122.5 44q-70 0 -118.5 -51t-48.5 -130q0 -71 50.5 -121t128.5 -50q56 0 115.5 22t124.5 63l-33 56q-117 -72 -207 -72
q-53 0 -82 28t-29 74q0 47 28 80t71 33q46 0 74.5 -29.5t28.5 -70.5q0 -11 -3 -23q149 -92 240.5 -134t152.5 -42q80 0 135 49t55 117q0 67 -42 109.5t-97 42.5q-26 0 -49 -8.5t-41 -23.5l64 8q-124 114 -259 179.5t-279 65.5q-119 0 -212.5 -78t-147 -214.5t-53.5 -311.5
q0 -172 49.5 -317t140.5 -252.5t216.5 -166.5t278.5 -59q164 0 294.5 78t206.5 215.5t76 316.5q0 109 -22 201.5t-73 185.5v-37q24 48 24 102q0 64 -30.5 127t-81 114.5t-112 82.5t-124.5 31zM655 430q-29 0 -50 -23.5t-21 -57.5t21 -57.5t50 -23.5t50 23.5t21 57.5
t-21 57.5t-50 23.5zM2285 1875q48 0 77 -59l-88 -9q-9 16 -18 28t-19 23q26 17 48 17zM1005 470q-29 0 -50 -23.5t-21 -57.5t21 -57.5t50 -23.5t50 23.5t21 57.5t-21 57.5t-50 23.5z" />
</svg>