<?xml version="1.0" standalone="no"?>
<!DOCTYPE svg PUBLIC "-//W3C//DTD SVG 1.1//EN" "http://www.w3.org/Graphics/SVG/1.1/DTD/svg11.dtd">
<svg xmlns="http://www.w3.org/2000/svg" xmlns:xlink="http://www.w3.org/1999/xlink" version="1.1"
   viewBox="94 -151 2414 2169">
   <path fill="currentColor"
      d="M1300 1832q-282 0 -443 -85.5t-182 -240.5q-6 -43 -11.5 -86.5t-10.5 -102.5l19 17q-21 13 -49 20.5t-55 7.5q-70 0 -109 -40t-39 -99q0 -52 32 -107.5t88 -113t128 -116.5l-20 43q-4 -59 -5.5 -121t-1.5 -124q0 -232 82 -409t230.5 -277t348.5 -100q192 0 335.5 94
t223.5 260t80 382q0 60 -0.5 102t-1.5 79t-3 82l-36 -43q152 133 216 216t64 153q0 59 -37 98.5t-99 39.5q-31 0 -58 -4.5t-62 -19.5l23 -8q5 28 24 62q14 25 24 52t10 59q0 98 -83 172.5t-240.5 116t-381.5 41.5zM979 1978q-97 0 -155 -37.5t-58 -98.5q0 -23 15.5 -61.5
t40.5 -90.5l58 48q-22 46 -32 70t-10 34q0 28 39.5 46t101.5 18q74 0 114.5 -19.5t40.5 -56.5v-12t-1 -17l72 -9q1 9 1 19.5v18.5q0 70 -60 109t-167 39zM1358 1775v-634q-120 -14 -243 -67.5t-227.5 -131t-170 -165.5t-71.5 -170l71 -7q4 59 49 124.5t118.5 127.5
t164.5 112t187.5 80t187.5 30v701h-66zM1703 1978q-107 0 -167 -39t-60 -109q0 -8 0.5 -16.5t1.5 -21.5l71 9q-1 10 -1 16.5v12.5q0 37 40.5 56.5t114.5 19.5q62 0 101.5 -18t39.5 -46q0 -10 -9.5 -34t-32.5 -70l58 -48q26 52 41 90.5t15 61.5q0 61 -57.5 98.5t-155.5 37.5z
M1169 1777v-480q-126 -46 -227 -104.5t-169.5 -122.5t-98.5 -124l33 10q-58 43 -105.5 89t-75 90t-27.5 82q0 34 21.5 51.5t60.5 17.5q32 0 67.5 -12t83.5 -43q5 97 11.5 157t13.5 112q17 117 154 186t389 69q190 0 330 -33t216.5 -90.5t76.5 -129.5q0 -23 -9 -48.5
t-23 -51.5q-19 -35 -28 -68.5t-9 -70.5v-32q54 31 94 43t71 12q39 0 60.5 -17.5t21.5 -51.5q0 -49 -52 -114t-156 -150l-32 -88v-233q0 -190 -68 -338t-193 -233.5t-298 -85.5t-303.5 87.5t-203 246t-72.5 371.5v160q0 67 66 143.5t182 146.5t265 120v527h-67zM1298 810
q-177 0 -289 -136l55 -47q91 111 234 111t234 -111l55 47q-112 136 -289 136zM1400 1316v-71q124 -44 226.5 -111t166.5 -142t71 -140l69 24q-10 60 -55 123.5t-117.5 123t-164.5 110t-196 83.5zM1065 480q-49 0 -89.5 -23t-57.5 -61l61 -28q8 20 32 33t54 13t54.5 -13
t31.5 -32l62 27q-20 40 -60 62t-88 22zM1370 1132l-90 -44q105 -22 209 -75.5t188.5 -123.5t135.5 -143.5t51 -134.5l73 9q-2 67 -49.5 142.5t-127 148t-180.5 130.5t-210 91zM1578 480q-49 0 -89.5 -23t-57.5 -61l61 -28q8 20 32 33t54 13t54.5 -13t31.5 -32l62 27
q-20 40 -60 62t-88 22z" />
</svg>