<?xml version="1.0" standalone="no"?>
<!DOCTYPE svg PUBLIC "-//W3C//DTD SVG 1.1//EN" "http://www.w3.org/Graphics/SVG/1.1/DTD/svg11.dtd">
<svg xmlns="http://www.w3.org/2000/svg" xmlns:xlink="http://www.w3.org/1999/xlink" version="1.1"
   viewBox="94 -151 2414 2169">
   <path fill="currentColor"
      d="M1213 1790l-88 -30q17 -34 37 -83t31 -85l-53 -18q-13 31 -39.5 76t-56.5 83l-74 -34q35 -47 59 -86.5t37 -72.5l-68 -31q-10 28 -36 70t-62 86l-70 -34q33 -38 58.5 -77.5t40.5 -76.5l-60 -29q-28 46 -57 83t-58 65l-69 -44q35 -34 62.5 -67.5t55.5 -76.5l-43 -32
q-35 34 -75 68t-70 53l-55 -53q82 -57 153 -125t123 -162q27 -49 47 -101.5t37 -122.5q25 -103 58.5 -187t83.5 -134.5t123 -50.5q41 0 72 9.5t66 9.5q30 0 64.5 -9.5t71.5 -9.5q33 0 63.5 7.5t61.5 23.5l-30 74q-25 -14 -49 -20.5t-47 -6.5q-32 0 -67 9.5t-73 9.5
q-33 0 -65 -10t-63 -10q-51 0 -86.5 41t-61 112t-48.5 163q-22 88 -53.5 163t-66.5 123l-23 -87q129 81 264 132t236 72l-75 41q32 -78 69 -200.5t60 -241.5q10 -52 21 -94t23.5 -79t27.5 -72t33 -74q14 -29 30 -54t32 -47q26 -38 44 -71t18 -70q0 -46 -58 -73.5t-159 -27.5
q-149 0 -261.5 57.5t-195.5 167.5l-208 -238q33 -83 87.5 -147.5t126.5 -109t161 -67.5t191 -23q128 0 223 47.5t147.5 133t52.5 201.5q0 78 -30 137t-65 113q-34 52 -62.5 106.5t-28.5 125.5q0 52 22.5 78t60.5 26q45 0 100 -27.5t105.5 -80.5t83.5 -129.5t33 -173.5
q0 -57 -17 -101.5t-47 -68.5l52 -8q-12 74 -45 148t-84 141l-58 -43q56 -74 89 -163t33 -164q0 -24 -3.5 -44.5t-10.5 -35.5q-23 -53 -97.5 -92t-183 -60.5t-236.5 -21.5q-282 0 -433.5 140t-151.5 400q0 124 50.5 215.5t168.5 180.5l-46 62q-133 -100 -193 -208t-60 -249
q0 -197 79 -335.5t227.5 -212t358.5 -73.5q148 0 271.5 27.5t207.5 77.5t113 118q10 22 15.5 61.5t5.5 95.5q35 34 55 90t20 123q0 138 -70 262t-207.5 202t-341.5 80l73 -144q-18 108 -41 204t-55.5 196t-77.5 220.5t-107 278.5zM1377 1245q-133 -32 -258 -73t-217 -93
l36 -64q74 42 189.5 82t270.5 78zM1538 1978q5 -47 4.5 -94t-6.5 -86h-64q0 41 -2.5 93t-10.5 85l-79 -7q9 -47 12.5 -89t3.5 -88l-70 -15q-6 43 -18.5 90.5t-26.5 79.5l-71 -31q21 -55 33.5 -136t20 -172t10.5 -174h53v78q128 14 235 14q68 0 137.5 -5t139.5 -15l-59 88
v-276q0 -78 -5 -145t-21.5 -131.5t-49.5 -136.5l70 -32q50 106 67 209.5t17 232.5v200q0 79 18.5 191.5t54.5 246.5l-84 11q-9 -36 -19.5 -88.5t-17.5 -90.5l-53 8q7 38 8.5 86t-2.5 96l-77 2q4 -59 2.5 -104t-8.5 -78h-66q6 32 7 84t-4 99h-79zM1479 1416q-33 0 -66.5 -2
t-70.5 -5l27 -72q27 3 55 4.5t56 1.5q80 0 170 -8.5t182 -18.5v73q-100 13 -188.5 20t-164.5 7zM1075 676q-31 -22 -76.5 -63.5t-94.5 -94.5t-91.5 -111.5t-66.5 -114.5l60 -49q20 51 62 109.5t92.5 113.5t97.5 97.5t78 61.5zM1209 949l-71 -4q8 -83 53 -183t109 -170l65 36
q-37 34 -71 89.5t-56.5 117t-28.5 114.5z" />
</svg>