<?xml version="1.0" standalone="no"?>
<!DOCTYPE svg PUBLIC "-//W3C//DTD SVG 1.1//EN" "http://www.w3.org/Graphics/SVG/1.1/DTD/svg11.dtd">
<svg xmlns="http://www.w3.org/2000/svg" xmlns:xlink="http://www.w3.org/1999/xlink" version="1.1"
   viewBox="94 -151 2414 2169">
   <path fill="currentColor"
      d="M1380 1552q-228 0 -394.5 -60.5t-257 -177.5t-90.5 -285q0 -99 25.5 -168t63 -117.5t75 -86.5t63 -74.5t25.5 -81.5q0 -28 -21.5 -50t-57.5 -40l-82 -41q-18 4 -41 6.5t-49 2.5q-48 0 -102.5 -9.5t-99 -30.5t-65.5 -55q0 -55 42 -80t117 -25h72q49 0 85 -28.5t69 -70
t74 -83.5t100 -70.5t147 -28.5q106 0 184 41.5t121.5 115t43.5 171.5q0 69 -19.5 128t-45 112.5t-45 107t-19.5 110.5v69h-80v-69q0 -67 19.5 -122.5t45 -107.5t45 -107t19.5 -121q0 -113 -72 -180.5t-197 -67.5q-80 0 -134.5 29.5t-106.5 87.5q-24 25 -46 55q7 11 14 29.5
t7 27.5q0 21 -7 31.5t-14.5 24.5t-9.5 45l60 29q62 30 95.5 69.5t33.5 94.5q0 58 -25.5 101t-63 82.5t-75 85t-63 108t-25.5 151.5q0 217 176 330t486 113q239 0 411 -68t264.5 -192.5t92.5 -292.5q0 -79 -23.5 -148.5t-60 -112.5t-75.5 -43q-13 0 -20 6.5t-7 18.5
q0 23 5 41t10 39t5 53l-81 -11q0 -34 -6.5 -66t-6.5 -68q0 -50 26 -71.5t66 -21.5q68 0 124 53.5t90 140.5t34 190q0 192 -103.5 334.5t-293.5 220.5t-451 78zM1043 1866q-21 0 -50.5 -20.5t-52 -46.5t-22.5 -40q0 -20 20 -27l213 -71q4 -14 5 -39t1 -41q0 -39 -6 -81
l105 15v190q0 16 -25 42.5t-61 54t-71 46t-56 18.5zM1377 1978q-59 0 -92 -20.5t-33 -47.5q0 -24 21.5 -49t49 -50.5t49 -53t21.5 -55.5v-185l100 -27v228q0 36 12.5 86.5t12.5 82.5q0 46 -38.5 68.5t-102.5 22.5zM1068 648q-31 0 -67.5 -2.5t-89.5 -6.5l6 -80q53 4 87 6.5
t64 2.5q45 0 89.5 -6.5t101.5 -21.5l20 78q-61 16 -111 23t-100 7zM1491 1244q-175 0 -275.5 -78t-100.5 -214q0 -138 86 -210.5t268 -72.5q96 0 218 22t295 80q0 50 -51 86t-128 36q14 28 23.5 61t9.5 59q0 104 -91.5 167.5t-253.5 63.5zM1038 246q-22 0 -37.5 -16.5
t-15.5 -39.5t15.5 -39.5t37.5 -16.5t37.5 16.5t15.5 39.5t-15.5 39.5t-37.5 16.5z" />
</svg>