<?xml version="1.0" standalone="no"?>
<!DOCTYPE svg PUBLIC "-//W3C//DTD SVG 1.1//EN" "http://www.w3.org/Graphics/SVG/1.1/DTD/svg11.dtd">
<svg xmlns="http://www.w3.org/2000/svg" xmlns:xlink="http://www.w3.org/1999/xlink" version="1.1"
   viewBox="94 -151 2414 2169">
   <path fill="currentColor"
      d="M1619 1978q-101 0 -199 -19.5t-162 -64t-64 -117.5l482 -45l172 -59q-14 -71 -49 -101t-101 -37q-99 -11 -167 -36t-109 -65q-58 3 -121 3q-204 0 -371.5 -34t-289 -93.5t-187.5 -138t-66 -166.5q178 154 406.5 232t508.5 78q125 -5 240.5 -24t221.5 -51
q-25 -68 -74.5 -96.5t-143.5 -45.5l-49 -9q-72 -14 -123.5 -28.5t-85.5 -33.5q-201 -1 -366.5 -35t-285 -94t-184.5 -140.5t-65 -173.5q178 158 406.5 237t508.5 79q105 0 203.5 -10t189.5 -31q-62 -134 -258 -134q-104 0 -150 -6t-71 -24q-45 -33 -68.5 -65.5t-52.5 -66
t-92 -67.5q-41 -23 -102.5 -37t-116.5 -14q-59 0 -113 -8t-88 -28t-34 -57q0 -32 33.5 -54t82.5 -39.5t97.5 -36.5t78.5 -44q33 -28 44 -68.5t21 -80t39 -66t98 -26.5h553q111 27 222 65t223 91q0 48 -29 79t-67 54t-67 47.5t-29 59.5q0 29 20.5 51.5t47 44t47 47t20.5 60.5
q0 36 -23 75t-54 87.5t-54 114.5l143 -62l218 -167q0 75 -42.5 142t-122.5 122q7 15 7 38q0 37 -17 65t-42 58t-48.5 71.5t-36.5 104.5q83 -35 158 -80t144 -100q0 136 -150 243q2 12 2 20q0 42 -17 73.5t-40.5 67.5t-43.5 89t-26 139v5l30 -10l181 -134q19 10 32.5 29.5
t13.5 42.5q0 117 -71.5 209t-201 145.5t-304.5 53.5zM1300 1805q-226 0 -411.5 -42.5t-320 -119t-207.5 -180t-73 -225.5q0 -83 44 -142t111 -83l27 75q-48 17 -75 57t-27 93q0 105 68.5 193.5t193 154.5t295.5 102.5t375 36.5t375 -36.5t295.5 -102.5t193 -154.5
t68.5 -193.5q0 -53 -27 -93t-75 -57l27 -75q68 24 111.5 83t43.5 142q0 122 -73 225.5t-207.5 180t-320 119t-411.5 42.5zM1300 1349q-226 0 -411.5 -39.5t-320 -110.5t-207.5 -167t-73 -210q0 -80 39 -136.5t99 -79.5l44 66q-48 17 -75 56.5t-27 93.5q0 95 68.5 176.5
t193.5 142t295.5 94.5t374.5 34t374.5 -34t295.5 -94.5t193.5 -142t68.5 -176.5q0 -53 -27 -93t-75 -57l56 -57q54 22 90 76t36 131q0 114 -73 210t-207.5 167t-320 110.5t-411.5 39.5zM1360 662q80 0 80 -41q0 -14 -11.5 -23.5t-28.5 -9.5q-6 0 -20.5 2t-18.5 2
q-20 0 -40 -11q-21 -11 -36 -11q-14 0 -24.5 10t-10.5 23q0 23 33.5 41t76.5 18zM1300 951q-218 0 -403 -39t-321.5 -110.5t-212 -169t-75.5 -213.5q0 -110 78 -204.5t217 -165.5t322.5 -111t394.5 -40t394.5 40t322 111t216.5 165.5t78 204.5q0 116 -75.5 213.5t-212 169
t-321 110.5t-402.5 39zM1300 871q201 0 371 -34.5t295.5 -96t195 -144t69.5 -177.5q0 -89 -72 -168.5t-200 -141t-296.5 -96.5t-362.5 -35t-363 35t-297 96.5t-200 141t-72 168.5q0 95 69.5 177.5t195 144t295.5 96t372 34.5zM1225 479l349 -79q29 -7 34 -41t-13 -63
l-127 -208q-25 -41 -60 -41q-28 0 -62.5 16.5t-99.5 30.5l-167 12q-49 4 -69.5 44t3.5 81l119 199q21 34 42 45t51 4zM1772 676q21 0 40 -23.5t32 -63.5q7 -22 7 -44q0 -32 -10 -42.5t-24 -10.5q-10 0 -20.5 8t-15.5 28q-2 8 -2.5 18t-4.5 21q-9 25 -21.5 41.5t-12.5 33.5
q0 13 9 23.5t23 10.5z" />
</svg>