<?xml version="1.0" standalone="no"?>
<!DOCTYPE svg PUBLIC "-//W3C//DTD SVG 1.1//EN" "http://www.w3.org/Graphics/SVG/1.1/DTD/svg11.dtd">
<svg xmlns="http://www.w3.org/2000/svg" xmlns:xlink="http://www.w3.org/1999/xlink" version="1.1"
   viewBox="94 -151 2414 2169">
   <path fill="currentColor"
      d="M1821 1828q-170 0 -296 -66.5t-195.5 -186t-69.5 -279.5v-772q0 -66 43.5 -112t108.5 -46q76 0 112.5 71t36.5 219q0 79 -3 152t-14 142l-80 -12q11 -66 14 -135.5t3 -146.5q0 -114 -17 -162t-52 -48q-29 0 -50.5 22.5t-21.5 55.5v772q0 137 58.5 239t166.5 157.5
t256 55.5q253 0 376 -173.5t123 -528.5q0 -149 -9 -236t-30 -124t-57 -37q-33 0 -50 31t-24 102l-35 371q-9 -2 -18.5 -2.5t-18.5 -0.5q-67 0 -128 36t-103.5 97t-56.5 137l-78 -14q16 -89 64.5 -161t117.5 -118t148 -55l28 -298q10 -103 45.5 -154t108.5 -51q63 0 102 44
t56.5 148t17.5 285q0 386 -144.5 584t-434.5 198zM779 1828q-289 0 -434 -198t-145 -584q0 -181 18 -285t56.5 -148t101.5 -44q73 0 108.5 51t45.5 154l28 298q79 9 148.5 55t117.5 118t64 161l-78 14q-14 -76 -56.5 -137t-103 -97t-128.5 -36q-9 0 -18.5 0.5t-18.5 2.5
l-35 -371q-7 -71 -24 -102t-50 -31q-35 0 -56.5 37t-30.5 124t-9 236q0 355 123 528.5t376 173.5q148 0 256 -55.5t166.5 -157.5t58.5 -239v-772q0 -33 -21.5 -55.5t-50.5 -22.5q-34 0 -51.5 48t-17.5 162q0 77 3.5 146.5t13.5 135.5l-80 12q-10 -69 -13.5 -142t-3.5 -152
q0 -148 36.5 -219t112.5 -71q65 0 108.5 46t43.5 112v772q0 160 -69.5 279.5t-195.5 186t-296 66.5zM1116 1005q-94 -62 -206 -91t-277 -29q0 -133 8 -231t16 -173.5t8 -138.5q0 -43 -18 -70.5t-47 -27.5q-72 0 -94 210l-20 193l-80 -8l20 -193q14 -140 57.5 -211t116.5 -71
q64 0 104.5 50t40.5 128q0 50 -5 105t-11 113.5t-11 120.5t-5 125q131 4 242 36.5t210 95.5zM842 865q-2 -35 -3 -71.5t-1 -74.5q0 -47 6 -144.5t17 -225.5q6 -70 47.5 -113t99.5 -43q65 0 103.5 53.5t38.5 142.5q0 27 -5 54.5t-17 66.5l-71 -14q7 -39 10 -62t3 -45
q0 -53 -15.5 -84.5t-46.5 -31.5q-25 0 -44.5 22t-22.5 60q-10 127 -16.5 223t-6.5 141q0 37 1 72.5t3 69.5zM874 316q2 -12 2 -24.5v-31.5q0 -66 -21 -99t-56 -33q-32 0 -52.5 27t-35.5 83l-66 -46q21 -73 60 -108.5t94 -35.5q71 0 113.5 54t42.5 141v16t-1 12zM1758 865
l-80 -4q2 -34 3 -69.5t1 -72.5q0 -45 -6 -141t-17 -223q-3 -38 -22 -60t-45 -22q-31 0 -46.5 31.5t-15.5 84.5q0 22 3 45t10 62l-71 14q-12 -39 -17 -66.5t-5 -54.5q0 -89 38.5 -142.5t103.5 -53.5q59 0 100 43t47 113q11 128 17 225.5t6 144.5q0 38 -1 74.5t-3 71.5z
M1484 1005l-49 -67q99 -63 210 -95.5t242 -36.5q0 -63 -5 -125t-11 -120.5t-11 -113.5t-5 -105q0 -78 40.5 -128t104.5 -50q73 0 116.5 71t57.5 211l20 193l-80 8l-20 -193q-22 -210 -94 -210q-28 0 -46.5 27.5t-18.5 70.5q0 63 8 138.5t16 173.5t8 231q-165 0 -277 29
t-206 91zM1726 316l-80 -45q-1 -6 -1 -12v-16q0 -87 42.5 -141t113.5 -54q56 0 95.5 37.5t65.5 120.5l-66 46q-20 -66 -41.5 -95t-53.5 -29q-35 0 -56 33t-21 99q0 19 0.5 31.5t1.5 24.5z" />
</svg>