<?xml version="1.0" standalone="no"?>
<!DOCTYPE svg PUBLIC "-//W3C//DTD SVG 1.1//EN" "http://www.w3.org/Graphics/SVG/1.1/DTD/svg11.dtd">
<svg xmlns="http://www.w3.org/2000/svg" xmlns:xlink="http://www.w3.org/1999/xlink" version="1.1"
   viewBox="94 -151 2414 2169">
   <path fill="currentColor"
      d="M1300 1728l-204 -291q-19 -29 -47 -49.5t-60 -20.5q-28 0 -69 14.5t-76 40.5q-28 -77 -82.5 -126t-122.5 -49q-49 0 -103.5 27.5t-100.5 74.5q-34 -55 -79 -87t-100 -32q-41 0 -79.5 20.5t-85.5 67.5q-1 -16 -1 -32v-32q0 -328 127.5 -555.5t380.5 -345.5l251 -118l22 23
q0 190 24.5 303.5t84.5 169t165 71.5l52 55l103 -54l103 54l52 -55q106 -16 165.5 -71.5t84 -169t24.5 -303.5l22 -23l251 118q254 119 381 346t127 555v32t-1 32q-47 -47 -85.5 -67.5t-79.5 -20.5q-55 0 -100 32t-79 87q-46 -47 -100 -74.5t-104 -27.5q-68 0 -122 49
t-83 126q-34 -26 -75 -40.5t-70 -14.5q-31 0 -59 20.5t-48 49.5zM1300 1279q74 0 114.5 -51.5t40.5 -145.5q0 -100 -44.5 -167.5t-110.5 -67.5t-110.5 67.5t-44.5 167.5q0 94 40.5 145.5t114.5 51.5zM1300 1590l148 -213q28 -40 72 -65t92 -25q56 0 106 34q35 -66 99 -110
t141 -44q53 0 102 19t91 54q35 -40 82.5 -65t101.5 -25q46 0 90 13q-3 -166 -53 -306t-149.5 -249.5t-253.5 -181.5l-163 -77q0 173 -37.5 286.5t-118 174t-211.5 75.5l-139 -65l-139 65q-130 -15 -211 -75.5t-118.5 -174t-37.5 -286.5l-163 77q-154 72 -253.5 181.5
t-149 249.5t-53.5 306q44 -13 90 -13q54 0 102 25t82 65q42 -35 91.5 -54t101.5 -19q77 0 141.5 44t98.5 110q50 -34 106 -34q48 0 92 25t72 65zM1180 1511l-62 -82l24 -109q-49 -56 -70.5 -110.5t-21.5 -121.5q0 -65 19.5 -133t56.5 -154q-19 -40 -22 -82q-69 0 -107 -51.5
t-38 -125.5q0 -48 19 -104.5t49 -106.5t64 -82t65 -32q38 0 63.5 75.5t25.5 194.5q24 -4 55 -4t55 4q0 -119 25.5 -194.5t63.5 -75.5q31 0 65 32t64 82t49 106.5t19 104.5q0 74 -38 125.5t-107 51.5q-3 42 -22 82q37 86 56.5 154t19.5 133q0 67 -21.5 121.5t-70.5 110.5
l24 109l-62 82q-20 -57 -53.5 -98.5t-66.5 -41.5t-66.5 41.5t-53.5 98.5zM1259 795q22 0 22 -14v-43l-34 -21q-10 -5 -10 5v59q0 14 22 14zM1193 697q17 0 28.5 -12t11.5 -29t-11.5 -28.5t-28.5 -11.5t-29 11.5t-12 28.5t12 29t29 12zM1341 795q22 0 22 -14v-59
q0 -10 -10 -5l-34 21v43q0 14 22 14zM828 305q-15 0 -24.5 -9t-9.5 -22q0 -24 -10.5 -47t-31.5 -38q0 -16 20.5 -28.5t49.5 -12.5q30 0 52 20t22 56q0 34 -22.5 57.5t-45.5 23.5zM1107 626q11 -44 26 -71.5t42 -46.5q0 -96 -9 -145t-27 -49q-17 0 -37 20.5t-38.5 53.5
t-30 69.5t-11.5 69.5q0 48 25.5 73.5t59.5 25.5zM1407 697q17 0 29 -12t12 -29t-12 -28.5t-29 -11.5q-16 0 -28 11.5t-12 28.5t12 29t28 12zM1493 626q35 0 60 -25.5t25 -73.5q0 -33 -11.5 -69.5t-30 -69.5t-38.5 -53.5t-37 -20.5q-18 0 -27 49t-9 145q27 19 42.5 46.5
t25.5 71.5zM1772 305q-22 0 -45 -23.5t-23 -57.5q0 -36 22 -56t52 -20q29 0 49.5 12.5t20.5 28.5q-21 15 -31.5 38t-10.5 47q0 13 -9.5 22t-24.5 9z" />
</svg>