<?xml version="1.0" standalone="no"?>
<!DOCTYPE svg PUBLIC "-//W3C//DTD SVG 1.1//EN" "http://www.w3.org/Graphics/SVG/1.1/DTD/svg11.dtd">
<svg xmlns="http://www.w3.org/2000/svg" xmlns:xlink="http://www.w3.org/1999/xlink" version="1.1"
   viewBox="94 -151 2414 2169">
   <path fill="currentColor"
      d="M1230 1797q-55 0 -88.5 -44.5t-46.5 -117.5q-73 64 -127.5 89.5t-85.5 25.5q-46 0 -83.5 -47t-37.5 -103q0 -38 25 -77t80 -95l-49 -103q-40 -85 -82.5 -141.5t-79 -87.5t-60.5 -39l57 -49q53 18 107.5 89.5t119.5 197.5l77 148q-66 52 -94 91t-28 65q0 35 13.5 53
t35.5 18q29 0 69.5 -16t90.5 -53t107 -98q4 69 14 117t29 72.5t49 24.5q47 0 83.5 -38t57.5 -97.5t21 -124.5q0 -34 -7 -67.5t-21 -62.5q120 -29 217.5 -136.5t164.5 -318.5q42 -22 95.5 -63.5t103.5 -89.5t83 -90.5t33 -64.5q0 -29 -24.5 -37.5l-49 -17t-24.5 -35.5
q0 -32 39 -47.5t94 -18.5q26 -2 43 -9.5t26 -25.5l40 -82q-6 -2 -19 -3.5t-38 -1.5q-343 0 -546 32.5t-269 103.5q-28 31 -43 67t-34 120l-10 45q-14 64 -38.5 126t-57 102.5t-70.5 40.5v-80q9 0 26 -33.5t35 -81t27 -88.5l10 -45q21 -95 41 -142t56 -85
q78 -83 261.5 -122.5t491.5 -39.5q103 0 160 5.5t80.5 19.5t23.5 40q0 17 -11.5 45.5t-43.5 92.5q-20 40 -49 60.5t-78 20.5h-13q21 7 34 25t13 43q0 36 -29.5 84.5t-78.5 100.5t-107.5 100t-116.5 84q-64 191 -154.5 300t-201.5 148q8 25 11 56t3 69q0 77 -35.5 145
t-93 110t-123.5 42zM806 1862q-22 0 -30 -39q-7 -36 -35 -59t-63 -23h-41q-65 0 -65 -34q0 -38 47 -69.5t115 -31.5q64 0 98.5 35t34.5 97q0 48 -19 86t-42 38zM1239 1978q-25 0 -33 -39q-8 -41 -29.5 -62.5t-53.5 -21.5h-44q-37 0 -37 -27q0 -45 40.5 -76.5t98.5 -31.5
q60 0 95.5 34.5t35.5 92.5q0 50 -22 90.5t-51 40.5zM696 908q-13 0 -23.5 -10t-10.5 -23q0 -18 22 -42t38 -24q12 0 21 11.5t9 26.5q0 23 -17.5 42t-38.5 19zM1436 1803q-25 0 -49 -13t-57 -44l90 -171l20 -235q27 8 82 39.5t117 74t113.5 84t71.5 68.5q0 49 -38 84.5
t-100 35.5q-8 33 -38.5 54t-74.5 21q-34 0 -69 -16q-36 18 -68 18zM925 1409l-67 -116l32 -117l108 41l-13 -134l112 30l-69 -233l-130 -94q-70 -51 -109.5 -68t-77.5 -17q-76 0 -124.5 45t-48.5 110q0 46 27.5 73t82.5 27q20 0 45.5 -2.5t66.5 -6.5q0 10 -15 26t-51 43
l-64 48q-28 21 -39.5 46.5t-11.5 68.5q-39 0 -77 -41.5t-38 -98.5q0 -27 12 -53t31 -49q-101 -107 -156 -230t-55 -248q0 -109 41 -209.5t106.5 -180t140.5 -125.5t144 -46q25 0 25 29q0 19 -12 45.5t-36 64.5l-15 24q-22 35 -33 64.5t-11 48.5q0 17 17 17q11 0 36 -18.5
t68 -52.5l25 -20q45 -36 66 -48.5t29 -12.5q14 0 21.5 45t15.5 109.5t22.5 126t41.5 94.5l23 28q60 73 81.5 162.5t21.5 159.5q0 27 -2 49t-6 38l92 334l-137 -31l13 153l-124 -40z" />
</svg>