<?xml version="1.0" standalone="no"?>
<!DOCTYPE svg PUBLIC "-//W3C//DTD SVG 1.1//EN" "http://www.w3.org/Graphics/SVG/1.1/DTD/svg11.dtd">
<svg xmlns="http://www.w3.org/2000/svg" xmlns:xlink="http://www.w3.org/1999/xlink" version="1.1"
   viewBox="94 -151 2414 2169">
   <path fill="currentColor"
      d="M412 1265l-66 -46q60 -85 94 -166t63 -157t73 -145q-22 -57 -34.5 -132t-12.5 -160q0 -147 26 -262.5t73 -182t110 -66.5q45 0 104 37t121.5 99.5t119 142t97.5 163.5q25 -4 55.5 -5.5t64.5 -1.5t64.5 1.5t55.5 5.5q41 -84 97.5 -163.5t119 -142t121.5 -99.5t104 -37
q63 0 110 66.5t73 182t26 262.5q0 85 -12 160t-35 132q45 69 74 145t63 157t93 166l-66 46q-71 -103 -108.5 -195t-67.5 -170.5t-80 -140.5q30 -54 44.5 -107t14.5 -104q0 -85 -35 -157t-92.5 -115.5t-123.5 -43.5q-43 0 -86.5 20t-82 58.5t-67.5 95.5l-38 74
q-13 -5 -58.5 -11t-107.5 -6q-61 0 -107 6t-59 11l-38 -74q-29 -57 -67.5 -95.5t-81.5 -58.5t-87 -20q-66 0 -123.5 43.5t-92.5 115.5t-35 157q0 51 14.5 104t44.5 107q-50 62 -80 140.5t-67 170.5t-109 195zM842 1624l-207 -86q-29 -12 -19.5 -33.5t37.5 -12.5l217 68
q21 6 22 26t-12.5 34t-37.5 4zM878 1500l-204 -125q-25 -16 -13 -36t39 -6l215 107q25 12 24.5 33t-17.5 32t-44 -5zM1166 1740q-49 0 -93.5 -19.5t-81.5 -59.5l57 -56q50 55 118 55q44 0 71 -26.5t27 -72.5h72q0 46 27 72.5t71 26.5q68 0 118 -55l57 56q-37 40 -81.5 59.5
t-93.5 19.5q-83 0 -134 -57q-51 57 -134 57zM1300 1928q-60 0 -113 -8t-114.5 -27.5t-144.5 -55.5t-202 -91l-333 -155q-90 -42 -132.5 -76t-42.5 -77q0 -34 38 -60q-16 -13 -23.5 -27.5t-7.5 -32.5q0 -42 45.5 -73.5t128.5 -48.5t196 -17q179 0 325 61.5t259 180.5l-30 89
q-89 -117 -232 -184t-322 -67q-90 0 -155.5 9t-101.5 24.5t-36 37.5q0 10 14.5 24t41.5 29q-60 22 -60 48q0 16 24.5 33t104.5 55l333 155q117 54 196 88.5t136 53t105 25.5t103 7t103 -7t105 -25.5t136 -53t196 -88.5l333 -155q80 -38 104.5 -55t24.5 -33q0 -26 -60 -48
q27 -15 41.5 -29t14.5 -24q0 -22 -35.5 -37.5t-101.5 -24.5t-156 -9q-178 0 -321.5 67t-232.5 184l-30 -89q113 -119 259 -180.5t325 -61.5q113 0 196 17t128.5 48.5t45.5 73.5q0 18 -7.5 32.5t-23.5 27.5q38 26 38 60q0 43 -42.5 77t-132.5 76l-333 155q-119 55 -202 91
t-144.5 55.5t-114.5 27.5t-113 8zM1300 1580q-82 0 -126.5 -30.5t-44.5 -87.5q0 -40 43.5 -66t127.5 -26t127.5 26t43.5 66q0 57 -44 87.5t-127 30.5zM998 1169q-39 0 -66.5 -33t-27.5 -79q0 -47 27.5 -79.5t66.5 -32.5q40 0 68 32.5t28 79.5q0 46 -28 79t-68 33zM1758 1624
q-23 10 -37 -4t-13 -34t22 -26l217 -68q28 -9 37.5 12.5t-19.5 33.5zM1722 1500q-27 16 -44 5t-17 -32t24 -33l215 -107q27 -14 39.5 6t-13.5 36zM762 605q-20 -29 -29.5 -80.5t-9.5 -106.5q0 -53 8 -101t23.5 -78.5t37.5 -30.5q25 0 63.5 38t75.5 95t56 115
q-68 26 -124 63.5t-101 85.5zM1602 1169q-40 0 -68 -33t-28 -79q0 -47 28 -79.5t68 -32.5q39 0 66.5 32.5t27.5 79.5q0 46 -27.5 79t-66.5 33zM1838 605q-45 -48 -101 -85.5t-124 -63.5q20 -58 56.5 -115t75.5 -95t63 -38q22 0 37.5 30.5t23.5 78.5t8 101q0 55 -9.5 106.5
t-29.5 80.5z" />
</svg>