<?xml version="1.0" standalone="no"?>
<!DOCTYPE svg PUBLIC "-//W3C//DTD SVG 1.1//EN" "http://www.w3.org/Graphics/SVG/1.1/DTD/svg11.dtd">
<svg xmlns="http://www.w3.org/2000/svg" xmlns:xlink="http://www.w3.org/1999/xlink" version="1.1"
   viewBox="94 -151 2414 2169">
   <path fill="currentColor"
      d="M1261 1978q-41 0 -81 -20l-590 -303q-81 -42 -95 -132l-180 -1114q-12 -72 24 -131.5t105 -81.5l879 -288q30 -10 54 -10q19 0 36.5 5t35.5 13l726 326q62 28 93 89t15 129l-245 1043q-18 77 -86 116l-603 336q-40 23 -88 23zM924 1403q0 -35 -18.5 -66.5t-47.5 -31.5
q-35 0 -45 48zM1076 1567l-392 -177q5 -32 19 -44.5t45 -12.5v-124l-93 -24l-3 -44l108 -17v-126h-81v-47l161 -73l12 -99l47 12l4 104l163 169v56l-87 -55l7 125l131 118v54l-106 -58v137q29 24 45.5 54.5t19.5 71.5zM924 1164q0 -32 -17.5 -61t-43.5 -29q-37 0 -48 47z
M1294 1933l-79 -2l40 -1235l80 2zM1306 1926l-62 -47l478 -711l64 44zM1261 1898q26 0 49 -13l603 -336q36 -20 47 -64l245 -1043q9 -40 -8 -75.5t-55 -51.5l-726 -326q-23 -11 -39 -11q-12 0 -29 6l-879 288q-41 13 -61.5 47t-13.5 77l180 1114q7 50 53 74l589 303
q22 11 45 11zM566 398l-93 -78h579v78h-486zM1936 1598l-389 -789l211 -308l67 43l-188 274l363 728zM1284 752l-911 -392l31 -73l848 367q21 9 36 9q12 0 36 -9l908 -335l28 74zM1035 633l-63 -297l427 -166l646 21v68l-611 -16l-371 141l49 230zM1454 222l-79 -13
l-20 -284l78 -3z" />
</svg>