<?xml version="1.0" standalone="no"?>
<!DOCTYPE svg PUBLIC "-//W3C//DTD SVG 1.1//EN" "http://www.w3.org/Graphics/SVG/1.1/DTD/svg11.dtd">
<svg xmlns="http://www.w3.org/2000/svg" xmlns:xlink="http://www.w3.org/1999/xlink" version="1.1"
   viewBox="94 -151 2414 2169">
   <path fill="currentColor"
      d="M1235 1978q-58 0 -93.5 -23t-35.5 -61t35 -61t88 -23q15 0 29 2t30 7q-9 -27 -24 -74t-30 -101t-25.5 -102.5t-10.5 -78.5q0 -47 73 -165t229 -320q-12 -35 -19 -70t-12 -71q-40 34 -82 52t-86 18q-55 0 -120.5 -41t-134.5 -117q-33 20 -67 20t-61 -18q-35 35 -73 35
q-31 0 -52 -21.5t-29 -57.5l-544 -137l18 -98l557 78q14 -22 33 -35.5t41 -13.5q43 0 74 42q11 -5 36 -5q52 0 88.5 30t68 70t67.5 70t85 30q48 0 81 -29.5t60.5 -74.5t57 -92t70 -83.5t99.5 -46.5q-85 -21 -141 -91t-56 -161q0 -72 36 -131.5t96 -95t133 -35.5
q74 0 134 35.5t95.5 95t35.5 131.5q0 87 -51 155.5t-128 91.5q72 6 125 31t91.5 54t66 50.5t48.5 21.5q40 0 52.5 -58t12.5 -180q0 -36 26 -61.5t61 -25.5q36 0 61.5 25.5t25.5 61.5q0 188 -57.5 302.5t-157.5 114.5q-40 0 -98 -19t-111 -51q3 13 6 56t6 96.5t5 99.5t2 65
q0 33 8.5 101t21 156t25.5 183.5t21.5 185.5t8.5 161v28.5t-1 25.5q31 14 51.5 41.5t20.5 56.5q0 26 -24.5 37.5t-97.5 11.5t-98 -11.5t-25 -37.5q0 -30 24 -60q-21 -120 -49 -241t-57 -222t-55 -162.5t-44 -61.5q-25 0 -72.5 35t-96.5 86t-83.5 101.5t-34.5 81.5
q0 40 3.5 102.5t8 128.5t8 119.5t3.5 75.5q0 66 -110 66h-96zM756 652q1 -14 4 -27t7 -26l-487 -78l-4 20zM844 736q7 0 16 -5t16 -13q-18 -29 -18 -65q0 -55 40 -87q-15 -15 -28 -15q-24 0 -43 36.5t-19 83.5q0 29 10.5 47t25.5 18z" />
</svg>