<?xml version="1.0" standalone="no"?>
<!DOCTYPE svg PUBLIC "-//W3C//DTD SVG 1.1//EN" "http://www.w3.org/Graphics/SVG/1.1/DTD/svg11.dtd">
<svg xmlns="http://www.w3.org/2000/svg" xmlns:xlink="http://www.w3.org/1999/xlink" version="1.1"
   viewBox="94 -151 2414 2169">
   <path fill="currentColor"
      d="M1938 1460q-40 0 -67 -8.5t-51 -22.5l37 -71q37 22 81 22q30 0 48 -16t28 -40q41 -3 76.5 -33.5t58 -75.5t22.5 -89q0 -8 -0.5 -15.5t-1.5 -14.5q44 -32 67.5 -76t23.5 -95q0 -22 -5 -50.5t-17 -46.5q25 -17 36 -52t11 -67q0 -41 -21 -84.5t-47 -56.5q6 -12 9 -33.5
t3 -40.5q0 -46 -31.5 -93.5t-66.5 -51.5q1 -6 1 -12.5v-12.5q0 -44 -22 -79t-58 -56.5t-78 -22.5h-14t-14 1q-5 -33 -29 -63.5t-57 -49.5t-66 -19q-17 0 -32 2t-26 6q-16 -25 -57 -45t-79 -20q-26 0 -57.5 9t-40.5 17q-10 -7 -34.5 -11.5t-47.5 -4.5q-37 0 -80 20t-56 45
q-15 -6 -42 -6q-57 0 -102.5 39.5t-74.5 116.5l-70 -40q30 -90 96.5 -143t150.5 -53q13 0 19 1q33 -28 74.5 -44t84.5 -16q42 0 78 13q49 -23 102 -23q90 0 159 61q7 -1 14.5 -1.5t14.5 -0.5q69 0 126 36t88 95q83 10 141 70.5t67 141.5q45 34 72 84t27 110q0 26 -6 52
q62 70 62 163q0 70 -38 132q13 44 13 84q0 60 -23.5 113t-65.5 94q-3 86 -54 156t-130 100q-16 30 -49 51t-80 21zM802 1872q-21 0 -36 -8.5t-15 -24.5q0 -27 41 -56.5t106 -50t136 -20.5q65 0 92.5 14.5t27.5 34.5q0 30 -36 31t-125 18q-51 9 -83.5 24t-57 26.5t-50.5 11.5
zM939 1731v-172h138v172h-138zM1115 1978q-22 0 -38 -10t-16 -23q0 -22 35 -56.5t104 -61.5t170 -27q71 0 103 14.5t32 37.5q0 32 -41.5 33.5t-139.5 21.5q-56 11 -92 28t-62 30t-55 13zM1252 1818v-251h169v248zM422 980q-79 0 -119.5 -53.5t-40.5 -123.5q0 -48 15.5 -88
t44.5 -82l70 37q-22 30 -36 62.5t-14 67.5q0 44 27 72t76 28q92 0 133 -133l75 24q-26 88 -82.5 138.5t-148.5 50.5zM1194 1620q-266 0 -463.5 -82.5t-306.5 -231.5t-109 -351q0 -4 0.5 -12t3.5 -38l79 19q-2 27 -2.5 37.5t-0.5 13.5q0 167 97.5 294.5t277 199t424.5 71.5
q185 0 329.5 -36t227.5 -96.5t83 -135.5q0 -23 -4 -45t-13 -52l76 -24q21 67 21 121q0 88 -62 153.5t-166 108.5t-232 64.5t-260 21.5zM465 413q-19 -52 -156 -52q-74 0 -74 -18q0 -11 49 -41t189 -108zM732 926q0 -102 33 -182.5t76 -150.5t76 -139.5t33 -149.5
q0 -125 -72 -202t-187 -77q0 28 -23 57.5t-52.5 57.5t-52.5 52.5t-23 44.5q35 35 50 81.5t15 95.5q0 68 -27 128t-72.5 97.5t-100.5 37.5q-56 0 -81 -29t-25 -60q0 -24 12.5 -48.5t32.5 -46.5q24 -26 52.5 -63t55.5 -78q-7 -32 -11.5 -63.5t-4.5 -59.5q0 -121 74.5 -202.5
t190.5 -81.5q104 0 186.5 60t118.5 156l59 42q-38 3 -56 51.5t-18 108.5q0 16 2 31.5t5 29.5q-23 22 -37 55t-14 71q0 31 13.5 61.5t32.5 52.5zM715 306q-22 0 -37.5 -15.5t-15.5 -36.5t15.5 -36.5t37.5 -15.5q21 0 36.5 15.5t15.5 36.5t-15.5 36.5t-36.5 15.5zM452 183
q-30 0 -50 -21.5t-20 -60.5q0 -81 60 -132.5t151 -51.5q77 0 136 38q-36 0 -75 34.5t-76 79.5t-69.5 79.5t-56.5 34.5zM965 1194q-102 0 -167.5 -75.5t-65.5 -191.5q0 -104 59.5 -188.5t164 -135t238.5 -52.5q0 -49 32.5 -83.5t79.5 -34.5q65 0 99 57q14 -44 49 -71.5
t79 -27.5q48 0 84 29.5t49 74.5q15 -4 34 -4q67 0 108 46t41 110q0 66 -48 112q54 5 91 44t37 93q0 56 -39.5 95.5t-94.5 39.5q-39 0 -91.5 -28t-115.5 -56t-134 -28q-66 0 -116 28t-92.5 69t-84 81.5t-88.5 68.5t-108 28zM1873 1215q-69 0 -117.5 -55t-48.5 -157h79
q0 63 26 97.5t62 34.5q40 0 64.5 -27.5t24.5 -57.5q0 -10 -3 -19q40 -3 60 -35t20 -56t-7 -49.5t-29 -49.5q19 -25 25 -48.5t6 -44.5q0 -32 -14.5 -63.5t-46.5 -51.5q8 -14 12.5 -29.5t4.5 -31.5q0 -38 -21.5 -74t-60.5 -43q0 -54 -25 -80t-66 -26q-10 0 -22.5 0.5
t-20.5 3.5q-13 -42 -47.5 -69t-87.5 -27q-38 0 -71 20q-22 -29 -47.5 -41.5t-55.5 -12.5q-34 0 -64 17.5t-41 50.5q-7 -2 -22 -3.5t-26 -1.5q-42 0 -66 27.5t-24 74.5v6v6q-46 0 -81 27t-35 83q0 41 28.5 68t69.5 27l-10 80q-70 0 -119 -48.5t-49 -119.5q0 -56 33.5 -103.5
t85.5 -62.5q11 -67 57.5 -106t111.5 -39q13 0 20 1q50 -64 131 -64q70 0 118 46q30 -12 62 -12q52 0 94 27t62 72q6 -1 19 -1q67 0 117.5 43t50.5 109q44 23 63 60.5t19 80.5q0 31 -10 55q26 23 40 56t14 69q0 49 -28 91q33 46 33 101q0 43 -26.5 80.5t-68.5 60.5
q-4 57 -48.5 95.5t-103.5 38.5z" />
</svg>