<?xml version="1.0" standalone="no"?>
<!DOCTYPE svg PUBLIC "-//W3C//DTD SVG 1.1//EN" "http://www.w3.org/Graphics/SVG/1.1/DTD/svg11.dtd">
<svg xmlns="http://www.w3.org/2000/svg" xmlns:xlink="http://www.w3.org/1999/xlink" version="1.1"
   viewBox="94 -151 2414 2169">
   <path fill="currentColor"
      d="M663 1396q-76 -2 -109.5 -21.5t-39.5 -46.5q34 -5 51 -32t17 -63q0 -29 -16.5 -66t-48.5 -80q-54 -71 -73 -127t-19 -135q0 -43 10 -79.5t29 -77.5q-24 -48 -24 -97q0 -87 81 -148q-6 -24 -8.5 -47t-2.5 -44q0 -81 48.5 -133.5t145.5 -76.5q-10 -34 -10 -66q0 -44 25 -77
t73 -61q5 51 35 81t95 30q36 0 73.5 -13t92.5 -41q71 -36 148.5 -56.5t195.5 -20.5q124 0 209.5 35t132 86.5t51.5 100.5q68 0 129 35t108.5 95t74.5 134.5t27 153.5q0 67 -29 130q20 41 30 77.5t10 79.5q0 79 -19.5 135t-73.5 127q-66 88 -66 146q0 36 16.5 63t50.5 32
q-8 28 -40.5 48t-67.5 20q-33 0 -61 -22v-540l-23 -19q0 -137 -50.5 -207t-138.5 -70q-20 0 -48 5q-4 -70 -49.5 -112.5t-119.5 -42.5q-102 0 -181.5 48.5t-159.5 111.5q-150 118 -265 167.5t-216 49.5v631zM1295 1635q-124 0 -244.5 -40.5t-221 -111.5t-166.5 -162v-325
q19 44 44.5 80.5t56.5 58t65 21.5q51 0 99 -19t101 -44.5t117.5 -44.5t148.5 -19t148.5 19t117.5 44.5t101 44.5t99 19q49 0 86 -40.5t65 -102.5v323q-65 89 -161.5 156.5t-213 105t-242.5 37.5zM1307 1978q-288 0 -458 -90.5t-185 -245.5q-11 -117 -19.5 -253.5t-12.5 -299
t-4 -355.5h81q0 183 4 348t12.5 304.5t19.5 248.5q13 121 158 192t404 71q205 0 350.5 -33.5t223 -92t77.5 -134.5q0 -19 -6 -37.5t-19 -44.5q-20 -41 -31 -81t-11 -84v-576h80v576q0 42 10 77.5t28 72.5q14 28 21.5 49.5t7.5 47.5q0 101 -88.5 177.5t-252 119.5t-390.5 43z
M1295 1302q93 0 171.5 -43.5t100.5 -130.5l-105 -51l-167 7l-196 -8l-78 41q18 92 99 138.5t175 46.5zM1029 962q-37 0 -62 -27.5t-25 -66.5t25 -66.5t62 -27.5t61.5 27.5t24.5 66.5t-24.5 66.5t-61.5 27.5zM961 1179q-58 0 -92 -39.5t-39 -91.5q18 8 40 11t47 3
q55 0 119 -12t130.5 -23.5t128.5 -11.5q94 0 194 23.5t184 23.5q26 0 48 -3t40 -11q-5 52 -39 91.5t-93 39.5q-49 0 -108 -19l-118 -38t-108 -19q-48 0 -107.5 19t-118.5 38t-108 19zM1558 962q-37 0 -61.5 -27.5t-24.5 -66.5t24.5 -66.5t61.5 -27.5q38 0 62 27.5t24 66.5
t-24 66.5t-62 27.5z" />
</svg>