<?xml version="1.0" standalone="no"?>
<!DOCTYPE svg PUBLIC "-//W3C//DTD SVG 1.1//EN" "http://www.w3.org/Graphics/SVG/1.1/DTD/svg11.dtd">
<svg xmlns="http://www.w3.org/2000/svg" xmlns:xlink="http://www.w3.org/1999/xlink" version="1.1"
   viewBox="94 -151 2414 2169">
   <path fill="currentColor"
      d="M1241 1424q-147 0 -250.5 -29t-177.5 -93.5t-131 -170.5q-25 -47 -45 -121t-34 -160.5t-21 -172.5t-7 -158q0 -100 22 -212.5t90 -200.5q74 -95 162 -139t188 -56.5t207 -12.5q106 0 203 9.5t177.5 36.5t136.5 80q55 52 79 131t36 165q68 23 108.5 94t40.5 169
q0 78 -19 170t-53 183t-80 166q-96 158 -263.5 240t-368.5 82zM1246 1750q-128 0 -171.5 -21.5t-43.5 -82.5q0 -42 21 -61.5t79 -19.5h224q59 0 79.5 19.5t20.5 61.5q0 61 -42.5 82.5t-166.5 21.5zM1242 1978q-133 0 -228.5 -20.5t-147 -64.5t-51.5 -115v-494l80 5v488
q0 56 83 88.5t264 32.5q182 0 265 -32.5t83 -88.5v-491l80 -5v497q0 71 -51.5 115t-147 64.5t-229.5 20.5zM1241 1344q182 0 331.5 -72t231.5 -211q42 -70 73.5 -154t49.5 -168.5t18 -155.5q0 -86 -36.5 -139.5t-92.5 -53.5q-78 0 -124 86t-46 230h-80q0 -170 61 -277
t167 -117q-11 -72 -29.5 -132t-61.5 -100q-66 -62 -183.5 -82t-275.5 -20q-109 0 -197.5 11.5t-161 49t-133.5 114.5q-58 74 -77.5 172t-19.5 190q0 67 6.5 149t19 164.5t30.5 152t41 112.5q52 96 116 151t154.5 77.5t218.5 22.5zM1800 348q-28 -28 -69.5 -42t-82.5 -14
q-31 0 -59.5 8.5t-47.5 25.5l-57 -56q30 -29 73 -43.5t91 -14.5q56 0 112 20t96 59z" />
</svg>