<?xml version="1.0" standalone="no"?>
<!DOCTYPE svg PUBLIC "-//W3C//DTD SVG 1.1//EN" "http://www.w3.org/Graphics/SVG/1.1/DTD/svg11.dtd">
<svg xmlns="http://www.w3.org/2000/svg" xmlns:xlink="http://www.w3.org/1999/xlink" version="1.1"
   viewBox="94 -151 2414 2169">
   <path fill="currentColor"
      d="M1077 1978q-331 0 -503 -199.5t-172 -623.5l-71 -700q-9 -90 48 -154t150 -64q86 0 138 49.5t59 123.5l28 272h-33q20 -45 64.5 -71.5t105.5 -26.5q53 0 97.5 20.5t72.5 61.5q27 -39 67 -60.5t96 -21.5q89 0 138 55h-20v-538q0 -90 55.5 -146.5t143.5 -56.5t144.5 56.5
t56.5 145.5v855l-80 38v-887q0 -61 -32.5 -94.5t-88.5 -33.5q-57 0 -88 34t-31 95v968q0 88 -53.5 145t-135.5 57q-58 0 -102.5 -27t-64.5 -70q-22 33 -64 52.5t-91 19.5q-85 0 -136 -45.5t-59 -118.5l-68 -660q-11 -111 -120 -111q-57 0 -89.5 37t-27.5 94l73 751
q0 361 145.5 530t447.5 169q203 0 351 -93t240 -278l10 -20q53 -106 100.5 -172.5t100.5 -105t120 -59.5q112 -35 151.5 -60.5t39.5 -59.5q0 -50 -62 -80t-157 -30q-105 0 -216.5 40t-214.5 108t-185.5 152t-130.5 173.5t-48 171.5h-80q0 -95 51.5 -196.5t140 -195.5
t201 -169.5t237 -119.5t245.5 -44q134 0 216.5 50.5t82.5 139.5q0 61 -52 104.5t-189 89.5q-60 20 -105 53.5t-85.5 91.5t-88.5 153l-10 20q-103 207 -270 311.5t-393 104.5zM904 1172q61 0 100.5 -35.5t35.5 -84.5l-21 -261q-5 -62 -37.5 -94.5t-90.5 -32.5q-63 0 -91 40.5
t-28 129.5q0 8 0.5 17t1.5 18l21 201q5 51 32.5 76.5t76.5 25.5zM1233 1197q50 0 80.5 -33.5t30.5 -77.5v-290q0 -62 -33 -97t-87 -35q-58 0 -93.5 36.5t-31.5 89.5l25 306q4 49 34 75t75 26z" />
</svg>