<?xml version="1.0" standalone="no"?>
<!DOCTYPE svg PUBLIC "-//W3C//DTD SVG 1.1//EN" "http://www.w3.org/Graphics/SVG/1.1/DTD/svg11.dtd">
<svg xmlns="http://www.w3.org/2000/svg" xmlns:xlink="http://www.w3.org/1999/xlink" version="1.1"
   viewBox="94 -151 2414 2169">
   <path fill="currentColor"
      d="M1300 1978q-216 0 -404.5 -80.5t-331.5 -223.5t-223.5 -331.5t-80.5 -404.5t80.5 -404.5t223.5 -331.5t331.5 -223.5t404.5 -80.5q215 0 403.5 80.5t331.5 223.5t224 331.5t81 404.5t-81 404.5t-224 331.5t-331.5 223.5t-403.5 80.5zM657 921q-23 0 -23 -50v-216
l-153 -90q-66 -39 -66 -57q0 -14 11 -21.5t38 -14.5l203 -51l31 -150q12 -58 23 -83t25 -25q13 0 31 19.5t47 66.5l80 129l209 -19q58 -5 58 21q0 22 -42 72l-113 135l70 184q13 36 13 53q0 21 -21 21q-13 0 -49 -13l-179 -69l-142 127q-34 31 -51 31zM1300 1898
q199 0 373 -74.5t306 -206.5t206.5 -306t74.5 -373t-74.5 -373t-206.5 -306t-306 -206.5t-373 -74.5t-373 74.5t-306 206.5t-206.5 306t-74.5 373t74.5 373t206.5 306t306 206.5t373 74.5zM1944 921q-16 0 -52 -31l-141 -127l-180 69q-36 13 -48 13q-22 0 -22 -21
q0 -9 4 -23t10 -30l70 -184l-113 -135q-43 -51 -43 -72q0 -26 58 -21l209 19l80 -129q29 -47 47.5 -66.5t31.5 -19.5q14 0 25 25t23 83l31 150l202 51q49 12 49 36q0 19 -65 57l-153 90v216q0 50 -23 50zM1300 1581q136 0 256 -46q-130 -71 -256 -71t-256 71q120 46 256 46z
M1300 1636q-125 0 -246.5 -40t-220 -107t-157.5 -149.5t-59 -166.5q0 -41 18 -58.5t49 -17.5q23 0 51 4.5t64 12.5q96 22 229.5 38t271.5 16t271.5 -16t230.5 -38q36 -8 64 -12.5t50 -4.5q32 0 50 17.5t18 58.5q0 84 -59 166.5t-158 149.5t-220.5 107t-246.5 40zM1300 1303
q94 0 201 -7.5t214 -24t200 -41.5v-55q0 -14 -9.5 -17.5t-22.5 -0.5q-80 19 -182 34t-206.5 23.5t-194.5 8.5q-89 0 -194 -8.5t-206.5 -23.5t-182.5 -34q-13 -3 -22.5 0.5t-9.5 17.5v55q93 25 200 41.5t214.5 24t200.5 7.5z" />
</svg>