<?xml version="1.0" standalone="no"?>
<!DOCTYPE svg PUBLIC "-//W3C//DTD SVG 1.1//EN" "http://www.w3.org/Graphics/SVG/1.1/DTD/svg11.dtd">
<svg xmlns="http://www.w3.org/2000/svg" xmlns:xlink="http://www.w3.org/1999/xlink" version="1.1"
   viewBox="94 -151 2414 2169">
   <path fill="currentColor"
      d="M1133 1978q-124 0 -221.5 -25.5t-154.5 -70.5t-62 -102l-113 -1390l79 -11l114 1395q3 30 56.5 58.5t135 47t166.5 18.5q86 0 167 -18.5t135 -47t56 -58.5l114 -1395l79 11l-113 1390q-4 57 -61.5 102t-155 70.5t-221.5 25.5zM986 1729q-39 -13 -60 -34t-23 -50l-27 -422
q-2 -30 28 -32q13 -1 22 7.5t10 21.5l27 423q1 8 10.5 15t31.5 14q12 4 17.5 12t5.5 17q0 13 -11.5 23.5t-30.5 4.5zM1133 614q-156 0 -281 -29.5t-197.5 -81t-72.5 -117.5t72.5 -117t197.5 -80.5t281 -29.5q157 0 281.5 29.5t197 80.5t72.5 117t-72.5 117.5t-197 81
t-281.5 29.5zM1133 534q120 0 228 -23.5t175.5 -57.5t67.5 -67q0 -35 -65.5 -69t-172.5 -56t-233 -22t-233 22t-172.5 56t-65.5 69t65 69.5t172.5 56.5t233.5 22zM1381 575l-86 -23l170 -416q23 -55 57.5 -87t89.5 -48l354 -101q27 -8 41 11.5t11 43.5t-26 31l-358 102
q-37 10 -54.5 30t-33.5 59z" />
</svg>