<?xml version="1.0" standalone="no"?>
<!DOCTYPE svg PUBLIC "-//W3C//DTD SVG 1.1//EN" "http://www.w3.org/Graphics/SVG/1.1/DTD/svg11.dtd">
<svg xmlns="http://www.w3.org/2000/svg" xmlns:xlink="http://www.w3.org/1999/xlink" version="1.1"
   viewBox="94 -151 2414 2169">
   <path fill="currentColor"
      d="M1300 1978q-105 0 -196 -5t-193 -18t-241 -36l56 -595l-255 538q-106 -20 -213 -60t-183 -88q26 -91 61 -199.5t73.5 -219.5t75.5 -211t68 -175q52 -125 101 -239.5t85 -185.5q39 -78 71 -136.5t51 -76.5q14 -13 24.5 -19t32.5 -14l212 -78v83l-203 75q-14 14 -35 49
t-48.5 89.5t-61.5 127t-72.5 162t-82.5 193.5q-28 68 -62 160t-70 194.5t-68.5 201.5t-57.5 180q33 19 77.5 37.5t92.5 33.5t89 26l292 -614l98 16l-62 680q102 15 189.5 25t173.5 15t181 5q96 0 181.5 -5t173.5 -15t189 -25l-62 -680l98 -16l292 614q42 -11 89.5 -26
t92.5 -33.5t77 -37.5q-25 -81 -57.5 -180t-68.5 -201.5t-70 -194.5t-62 -160q-43 -104 -82 -193.5t-72.5 -162t-61.5 -127t-49 -89.5t-35 -49l-201 -74v-83l210 77q22 8 33 14t24 19q20 18 51.5 76.5t70.5 136.5q36 71 85 185.5t101 239.5q31 75 68 175t75.5 211t73.5 219.5
t61 199.5q-76 48 -183 88t-213 60l-255 -538l56 595q-139 23 -241 36t-192.5 18t-196.5 5zM1111 1570q-26 0 -44.5 -18.5t-18.5 -44.5t18.5 -44.5t44.5 -18.5q25 0 43 18.5t18 44.5q0 25 -18 44t-43 19zM1344 1570q-25 0 -43 -19t-18 -44q0 -26 18 -44.5t43 -18.5
q26 0 44.5 18.5t18.5 44.5t-18.5 44.5t-44.5 18.5zM1111 1332q-25 0 -44 -18.5t-19 -43.5q0 -26 19 -44t44 -18t43 18t18 44q0 25 -18 43.5t-43 18.5zM1345 1333q-25 0 -43.5 -19t-18.5 -44q0 -26 18 -44t44 -18t44 18t18 44q0 25 -18 44t-44 19zM1111 1096
q-26 0 -44.5 -18.5t-18.5 -45.5q0 -26 19 -44t44 -18t43 18.5t18 43.5q0 26 -18 45t-43 19zM770 756q-2 -58 -12.5 -131t-33 -153t-59.5 -157l59 -51q59 121 90 245.5t35 246.5h-79zM1344 1096q-25 0 -43 -19t-18 -45q0 -25 18 -43.5t43 -18.5q26 0 44.5 18t18.5 44
q0 27 -18.5 45.5t-44.5 18.5zM1530 1934v-1061q0 -51 -20.5 -78t-71.5 -43l-235 -72q-52 -16 -75.5 -49t-23.5 -85l75 -27q-38 37 -72 54t-72 17q-71 0 -106 -42t-31 -142l8 -223q2 -38 12 -60.5t35 -45.5l159 -145q24 -22 43 -28t52 -6h184q33 0 52 6t43 28l159 145
q26 23 37 45.5t12 60.5l8 223q2 60 -12 97.5t-40 54.5t-60 17q-31 0 -61 -16t-68 -50l47 -21q5 21 10.5 59.5t11 81t8 75.5t1.5 44l-78 -1q-1 -27 -5.5 -76t-12 -103.5t-16.5 -98.5l44 -33q40 39 62 52t49 13q23 0 34.5 -24t9.5 -68l-8 -215q-1 -27 -5 -38.5t-17 -22.5
l-174 -156h-246l-174 156q-13 11 -16 22.5t-4 38.5l-8 215q-2 57 13 81t53 24q35 0 64 -17t85 -69l50 48q-31 31 -43.5 49t-12.5 34q0 17 12 28.5t41 20.5l220 69q80 25 112 67.5t32 122.5v1067h-70zM1309 403l-62 -67q-40 -43 -61 -148t-26 -243l300 3q-4 133 -26.5 238.5
t-62.5 149.5zM1751 756q5 -122 35.5 -246.5t89.5 -245.5l59 51q-37 77 -59.5 157t-33 153t-12.5 131h-79z" />
</svg>