<?xml version="1.0" standalone="no"?>
<!DOCTYPE svg PUBLIC "-//W3C//DTD SVG 1.1//EN" "http://www.w3.org/Graphics/SVG/1.1/DTD/svg11.dtd">
<svg xmlns="http://www.w3.org/2000/svg" xmlns:xlink="http://www.w3.org/1999/xlink" version="1.1"
   viewBox="94 -151 2414 2169">
   <path fill="currentColor"
      d="M1750 1828q-92 0 -160.5 -24.5t-120 -61.5t-92 -73.5t-76 -61t-72.5 -24.5q-36 0 -108 14.5t-159 14.5q-179 0 -282.5 -92t-103.5 -261q0 -91 43 -164t115 -116t159 -43q74 0 141 32.5t113 88.5l-65 48q-73 -89 -189 -89q-64 0 -118 32t-86.5 87t-32.5 124q0 135 79 204
t225 69q91 0 145 -28.5t54 -75.5q0 -39 -35.5 -65.5t-90.5 -26.5q-40 0 -71 25.5t-39 64.5l-68 -14q12 -64 62.5 -105t115.5 -41q50 0 92.5 20t68.5 54q33 -50 93 -81.5t129 -31.5q52 0 102 25l-32 62q-36 -17 -70 -17q-47 0 -89 20t-68 52t-26 69q0 42 61 69t155 27
q79 0 147.5 -21.5t126 -49.5t105 -49.5t83.5 -21.5q34 0 72 17t80.5 34.5t88.5 17.5q66 0 110.5 -45t67 -120t22.5 -165q0 -94 -24 -174.5t-74 -135.5v-42q0 -113 -43.5 -200.5t-121 -138t-178.5 -50.5l-4 -67q14 0 30 1t32 3q-36 -59 -105.5 -103.5t-161 -70t-194.5 -25.5
q-132 0 -249 42q-90 -17 -173 -17q-150 0 -286.5 51t-213.5 133q-90 29 -155 80.5t-100.5 113.5t-35.5 126q0 71 43 117.5t108 46.5q44 0 68 -17.5t24 -50.5q0 -36 -23.5 -64t-47.5 -57t-24 -68q0 -48 48 -96l56 58q-24 23 -24 38q0 21 24 46t47.5 59t23.5 84q0 66 -48 107
t-124 41q-64 0 -116.5 -32.5t-83.5 -88t-31 -123.5q0 -82 45 -160t120.5 -139t168.5 -91q89 -91 232 -142.5t305 -51.5q83 0 167 15q123 -40 255 -40q131 0 245 37t196 102t115 151q123 55 197.5 170t74.5 273v13q49 65 72.5 152t23.5 185q0 108 -28.5 195t-82.5 143
t-132 70q-58 133 -173 211t-266 78zM564 1346q-109 0 -199 -53t-143.5 -141.5t-53.5 -196.5q0 -57 19 -112.5t57 -109.5l66 46q-62 87 -62 176q0 86 42.5 156.5t114.5 112.5t159 42q25 0 60 -5l14 78q-36 7 -74 7zM423 1114q-30 -68 -30 -134t26 -139l66 24q-22 60 -22 115
q0 53 24 104zM1197 1394l-46 -71l100 -7zM1162 1350q-97 0 -174.5 -40.5t-105.5 -107.5l64 -28q20 46 80 76t136 30q92 0 157.5 -42.5t65.5 -100.5q0 -55 -60 -95l40 -58q90 62 90 153q0 59 -39.5 107.5t-106 77t-147.5 28.5zM811 833l-56 -42q34 -46 34 -110
q0 -65 -34.5 -110.5t-81.5 -45.5v-70q77 0 131.5 66.5t54.5 159.5q0 87 -48 152zM1501 1262l-97 -24l34 -73l92 22zM916 699q-84 0 -134 -72l58 -40q28 42 76 42q31 0 58 -21l44 54q-43 37 -102 37zM1031 1014l-62 -32q55 -108 149.5 -166.5t192.5 -58.5q59 0 115 23t99 71
l-52 46q-33 -36 -75 -53.5t-88 -17.5q-79 0 -156 49t-123 139zM1538 1458q-75 -61 -75 -156q0 -72 62.5 -122.5t148.5 -50.5q92 0 146.5 41t54.5 112q0 29 -9 58l-67 -21q6 -18 6 -37q0 -83 -131 -83q-58 0 -99.5 31t-41.5 72q0 58 44 97zM962 476q-11 -52 -61.5 -86
t-116.5 -34q-61 0 -110 31l-38 -58q66 -43 148 -43q90 0 160 49t86 125zM1294 825q-76 -14 -125 -82.5t-49 -157.5q0 -33 5 -53l68 14q-3 16 -3 39q0 64 33.5 113t84.5 59zM1569 1211q-87 0 -159 -50l40 -58q55 38 119 38q72 0 115 -45t43 -116q0 -36 -8 -87l68 -12
q10 51 10 99q0 100 -63.5 165.5t-164.5 65.5zM865 370q-28 -20 -46.5 -58t-18.5 -76q0 -43 23.5 -80t62.5 -56l32 62q-48 24 -48 74q0 22 10.5 44t24.5 32zM1091 632l-28 -64q59 -26 90.5 -87.5t31.5 -119.5q0 -42 -17 -74.5t-54 -41.5l18 -68q62 16 92 68.5t30 117.5
q0 78 -41.5 155.5t-121.5 113.5zM2170 1328q0 -53 -39 -91t-94 -38q-40 0 -88.5 21.5t-78.5 51.5l-50 -48q39 -41 102 -68t115 -27q83 0 143 58t60 141h-70zM1400 600l-52 -48q29 -31 29 -72q0 -26 -22.5 -44t-56.5 -18q-38 0 -67 11l-26 -64q41 -17 93 -17q62 0 105.5 38.5
t43.5 93.5q0 68 -47 120zM1894 822q-25 -89 -80.5 -137.5t-132.5 -48.5q-56 0 -108 24t-87.5 64t-45.5 88l-68 -14q13 -65 58.5 -117.5t111.5 -83.5t139 -31q101 0 175.5 63t105.5 175zM1605 457l-62 -32q11 -23 15 -42t4 -35q0 -45 -44.5 -70.5t-145.5 -41.5l10 -70
q128 20 189.5 64t61.5 115q0 25 -6 52.5t-22 59.5zM2273 1100q-56 -4 -96 -45.5t-40 -98.5q0 -8 1 -17t3 -16l68 16q-2 10 -2 17q0 28 19 49.5t47 24.5v70zM2061 1002q-67 0 -136 -27l26 -66q55 23 110 23q66 0 115.5 -37t81.5 -102l62 30q-40 83 -106.5 131t-152.5 48z
M1922 718q-42 0 -83 -15l24 -66q31 11 59 11q78 0 96 -107l70 12q-13 79 -56.5 122t-109.5 43zM1799 441q-105 -2 -178 -52.5t-73 -122.5q0 -45 25 -81.5t67 -58.5t92 -22q31 0 65 9v73q-36 -14 -68 -14q-44 0 -77.5 28t-33.5 66q0 40 54 71.5t127 33.5v70zM1754 1755
q16 0 33.5 -0.5t50.5 -4.5q-101 -29 -176 -63t-137 -95q-13 -13 -30 -13q-16 0 -30.5 12.5t-14.5 29.5q0 18 18 36q29 29 78 51t104.5 34.5t103.5 12.5zM1919 1724q27 -12 53 -28.5t45 -32.5q-76 -24 -135.5 -51.5t-131.5 -73.5q-13 -9 -29 -9q-15 0 -27 12.5t-12 28.5
q0 22 24 38q62 43 116 71t97 45zM2070 1600q14 -19 26 -38t21 -38q-66 -8 -106 -33t-68 -25q-17 0 -29 11t-12 28q0 21 31.5 41t71.5 34.5t65 19.5z" />
</svg>