<?xml version="1.0" standalone="no"?>
<!DOCTYPE svg PUBLIC "-//W3C//DTD SVG 1.1//EN" "http://www.w3.org/Graphics/SVG/1.1/DTD/svg11.dtd">
<svg xmlns="http://www.w3.org/2000/svg" xmlns:xlink="http://www.w3.org/1999/xlink" version="1.1"
   viewBox="94 -151 2414 2169">
   <path fill="currentColor"
      d="M1300 1978q-216 0 -404.5 -80.5t-331.5 -223.5t-223.5 -331.5t-80.5 -404.5t80.5 -404.5t223.5 -331.5t331.5 -223.5t404.5 -80.5q215 0 403.5 80.5t331.5 223.5t224 331.5t81 404.5t-81 404.5t-224 331.5t-331.5 223.5t-403.5 80.5zM1036 1513v-80h528v80h-528z
M938 1050q-52 0 -88.5 -45.5t-36.5 -113.5t36.5 -113.5t88.5 -45.5q51 0 88 45.5t37 113.5t-36.5 113.5t-88.5 45.5zM690 663l-62 -50q99 -125 211 -125q51 0 94.5 18.5t81.5 37t74 18.5q41 0 81 -43l58 54q-63 69 -139 69q-52 0 -93 -18.5t-78.5 -37t-78.5 -18.5
q-73 0 -149 95zM1300 1898q199 0 373 -74.5t306 -206.5t206.5 -306t74.5 -373t-74.5 -373t-206.5 -306t-306 -206.5t-373 -74.5t-373 74.5t-306 206.5t-206.5 306t-74.5 373t74.5 373t206.5 306t306 206.5t373 74.5zM1665 1032q-53 0 -89 -55t-36 -135t36 -135t89 -55t89 55
t36 135t-36 135t-89 55zM1494 480l-52 -60q100 -86 175.5 -127.5t135.5 -41.5q136 0 182 184l-78 20q-30 -124 -104 -124q-43 0 -106.5 36t-152.5 113z" />
</svg>