<?xml version="1.0" standalone="no"?>
<!DOCTYPE svg PUBLIC "-//W3C//DTD SVG 1.1//EN" "http://www.w3.org/Graphics/SVG/1.1/DTD/svg11.dtd">
<svg xmlns="http://www.w3.org/2000/svg" xmlns:xlink="http://www.w3.org/1999/xlink" version="1.1"
   viewBox="94 -151 2414 2169">
   <path fill="currentColor"
      d="M1448 1978q-141 0 -287 -52.5t-277.5 -144t-231 -211t-149.5 -252.5q-24 -65 -38.5 -136.5t-14.5 -119.5q0 -60 20 -141t49 -163.5t58 -148.5t47 -95q14 -4 31.5 -7t33.5 -3q15 0 27 1.5t22 5.5q0 -39 12.5 -70t52 -64.5t118.5 -79.5t212 -115q34 -18 78 -35.5
t82.5 -29.5t54.5 -12q17 0 35.5 7.5t38.5 7.5q26 0 70.5 -7.5t104.5 -7.5q50 0 110 10t130 36q41 0 102.5 48.5t129.5 126t127 165t96.5 167t37.5 131.5q0 334 -60.5 559.5t-188.5 366.5q-54 60 -83.5 101t-46.5 70q-118 27 -240.5 59.5t-262.5 32.5zM636 1498
q-100 -86 -170 -130t-113.5 -62t-63 -26t-19.5 -22q0 -8 10 -19t38 -11q62 0 120 19t120 54zM1184 1855q20 0 32.5 -18.5t12.5 -31.5q0 -18 -18 -33l-117 -106q-18 -17 -39 -17q-17 0 -29.5 15t-12.5 32q0 19 18 36l117 107q18 16 36 16zM708 1244q-16 0 -28 -10t-12 -29
q0 -24 28 -53.5t86 -57.5l45 87q-74 63 -119 63zM1005 1438q-15 0 -25 -17t-10 -42q0 -20 5.5 -49.5t14.5 -52.5l110 9q-26 82 -47.5 117t-47.5 35zM561 880q-40 -89 -79 -133t-70.5 -62t-50.5 -28.5t-19 -33.5q0 -27 51 -27q92 0 145 48.5t53 99.5zM1540 1849
q16 0 29.5 -15.5t13.5 -33.5q0 -21 -21 -36l-126 -96q-17 -14 -36 -14q-16 0 -29 14.5t-13 32.5q0 23 22 39l126 96q18 13 34 13zM1798 1761q27 0 41.5 -20t2.5 -48l-65 -145q-14 -32 -43 -32q-27 0 -40.5 20.5t-0.5 49.5l65 145q14 30 40 30zM1538 1332q-24 0 -53 -28
t-58 -86l87 -45q63 74 63 119q0 16 -10 28t-29 12zM652 559q20 -53 28.5 -87t8.5 -55q0 -40 -15.5 -69t-15.5 -54q0 -18 19 -18q37 0 65 38.5t44 90.5t16 94zM1101 1331q-183 0 -273.5 -74.5t-90.5 -225.5q0 -129 64.5 -246t174 -208.5t246.5 -144.5t281 -53q127 0 222.5 40
t149 111t53.5 165q0 122 -68.5 236t-186 204t-265.5 143t-307 53zM1101 1251q141 0 274.5 -46.5t240 -126t169.5 -179t63 -204.5q0 -106 -95 -171t-250 -65q-133 0 -256 48.5t-220 130t-153.5 183.5t-56.5 210q0 116 67 168t217 52zM915 1508h144q163 0 315 -44.5
t281.5 -122.5t227 -181t151.5 -221t54 -241q0 -63 -22 -96.5t-22 -45.5q0 -11 6.5 -26t6.5 -34q0 -62 -50 -114.5t-131 -92t-175 -61t-181 -21.5q-184 0 -326 58.5t-270 181.5q-34 32 -67.5 48t-50.5 31q-69 63 -119 151t-76.5 184.5t-26.5 185.5q0 100 35 192t93 158
q24 -11 57 -11q39 0 82.5 25.5t63.5 96.5zM1959 1511q15 0 28.5 -10.5t16.5 -33.5l22 -158q4 -27 -11 -42t-34 -15q-16 0 -29.5 11.5t-16.5 34.5l-21 158q-4 25 11 40t34 15zM1237 469q-21 -57 -21 -100q0 -31 12 -50.5t31 -19.5q27 0 45.5 37.5t24.5 103.5zM2141 1342
q46 0 46 -49v-181q0 -22 -13.5 -37t-33.5 -15q-19 0 -31.5 14.5t-12.5 37.5v181q0 49 45 49zM1860 592l-45 -87q74 -63 119 -63q17 0 28.5 10t11.5 29q0 24 -27.5 53t-86.5 58zM1730 155l-148 -23q-39 -51 -39 -138q0 -43 9.5 -69.5t25.5 -26.5q13 0 25.5 20.5t27.5 67.5
q16 50 40 90.5t59 78.5zM2133 437l-132 -125q0 -135 26.5 -194.5t54.5 -59.5q16 0 16 19t3.5 60.5t9.5 95.5z" />
</svg>