<?xml version="1.0" standalone="no"?>
<!DOCTYPE svg PUBLIC "-//W3C//DTD SVG 1.1//EN" "http://www.w3.org/Graphics/SVG/1.1/DTD/svg11.dtd">
<svg xmlns="http://www.w3.org/2000/svg" xmlns:xlink="http://www.w3.org/1999/xlink" version="1.1"
   viewBox="94 -151 2414 2169">
   <path fill="currentColor"
      d="M1300 1978q-216 0 -404.5 -80.5t-331.5 -223.5t-223.5 -331.5t-80.5 -404.5t80.5 -404.5t223.5 -331.5t331.5 -223.5t404.5 -80.5q215 0 403.5 80.5t331.5 223.5t224 331.5t81 404.5t-81 404.5t-224 331.5t-331.5 223.5t-403.5 80.5zM860 1619l25 -94l49 6l5 -41l-44 -5
l17 -65l46 6l5 -41l-41 -5l24 -92l-40 -5l-24 92l-41 -6l24 -91l-41 -5l-24 91l-49 -5l-5 42l43 5l-16 65l-47 -6l-4 40l40 5l-24 95l40 4l24 -94l42 5l-25 95zM855 1479l-42 -4l17 -65l41 5zM1140 1681l6 -51q39 -2 62.5 -27.5t23.5 -62.5q0 -23 -12 -40t-41 -33l-30 -17
q-20 -11 -27.5 -21.5t-7.5 -25.5q0 -34 37 -34q43 0 79 26l18 -41q-13 -9 -29 -16t-36 -11l4 -37l-27 -4l-5 37q-42 0 -65 23t-23 63q0 44 53 76l33 20q32 19 32 41q0 40 -46 40q-45 0 -88 -35l-6 50q33 22 72 26l-6 50zM1371 1676q36 0 36 -36q0 -37 -36 -37t-36 37
q0 36 36 36zM1989 1888l-1490 -156l64 -622l1490 156zM1403 1564l38 -225l-67 -8l-18 227zM958 1038q-52 0 -89 -44.5t-37 -105.5q0 -62 37.5 -106.5t88.5 -44.5q53 0 89.5 44.5t36.5 106.5q0 61 -36.5 105.5t-89.5 44.5zM1696 1744q25 0 58 -10l5 -35q-33 10 -64 10
q-55 0 -87 -33.5t-32 -92.5q0 -77 33.5 -132t91.5 -55q47 0 76 33.5t29 85.5q0 46 -11.5 78t-28.5 32q-22 0 -17 -30l20 -124q-13 -8 -32.5 -14t-33.5 -6q-41 0 -63.5 35.5t-22.5 87.5q0 74 54 74q26 0 45 -33l7 2q3 43 44 43t60 -47t19 -93q0 -70 -40 -114t-107 -44
q-52 0 -89 32.5t-56 83t-19 105.5q0 77 43 119t118 42zM1679 1614q-20 0 -20 -35q0 -26 11 -60t33 -34q12 0 20 5l-9 50q-7 41 -14.5 57.5t-20.5 16.5zM1119 784q-129 -11 -217.5 -46.5t-150.5 -100.5l55 -52q55 55 128 81.5t191 37.5zM1300 1898q199 0 373 -74.5
t306 -206.5t206.5 -306t74.5 -373t-74.5 -373t-206.5 -306t-306 -206.5t-373 -74.5t-373 74.5t-306 206.5t-206.5 306t-74.5 373t74.5 373t206.5 306t306 206.5t373 74.5zM1642 1038q-52 0 -89 -44.5t-37 -105.5q0 -62 37.5 -106.5t88.5 -44.5q53 0 89.5 44.5t36.5 106.5
q0 61 -36.5 105.5t-89.5 44.5zM1482 784l-7 -80q119 -11 192 -38t127 -83l55 54q-62 65 -150 100.5t-217 46.5z" />
</svg>