<?xml version="1.0" standalone="no"?>
<!DOCTYPE svg PUBLIC "-//W3C//DTD SVG 1.1//EN" "http://www.w3.org/Graphics/SVG/1.1/DTD/svg11.dtd">
<svg xmlns="http://www.w3.org/2000/svg" xmlns:xlink="http://www.w3.org/1999/xlink" version="1.1"
   viewBox="94 -151 2414 2169">
   <path fill="currentColor"
      d="M1300 1978q-138 0 -249 -26.5t-177 -71t-71 -98.5l-142 -1625h81l137 1595q4 44 65 77t156 51t200 18t200 -18t156 -51t65 -77l137 -1595h81l-142 1625q-4 54 -70.5 98.5t-177.5 71t-249 26.5zM1127 1720q-40 -8 -63.5 -37t-26.5 -69l-28 -381q-1 -13 7 -23t21 -10
q30 0 32 28l28 382q3 44 45 51q21 3 21 28q0 18 -11 26t-25 5zM1300 1013q-164 0 -293 -24.5t-202.5 -72t-73.5 -115.5t74 -115t202.5 -72t292.5 -25t292.5 25t202.5 72t74 115t-73.5 115.5t-202 72t-293.5 24.5zM1300 933q138 0 246 -17t170.5 -47t62.5 -68t-63 -68
t-171 -47t-245 -17q-136 0 -244.5 17t-171.5 47t-63 68t62.5 68t171 47t245.5 17zM1300 422q-181 0 -326 -34t-229 -94t-84 -137q0 -76 84 -135.5t229 -93.5t326 -34q182 0 326.5 34t228.5 93.5t84 135.5q0 77 -84 137t-228.5 94t-326.5 34zM1300 344q155 0 279 -27.5
t197 -70.5t73 -89q0 -45 -73 -87.5t-197.5 -70t-278.5 -27.5t-278.5 27.5t-197.5 70t-73 87.5q0 46 73 89t197.5 70.5t278.5 27.5z" />
</svg>