<?xml version="1.0" standalone="no"?>
<!DOCTYPE svg PUBLIC "-//W3C//DTD SVG 1.1//EN" "http://www.w3.org/Graphics/SVG/1.1/DTD/svg11.dtd">
<svg xmlns="http://www.w3.org/2000/svg" xmlns:xlink="http://www.w3.org/1999/xlink" version="1.1"
   viewBox="94 -151 2414 2169">
   <path fill="currentColor"
      d="M741 1978q-56 0 -126.5 -39.5t-135 -100.5t-106.5 -127.5t-42 -119.5q0 -39 33.5 -83.5t113.5 -123.5l67 -66q48 -47 73.5 -81t36.5 -71q-115 -20 -196.5 -113t-105.5 -217q-35 -28 -54.5 -64t-19.5 -83q0 -71 41 -127q-54 -93 -54 -197q0 -107 52 -193t140.5 -136.5
t197.5 -50.5h10t9 1q84 -78 202 -78q112 0 198 75q8 -1 16.5 -1.5t16.5 -0.5q78 0 139 50q41 -62 107.5 -97.5t142.5 -35.5q73 0 138 34q44 -21 93 -21q55 0 103 27.5t79.5 70.5t35.5 92q86 7 150 66t64 142q0 28 -7 53q51 90 51 193q0 67 -22.5 129t-62.5 113
q98 46 156.5 140.5t58.5 207.5q0 34 -5.5 66t-18.5 70q4 18 5.5 35t1.5 32q0 68 -31 128.5t-84 104t-120 60.5q-43 50 -102 79t-123 29q-69 0 -130 -29q-61 29 -130 29q-71 0 -130 -36t-101 -92q-68 0 -124 -20t-93 -55q-51 44 -109 105q-87 92 -124 150t-53 90
q-23 46 -56 66.5t-66 20.5zM741 1898q12 0 24.5 -9.5t27.5 -38.5q16 -31 57 -93.5t132 -159.5q106 -112 209.5 -182.5t212 -108.5t229.5 -50q8 -26 8 -49q0 -27 -9 -52.5t-24 -43.5l-192 52q-10 2 -34 6.5t-57 9t-69 6.5q0 -37 19 -81.5t34 -65.5l164 -224
q-34 -23 -77 -37.5t-83 -18.5l-145 195q-26 35 -68 83t-100 100q-47 -17 -68 -75.5t-21 -170.5v-111q-34 9 -72 9q-16 0 -39.5 -1.5t-50.5 -5.5v245q0 81 -10.5 135.5t-42.5 103t-95 110.5l-68 67q-62 61 -92 96.5t-30 60.5q0 27 31 71.5t76 90.5q65 -83 137 -163.5
t150 -158.5q13 -13 29 -13q18 0 28.5 13t10.5 26q0 17 -17 34q-76 76 -146 153.5t-133 160.5q44 37 88.5 61t75.5 24zM742 624q-64 -11 -96.5 -30.5t-32.5 -48.5q0 -28 27 -28q13 0 33 8t39 22q6 -30 20 -54t28 -24q13 0 22 14.5t9 35.5q0 41 -49 105zM621 379
q-58 -18 -88 -40.5t-30 -48.5q0 -31 27 -31q14 0 33.5 11t38.5 28q11 -29 27.5 -49.5t29.5 -20.5q11 0 18.5 12.5t7.5 31.5q0 45 -64 107zM984 452q-93 -57 -93 -104q0 -35 26 -35q14 0 32.5 17t34.5 42q17 -26 34.5 -42.5t32.5 -16.5q10 0 17.5 10.5t7.5 24.5
q0 26 -22.5 50.5t-69.5 53.5zM514 825q51 0 95 -22.5t76 -54t46 -56.5q34 9 64 12.5t61 3.5q139 0 237 -72t135 -183q51 55 121 55q64 0 127 -51q34 10 68 10q71 0 120 -45t49 -108q0 -25 -7 -49q59 0 109.5 -43.5t50.5 -102.5q0 -62 -44.5 -95t-93.5 -33q-52 0 -93 40
q-59 -53 -138 -53q-67 0 -130 42.5t-103 126.5q-34 -43 -77 -64.5t-79 -21.5q-14 0 -28 2t-32 8q-66 -83 -171 -83q-49 0 -94 20t-73 61q-22 -2 -38 -3t-28 -1q-81 0 -149 40.5t-108.5 108.5t-40.5 151q0 117 81 205q-33 17 -50.5 50.5t-17.5 68.5q0 57 47 96.5t108 39.5z
M1857 1669q53 0 104.5 -30.5t79.5 -72.5q78 -10 137 -73.5t59 -144.5q0 -43 -14 -72q31 -65 31 -131q0 -80 -37.5 -148.5t-98.5 -111t-132 -42.5q-75 0 -163 58t-152 161q50 61 50 145q0 22 -8.5 60t-17.5 80t-9 75q0 103 39.5 175t131.5 72zM1992 1224q-129 -21 -129 -79
q0 -28 27 -28q13 0 33 8t39 22q6 -30 20 -54t28 -24q13 0 22 14.5t9 35.5q0 41 -49 105zM1479 329q-56 -23 -83 -46t-27 -48q0 -33 25 -33q14 0 35 13t37 32q14 -29 31 -48t30 -19q11 0 18 11t7 28q0 47 -73 110z" />
</svg>