<?xml version="1.0" standalone="no"?>
<!DOCTYPE svg PUBLIC "-//W3C//DTD SVG 1.1//EN" "http://www.w3.org/Graphics/SVG/1.1/DTD/svg11.dtd">
<svg xmlns="http://www.w3.org/2000/svg" xmlns:xlink="http://www.w3.org/1999/xlink" version="1.1"
   viewBox="94 -151 2414 2169">
   <path fill="currentColor"
      d="M1885 1978q-145 0 -259.5 -111.5t-168.5 -300.5q-24 -84 -59 -145t-75 -96q-61 -54 -117 -80.5t-114 -46.5q-53 -19 -106.5 -44t-109.5 -74q-64 -58 -103.5 -140.5t-66.5 -206.5q-112 -98 -172.5 -199.5t-60.5 -202.5q0 -70 24 -145.5t63.5 -141t86 -106t91.5 -40.5
q46 0 101.5 42.5t106.5 108.5t84 138.5t33 132.5q0 36 -3 83t-3 66t4 34q6 7 32.5 22t89.5 42q130 56 225 112t161 125.5t110 163.5t72.5 224.5t49.5 310.5q11 91 37.5 135t60.5 44q29 0 40 -24.5t11 -62.5q0 -28 -9 -60.5t-26 -61.5q19 -5 30 -7t23 -2q63 0 114 32.5
t81.5 86.5t30.5 121q0 79 -40.5 141t-110 97.5t-158.5 35.5zM984 1588q-17 0 -29.5 -12.5t-12.5 -28.5q0 -17 12.5 -29t29.5 -12q18 0 30.5 12t12.5 29q0 16 -12.5 28.5t-30.5 12.5zM1069 1663q-17 0 -29.5 -12.5t-12.5 -28.5q0 -17 12.5 -29t29.5 -12q18 0 30.5 12t12.5 29
q0 16 -12.5 28.5t-30.5 12.5zM483 1078q-16 0 -28.5 -12.5t-12.5 -30.5q0 -17 12.5 -29.5t28.5 -12.5q17 0 29 12.5t12 29.5q0 18 -12 30.5t-29 12.5zM447 977q-16 0 -28.5 -12.5t-12.5 -30.5q0 -17 12.5 -29.5t28.5 -12.5q17 0 29 12.5t12 29.5q0 18 -12 30.5t-29 12.5z
M1174 1685q-17 0 -29.5 -12.5t-12.5 -28.5q0 -17 12.5 -29t29.5 -12q18 0 30.5 12t12.5 29q0 16 -12.5 28.5t-30.5 12.5zM971 1471q-17 0 -29.5 -12.5t-12.5 -28.5q0 -17 12.5 -29t29.5 -12q18 0 30.5 12t12.5 29q0 16 -12.5 28.5t-30.5 12.5zM1096 1623l-36 -18l69 -121
l-124 79l-24 -28l104 -81l-96 7l-12 -54l231 3l-17 210l-30 -3v-115zM501 891q-16 0 -28.5 -12.5t-12.5 -30.5q0 -17 12.5 -29.5t28.5 -12.5q17 0 29 12.5t12 29.5q0 18 -12 30.5t-29 12.5zM735 1150q-61 0 -100.5 -33.5t-61.5 -91.5l-79 -3l2 -23l52 -17l-77 -35l5 -22
l75 15l-48 -64l32 -14l46 56l5 -83l26 5l30 149l70 45l92 -146l101 116q-19 25 -54.5 59.5t-68.5 60.5t-47 26zM601 853q-16 0 -28.5 -12.5t-12.5 -30.5q0 -17 12.5 -29.5t28.5 -12.5q17 0 29 12.5t12 29.5q0 18 -12 30.5t-29 12.5zM1169 1529l-8 -57l-123 -44
q26 0 42.5 -7.5t16.5 -24.5q0 -12 -10.5 -24t-23.5 -23q-12 -11 -22 -21.5t-10 -20.5q0 -14 22.5 -36.5t53.5 -47t57 -41.5l222 127q-59 0 -118 11.5t-94 24.5q119 62 119 110q0 22 -23 38.5t-52 26t-49 9.5zM1551 1583q-22 0 -38.5 -16.5t-16.5 -38.5t16.5 -38t38.5 -16
t38 16t16 38t-16 38.5t-38 16.5zM1131 1124q-22 0 -38.5 -16.5t-16.5 -38.5t16.5 -38t38.5 -16t38 16t16 38t-16 38.5t-38 16.5zM812 783q-22 0 -38.5 -16.5t-16.5 -38.5t16.5 -38t38.5 -16t38 16t16 38t-16 38.5t-38 16.5zM1061 914q-22 0 -38.5 -16.5t-16.5 -38.5
t16.5 -38t38.5 -16t38 16t16 38t-16 38.5t-38 16.5zM623 369q-31 0 -53.5 -22.5t-22.5 -53.5q0 -32 22.5 -54t53.5 -22q32 0 54 22t22 54q0 31 -22 53.5t-54 22.5zM1431 1134q-22 0 -38.5 -16.5t-16.5 -38.5t16.5 -38t38.5 -16t38 16t16 38t-16 38.5t-38 16.5zM1651 1323
q-22 0 -38.5 -16.5t-16.5 -38.5t16.5 -38t38.5 -16t38 16t16 38t-16 38.5t-38 16.5zM1885 1898q101 0 166 -55.5t65 -138.5q0 -66 -43.5 -115t-104.5 -61l31 -6q14 31 19 57.5t5 53.5q0 43 -34 86t-90 43q-71 0 -117.5 -70.5t-59.5 -179.5q-24 -210 -58.5 -348.5
t-94.5 -230.5t-160.5 -159t-256.5 -133q-65 -28 -98.5 -50.5t-52.5 -41.5q-12 -13 -17 -31.5t-5 -42.5q0 -12 1 -35.5t2 -54.5t1 -65q0 -42 -27 -100t-67 -113t-81 -92t-70 -37q-25 0 -56.5 35t-61 89.5t-48.5 115.5t-19 113q0 169 223 357q32 135 64.5 209t89.5 124
q47 42 91.5 63t97.5 39q59 19 123 50t134 92q51 45 92 117.5t66 161.5q47 166 141.5 260t209.5 94zM1331 934q-22 0 -38.5 -16.5t-16.5 -38.5t16.5 -38t38.5 -16t38 16t16 38t-16 38.5t-38 16.5zM893 319q-31 0 -53.5 -22.5t-22.5 -53.5q0 -32 22.5 -54t53.5 -22q32 0 54 22
t22 54q0 31 -22 53.5t-54 22.5zM1361 669l-157 -72l32 -150l75 -31q29 69 37.5 130t12.5 123zM1708 1132l-98 -219q0 -38 28 -50t69 -12q35 0 76 4.5t75 13.5l95 5q8 13 8 26q0 19 -16 40t-37 26l-191 40zM1163 399q-16 0 -28.5 -12.5t-12.5 -30.5q0 -17 12.5 -29.5
t28.5 -12.5q17 0 29 12.5t12 29.5q0 18 -12 30.5t-29 12.5zM1279 513l-131 -141l32 -26l54 37l-15 -105l39 -5l21 75l29 -69l36 14l-21 80l49 -37l10 28zM1235 309q-16 0 -28.5 -12.5t-12.5 -30.5q0 -17 12.5 -29.5t28.5 -12.5q17 0 29 12.5t12 29.5q0 18 -12 30.5t-29 12.5
zM1797 810q-17 0 -29.5 -12t-12.5 -31q0 -20 12.5 -32t29.5 -12t29.5 12t12.5 32q0 19 -12.5 31t-29.5 12zM1405 379q-16 0 -28.5 -12.5t-12.5 -30.5q0 -17 12.5 -29.5t28.5 -12.5q17 0 29 12.5t12 29.5q0 18 -12 30.5t-29 12.5zM1335 299q-16 0 -28.5 -12.5t-12.5 -30.5
q0 -17 12.5 -29.5t28.5 -12.5q17 0 29 12.5t12 29.5q0 18 -12 30.5t-29 12.5zM1920 929l-125 -132l24 -30l64 67l-6 -125l29 -7l16 84l37 -71l24 8l-33 102l63 -50l16 32zM1882 730q-17 0 -29.5 -12t-12.5 -31q0 -20 12.5 -32t29.5 -12t29.5 12t12.5 32q0 19 -12.5 31
t-29.5 12zM2045 820q-17 0 -29.5 -12t-12.5 -31q0 -20 12.5 -32t29.5 -12t29.5 12t12.5 32q0 19 -12.5 31t-29.5 12zM1985 734q-17 0 -29.5 -12t-12.5 -31q0 -20 12.5 -32t29.5 -12t29.5 12t12.5 32q0 19 -12.5 31t-29.5 12z" />
</svg>