<?xml version="1.0" standalone="no"?>
<!DOCTYPE svg PUBLIC "-//W3C//DTD SVG 1.1//EN" "http://www.w3.org/Graphics/SVG/1.1/DTD/svg11.dtd">
<svg xmlns="http://www.w3.org/2000/svg" xmlns:xlink="http://www.w3.org/1999/xlink" version="1.1"
   viewBox="94 -151 2414 2169">
   <path fill="currentColor"
      d="M1300 1978q-216 0 -404.5 -80.5t-331.5 -223.5t-223.5 -331.5t-80.5 -404.5t80.5 -404.5t223.5 -331.5t331.5 -223.5t404.5 -80.5q215 0 403.5 80.5t331.5 223.5t224 331.5t81 404.5q0 172 -53 328.5t-148 286.5l-72 -39l80 -73l10 -69q50 -98 76.5 -207t26.5 -227
q0 -199 -74.5 -373t-206.5 -306t-306 -206.5t-373 -74.5t-373 74.5t-306 206.5t-206.5 306t-74.5 373t74.5 373t206.5 306t306 206.5t373 74.5q203 0 381 -78.5t308 -213.5l30 84q-140 133 -325 210.5t-394 77.5zM1444 1524q-158 -69 -295 -69q-108 0 -209 45l-31 -68
q115 -52 240 -52q156 0 325 76zM816 917q-52 0 -89 -45.5t-37 -113.5t37 -114t89 -46t89 46t37 114t-36.5 113.5t-89.5 45.5zM2078 1948q-47 0 -80.5 -33t-33.5 -80t33.5 -80t80.5 -33t80 33t33 80t-33 80t-80 33zM2078 1898q26 0 44.5 -18.5t18.5 -44.5t-18.5 -44.5
t-44.5 -18.5t-45 18.5t-19 44.5t19 44.5t45 18.5zM620 564l-67 -20q32 -107 78 -157t114 -50q23 0 46.5 4t45.5 10q23 7 46.5 11.5t46.5 4.5h91v70h-91q-31 0 -58.5 -5.5t-52.5 -12.5q-20 -5 -38.5 -8.5t-35.5 -3.5q-40 0 -69.5 36t-55.5 121zM2078 1725q-47 0 -80.5 -33
t-33.5 -80t33.5 -80t80.5 -33t80 33t33 80t-33 80t-80 33zM2078 1675q26 0 44.5 -18.5t18.5 -44.5t-18.5 -44.5t-44.5 -18.5t-45 18.5t-19 44.5t19 44.5t45 18.5zM2078 1502q-47 0 -80.5 -33t-33.5 -80t33.5 -80t80.5 -33t80 33t33 80q0 46 -33 79.5t-80 33.5zM2078 1452
q26 0 44.5 -19t18.5 -44q0 -26 -18.5 -44.5t-44.5 -18.5t-45 18.5t-19 44.5t19 44.5t45 18.5zM1618 1092q-100 0 -182 -48.5t-131 -130.5t-49 -182t48.5 -182t131 -131t182.5 -49t182 49t130.5 131t48.5 182t-48.5 182t-130.5 130.5t-182 48.5zM1618 1028q82 0 149.5 -40
t107.5 -107.5t40 -149.5t-40.5 -149.5t-107.5 -107.5t-149 -40t-149.5 40t-107.5 107t-40 150q0 82 40 149.5t107.5 107.5t149.5 40zM1626 905q-59 0 -100 -48.5t-41 -118.5q0 -71 41 -119.5t100 -48.5t100.5 49t41.5 119t-41 118.5t-101 48.5zM2078 1279q-47 0 -80.5 -33
t-33.5 -80t33.5 -80t80.5 -33t80 33t33 80q0 46 -33 79.5t-80 33.5zM2078 1229q26 0 44.5 -19t18.5 -44q0 -26 -18.5 -44.5t-44.5 -18.5t-45 18.5t-19 44.5t19 44.5t45 18.5zM2078 1056q-47 0 -80.5 -33t-33.5 -80t33.5 -80t80.5 -33t80 33t33 80q0 46 -33 79.5t-80 33.5z
M2078 1006q26 0 44.5 -19t18.5 -44q0 -26 -18.5 -44.5t-44.5 -18.5t-45 18.5t-19 44.5t19 44.5t45 18.5zM1949 833v-226h129q47 0 80 33t33 80q0 46 -33 79.5t-80 33.5h-129zM2078 783q26 0 44.5 -19t18.5 -44q0 -26 -18.5 -44.5t-44.5 -18.5t-45 18.5t-19 44.5t19 44.5
t45 18.5zM1429 365l-45 -53q98 -83 173.5 -119.5t135.5 -36.5q62 0 107 42.5t70 137.5l-68 17q-19 -71 -45.5 -99t-63.5 -28q-45 0 -110 32.5t-154 106.5z" />
</svg>