<?xml version="1.0" standalone="no"?>
<!DOCTYPE svg PUBLIC "-//W3C//DTD SVG 1.1//EN" "http://www.w3.org/Graphics/SVG/1.1/DTD/svg11.dtd">
<svg xmlns="http://www.w3.org/2000/svg" xmlns:xlink="http://www.w3.org/1999/xlink" version="1.1"
   viewBox="94 -151 2414 2169">
   <path fill="currentColor"
      d="M837 1978q-113 0 -171 -29.5t-78 -98.5t-20 -186q0 -271 83 -471.5t229 -311.5t336 -111q163 0 310 76.5t261 209t179.5 301t65.5 352.5q0 108 -27 166t-94 80.5t-187 22.5q-78 0 -170 -18t-177 -47q-90 31 -223.5 48t-316.5 17zM904 1809q69 0 128.5 -34.5t120.5 -110.5
l5 -5q52 -65 97 -93t96 -28q77 0 129.5 52.5t52.5 130.5q0 48 -25 101q82 -50 160 -76.5t146 -26.5q-28 -79 -82 -115.5t-125 -36.5q-52 -59 -120 -93.5t-131 -34.5q-50 0 -102 22.5t-87 58.5q-5 -68 -41.5 -123t-94 -87t-127.5 -32q-73 0 -133.5 35t-96 95t-35.5 135
q0 73 34.5 133.5t94.5 96.5t136 36zM1149 799q-124 0 -226.5 -61t-163.5 -163.5t-61 -226.5q0 -125 61 -227t163.5 -162.5t226.5 -60.5q125 0 227.5 60.5t163 162.5t60.5 227q0 124 -60.5 226.5t-163 163.5t-227.5 61z" />
</svg>