<?xml version="1.0" standalone="no"?>
<!DOCTYPE svg PUBLIC "-//W3C//DTD SVG 1.1//EN" "http://www.w3.org/Graphics/SVG/1.1/DTD/svg11.dtd">
<svg xmlns="http://www.w3.org/2000/svg" xmlns:xlink="http://www.w3.org/1999/xlink" version="1.1"
   viewBox="94 -151 2414 2169">
   <path fill="currentColor"
      d="M1080 1978q-292 0 -463 -91.5t-187 -248.5q-9 -90 -16.5 -182t-12 -201.5t-4.5 -249.5q62 -99 168 -171.5t236.5 -112.5t262.5 -40q135 0 267.5 41t239.5 114.5t166 173.5v377q0 40 9 73t25 68l-49 83q-2 -14 -8 -28.5t-15 -33.5q-19 -40 -30.5 -79.5t-11.5 -82.5v-340
q-73 -133 -232 -209.5t-361 -76.5q-198 0 -354 73.5t-233 202.5q0 184 10 325.5t23 268.5q12 118 158 192.5t412 74.5q226 0 380.5 -45.5t219.5 -116.5l-48 134q-94 50 -233.5 79t-318.5 29zM1075 1440q-85 0 -155 -33.5t-125 -100.5l51 -44q47 57 102.5 82.5t126.5 25.5
q72 0 128 -25.5t102 -82.5l51 44q-55 67 -125.5 100.5t-155.5 33.5zM797 1123q-38 0 -63 -28t-25 -68t25 -68.5t63 -28.5t63.5 28.5t25.5 68.5t-25.5 68t-63.5 28zM435 1171q-107 -10 -175 -68t-68 -146q0 -94 72.5 -184t196.5 -163t280 -116t322 -43q144 0 282.5 33
t256 90.5t200 132.5t115.5 158l-69 63q-13 -73 -87.5 -143.5t-187.5 -128t-246 -91.5t-264 -34q-139 0 -277.5 37.5t-253.5 99.5t-184.5 137.5t-69.5 151.5q0 56 42.5 90t114.5 36v88zM1327 1123q-38 0 -63 -28t-25 -68t25 -68.5t63 -28.5t63.5 28.5t25.5 68.5t-25.5 68
t-63.5 28zM752 503l4 -25l-56 -47l71 -16l26 -67l37 63l72 4l-47 54l7 27zM1538 1978l298 -622l-156 -310l377 -337l351 267l-93 387h-166l-324 615h-85l319 -606l-148 -268l151 -134l130 92l-13 90l-75 -59l-68 66l102 130h119l68 -283l-264 -201l-291 259l150 290
l-299 624h-83zM876 183l-6 -68l-60 -33l62 -28l14 -67l45 51l68 -8l-35 60l29 61l-67 -14zM1064 347q-40 0 -73.5 -21t-51.5 -56q36 17 75 17q63 0 98.5 -34.5t35.5 -92.5q0 -18 -3 -37t-8 -38q29 17 48.5 49t19.5 73q0 58 -41 99t-100 41zM1745 700l-81 -42l-28 -313
l231 22q-100 -86 -209 -157t-216.5 -123t-205 -80.5t-173.5 -28.5q-170 0 -295 153t-217 473l-109 58q111 -393 262.5 -578.5t358.5 -185.5q99 0 220.5 38t253.5 107t262 163t246 205q14 14 8.5 33t-27.5 17l-299 -27zM1399 435l-47 -59l-74 5l41 -62l-27 -70l72 20l56 -47
l4 75l63 39l-70 26z" />
</svg>