<?xml version="1.0" standalone="no"?>
<!DOCTYPE svg PUBLIC "-//W3C//DTD SVG 1.1//EN" "http://www.w3.org/Graphics/SVG/1.1/DTD/svg11.dtd">
<svg xmlns="http://www.w3.org/2000/svg" xmlns:xlink="http://www.w3.org/1999/xlink" version="1.1"
   viewBox="94 -151 2414 2169">
   <path fill="currentColor"
      d="M1430 1978q-169 0 -335.5 -47.5t-315 -136.5t-263 -215.5t-180 -284.5t-65.5 -343q0 -180 67.5 -339.5t184.5 -290.5t266.5 -225.5t315 -146t328.5 -51.5q258 0 460.5 139.5t319 411t116.5 668.5q0 222 -77 384t-206.5 268t-289.5 157.5t-326 51.5zM936 1209
q-16 -14 -10.5 -45t29.5 -58t51.5 -38t42.5 1q17 13 12 44t-30 59q-24 27 -52.5 38.5t-42.5 -1.5zM853 984q-31 14 -62.5 11.5t-39.5 -19.5q-9 -20 10.5 -43.5t51.5 -38.5q33 -16 64 -14t38 19q8 19 -10 44.5t-52 40.5zM1250 1237q-22 0 -38.5 -24.5t-16.5 -59.5t16.5 -59.5
t38.5 -24.5q23 0 39 24.5t16 59.5t-16 59.5t-39 24.5zM881 762q-35 0 -62 -15t-27 -35t27.5 -35t62.5 -15q38 0 63.5 14.5t25.5 33.5q0 21 -26 36.5t-64 15.5zM1112 1621q163 0 315.5 -52.5t282.5 -145t227.5 -213t152 -257t54.5 -276.5q0 -139 -56 -265t-153.5 -224.5
t-223 -155t-265.5 -56.5q-162 0 -320 50.5t-298 141.5t-247 213t-168.5 266.5t-61.5 301.5q0 125 47 229.5t126.5 186.5t179 139t205 87t203.5 30zM1529 1089q-18 13 -46 4.5t-51 -35.5q-22 -27 -26.5 -56.5t13.5 -44.5t46 -5t51 36q23 25 27.5 56t-14.5 45zM1083 568
q-18 14 -45.5 5t-51.5 -36q-23 -26 -27 -56t14 -45t46.5 -5.5t50.5 36.5q22 25 26.5 56t-13.5 45zM1621 855q-37 0 -63.5 -15t-26.5 -35t27 -35t64 -15q35 0 62 14.5t27 33.5q0 22 -26 37t-64 15zM1289 483q-20 -5 -28 -35.5t2 -65.5t31.5 -58t40.5 -17t25.5 35.5t-1.5 64.5
q-7 36 -28.5 58t-41.5 18zM1681 644q-34 10 -64.5 4t-35.5 -25q-4 -20 16.5 -42.5t56.5 -32.5q33 -10 62.5 -4t36.5 26q6 19 -15.5 41.5t-56.5 32.5zM1492 484q-16 -14 -10.5 -44t30.5 -58q24 -27 51 -38.5t42 2.5q17 14 10.5 43t-29.5 58q-22 28 -51 39t-43 -2z" />
</svg>