<?xml version="1.0" standalone="no"?>
<!DOCTYPE svg PUBLIC "-//W3C//DTD SVG 1.1//EN" "http://www.w3.org/Graphics/SVG/1.1/DTD/svg11.dtd">
<svg xmlns="http://www.w3.org/2000/svg" xmlns:xlink="http://www.w3.org/1999/xlink" version="1.1"
   viewBox="94 -151 2414 2169">
   <path fill="currentColor"
      d="M539 1844q-41 0 -80 -13t-64.5 -34.5t-25.5 -44.5q0 -20 27 -47.5t66.5 -53.5t77.5 -39l86 -174l175 19l84 138l-82 78q-22 21 -77.5 68t-113.5 85q-14 9 -34 13.5t-39 4.5zM833 1832q-10 0 -14 -7t-4 -14q0 -17 13.5 -31t29.5 -14q11 0 14.5 7t3.5 14q0 16 -13 30.5
t-30 14.5zM923 1863q-10 0 -14 -6.5t-4 -13.5q0 -17 13.5 -31t29.5 -14q11 0 14.5 7t3.5 14q0 16 -13 30t-30 14zM188 1145q-34 0 -62 -36t-28 -76q0 -31 29.5 -52.5t69.5 -21.5q46 0 76.5 18.5t30.5 45.5q0 18 -21.5 47t-49 52t-45.5 23zM659 1037q-28 0 -48.5 -28
t-20.5 -67q0 -38 20.5 -66t48.5 -28q29 0 49 28t20 66q0 39 -20 67t-49 28zM1625 1836q-10 0 -15.5 -7.5t-5.5 -15.5q0 -20 16 -35.5t32 -15.5q11 0 16 7t5 16q0 19 -16 35t-32 16zM1722 1856q-11 0 -16 -7t-5 -15q0 -20 16 -35.5t32 -15.5q11 0 16 7t5 16q0 19 -16 34.5
t-32 15.5zM1053 946q-20 -43 -40 -63q28 -56 56 -82.5t53 -26.5q40 0 40 55q0 48 -35 82.5t-74 34.5zM785 498q14 0 26 -9t16 -29l36 -206q2 -8 2 -16q0 -22 -18 -22t-30 32l-67 185q-5 15 -5 25q0 19 12.5 29.5t27.5 10.5zM1886 1291q5 0 13 -2l246 -63q23 -6 30.5 -15.5
t7.5 -18.5q0 -22 -29 -22q-10 0 -20 2l-254 37q-17 2 -24.5 13.5t-7.5 25.5q0 16 10 29.5t28 13.5zM1449 1004q19 0 42 -16l455 -323q21 -14 21 -34q0 -25 -26 -25q-13 0 -33 12l-481 282q-29 17 -29 49q0 21 15 38t36 17zM1258 481q21 0 37 -16l223 -220q12 -11 15.5 -20.5
t3.5 -17.5q0 -21 -21 -21q-15 0 -35 16l-245 188q-25 19 -25 45q0 19 14.5 32.5t32.5 13.5zM1903 1023q12 0 25 -6l311 -135q17 -8 23 -17t6 -17q0 -23 -28 -23q-12 0 -27 5l-314 107q-39 13 -39 45q0 15 12 28t31 13zM1671 544q13 0 28 -9l211 -138q9 -6 9 -17
q0 -20 -20 -20q-5 0 -13 3l-222 104q-27 13 -27 40q0 14 9.5 25.5t24.5 11.5zM2385 852q59 20 92.5 38.5t33.5 27.5q0 8 -25 50.5t-60.5 96.5t-67.5 99q36 31 59.5 64t23.5 44q0 18 -65 59.5t-167 98.5q17 27 34 59t28 58t11 35q0 13 -32.5 24t-77.5 18.5t-85 11.5v2
q0 133 -98.5 211.5t-267.5 78.5q-76 0 -142 -37.5t-80 -107.5q-49 0 -86 -5.5t-99 -22.5q-129 96 -209 134.5t-155 38.5q-68 0 -125 -23.5t-91 -63.5t-34 -89q0 -29 22.5 -56.5t44.5 -45.5l63 -54l-48 -107q-12 1 -24.5 1.5t-25.5 0.5q-125 0 -244 -42.5t-214.5 -115
t-152 -163t-56.5 -186.5q0 -68 44.5 -107t138.5 -61q31 -7 47 -16.5t29 -25.5q11 -14 23 -26.5t24 -24.5q-33 -47 -71.5 -106.5t-65.5 -108.5t-27 -66q0 -16 19 -16q20 0 55 10t73.5 24.5t66.5 26.5l14 -133q7 -66 23.5 -120.5t29.5 -54.5t54.5 32t108.5 86
q55 -118 97.5 -190t58.5 -72q15 0 45 33t93 113q110 -134 129 -134q11 0 41.5 36t74.5 100q110 -127 176.5 -181t113.5 -54q18 0 30 28.5t14 79.5q43 -21 96.5 -41.5t101.5 -34t74 -13.5q19 0 19 20q0 16 -7 49t-18 74q12 -2 25 -2.5t36 -0.5q86 0 161 7t121.5 19t46.5 26
q0 11 -26.5 62.5t-64.5 110.5q143 22 220.5 42t77.5 42q0 10 -13.5 36.5t-33.5 56t-39 50.5q51 9 105.5 27.5t91.5 37.5t37 30q0 9 -22 41t-56.5 74.5t-71.5 82.5zM145 984q0 78 50 154t134.5 137.5t189 98.5t213.5 37q155 0 247 -100t92 -284q55 0 97.5 -34.5t67.5 -92
t25 -125.5q0 -60 -24 -92.5t-75 -32.5q-52 0 -100.5 43.5t-96.5 114.5q-63 -61 -134 -99.5t-160 -38.5q-51 0 -100 17.5t-96 52t-91 86.5q-11 13 -23.5 25t-26.5 20q-13 7 -29 11.5t-34 7.5q-51 8 -88.5 28t-37.5 66zM1721 1848q143 0 214.5 -56t71.5 -154
q0 -45 -54.5 -98.5t-147.5 -106.5t-209 -97.5t-240 -73t-240 -32.5q-71 191 -253 243l73 136l-118 102q-21 18 -29.5 26.5t-8.5 16.5q0 34 50 64t120 30q65 0 140 -37.5t208 -137.5q74 21 141 30.5t140 9.5q-4 11 -5 23t-1 23q0 40 40.5 64.5t107.5 24.5z" />
</svg>