<?xml version="1.0" standalone="no"?>
<!DOCTYPE svg PUBLIC "-//W3C//DTD SVG 1.1//EN" "http://www.w3.org/Graphics/SVG/1.1/DTD/svg11.dtd">
<svg xmlns="http://www.w3.org/2000/svg" xmlns:xlink="http://www.w3.org/1999/xlink" version="1.1"
   viewBox="94 -151 2414 2169">
   <path fill="currentColor"
      d="M969 1978q-51 -63 -93 -90.5t-80 -46t-77 -51.5q-31 -27 -47 -46t-25 -44q-20 15 -62 27t-86 12q-46 0 -83 -9t-84 -9q-32 0 -64 2t-73 7q0 -112 48.5 -194.5t133 -128.5t192.5 -46q13 -76 46.5 -155.5t71.5 -161t65.5 -163t27.5 -161.5q0 -174 51.5 -324t146.5 -261.5
t225.5 -174t287.5 -62.5q199 0 342.5 99t221 283.5t77.5 439.5q0 96 -5.5 160.5t-11.5 113.5t-6 99q0 121 37.5 177.5t84.5 56.5q71 0 122.5 42.5t51.5 107.5q0 75 -68.5 123t-177.5 48h-34q-123 0 -223 -50.5t-165 -150.5t-83 -248h59q-34 43 -103 66.5t-158 23.5
q-156 0 -289.5 -44t-228 -133t-133.5 -222h35q-27 93 -72 184t-81.5 183.5t-39.5 190.5q-14 -3 -39 -5t-33 -2q-92 0 -177 53t-109 152q10 -4 23.5 -4.5t23.5 -0.5q58 0 91 9t76 9q46 0 87 -12.5t93 -39.5q14 37 39.5 66t51.5 49q48 36 96 57.5t82 66.5q24 -50 24 -103
q0 -80 -47.5 -156t-144.5 -124q4 -27 29.5 -63t64.5 -65t80 -36q96 110 239 173t297 63q95 0 183.5 -24.5t155.5 -68.5l45 63q-76 52 -176 81t-208 29q-154 0 -301 -59t-257 -168q-13 6 -31.5 23.5t-23.5 27.5q82 57 128.5 133t46.5 159q0 72 -27.5 136t-55.5 111zM701 1495
q-43 0 -72 -29t-29 -72q0 -51 43 -81l46 36q-16 2 -26.5 15t-10.5 30q0 20 14.5 34.5t34.5 14.5q17 0 30 -13t23 -48l21 80q-30 33 -74 33zM821 1483q-43 0 -72 -29t-29 -72q0 -40 27.5 -68.5t69.5 -29.5v47q-19 1 -32 16t-13 35t14.5 34.5t34.5 14.5q10 0 22 -6l21 46
q-19 12 -43 12zM715 1375q-43 0 -72 -29t-29 -72q0 -41 28 -69.5t69 -29.5v51q-19 1 -32 14.5t-13 33.5t14.5 34.5t34.5 14.5q24 0 39.5 -19.5t7.5 -45.5l53 13q-1 45 -30 74.5t-70 29.5zM885 1393q-43 0 -72 -29t-29 -72q0 -40 27.5 -68.5t69.5 -29.5v47q-19 1 -32 16
t-13 35t14.5 34.5t34.5 14.5q6 0 14 -2.5t25 -12.5l-29 67h-6h-4zM771 1295q-43 0 -72 -29t-29 -72t29 -72t72 -29q25 0 46 12l-15 52q-14 -12 -31 -12q-20 0 -34.5 14.5t-14.5 34.5t14.5 34.5t34.5 14.5q34 0 47 -33l47 14q-10 32 -36 51.5t-58 19.5zM1101 1480l-115 -85
q-2 -4 -2 -14q0 -34 19 -60t50 -36l34 48q-20 -2 -35.5 12.5t-15.5 35.5q0 20 14.5 34.5t34.5 14.5q31 0 42 -24l32 44q-24 26 -58 30zM871 1245q-43 0 -72 -29t-29 -72q0 -36 19 -58l74 12q-18 2 -29.5 15.5t-11.5 30.5q0 20 14.5 34.5t34.5 14.5q35 0 41 -41l52 30
q-10 28 -35.5 45.5t-57.5 17.5zM993 1347q-43 0 -72 -29t-29 -72t29 -72t72 -29q40 0 75 32l-33 57q-5 -20 -16.5 -28.5t-25.5 -8.5q-20 0 -34.5 14.5t-14.5 34.5t14.5 34.5t34.5 14.5q31 0 42 -24l32 44q-29 32 -74 32zM810 1128q-31 0 -56.5 -17.5t-36.5 -45.5l47 -59
q-10 27 5 48.5t41 21.5q20 0 34.5 -14.5t14.5 -34.5t-14.5 -34.5t-34.5 -14.5q-31 0 -41 26l-4 -66q23 -12 45 -12q43 0 72 29t29 72t-29 72t-72 29zM1209 1475q-43 0 -72 -29t-29 -72q0 -41 28 -69.5t69 -29.5v51q-19 1 -32 14.5t-13 33.5t14.5 34.5t34.5 14.5t34 -14
t14 -34q0 -2 -0.5 -4.5t-3.5 -11.5l56 14q-1 43 -30 72.5t-70 29.5zM963 1197q-43 0 -72 -29t-29 -72q0 -49 37 -78l33 41q-18 15 -18 37q0 20 14.5 34.5t34.5 14.5q26 0 41 -21l47 23q-28 50 -88 50zM1108 1358q-43 0 -72 -29t-29 -72q0 -35 20.5 -62t53.5 -35l115 47
q13 24 13 50q0 43 -29 72t-72 29zM1108 1306q20 0 34.5 -14.5t14.5 -34.5t-14.5 -34.5t-34.5 -14.5t-34.5 14.5t-14.5 34.5t14.5 34.5t34.5 14.5zM1326 1570q-43 0 -72 -29t-29 -72q0 -41 27 -69.5t68 -30.5l6 51q-19 -1 -34 14t-15 35t14.5 34.5t34.5 14.5t34.5 -14.5
t14.5 -34.5q0 -24 -16 -35l51 -22q17 25 17 57q0 43 -29 72t-72 29zM1271 1385q-43 0 -72 -29t-29 -72q0 -47 38 -79l63 32q-22 0 -35.5 13.5t-13.5 33.5t14.5 34.5t34.5 14.5q12 0 20 -4l25 44q-21 12 -45 12zM1482 1600q-43 0 -72 -29t-29 -72q0 -39 27 -64t70 -26v42
q-19 1 -32 14.5t-13 33.5t14.5 34.5t34.5 14.5q19 0 33 -12t15 -31l50 7q-4 37 -32.5 62.5t-65.5 25.5zM1379 1454q-43 0 -72 -29t-29 -72t29 -72t72 -29q54 0 83 44l-38 38q-11 -30 -45 -30q-20 0 -34.5 14.5t-14.5 34.5t14.5 34.5t34.5 14.5q30 0 43 -26l41 31
q-26 47 -84 47zM1495 1458q-43 0 -72 -29t-29 -72t29 -72t72 -29q22 0 40 9l-17 49q-12 -6 -23 -6q-20 0 -34.5 14.5t-14.5 34.5t14.5 34.5t34.5 14.5q21 0 36 -15.5t13 -36.5l52 6q-1 42 -30 70t-71 28zM1618 1581q-43 0 -72 -29t-29 -72t29 -72t72 -29q8 0 15 1t13 2
l-4 54q-15 -5 -24 -5q-20 0 -34.5 14.5t-14.5 34.5t14.5 34.5t34.5 14.5q21 0 36 -16t13 -37l52 4q0 43 -29 72t-72 29zM1585 1384q-43 0 -72 -29t-29 -72q0 -20 8 -38l66 -6q-13 15 -17.5 25t-4.5 19q0 20 14.5 34.5t34.5 14.5t34.5 -14.5t14.5 -34.5t-14 -34t-37 -13
l57 -39q46 30 46 86q0 43 -29 72t-72 29zM1708 1507q-43 0 -72 -29t-29 -72t29 -72t72 -29h7h8l10 58q-10 -4 -15.5 -5t-9.5 -1q-20 0 -34.5 14.5t-14.5 34.5t14.5 34.5t34.5 14.5t33.5 -13.5t14.5 -33.5l43 44q-28 55 -91 55zM2125 1568h34q76 0 121 -25.5t45 -65.5
q0 -32 -28 -51t-66 -19q-90 0 -145 -74.5t-55 -239.5q0 -75 10.5 -157t10.5 -216q0 -352 -148 -547t-413 -195q-186 0 -328.5 94.5t-222.5 261.5t-80 386q0 126 45.5 218.5t126.5 152.5t188.5 89t231.5 29q87 0 148 -24.5t61 -66.5q0 -36 -21.5 -57.5t-79 -38t-165.5 -35.5
q-130 -23 -190 -71t-65 -131h80q6 49 54.5 79t158.5 50q118 21 185 47t95 63t28 94q0 142 51 243t137.5 154t195.5 53zM1552 711q-43 0 -87.5 -23t-72.5 -58l54 -42q19 22 49 38t57 16q31 0 59.5 -25.5t41.5 -65.5l66 21q-22 62 -67.5 100.5t-99.5 38.5zM1348 490
q-29 0 -50 -23.5t-21 -57.5t21 -57.5t50 -23.5t50 23.5t21 57.5t-21 57.5t-50 23.5zM1698 450q-29 0 -50 -23.5t-21 -57.5t21 -57.5t50 -23.5t50 23.5t21 57.5t-21 57.5t-50 23.5z" />
</svg>