<?xml version="1.0" standalone="no"?>
<!DOCTYPE svg PUBLIC "-//W3C//DTD SVG 1.1//EN" "http://www.w3.org/Graphics/SVG/1.1/DTD/svg11.dtd">
<svg xmlns="http://www.w3.org/2000/svg" xmlns:xlink="http://www.w3.org/1999/xlink" version="1.1"
   viewBox="94 -151 2414 2169">
   <path fill="currentColor"
      d="M599 1778q-78 0 -140.5 -38.5t-99 -104.5t-36.5 -146q0 -47 9 -86.5t9 -79.5q0 -53 -18 -90.5t-36.5 -81.5t-18.5 -116q0 -63 26.5 -117t81.5 -95q48 -36 76.5 -71t42 -78t15.5 -101q4 -93 56.5 -153.5t155.5 -71.5q71 -8 113 -35t71 -62.5t58 -69.5t70 -56.5t110 -22.5
q52 0 89 13t71.5 26.5t78.5 13.5q46 0 80.5 -14.5t73.5 -28.5t98 -14q77 0 125 17t81 43.5t65 56.5t76 57.5t115 45.5l32 8q95 23 149 87t54 168q0 135 -207.5 341t-599.5 450q-147 91 -286.5 166t-261.5 128.5t-219 82.5t-159 29zM674 1088l-128 -11l8 -80l128 12zM845 709
l-92 -83l55 -59l91 83zM807 1337q0 -228 73 -394.5t208.5 -257t322.5 -90.5q106 0 208.5 30.5t187.5 85.5l-47 65q-72 -47 -163.5 -74t-185.5 -27q-164 0 -281.5 79.5t-180 228t-62.5 354.5h-80zM591 1700q57 0 150.5 -29.5t213 -82.5t255 -125.5t274.5 -159.5
q379 -236 573.5 -421.5t194.5 -309.5q0 -63 -37 -107.5t-105 -60.5l-35 -8q-73 -17 -124 -52.5t-93.5 -73.5t-90.5 -65t-115 -27q-52 0 -90.5 14t-78.5 28.5t-97 14.5q-55 0 -97 -13.5t-78.5 -26.5t-73.5 -13q-46 0 -76.5 21t-58 53.5t-60.5 67.5t-82 63t-125 40
q-77 12 -109.5 47t-34.5 98q-4 100 -43 174.5t-127 142.5q-38 29 -55.5 64.5t-17.5 83.5q0 50 18.5 92.5t36.5 91t18 116.5q0 51 -8.5 90.5t-8.5 80.5q0 87 52.5 139.5t134.5 52.5zM1134 487l-32 -110l76 -24l32 110zM1652 477l-75 -28l36 -104l75 27z" />
</svg>