<?xml version="1.0" standalone="no"?>
<!DOCTYPE svg PUBLIC "-//W3C//DTD SVG 1.1//EN" "http://www.w3.org/Graphics/SVG/1.1/DTD/svg11.dtd">
<svg xmlns="http://www.w3.org/2000/svg" xmlns:xlink="http://www.w3.org/1999/xlink" version="1.1"
   viewBox="94 -151 2414 2169">
   <path fill="currentColor"
      d="M1408 1728q-80 0 -147 -46l-90 -62l43 -68l93 64q46 32 101 32q43 0 60 -23q-53 -35 -103.5 -80t-96.5 -93l58 -56q42 44 88 88t89 73t77 29q30 0 49.5 -18.5t24.5 -51.5q-73 -43 -140 -99t-124 -123l60 -52q29 33 72.5 74t90.5 78.5t88.5 61.5t65.5 24q32 0 55.5 -20
t23.5 -52v-4v-3q-149 -90 -289 -287l64 -46q42 57 100.5 122t117.5 111.5t100 46.5q35 0 60 -25.5t25 -61.5q0 -55 -33 -91l-409 -459q-45 -49 -132 -49q-81 0 -158 31t-147 62t-131 31q-51 0 -97 -25.5t-75 -66.5t-29 -87q0 -47 31 -86t90 -68l295 -147q18 -9 51 -15.5
t78.5 -11t101.5 -6.5t121 -2q177 0 291 -15.5t184 -37.5t115 -41q30 -13 53.5 -21t45.5 -8q51 0 86.5 49t54.5 144.5t19 234.5q0 190 -42 303t-119 166l-183 127q18 44 18 89q0 69 -48.5 118t-116.5 49h-6.5h-6.5q-8 55 -54 93.5t-105 38.5q-20 0 -40 -6q-15 51 -54 81.5
t-93 30.5q-18 0 -41 -5q-35 67 -131 67zM613 1341q-66 0 -111.5 -43t-45.5 -104q0 -29 10 -56t33 -50l14 -14q47 -47 110 -47q62 0 104.5 45.5t42.5 111.5q0 29 -27 66t-63.5 64t-66.5 27zM613 1261q12 0 30 -14.5t32.5 -33t14.5 -29.5q0 -33 -19 -55t-48 -22q-14 0 -27.5 4
t-24.5 17l-14 16q-21 24 -21 50q0 28 22 47.5t55 19.5zM728 1498q-40 0 -76 -23t-58.5 -59t-22.5 -75q0 -31 17 -67l74 32q-11 20 -11 35q0 25 25 51t52 26q34 0 77 -31t75.5 -72.5t32.5 -72.5q0 -26 -26.5 -51.5t-50.5 -25.5q-18 0 -42.5 13t-49.5 33l-27 -80
q30 -21 61 -33.5t58 -12.5q39 0 75 23t59 59t23 75q0 40 -25.5 84.5t-65.5 83.5t-86 63.5t-88 24.5zM887 1639q-39 0 -75 -23t-59 -59t-23 -75q0 -29 20 -69l72 36q-6 12 -9 20t-3 13q0 25 26 51t51 26q27 0 65 -24.5t75 -61.5t61.5 -75t24.5 -66q0 -26 -25.5 -51.5
t-51.5 -25.5q-28 0 -71 31l-48 -64q64 -47 119 -47q40 0 76 22.5t58.5 58.5t22.5 76q0 44 -30.5 97t-78.5 101t-100.5 78.5t-96.5 30.5zM1085 1679q-48 0 -83.5 -35t-35.5 -83h80q2 15 13.5 26.5t25.5 11.5q24 0 52.5 -20t49 -48.5t20.5 -51.5q0 -15 -12 -27t-28 -12
q-15 0 -30 9l-34 -72q34 -17 64 -17q49 0 84.5 35t35.5 84q0 46 -31 92t-77.5 77t-93.5 31zM507 1165l-176 -120q-76 -53 -118.5 -166t-42.5 -303q0 -139 19 -234.5t55 -144.5t86 -49q26 0 68.5 25.5t101.5 59.5t133.5 59.5t162.5 25.5q85 0 157.5 -14.5t141.5 -29
t142 -14.5q37 0 76 6t73 20l-141 60q-9 -1 -17.5 -1h-17.5q-61 0 -125 13t-135 26.5t-154 13.5q-90 0 -171 -25.5t-145 -59.5t-103.5 -59.5t-46.5 -25.5q-22 0 -40.5 44t-29 122t-10.5 182q0 110 16 191t45 133.5t66 78.5l180 124zM2040 1105l183 -126q38 -26 66.5 -78.5
t44.5 -133.5t16 -191q0 -155 -23 -251.5t-57 -96.5q-16 0 -34 7t-46 21q-40 19 -111 41.5t-191 38t-307 15.5q-59 0 -111 2t-94 5.5t-70.5 8.5t-40.5 11l-295 147q-77 38 -77 82q0 36 38.5 67.5t82.5 31.5q36 0 85.5 -18.5t108.5 -43.5t120.5 -43.5t121.5 -18.5
q61 0 109.5 18.5t82.5 56.5z" />
</svg>