<?xml version="1.0" standalone="no"?>
<!DOCTYPE svg PUBLIC "-//W3C//DTD SVG 1.1//EN" "http://www.w3.org/Graphics/SVG/1.1/DTD/svg11.dtd">
<svg xmlns="http://www.w3.org/2000/svg" xmlns:xlink="http://www.w3.org/1999/xlink" version="1.1"
   viewBox="94 -151 2414 2169">
   <path fill="currentColor"
      d="M1136 1978q-6 -29 -6 -62q0 -54 9 -125t9 -124q0 -51 -11.5 -90.5t-34.5 -68.5q-23 -30 -83 -41t-137 -13t-154.5 -4.5t-137.5 -15t-83 -45.5q122 -88 246.5 -120t245.5 -32q102 0 198.5 13t184 26.5t159.5 13.5q132 0 186.5 -45.5t54.5 -101.5q0 -61 -57.5 -112
t-188.5 -51q-40 0 -110.5 2.5t-150.5 4.5t-151 2q-70 0 -158 -5.5t-169 -21t-134 -45t-53 -76.5v-3.5v-2.5q-15 3 -26 4t-34 1q-49 0 -120 -21.5t-124 -52.5q-52 -31 -79 -77t-27 -80q0 -43 43.5 -107t128 -133.5t209 -130t287 -98.5t360.5 -38q55 0 112 3t115 10
q77 -75 167.5 -123t171 -71t127.5 -23q48 0 48 18q0 20 -25 57.5t-50.5 82t-25.5 85.5q0 43 17 70q262 138 388.5 316.5t126.5 353.5q0 161 -97 285t-270.5 193.5t-401.5 69.5q-83 0 -151.5 15.5t-91.5 41.5q-15 17 -23.5 75t-28 134.5t-65 152.5t-135.5 130zM661 899
l-14 -69l-48 -70q42 -25 79.5 -60t94.5 -63q17 19 36 29.5t32 10.5q8 0 13 -19t7.5 -43.5t2.5 -38.5q14 -7 54.5 -12.5t97.5 -5.5v40q-29 0 -50 10.5t-46.5 43t-68.5 99.5q-21 -17 -37 -22.5t-27 -5.5q-26 0 -26 37q0 35 20 60q-27 20 -51.5 36t-68.5 43zM1491 1171
q-43 0 -94.5 -34t-97 -80.5t-74.5 -83.5l242 -6q0 67 23 112t23 75q0 17 -22 17zM737 472q36 0 61.5 -25.5t25.5 -62.5q0 -36 -25.5 -61.5t-61.5 -25.5t-61.5 25.5t-25.5 61.5q0 37 25.5 62.5t61.5 25.5zM1822 1280q195 -37 297 -138.5t102 -237.5q0 -116 -78.5 -221
t-217.5 -175q27 67 42 128.5t15 111.5q0 52 -23 84t-69 32q-54 0 -127 -63t-148 -166t-134 -222q-52 -7 -104.5 -10t-103.5 -3q-257 0 -476.5 84.5t-374.5 243.5q62 32 124 32q27 0 53.5 -3.5t85.5 -17.5v43q0 61 103 95t306 34q80 0 167.5 -2t162 -4.5t112.5 -2.5
q115 0 186.5 34t105.5 88.5t34 117.5q0 31 -11.5 68.5t-28.5 69.5zM1240 603l-68 -16q10 -43 10 -86q0 -96 -58 -190l59 -37q68 112 68 229q0 48 -11 100zM1411 573l-68 -16q7 -34 7 -71q0 -98 -64 -205l59 -37q74 121 74 244q0 22 -2 43.5t-6 41.5z" />
</svg>