<?xml version="1.0" standalone="no"?>
<!DOCTYPE svg PUBLIC "-//W3C//DTD SVG 1.1//EN" "http://www.w3.org/Graphics/SVG/1.1/DTD/svg11.dtd">
<svg xmlns="http://www.w3.org/2000/svg" xmlns:xlink="http://www.w3.org/1999/xlink" version="1.1"
   viewBox="94 -151 2414 2169">
   <path fill="currentColor"
      d="M1270 1978q-50 0 -96 -21t-64 -70q11 -39 16 -81t5 -81q0 -34 -5.5 -76t-13.5 -86.5t-17 -84.5t-16 -70q-7 -32 -15 -61.5t-18 -50.5q-75 -77 -109.5 -139t-34.5 -147q0 -21 3.5 -53.5t8.5 -60.5l-113 -250q-13 -29 -31 -71.5t-35 -88.5l-52 5q-16 1 -45 2t-52 1
q-73 0 -122 -38.5t-49 -114.5q0 -64 45 -115t135 -89l9 -18q36 -68 95 -112t130 -44q42 0 85 15.5t78 40.5q21 -4 39 -5.5t37 -1.5q42 0 87 13.5t85 39.5t66 66q-3 58 -48 119.5t-120 93.5q17 44 48.5 104.5t59.5 92.5l163 112q16 19 28.5 38t24.5 42q17 4 31 6.5t21 2.5
q60 0 112 10t85 18q60 15 110.5 61.5t81 115t30.5 150.5q0 68 -29.5 130.5t-83.5 120.5q-4 104 -33.5 196.5t-80.5 223.5l-14 121q-17 48 -58.5 68.5t-91.5 20.5q-47 0 -81 -13t-55 -41q-25 25 -62.5 39.5t-73.5 14.5zM941 1924q-30 0 -58 -5t-28 -17t11.5 -39t18.5 -38
q6 -21 11 -64t8 -90.5t3 -79.5q0 -67 -2 -129t-2 -148v-290l174 237l-11 230q0 11 -2 61t-3.5 116.5t-3 129t-1.5 99.5q-4 13 -27.5 20t-87.5 7zM1413 1732q5 -20 11.5 -41.5t13.5 -41.5l45 -140q-3 -35 -10 -77.5t-21 -110.5l-47 6q-3 28 -5.5 65.5t-2.5 73.5q0 67 2.5 108
t3.5 56zM1248 1374q-10 0 -20 -9.5t-10 -18.5q0 -8 4.5 -19.5t4.5 -19.5q0 -16 -20 -33l-40 -34t-20 -32q0 -16 21 -16q47 0 80 30.5t33 77.5q0 27 -10 50.5t-23 23.5zM1187 1147q-18 0 -52.5 -13t-62.5 -29t-28 -24q0 -36 15 -70t31 -34q9 0 38.5 20.5t41.5 33.5
q16 -14 40 -25.5t34 -11.5q14 0 24.5 20t10.5 46q0 23 -16.5 43t-38.5 32t-37 12zM1270 1898q20 0 38 -6.5t35 -19.5l-17 -229q-4 -27 -6.5 -76.5t-2.5 -100.5q0 -63 6 -122t14 -88q43 -5 88 -13.5t85 -21.5q26 101 39 180.5t13 116.5q-7 25 -20 69.5t-30 94.5
q-11 34 -21.5 72.5t-18.5 71t-10 49.5q14 11 34.5 17t45.5 6q26 0 42.5 -6t28.5 -16l16 -133q51 -124 82 -222.5t31 -210.5q38 -37 74.5 -93.5t36.5 -119.5q0 -76 -27 -128.5t-66 -83t-74 -39.5q-31 -8 -75.5 -16t-96.5 -8q-19 0 -50 -6.5t-57 -13.5q-36 -73 -58 -93
l-160 -110q-35 -43 -66.5 -100t-53 -112t-27.5 -90q32 -5 71.5 -27.5t71 -53.5t38.5 -61q-34 -33 -72.5 -48t-82.5 -15q-27 0 -50.5 6t-40.5 18q-27 -35 -67 -54t-81 -19q-42 0 -82.5 28.5t-64.5 71.5l-26 46q-74 31 -117.5 71t-43.5 81q0 34 22 53.5t69 19.5q18 0 47.5 -1
t49.5 -2l106 -7q10 28 25.5 68t31 76t21.5 51l130 288q-5 19 -10 59t-5 64q0 39 10 70.5t37.5 67.5t79.5 90q14 26 26 68.5t22 83.5q8 32 21.5 95t19.5 106q5 31 9 67t4 67q0 46 -5 82t-12 67q14 13 31.5 18.5t44.5 5.5zM1637 1454q-13 0 -21.5 -15t-8.5 -30q0 -11 6.5 -20
t6.5 -17q0 -10 -8.5 -22.5t-8.5 -19.5q0 -8 13 -21t28.5 -23.5t22.5 -10.5q8 0 11 12t3 30q0 67 -12.5 102t-31.5 35zM1200 961q-23 0 -61 -31q-31 -6 -50.5 -20.5t-19.5 -29.5t17 -31t40 -27t39 -11q21 0 43.5 17.5t38 40t15.5 38.5q0 19 -22.5 36.5t-39.5 17.5zM1367 1205
q-18 0 -32 -20.5t-14 -33.5q0 -17 24 -40.5t37 -33.5q17 -14 34 -23.5t40 -9.5q26 0 46.5 15t20.5 27q0 25 -27.5 39.5t-48.5 35.5q-13 13 -35 28.5t-45 15.5zM590 331q-16 0 -16 -15q0 -12 14 -25t27 -13q16 0 16 15q0 12 -13.5 25t-27.5 13zM1045 794q-19 0 -37.5 -24
t-18.5 -48q0 -13 27.5 -30.5t46.5 -17.5q17 0 35 28t18 54q0 13 -23 25.5t-48 12.5zM960 639q-14 0 -32 -30.5t-20 -56.5q14 -27 44 -27q8 0 20.5 16t22 36t9.5 33t-12.5 21t-31.5 8zM1879 1906q-16 0 -32.5 -2t-27.5 -6q-2 -8 -4 -18t-2 -22q0 -8 0.5 -16t2.5 -14
q16 -51 24.5 -90t11.5 -84t3 -114q0 -20 -18 -61t-38.5 -79t-30.5 -48l152 -235v166q0 38 21.5 79t43 75.5t21.5 53.5q0 16 -5.5 75.5t-7.5 108.5q-1 16 -1 33v35q0 43 -2 84t-12 64q-9 6 -41.5 10.5t-57.5 4.5zM1342 1033q-9 0 -17.5 -14t-14 -30t-5.5 -21q0 -8 10.5 -23.5
t10.5 -29.5t-12.5 -25.5t-12.5 -17.5q0 -12 11.5 -19t24.5 -7t28.5 2.5t22.5 7.5q6 9 11.5 29t5.5 45q0 19 -11 43t-26 42t-26 18zM915 475q-10 0 -21.5 -20t-11.5 -31q0 -12 13 -19t25 -7t23 16.5t11 36.5q0 9 -12 16.5t-27 7.5zM1604 1237q-14 0 -23 -41.5t-9 -76.5
q0 -37 28 -68.5t58 -31.5q9 0 16 31.5t11 66t4 44.5t-16.5 28t-37 33t-31.5 15zM1068 598q-9 0 -25.5 -20.5t-30 -46t-13.5 -39.5q0 -7 10 -14.5t19 -7.5q8 0 22.5 21t26.5 46t12 38q0 23 -21 23zM1303 791q-10 0 -40 -5.5t-54 -26.5t-42.5 -50t-18.5 -40q0 -15 15 -15
q18 0 41 15t48 38q19 17 42.5 35t23.5 32q0 17 -15 17zM1531 1012q-29 0 -55.5 -14t-26.5 -30q0 -18 7.5 -42t17 -42t15.5 -18q14 0 30 19.5t28 46t12 48.5q0 32 -28 32zM828 273q-21 0 -35.5 -19t-14.5 -43q-13 0 -22 -11t-9 -31l81 -10q22 0 37 16.5t15 40.5t-14.5 40.5
t-37.5 16.5zM990 370q-12 0 -25.5 -14.5t-13.5 -26.5q0 -7 12 -15.5t21 -8.5q8 0 14.5 14.5t6.5 31.5q0 19 -15 19zM2122 1596q-18 0 -23.5 -40t-16.5 -77q-12 -44 -23.5 -76t-18.5 -64t-7 -75q78 0 115 41.5t37 115.5q0 39 -10 79.5t-24.5 68t-28.5 27.5zM1752 1132
q-9 0 -20 -21.5t-19 -51t-8 -53.5q0 -10 12 -17t28 -7t35.5 26.5t19.5 47.5q0 24 -16.5 50t-31.5 26zM1650 960q-54 0 -54 -54q0 -15 14 -15q37 0 60 12t23 29q0 13 -12.5 20.5t-30.5 7.5zM2055 1357q-76 -58 -123 -125.5t-70 -113.5l52 -127q35 99 74 167.5t88 120.5z
M775 10l9 -124l35 -2l31 115zM1027 233q-50 0 -50 -40q0 -25 29.5 -37.5t60.5 -12.5q44 0 86 28q-32 28 -64.5 45t-61.5 17zM803 -91q-16 0 -27.5 -9t-11.5 -22q0 -12 11.5 -21t27.5 -9q17 0 27.5 9t10.5 21q0 13 -11 22t-27 9zM1032 42l-94 -31l36 -109l46 13zM999 -75
q-18 0 -31 -11.5t-13 -27.5t12.5 -27t31.5 -11q18 0 31 11t13 27t-13 27.5t-31 11.5z" />
</svg>