<?xml version="1.0" standalone="no"?>
<!DOCTYPE svg PUBLIC "-//W3C//DTD SVG 1.1//EN" "http://www.w3.org/Graphics/SVG/1.1/DTD/svg11.dtd">
<svg xmlns="http://www.w3.org/2000/svg" xmlns:xlink="http://www.w3.org/1999/xlink" version="1.1"
   viewBox="94 -151 2414 2169">
   <path fill="currentColor"
      d="M1300 1978q-175 0 -316.5 -36t-224.5 -99t-83 -142v-1536q0 -76 82.5 -136t223.5 -95.5t318 -35.5t318.5 35.5t223.5 95.5t82 136v1536q0 79 -83 142t-224 99t-317 36zM1300 1560q66 0 120.5 -32.5t87 -87t32.5 -120.5t-32.5 -120t-87 -86.5t-120.5 -32.5t-120.5 32.5
t-87 86.5t-32.5 120t32.5 120.5t87 87t120.5 32.5zM1300 1707q-74 0 -149 -11.5t-140 -31.5t-109 -47v-909q76 17 182.5 27t215.5 10t215.5 -10t182.5 -27v909q-44 27 -109 47t-139.5 31.5t-149.5 11.5zM1300 1898q107 0 204.5 -16t174 -44t121 -63t44.5 -74v-1401
q-79 60 -222 96.5t-322 36.5q-178 0 -321.5 -36.5t-222.5 -96.5v1401q0 39 44.5 74t121 63t174 44t204.5 16zM1300 982q65 0 128 -4.5t114 -12.5v-99q-51 8 -114 12.5t-128 4.5t-128 -4.5t-114 -12.5v99q51 8 114 12.5t128 4.5zM1300 353q142 0 266 -26.5t201 -69.5t77 -92
q0 -36 -44.5 -69.5t-121.5 -60t-174.5 -42t-203.5 -15.5t-203.5 15.5t-174.5 42t-121.5 60t-44.5 69.5q0 49 77 92t201.5 69.5t265.5 26.5z" />
</svg>