<?xml version="1.0" standalone="no"?>
<!DOCTYPE svg PUBLIC "-//W3C//DTD SVG 1.1//EN" "http://www.w3.org/Graphics/SVG/1.1/DTD/svg11.dtd">
<svg xmlns="http://www.w3.org/2000/svg" xmlns:xlink="http://www.w3.org/1999/xlink" version="1.1"
   viewBox="94 -151 2414 2169">
   <path fill="currentColor"
      d="M822 1292q-87 0 -139.5 -71t-52.5 -198q0 -105 41 -237.5t129.5 -306t230.5 -399.5q9 -14 27.5 -21t46.5 -7q65 0 134 22t130.5 58t104.5 79.5t54 86.5q-101 267 -190.5 456.5t-174 308t-168.5 174t-173 55.5zM722 1978q-54 0 -122.5 -22.5t-137.5 -59.5t-127 -82
t-93.5 -90t-35.5 -83q0 -29 21 -46t67 -17q54 0 122.5 22.5t137.5 59.5t127 82t93.5 90t35.5 83q0 29 -21 46t-67 17zM693 1908q27 0 27 -21q0 -20 -31 -49.5t-80 -62.5t-104 -62t-104 -47t-78 -18q-27 0 -27 21q0 20 31 49.5t80 62.5t104 62t104 47t78 18zM593 1701
l-99 -49l218 -430l99 49zM895 1011q-16 0 -26.5 -10.5t-10.5 -26.5t10.5 -27t26.5 -11t27 11t11 27t-11 26.5t-27 10.5zM925 822q-17 0 -29.5 -12.5t-12.5 -29.5t12.5 -29.5t29.5 -12.5t29.5 12.5t12.5 29.5t-12.5 29.5t-29.5 12.5zM1840 1840q-74 0 -106 -17t-32 -56
q0 -40 47.5 -81t124.5 -75.5t167 -55.5t175 -21q74 0 106 17t32 56q0 40 -47.5 81t-124.5 75.5t-167 55.5t-175 21zM1831 1775q55 0 129 -16t144.5 -40t117.5 -49.5t47 -45.5q0 -25 -44 -25q-55 0 -129 16t-144.5 40t-117.5 49.5t-47 45.5q0 25 44 25zM1113 782
q-16 0 -26.5 -10.5t-10.5 -26.5t10.5 -27t26.5 -11t27 11t11 27t-11 26.5t-27 10.5zM818 1212q101 0 203 -104t210 -315.5t225 -535.5l-12 45q-59 -8 -128.5 -32t-134 -59.5t-111.5 -75.5l36 -21q-142 215 -229 382.5t-127 297.5t-40 236q0 95 29 138.5t79 43.5zM1364 603
l-559 -18v-80l559 18v80zM1959 1621l-158 -532l105 -35l158 534zM1785 851q-17 0 -29.5 -12.5t-12.5 -29.5t12.5 -29.5t29.5 -12.5t29.5 12.5t12.5 29.5t-12.5 29.5t-29.5 12.5zM1663 692q-16 0 -26.5 -10.5t-10.5 -26.5t10.5 -27t26.5 -11t27 11t11 27t-11 26.5t-27 10.5z
M1816 1132q-81 0 -151.5 -72.5t-135 -226.5t-129.5 -399l63 -74q66 252 123 404t113.5 220t118.5 68q64 0 92.5 -45t28.5 -150q0 -82 -17 -191t-53 -257l-107 -435l29 18q-59 34 -132 61.5t-145.5 43.5t-133.5 16q-50 0 -84 -16t-34 -36q0 -23 47.5 -50.5t120.5 -53.5
t153 -42.5t144 -16.5q49 0 75.5 10t30.5 28l111 450q28 114 44 194t23 139t7 111q0 152 -51 227t-151 75zM1683 552q-16 0 -26.5 -10.5t-10.5 -26.5t10.5 -27t26.5 -11t27 11t11 27t-11 26.5t-27 10.5zM1468 344v-80h420v80h-420zM2374 534l-225 -61l16 -59l225 61z
M2147 353l-25 -54l247 -109l25 54zM2096 260l-52 -32l133 -218l51 33zM1274 163l-12 -102l79 -17l33 122z" />
</svg>