<?xml version="1.0" standalone="no"?>
<!DOCTYPE svg PUBLIC "-//W3C//DTD SVG 1.1//EN" "http://www.w3.org/Graphics/SVG/1.1/DTD/svg11.dtd">
<svg xmlns="http://www.w3.org/2000/svg" xmlns:xlink="http://www.w3.org/1999/xlink" version="1.1"
   viewBox="94 -151 2414 2169">
   <path fill="currentColor"
      d="M1072 1978q-158 0 -282 -76t-192 -212q-145 -51 -227 -136t-82 -193q0 -37 10 -80t31 -86q-55 -66 -85 -142t-30 -162q0 -91 32 -177t90.5 -154.5t135.5 -104.5q-10 -26 -14 -47.5t-4 -43.5q0 -86 41.5 -169t113 -150t163.5 -107t193 -40q114 0 220.5 55.5t197.5 157.5
t159.5 243t106.5 313l-80 18q-52 -220 -143 -380.5t-209 -247.5t-251 -87q-85 0 -163 34t-139 92t-96 131t-35 151q0 28 6 55t22 57q-134 61 -200.5 164.5t-66.5 222.5q0 71 22.5 141.5t65.5 129.5q60 -33 136.5 -51t155.5 -18q161 0 309 67t239 188q17 -30 23.5 -67
t6.5 -77q143 -20 242.5 -92t132.5 -193q54 14 99 14q62 0 115 -25q41 29 79 43t83 20q0 82 38 137.5t101 55.5q71 0 116.5 -75.5t45.5 -217.5q0 -83 -18.5 -147.5t-49.5 -113.5q-14 77 -42 145t-63 113l-56 -43q44 -57 69.5 -137.5t25.5 -164.5q0 -148 -81.5 -223.5
t-222.5 -75.5l-34 -78q183 0 294 93.5t117 251.5q65 73 103 167t38 213q0 112 -30.5 195t-85 128t-126.5 45q-82 0 -139 -57t-71 -153q-31 -8 -54 -16t-51 -22q-44 17 -101 17q-15 0 -30 -1t-30 -4q-40 94 -135.5 163.5t-202.5 94.5q0 53 -18.5 95t-50.5 67q14 23 20.5 38.5
t10.5 41.5q71 18 119.5 76t48.5 138t-51.5 142.5t-139 97.5t-196.5 35zM652 1707l-62 -52q77 -83 196.5 -127.5t264.5 -44.5v75q-125 0 -230.5 39t-168.5 110zM1072 1904q85 0 154.5 -25.5t111 -70.5t41.5 -104q0 -61 -42 -105.5t-108 -54.5q-13 -114 -94 -202.5
t-203.5 -138.5t-262.5 -50q-73 0 -146 18.5t-127 53.5q-14 32 -20.5 65t-6.5 64q0 105 71.5 164t212.5 118q59 125 168.5 196.5t250.5 71.5zM513 983q-16 4 -29.5 -4t-17.5 -24q-4 -17 -5.5 -35.5t-1.5 -37.5q0 -20 2 -37.5t6 -36.5q4 -16 17 -24t29 -5q35 7 30 46
q-4 28 -4 58q0 13 1 25.5t3 26.5q3 17 -5 30.5t-25 17.5zM1186 960q-67 -137 -175 -237t-243 -157t-285 -64l35 -72q155 10 297.5 71t257.5 168t187 256zM734 343q-14 -6 -19 -21t3 -31q32 -64 84 -107t120 -62q17 -5 30 2.5t17 23.5q8 34 -29 46q-58 19 -91 46.5t-65 83.5
q-19 32 -50 19zM1860 946l-74 -22q50 -101 77.5 -211t27.5 -213q0 -155 -56 -269.5t-154 -178t-225 -63.5q-51 0 -94 12.5t-94 44.5l-66 -46q62 -45 124.5 -65.5t131.5 -20.5q141 0 257.5 75t186 206t69.5 299q0 111 -28.5 226.5t-82.5 225.5z" />
</svg>