<?xml version="1.0" standalone="no"?>
<!DOCTYPE svg PUBLIC "-//W3C//DTD SVG 1.1//EN" "http://www.w3.org/Graphics/SVG/1.1/DTD/svg11.dtd">
<svg xmlns="http://www.w3.org/2000/svg" xmlns:xlink="http://www.w3.org/1999/xlink" version="1.1"
   viewBox="94 -151 2414 2169">
   <path fill="currentColor"
      d="M1300 1978q395 -303 644.5 -558t367.5 -480t118 -438q0 -126 -42.5 -235.5t-119 -192.5t-179 -129.5t-221.5 -46.5q-121 0 -234 46.5t-200.5 127t-133.5 183.5q-45 -103 -133 -183.5t-201 -127t-234 -46.5q-119 0 -221.5 46.5t-179 129.5t-119 192.5t-42.5 235.5
q0 213 118 438t367.5 480t644.5 558zM1392 1871l48 -52l-1165 -1073l-27 72zM1575 1713l48 -52l-1371 -1263l-48 52zM420 1125h80v-1094h-80v1094zM700 1442h80v-1497h-80v1497zM980 1705h80v-1687h-80v1687zM1260 1929h80v-1656h-80v1656zM1752 1553l48 -52l-1466 -1355
l-48 52zM1300 1883q-365 -283 -597 -524.5t-342.5 -453t-110.5 -403.5q0 -147 63.5 -265.5t172.5 -188.5t246 -70q128 0 237 53t193.5 151t137.5 232q53 -134 137.5 -232t194 -151t236.5 -53q137 0 246 70t172.5 188.5t63.5 265.5q0 192 -110.5 403.5t-342.5 453t-597 524.5
zM1926 1383l48 -52l-1457 -1345l-48 52zM1540 1705h80v-1687h-80v1687zM2078 1197l48 -52l-1316 -1216l-48 52zM1820 1442h80v-1497h-80v1497zM2213 1001l48 -52l-846 -784l-48 52zM2100 1131h80v-1102h-80v1102zM2319 760l48 -52l-763 -702l-48 52zM2359 475l48 -52
l-544 -501l-48 52z" />
</svg>