<?xml version="1.0" standalone="no"?>
<!DOCTYPE svg PUBLIC "-//W3C//DTD SVG 1.1//EN" "http://www.w3.org/Graphics/SVG/1.1/DTD/svg11.dtd">
<svg xmlns="http://www.w3.org/2000/svg" xmlns:xlink="http://www.w3.org/1999/xlink" version="1.1"
   viewBox="94 -151 2414 2169">
   <path fill="currentColor"
      d="M1255 1978q-216 0 -404.5 -80.5t-331.5 -223.5t-223.5 -331.5t-80.5 -404.5t80.5 -404.5t223.5 -331.5t331.5 -223.5t404.5 -80.5q226 0 421.5 88.5t340.5 244t217 356.5l-69 46q-63 -191 -197.5 -338.5t-317.5 -232t-395 -84.5q-199 0 -373 74.5t-306 206.5t-206.5 306
t-74.5 373t74.5 373t206.5 306t306 206.5t373 74.5t373 -74.5t306 -206.5t206.5 -306t74.5 -373q0 -26 -1.5 -51.5t-3.5 -50.5l71 -70q14 87 14 172q0 216 -81 404.5t-224 331.5t-331.5 223.5t-403.5 80.5zM1679 1413q-78 -50 -194 -80t-230 -30q-77 0 -173 17.5t-216 58.5
l-27 -69q116 -44 221.5 -63t194.5 -19q110 0 223.5 26.5t216.5 75.5zM903 948q-52 0 -89 -44t-37 -106t37 -106.5t89 -44.5t89 44.5t37 106.5q0 61 -36.5 105.5t-89.5 44.5zM635 627l-55 -42q132 -170 378 -170v70q-210 0 -323 142zM1675 1359l-72 -49l274 -273l61 58z
M1607 948q-52 0 -89 -44t-37 -106t37 -106.5t89 -44.5t89 44.5t37 106.5q0 61 -36.5 105.5t-89.5 44.5zM1679 1413l-42 -42l670 -662q16 -16 16 -38q0 -23 -16.5 -39.5t-42.5 -16.5q-28 0 -50 22l-695 685l-42 -42l685 -675q53 -53 109 -53q50 0 82 32.5t32 82.5
q0 48 -31 79zM2005 1041l-54 -55l35 -35l63 62zM2084 936l-54 -54l35 -35l63 62zM1876 627q-115 -142 -324 -142v-70q245 0 379 170z" />
</svg>