<?xml version="1.0" standalone="no"?>
<!DOCTYPE svg PUBLIC "-//W3C//DTD SVG 1.1//EN" "http://www.w3.org/Graphics/SVG/1.1/DTD/svg11.dtd">
<svg xmlns="http://www.w3.org/2000/svg" xmlns:xlink="http://www.w3.org/1999/xlink" version="1.1"
   viewBox="94 -151 2414 2169">
   <path fill="currentColor"
      d="M522 1466q-109 0 -178 -70t-69 -185q0 -97 56.5 -176t165.5 -151q111 -136 207 -226.5t202 -147.5l-28 22l-238 -567q-6 -14 -10 -26.5t-4 -24.5q0 -29 17 -47.5t44 -18.5q34 0 75 38l352 325q7 -45 31 -98.5t57 -101.5t66.5 -79t58.5 -31q30 0 66.5 42t70 106.5t55 134
t21.5 124.5l-84 -10q0 -53 -14.5 -109t-36 -103t-42.5 -76t-35 -29q-19 0 -42.5 30.5t-44.5 77t-35 95.5t-14 85q0 18 12.5 48t46.5 57q-68 77 -149.5 130.5t-165.5 79.5q-90 49 -177.5 131.5t-207.5 229.5q-103 66 -149.5 129.5t-46.5 136.5q0 80 45.5 128.5t121.5 48.5
q138 0 279 -130q35 3 66 3.5t62 0.5q132 0 224.5 -14.5t155 -48t104 -90.5t71.5 -141l75 26q-50 142 -130.5 217t-202.5 102t-297 27q-24 0 -49 -0.5t-51 -1.5q-74 62 -154 95t-153 33zM630 1189q-13 0 -20 -17.5t-16 -43.5q-6 -18 -11.5 -32.5t-5.5 -23.5q0 -20 25 -20
t45 25.5t20 57.5q0 22 -11 38t-26 16zM1585 1978q-155 0 -274.5 -10.5t-186.5 -41.5t-67 -92q0 -12 8.5 -65.5t22.5 -131t31.5 -163.5t35.5 -163l86 -16q-19 81 -38 170.5t-33.5 169.5t-23.5 134.5t-9 64.5q0 16 48 30.5t147 24t253 9.5q160 0 263 -9t152.5 -22.5
t49.5 -27.5q0 -96 -12 -205l79 -6q6 54 9.5 106.5t3.5 104.5q0 61 -70.5 90.5t-193.5 39t-281 9.5zM1130 881q-31 0 -53.5 -27.5t-22.5 -66.5t22.5 -66t53.5 -27t53 27.5t22 65.5q0 39 -22 66.5t-53 27.5zM876 544l-52 -97q-16 -31 -39 -46t-44 -15q-28 0 -49.5 19.5
t-21.5 56.5q0 29 -21.5 49t-49.5 20q-44 0 -68.5 -39t-24.5 -94q0 -100 72.5 -174.5t186.5 -98.5l139 395zM892 436l-22 -67q123 -41 204 -145l57 42q-92 120 -239 170zM826 302l-22 -67q100 -33 160 -113l57 40q-73 101 -195 140zM940 494q56 -17 117 -60.5t96 -88.5
l-418 -389q-4 -5 -12.5 -0.5t-4.5 13.5zM759 167l-15 -68q68 -19 105 -75l60 37q-54 82 -150 106zM1150 321l-276 -253q11 -1 23 -1.5t24 -0.5q59 0 115.5 14.5t105.5 43.5zM2128 1837q-9 -1 -29.5 -6.5t-38.5 -21t-18 -45.5q0 -63 -40.5 -112t-100.5 -100.5t-120 -120.5
t-100.5 -169t-40.5 -248q0 -72 19 -143q-73 0 -138 -49t-105.5 -125.5t-40.5 -157.5q0 -47 18.5 -92t56.5 -82q6 -29 6 -54q0 -23 -2.5 -59t-10.5 -67q19 18 57.5 28.5t75.5 10.5q48 0 83 -20t35 -50q0 -26 -10.5 -39t-21 -20t-10.5 -15q0 -14 16 -23.5t48 -9.5
q59 0 101 39.5t42 95.5q0 37 -18 71t-46 64q67 0 121 38t86 98t32 128q0 47 -16 91q49 0 73 -13t24 -47q0 -17 -7 -29t-7 -20q0 -13 16 -13q53 0 94 60t41 140q0 49 -21 102t-60 88q154 125 154 309q0 147 -103 326q-22 38 -43.5 90.5t-36 100t-14.5 71.5z" />
</svg>