<?xml version="1.0" standalone="no"?>
<!DOCTYPE svg PUBLIC "-//W3C//DTD SVG 1.1//EN" "http://www.w3.org/Graphics/SVG/1.1/DTD/svg11.dtd">
<svg xmlns="http://www.w3.org/2000/svg" xmlns:xlink="http://www.w3.org/1999/xlink" version="1.1"
   viewBox="94 -151 2414 2169">
   <path fill="currentColor"
      d="M1304 1961q-309 0 -486 -91t-193 -253q-9 -91 -15.5 -179t-11 -188t-7 -224t-2.5 -286q0 -247 88.5 -437t248 -297.5t373.5 -107.5q150 0 277 58.5t221 165t146 250.5t52 315v678q0 32 10 65.5t29 70.5q15 28 22.5 51t7.5 51q0 105 -94.5 185.5t-265 126.5t-400.5 46z
M1260 1978q-176 0 -307 -34t-233.5 -105.5t-193.5 -185t-187 -272.5t-214 -367q130 -50 217.5 -79.5t154.5 -43t134 -15.5v75q-56 2 -109.5 12t-120 31t-163.5 58q89 152 164.5 272t148 213t150.5 165q-19 -41 -34 -101t-19 -115q150 9 323 66t333 152q114 -69 232 -121
t227.5 -84t197.5 -37q19 27 31.5 59.5t12.5 82.5q43 -53 82.5 -108.5t80.5 -120t88.5 -144t105.5 -179.5q-95 -37 -162.5 -58.5t-125 -31.5t-121.5 -11v-75q74 2 145 15.5t160 42.5t217 80q-118 208 -213.5 367t-185.5 272.5t-192 185t-231.5 105.5t-304.5 34h-88z
M1116 1337q-33 -76 -55 -156t-22 -153l60 21q-1 6 -1.5 12.5t-0.5 13.5q0 33 9.5 75t25.5 87q26 -29 46.5 -59t35.5 -61l55 14q-32 56 -70.5 107.5t-82.5 98.5zM1301 1159q-172 0 -285 -132l47 -45q94 112 238 112t237 -112l47 45q-113 132 -284 132zM1485 1337
q-44 -47 -82.5 -98.5t-70.5 -107.5l55 -14q15 31 35.5 61t46.5 59q16 -45 25.5 -87t9.5 -75q0 -7 -0.5 -13.5t-1.5 -12.5l60 -21q0 73 -22 153t-55 156zM1021 834q-40 0 -65 -29t-25 -69q0 -41 25 -70t65 -29t65 29t25 70q0 40 -25 69t-65 29zM1304 1886q203 0 356 -37.5
t238.5 -102t85.5 -143.5q0 -20 -6.5 -40.5t-19.5 -46.5q-19 -41 -31 -79t-12 -72v-678q0 -155 -46.5 -284.5t-130 -224.5t-195.5 -147.5t-244 -52.5q-190 0 -332 97t-220 268.5t-78 397.5q0 163 2 286.5t6.5 222.5t11.5 185.5t16 174.5q13 121 164 198.5t435 77.5zM1580 835
q-40 0 -65 -29t-25 -69q0 -41 25 -70t65 -29t65 29t25 70q0 40 -25 69t-65 29z" />
</svg>