<?xml version="1.0" standalone="no"?>
<!DOCTYPE svg PUBLIC "-//W3C//DTD SVG 1.1//EN" "http://www.w3.org/Graphics/SVG/1.1/DTD/svg11.dtd">
<svg xmlns="http://www.w3.org/2000/svg" xmlns:xlink="http://www.w3.org/1999/xlink" version="1.1"
   viewBox="94 -151 2414 2169">
   <path fill="currentColor"
      d="M780 1978q-175 0 -309 -69.5t-210 -192t-76 -282.5q0 -154 84 -299q71 -122 164.5 -202t187.5 -130t168.5 -81t108.5 -56q40 -30 81 -102t94.5 -165.5t129.5 -188t187 -169.5q212 -143 444 -143q110 0 220 30.5t199.5 82t135.5 115.5q26 93 26 188q0 129 -46 260.5
t-125.5 243t-181.5 181.5q-51 35 -121.5 70t-140.5 65.5t-120 52.5t-60 33q-18 19 -33 48t-35 82q-124 326 -325 477t-447 151zM685 1622l-10 -79q71 -8 114 -66l63 51q-66 81 -167 94zM708 1356l-17 -79q35 -8 62 -26.5t49 -49.5l66 46q-30 43 -70.5 70.5t-89.5 38.5z
M1040 1550l-30 -74q63 -25 96 -94l72 33q-43 97 -138 135zM1029 1145l-15 -77q41 -7 70.5 -31t51.5 -64l70 37q-61 117 -177 135zM1329 1135l-14 -77q80 -14 120 -93l71 37q-58 114 -177 133zM780 1898q234 0 409 -146t291 -431q28 -68 42.5 -98t37.5 -56q10 -11 47.5 -30
t90.5 -43t112 -51t113.5 -55t93.5 -55q91 -63 163 -164t113.5 -220.5t41.5 -234.5q0 -77 -19 -152q-42 -51 -120 -93t-173 -66.5t-189 -24.5q-104 0 -202 33.5t-197 95.5q-98 61 -168.5 150.5t-123.5 183.5t-96 170t-87 108q-55 41 -133.5 75t-166.5 78.5t-172 115.5
t-150 187q-73 128 -73 259q0 137 65 242t181 163.5t269 58.5zM1447 826l-33 -73q67 -31 92 -94l75 30q-39 93 -134 137zM1715 922v-78q78 0 135 -74l62 49q-77 103 -197 103zM1786 628l-37 -68q32 -17 51.5 -42.5t29.5 -57.5l77 22q-16 48 -46.5 85t-74.5 61zM2067 440
l-57 -54q22 -24 34.5 -54t12.5 -73h79q0 57 -18.5 101.5t-50.5 79.5z" />
</svg>