<?xml version="1.0" standalone="no"?>
<!DOCTYPE svg PUBLIC "-//W3C//DTD SVG 1.1//EN" "http://www.w3.org/Graphics/SVG/1.1/DTD/svg11.dtd">
<svg xmlns="http://www.w3.org/2000/svg" xmlns:xlink="http://www.w3.org/1999/xlink" version="1.1"
   viewBox="94 -151 2414 2169">
   <path fill="currentColor"
      d="M1300 1341q-294 0 -514.5 -65t-343.5 -182.5t-123 -272.5q0 -156 123 -273t343.5 -182t514.5 -65t514.5 65t343.5 182t123 273q0 155 -123 272.5t-343.5 182.5t-514.5 65zM410 1700v-660h60v660h-60zM435 1341q-45 -2 -60 -23t-15 -81q0 -61 15 -82.5t60 -22.5v209z
M930 1895v-643h60v643h-60zM962 1666q-49 0 -65.5 -21t-16.5 -84t16.5 -84t65.5 -21q50 0 66.5 21t16.5 84t-16.5 84t-66.5 21zM1300 1978q-208 0 -388 -35.5t-315.5 -98.5t-211 -145.5t-75.5 -176.5q0 -43 28.5 -81.5t83.5 -68.5l36 63v223q72 69 200.5 123t294.5 85.5
t347 31.5q182 0 347.5 -31.5t294.5 -85.5t200 -123v-223l36 -63q55 30 83.5 68.5t28.5 81.5q0 94 -75.5 176.5t-211 145.5t-315 98.5t-388.5 35.5zM1610 1895v-643h60v643h-60zM1638 1666q-49 0 -66 -21t-17 -84t17 -84t66 -21t65.5 21t16.5 84t-16.5 84t-65.5 21zM1085 914
q-45 0 -78.5 -39t-33.5 -79q0 -34 23 -55.5t51 -21.5q44 0 78.5 40.5t34.5 80.5q0 32 -21.5 53t-53.5 21zM1048 856l-686 -909l64 -49l686 909zM1300 1261q267 0 470 -56t317 -155.5t114 -228.5q0 -130 -114 -229t-317 -155t-470 -56t-470 56t-317 155t-114 229
q0 129 114 228.5t317 155.5t470 56zM1300 1135q-229 0 -391.5 -38t-248.5 -110t-86 -174t86 -174t248.5 -110t391.5 -38q230 0 391.5 38t247 110t85.5 174t-85.5 174t-247 110t-391.5 38zM1300 1061q203 0 348.5 -30t223.5 -86t78 -132q0 -77 -78 -132.5t-223.5 -85.5
t-348.5 -30t-348.5 30t-223.5 85.5t-78 132.5q0 76 78 132t224 86t348 30zM1515 914q-32 0 -53.5 -21t-21.5 -53q0 -40 34.5 -80.5t78.5 -40.5q29 0 51.5 21.5t22.5 55.5q0 40 -33.5 79t-78.5 39zM2130 1700v-660h60v660h-60zM2165 1341v-209q45 1 60 22.5t15 82.5
q0 60 -15 81t-60 23zM1552 856l-64 -49l686 -909l64 49z" />
</svg>