<?xml version="1.0" standalone="no"?>
<!DOCTYPE svg PUBLIC "-//W3C//DTD SVG 1.1//EN" "http://www.w3.org/Graphics/SVG/1.1/DTD/svg11.dtd">
<svg xmlns="http://www.w3.org/2000/svg" xmlns:xlink="http://www.w3.org/1999/xlink" version="1.1"
   viewBox="94 -151 2414 2169">
   <path fill="currentColor"
      d="M1307 1978q-170 0 -343.5 -28.5t-330 -91.5t-279 -165.5t-193.5 -249.5t-71 -345q0 -152 40 -285.5t115.5 -240t182.5 -178.5q125 -84 275.5 -134t343.5 -72l-32 81q-203 33 -320.5 79t-167 117.5t-49.5 182.5q0 112 98.5 196t277.5 130.5t418 46.5q173 0 324.5 -30
t267 -82.5t180.5 -121.5t65 -147q0 -103 -60 -173.5t-190 -116t-341 -71.5l183 -47q402 71 605.5 280.5t203.5 556.5q0 172 -52 314.5t-153 253t-247.5 186.5t-335 115.5t-415.5 39.5zM630 1245q-214 -79 -325 -206q-12 -14 -10 -30.5t16 -26.5t30 -8t26 14q95 110 289 182
q17 6 24.5 20t1.5 31q-6 16 -20.5 23t-31.5 1zM921 1320q-26 -4 -50.5 -8.5t-49.5 -11.5q-17 -5 -25.5 -18.5t-4.5 -29.5q4 -17 18 -25.5t32 -3.5q23 6 45 10.5t47 8.5q17 2 27 15t8 30t-15.5 26t-31.5 7zM1307 1898q266 0 474.5 -56t353.5 -163.5t220 -261.5
q-92 93 -237 168.5t-345.5 120t-459.5 44.5q-223 0 -427.5 -40t-370 -114t-271.5 -174q57 113 155.5 201.5t234 149.5t305 93t368.5 32zM1284 1471q271 0 465 -41t326.5 -107.5t217 -143.5t136.5 -150q-7 -179 -77.5 -316.5t-204.5 -231.5q21 34 31.5 73.5t10.5 86.5
q0 97 -70 181t-195 146.5t-291.5 97.5t-360.5 35q-265 0 -461.5 -56.5t-304.5 -158.5t-108 -240q0 -46 8.5 -85.5t24.5 -73.5q-116 101 -182 240.5t-77 308.5q113 154 267 250t362.5 140.5t482.5 44.5zM1397 653q-64 -35 -100 -86t-36 -108q0 -92 73.5 -153t203.5 -80
l487 -69q89 -13 140.5 -43t51.5 -68t-28.5 -53t-94.5 -15h-32t-39 1l-325 18q-167 9 -292.5 29.5t-216 78.5t-152.5 182q-64 130 -122 189.5t-139 79.5l-16 -78q60 -17 104 -66t102 -162q53 -102 119 -164.5t152 -96t197.5 -48.5t254.5 -23l327 -19q18 -1 35.5 -1h37.5
q104 0 156 36t52 111q0 72 -69.5 122.5t-193.5 68.5l-491 70q-95 13 -148.5 53.5t-53.5 97.5q0 35 23.5 67t67.5 57z" />
</svg>