<?xml version="1.0" standalone="no"?>
<!DOCTYPE svg PUBLIC "-//W3C//DTD SVG 1.1//EN" "http://www.w3.org/Graphics/SVG/1.1/DTD/svg11.dtd">
<svg xmlns="http://www.w3.org/2000/svg" xmlns:xlink="http://www.w3.org/1999/xlink" version="1.1"
   viewBox="94 -151 2414 2169">
   <path fill="currentColor"
      d="M1424 1978q64 0 113 -21.5t89 -58.5l307 -285q75 -69 118.5 -101.5t95.5 -51.5q51 -20 86.5 -48t53.5 -64t18 -78q0 -43 -9 -83t-22 -83q-15 -50 -27.5 -106t-12.5 -118v-652q-66 2 -146 3.5t-159 1.5q-55 0 -124.5 -1t-178.5 -3q2 69 4.5 159t5 185.5t4 181.5t1.5 147
q0 57 -3.5 90.5t-14 56t-33.5 48.5l-285 328q-56 64 -86.5 110t-42.5 85.5t-12 87.5q0 75 35 136t94 97.5t131 36.5zM554 1617q59 0 102 -18.5t89 -52.5q-22 -74 -77.5 -146.5t-126.5 -126t-141 -69.5q-37 45 -56.5 89.5t-19.5 98.5q0 97 66 161t164 64zM1423 1947
q59 0 102 -18.5t89 -52.5q-22 -74 -77.5 -146.5t-126.5 -126t-141 -69.5q-37 45 -56.5 89.5t-19.5 98.5q0 97 66 161t164 64zM554 1578q-79 0 -134 -58.5t-55 -141.5q0 -44 30 -96t107 -141l285 -328q29 -33 43 -60t18 -67t4 -113q0 -102 -3 -212t-6.5 -210t-6.5 -171
q113 3 221 3q57 0 116.5 -1t110.5 -2v573q0 64 11 113t24 87l26 -76l-219 126q-22 13 -35.5 31.5t-13.5 38.5q0 24 13 51l100 210l67 -84q-41 16 -75 36t-72.5 51.5t-94.5 83.5l-307 285q-40 37 -77 54.5t-77 17.5zM555 1648q64 0 113 -21.5t89 -58.5l307 -285
q75 -69 118.5 -101.5t95.5 -51.5q51 -20 86.5 -48t53.5 -64t18 -78q0 -43 -9 -83t-22 -83q-15 -50 -27.5 -106t-12.5 -118v-652q-66 2 -146 3.5t-159 1.5q-55 0 -124.5 -1t-178.5 -3q2 69 4.5 159t5 185.5t4 181.5t1.5 147q0 57 -3.5 90.5t-14 56t-33.5 48.5l-285 328
q-56 64 -86.5 110t-42.5 85.5t-12 87.5q0 75 35 136t94 97.5t131 36.5zM1423 1908q-79 0 -134 -58.5t-55 -141.5q0 -44 30 -96t107 -141l285 -328q29 -33 43 -60t18 -67t4 -113q0 -102 -2.5 -212t-6.5 -210t-7 -171q113 3 221 3q57 0 116.5 -1t110.5 -2v573q0 64 11 113
t24 87l26 -76l-219 126q-22 13 -35.5 31.5t-13.5 38.5q0 24 13 51l100 210l67 -84q-41 16 -75 36t-72.5 51.5t-94.5 83.5l-307 285q-40 37 -77 54.5t-77 17.5zM1055 412q69 0 138.5 -1t131.5 -2v-80q-66 1 -135.5 2t-134.5 1q-70 0 -133.5 -1t-125.5 -2v80q131 3 259 3z
M1055 192q69 0 138.5 -1t131.5 -2v-80q-66 1 -135.5 2t-134.5 1q-70 0 -133.5 -1t-125.5 -2v80q131 3 259 3zM1924 742q69 0 138.5 -1t131.5 -2v-80q-66 1 -135.5 2t-134.5 1q-70 0 -133.5 -1t-125.5 -2v80q131 3 259 3zM1924 522q69 0 138.5 -1t131.5 -2v-80
q-66 1 -135.5 2t-134.5 1q-70 0 -133.5 -1t-125.5 -2v80q131 3 259 3z" />
</svg>