<?xml version="1.0" standalone="no"?>
<!DOCTYPE svg PUBLIC "-//W3C//DTD SVG 1.1//EN" "http://www.w3.org/Graphics/SVG/1.1/DTD/svg11.dtd">
<svg xmlns="http://www.w3.org/2000/svg" xmlns:xlink="http://www.w3.org/1999/xlink" version="1.1"
   viewBox="94 -151 2414 2169">
   <path fill="currentColor"
      d="M1300 1978q-234 0 -411.5 -110t-277 -306.5t-99.5 -455.5q0 -188 42 -366t116.5 -330.5t174 -267.5t215.5 -179.5t240 -64.5t240 64.5t215.5 179.5t174 267.5t116.5 330.5t42 366q0 259 -99.5 455.5t-277 306.5t-411.5 110zM883 1529q-21 0 -36 -15t-15 -36q0 -20 15 -35
t36 -15t36 15t15 35q0 21 -15 36t-36 15zM1095 1740q-26 0 -43.5 -17.5t-17.5 -42.5q0 -26 17.5 -43t43.5 -17q25 0 42 17t17 43q0 25 -17 42.5t-42 17.5zM1333 1675q-22 0 -38.5 -16t-16.5 -38q0 -23 16.5 -39t38.5 -16q23 0 39 16t16 39q0 22 -16 38t-39 16zM1424 1465
q-22 0 -38 -16t-16 -38q0 -23 16 -38.5t38 -15.5t37.5 15.5t15.5 38.5q0 22 -15.5 38t-37.5 16zM1752 1488q-17 0 -29 -12t-12 -30q0 -17 12 -29t29 -12t29 12t12 29q0 18 -12 30t-29 12zM1300 1898q212 0 371 -99t248 -277.5t89 -415.5q0 -175 -38.5 -340t-106 -308
t-157.5 -251t-193.5 -168.5t-212.5 -60.5t-212.5 60.5t-193.5 168.5t-157.5 251t-106 308t-38.5 340q0 237 89 415.5t248.5 277.5t370.5 99zM854 811q-16 0 -30 -13.5t-8 -38.5q37 -165 118.5 -306.5t206.5 -251.5q16 -13 33 -13t27 12.5t10 28.5q0 17 -12 28
q-120 106 -197 236.5t-112 289.5q-3 14 -13.5 21t-22.5 7zM1784 970q-25 0 -42 -17.5t-17 -42.5t17 -42t42 -17t42 17t17 42t-17 42.5t-42 17.5zM1704 626q-19 0 -32 -13t-13 -32t13 -32t32 -13t32 13t13 32t-13 32t-32 13z" />
</svg>