<?xml version="1.0" standalone="no"?>
<!DOCTYPE svg PUBLIC "-//W3C//DTD SVG 1.1//EN" "http://www.w3.org/Graphics/SVG/1.1/DTD/svg11.dtd">
<svg xmlns="http://www.w3.org/2000/svg" xmlns:xlink="http://www.w3.org/1999/xlink" version="1.1"
   viewBox="94 -151 2414 2169">
   <path fill="currentColor"
      d="M1410 1928q-133 0 -212 -41t-79 -124q0 -38 13.5 -81.5t36 -83t50.5 -64.5l32 -106q11 -35 15.5 -68t4.5 -82q0 -39 -83 -53l-109 -18q-52 35 -109 47t-116.5 20.5t-117.5 35.5q-35 16 -76.5 45t-90.5 53t-108 24q-34 0 -66.5 -9.5t-64.5 -27.5q-98 0 -147 -66.5
t-49 -166.5q0 -109 59 -210t176 -198l277 -404q25 -58 74.5 -102.5t110.5 -70t120 -25.5q26 0 47 4t40 10q16 -79 50.5 -122t81.5 -43q33 0 56.5 22t38.5 68q32 -14 70.5 -25.5t66.5 -11.5q48 0 96.5 21.5t91 43t70.5 21.5q31 0 64.5 -20t72 -46.5t84 -46.5t100.5 -20
q89 0 181 58t169.5 156.5t125 222t47.5 254.5v17.5t-1 16.5l-34 643q-1 32 7 73.5t17 80t9 61.5q0 90 -84 140.5t-204 50.5q-112 0 -174.5 -39t-62.5 -130q0 -45 19.5 -101t39 -113t19.5 -103q0 -37 -8 -67.5t-8 -70.5q-52 55 -117.5 85t-159.5 38q1 12 2 34t1 36
q0 66 -27.5 145.5t-66.5 127.5q5 54 7.5 97t2.5 69q0 64 -76.5 101.5t-194.5 37.5zM465 1202q-18 0 -24.5 -17t-6.5 -40q0 -59 27.5 -94.5t71.5 -35.5q28 0 48 14t20 31t-26 33.5t-43 33.5q-22 22 -30.5 48.5t-36.5 26.5zM1029 1808q-96 0 -142.5 -31t-46.5 -62
q0 -23 12.5 -65t25 -88.5t12.5 -81.5q0 -46 -20 -82t-40.5 -70.5t-20.5 -74.5l334 -96q0 105 20 174t40 122t20 110l-39 212q-24 13 -70 23t-85 10zM258 1046q-40 0 -77.5 -61t-61 -161.5t-23.5 -219.5q0 -72 8 -136.5t20 -105t25 -40.5q16 0 27.5 25t30.5 97
q20 71 57.5 164t120.5 182q20 22 28.5 48.5t8.5 52.5q0 61 -46.5 108t-117.5 47zM477 748q-12 -3 -31.5 -34t-35 -79.5t-15.5 -102.5q0 -62 8 -110t24 -48q17 0 44 51q21 40 50.5 84t77.5 75q9 22 9 44q0 49 -38 84.5t-93 35.5zM894 906q-31 0 -50.5 -26.5t-19.5 -61.5
q0 -44 28 -78.5t64 -34.5q31 0 50.5 26.5t19.5 60.5q0 44 -27.5 79t-64.5 35zM1410 1848q89 0 141 -19.5t50 -52.5l-11 -183q49 -49 71.5 -115t22.5 -145q0 -27 -2 -59.5t-5 -65.5q140 -9 226.5 -46t150.5 -131q16 -76 54 -148.5t93 -139.5l61 47q-67 76 -100 158t-33 158
q0 53 3 88.5t3 96.5q0 56 -19.5 116.5t-39 112.5t-19.5 86q0 46 29 70.5t130 24.5q86 0 146.5 -33t60.5 -78q0 -13 -9 -49.5t-17.5 -82.5t-6.5 -85l34 -641q1 -8 1 -15v-14q0 -113 -41 -222.5t-107 -199t-144 -142.5t-152 -53q-45 0 -83.5 20t-75.5 46t-76 46t-86 20
q-49 0 -93 -22.5t-84.5 -45t-80.5 -22.5q-36 0 -83.5 22.5t-91.5 48.5q-3 -50 -20 -84t-40 -34q-25 0 -41.5 45.5t-21.5 123.5q-21 7 -35 7q-31 0 -63.5 -12.5t-64.5 -12.5q-42 0 -87 20.5t-81.5 55t-52.5 77.5l-295 427q-124 85 -167.5 174.5t-43.5 175.5q0 80 33 117.5
t99 37.5q33 22 64.5 29.5t57.5 7.5q48 0 91.5 -24.5t84 -54.5t77.5 -46q55 -24 107 -28.5t102 -12.5t96 -41q114 -81 176 -196.5t68 -272.5l78 7q-10 153 -57.5 259.5t-133.5 196.5q107 14 148.5 41.5t41.5 78.5q0 63 -7 109.5t-20 83.5l-34 98q-37 46 -64.5 98.5
t-27.5 105.5q0 36 48.5 64t167.5 28zM1997 1635q-90 0 -143 -21t-53 -58q0 -23 19.5 -53.5t38.5 -59.5t19 -47q0 -46 -1.5 -76t-8.5 -71l201 -126l34 121zM794 240q-36 -29 -59 -81.5t-23 -109.5q0 -44 16 -72.5t41 -28.5q30 0 63.5 35t57 85t23.5 97z" />
</svg>