<?xml version="1.0" standalone="no"?>
<!DOCTYPE svg PUBLIC "-//W3C//DTD SVG 1.1//EN" "http://www.w3.org/Graphics/SVG/1.1/DTD/svg11.dtd">
<svg xmlns="http://www.w3.org/2000/svg" xmlns:xlink="http://www.w3.org/1999/xlink" version="1.1"
   viewBox="94 -151 2414 2169">
   <path fill="currentColor"
      d="M1622 1778q-133 0 -257 -54.5t-246 -166.5l-188 -173q-81 -74 -142.5 -121t-115.5 -72.5t-112.5 -35.5t-134.5 -10h-228l58 -1047h353q139 0 291.5 7.5t300.5 20.5t274 30t211 37q218 51 359 96.5t220 94.5t109.5 110.5t27.5 145.5l-28 755q-4 109 -71 170.5t-166 43.5
l-239 -44q-17 93 -93 153t-183 60zM1622 1698q80 0 135.5 -45t63.5 -114q-245 -169 -363.5 -320t-118.5 -295q0 -124 84 -213.5t232 -126.5l20 78q-160 40 -221 139q39 -17 92 -17q98 0 212.5 53t219.5 147l-54 60q-94 -85 -194.5 -132.5t-183.5 -47.5q-57 0 -82 26t-25 88
q0 103 105.5 225t333.5 277l273 51q62 12 101 -26.5t42 -111.5l28 -755q2 -66 -25 -114.5t-98.5 -88.5t-200.5 -79t-330 -85q-84 -20 -208.5 -36.5t-270 -29.5t-295 -20t-285.5 -7h-277l-50 887h144q84 0 150 11.5t127 40.5t128.5 80t153.5 129l188 171q113 103 222 152
t227 49z" />
</svg>