<?xml version="1.0" standalone="no"?>
<!DOCTYPE svg PUBLIC "-//W3C//DTD SVG 1.1//EN" "http://www.w3.org/Graphics/SVG/1.1/DTD/svg11.dtd">
<svg xmlns="http://www.w3.org/2000/svg" xmlns:xlink="http://www.w3.org/1999/xlink" version="1.1"
   viewBox="94 -151 2414 2169">
   <path fill="currentColor"
      d="M1300 1772q-97 0 -188.5 -31t-164.5 -83.5t-116 -118.5t-43 -135q0 -27 14.5 -42.5t39.5 -15.5q15 0 37.5 3.5t60.5 13.5q37 9 97.5 16.5t130 12t132.5 4.5q64 0 133.5 -4.5t130 -12t96.5 -16.5q38 -10 60.5 -13.5t37.5 -3.5q25 0 39.5 15.5t14.5 42.5q0 69 -43 135
t-116 118.5t-164.5 83.5t-188.5 31zM1300 1521q105 0 231 -13t231 -41v-51q0 -22 -34 -12q-57 17 -133 27.5t-153.5 15t-141.5 4.5q-63 0 -141 -4.5t-154 -15t-133 -27.5q-34 -10 -34 12v51q105 28 231 41t231 13zM1000 1194q-48 0 -74 -46.5t-26 -114.5t26 -115t74 -47
t74 47t26 115t-26 114.5t-74 46.5zM1600 1194q-48 0 -74 -46.5t-26 -114.5t26 -115t74 -47t74 47t26 115t-26 114.5t-74 46.5zM1300 744q172 0 335.5 -52t306.5 -149t251 -232q-223 56 -450.5 85.5t-442.5 29.5q-214 0 -442 -29.5t-451 -85.5q109 135 251.5 232t306 149
t335.5 52zM1300 321q-124 0 -250.5 -9.5t-254.5 -28.5l31 -67q121 17 240 26t234 9q229 0 474 -35l31 67q-128 19 -254.5 28.5t-250.5 9.5zM814 355l-74 -30q88 -224 180.5 -325.5t209.5 -101.5q83 0 170 48q87 -48 170 -48q117 0 209.5 101.5t180.5 325.5l-74 30
q-79 -199 -153.5 -288t-162.5 -89q-34 0 -74 13.5t-96 45.5q-56 -32 -96 -45.5t-74 -13.5q-88 0 -162.5 89t-153.5 288zM1300 1978q-176 0 -330 -65.5t-271.5 -182t-183.5 -269.5t-66 -328q0 -76 14 -154q-82 -95 -127.5 -239t-45.5 -294q0 -59 11 -120t29 -124
q246 68 492 103.5t478 35.5t478 -35.5t492 -103.5q19 63 29.5 124t10.5 120q0 150 -45.5 294t-127.5 239q14 78 14 154q0 175 -66 328t-183.5 269.5t-271.5 182t-330 65.5zM534 1133q0 159 59.5 297.5t164.5 243.5t244 164.5t298 59.5t298 -59.5t244 -164.5t164.5 -243.5
t59.5 -297.5q0 -128 -41 -248t-119 -222q-134 79 -288 120t-318 41t-318 -41t-288 -120q-78 102 -119 222t-41 248z" />
</svg>