<?xml version="1.0" standalone="no"?>
<!DOCTYPE svg PUBLIC "-//W3C//DTD SVG 1.1//EN" "http://www.w3.org/Graphics/SVG/1.1/DTD/svg11.dtd">
<svg xmlns="http://www.w3.org/2000/svg" xmlns:xlink="http://www.w3.org/1999/xlink" version="1.1"
   viewBox="94 -151 2414 2169">
   <path fill="currentColor"
      d="M1300 1978q-216 0 -404.5 -80.5t-331.5 -223.5t-223.5 -331.5t-80.5 -404.5q0 -75 10.5 -147t29.5 -140l77 23q-37 129 -37 264q0 199 74.5 373t206.5 306t306 206.5t373 74.5t373 -74.5t306 -206.5t206.5 -306t74.5 -373q0 -135 -37 -264l77 -23q20 68 30 140t10 147
q0 216 -81 404.5t-224 331.5t-331.5 223.5t-403.5 80.5zM1300 1702q-146 0 -265 -43.5t-189.5 -113t-70.5 -148.5q0 -47 22.5 -75t74.5 -28q31 0 64.5 8.5t80 20t115 20t168.5 8.5q101 0 169 -8.5t114.5 -20t80 -20t64.5 -8.5q53 0 75 28t22 75q0 79 -70.5 148.5t-189.5 113
t-265 43.5zM1300 1622q109 0 208.5 -32t163 -81t63.5 -99q0 -18 -9 -27t-28 -9q-24 0 -71.5 14t-127 28.5t-199.5 14.5t-199.5 -14.5t-126.5 -28.5t-72 -14q-19 0 -28 9t-9 27q0 50 63.5 99t163 81t208.5 32zM928 858q-52 0 -88.5 -44.5t-36.5 -105.5q0 -62 36.5 -106
t88.5 -44t88.5 44t36.5 106q0 61 -36.5 105.5t-88.5 44.5zM377 740q-62 0 -114 -30.5t-82.5 -82.5t-30.5 -114q0 -102 77 -169q-9 -36 -9 -70q0 -83 40.5 -151.5t109 -109.5t151.5 -41q70 0 129 28q26 -42 70 -66.5t95 -24.5q82 0 140 57t58 139t-57.5 139.5t-140.5 57.5
l11 -28q0 105 -63 186t-162 107q-18 76 -79.5 124.5t-142.5 48.5zM1300 1239q-62 0 -114 -30.5t-82.5 -82.5t-30.5 -114q0 -63 30.5 -114.5t82.5 -82t114 -30.5q63 0 114.5 30.5t82 82t30.5 114.5q0 62 -30.5 114t-82 82.5t-114.5 30.5zM1672 858q-52 0 -88.5 -44.5
t-36.5 -105.5q0 -62 36.5 -106t88.5 -44t88.5 44t36.5 106q0 61 -36.5 105.5t-88.5 44.5zM938 48l-53 -64q95 -41 200 -63.5t215 -22.5t215 22.5t200 63.5l-53 64q-84 -34 -175 -52t-187 -18t-187 18t-175 52zM2223 740q-81 0 -142.5 -48.5t-79.5 -124.5q-99 -26 -162 -107
t-63 -186l11 28q-82 0 -140 -57.5t-58 -139.5t58 -139t140 -57q51 0 95 24.5t70 66.5q59 -28 129 -28q83 0 151.5 41t109 109.5t40.5 151.5q0 34 -9 70q77 67 77 169q0 62 -30.5 114t-82 82.5t-114.5 30.5z" />
</svg>