<?xml version="1.0" standalone="no"?>
<!DOCTYPE svg PUBLIC "-//W3C//DTD SVG 1.1//EN" "http://www.w3.org/Graphics/SVG/1.1/DTD/svg11.dtd">
<svg xmlns="http://www.w3.org/2000/svg" xmlns:xlink="http://www.w3.org/1999/xlink" version="1.1"
   viewBox="94 -151 2414 2169">
   <path fill="currentColor"
      d="M1282 1978q-216 0 -404.5 -80.5t-331.5 -223.5t-223.5 -331.5t-80.5 -404.5t81 -404.5t224 -331.5t331.5 -223.5t403.5 -80.5t403.5 80.5t331.5 223.5t224 331.5t81 404.5q0 136 -33.5 263t-95.5 238l-64 -50q54 -101 83.5 -215t29.5 -236q0 -199 -74.5 -373t-206.5 -306
t-306 -206.5t-373 -74.5t-373 74.5t-306 206.5t-206.5 306t-74.5 373t74.5 373t206.5 306t306 206.5t373 74.5q224 0 417 -95.5t325 -255.5l63 49q-142 175 -351.5 278.5t-453.5 103.5zM746 1506v-135h-150v-247h130v157h170v-157h130v157h170v-157h130v157h170v-157h130
v157h170v-157h130v247h-150v135h-130v-135h-170v135h-130v-135h-170v135h-130v-135h-170v135h-130zM930 865q-52 0 -89 -47.5t-37 -129.5q0 -83 37 -130.5t89 -47.5t89 47.5t37 130.5q0 82 -36.5 129.5t-89.5 47.5zM2008 1444l-156 -121l49 -65l158 124zM2076 1526
q14 0 21 -12l41 -60q5 -8 5 -15q0 -13 -11 -20l-23 -16q-9 -6 -18 -6q-12 0 -20 11l-41 59q-5 8 -5 16q0 12 12 21l23 16q8 6 16 6zM2236 1699q-11 0 -25 -9l-230 -164q-18 -12 -18 -33q0 -11 8 -24l81 -117q12 -18 33 -18q13 0 25 9l230 163q18 13 18 33q0 13 -8 24
l-81 117q-13 19 -33 19zM2223 1631q14 0 21 -12l41 -59q5 -8 5 -16q0 -13 -11 -20l-47 -33q-9 -6 -17 -6q-12 0 -20 11l-42 60q-6 9 -6 15q0 11 12 20l48 34q9 6 16 6zM1634 865q-52 0 -89 -47.5t-37 -129.5q0 -83 37 -130.5t89 -47.5t89 47.5t37 130.5q0 82 -36.5 129.5
t-89.5 47.5z" />
</svg>