<?xml version="1.0" standalone="no"?>
<!DOCTYPE svg PUBLIC "-//W3C//DTD SVG 1.1//EN" "http://www.w3.org/Graphics/SVG/1.1/DTD/svg11.dtd">
<svg xmlns="http://www.w3.org/2000/svg" xmlns:xlink="http://www.w3.org/1999/xlink" version="1.1"
   viewBox="94 -151 2414 2169">
   <path fill="currentColor"
      d="M1255 1978q-234 0 -423 -84t-323 -237t-202 -360q-26 -80 -26 -149q0 -95 51 -161.5t125 -86.5q0 -57 31.5 -110t83.5 -86.5t112 -33.5q71 0 129.5 29.5t108.5 94.5l-62 55q-39 -53 -76 -77t-84 -24q-52 0 -95 25t-68 64.5t-25 84.5q0 17 3 32q-28 3 -64.5 24.5t-63 63
t-26.5 106.5q0 31 6 61t16 63q65 197 190 338t299 215.5t383 74.5q212 0 394 -68.5t318 -192t211.5 -288t75.5 -356.5q0 -125 -31 -249.5t-87 -235t-131.5 -196t-164.5 -133.5q-54 -29 -106.5 -42t-104.5 -13q-75 0 -139 39t-103 102.5t-39 138.5q0 52 30 96l-90 6
q-20 -47 -20 -102q0 -86 45.5 -168.5t126.5 -136t189 -53.5q57 0 120.5 14.5t128.5 51.5q101 57 185 151.5t144.5 213.5t93.5 251t33 265q0 211 -83 390.5t-230.5 312.5t-343.5 206.5t-422 73.5zM1089 1669q-49 0 -79 -16t-30 -45q0 -35 36 -68.5t73 -33.5q49 0 79 19.5
t30 52.5q0 38 -32.5 64.5t-76.5 26.5zM1405 1728q-25 0 -41 -12.5t-16 -31.5q0 -26 19.5 -46.5t41.5 -20.5q20 0 34.5 16.5t14.5 40.5q0 54 -53 54zM366 985q-36 0 -75 -72q-16 -29 -20.5 -51t-4.5 -45q0 -50 31 -93l93 -125q29 -38 72 -47.5t90 -9.5h151q29 0 46 20.5
t24.5 48t7.5 50.5q0 15 -1 22.5t-3 12.5q-80 0 -143.5 17t-122.5 57l-48 131zM601 459q20 0 35.5 -8t15.5 -24q0 -14 -9.5 -24.5t-31.5 -10.5q-48 0 -48 36q0 12 9 21.5t29 9.5zM1152 961q20 0 30 -11.5t10 -24.5q0 -23 -23.5 -37t-42.5 -14t-30 12t-11 27q0 23 24 35.5
t43 12.5zM749 592l-155 -8q-45 -53 -73.5 -110.5t-28.5 -111.5q0 -85 66 -143.5t157 -58.5q63 0 129 33l-46 112l9 126zM626 358q15 0 23 -9.5t8 -19.5q0 -16 -18 -31.5t-36 -15.5q-14 0 -23.5 10.5t-9.5 20.5q0 19 20 32t36 13zM1504 1280q-38 0 -70 -27.5t-32 -59.5
q0 -26 22.5 -45.5t53.5 -19.5q41 0 80.5 29t39.5 60q0 25 -28 44t-66 19zM1815 1554q-19 0 -35.5 -10t-16.5 -21q0 -19 16.5 -34.5t35.5 -15.5q20 0 34 9.5t14 22.5q0 19 -14.5 34t-33.5 15zM484 665q-66 -80 -99.5 -159t-33.5 -152q0 -93 48 -171.5t127 -125.5t172 -47
q62 0 131.5 22.5t145.5 66.5l-35 54q-64 -40 -126 -59t-115 -19q-78 0 -142 38t-102.5 101.5t-38.5 139.5q0 64 30 132t88 139zM552 1329q-85 0 -148.5 -22t-99.5 -66l57 -52q45 62 169 62q99 0 222.5 -34.5t258 -100t266.5 -157.5q120 -84 220 -177.5t173.5 -188
t114 -180.5t40.5 -154q0 -35 -8.5 -62.5t-42.5 -47.5l87 -32q23 30 33.5 66t10.5 76q0 104 -72.5 236t-203.5 270t-306 261q-137 96 -274.5 164t-264 103.5t-232.5 35.5zM1063 1108q-27 -56 -42 -112t-15 -108q0 -110 73.5 -180t176.5 -70q71 0 139.5 35t126.5 97l-223 204z
M1228 876q14 0 24.5 -9.5t10.5 -23.5q0 -22 -16 -46t-39 -24q-16 0 -28 11t-12 27q0 24 20.5 44.5t39.5 20.5zM917 1188q-71 -164 -71 -301q0 -210 174 -332q59 -41 120 -62.5t123 -21.5q103 0 206 50.5t200 151.5l-48 49q-86 -92 -178 -136.5t-180 -44.5q-95 0 -174 46
t-126.5 124.5t-47.5 175.5q0 116 67 273zM708 289q11 0 19 -9.5t8 -19.5q0 -17 -16.5 -35t-35.5 -18q-13 0 -21 9t-8 18q0 17 17.5 36t36.5 19zM1329 824q14 0 25.5 -12t11.5 -29q0 -22 -14.5 -45t-35.5 -23q-35 0 -35 38q0 25 13 48t35 23zM961 627q-11 0 -23.5 -25.5
t-12.5 -56.5q0 -11 2.5 -28.5t9.5 -42.5q9 -34 30.5 -64.5t55.5 -46.5q67 -31 102.5 -44.5t54 -17t33.5 -3.5q32 0 62 12.5t55 32.5l91 73q29 22 46 62t17 70l-223 -32l-199 39zM1711 974q-19 0 -33.5 -15t-14.5 -34q0 -13 14.5 -22.5t33.5 -9.5q20 0 36 15.5t16 34.5
q0 11 -16 21t-36 10zM871 799q-78 -39 -118 -100.5t-40 -124.5q0 -37 14.5 -71.5t34.5 -62.5q-10 -37 -10 -77q0 -80 38.5 -146.5t102.5 -108t141 -46.5q54 -91 120.5 -127.5t139.5 -36.5q93 0 159 61.5t92 141.5l-70 39q-23 -74 -72.5 -119t-108.5 -45q-67 0 -117 35.5
t-91 111.5q-66 0 -124 31t-94 85t-36 124q0 21 4 39t12 46q-26 25 -40.5 55.5t-14.5 70.5q0 49 32.5 87t69.5 68zM1997 1108q-62 0 -62 -55q0 -52 37.5 -95t81.5 -43q31 0 50.5 19t19.5 49q0 52 -37 88.5t-90 36.5zM1397 544q0 -84 45.5 -165t127 -133.5t189.5 -52.5
q29 0 56.5 3.5t58.5 11.5l-12 80q-51 -17 -105 -17q-83 0 -146.5 41t-98.5 103t-35 127z" />
</svg>