<?xml version="1.0" standalone="no"?>
<!DOCTYPE svg PUBLIC "-//W3C//DTD SVG 1.1//EN" "http://www.w3.org/Graphics/SVG/1.1/DTD/svg11.dtd">
<svg xmlns="http://www.w3.org/2000/svg" xmlns:xlink="http://www.w3.org/1999/xlink" version="1.1"
   viewBox="94 -151 2414 2169">
   <path fill="currentColor"
      d="M1357 1978q-39 0 -62 -26q-25 -27 -38.5 -69t-31.5 -79q-6 13 -13 27t-20 28q-42 43 -98 56.5t-119 -2.5q-31 -8 -67.5 -27t-68.5 -52q-60 -62 -87.5 -138.5t-26.5 -182.5q-111 1 -191.5 -26.5t-145.5 -91.5q-50 -49 -69.5 -106.5t-6.5 -115.5t59 -109q13 -14 27 -20.5
t28 -12.5q-37 -18 -83 -32.5t-73 -38.5q-28 -26 -26 -70.5t42 -81.5q50 -47 121 -45.5t152 55.5q-4 -74 17.5 -149t90.5 -147q57 -59 110 -86.5t99 -67.5q30 -26 30 -54q0 -11 -4.5 -20.5t-13.5 -17.5q-24 -21 -24 -51q0 -20 9.5 -42.5t23.5 -48.5q10 -18 17 -30t11 -26
q18 -58 21.5 -106t31.5 -76q18 -18 47 -18q26 0 53 13t44 32q50 52 75.5 117t25.5 134q0 77 -32.5 154.5t-100.5 143.5q-57 55 -115 98.5t-111 91.5q-32 30 -47.5 63.5t-15.5 65.5q0 25 9 47t26 39q38 38 74.5 38t61.5 -25q16 -16 25.5 -42t21.5 -83q11 -54 39 -133t97 -146
q169 -166 329 -264t295 -140.5t227 -42.5q49 0 83.5 7t59.5 28q48 41 51 134.5t-45 226t-151.5 291.5t-267.5 330q-67 70 -140 103t-127 44q-57 12 -84 20t-43 23q-12 11 -18 26t-6 30q0 20 10.5 39.5t31.5 40.5q18 18 40 28.5t44 10.5q34 0 66.5 -16t61.5 -47
q48 -53 91.5 -121t98.5 -125q68 -70 149 -104.5t161 -34.5q67 0 129 24.5t111 72.5q28 26 41 71t-15 73t-76 36.5t-106 26.5q-14 4 -26.5 10.5t-29.5 17.5q-25 15 -47 24.5t-42 9.5q-31 0 -53 -25q-15 -18 -34 -18q-13 0 -26.5 9.5t-27.5 25.5q-40 46 -69.5 105t-88.5 119
q-67 68 -136.5 90t-138.5 18q54 81 55.5 152t-45.5 121q-20 22 -43.5 32t-46.5 10zM1366 1893q26 0 38.5 -34t12.5 -59q0 -36 -17.5 -73.5t-57.5 -69.5q-57 -14 -101.5 -41t-85.5 -64q-42 -38 -62.5 -82t-24.5 -79l56 -28q14 40 34.5 70t48.5 58q45 44 107.5 68.5
t128.5 24.5q59 0 115.5 -21t106.5 -74q35 -38 60 -76.5t51 -78.5t63 -81q36 -39 84 -39q19 0 36 8.5t28 21.5q5 6 13.5 9.5t19.5 3.5q20 0 47.5 -12.5t55.5 -24.5q51 -21 95.5 -40.5t49.5 -25.5q6 -9 -11 -26q-37 -38 -84.5 -57t-99.5 -19q-67 0 -135 30t-123 88
q-45 47 -92.5 118.5t-99.5 126.5q-40 43 -85.5 64.5t-89.5 21.5q-80 0 -144 -61q-34 -32 -50.5 -66.5t-16.5 -67.5q0 -29 12 -57t36 -53q25 -26 67 -42t113 -32q38 -9 98 -36.5t115 -83.5q151 -152 246.5 -295t143 -262t52.5 -200.5t-25 -111.5q-12 -12 -36 -18.5t-58 -6.5
q-81 0 -203 38t-272.5 132.5t-316.5 265.5q-55 56 -77.5 121.5t-31.5 103.5q-16 71 -32 113t-42 67q-55 51 -120.5 49.5t-127.5 -65.5q-60 -62 -60 -140q0 -47 22.5 -93.5t66.5 -88.5q55 -52 117 -99t108 -93q55 -53 82.5 -120.5t27.5 -132.5q0 -56 -19.5 -105.5
t-58.5 -83.5q-19 -16 -26 -11q-6 4 -21.5 45.5t-34.5 91.5q-10 28 -21 56t-11 50q0 12 2.5 21t8.5 15q33 32 30.5 77t-37.5 77q-41 37 -76.5 62.5t-70 49.5t-74.5 58q-53 46 -77 104.5t-24 120.5q0 66 26 128.5t73 108.5q29 27 58.5 46t69.5 33l-28 56q-35 -4 -77.5 -23.5
t-83.5 -59.5q-34 -35 -59.5 -77.5t-38.5 -89.5q-33 -41 -74 -58t-79 -17q-28 0 -59 11t-31 37q0 16 7 24q13 17 39 23.5t58 16.5t62 41q33 33 46 66.5t26 66.5t46 66q36 36 87.5 53.5t109.5 16.5l-1 64q-60 13 -132 -9.5t-117 -67.5q-27 -28 -40 -54.5t-21 -48.5t-20 -34
q-9 -9 -22.5 -9t-28.5 14q-40 39 -37 104t55 120q65 67 157.5 90t206.5 -1q-18 112 1 198t81 147q33 32 72 47.5t81 15.5q24 0 49 -9.5t44 -27.5q15 -14 12.5 -30.5t-11.5 -25.5q-12 -12 -36 -17.5t-53.5 -17t-58.5 -39.5q-45 -45 -68 -117t-10 -132l64 -1q-1 58 17 107
t58 90q32 32 67 43t71.5 22t70.5 43q26 24 35.5 55.5t17.5 60t28 43.5q8 7 24 7zM964 1060q-37 0 -63.5 -26.5t-26.5 -63.5t26.5 -63.5t63.5 -26.5t63.5 26.5t26.5 63.5t-26.5 63.5t-63.5 26.5zM1264 1346q-37 0 -63.5 -26.5t-26.5 -63.5t26.5 -63.5t63.5 -26.5t63.5 26.5
t26.5 63.5t-26.5 63.5t-63.5 26.5zM1414 1018q-19 0 -32.5 -13t-13.5 -32t13.5 -32t32.5 -13t32 13t13 32t-13 32t-32 13zM1289 806q-19 0 -32.5 -13t-13.5 -32t13.5 -32t32.5 -13t32 13t13 32t-13 32t-32 13zM956 219q-16 0 -26.5 -11t-10.5 -27t10.5 -27t26.5 -11
q17 0 28 11t11 27t-11 27t-28 11zM1561 809q-19 0 -32.5 -13t-13.5 -32t13.5 -32t32.5 -13t32 13t13 32t-13 32t-32 13zM2054 1279q-16 0 -27 -10.5t-11 -26.5q0 -17 11 -28t27 -11t27 11t11 28q0 16 -11 26.5t-27 10.5zM986 153q-16 0 -27 -11.5t-11 -27.5q0 -17 11 -28
t27 -11q17 0 28 11t11 28q0 16 -11 27.5t-28 11.5zM2121 1250q-16 0 -27.5 -11t-11.5 -27q0 -17 11.5 -28t27.5 -11q17 0 28 11t11 28q0 16 -11 27t-28 11zM1001 80q-16 0 -27.5 -11.5t-11.5 -27.5q0 -17 11.5 -28t27.5 -11q17 0 28 11t11 28q0 16 -11 27.5t-28 11.5z
M2194 1236q-16 0 -27.5 -11.5t-11.5 -27.5q0 -17 11.5 -28t27.5 -11q17 0 28 11t11 28q0 16 -11 27.5t-28 11.5zM1534 526q-19 0 -32.5 -13t-13.5 -32t13.5 -32t32.5 -13t32 13t13 32t-13 32t-32 13zM1774 618q-19 0 -32.5 -13t-13.5 -32t13.5 -32t32.5 -13t32 13t13 32
t-13 32t-32 13zM1804 408q-19 0 -32.5 -13t-13.5 -32t13.5 -32t32.5 -13t32 13t13 32t-13 32t-32 13zM1429 260q-44 -45 -52 -85.5t25 -72.5q36 -35 107 -48t158.5 -4t170.5 39zM2116 813q-32 33 -72.5 25t-85.5 -52l171 -409q30 83 38.5 170t-4 158t-47.5 108z" />
</svg>