<?xml version="1.0" standalone="no"?>
<!DOCTYPE svg PUBLIC "-//W3C//DTD SVG 1.1//EN" "http://www.w3.org/Graphics/SVG/1.1/DTD/svg11.dtd">
<svg xmlns="http://www.w3.org/2000/svg" xmlns:xlink="http://www.w3.org/1999/xlink" version="1.1"
   viewBox="94 -151 2414 2169">
   <path fill="currentColor"
      d="M2185 1978q-218 -17 -427.5 -60.5t-367.5 -104.5q11 -47 19.5 -97.5t13.5 -96t5 -76.5q0 -89 -10.5 -164.5t-33.5 -156.5q-18 -63 -31.5 -124t-13.5 -121q0 -76 41 -121t108 -45q107 0 171 119.5t77 337.5l-79 3q-15 -187 -59.5 -283.5t-114.5 -96.5q-33 0 -48.5 21
t-15.5 65q0 55 11.5 110t27.5 112q28 97 38 183.5t10 161.5l-58 -39q142 36 263.5 63t250.5 49.5t295 47.5l-85 74q59 -218 114 -397t125 -365q24 -64 36.5 -103t12.5 -67q0 -27 -17.5 -44.5t-47.5 -17.5q-25 0 -42.5 15t-31.5 56l-78 217l-75 -26l97 -280q8 -24 13.5 -45.5
t5.5 -40.5q0 -43 -21.5 -69t-57.5 -26q-33 0 -53.5 19.5t-30.5 60.5l-83 340l-77 -19l81 -351q5 -24 8 -41t3 -33q0 -49 -24.5 -77.5t-67.5 -28.5q-80 0 -93 116l-46 393l-79 -8l42 -371q5 -44 -16 -71.5t-56 -27.5q-65 0 -72 86l-32 372l-79 -31l32 -346q7 -77 44.5 -116.5
t104.5 -39.5q50 0 88.5 31.5t41.5 78.5h-39q13 -67 54.5 -104t103.5 -37q72 0 118.5 49.5t46.5 122.5q0 10 -1 19.5t-3 19.5l-38 3q15 -38 47 -58.5t75 -20.5q67 0 110 45.5t43 116.5q0 25 -7.5 51t-23.5 55l-27 -32q17 -23 43.5 -35t55.5 -12q60 0 100.5 38.5t40.5 94.5
q0 36 -15.5 89t-37.5 112q-71 194 -120.5 355.5t-99.5 335.5zM506 1454l71 -11l-49 -180l-72 10zM686 1425l70 -12l-47 -180l-72 11zM863 1393l70 -17l-48 -179l-70 15zM1039 1351l70 -18l-48 -178l-70 17zM1561 1794l48 -179l-70 -17l-48 178zM415 1535l-82 -288
q-49 -174 -99 -335.5t-121 -355.5q-22 -59 -37.5 -112t-15.5 -89q0 -56 40.5 -94.5t100.5 -38.5q29 0 55.5 12t43.5 35l-27 32q-16 -29 -23.5 -55t-7.5 -51q0 -71 43 -116.5t110 -45.5q44 0 75.5 20.5t46.5 58.5h-38q-4 -20 -4 -42q0 -73 46.5 -122.5t118.5 -49.5
q62 0 103.5 37t54.5 104h-39q3 -47 41.5 -78.5t88.5 -31.5q67 0 104.5 39.5t44.5 116.5l32 346l-79 31l-32 -372q-7 -86 -72 -86q-35 0 -56 27.5t-16 71.5l42 371l-79 8l-46 -393q-13 -116 -93 -116q-43 0 -67.5 28.5t-24.5 77.5q0 16 3 33t8 41l81 351l-77 19l-83 -340
q-10 -41 -30.5 -60.5t-53.5 -19.5q-36 0 -57.5 26t-21.5 69q0 19 5.5 40.5t13.5 45.5l97 280l-75 26l-78 -217q-15 -41 -31.5 -56t-42.5 -15q-30 0 -47.5 17.5t-17.5 44.5q0 28 12.5 67t36.5 103q70 186 125 365t114 397l-85 -74q166 -25 295.5 -47.5t250.5 -49.5t263 -63
l-58 39q0 -75 10 -161.5t38 -183.5q17 -57 28 -112t11 -110q0 -44 -15.5 -65t-48.5 -21q-70 0 -114.5 96.5t-59.5 283.5l-79 -3q14 -218 78 -337.5t170 -119.5q68 0 108.5 45t40.5 121q0 60 -13.5 121t-31.5 124q-23 81 -33.5 156.5t-10.5 164.5q0 31 5 76.5t13.5 96
t19.5 97.5q-157 61 -367 104.5t-428 60.5zM1737 1836l48 -181l-70 -15l-48 179zM1914 1868l49 -181l-72 -11l-47 180zM2094 1897l50 -181l-72 -10l-49 180z" />
</svg>