<?xml version="1.0" standalone="no"?>
<!DOCTYPE svg PUBLIC "-//W3C//DTD SVG 1.1//EN" "http://www.w3.org/Graphics/SVG/1.1/DTD/svg11.dtd">
<svg xmlns="http://www.w3.org/2000/svg" xmlns:xlink="http://www.w3.org/1999/xlink" version="1.1"
   viewBox="94 -151 2414 2169">
   <path fill="currentColor"
      d="M451 1928q-71 0 -105 -33t-34 -86q0 -70 52.5 -186.5t150 -264t233 -311t300.5 -328.5q189 -189 358 -333t313.5 -241.5t260 -147t197.5 -49.5q61 0 86 26t25 71q0 65 -49 174t-138 248.5t-209.5 295.5t-263.5 315q-115 127 -235.5 250.5t-243 232t-243 191t-235.5 129.5
t-220 47zM429 1530q105 -149 245.5 -230.5t294.5 -81.5q56 0 93 11.5t37 30.5q0 38 -86.5 86t-238 96.5t-345.5 87.5zM848 1001q71 -94 167.5 -159.5t204 -100t210.5 -34.5q56 0 93 11.5t37 30.5q0 34 -87 74.5t-247 85t-378 92.5zM448 1852q104 0 216 -48.5t228 -132
t232 -190.5t228 -224.5t217 -232.5q134 -147 249.5 -296t203.5 -283.5t137 -238.5t49 -161q0 -8 -5 -12.5t-15 -4.5q-109 0 -268 84.5t-363.5 250.5t-452.5 413q-145 144 -274 297t-227.5 295t-154.5 253.5t-56 172.5q0 28 13 43t43 15zM1322 522q128 -140 256.5 -208
t267.5 -68q56 0 93 11.5t37 30.5q0 52 -159.5 107.5t-494.5 126.5z" />
</svg>