<?xml version="1.0" standalone="no"?>
<!DOCTYPE svg PUBLIC "-//W3C//DTD SVG 1.1//EN" "http://www.w3.org/Graphics/SVG/1.1/DTD/svg11.dtd">
<svg xmlns="http://www.w3.org/2000/svg" xmlns:xlink="http://www.w3.org/1999/xlink" version="1.1"
   viewBox="94 -151 2414 2169">
   <path fill="currentColor"
      d="M1141 1906q-191 -31 -349 -119t-272.5 -220.5t-177 -298t-62.5 -350.5q0 -212 79 -396.5t219.5 -325t325.5 -219.5t396 -79t396 79t325 219.5t219.5 325t79.5 396.5q0 221 -88 413t-245 333.5t-365 212.5l19 -91q181 -71 315.5 -200.5t209 -301t74.5 -366.5t-73 -365.5
t-202 -299.5t-299.5 -202t-365.5 -73t-365.5 73t-299.5 202t-202 299.5t-73 365.5q0 157 48.5 298.5t139 258.5t218 200.5t284.5 125.5zM1379 2018q-118 0 -217 -48.5t-158 -132.5t-59 -188q0 -83 32 -172t86 -163q47 -101 56.5 -173t9.5 -127q0 -135 40.5 -197.5
t118.5 -62.5q84 0 127 63.5t43 176.5q0 41 -6.5 83.5t-6.5 76.5q0 13 1 25.5t4 26.5l-72 15q-4 -16 -5.5 -32t-1.5 -35q0 -46 6.5 -83t6.5 -77q0 -160 -96 -160q-44 0 -61.5 39.5t-17.5 140.5q0 56 -10.5 140t-65.5 199q-50 66 -79 145t-29 151q0 83 47.5 148.5t128 103
t178.5 37.5q100 0 164 -34.5t85 -112.5h57q-23 30 -60 48t-81 18q-55 0 -85.5 -28.5t-30.5 -65.5q0 -35 24.5 -59t62.5 -24v65q-22 0 -22 15q0 11 14.5 17t36.5 6q47 0 70 -20t23 -48q0 -64 -19 -87.5t-67 -23.5q-67 0 -188 46l-21 -70q67 -26 118 -38t91 -12q81 0 120.5 46
t39.5 139q0 144 -90 223.5t-242 79.5zM1130 1151q-40 -9 -80.5 -22t-81.5 -29l30 -74q36 15 72 26.5t71 19.5zM1690 1623l-68 -47q6 -15 10 -33.5t4 -39.5q0 -49 -23.5 -67.5t-71.5 -18.5q-44 0 -97.5 12t-130.5 39l-23 -70q83 -29 142.5 -42t108.5 -13q47 0 79 14.5
t63 43.5q13 16 20 46.5t7 64.5q0 25 -4.5 49.5t-15.5 61.5zM1667 1697v-74q55 0 86.5 -28t31.5 -68q0 -46 -39.5 -76.5t-110.5 -47.5v-26v-26q0 -52 -24.5 -82.5t-77.5 -30.5q-44 0 -115 22.5t-145 65.5l-33 -67q80 -45 159 -70t134 -25q82 0 129.5 52t47.5 130v5.5v5.5
q64 13 106 59t42 111q0 71 -53.5 120.5t-137.5 49.5zM853 796q-22 0 -36.5 -30t-14.5 -73q0 -69 38 -112t95 -43t95 43t38 112q0 43 -15 73t-36 30q-10 0 -34 -5.5t-48 -5.5t-47.5 5.5t-34.5 5.5zM1399 1164v-80q104 -14 203 -58l32 74q-115 51 -235 64zM1583 796
q-22 0 -36.5 -30t-14.5 -73q0 -69 38 -112t95 -43t95 43t38 112q0 43 -14.5 73t-36.5 30q-10 0 -34 -5.5t-48 -5.5t-47.5 5.5t-34.5 5.5z" />
</svg>