<?xml version="1.0" standalone="no"?>
<!DOCTYPE svg PUBLIC "-//W3C//DTD SVG 1.1//EN" "http://www.w3.org/Graphics/SVG/1.1/DTD/svg11.dtd">
<svg xmlns="http://www.w3.org/2000/svg" xmlns:xlink="http://www.w3.org/1999/xlink" version="1.1"
   viewBox="94 -151 2414 2169">
   <path fill="currentColor"
      d="M624 1742q-174 -141 -274 -348.5t-100 -453.5q0 -215 81.5 -403.5t225.5 -332t334 -225t407 -81.5q249 0 460 103.5t362 285.5l-113 -6q-139 -146 -320 -224.5t-390 -78.5q-198 0 -373 75t-308.5 207t-209.5 306.5t-76 372.5q0 204 74 380.5t204 305.5zM874 1879
q69 0 120 -55t51 -128q0 -47 -25.5 -107.5t-82.5 -148.5q-52 -80 -72.5 -119t-36.5 -79q-76 95 -119 191t-43 182q0 73 28.5 133t76 95.5t103.5 35.5zM869 1959q-78 0 -142 -46.5t-102.5 -123t-38.5 -165.5q0 -113 65.5 -247t195.5 -276q20 39 49.5 94t60 109.5t52.5 90.5
q61 99 88.5 172t27.5 134q0 68 -35 127t-93.5 95t-127.5 36zM851 1228l-67 -32l115 -236l-296 113l-28 -71l389 -147l47 46zM1080 1508q113 -72 225 -165.5t199 -180.5q90 -90 187 -207.5t169 -234.5l-69 -41q-45 68 -103 144.5t-120 150t-120 131.5q-56 56 -125 116
t-142 116.5t-140 100.5zM1176 1636q-24 0 -47 -2t-45 -6l-105 -222q110 -70 221 -156t209 -184q65 -65 125.5 -136.5t117 -149.5t108.5 -160l207 102q12 51 12 111q0 92 -28 193.5t-81.5 198t-129.5 172.5t-172 129.5t-197.5 81.5t-194.5 28zM1487 1507q58 -26 113.5 -64
t100.5 -84q46 -47 84.5 -102t63.5 -112q-70 21 -128 54t-103 77q-88 86 -131 231zM1298 1978q-93 0 -182 -14.5t-184 -44.5l75 -64q77 22 147.5 32.5t143.5 10.5q205 0 381.5 -70t309 -198.5t207 -304t74.5 -385.5q0 -83 -12.5 -156t-32.5 -135l47 -105q37 91 57.5 191
t20.5 205q0 223 -79 412.5t-221.5 330t-334.5 218t-417 77.5zM1259 653l-46 -47l150 -395l71 28l-116 302l246 -120l32 67zM2060 766q-60 0 -134.5 -27.5t-172.5 -87.5q-91 -56 -154.5 -89t-138.5 -64q124 -134 261 -202t261 -68q89 0 164 37.5t120 101t45 141.5
q0 112 -71 185t-180 73zM2055 686q77 0 126.5 -47t49.5 -126q0 -56 -35 -102.5t-93.5 -74.5t-129.5 -28q-85 0 -180.5 42.5t-190.5 119.5q27 11 51 23.5t57.5 32t87.5 53.5q89 56 150.5 81.5t106.5 25.5z" />
</svg>