<?xml version="1.0" standalone="no"?>
<!DOCTYPE svg PUBLIC "-//W3C//DTD SVG 1.1//EN" "http://www.w3.org/Graphics/SVG/1.1/DTD/svg11.dtd">
<svg xmlns="http://www.w3.org/2000/svg" xmlns:xlink="http://www.w3.org/1999/xlink" version="1.1"
   viewBox="94 -151 2414 2169">
   <path fill="currentColor"
      d="M795 1456q-52 -54 -95 -135t-74.5 -179t-48.5 -202.5t-17 -205.5q0 -182 55.5 -334.5t154 -265t228.5 -174.5t279 -62q167 0 306.5 55t242 154.5t159 235t56.5 296.5q0 277 -63 478.5t-211 338.5q14 -122 21 -236.5t7 -213.5q0 -132 -15.5 -226t-49.5 -144t-92 -50
q-22 0 -43.5 3t-46.5 9q2 -10 2.5 -19t0.5 -17q0 -56 -36 -90t-94 -34q-59 0 -123 35t-135 81.5t-149 83.5t-165 40q-16 42 -26.5 107t-16.5 157.5t-8.5 219.5t-2.5 294zM732 1796q-146 0 -237.5 -78t-91.5 -204q0 -73 18.5 -139.5t37 -141t18.5 -168.5l74 21
q-1 102 -19.5 176.5t-36 134t-17.5 117.5q0 94 69.5 150.5t184.5 56.5v75zM1316 1917q74 0 110.5 -39.5t36.5 -103.5q-61 0 -98 30t-48 75q-11 -45 -48 -75t-99 -30q0 67 41.5 105t104.5 38zM655 1387q-157 -222 -233.5 -433t-76.5 -425v-31t1 -30l282 146l-9 80l-197 -102
q10 180 78 358.5t195 357.5zM1287 1978q-293 0 -464 -90t-185 -247q-8 -90 -15 -184t-12 -203l84 54q3 76 8 151.5t12 137.5q71 7 139.5 36t134.5 55.5t129 26.5q98 0 188 -84q91 84 188 84q68 0 137.5 -29.5t142 -60t149.5 -31.5q-4 -15 -12 -34t-16 -35q-18 -35 -25 -69
t-7 -71v-41l80 -8v49q0 48 12 83.5t26 64.5q14 28 21.5 53t7.5 51q0 101 -86.5 178t-248 120t-388.5 43zM1304 1282q-85 0 -155 -33.5t-125 -100.5l51 -44q47 57 102.5 82.5t126.5 25.5q72 0 128 -25.5t102 -82.5l51 44q-55 67 -125.5 100.5t-155.5 33.5zM1026 974
q-38 0 -63 -28t-25 -68t25 -68.5t63 -28.5t63.5 28.5t25.5 68.5t-25.5 68t-63.5 28zM1912 1775l31 -78q91 -14 143.5 -68t52.5 -135q0 -58 -18.5 -119.5t-37 -137.5t-18.5 -174l75 -18q0 97 18.5 171t37 140t18.5 138q0 120 -83 196.5t-219 84.5zM1556 974q-38 0 -63 -28
t-25 -68t25 -68.5t63 -28.5t63.5 28.5t25.5 68.5t-25.5 68t-63.5 28zM1854 1237q47 -95 77.5 -242t30.5 -349q0 -161 -55 -285t-150.5 -209.5t-219 -129.5t-260.5 -44q-132 0 -247 56t-203 157.5t-137.5 240t-49.5 303.5q0 105 18 221t68 260q0 -153 9 -267.5t24 -198
t33 -141.5q108 0 191.5 -36.5t153.5 -84t138 -84t146 -36.5q74 0 129 40.5t66 108.5q7 -1 22 -1q78 0 128.5 52.5t74.5 159t24 269.5q0 52 -2 106.5t-9 133.5zM1306 693q-110 -98 -207 -156.5t-200 -85.5t-232 -29v-75q130 2 235 27t202 78t202 141q105 -88 202.5 -141
t203 -78t234.5 -27l16 75q-133 1 -239 27t-205 85t-212 159zM1925 1393l-62 -49q148 -179 226 -369t88 -383l-181 94v-85l257 -133q1 15 1.5 30t0.5 31q0 220 -81.5 435.5t-248.5 428.5z" />
</svg>