<?xml version="1.0" standalone="no"?>
<!DOCTYPE svg PUBLIC "-//W3C//DTD SVG 1.1//EN" "http://www.w3.org/Graphics/SVG/1.1/DTD/svg11.dtd">
<svg xmlns="http://www.w3.org/2000/svg" xmlns:xlink="http://www.w3.org/1999/xlink" version="1.1"
   viewBox="94 -151 2414 2169">
   <path fill="currentColor"
      d="M288 1205q-33 -131 -33 -267q0 -219 79.5 -408.5t222.5 -331t333 -221t410 -79.5q221 0 411 79.5t332.5 221t222 330.5t79.5 409q0 136 -33 267l-88 -17q31 -121 31 -250q0 -202 -73 -375.5t-203 -303.5t-303.5 -203t-375.5 -73t-375.5 73t-303.5 203t-203 303.5
t-73 375.5q0 130 32 250zM673 2028q-93 0 -197 -32t-195 -85t-148.5 -115.5t-57.5 -122.5q0 -34 15 -59t43 -37q-25 -32 -38.5 -63t-13.5 -57q0 -43 21 -71t58 -37q-9 -16 -13.5 -33t-4.5 -36q0 -58 36.5 -98t88.5 -40q18 0 35.5 6t31.5 17q11 -38 41 -59.5t70 -21.5
q31 0 58.5 13.5t60 48.5t78.5 99l30 42q14 -58 47.5 -89.5t81.5 -31.5q62 0 102 49t50 139q6 52 26.5 108t38.5 115t18 119q0 98 -46 173t-127.5 117t-189.5 42zM670 1954q134 0 212.5 -72t78.5 -190q0 -56 -17 -105.5t-36.5 -102.5t-27.5 -117q-7 -65 -28.5 -96.5
t-56.5 -31.5q-34 0 -53 34.5t-19 84.5q0 18 3.5 36.5t8.5 36.5l-24 20q-25 -31 -51 -65.5t-58 -78.5l-13 -18q-54 -74 -83 -102t-58 -28q-22 0 -36.5 14t-14.5 40q0 29 45.5 100t149.5 182l-40 36q-104 -106 -153 -175.5t-73.5 -103.5t-55.5 -34q-25 0 -39 17t-14 51
q0 46 78.5 127.5t196.5 179.5l-36 40q-86 -68 -135.5 -116t-76.5 -73.5t-49 -25.5q-35 0 -35 35t42 81.5t100.5 91.5t108.5 77l-30 45q-70 -41 -116 -81t-73 -40q-42 0 -42 41q0 43 50.5 93t130.5 93.5t170 71.5t169 28zM1300 1978q-104 0 -203 -19t-189 -54l51 -67
q162 60 341 60t342 -60l51 67q-91 35 -189.5 54t-203.5 19zM747 707q0 -98 54.5 -161.5t140.5 -63.5q59 0 111.5 32.5t86.5 91.5l-65 38q-51 -87 -133 -87q-54 0 -87 41.5t-33 108.5h-75zM1196 1118q-126 0 -253 -32.5t-250 -94.5l29 -70q118 60 237.5 91t236.5 31
q209 0 390 -95.5t317 -276.5l60 45q-146 196 -343.5 299t-423.5 103zM1927 2028q-107 0 -189 -42t-128 -117t-46 -173q0 -60 18.5 -119t38.5 -115t26 -108q11 -90 50.5 -139t101.5 -49q48 0 81.5 31.5t47.5 89.5l30 -42q46 -64 78.5 -99t60.5 -48.5t58 -13.5q41 0 70.5 21.5
t40.5 59.5q14 -11 31.5 -17t35.5 -6q53 0 89 40t36 98q0 19 -4.5 36t-13.5 33q38 9 58.5 37t20.5 71q0 26 -13.5 57t-38.5 63q28 12 43 37t15 59q0 60 -57.5 122.5t-148.5 115.5t-195 85t-197 32zM1930 1954q79 0 169 -28t170 -71.5t130.5 -93.5t50.5 -93q0 -41 -42 -41
q-27 0 -72.5 40t-116.5 81l-30 -45q50 -32 108.5 -77t100.5 -91.5t42 -81.5t-35 -35q-21 0 -48.5 25.5t-76.5 73.5t-136 116l-36 -40q119 -98 197 -179.5t78 -127.5q0 -34 -13.5 -51t-39.5 -17q-31 0 -55.5 34t-73 103.5t-153.5 175.5l-40 -36q104 -111 149.5 -182
t45.5 -100q0 -26 -14 -40t-37 -14q-28 0 -57.5 28t-83.5 102l-13 18q-31 44 -57.5 78.5t-51.5 65.5l-24 -20q5 -18 8.5 -36.5t3.5 -36.5q0 -50 -18.5 -84.5t-53.5 -34.5t-56 31.5t-29 96.5q-7 64 -27 117t-37 102.5t-17 105.5q0 118 79 190t212 72zM1462 589l-75 -6
q8 -95 63.5 -154.5t137.5 -59.5q57 0 109.5 30t91.5 84l-61 44q-58 -83 -140 -83q-52 0 -86.5 39t-39.5 106z" />
</svg>