<?xml version="1.0" standalone="no"?>
<!DOCTYPE svg PUBLIC "-//W3C//DTD SVG 1.1//EN" "http://www.w3.org/Graphics/SVG/1.1/DTD/svg11.dtd">
<svg xmlns="http://www.w3.org/2000/svg" xmlns:xlink="http://www.w3.org/1999/xlink" version="1.1"
   viewBox="94 -151 2414 2169">
   <path fill="currentColor"
      d="M817 1928q-154 0 -240 -32.5t-86 -93.5q0 -19 31 -50q-61 -7 -97.5 -44t-36.5 -90q0 -50 33 -81.5t81 -31.5q54 0 86 38q72 -81 126 -182t108 -269q51 -157 103.5 -251.5t122 -144.5t168.5 -73q-112 -29 -184 -123.5t-72 -211.5q0 -94 46 -171t123.5 -123t170.5 -46
q94 0 171 46t123 123t46 171q0 117 -72 211.5t-184 123.5q100 23 169 73t122 144.5t103 251.5q54 168 108 269t126 182q32 -38 86 -38q48 0 81 31.5t33 81.5q0 53 -36 90t-98 44q31 31 31 50q0 61 -85.5 93.5t-240.5 32.5q-107 0 -215.5 -13t-212.5 -38q-127 25 -267.5 38
t-270.5 13zM710 1633q35 -8 117 -33.5t163 -53.5q19 -74 32 -137.5t23 -135t19 -167.5q-123 219 -209 346.5t-145 180.5zM1890 1633q-59 -53 -145 -180.5t-209 -346.5q9 96 19 167.5t23 135t32 137.5q81 28 163 53.5t117 33.5z" />
</svg>