<?xml version="1.0" standalone="no"?>
<!DOCTYPE svg PUBLIC "-//W3C//DTD SVG 1.1//EN" "http://www.w3.org/Graphics/SVG/1.1/DTD/svg11.dtd">
<svg xmlns="http://www.w3.org/2000/svg" xmlns:xlink="http://www.w3.org/1999/xlink" version="1.1"
   viewBox="94 -151 2414 2169">
   <path fill="currentColor"
      d="M1561 1978q-34 0 -49 -20.5t-24 -40.5t-26 -20h-52q-53 0 -81.5 -20t-28.5 -48q0 -31 25.5 -55.5t58.5 -49.5t58.5 -56.5t25.5 -75.5t-13 -84.5t-26.5 -82.5t-13.5 -87q-13 7 -32 9.5t-35 2.5q-50 0 -94.5 -17t-78.5 -46q-13 4 -35 4q-43 0 -66 -19t-34 -53q-17 5 -30 5
q-39 0 -72.5 -41.5t-17.5 -112.5q-54 -141 -95 -212.5t-79 -111.5q-22 4 -41.5 7t-38.5 3q-22 0 -50.5 -3.5t-48.5 -3.5q-25 0 -75 21t-103 21q-69 0 -119.5 -50.5t-77.5 -124.5t-27 -144q0 -48 13.5 -89.5t40.5 -65.5q-62 -30 -93 -81.5t-31 -109.5q0 -59 26 -111
t72.5 -84.5t108.5 -32.5q51 0 99.5 16t90 32t70.5 16q17 -31 50.5 -47.5t76.5 -16.5q58 0 101 31t57 81q68 29 146.5 131.5t148.5 249.5q49 -24 106.5 -41.5t116.5 -17.5q90 0 174 27t163 62t152 62t140 27q63 0 112 -18t49 -43q0 -14 -31 -25t-112 -24q-90 -15 -129 -40.5
t-39 -65.5q0 -121 288 -121q172 0 272.5 92.5t100.5 250.5q0 148 -117 250.5t-392 191.5q-37 58 -97 120t-122 106q14 56 14 107q0 66 -16 129t-16 106q0 63 24 110.5t56 85.5t56 71t24 66q0 34 -27 54.5t-64 20.5q-27 0 -62.5 -8t-71.5 -27l-65 49q-38 30 -68 30z
M1076 1891q-28 0 -28 -15q0 -20 23 -46q-85 54 -140 54q-40 0 -40 -27q0 -17 16 -44q-49 31 -80 31q-29 0 -29 -21q0 -27 33 -56.5t82.5 -50.5t98.5 -21q66 0 113 -30t47 -86q0 -43 -31 -68.5t-76.5 -48.5t-91.5 -55.5t-77 -87.5t-31 -146q0 -45 9.5 -78t29.5 -73l69 147
l271 106q0 40 28 76.5t56 70t28 65.5q0 29 -20 80.5t-20 92.5q0 36 14 55.5t28 32t14 28.5q0 11 -21.5 19t-49.5 8q-49 0 -84 22t-67.5 44t-73.5 22zM514 1221q-24 0 -46 -44.5t-22 -109.5q0 -71 32 -112t91 -41q48 0 73 -33t38.5 -76t28 -76t41.5 -33l150 177q0 15 -6.5 47
t-21.5 66t-38 58.5t-56 24.5q-35 0 -61.5 -2.5t-55.5 -2.5q-13 0 -15 24.5t-2 54.5q0 25 -3.5 46.5t-20.5 21.5q-22 0 -40.5 -26t-31.5 -62q0 38 -7.5 68t-26.5 30zM253 525q37 -2 70 -7.5t64 -13.5q0 -50 -12.5 -73.5t-32.5 -23.5q-18 0 -27.5 16.5t-9.5 38.5
q-17 -45 -45 -45q-12 0 -18 13.5t-6 30.5q0 32 17 64zM245 259q19 0 29.5 -27.5t10.5 -76.5q-27 0 -54.5 2t-49.5 10q10 42 27.5 67t36.5 25zM428 494q24 -8 47.5 -19.5t45.5 -24.5q-1 -32 -17 -56t-34 -24q-42 0 -42 124zM361 294q21 0 35 -27.5t14 -76.5
q-25 -12 -49 -19.5t-50 -10.5q0 134 50 134zM498 333q24 0 40.5 -20.5t16.5 -52.5q-13 -3 -46.5 -20t-65.5 -37q0 130 55 130zM572 417q26 -20 42.5 -41t29.5 -43q-1 -18 -13 -31t-25 -13q-19 0 -28.5 29.5t-5.5 98.5zM1567 1903q14 0 33.5 -19.5t43.5 -39t50 -19.5
q32 0 62 15.5t68 15.5q9 0 15 -3t6 -9q0 -14 -25 -42t-58 -69t-58 -93t-25 -114q0 -58 16 -115t16 -120q0 -38 -7 -73.5t-22 -73.5q40 -17 91.5 -57.5t100 -92.5t78.5 -102q176 -59 279.5 -114.5t148.5 -118.5t45 -143q0 -123 -76.5 -194t-216.5 -71q-75 0 -131.5 11.5
t-56.5 27.5q0 13 27.5 19.5t50.5 10.5q101 15 157 42t56 89q0 38 -33.5 70t-88 50.5t-119.5 18.5q-78 0 -152 -27t-149 -62t-155.5 -62t-172.5 -27q-66 0 -125.5 20t-134.5 64q-71 -167 -150 -280.5t-156 -153.5q-14 -38 -44.5 -61t-65.5 -23q-33 0 -59 17.5t-30 46.5
q-71 0 -120.5 -16.5t-89.5 -33t-84 -16.5q-58 0 -94 38t-36 94q17 -7 50 -12.5t56 -5.5q45 0 101.5 24t117 56t117.5 56t102 24q-41 160 -170 250t-296 90q13 49 51 85t84 36q44 0 89.5 -20t88.5 -20q21 0 49.5 2.5t49.5 2.5q209 0 209 -230h81q0 98 -30 162.5t-98 103.5
q24 28 45.5 62.5t46 84.5t56.5 126q17 -34 51 -50t62 -16q0 -66 25.5 -131t68.5 -120l61 47q-40 59 -60.5 128t-20.5 137q-164 0 -164 100q0 65 52 65q5 0 13.5 -1.5t15.5 -5.5q0 29 13 48.5t41 19.5q35 0 46 -27t33 -40q63 -39 104 -101.5t65 -129.5t37 -119l77 18
q-37 148 -88.5 231t-125.5 140q-16 12 -28.5 28.5t-21.5 32.5q32 16 64 24.5t62 8.5q22 0 48.5 -8t81.5 -28q0 97 15 159t30 106.5t15 90.5q0 52 -26 88.5t-60 61.5t-60 40.5t-26 24.5q0 7 15 11.5t68 4.5q41 0 59 20t26.5 40t22.5 20zM1575 1079q-16 0 -27.5 -15t-11.5 -35
t11.5 -35t27.5 -15q17 0 28 15t11 35t-11 35t-28 15zM691 162q-22 0 -38 -16t-16 -38t16 -37.5t38 -15.5q23 0 38.5 15.5t15.5 37.5t-15.5 38t-38.5 16zM1657 921q-18 0 -30 -17t-12 -41t12 -41t30 -17t30 17t12 41t-12 41t-30 17zM1414 617l-77 -18q11 -47 11 -84
q0 -57 -22 -118l82 -12q9 32 14 64.5t5 67.5q0 49 -13 100zM1646 669l-79 -18q4 -19 6 -36.5t2 -34.5q0 -81 -37 -156l93 18q24 67 24 140q0 22 -2 43.5t-7 43.5z" />
</svg>