<?xml version="1.0" standalone="no"?>
<!DOCTYPE svg PUBLIC "-//W3C//DTD SVG 1.1//EN" "http://www.w3.org/Graphics/SVG/1.1/DTD/svg11.dtd">
<svg xmlns="http://www.w3.org/2000/svg" xmlns:xlink="http://www.w3.org/1999/xlink" version="1.1"
   viewBox="94 -151 2414 2169">
   <path fill="currentColor"
      d="M502 1838q53 0 95 -8.5t84 -27.5q53 -51 124 -156t139 -231q81 39 188 70.5t222.5 49.5t219.5 18q112 0 215.5 -26.5t173.5 -71.5l43 162q13 47 49 74t93 27h163q62 0 102 -33t40 -85q0 -71 -61 -121t-151 -54l-200 -887q-15 -65 -46 -106.5t-87 -41.5q-42 0 -76 23
t-70 61l-358 378q-73 -23 -146 -34t-147 -12q-53 -37 -117.5 -61.5t-126.5 -32.5q-47 -63 -111 -94.5t-153 -31.5q-95 0 -170 47.5t-118 128.5t-43 184q0 125 41 228.5t115 165t172 61.5l-71 152q-10 -2 -24 -2.5t-24 -0.5q-51 0 -98.5 25t-78 77.5t-30.5 137.5
q72 23 126 35.5t102 12.5zM305 1513q67 0 109.5 -10.5t73 -36.5t60.5 -74l30 -47l-125 -54l-92 129q-25 -21 -54.5 -30.5t-56.5 -9.5q-42 0 -77.5 25t-35.5 56q0 29 37 40.5t131 11.5zM285 1041q32 0 39 -31.5t7 -81.5t-7 -89t-39 -39q-31 0 -54.5 35t-23.5 85t23.5 85.5
t54.5 35.5zM618 1094q-41 0 -70.5 -35t-29.5 -84t29.5 -84t70.5 -35t70 34.5t29 84.5q0 49 -29 84t-70 35zM1723 1978q89 0 145.5 -21t56.5 -64q0 -38 -58 -71.5t-130 -33.5q-19 0 -43 6t-44 14l-272 -561q-22 -46 -52 -71t-67 -25q-17 0 -60.5 3.5t-93.5 8.5t-89 10t-48 8
q-12 49 -50 128t-89 165.5t-101.5 160t-86.5 112.5q-28 10 -64.5 13t-74.5 3q-44 0 -84.5 -6.5t-68.5 -19.5q4 -38 34.5 -75t77.5 -37q26 0 55 6.5t49 17.5l128 -268q86 -35 137.5 -127.5t51.5 -216.5h-71q0 77 -28.5 142t-75.5 104t-103 39q-66 0 -123.5 -50t-93 -135.5
t-35.5 -190.5q0 -84 31.5 -147t88 -98t131.5 -35q77 0 132 26t90 90q121 0 223 76.5t175 198.5l-167 170h106l653 -704q50 -53 93 -53q21 0 36 18.5t28 72.5l213 925q93 6 142.5 35t49.5 67q0 23 -20 36.5t-50 13.5h-162q-40 0 -60 -26t-37 -102l-192 -835l-548 572l56 55
l149 -152q72 0 146 -7t133 -22t86 -38l69 299q-73 42 -168.5 66.5t-204.5 24.5q-73 0 -156.5 -10.5t-166 -29.5t-154.5 -43t-124 -51q60 -9 105 -23.5t75 -26.5t46 -12q20 0 37.5 17t40.5 63l259 507q29 56 76 85t111 29zM632 608q-61 -212 -147.5 -383.5t-211.5 -326.5
l-52 47q113 139 194.5 297.5t142.5 359.5zM746 620q-25 -200 -64 -380.5t-89 -329.5l-66 23q34 102 60.5 206.5t48 220.5t39.5 255zM1322 862l129 -274q13 -28 29 -28q19 0 25 26l33 148l116 -90l-56 -200q-9 -33 -38 -54.5t-64 -21.5q-68 0 -135 97l-267 382zM1860 1005
l-41 -175l-122 128q40 7 83 18.5t80 28.5zM1601 524l89 -12l-6 -40l-89 12zM2176 1252q116 -28 193 -71.5t94 -90.5q-52 19 -97 32t-74 16q54 -44 91.5 -85.5t42.5 -64.5q-98 56 -159.5 86.5t-121.5 53.5zM1584 457l76 -48l-22 -33l-76 48zM1543 400l55 -71l-33 -23l-55 71z
M2062 696l105 -14l-6 -40l-105 14zM2050 614l99 -30l-13 -38l-99 30zM2029 535l85 -53l-22 -34l-85 53z" />
</svg>