<?xml version="1.0" standalone="no"?>
<!DOCTYPE svg PUBLIC "-//W3C//DTD SVG 1.1//EN" "http://www.w3.org/Graphics/SVG/1.1/DTD/svg11.dtd">
<svg xmlns="http://www.w3.org/2000/svg" xmlns:xlink="http://www.w3.org/1999/xlink" version="1.1"
   viewBox="94 -151 2414 2169">
   <path fill="currentColor"
      d="M1213 1878q-70 0 -113.5 -55t-43.5 -136q0 -20 1.5 -36t4.5 -36l35 46q-58 -19 -108 -47.5t-99 -72.5h51q-43 21 -71.5 48t-51.5 53t-50.5 42.5t-68.5 16.5q-64 0 -108 -41.5t-44 -105.5q0 -56 31 -107t89 -108q-16 -48 -24 -98.5t-8 -100.5l33 8q-16 7 -33 9.5t-36 2.5
q-65 0 -106 -38.5t-41 -99.5q0 -68 61 -149.5t194 -194.5q23 -140 77.5 -263.5t135 -217t181.5 -146.5t216 -53q248 0 392.5 196t172.5 557q2 23 34 55t74 72.5t73.5 89.5t31.5 107t-36 95t-91 37q-50 0 -100 -14.5t-97 -42.5l64 -20q-32 131 -90 234t-130.5 170t-150.5 89
q-39 11 -60.5 40t-36 65.5t-31.5 70.5t-45 56.5t-78 22.5zM350 1630q-104 0 -168 -60t-64 -155q0 -99 97 -221t282 -249l6 89q-151 112 -228 208.5t-77 172.5q0 67 41 103.5t111 36.5q45 0 106 -16.5t149 -52.5l-15 91q-72 26 -131.5 39.5t-108.5 13.5zM335 1410
q-16 -23 5 -39q74 -59 153.5 -107t176.5 -95l2 58q-83 38 -155.5 85t-143.5 100q-24 19 -38 -2zM725 661q-115 -65 -209.5 -129.5t-177.5 -142.5q-24 -20 -3 -41q18 -18 40 1q89 76 180.5 140t195.5 123zM543 891q-212 -177 -327.5 -346.5t-115.5 -296.5q0 -104 71 -172
t185 -68q107 0 242 67.5t311 209.5l-40 73q-172 -139 -299.5 -205t-215.5 -66q-77 0 -125.5 45t-48.5 116q0 70 50 166.5t142 203t216 209.5zM604 541l-59 -3q-14 -68 -44 -129t-86 -122q-9 -10 -8 -21.5t10 -20.5q8 -8 21 -8t20 10q54 67 90 137.5t56 156.5zM1213 1798
q39 0 55 -29.5t30.5 -72t45.5 -83t100 -61.5q113 -35 198.5 -165t125.5 -317q50 27 102.5 44t90.5 17q25 0 39.5 -16.5t14.5 -44.5q0 -48 -31 -88.5t-72.5 -76.5t-74 -69.5t-34.5 -66.5q-23 -329 -145.5 -510t-340.5 -181q-102 0 -191 50t-160 138t-118.5 203.5t-67.5 246.5
q-130 104 -191 176.5t-61 124.5q0 70 83 70q23 0 47.5 -6.5t58.5 -22.5q-4 22 -5.5 46t-1.5 56q0 47 11.5 96.5t29.5 92.5q-70 69 -98 107t-28 86q0 37 22 58t52 21q35 0 57.5 -24.5t56 -61.5t99.5 -74q95 95 229 134q-5 19 -7 40t-2 41q0 54 22 88t59 34zM1846 1736
q-84 0 -174.5 -41.5t-179.5 -125.5l69 -45q59 62 135 99.5t140 37.5q73 0 118.5 -45.5t45.5 -121.5q0 -54 -27.5 -140t-77.5 -184l74 -22q57 114 84 201.5t27 149.5q0 106 -63.5 171.5t-170.5 65.5zM1878 1518q-22 16 -38 -7q-27 -38 -58 -75t-73 -83l33 -47q44 46 77 86.5
t66 85.5q16 22 -7 40zM1313 893q-107 0 -169 -117l58 -30q42 82 111 82t111 -82l58 29q-61 118 -169 118zM1117 628q-27 0 -45 -20t-18 -48q0 -29 18 -49t45 -20t44.5 20t17.5 49q0 28 -17.5 48t-44.5 20zM1512 628q-26 0 -44 -20t-18 -48q0 -29 18 -49t44 -20q28 0 45.5 20
t17.5 49q0 28 -17.5 48t-45.5 20zM1908 1017q-11 4 -19.5 -6.5t-9.5 -24t8 -17.5l345 -140l22 47zM1816 614l-18 -50q75 -38 147 -85t149 -101q8 -6 18 -6q25 0 25 27q0 13 -11 21q-79 55 -155 105t-155 89zM2281 965q-37 0 -51 -27t-14 -77q-34 -19 -50 -34.5t-16 -46.5
q0 -32 24.5 -47.5t58.5 -25.5q7 -44 23 -70t50 -26q26 0 43.5 16.5t33.5 46.5q11 -2 24 -3.5t23 -1.5q33 0 51.5 18t18.5 44q0 31 -40 78q9 16 15.5 33.5t6.5 34.5q0 22 -18 41t-45 19q-25 0 -63 -16l-27 24q-21 20 -48 20zM2291 910l56 -47l57 22q14 5 22 -3t1 -22l-27 -57
l39 -51q11 -14 6.5 -22.5t-23.5 -6.5l-64 8l-34 -53q-10 -17 -20.5 -14t-13.5 20l-10 63l-58 19q-17 6 -19 15t14 19l52 30l1 66q0 12 6 16.5t15 -2.5zM1877 837l-31 -69q211 -131 318.5 -246t107.5 -215q0 -70 -47.5 -113.5t-123.5 -43.5q-70 0 -168 31.5t-219 89.5
l-33 -67q128 -62 233 -95.5t187 -33.5q73 0 129.5 31t89 83.5t32.5 117.5q0 78 -56 166.5t-162.5 180.5t-256.5 183zM1927 540l-52 -5q19 -74 56 -133.5t97 -119.5q8 -8 20 -8q26 0 26 27q0 12 -8 20q-106 105 -139 219z" />
</svg>