<?xml version="1.0" standalone="no"?>
<!DOCTYPE svg PUBLIC "-//W3C//DTD SVG 1.1//EN" "http://www.w3.org/Graphics/SVG/1.1/DTD/svg11.dtd">
<svg xmlns="http://www.w3.org/2000/svg" xmlns:xlink="http://www.w3.org/1999/xlink" version="1.1"
   viewBox="94 -151 2414 2169">
   <path fill="currentColor"
      d="M1232 1749q-330 0 -488 -248t-158 -753q0 -69 67.5 -127.5t184 -99.5t261.5 -55l64 76q-130 7 -243.5 38t-183.5 75.5t-70 92.5q0 35 45.5 66.5t125 56.5t181.5 39t214 14q113 0 214.5 -14t181 -39t125 -56.5t45.5 -66.5q0 -51 -76.5 -97t-199 -77t-260.5 -34l11 -79
q168 4 305 44t218.5 103.5t81.5 139.5q0 508 -158.5 754.5t-487.5 246.5zM1232 1978q-187 0 -347.5 -29.5t-280.5 -82t-187 -122.5t-67 -151q0 -85 77.5 -155t255.5 -137l32 74q-151 56 -218 108.5t-67 109.5q0 61 63.5 116.5t175 97.5t256 66.5t307.5 24.5t307.5 -24.5
t256 -66.5t175 -97.5t63.5 -116.5q0 -57 -67 -109.5t-218 -108.5l32 -74q179 67 256 137t77 155q0 81 -67 151t-187 122.5t-280.5 82t-347.5 29.5zM955 1402q-11 6 -22.5 2.5t-17.5 -14.5q-33 -62 -52.5 -124.5t-19.5 -121.5q0 -31 29 -31q13 0 21.5 8t9.5 21q3 53 18 108
t46 110q16 28 -12 42zM1232 1669q181 0 301.5 -85t185.5 -260.5t76 -446.5q-81 58 -229 92.5t-334 34.5t-334 -34.5t-229 -92.5q12 271 76.5 446.5t185.5 260.5t301 85zM1765 1697q-13 0 -20.5 -8.5t-7.5 -20.5t11 -23q23 -23 41 -48t33 -55q9 -18 29 -18q11 0 19.5 7.5
t8.5 21.5q0 19 -19.5 53.5t-46.5 62.5t-48 28zM1229 975l-472 -106q37 -31 111 -58.5t172.5 -44.5t207.5 -17q162 0 278 35.5t171 81.5zM1808 1248v-100q166 -3 254 -40.5t88 -107.5q0 -68 -75.5 -98t-242.5 -30v-100q200 0 309 59t109 169q0 112 -119.5 177.5t-322.5 70.5z
M1325 670q-137 -45 -216 -115.5t-79 -166.5q0 -67 34.5 -113.5t89.5 -80t116.5 -58.5t116.5 -47.5t89.5 -47.5t34.5 -59q0 -19 -10 -38t-39 -46q126 0 203 63t77 163q0 71 -33 115.5t-85 71.5t-110 46t-110 37t-85 43.5t-33 68.5q0 25 7 55.5t32 108.5zM1203 552
q-2 -11 -3 -21.5t-1 -20.5q0 -61 33.5 -99t86.5 -62.5t112 -44t112 -41.5t86.5 -55t33.5 -86q0 -41 -25 -77t-60 -49q1 4 1 8v9q0 52 -47.5 88.5t-117 65t-139.5 58t-117.5 68t-47.5 95.5q0 45 33 83.5t88 59.5z" />
</svg>