<?xml version="1.0" standalone="no"?>
<!DOCTYPE svg PUBLIC "-//W3C//DTD SVG 1.1//EN" "http://www.w3.org/Graphics/SVG/1.1/DTD/svg11.dtd">
<svg xmlns="http://www.w3.org/2000/svg" xmlns:xlink="http://www.w3.org/1999/xlink" version="1.1"
   viewBox="94 -151 2414 2169">
   <path fill="currentColor"
      d="M1307 1978q-231 0 -380.5 -88t-221.5 -270.5t-72 -464.5l82 44q0 361 143 530t449 169q293 0 455 -142t162 -385q0 -161 -86 -243.5t-255 -82.5q-183 0 -292 15.5t-157.5 49.5t-48.5 92q0 60 53 87t172 29q109 1 175.5 15.5t114.5 52.5t103 111l-65 47
q-45 -62 -82.5 -92.5t-93 -41t-154.5 -12.5q-154 -3 -228.5 -51t-74.5 -145q0 -65 31.5 -110t100.5 -73t180 -41t271 -13q131 0 224 47t142.5 137.5t49.5 222.5q0 185 -83.5 321t-239.5 210.5t-374 74.5zM1444 1665l-74 -10q11 -89 58 -162t125 -111l39 63
q-64 30 -100.5 90.5t-47.5 129.5zM809 1298q-62 0 -106.5 -24.5t-69.5 -70.5t-29 -112l-8 -159q-5 -99 52 -162.5t154 -63.5q50 0 90 18t65 50h-37q6 -90 58.5 -140t142.5 -50q92 0 146 53t62 153l19 230h-80l-18 -216q-6 -72 -37.5 -106t-91.5 -34q-67 0 -97 42.5
t-22 127.5l21 215q5 51 17.5 75.5t40.5 35.5l-16 74q-61 -16 -87.5 -52t-34.5 -115l-18 -192q-4 -43 -32 -66t-89 -23q-66 0 -99 38t-29 109l8 156q3 64 34.5 96.5t90.5 32.5t97 -29.5t48 -82.5l73 19q-19 82 -75.5 127.5t-142.5 45.5zM1863 1124l-73 -57l120 -823
q16 -106 -13 -159.5t-100 -53.5q-49 0 -75 30t-43 110l-128 602h-112l-159 -688q-25 -107 -117 -107q-53 0 -89.5 32t-36.5 85q0 25 7 64.5t20 98.5l82 358l-78 16l-83 -359q-14 -62 -21 -103.5t-7 -74.5q0 -85 59.5 -141t145.5 -56q76 0 127 45t69 123l135 586l107 -496
q22 -102 69.5 -153.5t129.5 -51.5q108 0 159 80.5t31 222.5z" />
</svg>