<?xml version="1.0" standalone="no"?>
<!DOCTYPE svg PUBLIC "-//W3C//DTD SVG 1.1//EN" "http://www.w3.org/Graphics/SVG/1.1/DTD/svg11.dtd">
<svg xmlns="http://www.w3.org/2000/svg" xmlns:xlink="http://www.w3.org/1999/xlink" version="1.1"
   viewBox="94 -151 2414 2169">
   <path fill="currentColor"
      d="M607 1314l-66 -46q47 -67 118.5 -100t166.5 -33q27 0 61.5 1t65 2t44.5 1q79 0 154 -16.5t165.5 -55.5t213.5 -105q103 -56 178 -88t137 -45.5t125 -13.5q49 0 89.5 3t84.5 10q-27 -164 -52.5 -296.5t-52.5 -256t-61 -258.5q-64 -20 -123 -29.5t-112 -9.5q-72 0 -140 20
t-142 62q-83 47 -150.5 76t-127.5 42t-123 13q-35 0 -89.5 -4t-104.5 -7.5t-74 -3.5q-209 0 -331 129l-58 -56q146 -153 389 -153q53 0 124.5 7.5t143.5 7.5q56 0 109 -11.5t114.5 -38t139.5 -71.5q83 -47 161 -69.5t159 -22.5q78 0 146.5 14t153.5 47q31 119 56 225.5
t47.5 216.5t45 237t48.5 287q-59 -11 -102 -17.5t-81.5 -9.5t-86.5 -3q-58 0 -113.5 12.5t-123.5 42t-165 82.5q-128 69 -225 110t-179 59t-167 18q-44 0 -89 -2t-82 -2q-77 0 -132 25t-87 74zM643 1978q-17 0 -32 -11t-19 -42l-231 -1763q-4 -34 13 -49.5t38 -15.5
q17 0 30.5 10.5t17.5 39.5l230 1763q5 37 -11 52.5t-36 15.5z" />
</svg>