<?xml version="1.0" standalone="no"?>
<!DOCTYPE svg PUBLIC "-//W3C//DTD SVG 1.1//EN" "http://www.w3.org/Graphics/SVG/1.1/DTD/svg11.dtd">
<svg xmlns="http://www.w3.org/2000/svg" xmlns:xlink="http://www.w3.org/1999/xlink" version="1.1"
   viewBox="94 -151 2414 2169">
   <path fill="currentColor"
      d="M1562 1713q-115 0 -206.5 -29.5t-180.5 -66.5q-76 -32 -152.5 -58.5t-166.5 -35.5l-8 89q-46 9 -92.5 14.5t-121.5 5.5q-85 0 -133.5 -16.5t-69.5 -61t-25 -127.5q-1 -23 -2 -60.5t-1.5 -79t-0.5 -74.5q-20 -53 -29.5 -90.5t-9.5 -94.5q0 -41 10 -89t30.5 -116t53.5 -168
l144 -436q18 -56 45.5 -92t100.5 -54l340 -85q20 -43 68.5 -66.5t113.5 -23.5q92 0 135.5 49.5t54.5 165.5l55 576q4 42 37 82.5t108 95.5l478 351q67 25 119.5 55.5t83 77.5t30.5 124q0 86 -44 138.5t-140.5 76t-256.5 23.5h-367zM1838 1978q-183 0 -371 -5.5t-360 -13
t-310 -15.5t-222 -14q-123 -8 -212.5 -18.5t-132.5 -17.5q0 -47 19.5 -68.5t68.5 -25.5l153 -11q32 -11 55.5 -66t38.5 -125l129 4q0 67 7 115.5t44 83.5l845 45q53 -20 73 -52t20 -104h106q0 67 12.5 104.5t55.5 61.5h267q40 0 64.5 -19.5t24.5 -55.5q0 -23 -15 -56.5
t-38 -52.5l60 -15q69 49 98 135t29 166q-94 7 -173 11.5t-159 6.5t-177 2zM2328 1526q-88 4 -170 7t-161 3q-132 0 -252 -8.5t-230 -24.5q-88 -13 -183.5 -33.5t-199 -48t-216.5 -61t-236.5 -73t-260.5 -83.5v-80q173 56 326 104t289.5 87t258.5 68t233 46q108 16 227 24
t252 8q77 0 157.5 -2.5t165.5 -6.5v74zM1545 1108q-33 0 -51.5 -19t-18.5 -50q0 -33 19 -51.5t51 -18.5t50.5 18.5t18.5 51.5q0 31 -18.5 50t-50.5 19zM1742 1286q-33 0 -51.5 -19t-18.5 -50q0 -33 19 -51.5t51 -18.5t50.5 18.5t18.5 51.5q0 32 -18.5 50.5t-50.5 18.5z
M1369 907q-32 0 -51 -19t-19 -50q0 -33 19 -51.5t51 -18.5t50.5 18.5t18.5 51.5q0 32 -18.5 50.5t-50.5 18.5zM1562 1633h366q138 0 217 -15t112 -49.5t33 -93.5q0 -84 -56 -122t-141 -68l-483 -355q-73 -54 -120 -104.5t-55 -126.5l-56 -580q-8 -84 -30.5 -112.5
t-81.5 -28.5q-55 0 -88 21.5t-33 56.5l-378 94q-42 10 -58.5 26.5t-33.5 66.5l-143 432q-33 101 -53 165.5t-28.5 107.5t-8.5 80q0 54 9 90.5t30 89.5q0 30 0.5 72.5t2 83t2.5 65.5q4 56 15 82.5t41 33.5t91 7q38 0 76 -3t64 -7l8 -103q126 0 225 31.5t198 72.5
q84 35 168 62.5t189 27.5zM1560 1077l-51 -61l213 -183l52 61zM1255 628q-32 0 -51 -18.5t-19 -50.5t19.5 -51t50.5 -19q32 0 50.5 19t18.5 51t-18.5 50.5t-50.5 18.5zM1763 1248l-60 -54l190 -207l60 54zM1395 869l-40 -69l233 -134l39 70zM1268 597l-20 -77l278 -75l20 77
zM1201 380q-33 0 -51.5 -18.5t-18.5 -50.5t19 -51t51 -19t50.5 19t18.5 51t-18.5 50.5t-50.5 18.5zM1199 352l-17 -79l317 -70l17 79z" />
</svg>