<?xml version="1.0" standalone="no"?>
<!DOCTYPE svg PUBLIC "-//W3C//DTD SVG 1.1//EN" "http://www.w3.org/Graphics/SVG/1.1/DTD/svg11.dtd">
<svg xmlns="http://www.w3.org/2000/svg" xmlns:xlink="http://www.w3.org/1999/xlink" version="1.1"
   viewBox="94 -151 2414 2169">
   <path fill="currentColor"
      d="M1300 1751q17 0 28.5 -12t11.5 -28v-107q110 -6 214 -49t189 -118l75 75q13 13 28.5 13t27.5 -12t12.5 -28t-12.5 -29l-75 -75q75 -84 118 -188t50 -216h106q17 0 28.5 -12t11.5 -28q0 -17 -11.5 -28.5t-28.5 -11.5h-106q-6 -111 -49.5 -214.5t-119.5 -188.5l76 -75
q12 -12 12 -28.5t-12 -28.5t-27.5 -12t-28.5 13l-76 75q-84 -75 -187.5 -118t-214.5 -49v-107q0 -17 -11.5 -28.5t-28.5 -11.5q-16 0 -28 11.5t-12 28.5v107q-111 6 -214.5 49t-187.5 118l-76 -75q-13 -13 -28.5 -13t-27.5 12t-12 28.5t12 28.5l76 75q-76 85 -119.5 188.5
t-49.5 214.5h-106q-16 0 -28 11.5t-12 28.5q0 16 12 28t28 12h106q7 112 50 216t118 188l-75 75q-13 13 -12.5 29t12.5 28t27.5 12t28.5 -13l75 -75q86 75 189.5 118t213.5 49v107q0 16 12 28t28 12zM1300 1126q-51 0 -94 -27.5t-68.5 -71t-25.5 -90.5q0 -78 55.5 -133.5
t132.5 -55.5t132.5 55.5t55.5 133.5q0 47 -25.5 90.5t-68 71t-94.5 27.5zM858 1323q-64 -72 -101 -160.5t-43 -185.5h321q9 66 50 119zM1260 1523q-96 -6 -184.5 -43t-160.5 -100l227 -228q52 41 118 50v321zM1340 1523v-321q66 -9 118 -50l227 228q-72 63 -160.5 100
t-184.5 43zM1742 1323l-227 -227q41 -53 50 -119h321q-6 97 -43 185.5t-101 160.5zM1565 897q-9 -66 -50 -119l227 -226q65 73 102 161.5t42 183.5h-321zM1459 721q-54 -40 -119 -49v-320q95 5 183.5 42t161.5 101zM1141 721l-226 -226q73 -64 162 -101t183 -42v320
q-65 9 -119 49zM714 897q5 -95 42.5 -183.5t101.5 -161.5l227 226q-41 53 -50 119h-321zM426 1978q-68 0 -117 -48.5t-49 -115.5v-1751q0 -68 49 -116.5t116 -48.5h1750q68 0 116.5 48.5t48.5 116.5v1750q0 67 -48.5 116t-116.5 49h-1749z" />
</svg>