<?xml version="1.0" standalone="no"?>
<!DOCTYPE svg PUBLIC "-//W3C//DTD SVG 1.1//EN" "http://www.w3.org/Graphics/SVG/1.1/DTD/svg11.dtd">
<svg xmlns="http://www.w3.org/2000/svg" xmlns:xlink="http://www.w3.org/1999/xlink" version="1.1"
   viewBox="94 -151 2414 2169">
   <path fill="currentColor"
      d="M1300 1978q-171 0 -326 -53.5t-285.5 -150.5t-226.5 -227.5t-149 -285.5t-53 -323t53 -323t149 -285.5t226.5 -227.5t285.5 -150.5t326 -53.5t326 53.5t285.5 150.5t226.5 227.5t149 285.5t53 323t-53 323t-149 285.5t-226.5 227.5t-285.5 150.5t-326 53.5zM1300 1506
q-91 0 -166 -44t-119 -119t-44 -166v-352q17 -3 35 -4t36 -1q105 0 239 47q78 28 147 41.5t132 13.5q18 0 35 -1t34 -3v259q0 91 -44 166t-118.5 119t-166.5 44zM1300 1626q125 0 226.5 -60.5t162 -162.5t60.5 -226v-285q132 -44 279 -162l-74 -94q-57 45 -107.5 76.5
t-97.5 51.5v-457h-120v491q-17 3 -35 4t-37 1q-53 0 -111 -11.5t-126 -36.5q-79 -29 -148.5 -42.5t-132.5 -13.5q-17 0 -34 1t-34 3v-396h-120v423q-133 43 -280 162l74 94q56 -44 106.5 -76t99.5 -52v319q0 124 60.5 226t162.5 162.5t226 60.5z" />
</svg>