<?xml version="1.0" standalone="no"?>
<!DOCTYPE svg PUBLIC "-//W3C//DTD SVG 1.1//EN" "http://www.w3.org/Graphics/SVG/1.1/DTD/svg11.dtd">
<svg xmlns="http://www.w3.org/2000/svg" xmlns:xlink="http://www.w3.org/1999/xlink" version="1.1"
   viewBox="94 -151 2414 2169">
   <path fill="currentColor"
      d="M1300 1978q-180 0 -342.5 -44.5t-288.5 -121.5t-199 -176.5t-73 -208.5q0 -104 103 -162.5t329 -83.5q-5 -97 -8 -150.5t-4 -93t-1 -94.5q-29 -24 -46.5 -50.5t-33.5 -63.5q-42 -34 -42 -78q0 -34 23 -63q0 -28 13.5 -42.5t27 -27t13.5 -34.5q0 -168 42.5 -300.5
t117.5 -209t172 -76.5q68 0 120.5 40.5t76.5 87.5q24 -47 76.5 -87.5t120.5 -40.5q97 0 172 76.5t117.5 209t42.5 300.5v49q77 41 77 112q0 45 -40 78q-13 34 -33.5 62t-43.5 52q-3 47 -4.5 93t-2 105t-0.5 147q221 26 321 84.5t100 160.5q0 109 -73 208.5t-199 176.5
t-288.5 121.5t-342.5 44.5zM868 1518q-37 0 -71 -21.5t-34 -46.5q0 -23 15.5 -38t33 -25t22.5 -17q8 -11 5.5 -22t20.5 -11q16 0 28.5 6.5t12.5 17.5q0 16 -26 32.5t-26 42.5q0 17 16.5 38t16.5 33q0 11 -14 11zM1017 1165q44 -3 85 -4.5t81 -1.5q-4 -75 -47 -127.5
t-108 -63.5q-4 29 -7.5 76t-3.5 121zM1300 1476q-109 0 -156.5 -18.5t-47.5 -53.5q0 -27 20 -42.5t41.5 -41.5t26.5 -81q-43 0 -98 2t-119 7q0 -156 9 -248t27 -137t46 -58.5t67 -13.5q66 0 111.5 2t72.5 2q26 0 72 -2t112 -2q45 0 74 19.5t45 69t22.5 139t6.5 229.5
q-64 -5 -118 -7t-98 -2q5 55 26.5 81t41.5 41.5t20 42.5q0 35 -47.5 53.5t-156.5 18.5zM1780 1497q-18 0 -18 -13q0 -7 4 -20t4 -25q0 -23 -14 -38.5t-28.5 -26t-14.5 -16.5q0 -5 7 -9.5t29 -4.5q45 0 79 22t34 55q0 28 -24.5 52t-57.5 24zM1095 721q-47 0 -88 -23.5
t-41 -48.5q0 -26 40 -49t80 -23q25 0 25 12q0 10 -22 21.5t-22 34.5q0 24 23 40.5t23 25.5q0 10 -18 10zM1583 1165q0 -74 -3 -121t-8 -76q-65 11 -108 63.5t-47 127.5q41 0 82 1.5t84 4.5zM1300 1648q147 0 293 -21t265.5 -55.5t191.5 -76t72 -82.5q0 -61 -108.5 -104
t-285.5 -60q-3 -16 -4.5 -43t-1.5 -53q0 -187 8 -304t38 -136q18 -11 28 -27t10 -34q0 -30 -40 -54q3 -48 3 -94q0 -158 -35 -281t-96.5 -194t-140.5 -71q-59 0 -101.5 40t-95.5 147q-52 -107 -95 -147t-102 -40q-79 0 -140.5 71t-96.5 194t-35 281q0 36 -13 54t-25.5 31.5
t-12.5 36.5q0 32 32 63t94 57q-22 18 -31 50t-9 91q0 19 1.5 63t4 99t5.5 109.5t6 95.5q-197 19 -301 61t-104 98q0 41 72 82.5t191.5 76t265.5 55.5t293 21zM1300 687q-39 0 -59.5 -6t-31.5 -18v-140q-40 -39 -56.5 -79.5t-16.5 -119.5q38 -33 82 -46l82 135l82 -135
q44 13 82 46q0 79 -16.5 119.5t-56.5 79.5v140q-11 12 -31.5 18t-59.5 6zM1541 718q-21 0 -21 -9q0 -8 11.5 -20t11.5 -33q0 -26 -18 -38t-18 -19q0 -8 27 -8q40 0 71.5 18t31.5 43q0 24 -29.5 45t-66.5 21zM915 566q-1 -17 -2 -30t-1 -29q0 -152 29.5 -252t73.5 -149
t87 -49q50 0 91 62.5t58 191.5l2 15q2 16 16.5 27t30.5 11q17 0 31 -11t16 -27l2 -15q17 -129 58 -191.5t91 -62.5q44 0 87.5 49t73 149t29.5 252q0 16 -0.5 29t-2.5 30q-43 -13 -144 -24.5t-241 -11.5q-139 0 -240 11.5t-145 24.5zM972 481q134 -21 328 -21q195 0 328 21
q0 -99 -21 -182t-51 -132.5t-58 -49.5q-24 0 -51.5 56.5t-39.5 146.5l-2 15q-6 43 -38 68.5t-67 25.5t-67 -25.5t-38 -68.5l-2 -15q-12 -90 -39.5 -146.5t-51.5 -56.5q-28 0 -58 49.5t-51 132.5t-21 182z" />
</svg>