<?xml version="1.0" standalone="no"?>
<!DOCTYPE svg PUBLIC "-//W3C//DTD SVG 1.1//EN" "http://www.w3.org/Graphics/SVG/1.1/DTD/svg11.dtd">
<svg xmlns="http://www.w3.org/2000/svg" xmlns:xlink="http://www.w3.org/1999/xlink" version="1.1"
   viewBox="94 -151 2414 2169">
   <path fill="currentColor"
      d="M1107 1749q-49 0 -94 -4t-71 -11q-62 -5 -152 -26.5t-190 -54t-195.5 -71t-171.5 -77.5t-115 -73l10 -139q35 -86 113 -238.5t175 -325.5l18 -32q56 -99 106.5 -214t86.5 -224q22 -66 57 -113.5t107 -47.5q38 0 126 13t259 30l41 4q119 11 224.5 20.5t182 14.5t106.5 5
q50 0 78 26t56 94q20 48 55.5 130.5t76 176t78.5 177.5t63 135l333 684l-257 40l-14 -78l152 -24l-281 -578q-25 -52 -63.5 -136.5t-80 -179t-77.5 -177.5t-56 -132q-19 -47 -32.5 -62.5t-33.5 -15.5q-16 0 -29.5 9.5t-25.5 35.5l-159 333q-85 179 -178 363.5t-181.5 353.5
t-160.5 301q20 3 50 5.5t64 2.5q53 0 128.5 -4.5t173.5 -17.5l38 60q-38 17 -79 26t-102 12.5t-159 3.5zM153 1501q-43 0 -45 -15l-18 -269q-2 -33 50 -33q54 0 56 32l18 264q2 21 -61 21zM961 1778q-46 0 -48 -12l-19 -286q-1 -15 18.5 -23.5t47.5 -8.5q29 0 46.5 8.5
t17.5 21.5v281q0 19 -63 19zM911 1650q150 -284 279.5 -537t253.5 -512l165 -342q-98 -6 -210 -16t-224 -21.5t-210.5 -23.5t-169.5 -22q-26 -4 -46.5 16.5t-33.5 58.5q-61 177 -114 292.5t-103 203.5l-18 32q-248 443 -295 603q58 40 149 82.5t196 80.5t205 66t176 39z
M1551 1646l-14 -80q109 -21 216.5 -26.5t213.5 -5.5l-4 80q-102 0 -204.5 4.5t-207.5 27.5zM1281 1738q-54 0 -81 -5t-27 -15q0 -23 39 -97t100 -178.5t129.5 -224t128.5 -235.5t95 -210l36 -97q11 -28 26 -28t22 27q20 77 51 172.5t73 211.5l19 52q36 97 101.5 180.5
t134.5 149.5t117 112t48 68q0 13 -40 26t-98 22t-113 9q-32 0 -65.5 -5t-57.5 -14l-122 -609q-19 -97 -38.5 -146.5t-30.5 -49.5q-14 0 -32.5 46t-38 121.5t-36 165t-26.5 177.5t-10 157q0 71 -1.5 106.5t-5.5 50.5q-4 16 -45.5 29.5t-107.5 22t-144 8.5zM2448 1649
q-22 0 -41 -5.5t-19 -11.5l10 -278q1 -29 57 -29q57 0 55 27l-15 276q-2 21 -47 21z" />
</svg>