<?xml version="1.0" standalone="no"?>
<!DOCTYPE svg PUBLIC "-//W3C//DTD SVG 1.1//EN" "http://www.w3.org/Graphics/SVG/1.1/DTD/svg11.dtd">
<svg xmlns="http://www.w3.org/2000/svg" xmlns:xlink="http://www.w3.org/1999/xlink" version="1.1"
   viewBox="94 -151 2414 2169">
   <path fill="currentColor"
      d="M1300 1928q-183 0 -359 -15t-330 -41.5t-271 -61t-183.5 -74t-66.5 -80.5q0 -23 17 -56t57.5 -86t109.5 -134l18 -21q82 -96 129 -146.5t74.5 -69t47.5 -18.5q14 0 36 11t54.5 34t78 59.5t105.5 87.5l258 91l619 -623q26 -73 47 -107t52 -34q20 0 47 20.5t84 88.5
l197 326q31 19 64 66t91 149q25 43 54.5 89t52.5 77q22 0 51.5 35t52.5 81.5t23 79.5q0 41 -66.5 80.5t-183.5 74t-271 61t-330 41.5t-359 15zM175 1644q27 -3 74.5 -6t101.5 -5.5t102.5 -4t77.5 -1.5l63 -95l-7 -159l-28 -54l6 -97q-5 -5 -11.5 -8t-13.5 -3q-13 0 -44 30.5
t-71.5 79.5t-85.5 104q-66 82 -100.5 126.5t-48 64t-15.5 28.5zM1569 1788q66 0 97 -26q-22 -141 -51 -224t-58 -83q-13 0 -26.5 26.5t-29.5 93.5t-39 187q46 26 107 26zM652 1687l654 -132l162 -196l131 -53l214 -120l122 54l-131 -524l-94 255l-267 196l-53 15
q-7 2 -22.5 17t-62.5 63l-194 200q-112 20 -193.5 48t-144.5 70.5t-121 106.5zM2048 1735q44 0 89 -20q-10 -92 -25.5 -164.5t-32 -115t-30.5 -42.5q-19 0 -36.5 91t-27.5 240q31 11 63 11zM1087 1422l-98 -3l-97 -366l123 -289l-78 -364l154 -126l70 470l-101 243v133
l142 48v-109l184 -244l-11 -96l37 -196l-147 -148l55 -394l204 280l-18 549l144 75zM606 1218l-68 -42q100 -167 161.5 -291t97.5 -212t57 -147q20 -55 39 -89.5t45 -64.5t66 -70l118 -118q74 -138 113 -187t75 -49q32 0 70 38t93 124t136 229.5t197 354.5l-70 38
q-94 -169 -168.5 -300t-128.5 -221t-85.5 -136.5t-39.5 -46.5q-7 0 -29 31t-49 78t-50 95l-126 126q-41 41 -63 67.5t-36 54.5t-31 74q-33 88 -102 247.5t-222 416.5zM2457 1574l-157 -170q22 -108 40.5 -159t29.5 -51q14 0 31 55t32.5 142t23.5 183z" />
</svg>