<?xml version="1.0" standalone="no"?>
<!DOCTYPE svg PUBLIC "-//W3C//DTD SVG 1.1//EN" "http://www.w3.org/Graphics/SVG/1.1/DTD/svg11.dtd">
<svg xmlns="http://www.w3.org/2000/svg" xmlns:xlink="http://www.w3.org/1999/xlink" version="1.1"
   viewBox="94 -151 2414 2169">
   <path fill="currentColor"
      d="M1300 1978q-213 0 -401.5 -81.5t-332 -225.5t-225 -332.5t-81.5 -401.5t81.5 -401t225 -331.5t332 -225t401.5 -81.5t401.5 81.5t332 225t225 331.5t81.5 401t-81.5 401.5t-225 332.5t-332 225.5t-401.5 81.5zM1298 1757q-111 0 -211 -26t-185 -76l293 -507q50 26 105 26
t105 -26l293 507q-85 50 -185.5 76t-214.5 26zM487 935q0 -135 48.5 -264.5t137.5 -239.5t211 -185l294 506q-48 29 -76 77t-30 106h-585zM1299 1061q-48 0 -82 -34t-34 -82t34 -82t82 -34q50 0 84 34t34 82t-34 82t-84 34zM1300 1898q197 0 370.5 -75.5t306 -208
t208 -306.5t75.5 -371t-75.5 -370.5t-208 -306t-306 -207.5t-370.5 -75t-370.5 75t-306 207.5t-208 306t-75.5 370.5t75.5 371t208 306.5t306 208t370.5 75.5zM1528 935q-2 -58 -30 -106t-76 -77l294 -506q122 75 211 185t137.5 239.5t48.5 264.5h-585z" />
</svg>