<?xml version="1.0" standalone="no"?>
<!DOCTYPE svg PUBLIC "-//W3C//DTD SVG 1.1//EN" "http://www.w3.org/Graphics/SVG/1.1/DTD/svg11.dtd">
<svg xmlns="http://www.w3.org/2000/svg" xmlns:xlink="http://www.w3.org/1999/xlink" version="1.1"
   viewBox="94 -151 2414 2169">
   <path fill="currentColor"
      d="M655 1978q-54 0 -94 -35l-111 -98q-51 -46 -51 -107q0 -58 38 -96l1143 -1142l57 60l-1144 1138q-14 13 -14 40q0 28 22 47l112 96q18 17 42 17q28 0 48 -23l1055 -1194l59 54l-1054 1192q-46 51 -108 51zM1068 1079l-346 -387l56 -55l347 387zM1925 1978q-62 0 -108 -51
l-555 -629l52 -60l563 637q20 23 48 23q24 0 42 -17l112 -96q22 -19 22 -47q0 -26 -14 -40l-629 -627l52 -61l633 632q38 38 38 96q0 61 -51 107l-111 98q-40 35 -94 35zM467 927q-76 0 -129 -53l-147 -148q-51 -53 -51 -127q0 -75 51 -126l525 -524q51 -51 126 -51t127 52
l147 147q52 52 52 127q0 74 -52 126l-525 524q-55 53 -124 53zM467 847q38 0 68 -30l524 -524q29 -29 29 -69q0 -41 -29 -70l-147 -147q-29 -29 -70 -29q-39 0 -69 28l-525 524q-28 28 -28 69q0 43 28 71l147 147q30 30 72 30zM372 308q-7 0 -10 -4q-18 -21 -18 -50
q0 -14 4.5 -31.5t28.5 -39.5l61 -59q17 -17 36.5 -28.5t45.5 -11.5q22 0 35 10t13 24q0 11 -5 23.5t-22 29.5l-115 111q-17 17 -30.5 21.5t-23.5 4.5zM1266 877l-364 -365l54 -54l367 364zM2375 995q-47 0 -84 -42t-90 -128q-42 -68 -95 -129t-108 -104l-139 145
q-17 17 -37 17q-12 0 -28 -9t-54 -38q-10 -8 -34 -30.5t-52 -50t-52.5 -53t-37.5 -38.5q-17 -17 -17 -42q0 -18 13 -34l121 -139q-40 -31 -100 -59t-125.5 -49.5t-122.5 -30.5l3 -90l293 -193q77 12 170 56t186 112t169 151q92 100 161 222t107 243t38 218q0 37 -23.5 66
t-61.5 29zM2367 915q14 0 18 -9t4 -23q0 -68 -33 -169.5t-99 -217.5t-164 -228q-66 -76 -155 -138.5t-178.5 -104.5t-158.5 -55l86 -12l-256 169q63 14 130.5 41.5t130 62.5t109.5 72l-161 187q37 48 82.5 92t97.5 81l169 -177q55 34 133.5 107.5t146.5 187.5
q47 78 66.5 106t31.5 28z" />
</svg>