<?xml version="1.0" standalone="no"?>
<!DOCTYPE svg PUBLIC "-//W3C//DTD SVG 1.1//EN" "http://www.w3.org/Graphics/SVG/1.1/DTD/svg11.dtd">
<svg xmlns="http://www.w3.org/2000/svg" xmlns:xlink="http://www.w3.org/1999/xlink" version="1.1"
   viewBox="94 -151 2414 2169">
   <path fill="currentColor"
      d="M1300 1922q-211 0 -399 -79.5t-332 -219.5t-226.5 -322t-82.5 -386t82.5 -386t226.5 -322t332 -219.5t399 -79.5t399 79.5t332 219.5t226.5 322t82.5 386t-82.5 386t-226.5 322t-332 219.5t-399 79.5zM619 1077l1364 -2q19 0 33 -15t14 -34v-179q0 -20 -14 -35t-33 -15
l-1364 2q-20 0 -34.5 15t-14.5 35v179q0 19 15 34t34 15z" />
</svg>