<?xml version="1.0" standalone="no"?>
<!DOCTYPE svg PUBLIC "-//W3C//DTD SVG 1.1//EN" "http://www.w3.org/Graphics/SVG/1.1/DTD/svg11.dtd">
<svg xmlns="http://www.w3.org/2000/svg" xmlns:xlink="http://www.w3.org/1999/xlink" version="1.1"
   viewBox="94 -151 2414 2169">
   <path fill="currentColor"
      d="M1300 1978q-171 0 -326 -53.5t-285.5 -150.5t-226.5 -227.5t-149 -285.5t-53 -323t53 -323t149 -285.5t226.5 -227.5t285.5 -150.5t326 -53.5t326 53.5t285.5 150.5t226.5 227.5t149 285.5t53 323t-53 323t-149 285.5t-226.5 227.5t-285.5 150.5t-326 53.5zM690 1450
h1220v-120h-1220v120zM690 1175h419v-148q-71 -43 -114 -124t-43 -173q0 -90 47 -164t126 -118t175 -44t175 44t126 118t47 164q0 92 -43 173t-114 124v148h419v-120h-274q63 -63 97.5 -148t34.5 -177q0 -123 -63.5 -224.5t-169.5 -161.5t-235 -60q-128 0 -234.5 60
t-170 161.5t-63.5 224.5q0 92 34.5 177t97.5 148h-274v120z" />
</svg>