<?xml version="1.0" standalone="no"?>
<!DOCTYPE svg PUBLIC "-//W3C//DTD SVG 1.1//EN" "http://www.w3.org/Graphics/SVG/1.1/DTD/svg11.dtd">
<svg xmlns="http://www.w3.org/2000/svg" xmlns:xlink="http://www.w3.org/1999/xlink" version="1.1"
   viewBox="94 -151 2414 2169">
   <path fill="currentColor"
      d="M1300 1988q-93 0 -145 -65t-44 -170l33 -433l-274 319q-69 80 -151.5 89.5t-147.5 -56.5q-66 -67 -56.5 -149t88.5 -150l319 -274l-417 33q-105 8 -170 -44t-65 -145t65 -145t170 -44l417 33l-319 -274q-79 -68 -88.5 -150t56.5 -149q65 -66 147.5 -56.5t151.5 89.5
l274 319l-33 -433q-8 -105 44 -170t145 -65t145 65t44 170l-33 433l274 -319q69 -80 151.5 -89.5t147.5 56.5q66 67 57 148.5t-89 150.5l-319 274l417 -33q105 -8 170 44t65 145t-65 145t-170 44l-417 -33l319 274q80 69 89 150.5t-57 148.5q-65 66 -147.5 56.5
t-151.5 -89.5l-274 -319l33 433q8 105 -44 170t-145 65zM1300 1908q56 0 85 -39t24 -110l-51 -677l432 505q47 55 95 62t88 -33q41 -41 33.5 -89t-61.5 -94l-505 -432l661 51q71 5 110 -24t39 -85t-39 -85t-110 -24l-661 51l505 -432q54 -47 61.5 -95t-33.5 -88
q-40 -40 -88 -33t-95 62l-432 505l51 -677q5 -71 -24 -110t-85 -39t-85 39t-24 110l51 677l-432 -505q-47 -55 -95 -62t-88 33t-33 88t61 95l505 432l-661 -51q-71 -5 -110 24t-39 85t39 85t110 24l661 -51l-505 432q-54 46 -61 94t33 89q40 40 88 33t95 -62l432 -505
l-51 677q-5 71 24 110t85 39z" />
</svg>