<?xml version="1.0" standalone="no"?>
<!DOCTYPE svg PUBLIC "-//W3C//DTD SVG 1.1//EN" "http://www.w3.org/Graphics/SVG/1.1/DTD/svg11.dtd">
<svg xmlns="http://www.w3.org/2000/svg" xmlns:xlink="http://www.w3.org/1999/xlink" version="1.1"
   viewBox="94 -151 2414 2169">
   <path fill="currentColor"
      d="M796 1928q-93 0 -182.5 -34.5t-161.5 -106.5q-70 -71 -106 -160.5t-36 -182.5q0 -95 35 -185t108 -163l978 -979l57 57l-978 978q-120 120 -120 292q0 81 30.5 155t87.5 131q118 118 288 118q171 0 290 -119l619 -620l57 57l-620 620q-73 73 -162.5 107.5t-183.5 34.5z
M796 1679q-67 0 -121 -32.5t-86 -87t-32 -120.5q0 -67 32 -121t86 -86.5t121 -32.5t121 32.5t86 86.5t32 121q0 66 -32 120.5t-86 87t-121 32.5zM796 1599q67 0 113 -46.5t46 -113.5q0 -68 -46 -114t-113 -46t-113 46t-46 114q0 67 46 113.5t113 46.5zM852 1480
q-18 0 -28 -11.5t-10 -28.5q0 -18 13 -31l232 -232l55 58l-231 231q-14 14 -31 14zM1185 1447l-55 -58l315 -314l56 52zM885 1147l-56 -57l633 -633l56 57zM1205 1147l-57 -60l679 -672l57 53zM1856 1072l-56 -57l267 -268l57 58zM1597 60l-54 -58l57 -54l57 57zM2232 694
l-56 -56l57 -58l57 57z" />
</svg>