<?xml version="1.0" standalone="no"?>
<!DOCTYPE svg PUBLIC "-//W3C//DTD SVG 1.1//EN" "http://www.w3.org/Graphics/SVG/1.1/DTD/svg11.dtd">
<svg xmlns="http://www.w3.org/2000/svg" xmlns:xlink="http://www.w3.org/1999/xlink" version="1.1"
   viewBox="94 -151 2414 2169">
   <path fill="currentColor"
      d="M682 1878q-146 0 -231.5 -71t-85.5 -194q0 -82 46 -150t121.5 -112.5t164.5 -53.5q6 -96 56.5 -173.5t131 -123.5t177.5 -46q27 0 59 5q40 -115 121 -202.5t190.5 -136.5t232.5 -49q114 0 215.5 44.5t179.5 123t122 182t44 222.5q0 65 -13 123q119 20 199.5 105.5
t80.5 204.5q0 89 -42 157t-116.5 106.5t-173.5 38.5h-1479zM737 1325q-109 -73 -171.5 -183.5t-62.5 -241.5q0 -140 68 -254.5t182.5 -182.5t253.5 -68q140 0 255.5 69.5t180.5 185.5l-71 30q-55 -92 -151.5 -148.5t-212.5 -56.5q-117 0 -213.5 57.5t-154 153.5t-57.5 214
q0 95 40 178.5t114 149.5v97zM682 1798h1479q115 0 183.5 -61t68.5 -161q0 -101 -75.5 -168t-187.5 -67q-10 0 -22 0.5t-23 2.5q41 -99 41 -201q0 -136 -66 -247.5t-175 -178t-240 -66.5q-106 0 -199.5 41.5t-163 116t-104.5 172.5q98 40 159.5 129t61.5 201h-80
q0 -77 -37.5 -139.5t-100.5 -100t-139 -37.5q-79 0 -144 39t-103.5 104t-38.5 144v49q-154 12 -242.5 81.5t-88.5 161.5q0 88 61 136.5t176 48.5zM349 1451q-40 10 -68.5 -8.5t-34.5 -52t18 -67.5l222 -314l-334 -193q-35 -21 -42.5 -55t10.5 -63.5t58 -35.5l371 -59
l-94 -377q-10 -40 6.5 -66.5t47.5 -32t64 18.5l318 233l204 -337q12 -20 29.5 -32t38.5 -12q29 0 48.5 21t23.5 50l62 384l392 -91q54 -13 77.5 26.5t-9.5 85.5l-102 141h-99l111 -153q4 -5 2 -9t-9 -2l-320 74l-126 -82l-53 -332q-1 -7 -5 -8t-8 5l-177 293l-139 34
l-281 -206q-6 -5 -9 -2t-2 10l85 339l-66 106l-353 57q-7 1 -7.5 6t5.5 9l306 176l30 142l-203 287q-4 6 -1.5 8.5t9.5 1.5l367 -93l12 80z" />
</svg>