<?xml version="1.0" standalone="no"?>
<!DOCTYPE svg PUBLIC "-//W3C//DTD SVG 1.1//EN" "http://www.w3.org/Graphics/SVG/1.1/DTD/svg11.dtd">
<svg xmlns="http://www.w3.org/2000/svg" xmlns:xlink="http://www.w3.org/1999/xlink" version="1.1"
   viewBox="94 -151 2414 2169">
   <path fill="currentColor"
      d="M389 1628q-104 0 -162 -58t-58 -162v-940q0 -104 58 -162t162 -58h1822q104 0 162 58t58 162v940q0 104 -58 162t-162 58h-1822zM389 1548h1822q71 0 105.5 -34.5t34.5 -105.5v-940q0 -71 -34.5 -105.5t-105.5 -34.5h-1822q-71 0 -105.5 34.5t-34.5 105.5v940
q0 71 34.5 105.5t105.5 34.5zM405 1242h84q22 0 22 -24v-83q0 -10 -6.5 -17.5t-15.5 -7.5h-84q-22 0 -22 25v83q0 24 22 24zM627 1242h83q11 0 18 -7t7 -17v-83q0 -10 -6.5 -17.5t-16.5 -7.5h-83q-23 0 -23 25v83q0 24 21 24zM405 1029h224q22 0 22 -24v-83q0 -24 -22 -24
h-224q-22 0 -22 24v83q0 24 22 24zM405 817h155q22 0 22 -25v-83q0 -24 -22 -24h-155q-22 0 -22 24v83q0 10 7 17.5t15 7.5zM762 1029h83q22 0 22 -22v-83q0 -23 -22 -23h-83q-23 0 -23 23v83q0 8 7 15t16 7zM407 604h84q22 0 22 -24v-84q0 -24 -22 -24h-84q-22 0 -22 24v84
q0 24 22 24zM689 817h83q10 0 17.5 -7.5t7.5 -17.5v-83q0 -24 -25 -24h-83q-22 0 -22 24v83q0 10 6.5 17.5t15.5 7.5zM975 1029h83q22 0 22 -22v-83q0 -23 -22 -23h-83q-23 0 -23 23v83q0 8 7 15t16 7zM609 604h84q22 0 22 -24v-84q0 -24 -22 -24h-84q-22 0 -22 24v84
q0 24 22 24zM847 1242h904q24 0 24 -24v-83q0 -11 -6.5 -18t-17.5 -7h-904q-24 0 -24 25v83q0 9 7.5 16.5t16.5 7.5zM893 817h83q24 0 24 -25v-83q0 -24 -24 -24h-83q-24 0 -24 24v83q0 10 7.5 17.5t16.5 7.5zM1187 1029h84q22 0 22 -22v-83q0 -23 -22 -23h-84q-22 0 -22 23
v83q0 8 6.5 15t15.5 7zM811 604h84q10 0 17 -7.5t7 -16.5v-84q0 -24 -24 -24h-84q-24 0 -24 24v84q0 24 24 24zM1095 817h83q10 0 17.5 -7.5t7.5 -17.5v-83q0 -24 -25 -24h-83q-24 0 -24 24v83q0 10 7.5 17.5t16.5 7.5zM1400 1029h83q23 0 23 -22v-83q0 -23 -23 -23h-83
q-22 0 -22 23v83q0 8 6.5 15t15.5 7zM1015 604h84q10 0 17 -7.5t7 -16.5v-84q0 -24 -24 -24h-84q-24 0 -24 24v84q0 24 24 24zM1297 817h83q10 0 17.5 -7.5t7.5 -17.5v-83q0 -24 -25 -24h-83q-24 0 -24 24v83q0 10 7.5 17.5t16.5 7.5zM1613 1029h83q22 0 22 -22v-83
q0 -23 -22 -23h-83q-23 0 -23 23v83q0 8 7 15t16 7zM1217 604h84q10 0 17 -7.5t7 -16.5v-84q0 -24 -24 -24h-84q-24 0 -24 24v84q0 24 24 24zM1889 1242h84q24 0 24 -24v-83q0 -10 -6.5 -17.5t-17.5 -7.5h-84q-24 0 -24 25v83q0 24 24 24zM1501 817h83q10 0 17.5 -7.5
t7.5 -17.5v-83q0 -24 -25 -24h-83q-24 0 -24 24v83q0 10 7.5 17.5t16.5 7.5zM1421 604h84q10 0 17 -7.5t7 -16.5v-84q0 -24 -24 -24h-84q-24 0 -24 24v84q0 24 24 24zM2109 1242h83q11 0 18 -7t7 -17v-83q0 -10 -7 -17.5t-18 -7.5h-83q-24 0 -24 25v83q0 9 7.5 16.5
t16.5 7.5zM1703 817h83q10 0 17.5 -7.5t7.5 -17.5v-83q0 -24 -25 -24h-83q-24 0 -24 24v83q0 10 7.5 17.5t16.5 7.5zM1825 1031h366q24 0 24 -24v-89q0 -24 -24 -24h-366q-9 0 -16.5 7t-7.5 17v89q0 10 7.5 17t16.5 7zM1623 604h84q10 0 17 -7.5t7 -16.5v-84q0 -24 -24 -24
h-84q-24 0 -24 24v84q0 24 24 24zM1907 817h83q24 0 24 -25v-83q0 -24 -24 -24h-83q-24 0 -24 24v83q0 10 7 17.5t17 7.5zM1825 604h84q10 0 17 -7.5t7 -16.5v-84q0 -24 -24 -24h-84q-24 0 -24 24v84q0 10 7.5 17t16.5 7zM2109 817h83q10 0 17.5 -7.5t7.5 -17.5v-83
q0 -24 -25 -24h-83q-24 0 -24 24v83q0 10 7.5 17.5t16.5 7.5zM2038 604h154q10 0 17.5 -7.5t7.5 -16.5v-84q0 -11 -7.5 -17.5t-17.5 -6.5h-154q-24 0 -24 24v84q0 24 24 24zM2351 1023h80v200q0 104 -58 162t-162 58h-1822q-104 0 -162 -58t-58 -162v-200h80v200
q0 71 34.5 105.5t105.5 34.5h1822q71 0 105.5 -34.5t34.5 -105.5v-200z" />
</svg>