<?xml version="1.0" standalone="no"?>
<!DOCTYPE svg PUBLIC "-//W3C//DTD SVG 1.1//EN" "http://www.w3.org/Graphics/SVG/1.1/DTD/svg11.dtd">
<svg xmlns="http://www.w3.org/2000/svg" xmlns:xlink="http://www.w3.org/1999/xlink" version="1.1"
   viewBox="94 -151 2414 2169">
   <path fill="currentColor"
      d="M1894 1550q-248 0 -442 -247l-44 -56q-58 -74 -81.5 -94t-46.5 -20q-27 0 -58 13.5t-96 54.5l-71 45q-108 68 -223 106t-216 38q-150 0 -233 -75t-83 -211q0 -158 120 -271q-59 -79 -59 -176q0 -84 39 -151t106.5 -106t150.5 -39q159 0 308 111q-19 -56 -29.5 -118.5
t-10.5 -114.5q0 -100 38 -176.5t104 -120.5t149 -44q74 0 140 31.5t112 86.5q38 -29 85 -44.5t94 -15.5q89 0 159.5 42t111.5 116t41 169q0 88 -27.5 161t-86.5 141q68 -15 138 -15q141 0 229 80.5t88 210.5q0 71 -28 129.5t-80 95.5q26 39 39 80t13 83q0 89 -44 157
t-123 106t-183 38zM1496 1978q-126 -73 -194 -229.5t-68 -374.5v-57q0 -57 2.5 -116.5t4.5 -98.5h84q-5 45 -8 98.5t-3 128.5v77q0 176 59.5 309.5t165.5 195.5zM1894 1470q123 0 196.5 -60.5t73.5 -160.5q0 -90 -78 -182q62 -23 98 -78t36 -128q0 -101 -65 -156t-183 -55
q-76 0 -159 25.5t-170 82.5l-203 134l-45 -66l212 -140q147 -98 209.5 -192t62.5 -211q0 -110 -64 -178.5t-168 -68.5q-49 0 -95.5 18t-98.5 64q-37 -66 -100 -103t-137 -37q-91 0 -151 73t-60 188q0 96 36 205t108 207l116 157l-63 49l-115 -156q-96 -131 -207.5 -195.5
t-222.5 -64.5q-92 0 -154 62t-62 154q0 55 22.5 101t56.5 81q-69 58 -104.5 121t-35.5 142q0 208 236 208q92 0 194.5 -34.5t202.5 -97.5l71 -45q73 -46 114.5 -63t81.5 -17q48 0 85.5 29t104.5 115l44 56q88 112 180.5 164.5t199.5 52.5z" />
</svg>