<?xml version="1.0" standalone="no"?>
<!DOCTYPE svg PUBLIC "-//W3C//DTD SVG 1.1//EN" "http://www.w3.org/Graphics/SVG/1.1/DTD/svg11.dtd">
<svg xmlns="http://www.w3.org/2000/svg" xmlns:xlink="http://www.w3.org/1999/xlink" version="1.1"
   viewBox="94 -151 2414 2169">
   <path fill="currentColor"
      d="M1300 1978q-179 0 -338 -57.5t-287 -167.5t-214 -265q-20 7 -43 11t-46 6q-27 -95 -42 -185t-15 -166q0 -100 29 -154.5t83 -54.5q24 0 46.5 12.5t55.5 45.5t85 96l20 24q32 39 75.5 85t98.5 99q-12 21 -30.5 38.5t-41.5 31.5q45 44 105.5 81.5t122 60t108.5 22.5
q11 0 17 -6.5t7 -19.5l47 -624l-151 -27q-52 -10 -81 -35.5t-29 -69.5q0 -45 29.5 -71.5t81.5 -34.5l172 -27l13 -178q-77 -33 -127.5 -102.5t-50.5 -157.5q0 -81 40.5 -147t109 -104.5t150.5 -38.5q83 0 151 38.5t108.5 104.5t40.5 147q0 88 -50.5 157.5t-127.5 102.5
l13 178l172 27q53 8 82 34.5t29 71.5q0 44 -28.5 69.5t-81.5 35.5l-151 27l47 624q1 13 7.5 19.5t16.5 6.5q47 0 108.5 -22.5t122 -60t105.5 -81.5q-22 -14 -41 -31.5t-31 -38.5q55 -53 98.5 -99t75.5 -85l20 -24q53 -63 85.5 -96t55.5 -45.5t46 -12.5q54 0 83 54.5
t29 154.5q0 76 -15 166t-42 185q-22 -2 -45.5 -6t-43.5 -11q-86 155 -214 265t-287 167.5t-338 57.5zM1300 1898q262 0 471 -132t327 -371q21 7 40.5 11.5t33.5 6.5q8 -29 16 -78t13.5 -100.5t5.5 -86.5q0 -56 -9.5 -89.5t-25.5 -33.5q-8 0 -22.5 12t-39 39t-63.5 74l-20 24
q-22 27 -54 60.5t-69 71.5q18 15 34.5 24.5t41.5 23.5q-23 46 -74 93.5t-117 86.5t-134.5 63t-126.5 24q-96 0 -102 -80l-55 -716l223 -39q29 -5 36.5 -11t7.5 -16t-8 -16t-35 -10l-235 -37l-22 -297q80 -13 133.5 -71.5t53.5 -139.5q0 -62 -30 -112t-80.5 -79t-114.5 -29
q-63 0 -114 29t-81 79t-30 112q0 81 53.5 139.5t133.5 71.5l-22 297l-235 37q-27 4 -35 10t-8 16t8 16t36 11l223 39l-55 716q-6 80 -102 80q-58 0 -126.5 -24t-134.5 -63t-117 -86.5t-74 -93.5q26 -14 42 -23.5t34 -24.5q-37 -38 -68.5 -71.5t-54.5 -60.5l-20 -24
q-39 -47 -63.5 -74t-39 -39t-22.5 -12q-16 0 -25.5 33.5t-9.5 89.5q0 35 5.5 86.5t13.5 100.5t16 78q14 -2 33.5 -6.5t40.5 -11.5q118 239 327 371t471 132zM1300 324q-55 0 -95.5 -40.5t-40.5 -95.5q0 -56 40.5 -96t95.5 -40q56 0 96 40t40 96q0 55 -40 95.5t-96 40.5z
M1300 264q31 0 53.5 -22.5t22.5 -53.5t-22.5 -53.5t-53.5 -22.5t-53.5 22.5t-22.5 53.5t22.5 53.5t53.5 22.5z" />
</svg>