<?xml version="1.0" standalone="no"?>
<!DOCTYPE svg PUBLIC "-//W3C//DTD SVG 1.1//EN" "http://www.w3.org/Graphics/SVG/1.1/DTD/svg11.dtd">
<svg xmlns="http://www.w3.org/2000/svg" xmlns:xlink="http://www.w3.org/1999/xlink" version="1.1"
   viewBox="94 -151 2414 2169">
   <path fill="currentColor"
      d="M1300 1978q-114 0 -193 -23t-159 -79q-64 -86 -115 -208.5t-86 -274.5t-53.5 -326t-18.5 -362q0 -129 57.5 -223t196.5 -185q27 -18 40 -46.5t22 -87.5l73 11q-13 74 -33.5 115t-60.5 69q-124 86 -172 162.5t-48 184.5q0 181 17 348t50 312.5t80.5 262.5t107.5 198
q62 41 130.5 59t164.5 18t164.5 -18t130.5 -59q60 -81 107 -198.5t80 -263t50 -312.5t17 -347q0 -109 -47.5 -185t-172.5 -162q-38 -26 -59 -67t-35 -117l73 -11q9 60 22 88t41 46q139 92 196.5 186t57.5 222q0 187 -18.5 361t-54 326.5t-87 275.5t-116.5 210
q-77 55 -156.5 77.5t-192.5 22.5zM1300 1773q-160 0 -276 -44t-193 -95l15 -77q71 52 184 96.5t270 44.5q158 0 270.5 -44.5t183.5 -96.5l15 77q-76 51 -192.5 95t-276.5 44zM1300 800q-159 0 -281 -21.5t-204.5 -49t-121.5 -45.5l30 -68q38 17 115.5 43t193 46t268.5 20
t268 -20t192 -46t115 -43l30 68q-39 18 -120.5 45.5t-203.5 49t-281 21.5zM1300 979q-163 0 -285.5 -21t-203 -48.5t-118.5 -46.5l30 -67q38 17 114 43t191.5 45.5t271.5 19.5t271 -19.5t191 -45.5t113 -43l31 67q-38 19 -118.5 46.5t-202 48.5t-285.5 21zM1300 407
q-132 0 -228.5 -14t-150.5 -42l46 -62q47 21 131.5 32t201.5 11t201.5 -11t131.5 -32l46 62q-54 28 -150.5 42t-228.5 14zM1300 227q-223 0 -336.5 -36.5t-113.5 -111.5q0 -44 37 -74.5t115 -54.5l39 -12q62 -20 128.5 -30t130.5 -10q63 0 129.5 10t129.5 30l39 12
q78 24 115 54.5t37 74.5q0 74 -113 111t-337 37zM1300 152q106 0 190 -10t133 -27t49 -37q0 -14 -24 -27.5t-72 -28.5l-39 -12q-59 -18 -120 -27.5t-117 -9.5t-116.5 9t-120.5 28l-39 12q-49 15 -73 29t-24 27q0 20 49 37t133.5 27t190.5 10z" />
</svg>