<?xml version="1.0" standalone="no"?>
<!DOCTYPE svg PUBLIC "-//W3C//DTD SVG 1.1//EN" "http://www.w3.org/Graphics/SVG/1.1/DTD/svg11.dtd">
<svg xmlns="http://www.w3.org/2000/svg" xmlns:xlink="http://www.w3.org/1999/xlink" version="1.1"
   viewBox="94 -151 2414 2169">
   <path fill="currentColor"
      d="M1309 1978q-200 0 -374 -75t-306 -207.5t-206 -307t-74 -373.5v-286l80 94v192q0 182 68 342t189 281.5t280.5 190.5t342.5 69t343.5 -68.5t283.5 -190t192.5 -281t69.5 -342.5q0 -100 -23.5 -204t-86.5 -241l32 -90q86 145 122 276t36 259q0 199 -76 373.5t-209.5 306.5
t-309 207t-374.5 75zM593 901q74 0 131 -52.5t54 -124.5l-14 -362q-3 -75 -55.5 -117t-125.5 -42q-75 0 -129.5 52.5t-51.5 124.5l13 342q3 76 54 127.5t124 51.5zM962 810v-15t1 -14q11 -92 54.5 -139.5t137.5 -56.5l52 -5l-13 -359q-3 -77 -53 -128.5t-122 -51.5
q-75 0 -129 52.5t-51 123.5l16 430q2 55 32.5 98.5t74.5 64.5zM1814 1300q-52 -104 -93.5 -162t-84 -81.5t-98.5 -23.5q-29 0 -68 1t-79 1.5t-73 1.5t-50 1q-97 0 -170.5 -36t-108.5 -100q-46 -8 -85 -32.5t-67 -60.5q-26 74 -92.5 123t-151.5 49q-70 0 -127.5 -34.5
t-92.5 -92.5t-38 -130l-13 -342q-2 -71 33 -129.5t95 -94t133 -35.5q52 0 98.5 16.5t80.5 47.5q9 -94 83 -160t174 -66q63 0 116.5 28.5t87.5 75.5q28 -73 94 -120t148 -47q80 0 144.5 44.5t93.5 115.5q35 -50 88.5 -78.5t117.5 -28.5q73 0 133 36t94 95t30 129l-21 362
q-3 52 -15 95.5t-31.5 78t-43.5 59.5q-52 -45 -109 -80.5t-112 -59.5t-103.5 -35.5t-83.5 -8.5l-484 43q-61 5 -91.5 35t-30.5 89q0 79 62 124t165 45q30 0 81.5 -1.5t104.5 -2.5t86 -1q74 0 129.5 29.5t106.5 97t108 182.5zM1287 573l323 -28q9 -1 18 -1.5t17 -1.5v-381
q0 -74 -53 -128.5t-127 -54.5q-48 0 -92.5 26t-72.5 71t-26 102zM2038 691q11 -20 17.5 -45.5t8.5 -60.5l22 -378q5 -71 -48.5 -123.5t-128.5 -52.5q-72 0 -128 51.5t-56 128.5v336q51 9 108 31.5t111 52t94 60.5z" />
</svg>