<?xml version="1.0" standalone="no"?>
<!DOCTYPE svg PUBLIC "-//W3C//DTD SVG 1.1//EN" "http://www.w3.org/Graphics/SVG/1.1/DTD/svg11.dtd">
<svg xmlns="http://www.w3.org/2000/svg" xmlns:xlink="http://www.w3.org/1999/xlink" version="1.1"
   viewBox="94 -151 2414 2169">
   <path fill="currentColor"
      d="M488 1928q-83 0 -140 -57q-28 -28 -43 -63.5t-15 -75.5q0 -81 70 -148l665 -646l-665 -646q-70 -68 -70 -148q0 -41 15 -76t43 -63q57 -57 140 -57q78 0 153 72l659 639l659 -639q75 -72 153 -72q80 0 140 57q28 27 43 62t15 77q0 80 -70 148l-665 646l665 646
q70 68 70 148q0 41 -14.5 76.5t-43.5 62.5q-60 57 -140 57q-78 0 -153 -72l-659 -639l-659 639q-75 72 -153 72z" />
</svg>