<?xml version="1.0" standalone="no"?>
<!DOCTYPE svg PUBLIC "-//W3C//DTD SVG 1.1//EN" "http://www.w3.org/Graphics/SVG/1.1/DTD/svg11.dtd">
<svg xmlns="http://www.w3.org/2000/svg" xmlns:xlink="http://www.w3.org/1999/xlink" version="1.1"
   viewBox="94 -151 2414 2169">
   <path fill="currentColor"
      d="M1300 1978q-171 0 -326 -53.5t-285.5 -150.5t-226.5 -227.5t-149 -285.5t-53 -323t53 -323t149 -285.5t226.5 -227.5t285.5 -150.5t326 -53.5t326 53.5t285.5 150.5t226.5 227.5t149 285.5t53 323t-53 323t-149 285.5t-226.5 227.5t-285.5 150.5t-326 53.5zM1271 1669
q101 0 174.5 -61.5t105.5 -171.5q72 20 159 20q97 0 172 -40t117.5 -110.5t42.5 -161.5q0 -87 -36.5 -154.5t-100.5 -106.5t-145 -39q-90 0 -155 47.5t-103 139t-48 225.5q-110 -87 -110 -265v-348q0 -140 -73.5 -223t-195.5 -83q-71 0 -127.5 30.5t-91.5 88.5
q-19 -32 -46.5 -59.5t-59.5 -51.5l-72 96q124 89 124 254v617h120v-669q0 -89 40 -137.5t111 -48.5t111 48.5t40 137.5v348q0 136 56 239.5t159 161.5q-20 76 -63.5 117t-102.5 41q-31 0 -66.5 -13t-52.5 -30l-81 88q32 33 87.5 53.5t110.5 20.5zM1710 1336q-76 0 -139 -18
q8 -127 29 -205t60.5 -113.5t99.5 -35.5q72 0 117 50t45 130q0 86 -58 139t-154 53z" />
</svg>