<?xml version="1.0" standalone="no"?>
<!DOCTYPE svg PUBLIC "-//W3C//DTD SVG 1.1//EN" "http://www.w3.org/Graphics/SVG/1.1/DTD/svg11.dtd">
<svg xmlns="http://www.w3.org/2000/svg" xmlns:xlink="http://www.w3.org/1999/xlink" version="1.1"
   viewBox="94 -151 2414 2169">
   <path fill="currentColor"
      d="M291 1978q-15 0 -10 -20l77 -308l1059 -1752l196 116l-623 1041l-325 240l-48 149l59 128l-120 199l-243 196q-15 11 -22 11zM952 1796q-47 0 -105 -32.5t-111 -84t-85 -108.5l70 -40q24 41 67.5 84t89 72t74.5 29q23 0 38.5 -19.5t15.5 -52.5q0 -28 -10 -55t-28 -49
l103 17q8 20 11.5 41t3.5 41q0 70 -40.5 113.5t-93.5 43.5zM1252 1726q-37 0 -80.5 -24.5t-122.5 -91.5q-47 -41 -73.5 -60t-45.5 -26l30 -74q26 10 59 33t85 68q59 51 94 73t54 22q22 0 38.5 -24t16.5 -52v-17.5t-1 -9.5l80 -12q2 7 2 13.5v14.5q0 66 -39.5 116.5
t-96.5 50.5zM487 1499q-82 0 -122 -43t-25 -118l93 -455q11 -55 61 -108.5t111 -77.5l469 -185l30 74l-469 185q-44 17 -80.5 55t-43.5 73l-93 455q-7 36 10.5 50.5t75.5 14.5zM1718 1767q-83 0 -146.5 -19.5t-123.5 -66t-133 -125.5q-52 -56 -91.5 -79t-75.5 -23
q-29 0 -62.5 14t-96.5 53q-76 47 -131 67.5t-109 20.5q-82 0 -132.5 -45.5t-50.5 -119.5q0 -38 44 -92.5t107 -106.5l238 -195q41 -33 86 -48t105 -15h269v80h-269q-48 0 -78.5 9.5t-62.5 35.5l-238 195q-48 40 -84.5 82.5t-36.5 54.5q0 40 27 62.5t76 22.5q41 0 83.5 -15.5
t112.5 -60.5q68 -43 114.5 -61t88.5 -18q69 0 123.5 35.5t97.5 87.5q89 105 165 147.5t184 42.5q52 0 114 -14.5t116 -14.5q42 0 92.5 7t84.5 7q47 0 81 -85t34 -217q0 -89 -16.5 -160t-42.5 -112.5t-56 -41.5h-93l-828 -404l36 -72l810 396h75q88 0 141.5 111t53.5 283
q0 169 -53 275.5t-142 106.5q-49 0 -89.5 -7t-87.5 -7q-52 0 -106.5 14.5t-123.5 14.5z" />
</svg>