<?xml version="1.0" standalone="no"?>
<!DOCTYPE svg PUBLIC "-//W3C//DTD SVG 1.1//EN" "http://www.w3.org/Graphics/SVG/1.1/DTD/svg11.dtd">
<svg xmlns="http://www.w3.org/2000/svg" xmlns:xlink="http://www.w3.org/1999/xlink" version="1.1"
   viewBox="94 -151 2414 2169">
   <path fill="currentColor"
      d="M1300 1678q-125 0 -231 -45.5t-185 -128t-122.5 -195t-43.5 -246.5q0 -185 73 -332.5t195 -255.5q-46 -8 -97 -12.5t-104 -4.5q-73 0 -150.5 9.5t-143 25.5t-104.5 38l-17 -260q67 -35 182 -54t243 -19q130 0 254 24t239 72q119 -47 251 -71.5t267 -24.5q128 0 242.5 19
t181.5 54l-18 260q-43 -22 -110.5 -38t-144.5 -25.5t-151 -9.5q-55 0 -107 3.5t-101 11.5q137 109 210.5 255.5t73.5 334.5q0 180 -75.5 318.5t-207 217.5t-299.5 79zM1300 1425q144 0 228 -103t84 -283q0 -161 -81.5 -279t-233.5 -194q-145 74 -227 194.5t-82 279.5
q0 178 84.5 281.5t227.5 103.5z" />
</svg>