<?xml version="1.0" standalone="no"?>
<!DOCTYPE svg PUBLIC "-//W3C//DTD SVG 1.1//EN" "http://www.w3.org/Graphics/SVG/1.1/DTD/svg11.dtd">
<svg xmlns="http://www.w3.org/2000/svg" xmlns:xlink="http://www.w3.org/1999/xlink" version="1.1"
   viewBox="94 -151 2414 2169">
   <path fill="currentColor"
      d="M1301 1978q-214 0 -402.5 -81.5t-332 -225t-225 -332t-81.5 -401.5t81.5 -401.5t225 -332t332 -225t402.5 -81.5q213 0 401 81.5t331.5 225t225 332t81.5 401.5t-81.5 401.5t-225 332t-331.5 225t-401 81.5zM625 1670q-74 -60 -130 -139.5t-97 -177.5q8 -39 22.5 -91.5
t32 -103.5t34 -88t27.5 -46q45 23 111 47.5t135 45.5t122 33q0 48 8 107t20.5 118t26 106t23.5 70zM1412 1733q-130 -17 -266 -62.5t-259 -108.5l27 -74q119 61 250.5 104.5t255.5 60.5zM489 1103q-10 -84 -16 -166.5t-6 -164.5q0 -58 3 -115.5t10 -112.5l80 6
q-7 54 -10 108.5t-3 110.5q0 80 6 162t16 165zM852 1214l-39 -43l397 -357l39 44zM1506 1903l-150 -222l326 -299l303 59l-12 226q-51 54 -127 101.5t-164.5 82.5t-175.5 52zM509 640q-11 -4 -37 -20t-52 -35t-40 -33q21 -49 60.5 -119.5t126.5 -169.5q89 -101 182 -153
t145 -71l-50 297q-94 70 -182.5 142.5t-152.5 161.5zM1301 1898q197 0 370.5 -75.5t305.5 -208t207.5 -306t75.5 -370.5t-75.5 -370.5t-207.5 -306t-305.5 -208t-370.5 -75.5t-371 75.5t-306.5 208t-208 306t-75.5 370.5t75.5 370.5t208 306t306.5 208t371 75.5zM1653 1449
q-5 -64 -16.5 -137.5t-28.5 -146t-40 -132.5l78 -20q32 87 55 204t32 227zM1259 562q-84 -46 -157 -81t-149.5 -64.5t-171.5 -56.5l20 -74q95 25 173.5 54.5t155 66t166.5 83.5zM1962 1513l-52 -57q49 -37 111 -104.5t117.5 -142t84.5 -132.5l68 49q-73 120 -161.5 224
t-167.5 163zM1620 1053q-46 -6 -114 -24t-138 -42t-125.5 -47.5t-78.5 -40.5q-14 -56 -20.5 -129t-6.5 -143q0 -54 3.5 -99.5t9.5 -72.5q29 -23 85.5 -47.5t122.5 -46.5t124.5 -36t90.5 -15l294 365q-23 57 -66 129.5t-91.5 140t-89.5 108.5zM2186 803q-55 -23 -131.5 -44
t-153.5 -38.5t-136 -27.5l12 -80q59 10 138.5 28t158 40t135.5 45zM2178 1230q0 -91 -5 -176t-16.5 -165.5t-30.5 -158.5q13 -28 24 -64t20 -75t16 -74q56 88 76.5 205t20.5 241q0 33 -1 67.5t-4 73.5t-8 89q-7 7 -35.5 19.5t-56.5 17.5zM1591 378l-78 -15l87 -310l78 15z
M1865 130l-246 -2q-18 -15 -66.5 -47t-102.5 -66t-91 -54q62 3 135 12t155 38q71 25 129.5 61t86.5 58z" />
</svg>