<?xml version="1.0" standalone="no"?>
<!DOCTYPE svg PUBLIC "-//W3C//DTD SVG 1.1//EN" "http://www.w3.org/Graphics/SVG/1.1/DTD/svg11.dtd">
<svg xmlns="http://www.w3.org/2000/svg" xmlns:xlink="http://www.w3.org/1999/xlink" version="1.1"
   viewBox="94 -151 2414 2169">
   <path fill="currentColor"
      d="M2354 1328l-80 -2l12 -435q67 -6 80 -75h-78l5 -182l-137 -16v-245l-496 -84v-234l-383 -76l-247 13v162l-80 -7v-150l-40 2l-3 -80l375 -21l502 102v81l-44 2v139l496 90v236l139 16l-5 201h82q0 76 -24.5 111.5t-62.5 52.5zM598 1978q-138 0 -240.5 -77t-152.5 -216
q-44 -125 -64.5 -255t-20.5 -284q184 0 329 4t298 15q434 30 861 68.5t862 80.5l-33 394q-6 75 -38.5 136t-81 97.5t-104.5 36.5h-1615zM598 1898h1615q51 0 94 -59t50 -138l27 -319q-403 -39 -822.5 -73.5t-823.5 -63.5q-124 -9 -262 -13.5t-275 -5.5q5 115 23.5 218.5
t50.5 200.5q41 123 124.5 188t198.5 65zM1009 1198l-423 -17l162 -392h221zM2469 1325l-66 -9l9 -78q4 -37 -33 -40l-1238 -103l-877 -37q-13 -1 -25 8t-12 23v64h-70v-89q0 -34 21 -56.5t55 -20.5l913 38l1255 105q49 4 66 32.5t12 69.5zM446 1220l-73 -34l160 -426
q-17 -24 -26 -58t-9 -66h81l97 -254h101l18 -245l376 -10l79 9v-201l80 18v283l-156 -29l-305 7l-17 248h-121l-85 224h-61q0 21 9.5 42.5t24.5 29.5zM1368 1241v-171h70v171h-70zM745 679l48 -127h248v127h-296zM1175 1255l-80 -9l25 -485q25 0 45 -21.5t24 -52.5h-65
l27 -540l80 21l-24 470h70q0 60 -20 100.5t-59 57.5zM1443 948l-60 -5v-118l60 7v116zM1678 1271v-171h70v171h-70zM925 405l9 -106l50 -2l-9 108h-50zM1593 960l-60 -5v-112l60 7v110zM1025 402l9 -106l50 -2l-9 108h-50zM1445 710l-60 -8v-119l60 9v118zM1743 973l-60 -5
v-107l60 7v105zM2008 1301v-181h70v181h-70zM1595 727l-60 -7v-116l60 9v114zM1893 985l-60 -4v-103l60 8v99zM1372 432l-60 -9v-108l60 12v105zM1745 745l-60 -7v-113l60 9v111zM1078 84v-44h34v44h-34zM2043 998l-60 -5v-97l60 8v94zM1511 452l-60 -9v-103l60 12v100z
M1168 84v-44h34v44h-34zM1895 763l-60 -7v-109l60 9v107zM2191 1010l-60 -4v-95l60 7v92zM1651 472l-60 -9v-97l60 12v94zM2045 781l-60 -8v-105l60 9v104zM1460 150l-70 -13v-68l70 13v68zM1791 492l-60 -9v-91l60 12v88zM2197 799l-62 -8v-102l62 10v100zM1600 178
l-70 -13v-68l70 13v68zM1931 512l-60 -9v-85l60 12v82zM2071 532l-60 -9v-79l60 12v76z" />
</svg>