<?xml version="1.0" standalone="no"?>
<!DOCTYPE svg PUBLIC "-//W3C//DTD SVG 1.1//EN" "http://www.w3.org/Graphics/SVG/1.1/DTD/svg11.dtd">
<svg xmlns="http://www.w3.org/2000/svg" xmlns:xlink="http://www.w3.org/1999/xlink" version="1.1"
   viewBox="94 -151 2414 2169">
   <path fill="currentColor"
      d="M1300 1978q-130 0 -244.5 -41t-201.5 -113.5t-136 -168.5t-49 -206q0 -123 64.5 -233t179.5 -185q-107 -135 -107 -305q0 -107 42.5 -200.5t115.5 -160.5h128q-92 55 -149 151t-57 210q0 94 41 178.5t117 146.5q-138 60 -216.5 167t-78.5 231q0 123 74.5 226.5
t199.5 165.5t277 62t277 -62t199.5 -165.5t74.5 -226.5q0 -124 -78.5 -231t-216.5 -167q77 -62 117.5 -146.5t40.5 -178.5q0 -114 -57 -210t-149 -151h128q73 67 115.5 160.5t42.5 200.5q0 170 -107 305q115 75 179.5 185t64.5 233q0 110 -49 206t-136 168.5t-201 113.5
t-245 41zM771 1250l-231 -185q-20 -17 -20 -36q0 -18 13 -30t29 -12q18 0 32 12l64 51v-51q0 -14 10 -24t24 -10q15 0 25 10t10 24v107l85 68zM655 789q-19 0 -33 -14t-14 -33q0 -20 14 -33.5t33 -13.5q20 0 33.5 13.5t13.5 33.5q0 19 -13.5 33t-33.5 14zM522 643
q-21 0 -36.5 -15.5t-15.5 -36.5q0 -20 15.5 -35.5t36.5 -15.5t36.5 15.5t15.5 35.5q0 21 -15.5 36.5t-36.5 15.5zM646 476q-21 0 -35.5 -14.5t-14.5 -35.5q0 -20 14.5 -34.5t35.5 -14.5q20 0 34.5 14.5t14.5 34.5q0 21 -14.5 35.5t-34.5 14.5zM543 296q-21 0 -36.5 -15.5
t-15.5 -36.5t15.5 -36.5t36.5 -15.5q20 0 35.5 15.5t15.5 36.5t-15.5 36.5t-35.5 15.5zM1300 954q-63 0 -126 -35l29 -50q44 25 97 25t97 -25l29 50q-63 35 -126 35zM1090 730q-18 0 -31 -17t-13 -41t13 -41t31 -17t31 17t13 41t-13 41t-31 17zM1300 822q-6 0 -18 -20.5
t-22 -45t-10 -37.5q0 -7 15.5 -12t34.5 -5q20 0 35 5t15 12q0 13 -10 37.5t-22 45t-18 20.5zM1829 1250l-41 -76l85 -68v-107q0 -14 10 -24t25 -10q14 0 24 10t10 24v51l64 -51q14 -12 32 -12q17 0 29.5 12t12.5 30q0 19 -20 36zM1510 730q-18 0 -31 -17t-13 -41t13 -41
t31 -17t31 17t13 41t-13 41t-31 17zM1419 413q-258 0 -396.5 -21.5t-138.5 -61.5q0 -27 63 -43t146 -17v-333q0 -15 62.5 -27t136.5 -12q72 0 139.5 11.5t110.5 29.5t41 36l-37 315q178 13 178 68q0 31 -65 43t-240 12zM2036 799q-19 0 -33 -14t-14 -33q0 -20 14 -33.5
t33 -13.5q20 0 33.5 13.5t13.5 33.5q0 19 -13.5 33t-33.5 14zM1982 584q-21 0 -36.5 -15.5t-15.5 -36.5q0 -20 15.5 -35.5t36.5 -15.5t36.5 15.5t15.5 35.5q0 21 -15.5 36.5t-36.5 15.5zM1905 246q-20 0 -35.5 -15.5t-15.5 -36.5t15.5 -36.5t35.5 -15.5q21 0 36.5 15.5
t15.5 36.5t-15.5 36.5t-36.5 15.5zM2080 391q-20 0 -34.5 -14.5t-14.5 -35.5q0 -20 14.5 -34.5t34.5 -14.5q21 0 35.5 14.5t14.5 34.5q0 21 -14.5 35.5t-35.5 14.5z" />
</svg>