<?xml version="1.0" standalone="no"?>
<!DOCTYPE svg PUBLIC "-//W3C//DTD SVG 1.1//EN" "http://www.w3.org/Graphics/SVG/1.1/DTD/svg11.dtd">
<svg xmlns="http://www.w3.org/2000/svg" xmlns:xlink="http://www.w3.org/1999/xlink" version="1.1"
   viewBox="94 -151 2414 2169">
   <path fill="currentColor"
      d="M581 1856v-828h-188q-23 0 -40.5 -43t-17.5 -120t17.5 -120t40.5 -43h85v-37.5t1 -37.5q23 -3 47.5 -5t57.5 -2v-200q-83 -7 -136.5 -15t-76.5 -18q-33 -14 -75.5 -62.5t-83 -112.5t-66.5 -126.5t-26 -103.5q0 -38 15.5 -61t47.5 -23q12 0 29 5t60 21q222 80 477.5 122
t550.5 42t550.5 -42t477.5 -122q44 -16 60.5 -21t28.5 -5q32 0 47.5 23t15.5 61q0 41 -26 103.5t-66.5 126.5t-83 112.5t-75.5 62.5q-23 10 -76.5 18t-136.5 15v200q33 0 58 2t47 5q1 15 1 37.5v37.5h85q23 0 40.5 43t17.5 120t-17.5 120t-40.5 43h-188v828h-276v-828h-886
v828h-276zM719 1978q-33 0 -72 -2.5t-104 -9.5q-9 -56 -9 -117q0 -32 2.5 -58.5t6.5 -54.5q41 -5 85 -6.5t91 -1.5q48 0 91.5 1.5t84.5 6.5q5 28 7 54.5t2 58.5q0 61 -9 117q-65 7 -104 9.5t-72 2.5zM1881 1978q-33 0 -72 -2.5t-104 -9.5q-9 -56 -9 -117q0 -32 2.5 -58.5
t6.5 -54.5q41 -5 84.5 -6.5t91.5 -1.5q47 0 91 1.5t85 6.5q5 28 7 54.5t2 58.5q0 61 -9 117q-65 7 -104 9.5t-72 2.5zM661 1776h116v-828h1046v828h116v-828h231q6 0 10.5 -27t4.5 -56t-4.5 -56t-10.5 -27h-122v-82q-17 -2 -46 -3t-66 -1v-267l-110 6v261q-37 0 -66 1t-46 3
v82h-364v-414q80 -1 181.5 -3t207.5 -6t202 -10.5t167.5 -16.5t102.5 -24q29 -13 69 -69.5t83 -147.5l-59 15q-226 57 -473.5 84.5t-530.5 27.5t-530.5 -27.5t-473.5 -84.5l-59 -15q43 91 83.5 147.5t68.5 69.5q31 14 102.5 24t167.5 16.5t202 10.5t207.5 6t181.5 3v414
h-364v-82q-17 -2 -46 -3t-66 -1v-261l-110 -6v267q-37 0 -66 1t-46 3v82h-122q-6 0 -10.5 27t-4.5 56t4.5 56t10.5 27h231v828zM960 702h210v-255l-164 -4t-152 -4v181q34 0 58.5 2t46.5 5q1 15 1 37.5v37.5zM1430 702h210v-37.5t1 -37.5q22 -3 46.5 -5t58.5 -2v-181
q-70 2 -151.5 4t-164.5 4v255z" />
</svg>