<?xml version="1.0" standalone="no"?>
<!DOCTYPE svg PUBLIC "-//W3C//DTD SVG 1.1//EN" "http://www.w3.org/Graphics/SVG/1.1/DTD/svg11.dtd">
<svg xmlns="http://www.w3.org/2000/svg" xmlns:xlink="http://www.w3.org/1999/xlink" version="1.1"
   viewBox="94 -151 2414 2169">
   <path fill="currentColor"
      d="M1300 1978q-186 0 -347.5 -69.5t-283.5 -193t-190.5 -286t-68.5 -348.5t68.5 -348.5t190.5 -286t283.5 -193t347.5 -69.5t348 69.5t283.5 192.5t190 286t68.5 349t-68.5 349t-190.5 286t-283.5 192.5t-347.5 69.5zM1044 1604l-70 -40l56 -97l70 40zM816 1404l-40 -70
l97 -56l40 70zM719 1121v-80h113v80h-113zM1258 1661v-112h80v112h-80zM1554 1604l-56 -97l70 -40l56 97zM873 882l-97 -56l40 -70l97 56zM1300 1898q170 0 317 -63.5t257.5 -175.5t173 -260.5t62.5 -317.5q0 -170 -62 -318t-173 -260.5t-258 -175.5t-317 -63
q-169 0 -316 63.5t-258 176t-173.5 260.5t-62.5 317t62.5 317t173.5 260.5t258 176t316 63.5zM1298 1809q-150 0 -281 -56.5t-229.5 -157t-154 -232.5t-55.5 -282q0 -152 55.5 -284t154 -232.5t229.5 -157t281 -56.5q151 0 282 56.5t230 157t154.5 232.5t55.5 284
q0 150 -55.5 282t-154.5 232.5t-230 157t-282 56.5zM1298 1729q135 0 251.5 -50.5t204 -139.5t137 -206.5t49.5 -251.5q0 -135 -49.5 -252.5t-137 -207t-204 -140t-251.5 -50.5q-134 0 -250 50.5t-203.5 140t-137 207t-49.5 252.5q0 134 49.5 251.5t137 206.5t203.5 139.5
t250 50.5zM1299 1175q-39 0 -66.5 -28t-27.5 -67t27.5 -67t66.5 -28t66.5 28t27.5 67t-27.5 67t-66.5 28zM1030 693l-56 -97l70 -40l56 97zM1782 1404l-97 -56l40 -70l97 56zM1260 1081v-609h80v609h-80zM1766 1121v-80h113v80h-113zM1725 882l-40 -70l97 -56l40 70z
M1568 693l-70 -40l56 -97l70 40zM1264 241v-145h80v145h-80zM1304 114q-57 0 -97.5 -12.5t-40.5 -25.5v-132q0 -20 17 -28q12 -6 39 -12t82 -6t82.5 5.5t38.5 12.5q17 11 17 28v132q0 13 -40.5 25.5t-97.5 12.5zM1869 451l-58 -54l92 -99l58 54zM2044 406q-8 9 -45.5 -9
t-78.5 -58q-40 -39 -62.5 -76t-12.5 -47l96 -102q9 -9 22 -9q20 0 51 21.5t58 48.5q41 40 59.5 66t18.5 45q0 10 -7 18z" />
</svg>