<?xml version="1.0" standalone="no"?>
<!DOCTYPE svg PUBLIC "-//W3C//DTD SVG 1.1//EN" "http://www.w3.org/Graphics/SVG/1.1/DTD/svg11.dtd">
<svg xmlns="http://www.w3.org/2000/svg" xmlns:xlink="http://www.w3.org/1999/xlink" version="1.1"
   viewBox="94 -151 2414 2169">
   <path fill="currentColor"
      d="M1038 817l60 -51l914 1109q18 23 47 23q24 0 42 -17l112 -96q22 -19 22 -47q0 -25 -15 -41l-994 -1046l58 -55l994 1047q37 39 37 95q0 61 -51 107l-111 98q-40 35 -94 35q-68 0 -109 -51zM1004 381q176 -152 362.5 -265t394.5 -173l-3 35q-319 5 -551.5 81t-412.5 234
q-203 179 -306 412.5t-117 518.5l-31 -2q80 -193 207.5 -367.5t298.5 -336.5l194 214q13 15 29 15q23 0 80 -54q31 -29 45.5 -47t14.5 -31t-12 -25zM856 129q10 11 10 21q0 20 -27 55.5t-68 73.5q-39 37 -75.5 60t-58.5 23q-11 0 -18 -5q-15 -11 -13 -26q3 -20 39.5 -59.5
t85.5 -81t91 -67.5q18 -11 34 6zM285 1318q17 -373 128.5 -633.5t328.5 -451.5q131 -116 289 -189.5t358.5 -109.5t456.5 -36v92q-198 55 -374.5 153t-351.5 244l145 157q16 16 23.5 29.5t7.5 28.5q0 32 -24.5 71.5t-68.5 79.5q-85 79 -150 79q-18 0 -32 -8.5t-30 -25.5
l-147 -165q-104 99 -193 211.5t-158.5 232.5t-114.5 241h-93z" />
</svg>