<?xml version="1.0" standalone="no"?>
<!DOCTYPE svg PUBLIC "-//W3C//DTD SVG 1.1//EN" "http://www.w3.org/Graphics/SVG/1.1/DTD/svg11.dtd">
<svg xmlns="http://www.w3.org/2000/svg" xmlns:xlink="http://www.w3.org/1999/xlink" version="1.1"
   viewBox="94 -151 2414 2169">
   <path fill="currentColor"
      d="M1122 1978l-34 -340q-31 -9 -64.5 -22.5t-69.5 -31.5l-264 215l-252 -252l215 -265q-35 -69 -53 -133l-340 -34v-355l341 -34q19 -70 53 -131l-216 -266l252 -252l265 215q57 -33 133 -55l34 -339h357l34 339q73 21 133 55l264 -215l253 252l-217 266q34 60 54 131
l341 34v355l-340 34q-20 65 -53 133l215 265l-253 252l-264 -215q-35 18 -68 31.5t-65 22.5l-34 340h-357zM1194 1898h213l32 -323q115 -25 214 -90l253 206l149 -148l-206 -253q66 -110 87 -214l325 -33v-211l-324 -32q-13 -60 -35.5 -113t-53.5 -99l207 -255l-149 -148
l-253 206q-104 -68 -214 -89l-32 -324h-213l-33 324q-109 21 -214 89l-253 -206l-148 148l207 255q-31 46 -53.5 99t-36.5 113l-323 32v211l325 33q19 103 86 214l-205 253l148 148l253 -206q98 64 214 90zM1300 1218q-77 0 -140.5 -37.5t-101 -101t-37.5 -140.5
q0 -78 37.5 -141.5t101 -101t140.5 -37.5q78 0 141.5 37.5t101 101t37.5 141.5q0 77 -37.5 140.5t-101 101t-141.5 37.5zM1300 1143q86 0 145.5 -59.5t59.5 -144.5q0 -86 -59.5 -145.5t-145.5 -59.5q-85 0 -144.5 59.5t-59.5 145.5q0 85 59.5 144.5t144.5 59.5zM1300 1366
q118 0 214.5 -58t154.5 -155t58 -214q0 -118 -58 -214.5t-154.5 -154.5t-214.5 -58q-117 0 -214 58t-155 154.5t-58 214.5q0 117 58 214t155 155t214 58zM1300 1436q-137 0 -250 -67t-180 -180t-67 -250t67 -250t180 -180t250 -67t250 67t180 179.5t67 250.5q0 137 -67 250
t-179.5 180t-250.5 67z" />
</svg>