<?xml version="1.0" standalone="no"?>
<!DOCTYPE svg PUBLIC "-//W3C//DTD SVG 1.1//EN" "http://www.w3.org/Graphics/SVG/1.1/DTD/svg11.dtd">
<svg xmlns="http://www.w3.org/2000/svg" xmlns:xlink="http://www.w3.org/1999/xlink" version="1.1"
   viewBox="94 -151 2414 2169">
   <path fill="currentColor"
      d="M440 1978q-88 0 -131 -49t-38 -130l58 -935q13 -213 90.5 -390t207.5 -306t301.5 -199.5t371.5 -70.5t371.5 70.5t301.5 199.5t207.5 306t90.5 390l58 935q5 81 -37.5 130t-131.5 49h-1720zM956 1761q-132 -52 -243.5 -141t-192.5 -206q-10 -15 -6.5 -31t17.5 -25
q15 -9 30.5 -5.5t25.5 17.5q74 106 175 187t222 128q16 6 22.5 20.5t1.5 31.5q-5 16 -20 23.5t-32 0.5zM988 1497l85 -147l-70 -40l-85 147zM720 1259l147 -85l-40 -70l-147 85zM1259 1570h82v-170h-82v170zM607 918h170v-80h-170v80zM827 652l40 -70l-147 -85l-40 70z
M1612 1497l70 -40l-85 -147l-70 40zM1644 1761q-16 7 -31.5 -0.5t-20.5 -23.5q-5 -17 1.5 -31.5t22.5 -20.5q122 -47 222.5 -128t174.5 -187q10 -14 25.5 -17.5t30.5 5.5q14 9 18 25t-7 31q-81 117 -192.5 206t-243.5 141zM440 1898h1720q47 0 69.5 -24.5t19.5 -70.5
l-58 -933q-12 -198 -83.5 -361.5t-190.5 -282.5t-276 -183.5t-341 -64.5t-341 64.5t-276 183.5t-190.5 282.5t-83.5 361.5l-58 933q-3 46 20 70.5t69 24.5zM1300 1610q152 0 285 -57t233.5 -157t157.5 -233t57 -284q0 -152 -57 -285t-157.5 -233.5t-233.5 -157.5t-285 -57
t-285 57t-233.5 157.5t-157.5 233.5t-57 285q0 151 57 284t157.5 233t233.5 157t285 57zM1300 1530q-135 0 -253.5 -50.5t-208.5 -140t-140.5 -207.5t-50.5 -253q0 -136 50.5 -254.5t140.5 -208t208.5 -140t253.5 -50.5t253.5 50.5t208.5 140t140.5 208t50.5 254.5
q0 135 -50.5 253t-140.5 207.5t-208.5 140t-253.5 50.5zM1300 1320q-66 0 -119 -31.5t-84.5 -84.5t-31.5 -118v-416q0 -65 31.5 -118t84.5 -84.5t119 -31.5t119.5 31.5t84.5 84.5t31 118v416q0 65 -31 118t-84.5 84.5t-119.5 31.5zM1300 1240q66 0 110.5 -45t44.5 -109v-416
q0 -65 -44.5 -109.5t-110.5 -44.5t-110.5 44.5t-44.5 109.5v416q0 64 44.5 109t110.5 45zM1260 1104v-482h80v482h-80zM1880 1259l40 -70l-147 -85l-40 70zM1003 446l70 -40l-85 -147l-70 40zM1259 356h82v-170h-82v170zM1823 918h170v-80h-170v80zM1597 446l85 -147
l-70 -40l-85 147zM1773 652l147 -85l-40 -70l-147 85zM1300 86l-157 -148h314z" />
</svg>