<?xml version="1.0" standalone="no"?>
<!DOCTYPE svg PUBLIC "-//W3C//DTD SVG 1.1//EN" "http://www.w3.org/Graphics/SVG/1.1/DTD/svg11.dtd">
<svg xmlns="http://www.w3.org/2000/svg" xmlns:xlink="http://www.w3.org/1999/xlink" version="1.1"
   viewBox="94 -151 2414 2169">
   <path fill="currentColor"
      d="M376 1978q-50 0 -73 -24t-23 -67t22 -84.5t64 -68.5v-1399q0 -126 59.5 -225t162.5 -155.5t234 -56.5h366q131 0 234 56.5t162.5 155.5t59.5 225v1399q42 27 64 68.5t22 84.5t-23 67t-73 24h-1258zM405 1769v-80h1200v80h-1200zM1005 1582q-88 0 -159 -41t-112.5 -111
t-41.5 -157t41.5 -156.5t112.5 -110.5t159 -41t159 41t112.5 111t41.5 156t-41.5 156.5t-112.5 111.5t-159 41zM1005 1516q104 0 173.5 -70t69.5 -173t-70 -172.5t-173 -69.5t-173 69.5t-70 172.5t70 173t173 70zM1005 1432q-44 0 -74.5 -29.5t-37 -71.5t18.5 -78l93 -133
l93 133q26 36 19 78t-37 71.5t-75 29.5zM390 1898h1230q30 0 30 -27q0 -24 -21.5 -53t-64.5 -57v-1426q0 -98 -45.5 -179t-127.5 -129.5t-192 -48.5h-388q-109 0 -191.5 48.5t-128 129.5t-45.5 179v1426q-43 28 -64.5 57t-21.5 53q0 27 30 27zM792 673v-86h427v86h-427z
M642 823v-608h727v608h-727zM702 763h607v-492h-607v492zM1971 1863q-73 0 -120 -57t-47 -146q0 -67 19.5 -141t57.5 -150l8 -16q46 -92 66.5 -179t20.5 -170q0 -55 -7 -101t-22 -90l74 -36q22 64 28.5 122.5t6.5 104.5q0 92 -22 187t-75 200l-8 16q-31 61 -49 130.5
t-18 122.5q0 56 23.5 89.5t63.5 33.5q38 0 62 -27t24 -67q0 -47 -41.5 -116.5t-121.5 -153.5l-25 -27q-85 -93 -162 -191t-139 -192l67 -45q60 92 134.5 187.5t157.5 185.5l25 27q96 103 140.5 181.5t44.5 143.5q0 74 -47.5 124t-118.5 50zM792 477v-86h427v86h-427z
M645 662l-36 -374q-6 -62 17.5 -90t72.5 -28h613q50 0 73 28t17 90l-36 374h-14l-40 -418h-613l-40 418h-14zM1634 797v-530q26 0 48.5 18t22.5 38v419q0 19 -22.5 37t-48.5 18zM1918 795l107 -29l-55 -214q-8 -33 -1 -51t32 -25l107 -29q-12 -37 -38 -56l-49 -38l22 -42
l-82 -46l-31 54q-51 54 -69 87.5t-18 69.5q0 13 2 27.5t6 31.5zM1878 879l-84 -324q-5 -20 -8 -40t-3 -39q0 -47 20.5 -88.5t78.5 -105.5l58 -97l180 99l-27 48l6 5q28 22 45 47.5t24 54.5l12 52l-153 40l73 287zM2069 781l-18 -68l58 -16q17 -5 25 -19t3 -30l-42 -161
l57 -20l42 163q14 53 -4 87t-59 46zM2044 269l-68 -43l68 -120l215 -189q7 -6 18 -6q14 0 28.5 14.5t14.5 30.5q0 14 -10 23l-203 179z" />
</svg>