<?xml version="1.0" standalone="no"?>
<!DOCTYPE svg PUBLIC "-//W3C//DTD SVG 1.1//EN" "http://www.w3.org/Graphics/SVG/1.1/DTD/svg11.dtd">
<svg xmlns="http://www.w3.org/2000/svg" xmlns:xlink="http://www.w3.org/1999/xlink" version="1.1"
   viewBox="94 -151 2414 2169">
   <path fill="currentColor"
      d="M425 1978q-67 0 -116 -49t-49 -116v-1750q0 -68 49 -116.5t116 -48.5h1750q68 0 116.5 48.5t48.5 116.5v1751q0 67 -49 115.5t-117 48.5h-1749zM1237 1638h126v-263l207 114l62 -106l-269 -150v-428h544v-124h-544v-189h280v-126h-280v-168h-126v168h-280v126h280v189
h-544v124h544v358l-208 -117l-62 108l270 151v333z" />
</svg>