<?xml version="1.0" standalone="no"?>
<!DOCTYPE svg PUBLIC "-//W3C//DTD SVG 1.1//EN" "http://www.w3.org/Graphics/SVG/1.1/DTD/svg11.dtd">
<svg xmlns="http://www.w3.org/2000/svg" xmlns:xlink="http://www.w3.org/1999/xlink" version="1.1"
   viewBox="94 -151 2414 2169">
   <path fill="currentColor"
      d="M2225 1978q-49 0 -97 -26q-88 -48 -208.5 -96t-244.5 -86.5t-222 -57.5q-97 -19 -152 -56t-99 -117q-40 -75 -72.5 -127t-73 -106.5t-104.5 -134.5q-34 19 -67 19q-36 0 -62 -19q-23 -17 -37.5 -40t-14.5 -48q0 -17 29.5 -61.5t76 -101.5t98 -114t94.5 -100
q78 -77 153.5 -142.5t137 -105.5t96.5 -40q50 0 77 40q20 29 20 65q0 34 -17 67q62 51 103.5 84.5t77.5 58.5t79 49t106 57q79 41 116.5 97t56.5 154q20 96 59.5 217.5t88.5 241t95 210.5q27 52 27 101q0 54 -33 86q-34 32 -87 32zM1671 1458q-56 0 -96 -39.5t-40 -95.5
t40 -95.5t96 -39.5t95.5 39.5t39.5 95.5q0 55 -39.5 95t-95.5 40zM781 1103l-480 -422q-46 -41 -46 -101q0 -44 26 -80q40 -56 109.5 -141t157.5 -174t173 -157.5t143 -105.5q38 -24 79 -24q62 0 101 45l427 480l-60 54l-420 -473q-23 -25 -51 -25q-19 0 -41 15
q-76 53 -154 118t-141 129q-85 85 -151 165.5t-100 130.5q-18 26 -18 46q0 22 20 40l479 419zM2178 1888q37 21 70 -7q14 -13 16 -33t-9 -38q-38 -65 -77 -153t-74.5 -185.5t-63.5 -192t-44 -173.5q-16 -80 -44.5 -123t-92.5 -77q-63 -33 -106 -57.5t-81 -50.5t-82.5 -61.5
t-110.5 -89.5q-61 46 -132 105.5t-121 109.5q-52 52 -110.5 121t-106.5 131q70 85 112.5 143.5t75 112t72.5 126.5q36 65 78 92t122 44q79 16 174 44t193 63t187 73t155 76zM2244 1931l-629 -622l61 -52l624 617z" />
</svg>