<?xml version="1.0" standalone="no"?>
<!DOCTYPE svg PUBLIC "-//W3C//DTD SVG 1.1//EN" "http://www.w3.org/Graphics/SVG/1.1/DTD/svg11.dtd">
<svg xmlns="http://www.w3.org/2000/svg" xmlns:xlink="http://www.w3.org/1999/xlink" version="1.1"
   viewBox="94 -151 2414 2169">
   <path fill="currentColor"
      d="M1604 1978l-40 -273q-24 -162 -50.5 -271t-66 -178.5t-101 -112t-153 -70.5t-223.5 -55l-165 -34v-93l165 -34q132 -27 223.5 -55t153 -70.5t101 -111.5t66 -178t50.5 -271l40 -273h98l39 273q23 162 49.5 271t66.5 178.5t101.5 112t153 70t223.5 54.5l165 34v93l-165 34
q-132 27 -223.5 55t-153 70.5t-101.5 112t-66.5 178.5t-49.5 271l-39 273h-98zM501 1978l-33 -161q-20 -100 -41.5 -158t-59.5 -88.5t-109 -49.5l-158 -42v-93l158 -43q71 -20 109 -50.5t59.5 -87.5t41.5 -157l33 -161h101l32 161q20 100 41.5 157t60 87.5t109.5 50.5
l157 43v93l-157 42q-71 19 -109.5 49.5t-60 88.5t-41.5 158l-32 161h-101zM548 1865q18 -117 40.5 -194t59.5 -124t98.5 -73.5t158.5 -44.5v6q-97 -18 -158.5 -44.5t-98.5 -73t-59.5 -123.5t-40.5 -194h6q-18 117 -40 194t-59 123.5t-98.5 73t-158.5 44.5v-6
q97 18 158.5 44.5t98.5 73.5t59 124t40 194h-6zM663 750l-24 -127q-16 -84 -37.5 -129t-64 -67.5t-121.5 -39.5l-78 -17v-92l78 -18q79 -18 121.5 -40.5t64 -67t37.5 -127.5l24 -127h96l25 127q17 83 38 127.5t63.5 66.5t121.5 41l77 18v92l-77 17q-79 17 -121.5 40
t-63.5 67.5t-38 128.5l-25 127h-96zM707 650q16 -95 35 -152.5t49 -90t79 -51.5t125 -35v6q-76 -17 -125 -35.5t-79 -51.5t-49 -90.5t-35 -152.5h8q-16 95 -35 152.5t-48.5 90.5t-78.5 51.5t-125 35.5v-6q76 16 125 35t78.5 51.5t48.5 90t35 152.5h-8zM1649 1786
q23 -170 46.5 -292t55.5 -206.5t79 -140t116 -92.5t166.5 -65t231.5 -56v8q-134 -29 -231.5 -56.5t-166.5 -64.5t-116 -92.5t-79 -140t-55.5 -206.5t-46.5 -292h7q-23 170 -46.5 292t-55.5 206.5t-79 140t-115.5 92.5t-166 64.5t-231.5 56.5v-8q134 28 231.5 55.5t166 64.5
t115.5 92.5t79 140t55.5 206.5t46.5 293h-7z" />
</svg>