<?xml version="1.0" standalone="no"?>
<!DOCTYPE svg PUBLIC "-//W3C//DTD SVG 1.1//EN" "http://www.w3.org/Graphics/SVG/1.1/DTD/svg11.dtd">
<svg xmlns="http://www.w3.org/2000/svg" xmlns:xlink="http://www.w3.org/1999/xlink" version="1.1"
   viewBox="94 -151 2414 2169">
   <path fill="currentColor"
      d="M937 1381l-23 -57q98 -26 154 -104.5t56 -190.5v-182q0 -112 -56 -190.5t-154 -104.5l23 -57q118 34 183.5 127.5t65.5 224.5v182q0 130 -65.5 223.5t-183.5 128.5zM650 1978v-199q0 -53 17 -93t49 -65l35 55q-20 15 -29.5 40t-9.5 63v199h-62zM470 1978v-199
q0 -131 66 -224.5t183 -127.5l23 57q-97 26 -153.5 104.5t-56.5 190.5v199h-62zM944 1978v-199q0 -38 -9.5 -63t-29.5 -40l35 -55q32 25 49 65t17 93v199h-62zM1124 1978v-199q0 -112 -56 -190.5t-154 -104.5l23 -57q117 34 183 127.5t66 224.5v199h-62zM828 1787
q-55 0 -86.5 -32.5t-31.5 -90.5v-520q0 -59 32.5 -91t85.5 -32q55 0 86.5 32t31.5 91v520q0 56 -31.5 89.5t-86.5 33.5zM828 1724q26 0 42 -17.5t16 -42.5v-520q0 -26 -16 -43t-42 -17q-24 0 -41 17t-17 43v520q0 25 17 42.5t41 17.5zM719 1381q-118 -35 -183.5 -128.5
t-65.5 -223.5v-182q0 -131 65.5 -224.5t183.5 -127.5l23 57q-97 26 -153.5 104.5t-56.5 190.5v182q0 112 56.5 190.5t153.5 104.5zM716 1187q-32 -26 -49 -66t-17 -92v-182q0 -53 17 -93t49 -65l35 55q-20 15 -29.5 40t-9.5 63v182q0 38 9.5 63t29.5 40zM940 1187l-35 -55
q20 -15 29.5 -40t9.5 -63v-182q0 -38 -9.5 -63t-29.5 -40l35 -55q32 25 49 65t17 93v182q0 52 -17 92t-49 66zM1650 1978v-373q0 -59 33.5 -91t87.5 -32t87.5 32t33.5 91v373h-65v-375q0 -26 -15.5 -42t-40.5 -16t-40.5 16t-15.5 42v375h-65zM1663 1839
q-118 -35 -184.5 -129.5t-66.5 -217.5v-174q0 -128 66.5 -223.5t184.5 -129.5l24 60q-97 28 -153.5 105.5t-56.5 181.5v180q0 104 56.5 181t153.5 106zM1660 1649q-40 -34 -53 -74.5t-13 -93.5v-141q0 -53 13 -93.5t53 -74.5l35 55q-21 20 -28.5 45t-7.5 61v155q0 36 7.5 61
t28.5 45zM828 855q-55 0 -86.5 -32.5t-31.5 -90.5v-520q0 -58 31.5 -90.5t86.5 -32.5t86.5 32.5t31.5 90.5v520q0 58 -31.5 90.5t-86.5 32.5zM828 792q26 0 42 -17.5t16 -42.5v-520q0 -26 -16.5 -43t-41.5 -17t-41.5 17t-16.5 43v520q0 25 17 42.5t41 17.5zM719 449
q-117 -35 -183 -128.5t-66 -223.5v-199h62v199q0 112 56.5 190.5t153.5 104.5zM1882 1649l-35 -55q21 -20 28.5 -45t7.5 -61v-155q0 -36 -7.5 -61t-28.5 -45l35 -55q40 34 53 74.5t13 93.5v141q0 53 -13 93.5t-53 74.5zM1879 1839l-24 -60q98 -29 154 -106t56 -181v-180
q0 -104 -56 -181.5t-154 -105.5l24 -60q118 34 184.5 129.5t66.5 223.5v174q0 123 -66.5 217.5t-184.5 129.5zM716 255q-32 -26 -49 -66t-17 -92v-199h62v199q0 38 9.5 63t29.5 40zM1771 1316q-54 0 -87.5 -32.5t-33.5 -90.5v-510q0 -59 33.5 -91t87.5 -32t87.5 32t33.5 91
v510q0 58 -33.5 90.5t-87.5 32.5zM1771 1253q25 0 40.5 -16.5t15.5 -41.5v-514q0 -26 -15.5 -42t-40.5 -16t-40.5 16t-15.5 42v514q0 25 15.5 41.5t40.5 16.5zM937 449l-23 -57q98 -26 154 -104.5t56 -190.5v-199h62v199q0 130 -66 223.5t-183 128.5zM940 255l-35 -55
q20 -15 29.5 -40t9.5 -63v-199h62v199q0 52 -17 92t-49 66zM1663 911q-118 -35 -184.5 -130.5t-66.5 -222.5v-174q0 -123 66.5 -218t184.5 -129l24 60q-97 28 -153.5 105.5t-56.5 181.5v180q0 104 56.5 181t153.5 106zM1660 704q-40 -34 -53 -74.5t-13 -93.5v-141
q0 -53 13 -93.5t53 -74.5l35 55q-21 20 -28.5 45t-7.5 61v155q0 36 7.5 61t28.5 45zM1882 704l-35 -55q21 -20 28.5 -45t7.5 -61v-155q0 -36 -7.5 -61t-28.5 -45l35 -55q40 34 53 74.5t13 93.5v141q0 53 -13 93.5t-53 74.5zM1879 911l-24 -60q98 -29 154 -106t56 -181v-180
q0 -104 -56 -181.5t-154 -105.5l24 -60q118 34 184.5 129t66.5 218v174q0 127 -66.5 222.5t-184.5 130.5zM1771 394q-54 0 -87.5 -32.5t-33.5 -90.5v-373h65v375q0 25 15.5 41.5t40.5 16.5t40.5 -16.5t15.5 -41.5v-375h65v373q0 58 -33.5 90.5t-87.5 32.5z" />
</svg>