<?xml version="1.0" standalone="no"?>
<!DOCTYPE svg PUBLIC "-//W3C//DTD SVG 1.1//EN" "http://www.w3.org/Graphics/SVG/1.1/DTD/svg11.dtd">
<svg xmlns="http://www.w3.org/2000/svg" xmlns:xlink="http://www.w3.org/1999/xlink" version="1.1"
   viewBox="94 -151 2414 2169">
   <path fill="currentColor"
      d="M426 1978q-68 0 -117 -48.5t-49 -115.5v-1751q0 -68 49 -116.5t116 -48.5h1750q68 0 116.5 48.5t48.5 116.5v1750q0 67 -48.5 116t-116.5 49h-1749zM831 1382q-117 0 -152 -57q-14 -23 -14 -53q0 -53 39.5 -124t112.5 -150q32 31 70 63t83 66q6 63 15.5 120.5t21.5 107.5
q-97 27 -176 27zM1300 1668q-55 0 -105.5 -67t-88.5 -191q47 -16 95.5 -36t98.5 -44q50 24 99 44t95 36q-38 124 -88.5 191t-105.5 67zM1083 1332q-8 -35 -14 -71t-11 -70q14 9 28.5 18.5t29.5 19.5q23 15 46.5 28t46.5 26q-30 13 -61.5 25.5t-64.5 23.5zM963 1018
q-25 -20 -47 -39.5t-42 -38.5q20 -20 42.5 -39.5t46.5 -38.5q-1 19 -1.5 37.5t-0.5 36.5q0 21 0.5 41.5t1.5 40.5zM817 883q-73 -80 -112.5 -151.5t-39.5 -123.5q0 -34 14 -56q37 -57 149 -57q72 0 178 28q-13 52 -22 110.5t-15 120.5q-41 31 -79 63t-73 66zM1517 1332
q-33 -11 -64.5 -23.5t-61.5 -25.5q23 -13 46.5 -26t46.5 -28q15 -10 30 -19.5t28 -18.5q-4 34 -10.5 70t-14.5 71zM1300 1748q84 0 154.5 -81.5t117.5 -233.5q55 14 104 21.5t91 7.5q80 0 135.5 -25t85.5 -70q27 -41 27 -95q0 -69 -45 -154.5t-131 -177.5
q85 -92 130.5 -178.5t45.5 -156.5q0 -52 -26 -95q-28 -46 -83.5 -70t-133.5 -24q-46 0 -96.5 7.5t-103.5 22.5q-46 -152 -117 -235t-155 -83t-154.5 83t-117.5 235q-52 -15 -103 -22.5t-97 -7.5q-78 0 -133 24t-84 70q-26 43 -26 95q0 70 45.5 156.5t130.5 178.5
q-85 92 -130.5 177.5t-45.5 154.5q0 54 27 95q30 45 86 70t135 25q42 0 91 -7.5t104 -21.5q47 152 117.5 233.5t154.5 81.5zM1300 1240q-34 -18 -70.5 -38t-71.5 -42q-28 -18 -56.5 -37t-54.5 -38q-3 -36 -4.5 -73t-1.5 -76q0 -36 1.5 -71t3.5 -69q31 -22 60 -42t57 -37
q32 -20 66 -39.5t71 -38.5q37 19 71 38.5t66 39.5q28 17 57 37t60 42q2 34 3.5 69t1.5 71q0 39 -1.5 76t-4.5 73q-26 19 -54 38t-57 37q-35 22 -71 42t-71 38zM1300 1040q43 0 73 -30t30 -73t-30 -73t-73 -30t-73 30t-30 73t30 73t73 30zM1058 690q5 -38 11.5 -74.5
t13.5 -70.5q29 10 60.5 23t65.5 29q-22 11 -44 24t-44 27q-16 10 -32 20.5t-31 21.5zM1769 1382q-78 0 -176 -27q12 -50 21.5 -107.5t15.5 -120.5q45 -34 83 -66t70 -63q73 79 112.5 150t39.5 124q0 30 -14 53q-34 57 -152 57zM1637 1018q1 -20 1.5 -40.5t0.5 -41.5
q0 -18 -0.5 -36.5t-1.5 -37.5q24 19 46.5 38.5t42.5 39.5q-20 19 -42 38.5t-47 39.5zM1542 690q-15 -11 -31 -21.5t-32 -20.5q-22 -14 -43.5 -27t-44.5 -24q34 -16 65.5 -29t60.5 -23q8 34 14.5 70.5t10.5 74.5zM1300 549q-49 -25 -98.5 -45t-97.5 -36q39 -125 90 -192.5
t106 -67.5t106 67.5t90 192.5q-48 16 -97 36t-99 45zM1783 883q-34 -34 -72.5 -66t-79.5 -63q-6 -62 -15 -120.5t-22 -110.5q106 -28 178 -28q114 0 149 57q14 22 14 56q0 52 -39 123.5t-113 151.5z" />
</svg>