<?xml version="1.0" standalone="no"?>
<!DOCTYPE svg PUBLIC "-//W3C//DTD SVG 1.1//EN" "http://www.w3.org/Graphics/SVG/1.1/DTD/svg11.dtd">
<svg xmlns="http://www.w3.org/2000/svg" xmlns:xlink="http://www.w3.org/1999/xlink" version="1.1"
   viewBox="94 -151 2414 2169">
   <path fill="currentColor"
      d="M1315 1978q-223 0 -414.5 -82t-335.5 -227.5t-224.5 -338.5t-80.5 -415q0 -207 80.5 -390.5t222 -324.5t326.5 -221.5t395 -80.5q223 0 415 82t336 227.5t224.5 338.5t80.5 415q0 207 -80.5 390.5t-222.5 324.5t-327 221.5t-395 80.5zM778 1559q128 -89 203.5 -237.5
t85.5 -332.5h466q11 184 86 332.5t203 237.5l70 -96q-105 -74 -166.5 -196.5t-71.5 -277.5h303v-120h-303q10 -156 71.5 -278.5t166.5 -195.5l-70 -96q-128 89 -203 237.5t-86 332.5h-466q-10 -185 -85.5 -333.5t-203.5 -236.5l-70 96q105 73 166.5 195.5t71.5 278.5h-303
v120h303q-10 155 -71.5 277.5t-166.5 196.5z" />
</svg>