<?xml version="1.0" standalone="no"?>
<!DOCTYPE svg PUBLIC "-//W3C//DTD SVG 1.1//EN" "http://www.w3.org/Graphics/SVG/1.1/DTD/svg11.dtd">
<svg xmlns="http://www.w3.org/2000/svg" xmlns:xlink="http://www.w3.org/1999/xlink" version="1.1"
   viewBox="94 -151 2414 2169">
   <path fill="currentColor"
      d="M1300 1978q-171 0 -326 -53.5t-285.5 -150.5t-226.5 -227.5t-149 -285.5t-53 -323t53 -323t149 -285.5t226.5 -227.5t285.5 -150.5t326 -53.5t326 53.5t285.5 150.5t226.5 227.5t149 285.5t53 323t-53 323t-149 285.5t-226.5 227.5t-285.5 150.5t-326 53.5zM781 1524
q36 -33 115 -58.5t184 -40.5t220 -15t220 15t184 40.5t115 58.5l80 -88q-40 -37 -109.5 -66t-159.5 -48v-768q90 -20 159.5 -48.5t109.5 -65.5l-80 -88q-36 32 -115 58t-184 41t-220 15t-220 -15t-184 -41t-115 -58l-80 88q40 37 109.5 65.5t159.5 48.5v768
q-90 19 -159.5 48t-109.5 66zM1090 1303v-730q50 7 102.5 10t107.5 3t107.5 -3t102.5 -10v730q-50 -7 -102.5 -10t-107.5 -3t-107.5 3t-102.5 10z" />
</svg>