<?xml version="1.0" standalone="no"?>
<!DOCTYPE svg PUBLIC "-//W3C//DTD SVG 1.1//EN" "http://www.w3.org/Graphics/SVG/1.1/DTD/svg11.dtd">
<svg xmlns="http://www.w3.org/2000/svg" xmlns:xlink="http://www.w3.org/1999/xlink" version="1.1"
   viewBox="94 -151 2414 2169">
   <path fill="currentColor"
      d="M2069 1159q-48 0 -104.5 -7.5t-132.5 -25.5t-185 -47q-145 -40 -145 -141q0 -103 145 -141q109 -29 185 -46.5t132.5 -25.5t104.5 -8q122 0 196.5 60.5t74.5 160.5t-74.5 160.5t-196.5 60.5zM626 1678q-34 0 -65 -29q-32 -30 -32 -65q0 -44 52 -98q23 -23 67 -61.5
t98 -82t107.5 -84.5t94.5 -69q14 -10 27 -15t24 -5q16 0 28 12q11 11 11 28q0 21 -20 50q-29 41 -69.5 95t-83.5 108t-80.5 98.5t-61.5 67.5q-25 25 -49.5 37.5t-47.5 12.5zM531 1159q-122 0 -196.5 -60.5t-74.5 -160.5t74.5 -160.5t196.5 -60.5q49 0 105 8t132.5 25.5
t185.5 46.5q144 39 144 141q0 101 -144 141q-109 30 -185.5 47.5t-132.5 25t-105 7.5zM531 1079q43 0 94 -7t125 -24.5t185 -46.5q45 -12 64 -26.5t19 -36.5t-19 -36.5t-64 -26.5q-111 -30 -185 -47t-125 -24t-94 -7q-88 0 -139.5 38t-51.5 103t51.5 103t139.5 38z
M1300 1978q-100 0 -160.5 -74.5t-60.5 -196.5q0 -49 7.5 -105t25 -132.5t47.5 -185.5q40 -144 141 -144q102 0 141 144q29 109 46.5 185.5t25.5 132.5t8 105q0 122 -60.5 196.5t-160.5 74.5zM1300 1898q65 0 103 -51.5t38 -139.5q0 -43 -7 -94t-24 -125t-47 -185
q-12 -45 -26.5 -64t-36.5 -19t-36.5 19t-26.5 64q-29 111 -46.5 185t-24.5 125t-7 94q0 88 38 139.5t103 51.5zM999 707q-11 0 -24 -5t-27 -15q-41 -29 -94.5 -69.5t-107.5 -84t-98 -82t-67 -61.5q-52 -54 -52 -98q0 -35 32 -65q31 -29 65 -29q23 0 47.5 12.5t49.5 37.5
q24 23 61.5 67.5t80.5 98.5t83.5 108t69.5 95q20 29 20 50q0 17 -11 28q-12 12 -28 12zM1300 1062q-52 0 -88 -36t-36 -88t36 -88t88 -36t88 36t36 88t-36 88t-88 36zM1974 1678q-23 0 -47 -12.5t-50 -37.5q-24 -23 -61.5 -67.5t-80.5 -98.5t-83.5 -108t-69.5 -95
q-20 -29 -20 -50q0 -17 11 -28q12 -12 28 -12q11 0 24 5t27 15q41 28 94.5 69t107.5 84.5t98.5 82t66.5 61.5q52 54 52 98q0 35 -32 65q-31 29 -65 29zM1300 736q-103 0 -141 -145q-29 -109 -46.5 -185t-25.5 -132.5t-8 -104.5q0 -122 60.5 -196.5t160.5 -74.5t160.5 74.5
t60.5 196.5q0 48 -7.5 104.5t-25 132.5t-47.5 185q-40 145 -141 145zM2069 1079q89 0 140 -38t51 -103t-51 -103t-140 -38q-42 0 -93 7t-125 24t-185 47q-46 12 -65 26.5t-19 36.5t19 36.5t65 26.5q111 29 185 46.5t125 24.5t93 7zM1300 656q22 0 36.5 -19t26.5 -65
q30 -111 47 -185t24 -125t7 -93q0 -89 -38 -140t-103 -51t-103 51t-38 140q0 42 7 93t24.5 125t46.5 185q12 46 26.5 65t36.5 19zM1601 707q-16 0 -28 -12q-11 -11 -11 -28q0 -21 20 -50q29 -41 69.5 -95t83.5 -108t80.5 -98.5t61.5 -67.5q26 -25 50 -37.5t47 -12.5
q34 0 65 29q32 30 32 65q0 44 -52 98q-22 23 -66.5 61.5t-98.5 82t-107.5 84t-94.5 69.5q-14 10 -27 15t-24 5z" />
</svg>