<?xml version="1.0" standalone="no"?>
<!DOCTYPE svg PUBLIC "-//W3C//DTD SVG 1.1//EN" "http://www.w3.org/Graphics/SVG/1.1/DTD/svg11.dtd">
<svg xmlns="http://www.w3.org/2000/svg" xmlns:xlink="http://www.w3.org/1999/xlink" version="1.1"
   viewBox="94 -151 2414 2169">
   <path fill="currentColor"
      d="M590 1340q-82 0 -142.5 -34t-94 -96.5t-33.5 -147.5q0 -114 49.5 -202t136 -138t196.5 -50q93 0 181 40.5t158 117.5l-24 29q-43 -79 -60.5 -148.5t-17.5 -158.5q0 -105 40.5 -213.5t121 -219.5t199.5 -221q119 110 199.5 221t121 219.5t40.5 213.5q0 89 -17 158.5
t-61 148.5l-24 -29q71 -77 158.5 -117.5t180.5 -40.5q111 0 197 50t135.5 138t49.5 202q0 85 -33.5 147.5t-94 96.5t-142.5 34q-47 0 -84 -8q23 -33 34.5 -70t11.5 -75q0 -71 -37.5 -114t-99.5 -43q-66 0 -114 39.5t-69 112.5l-72 -12q26 -97 95.5 -154.5t159.5 -57.5
q92 0 152 65.5t60 165.5q0 25 -6.5 53t-30.5 67l-11 -43q4 1 9 2t11 1q55 0 95.5 -24.5t63 -71t22.5 -111.5q0 -94 -39.5 -165t-108.5 -111.5t-159 -40.5q-123 0 -233 79.5t-173 211.5v129h-78v-162q72 -96 110.5 -166.5t52.5 -137t14 -147.5q0 -87 -32.5 -178t-96 -183.5
t-157.5 -183.5q-93 91 -157 183.5t-96.5 183.5t-32.5 178q0 81 14.5 147.5t52.5 137t110 166.5v162h-78v-129q-63 -132 -173 -211.5t-233 -79.5q-89 0 -158.5 40.5t-109 111.5t-39.5 165q0 65 22.5 111.5t63 71t95.5 24.5q6 0 11 -1t9 -2l-11 43q-24 -39 -30.5 -67t-6.5 -53
q0 -100 60.5 -165.5t151.5 -65.5q90 0 160 57.5t95 154.5l-72 12q-21 -73 -69 -112.5t-114 -39.5q-62 0 -99.5 43t-37.5 114q0 38 11.5 75t34.5 70q-37 8 -84 8zM1300 1978q-105 -72 -152.5 -174.5t-47.5 -228.5q0 -26 5.5 -61t15.5 -66l16 94q-34 76 -96.5 116.5
t-144.5 40.5q-98 0 -161.5 -55.5t-63.5 -141.5q0 -44 20.5 -83t65.5 -73q26 42 49.5 59.5t56.5 17.5q46 0 68.5 -32.5t22.5 -98.5l73 2q0 96 -42.5 148.5t-119.5 52.5q-39 0 -71.5 -16.5t-52.5 -47.5h31q-14 16 -20 34t-6 37q0 55 41.5 90t108.5 35q107 0 171 -91t64 -246
h110q-33 84 -49.5 153.5t-16.5 126.5q0 99 33.5 182.5t91.5 132.5q59 -49 92 -132.5t33 -182.5q0 -57 -16.5 -126.5t-49.5 -153.5h110q0 155 64 246t171 91q67 0 108.5 -35t41.5 -90q0 -19 -6 -37t-20 -34h31q-20 31 -52.5 47.5t-71.5 16.5q-76 0 -119 -52.5t-43 -148.5
l73 -2q0 66 22.5 98.5t68.5 32.5q33 0 56.5 -17.5t49.5 -59.5q45 34 65.5 73t20.5 83q0 86 -63.5 141.5t-161.5 55.5q-82 0 -144.5 -40.5t-96.5 -116.5l16 -94q10 31 15.5 66t5.5 61q0 126 -47.5 228.5t-152.5 174.5zM873 1336q-46 0 -78 -31.5t-32 -77.5q0 -47 32 -78
t78 -31h854q47 0 78.5 31t31.5 78q0 46 -31.5 77.5t-78.5 31.5h-854zM873 1266h854q18 0 29 -11t11 -28t-11 -28t-29 -11h-854q-18 0 -29 11t-11 28t11 28t29 11z" />
</svg>