<?xml version="1.0" standalone="no"?>
<!DOCTYPE svg PUBLIC "-//W3C//DTD SVG 1.1//EN" "http://www.w3.org/Graphics/SVG/1.1/DTD/svg11.dtd">
<svg xmlns="http://www.w3.org/2000/svg" xmlns:xlink="http://www.w3.org/1999/xlink" version="1.1"
   viewBox="94 -151 2414 2169">
   <path fill="currentColor"
      d="M695 1978q-55 0 -86 -43.5t-20 -101.5l119 -606l-451 -420q-44 -42 -44 -90q0 -44 30.5 -75t79.5 -37l611 -74l260 -559q35 -74 106 -74t106 74l260 559l611 74q49 6 79.5 37t30.5 75q0 48 -44 90l-451 420l119 606q11 58 -20 101.5t-86 43.5q-33 0 -66 -19l-539 -302
l-539 302q-33 19 -66 19zM695 1898q10 0 26 -9l579 -324l579 324q17 9 26 9q15 0 24 -13.5t4 -35.5l-129 -650l485 -450q18 -17 18 -32q0 -28 -40 -32l-655 -80l-278 -599q-13 -28 -34 -28t-34 28l-278 599l-655 80q-40 4 -40 32q0 15 18 32l485 450l-129 650
q-4 22 4.5 35.5t23.5 13.5z" />
</svg>