<?xml version="1.0" standalone="no"?>
<!DOCTYPE svg PUBLIC "-//W3C//DTD SVG 1.1//EN" "http://www.w3.org/Graphics/SVG/1.1/DTD/svg11.dtd">
<svg xmlns="http://www.w3.org/2000/svg" xmlns:xlink="http://www.w3.org/1999/xlink" version="1.1"
   viewBox="94 -151 2414 2169">
   <path fill="currentColor"
      d="M1300 1978q-19 0 -48.5 -23t-58 -55.5t-46 -63t-12.5 -44.5l13 -35q-20 11 -41 21.5t-39 16.5t-30 6q-37 0 -57 -34.5t-20 -80.5q0 -71 50 -131.5t154 -112.5v-253l-258 136q0 96 -11 151t-35.5 86t-64.5 54t-77 23q-42 0 -64 -34q-6 -9 -9.5 -42.5t-3.5 -85.5l-20 24
q-21 25 -47 25q-39 0 -83 -10t-77 -25t-42 -30q-9 -16 -3 -53.5t20 -80t31 -73t31 -32.5l37 -5q-27 -17 -50.5 -36t-38 -35.5t-14.5 -25.5q0 -30 25.5 -58.5t64.5 -47t80 -18.5q40 0 101 24t116 64l240 -146l-240 -146q-55 40 -116 64t-101 24q-41 0 -80 -18.5t-64.5 -47
t-25.5 -58.5q0 -9 14.5 -25.5t38 -36t50.5 -35.5l-37 -5q-14 -2 -31 -32.5t-31 -73t-20 -80t3 -53.5t42 -30.5t77 -24.5t83 -10q26 0 47 25l20 24q0 -53 3.5 -86t9.5 -42q22 -34 64 -34q37 0 77 23t64.5 54t35.5 86t11 151l258 136v-253q-104 -53 -154 -113t-50 -131
q0 -46 20 -80.5t57 -34.5q12 0 30 6t39 16t41 22l-12 -39q-4 -14 13 -43.5t45.5 -61.5t57.5 -54.5t48 -22.5t48 22.5t57.5 54.5t46 61.5t12.5 43.5l-12 39q20 -12 41 -22t39 -16t30 -6q38 0 57.5 34.5t19.5 80.5q0 71 -50 131t-154 113v253l258 -136q0 -96 11 -151t35.5 -86
t64.5 -54t77 -23q42 0 64 34q6 9 9.5 42t3.5 86l20 -24q21 -25 47 -25q40 0 83.5 10t77 24.5t41.5 30.5q9 16 3 53.5t-20 80t-31 73t-31 32.5l-37 5q28 16 51 35.5t37.5 36t14.5 25.5q0 30 -25.5 58.5t-64.5 47t-80 18.5q-40 0 -100.5 -24t-116.5 -64l-240 146l240 146
q56 -40 116.5 -64t100.5 -24q41 0 80 18.5t64.5 47t25.5 58.5q0 9 -14.5 25.5t-37.5 35.5t-51 36l37 5q14 2 31 32.5t31 73t20 80t-3 53.5q-8 15 -41.5 30t-77 25t-83.5 10q-26 0 -47 -25l-20 -24q0 52 -3.5 85.5t-9.5 42.5q-22 34 -64 34q-37 0 -77 -23t-64.5 -54
t-35.5 -86t-11 -151l-258 -136v253q104 52 154 112.5t50 131.5q0 46 -19.5 80.5t-57.5 34.5q-12 0 -30 -6t-39 -16.5t-41 -21.5l13 35q5 14 -12.5 44.5t-46 63t-58 55.5t-48.5 23zM1300 1898q12 -13 27 -29.5t31 -35t30 -35.5l-14 -22q-13 -20 -19.5 -52.5t-6.5 -71.5
q15 -5 31 -5q38 0 96 31l82 43l4 -23q11 -63 -39.5 -109.5t-166.5 -87.5v-376h58l20 -29l347 185q-4 28 -6 52t-2 46q0 78 21 121t61 53l24 6v-76q0 -56 13 -87t35 -50q25 12 51.5 32t40.5 45l18 32q7 -4 32.5 -10.5t53.5 -12t42 -6.5q-10 -25 -23.5 -63t-19.5 -62h-24
q-30 0 -68 -9.5t-61 -25.5q4 -30 22.5 -54.5t68.5 -56.5l67 -43q-17 -19 -37 -27.5t-44 -8.5q-39 0 -100 29.5t-111 73.5l-331 -199l24 -42l-24 -42l331 -199q50 43 111 73t100 30q24 0 44 -8.5t37 -27.5l-67 -43q-50 -32 -68.5 -56.5t-22.5 -54.5q23 -17 61 -26t68 -9h24
q4 -16 11.5 -39t16 -46.5t15.5 -39.5q-14 -1 -42 -6.5t-53.5 -12.5t-32.5 -10l-18 32q-14 25 -40.5 45t-51.5 32q-22 -20 -35 -50.5t-13 -86.5v-76l-24 6q-40 10 -61 53t-21 121q0 22 2 46t6 52l-347 185l-20 -29h-58v-376q116 -41 166.5 -87.5t39.5 -109.5l-4 -23l-82 43
q-58 31 -96 31q-16 0 -31 -5q0 -37 4 -66t17 -49l19 -31q-14 -18 -30 -36t-31 -34.5t-27 -29.5q-12 13 -27 29.5t-30.5 34.5t-30.5 36l19 31q13 20 17 49t4 66q-15 5 -31 5q-38 0 -96 -31l-82 -43l-4 23q-11 63 39.5 109.5t166.5 87.5v376h-58l-20 29l-347 -185
q5 -28 6.5 -52t1.5 -46q0 -78 -21 -121t-61 -53l-24 -6v76q0 56 -13 86.5t-35 50.5q-25 -12 -51.5 -32t-40.5 -45l-18 -32q-6 3 -32 10t-54 12.5t-42 6.5q7 16 15.5 39.5t16 46.5t11.5 39h24q30 0 68 9t61 26q-4 30 -22.5 54.5t-68.5 56.5l-67 43q17 19 37 27.5t44 8.5
q39 0 100.5 -30t110.5 -73l331 199l-24 42l24 42l-331 199q-49 -44 -110.5 -73.5t-100.5 -29.5q-24 0 -44 8.5t-37 27.5l67 43q50 32 68.5 56.5t22.5 54.5q-23 16 -61 25.5t-68 9.5h-24q-4 16 -11.5 39t-16 46t-15.5 40q14 1 42 6.5t54 12t32 10.5l18 -32q14 -25 40.5 -45
t51.5 -32q22 19 35 50t13 87v76l24 -6q40 -10 61 -53t21 -121q0 -22 -1.5 -46t-6.5 -52l347 -185l20 29h58v376q-116 41 -166.5 87.5t-39.5 109.5l4 23l82 -43q58 -31 96 -31q16 0 31 5q0 39 -6.5 71.5t-19.5 52.5l-14 22q15 17 30.5 35.5t30.5 35t27 29.5zM1256 1023
l-54 -85l54 -85h88l54 85l-54 85h-88z" />
</svg>