<?xml version="1.0" standalone="no"?>
<!DOCTYPE svg PUBLIC "-//W3C//DTD SVG 1.1//EN" "http://www.w3.org/Graphics/SVG/1.1/DTD/svg11.dtd">
<svg xmlns="http://www.w3.org/2000/svg" xmlns:xlink="http://www.w3.org/1999/xlink" version="1.1"
   viewBox="94 -151 2414 2169">
   <path fill="currentColor"
      d="M1300 1978q-187 0 -350.5 -70t-287 -194.5t-193 -288t-69.5 -350.5q0 -186 70 -349.5t193.5 -287.5t287 -194t349.5 -70q187 0 350 70t286.5 194t193.5 287t70 350t-70 351t-193.5 288t-286.5 194t-350 70zM793 1978l-68 -42l92 -144l68 42zM1042 1603l-70 -40l52 -90
l70 40zM813 1404l-40 -70l90 -52l40 70zM715 1116v-80h104v80h-104zM1260 1662v-104h80v104h-80zM1807 1978l-93 -144l68 -42l93 144zM863 870l-90 -52l40 -70l90 52zM1558 1603l-52 -90l70 -40l52 90zM1244 1104l-225 -136l40 -69l226 136zM1300 1898q170 0 319 -63.5
t261.5 -177t176 -262.5t63.5 -320q0 -170 -63.5 -319t-176 -262t-261.5 -176.5t-319 -63.5t-318.5 64t-261.5 177t-176.5 261.5t-63.5 318.5q0 171 63.5 320t176 262t261 177t319.5 64zM1300 1808q-152 0 -284.5 -57t-233 -157.5t-157.5 -233.5t-57 -285t57 -284.5
t157.5 -232.5t233 -157t284.5 -57t284.5 57t233 157.5t157.5 233t57 283.5q0 152 -57 285t-157.5 233.5t-233 157.5t-284.5 57zM1300 1728q135 0 253.5 -50.5t208 -140t140 -208t50.5 -254.5q0 -135 -50.5 -253t-140.5 -207.5t-208 -140t-253 -50.5t-253.5 50.5t-208 140
t-140 207.5t-50.5 253q0 136 50.5 254.5t140 208t208 140t253.5 50.5zM1304 1174q-40 0 -69.5 -29t-29.5 -69q0 -41 29.5 -70t69.5 -29q41 0 70 29t29 70q0 40 -29 69t-70 29zM1787 1404l-90 -52l40 -70l90 52zM1024 679l-52 -90l70 -40l52 90zM1363 1089l-27 -43l289 -179
l27 42zM824 381l-278 -441l68 -42l278 441zM497 363q-27 -59 -27 -119q0 -77 42.5 -148.5t119.5 -109.5q76 -38 158 -38q77 0 142 34t100 97zM1260 594v-104h80v104h-80zM1782 1116v-80h104v80h-104zM1576 679l-70 -40l52 -90l70 40zM1737 870l-40 -70l90 -52l40 70z
M1258 225v-226h80v226h-80zM1138 39v-80h320v80h-320zM2103 363l-535 -284q35 -63 100.5 -97t141.5 -34q82 0 158 38q77 38 119.5 109.5t42.5 148.5q0 60 -27 119zM1776 381l-68 -42l278 -441l68 42z" />
</svg>