<?xml version="1.0" standalone="no"?>
<!DOCTYPE svg PUBLIC "-//W3C//DTD SVG 1.1//EN" "http://www.w3.org/Graphics/SVG/1.1/DTD/svg11.dtd">
<svg xmlns="http://www.w3.org/2000/svg" xmlns:xlink="http://www.w3.org/1999/xlink" version="1.1"
   viewBox="94 -151 2414 2169">
   <path fill="currentColor"
      d="M2196 1254q-73 -83 -158 -132.5t-188 -49.5q-123 0 -248 82q-35 -106 -118.5 -180t-192.5 -113.5t-223 -39.5q-87 0 -163 27.5t-137 81.5q-74 -138 -163 -191.5t-226 -53.5q-43 0 -88 2.5t-86 6.5q55 -209 186 -361.5t319.5 -236t415.5 -83.5q228 0 430.5 76t357.5 209
t243 307t88 371q0 140 -49 278zM1391 1785q-218 -1 -360 -8.5t-222 -25t-112.5 -47t-32.5 -74.5q0 -62 52 -94.5t149 -33.5v76q-47 0 -84 14.5t-37 37.5q0 26 60.5 42.5t202 25t384.5 9.5v78zM168 1978v-565q185 -53 369 -80.5t361 -27.5q164 0 307 19t276.5 44.5t269 44.5
t284.5 19q90 0 183 -8.5t214 -27.5v582h-2264zM248 1898h2104v-408q-94 11 -169 16.5t-148 5.5q-156 0 -293.5 -19t-270.5 -44.5t-273 -44.5t-300 -19q-157 0 -319.5 22t-330.5 66v425zM1040 1756l-87 -24l257 -957l86 27zM764 776q46 -137 128.5 -262t191.5 -228.5
t235 -174.5q-92 -16 -185 -16q-190 0 -354 63.5t-284 178.5t-179 272q22 -2 44 -3t43 -1q107 0 198 41.5t162 129.5zM2154 1101q11 -66 11 -126q0 -172 -77.5 -329.5t-219 -281.5t-333.5 -195q82 139 124.5 303t42.5 329q0 115 -21 223q87 -32 172 -32q83 0 158.5 28.5
t142.5 80.5zM1475 131l-87 -23l57 -210l87 24z" />
</svg>