<?xml version="1.0" standalone="no"?>
<!DOCTYPE svg PUBLIC "-//W3C//DTD SVG 1.1//EN" "http://www.w3.org/Graphics/SVG/1.1/DTD/svg11.dtd">
<svg xmlns="http://www.w3.org/2000/svg" xmlns:xlink="http://www.w3.org/1999/xlink" version="1.1"
   viewBox="94 -151 2414 2169">
   <path fill="currentColor"
      d="M475 1172q-28 0 -50 -23.5t-22 -54.5q0 -44 39 -63l193 -92l28 43l-188 89q-16 7 -16 23q0 14 12 21t28 0l205 -97l27 42l-214 101q-25 11 -42 11zM665 1928q57 0 97 -23l1507 -858l-39 -59l-1461 832q-25 15 -56 15q-41 0 -78.5 -18.5t-69.5 -18.5q-22 0 -36.5 14.5
t-14.5 34.5q0 34 46 57.5t105 23.5zM664 1978q-79 0 -139.5 -37t-60.5 -94q0 -41 29.5 -70t71.5 -29q44 0 80.5 18.5t65.5 18.5q20 0 33 -8l1502 -856l94 143l-1553 884q-54 30 -123 30zM1200 831v-165l954 -454q25 -12 47.5 -0.5t36.5 35.5t14 51q0 34 -30 49zM1250 753
l945 -448q9 -5 9 -13q0 -13 -10 -26t-23 -7l-921 438v56zM2135 449l-144 -76l33 -165q3 -14 15 -15.5t17 10.5l101 225q5 11 -3 19t-19 2zM260 254q0 -99 49 -179.5t131.5 -128.5t180.5 -48q94 0 172 45.5t127 124t55 178.5q62 -9 120 -13.5t113 -4.5q131 0 243.5 22
t189.5 67.5t102 117.5l-523 242v121l538 -262q-4 93 -61.5 144.5t-164.5 91.5l-151 56q-34 13 -34 52q0 31 32 86.5t74.5 121.5t75.5 130t35 114l-412 240q-28 -17 -44.5 -43t-16.5 -53q0 -23 11 -42.5t35 -34.5l164 -103l-222 -363q-59 49 -130.5 99.5t-144 85t-135.5 34.5
q-59 0 -101 -42.5t-42 -101.5t42 -101t101 -42q40 0 87.5 -12.5t97.5 -36.5l109 -53q-60 -9 -113 -59.5t-85 -125.5q-36 16 -71.5 24t-72.5 8q-98 0 -180.5 -48t-131.5 -129t-49 -179z" />
</svg>