<?xml version="1.0" standalone="no"?>
<!DOCTYPE svg PUBLIC "-//W3C//DTD SVG 1.1//EN" "http://www.w3.org/Graphics/SVG/1.1/DTD/svg11.dtd">
<svg xmlns="http://www.w3.org/2000/svg" xmlns:xlink="http://www.w3.org/1999/xlink" version="1.1"
   viewBox="94 -151 2414 2169">
   <path fill="currentColor"
      d="M454 1526q38 -188 88 -344t123.5 -298t179.5 -285t254 -303.5t347 -355.5q-67 298 -96.5 536.5t-29.5 466.5q0 114 6.5 230t19.5 241q-124 -15 -239 -15q-161 0 -318.5 31t-334.5 96zM645 1898h1400q17 0 26 -15l37 -62l-1647 -127q32 102 78.5 153t105.5 51zM645 1978
q-107 0 -180 -95.5t-107 -276.5l1884 145l-101 172q-31 55 -96 55h-1400zM1735 1737l-941 -55q23 -71 49.5 -111.5t60.5 -54.5l195 -8l552 61q42 5 53 45zM1252 1648q17 0 29.5 -13.5t12.5 -31.5q0 -19 -12.5 -32.5t-29.5 -13.5t-29.5 13.5t-12.5 32.5q0 18 12.5 31.5
t29.5 13.5zM1435 1667q16 0 27.5 -13t11.5 -31t-11.5 -31t-27.5 -13t-28 13t-12 31t12 31t28 13zM1603 1680q14 0 24.5 -12t10.5 -28q0 -17 -10.5 -28.5t-24.5 -11.5t-24.5 11.5t-10.5 28.5q0 16 10.5 28t24.5 12zM561 1413q126 -47 265.5 -71t281.5 -24q38 0 75 2t74 5
q-18 -195 -18 -385q0 -191 18.5 -378.5t56.5 -377.5q-167 169 -292 320t-214.5 296.5t-149.5 295.5t-97 317zM1320 1565l114 -1665q6 -1 12.5 -1.5t12.5 -0.5q25 0 55 8l-113 1659h-81zM1372 1418l5 -80l572 -9l-501 -1262l39 -116l580 1456z" />
</svg>