<?xml version="1.0" standalone="no"?>
<!DOCTYPE svg PUBLIC "-//W3C//DTD SVG 1.1//EN" "http://www.w3.org/Graphics/SVG/1.1/DTD/svg11.dtd">
<svg xmlns="http://www.w3.org/2000/svg" xmlns:xlink="http://www.w3.org/1999/xlink" version="1.1"
   viewBox="94 -151 2414 2169">
   <path fill="currentColor"
      d="M1300 1978q-171 0 -326 -53.5t-285.5 -150.5t-226.5 -227.5t-149 -285.5t-53 -323t53 -323t149 -285.5t226.5 -227.5t285.5 -150.5t326 -53.5t326 53.5t285.5 150.5t226.5 227.5t149 285.5t53 323t-53 323t-149 285.5t-226.5 227.5t-285.5 150.5t-326 53.5zM1300 1525
q-101 0 -185 -49.5t-133.5 -133.5t-49.5 -185q0 -102 49.5 -185.5t133.5 -133t185 -49.5q102 0 185.5 49.5t133 133t49.5 185.5q0 101 -49.5 185t-133 133.5t-185.5 49.5zM1300 1645q135 0 245.5 -66t176.5 -177t66 -245q0 -131 -65.5 -244.5t-178.5 -177.5
q118 -52 201.5 -144t111.5 -204l-116 -31q-23 88 -89 159t-158.5 112.5t-193.5 41.5t-193 -41.5t-158.5 -112.5t-89.5 -159l-116 31q29 112 112 204t201 144q-112 64 -178 177.5t-66 244.5q0 134 66 245t177 177t245 66z" />
</svg>