<?xml version="1.0" standalone="no"?>
<!DOCTYPE svg PUBLIC "-//W3C//DTD SVG 1.1//EN" "http://www.w3.org/Graphics/SVG/1.1/DTD/svg11.dtd">
<svg xmlns="http://www.w3.org/2000/svg" xmlns:xlink="http://www.w3.org/1999/xlink" version="1.1"
   viewBox="94 -151 2414 2169">
   <path fill="currentColor"
      d="M362 1978q-40 0 -70 -23t-42 -58.5t2 -72.5l313 -827l25 38q-169 -30 -257 -81t-88 -118q0 -41 26 -66t68 -25q30 0 54 10q51 21 156.5 43t243 37.5t284.5 15.5q148 0 285 -15.5t242.5 -37.5t156.5 -43q24 -10 54 -10q42 0 68 25t26 66q0 70 -91 121.5t-252 76.5l23 -37
l313 827q14 37 2 72.5t-41.5 58.5t-70.5 23q-34 0 -62.5 -18t-42.5 -49l-361 -835h-498l-361 835q-13 31 -41.5 49t-63.5 18zM544 1178q-97 -96 -156 -221l98 14q46 80 108 139zM1061 1862q-46 0 -79.5 -31.5t-36.5 -77.5l-23 -395l81 24l22 366q1 14 11.5 24t24.5 10
q15 0 25 -9.5t11 -24.5l22 -366l81 -22l-23 393q-3 46 -36 77.5t-80 31.5zM362 1898q24 0 32 -20l372 -882q71 7 147 11t164 4t164.5 -4t146.5 -11l372 882q8 20 32 20q20 0 34 -16t7 -34l-330 -865q160 -24 253 -63t93 -84q0 -32 -34 -32q-12 0 -25 5q-57 21 -167 45
t-251.5 40.5t-294.5 16.5q-152 0 -294 -16.5t-252 -40.5t-167 -45q-13 -5 -25 -5q-34 0 -34 32q0 45 93 84t253 63l-330 865q-7 18 7 34t34 16zM1067 1392q-92 0 -182 -23t-171 -66l-20 -92q102 52 192.5 76.5t180.5 24.5q85 0 168.5 -21t174.5 -67l28 71q-85 47 -179.5 72
t-191.5 25zM1080 1212q-94 0 -164.5 -22t-142.5 -63l50 -92h514l50 92q-72 41 -142.5 63t-164.5 22zM1066 872l-513 -38q-11 -32 -19 -73.5t-10 -81.5q32 18 109 31.5t188 20.5t245 7t245 -7t188 -20.5t109 -31.5q-1 40 -9.5 81.5t-19.5 73.5zM1067 638q-143 0 -267 -9.5
t-200.5 -24.5t-76.5 -30t76 -29.5t200 -24t268 -9.5t267.5 9.5t199.5 24t76 29.5t-76.5 30t-200 24.5t-266.5 9.5zM1611 1156l-40 -78q23 -26 41 -50.5t32 -49.5h91q-48 97 -124 178zM1718 782q15 -69 15 -137q0 -35 -0.5 -58t-2.5 -37l448 108q29 7 52.5 -19t36.5 -74
q10 -39 10 -70q0 -54 -28 -68l-508 -248q-100 -49 -210 -95t-226.5 -76t-237.5 -30q-138 0 -259 52t-212.5 143.5t-143.5 212.5t-52 259q0 34 3.5 67.5t10.5 67.5l-83 -11q-5 -29 -8 -60.5t-3 -63.5q0 -155 58 -290.5t160.5 -238t238 -160.5t290.5 -58q130 0 254.5 31.5
t239.5 79.5t216 98l516 254q30 15 46 50t16 86q0 44 -12 89q-20 76 -68 120.5t-98 32.5l-394 -94l30 -19q0 39 -2.5 78t-9.5 78h-83z" />
</svg>