<?xml version="1.0" standalone="no"?>
<!DOCTYPE svg PUBLIC "-//W3C//DTD SVG 1.1//EN" "http://www.w3.org/Graphics/SVG/1.1/DTD/svg11.dtd">
<svg xmlns="http://www.w3.org/2000/svg" xmlns:xlink="http://www.w3.org/1999/xlink" version="1.1"
   viewBox="94 -151 2414 2169">
   <path fill="currentColor"
      d="M378 265v453l228 587l1239 580l377 -277v-447l-784 -960l-645 -215zM298 221l482 -323l706 235l816 1000v515l-447 330l-1311 -614l-246 -632v-511zM301 259l75 -29l230 594l1239 581l393 -290l48 64l-431 318l-1311 -613zM1890 1925h-80v-471h80v471zM615 1331h-80v-477
h80v477zM1323 1406l310 146v89l-310 -146v-89zM783 1153l310 146v89l-310 -146v-89z" />
</svg>