<?xml version="1.0" standalone="no"?>
<!DOCTYPE svg PUBLIC "-//W3C//DTD SVG 1.1//EN" "http://www.w3.org/Graphics/SVG/1.1/DTD/svg11.dtd">
<svg xmlns="http://www.w3.org/2000/svg" xmlns:xlink="http://www.w3.org/1999/xlink" version="1.1"
   viewBox="94 -151 2414 2169">
   <path fill="currentColor"
      d="M1194 1756q-85 0 -136 -67h-7h-7q-71 0 -121.5 -51t-50.5 -123q0 -23 -17.5 -46t-73.5 -61q-79 -55 -108.5 -105t-29.5 -129q0 -38 12 -71q-40 -117 -40 -243q0 -145 51.5 -268t144.5 -214.5t217.5 -142t271.5 -50.5t271.5 50.5t217.5 142t144.5 214.5t51.5 268
q0 126 -40 243q12 33 12 71q0 79 -29 129t-109 105q-55 38 -73 61t-18 46q0 72 -50.5 123t-121.5 51h-7h-7q-51 67 -136 67q-59 0 -106 -36q-47 36 -106 36zM582 1978q-67 0 -110.5 -44t-53.5 -117q-74 -10 -119 -53.5t-45 -109.5q0 -62 50 -102.5t140 -53.5l7 -1
q59 -8 85.5 -18t46.5 -30l145 -143l53 58l-142 141q-30 30 -68.5 46t-107.5 26l-7 1q-122 18 -122 76q0 45 39 65.5t116 25.5q5 83 27.5 118t65.5 35q28 0 45.5 -26.5t24.5 -87.5l1 -8q10 -76 24 -113.5t42 -66.5l152 -153l53 60l-149 149q-18 18 -26 43.5t-16 90.5l-1 8
q-11 90 -48.5 137t-101.5 47zM1110 1687l-60 -40v-130q0 -35 30 -35t30 35v170zM1270 1687v-170q0 -35 30 -35t30 35v170h-60zM1490 1687v-170q0 -35 30 -35t30 35v130zM997 1128q-58 0 -98 -43t-40 -106q0 -66 44 -114t106 -48q58 0 98 43t40 106q0 64 -43.5 113t-106.5 49
zM1248 1301q-37 0 -37 -53q0 -30 11.5 -71.5t31.5 -73t46 -31.5t46 31.5t31.5 73t11.5 71.5q0 53 -37 53q-12 0 -25 -6.5t-27 -16.5q-14 10 -27 16.5t-25 6.5zM1194 1676q30 0 58.5 -12t47.5 -32q20 20 48 32t58 12q33 0 59.5 -21.5t36.5 -56.5q38 11 54 11q38 0 65 -27.5
t27 -66.5q0 -54 28 -93.5t92 -77.5t86.5 -73.5t22.5 -96.5q0 -36 -17 -69q45 -122 45 -245q0 -171 -79 -305.5t-215.5 -212t-310.5 -77.5t-311 77.5t-215.5 212t-78.5 305.5q0 123 45 245q-17 33 -17 69q0 61 22.5 96.5t86.5 73.5q65 38 92.5 77.5t27.5 93.5q0 39 27 66.5
t65 27.5q16 0 54 -11q10 35 36.5 56.5t59.5 21.5zM716 559l-133 -132q-20 -20 -46.5 -30t-85.5 -18l-7 -1q-90 -13 -140 -53.5t-50 -102.5q0 -66 45 -109.5t119 -53.5q10 -74 53.5 -117.5t110.5 -43.5q64 0 101.5 47t48.5 137l1 8q8 65 16 90.5t26 43.5l129 129l-53 60
l-132 -133q-28 -29 -42 -66.5t-24 -113.5l-1 -8q-7 -62 -24.5 -88t-45.5 -26q-43 0 -65.5 35t-27.5 118q-77 4 -116 25t-39 66q0 58 122 76l7 1q69 10 107.5 26t68.5 46l130 130zM2018 1978q-64 0 -101.5 -47t-48.5 -137l-1 -8q-8 -65 -16 -90.5t-26 -43.5l-149 -149l53 -60
l152 153q29 29 42.5 66.5t23.5 113.5l1 8q8 61 25 87.5t45 26.5q43 0 65.5 -35t27.5 -118q77 -5 116 -25.5t39 -65.5q0 -58 -122 -76l-7 -1q-69 -10 -107.5 -26t-68.5 -46l-142 -141l53 -58l145 143q20 20 47 30t85 18l7 1q90 13 140 53.5t50 102.5q0 66 -45 109.5
t-119 53.5q-10 73 -53 117t-111 44zM1603 1128q-63 0 -106.5 -49t-43.5 -113q0 -63 40 -106t98 -43q62 0 106 48t44 114q0 63 -40 106t-98 43zM1884 559l-53 -58l130 -130q30 -30 68.5 -46t107.5 -26l7 -1q122 -18 122 -76q0 -45 -39 -66t-116 -25q-5 -83 -27.5 -118
t-65.5 -35q-28 0 -45 26t-25 88l-1 8q-10 76 -23.5 113.5t-42.5 66.5l-132 133l-53 -60l129 -129q18 -18 26 -43.5t16 -90.5l1 -8q11 -90 48.5 -137t101.5 -47q68 0 111 43.5t53 117.5q74 10 119 53.5t45 109.5q0 62 -50 102.5t-140 53.5l-7 1q-58 8 -85 18t-47 30z" />
</svg>