<?xml version="1.0" standalone="no"?>
<!DOCTYPE svg PUBLIC "-//W3C//DTD SVG 1.1//EN" "http://www.w3.org/Graphics/SVG/1.1/DTD/svg11.dtd">
<svg xmlns="http://www.w3.org/2000/svg" xmlns:xlink="http://www.w3.org/1999/xlink" version="1.1"
   viewBox="94 -151 2414 2169">
   <path fill="currentColor"
      d="M426 1978q-68 0 -117 -48.5t-49 -115.5v-1751q0 -68 49 -116.5t116 -48.5h1750q68 0 116.5 48.5t48.5 116.5v1750q0 67 -48.5 116t-116.5 49h-1749zM1320 1724q177 0 314.5 -64t227.5 -159q23 -23 38.5 -48t21.5 -46q-111 96 -238 147t-255 51q-136 0 -256.5 -50
t-213.5 -140t-146 -212t-53 -266t53 -266t146 -212t213.5 -140t256.5 -50q128 0 255 51t238 147q-6 -21 -21.5 -46t-38.5 -48q-91 -94 -228 -158.5t-314 -64.5q-171 0 -318 60t-256.5 167t-171 250t-61.5 310t61.5 310t171 250t256.5 167t318 60zM1643 1178l170 -93l170 93
l-60 -179l152 -130h-191l-71 -180l-71 180h-191l152 130z" />
</svg>