<?xml version="1.0" standalone="no"?>
<!DOCTYPE svg PUBLIC "-//W3C//DTD SVG 1.1//EN" "http://www.w3.org/Graphics/SVG/1.1/DTD/svg11.dtd">
<svg xmlns="http://www.w3.org/2000/svg" xmlns:xlink="http://www.w3.org/1999/xlink" version="1.1"
   viewBox="94 -151 2414 2169">
   <path fill="currentColor"
      d="M868 1117q-70 -78 -148 -117t-163 -39q-70 0 -148.5 25t-152.5 76l-2 -36t-1 -35q0 -189 81.5 -351t225.5 -284t334 -190t406 -68t406 68t334 190t225.5 284t81.5 351q0 17 -0.5 35t-2.5 36q-74 -51 -152.5 -76t-148.5 -25q-85 0 -162.5 39t-148.5 117
q-66 -101 -176.5 -153t-255.5 -52t-255.5 52t-176.5 153zM1160 1978q-77 0 -137 -29.5t-94 -82t-34 -120.5q0 -74 32.5 -116t86.5 -42q47 0 79 30t32 89q0 37 30 37q33 0 33 -28v-256h224v290q0 101 -69.5 164.5t-182.5 63.5zM1160 1918q86 0 136.5 -45.5t50.5 -122.5v-230
h-94v197q0 38 -27 62.5t-70 24.5q-44 0 -70 -26t-26 -71q0 -35 -12 -47t-34 -12q-54 0 -54 98q0 77 55 124.5t145 47.5zM684 802q-42 0 -65 -23t-23 -63q0 -49 38 -105l50 -75l50 75q20 30 28.5 55.5t8.5 49.5q0 40 -22.5 63t-64.5 23zM1260 1493v-621h80v621h-80zM549 164
q-42 0 -65 -23t-23 -63q0 -49 38 -105l50 -75l50 75q20 30 28.5 55.5t8.5 49.5q0 40 -22.5 63t-64.5 23zM861 999q162 -167 439 -167t439 167q139 -118 304 -118q50 0 105.5 11.5t116.5 35.5q-19 -161 -100.5 -297.5t-211.5 -239t-296.5 -159t-356.5 -56.5t-356.5 56.5
t-296.5 159t-211 239t-101 297.5q61 -24 117 -35.5t105 -11.5q165 0 304 118zM824 1035q0 -173 56.5 -346.5t158 -325t236.5 -257.5h50q135 106 236.5 257.5t158 325t56.5 346.5h-80q0 -156 -49.5 -313t-138.5 -296t-208 -239q-119 100 -208 239t-138.5 296t-49.5 313h-80z
M1300 694q-42 0 -65 -23t-23 -63q0 -49 38 -105l50 -75l50 75q38 56 38 105q0 40 -23 63t-65 23zM1260 160v-212h80v212h-80zM1916 802q-42 0 -64.5 -23t-22.5 -63q0 -24 8.5 -49.5t28.5 -55.5l50 -75l50 75q38 56 38 105q0 40 -23 63t-65 23zM2051 164q-42 0 -64.5 -23
t-22.5 -63q0 -24 8.5 -49.5t28.5 -55.5l50 -75l50 75q38 56 38 105q0 40 -23 63t-65 23z" />
</svg>