<?xml version="1.0" standalone="no"?>
<!DOCTYPE svg PUBLIC "-//W3C//DTD SVG 1.1//EN" "http://www.w3.org/Graphics/SVG/1.1/DTD/svg11.dtd">
<svg xmlns="http://www.w3.org/2000/svg" xmlns:xlink="http://www.w3.org/1999/xlink" version="1.1"
   viewBox="94 -151 2414 2169">
   <path fill="currentColor"
      d="M1300 1978q-171 0 -326 -53.5t-285.5 -150.5t-226.5 -227.5t-149 -285.5t-53 -323t53 -323t149 -285.5t226.5 -227.5t285.5 -150.5t326 -53.5t326 53.5t285.5 150.5t226.5 227.5t149 285.5t53 323t-53 323t-149 285.5t-226.5 227.5t-285.5 150.5t-326 53.5zM1046 1496
q81 0 124 -99l99 -221q14 -32 30 -32q8 0 15 6t16 26l99 221q44 99 124 99t124 -99l100 -221q9 -20 15.5 -26t14.5 -6q17 0 31 32l141 304l109 -51l-147 -308q-30 -62 -61 -89t-73 -27q-41 0 -72 23.5t-54 75.5l-100 221q-10 21 -15.5 27.5t-12.5 6.5t-12.5 -6.5
t-15.5 -27.5l-91 -204q-28 -62 -59.5 -89t-75.5 -27q-43 0 -74.5 27t-59.5 89l-91 204q-9 20 -14.5 27t-13.5 7q-7 0 -12.5 -6.5t-15.5 -27.5l-100 -221q-22 -50 -53.5 -74.5t-72.5 -24.5q-43 0 -73.5 27t-60.5 89l-148 308l110 51l140 -304q15 -32 32 -32q8 0 14.5 6
t15.5 26l100 221q44 99 124 99zM1046 871q81 0 124 -99l99 -221q14 -32 30 -32q8 0 15 6t16 26l99 221q44 99 124 99t124 -99l100 -221q9 -20 15.5 -26t14.5 -6q17 0 31 32l141 304l109 -51l-147 -308q-30 -62 -61 -89t-73 -27q-41 0 -72 23.5t-54 75.5l-100 221
q-10 21 -15.5 27.5t-12.5 6.5t-12.5 -6.5t-15.5 -27.5l-91 -204q-28 -62 -59.5 -89t-75.5 -27q-43 0 -74.5 27t-59.5 89l-91 204q-9 20 -14.5 27t-13.5 7q-7 0 -12.5 -6.5t-15.5 -27.5l-100 -221q-22 -50 -53.5 -74.5t-72.5 -24.5q-43 0 -73.5 27t-60.5 89l-148 308l110 51
l140 -304q15 -32 32 -32q8 0 14.5 6t15.5 26l100 221q44 99 124 99z" />
</svg>