<?xml version="1.0" standalone="no"?>
<!DOCTYPE svg PUBLIC "-//W3C//DTD SVG 1.1//EN" "http://www.w3.org/Graphics/SVG/1.1/DTD/svg11.dtd">
<svg xmlns="http://www.w3.org/2000/svg" xmlns:xlink="http://www.w3.org/1999/xlink" version="1.1"
   viewBox="94 -151 2414 2169">
   <path fill="currentColor"
      d="M1007 1938v-1267l-82 -82l90 -68l170 -254q32 -47 56.5 -68t58.5 -21q35 0 59.5 21t55.5 68l170 254l90 68l-82 82v1267h-80v-1287h-426v1287h-80zM715 1777v-151h151v151h-151zM696 1806v-334q0 -42 28.5 -71.5t69.5 -29.5t69.5 29.5t28.5 71.5v334h-196zM746 1756h96
v-285q0 -20 -14 -35t-34 -15t-34 14.5t-14 35.5v285zM525 1471l-55 -57l560 -556l56 58zM515 1978v-599h80v519h1410v-519h80v599h-1570zM1159 1938v-410q0 -64 38.5 -107.5t102.5 -43.5t102.5 43.5t38.5 107.5v410h-282zM1275 1820h50v-225h60v-48h-60v-105h-50v105h-60v48
h60v225zM1405 1726q14 0 14 -34q0 -35 -14 -35t-14 35q0 34 14 34zM1734 1777v-151h151v151h-151zM1708 1806v-334q0 -42 28.5 -71.5t69.5 -29.5t69.5 29.5t28.5 71.5v334h-196zM1758 1756h96v-285q0 -21 -14 -35.5t-34 -14.5q-19 0 -33.5 15t-14.5 35v285zM2075 1471
l-561 -555l56 -58l560 556zM1300 1090q-49 0 -83 -34t-34 -83q0 -48 34.5 -82.5t82.5 -34.5q49 0 83 34t34 83t-34 83t-83 34zM1078 571h444l-170 -255q-18 -27 -30 -42.5t-22 -15.5t-22 15.5t-30 42.5zM1260 256v-186h-95v-80h95v-92h80v92h95v80h-95v186h-80z" />
</svg>