<?xml version="1.0" standalone="no"?>
<!DOCTYPE svg PUBLIC "-//W3C//DTD SVG 1.1//EN" "http://www.w3.org/Graphics/SVG/1.1/DTD/svg11.dtd">
<svg xmlns="http://www.w3.org/2000/svg" xmlns:xlink="http://www.w3.org/1999/xlink" version="1.1"
   viewBox="94 -151 2414 2169">
   <path fill="currentColor"
      d="M426 1978q-68 0 -117 -48.5t-49 -115.5v-1751q0 -68 49 -116.5t116 -48.5h1750q68 0 116.5 48.5t48.5 116.5v1750q0 67 -48.5 116t-116.5 49h-1749zM1121 1697q79 0 152 -25t134 -72l-115 -115q-78 52 -171 52q-85 0 -156 -42t-113 -113t-42 -157q0 -90 52 -170
l-115 -115q-47 62 -72 135t-25 150q0 130 63.5 237.5t170.5 171t237 63.5zM1468 1545q60 -67 92.5 -149.5t32.5 -170.5q0 -53 -13 -106.5t-39 -106.5l139 -8l-31 380q-3 41 21.5 68t66.5 27q36 0 60.5 -22.5t27.5 -57.5l38 -481q4 -44 -22 -70.5t-70 -24.5l-337 18l177 -201
q35 -40 35 -82q0 -58 -56 -91l-414 -241q-19 -12 -43 -12q-32 0 -59 24l-209 186q-29 26 -29 65q0 36 25 62t61 26q35 0 60 -22l161 -143l139 81l-235 268q-142 23 -245 118l113 113q89 -78 206 -78q86 0 156.5 42t112.5 112.5t42 156.5q0 118 -78 207zM1736 441
q62 0 106 -44t44 -105q0 -62 -44 -106.5t-106 -44.5q-61 0 -105.5 44.5t-44.5 106.5q0 61 44.5 105t105.5 44z" />
</svg>