<?xml version="1.0" standalone="no"?>
<!DOCTYPE svg PUBLIC "-//W3C//DTD SVG 1.1//EN" "http://www.w3.org/Graphics/SVG/1.1/DTD/svg11.dtd">
<svg xmlns="http://www.w3.org/2000/svg" xmlns:xlink="http://www.w3.org/1999/xlink" version="1.1"
   viewBox="94 -151 2414 2169">
   <path fill="currentColor"
      d="M571 1759l-90 -90q53 -86 117 -187t135.5 -208t145.5 -209q192 -264 380 -478.5t359 -368.5t313 -237t242 -83q83 0 125 41t42 124q0 100 -83 242t-237 313t-368.5 359t-478.5 380q-102 74 -209.5 146.5t-208.5 137.5t-184 118zM656 1479l-396 -237l90 -128l488 101z
M997 1978l-238 -398l264 -182l102 490zM567 396l-57 -44l58 -76l58 44zM1886 1727l-44 -57l76 -59l44 58zM812 535l-56 -46l58 -72l56 46zM1749 1482l-46 -56l72 -58l46 56zM1038 668l-57 -44l69 -91l60 43zM1614 1256l-44 -57l92 -72l43 60zM1463 1062q-17 0 -29 -17
t-12 -41t12 -41t29 -17t29 17t12 41zM1202 725l-146 -160l-781 -403l174 -193l1158 335l-71 63l-1061 -308l-74 81l704 360l150 165zM2076 1962l-403 -782l-160 -146l60 -53l165 150l360 704l81 -74l-308 -1061l63 -71l335 1158zM624 1627q140 -84 278.5 -177t271.5 -191.5
t257 -199.5t234 -201q185 -168 318.5 -319.5t205 -273.5t71.5 -202q0 -38 -24.5 -61.5t-62.5 -23.5q-80 0 -202.5 71t-274 204.5t-318.5 319.5q-132 147 -266.5 317.5t-262 353.5t-240.5 370zM1630 917q-17 0 -29 -17t-12 -41q0 -25 12 -41.5t29 -16.5t29 17t12 41z
M1781 776q-17 0 -29 -17t-12 -41t12 -41t29 -17t29 17t12 41zM1380 297l-153 -92q0 -34 17.5 -68.5t56.5 -70.5l98 -92q46 9 90.5 54t53.5 93zM2033 1009l-92 -153l176 -163q48 9 93 53.5t54 90.5l-92 98q-36 39 -70.5 56.5t-68.5 17.5zM1927 626q-17 0 -29 -17t-12 -41
t12 -41t29 -17t29 17t12 41zM2157 407l-33 -30q25 -24 34.5 -57t9.5 -63q0 -46 -28 -89t-71.5 -70.5t-89.5 -27.5q-30 0 -63 10t-57 35l-30 -33q53 -41 88 -51t81 -10q57 0 107 30.5t81 80t31 106.5q0 46 -9.5 81t-50.5 88z" />
</svg>