<?xml version="1.0" standalone="no"?>
<!DOCTYPE svg PUBLIC "-//W3C//DTD SVG 1.1//EN" "http://www.w3.org/Graphics/SVG/1.1/DTD/svg11.dtd">
<svg xmlns="http://www.w3.org/2000/svg" xmlns:xlink="http://www.w3.org/1999/xlink" version="1.1"
   viewBox="94 -151 2414 2169">
   <path fill="currentColor"
      d="M973 1536l-56 -57l1106 -1106q152 -152 193 -400l14 14q-250 43 -400 193l-1105 1107l-56 -56l1104 -1107q97 -97 234.5 -155t297.5 -71q-12 161 -70 297.5t-156 234.5zM454 1978q-60 0 -141 -82q-83 -84 -83 -142q0 -40 26 -65.5t66 -22.5l52 4l3 68l-46 -5
q-12 -2 -20 3.5t-8 16.5q0 13 16 34.5t48 54.5q30 31 51.5 45.5t34.5 14.5q25 0 22 -27l-5 -44l68 4l6 51q5 40 -22 66t-68 26zM526 1769l36 -31q-22 -8 -45 -29t-37 -39q-5 -7 -10 -7q-7 0 -14 8t-7 16t7 20q11 20 30 36.5t40 25.5zM604 1701l37 -27q-22 -11 -44.5 -35
t-33.5 -42q-5 -9 -14 -9t-14.5 9t-5.5 16q0 11 7 22q26 39 68 66zM512 1863q-22 0 -48.5 -16t-54.5 -44q-28 -29 -45.5 -58t-17.5 -51q0 -15 11 -28l233 -268l221 221l-269 233q-12 11 -30 11zM681 1634l38 -28q-26 -15 -54.5 -42t-37.5 -45q-4 -8 -13 -8q-21 0 -21 27
q0 9 5 19q7 14 32.5 36t50.5 41zM1073 1816q-35 0 -69 -26q-61 -47 -137 -112t-174 -166q-100 -104 -165.5 -178t-112.5 -134q-26 -34 -26 -69q0 -34 24 -55.5t54 -21.5q35 0 69 24q39 28 81 61.5t97 84.5t134 132t130.5 136t86 96t61.5 80q25 35 25 69q0 31 -21.5 55
t-56.5 24zM1071 1750q13 0 13 -14q0 -12 -11 -27q-27 -37 -60 -78t-83 -95.5t-129 -132.5t-134 -127.5t-95.5 -82.5t-76.5 -61q-15 -12 -27 -12t-12 13q0 11 12 26q45 56 108 128.5t164 177.5q101 104 174.5 166.5t130.5 105.5q17 13 26 13zM1627 1536l-360 -360l56 -57
l360 360zM1996 1701q42 -27 68 -66q7 -11 7 -22q0 -8 -6 -16.5t-14 -8.5q-9 0 -14 9q-11 19 -33 42.5t-45 34.5zM1919 1634q24 -17 50 -40t33 -37q5 -10 5 -19q0 -12 -6.5 -19.5t-14.5 -7.5q-7 0 -13 8q-13 16 -39.5 44t-52.5 43zM2074 1769q21 -9 40 -25.5t30 -36.5
q7 -12 7 -20q0 -7 -6.5 -15.5t-14.5 -8.5q-6 0 -10 7q-10 19 -35 39.5t-47 28.5zM2146 1978q-40 0 -67 -26t-23 -66l6 -51l68 -4l-5 44q-3 27 22 27q13 0 34.5 -14.5t51.5 -45.5q32 -33 48 -54.5t16 -34.5q0 -11 -8 -16.5t-20 -3.5l-46 5l3 -68l52 -4q40 -3 66 22.5t26 65.5
q0 58 -83 142q-81 82 -141 82zM2088 1863q-18 0 -30 -11l-269 -233l221 -221l233 268q11 13 11 28q0 22 -17 51t-46 58q-28 28 -54 44t-49 16zM1527 1816q-34 0 -56 -24t-22 -55q0 -34 25 -69q28 -39 62 -80t85.5 -96t130.5 -136t134 -132t97 -84.5t81 -61.5q34 -24 69 -24
q30 0 54 21.5t24 55.5q0 35 -26 69q-46 60 -111.5 134t-166.5 178q-98 101 -172.5 167.5t-138.5 110.5q-37 26 -69 26zM1529 1750q9 0 26 -13q58 -43 132 -105t174 -167q101 -105 162 -179t109 -127q13 -14 13 -26q0 -13 -13 -13q-10 0 -27 12q-37 27 -77.5 60t-95 82.5
t-133.5 128.5q-78 78 -128.5 133t-83 95.5t-59.5 77.5q-12 16 -12 27q0 14 13 14zM1015 925l-494 -495q-97 -98 -155.5 -234.5t-70.5 -297.5q161 13 298 71t234 155l499 501l-57 55l-499 -500q-150 -150 -400 -193l14 -14q41 248 193 400l496 496zM1758 1397l-357 -357
l42 -43l357 357zM1153 792l-810 -810l43 -42l810 810zM1875 1287l-361 -361l56 -58l361 363zM842 1397l-42 -43l1414 -1414l43 42z" />
</svg>