<?xml version="1.0" standalone="no"?>
<!DOCTYPE svg PUBLIC "-//W3C//DTD SVG 1.1//EN" "http://www.w3.org/Graphics/SVG/1.1/DTD/svg11.dtd">
<svg xmlns="http://www.w3.org/2000/svg" xmlns:xlink="http://www.w3.org/1999/xlink" version="1.1"
   viewBox="94 -151 2414 2169">
   <path fill="currentColor"
      d="M1300 1978q-171 0 -326 -53.5t-285.5 -150.5t-226.5 -227.5t-149 -285.5t-53 -323t53 -323t149 -285.5t226.5 -227.5t285.5 -150.5t326 -53.5t326 53.5t285.5 150.5t226.5 227.5t149 285.5t53 323t-53 323t-149 285.5t-226.5 227.5t-285.5 150.5t-326 53.5zM907 1198
q-63 0 -115 -30.5t-83 -82.5t-31 -115t31 -115t83 -82.5t115 -30.5q64 0 115.5 30.5t82.5 82.5t31 115t-31 115t-83 82.5t-115 30.5zM1646 1623q69 0 131.5 -23t105.5 -65l-82 -89q-55 57 -153 57q-73 0 -111.5 -44t-38.5 -127q0 -66 39.5 -147.5t117.5 -178.5
q65 -80 121 -170.5t56 -190.5q0 -110 -53 -199.5t-142.5 -143t-198.5 -53.5q-105 0 -195 49.5t-145 134t-55 189.5v14v14q-31 -14 -66 -21t-70 -7q-96 0 -175.5 47t-126.5 126t-47 175t47 175t126.5 126t175.5 47t175.5 -47t126.5 -126.5t47 -174.5q0 -60 -18.5 -106.5
t-38.5 -79.5q-19 -32 -28.5 -65.5t-9.5 -73.5q0 -77 37 -139.5t100 -99.5t140 -37t139 36.5t98.5 99t36.5 140.5q0 72 -45.5 142t-107.5 147q-67 83 -124 186.5t-57 211.5q0 133 73 212t195 79z" />
</svg>