<?xml version="1.0" standalone="no"?>
<!DOCTYPE svg PUBLIC "-//W3C//DTD SVG 1.1//EN" "http://www.w3.org/Graphics/SVG/1.1/DTD/svg11.dtd">
<svg xmlns="http://www.w3.org/2000/svg" xmlns:xlink="http://www.w3.org/1999/xlink" version="1.1"
   viewBox="94 -151 2414 2169">
   <path fill="currentColor"
      d="M1301 1978q213 0 401 -81.5t331.5 -225t225 -332t81.5 -401.5t-81.5 -401.5t-225 -332t-331.5 -225t-401 -81.5q-214 0 -402.5 81.5t-332 225t-225 332t-81.5 401.5t81.5 401.5t225 332t332 225t402.5 81.5zM1301 1898q-197 0 -371 -75.5t-306.5 -208t-208 -306
t-75.5 -370.5t75.5 -370.5t208 -306t306.5 -208t371 -75.5t370.5 75.5t305.5 208t207.5 306t75.5 370.5t-75.5 370.5t-207.5 306t-305.5 208t-370.5 75.5zM569 1630h1462l20 -64h-1502zM608 1669h64v-1457h-64v1457zM938 1873h64v-1870h-64v1870zM365 1300h1870v-64h-1870
v64zM315 970h1970v-64h-1970v64zM1268 1923h64v-1970h-64v1970zM1598 1873h64v-1870h-64v1870zM365 640h1870v-64h-1870v64zM1928 1669h64v-1457h-64v1457zM549 310h1502l-20 -64h-1462z" />
</svg>