<?xml version="1.0" standalone="no"?>
<!DOCTYPE svg PUBLIC "-//W3C//DTD SVG 1.1//EN" "http://www.w3.org/Graphics/SVG/1.1/DTD/svg11.dtd">
<svg xmlns="http://www.w3.org/2000/svg" xmlns:xlink="http://www.w3.org/1999/xlink" version="1.1"
   viewBox="94 -151 2414 2169">
   <path fill="currentColor"
      d="M140 439v-217q144 3 290.5 39t258.5 95q131 -74 286 -116t325 -42t325.5 42t285.5 116q113 -59 259.5 -95t289.5 -39v217q-106 6 -191 22t-155 45q129 121 203 276.5t74 328.5q0 164 -67 292.5t-181.5 201.5t-255.5 73t-255.5 -73t-182 -201t-67.5 -293
q0 -131 34.5 -243.5t103 -205t171.5 -162.5q-106 -41 -209.5 -58t-181.5 -17t-181 17t-210 58q103 70 172 162.5t103.5 205t34.5 243.5q0 165 -67.5 293t-182 201t-256.5 73q-141 0 -255 -73t-181 -201.5t-67 -292.5q0 -173 73.5 -328.5t203.5 -276.5q-69 -27 -154 -43.5
t-193 -23.5zM439 1111q0 163 76 254t198 91q123 0 200 -91t77 -254q0 -86 -18.5 -174t-76 -174.5t-175.5 -166.5q-119 80 -200 206t-81 309zM1611 1111q0 163 76.5 254t199.5 91t199 -91t76 -254q0 -183 -81 -309t-200 -206q-118 80 -176 166.5t-76 174.5t-18 174z" />
</svg>