<?xml version="1.0" standalone="no"?>
<!DOCTYPE svg PUBLIC "-//W3C//DTD SVG 1.1//EN" "http://www.w3.org/Graphics/SVG/1.1/DTD/svg11.dtd">
<svg xmlns="http://www.w3.org/2000/svg" xmlns:xlink="http://www.w3.org/1999/xlink" version="1.1"
   viewBox="94 -151 2414 2169">
   <path fill="currentColor"
      d="M2260 1978q-9 0 -22 -3t-47 -14l-544 -182q-44 -15 -71.5 -28.5t-46.5 -32.5l-810 -812q-13 4 -26 7t-28 6l-264 -266q4 -28 14 -51l-117 -115q-71 -69 -71 -148q0 -111 141 -240l95 -86q127 -115 244 -115q80 0 144 59l125 119q8 -4 27.5 -11t34.5 -11l264 264
q-3 13 -6.5 25.5t-7.5 25.5l801 803q21 21 40.5 55.5t30.5 64.5l192 503q14 38 17.5 52t3.5 23q0 43 -33.5 75.5t-79.5 32.5zM1564 1641q49 8 81 -12t42 -57l-764 -767q-58 42 -122 69zM306 348q63 -27 115 -63t119 -100q63 -61 104 -109.5t67 -95.5q-42 -4 -91 19.5
t-103 72.5l-95 86q-124 112 -116 190zM516 587q68 -26 124.5 -64t129.5 -108q76 -74 120.5 -130t69.5 -114l-173 -164q-31 56 -77 112.5t-115 123.5q-72 68 -127.5 108t-123.5 70zM688 831q84 -23 154.5 -67.5t161.5 -130.5q90 -86 136.5 -150.5t70.5 -139.5l-170 -158
q-30 72 -80.5 139.5t-135.5 148.5q-79 76 -146 119.5t-147 72.5zM2051 1828q44 -9 68.5 -20t40.5 -27q17 -17 30.5 -44.5t22.5 -77.5l-139 -367l43 -17q-1 23 -7.5 41.5t-22.5 33.5q-19 19 -47 30t-61 16q5 51 -8.5 90t-44.5 68q-34 31 -74 42.5t-96 7.5q-5 23 -16.5 42.5
t-25.5 35.5q-16 17 -35.5 26t-48.5 16l3 -34zM1751 1523q46 5 73 -1.5t48 -26.5q19 -18 25.5 -42t-0.5 -61l-768 -770q-16 16 -33 33.5t-37 36.5t-37.5 34t-34.5 29zM1939 1322q64 0 87.5 -27.5t-2.5 -73.5l-770 -773q-28 57 -72 113z" />
</svg>