<?xml version="1.0" standalone="no"?>
<!DOCTYPE svg PUBLIC "-//W3C//DTD SVG 1.1//EN" "http://www.w3.org/Graphics/SVG/1.1/DTD/svg11.dtd">
<svg xmlns="http://www.w3.org/2000/svg" xmlns:xlink="http://www.w3.org/1999/xlink" version="1.1"
   viewBox="94 -151 2414 2169">
   <path fill="currentColor"
      d="M714 1568q-162 0 -232.5 -41t-70.5 -136q0 -12 3.5 -32.5t13.5 -70.5l133 -642q17 -84 54 -119t107 -53l36 -9q62 -16 85 -44t30 -87l18 -167h291v281h236v-281h291l18 167q7 59 30 87t85 44l36 9q71 18 108 53t54 119l133 642q11 50 13.5 70.5t2.5 32.5q0 95 -70 136
t-233 41h-1172zM589 1978q-80 0 -129 -46t-49 -123v-418l80 20v398q0 43 28 66t70 23h1422q42 0 70 -23t28 -66v-380l80 -29v409q0 77 -48.5 123t-129.5 46h-1422zM885 1219h151q38 0 41 -27l12 -86q2 -14 -8 -24.5t-24 -10.5h-156q-28 0 -31 26l-14 85q-2 15 6.5 26
t22.5 11zM923 1019h148q27 0 32 -27l11 -87q2 -14 -7.5 -24t-23.5 -10h-145q-25 0 -30 26l-15 86q-2 13 7 24.5t23 11.5zM1208 1219h184q14 0 23.5 -9.5t8.5 -22.5l-4 -86q-1 -13 -10.5 -21.5t-20.5 -8.5h-178q-11 0 -20 8.5t-10 21.5l-4 86q-1 13 8.5 22.5t22.5 9.5z
M955 818h139q28 0 31 -28l11 -94q2 -14 -7.5 -24t-23.5 -10h-133q-26 0 -30 23l-17 96q-2 14 7.5 25.5t22.5 11.5zM797 1359q-30 0 -30 -31v-88q0 -9 1.5 -22.5t4.5 -26.5l119 -559q5 -23 28 -23h761q24 0 29 23l118 559q3 13 4.5 26.5t1.5 22.5v88q0 31 -30 31h-1007z
M1217 1019h166q13 0 22 -10t8 -22l-5 -86q-1 -14 -10 -22t-21 -8h-154q-12 0 -20.5 8t-9.5 22l-5 86q-1 12 7.5 22t21.5 10zM714 1488h1172q125 0 174 -19t49 -80q0 -9 -2 -23.5t-11 -56.5l-135 -647q-12 -57 -31 -78.5t-71 -32.5l-36 -8q-82 -18 -121 -62.5t-50 -138.5
l-11 -100h-153v281h-376v-281h-153l-11 100q-10 94 -49.5 138.5t-120.5 62.5l-36 8q-52 12 -71.5 33t-31.5 78l-134 647q-9 42 -11.5 56.5t-2.5 23.5q0 61 49.5 80t173.5 19zM1564 1219h151q15 0 23.5 -11t6.5 -26l-14 -85q-3 -26 -32 -26h-156q-13 0 -23 10.5t-8 24.5
l12 86q3 27 40 27zM1228 818h144q14 0 23.5 -9.5t8.5 -23.5l-5 -94q-2 -29 -32 -29h-134q-29 0 -31 29l-5 94q-1 14 8 23.5t23 9.5zM1529 1019h148q15 0 24 -11.5t7 -24.5l-15 -86q-5 -26 -31 -26h-145q-13 0 -22 10t-8 24l11 87q3 27 31 27zM1506 818h139q14 0 23.5 -11.5
t7.5 -25.5l-17 -96q-4 -23 -31 -23h-133q-13 0 -22 10t-8 24l11 94q3 28 30 28zM430 876q-178 0 -271.5 -68t-93.5 -195q0 -185 87 -320t250 -222.5t390.5 -130t507.5 -42.5q281 0 508 42.5t390 130t250 222.5t87 320q0 127 -93 195t-272 68q-49 0 -77.5 -2.5t-63.5 -9.5
l2 -85q28 10 58 13.5t80 3.5q146 0 216 -53t70 -130q0 -168 -80.5 -288.5t-232 -197t-364.5 -113t-478 -36.5t-478 36.5t-364.5 113t-232 197t-80.5 288.5q0 77 70.5 130t215.5 53q50 0 80.5 -3.5t58.5 -13.5l1 85q-34 7 -63 9.5t-78 2.5zM1147 365l1 -69q29 -2 70.5 -2.5
t81.5 -0.5t82 0.5t71 2.5v69q-28 -2 -71.5 -2h-81.5h-81t-72 2zM2495 485l8 79q-19 11 -75 24t-128.5 25t-144 19.5t-121.5 7.5q-18 0 -31 -1t-21 -4l-15 -77q9 1 21 2t24 1q51 0 121.5 -7t143.5 -18.5t132 -24.5t86 -26zM105 485q27 13 86.5 26t132.5 24.5t143.5 18.5
t120.5 7q13 0 25 -1t21 -2l-15 77q-8 3 -21.5 4t-31.5 1q-50 0 -121.5 -7.5t-144 -19.5t-128 -25t-74.5 -24z" />
</svg>