<?xml version="1.0" standalone="no"?>
<!DOCTYPE svg PUBLIC "-//W3C//DTD SVG 1.1//EN" "http://www.w3.org/Graphics/SVG/1.1/DTD/svg11.dtd">
<svg xmlns="http://www.w3.org/2000/svg" xmlns:xlink="http://www.w3.org/1999/xlink" version="1.1"
   viewBox="94 -151 2414 2169">
   <path fill="currentColor"
      d="M1236 1713q-157 0 -296 -60t-244.5 -166t-165.5 -246t-60 -300t60 -300t165.5 -246t244.5 -166t296 -60q158 0 296.5 60t244 166t165.5 246t60 300t-60 300t-165.5 246t-244 166t-296.5 60zM769 1978l-72 -277l78 -20l56 217h800l56 -217l78 20l-72 277h-924zM739 1262
l-30 -51l89 -51l30 51zM966 1467l-51 -29l51 -88l52 29zM804 1743q-80 0 -127 -33.5t-67.5 -120t-20.5 -246.5h21q139 173 286 250t328 77t328.5 -77t286.5 -250h20q0 160 -20.5 246.5t-67.5 120t-127 33.5h-244h-124h-45t-6.5 0t-6.5 0h-45.5h-124h-244.5zM645 971v-60h102
v60h-102zM1206 1532v-102h60v102h-60zM798 723l-88 -52l29 -51l88 51zM1506 1468l-51 -89l51 -30l51 89zM1172 963l-225 -135l41 -69l226 136zM1236 1633q141 0 265 -54t219 -149t148.5 -220.5t53.5 -268.5t-53.5 -268.5t-148.5 -220.5t-219 -149t-265 -54t-265 54t-219 149
t-148.5 220.5t-53.5 268.5t53.5 268.5t148.5 220.5t219 149t265 54zM1236 1046q-43 0 -74 -31t-31 -74q0 -44 31 -74.5t74 -30.5t74 30.5t31 74.5q0 43 -31 74t-74 31zM966 533l-51 -89l51 -30l51 89zM1733 1262l-88 -51l29 -52l88 52zM1292 952l-32 -52l289 -179l33 51z
M1725 971v-60h102v60h-102zM1206 452v-102h60v102h-60zM596 536q0 -160 20.5 -246t67.5 -119.5t127 -33.5h244.5h124h45.5t6.5 0t6.5 0h45h124h244q80 0 127 33.5t67.5 119.5t20.5 246h-20q-139 -173 -286.5 -249.5t-328.5 -76.5t-328 76.5t-286 249.5h-21zM1506 532
l-52 -29l52 -88l51 29zM1674 722l-30 -51l89 -51l30 51zM1974 1060q-33 0 -33 -32v-182q0 -32 33 -32h107q22 0 35.5 36.5t13.5 86.5q0 49 -13.5 86t-35.5 37h-107zM775 195l-78 -20l72 -277h924l72 277l-78 20l-56 -217h-800z" />
</svg>