<?xml version="1.0" standalone="no"?>
<!DOCTYPE svg PUBLIC "-//W3C//DTD SVG 1.1//EN" "http://www.w3.org/Graphics/SVG/1.1/DTD/svg11.dtd">
<svg xmlns="http://www.w3.org/2000/svg" xmlns:xlink="http://www.w3.org/1999/xlink" version="1.1"
   viewBox="94 -151 2414 2169">
   <path fill="currentColor"
      d="M1086 1978q-289 0 -428 -119t-147 -357l-35 -1034q-2 -74 52.5 -123.5t126.5 -49.5q49 0 92 27v-60q0 -72 50.5 -122.5t122.5 -50.5q49 0 92 27v-45q0 -72 50.5 -122.5t122.5 -50.5t122 50t50 122v52q43 -27 93 -27q48 0 87 23.5t62 62.5t23 87v707l46 -65
q58 -81 121.5 -119t141.5 -38q85 0 139 41.5t54 109.5q0 41 -18 70t-59 53q-66 39 -136 152.5t-152 325.5l-26 68q-80 210 -236 307.5t-411 97.5zM1086 1898q231 0 366.5 -83.5t206.5 -269.5l26 -68q58 -150 111.5 -253t106 -167.5t104.5 -97.5q23 -14 30 -25t7 -30
q0 -32 -30 -51.5t-83 -19.5q-54 0 -100.5 30t-100.5 99l-105 134q-108 15 -193.5 79t-135.5 159t-50 204h-80q0 -117 48.5 -220t133.5 -178.5t194 -106.5v-765q0 -39 -27 -66t-65 -27q-39 0 -66 27t-27 66v621h-80v-819q0 -38 -27 -65t-65 -27q-39 0 -66 27t-27 66v818h-80
v-627q0 -39 -27 -66t-65 -27q-39 0 -66 27t-27 66v627h-80v-421q0 -39 -27 -66t-65 -27q-39 0 -69.5 27t-29.5 66l35 1032q7 203 122.5 300.5t372.5 97.5z" />
</svg>