<?xml version="1.0" standalone="no"?>
<!DOCTYPE svg PUBLIC "-//W3C//DTD SVG 1.1//EN" "http://www.w3.org/Graphics/SVG/1.1/DTD/svg11.dtd">
<svg xmlns="http://www.w3.org/2000/svg" xmlns:xlink="http://www.w3.org/1999/xlink" version="1.1"
   viewBox="94 -151 2414 2169">
   <path fill="currentColor"
      d="M1300 1978q-171 0 -326 -53.5t-285.5 -150.5t-226.5 -227.5t-149 -285.5t-53 -323t53 -323t149 -285.5t226.5 -227.5t285.5 -150.5t326 -53.5t326 53.5t285.5 150.5t226.5 227.5t149 285.5t53 323t-53 323t-149 285.5t-226.5 227.5t-285.5 150.5t-326 53.5zM1245 1511
h110l105 -665q23 -141 75.5 -207.5t142.5 -66.5q86 0 143.5 62t61.5 151h120q-3 -93 -46.5 -168.5t-115.5 -120t-163 -44.5q-138 0 -224 90.5t-114 285.5l-40 282l-40 -282q-28 -195 -114 -285.5t-224 -90.5q-90 0 -162.5 44.5t-116 120t-46.5 168.5h120q4 -89 62 -151
t143 -62q90 0 143 66.5t75 207.5z" />
</svg>