<?xml version="1.0" standalone="no"?>
<!DOCTYPE svg PUBLIC "-//W3C//DTD SVG 1.1//EN" "http://www.w3.org/Graphics/SVG/1.1/DTD/svg11.dtd">
<svg xmlns="http://www.w3.org/2000/svg" xmlns:xlink="http://www.w3.org/1999/xlink" version="1.1"
   viewBox="94 -151 2414 2169">
   <path fill="currentColor"
      d="M1300 1978q-213 0 -401.5 -81.5t-332 -225.5t-225 -332.5t-81.5 -401.5t81.5 -401t225 -331.5t332 -225t401.5 -81.5t401.5 81.5t332 225t225 331.5t81.5 401t-81.5 401.5t-225 332.5t-332 225.5t-401.5 81.5zM1139 1288q-88 -37 -144 -114.5t-63 -171.5l60 -2
q6 76 51 138t118 93zM947 1692l-4 -16q130 -38 212 -134t82 -230q0 -41 -10.5 -96t-27.5 -97q-9 -23 0 -32l21 -22q8 -8 16 -8t20.5 6.5t43.5 6.5q27 0 42 -6.5t22 -6.5q8 0 16 8l21 22q9 9 0 32q-16 42 -27 97t-11 96q0 134 82 230t212 134l-4 16q-107 -17 -176.5 -54
t-131.5 -116q-13 -17 -23.5 -28t-21.5 -11q-10 0 -20.5 11t-24.5 28q-62 79 -131.5 116t-176.5 54zM472 1184l-14 -5q27 -99 68 -167t103 -118q56 -45 137 -73.5t200 -42.5q-57 -87 -88 -164t-31 -155q0 -76 25.5 -147t80.5 -148l11 7q-29 59 -42.5 108t-13.5 97
q0 98 43.5 180.5t120.5 137.5t179 72q21 3 21 24q0 17 -18 25q-83 36 -83 113q0 14 3 30.5t7 35.5q5 19 -9 30q-22 16 -39 -3q-59 -60 -129.5 -88.5t-143.5 -28.5q-141 0 -258 95q-77 62 -130 185zM1300 1898q197 0 370.5 -75.5t306 -208t208 -306.5t75.5 -371t-75.5 -370.5
t-208 -306t-306 -207.5t-370.5 -75t-370.5 75t-306 207.5t-208 306t-75.5 370.5t75.5 371t208 306.5t306 208t370.5 75.5zM1461 1288l-21 -57q72 -31 117.5 -93t52.5 -138l59 2q-7 95 -63.5 172.5t-144.5 113.5zM1134 668l-32 -51q89 -55 198 -55q108 0 197 55l-31 51
q-77 -46 -166 -46t-166 46zM2128 1184q-53 -123 -130 -185q-117 -95 -258 -95q-73 0 -143.5 28.5t-129.5 88.5q-17 19 -39 3q-13 -11 -9 -30q5 -19 7.5 -35.5t2.5 -30.5q0 -77 -83 -113q-18 -8 -18 -25q0 -21 21 -24q102 -17 179.5 -72t120.5 -137.5t43 -180.5
q0 -48 -13.5 -97t-42.5 -108l11 -7q56 77 81 148t25 147q0 78 -31 155t-88 164q122 14 202 42.5t135 73.5q62 50 103 118t68 167z" />
</svg>