<?xml version="1.0" standalone="no"?>
<!DOCTYPE svg PUBLIC "-//W3C//DTD SVG 1.1//EN" "http://www.w3.org/Graphics/SVG/1.1/DTD/svg11.dtd">
<svg xmlns="http://www.w3.org/2000/svg" xmlns:xlink="http://www.w3.org/1999/xlink" version="1.1"
   viewBox="94 -151 2414 2169">
   <path fill="currentColor"
      d="M1683 1778q-208 0 -360 -140q-104 49 -228 49q-100 0 -191 -33.5t-154 -94.5q-84 28 -175 28q-122 0 -223 -46.5t-160.5 -125.5t-59.5 -175q0 -90 51 -165t134 -123t179 -56q6 -105 61 -190t143 -135.5t194 -50.5q17 0 34.5 1.5t33.5 4.5q44 -128 132.5 -224t208 -150
t254.5 -54q129 0 242.5 48.5t199.5 134.5t134.5 199.5t48.5 242.5q0 35 -3.5 70t-11.5 69q86 15 154 66.5t107.5 127.5t39.5 166q0 100 -49.5 183t-132 132.5t-183.5 49.5h-12q-75 91 -182 141t-226 50zM1683 1698q112 0 210 -51t162 -143q16 2 26 2.5t22 0.5
q79 0 143.5 -38.5t103 -103.5t38.5 -143q0 -86 -44.5 -154t-115.5 -107.5t-151 -39.5q9 -38 17 -89.5t8 -108.5q0 -113 -42.5 -211.5t-117.5 -173.5t-173.5 -117.5t-211.5 -42.5q-117 0 -221 46.5t-181.5 129.5t-115.5 193q112 44 183 143.5t71 218.5h-80q0 -83 -43 -153.5
t-115.5 -113t-160.5 -42.5t-160.5 43t-115.5 115.5t-43 160.5v51q-111 8 -192.5 46.5t-126 97t-44.5 126.5q0 73 49 133.5t131.5 97t182.5 36.5q107 0 198 -44q49 67 134.5 105.5t187.5 38.5q140 0 242 -69q138 160 346 160z" />
</svg>