<?xml version="1.0" standalone="no"?>
<!DOCTYPE svg PUBLIC "-//W3C//DTD SVG 1.1//EN" "http://www.w3.org/Graphics/SVG/1.1/DTD/svg11.dtd">
<svg xmlns="http://www.w3.org/2000/svg" xmlns:xlink="http://www.w3.org/1999/xlink" version="1.1"
   viewBox="94 -151 2414 2169">
   <path fill="currentColor"
      d="M1300 1978q-171 0 -326 -53.5t-285.5 -150.5t-226.5 -227.5t-149 -285.5t-53 -323t53 -323t149 -285.5t226.5 -227.5t285.5 -150.5t326 -53.5t326 53.5t285.5 150.5t226.5 227.5t149 285.5t53 323t-53 323t-149 285.5t-226.5 227.5t-285.5 150.5t-326 53.5zM1837 1651
l61 -106q-96 -55 -142.5 -100.5t-68.5 -104.5q178 -155 270.5 -303t92.5 -277q0 -125 -66 -199.5t-176 -74.5q-94 0 -155 61q-17 -118 -87 -184t-179 -66q-145 0 -212 115q-67 -115 -210 -115q-129 0 -200 85t-71 239v770h120v-770q0 -204 151 -204q74 0 112.5 52t38.5 152
v770h120v-770q0 -204 151 -204q74 0 112.5 52t38.5 152v486q0 58 3 104.5t10 84.5q-127 103 -287 202l63 102q77 -47 141.5 -92t121.5 -90q32 66 88.5 119.5t158.5 113.5zM1661 1200q-1 -23 -2 -46.5t-1 -46.5v-315q0 -88 38 -137t106 -49q61 0 94.5 40t33.5 114
q0 92 -68.5 204.5t-200.5 235.5z" />
</svg>