<?xml version="1.0" standalone="no"?>
<!DOCTYPE svg PUBLIC "-//W3C//DTD SVG 1.1//EN" "http://www.w3.org/Graphics/SVG/1.1/DTD/svg11.dtd">
<svg xmlns="http://www.w3.org/2000/svg" xmlns:xlink="http://www.w3.org/1999/xlink" version="1.1"
   viewBox="94 -151 2414 2169">
   <path fill="currentColor"
      d="M862 1226q-68 0 -125 -34.5t-90.5 -92.5t-33.5 -128q0 -71 33.5 -128.5t90.5 -92t125 -34.5q91 0 175.5 60t198.5 196q-113 134 -197.5 194t-176.5 60zM860 1326q116 0 217 -68t223 -212q122 144 223.5 212t216.5 68q96 0 174.5 -48t125.5 -129t47 -178q0 -98 -47 -178.5
t-125.5 -128.5t-174.5 -48q-115 0 -215.5 68t-224.5 213q-123 -145 -223.5 -213t-216.5 -68q-95 0 -174 48t-126 128.5t-47 178.5q0 97 47 178t126 129t174 48zM1738 1226q-91 0 -176 -60t-198 -194q114 -136 198.5 -196t175.5 -60q69 0 125.5 34.5t90 92t33.5 128.5
q0 70 -33.5 128t-90 92.5t-125.5 34.5zM426 1978q-68 0 -117 -48.5t-49 -115.5v-1751q0 -68 49 -116.5t116 -48.5h1750q68 0 116.5 48.5t48.5 116.5v1750q0 67 -48.5 116t-116.5 49h-1749z" />
</svg>