<?xml version="1.0" standalone="no"?>
<!DOCTYPE svg PUBLIC "-//W3C//DTD SVG 1.1//EN" "http://www.w3.org/Graphics/SVG/1.1/DTD/svg11.dtd">
<svg xmlns="http://www.w3.org/2000/svg" xmlns:xlink="http://www.w3.org/1999/xlink" version="1.1"
   viewBox="94 -151 2414 2169">
   <path fill="currentColor"
      d="M1301 1978q-214 0 -402.5 -81.5t-332 -225t-225 -332t-81.5 -401.5t81.5 -401.5t225 -332t332 -225t402.5 -81.5q213 0 401 81.5t331.5 225t225 332t81.5 401.5t-81.5 401.5t-225 332t-331.5 225t-401 81.5zM1341 1923q8 -44 13 -90t5 -90q0 -182 -28 -328t-99 -274.5
t-201 -255.5q-102 -100 -210.5 -154.5t-199.5 -54.5q-57 0 -109.5 19.5t-98.5 58.5t-85 96l-42 -72q46 -59 99 -99.5t112.5 -61.5t123.5 -21q106 0 228.5 59.5t234.5 169.5q148 144 224 287.5t103.5 298t27.5 332.5q0 41 -5.5 89t-12.5 91h-80zM1376 1796l-92 -52
q-19 -11 -19 -32q0 -17 11.5 -29t27.5 -12q15 0 30 9l62 36l70 -29q14 -6 26 -6q19 0 28 13t9 26q0 12 -7.5 22.5t-21.5 16.5l-89 37h-35zM1384 1563l-119 -29q-29 -6 -29 -37q0 -23 17 -33t42 -4l85 20l73 -57q14 -11 29 -11q17 0 28 11.5t11 27.5q0 10 -4.5 19t-14.5 17
l-84 67zM569 793q-18 0 -28 -10.5t-10 -26.5q0 -19 11 -34l61 -91l-24 -90q-7 -25 4.5 -41.5t31.5 -16.5q14 0 26 9.5t16 26.5l28 106l-2 33l-83 119q-11 16 -31 16zM1318 1278l-143 -16q-15 -2 -25 -12.5t-10 -25.5q0 -20 15.5 -31t38.5 -9l110 12l77 -78q19 -19 39 -19
q16 0 28 13.5t12 29.5q0 17 -14 30l-96 91zM831 887q-17 0 -28 -12.5t-11 -25.5q0 -20 24 -39l88 -68l3 -96q1 -22 12 -34.5t29 -12.5t29.5 13t10.5 36l-4 113l-14 31l-115 87q-11 8 -24 8zM1033 1030q-18 4 -32 -8t-14 -31q0 -31 41 -40l108 -24l50 -100q8 -14 18 -22
t22 -8q23 0 34 18.5t0 41.5l-59 120l-26 23zM1301 1898q197 0 370.5 -75.5t305.5 -208t207.5 -306t75.5 -370.5t-75.5 -370.5t-207.5 -306t-305.5 -208t-370.5 -75.5t-371 75.5t-306.5 208t-208 306t-75.5 370.5t75.5 370.5t208 306t306.5 208t371 75.5zM1257 306
q-22 0 -32.5 -20t-0.5 -42l45 -95l29 -24l112 -8q21 -2 34 10.5t13 29.5q0 37 -45 40l-80 5l-36 76q-6 13 -16.5 20.5t-22.5 7.5zM1487 536q-22 0 -33 -15.5t-6 -39.5l28 -126l23 -31l129 -39q23 -7 39 6.5t16 30.5q0 29 -34 40l-99 31l-21 103q-4 19 -15.5 29.5t-26.5 10.5
zM1750 749q-19 0 -29.5 -15.5t-7.5 -38.5l15 -125l22 -32l123 -49q25 -10 41.5 2t16.5 33q0 27 -32 40l-94 36l-13 106q-2 20 -13.5 31.5t-28.5 11.5zM2302 1002q-142 -90 -289.5 -196.5t-289 -220t-265.5 -224.5t-221 -210t-155 -175l70 -41q51 69 143 163t213 201.5
t259 219t282.5 217t283.5 194.5zM2005 911q-18 0 -27 -12.5t-9 -33.5v-105l18 -33l101 -55q22 -12 40.5 1.5t18.5 33.5q0 25 -27 39l-75 40v77q0 23 -11 35.5t-29 12.5z" />
</svg>