<?xml version="1.0" standalone="no"?>
<!DOCTYPE svg PUBLIC "-//W3C//DTD SVG 1.1//EN" "http://www.w3.org/Graphics/SVG/1.1/DTD/svg11.dtd">
<svg xmlns="http://www.w3.org/2000/svg" xmlns:xlink="http://www.w3.org/1999/xlink" version="1.1"
   viewBox="94 -151 2414 2169">
   <path fill="currentColor"
      d="M320 1978v-689q-55 -183 -55 -444l80 -40q0 156 14 275t41 204v614h1792v-614q27 -85 41 -204t14 -275l80 40q0 261 -55 444v689h-1952zM515 1450v-50h110v50h-110zM692 1938v-654q27 -84 41 -203t14 -276l80 40q0 261 -55 444v649h-80zM846 1525v-50h110v50h-110z
M1173 1938v-198q0 -53 33 -90t90 -37t90 37t33 90v198h-246zM475 1030q-25 0 -25 -29v-206h50v206q0 29 -25 29zM955 1405v-50h110v50h-110zM983 1938v-184q0 -83 31.5 -144.5t103.5 -118.5l178 -141l178 141q72 57 103.5 118.5t31.5 144.5v184h-80v-184q0 -67 -23.5 -111
t-82.5 -90l-127 -101l-127 101q-58 46 -82 90t-24 111v184h-80zM617 1030q-25 0 -25 -29v-206h50v206q0 29 -25 29zM265 845q40 -65 72 -120t57 -110q58 -125 91.5 -177t60.5 -52t60.5 52t91.5 177q26 55 57.5 110t71.5 120q-83 -5 -148 -6.5t-133 -1.5q-67 0 -132.5 1.5
t-148.5 6.5zM754 1289l30 -200h227q25 0 25 25v62h140v-61q0 -25 25 -25h190q25 0 25 25v61h140v-62q0 -25 25 -25h241l30 200h-1098zM1595 1465v-50h110v50h-110zM1995 1765v-50h110v50h-110zM521 498v-348q44 0 73.5 9.5t59 21.5t71 21.5t110.5 9.5q0 15 -32 32
t-77.5 35.5t-88.5 37.5t-66 39v142h-50zM1141 945q-40 -58 -81.5 -86t-91.5 -28v-87h656v87q-49 0 -91 28t-82 86q-26 -42 -66.5 -68t-88.5 -26t-88.5 26t-66.5 68zM1820 1938v-649q-55 -183 -55 -444l80 -40q0 157 14 276t41 203v654h-80zM1584 1262v-896l80 20v876h-80z
M1205 783v-241q0 -44 25.5 -72.5t65.5 -28.5t65.5 28.5t25.5 72.5v241h-182zM1975 1030q-25 0 -25 -29v-206h50v206q0 29 -25 29zM928 386l130 -220q63 -106 104 -164t72 -81t62 -23t62 23t72.5 81t103.5 164l130 220h-736zM2117 1030q-25 0 -25 -29v-206h50v206
q0 29 -25 29zM1765 845q40 -65 72 -120t57 -110q58 -125 91.5 -177t60.5 -52t60.5 52t91.5 177q26 55 57.5 110t71.5 120q-83 -5 -148 -6.5t-133 -1.5q-67 0 -132.5 1.5t-148.5 6.5zM2021 498v-348q44 0 73.5 9.5t59 21.5t71 21.5t110.5 9.5q0 15 -32 32t-77.5 35.5
t-88.5 37.5t-66 39v142h-50zM928 1262v-876l80 -20v896h-80z" />
</svg>