<?xml version="1.0" standalone="no"?>
<!DOCTYPE svg PUBLIC "-//W3C//DTD SVG 1.1//EN" "http://www.w3.org/Graphics/SVG/1.1/DTD/svg11.dtd">
<svg xmlns="http://www.w3.org/2000/svg" xmlns:xlink="http://www.w3.org/1999/xlink" version="1.1"
   viewBox="94 -151 2414 2169">
   <path fill="currentColor"
      d="M1904 1828q-130 0 -252 -34t-240.5 -84t-237 -100.5t-241.5 -84.5t-255 -34q-128 0 -270.5 32.5t-283.5 100.5v-1394q159 -101 304.5 -141.5t267.5 -40.5q130 0 252 34t240.5 84t237 100.5t241.5 84.5t255 34q128 0 270.5 -33t283.5 -100v1394q-159 100 -304.5 141
t-267.5 41zM1904 1748q119 0 239 -34t253 -113v-1229q-238 93 -474 93q-136 0 -263 -34t-248 -84.5t-239 -100.5t-236 -84t-240 -34q-118 0 -238.5 34t-253.5 113v1229q238 -93 474 -93q136 0 263 34t248 84t239 100.5t236.5 84.5t239.5 34zM1224 1094q2 -58 13 -94.5
t36 -67.5t68 -70q41 -38 64 -66t23 -74q0 -62 -31.5 -97t-92.5 -35q-57 0 -92.5 32t-42.5 86h-131q0 -99 74.5 -165.5t190.5 -66.5q124 0 191.5 65t67.5 176q0 62 -31 111t-109 117q-43 38 -56 65t-17 84h-125zM1287 1400q-41 0 -71 -30t-30 -71t30 -71t71 -30t71 30t30 71
t-30 71t-71 30z" />
</svg>