<?xml version="1.0" standalone="no"?>
<!DOCTYPE svg PUBLIC "-//W3C//DTD SVG 1.1//EN" "http://www.w3.org/Graphics/SVG/1.1/DTD/svg11.dtd">
<svg xmlns="http://www.w3.org/2000/svg" xmlns:xlink="http://www.w3.org/1999/xlink" version="1.1"
   viewBox="94 -151 2414 2169">
   <path fill="currentColor"
      d="M1300 1978q-228 0 -389 -31.5t-246 -91.5t-85 -145v-847q0 -46 58 -87.5t158.5 -74t230 -51t273.5 -18.5t274 18.5t230.5 51t158 74t57.5 87.5v847q0 85 -85 145t-245.5 91.5t-389.5 31.5zM1200 1704q-19 0 -30 -14.5t-5 -31.5l69 -194q-34 -30 -49.5 -59t-15.5 -60
q0 -54 36.5 -87.5t94.5 -33.5t94.5 33.5t36.5 87.5q0 31 -15.5 60t-49.5 59l69 194q6 17 -4.5 31.5t-30.5 14.5h-200zM1300 1900q142 0 259 -14t202.5 -39t132 -60t46.5 -77v-847q0 -26 -58 -53t-152.5 -49.5t-207 -36.5t-222.5 -14t-222.5 14t-207 36.5t-152.5 49.5t-58 53
v847q0 42 46.5 77t132 60t202.5 39t259 14zM1300 1093q-223 0 -384.5 -28t-248.5 -79.5t-87 -122.5h80q0 40 88 74.5t233.5 55.5t318.5 21t318.5 -21t233.5 -55.5t88 -74.5h80q0 71 -87 122.5t-248 79.5t-385 28zM1662 911q-40 0 -71 -15t-31 -35t30.5 -34.5t71.5 -14.5
t71.5 14.5t30.5 34.5t-30.5 35t-71.5 15zM919 884q-32 0 -56.5 -6t-33.5 -16v-467q0 -149 59 -261t165 -174t247 -62q142 0 247.5 62t164.5 174t59 261v113q-9 10 -33.5 16t-56.5 6t-56.5 -6t-33.5 -16v-113q0 -155 -77 -241t-214 -86t-214 86t-77 241v467q-9 10 -33.5 16
t-56.5 6z" />
</svg>