<?xml version="1.0" standalone="no"?>
<!DOCTYPE svg PUBLIC "-//W3C//DTD SVG 1.1//EN" "http://www.w3.org/Graphics/SVG/1.1/DTD/svg11.dtd">
<svg xmlns="http://www.w3.org/2000/svg" xmlns:xlink="http://www.w3.org/1999/xlink" version="1.1"
   viewBox="94 -151 2414 2169">
   <path fill="currentColor"
      d="M750 1398q185 0 275 -94t90 -230v-571h-185v539q0 103 -41.5 151t-133.5 48q-88 0 -132 -44.5t-44 -153.5v-540h-186v569q0 146 91.5 236t265.5 90zM1266 1385h188v-313h79q129 0 204.5 -41t107.5 -108.5t32 -144.5q0 -128 -79 -201.5t-249 -73.5h-283v882zM1454 919
v-262h85q76 0 111.5 31.5t35.5 94.5q0 71 -46 103.5t-124 32.5h-62zM2092 1401q43 0 74 -24t31 -79q0 -57 -31 -80t-74 -23q-44 0 -75.5 23t-31.5 80q0 55 31.5 79t75.5 24zM2019 1092h146l32 -589h-210zM426 1978q-68 0 -117 -48.5t-49 -115.5v-1751q0 -68 49 -116.5
t116 -48.5h1750q68 0 116.5 48.5t48.5 116.5v1750q0 67 -48.5 116t-116.5 49h-1749z" />
</svg>