<?xml version="1.0" standalone="no"?>
<!DOCTYPE svg PUBLIC "-//W3C//DTD SVG 1.1//EN" "http://www.w3.org/Graphics/SVG/1.1/DTD/svg11.dtd">
<svg xmlns="http://www.w3.org/2000/svg" xmlns:xlink="http://www.w3.org/1999/xlink" version="1.1"
   viewBox="94 -151 2414 2169">
   <path fill="currentColor"
      d="M1301 1978q213 0 401 -81.5t331.5 -225t225 -332t81.5 -401.5t-81.5 -401.5t-225 -332t-331.5 -225t-401 -81.5q-214 0 -402.5 81.5t-332 225t-225 332t-81.5 401.5t81.5 401.5t225 332t332 225t402.5 81.5zM1464 1453q49 0 97 -1.5t94 -5.5l-6 -80q-45 4 -92 5.5
t-95 1.5q-159 -1 -323 -18.5t-316 -49t-277.5 -75t-208.5 -95.5l-42 68q88 55 218.5 101t288 79.5t327.5 51.5t335 18zM1668 1881l59 -62q-95 -34 -166 -147l-68 42q74 117 175 167zM1225 1779q159 0 315 -46l24 -18q87 -150 131 -318t44 -327q0 -149 -38.5 -279
t-115.5 -221l-60 52q68 79 101.5 195.5t33.5 250.5q0 145 -39.5 299.5t-118.5 293.5q-69 19 -138 28.5t-140 9.5q-157 0 -331 -49t-386 -149l-34 72q221 104 403.5 155t348.5 51zM1694 1124l6 -80q-88 -6 -208.5 -20.5t-256.5 -36t-274 -49.5t-262.5 -62t-221 -73
t-149.5 -81l-50 62q57 46 158 87.5t230.5 77t271.5 65.5t282 52.5t263 37t211 20.5zM1301 1898q-197 0 -371 -75.5t-306.5 -208t-208 -306t-75.5 -370.5t75.5 -370.5t208 -306t306.5 -208t371 -75.5t370.5 75.5t305.5 208t207.5 306t75.5 370.5t-75.5 370.5t-207.5 306
t-305.5 208t-370.5 75.5zM801 484q40 -108 115 -212t167 -183.5t181 -113.5l-28 -74q-100 38 -201.5 124t-183.5 199t-126 232zM1537 632l35 -17q93 -136 226.5 -206.5t273.5 -70.5l4 -80q-157 0 -305 74.5t-252 218.5q-262 -14 -522 -67.5t-535 -150.5l-26 76
q257 90 529.5 149.5t571.5 73.5zM1955 1722q74 -184 110.5 -363.5t36.5 -343.5q0 -217 -63 -397t-188 -300l-56 58q113 108 170 273.5t57 365.5q0 165 -39 346.5t-118 367.5zM1077 548q58 -134 158.5 -243.5t220.5 -177.5t235 -75l-4 -80q-131 8 -265 82t-244.5 194
t-174.5 268z" />
</svg>