<?xml version="1.0" standalone="no"?>
<!DOCTYPE svg PUBLIC "-//W3C//DTD SVG 1.1//EN" "http://www.w3.org/Graphics/SVG/1.1/DTD/svg11.dtd">
<svg xmlns="http://www.w3.org/2000/svg" xmlns:xlink="http://www.w3.org/1999/xlink" version="1.1"
   viewBox="94 -151 2414 2169">
   <path fill="currentColor"
      d="M870 1418h120l337 -950h-125l-212 607q-14 40 -25.5 76t-20.5 69t-15 65q-6 -32 -15 -64.5t-19.5 -68t-24.5 -74.5l-214 -610h-125zM1692 1431q104 0 180 -31.5t117.5 -91.5t41.5 -144q0 -74 -29.5 -123t-87.5 -84t-142 -66q-77 -29 -122.5 -54.5t-65 -57.5t-19.5 -79
q0 -62 45.5 -101t133.5 -39q62 0 120 14.5t107 35.5l37 -102q-53 -24 -118 -38.5t-143 -14.5q-134 0 -218 65.5t-84 177.5q0 74 27 126t81.5 89.5t134.5 66.5q129 46 176.5 85.5t47.5 108.5q0 71 -54 112.5t-160 41.5q-76 0 -147 -17.5t-118 -38.5v114q44 22 112 33.5
t147 11.5zM426 1978q-68 0 -117 -48.5t-49 -115.5v-1751q0 -68 49 -116.5t116 -48.5h1750q68 0 116.5 48.5t48.5 116.5v1750q0 67 -48.5 116t-116.5 49h-1749z" />
</svg>