<?xml version="1.0" standalone="no"?>
<!DOCTYPE svg PUBLIC "-//W3C//DTD SVG 1.1//EN" "http://www.w3.org/Graphics/SVG/1.1/DTD/svg11.dtd">
<svg xmlns="http://www.w3.org/2000/svg" xmlns:xlink="http://www.w3.org/1999/xlink" version="1.1"
   viewBox="94 -151 2414 2169">
   <path fill="currentColor"
      d="M1120 1978q-277 0 -439 -111.5t-162 -341.5v-539l-114 -466q-13 -53 4.5 -97t56.5 -70.5t91 -26.5q28 0 60 10l-20 -81q-12 -50 6.5 -93.5t58.5 -70.5t92 -27q51 0 94.5 34t59.5 87l174 578l234 -713q50 -152 174 -152q83 0 127 59.5t23 142.5l-5 20q11 -3 22.5 -4.5
t24.5 -1.5q79 0 119 52t26 132l-136 779l62 -90q59 -86 120 -119.5t132 -33.5q79 0 137 45.5t58 112.5q0 42 -22 74t-60 57q-49 31 -98.5 76.5t-94.5 98t-79.5 106t-52.5 101.5l-26 68q-80 210 -236 307.5t-411 97.5zM1120 1898q231 0 366.5 -83.5t206.5 -269.5l26 -68
q27 -71 83.5 -151.5t128 -153t143.5 -117.5q23 -14 34.5 -27.5t11.5 -35.5q0 -33 -34.5 -55.5t-80.5 -22.5q-51 0 -96.5 33t-110.5 110l-88 105q-126 35 -214.5 104t-135 163.5t-46.5 208.5h-80q0 -119 45 -220t128 -179t196 -125l146 -830q8 -44 -9.5 -67t-57.5 -23
q-66 0 -89 78l-186 659l-78 -22l233 -831q12 -44 -8 -72t-64 -28q-66 0 -98 98l-251 756q-10 30 -25 44t-35 14q-22 0 -37.5 -14.5t-22.5 -36.5l-189 -630q-8 -29 -30.5 -47t-47.5 -18q-40 0 -64 27.5t-15 63.5l179 717l-78 20l-122 -486q-9 -37 -35.5 -58.5t-61.5 -21.5
q-39 0 -61.5 27.5t-12.5 68.5l116 473v542q0 198 137 289.5t384 91.5z" />
</svg>