<?xml version="1.0" standalone="no"?>
<!DOCTYPE svg PUBLIC "-//W3C//DTD SVG 1.1//EN" "http://www.w3.org/Graphics/SVG/1.1/DTD/svg11.dtd">
<svg xmlns="http://www.w3.org/2000/svg" xmlns:xlink="http://www.w3.org/1999/xlink" version="1.1"
   viewBox="94 -151 2414 2169">
   <path fill="currentColor"
      d="M1421 1368l-177 -714h93l103 436q11 46 19 89t12 81q5 -39 14.5 -85t21.5 -90l116 -431h92l121 434q13 46 22 91.5t14 80.5q5 -37 13.5 -80.5t19.5 -90.5l102 -435h92l-178 714h-91l-127 -468q-8 -29 -15.5 -58t-12.5 -51.5t-6 -31.5q-1 9 -6 31.5t-11.5 52t-14.5 60.5
l-124 465h-92z" />
</svg>