<?xml version="1.0" standalone="no"?>
<!DOCTYPE svg PUBLIC "-//W3C//DTD SVG 1.1//EN" "http://www.w3.org/Graphics/SVG/1.1/DTD/svg11.dtd">
<svg xmlns="http://www.w3.org/2000/svg" xmlns:xlink="http://www.w3.org/1999/xlink" version="1.1"
   viewBox="94 -151 2414 2169">
   <path fill="currentColor"
      d="M1351 1928q-61 0 -106 -29l-1069 -672q-58 -36 -83 -74.5t-25 -93.5v-217q0 -110 103 -184l939 -663q66 -47 135 -47q64 0 130 39l1045 624q50 29 81 82t31 108v166q0 46 -23 92.5t-64 78.5l-962 745q-58 45 -132 45zM836 791l-176 -65l-142 60l-71 -62l198 -141l262 152
zM847 989l-73 -65l166 -118l91 99zM1335 1508q-57 0 -105 -30l-1099 -678l40 -66l1100 678q33 20 65 20q35 0 71 -27l986 -751l46 62l-984 751q-54 41 -120 41zM1496 1181l-176 -64l-142 60l-72 -63l126 -91l134 -15l200 117zM1351 1848q46 0 83 -28l962 -745q26 -20 41 -50
t15 -58v-166q0 -34 -20.5 -68t-52.5 -53l-1045 -624q-46 -28 -89 -28t-89 32l-939 663q-69 48 -69 119v217q0 32 14 53t56 47l1070 673q25 16 63 16zM1262 1083q-35 14 -51 11.5t-42 -27.5l-277 -276q-18 -18 -17.5 -58t15.5 -77.5t40 -47.5l393 -162q38 -16 54.5 -11.5
t43.5 33.5l267 284q16 16 13.5 54.5t-17.5 74.5t-37 45zM1245 1005l345 -141q18 -7 26 -21t6 -30.5t-15 -29.5l-235 -250q-6 -7 -15.5 -9t-17.5 2l-354 146q-18 7 -26 21.5t-5.5 31t15.5 30.5l244 243q6 6 15 8.5t17 -1.5zM1146 566l-172 -63l-137 58l-71 -62l194 -137
l255 149zM1806 966l-172 -62l12 -129l229 136zM1428 365l-160 -59l-131 56l-68 -59l183 -131l242 142zM1761 575l-163 -60l-132 56l-66 -58l182 -130l241 142zM2090 767l-164 -60l-131 56l-67 -59l184 -133l242 144z" />
</svg>