<?xml version="1.0" standalone="no"?>
<!DOCTYPE svg PUBLIC "-//W3C//DTD SVG 1.1//EN" "http://www.w3.org/Graphics/SVG/1.1/DTD/svg11.dtd">
<svg xmlns="http://www.w3.org/2000/svg" xmlns:xlink="http://www.w3.org/1999/xlink" version="1.1"
   viewBox="94 -151 2414 2169">
   <path fill="currentColor"
      d="M439 1978q-73 0 -121 -48t-48 -121q0 -49 25 -101l839 -1695q57 -115 166 -115t166 115l839 1695q25 52 25 101q0 73 -47.5 121t-121.5 48h-1722zM1300 1685q-36 0 -61.5 -25.5t-25.5 -62.5t25 -62t62 -25t62 25t25 62t-25.5 62.5t-61.5 25.5zM439 1898h1722
q41 0 65 -23.5t24 -63.5q0 -35 -17 -67l-839 -1696q-34 -70 -94 -70q-59 0 -94 71l-839 1694q-17 34 -17 68q0 39 24.5 63t64.5 24zM1300 1412q-20 0 -34 -12.5t-16 -31.5l-62 -765q-5 -62 27 -101.5t85 -39.5q54 0 85.5 40t26.5 101l-62 765q-1 19 -15.5 31.5t-34.5 12.5z
" />
</svg>