<?xml version="1.0" standalone="no"?>
<!DOCTYPE svg PUBLIC "-//W3C//DTD SVG 1.1//EN" "http://www.w3.org/Graphics/SVG/1.1/DTD/svg11.dtd">
<svg xmlns="http://www.w3.org/2000/svg" xmlns:xlink="http://www.w3.org/1999/xlink" version="1.1"
   viewBox="94 -151 2414 2169">
   <path fill="currentColor"
      d="M1766 1878q-48 0 -85.5 -27t-51.5 -73l-76 -244h-225q-74 0 -135 -36t-96.5 -96.5t-35.5 -133.5q-70 -6 -118.5 -50.5t-59.5 -110.5h-470q-64 0 -107.5 -43.5t-43.5 -107.5v-270q0 -65 43.5 -108t107.5 -43h119q-52 -41 -82.5 -102.5t-30.5 -133.5q0 -83 41 -151.5
t109.5 -109t151.5 -40.5h784q94 0 171 53t110 139h51q0 -64 43.5 -106.5t107.5 -42.5h152q65 0 108 43t43 108v272q0 55 -32 95q32 40 32 95v274q0 66 -42.5 107.5t-110.5 43.5q-3 66 -41 114.5t-95 65.5l181 473q22 56 -9.5 101t-90.5 45h-317zM221 934q-19 0 -28.5 -10
t-19 -19.5t-29.5 -9.5h-25q-16 0 -28.5 -12.5t-12.5 -31.5v-86q0 -19 12.5 -31.5t28.5 -12.5h25q20 0 29.5 -10t19 -19.5t28.5 -9.5h49v252h-49zM634 1145q-31 0 -31 -32v-556h63v556q0 32 -32 32zM764 1145q-31 0 -31 -32v-556h63v556q0 32 -32 32zM1373 1394
q-164 0 -164 -155v-36h315l57 191h-208zM1372 1355q24 0 24 -25v-14h56v11q0 27 35 27h40l-33 -111h-8q-34 0 -34 26v9h-56v-10q0 -25 -24 -25q-25 0 -25 25v62q0 25 25 25zM1766 1812h317q24 0 35 -16.5t3 -38.5l-57 -148h-233q-19 0 -31.5 -12t-12.5 -31t12.5 -31
t31.5 -12h200l-28 -74h-222q-19 0 -31.5 -12t-12.5 -31t12.5 -31t31.5 -12h189l-28 -74h-201q-19 0 -31.5 -12t-12.5 -31t12.5 -31t31.5 -12h196q59 0 97.5 -38.5t38.5 -97.5v-54h67q38 0 61.5 -24t23.5 -61v-274q0 -37 -13 -60.5t-48 -34.5q35 -13 48 -35.5t13 -59.5v-272
q0 -38 -23.5 -61.5t-61.5 -23.5h-152q-37 0 -61 23.5t-24 61.5v360h-234q-76 49 -164 49h-1092q-37 0 -61 23.5t-24 61.5v270q0 37 24 61t61 24h533v26q0 59 38.5 97.5t97.5 38.5h45v54q0 87 58 149t143 62h274l91 290q16 54 73 54zM1118 1101q-23 0 -38.5 -15t-15.5 -38
t15.5 -37.5t38.5 -14.5h784q23 0 38.5 14.5t15.5 37.5t-15.5 38t-38.5 15h-784zM721 535h784q86 0 151.5 -56t78.5 -141h102v-88h-104q-21 -86 -84.5 -136t-143.5 -50h-784q-65 0 -118.5 32t-85.5 85t-32 118t31.5 119t85.5 85.5t119 31.5zM784 224q-22 0 -36 -11.5
t-14 -29.5q0 -17 14 -28t36 -11h640q23 0 36.5 11t13.5 28q0 18 -14 29.5t-36 11.5h-640zM1741 486h96v-88h-48q-16 46 -48 88zM2477 972q-20 0 -32.5 -13t-12.5 -33v-73h-47q-10 33 -38 53.5t-64 20.5h-2h-3v-270h2h2q36 0 64.5 21t38.5 53h47v-73q0 -20 12.5 -33t32.5 -13
t32.5 13t12.5 33v268q0 19 -12.5 32.5t-32.5 13.5z" />
</svg>