<?xml version="1.0" standalone="no"?>
<!DOCTYPE svg PUBLIC "-//W3C//DTD SVG 1.1//EN" "http://www.w3.org/Graphics/SVG/1.1/DTD/svg11.dtd">
<svg xmlns="http://www.w3.org/2000/svg" xmlns:xlink="http://www.w3.org/1999/xlink" version="1.1"
   viewBox="94 -151 2414 2169">
   <path fill="currentColor"
      d="M1730 1978q-144 0 -290.5 -70.5t-289.5 -207.5l-572 -551q-48 -47 -48 -117q0 -63 39.5 -116.5t102.5 -65.5l-43 -43q-52 -52 -52 -123q0 -60 37.5 -106.5t98.5 -61.5l-32 -31q-52 -51 -52 -122q0 -74 52 -124t120 -50q71 0 122 51l38 37q14 -62 61.5 -99t105.5 -37
q33 0 65.5 13t57.5 39l497 496q-10 -44 -15 -86t-5 -77q0 -70 32 -133.5t85 -104.5t114 -41q56 0 96.5 38.5t40.5 92.5q0 28 -9 58t-9 71q0 80 36 190t109 274l29 65q32 71 52.5 139t20.5 133q0 143 -45.5 265t-126.5 213t-189.5 141.5t-233.5 50.5zM542 1648
q-97 -17 -170 -86.5t-97 -168.5l78 -18q18 76 73.5 128.5t129.5 66.5zM641 1467q-69 -11 -123.5 -59t-72.5 -115l78 -20q11 44 47.5 76t82.5 38zM1729 1898q109 0 203 -45t165 -125.5t110.5 -188.5t39.5 -234q0 -56 -18.5 -115t-47.5 -121l-30 -66q-78 -171 -114 -288.5
t-36 -208.5q0 -40 7.5 -75.5t7.5 -52.5q0 -22 -17 -36t-40 -14q-43 0 -76 30t-51.5 77t-18.5 97q0 16 1.5 35t3.5 40l25 200q-101 139 -101 292q0 77 28 150.5t84 136.5l-61 52q-129 -146 -129 -330q0 -151 85 -305l-555 -554q-28 -27 -65 -27q-40 0 -66 28.5t-26 63.5
q0 37 27 66l429 432l-56 56l-570 -571q-27 -27 -65 -27t-65 27t-27 66q0 38 27 65l569 571l-56 57l-434 -436q-15 -15 -31.5 -21.5t-33.5 -6.5q-36 0 -64.5 25.5t-28.5 66.5q0 38 28 66l433 437l-56 57l-289 -291q-29 -29 -65 -29q-38 0 -68.5 31t-30.5 78q0 36 24 60
l571 550q131 126 263.5 190.5t260.5 64.5zM1549 262q-18 -43 -58 -69.5t-87 -26.5v-80q71 0 131 39.5t88 104.5zM1693 132q-31 -71 -94 -112.5t-139 -41.5v-80q99 0 183 55t124 147z" />
</svg>