<?xml version="1.0" standalone="no"?>
<!DOCTYPE svg PUBLIC "-//W3C//DTD SVG 1.1//EN" "http://www.w3.org/Graphics/SVG/1.1/DTD/svg11.dtd">
<svg xmlns="http://www.w3.org/2000/svg" xmlns:xlink="http://www.w3.org/1999/xlink" version="1.1"
   viewBox="94 -151 2414 2169">
   <path fill="currentColor"
      d="M1776 1228q-88 0 -162.5 -45t-169.5 -155q-31 -37 -61.5 -66t-62.5 -29q-22 0 -41 9t-43 31t-62 61q-39 40 -87 81.5t-108.5 69t-140.5 27.5q-131 0 -246.5 -82.5t-239.5 -211.5q-82 -85 -82 -145q0 -53 39 -89t97 -36q39 0 75 21t86 74q64 66 109.5 109.5t83.5 65
t78 21.5q59 0 102.5 -31t101.5 -92q56 -59 124 -111t163 -52q82 0 151.5 42.5t136.5 134.5q42 58 74.5 90.5t78.5 32.5q47 0 102 -37.5t133 -123.5q71 -79 110.5 -106t82.5 -27q58 0 95 36t37 93q0 41 -35.5 92.5t-119.5 137.5q-100 102 -203.5 156t-195.5 54z" />
</svg>