<?xml version="1.0" standalone="no"?>
<!DOCTYPE svg PUBLIC "-//W3C//DTD SVG 1.1//EN" "http://www.w3.org/Graphics/SVG/1.1/DTD/svg11.dtd">
<svg xmlns="http://www.w3.org/2000/svg" xmlns:xlink="http://www.w3.org/1999/xlink" version="1.1"
   viewBox="94 -151 2414 2169">
   <path fill="currentColor"
      d="M1300 1978q-216 0 -404.5 -80.5t-331.5 -223.5t-223.5 -331.5t-80.5 -404.5t80.5 -404.5t223.5 -331.5t331.5 -223.5t404.5 -80.5t404.5 80.5t331.5 223.5t223.5 331.5t80.5 404.5t-80.5 404.5t-223.5 331.5t-331.5 223.5t-404.5 80.5zM886 1575l305 -527l-528 305
q90 136 223 222zM624 1284l527 -305h-610q4 79 25 156.5t58 148.5zM1260 1697v-609l-305 527q73 37 149.5 57.5t155.5 24.5zM541 899h610l-528 -305q-37 70 -57.5 147.5t-24.5 157.5zM1340 1697q79 -4 155.5 -24.5t149.5 -57.5l-305 -528v610zM1191 830l-306 -529
q-136 90 -223 224zM1300 1898q198 0 372 -74.5t306 -206.5t207 -306t75 -373t-75 -373t-207 -306t-306 -206.5t-372 -74.5t-372 74.5t-306 206.5t-207 306t-75 373t75 373t207 306t306 206.5t372 74.5zM1300 1778q-174 0 -326.5 -65t-268 -180.5t-180.5 -268t-65 -326.5
t65 -326.5t180.5 -268t268 -180.5t326.5 -65t326.5 65t268 180.5t180.5 268t65 326.5t-65 326.5t-180.5 268t-268 180.5t-326.5 65zM1300 1028q38 0 64 -26.5t26 -63.5q0 -38 -26 -64t-64 -26q-37 0 -63.5 26t-26.5 64q0 37 26.5 63.5t63.5 26.5zM1714 1575
q133 -86 223 -222l-528 -306zM1260 790v-611q-80 4 -157 24.5t-149 58.5zM1976 1284q37 -71 58 -148t25 -156l-610 -2zM2059 900q-4 -81 -24.5 -158.5t-57.5 -148.5l-528 305zM1340 789l306 -528q-73 -37 -149.5 -57.5t-156.5 -24.5v610zM1409 829l529 -304
q-87 -134 -223 -224z" />
</svg>