<?xml version="1.0" standalone="no"?>
<!DOCTYPE svg PUBLIC "-//W3C//DTD SVG 1.1//EN" "http://www.w3.org/Graphics/SVG/1.1/DTD/svg11.dtd">
<svg xmlns="http://www.w3.org/2000/svg" xmlns:xlink="http://www.w3.org/1999/xlink" version="1.1"
   viewBox="94 -151 2414 2169">
   <path fill="currentColor"
      d="M624 1728h1353q53 0 90.5 -37.5t37.5 -89.5v-1326q0 -52 -37.5 -89.5t-90.5 -37.5h-1353q-53 0 -91 37t-38 90v1326q0 52 38.5 89.5t90.5 37.5zM624 1648q-19 0 -34 -14.5t-15 -32.5v-1326q0 -19 15 -33t34 -14h1353q20 0 34 14t14 33v1326q0 19 -14 33t-34 14h-1353z
" />
</svg>