<?xml version="1.0" standalone="no"?>
<!DOCTYPE svg PUBLIC "-//W3C//DTD SVG 1.1//EN" "http://www.w3.org/Graphics/SVG/1.1/DTD/svg11.dtd">
<svg xmlns="http://www.w3.org/2000/svg" xmlns:xlink="http://www.w3.org/1999/xlink" version="1.1"
   viewBox="94 -151 2414 2169">
   <path fill="currentColor"
      d="M2100 841q-120 0 -120 -245q0 -21 2 -54t5 -66.5t6 -55.5l85 -65q-11 71 -16 132t-5 111q0 67 11 116.5t30 49.5q21 0 39 -43.5t28.5 -108.5t10.5 -131q0 -73 -12.5 -158.5t-49.5 -175.5q-2 -8 -2 -14q0 -15 11.5 -26t26.5 -11q27 0 36 22q39 88 53 183t14 184
q0 158 -42 257t-111 99zM489 1978q-63 0 -115 -31t-83 -83t-31 -115t31 -115.5t83 -83.5t115 -31t115 31.5t83 83.5t31 115q0 62 -31 114.5t-83 83.5t-115 31zM489 1898q60 0 104.5 -44.5t44.5 -104.5q0 -62 -44 -106t-105 -44q-62 0 -105.5 44t-43.5 106q0 61 44 105
t105 44zM479 1556l1659 -1658q48 1 82.5 11.5t66.5 42.5q32 31 42.5 66.5t10.5 83.5l-1664 1662l-14 -99l1599 -1597q-1 -31 -30 -60q-28 -29 -60 -30l-1602 1601zM1842 554q-5 -65 -52 -112t-112 -52l64 -63q64 4 111.5 52t52.5 112zM1052 1347q-5 -65 -52 -112t-112 -52
l64 -63q64 4 111.5 52t52.5 112z" />
</svg>