<?xml version="1.0" standalone="no"?>
<!DOCTYPE svg PUBLIC "-//W3C//DTD SVG 1.1//EN" "http://www.w3.org/Graphics/SVG/1.1/DTD/svg11.dtd">
<svg xmlns="http://www.w3.org/2000/svg" xmlns:xlink="http://www.w3.org/1999/xlink" version="1.1"
   viewBox="94 -151 2414 2169">
   <path fill="currentColor"
      d="M1143 1294l-34 -1396h382l-34 1396h-314zM1301 1978q-66 0 -121 -32.5t-87.5 -87t-32.5 -120.5t32.5 -120t87.5 -86.5t121 -32.5t120 32.5t86.5 86.5t32.5 120t-32 120.5t-86.5 87t-120.5 32.5zM1301 1898q66 0 112.5 -47t46.5 -113q0 -65 -47 -112t-112 -47
q-67 0 -114 46.5t-47 112.5q0 67 47 113.5t114 46.5zM1221 1214h158l30 -1236h-218z" />
</svg>