<?xml version="1.0" standalone="no"?>
<!DOCTYPE svg PUBLIC "-//W3C//DTD SVG 1.1//EN" "http://www.w3.org/Graphics/SVG/1.1/DTD/svg11.dtd">
<svg xmlns="http://www.w3.org/2000/svg" xmlns:xlink="http://www.w3.org/1999/xlink" version="1.1"
   viewBox="94 -151 2414 2169">
   <path fill="currentColor"
      d="M1105 1309q0 -117 19.5 -202.5t69.5 -160t139 -156.5q91 -84 141 -141t69.5 -103t19.5 -95q0 -131 -65.5 -198t-192.5 -67t-201.5 66.5t-84.5 188.5h-324q0 -165 75.5 -287t212 -189t319.5 -67q287 0 445 142t158 400q0 94 -29.5 174t-100 164t-192.5 191
q-66 57 -98 99.5t-43.5 95.5t-16.5 145h-320zM1265 1978q-66 0 -121 -32.5t-87.5 -87t-32.5 -120.5t32.5 -120t87.5 -86.5t121 -32.5t120 32.5t86.5 86.5t32.5 120t-32 120.5t-86.5 87t-120.5 32.5zM1265 1898q66 0 112.5 -47t46.5 -113q0 -65 -47 -112t-112 -47
q-67 0 -114 46.5t-47 112.5q0 67 47 113.5t114 46.5zM1187 1229h163q8 -73 25.5 -124t54.5 -96t101 -100q113 -97 177 -171.5t90.5 -144.5t26.5 -153q0 -224 -134.5 -343t-388.5 -119q-145 0 -256 47.5t-179.5 133.5t-86.5 202h172q30 -121 122.5 -188t230.5 -67
q161 0 249.5 90.5t88.5 254.5q0 62 -22.5 118t-78 121.5t-155.5 157.5q-71 65 -113 121.5t-62 118t-25 141.5z" />
</svg>