<?xml version="1.0" standalone="no"?>
<!DOCTYPE svg PUBLIC "-//W3C//DTD SVG 1.1//EN" "http://www.w3.org/Graphics/SVG/1.1/DTD/svg11.dtd">
<svg xmlns="http://www.w3.org/2000/svg" xmlns:xlink="http://www.w3.org/1999/xlink" version="1.1"
   viewBox="94 -151 2414 2169">
   <path fill="currentColor"
      d="M312 1978v-2080h1976v2080h-1976zM392 1898h1816v-1920h-1816v1920zM552 1738v-719l668 -2v719zM552 857v-719l668 2v719zM632 1658l508 -2v-559l-508 2v559zM632 777l508 2v-559l-508 -2v559zM1380 1736v-719l668 2v719zM1380 859v-719l668 -2v719zM1460 1656l508 2
v-559l-508 -2v559zM1460 779l508 -2v-559l-508 2v559z" />
</svg>