<?xml version="1.0" standalone="no"?>
<!DOCTYPE svg PUBLIC "-//W3C//DTD SVG 1.1//EN" "http://www.w3.org/Graphics/SVG/1.1/DTD/svg11.dtd">
<svg xmlns="http://www.w3.org/2000/svg" xmlns:xlink="http://www.w3.org/1999/xlink" version="1.1"
   viewBox="94 -151 2414 2169">
   <path fill="currentColor"
      d="M1329 1908q-35 0 -66 -1.5t-59 -3.5t-57 -5q-205 -22 -336.5 -55t-213.5 -93t-136 -162.5t-104 -262.5q-10 -34 -33.5 -72.5t-59.5 -78.5q-52 -58 -81 -103.5t-41 -91.5t-12 -104q0 -164 111.5 -282.5t361.5 -204t665 -149.5q182 -28 347 -73t305.5 -90.5t247 -76.5
t169.5 -31q64 0 98.5 35t34.5 97q0 95 -91 173t-222 137q106 0 170.5 43t64.5 112q0 85 -101 153t-285 104q56 20 93 65t37 98q0 84 -88 136t-255 66q50 28 72.5 62.5t22.5 81.5q0 64 -71 116t-190 76q71 25 109 67t38 96q0 97 -121 159.5t-324 62.5zM1001 1754v-78
q51 0 78 -13t27 -35q0 -28 -39 -49.5t-121 -27.5v-70q94 0 145 -20t51 -51t-47.5 -48t-135.5 -17v-78q121 0 192 39t71 104q0 37 -24 69t-66 50q25 16 39.5 41.5t14.5 57.5q0 56 -49 91t-136 35zM1329 1828q105 0 187.5 -19.5t130 -52t47.5 -70.5q0 -30 -29 -53.5t-91 -44.5
t-162 -41v-80q103 -2 193.5 -21.5t146.5 -50t56 -64.5q0 -44 -55 -78t-174 -63v-80q32 1 59.5 1.5t46.5 0.5q110 0 193.5 -16t130.5 -45t47 -66q0 -52 -77.5 -83t-214.5 -42v-80q158 -16 282 -49.5t195 -76.5t71 -89q0 -39 -56.5 -58.5t-169.5 -19.5q-45 0 -96 3.5
t-110 11.5v-80q137 -38 253 -88t186.5 -109.5t70.5 -124.5q0 -22 -14 -37t-39 -15q-44 0 -128 23t-199.5 59t-254.5 76t-294 75q34 19 52.5 52t18.5 75q0 57 -37.5 100.5t-112.5 73.5q72 18 111 54t39 88q0 64 -59 109.5t-174 73.5q17 18 26 39.5t9 46.5q0 65 -57.5 115
t-158.5 78.5t-232 28.5v-80q101 0 184.5 -19t133.5 -51.5t50 -71.5q0 -29 -32.5 -44.5t-104.5 -19.5v-80q94 -4 170 -22t120.5 -45.5t44.5 -57.5q0 -42 -87.5 -65t-242.5 -23v-80q155 -14 242.5 -53t87.5 -95q0 -39 -39 -65t-99 -26q-12 0 -26.5 0.5t-42.5 5.5
q-381 63 -608 139t-327 176t-100 237q0 69 22.5 119t80.5 115q50 55 77 99t43 93q38 119 74.5 201t84.5 135.5t119.5 87t178.5 54.5t263 39q47 5 90 7.5t86 2.5z" />
</svg>