<?xml version="1.0" standalone="no"?>
<!DOCTYPE svg PUBLIC "-//W3C//DTD SVG 1.1//EN" "http://www.w3.org/Graphics/SVG/1.1/DTD/svg11.dtd">
<svg xmlns="http://www.w3.org/2000/svg" xmlns:xlink="http://www.w3.org/1999/xlink" version="1.1"
   viewBox="94 -151 2414 2169">
   <path fill="currentColor"
      d="M425 1978q-67 0 -116 -49t-49 -116v-1750q0 -68 49 -116.5t116 -48.5h1749q68 0 117 48t49 116v1751q0 67 -48.5 116t-116.5 49h-1750zM1300 1566q46 0 78.5 -32.5t32.5 -78.5t-32.5 -78.5t-78.5 -32.5t-78.5 32.5t-32.5 78.5t32.5 78.5t78.5 32.5zM1007 1236
q52 -70 128.5 -108.5t164.5 -38.5q89 0 165.5 38.5t128.5 108.5l52 -62q-67 -81 -155 -123t-191 -42q-210 0 -346 165zM795 983q103 -107 232 -163t273 -56q96 0 185.5 25t170.5 73.5t149 120.5l51 -62q-115 -117 -256 -177t-300 -60t-300 60t-256 177zM559 701
q87 -93 206.5 -161t257 -105t277.5 -37t277.5 37t257.5 105t206 161l51 -62q-90 -97 -219 -169t-276.5 -112t-296.5 -40q-148 0 -296 40t-276.5 112t-219.5 169z" />
</svg>