<?xml version="1.0" standalone="no"?>
<!DOCTYPE svg PUBLIC "-//W3C//DTD SVG 1.1//EN" "http://www.w3.org/Graphics/SVG/1.1/DTD/svg11.dtd">
<svg xmlns="http://www.w3.org/2000/svg" xmlns:xlink="http://www.w3.org/1999/xlink" version="1.1"
   viewBox="94 -151 2414 2169">
   <path fill="currentColor"
      d="M1270 1978q-91 0 -142 -38t-51 -105q0 -18 2 -39.5t5 -37.5q-53 0 -113 -21t-113 -62.5t-86.5 -102.5t-33.5 -140q0 -11 1 -22l2 -22q-88 -4 -149.5 -57.5t-61.5 -147.5q0 -75 24 -122.5t55 -86t55 -85t24 -118.5q0 -35 -2.5 -89t-2.5 -94q0 -107 41.5 -199.5
t114.5 -162.5t168 -109t202 -39q56 0 112 14t105 37q-16 -17 -24.5 -38t-8.5 -40q0 -63 54 -108t142 -45q108 0 192.5 61.5t133 165t48.5 228.5q0 76 -9.5 147.5t-34.5 140t-71 135.5l3 -85q41 51 71 123.5t47 154t17 160.5q0 111 -25.5 199t-51 149.5t-25.5 95.5
q0 37 28 60.5t65 46t65 54t28 84.5q0 67 -55 111.5t-140 44.5q-69 0 -129 -24.5t-107.5 -63t-80.5 -79.5q-30 -38 -56.5 -57.5t-44.5 -19.5q-31 0 -31 27q0 25 14.5 53t14.5 56q0 40 -42 76t-143 36zM934 799q-62 0 -100 -50l44 -34q20 29 56 29q47 0 67 -46l51 23
q-18 38 -50.5 58t-67.5 20zM1166 1098q-40 0 -69.5 -28t-29.5 -67q0 -17 6 -31q-37 -31 -37 -75q0 -35 26 -61t70 -33l9 56q-49 8 -49 38q0 16 15.5 31t40.5 22q-25 28 -25 48q0 17 12.5 30.5t30.5 13.5q24 0 44 -20l39 40q-36 36 -83 36zM982 1029l-11 -50
q89 -13 178.5 -44.5t196.5 -82.5l23 46q-100 47 -193.5 81.5t-193.5 49.5zM1270 1898q53 0 80 -13t27 -35q0 -18 -12.5 -48.5t-12.5 -56.5q0 -41 26.5 -68t71.5 -27q40 0 85 28t86 79q45 56 108.5 96.5t145.5 40.5q58 0 86.5 -21.5t28.5 -54.5q0 -31 -28 -53.5t-65 -46
t-65 -57t-28 -86.5q0 -35 15.5 -78t35.5 -96.5t35.5 -120.5t15.5 -151q0 -70 -15.5 -141.5t-43 -137t-64.5 -114.5q54 -89 76 -188.5t22 -199.5q0 -107 -37.5 -190.5t-103.5 -131.5t-151 -48q-55 0 -82.5 21t-27.5 57q0 42 26.5 68t61.5 48.5t61.5 53.5t26.5 82
q0 13 -3 29.5t-9 34.5l-40 12q-31 -69 -94.5 -119.5t-142.5 -78.5t-157 -28q-122 0 -223.5 56.5t-162 154t-60.5 219.5q0 18 1.5 46t3 58t1.5 54q0 91 -24 148t-55.5 98.5t-55.5 84.5t-24 106q0 58 42 87t100 38q32 5 52 22.5t36 37.5t33 35t43 15q38 0 67 -34t29 -80
q0 -63 -51.5 -108.5t-134.5 -82.5l33 -73q102 46 167.5 110.5t65.5 153.5q0 78 -49.5 136t-126.5 58q-34 0 -53.5 -12t-35.5 -31q11 113 111.5 172t242.5 61q-7 27 -12.5 59.5t-5.5 63.5q0 40 27.5 63.5t79.5 23.5zM1181 744q-25 0 -49 -12.5t-41 -38.5l48 -28q14 24 43 24
q24 0 46.5 -21t26.5 -55l55 7q-7 57 -46 90.5t-83 33.5zM1488 1010q-45 0 -78.5 -24t-37.5 -61q-25 -11 -42.5 -35.5t-17.5 -54.5q0 -42 33 -72q-4 -10 -6.5 -20t-2.5 -20q0 -41 28.5 -69t68.5 -28h8q36 -53 98 -53q40 0 73 25t45 66q39 5 64 40t25 85q0 66 -43 104v5
q0 39 -30.5 66t-72.5 27q-19 0 -32 -4q-36 23 -80 23zM1490 957q21 0 39 -8t29 -20q19 8 39 8q24 0 39 -13t15 -33q0 -10 -3 -22q19 -7 32 -28t13 -52q0 -41 -17 -60.5t-54 -19.5q-1 -29 -25 -56t-58 -27q-26 0 -46 16t-28 39q-10 -2 -17 -3t-12 -1q-19 0 -33 14t-14 34
q0 16 4 26.5t11 20.5q-17 13 -28 28t-11 33q0 22 14.5 35t38.5 22q4 29 19.5 48t52.5 19zM1521 907q-44 0 -77 -33l24 -35q26 28 53 28q25 0 38 -19.5t13 -53.5q0 -33 -16.5 -53.5t-33.5 -20.5q-21 0 -22 34q14 0 22.5 8.5t8.5 21.5t-8 21t-21 8q-21 0 -32 -16.5t-11 -40.5
q0 -30 16.5 -54t46.5 -24q37 0 64 32t27 84q0 49 -24 81t-68 32z" />
</svg>