<?xml version="1.0" standalone="no"?>
<!DOCTYPE svg PUBLIC "-//W3C//DTD SVG 1.1//EN" "http://www.w3.org/Graphics/SVG/1.1/DTD/svg11.dtd">
<svg xmlns="http://www.w3.org/2000/svg" xmlns:xlink="http://www.w3.org/1999/xlink" version="1.1"
   viewBox="94 -151 2414 2169">
   <path fill="currentColor"
      d="M838 1353q-116 -10 -202.5 -88t-133.5 -208t-47 -294q0 -185 65.5 -342.5t182.5 -274.5t271 -182.5t331 -65.5q176 0 328.5 65t267.5 182.5t179.5 275t64.5 342.5q0 164 -48 294t-134 208t-202 88q42 -104 65.5 -231t23.5 -253q0 -24 -1 -48.5t-3 -46.5
q-58 -31 -120.5 -86.5t-118 -124.5t-93.5 -138q-146 99 -338.5 164t-401.5 92q-14 50 -20 98.5t-6 100.5q0 87 13 175.5t34 165.5t43 132zM1289 1978q-293 0 -461.5 -92.5t-187.5 -250.5q-11 -95 -16.5 -189t-7 -188.5t-1.5 -189.5h80q0 94 1.5 189.5t6.5 189.5t17 183
q16 118 166 193t403 75q189 0 329 -35.5t216.5 -96t76.5 -134.5q0 -26 -8 -50.5t-21 -50.5q-15 -31 -26.5 -66.5t-11.5 -79.5v-128h80v128q0 43 11.5 76t25.5 63q13 26 21.5 52t8.5 56q0 101 -85 179t-242.5 122.5t-374.5 44.5zM1284 1635q-124 0 -244.5 -40.5t-221 -111.5
t-166.5 -162v-325q19 44 44 80.5t56 58t66 21.5q51 0 99 -19t101 -44.5t117.5 -44.5t148.5 -19t148.5 19t117 44.5t100.5 44.5t100 19q49 0 86 -40.5t65 -102.5v323q-65 89 -161.5 156.5t-213 105t-242.5 37.5zM1300 1302q93 0 171.5 -43.5t100.5 -130.5l-105 -51l-167 7
l-197 -8l-77 41q18 92 98.5 138.5t175.5 46.5zM1011 973q-38 0 -63 -28t-25 -68t25 -68.5t63 -28.5t63.5 28.5t25.5 68.5t-25.5 68t-63.5 28zM966 1179q-58 0 -92.5 -39.5t-39.5 -91.5q19 8 41 11t47 3q54 0 118 -12t131 -23.5t129 -11.5q94 0 193.5 23.5t184.5 23.5
q26 0 47.5 -3t40.5 -11q-5 52 -39 91.5t-93 39.5q-49 0 -108 -19l-118 -38t-108 -19q-48 0 -107.5 19t-118.5 38t-108 19zM1531 973q-38 0 -63 -28t-25 -68t25 -68.5t63 -28.5t63.5 28.5t25.5 68.5t-25.5 68t-63.5 28z" />
</svg>