<?xml version="1.0" standalone="no"?>
<!DOCTYPE svg PUBLIC "-//W3C//DTD SVG 1.1//EN" "http://www.w3.org/Graphics/SVG/1.1/DTD/svg11.dtd">
<svg xmlns="http://www.w3.org/2000/svg" xmlns:xlink="http://www.w3.org/1999/xlink" version="1.1"
   viewBox="94 -151 2414 2169">
   <path fill="currentColor"
      d="M1281 1978q-318 0 -494 -90t-191 -247q-9 -89 -15.5 -181t-11 -198t-7 -236t-2.5 -296q0 -183 51 -335.5t145 -264t224.5 -172t290.5 -60.5q157 0 286 60t222 167t143.5 248.5t50.5 304.5v712q0 42 10 77t28 71q14 27 21.5 49.5t7.5 49.5q0 102 -89 178.5t-258.5 119.5
t-411.5 43zM1076 1769q-97 -6 -183.5 -41t-153.5 -90t-106.5 -122t-42.5 -138l64 -8q4 57 39.5 112t94.5 101t133 75.5t155 35.5v75zM1267 1301q-85 0 -155 -33.5t-125 -100.5l51 -44q47 57 102.5 82.5t126.5 25.5q72 0 128 -25.5t102 -82.5l51 44q-55 67 -125.5 100.5
t-155.5 33.5zM1020 993q-38 0 -63 -28t-25 -68t25 -68.5t63 -28.5t63.5 28.5t25.5 68.5t-25.5 68t-63.5 28zM1217 1687v-74q335 -15 508 -185t173 -480l70 8q0 225 -87 385t-254.5 248t-409.5 98zM1263 1488q-162 0 -282 -61t-199 -176t-117 -278q33 -172 178.5 -318
t419.5 -231q186 56 311.5 151.5t196.5 202.5t91 200q-38 160 -117.5 274t-199.5 175t-282 61zM1263 1414q215 0 346 -114.5t184 -323.5q-20 -97 -85 -188.5t-176 -167.5t-269 -127q-158 51 -269.5 127.5t-176 167.5t-82.5 188q53 210 183 324t345 114zM1281 1898
q218 0 369.5 -34.5t230.5 -94t79 -132.5q0 -20 -6 -39.5t-19 -45.5q-19 -40 -30.5 -79.5t-11.5 -82.5v-712q0 -147 -44.5 -274t-126.5 -223t-196.5 -149.5t-254.5 -53.5q-190 0 -332 95.5t-220.5 264.5t-78.5 392q0 165 2.5 295t7 235.5t11 196.5t15.5 177q12 118 162.5 191
t442.5 73zM665 973q0 -220 62 -395.5t187 -295t313 -169.5l17 59q-262 70 -389 281t-127 520h-63zM1508 993q-38 0 -63.5 -28t-25.5 -68t25.5 -68.5t63.5 -28.5t63 28.5t25 68.5t-25 68t-63 28zM1691 503q-52 -139 -209 -206l25 -58q183 80 243 244z" />
</svg>