<?xml version="1.0" standalone="no"?>
<!DOCTYPE svg PUBLIC "-//W3C//DTD SVG 1.1//EN" "http://www.w3.org/Graphics/SVG/1.1/DTD/svg11.dtd">
<svg xmlns="http://www.w3.org/2000/svg" xmlns:xlink="http://www.w3.org/1999/xlink" version="1.1"
   viewBox="94 -151 2414 2169">
   <path fill="currentColor"
      d="M1551 1978q-102 0 -178.5 -27t-141.5 -73t-133 -101q-59 -48 -97.5 -75t-78.5 -48.5t-104 -50.5q-76 -36 -136.5 -72t-96 -82.5t-35.5 -113.5q0 -58 17 -114t37 -104q20 -47 35 -93t13 -101l-31 -932q-1 -44 72 -68.5t197 -24.5q111 0 214.5 15t186.5 40.5t131.5 59
t48.5 69.5q0 25 -7.5 61t-18.5 75q-10 35 -18 71.5t-12 68.5q-8 73 -14 148.5t-9 145.5t-3 128q0 67 4.5 111t18 81t39.5 82q47 82 95 150t93 116t82 69q26 14 56 25t64 20q57 15 104.5 41t76 74t28.5 130q0 80 -47 136.5t-123 92.5t-162.5 53t-166.5 17zM851 1844l-172 -85
q-48 -24 -72 -46t-32 -54t-8 -86v-193l80 71v127q0 41 13 66t56 45l126 59v-177l199 87zM962 1179l-74 -27q17 -59 26.5 -99.5t13.5 -77.5t5 -83t1 -115v-555h80v554q0 73 -1 122.5t-6 89.5t-15.5 84.5t-29.5 106.5zM1550 1898q66 0 139 -11.5t137 -36.5t104 -67.5
t40 -103.5q0 -66 -24.5 -99.5t-59 -47t-66.5 -20.5q-46 -11 -78 -23t-63 -29q-47 -27 -99.5 -85.5t-104 -135t-97.5 -155.5q-26 -46 -41.5 -83.5t-22 -87.5t-6.5 -133q0 -61 3.5 -135.5t9.5 -150.5t14 -141q5 -41 15 -89t21 -89.5t17 -59.5l41 9q-4 47 -56.5 61.5
t-115.5 14.5q-25 0 -71.5 -3t-61.5 -3q-29 0 -56 9t-57 35q-21 18 -42 18q-16 0 -24 -11t-13 -27q-13 -48 -50 -69.5t-104 -43.5q-44 -15 -76.5 -37t-34.5 -56l36 -8l27 911q2 64 -15 119t-37 106q-19 47 -33.5 94t-14.5 99q0 67 53 115.5t157 92.5q73 31 141 66t163 115
q102 85 195 130.5t211 45.5zM892 316q-12 11 -26.5 10.5t-23.5 -18.5l-30 -60q-8 -16 0.5 -30.5t24.5 -15.5l104 -7l20 58z" />
</svg>