<?xml version="1.0" standalone="no"?>
<!DOCTYPE svg PUBLIC "-//W3C//DTD SVG 1.1//EN" "http://www.w3.org/Graphics/SVG/1.1/DTD/svg11.dtd">
<svg xmlns="http://www.w3.org/2000/svg" xmlns:xlink="http://www.w3.org/1999/xlink" version="1.1"
   viewBox="94 -151 2414 2169">
   <path fill="currentColor"
      d="M912 1462q-172 -8 -286 -89t-170 -224t-56 -336t69 -359.5t192 -291t287.5 -194.5t356.5 -70q190 0 353 69.5t284.5 194t189.5 291t68 360.5q0 304 -133 471.5t-379 176.5q56 -133 81.5 -264.5t25.5 -277.5v-31t-1 -30q-82 -50 -164 -136t-137 -180q-81 56 -189.5 104
t-233 83t-254.5 54q-13 75 -13 147q0 140 28.5 273.5t80.5 258.5zM1289 1978q-293 0 -461 -92.5t-188 -250.5q-9 -74 -14 -148.5t-8 -147.5l82 31q2 67 7 132t13 128q16 118 166 193t403 75q189 0 329 -35.5t216.5 -96t76.5 -134.5q0 -26 -8 -50.5t-21 -50.5
q-15 -31 -26.5 -66.5t-11.5 -79.5v-8h80v8q0 43 11.5 76t25.5 63q13 26 21.5 52t8.5 56q0 101 -85 179t-242.5 122.5t-374.5 44.5zM1284 1345q-84 0 -155 -32.5t-125 -98.5l51 -44q46 56 102.5 82t126.5 26q71 0 128 -26t101 -82l52 44q-55 66 -126 98.5t-155 32.5z
M1011 1023q-38 0 -63 -28t-25 -68t25 -68.5t63 -28.5t63.5 28.5t25.5 68.5t-25.5 68t-63.5 28zM1531 1023q-38 0 -63 -28t-25 -68t25 -68.5t63 -28.5t63.5 28.5t25.5 68.5t-25.5 68t-63.5 28zM810 1383q-37 -106 -57 -223t-20 -230q0 -51 6 -99.5t20 -107.5
q245 -35 440.5 -109t319.5 -178q34 77 89.5 152t121.5 134.5t129 91.5q4 24 5 51.5t1 53.5q0 126 -19 243t-56 220q106 -22 182 -97t117 -195t41 -277q0 -179 -62.5 -331.5t-174.5 -265.5t-262 -175.5t-326 -62.5q-177 0 -329 63t-265.5 176t-177 265t-63.5 331
q0 237 90 386t250 184z" />
</svg>