<?xml version="1.0" standalone="no"?>
<!DOCTYPE svg PUBLIC "-//W3C//DTD SVG 1.1//EN" "http://www.w3.org/Graphics/SVG/1.1/DTD/svg11.dtd">
<svg xmlns="http://www.w3.org/2000/svg" xmlns:xlink="http://www.w3.org/1999/xlink" version="1.1"
   viewBox="94 -151 2414 2169">
   <path fill="currentColor"
      d="M1313 1978l-159 -43l-183 32q-115 -9 -198 -47l-34 -84l-93 47q-73 -38 -119.5 -95.5t-46.5 -111.5v-1452h80v1452q0 25 25 53t67 54l46 -241l148 323q30 7 60.5 13t60.5 9l191 -34l165 45q184 -2 263 -38.5t79 -120.5v-366l-109 99q0 -81 40 -179.5t108 -196.5
t153.5 -179.5t176.5 -127.5q6 -6 6 -31q0 -44 -18.5 -90t-44.5 -65q-55 26 -95 37t-84 11q-52 0 -82.5 -26.5t-30.5 -62.5v-167l193 -171v333q17 0 52 -13t77 -34q55 50 84 114.5t29 133.5q0 53 -24 83q-119 142 -174.5 250t-55.5 198v382q0 83 -75.5 153t-201.5 112
t-276 42zM1344 1945l-211 -53l23 -567zM867 1418q-22 -75 -33.5 -176t-11.5 -219q0 -121 11.5 -256t34.5 -275l79 14q-22 137 -33.5 268t-11.5 247q0 112 10.5 206.5t30.5 165.5zM1170 345q84 0 155.5 -17.5t114.5 -45.5t43 -58q0 -31 -43 -59t-114 -45.5t-156 -17.5
t-156.5 17.5t-115 45.5t-43.5 59q0 30 43.5 58t115 45.5t156.5 17.5zM1170 284q-64 0 -110.5 -19t-46.5 -41q0 -23 46.5 -42t110.5 -19q63 0 109 19t46 42q0 22 -46.5 41t-108.5 19zM1180 549q-195 0 -354 -42.5t-252.5 -116t-93.5 -166.5t93.5 -167t252.5 -116.5t354 -42.5
t353 42.5t251.5 116.5t93.5 167t-93.5 166.5t-251.5 116t-353 42.5zM1180 469q168 0 308.5 -34.5t225 -90.5t84.5 -120q0 -65 -84.5 -121t-225 -90.5t-308.5 -34.5t-309 34.5t-226 90.5t-85 121q0 64 85 120t226 90.5t309 34.5zM1180 388q-114 0 -211 -23.5t-156 -61.5
t-59 -79q0 -42 58.5 -80t155.5 -61.5t212 -23.5t211 23.5t154.5 61.5t58.5 80q0 41 -58.5 79t-155 61.5t-210.5 23.5z" />
</svg>