<?xml version="1.0" standalone="no"?>
<!DOCTYPE svg PUBLIC "-//W3C//DTD SVG 1.1//EN" "http://www.w3.org/Graphics/SVG/1.1/DTD/svg11.dtd">
<svg xmlns="http://www.w3.org/2000/svg" xmlns:xlink="http://www.w3.org/1999/xlink" version="1.1"
   viewBox="94 -151 2414 2169">
   <path fill="currentColor"
      d="M1759 1728q-163 0 -356 -66t-423 -220l-60 -40q-152 -102 -243.5 -144.5t-151.5 -42.5q-40 0 -67.5 11.5t-58 22.5t-81.5 11q-116 0 -188 -77t-72 -204q0 -143 99 -221t274 -78q152 0 322 71.5t400 221.5l60 39q137 89 226.5 145.5t148.5 88t100.5 43.5t81.5 12
q93 0 145 -39.5t52 -110.5q0 -42 -26.5 -80t-93 -80t-187.5 -96l-65 -29q-184 -82 -270 -176.5t-86 -217.5q0 -148 105.5 -236t284.5 -88q110 0 223 22t221.5 44t206.5 22q50 0 79 -5t60 -5q50 0 86.5 21.5t36.5 71.5q0 85 -97.5 131t-279.5 46q-70 0 -146 -9t-146.5 -17.5
t-122.5 -8.5q-36 0 -51 8.5t-15 17.5q0 13 31.5 31t102.5 50l119 54q216 98 330 235.5t114 319.5q0 158 -78 283t-218 196.5t-326 71.5zM305 1098q-27 0 -50 -14t-23 -29q0 -17 17 -17q7 0 23 6t34 6q20 0 33.5 -5.5t25.5 -5.5q17 0 17 17q0 16 -24 29t-53 13zM198 992
q-18 0 -30.5 -14.5t-12.5 -36.5t12.5 -36.5t30.5 -14.5t30.5 14.5t12.5 36.5t-12.5 36.5t-30.5 14.5zM387 992q-18 0 -30.5 -14.5t-12.5 -36.5t12.5 -36.5t30.5 -14.5t30.5 14.5t12.5 36.5t-12.5 36.5t-30.5 14.5zM744 1270l-31 -63q53 -25 97.5 -76t73.5 -116t35 -131l70 6
q-7 78 -41 153.5t-87 135.5t-117 91zM1382 1671q-40 0 -111 -30t-156 -82t-167 -117q-8 -6 -8 -13q0 -17 27.5 -43t66 -64.5t71.5 -90.5q32 -50 52 -100t36.5 -84t35.5 -34q6 0 14 5l334 207q23 14 34 47.5t11 65.5q0 46 -21.5 103t-56.5 109.5t-77.5 86.5t-84.5 34z
M1759 1650q161 0 283 -60.5t190.5 -167t68.5 -245.5q0 -152 -96.5 -276t-300.5 -211l-119 -51q-50 -22 -91.5 -42.5t-65.5 -46.5t-24 -63q0 -56 44.5 -80t101.5 -24q45 0 120.5 8.5t156 17.5t138.5 9q140 0 220 -26.5t80 -63.5q0 -24 -46 -24q-43 0 -67.5 5t-71.5 5
q-68 0 -152.5 -13t-173.5 -30t-173 -30t-152 -13q-146 0 -228 65.5t-82 178.5q0 97 71.5 174.5t234.5 148.5l67 29q128 55 206 104.5t113.5 102.5t35.5 120q0 107 -76 167.5t-201 60.5q-46 0 -90 -10.5t-105 -41.5t-157 -91t-248 -159l-60 -39q-154 -101 -274.5 -162.5
t-218 -89.5t-186.5 -28q-143 0 -218 57t-75 164q0 95 49.5 149t130.5 54q39 0 69.5 -11t62.5 -22.5t75 -11.5q77 0 178 47t259 153l60 40q206 137 389 205t348 68zM2053 1630q0 -98 -38 -170t-107 -107l32 -62q87 44 135 133t48 206h-70zM1644 559q-37 -39 -89 -61t-108 -22
q-55 0 -89 21.5t-34 51.5h-70q0 -67 58.5 -104t135.5 -37q63 0 128.5 24.5t117.5 77.5zM1677 877q-8 -25 -8 -54q0 -82 63.5 -138t148.5 -56q54 0 105 26l-32 55q-37 -18 -73 -18q-58 0 -100 40.5t-42 90.5q0 18 5 33zM2032 1078l-68 -19q21 -77 76 -118t122 -41
q49 0 98 23.5t88 72.5l-55 44q-27 -34 -61 -52t-70 -18q-48 0 -82 29t-48 79zM1842 433l-68 -18q9 -31 9 -58q0 -71 -53 -131l53 -46q70 80 70 177q0 34 -11 76z" />
</svg>