<?xml version="1.0" standalone="no"?>
<!DOCTYPE svg PUBLIC "-//W3C//DTD SVG 1.1//EN" "http://www.w3.org/Graphics/SVG/1.1/DTD/svg11.dtd">
<svg xmlns="http://www.w3.org/2000/svg" xmlns:xlink="http://www.w3.org/1999/xlink" version="1.1"
   viewBox="94 -151 2414 2169">
   <path fill="currentColor"
      d="M1300 1978l-918 -432v-718h80v667l838 393l838 -393v-667h80v718zM686 1646v-676h80v676h-80zM946 1764v-690h80v690h-80zM638 926v-281h80v281h-80zM1260 1903v-1066h80v1066h-80zM572 590l-202 -92l33 -74l203 92zM898 1032v-337h80v337h-80zM1574 1764v-690h80v690
h-80zM1300 1245l-969 -407v-410l201 -81l30 75l-151 61v302l889 372l889 -372v-302l-151 -61l29 -75l202 81v410zM845 519l-47 -48q50 -47 140.5 -59t200.5 14l-12 70q-91 -23 -166 -16t-116 39zM792 707q-149 0 -210.5 -91.5t-61.5 -311.5q0 -153 22.5 -241.5t77 -126.5
t150.5 -38q98 0 200.5 62.5t207.5 175.5l-59 55q-93 -101 -181 -157t-168 -56q-70 0 -107 26.5t-50 97t-13 202.5q0 125 17 195.5t59 99t116 28.5q30 0 72.5 -16.5t85 -43t75 -56t42.5 -54.5l74 34q-15 36 -55 74t-92 70t-105.5 52t-96.5 20zM1300 886l-450 -187l31 -73
l419 172l418 -172l31 73zM1834 1646v-676h80v676h-80zM1621 1032v-337h80v337h-80zM1300 556q-90 0 -139 -14.5t-68.5 -52.5t-19.5 -106q0 -122 18 -186.5t67 -88t142 -23.5t142 23.5t67 88t18 186.5q0 68 -19 106t-68.5 52.5t-139.5 14.5zM1300 476q66 0 97.5 -4.5
t40.5 -24t9 -64.5q0 -101 -8.5 -147t-39.5 -58.5t-99 -12.5t-99 12.5t-39.5 58.5t-8.5 147q0 45 9 64.5t40.5 24t97.5 4.5zM1881 926v-281h80v281h-80zM1754 519q-40 -32 -114.5 -39t-166.5 16l-12 -70q110 -26 200 -14t141 59zM1808 707q-43 0 -96.5 -20t-105.5 -52
t-92 -70t-55 -74l73 -34q11 25 43.5 54.5t75 56t84.5 43t73 16.5q74 0 116 -28.5t59 -99t17 -195.5q0 -132 -13.5 -202.5t-50 -97t-106.5 -26.5q-81 0 -169 56t-181 157l-58 -55q105 -113 207.5 -175.5t200.5 -62.5q97 0 151 38t76.5 126.5t22.5 241.5q0 220 -61.5 311.5
t-210.5 91.5zM2027 590l-33 -74l202 -92l34 74zM953 713l-32 -73l379 -163l378 163l-32 73l-346 -149z" />
</svg>