<?xml version="1.0" standalone="no"?>
<!DOCTYPE svg PUBLIC "-//W3C//DTD SVG 1.1//EN" "http://www.w3.org/Graphics/SVG/1.1/DTD/svg11.dtd">
<svg xmlns="http://www.w3.org/2000/svg" xmlns:xlink="http://www.w3.org/1999/xlink" version="1.1"
   viewBox="94 -151 2414 2169">
   <path fill="currentColor"
      d="M2226 176l-389 1462h-186l-285 -958q-13 -44 -25.5 -89t-22.5 -85.5t-17 -70.5t-9 -44q-1 14 -7 44t-15.5 70.5t-21.5 87t-26 93.5l-276 952h-186l-387 -1462h192l227 893q12 48 22.5 93.5t19.5 89.5t16 85t12 80q5 -40 13 -84t18 -90t22 -93t25 -92l258 -882h190
l269 889q15 48 27 95.5t22 93t17.5 87t13.5 76.5q6 -51 16.5 -107t24.5 -117.5t30 -125.5l226 -891h192z" />
</svg>