<?xml version="1.0" standalone="no"?>
<!DOCTYPE svg PUBLIC "-//W3C//DTD SVG 1.1//EN" "http://www.w3.org/Graphics/SVG/1.1/DTD/svg11.dtd">
<svg xmlns="http://www.w3.org/2000/svg" xmlns:xlink="http://www.w3.org/1999/xlink" version="1.1"
   viewBox="94 -151 2414 2169">
   <path fill="currentColor"
      d="M403 1978q-61 0 -101 -40t-40 -101v-1799q0 -61 40 -100.5t101 -39.5h1794q61 0 101 39.5t40 100.5v1799q0 61 -40 101t-101 40h-1794zM451 1804q-3 -18 -22 -25v-666l69 -63q0 207 25 392.5t67 361.5h-139zM847 1715q77 0 138.5 -52t120 -174.5t126.5 -333.5l-56 -27
q-85 127 -169 189.5t-170 62.5q-67 0 -103 -40.5t-36 -119.5h-60q0 109 53.5 165t145.5 56q73 0 148 -40t139 -113q-52 137 -95.5 217.5t-87 115.5t-94.5 35q-58 0 -88.5 -44t-30.5 -128v-25l-60 -3v23q0 236 179 236zM833 1207q88 0 176.5 -37.5t200.5 -122.5l-36 -47
q-106 79 -184.5 113t-156.5 34q-145 0 -145 -177h-60q0 115 54 176t151 61zM913 998q51 0 89.5 -5t82 -18.5t108.5 -38.5l-23 -57q-60 24 -99.5 37t-75 17.5t-82.5 4.5q-77 0 -128 -29.5t-51 -72.5q0 -47 53 -83l-33 -50q-80 56 -80 133q0 71 67.5 116.5t171.5 45.5z
M1753 1715q179 0 179 -236v-23l-60 3v25q0 84 -30.5 128t-88.5 44q-51 0 -94.5 -35t-87 -115.5t-95.5 -217.5q65 73 139.5 113t147.5 40q92 0 145.5 -56t53.5 -165h-60q0 79 -35.5 119.5t-103.5 40.5q-85 0 -169.5 -62.5t-169.5 -189.5l-56 27q69 211 127 333.5t119.5 174.5
t138.5 52zM1023 797h172v-60h-172q-78 0 -128.5 -29t-50.5 -73q0 -41 48 -77l-37 -48q-71 54 -71 125q0 70 67.5 116t171.5 46zM393 1872h27q21 0 31 -18h1698q10 18 31 18h27q17 0 27.5 -10t10.5 -26v-24q0 -25 -23 -33v-1682q23 -8 23 -33v-24q0 -16 -10.5 -26t-27.5 -10
h-27q-21 0 -31 18h-1698q-10 -18 -31 -18h-27q-16 0 -27 10t-11 26v24q0 25 23 33v1682q-23 8 -23 33v24q0 16 11 26t27 10zM654 1804q-49 -209 -71.5 -433t-22.5 -491l-121 124v-609q52 -56 114 -82t142 -26q55 0 120 8t128 8q105 0 203 -37q13 -55 17 -91.5t4 -102.5h266
q0 66 4 102.5t17 91.5q49 19 100 28t103 9q63 0 128 -8t120 -8q80 0 142.5 26t114.5 82v610l-122 -124q0 259 -22 486.5t-71 436.5h-1293zM1278 1219h45l12 -616q53 38 127 38q103 0 168 -80l-47 -37q-46 57 -121 57q-51 0 -82 -19q140 -57 285.5 -88t323.5 -36v-60
q-201 6 -365 44t-324 110q-159 -72 -323 -110t-366 -44v60q179 5 324.5 36t284.5 88q-31 19 -82 19q-73 0 -121 -57l-47 37q66 80 168 80q74 0 128 -38zM429 303v-206q19 -7 22 -25h641q0 47 -3 74.5t-9 59.5q-32 10 -63.5 16t-73.5 6q-64 0 -126.5 -8t-121.5 -8
q-76 0 -144 22t-122 69zM1767 1207q98 0 151.5 -61t53.5 -176h-60q0 177 -145 177q-78 0 -156 -34t-185 -113l-36 47q113 85 201 122.5t176 37.5zM2010 1804q42 -176 67 -361.5t25 -392.5l69 63v666q-19 7 -22 25h-139zM1023 398q38 -20 75 -26.5t89 -6.5v-50
q-59 0 -100.5 8.5t-85.5 30.5zM1687 998q104 0 171.5 -45.5t67.5 -116.5q0 -77 -80 -133l-33 50q53 36 53 83q0 43 -51 72.5t-128 29.5q-47 0 -82.5 -4.5t-75 -17.5t-99.5 -37l-23 57q65 25 108.5 38.5t82.5 18.5t89 5zM1229 450h142v-60h-142v60zM1405 797h172
q104 0 171.5 -46t67.5 -116q0 -71 -71 -125l-37 48q48 36 48 77q0 44 -50.5 73t-128.5 29h-172v60zM1229 320h142v-60h-142v60zM1229 200h142v-60h-142v60zM1577 398l22 -44q-43 -22 -85 -30.5t-101 -8.5v50q53 0 90 6.5t74 26.5zM2171 303q-54 -47 -121.5 -69t-144.5 -22
q-58 0 -121 8t-127 8q-42 0 -73.5 -6t-63.5 -16q-6 -32 -9 -59.5t-3 -74.5h641q3 18 22 25v206z" />
</svg>