<?xml version="1.0" standalone="no"?>
<!DOCTYPE svg PUBLIC "-//W3C//DTD SVG 1.1//EN" "http://www.w3.org/Graphics/SVG/1.1/DTD/svg11.dtd">
<svg xmlns="http://www.w3.org/2000/svg" xmlns:xlink="http://www.w3.org/1999/xlink" version="1.1"
   viewBox="94 -151 2414 2169">
   <path fill="currentColor"
      d="M1399 1978q289 0 477.5 -25.5t281 -82t92.5 -147.5q0 -83 -72 -116t-211 -33v80q110 0 156.5 15.5t46.5 53.5q0 57 -84.5 96t-255.5 59t-431 20q-304 0 -515 -51.5t-320.5 -149.5t-109.5 -238q0 -74 34 -170t110 -210q45 -68 104.5 -169.5t115.5 -225.5t93 -261.5
t37 -278.5q0 -35 -3 -68.5t-8 -67.5l-78 12q10 59 10 123q0 131 -35 261t-89 249t-112 217.5t-103 166.5q-81 121 -118.5 229t-37.5 193q0 126 68 222.5t199.5 162.5t322 100t435.5 34zM602 1370q70 -36 131 -91t123 -140l-64 -48q-58 79 -111 127t-115 80zM751 1499
q72 -37 133.5 -96t118.5 -147l-68 -44q-52 81 -104.5 132t-115.5 83zM944 1616q54 -41 102 -105t97 -160l-72 -36q-45 89 -86.5 145.5t-88.5 91.5zM1150 1669q79 -76 145 -224l-74 -32q-31 70 -61 116.5t-66 81.5zM1562 1621l30 -74q-184 -74 -364.5 -185.5t-338 -244.5
t-274.5 -272t-174 -268l-74 32q49 109 137.5 225t207 229.5t257.5 218t290 191.5t303 148zM1754 1508l30 -74q-222 -86 -422.5 -205.5t-367 -260t-286.5 -292t-179 -301.5l-74 30q50 127 140 254t213 248t273 231.5t320 204.5t353 165zM1250 1689q186 0 349.5 -69.5
t287.5 -193t194 -285.5t70 -348q0 -185 -70 -347.5t-194 -285.5t-287.5 -192.5t-349.5 -69.5t-349 69.5t-287 192.5t-194 285.5t-70 347.5q0 186 70 348t194 285.5t287 193t349 69.5zM1250 1609q-169 0 -318 -63.5t-261.5 -176t-176.5 -260t-64 -316.5q0 -168 64 -316
t176.5 -260t261.5 -175.5t318 -63.5q170 0 318.5 63.5t261.5 175.5t177 259.5t64 316.5t-64 316.5t-177 260t-261.5 176t-318.5 63.5zM1898 1373l26 -76q-229 -80 -429.5 -195t-364.5 -257.5t-284.5 -306t-189.5 -341.5l-74 28q57 149 149 289t214.5 266.5t271.5 236.5
t320 200t361 156zM1998 1226l28 -76q-213 -79 -407 -195t-356.5 -258t-281.5 -300.5t-183 -321.5l-74 28q53 138 143.5 272t212 258.5t267 235t310 201t341.5 156.5zM1069 546q33 -74 49.5 -156t16.5 -166q0 -71 -11.5 -140t-34.5 -133l-76 28q42 115 42 245q0 158 -60 290z
M1210 701q44 -76 66 -190.5t22 -232.5q0 -104 -18 -200t-53 -158l-70 40q30 53 45 138t15 179q0 109 -19.5 213.5t-57.5 170.5zM1628 1044q113 -8 212 -44t176.5 -95t124.5 -136l-68 -42q-41 69 -111.5 120.5t-161 81.5t-194.5 36zM1379 841q41 -113 61.5 -245.5
t20.5 -261.5q0 -122 -18 -229t-55 -180l-72 36q33 66 49.5 163t16.5 207q0 121 -20 247.5t-59 234.5zM1532 955q56 -146 83.5 -285t27.5 -271q0 -113 -20.5 -220.5t-61.5 -210.5l-74 30q38 96 57 196t19 206q0 124 -26 255.5t-79 271.5zM1542 867q122 -6 236.5 -43t202 -97
t128.5 -133l-70 -40q-25 46 -76 86.5t-119 72t-146.5 51t-159.5 23.5zM1583 707q93 -15 184 -57t164.5 -102.5t114.5 -128.5l-68 -42q-35 59 -100 111.5t-145 89.5t-162 51zM1595 499q111 -23 202 -83t146 -148l-68 -42q-46 73 -123 124t-173 71z" />
</svg>