<?xml version="1.0" standalone="no"?>
<!DOCTYPE svg PUBLIC "-//W3C//DTD SVG 1.1//EN" "http://www.w3.org/Graphics/SVG/1.1/DTD/svg11.dtd">
<svg xmlns="http://www.w3.org/2000/svg" xmlns:xlink="http://www.w3.org/1999/xlink" version="1.1"
   viewBox="94 -151 2414 2169">
   <path fill="currentColor"
      d="M1300 1978q-36 0 -71.5 -2.5t-70.5 -7.5l90 -71q13 1 26 1h26q199 0 373 -74.5t306 -206.5t206.5 -306t74.5 -373t-74.5 -373t-206.5 -306t-306 -206.5t-373 -74.5t-373 74.5t-306 206.5t-206.5 306t-74.5 373q0 168 54 319t150 273l-8 114q-128 -140 -202 -320.5
t-74 -385.5q0 -216 80.5 -404.5t223.5 -331.5t331.5 -223.5t404.5 -80.5q215 0 403.5 80.5t331.5 223.5t224 331.5t81 404.5t-81 404.5t-224 331.5t-331.5 223.5t-403.5 80.5zM939 1948q71 0 159 -23t176 -60.5t162 -82t119 -88.5t45 -78q0 -9 -6 -15t-16 -6q-12 0 -38.5 12
t-71.5 36t-115 60l-27 -60q67 -30 125.5 -63.5t103 -67t70 -62t25.5 -48.5q0 -11 -8 -19.5t-19 -8.5q-5 0 -13 2.5t-17 9.5q-43 32 -93.5 64.5t-110 64.5t-128.5 66l-30 -66q81 -37 154 -80.5t129 -87t88 -81.5t32 -64q0 -14 -10.5 -24t-26.5 -10q-18 0 -44.5 17t-94.5 75
q-28 24 -67 49.5t-82.5 50.5t-86 47.5t-77.5 40.5l-32 -67q73 -37 135 -73.5t108.5 -70t72.5 -61.5t26 -49q0 -17 -12 -29.5t-32 -12.5q-16 0 -47 13t-95 48q-43 24 -84.5 43.5t-95 39t-134.5 44.5l-21 -37l20 -46q14 -32 19.5 -53.5t5.5 -40.5q0 -29 -11.5 -47t-31.5 -18
t-43.5 24t-53.5 83q-15 29 -53 82t-88 116q-65 82 -93.5 149t-28.5 139q0 92 47.5 165.5t130 116t185.5 42.5zM939 2028q-125 0 -225.5 -53t-159 -144.5t-58.5 -206.5q0 -86 34 -166.5t106 -171.5q47 -60 83.5 -110.5t49.5 -75.5q41 -77 80.5 -113t86.5 -36q63 0 97 53
q57 -41 124 -58t134 -17q140 0 250.5 59t175 159t64.5 223q0 82 -30 157.5t-77 124.5q-16 49 -70 102t-133 101.5t-170.5 87.5t-185 62t-176.5 23zM728 751l-72 -36q55 -109 159 -172t228 -63q37 0 83 10l-16 78q-20 -5 -36 -6.5t-31 -1.5q-102 0 -186.5 51t-128.5 140z
M1872 751q-44 -89 -128.5 -140t-186.5 -51q-15 0 -31 1.5t-36 6.5l-16 -78q46 -10 83 -10q125 0 228.5 63t158.5 172z" />
</svg>