<?xml version="1.0" standalone="no"?>
<!DOCTYPE svg PUBLIC "-//W3C//DTD SVG 1.1//EN" "http://www.w3.org/Graphics/SVG/1.1/DTD/svg11.dtd">
<svg xmlns="http://www.w3.org/2000/svg" xmlns:xlink="http://www.w3.org/1999/xlink" version="1.1"
   viewBox="94 -151 2414 2169">
   <path fill="currentColor"
      d="M426 1978h1749q68 0 116.5 -49t48.5 -116v-1750q0 -68 -48.5 -116.5t-116.5 -48.5h-1750q-67 0 -116 48.5t-49 116.5v1751q0 67 49 115.5t117 48.5zM472 1788q-19 0 -33 -14t-14 -33q0 -20 14 -33.5t33 -13.5q20 0 33.5 13.5t13.5 33.5q0 19 -13.5 33t-33.5 14zM352 1588
q20 0 33.5 -14t13.5 -33q0 -20 -13.5 -33.5t-33.5 -13.5q-19 0 -33 13.5t-14 33.5q0 19 14 33t33 14zM683 1788q-19 0 -33 -14t-14 -33q0 -20 14 -33.5t33 -13.5q20 0 33.5 13.5t13.5 33.5q0 19 -13.5 33t-33.5 14zM563 1588q-19 0 -33 -14t-14 -33q0 -20 14 -33.5t33 -13.5
q20 0 33.5 13.5t13.5 33.5q0 19 -13.5 33t-33.5 14zM472 1387q-19 0 -33 -14t-14 -33q0 -20 14 -33.5t33 -13.5q20 0 33.5 13.5t13.5 33.5q0 19 -13.5 33t-33.5 14zM893 1788q-19 0 -33 -14t-14 -33q0 -20 14 -33.5t33 -13.5q20 0 33.5 13.5t13.5 33.5q0 19 -13.5 33
t-33.5 14zM774 1588q-19 0 -33 -14t-14 -33q0 -20 14 -33.5t33 -13.5q20 0 33.5 13.5t13.5 33.5q0 19 -13.5 33t-33.5 14zM382 1186q20 0 33.5 -14t13.5 -33q0 -20 -13.5 -33.5t-33.5 -13.5q-19 0 -33 13.5t-14 33.5q0 19 14 33t33 14zM683 1387q-19 0 -33 -14t-14 -33
q0 -20 14 -33.5t33 -13.5q20 0 33.5 13.5t13.5 33.5q0 19 -13.5 33t-33.5 14zM1104 1788q-19 0 -33 -14t-14 -33q0 -20 14 -33.5t33 -13.5q20 0 33.5 13.5t13.5 33.5q0 19 -13.5 33t-33.5 14zM563 1186q-19 0 -33 -14t-14 -33q0 -20 14 -33.5t33 -13.5q20 0 33.5 13.5
t13.5 33.5q0 19 -13.5 33t-33.5 14zM984 1588q-19 0 -33 -14t-14 -33q0 -20 14 -33.5t33 -13.5q20 0 33.5 13.5t13.5 33.5q0 19 -13.5 33t-33.5 14zM472 985q-19 0 -33 -14t-14 -33q0 -20 14 -33.5t33 -13.5q20 0 33.5 13.5t13.5 33.5q0 19 -13.5 33t-33.5 14zM893 1387
q-19 0 -33 -14t-14 -33q0 -20 14 -33.5t33 -13.5q20 0 33.5 13.5t13.5 33.5q0 19 -13.5 33t-33.5 14zM1312 1788q-19 0 -33 -14t-14 -33q0 -20 14 -33.5t33 -13.5q20 0 33.5 13.5t13.5 33.5q0 19 -13.5 33t-33.5 14zM352 785q20 0 33.5 -14t13.5 -33q0 -20 -13.5 -33.5
t-33.5 -13.5q-19 0 -33 13.5t-14 33.5q0 19 14 33t33 14zM773 1186q-19 0 -33 -14t-14 -33q0 -20 14 -33.5t33 -13.5q20 0 33.5 13.5t13.5 33.5q0 19 -13.5 33t-33.5 14zM1195 1588q-19 0 -33 -14t-14 -33q0 -20 14 -33.5t33 -13.5q20 0 33.5 13.5t13.5 33.5q0 19 -13.5 33
t-33.5 14zM683 985q-19 0 -33 -14t-14 -33q0 -20 14 -33.5t33 -13.5q20 0 33.5 13.5t13.5 33.5q0 19 -13.5 33t-33.5 14zM1104 1387q-19 0 -33 -14t-14 -33q0 -20 14 -33.5t33 -13.5q20 0 33.5 13.5t13.5 33.5q0 19 -13.5 33t-33.5 14zM1522 1788q-19 0 -33 -14t-14 -33
q0 -20 14 -33.5t33 -13.5q20 0 33.5 13.5t13.5 33.5q0 19 -13.5 33t-33.5 14zM563 785q-19 0 -33 -14t-14 -33q0 -20 14 -33.5t33 -13.5q20 0 33.5 13.5t13.5 33.5q0 19 -13.5 33t-33.5 14zM984 1186q-19 0 -33 -14t-14 -33q0 -20 14 -33.5t33 -13.5q20 0 33.5 13.5
t13.5 33.5q0 19 -13.5 33t-33.5 14zM1405 1588q-19 0 -33 -14t-14 -33q0 -20 14 -33.5t33 -13.5q20 0 33.5 13.5t13.5 33.5q0 19 -13.5 33t-33.5 14zM472 584q-19 0 -33 -14t-14 -33q0 -20 14 -33.5t33 -13.5q20 0 33.5 13.5t13.5 33.5q0 19 -13.5 33t-33.5 14zM893 985
q-19 0 -33 -14t-14 -33q0 -20 14 -33.5t33 -13.5q20 0 33.5 13.5t13.5 33.5q0 19 -13.5 33t-33.5 14zM1312 1387q-19 0 -33 -14t-14 -33q0 -20 14 -33.5t33 -13.5q20 0 33.5 13.5t13.5 33.5q0 19 -13.5 33t-33.5 14zM1733 1788q-19 0 -33 -14t-14 -33q0 -20 14 -33.5
t33 -13.5q20 0 33.5 13.5t13.5 33.5q0 19 -13.5 33t-33.5 14zM352 383q20 0 33.5 -14t13.5 -33q0 -20 -13.5 -33.5t-33.5 -13.5q-19 0 -33 13.5t-14 33.5q0 19 14 33t33 14zM774 785q-19 0 -33 -14t-14 -33q0 -20 14 -33.5t33 -13.5q20 0 33.5 13.5t13.5 33.5q0 19 -13.5 33
t-33.5 14zM1192 1186q-19 0 -33 -14t-14 -33q0 -20 14 -33.5t33 -13.5q20 0 33.5 13.5t13.5 33.5q0 19 -13.5 33t-33.5 14zM1616 1588q-19 0 -33 -14t-14 -33q0 -20 14 -33.5t33 -13.5q20 0 33.5 13.5t13.5 33.5q0 19 -13.5 33t-33.5 14zM683 584q-19 0 -33 -14t-14 -33
q0 -20 14 -33.5t33 -13.5q20 0 33.5 13.5t13.5 33.5q0 19 -13.5 33t-33.5 14zM1104 985q-19 0 -33 -14t-14 -33q0 -20 14 -33.5t33 -13.5q20 0 33.5 13.5t13.5 33.5q0 19 -13.5 33t-33.5 14zM1522 1387q-19 0 -33 -14t-14 -33q0 -20 14 -33.5t33 -13.5q20 0 33.5 13.5
t13.5 33.5q0 19 -13.5 33t-33.5 14zM1943 1788q-19 0 -33 -14t-14 -33q0 -20 14 -33.5t33 -13.5q20 0 33.5 13.5t13.5 33.5q0 19 -13.5 33t-33.5 14zM563 383q-19 0 -33 -14t-14 -33q0 -20 14 -33.5t33 -13.5q20 0 33.5 13.5t13.5 33.5q0 19 -13.5 33t-33.5 14zM984 785
q-19 0 -33 -14t-14 -33q0 -20 14 -33.5t33 -13.5q20 0 33.5 13.5t13.5 33.5q0 19 -13.5 33t-33.5 14zM1402 1186q-19 0 -33 -14t-14 -33q0 -20 14 -33.5t33 -13.5q20 0 33.5 13.5t13.5 33.5q0 19 -13.5 33t-33.5 14zM1826 1588q-19 0 -33 -14t-14 -33q0 -20 14 -33.5
t33 -13.5q20 0 33.5 13.5t13.5 33.5q0 19 -13.5 33t-33.5 14zM472 182q-19 0 -33 -14t-14 -33q0 -20 14 -33.5t33 -13.5q20 0 33.5 13.5t13.5 33.5q0 19 -13.5 33t-33.5 14zM893 584q-19 0 -33 -14t-14 -33q0 -20 14 -33.5t33 -13.5q20 0 33.5 13.5t13.5 33.5q0 19 -13.5 33
t-33.5 14zM426 1898q-35 0 -60.5 -25t-25.5 -59v-1751q0 -35 25.5 -60t59.5 -25h1750q35 0 60 25t25 60v1750q0 34 -25 59.5t-60 25.5h-1749zM1312 985q-19 0 -33 -14t-14 -33q0 -20 14 -33.5t33 -13.5q20 0 33.5 13.5t13.5 33.5q0 19 -13.5 33t-33.5 14zM1733 1387
q-19 0 -33 -14t-14 -33q0 -20 14 -33.5t33 -13.5q20 0 33.5 13.5t13.5 33.5q0 19 -13.5 33t-33.5 14zM2154 1788q-19 0 -33 -14t-14 -33q0 -20 14 -33.5t33 -13.5q20 0 33.5 13.5t13.5 33.5q0 19 -13.5 33t-33.5 14zM774 383q-19 0 -33 -14t-14 -33q0 -20 14 -33.5t33 -13.5
q20 0 33.5 13.5t13.5 33.5q0 19 -13.5 33t-33.5 14zM1195 785q-19 0 -33 -14t-14 -33q0 -20 14 -33.5t33 -13.5q20 0 33.5 13.5t13.5 33.5q0 19 -13.5 33t-33.5 14zM1613 1186q-19 0 -33 -14t-14 -33q0 -20 14 -33.5t33 -13.5q20 0 33.5 13.5t13.5 33.5q0 19 -13.5 33
t-33.5 14zM2037 1588q-19 0 -33 -14t-14 -33q0 -20 14 -33.5t33 -13.5q20 0 33.5 13.5t13.5 33.5q0 19 -13.5 33t-33.5 14zM683 182q-19 0 -33 -14t-14 -33q0 -20 14 -33.5t33 -13.5q20 0 33.5 13.5t13.5 33.5q0 19 -13.5 33t-33.5 14zM1104 584q-19 0 -33 -14t-14 -33
q0 -20 14 -33.5t33 -13.5q20 0 33.5 13.5t13.5 33.5q0 19 -13.5 33t-33.5 14zM1522 985q-19 0 -33 -14t-14 -33q0 -20 14 -33.5t33 -13.5q20 0 33.5 13.5t13.5 33.5q0 19 -13.5 33t-33.5 14zM1943 1387q-19 0 -33 -14t-14 -33q0 -20 14 -33.5t33 -13.5q20 0 33.5 13.5
t13.5 33.5q0 19 -13.5 33t-33.5 14zM984 383q-19 0 -33 -14t-14 -33q0 -20 14 -33.5t33 -13.5q20 0 33.5 13.5t13.5 33.5q0 19 -13.5 33t-33.5 14zM1405 785q-19 0 -33 -14t-14 -33q0 -20 14 -33.5t33 -13.5q20 0 33.5 13.5t13.5 33.5q0 19 -13.5 33t-33.5 14zM1824 1186
q-19 0 -33 -14t-14 -33q0 -20 14 -33.5t33 -13.5q20 0 33.5 13.5t13.5 33.5q0 19 -13.5 33t-33.5 14zM2248 1588q20 0 33.5 -14t13.5 -33q0 -20 -13.5 -33.5t-33.5 -13.5q-19 0 -33 13.5t-14 33.5q0 19 14 33t33 14zM893 182q-19 0 -33 -14t-14 -33q0 -20 14 -33.5t33 -13.5
q20 0 33.5 13.5t13.5 33.5q0 19 -13.5 33t-33.5 14zM1312 584q-19 0 -33 -14t-14 -33q0 -20 14 -33.5t33 -13.5q20 0 33.5 13.5t13.5 33.5q0 19 -13.5 33t-33.5 14zM1733 985q-19 0 -33 -14t-14 -33q0 -20 14 -33.5t33 -13.5q20 0 33.5 13.5t13.5 33.5q0 19 -13.5 33
t-33.5 14zM2154 1387q-19 0 -33 -14t-14 -33q0 -20 14 -33.5t33 -13.5q20 0 33.5 13.5t13.5 33.5q0 19 -13.5 33t-33.5 14zM1195 383q-19 0 -33 -14t-14 -33q0 -20 14 -33.5t33 -13.5q20 0 33.5 13.5t13.5 33.5q0 19 -13.5 33t-33.5 14zM1616 785q-19 0 -33 -14t-14 -33
q0 -20 14 -33.5t33 -13.5q20 0 33.5 13.5t13.5 33.5q0 19 -13.5 33t-33.5 14zM2034 1186q-19 0 -33 -14t-14 -33q0 -20 14 -33.5t33 -13.5q20 0 33.5 13.5t13.5 33.5q0 19 -13.5 33t-33.5 14zM1104 182q-19 0 -33 -14t-14 -33q0 -20 14 -33.5t33 -13.5q20 0 33.5 13.5
t13.5 33.5q0 19 -13.5 33t-33.5 14zM1522 584q-19 0 -33 -14t-14 -33q0 -20 14 -33.5t33 -13.5q20 0 33.5 13.5t13.5 33.5q0 19 -13.5 33t-33.5 14zM1943 985q-19 0 -33 -14t-14 -33q0 -20 14 -33.5t33 -13.5q20 0 33.5 13.5t13.5 33.5q0 19 -13.5 33t-33.5 14zM1405 383
q-19 0 -33 -14t-14 -33q0 -20 14 -33.5t33 -13.5q20 0 33.5 13.5t13.5 33.5q0 19 -13.5 33t-33.5 14zM1826 785q-19 0 -33 -14t-14 -33q0 -20 14 -33.5t33 -13.5q20 0 33.5 13.5t13.5 33.5q0 19 -13.5 33t-33.5 14zM2242 1186q20 0 33.5 -14t13.5 -33q0 -20 -13.5 -33.5
t-33.5 -13.5q-19 0 -33 13.5t-14 33.5q0 19 14 33t33 14zM1312 182q-19 0 -33 -14t-14 -33q0 -20 14 -33.5t33 -13.5q20 0 33.5 13.5t13.5 33.5q0 19 -13.5 33t-33.5 14zM1733 584q-19 0 -33 -14t-14 -33q0 -20 14 -33.5t33 -13.5q20 0 33.5 13.5t13.5 33.5q0 19 -13.5 33
t-33.5 14zM2154 985q-19 0 -33 -14t-14 -33q0 -20 14 -33.5t33 -13.5q20 0 33.5 13.5t13.5 33.5q0 19 -13.5 33t-33.5 14zM1616 383q-19 0 -33 -14t-14 -33q0 -20 14 -33.5t33 -13.5q20 0 33.5 13.5t13.5 33.5q0 19 -13.5 33t-33.5 14zM2037 785q-19 0 -33 -14t-14 -33
q0 -20 14 -33.5t33 -13.5q20 0 33.5 13.5t13.5 33.5q0 19 -13.5 33t-33.5 14zM1522 182q-19 0 -33 -14t-14 -33q0 -20 14 -33.5t33 -13.5q20 0 33.5 13.5t13.5 33.5q0 19 -13.5 33t-33.5 14zM1943 584q-19 0 -33 -14t-14 -33q0 -20 14 -33.5t33 -13.5q20 0 33.5 13.5
t13.5 33.5q0 19 -13.5 33t-33.5 14zM1826 383q-19 0 -33 -14t-14 -33q0 -20 14 -33.5t33 -13.5q20 0 33.5 13.5t13.5 33.5q0 19 -13.5 33t-33.5 14zM2248 785q20 0 33.5 -14t13.5 -33q0 -20 -13.5 -33.5t-33.5 -13.5q-19 0 -33 13.5t-14 33.5q0 19 14 33t33 14zM1733 182
q-19 0 -33 -14t-14 -33q0 -20 14 -33.5t33 -13.5q20 0 33.5 13.5t13.5 33.5q0 19 -13.5 33t-33.5 14zM2154 584q-19 0 -33 -14t-14 -33q0 -20 14 -33.5t33 -13.5q20 0 33.5 13.5t13.5 33.5q0 19 -13.5 33t-33.5 14zM2037 383q-19 0 -33 -14t-14 -33q0 -20 14 -33.5t33 -13.5
q20 0 33.5 13.5t13.5 33.5q0 19 -13.5 33t-33.5 14zM1943 182q-19 0 -33 -14t-14 -33q0 -20 14 -33.5t33 -13.5q20 0 33.5 13.5t13.5 33.5q0 19 -13.5 33t-33.5 14zM2248 383q20 0 33.5 -14t13.5 -33q0 -20 -13.5 -33.5t-33.5 -13.5q-19 0 -33 13.5t-14 33.5q0 19 14 33
t33 14zM2154 182q-19 0 -33 -14t-14 -33q0 -20 14 -33.5t33 -13.5q20 0 33.5 13.5t13.5 33.5q0 19 -13.5 33t-33.5 14z" />
</svg>