<?xml version="1.0" standalone="no"?>
<!DOCTYPE svg PUBLIC "-//W3C//DTD SVG 1.1//EN" "http://www.w3.org/Graphics/SVG/1.1/DTD/svg11.dtd">
<svg xmlns="http://www.w3.org/2000/svg" xmlns:xlink="http://www.w3.org/1999/xlink" version="1.1"
   viewBox="94 -151 2414 2169">
   <path fill="currentColor"
      d="M1301 1978q213 0 401 -81.5t331.5 -225t225 -332t81.5 -401.5t-81.5 -401.5t-225 -332t-331.5 -225t-401 -81.5q-214 0 -402.5 81.5t-332 225t-225 332t-81.5 401.5t81.5 401.5t225 332t332 225t402.5 81.5zM551 1587q20 0 33.5 -14t13.5 -33q0 -20 -13.5 -33.5
t-33.5 -13.5q-19 0 -33 13.5t-14 33.5q0 19 14 33t33 14zM460 1386q20 0 33.5 -14t13.5 -33q0 -20 -13.5 -33.5t-33.5 -13.5q-19 0 -33 13.5t-14 33.5q0 19 14 33t33 14zM881 1788q20 0 33.5 -14t13.5 -33q0 -20 -13.5 -33.5t-33.5 -13.5q-19 0 -33 13.5t-14 33.5
q0 19 14 33t33 14zM762 1587q-19 0 -33 -14t-14 -33q0 -20 14 -33.5t33 -13.5q20 0 33.5 13.5t13.5 33.5q0 19 -13.5 33t-33.5 14zM370 1186q20 0 33.5 -14t13.5 -33q0 -20 -13.5 -33.5t-33.5 -13.5q-19 0 -33 13.5t-14 33.5q0 19 14 33t33 14zM671 1386q-19 0 -33 -14
t-14 -33q0 -20 14 -33.5t33 -13.5q20 0 33.5 13.5t13.5 33.5q0 19 -13.5 33t-33.5 14zM1092 1788q-19 0 -33 -14t-14 -33q0 -20 14 -33.5t33 -13.5q20 0 33.5 13.5t13.5 33.5q0 19 -13.5 33t-33.5 14zM551 1186q-19 0 -33 -14t-14 -33q0 -20 14 -33.5t33 -13.5
q20 0 33.5 13.5t13.5 33.5q0 19 -13.5 33t-33.5 14zM972 1587q-19 0 -33 -14t-14 -33q0 -20 14 -33.5t33 -13.5q20 0 33.5 13.5t13.5 33.5q0 19 -13.5 33t-33.5 14zM460 985q-19 0 -33 -14t-14 -33q0 -20 14 -33.5t33 -13.5q20 0 33.5 13.5t13.5 33.5q0 19 -13.5 33
t-33.5 14zM881 1386q-19 0 -33 -14t-14 -33q0 -20 14 -33.5t33 -13.5q20 0 33.5 13.5t13.5 33.5q0 19 -13.5 33t-33.5 14zM1300 1788q-19 0 -33 -14t-14 -33q0 -20 14 -33.5t33 -13.5q20 0 33.5 13.5t13.5 33.5q0 19 -13.5 33t-33.5 14zM762 1186q-19 0 -33 -14t-14 -33
q0 -20 14 -33.5t33 -13.5q20 0 33.5 13.5t13.5 33.5q0 19 -13.5 33t-33.5 14zM370 784q20 0 33.5 -14t13.5 -33q0 -20 -13.5 -33.5t-33.5 -13.5q-19 0 -33 13.5t-14 33.5q0 19 14 33t33 14zM1180 1587q-19 0 -33 -14t-14 -33q0 -20 14 -33.5t33 -13.5q20 0 33.5 13.5
t13.5 33.5q0 19 -13.5 33t-33.5 14zM671 985q-19 0 -33 -14t-14 -33q0 -20 14 -33.5t33 -13.5q20 0 33.5 13.5t13.5 33.5q0 19 -13.5 33t-33.5 14zM1092 1386q-19 0 -33 -14t-14 -33q0 -20 14 -33.5t33 -13.5q20 0 33.5 13.5t13.5 33.5q0 19 -13.5 33t-33.5 14zM1511 1788
q-19 0 -33 -14t-14 -33q0 -20 14 -33.5t33 -13.5q20 0 33.5 13.5t13.5 33.5q0 19 -13.5 33t-33.5 14zM551 784q-19 0 -33 -14t-14 -33q0 -20 14 -33.5t33 -13.5q20 0 33.5 13.5t13.5 33.5q0 19 -13.5 33t-33.5 14zM972 1186q-19 0 -33 -14t-14 -33q0 -20 14 -33.5t33 -13.5
q20 0 33.5 13.5t13.5 33.5q0 19 -13.5 33t-33.5 14zM1391 1587q-19 0 -33 -14t-14 -33q0 -20 14 -33.5t33 -13.5q20 0 33.5 13.5t13.5 33.5q0 19 -13.5 33t-33.5 14zM460 584q20 0 33.5 -14t13.5 -33q0 -20 -13.5 -33.5t-33.5 -13.5q-19 0 -33 13.5t-14 33.5q0 19 14 33
t33 14zM881 985q-19 0 -33 -14t-14 -33q0 -20 14 -33.5t33 -13.5q20 0 33.5 13.5t13.5 33.5q0 19 -13.5 33t-33.5 14zM1300 1386q-19 0 -33 -14t-14 -33q0 -20 14 -33.5t33 -13.5q20 0 33.5 13.5t13.5 33.5q0 19 -13.5 33t-33.5 14zM1721 1788q20 0 33.5 -14t13.5 -33
q0 -20 -13.5 -33.5t-33.5 -13.5q-19 0 -33 13.5t-14 33.5q0 19 14 33t33 14zM762 784q-19 0 -33 -14t-14 -33q0 -20 14 -33.5t33 -13.5q20 0 33.5 13.5t13.5 33.5q0 19 -13.5 33t-33.5 14zM1180 1186q-19 0 -33 -14t-14 -33q0 -20 14 -33.5t33 -13.5q20 0 33.5 13.5
t13.5 33.5q0 19 -13.5 33t-33.5 14zM1601 1587q-19 0 -33 -14t-14 -33q0 -20 14 -33.5t33 -13.5q20 0 33.5 13.5t13.5 33.5q0 19 -13.5 33t-33.5 14zM671 584q-19 0 -33 -14t-14 -33q0 -20 14 -33.5t33 -13.5q20 0 33.5 13.5t13.5 33.5q0 19 -13.5 33t-33.5 14zM1092 985
q-19 0 -33 -14t-14 -33q0 -20 14 -33.5t33 -13.5q20 0 33.5 13.5t13.5 33.5q0 19 -13.5 33t-33.5 14zM1511 1386q-19 0 -33 -14t-14 -33q0 -20 14 -33.5t33 -13.5q20 0 33.5 13.5t13.5 33.5q0 19 -13.5 33t-33.5 14zM551 383q20 0 33.5 -14t13.5 -33q0 -20 -13.5 -33.5
t-33.5 -13.5q-19 0 -33 13.5t-14 33.5q0 19 14 33t33 14zM972 784q-19 0 -33 -14t-14 -33q0 -20 14 -33.5t33 -13.5q20 0 33.5 13.5t13.5 33.5q0 19 -13.5 33t-33.5 14zM1391 1186q-19 0 -33 -14t-14 -33q0 -20 14 -33.5t33 -13.5q20 0 33.5 13.5t13.5 33.5q0 19 -13.5 33
t-33.5 14zM1812 1587q-19 0 -33 -14t-14 -33q0 -20 14 -33.5t33 -13.5q20 0 33.5 13.5t13.5 33.5q0 19 -13.5 33t-33.5 14zM881 584q-19 0 -33 -14t-14 -33q0 -20 14 -33.5t33 -13.5q20 0 33.5 13.5t13.5 33.5q0 19 -13.5 33t-33.5 14zM1301 1898q-197 0 -371 -75.5
t-306.5 -208t-208 -306t-75.5 -370.5t75.5 -370.5t208 -306t306.5 -208t371 -75.5t370.5 75.5t305.5 208t207.5 306t75.5 370.5t-75.5 370.5t-207.5 306t-305.5 208t-370.5 75.5zM1300 985q-19 0 -33 -14t-14 -33q0 -20 14 -33.5t33 -13.5q20 0 33.5 13.5t13.5 33.5
q0 19 -13.5 33t-33.5 14zM1721 1386q-19 0 -33 -14t-14 -33q0 -20 14 -33.5t33 -13.5q20 0 33.5 13.5t13.5 33.5q0 19 -13.5 33t-33.5 14zM762 383q-19 0 -33 -14t-14 -33q0 -20 14 -33.5t33 -13.5q20 0 33.5 13.5t13.5 33.5q0 19 -13.5 33t-33.5 14zM1180 784
q-19 0 -33 -14t-14 -33q0 -20 14 -33.5t33 -13.5q20 0 33.5 13.5t13.5 33.5q0 19 -13.5 33t-33.5 14zM1601 1186q-19 0 -33 -14t-14 -33q0 -20 14 -33.5t33 -13.5q20 0 33.5 13.5t13.5 33.5q0 19 -13.5 33t-33.5 14zM2022 1587q20 0 33.5 -14t13.5 -33q0 -20 -13.5 -33.5
t-33.5 -13.5q-19 0 -33 13.5t-14 33.5q0 19 14 33t33 14zM1092 584q-19 0 -33 -14t-14 -33q0 -20 14 -33.5t33 -13.5q20 0 33.5 13.5t13.5 33.5q0 19 -13.5 33t-33.5 14zM1511 985q-19 0 -33 -14t-14 -33q0 -20 14 -33.5t33 -13.5q20 0 33.5 13.5t13.5 33.5q0 19 -13.5 33
t-33.5 14zM1932 1386q-19 0 -33 -14t-14 -33q0 -20 14 -33.5t33 -13.5q20 0 33.5 13.5t13.5 33.5q0 19 -13.5 33t-33.5 14zM972 383q-19 0 -33 -14t-14 -33q0 -20 14 -33.5t33 -13.5q20 0 33.5 13.5t13.5 33.5q0 19 -13.5 33t-33.5 14zM1391 784q-19 0 -33 -14t-14 -33
q0 -20 14 -33.5t33 -13.5q20 0 33.5 13.5t13.5 33.5q0 19 -13.5 33t-33.5 14zM1812 1186q-19 0 -33 -14t-14 -33q0 -20 14 -33.5t33 -13.5q20 0 33.5 13.5t13.5 33.5q0 19 -13.5 33t-33.5 14zM881 182q20 0 33.5 -14t13.5 -33q0 -20 -13.5 -33.5t-33.5 -13.5q-19 0 -33 13.5
t-14 33.5q0 19 14 33t33 14zM1300 584q-19 0 -33 -14t-14 -33q0 -20 14 -33.5t33 -13.5q20 0 33.5 13.5t13.5 33.5q0 19 -13.5 33t-33.5 14zM1721 985q-19 0 -33 -14t-14 -33q0 -20 14 -33.5t33 -13.5q20 0 33.5 13.5t13.5 33.5q0 19 -13.5 33t-33.5 14zM2142 1386
q20 0 33.5 -14t13.5 -33q0 -20 -13.5 -33.5t-33.5 -13.5q-19 0 -33 13.5t-14 33.5q0 19 14 33t33 14zM1180 383q-19 0 -33 -14t-14 -33q0 -20 14 -33.5t33 -13.5q20 0 33.5 13.5t13.5 33.5q0 19 -13.5 33t-33.5 14zM1601 784q-19 0 -33 -14t-14 -33q0 -20 14 -33.5t33 -13.5
q20 0 33.5 13.5t13.5 33.5q0 19 -13.5 33t-33.5 14zM2022 1186q-19 0 -33 -14t-14 -33q0 -20 14 -33.5t33 -13.5q20 0 33.5 13.5t13.5 33.5q0 19 -13.5 33t-33.5 14zM1092 182q-19 0 -33 -14t-14 -33q0 -20 14 -33.5t33 -13.5q20 0 33.5 13.5t13.5 33.5q0 19 -13.5 33
t-33.5 14zM1511 584q-19 0 -33 -14t-14 -33q0 -20 14 -33.5t33 -13.5q20 0 33.5 13.5t13.5 33.5q0 19 -13.5 33t-33.5 14zM1932 985q-19 0 -33 -14t-14 -33q0 -20 14 -33.5t33 -13.5q20 0 33.5 13.5t13.5 33.5q0 19 -13.5 33t-33.5 14zM1391 383q-19 0 -33 -14t-14 -33
q0 -20 14 -33.5t33 -13.5q20 0 33.5 13.5t13.5 33.5q0 19 -13.5 33t-33.5 14zM1812 784q-19 0 -33 -14t-14 -33q0 -20 14 -33.5t33 -13.5q20 0 33.5 13.5t13.5 33.5q0 19 -13.5 33t-33.5 14zM2230 1186q20 0 33.5 -14t13.5 -33q0 -20 -13.5 -33.5t-33.5 -13.5
q-19 0 -33 13.5t-14 33.5q0 19 14 33t33 14zM1300 182q-19 0 -33 -14t-14 -33q0 -20 14 -33.5t33 -13.5q20 0 33.5 13.5t13.5 33.5q0 19 -13.5 33t-33.5 14zM1721 584q-19 0 -33 -14t-14 -33q0 -20 14 -33.5t33 -13.5q20 0 33.5 13.5t13.5 33.5q0 19 -13.5 33t-33.5 14z
M2142 985q-19 0 -33 -14t-14 -33q0 -20 14 -33.5t33 -13.5q20 0 33.5 13.5t13.5 33.5q0 19 -13.5 33t-33.5 14zM1601 383q-19 0 -33 -14t-14 -33q0 -20 14 -33.5t33 -13.5q20 0 33.5 13.5t13.5 33.5q0 19 -13.5 33t-33.5 14zM2022 784q-19 0 -33 -14t-14 -33q0 -20 14 -33.5
t33 -13.5q20 0 33.5 13.5t13.5 33.5q0 19 -13.5 33t-33.5 14zM1511 182q-19 0 -33 -14t-14 -33q0 -20 14 -33.5t33 -13.5q20 0 33.5 13.5t13.5 33.5q0 19 -13.5 33t-33.5 14zM1932 584q-19 0 -33 -14t-14 -33q0 -20 14 -33.5t33 -13.5q20 0 33.5 13.5t13.5 33.5
q0 19 -13.5 33t-33.5 14zM1812 383q-19 0 -33 -14t-14 -33q0 -20 14 -33.5t33 -13.5q20 0 33.5 13.5t13.5 33.5q0 19 -13.5 33t-33.5 14zM2230 784q20 0 33.5 -14t13.5 -33q0 -20 -13.5 -33.5t-33.5 -13.5q-19 0 -33 13.5t-14 33.5q0 19 14 33t33 14zM1721 182
q20 0 33.5 -14t13.5 -33q0 -20 -13.5 -33.5t-33.5 -13.5q-19 0 -33 13.5t-14 33.5q0 19 14 33t33 14zM2142 584q20 0 33.5 -14t13.5 -33q0 -20 -13.5 -33.5t-33.5 -13.5q-19 0 -33 13.5t-14 33.5q0 19 14 33t33 14zM2022 383q20 0 33.5 -14t13.5 -33q0 -20 -13.5 -33.5
t-33.5 -13.5q-19 0 -33 13.5t-14 33.5q0 19 14 33t33 14z" />
</svg>