<?xml version="1.0" standalone="no"?>
<!DOCTYPE svg PUBLIC "-//W3C//DTD SVG 1.1//EN" "http://www.w3.org/Graphics/SVG/1.1/DTD/svg11.dtd">
<svg xmlns="http://www.w3.org/2000/svg" xmlns:xlink="http://www.w3.org/1999/xlink" version="1.1"
   viewBox="94 -151 2414 2169">
   <path fill="currentColor"
      d="M120 1828v-1780h2360v1780h-2360zM165 1621v-70h901v70h-901zM527 1218q-3 -80 -59.5 -130.5t-137.5 -53.5v-596q81 -3 137.5 -54t59.5 -130h547v59h-500q-7 62 -61.5 112t-124.5 58v506q70 7 124.5 57.5t61.5 112.5h500v59h-547zM720 1010v-134h-138v-44h138v-54h-138
v-43h119l-138 -272h81l64 142q13 28 25 57.5t25 59.5h4q13 -31 25.5 -59.5t25.5 -57.5l64 -142h79l-140 272h120v43h-139v54h139v44h-139v134h-77zM1031 1782v-1697h70v1697h-70zM200 1748h2200v-324h-861v-80h861v-1216h-2200v1216h863v80h-863v324zM1539 1621v-70h896v70
h-896zM1499 1782v-1697h70v1697h-70zM1526 1218v-59h500q8 -62 62.5 -112.5t123.5 -57.5v-506q-69 -8 -123.5 -58t-62.5 -112h-500v-59h548q3 79 59.5 130t137.5 54v596q-81 3 -137.5 53.5t-59.5 130.5h-548z" />
</svg>