<?xml version="1.0" standalone="no"?>
<!DOCTYPE svg PUBLIC "-//W3C//DTD SVG 1.1//EN" "http://www.w3.org/Graphics/SVG/1.1/DTD/svg11.dtd">
<svg xmlns="http://www.w3.org/2000/svg" xmlns:xlink="http://www.w3.org/1999/xlink" version="1.1"
   viewBox="94 -151 2414 2169">
   <path fill="currentColor"
      d="M416 1978q-64 0 -110 -45.5t-46 -108.5v-1771q0 -64 45.5 -109.5t109.5 -45.5h1770q64 0 109.5 45.5t45.5 109.5v1770q0 64 -45.5 109.5t-109.5 45.5h-1769zM1299 1337q-38 0 -65 -27t-27 -65t27 -65.5t65 -27.5t65.5 27.5t27.5 65.5t-27.5 65t-65.5 27zM1301 1731
q165 0 309 -62t254 -172t172 -254.5t62 -309.5t-62 -309.5t-171.5 -254.5t-254 -172t-309.5 -62t-310 62t-255 172t-172 254.5t-62 309.5t62 309.5t172.5 254.5t255 172t309.5 62zM1301 1651q-148 0 -278.5 -56t-229.5 -154.5t-155 -229t-56 -278.5q0 -149 56 -279
t155 -228.5t229 -154.5t279 -56t278.5 56t228.5 154.5t154.5 228.5t55.5 279q0 148 -56 278.5t-154.5 229t-228.5 154.5t-278 56zM1330 1524q114 0 218 -47t185.5 -128t128.5 -184.5t47 -217.5q0 -151 -69.5 -279.5t-201.5 -215.5q20 45 29 90t9 100q0 123 -71 201.5
t-193 90.5q-102 10 -179 34.5t-128 63.5t-76.5 91.5t-25.5 119.5q0 79 41 143t115 101t171 37zM1300 737q51 0 85 -34t34 -83q0 -50 -34.5 -84t-84.5 -34q-49 0 -83.5 34.5t-34.5 83.5t34.5 83t83.5 34z" />
</svg>