<?xml version="1.0" standalone="no"?>
<!DOCTYPE svg PUBLIC "-//W3C//DTD SVG 1.1//EN" "http://www.w3.org/Graphics/SVG/1.1/DTD/svg11.dtd">
<svg xmlns="http://www.w3.org/2000/svg" xmlns:xlink="http://www.w3.org/1999/xlink" version="1.1"
   viewBox="94 -151 2414 2169">
   <path fill="currentColor"
      d="M1109 1583q-172 0 -318 -65t-254.5 -179t-168.5 -263t-60 -318q0 -183 58 -339.5t166 -273.5t259 -182t337 -65q310 0 546 84.5t368.5 266t132.5 472.5q0 272 -121 465t-358.5 295t-586.5 102zM1162 1978q-89 0 -142.5 -36t-53.5 -99q0 -80 79.5 -126t211.5 -46
q82 0 154.5 15t142.5 34q66 18 132.5 31.5t136.5 13.5q122 0 209 -38.5t133.5 -110t46.5 -171.5q0 -102 -44.5 -182t-94.5 -149q-56 -77 -102.5 -152t-69.5 -169l66 -26q29 97 74.5 169.5t89.5 131.5q65 86 113 172t48 205q0 123 -57 212.5t-162.5 138.5t-249.5 49
q-79 0 -150.5 -14.5t-139.5 -33.5q-67 -18 -134.5 -32t-141.5 -14q-97 0 -154 26t-57 66q0 25 30 40t86 15q138 0 298.5 -87.5t387.5 -234.5l44 68q-151 98 -278 173.5t-237.5 118t-214.5 42.5zM1046 1337q-108 0 -203 -45t-167 -124.5t-113 -184t-41 -222.5t41 -221.5
t113 -183t167 -124.5t203 -45t202.5 45t167 124.5t113.5 183.5t41 221q0 118 -41 222.5t-113 184t-167 124.5t-203 45zM1046 1257q122 0 222.5 -67.5t161 -180t60.5 -248.5q0 -135 -60.5 -247.5t-161.5 -179.5t-222 -67t-222 67t-161.5 179t-60.5 248t60 249t161 180t223 67
zM1102 1503q153 0 280.5 -56t221 -159t144.5 -244.5t51 -313.5q0 -166 -52.5 -304t-147 -238.5t-221.5 -155t-275 -54.5q-155 0 -285.5 59t-227 165t-149.5 248t-53 308q0 150 52.5 284t148.5 238t226.5 163.5t286.5 59.5zM811 183q-13 7 -25.5 5t-20.5 -12q-7 -11 -3 -24
t18 -21q65 -38 134 -57t148 -19q78 0 165 21q16 4 23.5 15.5t3.5 23.5q-8 28 -47 19t-74.5 -13.5t-72.5 -4.5q-70 0 -130.5 16.5t-118.5 50.5zM1509 1480q146 -44 265.5 -146.5t190 -255t70.5 -345.5q0 -197 -66.5 -339t-180 -233t-253.5 -133q212 114 326 290t114 415
q0 146 -56 290.5t-160.5 264t-249.5 192.5zM1476 286q-23 16 -44 -10q-15 -19 -34.5 -38t-40.5 -35q-28 -21 -11 -45q8 -11 21 -12.5t25 8.5q23 19 45.5 40.5t40.5 44.5q11 13 10 26.5t-12 20.5z" />
</svg>