<?xml version="1.0" standalone="no"?>
<!DOCTYPE svg PUBLIC "-//W3C//DTD SVG 1.1//EN" "http://www.w3.org/Graphics/SVG/1.1/DTD/svg11.dtd">
<svg xmlns="http://www.w3.org/2000/svg" xmlns:xlink="http://www.w3.org/1999/xlink" version="1.1"
   viewBox="94 -151 2414 2169">
   <path fill="currentColor"
      d="M560 1728l-18 -52l224 -813l-421 150l-25 -70l525 -187l18 52l-223 813l455 -164l25 71zM1117 1062l-9 -54l376 -768l-446 70l-13 -75l559 -87l8 56l-376 767l484 -77l12 74zM1894 1177l-2 -56l311 -461l10 33l-313 10l-2 -61l363 -13l2 56l-309 457l-15 -29l338 -13
l3 63z" />
</svg>